<svg width="948" height="406" viewBox="0 0 948 406" fill="none" xmlns="http://www.w3.org/2000/svg">
<g filter="url(#filter0_f_2771_57548)">
<path d="M1230 689C1230 1078.36 1044.2 1394 815 1394C585.802 1394 400 1078.36 400 689C400 299.639 585.802 -16 815 -16C1044.2 -16 1230 299.639 1230 689Z" fill="#589F8B"/>
</g>
<g filter="url(#filter1_f_2771_57548)">
<path d="M1216 621C1216 1015.33 1081.91 1335 916.5 1335C751.091 1335 617 1015.33 617 621C617 226.669 751.091 -93 916.5 -93C1081.91 -93 1216 226.669 1216 621Z" fill="#0D0D11"/>
</g>
<path d="M711.386 188.238L711.529 187.228L711.816 186.358L712.24 185.638L712.67 184.913L713.381 184.333L714.24 183.898L715.094 183.613H715.948H716.946L717.8 183.898L718.659 184.333L719.227 184.913L719.794 185.638L720.224 186.358L720.51 187.228L720.654 188.238L720.51 189.254L720.224 190.124L719.794 190.989L719.227 191.569L718.659 192.148L717.8 192.582L716.946 192.871L715.948 193.016L715.094 192.871L714.24 192.582L713.381 192.148L712.67 191.569L712.24 190.989L711.816 190.124L711.529 189.254L711.386 188.238ZM686.156 239.173L687.727 240.476L689.292 241.633L690.862 242.79L692.57 243.948L694.427 244.961L696.135 245.829L697.986 246.697L699.981 247.421L701.838 247.999L703.832 248.578L705.827 249.157L707.821 249.591L709.821 249.88L711.816 250.025L713.954 250.17H715.948H718.086L720.224 250.025L722.218 249.88L724.213 249.591L726.213 249.157L728.208 248.578L730.202 247.999L732.053 247.421L734.054 246.697L735.905 245.829L737.613 244.961L739.47 243.948L741.178 242.79L742.748 241.633L744.313 240.476L745.883 239.173L740.181 232.951L738.043 234.832L735.762 236.424L733.337 237.871L730.913 239.173L728.351 240.186L725.783 241.054L722.935 241.633L720.081 242.067V208.932H728.208V202.711H720.081V197.791L721.508 197.212L722.792 196.344L723.932 195.331L724.929 194.174L725.64 193.016L726.213 191.569L726.637 189.979V188.383V187.228L726.494 186.213L726.213 185.058L725.927 184.188L725.353 183.178L724.929 182.308L724.213 181.443L723.645 180.718L722.791 179.992L721.937 179.412L721.078 178.983L720.224 178.548L719.227 178.112L718.229 177.822L717.089 177.677H715.948H714.951L713.81 177.822L712.813 178.112L711.816 178.548L710.962 178.983L710.102 179.412L709.248 179.992L708.394 180.718L707.821 181.443L707.11 182.308L706.681 183.178L706.113 184.188L705.827 185.058L705.54 186.213L705.402 187.228V188.383V189.979L705.826 191.569L706.4 193.016L707.11 194.174L708.108 195.331L709.248 196.344L710.532 197.212L711.959 197.791V202.711H703.832V208.932H711.959V242.067L709.105 241.633L706.256 241.054L703.689 240.186L701.121 239.173L698.559 237.871L696.278 236.424L693.997 234.832L691.859 232.951L686.156 239.173ZM669.192 202.711L669.335 200.395L669.478 197.936L669.765 195.62L670.195 193.305L670.762 191.134L671.335 188.818L672.046 186.648L672.9 184.478L673.897 182.453L674.894 180.428L676.035 178.548L677.319 176.522L678.603 174.782L680.03 172.902L681.451 171.312L683.022 169.577L684.586 168.126L686.3 166.681L688.008 165.236L689.865 163.931L691.859 162.631L693.711 161.615L695.705 160.461L697.843 159.59L699.981 158.726L702.124 158L704.4 157.42L706.681 156.84L708.962 156.41L711.243 156.12L713.667 155.975L715.948 155.83L718.373 155.975L720.797 156.12L723.072 156.41L725.354 156.84L727.635 157.42L729.916 158L732.054 158.726L734.191 159.59L736.192 160.461L738.329 161.615L740.181 162.631L742.175 163.931L744.026 165.236L745.74 166.681L747.448 168.126L749.018 169.577L750.583 171.312L752.01 172.902L753.437 174.782L754.721 176.522L756.005 178.548L757.14 180.428L758.143 182.453L759.14 184.478L759.994 186.648L760.705 188.818L761.278 191.134L761.845 193.305L762.275 195.62L762.562 197.936L762.699 200.395L762.843 202.711L762.699 205.025L762.562 207.051L762.275 209.222L761.989 211.392L761.559 213.418L760.991 215.443L760.424 217.469L759.707 219.495L758.997 221.376L758.143 223.257L757.14 225.138L756.143 226.874L755.145 228.611L754.005 230.347L752.727 232.083L751.443 233.675L745.453 227.453L747.305 224.848L749.162 221.955L750.583 219.061L751.867 215.877L752.727 212.694L753.437 209.511L753.861 206.183L754.005 202.711V200.829L753.861 198.804L753.581 196.922L753.294 195.042L752.864 193.161L752.297 191.279L751.724 189.544L751.013 187.809L750.302 186.068L749.443 184.333L748.445 182.743L747.448 181.153L746.451 179.702L745.31 178.112L744.17 176.813L742.886 175.362L741.464 174.062L740.181 172.902L738.754 171.747L737.189 170.586L735.618 169.577L734.054 168.706L732.483 167.842L730.77 166.971L729.062 166.391L727.21 165.671L725.497 165.236L723.646 164.801L721.794 164.366L719.937 164.221L717.943 164.076L715.948 163.931L714.097 164.076L712.097 164.221L710.246 164.366L708.394 164.801L706.543 165.236L704.829 165.671L702.978 166.391L701.265 166.971L699.557 167.842L697.986 168.706L696.421 169.577L694.851 170.586L693.286 171.747L691.859 172.902L690.575 174.062L689.148 175.362L687.87 176.813L686.73 178.112L685.589 179.702L684.586 181.153L683.589 182.743L682.592 184.333L681.738 186.068L681.027 187.809L680.311 189.544L679.743 191.279L679.17 193.161L678.746 195.042L678.459 196.922L678.173 198.804L678.029 200.829V202.711L678.173 206.183L678.603 209.511L679.313 212.694L680.173 215.877L681.451 219.061L682.878 221.955L684.729 224.848L686.586 227.453L680.597 233.675L679.313 232.083L678.029 230.347L676.889 228.611L675.892 226.874L674.894 225.138L673.897 223.257L673.043 221.376L672.332 219.495L671.616 217.469L671.049 215.443L670.475 213.418L670.051 211.392L669.765 209.222L669.478 207.051L669.335 205.025L669.192 202.711ZM629.284 217.614V188.383H636.981V210.958H650.095V217.614H629.284ZM602.06 217.614H623.581V210.958H609.327V205.894H621.013V199.817H609.327V194.752H622.87V188.383H602.06V217.614ZM569.133 203L569.271 201.263L569.414 199.672L569.7 198.225L570.13 196.778L570.698 195.331L571.408 194.029L572.125 192.871L572.979 191.859L573.976 190.843L574.973 189.979L576.257 189.254L577.398 188.673L578.825 188.099L580.246 187.809L581.673 187.519H583.387L585.662 187.664L586.803 187.809L587.943 188.099L588.941 188.528L589.944 188.963L590.798 189.399L591.652 189.979L592.506 190.698L593.222 191.424L593.933 192.292L594.5 193.161L594.93 194.174L595.36 195.186L595.641 196.344L595.927 197.502H588.23L587.943 196.488L587.519 195.765L587.089 195.186L586.522 194.608L585.806 194.318L585.095 194.029L584.241 193.884H583.525L582.671 194.029H581.96L581.243 194.318L580.533 194.608L579.965 195.042L579.392 195.476L578.538 196.488L577.828 197.936L577.254 199.382L576.968 201.119V203V204.881L577.398 206.617L577.828 208.209L578.682 209.511L579.679 210.668L580.246 211.102L580.819 211.536L581.53 211.826L582.246 211.97L583.1 212.116L583.954 212.26L585.382 212.116L586.665 211.826L587.806 211.392L588.803 210.813V207.051H583.668V201.263H596.071V214.431L594.643 215.443L593.079 216.311L591.652 217.035L590.081 217.614L588.517 218.048L587.089 218.482L585.662 218.627H584.384H582.527L580.963 218.337L579.392 218.048L577.828 217.614L576.544 217.035L575.26 216.311L574.119 215.443L573.122 214.575L572.268 213.418L571.408 212.26L570.698 210.958L570.13 209.656L569.7 208.064L569.414 206.472L569.271 204.736L569.133 203ZM549.033 207.196L552.735 196.054L556.444 207.196H549.033ZM537.627 217.614H545.468L546.895 213.273H558.438L560.009 217.614H567.849L556.873 188.383H548.603L537.627 217.614ZM508.69 217.614H515.82V200.106L525.941 217.614H534.063V188.383H526.938V205.604L516.53 188.383H508.69V217.614ZM476.193 205.894V202.131H487.598V190.269H492.017V202.131H503.56V205.894H492.017V217.614H487.598V205.894H476.193ZM451.25 217.614H472.771V210.958H458.517V205.894H470.203V199.817H458.517V194.752H472.06V188.383H451.25V217.614ZM419.034 217.614H426.301V200.106L436.279 217.614H444.406V188.383H437.277V205.604L426.874 188.383H419.034V217.614ZM386.537 217.614H394.234V206.328H404.636V217.614H412.19V188.383H404.636V199.382H394.234V188.383H386.537V217.614ZM359.307 217.614H380.834V210.958H366.58V205.894H378.266V199.817H366.58V194.752H380.117V188.383H359.307V217.614ZM327.665 205.604V207.34L327.807 208.932L328.234 210.379L328.662 211.681L329.232 212.839L329.803 213.852L330.516 214.865L331.371 215.733L332.226 216.457L333.224 217.035L334.221 217.469L335.362 217.903L336.502 218.337L337.785 218.482L338.925 218.627H340.208H341.491L342.631 218.482L343.914 218.337L345.054 217.903L346.052 217.469L347.193 217.035L348.191 216.457L349.046 215.733L349.901 214.865L350.614 213.852L351.184 212.839L351.754 211.681L352.182 210.379L352.467 208.932L352.752 207.34V205.604V188.383H345.054V206.762L344.912 207.919L344.627 209.077L344.342 209.945L343.772 210.668L343.059 211.247L342.346 211.681L341.349 211.97H340.208H339.068L338.07 211.681L337.215 211.247L336.645 210.668L336.075 209.945L335.647 209.077L335.504 207.919L335.362 206.762V188.383H327.665L327.665 205.604ZM299.156 217.614H306.711V209.366L309.277 206.038L315.976 217.614H324.956L314.408 200.395L323.673 188.383H314.836L306.711 198.804V188.383H299.156V217.614Z" fill="#EEEFF1"/>
<g filter="url(#filter2_f_2771_57548)">
<path d="M634 407.5C634 438.704 587.661 464 530.5 464C473.339 464 427 438.704 427 407.5C427 376.296 473.339 351 530.5 351C587.661 351 634 376.296 634 407.5Z" fill="#E1F9EB"/>
</g>
<defs>
<filter id="filter0_f_2771_57548" x="0" y="-416" width="1630" height="2210" filterUnits="userSpaceOnUse" color-interpolation-filters="sRGB">
<feFlood flood-opacity="0" result="BackgroundImageFix"/>
<feBlend mode="normal" in="SourceGraphic" in2="BackgroundImageFix" result="shape"/>
<feGaussianBlur stdDeviation="200" result="effect1_foregroundBlur_2771_57548"/>
</filter>
<filter id="filter1_f_2771_57548" x="417" y="-293" width="999" height="1828" filterUnits="userSpaceOnUse" color-interpolation-filters="sRGB">
<feFlood flood-opacity="0" result="BackgroundImageFix"/>
<feBlend mode="normal" in="SourceGraphic" in2="BackgroundImageFix" result="shape"/>
<feGaussianBlur stdDeviation="100" result="effect1_foregroundBlur_2771_57548"/>
</filter>
<filter id="filter2_f_2771_57548" x="227" y="151" width="607" height="513" filterUnits="userSpaceOnUse" color-interpolation-filters="sRGB">
<feFlood flood-opacity="0" result="BackgroundImageFix"/>
<feBlend mode="normal" in="SourceGraphic" in2="BackgroundImageFix" result="shape"/>
<feGaussianBlur stdDeviation="100" result="effect1_foregroundBlur_2771_57548"/>
</filter>
</defs>
</svg>
