<svg width="1919" height="466" viewBox="0 0 1919 466" fill="none" xmlns="http://www.w3.org/2000/svg">
<path d="M488.6 255.6C468.6 255.6 451.1 251.1 436.1 242.1C421.1 232.9 409.4 220.2 401 204C392.6 187.6 388.4 168.6 388.4 147C388.4 125.6 392.6 106.8 401 90.6C409.4 74.2 421.1 61.4 436.1 52.2C451.1 43 468.6 38.4 488.6 38.4C509 38.4 526.7 43 541.7 52.2C556.9 61.4 568.6 74.2 576.8 90.6C585 106.8 589.1 125.6 589.1 147C589.1 168.6 585 187.6 576.8 204C568.6 220.2 556.9 232.9 541.7 242.1C526.7 251.1 509 255.6 488.6 255.6ZM488.9 243.3C505.5 243.3 520.3 239.5 533.3 231.9C546.3 224.3 556.5 213.3 563.9 198.9C571.3 184.5 575 167.2 575 147C575 126.8 571.3 109.5 563.9 95.1C556.5 80.7 546.3 69.7 533.3 62.1C520.3 54.5 505.5 50.7 488.9 50.7C472.3 50.7 457.5 54.5 444.5 62.1C431.5 69.7 421.2 80.7 413.6 95.1C406.2 109.5 402.5 126.8 402.5 147C402.5 167.2 406.2 184.5 413.6 198.9C421.2 213.3 431.5 224.3 444.5 231.9C457.5 239.5 472.3 243.3 488.9 243.3ZM626.788 252V42H687.988C704.188 42 717.388 44.6 727.588 49.8C737.988 54.8 745.588 61.7 750.388 70.5C755.188 79.3 757.588 89.4 757.588 100.8C757.588 112.2 755.188 122.4 750.388 131.4C745.588 140.2 738.088 147.1 727.888 152.1C717.688 157.1 704.388 159.6 687.988 159.6H640.288V252H626.788ZM640.288 147.9H688.288C706.888 147.9 720.688 143.9 729.688 135.9C738.888 127.9 743.488 116.2 743.488 100.8C743.488 85.4 738.888 73.7 729.688 65.7C720.688 57.7 706.888 53.7 688.288 53.7H640.288V147.9ZM792.022 252V42H915.322V53.4H805.522V141H906.322V152.7H805.522V240.6H915.322V252H792.022ZM956.084 252V42H970.484L1093.18 229.8V42H1106.68V252H1092.58L969.584 63.6V252H956.084ZM1152.96 252V42H1166.46V252H1152.96ZM1199.52 252L1276.63 42H1291.03L1367.23 252H1352.83L1283.53 59.4L1213.63 252H1199.52ZM1232.23 185.4L1236.73 174H1330.33L1334.83 185.4H1232.23ZM1403.15 252V42H1464.35C1480.55 42 1493.75 44.6 1503.95 49.8C1514.35 54.8 1521.95 61.7 1526.75 70.5C1531.55 79.3 1533.95 89.4 1533.95 100.8C1533.95 112.2 1531.55 122.4 1526.75 131.4C1521.95 140.2 1514.45 147.1 1504.25 152.1C1494.05 157.1 1480.75 159.6 1464.35 159.6H1416.65V252H1403.15ZM1416.65 147.9H1464.65C1483.25 147.9 1497.05 143.9 1506.05 135.9C1515.25 127.9 1519.85 116.2 1519.85 100.8C1519.85 85.4 1515.25 73.7 1506.05 65.7C1497.05 57.7 1483.25 53.7 1464.65 53.7H1416.65V147.9Z" fill="url(#paint0_linear_3088_36677)"/>
<g clip-path="url(#clip0_3088_36677)">
<ellipse cx="960" cy="748" rx="1163" ry="575" fill="#0D0D11"/>
</g>
<defs>
<linearGradient id="paint0_linear_3088_36677" x1="1689.71" y1="-63" x2="972.299" y2="237.073" gradientUnits="userSpaceOnUse">
<stop stop-color="white" stop-opacity="0.4"/>
<stop offset="1" stop-color="#EEEFF1" stop-opacity="0.8"/>
</linearGradient>
<clipPath id="clip0_3088_36677">
<rect width="1919" height="293" fill="white" transform="translate(0 173)"/>
</clipPath>
</defs>
</svg>
