<svg width="20" height="20" viewBox="0 0 20 20" fill="none" xmlns="http://www.w3.org/2000/svg">
<rect width="20" height="20" rx="2" fill="#ACADAE"/>
<path fill-rule="evenodd" clip-rule="evenodd" d="M10 3C6.1325 3 3 6.21173 3 10.1771C3 13.3529 5.00375 16.0353 7.78625 16.9863C8.13625 17.0491 8.2675 16.8338 8.2675 16.6454C8.2675 16.4749 8.25875 15.9097 8.25875 15.3087C6.5 15.6406 6.045 14.8691 5.905 14.4653C5.82625 14.259 5.485 13.622 5.1875 13.4516C4.9425 13.317 4.5925 12.9851 5.17875 12.9761C5.73 12.9671 6.12375 13.4964 6.255 13.7118C6.885 14.7973 7.89125 14.4923 8.29375 14.3039C8.355 13.8374 8.53875 13.5234 8.74 13.3439C7.1825 13.1645 5.555 12.5455 5.555 9.80026C5.555 9.01976 5.82625 8.37382 6.2725 7.87143C6.2025 7.692 5.9575 6.95635 6.3425 5.96951C6.3425 5.96951 6.92875 5.78111 8.2675 6.70516C8.8275 6.54367 9.4225 6.46293 10.0175 6.46293C10.6125 6.46293 11.2075 6.54367 11.7675 6.70516C13.1062 5.77214 13.6925 5.96951 13.6925 5.96951C14.0775 6.95635 13.8325 7.692 13.7625 7.87143C14.2087 8.37382 14.48 9.01079 14.48 9.80026C14.48 12.5545 12.8437 13.1645 11.2862 13.3439C11.54 13.5682 11.7587 13.9988 11.7587 14.6717C11.7587 15.6316 11.75 16.4032 11.75 16.6454C11.75 16.8338 11.8812 17.0581 12.2312 16.9863C13.6209 16.5053 14.8284 15.5896 15.6839 14.3681C16.5393 13.1466 16.9997 11.6809 17 10.1771C17 6.21173 13.8675 3 10 3Z" fill="#191A1E"/>
</svg>
