<svg width="20" height="20" viewBox="0 0 20 20" fill="none" xmlns="http://www.w3.org/2000/svg">
<path d="M17.0417 17.0416H14.0783V12.4C14.0783 11.2933 14.0583 9.86832 12.5367 9.86832C10.9933 9.86832 10.7567 11.075 10.7567 12.3183V17.0416H7.79333V7.49666H10.6383V8.80166H10.6783C11.2583 7.81166 12.3383 7.21833 13.485 7.26C16.4883 7.26 17.0433 9.23499 17.0433 11.8066L17.0417 17.04V17.0416ZM4.45 6.19167C3.99479 6.18948 3.55882 6.00779 3.23678 5.68607C2.91474 5.36434 2.73263 4.92855 2.73 4.47334C2.73 3.53001 3.50667 2.75335 4.45 2.75335C5.39333 2.75335 6.16833 3.53001 6.17 4.47334C6.17 5.41667 5.39333 6.19167 4.45 6.19167ZM5.93167 17.0416H2.965V7.49666H5.93167V17.0416ZM18.5167 2.4772e-05H1.475C1.08858 -0.0022196 0.716896 0.148124 0.440705 0.418383C0.164515 0.688643 0.00614111 1.05698 0 1.44335V18.5566C0.00614111 18.943 0.164515 19.3113 0.440705 19.5816C0.716896 19.8519 1.08858 20.0022 1.475 20H18.5183C18.9056 20.0031 19.2785 19.8532 19.556 19.583C19.8334 19.3127 19.993 18.9439 20 18.5566V1.44169C19.993 1.05473 19.8333 0.686237 19.5558 0.416504C19.2782 0.146772 18.9053 -0.00233041 18.5183 0.00169131L18.5167 2.4772e-05Z" fill="#ACADAE"/>
</svg>
