<svg width="1172" height="256" viewBox="0 0 1172 256" fill="none" xmlns="http://www.w3.org/2000/svg">
<path d="M114.6 255.6C94.6 255.6 77.1 251.1 62.1 242.1C47.1 232.9 35.4 220.2 27 204C18.6 187.6 14.4 168.6 14.4 147C14.4 125.6 18.6 106.8 27 90.6C35.4 74.2 47.1 61.4 62.1 52.2C77.1 43 94.6 38.4 114.6 38.4C135 38.4 152.7 43 167.7 52.2C182.9 61.4 194.6 74.2 202.8 90.6C211 106.8 215.1 125.6 215.1 147C215.1 168.6 211 187.6 202.8 204C194.6 220.2 182.9 232.9 167.7 242.1C152.7 251.1 135 255.6 114.6 255.6ZM114.9 243.3C131.5 243.3 146.3 239.5 159.3 231.9C172.3 224.3 182.5 213.3 189.9 198.9C197.3 184.5 201 167.2 201 147C201 126.8 197.3 109.5 189.9 95.1C182.5 80.7 172.3 69.7 159.3 62.1C146.3 54.5 131.5 50.7 114.9 50.7C98.3 50.7 83.5 54.5 70.5 62.1C57.5 69.7 47.2 80.7 39.6 95.1C32.2 109.5 28.5 126.8 28.5 147C28.5 167.2 32.2 184.5 39.6 198.9C47.2 213.3 57.5 224.3 70.5 231.9C83.5 239.5 98.3 243.3 114.9 243.3ZM252.788 252V42H313.988C330.188 42 343.388 44.6 353.588 49.8C363.988 54.8 371.588 61.7 376.388 70.5C381.188 79.3 383.588 89.4 383.588 100.8C383.588 112.2 381.188 122.4 376.388 131.4C371.588 140.2 364.088 147.1 353.888 152.1C343.688 157.1 330.388 159.6 313.988 159.6H266.288V252H252.788ZM266.288 147.9H314.288C332.888 147.9 346.688 143.9 355.688 135.9C364.888 127.9 369.488 116.2 369.488 100.8C369.488 85.4 364.888 73.7 355.688 65.7C346.688 57.7 332.888 53.7 314.288 53.7H266.288V147.9ZM418.022 252V42H541.322V53.4H431.522V141H532.322V152.7H431.522V240.6H541.322V252H418.022ZM582.084 252V42H596.484L719.184 229.8V42H732.684V252H718.584L595.584 63.6V252H582.084ZM778.959 252V42H792.459V252H778.959ZM825.525 252L902.625 42H917.025L993.225 252H978.825L909.525 59.4L839.625 252H825.525ZM858.225 185.4L862.725 174H956.325L960.825 185.4H858.225ZM1029.15 252V42H1090.35C1106.55 42 1119.75 44.6 1129.95 49.8C1140.35 54.8 1147.95 61.7 1152.75 70.5C1157.55 79.3 1159.95 89.4 1159.95 100.8C1159.95 112.2 1157.55 122.4 1152.75 131.4C1147.95 140.2 1140.45 147.1 1130.25 152.1C1120.05 157.1 1106.75 159.6 1090.35 159.6H1042.65V252H1029.15ZM1042.65 147.9H1090.65C1109.25 147.9 1123.05 143.9 1132.05 135.9C1141.25 127.9 1145.85 116.2 1145.85 100.8C1145.85 85.4 1141.25 73.7 1132.05 65.7C1123.05 57.7 1109.25 53.7 1090.65 53.7H1042.65V147.9Z" fill="url(#paint0_linear_3138_71914)"/>
<g clip-path="url(#clip0_3138_71914)">
<ellipse cx="586" cy="748" rx="1163" ry="575" fill="#0D0D11"/>
</g>
<defs>
<linearGradient id="paint0_linear_3138_71914" x1="1361.67" y1="-204.12" x2="662.706" y2="224.599" gradientUnits="userSpaceOnUse">
<stop stop-color="white" stop-opacity="0.4"/>
<stop offset="1" stop-color="#EEEFF1" stop-opacity="0.8"/>
</linearGradient>
<clipPath id="clip0_3138_71914">
<rect width="1172" height="79" fill="white" transform="translate(0 173)"/>
</clipPath>
</defs>
</svg>
