<svg width="408" height="253" viewBox="0 0 408 253" fill="none" xmlns="http://www.w3.org/2000/svg">
<g filter="url(#filter0_d_2654_28186)">
<rect x="44.1475" y="20" width="319.853" height="164.308" rx="10" fill="#1C1E21"/>
<rect x="44.6475" y="20.5" width="318.853" height="163.308" rx="9.5" stroke="#575B62"/>
</g>
<g filter="url(#filter1_d_2654_28186)">
<path d="M75.7109 73.4492C75.7109 70.6878 77.9495 68.4492 80.7109 68.4492H98.0668C100.828 68.4492 103.067 70.6878 103.067 73.4492V183.254H75.7109V73.4492Z" fill="#86888E"/>
</g>
<g filter="url(#filter2_d_2654_28186)">
<path d="M152.519 87.1426C152.519 84.3812 154.757 82.1426 157.519 82.1426H174.874C177.636 82.1426 179.874 84.3812 179.874 87.1426V183.255H152.519V87.1426Z" fill="#86888E"/>
</g>
<g filter="url(#filter3_d_2654_28186)">
<path d="M229.325 61.8633C229.325 59.1019 231.564 56.8633 234.325 56.8633H251.681C254.442 56.8633 256.681 59.1019 256.681 61.8633V183.254H229.325V61.8633Z" fill="#86888E"/>
</g>
<g filter="url(#filter4_d_2654_28186)">
<path d="M305.08 42.9062C305.08 40.1448 307.319 37.9062 310.08 37.9062H327.436C330.197 37.9062 332.436 40.1448 332.436 42.9063V183.255H305.08V42.9062Z" fill="#86888E"/>
<path d="M305.08 110.58H332.436V183.255H305.08V110.58Z" fill="#D9D9D9"/>
</g>
<path d="M26.7807 50.1719V49.6999C27.1754 49.4012 27.5487 49.0999 27.9007 48.7959C28.2527 48.4919 28.5647 48.1905 28.8367 47.8919C29.1087 47.5879 29.3221 47.2919 29.4767 47.0039C29.6314 46.7159 29.7087 46.4385 29.7087 46.1719C29.7087 45.9745 29.6714 45.7932 29.5967 45.6279C29.5274 45.4572 29.4127 45.3185 29.2527 45.2119C29.0981 45.1052 28.8874 45.0519 28.6207 45.0519C28.3647 45.0519 28.1514 45.1079 27.9807 45.2199C27.8101 45.3265 27.6821 45.4705 27.5967 45.6519C27.5114 45.8279 27.4687 46.0225 27.4687 46.2359H26.8207C26.8261 45.8679 26.9061 45.5532 27.0607 45.2919C27.2154 45.0252 27.4287 44.8225 27.7007 44.6839C27.9727 44.5452 28.2821 44.4759 28.6287 44.4759C28.9701 44.4759 29.2714 44.5399 29.5327 44.6679C29.7941 44.7905 29.9994 44.9772 30.1487 45.2279C30.3034 45.4732 30.3807 45.7799 30.3807 46.1479C30.3807 46.4092 30.3247 46.6705 30.2127 46.9319C30.1061 47.1932 29.9594 47.4492 29.7727 47.6999C29.5861 47.9452 29.3781 48.1825 29.1487 48.4119C28.9247 48.6412 28.6927 48.8572 28.4527 49.0599C28.2127 49.2625 27.9861 49.4465 27.7727 49.6119H30.5727V50.1719H26.7807ZM36.4801 50.1719L34.5681 47.8999L36.3681 45.9639H37.1921L35.1361 48.1399L35.1441 47.6599L37.3361 50.1719H36.4801ZM34.0081 50.1719V44.4119H34.6801V50.1719H34.0081Z" fill="#86888E"/>
<path d="M22.44 87.0352V82.1872L21.288 82.5552V82.0272L22.664 81.4352H23.12V87.0352H22.44ZM24.7264 87.0752C24.5984 87.0752 24.489 87.0325 24.3984 86.9472C24.313 86.8565 24.2704 86.7472 24.2704 86.6192C24.2704 86.4912 24.313 86.3845 24.3984 86.2992C24.489 86.2085 24.5984 86.1632 24.7264 86.1632C24.865 86.1632 24.9744 86.2085 25.0544 86.2992C25.1397 86.3845 25.1824 86.4912 25.1824 86.6192C25.1824 86.7472 25.1397 86.8565 25.0544 86.9472C24.9744 87.0325 24.865 87.0752 24.7264 87.0752ZM28.1824 87.1312C27.8091 87.1312 27.4838 87.0645 27.2064 86.9312C26.9344 86.7978 26.7184 86.6192 26.5584 86.3952C26.4038 86.1658 26.3078 85.9045 26.2704 85.6112H26.9264C26.9851 85.8885 27.1211 86.1152 27.3344 86.2912C27.5531 86.4672 27.8384 86.5552 28.1904 86.5552C28.4518 86.5552 28.6731 86.4965 28.8544 86.3792C29.0411 86.2565 29.1851 86.0912 29.2864 85.8832C29.3878 85.6698 29.4384 85.4325 29.4384 85.1712C29.4384 84.9098 29.3878 84.6805 29.2864 84.4832C29.1904 84.2805 29.0518 84.1232 28.8704 84.0112C28.6891 83.8938 28.4758 83.8352 28.2304 83.8352C27.9371 83.8352 27.6864 83.8938 27.4784 84.0112C27.2758 84.1285 27.1184 84.2725 27.0064 84.4432H26.3424L26.7664 81.4352H29.7744V82.0192H27.2864L26.9984 83.7712C27.1318 83.6218 27.3078 83.5018 27.5264 83.4112C27.7504 83.3152 28.0091 83.2672 28.3024 83.2672C28.5744 83.2672 28.8198 83.3152 29.0384 83.4112C29.2571 83.5072 29.4438 83.6432 29.5984 83.8192C29.7584 83.9898 29.8784 84.1898 29.9584 84.4192C30.0438 84.6485 30.0864 84.8965 30.0864 85.1632C30.0864 85.4298 30.0411 85.6832 29.9504 85.9232C29.8651 86.1578 29.7398 86.3658 29.5744 86.5472C29.4144 86.7285 29.2171 86.8725 28.9824 86.9792C28.7478 87.0805 28.4811 87.1312 28.1824 87.1312ZM36.0784 87.0352L34.1664 84.7632L35.9664 82.8272H36.7904L34.7344 85.0032L34.7424 84.5232L36.9344 87.0352H36.0784ZM33.6064 87.0352V81.2752H34.2784V87.0352H33.6064Z" fill="#86888E"/>
<path d="M29.8052 123.898V119.05L28.6532 119.418V118.89L30.0292 118.298H30.4852V123.898H29.8052ZM36.608 123.898L34.696 121.626L36.496 119.69H37.32L35.264 121.866L35.272 121.386L37.464 123.898H36.608ZM34.136 123.898V118.138H34.808V123.898H34.136Z" fill="#86888E"/>
<path d="M24.5167 160.86C24.1434 160.86 23.8181 160.793 23.5407 160.66C23.2687 160.526 23.0527 160.348 22.8927 160.124C22.7381 159.894 22.6421 159.633 22.6047 159.34H23.2607C23.3194 159.617 23.4554 159.844 23.6687 160.02C23.8874 160.196 24.1727 160.284 24.5247 160.284C24.7861 160.284 25.0074 160.225 25.1887 160.108C25.3754 159.985 25.5194 159.82 25.6207 159.612C25.7221 159.398 25.7727 159.161 25.7727 158.9C25.7727 158.638 25.7221 158.409 25.6207 158.212C25.5247 158.009 25.3861 157.852 25.2047 157.74C25.0234 157.622 24.8101 157.564 24.5647 157.564C24.2714 157.564 24.0207 157.622 23.8127 157.74C23.6101 157.857 23.4527 158.001 23.3407 158.172H22.6767L23.1007 155.164H26.1087V155.748H23.6207L23.3327 157.5C23.4661 157.35 23.6421 157.23 23.8607 157.14C24.0847 157.044 24.3434 156.996 24.6367 156.996C24.9087 156.996 25.1541 157.044 25.3727 157.14C25.5914 157.236 25.7781 157.372 25.9327 157.548C26.0927 157.718 26.2127 157.918 26.2927 158.148C26.3781 158.377 26.4207 158.625 26.4207 158.892C26.4207 159.158 26.3754 159.412 26.2847 159.652C26.1994 159.886 26.0741 160.094 25.9087 160.276C25.7487 160.457 25.5514 160.601 25.3167 160.708C25.0821 160.809 24.8154 160.86 24.5167 160.86ZM29.6963 160.86C29.2323 160.86 28.8323 160.74 28.4963 160.5C28.1656 160.254 27.9096 159.916 27.7283 159.484C27.547 159.046 27.4563 158.54 27.4563 157.964C27.4563 157.388 27.547 156.884 27.7283 156.452C27.9096 156.014 28.1656 155.676 28.4963 155.436C28.8323 155.19 29.2323 155.068 29.6963 155.068C30.1603 155.068 30.5576 155.19 30.8883 155.436C31.219 155.676 31.4723 156.014 31.6483 156.452C31.8296 156.884 31.9203 157.388 31.9203 157.964C31.9203 158.54 31.8296 159.046 31.6483 159.484C31.4723 159.916 31.219 160.254 30.8883 160.5C30.5576 160.74 30.1603 160.86 29.6963 160.86ZM29.6963 160.268C29.9896 160.268 30.251 160.177 30.4803 159.996C30.7096 159.809 30.891 159.545 31.0243 159.204C31.163 158.857 31.2323 158.444 31.2323 157.964C31.2323 157.478 31.163 157.065 31.0243 156.724C30.891 156.382 30.7096 156.121 30.4803 155.94C30.251 155.758 29.9896 155.668 29.6963 155.668C29.3976 155.668 29.131 155.758 28.8963 155.94C28.6616 156.121 28.4776 156.382 28.3443 156.724C28.211 157.065 28.1443 157.478 28.1443 157.964C28.1443 158.444 28.211 158.857 28.3443 159.204C28.4776 159.545 28.6616 159.809 28.8963 159.996C29.131 160.177 29.3976 160.268 29.6963 160.268ZM35.1063 160.86C34.6423 160.86 34.2423 160.74 33.9063 160.5C33.5756 160.254 33.3196 159.916 33.1383 159.484C32.957 159.046 32.8663 158.54 32.8663 157.964C32.8663 157.388 32.957 156.884 33.1383 156.452C33.3196 156.014 33.5756 155.676 33.9063 155.436C34.2423 155.19 34.6423 155.068 35.1063 155.068C35.5703 155.068 35.9676 155.19 36.2983 155.436C36.629 155.676 36.8823 156.014 37.0583 156.452C37.2396 156.884 37.3303 157.388 37.3303 157.964C37.3303 158.54 37.2396 159.046 37.0583 159.484C36.8823 159.916 36.629 160.254 36.2983 160.5C35.9676 160.74 35.5703 160.86 35.1063 160.86ZM35.1063 160.268C35.3996 160.268 35.661 160.177 35.8903 159.996C36.1196 159.809 36.301 159.545 36.4343 159.204C36.573 158.857 36.6423 158.444 36.6423 157.964C36.6423 157.478 36.573 157.065 36.4343 156.724C36.301 156.382 36.1196 156.121 35.8903 155.94C35.661 155.758 35.3996 155.668 35.1063 155.668C34.8076 155.668 34.541 155.758 34.3063 155.94C34.0716 156.121 33.8876 156.382 33.7543 156.724C33.621 157.065 33.5543 157.478 33.5543 157.964C33.5543 158.444 33.621 158.857 33.7543 159.204C33.8876 159.545 34.0716 159.809 34.3063 159.996C34.541 160.177 34.8076 160.268 35.1063 160.268Z" fill="#86888E"/>
<path d="M63.6539 198.334V192.366H64.2619L64.3179 193.022C64.4033 192.884 64.5099 192.758 64.6379 192.646C64.7713 192.534 64.9286 192.444 65.1099 192.374C65.2966 192.305 65.5099 192.27 65.7499 192.27C66.1286 192.27 66.4593 192.366 66.7419 192.558C67.0299 192.75 67.2539 193.012 67.4139 193.342C67.5739 193.673 67.6539 194.052 67.6539 194.478C67.6539 194.9 67.5739 195.276 67.4139 195.606C67.2539 195.937 67.0299 196.198 66.7419 196.39C66.4539 196.577 66.1206 196.67 65.7419 196.67C65.4166 196.67 65.1313 196.604 64.8859 196.47C64.6406 196.337 64.4539 196.15 64.3259 195.91V198.334H63.6539ZM65.6619 196.086C65.9126 196.086 66.1339 196.022 66.3259 195.894C66.5233 195.761 66.6779 195.574 66.7899 195.334C66.9073 195.089 66.9659 194.801 66.9659 194.47C66.9659 194.14 66.9073 193.854 66.7899 193.614C66.6779 193.369 66.5233 193.182 66.3259 193.054C66.1339 192.921 65.9126 192.854 65.6619 192.854C65.3953 192.854 65.1633 192.921 64.9659 193.054C64.7686 193.182 64.6166 193.369 64.5099 193.614C64.4033 193.854 64.3499 194.14 64.3499 194.47C64.3499 194.801 64.4033 195.089 64.5099 195.334C64.6166 195.574 64.7686 195.761 64.9659 195.894C65.1633 196.022 65.3953 196.086 65.6619 196.086ZM68.7905 196.574V192.366H69.3985L69.4465 193.134C69.5425 192.942 69.6678 192.782 69.8225 192.654C69.9772 192.526 70.1638 192.43 70.3825 192.366C70.6065 192.302 70.8572 192.27 71.1345 192.27V192.974H70.7185C70.5585 192.974 70.4038 192.996 70.2545 193.038C70.1052 193.081 69.9692 193.15 69.8465 193.246C69.7292 193.342 69.6358 193.473 69.5665 193.638C69.4972 193.804 69.4625 194.012 69.4625 194.262V196.574H68.7905ZM73.7272 196.67C73.3379 196.67 72.9939 196.58 72.6952 196.398C72.3966 196.217 72.1646 195.961 71.9992 195.63C71.8339 195.3 71.7512 194.913 71.7512 194.47C71.7512 194.022 71.8339 193.636 71.9992 193.31C72.1699 192.98 72.4046 192.724 72.7032 192.542C73.0072 192.361 73.3539 192.27 73.7432 192.27C74.1379 192.27 74.4819 192.361 74.7752 192.542C75.0739 192.724 75.3059 192.98 75.4713 193.31C75.6366 193.636 75.7192 194.022 75.7192 194.47C75.7192 194.913 75.6339 195.3 75.4632 195.63C75.2979 195.961 75.0659 196.217 74.7672 196.398C74.4686 196.58 74.1219 196.67 73.7272 196.67ZM73.7272 196.094C73.9726 196.094 74.1939 196.036 74.3912 195.918C74.5886 195.796 74.7432 195.614 74.8552 195.374C74.9726 195.129 75.0312 194.828 75.0312 194.47C75.0312 194.108 74.9752 193.806 74.8632 193.566C74.7512 193.326 74.5966 193.148 74.3992 193.03C74.2072 192.908 73.9886 192.846 73.7432 192.846C73.5032 192.846 73.2846 192.908 73.0872 193.03C72.8899 193.148 72.7326 193.326 72.6152 193.566C72.4979 193.806 72.4392 194.108 72.4392 194.47C72.4392 194.828 72.4952 195.129 72.6072 195.374C72.7246 195.614 72.8792 195.796 73.0712 195.918C73.2686 196.036 73.4872 196.094 73.7272 196.094ZM78.6687 196.67C78.2847 196.67 77.9434 196.58 77.6447 196.398C77.346 196.212 77.1114 195.953 76.9407 195.622C76.77 195.292 76.6847 194.908 76.6847 194.47C76.6847 194.028 76.77 193.644 76.9407 193.318C77.1114 192.988 77.346 192.732 77.6447 192.55C77.9434 192.364 78.2847 192.27 78.6687 192.27C79.1487 192.27 79.5487 192.398 79.8687 192.654C80.194 192.91 80.402 193.254 80.4927 193.686H79.8047C79.746 193.42 79.61 193.214 79.3967 193.07C79.1887 192.921 78.9434 192.846 78.6607 192.846C78.4154 192.846 78.194 192.908 77.9967 193.03C77.8047 193.153 77.6527 193.334 77.5407 193.574C77.4287 193.814 77.3727 194.113 77.3727 194.47C77.3727 194.737 77.4047 194.974 77.4687 195.182C77.5327 195.385 77.6207 195.556 77.7327 195.694C77.85 195.828 77.986 195.929 78.1407 195.998C78.3007 196.068 78.474 196.102 78.6607 196.102C78.8527 196.102 79.026 196.07 79.1807 196.006C79.3407 195.937 79.474 195.838 79.5807 195.71C79.6927 195.582 79.7674 195.43 79.8047 195.254H80.4927C80.4074 195.676 80.1994 196.017 79.8687 196.278C79.5434 196.54 79.1434 196.67 78.6687 196.67ZM83.3739 196.67C83.0005 196.67 82.6699 196.58 82.3819 196.398C82.0939 196.217 81.8672 195.961 81.7019 195.63C81.5419 195.3 81.4619 194.913 81.4619 194.47C81.4619 194.028 81.5419 193.641 81.7019 193.31C81.8672 192.98 82.0939 192.724 82.3819 192.542C82.6752 192.361 83.0112 192.27 83.3899 192.27C83.7952 192.27 84.1339 192.361 84.4059 192.542C84.6779 192.724 84.8832 192.966 85.0219 193.27C85.1605 193.574 85.2299 193.908 85.2299 194.27C85.2299 194.324 85.2299 194.377 85.2299 194.43C85.2299 194.484 85.2272 194.548 85.2219 194.622H81.9659V194.102H84.5739C84.5632 193.692 84.4432 193.38 84.2139 193.166C83.9899 192.948 83.7099 192.838 83.3739 192.838C83.1499 192.838 82.9419 192.894 82.7499 193.006C82.5632 193.113 82.4112 193.273 82.2939 193.486C82.1765 193.7 82.1179 193.966 82.1179 194.286V194.51C82.1179 194.862 82.1765 195.158 82.2939 195.398C82.4112 195.633 82.5632 195.809 82.7499 195.926C82.9419 196.044 83.1499 196.102 83.3739 196.102C83.6725 196.102 83.9072 196.046 84.0779 195.934C84.2485 195.817 84.3739 195.652 84.4539 195.438H85.1179C85.0539 195.673 84.9419 195.884 84.7819 196.07C84.6272 196.257 84.4299 196.404 84.1899 196.51C83.9552 196.617 83.6832 196.67 83.3739 196.67ZM87.8411 196.67C87.4625 196.67 87.1478 196.614 86.8971 196.502C86.6518 196.385 86.4651 196.225 86.3371 196.022C86.2091 195.814 86.1318 195.574 86.1051 195.302H86.7931C86.8145 195.446 86.8625 195.58 86.9371 195.702C87.0171 195.82 87.1318 195.916 87.2811 195.99C87.4305 196.065 87.6198 196.102 87.8491 196.102C88.0305 196.102 88.1851 196.076 88.3131 196.022C88.4411 195.964 88.5371 195.884 88.6011 195.782C88.6705 195.681 88.7051 195.564 88.7051 195.43C88.7051 195.254 88.6651 195.118 88.5851 195.022C88.5105 194.921 88.3985 194.846 88.2491 194.798C88.1051 194.745 87.9238 194.705 87.7051 194.678C87.4705 194.646 87.2625 194.601 87.0811 194.542C86.8998 194.484 86.7451 194.406 86.6171 194.31C86.4945 194.214 86.4011 194.094 86.3371 193.95C86.2731 193.806 86.2411 193.636 86.2411 193.438C86.2411 193.209 86.3025 193.006 86.4251 192.83C86.5478 192.654 86.7211 192.518 86.9451 192.422C87.1745 192.321 87.4438 192.27 87.7531 192.27C88.2065 192.27 88.5638 192.374 88.8251 192.582C89.0918 192.79 89.2491 193.086 89.2971 193.47H88.6331C88.6065 193.273 88.5158 193.118 88.3611 193.006C88.2065 192.894 88.0011 192.838 87.7451 192.838C87.4731 192.838 87.2678 192.889 87.1291 192.99C86.9905 193.092 86.9211 193.225 86.9211 193.39C86.9211 193.513 86.9505 193.625 87.0091 193.726C87.0731 193.822 87.1798 193.905 87.3291 193.974C87.4785 194.038 87.6785 194.086 87.9291 194.118C88.2438 194.156 88.5105 194.217 88.7291 194.302C88.9478 194.382 89.1131 194.508 89.2251 194.678C89.3425 194.849 89.3985 195.081 89.3931 195.374C89.3931 195.652 89.3265 195.886 89.1931 196.078C89.0651 196.27 88.8838 196.417 88.6491 196.518C88.4198 196.62 88.1505 196.67 87.8411 196.67ZM92.0714 196.67C91.6928 196.67 91.3781 196.614 91.1274 196.502C90.8821 196.385 90.6954 196.225 90.5674 196.022C90.4394 195.814 90.3621 195.574 90.3354 195.302H91.0234C91.0448 195.446 91.0928 195.58 91.1674 195.702C91.2474 195.82 91.3621 195.916 91.5114 195.99C91.6608 196.065 91.8501 196.102 92.0794 196.102C92.2608 196.102 92.4154 196.076 92.5434 196.022C92.6714 195.964 92.7674 195.884 92.8314 195.782C92.9008 195.681 92.9354 195.564 92.9354 195.43C92.9354 195.254 92.8954 195.118 92.8154 195.022C92.7408 194.921 92.6288 194.846 92.4794 194.798C92.3354 194.745 92.1541 194.705 91.9354 194.678C91.7008 194.646 91.4928 194.601 91.3114 194.542C91.1301 194.484 90.9754 194.406 90.8474 194.31C90.7248 194.214 90.6314 194.094 90.5674 193.95C90.5034 193.806 90.4714 193.636 90.4714 193.438C90.4714 193.209 90.5328 193.006 90.6554 192.83C90.7781 192.654 90.9514 192.518 91.1754 192.422C91.4048 192.321 91.6741 192.27 91.9834 192.27C92.4368 192.27 92.7941 192.374 93.0554 192.582C93.3221 192.79 93.4794 193.086 93.5274 193.47H92.8634C92.8368 193.273 92.7461 193.118 92.5914 193.006C92.4368 192.894 92.2314 192.838 91.9754 192.838C91.7034 192.838 91.4981 192.889 91.3594 192.99C91.2208 193.092 91.1514 193.225 91.1514 193.39C91.1514 193.513 91.1808 193.625 91.2394 193.726C91.3034 193.822 91.4101 193.905 91.5594 193.974C91.7088 194.038 91.9088 194.086 92.1594 194.118C92.4741 194.156 92.7408 194.217 92.9594 194.302C93.1781 194.382 93.3434 194.508 93.4554 194.678C93.5728 194.849 93.6288 195.081 93.6234 195.374C93.6234 195.652 93.5568 195.886 93.4234 196.078C93.2954 196.27 93.1141 196.417 92.8794 196.518C92.6501 196.62 92.3808 196.67 92.0714 196.67ZM94.7818 197.494V196.862H98.6938V197.494H94.7818ZM101.733 196.67C101.359 196.67 101.029 196.58 100.741 196.398C100.453 196.217 100.226 195.961 100.061 195.63C99.9006 195.3 99.8206 194.913 99.8206 194.47C99.8206 194.028 99.9006 193.641 100.061 193.31C100.226 192.98 100.453 192.724 100.741 192.542C101.034 192.361 101.37 192.27 101.749 192.27C102.154 192.27 102.493 192.361 102.765 192.542C103.037 192.724 103.242 192.966 103.381 193.27C103.519 193.574 103.589 193.908 103.589 194.27C103.589 194.324 103.589 194.377 103.589 194.43C103.589 194.484 103.586 194.548 103.581 194.622H100.325V194.102H102.933C102.922 193.692 102.802 193.38 102.573 193.166C102.349 192.948 102.069 192.838 101.733 192.838C101.509 192.838 101.301 192.894 101.109 193.006C100.922 193.113 100.77 193.273 100.653 193.486C100.535 193.7 100.477 193.966 100.477 194.286V194.51C100.477 194.862 100.535 195.158 100.653 195.398C100.77 195.633 100.922 195.809 101.109 195.926C101.301 196.044 101.509 196.102 101.733 196.102C102.031 196.102 102.266 196.046 102.437 195.934C102.607 195.817 102.733 195.652 102.813 195.438H103.477C103.413 195.673 103.301 195.884 103.141 196.07C102.986 196.257 102.789 196.404 102.549 196.51C102.314 196.617 102.042 196.67 101.733 196.67ZM106.416 196.67C106.043 196.67 105.712 196.574 105.424 196.382C105.136 196.19 104.912 195.929 104.752 195.598C104.592 195.262 104.512 194.884 104.512 194.462C104.512 194.036 104.592 193.66 104.752 193.334C104.912 193.004 105.136 192.745 105.424 192.558C105.712 192.366 106.045 192.27 106.424 192.27C106.755 192.27 107.037 192.337 107.272 192.47C107.512 192.604 107.701 192.79 107.84 193.03V190.814H108.512V196.574H107.904L107.848 195.902C107.768 196.036 107.661 196.161 107.528 196.278C107.4 196.396 107.243 196.492 107.056 196.566C106.875 196.636 106.661 196.67 106.416 196.67ZM106.504 196.086C106.771 196.086 107.003 196.022 107.2 195.894C107.397 195.761 107.549 195.574 107.656 195.334C107.763 195.089 107.816 194.801 107.816 194.47C107.816 194.14 107.763 193.854 107.656 193.614C107.549 193.369 107.397 193.182 107.2 193.054C107.003 192.921 106.771 192.854 106.504 192.854C106.253 192.854 106.029 192.921 105.832 193.054C105.635 193.182 105.48 193.369 105.368 193.614C105.256 193.854 105.2 194.14 105.2 194.47C105.2 194.801 105.256 195.089 105.368 195.334C105.48 195.574 105.635 195.761 105.832 195.894C106.029 196.022 106.253 196.086 106.504 196.086ZM109.873 196.574V192.366H110.545V196.574H109.873ZM110.209 191.566C110.075 191.566 109.963 191.524 109.873 191.438C109.787 191.348 109.745 191.236 109.745 191.102C109.745 190.969 109.787 190.862 109.873 190.782C109.963 190.697 110.075 190.654 110.209 190.654C110.337 190.654 110.446 190.697 110.537 190.782C110.627 190.862 110.673 190.969 110.673 191.102C110.673 191.236 110.627 191.348 110.537 191.438C110.446 191.524 110.337 191.566 110.209 191.566Z" fill="#86888E"/>
<path d="M136.252 196.574V192.366H136.86L136.908 193.134C137.004 192.942 137.129 192.782 137.284 192.654C137.438 192.526 137.625 192.43 137.844 192.366C138.068 192.302 138.318 192.27 138.596 192.27V192.974H138.18C138.02 192.974 137.865 192.996 137.716 193.038C137.566 193.081 137.43 193.15 137.308 193.246C137.19 193.342 137.097 193.473 137.028 193.638C136.958 193.804 136.924 194.012 136.924 194.262V196.574H136.252ZM141.041 196.67C140.731 196.67 140.462 196.612 140.233 196.494C140.003 196.377 139.825 196.198 139.697 195.958C139.569 195.713 139.505 195.409 139.505 195.046V192.366H140.177V194.974C140.177 195.348 140.267 195.628 140.449 195.814C140.635 196.001 140.883 196.094 141.193 196.094C141.406 196.094 141.598 196.046 141.769 195.95C141.939 195.849 142.075 195.702 142.177 195.51C142.283 195.318 142.337 195.084 142.337 194.806V192.366H143.009V196.574H142.401L142.361 195.902C142.249 196.148 142.075 196.337 141.841 196.47C141.611 196.604 141.345 196.67 141.041 196.67ZM144.306 196.574V192.366H144.914L144.946 193.03C145.069 192.79 145.245 192.604 145.474 192.47C145.709 192.337 145.978 192.27 146.282 192.27C146.591 192.27 146.861 192.329 147.09 192.446C147.319 192.564 147.498 192.742 147.626 192.982C147.754 193.222 147.818 193.526 147.818 193.894V196.574H147.146V193.966C147.146 193.593 147.053 193.313 146.866 193.126C146.685 192.94 146.439 192.846 146.13 192.846C145.922 192.846 145.73 192.897 145.554 192.998C145.378 193.094 145.237 193.238 145.13 193.43C145.029 193.622 144.978 193.857 144.978 194.134V196.574H144.306ZM149.091 197.494V196.862H153.003V197.494H149.091ZM154.362 196.574V192.366H155.034V196.574H154.362ZM154.698 191.566C154.565 191.566 154.453 191.524 154.362 191.438C154.277 191.348 154.234 191.236 154.234 191.102C154.234 190.969 154.277 190.862 154.362 190.782C154.453 190.697 154.565 190.654 154.698 190.654C154.826 190.654 154.935 190.697 155.026 190.782C155.117 190.862 155.162 190.969 155.162 191.102C155.162 191.236 155.117 191.348 155.026 191.438C154.935 191.524 154.826 191.566 154.698 191.566ZM156.388 196.574V192.366H156.996L157.028 193.03C157.15 192.79 157.326 192.604 157.556 192.47C157.79 192.337 158.06 192.27 158.364 192.27C158.673 192.27 158.942 192.329 159.172 192.446C159.401 192.564 159.58 192.742 159.708 192.982C159.836 193.222 159.9 193.526 159.9 193.894V196.574H159.228V193.966C159.228 193.593 159.134 193.313 158.948 193.126C158.766 192.94 158.521 192.846 158.212 192.846C158.004 192.846 157.812 192.897 157.636 192.998C157.46 193.094 157.318 193.238 157.212 193.43C157.11 193.622 157.06 193.857 157.06 194.134V196.574H156.388ZM162.318 196.574L160.718 192.366H161.43L162.71 195.926L163.998 192.366H164.686L163.094 196.574H162.318ZM167.147 196.67C166.774 196.67 166.443 196.58 166.155 196.398C165.867 196.217 165.64 195.961 165.475 195.63C165.315 195.3 165.235 194.913 165.235 194.47C165.235 194.028 165.315 193.641 165.475 193.31C165.64 192.98 165.867 192.724 166.155 192.542C166.448 192.361 166.784 192.27 167.163 192.27C167.568 192.27 167.907 192.361 168.179 192.542C168.451 192.724 168.656 192.966 168.795 193.27C168.934 193.574 169.003 193.908 169.003 194.27C169.003 194.324 169.003 194.377 169.003 194.43C169.003 194.484 169 194.548 168.995 194.622H165.739V194.102H168.347C168.336 193.692 168.216 193.38 167.987 193.166C167.763 192.948 167.483 192.838 167.147 192.838C166.923 192.838 166.715 192.894 166.523 193.006C166.336 193.113 166.184 193.273 166.067 193.486C165.95 193.7 165.891 193.966 165.891 194.286V194.51C165.891 194.862 165.95 195.158 166.067 195.398C166.184 195.633 166.336 195.809 166.523 195.926C166.715 196.044 166.923 196.102 167.147 196.102C167.446 196.102 167.68 196.046 167.851 195.934C168.022 195.817 168.147 195.652 168.227 195.438H168.891C168.827 195.673 168.715 195.884 168.555 196.07C168.4 196.257 168.203 196.404 167.963 196.51C167.728 196.617 167.456 196.67 167.147 196.67ZM170.094 196.574V192.366H170.702L170.734 193.03C170.857 192.79 171.033 192.604 171.262 192.47C171.497 192.337 171.766 192.27 172.07 192.27C172.379 192.27 172.649 192.329 172.878 192.446C173.107 192.564 173.286 192.742 173.414 192.982C173.542 193.222 173.606 193.526 173.606 193.894V196.574H172.934V193.966C172.934 193.593 172.841 193.313 172.654 193.126C172.473 192.94 172.227 192.846 171.918 192.846C171.71 192.846 171.518 192.897 171.342 192.998C171.166 193.094 171.025 193.238 170.918 193.43C170.817 193.622 170.766 193.857 170.766 194.134V196.574H170.094ZM176.511 196.574C176.271 196.574 176.063 196.537 175.887 196.462C175.711 196.388 175.575 196.262 175.479 196.086C175.388 195.905 175.343 195.662 175.343 195.358V192.934H174.607V192.366H175.343L175.431 191.318H176.015V192.366H177.207V192.934H176.015V195.358C176.015 195.609 176.066 195.78 176.167 195.87C176.268 195.956 176.447 195.998 176.703 195.998H177.191V196.574H176.511ZM179.988 196.67C179.598 196.67 179.254 196.58 178.956 196.398C178.657 196.217 178.425 195.961 178.26 195.63C178.094 195.3 178.012 194.913 178.012 194.47C178.012 194.022 178.094 193.636 178.26 193.31C178.43 192.98 178.665 192.724 178.964 192.542C179.268 192.361 179.614 192.27 180.004 192.27C180.398 192.27 180.742 192.361 181.036 192.542C181.334 192.724 181.566 192.98 181.732 193.31C181.897 193.636 181.98 194.022 181.98 194.47C181.98 194.913 181.894 195.3 181.724 195.63C181.558 195.961 181.326 196.217 181.028 196.398C180.729 196.58 180.382 196.67 179.988 196.67ZM179.988 196.094C180.233 196.094 180.454 196.036 180.652 195.918C180.849 195.796 181.004 195.614 181.116 195.374C181.233 195.129 181.292 194.828 181.292 194.47C181.292 194.108 181.236 193.806 181.124 193.566C181.012 193.326 180.857 193.148 180.66 193.03C180.468 192.908 180.249 192.846 180.004 192.846C179.764 192.846 179.545 192.908 179.348 193.03C179.15 193.148 178.993 193.326 178.876 193.566C178.758 193.806 178.7 194.108 178.7 194.47C178.7 194.828 178.756 195.129 178.868 195.374C178.985 195.614 179.14 195.796 179.332 195.918C179.529 196.036 179.748 196.094 179.988 196.094ZM183.113 196.574V192.366H183.721L183.769 193.134C183.865 192.942 183.99 192.782 184.145 192.654C184.3 192.526 184.486 192.43 184.705 192.366C184.929 192.302 185.18 192.27 185.457 192.27V192.974H185.041C184.881 192.974 184.726 192.996 184.577 193.038C184.428 193.081 184.292 193.15 184.169 193.246C184.052 193.342 183.958 193.473 183.889 193.638C183.82 193.804 183.785 194.012 183.785 194.262V196.574H183.113ZM186.862 198.334L187.814 196.126H187.582L186.006 192.366H186.734L188.038 195.606L189.398 192.366H190.094L187.558 198.334H186.862Z" fill="#86888E"/>
<path d="M216.215 196.574V192.366H216.823L216.855 192.942C216.983 192.734 217.157 192.572 217.375 192.454C217.594 192.332 217.823 192.27 218.063 192.27C218.266 192.27 218.447 192.3 218.607 192.358C218.773 192.412 218.917 192.497 219.039 192.614C219.162 192.726 219.261 192.868 219.335 193.038C219.474 192.788 219.661 192.598 219.895 192.47C220.135 192.337 220.386 192.27 220.647 192.27C220.957 192.27 221.221 192.332 221.439 192.454C221.663 192.572 221.834 192.753 221.951 192.998C222.074 193.238 222.135 193.54 222.135 193.902V196.574H221.471V193.974C221.471 193.596 221.389 193.313 221.223 193.126C221.058 192.94 220.834 192.846 220.551 192.846C220.359 192.846 220.183 192.897 220.023 192.998C219.869 193.1 219.743 193.249 219.647 193.446C219.557 193.644 219.511 193.884 219.511 194.166V196.574H218.839V193.974C218.839 193.596 218.757 193.313 218.591 193.126C218.426 192.94 218.205 192.846 217.927 192.846C217.741 192.846 217.567 192.897 217.407 192.998C217.253 193.1 217.127 193.249 217.031 193.446C216.935 193.644 216.887 193.884 216.887 194.166V196.574H216.215ZM225.215 196.67C224.825 196.67 224.481 196.58 224.183 196.398C223.884 196.217 223.652 195.961 223.487 195.63C223.321 195.3 223.239 194.913 223.239 194.47C223.239 194.022 223.321 193.636 223.487 193.31C223.657 192.98 223.892 192.724 224.191 192.542C224.495 192.361 224.841 192.27 225.231 192.27C225.625 192.27 225.969 192.361 226.263 192.542C226.561 192.724 226.793 192.98 226.959 193.31C227.124 193.636 227.207 194.022 227.207 194.47C227.207 194.913 227.121 195.3 226.951 195.63C226.785 195.961 226.553 196.217 226.255 196.398C225.956 196.58 225.609 196.67 225.215 196.67ZM225.215 196.094C225.46 196.094 225.681 196.036 225.879 195.918C226.076 195.796 226.231 195.614 226.343 195.374C226.46 195.129 226.519 194.828 226.519 194.47C226.519 194.108 226.463 193.806 226.351 193.566C226.239 193.326 226.084 193.148 225.887 193.03C225.695 192.908 225.476 192.846 225.231 192.846C224.991 192.846 224.772 192.908 224.575 193.03C224.377 193.148 224.22 193.326 224.103 193.566C223.985 193.806 223.927 194.108 223.927 194.47C223.927 194.828 223.983 195.129 224.095 195.374C224.212 195.614 224.367 195.796 224.559 195.918C224.756 196.036 224.975 196.094 225.215 196.094ZM229.361 196.574L227.761 192.366H228.473L229.753 195.926L231.041 192.366H231.729L230.137 196.574H229.361ZM234.189 196.67C233.816 196.67 233.485 196.58 233.197 196.398C232.909 196.217 232.683 195.961 232.517 195.63C232.357 195.3 232.277 194.913 232.277 194.47C232.277 194.028 232.357 193.641 232.517 193.31C232.683 192.98 232.909 192.724 233.197 192.542C233.491 192.361 233.827 192.27 234.205 192.27C234.611 192.27 234.949 192.361 235.221 192.542C235.493 192.724 235.699 192.966 235.837 193.27C235.976 193.574 236.045 193.908 236.045 194.27C236.045 194.324 236.045 194.377 236.045 194.43C236.045 194.484 236.043 194.548 236.037 194.622H232.781V194.102H235.389C235.379 193.692 235.259 193.38 235.029 193.166C234.805 192.948 234.525 192.838 234.189 192.838C233.965 192.838 233.757 192.894 233.565 193.006C233.379 193.113 233.227 193.273 233.109 193.486C232.992 193.7 232.933 193.966 232.933 194.286V194.51C232.933 194.862 232.992 195.158 233.109 195.398C233.227 195.633 233.379 195.809 233.565 195.926C233.757 196.044 233.965 196.102 234.189 196.102C234.488 196.102 234.723 196.046 234.893 195.934C235.064 195.817 235.189 195.652 235.269 195.438H235.933C235.869 195.673 235.757 195.884 235.597 196.07C235.443 196.257 235.245 196.404 235.005 196.51C234.771 196.617 234.499 196.67 234.189 196.67ZM237.137 197.494V196.862H241.049V197.494H237.137ZM244.152 196.67C243.762 196.67 243.418 196.58 243.12 196.398C242.821 196.217 242.589 195.961 242.424 195.63C242.258 195.3 242.176 194.913 242.176 194.47C242.176 194.022 242.258 193.636 242.424 193.31C242.594 192.98 242.829 192.724 243.128 192.542C243.432 192.361 243.778 192.27 244.168 192.27C244.562 192.27 244.906 192.361 245.2 192.542C245.498 192.724 245.73 192.98 245.896 193.31C246.061 193.636 246.144 194.022 246.144 194.47C246.144 194.913 246.058 195.3 245.888 195.63C245.722 195.961 245.49 196.217 245.192 196.398C244.893 196.58 244.546 196.67 244.152 196.67ZM244.152 196.094C244.397 196.094 244.618 196.036 244.816 195.918C245.013 195.796 245.168 195.614 245.28 195.374C245.397 195.129 245.456 194.828 245.456 194.47C245.456 194.108 245.4 193.806 245.288 193.566C245.176 193.326 245.021 193.148 244.824 193.03C244.632 192.908 244.413 192.846 244.168 192.846C243.928 192.846 243.709 192.908 243.512 193.03C243.314 193.148 243.157 193.326 243.04 193.566C242.922 193.806 242.864 194.108 242.864 194.47C242.864 194.828 242.92 195.129 243.032 195.374C243.149 195.614 243.304 195.796 243.496 195.918C243.693 196.036 243.912 196.094 244.152 196.094ZM247.277 196.574V192.366H247.885L247.933 193.134C248.029 192.942 248.154 192.782 248.309 192.654C248.464 192.526 248.65 192.43 248.869 192.366C249.093 192.302 249.344 192.27 249.621 192.27V192.974H249.205C249.045 192.974 248.89 192.996 248.741 193.038C248.592 193.081 248.456 193.15 248.333 193.246C248.216 193.342 248.122 193.473 248.053 193.638C247.984 193.804 247.949 194.012 247.949 194.262V196.574H247.277ZM252.142 196.67C251.768 196.67 251.438 196.574 251.15 196.382C250.862 196.19 250.638 195.929 250.478 195.598C250.318 195.262 250.238 194.884 250.238 194.462C250.238 194.036 250.318 193.66 250.478 193.334C250.638 193.004 250.862 192.745 251.15 192.558C251.438 192.366 251.771 192.27 252.15 192.27C252.48 192.27 252.763 192.337 252.998 192.47C253.238 192.604 253.427 192.79 253.566 193.03V190.814H254.238V196.574H253.63L253.574 195.902C253.494 196.036 253.387 196.161 253.254 196.278C253.126 196.396 252.968 196.492 252.782 196.566C252.6 196.636 252.387 196.67 252.142 196.67ZM252.23 196.086C252.496 196.086 252.728 196.022 252.926 195.894C253.123 195.761 253.275 195.574 253.382 195.334C253.488 195.089 253.542 194.801 253.542 194.47C253.542 194.14 253.488 193.854 253.382 193.614C253.275 193.369 253.123 193.182 252.926 193.054C252.728 192.921 252.496 192.854 252.23 192.854C251.979 192.854 251.755 192.921 251.558 193.054C251.36 193.182 251.206 193.369 251.094 193.614C250.982 193.854 250.926 194.14 250.926 194.47C250.926 194.801 250.982 195.089 251.094 195.334C251.206 195.574 251.36 195.761 251.558 195.894C251.755 196.022 251.979 196.086 252.23 196.086ZM257.279 196.67C256.905 196.67 256.575 196.58 256.287 196.398C255.999 196.217 255.772 195.961 255.607 195.63C255.447 195.3 255.367 194.913 255.367 194.47C255.367 194.028 255.447 193.641 255.607 193.31C255.772 192.98 255.999 192.724 256.287 192.542C256.58 192.361 256.916 192.27 257.295 192.27C257.7 192.27 258.039 192.361 258.311 192.542C258.583 192.724 258.788 192.966 258.927 193.27C259.065 193.574 259.135 193.908 259.135 194.27C259.135 194.324 259.135 194.377 259.135 194.43C259.135 194.484 259.132 194.548 259.127 194.622H255.871V194.102H258.479C258.468 193.692 258.348 193.38 258.119 193.166C257.895 192.948 257.615 192.838 257.279 192.838C257.055 192.838 256.847 192.894 256.655 193.006C256.468 193.113 256.316 193.273 256.199 193.486C256.081 193.7 256.023 193.966 256.023 194.286V194.51C256.023 194.862 256.081 195.158 256.199 195.398C256.316 195.633 256.468 195.809 256.655 195.926C256.847 196.044 257.055 196.102 257.279 196.102C257.577 196.102 257.812 196.046 257.983 195.934C258.153 195.817 258.279 195.652 258.359 195.438H259.023C258.959 195.673 258.847 195.884 258.687 196.07C258.532 196.257 258.335 196.404 258.095 196.51C257.86 196.617 257.588 196.67 257.279 196.67ZM260.226 196.574V192.366H260.834L260.882 193.134C260.978 192.942 261.103 192.782 261.258 192.654C261.412 192.526 261.599 192.43 261.818 192.366C262.042 192.302 262.292 192.27 262.57 192.27V192.974H262.154C261.994 192.974 261.839 192.996 261.69 193.038C261.54 193.081 261.404 193.15 261.282 193.246C261.164 193.342 261.071 193.473 261.002 193.638C260.932 193.804 260.898 194.012 260.898 194.262V196.574H260.226ZM265.023 196.67C264.644 196.67 264.33 196.614 264.079 196.502C263.834 196.385 263.647 196.225 263.519 196.022C263.391 195.814 263.314 195.574 263.287 195.302H263.975C263.996 195.446 264.044 195.58 264.119 195.702C264.199 195.82 264.314 195.916 264.463 195.99C264.612 196.065 264.802 196.102 265.031 196.102C265.212 196.102 265.367 196.076 265.495 196.022C265.623 195.964 265.719 195.884 265.783 195.782C265.852 195.681 265.887 195.564 265.887 195.43C265.887 195.254 265.847 195.118 265.767 195.022C265.692 194.921 265.58 194.846 265.431 194.798C265.287 194.745 265.106 194.705 264.887 194.678C264.652 194.646 264.444 194.601 264.263 194.542C264.082 194.484 263.927 194.406 263.799 194.31C263.676 194.214 263.583 194.094 263.519 193.95C263.455 193.806 263.423 193.636 263.423 193.438C263.423 193.209 263.484 193.006 263.607 192.83C263.73 192.654 263.903 192.518 264.127 192.422C264.356 192.321 264.626 192.27 264.935 192.27C265.388 192.27 265.746 192.374 266.007 192.582C266.274 192.79 266.431 193.086 266.479 193.47H265.815C265.788 193.273 265.698 193.118 265.543 193.006C265.388 192.894 265.183 192.838 264.927 192.838C264.655 192.838 264.45 192.889 264.311 192.99C264.172 193.092 264.103 193.225 264.103 193.39C264.103 193.513 264.132 193.625 264.191 193.726C264.255 193.822 264.362 193.905 264.511 193.974C264.66 194.038 264.86 194.086 265.111 194.118C265.426 194.156 265.692 194.217 265.911 194.302C266.13 194.382 266.295 194.508 266.407 194.678C266.524 194.849 266.58 195.081 266.575 195.374C266.575 195.652 266.508 195.886 266.375 196.078C266.247 196.27 266.066 196.417 265.831 196.518C265.602 196.62 265.332 196.67 265.023 196.67Z" fill="#86888E"/>
<path d="M283.097 198.43C282.718 198.43 282.385 198.382 282.097 198.286C281.814 198.196 281.593 198.054 281.433 197.862C281.278 197.67 281.201 197.433 281.201 197.15C281.201 197.017 281.225 196.878 281.273 196.734C281.326 196.59 281.414 196.452 281.537 196.318C281.665 196.185 281.844 196.065 282.073 195.958L282.585 196.23C282.281 196.348 282.084 196.484 281.993 196.638C281.902 196.793 281.857 196.942 281.857 197.086C281.857 197.262 281.908 197.409 282.009 197.526C282.116 197.644 282.262 197.732 282.449 197.79C282.636 197.849 282.852 197.878 283.097 197.878C283.337 197.878 283.542 197.846 283.713 197.782C283.889 197.724 284.022 197.636 284.113 197.518C284.209 197.406 284.257 197.273 284.257 197.118C284.257 196.894 284.185 196.718 284.041 196.59C283.897 196.468 283.617 196.396 283.201 196.374C282.876 196.353 282.604 196.324 282.385 196.286C282.166 196.249 281.985 196.206 281.841 196.158C281.702 196.105 281.585 196.046 281.489 195.982C281.398 195.918 281.316 195.852 281.241 195.782V195.598L282.033 194.838L282.665 195.046L281.801 195.758L281.905 195.454C281.964 195.497 282.02 195.537 282.073 195.574C282.126 195.612 282.198 195.646 282.289 195.678C282.385 195.705 282.516 195.732 282.681 195.758C282.852 195.785 283.076 195.809 283.353 195.83C283.737 195.857 284.044 195.921 284.273 196.022C284.502 196.124 284.668 196.265 284.769 196.446C284.87 196.622 284.921 196.838 284.921 197.094C284.921 197.318 284.857 197.532 284.729 197.734C284.606 197.937 284.409 198.102 284.137 198.23C283.87 198.364 283.524 198.43 283.097 198.43ZM283.089 195.262C282.748 195.262 282.457 195.198 282.217 195.07C281.982 194.937 281.804 194.758 281.681 194.534C281.558 194.305 281.497 194.049 281.497 193.766C281.497 193.484 281.558 193.23 281.681 193.006C281.809 192.782 281.99 192.604 282.225 192.47C282.465 192.337 282.753 192.27 283.089 192.27C283.436 192.27 283.726 192.337 283.961 192.47C284.196 192.604 284.374 192.782 284.497 193.006C284.62 193.23 284.681 193.484 284.681 193.766C284.681 194.049 284.62 194.305 284.497 194.534C284.374 194.758 284.196 194.937 283.961 195.07C283.726 195.198 283.436 195.262 283.089 195.262ZM283.089 194.71C283.388 194.71 283.62 194.633 283.785 194.478C283.95 194.318 284.033 194.081 284.033 193.766C284.033 193.452 283.95 193.217 283.785 193.062C283.62 192.908 283.388 192.83 283.089 192.83C282.806 192.83 282.574 192.908 282.393 193.062C282.217 193.217 282.129 193.452 282.129 193.766C282.129 194.081 282.214 194.318 282.385 194.478C282.561 194.633 282.796 194.71 283.089 194.71ZM283.793 192.934L283.593 192.366H285.241V192.87L283.793 192.934ZM287.798 196.67C287.425 196.67 287.094 196.58 286.806 196.398C286.518 196.217 286.292 195.961 286.126 195.63C285.966 195.3 285.886 194.913 285.886 194.47C285.886 194.028 285.966 193.641 286.126 193.31C286.292 192.98 286.518 192.724 286.806 192.542C287.1 192.361 287.436 192.27 287.814 192.27C288.22 192.27 288.558 192.361 288.83 192.542C289.102 192.724 289.308 192.966 289.446 193.27C289.585 193.574 289.654 193.908 289.654 194.27C289.654 194.324 289.654 194.377 289.654 194.43C289.654 194.484 289.652 194.548 289.646 194.622H286.39V194.102H288.998C288.988 193.692 288.868 193.38 288.638 193.166C288.414 192.948 288.134 192.838 287.798 192.838C287.574 192.838 287.366 192.894 287.174 193.006C286.988 193.113 286.836 193.273 286.718 193.486C286.601 193.7 286.542 193.966 286.542 194.286V194.51C286.542 194.862 286.601 195.158 286.718 195.398C286.836 195.633 286.988 195.809 287.174 195.926C287.366 196.044 287.574 196.102 287.798 196.102C288.097 196.102 288.332 196.046 288.502 195.934C288.673 195.817 288.798 195.652 288.878 195.438H289.542C289.478 195.673 289.366 195.884 289.206 196.07C289.052 196.257 288.854 196.404 288.614 196.51C288.38 196.617 288.108 196.67 287.798 196.67ZM290.745 196.574V192.366H291.353L291.385 193.03C291.508 192.79 291.684 192.604 291.913 192.47C292.148 192.337 292.417 192.27 292.721 192.27C293.031 192.27 293.3 192.329 293.529 192.446C293.759 192.564 293.937 192.742 294.065 192.982C294.193 193.222 294.257 193.526 294.257 193.894V196.574H293.585V193.966C293.585 193.593 293.492 193.313 293.305 193.126C293.124 192.94 292.879 192.846 292.569 192.846C292.361 192.846 292.169 192.897 291.993 192.998C291.817 193.094 291.676 193.238 291.569 193.43C291.468 193.622 291.417 193.857 291.417 194.134V196.574H290.745ZM297.274 196.67C296.901 196.67 296.57 196.58 296.282 196.398C295.994 196.217 295.768 195.961 295.602 195.63C295.442 195.3 295.362 194.913 295.362 194.47C295.362 194.028 295.442 193.641 295.602 193.31C295.768 192.98 295.994 192.724 296.282 192.542C296.576 192.361 296.912 192.27 297.29 192.27C297.696 192.27 298.034 192.361 298.306 192.542C298.578 192.724 298.784 192.966 298.922 193.27C299.061 193.574 299.13 193.908 299.13 194.27C299.13 194.324 299.13 194.377 299.13 194.43C299.13 194.484 299.128 194.548 299.122 194.622H295.866V194.102H298.474C298.464 193.692 298.344 193.38 298.114 193.166C297.89 192.948 297.61 192.838 297.274 192.838C297.05 192.838 296.842 192.894 296.65 193.006C296.464 193.113 296.312 193.273 296.194 193.486C296.077 193.7 296.018 193.966 296.018 194.286V194.51C296.018 194.862 296.077 195.158 296.194 195.398C296.312 195.633 296.464 195.809 296.65 195.926C296.842 196.044 297.05 196.102 297.274 196.102C297.573 196.102 297.808 196.046 297.978 195.934C298.149 195.817 298.274 195.652 298.354 195.438H299.018C298.954 195.673 298.842 195.884 298.682 196.07C298.528 196.257 298.33 196.404 298.09 196.51C297.856 196.617 297.584 196.67 297.274 196.67ZM300.222 196.574V192.366H300.83L300.878 193.134C300.974 192.942 301.099 192.782 301.254 192.654C301.408 192.526 301.595 192.43 301.814 192.366C302.038 192.302 302.288 192.27 302.566 192.27V192.974H302.15C301.99 192.974 301.835 192.996 301.686 193.038C301.536 193.081 301.4 193.15 301.278 193.246C301.16 193.342 301.067 193.473 300.998 193.638C300.928 193.804 300.894 194.012 300.894 194.262V196.574H300.222ZM304.811 196.67C304.491 196.67 304.224 196.612 304.011 196.494C303.798 196.372 303.638 196.212 303.531 196.014C303.424 195.812 303.371 195.596 303.371 195.366C303.371 195.089 303.44 194.854 303.579 194.662C303.723 194.465 303.923 194.316 304.179 194.214C304.435 194.113 304.734 194.062 305.075 194.062H306.123C306.123 193.79 306.091 193.564 306.027 193.382C305.963 193.201 305.859 193.065 305.715 192.974C305.571 192.884 305.379 192.838 305.139 192.838C304.899 192.838 304.694 192.9 304.523 193.022C304.352 193.14 304.246 193.316 304.203 193.55H303.515C303.547 193.273 303.64 193.041 303.795 192.854C303.95 192.662 304.144 192.518 304.379 192.422C304.619 192.321 304.872 192.27 305.139 192.27C305.518 192.27 305.83 192.34 306.075 192.478C306.32 192.612 306.502 192.801 306.619 193.046C306.736 193.286 306.795 193.572 306.795 193.902V196.574H306.195L306.155 195.854C306.102 195.966 306.032 196.073 305.947 196.174C305.867 196.27 305.771 196.356 305.659 196.43C305.547 196.505 305.419 196.564 305.275 196.606C305.136 196.649 304.982 196.67 304.811 196.67ZM304.907 196.102C305.083 196.102 305.246 196.062 305.395 195.982C305.544 195.902 305.672 195.796 305.779 195.662C305.891 195.524 305.976 195.369 306.035 195.198C306.094 195.028 306.123 194.849 306.123 194.662V194.582H305.131C304.88 194.582 304.675 194.614 304.515 194.678C304.36 194.742 304.248 194.833 304.179 194.95C304.11 195.062 304.075 195.19 304.075 195.334C304.075 195.489 304.107 195.625 304.171 195.742C304.235 195.854 304.328 195.942 304.451 196.006C304.579 196.07 304.731 196.102 304.907 196.102ZM309.588 196.574C309.348 196.574 309.14 196.537 308.964 196.462C308.788 196.388 308.652 196.262 308.556 196.086C308.465 195.905 308.42 195.662 308.42 195.358V192.934H307.684V192.366H308.42L308.508 191.318H309.092V192.366H310.284V192.934H309.092V195.358C309.092 195.609 309.142 195.78 309.244 195.87C309.345 195.956 309.524 195.998 309.78 195.998H310.268V196.574H309.588ZM313 196.67C312.627 196.67 312.296 196.58 312.008 196.398C311.72 196.217 311.494 195.961 311.328 195.63C311.168 195.3 311.088 194.913 311.088 194.47C311.088 194.028 311.168 193.641 311.328 193.31C311.494 192.98 311.72 192.724 312.008 192.542C312.302 192.361 312.638 192.27 313.016 192.27C313.422 192.27 313.76 192.361 314.032 192.542C314.304 192.724 314.51 192.966 314.648 193.27C314.787 193.574 314.856 193.908 314.856 194.27C314.856 194.324 314.856 194.377 314.856 194.43C314.856 194.484 314.854 194.548 314.848 194.622H311.592V194.102H314.2C314.19 193.692 314.07 193.38 313.84 193.166C313.616 192.948 313.336 192.838 313 192.838C312.776 192.838 312.568 192.894 312.376 193.006C312.19 193.113 312.038 193.273 311.92 193.486C311.803 193.7 311.744 193.966 311.744 194.286V194.51C311.744 194.862 311.803 195.158 311.92 195.398C312.038 195.633 312.19 195.809 312.376 195.926C312.568 196.044 312.776 196.102 313 196.102C313.299 196.102 313.534 196.046 313.704 195.934C313.875 195.817 314 195.652 314.08 195.438H314.744C314.68 195.673 314.568 195.884 314.408 196.07C314.254 196.257 314.056 196.404 313.816 196.51C313.582 196.617 313.31 196.67 313 196.67ZM315.948 197.494V196.862H319.86V197.494H315.948ZM321.218 196.574V192.366H321.89V196.574H321.218ZM321.554 191.566C321.421 191.566 321.309 191.524 321.218 191.438C321.133 191.348 321.09 191.236 321.09 191.102C321.09 190.969 321.133 190.862 321.218 190.782C321.309 190.697 321.421 190.654 321.554 190.654C321.682 190.654 321.792 190.697 321.882 190.782C321.973 190.862 322.018 190.969 322.018 191.102C322.018 191.236 321.973 191.348 321.882 191.438C321.792 191.524 321.682 191.566 321.554 191.566ZM323.244 196.574V192.366H323.852L323.884 193.03C324.007 192.79 324.183 192.604 324.412 192.47C324.647 192.337 324.916 192.27 325.22 192.27C325.53 192.27 325.799 192.329 326.028 192.446C326.258 192.564 326.436 192.742 326.564 192.982C326.692 193.222 326.756 193.526 326.756 193.894V196.574H326.084V193.966C326.084 193.593 325.991 193.313 325.804 193.126C325.623 192.94 325.378 192.846 325.068 192.846C324.86 192.846 324.668 192.897 324.492 192.998C324.316 193.094 324.175 193.238 324.068 193.43C323.967 193.622 323.916 193.857 323.916 194.134V196.574H323.244ZM329.175 196.574L327.575 192.366H328.287L329.567 195.926L330.855 192.366H331.543L329.951 196.574H329.175ZM334.067 196.67C333.678 196.67 333.334 196.58 333.035 196.398C332.737 196.217 332.505 195.961 332.339 195.63C332.174 195.3 332.091 194.913 332.091 194.47C332.091 194.022 332.174 193.636 332.339 193.31C332.51 192.98 332.745 192.724 333.043 192.542C333.347 192.361 333.694 192.27 334.083 192.27C334.478 192.27 334.822 192.361 335.115 192.542C335.414 192.724 335.646 192.98 335.811 193.31C335.977 193.636 336.059 194.022 336.059 194.47C336.059 194.913 335.974 195.3 335.803 195.63C335.638 195.961 335.406 196.217 335.107 196.398C334.809 196.58 334.462 196.67 334.067 196.67ZM334.067 196.094C334.313 196.094 334.534 196.036 334.731 195.918C334.929 195.796 335.083 195.614 335.195 195.374C335.313 195.129 335.371 194.828 335.371 194.47C335.371 194.108 335.315 193.806 335.203 193.566C335.091 193.326 334.937 193.148 334.739 193.03C334.547 192.908 334.329 192.846 334.083 192.846C333.843 192.846 333.625 192.908 333.427 193.03C333.23 193.148 333.073 193.326 332.955 193.566C332.838 193.806 332.779 194.108 332.779 194.47C332.779 194.828 332.835 195.129 332.947 195.374C333.065 195.614 333.219 195.796 333.411 195.918C333.609 196.036 333.827 196.094 334.067 196.094ZM337.257 196.574V192.366H337.929V196.574H337.257ZM337.593 191.566C337.46 191.566 337.348 191.524 337.257 191.438C337.172 191.348 337.129 191.236 337.129 191.102C337.129 190.969 337.172 190.862 337.257 190.782C337.348 190.697 337.46 190.654 337.593 190.654C337.721 190.654 337.83 190.697 337.921 190.782C338.012 190.862 338.057 190.969 338.057 191.102C338.057 191.236 338.012 191.348 337.921 191.438C337.83 191.524 337.721 191.566 337.593 191.566ZM341.099 196.67C340.715 196.67 340.373 196.58 340.075 196.398C339.776 196.212 339.541 195.953 339.371 195.622C339.2 195.292 339.115 194.908 339.115 194.47C339.115 194.028 339.2 193.644 339.371 193.318C339.541 192.988 339.776 192.732 340.075 192.55C340.373 192.364 340.715 192.27 341.099 192.27C341.579 192.27 341.979 192.398 342.299 192.654C342.624 192.91 342.832 193.254 342.923 193.686H342.235C342.176 193.42 342.04 193.214 341.827 193.07C341.619 192.921 341.373 192.846 341.091 192.846C340.845 192.846 340.624 192.908 340.427 193.03C340.235 193.153 340.083 193.334 339.971 193.574C339.859 193.814 339.803 194.113 339.803 194.47C339.803 194.737 339.835 194.974 339.899 195.182C339.963 195.385 340.051 195.556 340.163 195.694C340.28 195.828 340.416 195.929 340.571 195.998C340.731 196.068 340.904 196.102 341.091 196.102C341.283 196.102 341.456 196.07 341.611 196.006C341.771 195.937 341.904 195.838 342.011 195.71C342.123 195.582 342.197 195.43 342.235 195.254H342.923C342.837 195.676 342.629 196.017 342.299 196.278C341.973 196.54 341.573 196.67 341.099 196.67ZM345.804 196.67C345.43 196.67 345.1 196.58 344.812 196.398C344.524 196.217 344.297 195.961 344.132 195.63C343.972 195.3 343.892 194.913 343.892 194.47C343.892 194.028 343.972 193.641 344.132 193.31C344.297 192.98 344.524 192.724 344.812 192.542C345.105 192.361 345.441 192.27 345.82 192.27C346.225 192.27 346.564 192.361 346.836 192.542C347.108 192.724 347.313 192.966 347.452 193.27C347.59 193.574 347.66 193.908 347.66 194.27C347.66 194.324 347.66 194.377 347.66 194.43C347.66 194.484 347.657 194.548 347.652 194.622H344.396V194.102H347.004C346.993 193.692 346.873 193.38 346.644 193.166C346.42 192.948 346.14 192.838 345.804 192.838C345.58 192.838 345.372 192.894 345.18 193.006C344.993 193.113 344.841 193.273 344.724 193.486C344.606 193.7 344.548 193.966 344.548 194.286V194.51C344.548 194.862 344.606 195.158 344.724 195.398C344.841 195.633 344.993 195.809 345.18 195.926C345.372 196.044 345.58 196.102 345.804 196.102C346.102 196.102 346.337 196.046 346.508 195.934C346.678 195.817 346.804 195.652 346.884 195.438H347.548C347.484 195.673 347.372 195.884 347.212 196.07C347.057 196.257 346.86 196.404 346.62 196.51C346.385 196.617 346.113 196.67 345.804 196.67ZM350.271 196.67C349.892 196.67 349.578 196.614 349.327 196.502C349.082 196.385 348.895 196.225 348.767 196.022C348.639 195.814 348.562 195.574 348.535 195.302H349.223C349.244 195.446 349.292 195.58 349.367 195.702C349.447 195.82 349.562 195.916 349.711 195.99C349.86 196.065 350.05 196.102 350.279 196.102C350.46 196.102 350.615 196.076 350.743 196.022C350.871 195.964 350.967 195.884 351.031 195.782C351.1 195.681 351.135 195.564 351.135 195.43C351.135 195.254 351.095 195.118 351.015 195.022C350.94 194.921 350.828 194.846 350.679 194.798C350.535 194.745 350.354 194.705 350.135 194.678C349.9 194.646 349.692 194.601 349.511 194.542C349.33 194.484 349.175 194.406 349.047 194.31C348.924 194.214 348.831 194.094 348.767 193.95C348.703 193.806 348.671 193.636 348.671 193.438C348.671 193.209 348.732 193.006 348.855 192.83C348.978 192.654 349.151 192.518 349.375 192.422C349.604 192.321 349.874 192.27 350.183 192.27C350.636 192.27 350.994 192.374 351.255 192.582C351.522 192.79 351.679 193.086 351.727 193.47H351.063C351.036 193.273 350.946 193.118 350.791 193.006C350.636 192.894 350.431 192.838 350.175 192.838C349.903 192.838 349.698 192.889 349.559 192.99C349.42 193.092 349.351 193.225 349.351 193.39C349.351 193.513 349.38 193.625 349.439 193.726C349.503 193.822 349.61 193.905 349.759 193.974C349.908 194.038 350.108 194.086 350.359 194.118C350.674 194.156 350.94 194.217 351.159 194.302C351.378 194.382 351.543 194.508 351.655 194.678C351.772 194.849 351.828 195.081 351.823 195.374C351.823 195.652 351.756 195.886 351.623 196.078C351.495 196.27 351.314 196.417 351.079 196.518C350.85 196.62 350.58 196.67 350.271 196.67Z" fill="#86888E"/>
<defs>
<filter id="filter0_d_2654_28186" x="0.147461" y="0" width="407.853" height="252.309" filterUnits="userSpaceOnUse" color-interpolation-filters="sRGB">
<feFlood flood-opacity="0" result="BackgroundImageFix"/>
<feColorMatrix in="SourceAlpha" type="matrix" values="0 0 0 0 0 0 0 0 0 0 0 0 0 0 0 0 0 0 127 0" result="hardAlpha"/>
<feOffset dy="24"/>
<feGaussianBlur stdDeviation="22"/>
<feComposite in2="hardAlpha" operator="out"/>
<feColorMatrix type="matrix" values="0 0 0 0 0 0 0 0 0 0 0 0 0 0 0 0 0 0 0.5 0"/>
<feBlend mode="normal" in2="BackgroundImageFix" result="effect1_dropShadow_2654_28186"/>
<feBlend mode="normal" in="SourceGraphic" in2="effect1_dropShadow_2654_28186" result="shape"/>
</filter>
<filter id="filter1_d_2654_28186" x="60.7109" y="43.4492" width="67.3555" height="154.805" filterUnits="userSpaceOnUse" color-interpolation-filters="sRGB">
<feFlood flood-opacity="0" result="BackgroundImageFix"/>
<feColorMatrix in="SourceAlpha" type="matrix" values="0 0 0 0 0 0 0 0 0 0 0 0 0 0 0 0 0 0 127 0" result="hardAlpha"/>
<feOffset dx="5" dy="-5"/>
<feGaussianBlur stdDeviation="10"/>
<feComposite in2="hardAlpha" operator="out"/>
<feColorMatrix type="matrix" values="0 0 0 0 0 0 0 0 0 0 0 0 0 0 0 0 0 0 0.5 0"/>
<feBlend mode="normal" in2="BackgroundImageFix" result="effect1_dropShadow_2654_28186"/>
<feBlend mode="normal" in="SourceGraphic" in2="effect1_dropShadow_2654_28186" result="shape"/>
</filter>
<filter id="filter2_d_2654_28186" x="137.519" y="57.1426" width="67.3555" height="141.113" filterUnits="userSpaceOnUse" color-interpolation-filters="sRGB">
<feFlood flood-opacity="0" result="BackgroundImageFix"/>
<feColorMatrix in="SourceAlpha" type="matrix" values="0 0 0 0 0 0 0 0 0 0 0 0 0 0 0 0 0 0 127 0" result="hardAlpha"/>
<feOffset dx="5" dy="-5"/>
<feGaussianBlur stdDeviation="10"/>
<feComposite in2="hardAlpha" operator="out"/>
<feColorMatrix type="matrix" values="0 0 0 0 0 0 0 0 0 0 0 0 0 0 0 0 0 0 0.5 0"/>
<feBlend mode="normal" in2="BackgroundImageFix" result="effect1_dropShadow_2654_28186"/>
<feBlend mode="normal" in="SourceGraphic" in2="effect1_dropShadow_2654_28186" result="shape"/>
</filter>
<filter id="filter3_d_2654_28186" x="214.325" y="31.8633" width="67.3555" height="166.391" filterUnits="userSpaceOnUse" color-interpolation-filters="sRGB">
<feFlood flood-opacity="0" result="BackgroundImageFix"/>
<feColorMatrix in="SourceAlpha" type="matrix" values="0 0 0 0 0 0 0 0 0 0 0 0 0 0 0 0 0 0 127 0" result="hardAlpha"/>
<feOffset dx="5" dy="-5"/>
<feGaussianBlur stdDeviation="10"/>
<feComposite in2="hardAlpha" operator="out"/>
<feColorMatrix type="matrix" values="0 0 0 0 0 0 0 0 0 0 0 0 0 0 0 0 0 0 0.5 0"/>
<feBlend mode="normal" in2="BackgroundImageFix" result="effect1_dropShadow_2654_28186"/>
<feBlend mode="normal" in="SourceGraphic" in2="effect1_dropShadow_2654_28186" result="shape"/>
</filter>
<filter id="filter4_d_2654_28186" x="290.08" y="12.9062" width="67.3555" height="185.35" filterUnits="userSpaceOnUse" color-interpolation-filters="sRGB">
<feFlood flood-opacity="0" result="BackgroundImageFix"/>
<feColorMatrix in="SourceAlpha" type="matrix" values="0 0 0 0 0 0 0 0 0 0 0 0 0 0 0 0 0 0 127 0" result="hardAlpha"/>
<feOffset dx="5" dy="-5"/>
<feGaussianBlur stdDeviation="10"/>
<feComposite in2="hardAlpha" operator="out"/>
<feColorMatrix type="matrix" values="0 0 0 0 0 0 0 0 0 0 0 0 0 0 0 0 0 0 0.5 0"/>
<feBlend mode="normal" in2="BackgroundImageFix" result="effect1_dropShadow_2654_28186"/>
<feBlend mode="normal" in="SourceGraphic" in2="effect1_dropShadow_2654_28186" result="shape"/>
</filter>
</defs>
</svg>
