<svg width="458" height="514" viewBox="0 0 458 514" fill="none" xmlns="http://www.w3.org/2000/svg">
<g filter="url(#filter0_f_2483_57512)">
<ellipse cx="244.5" cy="333.5" rx="163.5" ry="65.5" fill="url(#paint0_linear_2483_57512)"/>
</g>
<g filter="url(#filter1_d_2483_57512)">
<rect x="73.1475" y="236" width="319.853" height="164.308" rx="10" fill="#1C1E21"/>
<rect x="73.6475" y="236.5" width="318.853" height="163.308" rx="9.5" stroke="#575B62"/>
</g>
<g filter="url(#filter2_d_2483_57512)">
<path d="M104.711 289.449C104.711 286.688 106.95 284.449 109.711 284.449H127.067C129.829 284.449 132.067 286.688 132.067 289.449V399.254H104.711V289.449Z" fill="#86888E"/>
</g>
<g filter="url(#filter3_d_2483_57512)">
<path d="M181.519 303.143C181.519 300.381 183.757 298.143 186.519 298.143H203.874C206.636 298.143 208.874 300.381 208.874 303.143V399.255H181.519V303.143Z" fill="#86888E"/>
</g>
<g filter="url(#filter4_d_2483_57512)">
<path d="M258.325 277.863C258.325 275.102 260.564 272.863 263.325 272.863H280.681C283.442 272.863 285.681 275.102 285.681 277.863V399.254H258.325V277.863Z" fill="#86888E"/>
</g>
<g filter="url(#filter5_d_2483_57512)">
<path d="M334.08 258.906C334.08 256.145 336.318 253.906 339.08 253.906H356.435C359.197 253.906 361.435 256.145 361.435 258.906V399.255H334.08V258.906Z" fill="#86888E"/>
<path d="M334.08 326.58H361.435V399.255H334.08V326.58Z" fill="#D9D9D9"/>
</g>
<path d="M55.7807 266.172V265.7C56.1754 265.401 56.5487 265.1 56.9007 264.796C57.2527 264.492 57.5647 264.191 57.8367 263.892C58.1087 263.588 58.3221 263.292 58.4767 263.004C58.6314 262.716 58.7087 262.439 58.7087 262.172C58.7087 261.975 58.6714 261.793 58.5967 261.628C58.5274 261.457 58.4127 261.319 58.2527 261.212C58.0981 261.105 57.8874 261.052 57.6207 261.052C57.3647 261.052 57.1514 261.108 56.9807 261.22C56.8101 261.327 56.6821 261.471 56.5967 261.652C56.5114 261.828 56.4687 262.023 56.4687 262.236H55.8207C55.8261 261.868 55.9061 261.553 56.0607 261.292C56.2154 261.025 56.4287 260.823 56.7007 260.684C56.9727 260.545 57.2821 260.476 57.6287 260.476C57.9701 260.476 58.2714 260.54 58.5327 260.668C58.7941 260.791 58.9994 260.977 59.1487 261.228C59.3034 261.473 59.3807 261.78 59.3807 262.148C59.3807 262.409 59.3247 262.671 59.2127 262.932C59.1061 263.193 58.9594 263.449 58.7727 263.7C58.5861 263.945 58.3781 264.183 58.1487 264.412C57.9247 264.641 57.6927 264.857 57.4527 265.06C57.2127 265.263 56.9861 265.447 56.7727 265.612H59.5727V266.172H55.7807ZM65.4801 266.172L63.5681 263.9L65.3681 261.964H66.1921L64.1361 264.14L64.1441 263.66L66.3361 266.172H65.4801ZM63.0081 266.172V260.412H63.6801V266.172H63.0081Z" fill="#86888E"/>
<path d="M51.44 303.035V298.187L50.288 298.555V298.027L51.664 297.435H52.12V303.035H51.44ZM53.7264 303.075C53.5984 303.075 53.489 303.032 53.3984 302.947C53.313 302.856 53.2704 302.747 53.2704 302.619C53.2704 302.491 53.313 302.384 53.3984 302.299C53.489 302.208 53.5984 302.163 53.7264 302.163C53.865 302.163 53.9744 302.208 54.0544 302.299C54.1397 302.384 54.1824 302.491 54.1824 302.619C54.1824 302.747 54.1397 302.856 54.0544 302.947C53.9744 303.032 53.865 303.075 53.7264 303.075ZM57.1824 303.131C56.8091 303.131 56.4838 303.064 56.2064 302.931C55.9344 302.798 55.7184 302.619 55.5584 302.395C55.4038 302.166 55.3078 301.904 55.2704 301.611H55.9264C55.9851 301.888 56.1211 302.115 56.3344 302.291C56.5531 302.467 56.8384 302.555 57.1904 302.555C57.4518 302.555 57.6731 302.496 57.8544 302.379C58.0411 302.256 58.1851 302.091 58.2864 301.883C58.3878 301.67 58.4384 301.432 58.4384 301.171C58.4384 300.91 58.3878 300.68 58.2864 300.483C58.1904 300.28 58.0518 300.123 57.8704 300.011C57.6891 299.894 57.4758 299.835 57.2304 299.835C56.9371 299.835 56.6864 299.894 56.4784 300.011C56.2758 300.128 56.1184 300.272 56.0064 300.443H55.3424L55.7664 297.435H58.7744V298.019H56.2864L55.9984 299.771C56.1318 299.622 56.3078 299.502 56.5264 299.411C56.7504 299.315 57.0091 299.267 57.3024 299.267C57.5744 299.267 57.8198 299.315 58.0384 299.411C58.2571 299.507 58.4438 299.643 58.5984 299.819C58.7584 299.99 58.8784 300.19 58.9584 300.419C59.0438 300.648 59.0864 300.896 59.0864 301.163C59.0864 301.43 59.0411 301.683 58.9504 301.923C58.8651 302.158 58.7398 302.366 58.5744 302.547C58.4144 302.728 58.2171 302.872 57.9824 302.979C57.7478 303.08 57.4811 303.131 57.1824 303.131ZM65.0784 303.035L63.1664 300.763L64.9664 298.827H65.7904L63.7344 301.003L63.7424 300.523L65.9344 303.035H65.0784ZM62.6064 303.035V297.275H63.2784V303.035H62.6064Z" fill="#86888E"/>
<path d="M58.8052 339.898V335.05L57.6532 335.418V334.89L59.0292 334.298H59.4852V339.898H58.8052ZM65.608 339.898L63.696 337.626L65.496 335.69H66.32L64.264 337.866L64.272 337.386L66.464 339.898H65.608ZM63.136 339.898V334.138H63.808V339.898H63.136Z" fill="#86888E"/>
<path d="M53.5162 376.86C53.1429 376.86 52.8176 376.793 52.5402 376.66C52.2682 376.526 52.0522 376.348 51.8922 376.124C51.7376 375.894 51.6416 375.633 51.6042 375.34H52.2602C52.3189 375.617 52.4549 375.844 52.6682 376.02C52.8869 376.196 53.1722 376.284 53.5242 376.284C53.7856 376.284 54.0069 376.225 54.1882 376.108C54.3749 375.985 54.5189 375.82 54.6202 375.612C54.7216 375.398 54.7722 375.161 54.7722 374.9C54.7722 374.638 54.7216 374.409 54.6202 374.212C54.5242 374.009 54.3856 373.852 54.2042 373.74C54.0229 373.622 53.8096 373.564 53.5642 373.564C53.2709 373.564 53.0202 373.622 52.8122 373.74C52.6096 373.857 52.4522 374.001 52.3402 374.172H51.6762L52.1002 371.164H55.1082V371.748H52.6202L52.3322 373.5C52.4656 373.35 52.6416 373.23 52.8602 373.14C53.0842 373.044 53.3429 372.996 53.6362 372.996C53.9082 372.996 54.1536 373.044 54.3722 373.14C54.5909 373.236 54.7776 373.372 54.9322 373.548C55.0922 373.718 55.2122 373.918 55.2922 374.148C55.3776 374.377 55.4202 374.625 55.4202 374.892C55.4202 375.158 55.3749 375.412 55.2842 375.652C55.1989 375.886 55.0736 376.094 54.9082 376.276C54.7482 376.457 54.5509 376.601 54.3162 376.708C54.0816 376.809 53.8149 376.86 53.5162 376.86ZM58.6958 376.86C58.2318 376.86 57.8318 376.74 57.4958 376.5C57.1651 376.254 56.9091 375.916 56.7278 375.484C56.5465 375.046 56.4558 374.54 56.4558 373.964C56.4558 373.388 56.5465 372.884 56.7278 372.452C56.9091 372.014 57.1651 371.676 57.4958 371.436C57.8318 371.19 58.2318 371.068 58.6958 371.068C59.1598 371.068 59.5571 371.19 59.8878 371.436C60.2185 371.676 60.4718 372.014 60.6478 372.452C60.8291 372.884 60.9198 373.388 60.9198 373.964C60.9198 374.54 60.8291 375.046 60.6478 375.484C60.4718 375.916 60.2185 376.254 59.8878 376.5C59.5571 376.74 59.1598 376.86 58.6958 376.86ZM58.6958 376.268C58.9891 376.268 59.2505 376.177 59.4798 375.996C59.7091 375.809 59.8905 375.545 60.0238 375.204C60.1625 374.857 60.2318 374.444 60.2318 373.964C60.2318 373.478 60.1625 373.065 60.0238 372.724C59.8905 372.382 59.7091 372.121 59.4798 371.94C59.2505 371.758 58.9891 371.668 58.6958 371.668C58.3971 371.668 58.1305 371.758 57.8958 371.94C57.6611 372.121 57.4771 372.382 57.3438 372.724C57.2105 373.065 57.1438 373.478 57.1438 373.964C57.1438 374.444 57.2105 374.857 57.3438 375.204C57.4771 375.545 57.6611 375.809 57.8958 375.996C58.1305 376.177 58.3971 376.268 58.6958 376.268ZM64.1058 376.86C63.6418 376.86 63.2418 376.74 62.9058 376.5C62.5751 376.254 62.3191 375.916 62.1378 375.484C61.9565 375.046 61.8658 374.54 61.8658 373.964C61.8658 373.388 61.9565 372.884 62.1378 372.452C62.3191 372.014 62.5751 371.676 62.9058 371.436C63.2418 371.19 63.6418 371.068 64.1058 371.068C64.5698 371.068 64.9671 371.19 65.2978 371.436C65.6285 371.676 65.8818 372.014 66.0578 372.452C66.2391 372.884 66.3298 373.388 66.3298 373.964C66.3298 374.54 66.2391 375.046 66.0578 375.484C65.8818 375.916 65.6285 376.254 65.2978 376.5C64.9671 376.74 64.5698 376.86 64.1058 376.86ZM64.1058 376.268C64.3991 376.268 64.6605 376.177 64.8898 375.996C65.1191 375.809 65.3005 375.545 65.4338 375.204C65.5725 374.857 65.6418 374.444 65.6418 373.964C65.6418 373.478 65.5725 373.065 65.4338 372.724C65.3005 372.382 65.1191 372.121 64.8898 371.94C64.6605 371.758 64.3991 371.668 64.1058 371.668C63.8071 371.668 63.5405 371.758 63.3058 371.94C63.0711 372.121 62.8871 372.382 62.7538 372.724C62.6205 373.065 62.5538 373.478 62.5538 373.964C62.5538 374.444 62.6205 374.857 62.7538 375.204C62.8871 375.545 63.0711 375.809 63.3058 375.996C63.5405 376.177 63.8071 376.268 64.1058 376.268Z" fill="#86888E"/>
<path d="M92.6539 414.334V408.366H93.2619L93.3179 409.022C93.4033 408.884 93.5099 408.758 93.6379 408.646C93.7713 408.534 93.9286 408.444 94.1099 408.374C94.2966 408.305 94.5099 408.27 94.7499 408.27C95.1286 408.27 95.4593 408.366 95.7419 408.558C96.0299 408.75 96.2539 409.012 96.4139 409.342C96.5739 409.673 96.6539 410.052 96.6539 410.478C96.6539 410.9 96.5739 411.276 96.4139 411.606C96.2539 411.937 96.0299 412.198 95.7419 412.39C95.4539 412.577 95.1206 412.67 94.7419 412.67C94.4166 412.67 94.1313 412.604 93.8859 412.47C93.6406 412.337 93.4539 412.15 93.3259 411.91V414.334H92.6539ZM94.6619 412.086C94.9126 412.086 95.1339 412.022 95.3259 411.894C95.5233 411.761 95.6779 411.574 95.7899 411.334C95.9073 411.089 95.9659 410.801 95.9659 410.47C95.9659 410.14 95.9073 409.854 95.7899 409.614C95.6779 409.369 95.5233 409.182 95.3259 409.054C95.1339 408.921 94.9126 408.854 94.6619 408.854C94.3953 408.854 94.1633 408.921 93.9659 409.054C93.7686 409.182 93.6166 409.369 93.5099 409.614C93.4033 409.854 93.3499 410.14 93.3499 410.47C93.3499 410.801 93.4033 411.089 93.5099 411.334C93.6166 411.574 93.7686 411.761 93.9659 411.894C94.1633 412.022 94.3953 412.086 94.6619 412.086ZM97.7905 412.574V408.366H98.3985L98.4465 409.134C98.5425 408.942 98.6678 408.782 98.8225 408.654C98.9772 408.526 99.1638 408.43 99.3825 408.366C99.6065 408.302 99.8572 408.27 100.135 408.27V408.974H99.7185C99.5585 408.974 99.4038 408.996 99.2545 409.038C99.1052 409.081 98.9692 409.15 98.8465 409.246C98.7292 409.342 98.6358 409.473 98.5665 409.638C98.4972 409.804 98.4625 410.012 98.4625 410.262V412.574H97.7905ZM102.727 412.67C102.338 412.67 101.994 412.58 101.695 412.398C101.397 412.217 101.165 411.961 100.999 411.63C100.834 411.3 100.751 410.913 100.751 410.47C100.751 410.022 100.834 409.636 100.999 409.31C101.17 408.98 101.405 408.724 101.703 408.542C102.007 408.361 102.354 408.27 102.743 408.27C103.138 408.27 103.482 408.361 103.775 408.542C104.074 408.724 104.306 408.98 104.471 409.31C104.637 409.636 104.719 410.022 104.719 410.47C104.719 410.913 104.634 411.3 104.463 411.63C104.298 411.961 104.066 412.217 103.767 412.398C103.469 412.58 103.122 412.67 102.727 412.67ZM102.727 412.094C102.973 412.094 103.194 412.036 103.391 411.918C103.589 411.796 103.743 411.614 103.855 411.374C103.973 411.129 104.031 410.828 104.031 410.47C104.031 410.108 103.975 409.806 103.863 409.566C103.751 409.326 103.597 409.148 103.399 409.03C103.207 408.908 102.989 408.846 102.743 408.846C102.503 408.846 102.285 408.908 102.087 409.03C101.89 409.148 101.733 409.326 101.615 409.566C101.498 409.806 101.439 410.108 101.439 410.47C101.439 410.828 101.495 411.129 101.607 411.374C101.725 411.614 101.879 411.796 102.071 411.918C102.269 412.036 102.487 412.094 102.727 412.094ZM107.669 412.67C107.285 412.67 106.943 412.58 106.645 412.398C106.346 412.212 106.111 411.953 105.941 411.622C105.77 411.292 105.685 410.908 105.685 410.47C105.685 410.028 105.77 409.644 105.941 409.318C106.111 408.988 106.346 408.732 106.645 408.55C106.943 408.364 107.285 408.27 107.669 408.27C108.149 408.27 108.549 408.398 108.869 408.654C109.194 408.91 109.402 409.254 109.493 409.686H108.805C108.746 409.42 108.61 409.214 108.397 409.07C108.189 408.921 107.943 408.846 107.661 408.846C107.415 408.846 107.194 408.908 106.997 409.03C106.805 409.153 106.653 409.334 106.541 409.574C106.429 409.814 106.373 410.113 106.373 410.47C106.373 410.737 106.405 410.974 106.469 411.182C106.533 411.385 106.621 411.556 106.733 411.694C106.85 411.828 106.986 411.929 107.141 411.998C107.301 412.068 107.474 412.102 107.661 412.102C107.853 412.102 108.026 412.07 108.181 412.006C108.341 411.937 108.474 411.838 108.581 411.71C108.693 411.582 108.767 411.43 108.805 411.254H109.493C109.407 411.676 109.199 412.017 108.869 412.278C108.543 412.54 108.143 412.67 107.669 412.67ZM112.374 412.67C112.001 412.67 111.67 412.58 111.382 412.398C111.094 412.217 110.867 411.961 110.702 411.63C110.542 411.3 110.462 410.913 110.462 410.47C110.462 410.028 110.542 409.641 110.702 409.31C110.867 408.98 111.094 408.724 111.382 408.542C111.675 408.361 112.011 408.27 112.39 408.27C112.795 408.27 113.134 408.361 113.406 408.542C113.678 408.724 113.883 408.966 114.022 409.27C114.161 409.574 114.23 409.908 114.23 410.27C114.23 410.324 114.23 410.377 114.23 410.43C114.23 410.484 114.227 410.548 114.222 410.622H110.966V410.102H113.574C113.563 409.692 113.443 409.38 113.214 409.166C112.99 408.948 112.71 408.838 112.374 408.838C112.15 408.838 111.942 408.894 111.75 409.006C111.563 409.113 111.411 409.273 111.294 409.486C111.177 409.7 111.118 409.966 111.118 410.286V410.51C111.118 410.862 111.177 411.158 111.294 411.398C111.411 411.633 111.563 411.809 111.75 411.926C111.942 412.044 112.15 412.102 112.374 412.102C112.673 412.102 112.907 412.046 113.078 411.934C113.249 411.817 113.374 411.652 113.454 411.438H114.118C114.054 411.673 113.942 411.884 113.782 412.07C113.627 412.257 113.43 412.404 113.19 412.51C112.955 412.617 112.683 412.67 112.374 412.67ZM116.841 412.67C116.462 412.67 116.148 412.614 115.897 412.502C115.652 412.385 115.465 412.225 115.337 412.022C115.209 411.814 115.132 411.574 115.105 411.302H115.793C115.814 411.446 115.862 411.58 115.937 411.702C116.017 411.82 116.132 411.916 116.281 411.99C116.43 412.065 116.62 412.102 116.849 412.102C117.03 412.102 117.185 412.076 117.313 412.022C117.441 411.964 117.537 411.884 117.601 411.782C117.67 411.681 117.705 411.564 117.705 411.43C117.705 411.254 117.665 411.118 117.585 411.022C117.51 410.921 117.398 410.846 117.249 410.798C117.105 410.745 116.924 410.705 116.705 410.678C116.47 410.646 116.262 410.601 116.081 410.542C115.9 410.484 115.745 410.406 115.617 410.31C115.494 410.214 115.401 410.094 115.337 409.95C115.273 409.806 115.241 409.636 115.241 409.438C115.241 409.209 115.302 409.006 115.425 408.83C115.548 408.654 115.721 408.518 115.945 408.422C116.174 408.321 116.444 408.27 116.753 408.27C117.206 408.27 117.564 408.374 117.825 408.582C118.092 408.79 118.249 409.086 118.297 409.47H117.633C117.606 409.273 117.516 409.118 117.361 409.006C117.206 408.894 117.001 408.838 116.745 408.838C116.473 408.838 116.268 408.889 116.129 408.99C115.99 409.092 115.921 409.225 115.921 409.39C115.921 409.513 115.95 409.625 116.009 409.726C116.073 409.822 116.18 409.905 116.329 409.974C116.478 410.038 116.678 410.086 116.929 410.118C117.244 410.156 117.51 410.217 117.729 410.302C117.948 410.382 118.113 410.508 118.225 410.678C118.342 410.849 118.398 411.081 118.393 411.374C118.393 411.652 118.326 411.886 118.193 412.078C118.065 412.27 117.884 412.417 117.649 412.518C117.42 412.62 117.15 412.67 116.841 412.67ZM121.071 412.67C120.693 412.67 120.378 412.614 120.127 412.502C119.882 412.385 119.695 412.225 119.567 412.022C119.439 411.814 119.362 411.574 119.335 411.302H120.023C120.045 411.446 120.093 411.58 120.167 411.702C120.247 411.82 120.362 411.916 120.511 411.99C120.661 412.065 120.85 412.102 121.079 412.102C121.261 412.102 121.415 412.076 121.543 412.022C121.671 411.964 121.767 411.884 121.831 411.782C121.901 411.681 121.935 411.564 121.935 411.43C121.935 411.254 121.895 411.118 121.815 411.022C121.741 410.921 121.629 410.846 121.479 410.798C121.335 410.745 121.154 410.705 120.935 410.678C120.701 410.646 120.493 410.601 120.311 410.542C120.13 410.484 119.975 410.406 119.847 410.31C119.725 410.214 119.631 410.094 119.567 409.95C119.503 409.806 119.471 409.636 119.471 409.438C119.471 409.209 119.533 409.006 119.655 408.83C119.778 408.654 119.951 408.518 120.175 408.422C120.405 408.321 120.674 408.27 120.983 408.27C121.437 408.27 121.794 408.374 122.055 408.582C122.322 408.79 122.479 409.086 122.527 409.47H121.863C121.837 409.273 121.746 409.118 121.591 409.006C121.437 408.894 121.231 408.838 120.975 408.838C120.703 408.838 120.498 408.889 120.359 408.99C120.221 409.092 120.151 409.225 120.151 409.39C120.151 409.513 120.181 409.625 120.239 409.726C120.303 409.822 120.41 409.905 120.559 409.974C120.709 410.038 120.909 410.086 121.159 410.118C121.474 410.156 121.741 410.217 121.959 410.302C122.178 410.382 122.343 410.508 122.455 410.678C122.573 410.849 122.629 411.081 122.623 411.374C122.623 411.652 122.557 411.886 122.423 412.078C122.295 412.27 122.114 412.417 121.879 412.518C121.65 412.62 121.381 412.67 121.071 412.67ZM123.782 413.494V412.862H127.694V413.494H123.782ZM130.733 412.67C130.359 412.67 130.029 412.58 129.741 412.398C129.453 412.217 129.226 411.961 129.061 411.63C128.901 411.3 128.821 410.913 128.821 410.47C128.821 410.028 128.901 409.641 129.061 409.31C129.226 408.98 129.453 408.724 129.741 408.542C130.034 408.361 130.37 408.27 130.749 408.27C131.154 408.27 131.493 408.361 131.765 408.542C132.037 408.724 132.242 408.966 132.381 409.27C132.519 409.574 132.589 409.908 132.589 410.27C132.589 410.324 132.589 410.377 132.589 410.43C132.589 410.484 132.586 410.548 132.581 410.622H129.325V410.102H131.933C131.922 409.692 131.802 409.38 131.573 409.166C131.349 408.948 131.069 408.838 130.733 408.838C130.509 408.838 130.301 408.894 130.109 409.006C129.922 409.113 129.77 409.273 129.653 409.486C129.535 409.7 129.477 409.966 129.477 410.286V410.51C129.477 410.862 129.535 411.158 129.653 411.398C129.77 411.633 129.922 411.809 130.109 411.926C130.301 412.044 130.509 412.102 130.733 412.102C131.031 412.102 131.266 412.046 131.437 411.934C131.607 411.817 131.733 411.652 131.813 411.438H132.477C132.413 411.673 132.301 411.884 132.141 412.07C131.986 412.257 131.789 412.404 131.549 412.51C131.314 412.617 131.042 412.67 130.733 412.67ZM135.416 412.67C135.043 412.67 134.712 412.574 134.424 412.382C134.136 412.19 133.912 411.929 133.752 411.598C133.592 411.262 133.512 410.884 133.512 410.462C133.512 410.036 133.592 409.66 133.752 409.334C133.912 409.004 134.136 408.745 134.424 408.558C134.712 408.366 135.045 408.27 135.424 408.27C135.755 408.27 136.037 408.337 136.272 408.47C136.512 408.604 136.701 408.79 136.84 409.03V406.814H137.512V412.574H136.904L136.848 411.902C136.768 412.036 136.661 412.161 136.528 412.278C136.4 412.396 136.243 412.492 136.056 412.566C135.875 412.636 135.661 412.67 135.416 412.67ZM135.504 412.086C135.771 412.086 136.003 412.022 136.2 411.894C136.397 411.761 136.549 411.574 136.656 411.334C136.763 411.089 136.816 410.801 136.816 410.47C136.816 410.14 136.763 409.854 136.656 409.614C136.549 409.369 136.397 409.182 136.2 409.054C136.003 408.921 135.771 408.854 135.504 408.854C135.253 408.854 135.029 408.921 134.832 409.054C134.635 409.182 134.48 409.369 134.368 409.614C134.256 409.854 134.2 410.14 134.2 410.47C134.2 410.801 134.256 411.089 134.368 411.334C134.48 411.574 134.635 411.761 134.832 411.894C135.029 412.022 135.253 412.086 135.504 412.086ZM138.873 412.574V408.366H139.545V412.574H138.873ZM139.209 407.566C139.075 407.566 138.963 407.524 138.873 407.438C138.787 407.348 138.745 407.236 138.745 407.102C138.745 406.969 138.787 406.862 138.873 406.782C138.963 406.697 139.075 406.654 139.209 406.654C139.337 406.654 139.446 406.697 139.537 406.782C139.627 406.862 139.673 406.969 139.673 407.102C139.673 407.236 139.627 407.348 139.537 407.438C139.446 407.524 139.337 407.566 139.209 407.566Z" fill="#86888E"/>
<path d="M165.252 412.574V408.366H165.86L165.908 409.134C166.004 408.942 166.129 408.782 166.284 408.654C166.439 408.526 166.625 408.43 166.844 408.366C167.068 408.302 167.319 408.27 167.596 408.27V408.974H167.18C167.02 408.974 166.865 408.996 166.716 409.038C166.567 409.081 166.431 409.15 166.308 409.246C166.191 409.342 166.097 409.473 166.028 409.638C165.959 409.804 165.924 410.012 165.924 410.262V412.574H165.252ZM170.041 412.67C169.732 412.67 169.463 412.612 169.233 412.494C169.004 412.377 168.825 412.198 168.697 411.958C168.569 411.713 168.505 411.409 168.505 411.046V408.366H169.177V410.974C169.177 411.348 169.268 411.628 169.449 411.814C169.636 412.001 169.884 412.094 170.193 412.094C170.407 412.094 170.599 412.046 170.769 411.95C170.94 411.849 171.076 411.702 171.177 411.51C171.284 411.318 171.337 411.084 171.337 410.806V408.366H172.009V412.574H171.401L171.361 411.902C171.249 412.148 171.076 412.337 170.841 412.47C170.612 412.604 170.345 412.67 170.041 412.67ZM173.306 412.574V408.366H173.914L173.946 409.03C174.069 408.79 174.245 408.604 174.474 408.47C174.709 408.337 174.978 408.27 175.282 408.27C175.592 408.27 175.861 408.329 176.09 408.446C176.32 408.564 176.498 408.742 176.626 408.982C176.754 409.222 176.818 409.526 176.818 409.894V412.574H176.146V409.966C176.146 409.593 176.053 409.313 175.866 409.126C175.685 408.94 175.44 408.846 175.13 408.846C174.922 408.846 174.73 408.897 174.554 408.998C174.378 409.094 174.237 409.238 174.13 409.43C174.029 409.622 173.978 409.857 173.978 410.134V412.574H173.306ZM178.091 413.494V412.862H182.003V413.494H178.091ZM183.362 412.574V408.366H184.034V412.574H183.362ZM183.698 407.566C183.565 407.566 183.453 407.524 183.362 407.438C183.277 407.348 183.234 407.236 183.234 407.102C183.234 406.969 183.277 406.862 183.362 406.782C183.453 406.697 183.565 406.654 183.698 406.654C183.826 406.654 183.936 406.697 184.026 406.782C184.117 406.862 184.162 406.969 184.162 407.102C184.162 407.236 184.117 407.348 184.026 407.438C183.936 407.524 183.826 407.566 183.698 407.566ZM185.388 412.574V408.366H185.996L186.028 409.03C186.151 408.79 186.327 408.604 186.556 408.47C186.791 408.337 187.06 408.27 187.364 408.27C187.673 408.27 187.943 408.329 188.172 408.446C188.401 408.564 188.58 408.742 188.708 408.982C188.836 409.222 188.9 409.526 188.9 409.894V412.574H188.228V409.966C188.228 409.593 188.135 409.313 187.948 409.126C187.767 408.94 187.521 408.846 187.212 408.846C187.004 408.846 186.812 408.897 186.636 408.998C186.46 409.094 186.319 409.238 186.212 409.43C186.111 409.622 186.06 409.857 186.06 410.134V412.574H185.388ZM191.319 412.574L189.719 408.366H190.431L191.711 411.926L192.999 408.366H193.687L192.095 412.574H191.319ZM196.147 412.67C195.774 412.67 195.443 412.58 195.155 412.398C194.867 412.217 194.641 411.961 194.475 411.63C194.315 411.3 194.235 410.913 194.235 410.47C194.235 410.028 194.315 409.641 194.475 409.31C194.641 408.98 194.867 408.724 195.155 408.542C195.449 408.361 195.785 408.27 196.163 408.27C196.569 408.27 196.907 408.361 197.179 408.542C197.451 408.724 197.657 408.966 197.795 409.27C197.934 409.574 198.003 409.908 198.003 410.27C198.003 410.324 198.003 410.377 198.003 410.43C198.003 410.484 198.001 410.548 197.995 410.622H194.739V410.102H197.347C197.337 409.692 197.217 409.38 196.987 409.166C196.763 408.948 196.483 408.838 196.147 408.838C195.923 408.838 195.715 408.894 195.523 409.006C195.337 409.113 195.185 409.273 195.067 409.486C194.95 409.7 194.891 409.966 194.891 410.286V410.51C194.891 410.862 194.95 411.158 195.067 411.398C195.185 411.633 195.337 411.809 195.523 411.926C195.715 412.044 195.923 412.102 196.147 412.102C196.446 412.102 196.681 412.046 196.851 411.934C197.022 411.817 197.147 411.652 197.227 411.438H197.891C197.827 411.673 197.715 411.884 197.555 412.07C197.401 412.257 197.203 412.404 196.963 412.51C196.729 412.617 196.457 412.67 196.147 412.67ZM199.095 412.574V408.366H199.703L199.735 409.03C199.857 408.79 200.033 408.604 200.263 408.47C200.497 408.337 200.767 408.27 201.071 408.27C201.38 408.27 201.649 408.329 201.879 408.446C202.108 408.564 202.287 408.742 202.415 408.982C202.543 409.222 202.607 409.526 202.607 409.894V412.574H201.935V409.966C201.935 409.593 201.841 409.313 201.655 409.126C201.473 408.94 201.228 408.846 200.919 408.846C200.711 408.846 200.519 408.897 200.343 408.998C200.167 409.094 200.025 409.238 199.919 409.43C199.817 409.622 199.767 409.857 199.767 410.134V412.574H199.095ZM205.512 412.574C205.272 412.574 205.064 412.537 204.888 412.462C204.712 412.388 204.576 412.262 204.48 412.086C204.389 411.905 204.344 411.662 204.344 411.358V408.934H203.608V408.366H204.344L204.432 407.318H205.016V408.366H206.208V408.934H205.016V411.358C205.016 411.609 205.066 411.78 205.168 411.87C205.269 411.956 205.448 411.998 205.704 411.998H206.192V412.574H205.512ZM208.988 412.67C208.599 412.67 208.255 412.58 207.956 412.398C207.658 412.217 207.426 411.961 207.26 411.63C207.095 411.3 207.012 410.913 207.012 410.47C207.012 410.022 207.095 409.636 207.26 409.31C207.431 408.98 207.666 408.724 207.964 408.542C208.268 408.361 208.615 408.27 209.004 408.27C209.399 408.27 209.743 408.361 210.036 408.542C210.335 408.724 210.567 408.98 210.732 409.31C210.898 409.636 210.98 410.022 210.98 410.47C210.98 410.913 210.895 411.3 210.724 411.63C210.559 411.961 210.327 412.217 210.028 412.398C209.73 412.58 209.383 412.67 208.988 412.67ZM208.988 412.094C209.234 412.094 209.455 412.036 209.652 411.918C209.85 411.796 210.004 411.614 210.116 411.374C210.234 411.129 210.292 410.828 210.292 410.47C210.292 410.108 210.236 409.806 210.124 409.566C210.012 409.326 209.858 409.148 209.66 409.03C209.468 408.908 209.25 408.846 209.004 408.846C208.764 408.846 208.546 408.908 208.348 409.03C208.151 409.148 207.994 409.326 207.876 409.566C207.759 409.806 207.7 410.108 207.7 410.47C207.7 410.828 207.756 411.129 207.868 411.374C207.986 411.614 208.14 411.796 208.332 411.918C208.53 412.036 208.748 412.094 208.988 412.094ZM212.114 412.574V408.366H212.722L212.77 409.134C212.866 408.942 212.991 408.782 213.146 408.654C213.3 408.526 213.487 408.43 213.706 408.366C213.93 408.302 214.18 408.27 214.458 408.27V408.974H214.042C213.882 408.974 213.727 408.996 213.578 409.038C213.428 409.081 213.292 409.15 213.17 409.246C213.052 409.342 212.959 409.473 212.89 409.638C212.82 409.804 212.786 410.012 212.786 410.262V412.574H212.114ZM215.863 414.334L216.815 412.126H216.583L215.007 408.366H215.735L217.039 411.606L218.399 408.366H219.095L216.559 414.334H215.863Z" fill="#86888E"/>
<path d="M245.215 412.574V408.366H245.823L245.855 408.942C245.983 408.734 246.157 408.572 246.375 408.454C246.594 408.332 246.823 408.27 247.063 408.27C247.266 408.27 247.447 408.3 247.607 408.358C247.773 408.412 247.917 408.497 248.039 408.614C248.162 408.726 248.261 408.868 248.335 409.038C248.474 408.788 248.661 408.598 248.895 408.47C249.135 408.337 249.386 408.27 249.647 408.27C249.957 408.27 250.221 408.332 250.439 408.454C250.663 408.572 250.834 408.753 250.951 408.998C251.074 409.238 251.135 409.54 251.135 409.902V412.574H250.471V409.974C250.471 409.596 250.389 409.313 250.223 409.126C250.058 408.94 249.834 408.846 249.551 408.846C249.359 408.846 249.183 408.897 249.023 408.998C248.869 409.1 248.743 409.249 248.647 409.446C248.557 409.644 248.511 409.884 248.511 410.166V412.574H247.839V409.974C247.839 409.596 247.757 409.313 247.591 409.126C247.426 408.94 247.205 408.846 246.927 408.846C246.741 408.846 246.567 408.897 246.407 408.998C246.253 409.1 246.127 409.249 246.031 409.446C245.935 409.644 245.887 409.884 245.887 410.166V412.574H245.215ZM254.215 412.67C253.825 412.67 253.481 412.58 253.183 412.398C252.884 412.217 252.652 411.961 252.487 411.63C252.321 411.3 252.239 410.913 252.239 410.47C252.239 410.022 252.321 409.636 252.487 409.31C252.657 408.98 252.892 408.724 253.191 408.542C253.495 408.361 253.841 408.27 254.231 408.27C254.625 408.27 254.969 408.361 255.263 408.542C255.561 408.724 255.793 408.98 255.959 409.31C256.124 409.636 256.207 410.022 256.207 410.47C256.207 410.913 256.121 411.3 255.951 411.63C255.785 411.961 255.553 412.217 255.255 412.398C254.956 412.58 254.609 412.67 254.215 412.67ZM254.215 412.094C254.46 412.094 254.681 412.036 254.879 411.918C255.076 411.796 255.231 411.614 255.343 411.374C255.46 411.129 255.519 410.828 255.519 410.47C255.519 410.108 255.463 409.806 255.351 409.566C255.239 409.326 255.084 409.148 254.887 409.03C254.695 408.908 254.476 408.846 254.231 408.846C253.991 408.846 253.772 408.908 253.575 409.03C253.377 409.148 253.22 409.326 253.103 409.566C252.985 409.806 252.927 410.108 252.927 410.47C252.927 410.828 252.983 411.129 253.095 411.374C253.212 411.614 253.367 411.796 253.559 411.918C253.756 412.036 253.975 412.094 254.215 412.094ZM258.361 412.574L256.761 408.366H257.473L258.753 411.926L260.041 408.366H260.729L259.137 412.574H258.361ZM263.189 412.67C262.816 412.67 262.485 412.58 262.197 412.398C261.909 412.217 261.683 411.961 261.517 411.63C261.357 411.3 261.277 410.913 261.277 410.47C261.277 410.028 261.357 409.641 261.517 409.31C261.683 408.98 261.909 408.724 262.197 408.542C262.491 408.361 262.827 408.27 263.205 408.27C263.611 408.27 263.949 408.361 264.221 408.542C264.493 408.724 264.699 408.966 264.837 409.27C264.976 409.574 265.045 409.908 265.045 410.27C265.045 410.324 265.045 410.377 265.045 410.43C265.045 410.484 265.043 410.548 265.037 410.622H261.781V410.102H264.389C264.379 409.692 264.259 409.38 264.029 409.166C263.805 408.948 263.525 408.838 263.189 408.838C262.965 408.838 262.757 408.894 262.565 409.006C262.379 409.113 262.227 409.273 262.109 409.486C261.992 409.7 261.933 409.966 261.933 410.286V410.51C261.933 410.862 261.992 411.158 262.109 411.398C262.227 411.633 262.379 411.809 262.565 411.926C262.757 412.044 262.965 412.102 263.189 412.102C263.488 412.102 263.723 412.046 263.893 411.934C264.064 411.817 264.189 411.652 264.269 411.438H264.933C264.869 411.673 264.757 411.884 264.597 412.07C264.443 412.257 264.245 412.404 264.005 412.51C263.771 412.617 263.499 412.67 263.189 412.67ZM266.137 413.494V412.862H270.049V413.494H266.137ZM273.152 412.67C272.762 412.67 272.418 412.58 272.12 412.398C271.821 412.217 271.589 411.961 271.424 411.63C271.258 411.3 271.176 410.913 271.176 410.47C271.176 410.022 271.258 409.636 271.424 409.31C271.594 408.98 271.829 408.724 272.128 408.542C272.432 408.361 272.778 408.27 273.168 408.27C273.562 408.27 273.906 408.361 274.2 408.542C274.498 408.724 274.73 408.98 274.896 409.31C275.061 409.636 275.144 410.022 275.144 410.47C275.144 410.913 275.058 411.3 274.888 411.63C274.722 411.961 274.49 412.217 274.192 412.398C273.893 412.58 273.546 412.67 273.152 412.67ZM273.152 412.094C273.397 412.094 273.618 412.036 273.816 411.918C274.013 411.796 274.168 411.614 274.28 411.374C274.397 411.129 274.456 410.828 274.456 410.47C274.456 410.108 274.4 409.806 274.288 409.566C274.176 409.326 274.021 409.148 273.824 409.03C273.632 408.908 273.413 408.846 273.168 408.846C272.928 408.846 272.709 408.908 272.512 409.03C272.314 409.148 272.157 409.326 272.04 409.566C271.922 409.806 271.864 410.108 271.864 410.47C271.864 410.828 271.92 411.129 272.032 411.374C272.149 411.614 272.304 411.796 272.496 411.918C272.693 412.036 272.912 412.094 273.152 412.094ZM276.277 412.574V408.366H276.885L276.933 409.134C277.029 408.942 277.154 408.782 277.309 408.654C277.464 408.526 277.65 408.43 277.869 408.366C278.093 408.302 278.344 408.27 278.621 408.27V408.974H278.205C278.045 408.974 277.89 408.996 277.741 409.038C277.592 409.081 277.456 409.15 277.333 409.246C277.216 409.342 277.122 409.473 277.053 409.638C276.984 409.804 276.949 410.012 276.949 410.262V412.574H276.277ZM281.142 412.67C280.768 412.67 280.438 412.574 280.15 412.382C279.862 412.19 279.638 411.929 279.478 411.598C279.318 411.262 279.238 410.884 279.238 410.462C279.238 410.036 279.318 409.66 279.478 409.334C279.638 409.004 279.862 408.745 280.15 408.558C280.438 408.366 280.771 408.27 281.15 408.27C281.48 408.27 281.763 408.337 281.998 408.47C282.238 408.604 282.427 408.79 282.566 409.03V406.814H283.238V412.574H282.63L282.574 411.902C282.494 412.036 282.387 412.161 282.254 412.278C282.126 412.396 281.968 412.492 281.782 412.566C281.6 412.636 281.387 412.67 281.142 412.67ZM281.23 412.086C281.496 412.086 281.728 412.022 281.926 411.894C282.123 411.761 282.275 411.574 282.382 411.334C282.488 411.089 282.542 410.801 282.542 410.47C282.542 410.14 282.488 409.854 282.382 409.614C282.275 409.369 282.123 409.182 281.926 409.054C281.728 408.921 281.496 408.854 281.23 408.854C280.979 408.854 280.755 408.921 280.558 409.054C280.36 409.182 280.206 409.369 280.094 409.614C279.982 409.854 279.926 410.14 279.926 410.47C279.926 410.801 279.982 411.089 280.094 411.334C280.206 411.574 280.36 411.761 280.558 411.894C280.755 412.022 280.979 412.086 281.23 412.086ZM286.279 412.67C285.905 412.67 285.575 412.58 285.287 412.398C284.999 412.217 284.772 411.961 284.607 411.63C284.447 411.3 284.367 410.913 284.367 410.47C284.367 410.028 284.447 409.641 284.607 409.31C284.772 408.98 284.999 408.724 285.287 408.542C285.58 408.361 285.916 408.27 286.295 408.27C286.7 408.27 287.039 408.361 287.311 408.542C287.583 408.724 287.788 408.966 287.927 409.27C288.065 409.574 288.135 409.908 288.135 410.27C288.135 410.324 288.135 410.377 288.135 410.43C288.135 410.484 288.132 410.548 288.127 410.622H284.871V410.102H287.479C287.468 409.692 287.348 409.38 287.119 409.166C286.895 408.948 286.615 408.838 286.279 408.838C286.055 408.838 285.847 408.894 285.655 409.006C285.468 409.113 285.316 409.273 285.199 409.486C285.081 409.7 285.023 409.966 285.023 410.286V410.51C285.023 410.862 285.081 411.158 285.199 411.398C285.316 411.633 285.468 411.809 285.655 411.926C285.847 412.044 286.055 412.102 286.279 412.102C286.577 412.102 286.812 412.046 286.983 411.934C287.153 411.817 287.279 411.652 287.359 411.438H288.023C287.959 411.673 287.847 411.884 287.687 412.07C287.532 412.257 287.335 412.404 287.095 412.51C286.86 412.617 286.588 412.67 286.279 412.67ZM289.226 412.574V408.366H289.834L289.882 409.134C289.978 408.942 290.103 408.782 290.258 408.654C290.412 408.526 290.599 408.43 290.818 408.366C291.042 408.302 291.292 408.27 291.57 408.27V408.974H291.154C290.994 408.974 290.839 408.996 290.69 409.038C290.54 409.081 290.404 409.15 290.282 409.246C290.164 409.342 290.071 409.473 290.002 409.638C289.932 409.804 289.898 410.012 289.898 410.262V412.574H289.226ZM294.023 412.67C293.644 412.67 293.33 412.614 293.079 412.502C292.834 412.385 292.647 412.225 292.519 412.022C292.391 411.814 292.314 411.574 292.287 411.302H292.975C292.996 411.446 293.044 411.58 293.119 411.702C293.199 411.82 293.314 411.916 293.463 411.99C293.612 412.065 293.802 412.102 294.031 412.102C294.212 412.102 294.367 412.076 294.495 412.022C294.623 411.964 294.719 411.884 294.783 411.782C294.852 411.681 294.887 411.564 294.887 411.43C294.887 411.254 294.847 411.118 294.767 411.022C294.692 410.921 294.58 410.846 294.431 410.798C294.287 410.745 294.106 410.705 293.887 410.678C293.652 410.646 293.444 410.601 293.263 410.542C293.082 410.484 292.927 410.406 292.799 410.31C292.676 410.214 292.583 410.094 292.519 409.95C292.455 409.806 292.423 409.636 292.423 409.438C292.423 409.209 292.484 409.006 292.607 408.83C292.73 408.654 292.903 408.518 293.127 408.422C293.356 408.321 293.626 408.27 293.935 408.27C294.388 408.27 294.746 408.374 295.007 408.582C295.274 408.79 295.431 409.086 295.479 409.47H294.815C294.788 409.273 294.698 409.118 294.543 409.006C294.388 408.894 294.183 408.838 293.927 408.838C293.655 408.838 293.45 408.889 293.311 408.99C293.172 409.092 293.103 409.225 293.103 409.39C293.103 409.513 293.132 409.625 293.191 409.726C293.255 409.822 293.362 409.905 293.511 409.974C293.66 410.038 293.86 410.086 294.111 410.118C294.426 410.156 294.692 410.217 294.911 410.302C295.13 410.382 295.295 410.508 295.407 410.678C295.524 410.849 295.58 411.081 295.575 411.374C295.575 411.652 295.508 411.886 295.375 412.078C295.247 412.27 295.066 412.417 294.831 412.518C294.602 412.62 294.332 412.67 294.023 412.67Z" fill="#86888E"/>
<path d="M312.096 414.43C311.718 414.43 311.384 414.382 311.096 414.286C310.814 414.196 310.592 414.054 310.432 413.862C310.278 413.67 310.2 413.433 310.2 413.15C310.2 413.017 310.224 412.878 310.272 412.734C310.326 412.59 310.414 412.452 310.536 412.318C310.664 412.185 310.843 412.065 311.072 411.958L311.584 412.23C311.28 412.348 311.083 412.484 310.992 412.638C310.902 412.793 310.856 412.942 310.856 413.086C310.856 413.262 310.907 413.409 311.008 413.526C311.115 413.644 311.262 413.732 311.448 413.79C311.635 413.849 311.851 413.878 312.096 413.878C312.336 413.878 312.542 413.846 312.712 413.782C312.888 413.724 313.022 413.636 313.112 413.518C313.208 413.406 313.256 413.273 313.256 413.118C313.256 412.894 313.184 412.718 313.04 412.59C312.896 412.468 312.616 412.396 312.2 412.374C311.875 412.353 311.603 412.324 311.384 412.286C311.166 412.249 310.984 412.206 310.84 412.158C310.702 412.105 310.584 412.046 310.488 411.982C310.398 411.918 310.315 411.852 310.24 411.782V411.598L311.032 410.838L311.664 411.046L310.8 411.758L310.904 411.454C310.963 411.497 311.019 411.537 311.072 411.574C311.126 411.612 311.198 411.646 311.288 411.678C311.384 411.705 311.515 411.732 311.68 411.758C311.851 411.785 312.075 411.809 312.352 411.83C312.736 411.857 313.043 411.921 313.272 412.022C313.502 412.124 313.667 412.265 313.768 412.446C313.87 412.622 313.92 412.838 313.92 413.094C313.92 413.318 313.856 413.532 313.728 413.734C313.606 413.937 313.408 414.102 313.136 414.23C312.87 414.364 312.523 414.43 312.096 414.43ZM312.088 411.262C311.747 411.262 311.456 411.198 311.216 411.07C310.982 410.937 310.803 410.758 310.68 410.534C310.558 410.305 310.496 410.049 310.496 409.766C310.496 409.484 310.558 409.23 310.68 409.006C310.808 408.782 310.99 408.604 311.224 408.47C311.464 408.337 311.752 408.27 312.088 408.27C312.435 408.27 312.726 408.337 312.96 408.47C313.195 408.604 313.374 408.782 313.496 409.006C313.619 409.23 313.68 409.484 313.68 409.766C313.68 410.049 313.619 410.305 313.496 410.534C313.374 410.758 313.195 410.937 312.96 411.07C312.726 411.198 312.435 411.262 312.088 411.262ZM312.088 410.71C312.387 410.71 312.619 410.633 312.784 410.478C312.95 410.318 313.032 410.081 313.032 409.766C313.032 409.452 312.95 409.217 312.784 409.062C312.619 408.908 312.387 408.83 312.088 408.83C311.806 408.83 311.574 408.908 311.392 409.062C311.216 409.217 311.128 409.452 311.128 409.766C311.128 410.081 311.214 410.318 311.384 410.478C311.56 410.633 311.795 410.71 312.088 410.71ZM312.792 408.934L312.592 408.366H314.24V408.87L312.792 408.934ZM316.798 412.67C316.424 412.67 316.094 412.58 315.806 412.398C315.518 412.217 315.291 411.961 315.126 411.63C314.966 411.3 314.886 410.913 314.886 410.47C314.886 410.028 314.966 409.641 315.126 409.31C315.291 408.98 315.518 408.724 315.806 408.542C316.099 408.361 316.435 408.27 316.814 408.27C317.219 408.27 317.558 408.361 317.83 408.542C318.102 408.724 318.307 408.966 318.446 409.27C318.584 409.574 318.654 409.908 318.654 410.27C318.654 410.324 318.654 410.377 318.654 410.43C318.654 410.484 318.651 410.548 318.646 410.622H315.39V410.102H317.998C317.987 409.692 317.867 409.38 317.638 409.166C317.414 408.948 317.134 408.838 316.798 408.838C316.574 408.838 316.366 408.894 316.174 409.006C315.987 409.113 315.835 409.273 315.718 409.486C315.6 409.7 315.542 409.966 315.542 410.286V410.51C315.542 410.862 315.6 411.158 315.718 411.398C315.835 411.633 315.987 411.809 316.174 411.926C316.366 412.044 316.574 412.102 316.798 412.102C317.096 412.102 317.331 412.046 317.502 411.934C317.672 411.817 317.798 411.652 317.878 411.438H318.542C318.478 411.673 318.366 411.884 318.206 412.07C318.051 412.257 317.854 412.404 317.614 412.51C317.379 412.617 317.107 412.67 316.798 412.67ZM319.745 412.574V408.366H320.353L320.385 409.03C320.508 408.79 320.684 408.604 320.913 408.47C321.148 408.337 321.417 408.27 321.721 408.27C322.03 408.27 322.3 408.329 322.529 408.446C322.758 408.564 322.937 408.742 323.065 408.982C323.193 409.222 323.257 409.526 323.257 409.894V412.574H322.585V409.966C322.585 409.593 322.492 409.313 322.305 409.126C322.124 408.94 321.878 408.846 321.569 408.846C321.361 408.846 321.169 408.897 320.993 408.998C320.817 409.094 320.676 409.238 320.569 409.43C320.468 409.622 320.417 409.857 320.417 410.134V412.574H319.745ZM326.274 412.67C325.901 412.67 325.57 412.58 325.282 412.398C324.994 412.217 324.767 411.961 324.602 411.63C324.442 411.3 324.362 410.913 324.362 410.47C324.362 410.028 324.442 409.641 324.602 409.31C324.767 408.98 324.994 408.724 325.282 408.542C325.575 408.361 325.911 408.27 326.29 408.27C326.695 408.27 327.034 408.361 327.306 408.542C327.578 408.724 327.783 408.966 327.922 409.27C328.061 409.574 328.13 409.908 328.13 410.27C328.13 410.324 328.13 410.377 328.13 410.43C328.13 410.484 328.127 410.548 328.122 410.622H324.866V410.102H327.474C327.463 409.692 327.343 409.38 327.114 409.166C326.89 408.948 326.61 408.838 326.274 408.838C326.05 408.838 325.842 408.894 325.65 409.006C325.463 409.113 325.311 409.273 325.194 409.486C325.077 409.7 325.018 409.966 325.018 410.286V410.51C325.018 410.862 325.077 411.158 325.194 411.398C325.311 411.633 325.463 411.809 325.65 411.926C325.842 412.044 326.05 412.102 326.274 412.102C326.573 412.102 326.807 412.046 326.978 411.934C327.149 411.817 327.274 411.652 327.354 411.438H328.018C327.954 411.673 327.842 411.884 327.682 412.07C327.527 412.257 327.33 412.404 327.09 412.51C326.855 412.617 326.583 412.67 326.274 412.67ZM329.221 412.574V408.366H329.829L329.877 409.134C329.973 408.942 330.099 408.782 330.253 408.654C330.408 408.526 330.595 408.43 330.813 408.366C331.037 408.302 331.288 408.27 331.565 408.27V408.974H331.149C330.989 408.974 330.835 408.996 330.685 409.038C330.536 409.081 330.4 409.15 330.277 409.246C330.16 409.342 330.067 409.473 329.997 409.638C329.928 409.804 329.893 410.012 329.893 410.262V412.574H329.221ZM333.81 412.67C333.49 412.67 333.224 412.612 333.01 412.494C332.797 412.372 332.637 412.212 332.53 412.014C332.424 411.812 332.37 411.596 332.37 411.366C332.37 411.089 332.44 410.854 332.578 410.662C332.722 410.465 332.922 410.316 333.178 410.214C333.434 410.113 333.733 410.062 334.074 410.062H335.122C335.122 409.79 335.09 409.564 335.026 409.382C334.962 409.201 334.858 409.065 334.714 408.974C334.57 408.884 334.378 408.838 334.138 408.838C333.898 408.838 333.693 408.9 333.522 409.022C333.352 409.14 333.245 409.316 333.202 409.55H332.514C332.546 409.273 332.64 409.041 332.794 408.854C332.949 408.662 333.144 408.518 333.378 408.422C333.618 408.321 333.872 408.27 334.138 408.27C334.517 408.27 334.829 408.34 335.074 408.478C335.32 408.612 335.501 408.801 335.618 409.046C335.736 409.286 335.794 409.572 335.794 409.902V412.574H335.194L335.154 411.854C335.101 411.966 335.032 412.073 334.946 412.174C334.866 412.27 334.77 412.356 334.658 412.43C334.546 412.505 334.418 412.564 334.274 412.606C334.136 412.649 333.981 412.67 333.81 412.67ZM333.906 412.102C334.082 412.102 334.245 412.062 334.394 411.982C334.544 411.902 334.672 411.796 334.778 411.662C334.89 411.524 334.976 411.369 335.034 411.198C335.093 411.028 335.122 410.849 335.122 410.662V410.582H334.13C333.88 410.582 333.674 410.614 333.514 410.678C333.36 410.742 333.248 410.833 333.178 410.95C333.109 411.062 333.074 411.19 333.074 411.334C333.074 411.489 333.106 411.625 333.17 411.742C333.234 411.854 333.328 411.942 333.45 412.006C333.578 412.07 333.73 412.102 333.906 412.102ZM338.587 412.574C338.347 412.574 338.139 412.537 337.963 412.462C337.787 412.388 337.651 412.262 337.555 412.086C337.465 411.905 337.419 411.662 337.419 411.358V408.934H336.683V408.366H337.419L337.507 407.318H338.091V408.366H339.283V408.934H338.091V411.358C338.091 411.609 338.142 411.78 338.243 411.87C338.345 411.956 338.523 411.998 338.779 411.998H339.267V412.574H338.587ZM342 412.67C341.627 412.67 341.296 412.58 341.008 412.398C340.72 412.217 340.493 411.961 340.328 411.63C340.168 411.3 340.088 410.913 340.088 410.47C340.088 410.028 340.168 409.641 340.328 409.31C340.493 408.98 340.72 408.724 341.008 408.542C341.301 408.361 341.637 408.27 342.016 408.27C342.421 408.27 342.76 408.361 343.032 408.542C343.304 408.724 343.509 408.966 343.648 409.27C343.787 409.574 343.856 409.908 343.856 410.27C343.856 410.324 343.856 410.377 343.856 410.43C343.856 410.484 343.853 410.548 343.848 410.622H340.592V410.102H343.2C343.189 409.692 343.069 409.38 342.84 409.166C342.616 408.948 342.336 408.838 342 408.838C341.776 408.838 341.568 408.894 341.376 409.006C341.189 409.113 341.037 409.273 340.92 409.486C340.803 409.7 340.744 409.966 340.744 410.286V410.51C340.744 410.862 340.803 411.158 340.92 411.398C341.037 411.633 341.189 411.809 341.376 411.926C341.568 412.044 341.776 412.102 342 412.102C342.299 412.102 342.533 412.046 342.704 411.934C342.875 411.817 343 411.652 343.08 411.438H343.744C343.68 411.673 343.568 411.884 343.408 412.07C343.253 412.257 343.056 412.404 342.816 412.51C342.581 412.617 342.309 412.67 342 412.67ZM344.947 413.494V412.862H348.859V413.494H344.947ZM350.218 412.574V408.366H350.89V412.574H350.218ZM350.554 407.566C350.421 407.566 350.309 407.524 350.218 407.438C350.133 407.348 350.09 407.236 350.09 407.102C350.09 406.969 350.133 406.862 350.218 406.782C350.309 406.697 350.421 406.654 350.554 406.654C350.682 406.654 350.791 406.697 350.882 406.782C350.973 406.862 351.018 406.969 351.018 407.102C351.018 407.236 350.973 407.348 350.882 407.438C350.791 407.524 350.682 407.566 350.554 407.566ZM352.244 412.574V408.366H352.852L352.884 409.03C353.006 408.79 353.182 408.604 353.412 408.47C353.646 408.337 353.916 408.27 354.22 408.27C354.529 408.27 354.798 408.329 355.028 408.446C355.257 408.564 355.436 408.742 355.564 408.982C355.692 409.222 355.756 409.526 355.756 409.894V412.574H355.084V409.966C355.084 409.593 354.99 409.313 354.804 409.126C354.622 408.94 354.377 408.846 354.068 408.846C353.86 408.846 353.668 408.897 353.492 408.998C353.316 409.094 353.174 409.238 353.068 409.43C352.966 409.622 352.916 409.857 352.916 410.134V412.574H352.244ZM358.175 412.574L356.575 408.366H357.287L358.567 411.926L359.855 408.366H360.543L358.951 412.574H358.175ZM363.067 412.67C362.678 412.67 362.334 412.58 362.035 412.398C361.736 412.217 361.504 411.961 361.339 411.63C361.174 411.3 361.091 410.913 361.091 410.47C361.091 410.022 361.174 409.636 361.339 409.31C361.51 408.98 361.744 408.724 362.043 408.542C362.347 408.361 362.694 408.27 363.083 408.27C363.478 408.27 363.822 408.361 364.115 408.542C364.414 408.724 364.646 408.98 364.811 409.31C364.976 409.636 365.059 410.022 365.059 410.47C365.059 410.913 364.974 411.3 364.803 411.63C364.638 411.961 364.406 412.217 364.107 412.398C363.808 412.58 363.462 412.67 363.067 412.67ZM363.067 412.094C363.312 412.094 363.534 412.036 363.731 411.918C363.928 411.796 364.083 411.614 364.195 411.374C364.312 411.129 364.371 410.828 364.371 410.47C364.371 410.108 364.315 409.806 364.203 409.566C364.091 409.326 363.936 409.148 363.739 409.03C363.547 408.908 363.328 408.846 363.083 408.846C362.843 408.846 362.624 408.908 362.427 409.03C362.23 409.148 362.072 409.326 361.955 409.566C361.838 409.806 361.779 410.108 361.779 410.47C361.779 410.828 361.835 411.129 361.947 411.374C362.064 411.614 362.219 411.796 362.411 411.918C362.608 412.036 362.827 412.094 363.067 412.094ZM366.256 412.574V408.366H366.928V412.574H366.256ZM366.592 407.566C366.459 407.566 366.347 407.524 366.256 407.438C366.171 407.348 366.128 407.236 366.128 407.102C366.128 406.969 366.171 406.862 366.256 406.782C366.347 406.697 366.459 406.654 366.592 406.654C366.72 406.654 366.83 406.697 366.92 406.782C367.011 406.862 367.056 406.969 367.056 407.102C367.056 407.236 367.011 407.348 366.92 407.438C366.83 407.524 366.72 407.566 366.592 407.566ZM370.098 412.67C369.714 412.67 369.373 412.58 369.074 412.398C368.775 412.212 368.541 411.953 368.37 411.622C368.199 411.292 368.114 410.908 368.114 410.47C368.114 410.028 368.199 409.644 368.37 409.318C368.541 408.988 368.775 408.732 369.074 408.55C369.373 408.364 369.714 408.27 370.098 408.27C370.578 408.27 370.978 408.398 371.298 408.654C371.623 408.91 371.831 409.254 371.922 409.686H371.234C371.175 409.42 371.039 409.214 370.826 409.07C370.618 408.921 370.373 408.846 370.09 408.846C369.845 408.846 369.623 408.908 369.426 409.03C369.234 409.153 369.082 409.334 368.97 409.574C368.858 409.814 368.802 410.113 368.802 410.47C368.802 410.737 368.834 410.974 368.898 411.182C368.962 411.385 369.05 411.556 369.162 411.694C369.279 411.828 369.415 411.929 369.57 411.998C369.73 412.068 369.903 412.102 370.09 412.102C370.282 412.102 370.455 412.07 370.61 412.006C370.77 411.937 370.903 411.838 371.01 411.71C371.122 411.582 371.197 411.43 371.234 411.254H371.922C371.837 411.676 371.629 412.017 371.298 412.278C370.973 412.54 370.573 412.67 370.098 412.67ZM374.803 412.67C374.43 412.67 374.099 412.58 373.811 412.398C373.523 412.217 373.297 411.961 373.131 411.63C372.971 411.3 372.891 410.913 372.891 410.47C372.891 410.028 372.971 409.641 373.131 409.31C373.297 408.98 373.523 408.724 373.811 408.542C374.105 408.361 374.441 408.27 374.819 408.27C375.225 408.27 375.563 408.361 375.835 408.542C376.107 408.724 376.313 408.966 376.451 409.27C376.59 409.574 376.659 409.908 376.659 410.27C376.659 410.324 376.659 410.377 376.659 410.43C376.659 410.484 376.657 410.548 376.651 410.622H373.395V410.102H376.003C375.993 409.692 375.873 409.38 375.643 409.166C375.419 408.948 375.139 408.838 374.803 408.838C374.579 408.838 374.371 408.894 374.179 409.006C373.993 409.113 373.841 409.273 373.723 409.486C373.606 409.7 373.547 409.966 373.547 410.286V410.51C373.547 410.862 373.606 411.158 373.723 411.398C373.841 411.633 373.993 411.809 374.179 411.926C374.371 412.044 374.579 412.102 374.803 412.102C375.102 412.102 375.337 412.046 375.507 411.934C375.678 411.817 375.803 411.652 375.883 411.438H376.547C376.483 411.673 376.371 411.884 376.211 412.07C376.057 412.257 375.859 412.404 375.619 412.51C375.385 412.617 375.113 412.67 374.803 412.67ZM379.271 412.67C378.892 412.67 378.577 412.614 378.327 412.502C378.081 412.385 377.895 412.225 377.767 412.022C377.639 411.814 377.561 411.574 377.535 411.302H378.223C378.244 411.446 378.292 411.58 378.367 411.702C378.447 411.82 378.561 411.916 378.711 411.99C378.86 412.065 379.049 412.102 379.279 412.102C379.46 412.102 379.615 412.076 379.743 412.022C379.871 411.964 379.967 411.884 380.031 411.782C380.1 411.681 380.135 411.564 380.135 411.43C380.135 411.254 380.095 411.118 380.015 411.022C379.94 410.921 379.828 410.846 379.679 410.798C379.535 410.745 379.353 410.705 379.135 410.678C378.9 410.646 378.692 410.601 378.511 410.542C378.329 410.484 378.175 410.406 378.047 410.31C377.924 410.214 377.831 410.094 377.767 409.95C377.703 409.806 377.671 409.636 377.671 409.438C377.671 409.209 377.732 409.006 377.855 408.83C377.977 408.654 378.151 408.518 378.375 408.422C378.604 408.321 378.873 408.27 379.183 408.27C379.636 408.27 379.993 408.374 380.255 408.582C380.521 408.79 380.679 409.086 380.727 409.47H380.063C380.036 409.273 379.945 409.118 379.791 409.006C379.636 408.894 379.431 408.838 379.175 408.838C378.903 408.838 378.697 408.889 378.559 408.99C378.42 409.092 378.351 409.225 378.351 409.39C378.351 409.513 378.38 409.625 378.439 409.726C378.503 409.822 378.609 409.905 378.759 409.974C378.908 410.038 379.108 410.086 379.359 410.118C379.673 410.156 379.94 410.217 380.159 410.302C380.377 410.382 380.543 410.508 380.655 410.678C380.772 410.849 380.828 411.081 380.823 411.374C380.823 411.652 380.756 411.886 380.623 412.078C380.495 412.27 380.313 412.417 380.079 412.518C379.849 412.62 379.58 412.67 379.271 412.67Z" fill="#86888E"/>
<defs>
<filter id="filter0_f_2483_57512" x="-219" y="-32" width="927" height="731" filterUnits="userSpaceOnUse" color-interpolation-filters="sRGB">
<feFlood flood-opacity="0" result="BackgroundImageFix"/>
<feBlend mode="normal" in="SourceGraphic" in2="BackgroundImageFix" result="shape"/>
<feGaussianBlur stdDeviation="150" result="effect1_foregroundBlur_2483_57512"/>
</filter>
<filter id="filter1_d_2483_57512" x="29.1475" y="216" width="407.853" height="252.309" filterUnits="userSpaceOnUse" color-interpolation-filters="sRGB">
<feFlood flood-opacity="0" result="BackgroundImageFix"/>
<feColorMatrix in="SourceAlpha" type="matrix" values="0 0 0 0 0 0 0 0 0 0 0 0 0 0 0 0 0 0 127 0" result="hardAlpha"/>
<feOffset dy="24"/>
<feGaussianBlur stdDeviation="22"/>
<feComposite in2="hardAlpha" operator="out"/>
<feColorMatrix type="matrix" values="0 0 0 0 0 0 0 0 0 0 0 0 0 0 0 0 0 0 0.5 0"/>
<feBlend mode="normal" in2="BackgroundImageFix" result="effect1_dropShadow_2483_57512"/>
<feBlend mode="normal" in="SourceGraphic" in2="effect1_dropShadow_2483_57512" result="shape"/>
</filter>
<filter id="filter2_d_2483_57512" x="89.7114" y="259.449" width="67.356" height="154.805" filterUnits="userSpaceOnUse" color-interpolation-filters="sRGB">
<feFlood flood-opacity="0" result="BackgroundImageFix"/>
<feColorMatrix in="SourceAlpha" type="matrix" values="0 0 0 0 0 0 0 0 0 0 0 0 0 0 0 0 0 0 127 0" result="hardAlpha"/>
<feOffset dx="5" dy="-5"/>
<feGaussianBlur stdDeviation="10"/>
<feComposite in2="hardAlpha" operator="out"/>
<feColorMatrix type="matrix" values="0 0 0 0 0 0 0 0 0 0 0 0 0 0 0 0 0 0 0.5 0"/>
<feBlend mode="normal" in2="BackgroundImageFix" result="effect1_dropShadow_2483_57512"/>
<feBlend mode="normal" in="SourceGraphic" in2="effect1_dropShadow_2483_57512" result="shape"/>
</filter>
<filter id="filter3_d_2483_57512" x="166.519" y="273.143" width="67.356" height="141.113" filterUnits="userSpaceOnUse" color-interpolation-filters="sRGB">
<feFlood flood-opacity="0" result="BackgroundImageFix"/>
<feColorMatrix in="SourceAlpha" type="matrix" values="0 0 0 0 0 0 0 0 0 0 0 0 0 0 0 0 0 0 127 0" result="hardAlpha"/>
<feOffset dx="5" dy="-5"/>
<feGaussianBlur stdDeviation="10"/>
<feComposite in2="hardAlpha" operator="out"/>
<feColorMatrix type="matrix" values="0 0 0 0 0 0 0 0 0 0 0 0 0 0 0 0 0 0 0.5 0"/>
<feBlend mode="normal" in2="BackgroundImageFix" result="effect1_dropShadow_2483_57512"/>
<feBlend mode="normal" in="SourceGraphic" in2="effect1_dropShadow_2483_57512" result="shape"/>
</filter>
<filter id="filter4_d_2483_57512" x="243.325" y="247.863" width="67.356" height="166.391" filterUnits="userSpaceOnUse" color-interpolation-filters="sRGB">
<feFlood flood-opacity="0" result="BackgroundImageFix"/>
<feColorMatrix in="SourceAlpha" type="matrix" values="0 0 0 0 0 0 0 0 0 0 0 0 0 0 0 0 0 0 127 0" result="hardAlpha"/>
<feOffset dx="5" dy="-5"/>
<feGaussianBlur stdDeviation="10"/>
<feComposite in2="hardAlpha" operator="out"/>
<feColorMatrix type="matrix" values="0 0 0 0 0 0 0 0 0 0 0 0 0 0 0 0 0 0 0.5 0"/>
<feBlend mode="normal" in2="BackgroundImageFix" result="effect1_dropShadow_2483_57512"/>
<feBlend mode="normal" in="SourceGraphic" in2="effect1_dropShadow_2483_57512" result="shape"/>
</filter>
<filter id="filter5_d_2483_57512" x="319.08" y="228.906" width="67.356" height="185.35" filterUnits="userSpaceOnUse" color-interpolation-filters="sRGB">
<feFlood flood-opacity="0" result="BackgroundImageFix"/>
<feColorMatrix in="SourceAlpha" type="matrix" values="0 0 0 0 0 0 0 0 0 0 0 0 0 0 0 0 0 0 127 0" result="hardAlpha"/>
<feOffset dx="5" dy="-5"/>
<feGaussianBlur stdDeviation="10"/>
<feComposite in2="hardAlpha" operator="out"/>
<feColorMatrix type="matrix" values="0 0 0 0 0 0 0 0 0 0 0 0 0 0 0 0 0 0 0.5 0"/>
<feBlend mode="normal" in2="BackgroundImageFix" result="effect1_dropShadow_2483_57512"/>
<feBlend mode="normal" in="SourceGraphic" in2="effect1_dropShadow_2483_57512" result="shape"/>
</filter>
<linearGradient id="paint0_linear_2483_57512" x1="244.5" y1="268" x2="244.5" y2="399" gradientUnits="userSpaceOnUse">
<stop stop-color="#0D0D11"/>
<stop offset="1" stop-color="#0D0D11" stop-opacity="0.5"/>
</linearGradient>
</defs>
</svg>
