<svg width="768" height="356" viewBox="0 0 768 356" fill="none" xmlns="http://www.w3.org/2000/svg">
<g filter="url(#filter0_d_2375_56148)">
<path d="M242.802 55.6917C244.507 50.73 249.912 48.0902 254.874 49.7957L397.69 98.8845C402.651 100.59 405.291 105.995 403.586 110.957L359.85 238.198C358.144 243.16 352.74 245.8 347.778 244.094L204.962 195.006C200 193.3 197.361 187.895 199.066 182.933L242.802 55.6917Z" fill="url(#paint0_linear_2375_56148)" stroke="#86888E"/>
<path d="M260.302 136.719L260.634 135.752L262.739 136.476L265.261 129.141L263.155 128.417L263.488 127.451L268.81 129.28L268.478 130.247L266.373 129.523L263.852 136.858L265.957 137.582L265.625 138.548L260.302 136.719ZM268.36 139.488L270.617 132.922L271.544 133.24L271.322 134.274L271.388 134.297C271.674 134.04 272.044 133.866 272.5 133.776C272.958 133.677 273.434 133.712 273.929 133.882C274.732 134.158 275.25 134.603 275.484 135.216C275.726 135.832 275.692 136.59 275.383 137.491L274.027 141.436L272.914 141.054L274.225 137.241C274.425 136.658 274.454 136.16 274.31 135.745C274.169 135.322 273.83 135.018 273.291 134.833C272.77 134.654 272.267 134.683 271.781 134.92C271.297 135.149 270.94 135.599 270.71 136.269L269.472 139.871L268.36 139.488ZM281.948 135.514C281.684 135.423 281.493 135.258 281.378 135.021C281.262 134.784 281.246 134.542 281.331 134.295C281.419 134.039 281.58 133.857 281.814 133.75C282.052 133.634 282.303 133.622 282.567 133.713C282.823 133.801 283.009 133.964 283.125 134.201C283.253 134.432 283.273 134.676 283.185 134.932C283.1 135.179 282.934 135.359 282.688 135.472C282.451 135.588 282.204 135.602 281.948 135.514ZM276.722 142.363L277.05 141.409L279.142 142.129L280.63 137.799C280.706 137.578 280.633 137.43 280.413 137.354L278.877 136.826L279.205 135.873L281.005 136.492C281.791 136.762 282.049 137.29 281.778 138.075L280.254 142.511L282.346 143.23L282.018 144.183L276.722 142.363ZM288.262 146.329C287.662 146.123 287.24 145.815 286.996 145.405C286.752 144.996 286.76 144.411 287.021 143.652L288.259 140.051L286.591 139.478L286.918 138.525L287.911 138.866C288.361 139.021 288.698 138.889 288.92 138.472L289.456 137.517L290.276 137.799L289.699 139.48L292.32 140.381L291.992 141.335L289.371 140.433L288.133 144.035C288.006 144.405 288 144.695 288.116 144.902C288.241 145.113 288.515 145.291 288.939 145.437L290.409 145.942L290.063 146.948L288.262 146.329ZM298.355 141.153C298.091 141.062 297.9 140.898 297.784 140.661C297.669 140.423 297.653 140.181 297.738 139.934C297.826 139.678 297.987 139.497 298.221 139.39C298.459 139.274 298.71 139.261 298.974 139.352C299.23 139.44 299.416 139.603 299.532 139.84C299.66 140.072 299.68 140.315 299.592 140.571C299.507 140.818 299.341 140.998 299.095 141.111C298.858 141.227 298.611 141.241 298.355 141.153ZM293.129 148.002L293.457 147.049L295.549 147.768L297.037 143.439C297.113 143.218 297.04 143.07 296.82 142.994L295.284 142.466L295.611 141.513L297.412 142.132C298.198 142.402 298.455 142.929 298.185 143.715L296.661 148.15L298.753 148.869L298.425 149.822L293.129 148.002ZM303.37 151.7C302.849 151.521 302.449 151.279 302.168 150.976C301.888 150.672 301.715 150.341 301.65 149.984C301.589 149.617 301.62 149.253 301.745 148.891C301.975 148.22 302.392 147.796 302.996 147.619C303.612 147.436 304.33 147.485 305.151 147.767L306.952 148.386L306.997 148.254C307.392 147.106 307.064 146.352 306.013 145.991C305.59 145.845 305.2 145.815 304.845 145.9C304.499 145.989 304.218 146.218 304.002 146.588L302.863 146.196C303.059 145.77 303.335 145.441 303.692 145.208C304.057 144.978 304.467 144.848 304.922 144.816C305.377 144.785 305.851 144.855 306.345 145.024C307.281 145.346 307.876 145.827 308.129 146.467C308.395 147.101 308.388 147.824 308.109 148.636L306.721 152.674L305.768 152.346L306.026 151.295L305.933 151.263C305.63 151.514 305.274 151.703 304.865 151.829C304.469 151.949 303.97 151.906 303.37 151.7ZM303.905 150.788C304.329 150.934 304.721 150.955 305.082 150.852C305.452 150.753 305.77 150.561 306.035 150.277C306.309 149.996 306.515 149.657 306.651 149.26L304.943 148.673C304.343 148.467 303.885 148.422 303.568 148.54C303.26 148.662 303.048 148.89 302.933 149.225C302.814 149.569 302.836 149.878 302.999 150.151C303.162 150.424 303.464 150.637 303.905 150.788ZM309.205 153.528L309.533 152.575L311.77 153.344L314.278 146.049C314.354 145.828 314.281 145.68 314.061 145.604L312.392 145.03L312.72 144.077L314.653 144.742C315.033 144.872 315.289 145.074 315.422 145.346C315.555 145.619 315.557 145.945 315.426 146.325L312.882 153.726L315.12 154.495L314.792 155.448L309.205 153.528ZM322.966 149.612C322.701 149.521 322.511 149.357 322.395 149.12C322.279 148.883 322.263 148.64 322.348 148.393C322.436 148.137 322.598 147.956 322.832 147.849C323.069 147.733 323.32 147.721 323.585 147.812C323.841 147.9 324.027 148.062 324.142 148.299C324.27 148.531 324.29 148.774 324.202 149.03C324.117 149.278 323.952 149.458 323.706 149.57C323.468 149.686 323.222 149.7 322.966 149.612ZM317.74 156.461L318.067 155.508L320.159 156.227L321.647 151.898C321.723 151.677 321.651 151.529 321.43 151.453L319.894 150.925L320.222 149.972L322.022 150.591C322.808 150.861 323.066 151.388 322.796 152.174L321.271 156.609L323.363 157.328L323.035 158.282L317.74 156.461ZM325.97 159.29L326.32 158.271L331.738 155.085L327.938 153.779L328.293 152.746L333.403 154.503L333.053 155.522L327.622 158.703L331.567 160.06L331.212 161.092L325.97 159.29ZM336.806 163.192C336.188 162.98 335.69 162.651 335.31 162.205C334.942 161.752 334.71 161.223 334.612 160.617C334.517 160.003 334.588 159.351 334.825 158.663C335.062 157.974 335.4 157.419 335.841 156.998C336.294 156.572 336.807 156.299 337.381 156.18C337.957 156.053 338.563 156.098 339.199 156.317C339.834 156.535 340.327 156.868 340.677 157.314C341.03 157.751 341.246 158.244 341.323 158.794C341.401 159.344 341.347 159.888 341.162 160.426C341.128 160.523 341.091 160.619 341.048 160.713C341.015 160.81 340.977 160.92 340.935 161.044L335.837 159.292C335.697 159.786 335.668 160.23 335.75 160.624C335.844 161.011 336.013 161.336 336.259 161.598C336.513 161.863 336.812 162.055 337.156 162.173C337.642 162.34 338.056 162.369 338.4 162.26C338.743 162.151 339.048 161.94 339.313 161.626L340.412 162.004C340.053 162.562 339.562 162.97 338.94 163.23C338.32 163.481 337.609 163.469 336.806 163.192ZM338.831 157.301C338.319 157.125 337.816 157.125 337.321 157.3C336.836 157.478 336.453 157.831 336.174 158.356L340.172 159.731C340.325 159.171 340.273 158.675 340.018 158.242C339.774 157.803 339.378 157.489 338.831 157.301Z" fill="#86888E"/>
</g>
<g filter="url(#filter1_d_2375_56148)">
<path d="M377.882 305.729C379.587 300.767 384.992 298.127 389.954 299.833L532.77 348.922C537.731 350.627 540.371 356.032 538.666 360.994L494.93 488.235C493.225 493.197 487.82 495.837 482.858 494.131L340.042 445.043C335.081 443.337 332.441 437.932 334.146 432.971L377.882 305.729Z" fill="url(#paint1_linear_2375_56148)" stroke="#86888E"/>
</g>
<g filter="url(#filter2_d_2375_56148)">
<path d="M629.493 216.737C631.199 211.775 636.604 209.135 641.565 210.841L784.381 259.929C789.343 261.635 791.983 267.04 790.277 272.002L763.424 350.125C761.719 355.087 756.314 357.727 751.352 356.021L608.536 306.933C603.575 305.227 600.935 299.822 602.64 294.86L629.493 216.737Z" fill="url(#paint2_linear_2375_56148)" stroke="#86888E"/>
<path d="M657.729 274.278C657.076 274.054 656.559 273.664 656.177 273.108C655.799 272.544 655.587 271.854 655.541 271.039C655.505 270.227 655.658 269.322 656 268.325C656.34 267.336 656.779 266.535 657.316 265.92C657.853 265.305 658.453 264.894 659.116 264.688C659.788 264.485 660.49 264.509 661.222 264.761C662.096 265.061 662.719 265.561 663.09 266.261C663.47 266.964 663.565 267.767 663.373 268.668L662.142 268.245C662.236 267.685 662.175 267.186 661.961 266.747C661.759 266.302 661.393 265.989 660.863 265.807C660.104 265.546 659.394 265.672 658.734 266.185C658.074 266.699 657.543 267.542 657.139 268.716C656.729 269.908 656.629 270.905 656.837 271.706C657.045 272.508 657.493 273.027 658.181 273.264C658.676 273.434 659.132 273.428 659.55 273.246C659.97 273.055 660.339 272.757 660.656 272.353C660.984 271.943 661.242 271.494 661.43 271.005L659.365 270.295L659.692 269.342L662.896 270.443L661.226 275.302L660.207 274.952L660.596 273.517L660.543 273.499C660.194 273.911 659.79 274.197 659.331 274.355C658.881 274.516 658.347 274.49 657.729 274.278ZM666.025 277.13C665.407 276.917 664.909 276.588 664.529 276.142C664.15 275.695 663.911 275.169 663.813 274.563C663.719 273.948 663.791 273.292 664.031 272.595C664.271 271.898 664.615 271.34 665.065 270.922C665.517 270.496 666.031 270.223 666.604 270.104C667.178 269.986 667.774 270.033 668.392 270.245C669.01 270.457 669.508 270.787 669.888 271.233C670.267 271.679 670.504 272.21 670.599 272.825C670.697 273.431 670.626 274.082 670.386 274.78C670.146 275.477 669.8 276.039 669.348 276.466C668.898 276.883 668.386 277.152 667.813 277.27C667.239 277.389 666.643 277.342 666.025 277.13ZM666.389 276.07C666.769 276.201 667.142 276.235 667.508 276.174C667.875 276.112 668.207 275.935 668.505 275.643C668.812 275.354 669.059 274.935 669.247 274.388C669.435 273.841 669.498 273.359 669.434 272.942C669.378 272.528 669.225 272.185 668.974 271.911C668.723 271.637 668.407 271.435 668.028 271.304C667.657 271.177 667.288 271.144 666.922 271.205C666.555 271.267 666.218 271.442 665.912 271.732C665.605 272.021 665.358 272.439 665.17 272.987C664.887 273.807 664.878 274.48 665.142 275.005C665.409 275.521 665.824 275.876 666.389 276.07ZM674.972 280.027C674.372 279.821 673.949 279.513 673.705 279.103C673.461 278.694 673.47 278.109 673.731 277.35L674.968 273.749L673.3 273.176L673.628 272.222L674.621 272.564C675.071 272.718 675.407 272.587 675.629 272.17L676.165 271.214L676.986 271.497L676.408 273.178L679.03 274.079L678.702 275.032L676.08 274.131L674.843 277.733C674.715 278.103 674.71 278.392 674.826 278.6C674.951 278.811 675.225 278.989 675.649 279.135L677.118 279.64L676.772 280.646L674.972 280.027ZM690.636 285.589C690.018 285.376 689.519 285.047 689.14 284.601C688.76 284.155 688.521 283.628 688.424 283.022C688.329 282.408 688.402 281.752 688.641 281.054C688.881 280.357 689.226 279.799 689.675 279.381C690.128 278.955 690.641 278.682 691.215 278.563C691.788 278.445 692.384 278.492 693.002 278.704C693.62 278.916 694.119 279.246 694.498 279.692C694.878 280.138 695.115 280.669 695.209 281.284C695.307 281.89 695.236 282.541 694.996 283.239C694.757 283.936 694.411 284.498 693.958 284.925C693.508 285.343 692.997 285.611 692.423 285.729C691.849 285.848 691.254 285.801 690.636 285.589ZM691 284.53C691.379 284.66 691.752 284.695 692.119 284.633C692.485 284.571 692.818 284.395 693.116 284.102C693.422 283.813 693.67 283.395 693.858 282.847C694.046 282.3 694.108 281.818 694.044 281.401C693.989 280.988 693.836 280.644 693.584 280.37C693.333 280.096 693.018 279.894 692.638 279.763C692.267 279.636 691.899 279.603 691.532 279.664C691.165 279.726 690.829 279.901 690.522 280.191C690.215 280.48 689.968 280.898 689.78 281.446C689.498 282.266 689.489 282.939 689.752 283.464C690.019 283.98 690.435 284.335 691 284.53ZM696.087 287.285L698.344 280.718L699.271 281.036L699.049 282.07L699.115 282.093C699.401 281.836 699.771 281.662 700.227 281.572C700.685 281.473 701.161 281.509 701.656 281.679C702.459 281.955 702.977 282.399 703.211 283.012C703.453 283.629 703.419 284.387 703.11 285.287L701.754 289.233L700.641 288.85L701.952 285.037C702.152 284.455 702.18 283.956 702.037 283.542C701.896 283.118 701.557 282.814 701.018 282.629C700.497 282.45 699.994 282.479 699.508 282.717C699.024 282.945 698.667 283.395 698.437 284.066L697.199 287.667L696.087 287.285ZM707.109 291.251C706.491 291.039 705.992 290.709 705.613 290.263C705.245 289.811 705.012 289.282 704.915 288.676C704.82 288.061 704.891 287.409 705.128 286.721C705.364 286.033 705.703 285.478 706.144 285.057C706.596 284.63 707.11 284.358 707.683 284.239C708.26 284.111 708.866 284.157 709.502 284.375C710.137 284.594 710.63 284.926 710.98 285.372C711.333 285.809 711.548 286.303 711.626 286.852C711.703 287.402 711.65 287.946 711.465 288.485C711.431 288.582 711.393 288.677 711.351 288.771C711.318 288.868 711.28 288.979 711.237 289.102L706.14 287.35C706 287.845 705.971 288.289 706.052 288.682C706.146 289.07 706.316 289.394 706.561 289.656C706.816 289.921 707.115 290.113 707.459 290.231C707.945 290.398 708.359 290.427 708.702 290.318C709.046 290.209 709.35 289.998 709.616 289.685L710.715 290.063C710.355 290.62 709.865 291.029 709.242 291.289C708.623 291.54 707.912 291.527 707.109 291.251ZM709.134 285.359C708.622 285.183 708.119 285.183 707.624 285.358C707.138 285.537 706.756 285.889 706.476 286.415L710.475 287.789C710.628 287.23 710.576 286.733 710.32 286.3C710.077 285.861 709.681 285.547 709.134 285.359ZM715.202 290.731L715.809 288.749L716.219 288.89C716.961 289.145 717.595 289.195 718.122 289.041C718.649 288.886 719.032 288.46 719.272 287.763C719.457 287.225 719.437 286.749 719.214 286.337C719.002 285.919 718.619 285.614 718.063 285.423C717.524 285.238 717.04 285.239 716.61 285.427C716.184 285.606 715.866 285.941 715.658 286.432L714.599 286.068C714.795 285.553 715.081 285.138 715.456 284.823C715.84 284.511 716.281 284.317 716.781 284.242C717.292 284.161 717.835 284.22 718.408 284.417C719.282 284.717 719.896 285.2 720.25 285.864C720.613 286.532 720.65 287.285 720.362 288.123C720.143 288.759 719.831 289.223 719.423 289.518C719.025 289.815 718.576 289.987 718.077 290.032C717.578 290.078 717.084 290.036 716.595 289.908L716.155 291.059L715.202 290.731ZM714.683 293.706C714.409 293.612 714.207 293.439 714.076 293.187C713.946 292.935 713.928 292.672 714.022 292.398C714.113 292.134 714.287 291.942 714.545 291.823C714.803 291.705 715.069 291.692 715.342 291.786C715.625 291.883 715.827 292.057 715.949 292.306C716.079 292.558 716.099 292.816 716.008 293.081C715.914 293.355 715.738 293.551 715.48 293.669C715.231 293.791 714.965 293.803 714.683 293.706Z" fill="#86888E"/>
</g>
<g filter="url(#filter3_d_2375_56148)">
<path d="M181.262 297.086C182.967 292.125 188.372 289.485 193.334 291.19L299.012 327.514C303.973 329.219 306.613 334.624 304.908 339.586L297.408 361.404C295.703 366.366 290.298 369.006 285.336 367.3L179.659 330.976C174.697 329.271 172.057 323.866 173.763 318.904L181.262 297.086Z" fill="url(#paint3_linear_2375_56148)" stroke="#86888E"/>
<path d="M221.367 326.382L224.206 318.12L221.717 317.265L222.063 316.258L228.153 318.352L227.808 319.358L225.319 318.502L222.479 326.764L221.367 326.382ZM227.266 328.41L227.594 327.456L229.276 328.034L230.764 323.705C230.84 323.484 230.772 323.338 230.56 323.265L229.368 322.855L229.696 321.902L231.298 322.453C231.589 322.553 231.796 322.713 231.918 322.932C232.04 323.152 232.047 323.416 231.941 323.725L231.846 324.003L231.899 324.021C232.156 323.616 232.472 323.345 232.845 323.206C233.227 323.071 233.683 323.095 234.212 323.277L235.417 323.691L235.012 324.869L233.648 324.4C233.11 324.215 232.633 324.254 232.217 324.515C231.805 324.768 231.503 325.173 231.312 325.729L230.388 328.417L232.453 329.127L232.125 330.08L227.266 328.41ZM237.812 332.212C237.017 331.939 236.499 331.494 236.257 330.878C236.015 330.262 236.048 329.504 236.358 328.603L237.714 324.658L238.826 325.04L237.515 328.853C237.315 329.436 237.285 329.939 237.426 330.362C237.579 330.78 237.92 331.08 238.449 331.262C238.979 331.444 239.485 331.42 239.969 331.192C240.455 330.954 240.813 330.5 241.044 329.829L242.282 326.228L243.394 326.61L241.137 333.177L240.21 332.859L240.432 331.825L240.366 331.802C240.08 332.059 239.708 332.237 239.249 332.336C238.794 332.426 238.315 332.385 237.812 332.212ZM246.545 335.214C245.927 335.001 245.428 334.672 245.049 334.226C244.681 333.774 244.448 333.245 244.351 332.639C244.256 332.024 244.327 331.372 244.564 330.684C244.8 329.995 245.139 329.441 245.58 329.02C246.032 328.593 246.546 328.32 247.119 328.202C247.696 328.074 248.302 328.12 248.938 328.338C249.573 328.557 250.066 328.889 250.416 329.335C250.769 329.772 250.984 330.265 251.062 330.815C251.139 331.365 251.086 331.909 250.901 332.447C250.867 332.544 250.829 332.64 250.787 332.734C250.754 332.831 250.716 332.941 250.673 333.065L245.576 331.313C245.436 331.808 245.407 332.252 245.488 332.645C245.582 333.032 245.752 333.357 245.997 333.619C246.252 333.884 246.551 334.076 246.895 334.194C247.381 334.361 247.795 334.39 248.138 334.281C248.482 334.172 248.786 333.961 249.052 333.648L250.151 334.025C249.792 334.583 249.301 334.991 248.678 335.251C248.059 335.502 247.348 335.49 246.545 335.214ZM248.57 329.322C248.058 329.146 247.555 329.146 247.06 329.321C246.574 329.5 246.192 329.852 245.912 330.378L249.911 331.752C250.064 331.192 250.012 330.696 249.756 330.263C249.513 329.824 249.117 329.51 248.57 329.322Z" fill="#86888E"/>
</g>
<g filter="url(#filter4_d_2375_56148)">
<circle cx="136.449" cy="90.391" r="50.1716" transform="rotate(18.969 136.449 90.391)" fill="url(#paint4_linear_2375_56148)" stroke="#86888E"/>
<path d="M118.109 89.9043C117.456 89.6798 116.929 89.3605 116.529 88.9465C116.137 88.5356 115.885 88.0639 115.772 87.5316C115.667 87.0023 115.712 86.4404 115.907 85.846L117.072 86.2465C116.899 86.7791 116.918 87.2988 117.128 87.8054C117.351 88.3063 117.793 88.6705 118.455 88.8981C119.064 89.1074 119.582 89.1226 120.009 88.9436C120.447 88.7587 120.738 88.4589 120.88 88.0441C120.999 87.6998 121.018 87.3857 120.938 87.1016C120.861 86.8086 120.672 86.5117 120.371 86.2108C120.081 85.9041 119.67 85.5505 119.137 85.15C118.377 84.6028 117.879 84.0418 117.642 83.467C117.406 82.8922 117.4 82.2782 117.624 81.625C117.776 81.1837 118.027 80.8259 118.378 80.5518C118.729 80.2776 119.155 80.1133 119.658 80.059C120.16 80.0046 120.72 80.0836 121.338 80.296C121.92 80.4962 122.39 80.781 122.747 81.1503C123.115 81.5138 123.352 81.9308 123.457 82.401C123.57 82.8743 123.541 83.3626 123.368 83.8657L122.203 83.4652C122.288 83.2181 122.305 82.9526 122.254 82.6688C122.204 82.3849 122.074 82.1181 121.863 81.8682C121.653 81.6183 121.345 81.4236 120.939 81.284C120.454 81.1171 120.007 81.0967 119.598 81.2228C119.193 81.34 118.92 81.6017 118.781 82.0077C118.674 82.3166 118.656 82.6013 118.724 82.8616C118.801 83.1251 118.977 83.4027 119.252 83.6945C119.53 83.9775 119.922 84.3147 120.429 84.706C120.907 85.0676 121.294 85.4328 121.592 85.8016C121.902 86.1646 122.099 86.5531 122.183 86.9671C122.277 87.3841 122.236 87.8486 122.06 88.3605C121.887 88.8637 121.606 89.2654 121.216 89.5658C120.827 89.8662 120.363 90.0522 119.825 90.124C119.29 90.1869 118.718 90.1136 118.109 89.9043ZM126.963 92.7699C126.363 92.5636 125.941 92.2557 125.697 91.8461C125.453 91.4365 125.461 90.8521 125.722 90.0931L126.96 86.4919L125.291 85.9185L125.619 84.9652L126.612 85.3065C127.062 85.4612 127.399 85.3301 127.621 84.913L128.157 83.9573L128.977 84.2394L128.399 85.9209L131.021 86.8219L130.693 87.7752L128.072 86.8741L126.834 90.4753C126.707 90.846 126.701 91.1352 126.817 91.3429C126.942 91.5537 127.216 91.7318 127.64 91.8775L129.11 92.3826L128.764 93.3888L126.963 92.7699ZM133.867 95.3207C133.347 95.1417 132.946 94.9004 132.666 94.5967C132.385 94.293 132.213 93.9623 132.148 93.6046C132.086 93.238 132.118 92.8738 132.242 92.5119C132.473 91.8411 132.89 91.417 133.494 91.2396C134.109 91.0565 134.828 91.106 135.649 91.3881L137.449 92.007L137.495 91.8746C137.889 90.7272 137.561 89.9729 136.511 89.6119C136.087 89.4663 135.698 89.4361 135.343 89.5213C134.997 89.6096 134.716 89.8387 134.5 90.2086L133.361 89.8172C133.557 89.391 133.833 89.0616 134.189 88.8288C134.554 88.599 134.964 88.4685 135.419 88.4373C135.874 88.4062 136.349 88.4755 136.843 88.6454C137.779 88.967 138.373 89.4477 138.627 90.0877C138.893 90.7218 138.886 91.4448 138.607 92.2569L137.219 96.295L136.266 95.9673L136.523 94.916L136.431 94.8842C136.127 95.1352 135.771 95.3237 135.363 95.4498C134.966 95.57 134.468 95.527 133.867 95.3207ZM134.403 94.4093C134.827 94.5549 135.219 94.5762 135.58 94.4734C135.95 94.3735 136.267 94.1816 136.533 93.8978C136.807 93.617 137.012 93.278 137.149 92.8808L135.441 92.2938C134.841 92.0875 134.382 92.0434 134.065 92.1614C133.757 92.2825 133.545 92.5108 133.43 92.8462C133.312 93.1904 133.334 93.4991 133.497 93.7721C133.659 94.0452 133.962 94.2576 134.403 94.4093ZM139.822 97.1897L140.15 96.2365L141.831 96.8144L143.319 92.485C143.395 92.2644 143.327 92.1176 143.115 92.0448L141.923 91.6352L142.251 90.682L143.853 91.2326C144.144 91.3327 144.351 91.4926 144.473 91.7121C144.595 91.9317 144.603 92.1959 144.497 92.5049L144.401 92.7829L144.454 92.8011C144.712 92.3962 145.027 92.1246 145.4 91.9864C145.782 91.8513 146.238 91.8747 146.768 92.0567L147.972 92.4708L147.567 93.6492L146.204 93.1804C145.665 92.9954 145.188 93.0337 144.773 93.2955C144.36 93.5484 144.058 93.9529 143.867 94.509L142.943 97.1967L145.008 97.9066L144.681 98.8599L139.822 97.1897ZM151.574 101.229C150.973 101.023 150.551 100.715 150.307 100.305C150.063 99.8956 150.071 99.3113 150.332 98.5522L151.57 94.951L149.902 94.3776L150.23 93.4243L151.223 93.7656C151.673 93.9204 152.009 93.7892 152.231 93.3721L152.767 92.4164L153.588 92.6985L153.01 94.38L155.631 95.281L155.304 96.2343L152.682 95.3332L151.444 98.9345C151.317 99.3052 151.311 99.5944 151.427 99.8021C151.552 100.013 151.827 100.191 152.25 100.337L153.72 100.842L153.374 101.848L151.574 101.229Z" fill="#86888E"/>
</g>
<g filter="url(#filter5_d_2375_56148)">
<path d="M440.471 123.635C442.177 118.673 447.582 116.034 452.543 117.739L595.359 166.828C600.321 168.533 602.961 173.938 601.255 178.9L557.519 306.142C555.814 311.103 550.409 313.743 545.447 312.038L402.632 262.949C397.67 261.243 395.03 255.839 396.736 250.877L440.471 123.635Z" fill="url(#paint5_linear_2375_56148)" stroke="#86888E"/>
</g>
<path d="M470.622 195.828L473.807 186.561L476.892 187.621C477.598 187.864 478.132 188.19 478.494 188.601C478.857 189.012 479.071 189.465 479.137 189.962C479.203 190.458 479.148 190.962 478.972 191.474C478.796 191.986 478.53 192.418 478.172 192.769C477.815 193.119 477.367 193.345 476.829 193.447C476.291 193.548 475.669 193.477 474.963 193.235L472.99 192.556L471.734 196.211L470.622 195.828ZM473.34 191.537L475.286 192.206C475.94 192.43 476.481 192.434 476.911 192.217C477.344 191.99 477.652 191.613 477.834 191.083C478.016 190.553 478.006 190.066 477.803 189.622C477.601 189.177 477.173 188.842 476.52 188.618L474.573 187.949L473.34 191.537ZM481.763 199.835C481.145 199.623 480.646 199.294 480.267 198.847C479.887 198.401 479.648 197.875 479.551 197.269C479.456 196.654 479.529 195.998 479.768 195.301C480.008 194.604 480.353 194.046 480.802 193.628C481.255 193.201 481.768 192.929 482.342 192.81C482.915 192.692 483.511 192.738 484.129 192.951C484.747 193.163 485.246 193.492 485.625 193.939C486.005 194.385 486.242 194.916 486.336 195.53C486.434 196.136 486.363 196.788 486.123 197.485C485.884 198.183 485.538 198.745 485.085 199.171C484.635 199.589 484.124 199.857 483.55 199.976C482.976 200.095 482.381 200.048 481.763 199.835ZM482.127 198.776C482.506 198.907 482.879 198.941 483.246 198.88C483.612 198.818 483.945 198.641 484.243 198.349C484.549 198.059 484.797 197.641 484.985 197.094C485.173 196.547 485.235 196.065 485.171 195.648C485.116 195.234 484.963 194.89 484.711 194.616C484.46 194.343 484.145 194.14 483.765 194.01C483.394 193.883 483.026 193.85 482.659 193.911C482.293 193.973 481.956 194.148 481.649 194.437C481.342 194.727 481.095 195.145 480.907 195.692C480.625 196.513 480.616 197.186 480.879 197.711C481.146 198.227 481.562 198.582 482.127 198.776ZM486.08 204.399L489.339 194.919L490.239 195.229L489.998 196.36L490.078 196.387C490.367 196.092 490.738 195.888 491.19 195.778C491.643 195.667 492.121 195.698 492.624 195.871C493.153 196.053 493.585 196.349 493.917 196.759C494.259 197.173 494.463 197.682 494.532 198.288C494.603 198.885 494.511 199.554 494.256 200.295C494.004 201.028 493.662 201.606 493.231 202.03C492.807 202.457 492.33 202.727 491.797 202.84C491.274 202.957 490.73 202.918 490.165 202.723C489.662 202.55 489.27 202.297 488.99 201.964C488.721 201.625 488.562 201.284 488.512 200.941L487.192 204.781L486.08 204.399ZM490.396 201.619C490.952 201.81 491.478 201.773 491.974 201.509C492.472 201.237 492.859 200.699 493.135 199.895C493.411 199.092 493.435 198.434 493.207 197.921C492.981 197.4 492.591 197.044 492.035 196.852C491.479 196.661 490.951 196.702 490.453 196.975C489.958 197.239 489.572 197.772 489.296 198.576C489.02 199.379 488.994 200.041 489.22 200.563C489.448 201.076 489.84 201.428 490.396 201.619ZM503.899 207.266L505.668 197.512L506.793 197.899L505.276 205.371L509.044 198.672L510.183 199.064L509.036 206.664L512.433 199.837L513.559 200.224L508.956 209.005L507.685 208.568L508.876 201.013L505.17 207.703L503.899 207.266ZM514.577 211.114C513.959 210.902 513.46 210.573 513.08 210.126C512.701 209.68 512.462 209.154 512.365 208.548C512.27 207.933 512.343 207.277 512.582 206.58C512.822 205.882 513.166 205.325 513.616 204.907C514.069 204.48 514.582 204.208 515.156 204.089C515.729 203.97 516.325 204.017 516.943 204.23C517.561 204.442 518.059 204.771 518.439 205.218C518.819 205.664 519.056 206.194 519.15 206.809C519.248 207.415 519.177 208.067 518.937 208.764C518.698 209.461 518.351 210.023 517.899 210.45C517.449 210.868 516.938 211.136 516.364 211.255C515.79 211.373 515.194 211.327 514.577 211.114ZM514.941 210.055C515.32 210.186 515.693 210.22 516.06 210.158C516.426 210.097 516.759 209.92 517.056 209.628C517.363 209.338 517.611 208.92 517.799 208.373C517.987 207.825 518.049 207.343 517.985 206.927C517.93 206.513 517.776 206.169 517.525 205.895C517.274 205.621 516.958 205.419 516.579 205.289C516.208 205.161 515.84 205.128 515.473 205.19C515.106 205.251 514.77 205.427 514.463 205.716C514.156 206.006 513.909 206.424 513.721 206.971C513.439 207.792 513.429 208.465 513.693 208.99C513.96 209.506 514.376 209.861 514.941 210.055ZM519.975 212.792L520.302 211.839L521.984 212.417L523.472 208.087C523.548 207.867 523.48 207.72 523.268 207.647L522.076 207.238L522.404 206.284L524.006 206.835C524.297 206.935 524.504 207.095 524.626 207.315C524.748 207.534 524.756 207.798 524.65 208.107L524.554 208.385L524.607 208.403C524.865 207.999 525.18 207.727 525.553 207.589C525.935 207.454 526.391 207.477 526.921 207.659L528.125 208.073L527.72 209.252L526.357 208.783C525.818 208.598 525.341 208.636 524.925 208.898C524.513 209.151 524.211 209.555 524.02 210.111L523.096 212.799L525.161 213.509L524.834 214.462L519.975 212.792ZM528.536 215.735L531.812 206.202L532.924 206.584L530.949 212.33L534.646 210.492L536.062 210.979L532.131 212.899L532.103 212.979L534.163 217.669L532.786 217.195L530.822 212.701L529.648 216.117L528.536 215.735ZM481.641 218.65L481.973 217.683L484.078 218.407L486.599 211.072L484.494 210.348L484.827 209.382L490.149 211.211L489.817 212.178L487.712 211.454L485.19 218.789L487.296 219.512L486.963 220.479L481.641 218.65ZM493.194 222.621C492.594 222.414 492.172 222.106 491.928 221.697C491.683 221.287 491.692 220.703 491.953 219.944L493.191 216.343L491.522 215.769L491.85 214.816L492.843 215.157C493.293 215.312 493.629 215.181 493.852 214.764L494.387 213.808L495.208 214.09L494.63 215.772L497.252 216.673L496.924 217.626L494.303 216.725L493.065 220.326C492.938 220.697 492.932 220.986 493.048 221.194C493.173 221.404 493.447 221.583 493.871 221.728L495.341 222.233L494.995 223.24L493.194 222.621ZM500.721 225.385C500.103 225.173 499.604 224.844 499.225 224.397C498.857 223.945 498.624 223.416 498.527 222.81C498.432 222.195 498.503 221.544 498.74 220.855C498.976 220.167 499.315 219.612 499.756 219.191C500.208 218.765 500.721 218.492 501.295 218.373C501.872 218.246 502.478 218.291 503.114 218.51C503.749 218.728 504.242 219.06 504.592 219.506C504.945 219.944 505.16 220.437 505.238 220.987C505.315 221.536 505.261 222.081 505.076 222.619C505.043 222.716 505.005 222.812 504.963 222.906C504.93 223.003 504.892 223.113 504.849 223.237L499.752 221.485C499.612 221.979 499.582 222.423 499.664 222.816C499.758 223.204 499.928 223.529 500.173 223.791C500.428 224.056 500.727 224.248 501.071 224.366C501.557 224.533 501.971 224.562 502.314 224.453C502.658 224.344 502.962 224.133 503.228 223.819L504.327 224.197C503.967 224.754 503.477 225.163 502.854 225.423C502.235 225.674 501.524 225.661 500.721 225.385ZM502.746 219.494C502.234 219.318 501.731 219.317 501.236 219.493C500.75 219.671 500.368 220.023 500.088 220.549L504.087 221.923C504.24 221.364 504.188 220.868 503.932 220.434C503.689 219.995 503.293 219.682 502.746 219.494ZM505.43 226.827L507.688 220.26L508.601 220.574L508.456 221.382L508.523 221.405C508.728 221.18 508.976 221.018 509.267 220.921C509.565 220.826 509.883 220.836 510.218 220.952C510.554 221.067 510.807 221.248 510.979 221.495C511.163 221.735 511.257 222.02 511.263 222.347L511.316 222.365C511.522 222.14 511.783 221.983 512.1 221.895C512.416 221.806 512.756 221.824 513.118 221.948C513.621 222.121 513.937 222.422 514.065 222.852C514.206 223.275 514.179 223.769 513.985 224.334L512.315 229.193L511.229 228.82L512.84 224.133C512.95 223.815 512.97 223.541 512.901 223.31C512.841 223.082 512.67 222.92 512.388 222.823C512.097 222.722 511.82 222.751 511.559 222.908C511.298 223.065 511.097 223.346 510.958 223.752L509.429 228.201L508.33 227.823L509.941 223.136C510.05 222.819 510.075 222.546 510.015 222.318C509.955 222.09 509.784 221.928 509.502 221.831C509.21 221.73 508.93 221.757 508.66 221.911C508.398 222.068 508.198 222.35 508.058 222.756L506.529 227.204L505.43 226.827Z" fill="#86888E"/>
<path d="M176.847 308.141C177.096 308.02 177.198 307.72 177.077 307.472L175.102 303.429C174.981 303.18 174.682 303.078 174.434 303.199C174.186 303.32 174.083 303.619 174.204 303.867L175.959 307.462L172.365 309.217C172.117 309.338 172.014 309.638 172.135 309.886C172.256 310.134 172.556 310.237 172.804 310.116L176.847 308.141ZM176.791 307.219L107.907 283.542L107.582 284.488L176.465 308.164L176.791 307.219ZM105.735 279.094L133.418 198.555L132.472 198.23L104.789 278.769L105.735 279.094ZM137.865 196.382L779.803 417.03L780.128 416.085L138.19 195.437L137.865 196.382ZM133.418 198.555C134.046 196.727 136.037 195.754 137.865 196.382L138.19 195.437C135.84 194.629 133.28 195.879 132.472 198.23L133.418 198.555ZM107.907 283.542C106.079 282.913 105.106 280.922 105.735 279.094L104.789 278.769C103.981 281.119 105.231 283.68 107.582 284.488L107.907 283.542Z" fill="#ACADAE"/>
<path d="M776.95 316.75C776.702 316.871 776.599 317.171 776.72 317.419L778.695 321.462C778.816 321.71 779.116 321.813 779.364 321.692C779.612 321.571 779.715 321.272 779.594 321.023L777.838 317.429L781.432 315.674C781.681 315.553 781.783 315.253 781.662 315.005C781.541 314.757 781.242 314.654 780.994 314.775L776.95 316.75ZM777.007 317.672L849.396 342.554L849.721 341.608L777.332 316.727L777.007 317.672ZM851.568 347.001L823.885 427.541L824.831 427.866L852.514 347.327L851.568 347.001ZM819.437 429.713L146.352 198.359L146.027 199.305L819.112 430.659L819.437 429.713ZM823.885 427.541C823.257 429.369 821.265 430.342 819.437 429.713L819.112 430.659C821.463 431.467 824.023 430.216 824.831 427.866L823.885 427.541ZM849.396 342.554C851.224 343.182 852.197 345.173 851.568 347.001L852.514 347.327C853.322 344.976 852.071 342.416 849.721 341.608L849.396 342.554Z" fill="#ACADAE"/>
<path d="M356.173 368.44C356.421 368.319 356.524 368.02 356.403 367.771L354.428 363.728C354.307 363.48 354.007 363.377 353.759 363.498C353.511 363.619 353.408 363.919 353.529 364.167L355.285 367.761L351.69 369.517C351.442 369.638 351.339 369.937 351.461 370.185C351.582 370.433 351.881 370.536 352.129 370.415L356.173 368.44ZM301.881 349.934L355.791 368.464L356.116 367.518L302.206 348.988L301.881 349.934Z" fill="#ACADAE"/>
<path d="M220.681 119.599C220.929 119.478 221.032 119.179 220.911 118.931L218.936 114.887C218.815 114.639 218.516 114.536 218.268 114.657C218.019 114.779 217.917 115.078 218.038 115.326L219.793 118.92L216.199 120.676C215.951 120.797 215.848 121.096 215.969 121.344C216.09 121.593 216.39 121.696 216.638 121.574L220.681 119.599ZM184.359 107.27L220.299 119.623L220.624 118.677L184.685 106.324L184.359 107.27Z" fill="#ACADAE"/>
<path d="M418.35 187.543C418.598 187.422 418.701 187.122 418.58 186.874L416.605 182.831C416.484 182.582 416.185 182.48 415.937 182.601C415.688 182.722 415.585 183.021 415.707 183.269L417.462 186.864L413.868 188.619C413.62 188.74 413.517 189.04 413.638 189.288C413.759 189.536 414.059 189.639 414.307 189.518L418.35 187.543ZM382.028 175.213L417.968 187.566L418.293 186.621L382.353 174.267L382.028 175.213Z" fill="#ACADAE"/>
<path d="M616.02 255.486C616.268 255.365 616.371 255.066 616.25 254.817L614.275 250.774C614.153 250.526 613.854 250.423 613.606 250.544C613.358 250.665 613.255 250.965 613.376 251.213L615.132 254.807L611.537 256.562C611.289 256.684 611.186 256.983 611.307 257.231C611.429 257.479 611.728 257.582 611.976 257.461L616.02 255.486ZM579.698 243.156L615.638 255.51L615.963 254.564L580.023 242.211L579.698 243.156Z" fill="#ACADAE"/>
<defs>
<filter id="filter0_d_2375_56148" x="154.047" y="28.7773" width="294.557" height="284.336" filterUnits="userSpaceOnUse" color-interpolation-filters="sRGB">
<feFlood flood-opacity="0" result="BackgroundImageFix"/>
<feColorMatrix in="SourceAlpha" type="matrix" values="0 0 0 0 0 0 0 0 0 0 0 0 0 0 0 0 0 0 127 0" result="hardAlpha"/>
<feOffset dy="24"/>
<feGaussianBlur stdDeviation="22"/>
<feComposite in2="hardAlpha" operator="out"/>
<feColorMatrix type="matrix" values="0 0 0 0 0 0 0 0 0 0 0 0 0 0 0 0 0 0 0.5 0"/>
<feBlend mode="normal" in2="BackgroundImageFix" result="effect1_dropShadow_2375_56148"/>
<feBlend mode="normal" in="SourceGraphic" in2="effect1_dropShadow_2375_56148" result="shape"/>
</filter>
<filter id="filter1_d_2375_56148" x="289.127" y="278.814" width="294.557" height="284.336" filterUnits="userSpaceOnUse" color-interpolation-filters="sRGB">
<feFlood flood-opacity="0" result="BackgroundImageFix"/>
<feColorMatrix in="SourceAlpha" type="matrix" values="0 0 0 0 0 0 0 0 0 0 0 0 0 0 0 0 0 0 127 0" result="hardAlpha"/>
<feOffset dy="24"/>
<feGaussianBlur stdDeviation="22"/>
<feComposite in2="hardAlpha" operator="out"/>
<feColorMatrix type="matrix" values="0 0 0 0 0 0 0 0 0 0 0 0 0 0 0 0 0 0 0.5 0"/>
<feBlend mode="normal" in2="BackgroundImageFix" result="effect1_dropShadow_2375_56148"/>
<feBlend mode="normal" in="SourceGraphic" in2="effect1_dropShadow_2375_56148" result="shape"/>
</filter>
<filter id="filter2_d_2375_56148" x="557.622" y="189.822" width="277.674" height="235.219" filterUnits="userSpaceOnUse" color-interpolation-filters="sRGB">
<feFlood flood-opacity="0" result="BackgroundImageFix"/>
<feColorMatrix in="SourceAlpha" type="matrix" values="0 0 0 0 0 0 0 0 0 0 0 0 0 0 0 0 0 0 127 0" result="hardAlpha"/>
<feOffset dy="24"/>
<feGaussianBlur stdDeviation="22"/>
<feComposite in2="hardAlpha" operator="out"/>
<feColorMatrix type="matrix" values="0 0 0 0 0 0 0 0 0 0 0 0 0 0 0 0 0 0 0.5 0"/>
<feBlend mode="normal" in2="BackgroundImageFix" result="effect1_dropShadow_2375_56148"/>
<feBlend mode="normal" in="SourceGraphic" in2="effect1_dropShadow_2375_56148" result="shape"/>
</filter>
<filter id="filter3_d_2375_56148" x="128.744" y="270.172" width="221.182" height="166.146" filterUnits="userSpaceOnUse" color-interpolation-filters="sRGB">
<feFlood flood-opacity="0" result="BackgroundImageFix"/>
<feColorMatrix in="SourceAlpha" type="matrix" values="0 0 0 0 0 0 0 0 0 0 0 0 0 0 0 0 0 0 127 0" result="hardAlpha"/>
<feOffset dy="24"/>
<feGaussianBlur stdDeviation="22"/>
<feComposite in2="hardAlpha" operator="out"/>
<feColorMatrix type="matrix" values="0 0 0 0 0 0 0 0 0 0 0 0 0 0 0 0 0 0 0.5 0"/>
<feBlend mode="normal" in2="BackgroundImageFix" result="effect1_dropShadow_2375_56148"/>
<feBlend mode="normal" in="SourceGraphic" in2="effect1_dropShadow_2375_56148" result="shape"/>
</filter>
<filter id="filter4_d_2375_56148" x="41.7632" y="19.7051" width="189.371" height="189.371" filterUnits="userSpaceOnUse" color-interpolation-filters="sRGB">
<feFlood flood-opacity="0" result="BackgroundImageFix"/>
<feColorMatrix in="SourceAlpha" type="matrix" values="0 0 0 0 0 0 0 0 0 0 0 0 0 0 0 0 0 0 127 0" result="hardAlpha"/>
<feOffset dy="24"/>
<feGaussianBlur stdDeviation="22"/>
<feComposite in2="hardAlpha" operator="out"/>
<feColorMatrix type="matrix" values="0 0 0 0 0 0 0 0 0 0 0 0 0 0 0 0 0 0 0.5 0"/>
<feBlend mode="normal" in2="BackgroundImageFix" result="effect1_dropShadow_2375_56148"/>
<feBlend mode="normal" in="SourceGraphic" in2="effect1_dropShadow_2375_56148" result="shape"/>
</filter>
<filter id="filter5_d_2375_56148" x="351.717" y="96.7207" width="294.557" height="284.336" filterUnits="userSpaceOnUse" color-interpolation-filters="sRGB">
<feFlood flood-opacity="0" result="BackgroundImageFix"/>
<feColorMatrix in="SourceAlpha" type="matrix" values="0 0 0 0 0 0 0 0 0 0 0 0 0 0 0 0 0 0 127 0" result="hardAlpha"/>
<feOffset dy="24"/>
<feGaussianBlur stdDeviation="22"/>
<feComposite in2="hardAlpha" operator="out"/>
<feColorMatrix type="matrix" values="0 0 0 0 0 0 0 0 0 0 0 0 0 0 0 0 0 0 0.5 0"/>
<feBlend mode="normal" in2="BackgroundImageFix" result="effect1_dropShadow_2375_56148"/>
<feBlend mode="normal" in="SourceGraphic" in2="effect1_dropShadow_2375_56148" result="shape"/>
</filter>
<linearGradient id="paint0_linear_2375_56148" x1="380.544" y1="179.532" x2="219.477" y2="124.17" gradientUnits="userSpaceOnUse">
<stop stop-color="#0C0D0E"/>
<stop offset="1" stop-color="#1B1B1F"/>
</linearGradient>
<linearGradient id="paint1_linear_2375_56148" x1="515.624" y1="429.569" x2="354.557" y2="374.207" gradientUnits="userSpaceOnUse">
<stop stop-color="#0C0D0E"/>
<stop offset="1" stop-color="#1B1B1F"/>
</linearGradient>
<linearGradient id="paint2_linear_2375_56148" x1="776.23" y1="314.408" x2="615.163" y2="259.045" gradientUnits="userSpaceOnUse">
<stop stop-color="#0C0D0E"/>
<stop offset="1" stop-color="#1B1B1F"/>
</linearGradient>
<linearGradient id="paint3_linear_2375_56148" x1="301.172" y1="351.993" x2="177.091" y2="309.344" gradientUnits="userSpaceOnUse">
<stop stop-color="#0C0D0E"/>
<stop offset="1" stop-color="#1B1B1F"/>
</linearGradient>
<linearGradient id="paint4_linear_2375_56148" x1="88.3108" y1="90.391" x2="187.12" y2="90.391" gradientUnits="userSpaceOnUse">
<stop stop-color="#0C0D0E"/>
<stop offset="1" stop-color="#1B1B1F"/>
</linearGradient>
<linearGradient id="paint5_linear_2375_56148" x1="578.213" y1="247.475" x2="417.146" y2="192.113" gradientUnits="userSpaceOnUse">
<stop stop-color="#0C0D0E"/>
<stop offset="1" stop-color="#1B1B1F"/>
</linearGradient>
</defs>
</svg>
