<svg width="814" height="505" viewBox="0 0 814 505" fill="none" xmlns="http://www.w3.org/2000/svg">
<g filter="url(#filter0_f_2483_55783)">
<ellipse cx="393" cy="376.5" rx="292" ry="76.5" fill="url(#paint0_linear_2483_55783)"/>
</g>
<g filter="url(#filter1_d_2483_55783)">
<path d="M288.802 204.692C290.508 199.73 295.913 197.09 300.874 198.796L443.69 247.885C448.652 249.59 451.292 254.995 449.586 259.957L405.85 387.198C404.145 392.16 398.74 394.8 393.778 393.094L250.963 344.006C246.001 342.3 243.361 336.895 245.067 331.933L288.802 204.692Z" fill="url(#paint1_linear_2483_55783)" stroke="#86888E"/>
<path d="M306.303 285.719L306.635 284.752L308.74 285.476L311.261 278.141L309.156 277.417L309.488 276.451L314.811 278.28L314.478 279.247L312.373 278.523L309.852 285.858L311.957 286.582L311.625 287.548L306.303 285.719ZM314.36 288.488L316.618 281.922L317.544 282.24L317.322 283.274L317.388 283.297C317.674 283.04 318.045 282.866 318.5 282.776C318.959 282.677 319.435 282.712 319.929 282.882C320.732 283.158 321.251 283.603 321.484 284.216C321.726 284.832 321.693 285.59 321.383 286.491L320.027 290.436L318.915 290.054L320.226 286.241C320.426 285.658 320.454 285.16 320.31 284.745C320.17 284.322 319.83 284.018 319.292 283.833C318.771 283.654 318.267 283.683 317.781 283.92C317.298 284.149 316.941 284.599 316.71 285.269L315.473 288.871L314.36 288.488ZM327.949 284.514C327.684 284.423 327.494 284.258 327.378 284.021C327.262 283.784 327.247 283.542 327.332 283.295C327.42 283.039 327.581 282.857 327.815 282.75C328.052 282.634 328.303 282.622 328.568 282.713C328.824 282.801 329.01 282.964 329.126 283.201C329.253 283.432 329.273 283.676 329.185 283.932C329.1 284.179 328.935 284.359 328.689 284.472C328.452 284.588 328.205 284.602 327.949 284.514ZM322.723 291.363L323.05 290.409L325.142 291.129L326.63 286.799C326.706 286.578 326.634 286.43 326.413 286.354L324.877 285.826L325.205 284.873L327.006 285.492C327.791 285.762 328.049 286.29 327.779 287.075L326.254 291.511L328.346 292.23L328.019 293.183L322.723 291.363ZM334.263 295.329C333.662 295.123 333.24 294.815 332.996 294.405C332.752 293.996 332.76 293.411 333.021 292.652L334.259 289.051L332.591 288.478L332.919 287.525L333.912 287.866C334.362 288.021 334.698 287.889 334.92 287.472L335.456 286.517L336.277 286.799L335.699 288.48L338.32 289.381L337.993 290.335L335.371 289.433L334.134 293.035C334.006 293.405 334 293.695 334.117 293.902C334.242 294.113 334.516 294.291 334.94 294.437L336.409 294.942L336.063 295.948L334.263 295.329ZM344.356 290.153C344.091 290.062 343.901 289.898 343.785 289.661C343.669 289.423 343.654 289.181 343.739 288.934C343.827 288.678 343.988 288.497 344.222 288.39C344.459 288.274 344.71 288.261 344.975 288.352C345.231 288.44 345.417 288.603 345.533 288.84C345.66 289.072 345.68 289.315 345.592 289.571C345.507 289.818 345.342 289.998 345.096 290.111C344.858 290.227 344.612 290.241 344.356 290.153ZM339.13 297.002L339.457 296.049L341.549 296.768L343.037 292.439C343.113 292.218 343.041 292.07 342.82 291.994L341.284 291.466L341.612 290.513L343.413 291.132C344.198 291.402 344.456 291.929 344.186 292.715L342.661 297.15L344.753 297.869L344.426 298.822L339.13 297.002ZM349.37 300.7C348.85 300.521 348.449 300.279 348.169 299.976C347.888 299.672 347.715 299.341 347.651 298.984C347.589 298.617 347.621 298.253 347.745 297.891C347.976 297.22 348.393 296.796 348.997 296.619C349.612 296.436 350.331 296.485 351.151 296.767L352.952 297.386L352.998 297.254C353.392 296.106 353.064 295.352 352.014 294.991C351.59 294.845 351.201 294.815 350.846 294.9C350.5 294.989 350.218 295.218 350.003 295.588L348.864 295.196C349.06 294.77 349.336 294.441 349.692 294.208C350.057 293.978 350.467 293.848 350.922 293.816C351.377 293.785 351.852 293.855 352.346 294.024C353.281 294.346 353.876 294.827 354.13 295.467C354.396 296.101 354.389 296.824 354.11 297.636L352.722 301.674L351.768 301.346L352.026 300.295L351.934 300.263C351.63 300.514 351.274 300.703 350.866 300.829C350.469 300.949 349.971 300.906 349.37 300.7ZM349.906 299.788C350.329 299.934 350.722 299.955 351.083 299.852C351.453 299.753 351.77 299.561 352.036 299.277C352.31 298.996 352.515 298.657 352.652 298.26L350.944 297.673C350.344 297.467 349.885 297.422 349.568 297.54C349.26 297.662 349.048 297.89 348.933 298.225C348.815 298.569 348.837 298.878 349 299.151C349.162 299.424 349.464 299.637 349.906 299.788ZM355.206 302.528L355.533 301.575L357.771 302.344L360.278 295.049C360.354 294.828 360.282 294.68 360.061 294.604L358.393 294.03L358.721 293.077L360.654 293.742C361.033 293.872 361.289 294.074 361.423 294.346C361.556 294.619 361.557 294.945 361.427 295.325L358.883 302.726L361.12 303.495L360.793 304.448L355.206 302.528ZM368.966 298.612C368.701 298.521 368.511 298.357 368.395 298.12C368.279 297.883 368.264 297.64 368.349 297.393C368.437 297.137 368.598 296.956 368.832 296.849C369.069 296.733 369.32 296.721 369.585 296.812C369.841 296.9 370.027 297.062 370.143 297.299C370.271 297.531 370.29 297.774 370.202 298.03C370.118 298.278 369.952 298.458 369.706 298.57C369.469 298.686 369.222 298.7 368.966 298.612ZM363.74 305.461L364.068 304.508L366.16 305.227L367.648 300.898C367.724 300.677 367.651 300.529 367.431 300.453L365.895 299.925L366.222 298.972L368.023 299.591C368.809 299.861 369.066 300.388 368.796 301.174L367.272 305.609L369.364 306.328L369.036 307.282L363.74 305.461ZM371.97 308.29L372.32 307.271L377.738 304.085L373.938 302.779L374.293 301.746L379.404 303.503L379.054 304.522L373.622 307.703L377.568 309.06L377.213 310.092L371.97 308.29ZM382.807 312.192C382.189 311.98 381.69 311.651 381.31 311.205C380.943 310.752 380.71 310.223 380.612 309.617C380.518 309.003 380.589 308.351 380.825 307.663C381.062 306.974 381.401 306.419 381.842 305.998C382.294 305.572 382.807 305.299 383.381 305.18C383.958 305.053 384.564 305.098 385.199 305.317C385.835 305.535 386.328 305.868 386.678 306.314C387.031 306.751 387.246 307.244 387.324 307.794C387.401 308.344 387.347 308.888 387.162 309.426C387.129 309.523 387.091 309.619 387.049 309.713C387.016 309.81 386.978 309.92 386.935 310.044L381.838 308.292C381.698 308.786 381.668 309.23 381.75 309.624C381.844 310.011 382.014 310.336 382.259 310.598C382.513 310.863 382.813 311.055 383.157 311.173C383.642 311.34 384.057 311.369 384.4 311.26C384.744 311.151 385.048 310.94 385.314 310.626L386.413 311.004C386.053 311.562 385.562 311.97 384.94 312.23C384.321 312.481 383.61 312.469 382.807 312.192ZM384.832 306.301C384.32 306.125 383.816 306.125 383.322 306.3C382.836 306.478 382.454 306.831 382.174 307.356L386.173 308.731C386.325 308.171 386.274 307.675 386.018 307.242C385.774 306.803 385.379 306.489 384.832 306.301Z" fill="#86888E"/>
</g>
<g filter="url(#filter2_d_2483_55783)">
<path d="M423.882 454.729C425.588 449.767 430.993 447.127 435.955 448.833L578.77 497.922C583.732 499.627 586.372 505.032 584.666 509.994L540.931 637.235C539.225 642.197 533.82 644.837 528.858 643.131L386.043 594.043C381.081 592.337 378.441 586.932 380.147 581.971L423.882 454.729Z" fill="url(#paint2_linear_2483_55783)" stroke="#86888E"/>
</g>
<g filter="url(#filter3_d_2483_55783)">
<path d="M675.494 365.737C677.199 360.775 682.604 358.135 687.566 359.841L830.382 408.929C835.343 410.635 837.983 416.04 836.278 421.002L809.425 499.125C807.719 504.087 802.314 506.727 797.353 505.021L654.537 455.933C649.575 454.227 646.935 448.822 648.641 443.86L675.494 365.737Z" fill="url(#paint3_linear_2483_55783)" stroke="#86888E"/>
<path d="M703.73 423.278C703.076 423.054 702.559 422.664 702.178 422.108C701.799 421.544 701.587 420.854 701.542 420.039C701.505 419.227 701.658 418.322 702.001 417.325C702.341 416.336 702.779 415.535 703.316 414.92C703.853 414.305 704.453 413.894 705.116 413.688C705.788 413.485 706.49 413.509 707.223 413.761C708.097 414.061 708.719 414.561 709.091 415.261C709.471 415.964 709.565 416.767 709.374 417.668L708.142 417.245C708.236 416.685 708.176 416.186 707.962 415.747C707.759 415.302 707.393 414.989 706.863 414.807C706.104 414.546 705.395 414.672 704.735 415.185C704.075 415.699 703.543 416.542 703.139 417.716C702.73 418.908 702.629 419.905 702.837 420.706C703.045 421.508 703.493 422.027 704.182 422.264C704.676 422.434 705.132 422.428 705.55 422.246C705.971 422.055 706.34 421.757 706.656 421.353C706.985 420.943 707.243 420.494 707.43 420.005L705.365 419.295L705.693 418.342L708.897 419.443L707.227 424.302L706.207 423.952L706.597 422.517L706.544 422.499C706.195 422.911 705.791 423.197 705.332 423.355C704.881 423.516 704.347 423.49 703.73 423.278ZM712.026 426.13C711.408 425.917 710.909 425.588 710.53 425.142C710.15 424.695 709.912 424.169 709.814 423.563C709.719 422.948 709.792 422.292 710.031 421.595C710.271 420.898 710.616 420.34 711.065 419.922C711.518 419.496 712.031 419.223 712.605 419.104C713.179 418.986 713.774 419.033 714.392 419.245C715.01 419.457 715.509 419.787 715.888 420.233C716.268 420.679 716.505 421.21 716.6 421.825C716.697 422.431 716.626 423.082 716.386 423.78C716.147 424.477 715.801 425.039 715.348 425.466C714.898 425.883 714.387 426.152 713.813 426.27C713.239 426.389 712.644 426.342 712.026 426.13ZM712.39 425.07C712.769 425.201 713.142 425.235 713.509 425.174C713.876 425.112 714.208 424.935 714.506 424.643C714.812 424.354 715.06 423.935 715.248 423.388C715.436 422.841 715.498 422.359 715.434 421.942C715.379 421.528 715.226 421.185 714.974 420.911C714.723 420.637 714.408 420.435 714.028 420.304C713.657 420.177 713.289 420.144 712.922 420.205C712.556 420.267 712.219 420.442 711.912 420.732C711.606 421.021 711.358 421.439 711.17 421.987C710.888 422.807 710.879 423.48 711.142 424.005C711.409 424.521 711.825 424.876 712.39 425.07ZM720.972 429.027C720.372 428.821 719.95 428.513 719.706 428.103C719.462 427.694 719.47 427.109 719.731 426.35L720.969 422.749L719.301 422.176L719.628 421.222L720.621 421.564C721.071 421.718 721.408 421.587 721.63 421.17L722.166 420.214L722.987 420.497L722.409 422.178L725.03 423.079L724.702 424.032L722.081 423.131L720.843 426.733C720.716 427.103 720.71 427.392 720.826 427.6C720.951 427.811 721.225 427.989 721.649 428.135L723.119 428.64L722.773 429.646L720.972 429.027ZM736.636 434.589C736.018 434.376 735.52 434.047 735.14 433.601C734.76 433.155 734.522 432.628 734.424 432.022C734.33 431.408 734.402 430.752 734.642 430.054C734.881 429.357 735.226 428.799 735.676 428.381C736.128 427.955 736.641 427.682 737.215 427.563C737.789 427.445 738.385 427.492 739.003 427.704C739.62 427.916 740.119 428.246 740.499 428.692C740.878 429.138 741.115 429.669 741.21 430.284C741.308 430.89 741.237 431.541 740.997 432.239C740.757 432.936 740.411 433.498 739.958 433.925C739.509 434.343 738.997 434.611 738.423 434.729C737.85 434.848 737.254 434.801 736.636 434.589ZM737 433.53C737.38 433.66 737.753 433.695 738.119 433.633C738.486 433.571 738.818 433.395 739.116 433.102C739.423 432.813 739.67 432.395 739.858 431.847C740.046 431.3 740.108 430.818 740.044 430.401C739.989 429.988 739.836 429.644 739.585 429.37C739.333 429.096 739.018 428.894 738.638 428.763C738.268 428.636 737.899 428.603 737.533 428.664C737.166 428.726 736.829 428.901 736.523 429.191C736.216 429.48 735.969 429.898 735.78 430.446C735.498 431.266 735.489 431.939 735.753 432.464C736.019 432.98 736.435 433.335 737 433.53ZM742.087 436.285L744.345 429.718L745.271 430.036L745.049 431.07L745.115 431.093C745.401 430.836 745.772 430.662 746.227 430.572C746.686 430.473 747.162 430.509 747.656 430.679C748.459 430.955 748.978 431.399 749.211 432.012C749.453 432.629 749.42 433.387 749.11 434.287L747.754 438.233L746.642 437.85L747.952 434.037C748.153 433.455 748.181 432.956 748.037 432.542C747.897 432.118 747.557 431.814 747.019 431.629C746.498 431.45 745.994 431.479 745.508 431.717C745.025 431.945 744.668 432.395 744.437 433.066L743.2 436.667L742.087 436.285ZM753.109 440.251C752.491 440.039 751.993 439.709 751.613 439.263C751.245 438.811 751.013 438.282 750.915 437.676C750.821 437.061 750.892 436.409 751.128 435.721C751.365 435.033 751.704 434.478 752.144 434.057C752.597 433.63 753.11 433.358 753.684 433.239C754.261 433.111 754.867 433.157 755.502 433.375C756.138 433.594 756.63 433.926 756.98 434.372C757.334 434.809 757.549 435.303 757.626 435.852C757.704 436.402 757.65 436.946 757.465 437.485C757.432 437.582 757.394 437.677 757.352 437.771C757.318 437.868 757.28 437.979 757.238 438.102L752.141 436.35C752 436.845 751.971 437.289 752.053 437.682C752.147 438.07 752.316 438.394 752.562 438.656C752.816 438.921 753.115 439.113 753.46 439.231C753.945 439.398 754.36 439.427 754.703 439.318C755.046 439.209 755.351 438.998 755.616 438.685L756.715 439.063C756.356 439.62 755.865 440.029 755.243 440.289C754.624 440.54 753.912 440.527 753.109 440.251ZM755.134 434.359C754.622 434.183 754.119 434.183 753.625 434.358C753.139 434.537 752.756 434.889 752.477 435.415L756.475 436.789C756.628 436.23 756.577 435.733 756.321 435.3C756.077 434.861 755.682 434.547 755.134 434.359ZM761.202 439.731L761.809 437.749L762.22 437.89C762.961 438.145 763.595 438.195 764.122 438.041C764.649 437.886 765.032 437.46 765.272 436.763C765.457 436.225 765.438 435.749 765.214 435.337C765.003 434.919 764.619 434.614 764.063 434.423C763.525 434.238 763.041 434.239 762.611 434.427C762.184 434.606 761.867 434.941 761.658 435.432L760.599 435.068C760.796 434.553 761.082 434.138 761.456 433.823C761.84 433.511 762.282 433.317 762.781 433.242C763.293 433.161 763.835 433.22 764.409 433.417C765.283 433.717 765.897 434.2 766.25 434.864C766.613 435.532 766.65 436.285 766.362 437.123C766.144 437.759 765.831 438.223 765.424 438.518C765.026 438.815 764.577 438.987 764.078 439.032C763.578 439.078 763.084 439.036 762.596 438.908L762.155 440.059L761.202 439.731ZM760.683 442.706C760.409 442.612 760.207 442.439 760.077 442.187C759.946 441.935 759.928 441.672 760.022 441.398C760.113 441.134 760.288 440.942 760.546 440.823C760.803 440.705 761.069 440.692 761.343 440.786C761.625 440.883 761.827 441.057 761.949 441.306C762.079 441.558 762.099 441.816 762.008 442.081C761.914 442.355 761.738 442.551 761.48 442.669C761.231 442.791 760.965 442.803 760.683 442.706Z" fill="#86888E"/>
</g>
<g filter="url(#filter4_d_2483_55783)">
<path d="M227.262 446.086C228.968 441.125 234.373 438.485 239.334 440.19L345.012 476.514C349.974 478.219 352.614 483.624 350.908 488.586L343.409 510.404C341.703 515.366 336.299 518.006 331.337 516.3L225.659 479.976C220.697 478.271 218.058 472.866 219.763 467.904L227.262 446.086Z" fill="url(#paint4_linear_2483_55783)" stroke="#86888E"/>
<path d="M267.367 475.382L270.207 467.12L267.718 466.265L268.064 465.258L274.154 467.352L273.808 468.358L271.319 467.502L268.479 475.764L267.367 475.382ZM273.267 477.41L273.595 476.456L275.276 477.034L276.764 472.705C276.84 472.484 276.772 472.338 276.56 472.265L275.369 471.855L275.696 470.902L277.298 471.453C277.59 471.553 277.796 471.713 277.918 471.932C278.04 472.152 278.048 472.416 277.942 472.725L277.846 473.003L277.899 473.021C278.157 472.616 278.472 472.345 278.845 472.206C279.227 472.071 279.683 472.095 280.213 472.277L281.417 472.691L281.012 473.869L279.649 473.4C279.11 473.215 278.633 473.254 278.218 473.515C277.805 473.768 277.503 474.173 277.312 474.729L276.388 477.417L278.454 478.127L278.126 479.08L273.267 477.41ZM283.812 481.212C283.018 480.939 282.5 480.494 282.257 479.878C282.015 479.262 282.049 478.504 282.358 477.603L283.714 473.658L284.827 474.04L283.516 477.853C283.316 478.436 283.286 478.939 283.427 479.362C283.579 479.78 283.92 480.08 284.45 480.262C284.979 480.444 285.486 480.42 285.969 480.192C286.455 479.954 286.814 479.5 287.044 478.829L288.282 475.228L289.394 475.61L287.137 482.177L286.21 481.859L286.432 480.825L286.366 480.802C286.08 481.059 285.708 481.237 285.25 481.336C284.795 481.426 284.315 481.385 283.812 481.212ZM292.545 484.214C291.927 484.001 291.429 483.672 291.049 483.226C290.681 482.774 290.449 482.245 290.351 481.639C290.257 481.024 290.328 480.372 290.564 479.684C290.801 478.995 291.14 478.441 291.58 478.02C292.033 477.593 292.546 477.32 293.12 477.202C293.697 477.074 294.303 477.12 294.938 477.338C295.574 477.557 296.066 477.889 296.416 478.335C296.77 478.772 296.985 479.265 297.062 479.815C297.14 480.365 297.086 480.909 296.901 481.447C296.868 481.544 296.83 481.64 296.788 481.734C296.754 481.831 296.716 481.941 296.674 482.065L291.577 480.313C291.436 480.808 291.407 481.252 291.489 481.645C291.583 482.032 291.752 482.357 291.998 482.619C292.252 482.884 292.551 483.076 292.896 483.194C293.381 483.361 293.796 483.39 294.139 483.281C294.482 483.172 294.787 482.961 295.052 482.648L296.151 483.025C295.792 483.583 295.301 483.991 294.679 484.251C294.06 484.502 293.348 484.49 292.545 484.214ZM294.57 478.322C294.058 478.146 293.555 478.146 293.061 478.321C292.575 478.5 292.192 478.852 291.913 479.378L295.911 480.752C296.064 480.192 296.013 479.696 295.757 479.263C295.513 478.824 295.118 478.51 294.57 478.322Z" fill="#86888E"/>
</g>
<g filter="url(#filter5_d_2483_55783)">
<circle cx="182.449" cy="239.391" r="50.1716" transform="rotate(18.969 182.449 239.391)" fill="url(#paint5_linear_2483_55783)" stroke="#86888E"/>
<path d="M164.11 238.904C163.457 238.68 162.93 238.361 162.529 237.947C162.138 237.536 161.885 237.064 161.772 236.532C161.668 236.002 161.713 235.44 161.907 234.846L163.072 235.246C162.899 235.779 162.918 236.299 163.129 236.805C163.351 237.306 163.794 237.671 164.456 237.898C165.065 238.107 165.583 238.123 166.009 237.944C166.448 237.759 166.738 237.459 166.881 237.044C166.999 236.7 167.018 236.386 166.938 236.102C166.861 235.809 166.672 235.512 166.371 235.211C166.082 234.904 165.67 234.551 165.137 234.15C164.378 233.603 163.88 233.042 163.643 232.467C163.406 231.892 163.4 231.278 163.625 230.625C163.776 230.184 164.028 229.826 164.378 229.552C164.729 229.278 165.156 229.113 165.658 229.059C166.16 229.005 166.721 229.084 167.338 229.296C167.921 229.496 168.391 229.781 168.747 230.15C169.116 230.514 169.352 230.931 169.457 231.401C169.571 231.874 169.541 232.363 169.368 232.866L168.203 232.465C168.288 232.218 168.305 231.953 168.255 231.669C168.204 231.385 168.074 231.118 167.864 230.868C167.654 230.618 167.346 230.424 166.94 230.284C166.454 230.117 166.007 230.097 165.599 230.223C165.193 230.34 164.921 230.602 164.781 231.008C164.675 231.317 164.656 231.601 164.724 231.862C164.802 232.125 164.978 232.403 165.252 232.694C165.53 232.977 165.923 233.315 166.43 233.706C166.907 234.068 167.295 234.433 167.593 234.802C167.902 235.165 168.099 235.553 168.184 235.967C168.277 236.384 168.236 236.849 168.06 237.361C167.887 237.864 167.606 238.265 167.217 238.566C166.827 238.866 166.363 239.052 165.826 239.124C165.291 239.187 164.719 239.114 164.11 238.904ZM172.964 241.77C172.363 241.564 171.941 241.256 171.697 240.846C171.453 240.436 171.461 239.852 171.722 239.093L172.96 235.492L171.292 234.918L171.62 233.965L172.613 234.307C173.063 234.461 173.399 234.33 173.621 233.913L174.157 232.957L174.978 233.239L174.4 234.921L177.021 235.822L176.694 236.775L174.072 235.874L172.835 239.475C172.707 239.846 172.701 240.135 172.818 240.343C172.943 240.554 173.217 240.732 173.641 240.877L175.11 241.383L174.764 242.389L172.964 241.77ZM179.868 244.321C179.347 244.142 178.947 243.9 178.666 243.597C178.386 243.293 178.213 242.962 178.148 242.605C178.087 242.238 178.118 241.874 178.243 241.512C178.473 240.841 178.89 240.417 179.494 240.24C180.11 240.056 180.828 240.106 181.649 240.388L183.45 241.007L183.495 240.875C183.89 239.727 183.562 238.973 182.511 238.612C182.088 238.466 181.698 238.436 181.343 238.521C180.997 238.61 180.716 238.839 180.5 239.209L179.361 238.817C179.557 238.391 179.833 238.062 180.19 237.829C180.555 237.599 180.965 237.469 181.42 237.437C181.875 237.406 182.349 237.476 182.843 237.645C183.779 237.967 184.374 238.448 184.627 239.088C184.893 239.722 184.886 240.445 184.607 241.257L183.219 245.295L182.266 244.967L182.524 243.916L182.431 243.884C182.128 244.135 181.772 244.324 181.363 244.45C180.967 244.57 180.468 244.527 179.868 244.321ZM180.403 243.409C180.827 243.555 181.219 243.576 181.58 243.473C181.95 243.373 182.268 243.182 182.533 242.898C182.807 242.617 183.013 242.278 183.149 241.881L181.441 241.294C180.841 241.087 180.383 241.043 180.066 241.161C179.758 241.283 179.546 241.511 179.431 241.846C179.312 242.19 179.334 242.499 179.497 242.772C179.66 243.045 179.962 243.258 180.403 243.409ZM185.822 246.19L186.15 245.236L187.831 245.814L189.32 241.485C189.395 241.264 189.327 241.118 189.116 241.045L187.924 240.635L188.252 239.682L189.854 240.233C190.145 240.333 190.352 240.493 190.473 240.712C190.595 240.932 190.603 241.196 190.497 241.505L190.401 241.783L190.454 241.801C190.712 241.396 191.027 241.125 191.401 240.986C191.783 240.851 192.238 240.875 192.768 241.057L193.973 241.471L193.568 242.649L192.204 242.18C191.666 241.995 191.189 242.034 190.773 242.295C190.36 242.548 190.059 242.953 189.867 243.509L188.944 246.197L191.009 246.907L190.681 247.86L185.822 246.19ZM197.574 250.229C196.974 250.023 196.552 249.715 196.308 249.305C196.063 248.896 196.072 248.311 196.333 247.552L197.571 243.951L195.902 243.378L196.23 242.424L197.223 242.766C197.673 242.92 198.009 242.789 198.232 242.372L198.767 241.416L199.588 241.699L199.01 243.38L201.632 244.281L201.304 245.234L198.683 244.333L197.445 247.934C197.317 248.305 197.312 248.594 197.428 248.802C197.553 249.013 197.827 249.191 198.251 249.337L199.721 249.842L199.375 250.848L197.574 250.229Z" fill="#86888E"/>
</g>
<g filter="url(#filter6_d_2483_55783)">
<path d="M486.472 272.635C488.177 267.673 493.582 265.034 498.544 266.739L641.36 315.828C646.321 317.533 648.961 322.938 647.256 327.9L603.52 455.142C601.814 460.103 596.41 462.743 591.448 461.038L448.632 411.949C443.67 410.243 441.031 404.839 442.736 399.877L486.472 272.635Z" fill="url(#paint6_linear_2483_55783)" stroke="#86888E"/>
</g>
<path d="M516.622 344.828L519.808 335.561L522.893 336.621C523.599 336.864 524.133 337.19 524.495 337.601C524.857 338.012 525.071 338.465 525.138 338.962C525.204 339.458 525.149 339.962 524.973 340.474C524.797 340.986 524.53 341.418 524.173 341.769C523.815 342.119 523.368 342.345 522.829 342.447C522.291 342.548 521.669 342.477 520.963 342.235L518.99 341.556L517.734 345.211L516.622 344.828ZM519.341 340.537L521.287 341.206C521.94 341.43 522.482 341.434 522.912 341.217C523.345 340.99 523.652 340.613 523.834 340.083C524.016 339.553 524.006 339.066 523.804 338.622C523.601 338.177 523.173 337.842 522.52 337.618L520.574 336.949L519.341 340.537ZM527.763 348.835C527.145 348.623 526.647 348.294 526.267 347.847C525.888 347.401 525.649 346.875 525.551 346.269C525.457 345.654 525.529 344.998 525.769 344.301C526.009 343.604 526.353 343.046 526.803 342.628C527.255 342.201 527.769 341.929 528.342 341.81C528.916 341.692 529.512 341.738 530.13 341.951C530.747 342.163 531.246 342.492 531.626 342.939C532.005 343.385 532.242 343.916 532.337 344.53C532.435 345.136 532.364 345.788 532.124 346.485C531.884 347.183 531.538 347.745 531.085 348.171C530.636 348.589 530.124 348.857 529.551 348.976C528.977 349.095 528.381 349.048 527.763 348.835ZM528.127 347.776C528.507 347.907 528.88 347.941 529.246 347.88C529.613 347.818 529.945 347.641 530.243 347.349C530.55 347.059 530.797 346.641 530.985 346.094C531.173 345.547 531.235 345.065 531.171 344.648C531.116 344.234 530.963 343.89 530.712 343.616C530.46 343.343 530.145 343.14 529.766 343.01C529.395 342.883 529.026 342.85 528.66 342.911C528.293 342.973 527.956 343.148 527.65 343.437C527.343 343.727 527.096 344.145 526.907 344.692C526.625 345.513 526.616 346.186 526.88 346.711C527.147 347.227 527.562 347.582 528.127 347.776ZM532.081 353.399L535.339 343.919L536.24 344.229L535.999 345.36L536.078 345.387C536.367 345.092 536.738 344.888 537.191 344.778C537.643 344.667 538.121 344.698 538.624 344.871C539.154 345.053 539.585 345.349 539.918 345.759C540.259 346.173 540.464 346.682 540.532 347.288C540.603 347.885 540.511 348.554 540.257 349.295C540.005 350.028 539.663 350.606 539.231 351.03C538.808 351.457 538.33 351.727 537.798 351.84C537.274 351.957 536.73 351.918 536.165 351.723C535.662 351.55 535.27 351.297 534.99 350.964C534.722 350.625 534.563 350.284 534.513 349.941L533.193 353.781L532.081 353.399ZM536.397 350.619C536.953 350.81 537.479 350.773 537.974 350.509C538.472 350.237 538.86 349.699 539.136 348.895C539.412 348.092 539.436 347.434 539.207 346.921C538.982 346.4 538.591 346.044 538.035 345.852C537.479 345.661 536.952 345.702 536.453 345.975C535.958 346.239 535.572 346.772 535.296 347.576C535.02 348.379 534.995 349.041 535.22 349.563C535.449 350.076 535.841 350.428 536.397 350.619ZM549.899 356.266L551.668 346.512L552.794 346.899L551.276 354.371L555.044 347.672L556.183 348.064L555.036 355.664L558.434 348.837L559.559 349.224L554.957 358.005L553.686 357.568L554.876 350.013L551.17 356.703L549.899 356.266ZM560.577 360.114C559.959 359.902 559.46 359.573 559.081 359.126C558.701 358.68 558.463 358.154 558.365 357.548C558.27 356.933 558.343 356.277 558.583 355.58C558.822 354.882 559.167 354.325 559.617 353.907C560.069 353.48 560.582 353.208 561.156 353.089C561.73 352.97 562.326 353.017 562.943 353.23C563.561 353.442 564.06 353.771 564.44 354.218C564.819 354.664 565.056 355.194 565.151 355.809C565.248 356.415 565.177 357.067 564.938 357.764C564.698 358.461 564.352 359.023 563.899 359.45C563.45 359.868 562.938 360.136 562.364 360.255C561.791 360.373 561.195 360.327 560.577 360.114ZM560.941 359.055C561.321 359.186 561.694 359.22 562.06 359.158C562.427 359.097 562.759 358.92 563.057 358.628C563.364 358.338 563.611 357.92 563.799 357.373C563.987 356.825 564.049 356.343 563.985 355.927C563.93 355.513 563.777 355.169 563.526 354.895C563.274 354.621 562.959 354.419 562.579 354.289C562.209 354.161 561.84 354.128 561.473 354.19C561.107 354.251 560.77 354.427 560.464 354.716C560.157 355.006 559.909 355.424 559.721 355.971C559.439 356.792 559.43 357.465 559.694 357.99C559.96 358.506 560.376 358.861 560.941 359.055ZM565.975 361.792L566.303 360.839L567.984 361.417L569.473 357.087C569.548 356.867 569.48 356.72 569.269 356.647L568.077 356.238L568.405 355.284L570.007 355.835C570.298 355.935 570.504 356.095 570.626 356.315C570.748 356.534 570.756 356.798 570.65 357.107L570.554 357.385L570.607 357.403C570.865 356.999 571.18 356.727 571.554 356.589C571.936 356.454 572.391 356.477 572.921 356.659L574.126 357.073L573.721 358.252L572.357 357.783C571.819 357.598 571.342 357.636 570.926 357.898C570.513 358.151 570.211 358.555 570.02 359.111L569.097 361.799L571.162 362.509L570.834 363.462L565.975 361.792ZM574.536 364.735L577.813 355.202L578.925 355.584L576.95 361.33L580.646 359.492L582.063 359.979L578.131 361.899L578.104 361.979L580.163 366.669L578.786 366.195L576.822 361.701L575.648 365.117L574.536 364.735ZM527.641 367.65L527.974 366.683L530.079 367.407L532.6 360.072L530.495 359.348L530.827 358.382L536.149 360.211L535.817 361.178L533.712 360.454L531.191 367.789L533.296 368.512L532.964 369.479L527.641 367.65ZM539.195 371.621C538.594 371.414 538.172 371.106 537.928 370.697C537.684 370.287 537.692 369.703 537.953 368.944L539.191 365.343L537.523 364.769L537.851 363.816L538.844 364.157C539.294 364.312 539.63 364.181 539.852 363.764L540.388 362.808L541.209 363.09L540.631 364.772L543.252 365.673L542.925 366.626L540.303 365.725L539.065 369.326C538.938 369.697 538.932 369.986 539.048 370.194C539.173 370.404 539.448 370.583 539.871 370.728L541.341 371.233L540.995 372.24L539.195 371.621ZM546.721 374.385C546.103 374.173 545.605 373.844 545.225 373.397C544.857 372.945 544.625 372.416 544.527 371.81C544.432 371.195 544.503 370.544 544.74 369.855C544.977 369.167 545.315 368.612 545.756 368.191C546.209 367.765 546.722 367.492 547.296 367.373C547.872 367.246 548.479 367.291 549.114 367.51C549.75 367.728 550.242 368.06 550.592 368.506C550.945 368.944 551.161 369.437 551.238 369.987C551.316 370.536 551.262 371.081 551.077 371.619C551.044 371.716 551.006 371.812 550.964 371.906C550.93 372.003 550.892 372.113 550.85 372.237L545.752 370.485C545.612 370.979 545.583 371.423 545.665 371.816C545.759 372.204 545.928 372.529 546.174 372.791C546.428 373.056 546.727 373.248 547.072 373.366C547.557 373.533 547.971 373.562 548.315 373.453C548.658 373.344 548.963 373.133 549.228 372.819L550.327 373.197C549.968 373.754 549.477 374.163 548.855 374.423C548.236 374.674 547.524 374.661 546.721 374.385ZM548.746 368.494C548.234 368.318 547.731 368.317 547.237 368.493C546.751 368.671 546.368 369.023 546.089 369.549L550.087 370.923C550.24 370.364 550.189 369.868 549.933 369.434C549.689 368.995 549.293 368.682 548.746 368.494ZM551.431 375.827L553.688 369.26L554.602 369.574L554.457 370.382L554.523 370.405C554.729 370.18 554.977 370.018 555.267 369.921C555.566 369.826 555.883 369.836 556.219 369.952C556.554 370.067 556.808 370.248 556.979 370.495C557.163 370.735 557.258 371.02 557.264 371.347L557.317 371.365C557.522 371.14 557.784 370.983 558.1 370.895C558.417 370.806 558.756 370.824 559.118 370.948C559.621 371.121 559.937 371.422 560.066 371.852C560.207 372.275 560.18 372.769 559.986 373.334L558.316 378.193L557.23 377.82L558.841 373.133C558.95 372.815 558.97 372.541 558.902 372.31C558.842 372.082 558.671 371.92 558.388 371.823C558.097 371.722 557.821 371.751 557.56 371.908C557.298 372.065 557.098 372.346 556.958 372.752L555.429 377.201L554.33 376.823L555.941 372.136C556.051 371.819 556.075 371.546 556.015 371.318C555.956 371.09 555.784 370.928 555.502 370.831C555.211 370.73 554.93 370.757 554.66 370.911C554.399 371.068 554.198 371.35 554.059 371.756L552.53 376.204L551.431 375.827Z" fill="#86888E"/>
<path d="M222.848 457.141C223.096 457.02 223.199 456.72 223.078 456.472L221.103 452.429C220.982 452.18 220.682 452.078 220.434 452.199C220.186 452.32 220.083 452.619 220.204 452.867L221.96 456.462L218.366 458.217C218.117 458.338 218.015 458.638 218.136 458.886C218.257 459.134 218.556 459.237 218.804 459.116L222.848 457.141ZM222.791 456.219L153.907 432.542L153.582 433.488L222.466 457.164L222.791 456.219ZM151.735 428.094L179.418 347.555L178.473 347.23L150.789 427.769L151.735 428.094ZM183.866 345.382L825.803 566.03L826.128 565.085L184.191 344.437L183.866 345.382ZM179.418 347.555C180.047 345.727 182.038 344.754 183.866 345.382L184.191 344.437C181.841 343.629 179.28 344.879 178.473 347.23L179.418 347.555ZM153.907 432.542C152.079 431.913 151.107 429.922 151.735 428.094L150.789 427.769C149.981 430.119 151.232 432.68 153.582 433.488L153.907 432.542Z" fill="#ACADAE"/>
<path d="M822.951 465.75C822.702 465.871 822.6 466.171 822.721 466.419L824.696 470.462C824.817 470.71 825.116 470.813 825.364 470.692C825.612 470.571 825.715 470.272 825.594 470.023L823.839 466.429L827.433 464.674C827.681 464.553 827.784 464.253 827.663 464.005C827.542 463.757 827.242 463.654 826.994 463.775L822.951 465.75ZM823.007 466.672L895.396 491.554L895.721 490.608L823.333 465.727L823.007 466.672ZM897.569 496.001L869.885 576.541L870.831 576.866L898.514 496.327L897.569 496.001ZM865.438 578.713L192.353 347.359L192.028 348.305L865.113 579.659L865.438 578.713ZM869.885 576.541C869.257 578.369 867.266 579.342 865.438 578.713L865.113 579.659C867.463 580.467 870.023 579.216 870.831 576.866L869.885 576.541ZM895.396 491.554C897.224 492.182 898.197 494.173 897.569 496.001L898.514 496.327C899.322 493.976 898.072 491.416 895.721 490.608L895.396 491.554Z" fill="#ACADAE"/>
<path d="M402.173 517.44C402.421 517.319 402.524 517.02 402.403 516.771L400.428 512.728C400.307 512.48 400.008 512.377 399.759 512.498C399.511 512.619 399.408 512.919 399.53 513.167L401.285 516.761L397.691 518.517C397.443 518.638 397.34 518.937 397.461 519.185C397.582 519.433 397.882 519.536 398.13 519.415L402.173 517.44ZM347.881 498.934L401.791 517.464L402.116 516.518L348.206 497.988L347.881 498.934Z" fill="#ACADAE"/>
<path d="M266.682 268.599C266.93 268.478 267.033 268.179 266.912 267.931L264.937 263.887C264.816 263.639 264.516 263.536 264.268 263.657C264.02 263.779 263.917 264.078 264.038 264.326L265.794 267.92L262.199 269.676C261.951 269.797 261.848 270.096 261.97 270.344C262.091 270.593 262.39 270.696 262.638 270.574L266.682 268.599ZM230.36 256.27L266.3 268.623L266.625 267.677L230.685 255.324L230.36 256.27Z" fill="#ACADAE"/>
<path d="M464.351 336.543C464.599 336.422 464.702 336.122 464.581 335.874L462.606 331.831C462.485 331.582 462.185 331.48 461.937 331.601C461.689 331.722 461.586 332.021 461.707 332.269L463.463 335.864L459.868 337.619C459.62 337.74 459.517 338.04 459.639 338.288C459.76 338.536 460.059 338.639 460.307 338.518L464.351 336.543ZM428.029 324.213L463.969 336.566L464.294 335.621L428.354 323.267L428.029 324.213Z" fill="#ACADAE"/>
<path d="M662.02 404.486C662.268 404.365 662.371 404.066 662.25 403.817L660.275 399.774C660.154 399.526 659.855 399.423 659.606 399.544C659.358 399.665 659.255 399.965 659.377 400.213L661.132 403.807L657.538 405.562C657.29 405.684 657.187 405.983 657.308 406.231C657.429 406.479 657.729 406.582 657.977 406.461L662.02 404.486ZM625.698 392.156L661.638 404.51L661.963 403.564L626.023 391.211L625.698 392.156Z" fill="#ACADAE"/>
<defs>
<filter id="filter0_f_2483_55783" x="-199" y="0" width="1184" height="753" filterUnits="userSpaceOnUse" color-interpolation-filters="sRGB">
<feFlood flood-opacity="0" result="BackgroundImageFix"/>
<feBlend mode="normal" in="SourceGraphic" in2="BackgroundImageFix" result="shape"/>
<feGaussianBlur stdDeviation="150" result="effect1_foregroundBlur_2483_55783"/>
</filter>
<filter id="filter1_d_2483_55783" x="200.048" y="177.777" width="294.557" height="284.336" filterUnits="userSpaceOnUse" color-interpolation-filters="sRGB">
<feFlood flood-opacity="0" result="BackgroundImageFix"/>
<feColorMatrix in="SourceAlpha" type="matrix" values="0 0 0 0 0 0 0 0 0 0 0 0 0 0 0 0 0 0 127 0" result="hardAlpha"/>
<feOffset dy="24"/>
<feGaussianBlur stdDeviation="22"/>
<feComposite in2="hardAlpha" operator="out"/>
<feColorMatrix type="matrix" values="0 0 0 0 0 0 0 0 0 0 0 0 0 0 0 0 0 0 0.5 0"/>
<feBlend mode="normal" in2="BackgroundImageFix" result="effect1_dropShadow_2483_55783"/>
<feBlend mode="normal" in="SourceGraphic" in2="effect1_dropShadow_2483_55783" result="shape"/>
</filter>
<filter id="filter2_d_2483_55783" x="335.128" y="427.814" width="294.557" height="284.336" filterUnits="userSpaceOnUse" color-interpolation-filters="sRGB">
<feFlood flood-opacity="0" result="BackgroundImageFix"/>
<feColorMatrix in="SourceAlpha" type="matrix" values="0 0 0 0 0 0 0 0 0 0 0 0 0 0 0 0 0 0 127 0" result="hardAlpha"/>
<feOffset dy="24"/>
<feGaussianBlur stdDeviation="22"/>
<feComposite in2="hardAlpha" operator="out"/>
<feColorMatrix type="matrix" values="0 0 0 0 0 0 0 0 0 0 0 0 0 0 0 0 0 0 0.5 0"/>
<feBlend mode="normal" in2="BackgroundImageFix" result="effect1_dropShadow_2483_55783"/>
<feBlend mode="normal" in="SourceGraphic" in2="effect1_dropShadow_2483_55783" result="shape"/>
</filter>
<filter id="filter3_d_2483_55783" x="603.622" y="338.822" width="277.674" height="235.219" filterUnits="userSpaceOnUse" color-interpolation-filters="sRGB">
<feFlood flood-opacity="0" result="BackgroundImageFix"/>
<feColorMatrix in="SourceAlpha" type="matrix" values="0 0 0 0 0 0 0 0 0 0 0 0 0 0 0 0 0 0 127 0" result="hardAlpha"/>
<feOffset dy="24"/>
<feGaussianBlur stdDeviation="22"/>
<feComposite in2="hardAlpha" operator="out"/>
<feColorMatrix type="matrix" values="0 0 0 0 0 0 0 0 0 0 0 0 0 0 0 0 0 0 0.5 0"/>
<feBlend mode="normal" in2="BackgroundImageFix" result="effect1_dropShadow_2483_55783"/>
<feBlend mode="normal" in="SourceGraphic" in2="effect1_dropShadow_2483_55783" result="shape"/>
</filter>
<filter id="filter4_d_2483_55783" x="174.745" y="419.172" width="221.182" height="166.146" filterUnits="userSpaceOnUse" color-interpolation-filters="sRGB">
<feFlood flood-opacity="0" result="BackgroundImageFix"/>
<feColorMatrix in="SourceAlpha" type="matrix" values="0 0 0 0 0 0 0 0 0 0 0 0 0 0 0 0 0 0 127 0" result="hardAlpha"/>
<feOffset dy="24"/>
<feGaussianBlur stdDeviation="22"/>
<feComposite in2="hardAlpha" operator="out"/>
<feColorMatrix type="matrix" values="0 0 0 0 0 0 0 0 0 0 0 0 0 0 0 0 0 0 0.5 0"/>
<feBlend mode="normal" in2="BackgroundImageFix" result="effect1_dropShadow_2483_55783"/>
<feBlend mode="normal" in="SourceGraphic" in2="effect1_dropShadow_2483_55783" result="shape"/>
</filter>
<filter id="filter5_d_2483_55783" x="87.7637" y="168.705" width="189.371" height="189.371" filterUnits="userSpaceOnUse" color-interpolation-filters="sRGB">
<feFlood flood-opacity="0" result="BackgroundImageFix"/>
<feColorMatrix in="SourceAlpha" type="matrix" values="0 0 0 0 0 0 0 0 0 0 0 0 0 0 0 0 0 0 127 0" result="hardAlpha"/>
<feOffset dy="24"/>
<feGaussianBlur stdDeviation="22"/>
<feComposite in2="hardAlpha" operator="out"/>
<feColorMatrix type="matrix" values="0 0 0 0 0 0 0 0 0 0 0 0 0 0 0 0 0 0 0.5 0"/>
<feBlend mode="normal" in2="BackgroundImageFix" result="effect1_dropShadow_2483_55783"/>
<feBlend mode="normal" in="SourceGraphic" in2="effect1_dropShadow_2483_55783" result="shape"/>
</filter>
<filter id="filter6_d_2483_55783" x="397.717" y="245.721" width="294.557" height="284.336" filterUnits="userSpaceOnUse" color-interpolation-filters="sRGB">
<feFlood flood-opacity="0" result="BackgroundImageFix"/>
<feColorMatrix in="SourceAlpha" type="matrix" values="0 0 0 0 0 0 0 0 0 0 0 0 0 0 0 0 0 0 127 0" result="hardAlpha"/>
<feOffset dy="24"/>
<feGaussianBlur stdDeviation="22"/>
<feComposite in2="hardAlpha" operator="out"/>
<feColorMatrix type="matrix" values="0 0 0 0 0 0 0 0 0 0 0 0 0 0 0 0 0 0 0.5 0"/>
<feBlend mode="normal" in2="BackgroundImageFix" result="effect1_dropShadow_2483_55783"/>
<feBlend mode="normal" in="SourceGraphic" in2="effect1_dropShadow_2483_55783" result="shape"/>
</filter>
<linearGradient id="paint0_linear_2483_55783" x1="393" y1="300" x2="393" y2="453" gradientUnits="userSpaceOnUse">
<stop stop-color="#0D0D11"/>
<stop offset="1" stop-color="#0D0D11" stop-opacity="0.5"/>
</linearGradient>
<linearGradient id="paint1_linear_2483_55783" x1="426.544" y1="328.532" x2="265.477" y2="273.17" gradientUnits="userSpaceOnUse">
<stop stop-color="#0C0D0E"/>
<stop offset="1" stop-color="#1B1B1F"/>
</linearGradient>
<linearGradient id="paint2_linear_2483_55783" x1="561.624" y1="578.569" x2="400.557" y2="523.207" gradientUnits="userSpaceOnUse">
<stop stop-color="#0C0D0E"/>
<stop offset="1" stop-color="#1B1B1F"/>
</linearGradient>
<linearGradient id="paint3_linear_2483_55783" x1="822.23" y1="463.408" x2="661.164" y2="408.045" gradientUnits="userSpaceOnUse">
<stop stop-color="#0C0D0E"/>
<stop offset="1" stop-color="#1B1B1F"/>
</linearGradient>
<linearGradient id="paint4_linear_2483_55783" x1="347.172" y1="500.993" x2="223.091" y2="458.344" gradientUnits="userSpaceOnUse">
<stop stop-color="#0C0D0E"/>
<stop offset="1" stop-color="#1B1B1F"/>
</linearGradient>
<linearGradient id="paint5_linear_2483_55783" x1="134.311" y1="239.391" x2="233.121" y2="239.391" gradientUnits="userSpaceOnUse">
<stop stop-color="#0C0D0E"/>
<stop offset="1" stop-color="#1B1B1F"/>
</linearGradient>
<linearGradient id="paint6_linear_2483_55783" x1="624.213" y1="396.475" x2="463.147" y2="341.113" gradientUnits="userSpaceOnUse">
<stop stop-color="#0C0D0E"/>
<stop offset="1" stop-color="#1B1B1F"/>
</linearGradient>
</defs>
</svg>
