<svg width="768" height="356" viewBox="0 0 768 356" fill="none" xmlns="http://www.w3.org/2000/svg">
<g filter="url(#filter0_d_2654_27567)">
<path d="M254.874 49.7957L397.69 98.8845C402.652 100.59 405.292 105.995 403.586 110.957L359.85 238.198C358.145 243.16 352.74 245.8 347.778 244.094L204.963 195.006C200.001 193.3 197.361 187.895 199.067 182.933L242.802 55.6917C244.508 50.73 249.913 48.0902 254.874 49.7957Z" fill="url(#paint0_linear_2654_27567)" stroke="#86888E"/>
<path d="M260.302 136.719L260.634 135.752L262.739 136.476L265.26 129.141L263.155 128.417L263.487 127.451L268.81 129.28L268.477 130.247L266.372 129.523L263.851 136.858L265.956 137.582L265.624 138.548L260.302 136.719ZM268.359 139.488L270.617 132.922L271.543 133.24L271.321 134.274L271.388 134.297C271.673 134.04 272.044 133.866 272.499 133.776C272.958 133.677 273.434 133.712 273.928 133.882C274.731 134.158 275.25 134.603 275.483 135.216C275.725 135.832 275.692 136.59 275.382 137.491L274.026 141.436L272.914 141.054L274.225 137.241C274.425 136.658 274.453 136.16 274.309 135.745C274.169 135.322 273.829 135.018 273.291 134.833C272.77 134.654 272.266 134.683 271.78 134.92C271.297 135.149 270.94 135.599 270.709 136.269L269.472 139.871L268.359 139.488ZM281.948 135.514C281.683 135.423 281.493 135.258 281.377 135.021C281.261 134.784 281.246 134.542 281.331 134.295C281.419 134.039 281.58 133.857 281.814 133.75C282.051 133.634 282.302 133.622 282.567 133.713C282.823 133.801 283.009 133.964 283.125 134.201C283.252 134.432 283.272 134.676 283.184 134.932C283.099 135.179 282.934 135.359 282.688 135.472C282.451 135.588 282.204 135.602 281.948 135.514ZM276.722 142.363L277.049 141.409L279.141 142.129L280.629 137.799C280.705 137.578 280.633 137.43 280.412 137.354L278.876 136.826L279.204 135.873L281.005 136.492C281.79 136.762 282.048 137.29 281.778 138.075L280.253 142.511L282.345 143.23L282.018 144.183L276.722 142.363ZM288.262 146.329C287.661 146.123 287.239 145.815 286.995 145.405C286.751 144.996 286.76 144.411 287.02 143.652L288.258 140.051L286.59 139.478L286.918 138.525L287.911 138.866C288.361 139.021 288.697 138.889 288.919 138.472L289.455 137.517L290.276 137.799L289.698 139.48L292.319 140.381L291.992 141.335L289.37 140.433L288.133 144.035C288.005 144.405 287.999 144.695 288.116 144.902C288.241 145.113 288.515 145.291 288.939 145.437L290.408 145.942L290.062 146.948L288.262 146.329ZM298.355 141.153C298.09 141.062 297.9 140.898 297.784 140.661C297.668 140.423 297.653 140.181 297.738 139.934C297.826 139.678 297.987 139.497 298.221 139.39C298.458 139.274 298.709 139.261 298.974 139.352C299.23 139.44 299.416 139.603 299.532 139.84C299.659 140.072 299.679 140.315 299.591 140.571C299.506 140.818 299.341 140.998 299.095 141.111C298.857 141.227 298.611 141.241 298.355 141.153ZM293.129 148.002L293.456 147.049L295.548 147.768L297.036 143.439C297.112 143.218 297.04 143.07 296.819 142.994L295.283 142.466L295.611 141.513L297.412 142.132C298.197 142.402 298.455 142.929 298.185 143.715L296.66 148.15L298.752 148.869L298.425 149.822L293.129 148.002ZM303.369 151.7C302.849 151.521 302.448 151.279 302.168 150.976C301.887 150.672 301.714 150.341 301.65 149.984C301.588 149.617 301.62 149.253 301.744 148.891C301.975 148.22 302.392 147.796 302.996 147.619C303.611 147.436 304.33 147.485 305.151 147.767L306.951 148.386L306.997 148.254C307.391 147.106 307.063 146.352 306.013 145.991C305.589 145.845 305.2 145.815 304.845 145.9C304.499 145.989 304.217 146.218 304.002 146.588L302.863 146.196C303.059 145.77 303.335 145.441 303.691 145.208C304.056 144.978 304.466 144.848 304.921 144.816C305.376 144.785 305.851 144.855 306.345 145.024C307.281 145.346 307.875 145.827 308.129 146.467C308.395 147.101 308.388 147.824 308.109 148.636L306.721 152.674L305.768 152.346L306.025 151.295L305.933 151.263C305.629 151.514 305.273 151.703 304.865 151.829C304.468 151.949 303.97 151.906 303.369 151.7ZM303.905 150.788C304.328 150.934 304.721 150.955 305.082 150.852C305.452 150.753 305.769 150.561 306.035 150.277C306.309 149.996 306.514 149.657 306.651 149.26L304.943 148.673C304.343 148.467 303.884 148.422 303.567 148.54C303.259 148.662 303.047 148.89 302.932 149.225C302.814 149.569 302.836 149.878 302.999 150.151C303.161 150.424 303.463 150.637 303.905 150.788ZM309.205 153.528L309.532 152.575L311.77 153.344L314.277 146.049C314.353 145.828 314.281 145.68 314.06 145.604L312.392 145.03L312.72 144.077L314.653 144.742C315.032 144.872 315.288 145.074 315.422 145.346C315.555 145.619 315.556 145.945 315.426 146.325L312.882 153.726L315.119 154.495L314.792 155.448L309.205 153.528ZM322.965 149.612C322.7 149.521 322.51 149.357 322.394 149.12C322.278 148.883 322.263 148.64 322.348 148.393C322.436 148.137 322.597 147.956 322.831 147.849C323.068 147.733 323.319 147.721 323.584 147.812C323.84 147.9 324.026 148.062 324.142 148.299C324.27 148.531 324.289 148.774 324.202 149.03C324.117 149.278 323.951 149.458 323.705 149.57C323.468 149.686 323.221 149.7 322.965 149.612ZM317.739 156.461L318.067 155.508L320.159 156.227L321.647 151.898C321.723 151.677 321.65 151.529 321.43 151.453L319.894 150.925L320.221 149.972L322.022 150.591C322.808 150.861 323.065 151.388 322.795 152.174L321.271 156.609L323.363 157.328L323.035 158.282L317.739 156.461ZM325.969 159.29L326.319 158.271L331.737 155.085L327.937 153.779L328.292 152.746L333.403 154.503L333.053 155.522L327.622 158.703L331.567 160.06L331.212 161.092L325.969 159.29ZM336.806 163.192C336.188 162.98 335.689 162.651 335.309 162.205C334.942 161.752 334.709 161.223 334.611 160.617C334.517 160.003 334.588 159.351 334.824 158.663C335.061 157.974 335.4 157.419 335.841 156.998C336.293 156.572 336.806 156.299 337.38 156.18C337.957 156.053 338.563 156.098 339.198 156.317C339.834 156.535 340.327 156.868 340.677 157.314C341.03 157.751 341.245 158.244 341.323 158.794C341.4 159.344 341.346 159.888 341.161 160.426C341.128 160.523 341.09 160.619 341.048 160.713C341.015 160.81 340.977 160.92 340.934 161.044L335.837 159.292C335.697 159.786 335.667 160.23 335.749 160.624C335.843 161.011 336.013 161.336 336.258 161.598C336.512 161.863 336.812 162.055 337.156 162.173C337.641 162.34 338.056 162.369 338.399 162.26C338.743 162.151 339.047 161.94 339.313 161.626L340.412 162.004C340.052 162.562 339.561 162.97 338.939 163.23C338.32 163.481 337.609 163.469 336.806 163.192ZM338.831 157.301C338.319 157.125 337.815 157.125 337.321 157.3C336.835 157.478 336.453 157.831 336.173 158.356L340.172 159.731C340.324 159.171 340.273 158.675 340.017 158.242C339.773 157.803 339.378 157.489 338.831 157.301Z" fill="#86888E"/>
</g>
<g filter="url(#filter1_d_2654_27567)">
<path d="M389.955 299.833L532.77 348.922C537.732 350.627 540.372 356.032 538.666 360.994L494.931 488.235C493.225 493.197 487.82 495.837 482.858 494.131L340.043 445.043C335.081 443.337 332.441 437.932 334.147 432.971L377.882 305.729C379.588 300.767 384.993 298.127 389.955 299.833Z" fill="url(#paint1_linear_2654_27567)" stroke="#86888E"/>
</g>
<g filter="url(#filter2_d_2654_27567)">
<path d="M641.566 210.841L784.382 259.929C789.343 261.635 791.983 267.04 790.278 272.002L763.425 350.125C761.719 355.087 756.314 357.727 751.353 356.021L608.537 306.933C603.575 305.227 600.935 299.822 602.641 294.86L629.494 216.737C631.199 211.775 636.604 209.135 641.566 210.841Z" fill="url(#paint2_linear_2654_27567)" stroke="#86888E"/>
<path d="M657.73 274.278C657.076 274.054 656.559 273.664 656.178 273.108C655.799 272.544 655.587 271.854 655.542 271.039C655.505 270.227 655.658 269.322 656.001 268.325C656.341 267.336 656.779 266.535 657.316 265.92C657.853 265.305 658.453 264.894 659.116 264.688C659.788 264.485 660.49 264.509 661.223 264.761C662.097 265.061 662.719 265.561 663.091 266.261C663.471 266.964 663.565 267.767 663.374 268.668L662.142 268.245C662.236 267.685 662.176 267.186 661.962 266.747C661.759 266.302 661.393 265.989 660.863 265.807C660.104 265.546 659.395 265.672 658.735 266.185C658.075 266.699 657.543 267.542 657.139 268.716C656.73 269.908 656.629 270.905 656.837 271.706C657.045 272.508 657.493 273.027 658.182 273.264C658.676 273.434 659.132 273.428 659.55 273.246C659.971 273.055 660.34 272.757 660.656 272.353C660.985 271.943 661.243 271.494 661.43 271.005L659.365 270.295L659.693 269.342L662.897 270.443L661.227 275.302L660.207 274.952L660.597 273.517L660.544 273.499C660.195 273.911 659.791 274.197 659.332 274.355C658.881 274.516 658.347 274.49 657.73 274.278ZM666.026 277.13C665.408 276.917 664.909 276.588 664.53 276.142C664.15 275.695 663.912 275.169 663.814 274.563C663.719 273.948 663.792 273.292 664.031 272.595C664.271 271.898 664.616 271.34 665.065 270.922C665.518 270.496 666.031 270.223 666.605 270.104C667.179 269.986 667.774 270.033 668.392 270.245C669.01 270.457 669.509 270.787 669.888 271.233C670.268 271.679 670.505 272.21 670.6 272.825C670.697 273.431 670.626 274.082 670.386 274.78C670.147 275.477 669.801 276.039 669.348 276.466C668.898 276.883 668.387 277.152 667.813 277.27C667.239 277.389 666.644 277.342 666.026 277.13ZM666.39 276.07C666.769 276.201 667.142 276.235 667.509 276.174C667.876 276.112 668.208 275.935 668.506 275.643C668.812 275.354 669.06 274.935 669.248 274.388C669.436 273.841 669.498 273.359 669.434 272.942C669.379 272.528 669.226 272.185 668.974 271.911C668.723 271.637 668.408 271.435 668.028 271.304C667.657 271.177 667.289 271.144 666.922 271.205C666.556 271.267 666.219 271.442 665.912 271.732C665.606 272.021 665.358 272.439 665.17 272.987C664.888 273.807 664.879 274.48 665.142 275.005C665.409 275.521 665.825 275.876 666.39 276.07ZM674.972 280.027C674.372 279.821 673.95 279.513 673.706 279.103C673.462 278.694 673.47 278.109 673.731 277.35L674.969 273.749L673.301 273.176L673.628 272.222L674.621 272.564C675.071 272.718 675.408 272.587 675.63 272.17L676.166 271.214L676.987 271.497L676.409 273.178L679.03 274.079L678.702 275.032L676.081 274.131L674.843 277.733C674.716 278.103 674.71 278.392 674.826 278.6C674.951 278.811 675.225 278.989 675.649 279.135L677.119 279.64L676.773 280.646L674.972 280.027ZM690.636 285.589C690.018 285.376 689.52 285.047 689.14 284.601C688.76 284.155 688.522 283.628 688.424 283.022C688.33 282.408 688.402 281.752 688.642 281.054C688.881 280.357 689.226 279.799 689.676 279.381C690.128 278.955 690.641 278.682 691.215 278.563C691.789 278.445 692.385 278.492 693.003 278.704C693.62 278.916 694.119 279.246 694.499 279.692C694.878 280.138 695.115 280.669 695.21 281.284C695.308 281.89 695.237 282.541 694.997 283.239C694.757 283.936 694.411 284.498 693.958 284.925C693.509 285.343 692.997 285.611 692.423 285.729C691.85 285.848 691.254 285.801 690.636 285.589ZM691 284.53C691.38 284.66 691.753 284.695 692.119 284.633C692.486 284.571 692.818 284.395 693.116 284.102C693.423 283.813 693.67 283.395 693.858 282.847C694.046 282.3 694.108 281.818 694.044 281.401C693.989 280.988 693.836 280.644 693.585 280.37C693.333 280.096 693.018 279.894 692.638 279.763C692.268 279.636 691.899 279.603 691.533 279.664C691.166 279.726 690.829 279.901 690.523 280.191C690.216 280.48 689.969 280.898 689.78 281.446C689.498 282.266 689.489 282.939 689.753 283.464C690.019 283.98 690.435 284.335 691 284.53ZM696.087 287.285L698.345 280.718L699.271 281.036L699.049 282.07L699.115 282.093C699.401 281.836 699.772 281.662 700.227 281.572C700.686 281.473 701.162 281.509 701.656 281.679C702.459 281.955 702.978 282.399 703.211 283.012C703.453 283.629 703.42 284.387 703.11 285.287L701.754 289.233L700.642 288.85L701.952 285.037C702.153 284.455 702.181 283.956 702.037 283.542C701.897 283.118 701.557 282.814 701.019 282.629C700.498 282.45 699.994 282.479 699.508 282.717C699.025 282.945 698.668 283.395 698.437 284.066L697.2 287.667L696.087 287.285ZM707.109 291.251C706.491 291.039 705.993 290.709 705.613 290.263C705.245 289.811 705.013 289.282 704.915 288.676C704.821 288.061 704.892 287.409 705.128 286.721C705.365 286.033 705.704 285.478 706.144 285.057C706.597 284.63 707.11 284.358 707.684 284.239C708.261 284.111 708.867 284.157 709.502 284.375C710.138 284.594 710.63 284.926 710.98 285.372C711.334 285.809 711.549 286.303 711.626 286.852C711.704 287.402 711.65 287.946 711.465 288.485C711.432 288.582 711.394 288.677 711.352 288.771C711.318 288.868 711.28 288.979 711.238 289.102L706.141 287.35C706 287.845 705.971 288.289 706.053 288.682C706.147 289.07 706.316 289.394 706.562 289.656C706.816 289.921 707.115 290.113 707.46 290.231C707.945 290.398 708.36 290.427 708.703 290.318C709.046 290.209 709.351 289.998 709.616 289.685L710.715 290.063C710.356 290.62 709.865 291.029 709.243 291.289C708.624 291.54 707.912 291.527 707.109 291.251ZM709.134 285.359C708.622 285.183 708.119 285.183 707.625 285.358C707.139 285.537 706.756 285.889 706.477 286.415L710.475 287.789C710.628 287.23 710.577 286.733 710.321 286.3C710.077 285.861 709.682 285.547 709.134 285.359ZM715.202 290.731L715.809 288.749L716.22 288.89C716.961 289.145 717.595 289.195 718.122 289.041C718.649 288.886 719.032 288.46 719.272 287.763C719.457 287.225 719.438 286.749 719.214 286.337C719.003 285.919 718.619 285.614 718.063 285.423C717.525 285.238 717.041 285.239 716.611 285.427C716.184 285.606 715.867 285.941 715.658 286.432L714.599 286.068C714.796 285.553 715.082 285.138 715.456 284.823C715.84 284.511 716.282 284.317 716.781 284.242C717.293 284.161 717.835 284.22 718.409 284.417C719.283 284.717 719.897 285.2 720.25 285.864C720.613 286.532 720.65 287.285 720.362 288.123C720.144 288.759 719.831 289.223 719.424 289.518C719.026 289.815 718.577 289.987 718.078 290.032C717.578 290.078 717.084 290.036 716.596 289.908L716.155 291.059L715.202 290.731ZM714.683 293.706C714.409 293.612 714.207 293.439 714.077 293.187C713.946 292.935 713.928 292.672 714.022 292.398C714.113 292.134 714.288 291.942 714.546 291.823C714.803 291.705 715.069 291.692 715.343 291.786C715.625 291.883 715.827 292.057 715.949 292.306C716.079 292.558 716.099 292.816 716.008 293.081C715.914 293.355 715.738 293.551 715.48 293.669C715.231 293.791 714.965 293.803 714.683 293.706Z" fill="#86888E"/>
</g>
<g filter="url(#filter3_d_2654_27567)">
<path d="M193.334 291.19L299.012 327.514C303.974 329.219 306.614 334.624 304.908 339.586L297.409 361.404C295.703 366.366 290.299 369.006 285.337 367.3L179.659 330.976C174.697 329.271 172.058 323.866 173.763 318.904L181.262 297.086C182.968 292.125 188.373 289.485 193.334 291.19Z" fill="url(#paint3_linear_2654_27567)" stroke="#86888E"/>
<path d="M221.367 326.382L224.206 318.12L221.717 317.265L222.063 316.258L228.153 318.352L227.808 319.358L225.319 318.502L222.479 326.764L221.367 326.382ZM227.266 328.41L227.594 327.456L229.276 328.034L230.764 323.705C230.84 323.484 230.772 323.338 230.56 323.265L229.368 322.855L229.696 321.902L231.298 322.453C231.589 322.553 231.796 322.713 231.918 322.932C232.04 323.152 232.047 323.416 231.941 323.725L231.846 324.003L231.899 324.021C232.156 323.616 232.472 323.345 232.845 323.206C233.227 323.071 233.683 323.095 234.212 323.277L235.417 323.691L235.012 324.869L233.648 324.4C233.11 324.215 232.633 324.254 232.217 324.515C231.805 324.768 231.503 325.173 231.312 325.729L230.388 328.417L232.453 329.127L232.125 330.08L227.266 328.41ZM237.812 332.212C237.017 331.939 236.499 331.494 236.257 330.878C236.015 330.262 236.048 329.504 236.358 328.603L237.714 324.658L238.826 325.04L237.515 328.853C237.315 329.436 237.285 329.939 237.426 330.362C237.579 330.78 237.92 331.08 238.449 331.262C238.979 331.444 239.485 331.42 239.969 331.192C240.455 330.954 240.813 330.5 241.044 329.829L242.282 326.228L243.394 326.61L241.137 333.177L240.21 332.859L240.432 331.825L240.366 331.802C240.08 332.059 239.708 332.237 239.249 332.336C238.794 332.426 238.315 332.385 237.812 332.212ZM246.545 335.214C245.927 335.001 245.428 334.672 245.049 334.226C244.681 333.774 244.448 333.245 244.351 332.639C244.256 332.024 244.327 331.372 244.564 330.684C244.8 329.995 245.139 329.441 245.58 329.02C246.032 328.593 246.546 328.32 247.119 328.202C247.696 328.074 248.302 328.12 248.938 328.338C249.573 328.557 250.066 328.889 250.416 329.335C250.769 329.772 250.984 330.265 251.062 330.815C251.139 331.365 251.086 331.909 250.901 332.447C250.867 332.544 250.829 332.64 250.787 332.734C250.754 332.831 250.716 332.941 250.673 333.065L245.576 331.313C245.436 331.808 245.407 332.252 245.488 332.645C245.582 333.032 245.752 333.357 245.997 333.619C246.252 333.884 246.551 334.076 246.895 334.194C247.381 334.361 247.795 334.39 248.138 334.281C248.482 334.172 248.786 333.961 249.052 333.648L250.151 334.025C249.792 334.583 249.301 334.991 248.678 335.251C248.059 335.502 247.348 335.49 246.545 335.214ZM248.57 329.322C248.058 329.146 247.555 329.146 247.06 329.321C246.574 329.5 246.192 329.852 245.912 330.378L249.911 331.752C250.064 331.192 250.012 330.696 249.756 330.263C249.513 329.824 249.117 329.51 248.57 329.322Z" fill="#86888E"/>
</g>
<g filter="url(#filter4_d_2654_27567)">
<circle cx="136.45" cy="90.391" r="50.1716" transform="rotate(18.969 136.45 90.391)" fill="url(#paint4_linear_2654_27567)" stroke="#86888E"/>
<path d="M118.11 89.9043C117.457 89.6798 116.93 89.3605 116.53 88.9465C116.138 88.5356 115.886 88.0639 115.773 87.5316C115.668 87.0023 115.713 86.4404 115.908 85.846L117.073 86.2465C116.9 86.7791 116.919 87.2988 117.129 87.8054C117.352 88.3063 117.794 88.6705 118.456 88.8981C119.065 89.1074 119.583 89.1226 120.01 88.9436C120.448 88.7587 120.739 88.4589 120.881 88.0441C121 87.6998 121.019 87.3857 120.939 87.1016C120.862 86.8086 120.673 86.5117 120.372 86.2108C120.082 85.9041 119.671 85.5505 119.137 85.15C118.378 84.6028 117.88 84.0418 117.643 83.467C117.407 82.8922 117.401 82.2782 117.625 81.625C117.777 81.1837 118.028 80.8259 118.379 80.5518C118.73 80.2776 119.156 80.1133 119.659 80.059C120.161 80.0046 120.721 80.0836 121.339 80.296C121.921 80.4962 122.391 80.781 122.748 81.1503C123.116 81.5138 123.353 81.9308 123.458 82.401C123.571 82.8743 123.542 83.3626 123.369 83.8657L122.204 83.4652C122.289 83.2181 122.306 82.9526 122.255 82.6688C122.205 82.3849 122.075 82.1181 121.864 81.8682C121.654 81.6183 121.346 81.4236 120.94 81.284C120.455 81.1171 120.008 81.0967 119.599 81.2228C119.194 81.34 118.921 81.6017 118.782 82.0077C118.675 82.3166 118.657 82.6013 118.725 82.8616C118.802 83.1251 118.978 83.4027 119.253 83.6945C119.531 83.9775 119.923 84.3147 120.43 84.706C120.908 85.0676 121.295 85.4328 121.593 85.8016C121.903 86.1646 122.1 86.5531 122.184 86.9671C122.278 87.3841 122.237 87.8486 122.061 88.3605C121.888 88.8637 121.607 89.2654 121.217 89.5658C120.828 89.8662 120.364 90.0522 119.826 90.124C119.291 90.1869 118.719 90.1136 118.11 89.9043ZM126.964 92.7699C126.364 92.5636 125.942 92.2557 125.698 91.8461C125.454 91.4365 125.462 90.8521 125.723 90.0931L126.961 86.4919L125.292 85.9185L125.62 84.9652L126.613 85.3065C127.063 85.4612 127.399 85.3301 127.622 84.913L128.158 83.9573L128.978 84.2394L128.4 85.9209L131.022 86.8219L130.694 87.7752L128.073 86.8741L126.835 90.4753C126.708 90.846 126.702 91.1352 126.818 91.3429C126.943 91.5537 127.217 91.7318 127.641 91.8775L129.111 92.3826L128.765 93.3888L126.964 92.7699ZM133.868 95.3207C133.348 95.1417 132.947 94.9004 132.667 94.5967C132.386 94.293 132.213 93.9623 132.149 93.6046C132.087 93.238 132.119 92.8738 132.243 92.5119C132.474 91.8411 132.891 91.417 133.495 91.2396C134.11 91.0565 134.829 91.106 135.65 91.3881L137.45 92.007L137.496 91.8746C137.89 90.7272 137.562 89.9729 136.512 89.6119C136.088 89.4663 135.699 89.4361 135.344 89.5213C134.998 89.6096 134.716 89.8387 134.501 90.2086L133.362 89.8172C133.558 89.391 133.834 89.0616 134.19 88.8288C134.555 88.599 134.965 88.4685 135.42 88.4373C135.875 88.4062 136.35 88.4755 136.844 88.6454C137.78 88.967 138.374 89.4477 138.628 90.0877C138.894 90.7218 138.887 91.4448 138.608 92.2569L137.22 96.295L136.267 95.9673L136.524 94.916L136.432 94.8842C136.128 95.1352 135.772 95.3237 135.364 95.4498C134.967 95.57 134.469 95.527 133.868 95.3207ZM134.404 94.4093C134.827 94.5549 135.22 94.5762 135.581 94.4734C135.951 94.3735 136.268 94.1816 136.534 93.8978C136.808 93.617 137.013 93.278 137.15 92.8808L135.442 92.2938C134.842 92.0875 134.383 92.0434 134.066 92.1614C133.758 92.2825 133.546 92.5108 133.431 92.8462C133.313 93.1904 133.335 93.4991 133.498 93.7721C133.66 94.0452 133.962 94.2576 134.404 94.4093ZM139.823 97.1897L140.15 96.2365L141.832 96.8144L143.32 92.485C143.396 92.2644 143.328 92.1176 143.116 92.0448L141.924 91.6352L142.252 90.682L143.854 91.2326C144.145 91.3327 144.352 91.4926 144.474 91.7121C144.596 91.9317 144.604 92.1959 144.498 92.5049L144.402 92.7829L144.455 92.8011C144.713 92.3962 145.028 92.1246 145.401 91.9864C145.783 91.8513 146.239 91.8747 146.769 92.0567L147.973 92.4708L147.568 93.6492L146.205 93.1804C145.666 92.9954 145.189 93.0337 144.774 93.2955C144.361 93.5484 144.059 93.9529 143.868 94.509L142.944 97.1967L145.009 97.9066L144.682 98.8599L139.823 97.1897ZM151.575 101.229C150.974 101.023 150.552 100.715 150.308 100.305C150.064 99.8956 150.072 99.3113 150.333 98.5522L151.571 94.951L149.903 94.3776L150.231 93.4243L151.223 93.7656C151.674 93.9204 152.01 93.7892 152.232 93.3721L152.768 92.4164L153.589 92.6985L153.011 94.38L155.632 95.281L155.305 96.2343L152.683 95.3332L151.445 98.9345C151.318 99.3052 151.312 99.5944 151.428 99.8021C151.553 100.013 151.828 100.191 152.251 100.337L153.721 100.842L153.375 101.848L151.575 101.229Z" fill="#86888E"/>
</g>
<g filter="url(#filter5_d_2654_27567)">
<path d="M452.544 117.739L595.36 166.828C600.322 168.533 602.962 173.938 601.256 178.9L557.52 306.142C555.815 311.103 550.41 313.743 545.448 312.038L402.633 262.949C397.671 261.243 395.031 255.839 396.737 250.877L440.472 123.635C442.178 118.673 447.583 116.034 452.544 117.739Z" fill="url(#paint5_linear_2654_27567)" stroke="#86888E"/>
</g>
<path d="M470.623 195.828L473.808 186.561L476.893 187.621C477.599 187.864 478.133 188.19 478.495 188.601C478.858 189.012 479.072 189.465 479.138 189.962C479.204 190.458 479.149 190.962 478.973 191.474C478.797 191.986 478.531 192.418 478.173 192.769C477.816 193.119 477.368 193.345 476.83 193.447C476.292 193.548 475.67 193.477 474.964 193.235L472.991 192.556L471.735 196.211L470.623 195.828ZM473.341 191.537L475.287 192.206C475.941 192.43 476.482 192.434 476.912 192.217C477.345 191.99 477.653 191.613 477.835 191.083C478.017 190.553 478.007 190.066 477.804 189.622C477.602 189.177 477.174 188.842 476.521 188.618L474.574 187.949L473.341 191.537ZM481.764 199.835C481.146 199.623 480.647 199.294 480.268 198.847C479.888 198.401 479.649 197.875 479.552 197.269C479.457 196.654 479.53 195.998 479.769 195.301C480.009 194.604 480.354 194.046 480.803 193.628C481.256 193.201 481.769 192.929 482.343 192.81C482.916 192.692 483.512 192.738 484.13 192.951C484.748 193.163 485.247 193.492 485.626 193.939C486.006 194.385 486.243 194.916 486.337 195.53C486.435 196.136 486.364 196.788 486.124 197.485C485.885 198.183 485.539 198.745 485.086 199.171C484.636 199.589 484.125 199.857 483.551 199.976C482.977 200.095 482.382 200.048 481.764 199.835ZM482.128 198.776C482.507 198.907 482.88 198.941 483.247 198.88C483.613 198.818 483.946 198.641 484.244 198.349C484.55 198.059 484.798 197.641 484.986 197.094C485.174 196.547 485.236 196.065 485.172 195.648C485.117 195.234 484.964 194.89 484.712 194.616C484.461 194.343 484.146 194.14 483.766 194.01C483.395 193.883 483.027 193.85 482.66 193.911C482.294 193.973 481.957 194.148 481.65 194.437C481.343 194.727 481.096 195.145 480.908 195.692C480.626 196.513 480.617 197.186 480.88 197.711C481.147 198.227 481.563 198.582 482.128 198.776ZM486.081 204.399L489.34 194.919L490.24 195.229L489.999 196.36L490.079 196.387C490.368 196.092 490.739 195.888 491.191 195.778C491.644 195.667 492.122 195.698 492.625 195.871C493.154 196.053 493.586 196.349 493.918 196.759C494.26 197.173 494.464 197.682 494.533 198.288C494.604 198.885 494.512 199.554 494.257 200.295C494.005 201.028 493.663 201.606 493.231 202.03C492.808 202.457 492.331 202.727 491.798 202.84C491.275 202.957 490.731 202.918 490.166 202.723C489.663 202.55 489.271 202.297 488.991 201.964C488.722 201.625 488.563 201.284 488.513 200.941L487.193 204.781L486.081 204.399ZM490.397 201.619C490.953 201.81 491.479 201.773 491.975 201.509C492.473 201.237 492.86 200.699 493.136 199.895C493.412 199.092 493.436 198.434 493.208 197.921C492.982 197.4 492.592 197.044 492.036 196.852C491.48 196.661 490.952 196.702 490.454 196.975C489.959 197.239 489.573 197.772 489.297 198.576C489.021 199.379 488.995 200.041 489.221 200.563C489.449 201.076 489.841 201.428 490.397 201.619ZM503.9 207.266L505.669 197.512L506.794 197.899L505.277 205.371L509.045 198.672L510.184 199.064L509.037 206.664L512.434 199.837L513.56 200.224L508.957 209.005L507.686 208.568L508.877 201.013L505.171 207.703L503.9 207.266ZM514.577 211.114C513.96 210.902 513.461 210.573 513.081 210.126C512.702 209.68 512.463 209.154 512.366 208.548C512.271 207.933 512.343 207.277 512.583 206.58C512.823 205.882 513.167 205.325 513.617 204.907C514.07 204.48 514.583 204.208 515.157 204.089C515.73 203.97 516.326 204.017 516.944 204.23C517.562 204.442 518.06 204.771 518.44 205.218C518.82 205.664 519.057 206.194 519.151 206.809C519.249 207.415 519.178 208.067 518.938 208.764C518.699 209.461 518.352 210.023 517.9 210.45C517.45 210.868 516.939 211.136 516.365 211.255C515.791 211.373 515.195 211.327 514.577 211.114ZM514.942 210.055C515.321 210.186 515.694 210.22 516.061 210.158C516.427 210.097 516.76 209.92 517.057 209.628C517.364 209.338 517.612 208.92 517.8 208.373C517.988 207.825 518.05 207.343 517.986 206.927C517.931 206.513 517.777 206.169 517.526 205.895C517.275 205.621 516.959 205.419 516.58 205.289C516.209 205.161 515.84 205.128 515.474 205.19C515.107 205.251 514.771 205.427 514.464 205.716C514.157 206.006 513.91 206.424 513.722 206.971C513.44 207.792 513.43 208.465 513.694 208.99C513.961 209.506 514.377 209.861 514.942 210.055ZM519.976 212.792L520.303 211.839L521.985 212.417L523.473 208.087C523.549 207.867 523.481 207.72 523.269 207.647L522.077 207.238L522.405 206.284L524.007 206.835C524.298 206.935 524.505 207.095 524.627 207.315C524.749 207.534 524.757 207.798 524.65 208.107L524.555 208.385L524.608 208.403C524.865 207.999 525.181 207.727 525.554 207.589C525.936 207.454 526.392 207.477 526.921 207.659L528.126 208.073L527.721 209.252L526.358 208.783C525.819 208.598 525.342 208.636 524.926 208.898C524.514 209.151 524.212 209.555 524.021 210.111L523.097 212.799L525.162 213.509L524.835 214.462L519.976 212.792ZM528.537 215.735L531.813 206.202L532.925 206.584L530.95 212.33L534.647 210.492L536.063 210.979L532.132 212.899L532.104 212.979L534.164 217.669L532.787 217.195L530.823 212.701L529.649 216.117L528.537 215.735ZM481.642 218.65L481.974 217.683L484.079 218.407L486.6 211.072L484.495 210.348L484.827 209.382L490.15 211.211L489.818 212.178L487.713 211.454L485.191 218.789L487.297 219.512L486.964 220.479L481.642 218.65ZM493.195 222.621C492.595 222.414 492.173 222.106 491.929 221.697C491.684 221.287 491.693 220.703 491.954 219.944L493.192 216.343L491.523 215.769L491.851 214.816L492.844 215.157C493.294 215.312 493.63 215.181 493.853 214.764L494.388 213.808L495.209 214.09L494.631 215.772L497.253 216.673L496.925 217.626L494.304 216.725L493.066 220.326C492.938 220.697 492.933 220.986 493.049 221.194C493.174 221.404 493.448 221.583 493.872 221.728L495.342 222.233L494.996 223.24L493.195 222.621ZM500.722 225.385C500.104 225.173 499.605 224.844 499.226 224.397C498.858 223.945 498.625 223.416 498.528 222.81C498.433 222.195 498.504 221.544 498.741 220.855C498.977 220.167 499.316 219.612 499.757 219.191C500.209 218.765 500.722 218.492 501.296 218.373C501.873 218.246 502.479 218.291 503.115 218.51C503.75 218.728 504.243 219.06 504.593 219.506C504.946 219.944 505.161 220.437 505.239 220.987C505.316 221.536 505.262 222.081 505.077 222.619C505.044 222.716 505.006 222.812 504.964 222.906C504.931 223.003 504.893 223.113 504.85 223.237L499.753 221.485C499.613 221.979 499.583 222.423 499.665 222.816C499.759 223.204 499.929 223.529 500.174 223.791C500.429 224.056 500.728 224.248 501.072 224.366C501.557 224.533 501.972 224.562 502.315 224.453C502.659 224.344 502.963 224.133 503.229 223.819L504.328 224.197C503.968 224.754 503.478 225.163 502.855 225.423C502.236 225.674 501.525 225.661 500.722 225.385ZM502.747 219.494C502.235 219.318 501.732 219.317 501.237 219.493C500.751 219.671 500.369 220.023 500.089 220.549L504.088 221.923C504.241 221.364 504.189 220.868 503.933 220.434C503.69 219.995 503.294 219.682 502.747 219.494ZM505.431 226.827L507.689 220.26L508.602 220.574L508.457 221.382L508.524 221.405C508.729 221.18 508.977 221.018 509.267 220.921C509.566 220.826 509.884 220.836 510.219 220.952C510.554 221.067 510.808 221.248 510.98 221.495C511.164 221.735 511.258 222.02 511.264 222.347L511.317 222.365C511.523 222.14 511.784 221.983 512.101 221.895C512.417 221.806 512.757 221.824 513.119 221.948C513.622 222.121 513.938 222.422 514.066 222.852C514.207 223.275 514.18 223.769 513.986 224.334L512.316 229.193L511.23 228.82L512.841 224.133C512.951 223.815 512.971 223.541 512.902 223.31C512.842 223.082 512.671 222.92 512.389 222.823C512.097 222.722 511.821 222.751 511.56 222.908C511.299 223.065 511.098 223.346 510.959 223.752L509.43 228.201L508.331 227.823L509.942 223.136C510.051 222.819 510.076 222.546 510.016 222.318C509.956 222.09 509.785 221.928 509.503 221.831C509.211 221.73 508.931 221.757 508.661 221.911C508.399 222.068 508.199 222.35 508.059 222.756L506.53 227.204L505.431 226.827Z" fill="#86888E"/>
<path d="M176.848 308.141C177.097 308.02 177.199 307.72 177.078 307.472L175.103 303.429C174.982 303.18 174.683 303.078 174.435 303.199C174.187 303.32 174.084 303.619 174.205 303.867L175.96 307.462L172.366 309.217C172.118 309.338 172.015 309.638 172.136 309.886C172.257 310.134 172.557 310.237 172.805 310.116L176.848 308.141ZM176.791 307.219L107.908 283.542L107.583 284.488L176.466 308.164L176.791 307.219ZM105.736 279.094L133.419 198.555L132.473 198.23L104.79 278.769L105.736 279.094ZM137.866 196.382L779.804 417.03L780.129 416.085L138.191 195.437L137.866 196.382ZM133.419 198.555C134.047 196.727 136.038 195.754 137.866 196.382L138.191 195.437C135.841 194.629 133.281 195.879 132.473 198.23L133.419 198.555ZM107.908 283.542C106.08 282.914 105.107 280.922 105.736 279.094L104.79 278.769C103.982 281.119 105.232 283.68 107.583 284.488L107.908 283.542Z" fill="#ACADAE"/>
<path d="M776.95 316.75C776.702 316.871 776.599 317.171 776.72 317.419L778.695 321.462C778.816 321.71 779.116 321.813 779.364 321.692C779.612 321.571 779.715 321.272 779.594 321.023L777.838 317.429L781.432 315.674C781.681 315.553 781.783 315.253 781.662 315.005C781.541 314.757 781.242 314.654 780.994 314.775L776.95 316.75ZM777.007 317.672L849.396 342.554L849.721 341.608L777.332 316.727L777.007 317.672ZM851.568 347.001L823.885 427.541L824.831 427.866L852.514 347.327L851.568 347.001ZM819.437 429.713L146.352 198.359L146.027 199.305L819.112 430.659L819.437 429.713ZM823.885 427.541C823.257 429.369 821.265 430.342 819.437 429.713L819.112 430.659C821.463 431.467 824.023 430.216 824.831 427.866L823.885 427.541ZM849.396 342.554C851.224 343.182 852.197 345.173 851.568 347.001L852.514 347.327C853.322 344.976 852.071 342.416 849.721 341.608L849.396 342.554Z" fill="#ACADAE"/>
<path d="M356.173 368.44C356.421 368.319 356.524 368.02 356.403 367.771L354.428 363.728C354.307 363.48 354.008 363.377 353.759 363.498C353.511 363.619 353.408 363.919 353.53 364.167L355.285 367.761L351.691 369.517C351.443 369.638 351.34 369.937 351.461 370.185C351.582 370.433 351.882 370.536 352.13 370.415L356.173 368.44ZM301.881 349.934L355.791 368.464L356.116 367.518L302.206 348.988L301.881 349.934Z" fill="#ACADAE"/>
<path d="M220.682 119.599C220.93 119.478 221.033 119.179 220.912 118.931L218.937 114.887C218.816 114.639 218.516 114.536 218.268 114.657C218.02 114.779 217.917 115.078 218.038 115.326L219.794 118.92L216.199 120.676C215.951 120.797 215.848 121.096 215.97 121.344C216.091 121.593 216.39 121.696 216.638 121.574L220.682 119.599ZM184.36 107.27L220.3 119.623L220.625 118.677L184.685 106.324L184.36 107.27Z" fill="#ACADAE"/>
<path d="M418.351 187.543C418.599 187.422 418.702 187.122 418.581 186.874L416.606 182.831C416.485 182.582 416.185 182.48 415.937 182.601C415.689 182.722 415.586 183.021 415.707 183.269L417.463 186.864L413.868 188.619C413.62 188.74 413.517 189.04 413.639 189.288C413.76 189.536 414.059 189.639 414.307 189.518L418.351 187.543ZM382.029 175.213L417.969 187.566L418.294 186.621L382.354 174.267L382.029 175.213Z" fill="#ACADAE"/>
<path d="M616.02 255.486C616.268 255.365 616.371 255.066 616.25 254.817L614.275 250.774C614.153 250.526 613.854 250.423 613.606 250.544C613.358 250.665 613.255 250.965 613.376 251.213L615.132 254.807L611.537 256.562C611.289 256.684 611.186 256.983 611.307 257.231C611.429 257.479 611.728 257.582 611.976 257.461L616.02 255.486ZM579.698 243.156L615.638 255.51L615.963 254.564L580.023 242.211L579.698 243.156Z" fill="#ACADAE"/>
<defs>
<filter id="filter0_d_2654_27567" x="154.048" y="28.7773" width="294.557" height="284.336" filterUnits="userSpaceOnUse" color-interpolation-filters="sRGB">
<feFlood flood-opacity="0" result="BackgroundImageFix"/>
<feColorMatrix in="SourceAlpha" type="matrix" values="0 0 0 0 0 0 0 0 0 0 0 0 0 0 0 0 0 0 127 0" result="hardAlpha"/>
<feOffset dy="24"/>
<feGaussianBlur stdDeviation="22"/>
<feComposite in2="hardAlpha" operator="out"/>
<feColorMatrix type="matrix" values="0 0 0 0 0 0 0 0 0 0 0 0 0 0 0 0 0 0 0.5 0"/>
<feBlend mode="normal" in2="BackgroundImageFix" result="effect1_dropShadow_2654_27567"/>
<feBlend mode="normal" in="SourceGraphic" in2="effect1_dropShadow_2654_27567" result="shape"/>
</filter>
<filter id="filter1_d_2654_27567" x="289.128" y="278.814" width="294.557" height="284.336" filterUnits="userSpaceOnUse" color-interpolation-filters="sRGB">
<feFlood flood-opacity="0" result="BackgroundImageFix"/>
<feColorMatrix in="SourceAlpha" type="matrix" values="0 0 0 0 0 0 0 0 0 0 0 0 0 0 0 0 0 0 127 0" result="hardAlpha"/>
<feOffset dy="24"/>
<feGaussianBlur stdDeviation="22"/>
<feComposite in2="hardAlpha" operator="out"/>
<feColorMatrix type="matrix" values="0 0 0 0 0 0 0 0 0 0 0 0 0 0 0 0 0 0 0.5 0"/>
<feBlend mode="normal" in2="BackgroundImageFix" result="effect1_dropShadow_2654_27567"/>
<feBlend mode="normal" in="SourceGraphic" in2="effect1_dropShadow_2654_27567" result="shape"/>
</filter>
<filter id="filter2_d_2654_27567" x="557.622" y="189.822" width="277.674" height="235.219" filterUnits="userSpaceOnUse" color-interpolation-filters="sRGB">
<feFlood flood-opacity="0" result="BackgroundImageFix"/>
<feColorMatrix in="SourceAlpha" type="matrix" values="0 0 0 0 0 0 0 0 0 0 0 0 0 0 0 0 0 0 127 0" result="hardAlpha"/>
<feOffset dy="24"/>
<feGaussianBlur stdDeviation="22"/>
<feComposite in2="hardAlpha" operator="out"/>
<feColorMatrix type="matrix" values="0 0 0 0 0 0 0 0 0 0 0 0 0 0 0 0 0 0 0.5 0"/>
<feBlend mode="normal" in2="BackgroundImageFix" result="effect1_dropShadow_2654_27567"/>
<feBlend mode="normal" in="SourceGraphic" in2="effect1_dropShadow_2654_27567" result="shape"/>
</filter>
<filter id="filter3_d_2654_27567" x="128.744" y="270.172" width="221.183" height="166.146" filterUnits="userSpaceOnUse" color-interpolation-filters="sRGB">
<feFlood flood-opacity="0" result="BackgroundImageFix"/>
<feColorMatrix in="SourceAlpha" type="matrix" values="0 0 0 0 0 0 0 0 0 0 0 0 0 0 0 0 0 0 127 0" result="hardAlpha"/>
<feOffset dy="24"/>
<feGaussianBlur stdDeviation="22"/>
<feComposite in2="hardAlpha" operator="out"/>
<feColorMatrix type="matrix" values="0 0 0 0 0 0 0 0 0 0 0 0 0 0 0 0 0 0 0.5 0"/>
<feBlend mode="normal" in2="BackgroundImageFix" result="effect1_dropShadow_2654_27567"/>
<feBlend mode="normal" in="SourceGraphic" in2="effect1_dropShadow_2654_27567" result="shape"/>
</filter>
<filter id="filter4_d_2654_27567" x="41.7646" y="19.7051" width="189.37" height="189.371" filterUnits="userSpaceOnUse" color-interpolation-filters="sRGB">
<feFlood flood-opacity="0" result="BackgroundImageFix"/>
<feColorMatrix in="SourceAlpha" type="matrix" values="0 0 0 0 0 0 0 0 0 0 0 0 0 0 0 0 0 0 127 0" result="hardAlpha"/>
<feOffset dy="24"/>
<feGaussianBlur stdDeviation="22"/>
<feComposite in2="hardAlpha" operator="out"/>
<feColorMatrix type="matrix" values="0 0 0 0 0 0 0 0 0 0 0 0 0 0 0 0 0 0 0.5 0"/>
<feBlend mode="normal" in2="BackgroundImageFix" result="effect1_dropShadow_2654_27567"/>
<feBlend mode="normal" in="SourceGraphic" in2="effect1_dropShadow_2654_27567" result="shape"/>
</filter>
<filter id="filter5_d_2654_27567" x="351.718" y="96.7207" width="294.557" height="284.336" filterUnits="userSpaceOnUse" color-interpolation-filters="sRGB">
<feFlood flood-opacity="0" result="BackgroundImageFix"/>
<feColorMatrix in="SourceAlpha" type="matrix" values="0 0 0 0 0 0 0 0 0 0 0 0 0 0 0 0 0 0 127 0" result="hardAlpha"/>
<feOffset dy="24"/>
<feGaussianBlur stdDeviation="22"/>
<feComposite in2="hardAlpha" operator="out"/>
<feColorMatrix type="matrix" values="0 0 0 0 0 0 0 0 0 0 0 0 0 0 0 0 0 0 0.5 0"/>
<feBlend mode="normal" in2="BackgroundImageFix" result="effect1_dropShadow_2654_27567"/>
<feBlend mode="normal" in="SourceGraphic" in2="effect1_dropShadow_2654_27567" result="shape"/>
</filter>
<linearGradient id="paint0_linear_2654_27567" x1="380.544" y1="179.532" x2="219.477" y2="124.17" gradientUnits="userSpaceOnUse">
<stop stop-color="#0C0D0E"/>
<stop offset="1" stop-color="#1B1B1F"/>
</linearGradient>
<linearGradient id="paint1_linear_2654_27567" x1="515.624" y1="429.569" x2="354.557" y2="374.207" gradientUnits="userSpaceOnUse">
<stop stop-color="#0C0D0E"/>
<stop offset="1" stop-color="#1B1B1F"/>
</linearGradient>
<linearGradient id="paint2_linear_2654_27567" x1="776.23" y1="314.408" x2="615.164" y2="259.045" gradientUnits="userSpaceOnUse">
<stop stop-color="#0C0D0E"/>
<stop offset="1" stop-color="#1B1B1F"/>
</linearGradient>
<linearGradient id="paint3_linear_2654_27567" x1="301.172" y1="351.993" x2="177.091" y2="309.344" gradientUnits="userSpaceOnUse">
<stop stop-color="#0C0D0E"/>
<stop offset="1" stop-color="#1B1B1F"/>
</linearGradient>
<linearGradient id="paint4_linear_2654_27567" x1="88.3117" y1="90.391" x2="187.121" y2="90.391" gradientUnits="userSpaceOnUse">
<stop stop-color="#0C0D0E"/>
<stop offset="1" stop-color="#1B1B1F"/>
</linearGradient>
<linearGradient id="paint5_linear_2654_27567" x1="578.214" y1="247.475" x2="417.147" y2="192.113" gradientUnits="userSpaceOnUse">
<stop stop-color="#0C0D0E"/>
<stop offset="1" stop-color="#1B1B1F"/>
</linearGradient>
</defs>
</svg>
