<svg width="458" height="514" viewBox="0 0 458 514" fill="none" xmlns="http://www.w3.org/2000/svg">
<g filter="url(#filter0_f_2483_57192)">
<ellipse cx="235" cy="317" rx="148" ry="82" fill="url(#paint0_linear_2483_57192)"/>
</g>
<g filter="url(#filter1_d_2483_57192)">
<rect x="87.5" y="225.5" width="283" height="31" rx="9.5" stroke="#575B62"/>
<path d="M101.172 246.168C100.453 246.168 99.828 246.037 99.296 245.776C98.764 245.515 98.3533 245.151 98.064 244.684C97.7747 244.217 97.63 243.676 97.63 243.06H98.862C98.862 243.443 98.9507 243.797 99.128 244.124C99.3053 244.441 99.562 244.698 99.898 244.894C100.243 245.081 100.668 245.174 101.172 245.174C101.611 245.174 101.984 245.104 102.292 244.964C102.609 244.815 102.847 244.614 103.006 244.362C103.174 244.11 103.258 243.825 103.258 243.508C103.258 243.125 103.174 242.817 103.006 242.584C102.847 242.341 102.628 242.145 102.348 241.996C102.068 241.847 101.741 241.716 101.368 241.604C101.004 241.483 100.621 241.357 100.22 241.226C99.4453 240.965 98.876 240.638 98.512 240.246C98.148 239.854 97.966 239.345 97.966 238.72C97.966 238.188 98.0873 237.721 98.33 237.32C98.582 236.919 98.9367 236.606 99.394 236.382C99.8607 236.149 100.411 236.032 101.046 236.032C101.671 236.032 102.213 236.149 102.67 236.382C103.137 236.615 103.501 236.937 103.762 237.348C104.023 237.749 104.154 238.216 104.154 238.748H102.922C102.922 238.477 102.852 238.211 102.712 237.95C102.572 237.689 102.357 237.474 102.068 237.306C101.788 237.129 101.433 237.04 101.004 237.04C100.649 237.031 100.332 237.091 100.052 237.222C99.7813 237.343 99.5667 237.521 99.408 237.754C99.2587 237.987 99.184 238.272 99.184 238.608C99.184 238.925 99.2493 239.182 99.38 239.378C99.52 239.574 99.716 239.742 99.968 239.882C100.229 240.013 100.533 240.134 100.878 240.246C101.223 240.358 101.606 240.484 102.026 240.624C102.502 240.783 102.922 240.979 103.286 241.212C103.659 241.436 103.949 241.725 104.154 242.08C104.369 242.435 104.476 242.887 104.476 243.438C104.476 243.905 104.35 244.348 104.098 244.768C103.855 245.179 103.491 245.515 103.006 245.776C102.521 246.037 101.909 246.168 101.172 246.168ZM109.195 246.168C108.532 246.168 107.944 246.014 107.431 245.706C106.927 245.398 106.53 244.969 106.241 244.418C105.952 243.858 105.807 243.209 105.807 242.472C105.807 241.725 105.947 241.077 106.227 240.526C106.516 239.975 106.918 239.546 107.431 239.238C107.954 238.93 108.551 238.776 109.223 238.776C109.914 238.776 110.497 238.93 110.973 239.238C111.458 239.546 111.827 239.952 112.079 240.456C112.34 240.951 112.471 241.497 112.471 242.094C112.471 242.187 112.471 242.285 112.471 242.388C112.471 242.491 112.466 242.607 112.457 242.738H106.689V241.828H111.323C111.295 241.184 111.08 240.68 110.679 240.316C110.287 239.952 109.792 239.77 109.195 239.77C108.794 239.77 108.42 239.863 108.075 240.05C107.739 240.227 107.468 240.493 107.263 240.848C107.058 241.193 106.955 241.627 106.955 242.15V242.542C106.955 243.121 107.058 243.606 107.263 243.998C107.478 244.39 107.753 244.684 108.089 244.88C108.434 245.076 108.803 245.174 109.195 245.174C109.69 245.174 110.096 245.067 110.413 244.852C110.74 244.628 110.973 244.329 111.113 243.956H112.275C112.163 244.376 111.967 244.754 111.687 245.09C111.407 245.426 111.057 245.692 110.637 245.888C110.226 246.075 109.746 246.168 109.195 246.168ZM114.058 246V235.92H115.234V246H114.058ZM120.269 246.168C119.607 246.168 119.019 246.014 118.505 245.706C118.001 245.398 117.605 244.969 117.315 244.418C117.026 243.858 116.881 243.209 116.881 242.472C116.881 241.725 117.021 241.077 117.301 240.526C117.591 239.975 117.992 239.546 118.505 239.238C119.028 238.93 119.625 238.776 120.297 238.776C120.988 238.776 121.571 238.93 122.047 239.238C122.533 239.546 122.901 239.952 123.153 240.456C123.415 240.951 123.545 241.497 123.545 242.094C123.545 242.187 123.545 242.285 123.545 242.388C123.545 242.491 123.541 242.607 123.531 242.738H117.763V241.828H122.397C122.369 241.184 122.155 240.68 121.753 240.316C121.361 239.952 120.867 239.77 120.269 239.77C119.868 239.77 119.495 239.863 119.149 240.05C118.813 240.227 118.543 240.493 118.337 240.848C118.132 241.193 118.029 241.627 118.029 242.15V242.542C118.029 243.121 118.132 243.606 118.337 243.998C118.552 244.39 118.827 244.684 119.163 244.88C119.509 245.076 119.877 245.174 120.269 245.174C120.764 245.174 121.17 245.067 121.487 244.852C121.814 244.628 122.047 244.329 122.187 243.956H123.349C123.237 244.376 123.041 244.754 122.761 245.09C122.481 245.426 122.131 245.692 121.711 245.888C121.301 246.075 120.82 246.168 120.269 246.168ZM128.31 246.168C127.648 246.168 127.05 246.014 126.518 245.706C125.996 245.398 125.585 244.969 125.286 244.418C124.988 243.858 124.838 243.214 124.838 242.486C124.838 241.739 124.988 241.091 125.286 240.54C125.585 239.989 125.996 239.56 126.518 239.252C127.05 238.935 127.648 238.776 128.31 238.776C129.15 238.776 129.85 238.995 130.41 239.434C130.97 239.863 131.325 240.442 131.474 241.17H130.27C130.177 240.731 129.948 240.391 129.584 240.148C129.22 239.905 128.791 239.784 128.296 239.784C127.895 239.784 127.522 239.887 127.176 240.092C126.831 240.288 126.556 240.587 126.35 240.988C126.145 241.389 126.042 241.884 126.042 242.472C126.042 242.911 126.103 243.303 126.224 243.648C126.346 243.984 126.509 244.264 126.714 244.488C126.92 244.712 127.158 244.885 127.428 245.006C127.708 245.118 127.998 245.174 128.296 245.174C128.632 245.174 128.936 245.123 129.206 245.02C129.477 244.908 129.706 244.745 129.892 244.53C130.079 244.315 130.205 244.063 130.27 243.774H131.474C131.325 244.483 130.966 245.062 130.396 245.51C129.836 245.949 129.141 246.168 128.31 246.168ZM135.725 246C135.305 246 134.941 245.935 134.633 245.804C134.325 245.673 134.087 245.454 133.919 245.146C133.76 244.829 133.681 244.404 133.681 243.872V239.938H132.449V238.944H133.681L133.835 237.236H134.857V238.944H136.901V239.938H134.857V243.872C134.857 244.311 134.945 244.609 135.123 244.768C135.3 244.917 135.613 244.992 136.061 244.992H136.817V246H135.725ZM142.224 246V236.2H145.416C146.19 236.2 146.825 236.331 147.32 236.592C147.824 236.844 148.192 237.185 148.426 237.614C148.668 238.043 148.79 238.533 148.79 239.084C148.79 239.616 148.668 240.101 148.426 240.54C148.192 240.969 147.828 241.315 147.334 241.576C146.839 241.837 146.2 241.968 145.416 241.968H143.4V246H142.224ZM143.4 240.974H145.402C146.186 240.974 146.746 240.801 147.082 240.456C147.418 240.111 147.586 239.653 147.586 239.084C147.586 238.477 147.418 238.011 147.082 237.684C146.746 237.348 146.186 237.18 145.402 237.18H143.4V240.974ZM152.243 246.168C151.673 246.168 151.197 246.07 150.815 245.874C150.432 245.669 150.147 245.403 149.961 245.076C149.774 244.74 149.681 244.376 149.681 243.984C149.681 243.508 149.802 243.107 150.045 242.78C150.297 242.444 150.647 242.192 151.095 242.024C151.552 241.847 152.089 241.758 152.705 241.758H154.567C154.567 241.319 154.497 240.955 154.357 240.666C154.226 240.367 154.03 240.143 153.769 239.994C153.517 239.845 153.199 239.77 152.817 239.77C152.369 239.77 151.981 239.882 151.655 240.106C151.328 240.33 151.127 240.661 151.053 241.1H149.849C149.905 240.596 150.073 240.176 150.353 239.84C150.642 239.495 151.006 239.233 151.445 239.056C151.883 238.869 152.341 238.776 152.817 238.776C153.47 238.776 154.011 238.897 154.441 239.14C154.879 239.373 155.206 239.705 155.421 240.134C155.635 240.554 155.743 241.053 155.743 241.632V246H154.693L154.623 244.754C154.529 244.95 154.408 245.137 154.259 245.314C154.119 245.482 153.951 245.631 153.755 245.762C153.559 245.883 153.335 245.981 153.083 246.056C152.84 246.131 152.56 246.168 152.243 246.168ZM152.425 245.174C152.751 245.174 153.045 245.109 153.307 244.978C153.577 244.838 153.806 244.651 153.993 244.418C154.179 244.175 154.319 243.909 154.413 243.62C154.515 243.331 154.567 243.027 154.567 242.71V242.668H152.803C152.345 242.668 151.977 242.724 151.697 242.836C151.417 242.939 151.216 243.088 151.095 243.284C150.973 243.471 150.913 243.685 150.913 243.928C150.913 244.18 150.969 244.399 151.081 244.586C151.202 244.773 151.375 244.917 151.599 245.02C151.832 245.123 152.107 245.174 152.425 245.174ZM160.74 246.168C160.077 246.168 159.48 246.014 158.948 245.706C158.425 245.398 158.015 244.969 157.716 244.418C157.417 243.858 157.268 243.214 157.268 242.486C157.268 241.739 157.417 241.091 157.716 240.54C158.015 239.989 158.425 239.56 158.948 239.252C159.48 238.935 160.077 238.776 160.74 238.776C161.58 238.776 162.28 238.995 162.84 239.434C163.4 239.863 163.755 240.442 163.904 241.17H162.7C162.607 240.731 162.378 240.391 162.014 240.148C161.65 239.905 161.221 239.784 160.726 239.784C160.325 239.784 159.951 239.887 159.606 240.092C159.261 240.288 158.985 240.587 158.78 240.988C158.575 241.389 158.472 241.884 158.472 242.472C158.472 242.911 158.533 243.303 158.654 243.648C158.775 243.984 158.939 244.264 159.144 244.488C159.349 244.712 159.587 244.885 159.858 245.006C160.138 245.118 160.427 245.174 160.726 245.174C161.062 245.174 161.365 245.123 161.636 245.02C161.907 244.908 162.135 244.745 162.322 244.53C162.509 244.315 162.635 244.063 162.7 243.774H163.904C163.755 244.483 163.395 245.062 162.826 245.51C162.266 245.949 161.571 246.168 160.74 246.168ZM169.914 246L166.554 242.136L169.62 238.944H171.062L167.548 242.556L167.562 241.716L171.412 246H169.914ZM165.574 246V235.92H166.75V246H165.574ZM174.87 246.168C174.3 246.168 173.824 246.07 173.442 245.874C173.059 245.669 172.774 245.403 172.588 245.076C172.401 244.74 172.308 244.376 172.308 243.984C172.308 243.508 172.429 243.107 172.672 242.78C172.924 242.444 173.274 242.192 173.722 242.024C174.179 241.847 174.716 241.758 175.332 241.758H177.194C177.194 241.319 177.124 240.955 176.984 240.666C176.853 240.367 176.657 240.143 176.396 239.994C176.144 239.845 175.826 239.77 175.444 239.77C174.996 239.77 174.608 239.882 174.282 240.106C173.955 240.33 173.754 240.661 173.68 241.1H172.476C172.532 240.596 172.7 240.176 172.98 239.84C173.269 239.495 173.633 239.233 174.072 239.056C174.51 238.869 174.968 238.776 175.444 238.776C176.097 238.776 176.638 238.897 177.068 239.14C177.506 239.373 177.833 239.705 178.048 240.134C178.262 240.554 178.37 241.053 178.37 241.632V246H177.32L177.25 244.754C177.156 244.95 177.035 245.137 176.886 245.314C176.746 245.482 176.578 245.631 176.382 245.762C176.186 245.883 175.962 245.981 175.71 246.056C175.467 246.131 175.187 246.168 174.87 246.168ZM175.052 245.174C175.378 245.174 175.672 245.109 175.934 244.978C176.204 244.838 176.433 244.651 176.62 244.418C176.806 244.175 176.946 243.909 177.04 243.62C177.142 243.331 177.194 243.027 177.194 242.71V242.668H175.43C174.972 242.668 174.604 242.724 174.324 242.836C174.044 242.939 173.843 243.088 173.722 243.284C173.6 243.471 173.54 243.685 173.54 243.928C173.54 244.18 173.596 244.399 173.708 244.586C173.829 244.773 174.002 244.917 174.226 245.02C174.459 245.123 174.734 245.174 175.052 245.174ZM182.975 249.248C182.34 249.248 181.776 249.164 181.281 248.996C180.796 248.837 180.418 248.59 180.147 248.254C179.876 247.918 179.741 247.503 179.741 247.008C179.741 246.793 179.783 246.565 179.867 246.322C179.96 246.079 180.114 245.841 180.329 245.608C180.553 245.375 180.866 245.165 181.267 244.978L182.079 245.454C181.584 245.659 181.262 245.893 181.113 246.154C180.964 246.425 180.889 246.672 180.889 246.896C180.889 247.204 180.978 247.461 181.155 247.666C181.332 247.871 181.58 248.025 181.897 248.128C182.214 248.231 182.574 248.282 182.975 248.282C183.376 248.282 183.722 248.226 184.011 248.114C184.3 248.002 184.524 247.843 184.683 247.638C184.842 247.433 184.921 247.19 184.921 246.91C184.921 246.583 184.8 246.308 184.557 246.084C184.314 245.869 183.852 245.743 183.171 245.706C182.62 245.669 182.158 245.617 181.785 245.552C181.412 245.487 181.104 245.412 180.861 245.328C180.618 245.235 180.413 245.132 180.245 245.02C180.086 244.908 179.942 244.791 179.811 244.67V244.348L181.169 243.004L182.191 243.368L180.791 244.628L180.973 244.138C181.076 244.213 181.174 244.283 181.267 244.348C181.36 244.413 181.486 244.469 181.645 244.516C181.804 244.563 182.023 244.605 182.303 244.642C182.592 244.679 182.97 244.717 183.437 244.754C184.081 244.801 184.594 244.913 184.977 245.09C185.369 245.267 185.649 245.505 185.817 245.804C185.994 246.103 186.083 246.457 186.083 246.868C186.083 247.269 185.971 247.647 185.747 248.002C185.532 248.366 185.196 248.665 184.739 248.898C184.282 249.131 183.694 249.248 182.975 249.248ZM182.961 243.788C182.373 243.788 181.869 243.676 181.449 243.452C181.038 243.228 180.726 242.929 180.511 242.556C180.296 242.173 180.189 241.749 180.189 241.282C180.189 240.815 180.296 240.395 180.511 240.022C180.735 239.649 181.052 239.35 181.463 239.126C181.874 238.893 182.373 238.776 182.961 238.776C183.549 238.776 184.048 238.893 184.459 239.126C184.87 239.35 185.182 239.649 185.397 240.022C185.612 240.395 185.719 240.815 185.719 241.282C185.719 241.749 185.612 242.173 185.397 242.556C185.182 242.929 184.87 243.228 184.459 243.452C184.048 243.676 183.549 243.788 182.961 243.788ZM182.961 242.822C183.465 242.822 183.862 242.691 184.151 242.43C184.44 242.169 184.585 241.786 184.585 241.282C184.585 240.787 184.44 240.409 184.151 240.148C183.862 239.887 183.465 239.756 182.961 239.756C182.466 239.756 182.065 239.887 181.757 240.148C181.458 240.409 181.309 240.787 181.309 241.282C181.309 241.786 181.458 242.169 181.757 242.43C182.056 242.691 182.457 242.822 182.961 242.822ZM184.109 239.938L183.759 238.944H186.643V239.826L184.109 239.938ZM190.816 246.168C190.154 246.168 189.566 246.014 189.052 245.706C188.548 245.398 188.152 244.969 187.862 244.418C187.573 243.858 187.428 243.209 187.428 242.472C187.428 241.725 187.568 241.077 187.848 240.526C188.138 239.975 188.539 239.546 189.052 239.238C189.575 238.93 190.172 238.776 190.844 238.776C191.535 238.776 192.118 238.93 192.594 239.238C193.08 239.546 193.448 239.952 193.7 240.456C193.962 240.951 194.092 241.497 194.092 242.094C194.092 242.187 194.092 242.285 194.092 242.388C194.092 242.491 194.088 242.607 194.078 242.738H188.31V241.828H192.944C192.916 241.184 192.702 240.68 192.3 240.316C191.908 239.952 191.414 239.77 190.816 239.77C190.415 239.77 190.042 239.863 189.696 240.05C189.36 240.227 189.09 240.493 188.884 240.848C188.679 241.193 188.576 241.627 188.576 242.15V242.542C188.576 243.121 188.679 243.606 188.884 243.998C189.099 244.39 189.374 244.684 189.71 244.88C190.056 245.076 190.424 245.174 190.816 245.174C191.311 245.174 191.717 245.067 192.034 244.852C192.361 244.628 192.594 244.329 192.734 243.956H193.896C193.784 244.376 193.588 244.754 193.308 245.09C193.028 245.426 192.678 245.692 192.258 245.888C191.848 246.075 191.367 246.168 190.816 246.168Z" fill="#EEEFF1"/>
<path d="M349.25 239.125L353 242.875L356.75 239.125" stroke="#575B62" stroke-linecap="round" stroke-linejoin="round"/>
</g>
<g filter="url(#filter2_d_2483_57192)">
<g clip-path="url(#clip0_2483_57192)">
<rect width="284" height="122" transform="translate(87 267)" fill="#232529"/>
<rect x="92.5" y="272.5" width="273" height="27" rx="9.5" fill="#313337"/>
<rect x="92.5" y="272.5" width="273" height="27" rx="9.5" stroke="#575B62"/>
<path d="M106.875 286.562L108.839 288.812L113.75 283.188" stroke="#EEEFF1" stroke-linecap="round" stroke-linejoin="round"/>
<path d="M129.486 293.03C128.982 292.545 128.515 291.966 128.086 291.294C127.657 290.631 127.311 289.885 127.05 289.054C126.798 288.223 126.672 287.318 126.672 286.338C126.672 285.358 126.798 284.453 127.05 283.622C127.311 282.791 127.657 282.04 128.086 281.368C128.515 280.696 128.982 280.122 129.486 279.646H130.69V279.758C130.121 280.318 129.621 280.943 129.192 281.634C128.772 282.325 128.441 283.067 128.198 283.86C127.965 284.644 127.848 285.47 127.848 286.338C127.848 287.206 127.965 288.037 128.198 288.83C128.441 289.614 128.777 290.351 129.206 291.042C129.635 291.733 130.13 292.358 130.69 292.918V293.03H129.486ZM132.203 294.08V283.944H133.267L133.365 285.092C133.514 284.868 133.705 284.658 133.939 284.462C134.172 284.257 134.452 284.093 134.779 283.972C135.105 283.841 135.479 283.776 135.899 283.776C136.589 283.776 137.187 283.939 137.691 284.266C138.204 284.593 138.601 285.036 138.881 285.596C139.17 286.147 139.315 286.777 139.315 287.486C139.315 288.195 139.17 288.83 138.881 289.39C138.601 289.941 138.204 290.375 137.691 290.692C137.177 291.009 136.575 291.168 135.885 291.168C135.315 291.168 134.811 291.051 134.373 290.818C133.943 290.585 133.612 290.258 133.379 289.838V294.08H132.203ZM135.759 290.146C136.216 290.146 136.622 290.034 136.977 289.81C137.331 289.586 137.607 289.278 137.803 288.886C138.008 288.485 138.111 288.013 138.111 287.472C138.111 286.94 138.008 286.473 137.803 286.072C137.607 285.671 137.331 285.358 136.977 285.134C136.622 284.91 136.216 284.798 135.759 284.798C135.292 284.798 134.881 284.91 134.527 285.134C134.172 285.358 133.897 285.671 133.701 286.072C133.505 286.473 133.407 286.94 133.407 287.472C133.407 288.013 133.505 288.485 133.701 288.886C133.897 289.278 134.172 289.586 134.527 289.81C134.881 290.034 135.292 290.146 135.759 290.146ZM141.176 294.08L142.898 290.216H142.492L139.72 283.944H140.994L143.29 289.334L145.698 283.944H146.916L142.408 294.08H141.176ZM150.957 291C150.537 291 150.173 290.935 149.865 290.804C149.557 290.673 149.319 290.454 149.151 290.146C148.992 289.829 148.913 289.404 148.913 288.872V284.938H147.681V283.944H148.913L149.067 282.236H150.089V283.944H152.133V284.938H150.089V288.872C150.089 289.311 150.178 289.609 150.355 289.768C150.532 289.917 150.845 289.992 151.293 289.992H152.049V291H150.957ZM153.668 291V280.92H154.844V285.134C155.077 284.714 155.404 284.383 155.824 284.14C156.253 283.897 156.72 283.776 157.224 283.776C157.765 283.776 158.236 283.888 158.638 284.112C159.039 284.327 159.347 284.658 159.562 285.106C159.776 285.554 159.883 286.119 159.883 286.8V291H158.722V286.926C158.722 286.217 158.572 285.685 158.274 285.33C157.975 284.966 157.541 284.784 156.972 284.784C156.57 284.784 156.206 284.882 155.88 285.078C155.562 285.274 155.31 285.554 155.124 285.918C154.937 286.282 154.844 286.73 154.844 287.262V291H153.668ZM164.87 291.168C164.217 291.168 163.629 291.019 163.106 290.72C162.584 290.412 162.173 289.983 161.874 289.432C161.576 288.872 161.426 288.223 161.426 287.486C161.426 286.73 161.576 286.077 161.874 285.526C162.182 284.966 162.598 284.537 163.12 284.238C163.652 283.93 164.245 283.776 164.898 283.776C165.57 283.776 166.163 283.93 166.676 284.238C167.199 284.537 167.61 284.966 167.908 285.526C168.216 286.077 168.37 286.725 168.37 287.472C168.37 288.219 168.216 288.872 167.908 289.432C167.6 289.983 167.185 290.412 166.662 290.72C166.14 291.019 165.542 291.168 164.87 291.168ZM164.884 290.16C165.286 290.16 165.659 290.062 166.004 289.866C166.35 289.661 166.63 289.357 166.844 288.956C167.059 288.555 167.166 288.06 167.166 287.472C167.166 286.875 167.059 286.38 166.844 285.988C166.639 285.587 166.364 285.288 166.018 285.092C165.682 284.887 165.309 284.784 164.898 284.784C164.506 284.784 164.133 284.887 163.778 285.092C163.433 285.288 163.153 285.587 162.938 285.988C162.733 286.38 162.63 286.875 162.63 287.472C162.63 288.06 162.733 288.555 162.938 288.956C163.153 289.357 163.428 289.661 163.764 289.866C164.11 290.062 164.483 290.16 164.884 290.16ZM170.019 291V283.944H171.083L171.139 285.176C171.363 284.737 171.68 284.397 172.091 284.154C172.511 283.902 172.987 283.776 173.519 283.776C174.07 283.776 174.546 283.888 174.947 284.112C175.348 284.327 175.661 284.658 175.885 285.106C176.109 285.545 176.221 286.105 176.221 286.786V291H175.045V286.912C175.045 286.203 174.886 285.671 174.569 285.316C174.261 284.961 173.822 284.784 173.253 284.784C172.861 284.784 172.511 284.882 172.203 285.078C171.895 285.265 171.648 285.54 171.461 285.904C171.284 286.259 171.195 286.702 171.195 287.234V291H170.019ZM178.814 293.03H177.61V292.918C178.179 292.358 178.674 291.733 179.094 291.042C179.523 290.351 179.855 289.614 180.088 288.83C180.331 288.037 180.452 287.206 180.452 286.338C180.452 285.47 180.331 284.644 180.088 283.86C179.855 283.067 179.523 282.325 179.094 281.634C178.674 280.943 178.179 280.318 177.61 279.758V279.646H178.814C179.327 280.122 179.794 280.696 180.214 281.368C180.643 282.04 180.984 282.791 181.236 283.622C181.497 284.453 181.628 285.358 181.628 286.338C181.628 287.318 181.497 288.223 181.236 289.054C180.984 289.885 180.643 290.631 180.214 291.294C179.794 291.966 179.327 292.545 178.814 293.03ZM187 294.08V283.944H188.064L188.162 285.092C188.311 284.868 188.502 284.658 188.736 284.462C188.969 284.257 189.249 284.093 189.576 283.972C189.902 283.841 190.276 283.776 190.696 283.776C191.386 283.776 191.984 283.939 192.488 284.266C193.001 284.593 193.398 285.036 193.678 285.596C193.967 286.147 194.112 286.777 194.112 287.486C194.112 288.195 193.967 288.83 193.678 289.39C193.398 289.941 193.001 290.375 192.488 290.692C191.974 291.009 191.372 291.168 190.682 291.168C190.112 291.168 189.608 291.051 189.17 290.818C188.74 290.585 188.409 290.258 188.176 289.838V294.08H187ZM190.556 290.146C191.013 290.146 191.419 290.034 191.774 289.81C192.128 289.586 192.404 289.278 192.6 288.886C192.805 288.485 192.908 288.013 192.908 287.472C192.908 286.94 192.805 286.473 192.6 286.072C192.404 285.671 192.128 285.358 191.774 285.134C191.419 284.91 191.013 284.798 190.556 284.798C190.089 284.798 189.678 284.91 189.324 285.134C188.969 285.358 188.694 285.671 188.498 286.072C188.302 286.473 188.204 286.94 188.204 287.472C188.204 288.013 188.302 288.485 188.498 288.886C188.694 289.278 188.969 289.586 189.324 289.81C189.678 290.034 190.089 290.146 190.556 290.146ZM195.763 291V283.944H196.827L196.911 285.288C197.07 284.971 197.271 284.7 197.513 284.476C197.765 284.252 198.064 284.079 198.409 283.958C198.764 283.837 199.165 283.776 199.613 283.776V285.008H199.179C198.881 285.008 198.596 285.05 198.325 285.134C198.055 285.209 197.812 285.335 197.597 285.512C197.392 285.689 197.229 285.932 197.107 286.24C196.995 286.539 196.939 286.912 196.939 287.36V291H195.763ZM203.835 291.168C203.182 291.168 202.594 291.019 202.071 290.72C201.548 290.412 201.138 289.983 200.839 289.432C200.54 288.872 200.391 288.223 200.391 287.486C200.391 286.73 200.54 286.077 200.839 285.526C201.147 284.966 201.562 284.537 202.085 284.238C202.617 283.93 203.21 283.776 203.863 283.776C204.535 283.776 205.128 283.93 205.641 284.238C206.164 284.537 206.574 284.966 206.873 285.526C207.181 286.077 207.335 286.725 207.335 287.472C207.335 288.219 207.181 288.872 206.873 289.432C206.565 289.983 206.15 290.412 205.627 290.72C205.104 291.019 204.507 291.168 203.835 291.168ZM203.849 290.16C204.25 290.16 204.624 290.062 204.969 289.866C205.314 289.661 205.594 289.357 205.809 288.956C206.024 288.555 206.131 288.06 206.131 287.472C206.131 286.875 206.024 286.38 205.809 285.988C205.604 285.587 205.328 285.288 204.983 285.092C204.647 284.887 204.274 284.784 203.863 284.784C203.471 284.784 203.098 284.887 202.743 285.092C202.398 285.288 202.118 285.587 201.903 285.988C201.698 286.38 201.595 286.875 201.595 287.472C201.595 288.06 201.698 288.555 201.903 288.956C202.118 289.357 202.393 289.661 202.729 289.866C203.074 290.062 203.448 290.16 203.849 290.16ZM212.162 291.168C211.499 291.168 210.902 291.014 210.37 290.706C209.847 290.398 209.437 289.969 209.138 289.418C208.839 288.858 208.69 288.214 208.69 287.486C208.69 286.739 208.839 286.091 209.138 285.54C209.437 284.989 209.847 284.56 210.37 284.252C210.902 283.935 211.499 283.776 212.162 283.776C213.002 283.776 213.702 283.995 214.262 284.434C214.822 284.863 215.177 285.442 215.326 286.17H214.122C214.029 285.731 213.8 285.391 213.436 285.148C213.072 284.905 212.643 284.784 212.148 284.784C211.747 284.784 211.373 284.887 211.028 285.092C210.683 285.288 210.407 285.587 210.202 285.988C209.997 286.389 209.894 286.884 209.894 287.472C209.894 287.911 209.955 288.303 210.076 288.648C210.197 288.984 210.361 289.264 210.566 289.488C210.771 289.712 211.009 289.885 211.28 290.006C211.56 290.118 211.849 290.174 212.148 290.174C212.484 290.174 212.787 290.123 213.058 290.02C213.329 289.908 213.557 289.745 213.744 289.53C213.931 289.315 214.057 289.063 214.122 288.774H215.326C215.177 289.483 214.817 290.062 214.248 290.51C213.688 290.949 212.993 291.168 212.162 291.168ZM220.09 291.168C219.427 291.168 218.839 291.014 218.326 290.706C217.822 290.398 217.425 289.969 217.136 289.418C216.846 288.858 216.702 288.209 216.702 287.472C216.702 286.725 216.842 286.077 217.122 285.526C217.411 284.975 217.812 284.546 218.326 284.238C218.848 283.93 219.446 283.776 220.118 283.776C220.808 283.776 221.392 283.93 221.868 284.238C222.353 284.546 222.722 284.952 222.974 285.456C223.235 285.951 223.366 286.497 223.366 287.094C223.366 287.187 223.366 287.285 223.366 287.388C223.366 287.491 223.361 287.607 223.352 287.738H217.584V286.828H222.218C222.19 286.184 221.975 285.68 221.574 285.316C221.182 284.952 220.687 284.77 220.09 284.77C219.688 284.77 219.315 284.863 218.97 285.05C218.634 285.227 218.363 285.493 218.158 285.848C217.952 286.193 217.85 286.627 217.85 287.15V287.542C217.85 288.121 217.952 288.606 218.158 288.998C218.372 289.39 218.648 289.684 218.984 289.88C219.329 290.076 219.698 290.174 220.09 290.174C220.584 290.174 220.99 290.067 221.308 289.852C221.634 289.628 221.868 289.329 222.008 288.956H223.17C223.058 289.376 222.862 289.754 222.582 290.09C222.302 290.426 221.952 290.692 221.532 290.888C221.121 291.075 220.64 291.168 220.09 291.168ZM227.613 291.168C227.025 291.168 226.511 291.07 226.073 290.874C225.643 290.678 225.298 290.407 225.037 290.062C224.785 289.707 224.631 289.292 224.575 288.816H225.779C225.825 289.059 225.923 289.283 226.073 289.488C226.222 289.693 226.423 289.861 226.675 289.992C226.936 290.113 227.253 290.174 227.627 290.174C227.953 290.174 228.224 290.127 228.439 290.034C228.653 289.931 228.812 289.796 228.915 289.628C229.027 289.46 229.083 289.278 229.083 289.082C229.083 288.793 229.013 288.573 228.873 288.424C228.742 288.275 228.546 288.158 228.285 288.074C228.023 287.981 227.706 287.901 227.333 287.836C227.025 287.78 226.721 287.705 226.423 287.612C226.124 287.519 225.858 287.397 225.625 287.248C225.391 287.089 225.205 286.898 225.065 286.674C224.934 286.45 224.869 286.175 224.869 285.848C224.869 285.447 224.971 285.092 225.177 284.784C225.382 284.467 225.676 284.219 226.059 284.042C226.451 283.865 226.903 283.776 227.417 283.776C228.173 283.776 228.784 283.958 229.251 284.322C229.717 284.686 229.993 285.213 230.077 285.904H228.915C228.868 285.549 228.714 285.274 228.453 285.078C228.201 284.873 227.851 284.77 227.403 284.77C226.964 284.77 226.628 284.859 226.395 285.036C226.171 285.213 226.059 285.447 226.059 285.736C226.059 285.923 226.119 286.091 226.241 286.24C226.371 286.38 226.558 286.501 226.801 286.604C227.053 286.707 227.361 286.791 227.725 286.856C228.191 286.94 228.616 287.052 228.999 287.192C229.381 287.332 229.689 287.542 229.923 287.822C230.165 288.093 230.287 288.48 230.287 288.984C230.287 289.423 230.175 289.805 229.951 290.132C229.736 290.459 229.428 290.715 229.027 290.902C228.625 291.079 228.154 291.168 227.613 291.168ZM234.64 291.168C234.052 291.168 233.539 291.07 233.1 290.874C232.671 290.678 232.325 290.407 232.064 290.062C231.812 289.707 231.658 289.292 231.602 288.816H232.806C232.853 289.059 232.951 289.283 233.1 289.488C233.249 289.693 233.45 289.861 233.702 289.992C233.963 290.113 234.281 290.174 234.654 290.174C234.981 290.174 235.251 290.127 235.466 290.034C235.681 289.931 235.839 289.796 235.942 289.628C236.054 289.46 236.11 289.278 236.11 289.082C236.11 288.793 236.04 288.573 235.9 288.424C235.769 288.275 235.573 288.158 235.312 288.074C235.051 287.981 234.733 287.901 234.36 287.836C234.052 287.78 233.749 287.705 233.45 287.612C233.151 287.519 232.885 287.397 232.652 287.248C232.419 287.089 232.232 286.898 232.092 286.674C231.961 286.45 231.896 286.175 231.896 285.848C231.896 285.447 231.999 285.092 232.204 284.784C232.409 284.467 232.703 284.219 233.086 284.042C233.478 283.865 233.931 283.776 234.444 283.776C235.2 283.776 235.811 283.958 236.278 284.322C236.745 284.686 237.02 285.213 237.104 285.904H235.942C235.895 285.549 235.741 285.274 235.48 285.078C235.228 284.873 234.878 284.77 234.43 284.77C233.991 284.77 233.655 284.859 233.422 285.036C233.198 285.213 233.086 285.447 233.086 285.736C233.086 285.923 233.147 286.091 233.268 286.24C233.399 286.38 233.585 286.501 233.828 286.604C234.08 286.707 234.388 286.791 234.752 286.856C235.219 286.94 235.643 287.052 236.026 287.192C236.409 287.332 236.717 287.542 236.95 287.822C237.193 288.093 237.314 288.48 237.314 288.984C237.314 289.423 237.202 289.805 236.978 290.132C236.763 290.459 236.455 290.715 236.054 290.902C235.653 291.079 235.181 291.168 234.64 291.168ZM239.035 292.61V291.504H246.259V292.61H239.035ZM251.344 291.168C250.681 291.168 250.093 291.014 249.58 290.706C249.076 290.398 248.679 289.969 248.39 289.418C248.1 288.858 247.956 288.209 247.956 287.472C247.956 286.725 248.096 286.077 248.376 285.526C248.665 284.975 249.066 284.546 249.58 284.238C250.102 283.93 250.7 283.776 251.372 283.776C252.062 283.776 252.646 283.93 253.122 284.238C253.607 284.546 253.976 284.952 254.228 285.456C254.489 285.951 254.62 286.497 254.62 287.094C254.62 287.187 254.62 287.285 254.62 287.388C254.62 287.491 254.615 287.607 254.606 287.738H248.838V286.828H253.472C253.444 286.184 253.229 285.68 252.828 285.316C252.436 284.952 251.941 284.77 251.344 284.77C250.942 284.77 250.569 284.863 250.224 285.05C249.888 285.227 249.617 285.493 249.412 285.848C249.206 286.193 249.104 286.627 249.104 287.15V287.542C249.104 288.121 249.206 288.606 249.412 288.998C249.626 289.39 249.902 289.684 250.238 289.88C250.583 290.076 250.952 290.174 251.344 290.174C251.838 290.174 252.244 290.067 252.562 289.852C252.888 289.628 253.122 289.329 253.262 288.956H254.424C254.312 289.376 254.116 289.754 253.836 290.09C253.556 290.426 253.206 290.692 252.786 290.888C252.375 291.075 251.894 291.168 251.344 291.168ZM259.315 291.168C258.633 291.168 258.036 291.009 257.523 290.692C257.009 290.365 256.613 289.922 256.333 289.362C256.053 288.802 255.913 288.167 255.913 287.458C255.913 286.749 256.053 286.119 256.333 285.568C256.613 285.008 257.009 284.569 257.523 284.252C258.045 283.935 258.647 283.776 259.329 283.776C259.907 283.776 260.411 283.893 260.841 284.126C261.279 284.359 261.615 284.686 261.849 285.106V280.92H263.025V291H261.961L261.863 289.838C261.713 290.071 261.522 290.291 261.289 290.496C261.055 290.692 260.775 290.855 260.449 290.986C260.122 291.107 259.744 291.168 259.315 291.168ZM259.455 290.146C259.921 290.146 260.332 290.034 260.687 289.81C261.041 289.586 261.317 289.278 261.513 288.886C261.709 288.485 261.807 288.013 261.807 287.472C261.807 286.94 261.709 286.473 261.513 286.072C261.317 285.671 261.041 285.358 260.687 285.134C260.332 284.91 259.921 284.798 259.455 284.798C258.997 284.798 258.591 284.91 258.237 285.134C257.882 285.358 257.607 285.671 257.411 286.072C257.215 286.473 257.117 286.94 257.117 287.472C257.117 288.013 257.215 288.485 257.411 288.886C257.607 289.278 257.882 289.586 258.237 289.81C258.591 290.034 258.997 290.146 259.455 290.146ZM265.096 291V283.944H266.272V291H265.096ZM265.684 282.446C265.451 282.446 265.255 282.371 265.096 282.222C264.947 282.063 264.872 281.867 264.872 281.634C264.872 281.401 264.947 281.214 265.096 281.074C265.255 280.925 265.451 280.85 265.684 280.85C265.908 280.85 266.099 280.925 266.258 281.074C266.417 281.214 266.496 281.401 266.496 281.634C266.496 281.867 266.417 282.063 266.258 282.222C266.099 282.371 265.908 282.446 265.684 282.446Z" fill="#EEEFF1"/>
<rect x="92" y="300" width="274" height="28" rx="10" fill="#232529"/>
<path d="M105.486 321.03C104.982 320.545 104.515 319.966 104.086 319.294C103.657 318.631 103.311 317.885 103.05 317.054C102.798 316.223 102.672 315.318 102.672 314.338C102.672 313.358 102.798 312.453 103.05 311.622C103.311 310.791 103.657 310.04 104.086 309.368C104.515 308.696 104.982 308.122 105.486 307.646H106.69V307.758C106.121 308.318 105.621 308.943 105.192 309.634C104.772 310.325 104.441 311.067 104.198 311.86C103.965 312.644 103.848 313.47 103.848 314.338C103.848 315.206 103.965 316.037 104.198 316.83C104.441 317.614 104.777 318.351 105.206 319.042C105.635 319.733 106.13 320.358 106.69 320.918V321.03H105.486ZM108.203 319V311.944H109.267L109.323 313.176C109.547 312.737 109.864 312.397 110.275 312.154C110.695 311.902 111.171 311.776 111.703 311.776C112.253 311.776 112.729 311.888 113.131 312.112C113.532 312.327 113.845 312.658 114.069 313.106C114.293 313.545 114.405 314.105 114.405 314.786V319H113.229V314.912C113.229 314.203 113.07 313.671 112.753 313.316C112.445 312.961 112.006 312.784 111.437 312.784C111.045 312.784 110.695 312.882 110.387 313.078C110.079 313.265 109.831 313.54 109.645 313.904C109.467 314.259 109.379 314.702 109.379 315.234V319H108.203ZM119.392 319.168C118.738 319.168 118.15 319.019 117.628 318.72C117.105 318.412 116.694 317.983 116.396 317.432C116.097 316.872 115.948 316.223 115.948 315.486C115.948 314.73 116.097 314.077 116.396 313.526C116.704 312.966 117.119 312.537 117.642 312.238C118.174 311.93 118.766 311.776 119.42 311.776C120.092 311.776 120.684 311.93 121.198 312.238C121.72 312.537 122.131 312.966 122.43 313.526C122.738 314.077 122.892 314.725 122.892 315.472C122.892 316.219 122.738 316.872 122.43 317.432C122.122 317.983 121.706 318.412 121.184 318.72C120.661 319.019 120.064 319.168 119.392 319.168ZM119.406 318.16C119.807 318.16 120.18 318.062 120.526 317.866C120.871 317.661 121.151 317.357 121.366 316.956C121.58 316.555 121.688 316.06 121.688 315.472C121.688 314.875 121.58 314.38 121.366 313.988C121.16 313.587 120.885 313.288 120.54 313.092C120.204 312.887 119.83 312.784 119.42 312.784C119.028 312.784 118.654 312.887 118.3 313.092C117.954 313.288 117.674 313.587 117.46 313.988C117.254 314.38 117.152 314.875 117.152 315.472C117.152 316.06 117.254 316.555 117.46 316.956C117.674 317.357 117.95 317.661 118.286 317.866C118.631 318.062 119.004 318.16 119.406 318.16ZM127.649 319.168C126.967 319.168 126.37 319.009 125.857 318.692C125.343 318.365 124.947 317.922 124.667 317.362C124.387 316.802 124.247 316.167 124.247 315.458C124.247 314.749 124.387 314.119 124.667 313.568C124.947 313.008 125.343 312.569 125.857 312.252C126.379 311.935 126.981 311.776 127.663 311.776C128.241 311.776 128.745 311.893 129.175 312.126C129.613 312.359 129.949 312.686 130.183 313.106V308.92H131.359V319H130.295L130.197 317.838C130.047 318.071 129.856 318.291 129.623 318.496C129.389 318.692 129.109 318.855 128.783 318.986C128.456 319.107 128.078 319.168 127.649 319.168ZM127.789 318.146C128.255 318.146 128.666 318.034 129.021 317.81C129.375 317.586 129.651 317.278 129.847 316.886C130.043 316.485 130.141 316.013 130.141 315.472C130.141 314.94 130.043 314.473 129.847 314.072C129.651 313.671 129.375 313.358 129.021 313.134C128.666 312.91 128.255 312.798 127.789 312.798C127.331 312.798 126.925 312.91 126.571 313.134C126.216 313.358 125.941 313.671 125.745 314.072C125.549 314.473 125.451 314.94 125.451 315.472C125.451 316.013 125.549 316.485 125.745 316.886C125.941 317.278 126.216 317.586 126.571 317.81C126.925 318.034 127.331 318.146 127.789 318.146ZM136.412 319.168C135.749 319.168 135.161 319.014 134.648 318.706C134.144 318.398 133.747 317.969 133.458 317.418C133.169 316.858 133.024 316.209 133.024 315.472C133.024 314.725 133.164 314.077 133.444 313.526C133.733 312.975 134.135 312.546 134.648 312.238C135.171 311.93 135.768 311.776 136.44 311.776C137.131 311.776 137.714 311.93 138.19 312.238C138.675 312.546 139.044 312.952 139.296 313.456C139.557 313.951 139.688 314.497 139.688 315.094C139.688 315.187 139.688 315.285 139.688 315.388C139.688 315.491 139.683 315.607 139.674 315.738H133.906V314.828H138.54C138.512 314.184 138.297 313.68 137.896 313.316C137.504 312.952 137.009 312.77 136.412 312.77C136.011 312.77 135.637 312.863 135.292 313.05C134.956 313.227 134.685 313.493 134.48 313.848C134.275 314.193 134.172 314.627 134.172 315.15V315.542C134.172 316.121 134.275 316.606 134.48 316.998C134.695 317.39 134.97 317.684 135.306 317.88C135.651 318.076 136.02 318.174 136.412 318.174C136.907 318.174 137.313 318.067 137.63 317.852C137.957 317.628 138.19 317.329 138.33 316.956H139.492C139.38 317.376 139.184 317.754 138.904 318.09C138.624 318.426 138.274 318.692 137.854 318.888C137.443 319.075 136.963 319.168 136.412 319.168ZM139.917 322.08V321.072H140.463C140.818 321.072 141.07 320.997 141.219 320.848C141.368 320.708 141.443 320.465 141.443 320.12V311.944H142.619V320.148C142.619 320.596 142.544 320.96 142.395 321.24C142.246 321.529 142.022 321.739 141.723 321.87C141.434 322.01 141.074 322.08 140.645 322.08H139.917ZM142.045 310.446C141.812 310.446 141.616 310.371 141.457 310.222C141.308 310.063 141.233 309.867 141.233 309.634C141.233 309.401 141.308 309.214 141.457 309.074C141.616 308.925 141.812 308.85 142.045 308.85C142.269 308.85 142.456 308.925 142.605 309.074C142.764 309.214 142.843 309.401 142.843 309.634C142.843 309.867 142.764 310.063 142.605 310.222C142.456 310.371 142.269 310.446 142.045 310.446ZM147.339 319.168C146.751 319.168 146.238 319.07 145.799 318.874C145.37 318.678 145.025 318.407 144.763 318.062C144.511 317.707 144.357 317.292 144.301 316.816H145.505C145.552 317.059 145.65 317.283 145.799 317.488C145.949 317.693 146.149 317.861 146.401 317.992C146.663 318.113 146.98 318.174 147.353 318.174C147.68 318.174 147.951 318.127 148.165 318.034C148.38 317.931 148.539 317.796 148.641 317.628C148.753 317.46 148.809 317.278 148.809 317.082C148.809 316.793 148.739 316.573 148.599 316.424C148.469 316.275 148.273 316.158 148.011 316.074C147.75 315.981 147.433 315.901 147.059 315.836C146.751 315.78 146.448 315.705 146.149 315.612C145.851 315.519 145.585 315.397 145.351 315.248C145.118 315.089 144.931 314.898 144.791 314.674C144.661 314.45 144.595 314.175 144.595 313.848C144.595 313.447 144.698 313.092 144.903 312.784C145.109 312.467 145.403 312.219 145.785 312.042C146.177 311.865 146.63 311.776 147.143 311.776C147.899 311.776 148.511 311.958 148.977 312.322C149.444 312.686 149.719 313.213 149.803 313.904H148.641C148.595 313.549 148.441 313.274 148.179 313.078C147.927 312.873 147.577 312.77 147.129 312.77C146.691 312.77 146.355 312.859 146.121 313.036C145.897 313.213 145.785 313.447 145.785 313.736C145.785 313.923 145.846 314.091 145.967 314.24C146.098 314.38 146.285 314.501 146.527 314.604C146.779 314.707 147.087 314.791 147.451 314.856C147.918 314.94 148.343 315.052 148.725 315.192C149.108 315.332 149.416 315.542 149.649 315.822C149.892 316.093 150.013 316.48 150.013 316.984C150.013 317.423 149.901 317.805 149.677 318.132C149.463 318.459 149.155 318.715 148.753 318.902C148.352 319.079 147.881 319.168 147.339 319.168ZM152.422 321.03H151.218V320.918C151.787 320.358 152.282 319.733 152.702 319.042C153.131 318.351 153.462 317.614 153.696 316.83C153.938 316.037 154.06 315.206 154.06 314.338C154.06 313.47 153.938 312.644 153.696 311.86C153.462 311.067 153.131 310.325 152.702 309.634C152.282 308.943 151.787 308.318 151.218 307.758V307.646H152.422C152.935 308.122 153.402 308.696 153.822 309.368C154.251 310.04 154.592 310.791 154.844 311.622C155.105 312.453 155.236 313.358 155.236 314.338C155.236 315.318 155.105 316.223 154.844 317.054C154.592 317.885 154.251 318.631 153.822 319.294C153.402 319.966 152.935 320.545 152.422 321.03ZM160.607 319V311.944H161.671L161.755 313.288C161.914 312.971 162.114 312.7 162.357 312.476C162.609 312.252 162.908 312.079 163.253 311.958C163.608 311.837 164.009 311.776 164.457 311.776V313.008H164.023C163.724 313.008 163.44 313.05 163.169 313.134C162.898 313.209 162.656 313.335 162.441 313.512C162.236 313.689 162.072 313.932 161.951 314.24C161.839 314.539 161.783 314.912 161.783 315.36V319H160.607ZM168.351 319.168C167.809 319.168 167.333 319.061 166.923 318.846C166.521 318.631 166.209 318.3 165.985 317.852C165.77 317.404 165.663 316.844 165.663 316.172V311.944H166.839V316.046C166.839 316.746 166.993 317.273 167.301 317.628C167.609 317.983 168.043 318.16 168.603 318.16C168.995 318.16 169.349 318.067 169.667 317.88C169.984 317.684 170.231 317.409 170.409 317.054C170.595 316.69 170.689 316.247 170.689 315.724V311.944H171.865V319H170.801L170.731 317.768C170.516 318.207 170.199 318.552 169.779 318.804C169.359 319.047 168.883 319.168 168.351 319.168ZM173.814 319V311.944H174.878L174.934 313.176C175.158 312.737 175.475 312.397 175.886 312.154C176.306 311.902 176.782 311.776 177.314 311.776C177.865 311.776 178.341 311.888 178.742 312.112C179.143 312.327 179.456 312.658 179.68 313.106C179.904 313.545 180.016 314.105 180.016 314.786V319H178.84V314.912C178.84 314.203 178.681 313.671 178.364 313.316C178.056 312.961 177.617 312.784 177.048 312.784C176.656 312.784 176.306 312.882 175.998 313.078C175.69 313.265 175.443 313.54 175.256 313.904C175.079 314.259 174.99 314.702 174.99 315.234V319H173.814ZM181.881 320.61V319.504H189.105V320.61H181.881ZM191.207 319V311.944H192.383V319H191.207ZM191.795 310.446C191.562 310.446 191.366 310.371 191.207 310.222C191.058 310.063 190.983 309.867 190.983 309.634C190.983 309.401 191.058 309.214 191.207 309.074C191.366 308.925 191.562 308.85 191.795 308.85C192.019 308.85 192.211 308.925 192.369 309.074C192.528 309.214 192.607 309.401 192.607 309.634C192.607 309.867 192.528 310.063 192.369 310.222C192.211 310.371 192.019 310.446 191.795 310.446ZM194.459 319V311.944H195.523L195.579 313.176C195.803 312.737 196.12 312.397 196.531 312.154C196.951 311.902 197.427 311.776 197.959 311.776C198.509 311.776 198.985 311.888 199.387 312.112C199.788 312.327 200.101 312.658 200.325 313.106C200.549 313.545 200.661 314.105 200.661 314.786V319H199.485V314.912C199.485 314.203 199.326 313.671 199.009 313.316C198.701 312.961 198.262 312.784 197.693 312.784C197.301 312.784 196.951 312.882 196.643 313.078C196.335 313.265 196.087 313.54 195.901 313.904C195.723 314.259 195.635 314.702 195.635 315.234V319H194.459ZM204.391 319L201.717 311.944H202.949L205.077 317.866L207.219 311.944H208.423L205.749 319H204.391ZM212.482 319.168C211.82 319.168 211.232 319.014 210.718 318.706C210.214 318.398 209.818 317.969 209.528 317.418C209.239 316.858 209.094 316.209 209.094 315.472C209.094 314.725 209.234 314.077 209.514 313.526C209.804 312.975 210.205 312.546 210.718 312.238C211.241 311.93 211.838 311.776 212.51 311.776C213.201 311.776 213.784 311.93 214.26 312.238C214.746 312.546 215.114 312.952 215.366 313.456C215.628 313.951 215.758 314.497 215.758 315.094C215.758 315.187 215.758 315.285 215.758 315.388C215.758 315.491 215.754 315.607 215.744 315.738H209.976V314.828H214.61C214.582 314.184 214.368 313.68 213.966 313.316C213.574 312.952 213.08 312.77 212.482 312.77C212.081 312.77 211.708 312.863 211.362 313.05C211.026 313.227 210.756 313.493 210.55 313.848C210.345 314.193 210.242 314.627 210.242 315.15V315.542C210.242 316.121 210.345 316.606 210.55 316.998C210.765 317.39 211.04 317.684 211.376 317.88C211.722 318.076 212.09 318.174 212.482 318.174C212.977 318.174 213.383 318.067 213.7 317.852C214.027 317.628 214.26 317.329 214.4 316.956H215.562C215.45 317.376 215.254 317.754 214.974 318.09C214.694 318.426 214.344 318.692 213.924 318.888C213.514 319.075 213.033 319.168 212.482 319.168ZM217.345 319V311.944H218.409L218.465 313.176C218.689 312.737 219.007 312.397 219.417 312.154C219.837 311.902 220.313 311.776 220.845 311.776C221.396 311.776 221.872 311.888 222.273 312.112C222.675 312.327 222.987 312.658 223.211 313.106C223.435 313.545 223.547 314.105 223.547 314.786V319H222.371V314.912C222.371 314.203 222.213 313.671 221.895 313.316C221.587 312.961 221.149 312.784 220.579 312.784C220.187 312.784 219.837 312.882 219.529 313.078C219.221 313.265 218.974 313.54 218.787 313.904C218.61 314.259 218.521 314.702 218.521 315.234V319H217.345ZM228.156 319C227.736 319 227.372 318.935 227.064 318.804C226.756 318.673 226.518 318.454 226.35 318.146C226.192 317.829 226.112 317.404 226.112 316.872V312.938H224.88V311.944H226.112L226.266 310.236H227.288V311.944H229.332V312.938H227.288V316.872C227.288 317.311 227.377 317.609 227.554 317.768C227.732 317.917 228.044 317.992 228.492 317.992H229.248V319H228.156ZM233.825 319.168C233.172 319.168 232.584 319.019 232.061 318.72C231.539 318.412 231.128 317.983 230.829 317.432C230.531 316.872 230.381 316.223 230.381 315.486C230.381 314.73 230.531 314.077 230.829 313.526C231.137 312.966 231.553 312.537 232.075 312.238C232.607 311.93 233.2 311.776 233.853 311.776C234.525 311.776 235.118 311.93 235.631 312.238C236.154 312.537 236.565 312.966 236.863 313.526C237.171 314.077 237.325 314.725 237.325 315.472C237.325 316.219 237.171 316.872 236.863 317.432C236.555 317.983 236.14 318.412 235.617 318.72C235.095 319.019 234.497 319.168 233.825 319.168ZM233.839 318.16C234.241 318.16 234.614 318.062 234.959 317.866C235.305 317.661 235.585 317.357 235.799 316.956C236.014 316.555 236.121 316.06 236.121 315.472C236.121 314.875 236.014 314.38 235.799 313.988C235.594 313.587 235.319 313.288 234.973 313.092C234.637 312.887 234.264 312.784 233.853 312.784C233.461 312.784 233.088 312.887 232.733 313.092C232.388 313.288 232.108 313.587 231.893 313.988C231.688 314.38 231.585 314.875 231.585 315.472C231.585 316.06 231.688 316.555 231.893 316.956C232.108 317.357 232.383 317.661 232.719 317.866C233.065 318.062 233.438 318.16 233.839 318.16ZM238.974 319V311.944H240.038L240.122 313.288C240.281 312.971 240.481 312.7 240.724 312.476C240.976 312.252 241.275 312.079 241.62 311.958C241.975 311.837 242.376 311.776 242.824 311.776V313.008H242.39C242.091 313.008 241.807 313.05 241.536 313.134C241.265 313.209 241.023 313.335 240.808 313.512C240.603 313.689 240.439 313.932 240.318 314.24C240.206 314.539 240.15 314.912 240.15 315.36V319H238.974ZM244.926 322.08L246.648 318.216H246.242L243.47 311.944H244.744L247.04 317.334L249.448 311.944H250.666L246.158 322.08H244.926Z" fill="#EEEFF1"/>
<rect x="92" y="328" width="274" height="28" rx="10" fill="#232529"/>
<path d="M105.486 349.03C104.982 348.545 104.515 347.966 104.086 347.294C103.657 346.631 103.311 345.885 103.05 345.054C102.798 344.223 102.672 343.318 102.672 342.338C102.672 341.358 102.798 340.453 103.05 339.622C103.311 338.791 103.657 338.04 104.086 337.368C104.515 336.696 104.982 336.122 105.486 335.646H106.69V335.758C106.121 336.318 105.621 336.943 105.192 337.634C104.772 338.325 104.441 339.067 104.198 339.86C103.965 340.644 103.848 341.47 103.848 342.338C103.848 343.206 103.965 344.037 104.198 344.83C104.441 345.614 104.777 346.351 105.206 347.042C105.635 347.733 106.13 348.358 106.69 348.918V349.03H105.486ZM106.845 350.08V349.072H107.391C107.745 349.072 107.997 348.997 108.147 348.848C108.296 348.708 108.371 348.465 108.371 348.12V339.944H109.547V348.148C109.547 348.596 109.472 348.96 109.323 349.24C109.173 349.529 108.949 349.739 108.651 349.87C108.361 350.01 108.002 350.08 107.573 350.08H106.845ZM108.973 338.446C108.739 338.446 108.543 338.371 108.385 338.222C108.235 338.063 108.161 337.867 108.161 337.634C108.161 337.401 108.235 337.214 108.385 337.074C108.543 336.925 108.739 336.85 108.973 336.85C109.197 336.85 109.383 336.925 109.533 337.074C109.691 337.214 109.771 337.401 109.771 337.634C109.771 337.867 109.691 338.063 109.533 338.222C109.383 338.371 109.197 338.446 108.973 338.446ZM113.903 347.168C113.334 347.168 112.858 347.07 112.475 346.874C112.092 346.669 111.808 346.403 111.621 346.076C111.434 345.74 111.341 345.376 111.341 344.984C111.341 344.508 111.462 344.107 111.705 343.78C111.957 343.444 112.307 343.192 112.755 343.024C113.212 342.847 113.749 342.758 114.365 342.758H116.227C116.227 342.319 116.157 341.955 116.017 341.666C115.886 341.367 115.69 341.143 115.429 340.994C115.177 340.845 114.86 340.77 114.477 340.77C114.029 340.77 113.642 340.882 113.315 341.106C112.988 341.33 112.788 341.661 112.713 342.1H111.509C111.565 341.596 111.733 341.176 112.013 340.84C112.302 340.495 112.666 340.233 113.105 340.056C113.544 339.869 114.001 339.776 114.477 339.776C115.13 339.776 115.672 339.897 116.101 340.14C116.54 340.373 116.866 340.705 117.081 341.134C117.296 341.554 117.403 342.053 117.403 342.632V347H116.353L116.283 345.754C116.19 345.95 116.068 346.137 115.919 346.314C115.779 346.482 115.611 346.631 115.415 346.762C115.219 346.883 114.995 346.981 114.743 347.056C114.5 347.131 114.22 347.168 113.903 347.168ZM114.085 346.174C114.412 346.174 114.706 346.109 114.967 345.978C115.238 345.838 115.466 345.651 115.653 345.418C115.84 345.175 115.98 344.909 116.073 344.62C116.176 344.331 116.227 344.027 116.227 343.71V343.668H114.463C114.006 343.668 113.637 343.724 113.357 343.836C113.077 343.939 112.876 344.088 112.755 344.284C112.634 344.471 112.573 344.685 112.573 344.928C112.573 345.18 112.629 345.399 112.741 345.586C112.862 345.773 113.035 345.917 113.259 346.02C113.492 346.123 113.768 346.174 114.085 346.174ZM120.992 347L118.318 339.944H119.55L121.678 345.866L123.82 339.944H125.024L122.35 347H120.992ZM128.286 347.168C127.716 347.168 127.24 347.07 126.858 346.874C126.475 346.669 126.19 346.403 126.004 346.076C125.817 345.74 125.724 345.376 125.724 344.984C125.724 344.508 125.845 344.107 126.088 343.78C126.34 343.444 126.69 343.192 127.138 343.024C127.595 342.847 128.132 342.758 128.748 342.758H130.61C130.61 342.319 130.54 341.955 130.4 341.666C130.269 341.367 130.073 341.143 129.812 340.994C129.56 340.845 129.242 340.77 128.86 340.77C128.412 340.77 128.024 340.882 127.698 341.106C127.371 341.33 127.17 341.661 127.096 342.1H125.892C125.948 341.596 126.116 341.176 126.396 340.84C126.685 340.495 127.049 340.233 127.488 340.056C127.926 339.869 128.384 339.776 128.86 339.776C129.513 339.776 130.054 339.897 130.484 340.14C130.922 340.373 131.249 340.705 131.464 341.134C131.678 341.554 131.786 342.053 131.786 342.632V347H130.736L130.666 345.754C130.572 345.95 130.451 346.137 130.302 346.314C130.162 346.482 129.994 346.631 129.798 346.762C129.602 346.883 129.378 346.981 129.126 347.056C128.883 347.131 128.603 347.168 128.286 347.168ZM128.468 346.174C128.794 346.174 129.088 346.109 129.35 345.978C129.62 345.838 129.849 345.651 130.036 345.418C130.222 345.175 130.362 344.909 130.456 344.62C130.558 344.331 130.61 344.027 130.61 343.71V343.668H128.846C128.388 343.668 128.02 343.724 127.74 343.836C127.46 343.939 127.259 344.088 127.138 344.284C127.016 344.471 126.956 344.685 126.956 344.928C126.956 345.18 127.012 345.399 127.124 345.586C127.245 345.773 127.418 345.917 127.642 346.02C127.875 346.123 128.15 346.174 128.468 346.174ZM134.361 349.03H133.157V348.918C133.726 348.358 134.221 347.733 134.641 347.042C135.07 346.351 135.402 345.614 135.635 344.83C135.878 344.037 135.999 343.206 135.999 342.338C135.999 341.47 135.878 340.644 135.635 339.86C135.402 339.067 135.07 338.325 134.641 337.634C134.221 336.943 133.726 336.318 133.157 335.758V335.646H134.361C134.874 336.122 135.341 336.696 135.761 337.368C136.19 338.04 136.531 338.791 136.783 339.622C137.044 340.453 137.175 341.358 137.175 342.338C137.175 343.318 137.044 344.223 136.783 345.054C136.531 345.885 136.19 346.631 135.761 347.294C135.341 347.966 134.874 348.545 134.361 349.03ZM142.546 347V339.944H143.61L143.68 340.952C143.904 340.588 144.203 340.303 144.576 340.098C144.959 339.883 145.374 339.776 145.822 339.776C146.186 339.776 146.513 339.827 146.802 339.93C147.101 340.023 147.362 340.173 147.586 340.378C147.81 340.574 147.992 340.826 148.132 341.134C148.375 340.705 148.706 340.373 149.126 340.14C149.556 339.897 150.013 339.776 150.498 339.776C151.04 339.776 151.511 339.888 151.912 340.112C152.323 340.327 152.636 340.658 152.85 341.106C153.074 341.545 153.186 342.105 153.186 342.786V347H152.024V342.912C152.024 342.203 151.88 341.671 151.59 341.316C151.301 340.961 150.895 340.784 150.372 340.784C150.008 340.784 149.682 340.882 149.392 341.078C149.103 341.265 148.874 341.54 148.706 341.904C148.538 342.268 148.454 342.716 148.454 343.248V347H147.278V342.912C147.278 342.203 147.134 341.671 146.844 341.316C146.555 340.961 146.144 340.784 145.612 340.784C145.258 340.784 144.936 340.882 144.646 341.078C144.366 341.265 144.142 341.54 143.974 341.904C143.806 342.268 143.722 342.716 143.722 343.248V347H142.546ZM158.165 347.168C157.512 347.168 156.924 347.019 156.401 346.72C155.878 346.412 155.468 345.983 155.169 345.432C154.87 344.872 154.721 344.223 154.721 343.486C154.721 342.73 154.87 342.077 155.169 341.526C155.477 340.966 155.892 340.537 156.415 340.238C156.947 339.93 157.54 339.776 158.193 339.776C158.865 339.776 159.458 339.93 159.971 340.238C160.494 340.537 160.904 340.966 161.203 341.526C161.511 342.077 161.665 342.725 161.665 343.472C161.665 344.219 161.511 344.872 161.203 345.432C160.895 345.983 160.48 346.412 159.957 346.72C159.434 347.019 158.837 347.168 158.165 347.168ZM158.179 346.16C158.58 346.16 158.954 346.062 159.299 345.866C159.644 345.661 159.924 345.357 160.139 344.956C160.354 344.555 160.461 344.06 160.461 343.472C160.461 342.875 160.354 342.38 160.139 341.988C159.934 341.587 159.658 341.288 159.313 341.092C158.977 340.887 158.604 340.784 158.193 340.784C157.801 340.784 157.428 340.887 157.073 341.092C156.728 341.288 156.448 341.587 156.233 341.988C156.028 342.38 155.925 342.875 155.925 343.472C155.925 344.06 156.028 344.555 156.233 344.956C156.448 345.357 156.723 345.661 157.059 345.866C157.404 346.062 157.778 346.16 158.179 346.16ZM164.989 347L162.315 339.944H163.547L165.675 345.866L167.817 339.944H169.021L166.347 347H164.989ZM173.08 347.168C172.417 347.168 171.829 347.014 171.316 346.706C170.812 346.398 170.415 345.969 170.126 345.418C169.837 344.858 169.692 344.209 169.692 343.472C169.692 342.725 169.832 342.077 170.112 341.526C170.401 340.975 170.803 340.546 171.316 340.238C171.839 339.93 172.436 339.776 173.108 339.776C173.799 339.776 174.382 339.93 174.858 340.238C175.343 340.546 175.712 340.952 175.964 341.456C176.225 341.951 176.356 342.497 176.356 343.094C176.356 343.187 176.356 343.285 176.356 343.388C176.356 343.491 176.351 343.607 176.342 343.738H170.574V342.828H175.208C175.18 342.184 174.965 341.68 174.564 341.316C174.172 340.952 173.677 340.77 173.08 340.77C172.679 340.77 172.305 340.863 171.96 341.05C171.624 341.227 171.353 341.493 171.148 341.848C170.943 342.193 170.84 342.627 170.84 343.15V343.542C170.84 344.121 170.943 344.606 171.148 344.998C171.363 345.39 171.638 345.684 171.974 345.88C172.319 346.076 172.688 346.174 173.08 346.174C173.575 346.174 173.981 346.067 174.298 345.852C174.625 345.628 174.858 345.329 174.998 344.956H176.16C176.048 345.376 175.852 345.754 175.572 346.09C175.292 346.426 174.942 346.692 174.522 346.888C174.111 347.075 173.631 347.168 173.08 347.168ZM177.971 348.61V347.504H185.195V348.61H177.971ZM190.335 347.168C189.682 347.168 189.094 347.019 188.571 346.72C188.048 346.412 187.638 345.983 187.339 345.432C187.04 344.872 186.891 344.223 186.891 343.486C186.891 342.73 187.04 342.077 187.339 341.526C187.647 340.966 188.062 340.537 188.585 340.238C189.117 339.93 189.71 339.776 190.363 339.776C191.035 339.776 191.628 339.93 192.141 340.238C192.664 340.537 193.074 340.966 193.373 341.526C193.681 342.077 193.835 342.725 193.835 343.472C193.835 344.219 193.681 344.872 193.373 345.432C193.065 345.983 192.65 346.412 192.127 346.72C191.604 347.019 191.007 347.168 190.335 347.168ZM190.349 346.16C190.75 346.16 191.124 346.062 191.469 345.866C191.814 345.661 192.094 345.357 192.309 344.956C192.524 344.555 192.631 344.06 192.631 343.472C192.631 342.875 192.524 342.38 192.309 341.988C192.104 341.587 191.828 341.288 191.483 341.092C191.147 340.887 190.774 340.784 190.363 340.784C189.971 340.784 189.598 340.887 189.243 341.092C188.898 341.288 188.618 341.587 188.403 341.988C188.198 342.38 188.095 342.875 188.095 343.472C188.095 344.06 188.198 344.555 188.403 344.956C188.618 345.357 188.893 345.661 189.229 345.866C189.574 346.062 189.948 346.16 190.349 346.16ZM195.484 347V339.944H196.548L196.632 341.288C196.791 340.971 196.991 340.7 197.234 340.476C197.486 340.252 197.785 340.079 198.13 339.958C198.485 339.837 198.886 339.776 199.334 339.776V341.008H198.9C198.601 341.008 198.317 341.05 198.046 341.134C197.775 341.209 197.533 341.335 197.318 341.512C197.113 341.689 196.949 341.932 196.828 342.24C196.716 342.539 196.66 342.912 196.66 343.36V347H195.484ZM203.514 347.168C202.832 347.168 202.235 347.009 201.722 346.692C201.208 346.365 200.812 345.922 200.532 345.362C200.252 344.802 200.112 344.167 200.112 343.458C200.112 342.749 200.252 342.119 200.532 341.568C200.812 341.008 201.208 340.569 201.722 340.252C202.244 339.935 202.846 339.776 203.528 339.776C204.106 339.776 204.61 339.893 205.04 340.126C205.478 340.359 205.814 340.686 206.048 341.106V336.92H207.224V347H206.16L206.062 345.838C205.912 346.071 205.721 346.291 205.488 346.496C205.254 346.692 204.974 346.855 204.648 346.986C204.321 347.107 203.943 347.168 203.514 347.168ZM203.654 346.146C204.12 346.146 204.531 346.034 204.886 345.81C205.24 345.586 205.516 345.278 205.712 344.886C205.908 344.485 206.006 344.013 206.006 343.472C206.006 342.94 205.908 342.473 205.712 342.072C205.516 341.671 205.24 341.358 204.886 341.134C204.531 340.91 204.12 340.798 203.654 340.798C203.196 340.798 202.79 340.91 202.436 341.134C202.081 341.358 201.806 341.671 201.61 342.072C201.414 342.473 201.316 342.94 201.316 343.472C201.316 344.013 201.414 344.485 201.61 344.886C201.806 345.278 202.081 345.586 202.436 345.81C202.79 346.034 203.196 346.146 203.654 346.146ZM212.277 347.168C211.614 347.168 211.026 347.014 210.513 346.706C210.009 346.398 209.612 345.969 209.323 345.418C209.034 344.858 208.889 344.209 208.889 343.472C208.889 342.725 209.029 342.077 209.309 341.526C209.598 340.975 210 340.546 210.513 340.238C211.036 339.93 211.633 339.776 212.305 339.776C212.996 339.776 213.579 339.93 214.055 340.238C214.54 340.546 214.909 340.952 215.161 341.456C215.422 341.951 215.553 342.497 215.553 343.094C215.553 343.187 215.553 343.285 215.553 343.388C215.553 343.491 215.548 343.607 215.539 343.738H209.771V342.828H214.405C214.377 342.184 214.162 341.68 213.761 341.316C213.369 340.952 212.874 340.77 212.277 340.77C211.876 340.77 211.502 340.863 211.157 341.05C210.821 341.227 210.55 341.493 210.345 341.848C210.14 342.193 210.037 342.627 210.037 343.15V343.542C210.037 344.121 210.14 344.606 210.345 344.998C210.56 345.39 210.835 345.684 211.171 345.88C211.516 346.076 211.885 346.174 212.277 346.174C212.772 346.174 213.178 346.067 213.495 345.852C213.822 345.628 214.055 345.329 214.195 344.956H215.357C215.245 345.376 215.049 345.754 214.769 346.09C214.489 346.426 214.139 346.692 213.719 346.888C213.308 347.075 212.828 347.168 212.277 347.168ZM217.14 347V339.944H218.204L218.288 341.288C218.447 340.971 218.647 340.7 218.89 340.476C219.142 340.252 219.441 340.079 219.786 339.958C220.141 339.837 220.542 339.776 220.99 339.776V341.008H220.556C220.257 341.008 219.973 341.05 219.702 341.134C219.431 341.209 219.189 341.335 218.974 341.512C218.769 341.689 218.605 341.932 218.484 342.24C218.372 342.539 218.316 342.912 218.316 343.36V347H217.14ZM224.982 347.168C224.394 347.168 223.88 347.07 223.442 346.874C223.012 346.678 222.667 346.407 222.406 346.062C222.154 345.707 222 345.292 221.944 344.816H223.148C223.194 345.059 223.292 345.283 223.442 345.488C223.591 345.693 223.792 345.861 224.044 345.992C224.305 346.113 224.622 346.174 224.996 346.174C225.322 346.174 225.593 346.127 225.808 346.034C226.022 345.931 226.181 345.796 226.284 345.628C226.396 345.46 226.452 345.278 226.452 345.082C226.452 344.793 226.382 344.573 226.242 344.424C226.111 344.275 225.915 344.158 225.654 344.074C225.392 343.981 225.075 343.901 224.702 343.836C224.394 343.78 224.09 343.705 223.792 343.612C223.493 343.519 223.227 343.397 222.994 343.248C222.76 343.089 222.574 342.898 222.434 342.674C222.303 342.45 222.238 342.175 222.238 341.848C222.238 341.447 222.34 341.092 222.546 340.784C222.751 340.467 223.045 340.219 223.428 340.042C223.82 339.865 224.272 339.776 224.786 339.776C225.542 339.776 226.153 339.958 226.62 340.322C227.086 340.686 227.362 341.213 227.446 341.904H226.284C226.237 341.549 226.083 341.274 225.822 341.078C225.57 340.873 225.22 340.77 224.772 340.77C224.333 340.77 223.997 340.859 223.764 341.036C223.54 341.213 223.428 341.447 223.428 341.736C223.428 341.923 223.488 342.091 223.61 342.24C223.74 342.38 223.927 342.501 224.17 342.604C224.422 342.707 224.73 342.791 225.094 342.856C225.56 342.94 225.985 343.052 226.368 343.192C226.75 343.332 227.058 343.542 227.292 343.822C227.534 344.093 227.656 344.48 227.656 344.984C227.656 345.423 227.544 345.805 227.32 346.132C227.105 346.459 226.797 346.715 226.396 346.902C225.994 347.079 225.523 347.168 224.982 347.168Z" fill="#EEEFF1"/>
<rect x="92" y="356" width="274" height="28" rx="10" fill="#232529"/>
<path d="M105.486 377.03C104.982 376.545 104.515 375.966 104.086 375.294C103.657 374.631 103.311 373.885 103.05 373.054C102.798 372.223 102.672 371.318 102.672 370.338C102.672 369.358 102.798 368.453 103.05 367.622C103.311 366.791 103.657 366.04 104.086 365.368C104.515 364.696 104.982 364.122 105.486 363.646H106.69V363.758C106.121 364.318 105.621 364.943 105.192 365.634C104.772 366.325 104.441 367.067 104.198 367.86C103.965 368.644 103.848 369.47 103.848 370.338C103.848 371.206 103.965 372.037 104.198 372.83C104.441 373.614 104.777 374.351 105.206 375.042C105.635 375.733 106.13 376.358 106.69 376.918V377.03H105.486ZM108.203 375V367.944H109.267L109.351 369.288C109.509 368.971 109.71 368.7 109.953 368.476C110.205 368.252 110.503 368.079 110.849 367.958C111.203 367.837 111.605 367.776 112.053 367.776V369.008H111.619C111.32 369.008 111.035 369.05 110.765 369.134C110.494 369.209 110.251 369.335 110.037 369.512C109.831 369.689 109.668 369.932 109.547 370.24C109.435 370.539 109.379 370.912 109.379 371.36V375H108.203ZM115.946 375.168C115.405 375.168 114.929 375.061 114.518 374.846C114.117 374.631 113.804 374.3 113.58 373.852C113.366 373.404 113.258 372.844 113.258 372.172V367.944H114.434V372.046C114.434 372.746 114.588 373.273 114.896 373.628C115.204 373.983 115.638 374.16 116.198 374.16C116.59 374.16 116.945 374.067 117.262 373.88C117.58 373.684 117.827 373.409 118.004 373.054C118.191 372.69 118.284 372.247 118.284 371.724V367.944H119.46V375H118.396L118.326 373.768C118.112 374.207 117.794 374.552 117.374 374.804C116.954 375.047 116.478 375.168 115.946 375.168ZM124.07 375.168C123.482 375.168 122.968 375.07 122.53 374.874C122.1 374.678 121.755 374.407 121.494 374.062C121.242 373.707 121.088 373.292 121.032 372.816H122.236C122.282 373.059 122.38 373.283 122.53 373.488C122.679 373.693 122.88 373.861 123.132 373.992C123.393 374.113 123.71 374.174 124.084 374.174C124.41 374.174 124.681 374.127 124.896 374.034C125.11 373.931 125.269 373.796 125.372 373.628C125.484 373.46 125.54 373.278 125.54 373.082C125.54 372.793 125.47 372.573 125.33 372.424C125.199 372.275 125.003 372.158 124.742 372.074C124.48 371.981 124.163 371.901 123.79 371.836C123.482 371.78 123.178 371.705 122.88 371.612C122.581 371.519 122.315 371.397 122.082 371.248C121.848 371.089 121.662 370.898 121.522 370.674C121.391 370.45 121.326 370.175 121.326 369.848C121.326 369.447 121.428 369.092 121.634 368.784C121.839 368.467 122.133 368.219 122.516 368.042C122.908 367.865 123.36 367.776 123.874 367.776C124.63 367.776 125.241 367.958 125.708 368.322C126.174 368.686 126.45 369.213 126.534 369.904H125.372C125.325 369.549 125.171 369.274 124.91 369.078C124.658 368.873 124.308 368.77 123.86 368.77C123.421 368.77 123.085 368.859 122.852 369.036C122.628 369.213 122.516 369.447 122.516 369.736C122.516 369.923 122.576 370.091 122.698 370.24C122.828 370.38 123.015 370.501 123.258 370.604C123.51 370.707 123.818 370.791 124.182 370.856C124.648 370.94 125.073 371.052 125.456 371.192C125.838 371.332 126.146 371.542 126.38 371.822C126.622 372.093 126.744 372.48 126.744 372.984C126.744 373.423 126.632 373.805 126.408 374.132C126.193 374.459 125.885 374.715 125.484 374.902C125.082 375.079 124.611 375.168 124.07 375.168ZM130.895 375C130.475 375 130.111 374.935 129.803 374.804C129.495 374.673 129.257 374.454 129.089 374.146C128.93 373.829 128.851 373.404 128.851 372.872V368.938H127.619V367.944H128.851L129.005 366.236H130.027V367.944H132.071V368.938H130.027V372.872C130.027 373.311 130.115 373.609 130.293 373.768C130.47 373.917 130.783 373.992 131.231 373.992H131.987V375H130.895ZM134.361 377.03H133.157V376.918C133.726 376.358 134.221 375.733 134.641 375.042C135.07 374.351 135.402 373.614 135.635 372.83C135.878 372.037 135.999 371.206 135.999 370.338C135.999 369.47 135.878 368.644 135.635 367.86C135.402 367.067 135.07 366.325 134.641 365.634C134.221 364.943 133.726 364.318 133.157 363.758V363.646H134.361C134.874 364.122 135.341 364.696 135.761 365.368C136.19 366.04 136.531 366.791 136.783 367.622C137.044 368.453 137.175 369.358 137.175 370.338C137.175 371.318 137.044 372.223 136.783 373.054C136.531 373.885 136.19 374.631 135.761 375.294C135.341 375.966 134.874 376.545 134.361 377.03ZM145.332 378.248C144.698 378.248 144.133 378.164 143.638 377.996C143.153 377.837 142.775 377.59 142.504 377.254C142.234 376.918 142.098 376.503 142.098 376.008C142.098 375.793 142.14 375.565 142.224 375.322C142.318 375.079 142.472 374.841 142.686 374.608C142.91 374.375 143.223 374.165 143.624 373.978L144.436 374.454C143.942 374.659 143.62 374.893 143.47 375.154C143.321 375.425 143.246 375.672 143.246 375.896C143.246 376.204 143.335 376.461 143.512 376.666C143.69 376.871 143.937 377.025 144.254 377.128C144.572 377.231 144.931 377.282 145.332 377.282C145.734 377.282 146.079 377.226 146.368 377.114C146.658 377.002 146.882 376.843 147.04 376.638C147.199 376.433 147.278 376.19 147.278 375.91C147.278 375.583 147.157 375.308 146.914 375.084C146.672 374.869 146.21 374.743 145.528 374.706C144.978 374.669 144.516 374.617 144.142 374.552C143.769 374.487 143.461 374.412 143.218 374.328C142.976 374.235 142.77 374.132 142.602 374.02C142.444 373.908 142.299 373.791 142.168 373.67V373.348L143.526 372.004L144.548 372.368L143.148 373.628L143.33 373.138C143.433 373.213 143.531 373.283 143.624 373.348C143.718 373.413 143.844 373.469 144.002 373.516C144.161 373.563 144.38 373.605 144.66 373.642C144.95 373.679 145.328 373.717 145.794 373.754C146.438 373.801 146.952 373.913 147.334 374.09C147.726 374.267 148.006 374.505 148.174 374.804C148.352 375.103 148.44 375.457 148.44 375.868C148.44 376.269 148.328 376.647 148.104 377.002C147.89 377.366 147.554 377.665 147.096 377.898C146.639 378.131 146.051 378.248 145.332 378.248ZM145.318 372.788C144.73 372.788 144.226 372.676 143.806 372.452C143.396 372.228 143.083 371.929 142.868 371.556C142.654 371.173 142.546 370.749 142.546 370.282C142.546 369.815 142.654 369.395 142.868 369.022C143.092 368.649 143.41 368.35 143.82 368.126C144.231 367.893 144.73 367.776 145.318 367.776C145.906 367.776 146.406 367.893 146.816 368.126C147.227 368.35 147.54 368.649 147.754 369.022C147.969 369.395 148.076 369.815 148.076 370.282C148.076 370.749 147.969 371.173 147.754 371.556C147.54 371.929 147.227 372.228 146.816 372.452C146.406 372.676 145.906 372.788 145.318 372.788ZM145.318 371.822C145.822 371.822 146.219 371.691 146.508 371.43C146.798 371.169 146.942 370.786 146.942 370.282C146.942 369.787 146.798 369.409 146.508 369.148C146.219 368.887 145.822 368.756 145.318 368.756C144.824 368.756 144.422 368.887 144.114 369.148C143.816 369.409 143.666 369.787 143.666 370.282C143.666 370.786 143.816 371.169 144.114 371.43C144.413 371.691 144.814 371.822 145.318 371.822ZM146.466 368.938L146.116 367.944H149V368.826L146.466 368.938ZM153.174 375.168C152.511 375.168 151.923 375.014 151.41 374.706C150.906 374.398 150.509 373.969 150.22 373.418C149.93 372.858 149.786 372.209 149.786 371.472C149.786 370.725 149.926 370.077 150.206 369.526C150.495 368.975 150.896 368.546 151.41 368.238C151.932 367.93 152.53 367.776 153.202 367.776C153.892 367.776 154.476 367.93 154.952 368.238C155.437 368.546 155.806 368.952 156.058 369.456C156.319 369.951 156.45 370.497 156.45 371.094C156.45 371.187 156.45 371.285 156.45 371.388C156.45 371.491 156.445 371.607 156.436 371.738H150.668V370.828H155.302C155.274 370.184 155.059 369.68 154.658 369.316C154.266 368.952 153.771 368.77 153.174 368.77C152.772 368.77 152.399 368.863 152.054 369.05C151.718 369.227 151.447 369.493 151.242 369.848C151.036 370.193 150.934 370.627 150.934 371.15V371.542C150.934 372.121 151.036 372.606 151.242 372.998C151.456 373.39 151.732 373.684 152.068 373.88C152.413 374.076 152.782 374.174 153.174 374.174C153.668 374.174 154.074 374.067 154.392 373.852C154.718 373.628 154.952 373.329 155.092 372.956H156.254C156.142 373.376 155.946 373.754 155.666 374.09C155.386 374.426 155.036 374.692 154.616 374.888C154.205 375.075 153.724 375.168 153.174 375.168ZM158.037 375V367.944H159.101L159.157 369.176C159.381 368.737 159.698 368.397 160.109 368.154C160.529 367.902 161.005 367.776 161.537 367.776C162.087 367.776 162.563 367.888 162.965 368.112C163.366 368.327 163.679 368.658 163.903 369.106C164.127 369.545 164.239 370.105 164.239 370.786V375H163.063V370.912C163.063 370.203 162.904 369.671 162.587 369.316C162.279 368.961 161.84 368.784 161.271 368.784C160.879 368.784 160.529 368.882 160.221 369.078C159.913 369.265 159.665 369.54 159.479 369.904C159.301 370.259 159.213 370.702 159.213 371.234V375H158.037ZM169.17 375.168C168.507 375.168 167.919 375.014 167.406 374.706C166.902 374.398 166.505 373.969 166.216 373.418C165.926 372.858 165.782 372.209 165.782 371.472C165.782 370.725 165.922 370.077 166.202 369.526C166.491 368.975 166.892 368.546 167.406 368.238C167.928 367.93 168.526 367.776 169.198 367.776C169.888 367.776 170.472 367.93 170.948 368.238C171.433 368.546 171.802 368.952 172.054 369.456C172.315 369.951 172.446 370.497 172.446 371.094C172.446 371.187 172.446 371.285 172.446 371.388C172.446 371.491 172.441 371.607 172.432 371.738H166.664V370.828H171.298C171.27 370.184 171.055 369.68 170.654 369.316C170.262 368.952 169.767 368.77 169.17 368.77C168.768 368.77 168.395 368.863 168.05 369.05C167.714 369.227 167.443 369.493 167.238 369.848C167.032 370.193 166.93 370.627 166.93 371.15V371.542C166.93 372.121 167.032 372.606 167.238 372.998C167.452 373.39 167.728 373.684 168.064 373.88C168.409 374.076 168.778 374.174 169.17 374.174C169.664 374.174 170.07 374.067 170.388 373.852C170.714 373.628 170.948 373.329 171.088 372.956H172.25C172.138 373.376 171.942 373.754 171.662 374.09C171.382 374.426 171.032 374.692 170.612 374.888C170.201 375.075 169.72 375.168 169.17 375.168ZM174.033 375V367.944H175.097L175.181 369.288C175.339 368.971 175.54 368.7 175.783 368.476C176.035 368.252 176.333 368.079 176.679 367.958C177.033 367.837 177.435 367.776 177.883 367.776V369.008H177.449C177.15 369.008 176.865 369.05 176.595 369.134C176.324 369.209 176.081 369.335 175.867 369.512C175.661 369.689 175.498 369.932 175.377 370.24C175.265 370.539 175.209 370.912 175.209 371.36V375H174.033ZM181.51 375.168C180.941 375.168 180.465 375.07 180.082 374.874C179.7 374.669 179.415 374.403 179.228 374.076C179.042 373.74 178.948 373.376 178.948 372.984C178.948 372.508 179.07 372.107 179.312 371.78C179.564 371.444 179.914 371.192 180.362 371.024C180.82 370.847 181.356 370.758 181.972 370.758H183.834C183.834 370.319 183.764 369.955 183.624 369.666C183.494 369.367 183.298 369.143 183.036 368.994C182.784 368.845 182.467 368.77 182.084 368.77C181.636 368.77 181.249 368.882 180.922 369.106C180.596 369.33 180.395 369.661 180.32 370.1H179.116C179.172 369.596 179.34 369.176 179.62 368.84C179.91 368.495 180.274 368.233 180.712 368.056C181.151 367.869 181.608 367.776 182.084 367.776C182.738 367.776 183.279 367.897 183.708 368.14C184.147 368.373 184.474 368.705 184.688 369.134C184.903 369.554 185.01 370.053 185.01 370.632V375H183.96L183.89 373.754C183.797 373.95 183.676 374.137 183.526 374.314C183.386 374.482 183.218 374.631 183.022 374.762C182.826 374.883 182.602 374.981 182.35 375.056C182.108 375.131 181.828 375.168 181.51 375.168ZM181.692 374.174C182.019 374.174 182.313 374.109 182.574 373.978C182.845 373.838 183.074 373.651 183.26 373.418C183.447 373.175 183.587 372.909 183.68 372.62C183.783 372.331 183.834 372.027 183.834 371.71V371.668H182.07C181.613 371.668 181.244 371.724 180.964 371.836C180.684 371.939 180.484 372.088 180.362 372.284C180.241 372.471 180.18 372.685 180.18 372.928C180.18 373.18 180.236 373.399 180.348 373.586C180.47 373.773 180.642 373.917 180.866 374.02C181.1 374.123 181.375 374.174 181.692 374.174ZM189.41 375C188.99 375 188.626 374.935 188.318 374.804C188.01 374.673 187.772 374.454 187.604 374.146C187.446 373.829 187.366 373.404 187.366 372.872V368.938H186.134V367.944H187.366L187.52 366.236H188.542V367.944H190.586V368.938H188.542V372.872C188.542 373.311 188.631 373.609 188.808 373.768C188.986 373.917 189.298 373.992 189.746 373.992H190.502V375H189.41ZM195.023 375.168C194.361 375.168 193.773 375.014 193.259 374.706C192.755 374.398 192.359 373.969 192.069 373.418C191.78 372.858 191.635 372.209 191.635 371.472C191.635 370.725 191.775 370.077 192.055 369.526C192.345 368.975 192.746 368.546 193.259 368.238C193.782 367.93 194.379 367.776 195.051 367.776C195.742 367.776 196.325 367.93 196.801 368.238C197.287 368.546 197.655 368.952 197.907 369.456C198.169 369.951 198.299 370.497 198.299 371.094C198.299 371.187 198.299 371.285 198.299 371.388C198.299 371.491 198.295 371.607 198.285 371.738H192.517V370.828H197.151C197.123 370.184 196.909 369.68 196.507 369.316C196.115 368.952 195.621 368.77 195.023 368.77C194.622 368.77 194.249 368.863 193.903 369.05C193.567 369.227 193.297 369.493 193.091 369.848C192.886 370.193 192.783 370.627 192.783 371.15V371.542C192.783 372.121 192.886 372.606 193.091 372.998C193.306 373.39 193.581 373.684 193.917 373.88C194.263 374.076 194.631 374.174 195.023 374.174C195.518 374.174 195.924 374.067 196.241 373.852C196.568 373.628 196.801 373.329 196.941 372.956H198.103C197.991 373.376 197.795 373.754 197.515 374.09C197.235 374.426 196.885 374.692 196.465 374.888C196.055 375.075 195.574 375.168 195.023 375.168ZM199.914 376.61V375.504H207.138V376.61H199.914ZM209.24 375V367.944H210.416V375H209.24ZM209.828 366.446C209.595 366.446 209.399 366.371 209.24 366.222C209.091 366.063 209.016 365.867 209.016 365.634C209.016 365.401 209.091 365.214 209.24 365.074C209.399 364.925 209.595 364.85 209.828 364.85C210.052 364.85 210.244 364.925 210.402 365.074C210.561 365.214 210.64 365.401 210.64 365.634C210.64 365.867 210.561 366.063 210.402 366.222C210.244 366.371 210.052 366.446 209.828 366.446ZM212.492 375V367.944H213.556L213.612 369.176C213.836 368.737 214.153 368.397 214.564 368.154C214.984 367.902 215.46 367.776 215.992 367.776C216.542 367.776 217.018 367.888 217.42 368.112C217.821 368.327 218.134 368.658 218.358 369.106C218.582 369.545 218.694 370.105 218.694 370.786V375H217.518V370.912C217.518 370.203 217.359 369.671 217.042 369.316C216.734 368.961 216.295 368.784 215.726 368.784C215.334 368.784 214.984 368.882 214.676 369.078C214.368 369.265 214.12 369.54 213.934 369.904C213.756 370.259 213.668 370.702 213.668 371.234V375H212.492ZM222.424 375L219.75 367.944H220.982L223.11 373.866L225.252 367.944H226.456L223.782 375H222.424ZM230.571 375.168C229.918 375.168 229.33 375.019 228.807 374.72C228.285 374.412 227.874 373.983 227.575 373.432C227.277 372.872 227.127 372.223 227.127 371.486C227.127 370.73 227.277 370.077 227.575 369.526C227.883 368.966 228.299 368.537 228.821 368.238C229.353 367.93 229.946 367.776 230.599 367.776C231.271 367.776 231.864 367.93 232.377 368.238C232.9 368.537 233.311 368.966 233.609 369.526C233.917 370.077 234.071 370.725 234.071 371.472C234.071 372.219 233.917 372.872 233.609 373.432C233.301 373.983 232.886 374.412 232.363 374.72C231.841 375.019 231.243 375.168 230.571 375.168ZM230.585 374.16C230.987 374.16 231.36 374.062 231.705 373.866C232.051 373.661 232.331 373.357 232.545 372.956C232.76 372.555 232.867 372.06 232.867 371.472C232.867 370.875 232.76 370.38 232.545 369.988C232.34 369.587 232.065 369.288 231.719 369.092C231.383 368.887 231.01 368.784 230.599 368.784C230.207 368.784 229.834 368.887 229.479 369.092C229.134 369.288 228.854 369.587 228.639 369.988C228.434 370.38 228.331 370.875 228.331 371.472C228.331 372.06 228.434 372.555 228.639 372.956C228.854 373.357 229.129 373.661 229.465 373.866C229.811 374.062 230.184 374.16 230.585 374.16ZM235.832 375V367.944H237.008V375H235.832ZM236.42 366.446C236.187 366.446 235.991 366.371 235.832 366.222C235.683 366.063 235.608 365.867 235.608 365.634C235.608 365.401 235.683 365.214 235.832 365.074C235.991 364.925 236.187 364.85 236.42 364.85C236.644 364.85 236.836 364.925 236.994 365.074C237.153 365.214 237.232 365.401 237.232 365.634C237.232 365.867 237.153 366.063 236.994 366.222C236.836 366.371 236.644 366.446 236.42 366.446ZM242.262 375.168C241.599 375.168 241.002 375.014 240.47 374.706C239.947 374.398 239.536 373.969 239.238 373.418C238.939 372.858 238.79 372.214 238.79 371.486C238.79 370.739 238.939 370.091 239.238 369.54C239.536 368.989 239.947 368.56 240.47 368.252C241.002 367.935 241.599 367.776 242.262 367.776C243.102 367.776 243.802 367.995 244.362 368.434C244.922 368.863 245.276 369.442 245.426 370.17H244.222C244.128 369.731 243.9 369.391 243.536 369.148C243.172 368.905 242.742 368.784 242.248 368.784C241.846 368.784 241.473 368.887 241.128 369.092C240.782 369.288 240.507 369.587 240.302 369.988C240.096 370.389 239.994 370.884 239.994 371.472C239.994 371.911 240.054 372.303 240.176 372.648C240.297 372.984 240.46 373.264 240.666 373.488C240.871 373.712 241.109 373.885 241.38 374.006C241.66 374.118 241.949 374.174 242.248 374.174C242.584 374.174 242.887 374.123 243.158 374.02C243.428 373.908 243.657 373.745 243.844 373.53C244.03 373.315 244.156 373.063 244.222 372.774H245.426C245.276 373.483 244.917 374.062 244.348 374.51C243.788 374.949 243.092 375.168 242.262 375.168ZM250.189 375.168C249.527 375.168 248.939 375.014 248.425 374.706C247.921 374.398 247.525 373.969 247.235 373.418C246.946 372.858 246.801 372.209 246.801 371.472C246.801 370.725 246.941 370.077 247.221 369.526C247.511 368.975 247.912 368.546 248.425 368.238C248.948 367.93 249.545 367.776 250.217 367.776C250.908 367.776 251.491 367.93 251.967 368.238C252.453 368.546 252.821 368.952 253.073 369.456C253.335 369.951 253.465 370.497 253.465 371.094C253.465 371.187 253.465 371.285 253.465 371.388C253.465 371.491 253.461 371.607 253.451 371.738H247.683V370.828H252.317C252.289 370.184 252.075 369.68 251.673 369.316C251.281 368.952 250.787 368.77 250.189 368.77C249.788 368.77 249.415 368.863 249.069 369.05C248.733 369.227 248.463 369.493 248.257 369.848C248.052 370.193 247.949 370.627 247.949 371.15V371.542C247.949 372.121 248.052 372.606 248.257 372.998C248.472 373.39 248.747 373.684 249.083 373.88C249.429 374.076 249.797 374.174 250.189 374.174C250.684 374.174 251.09 374.067 251.407 373.852C251.734 373.628 251.967 373.329 252.107 372.956H253.269C253.157 373.376 252.961 373.754 252.681 374.09C252.401 374.426 252.051 374.692 251.631 374.888C251.221 375.075 250.74 375.168 250.189 375.168ZM257.712 375.168C257.124 375.168 256.611 375.07 256.172 374.874C255.743 374.678 255.398 374.407 255.136 374.062C254.884 373.707 254.73 373.292 254.674 372.816H255.878C255.925 373.059 256.023 373.283 256.172 373.488C256.322 373.693 256.522 373.861 256.774 373.992C257.036 374.113 257.353 374.174 257.726 374.174C258.053 374.174 258.324 374.127 258.538 374.034C258.753 373.931 258.912 373.796 259.014 373.628C259.126 373.46 259.182 373.278 259.182 373.082C259.182 372.793 259.112 372.573 258.972 372.424C258.842 372.275 258.646 372.158 258.384 372.074C258.123 371.981 257.806 371.901 257.432 371.836C257.124 371.78 256.821 371.705 256.522 371.612C256.224 371.519 255.958 371.397 255.724 371.248C255.491 371.089 255.304 370.898 255.164 370.674C255.034 370.45 254.968 370.175 254.968 369.848C254.968 369.447 255.071 369.092 255.276 368.784C255.482 368.467 255.776 368.219 256.158 368.042C256.55 367.865 257.003 367.776 257.516 367.776C258.272 367.776 258.884 367.958 259.35 368.322C259.817 368.686 260.092 369.213 260.176 369.904H259.014C258.968 369.549 258.814 369.274 258.552 369.078C258.3 368.873 257.95 368.77 257.502 368.77C257.064 368.77 256.728 368.859 256.494 369.036C256.27 369.213 256.158 369.447 256.158 369.736C256.158 369.923 256.219 370.091 256.34 370.24C256.471 370.38 256.658 370.501 256.9 370.604C257.152 370.707 257.46 370.791 257.824 370.856C258.291 370.94 258.716 371.052 259.098 371.192C259.481 371.332 259.789 371.542 260.022 371.822C260.265 372.093 260.386 372.48 260.386 372.984C260.386 373.423 260.274 373.805 260.05 374.132C259.836 374.459 259.528 374.715 259.126 374.902C258.725 375.079 258.254 375.168 257.712 375.168Z" fill="#EEEFF1"/>
<line x1="122" y1="388.5" x2="336" y2="388.5" stroke="#575B62"/>
</g>
<rect x="87.5" y="267.5" width="283" height="121" rx="5.5" stroke="#575B62" shape-rendering="crispEdges"/>
</g>
<defs>
<filter id="filter0_f_2483_57192" x="-213" y="-65" width="896" height="764" filterUnits="userSpaceOnUse" color-interpolation-filters="sRGB">
<feFlood flood-opacity="0" result="BackgroundImageFix"/>
<feBlend mode="normal" in="SourceGraphic" in2="BackgroundImageFix" result="shape"/>
<feGaussianBlur stdDeviation="150" result="effect1_foregroundBlur_2483_57192"/>
</filter>
<filter id="filter1_d_2483_57192" x="43" y="205" width="372" height="120" filterUnits="userSpaceOnUse" color-interpolation-filters="sRGB">
<feFlood flood-opacity="0" result="BackgroundImageFix"/>
<feColorMatrix in="SourceAlpha" type="matrix" values="0 0 0 0 0 0 0 0 0 0 0 0 0 0 0 0 0 0 127 0" result="hardAlpha"/>
<feOffset dy="24"/>
<feGaussianBlur stdDeviation="22"/>
<feComposite in2="hardAlpha" operator="out"/>
<feColorMatrix type="matrix" values="0 0 0 0 0 0 0 0 0 0 0 0 0 0 0 0 0 0 0.5 0"/>
<feBlend mode="normal" in2="BackgroundImageFix" result="effect1_dropShadow_2483_57192"/>
<feBlend mode="normal" in="SourceGraphic" in2="effect1_dropShadow_2483_57192" result="shape"/>
</filter>
<filter id="filter2_d_2483_57192" x="43" y="247" width="372" height="210" filterUnits="userSpaceOnUse" color-interpolation-filters="sRGB">
<feFlood flood-opacity="0" result="BackgroundImageFix"/>
<feColorMatrix in="SourceAlpha" type="matrix" values="0 0 0 0 0 0 0 0 0 0 0 0 0 0 0 0 0 0 127 0" result="hardAlpha"/>
<feOffset dy="24"/>
<feGaussianBlur stdDeviation="22"/>
<feComposite in2="hardAlpha" operator="out"/>
<feColorMatrix type="matrix" values="0 0 0 0 0 0 0 0 0 0 0 0 0 0 0 0 0 0 0.5 0"/>
<feBlend mode="normal" in2="BackgroundImageFix" result="effect1_dropShadow_2483_57192"/>
<feBlend mode="normal" in="SourceGraphic" in2="effect1_dropShadow_2483_57192" result="shape"/>
</filter>
<linearGradient id="paint0_linear_2483_57192" x1="235" y1="235" x2="235" y2="399" gradientUnits="userSpaceOnUse">
<stop stop-color="#0D0D11"/>
<stop offset="1" stop-color="#0D0D11" stop-opacity="0.5"/>
</linearGradient>
<clipPath id="clip0_2483_57192">
<rect x="87" y="267" width="284" height="122" rx="6" fill="white"/>
</clipPath>
</defs>
</svg>
