<svg width="372" height="252" viewBox="0 0 372 252" fill="none" xmlns="http://www.w3.org/2000/svg">
<g filter="url(#filter0_d_2654_28028)">
<rect x="44.5" y="20.5" width="283" height="31" rx="9.5" stroke="#575B62"/>
<path d="M58.172 41.168C57.4533 41.168 56.828 41.0373 56.296 40.776C55.764 40.5147 55.3533 40.1507 55.064 39.684C54.7747 39.2173 54.63 38.676 54.63 38.06H55.862C55.862 38.4427 55.9507 38.7973 56.128 39.124C56.3053 39.4413 56.562 39.698 56.898 39.894C57.2433 40.0807 57.668 40.174 58.172 40.174C58.6107 40.174 58.984 40.104 59.292 39.964C59.6093 39.8147 59.8473 39.614 60.006 39.362C60.174 39.11 60.258 38.8253 60.258 38.508C60.258 38.1253 60.174 37.8173 60.006 37.584C59.8473 37.3413 59.628 37.1453 59.348 36.996C59.068 36.8467 58.7413 36.716 58.368 36.604C58.004 36.4827 57.6213 36.3567 57.22 36.226C56.4453 35.9647 55.876 35.638 55.512 35.246C55.148 34.854 54.966 34.3453 54.966 33.72C54.966 33.188 55.0873 32.7213 55.33 32.32C55.582 31.9187 55.9367 31.606 56.394 31.382C56.8607 31.1487 57.4113 31.032 58.046 31.032C58.6713 31.032 59.2127 31.1487 59.67 31.382C60.1367 31.6153 60.5007 31.9373 60.762 32.348C61.0233 32.7493 61.154 33.216 61.154 33.748H59.922C59.922 33.4773 59.852 33.2113 59.712 32.95C59.572 32.6887 59.3573 32.474 59.068 32.306C58.788 32.1287 58.4333 32.04 58.004 32.04C57.6493 32.0307 57.332 32.0913 57.052 32.222C56.7813 32.3433 56.5667 32.5207 56.408 32.754C56.2587 32.9873 56.184 33.272 56.184 33.608C56.184 33.9253 56.2493 34.182 56.38 34.378C56.52 34.574 56.716 34.742 56.968 34.882C57.2293 35.0127 57.5327 35.134 57.878 35.246C58.2233 35.358 58.606 35.484 59.026 35.624C59.502 35.7827 59.922 35.9787 60.286 36.212C60.6593 36.436 60.9487 36.7253 61.154 37.08C61.3687 37.4347 61.476 37.8873 61.476 38.438C61.476 38.9047 61.35 39.348 61.098 39.768C60.8553 40.1787 60.4913 40.5147 60.006 40.776C59.5207 41.0373 58.9093 41.168 58.172 41.168ZM66.1951 41.168C65.5324 41.168 64.9444 41.014 64.4311 40.706C63.9271 40.398 63.5304 39.9687 63.2411 39.418C62.9518 38.858 62.8071 38.2093 62.8071 37.472C62.8071 36.7253 62.9471 36.0767 63.2271 35.526C63.5164 34.9753 63.9178 34.546 64.4311 34.238C64.9538 33.93 65.5511 33.776 66.2231 33.776C66.9138 33.776 67.4971 33.93 67.9731 34.238C68.4584 34.546 68.8271 34.952 69.0791 35.456C69.3404 35.9507 69.4711 36.4967 69.4711 37.094C69.4711 37.1873 69.4711 37.2853 69.4711 37.388C69.4711 37.4907 69.4664 37.6073 69.4571 37.738H63.6891V36.828H68.3231C68.2951 36.184 68.0804 35.68 67.6791 35.316C67.2871 34.952 66.7924 34.77 66.1951 34.77C65.7938 34.77 65.4204 34.8633 65.0751 35.05C64.7391 35.2273 64.4684 35.4933 64.2631 35.848C64.0578 36.1933 63.9551 36.6273 63.9551 37.15V37.542C63.9551 38.1207 64.0578 38.606 64.2631 38.998C64.4778 39.39 64.7531 39.684 65.0891 39.88C65.4344 40.076 65.8031 40.174 66.1951 40.174C66.6898 40.174 67.0958 40.0667 67.4131 39.852C67.7398 39.628 67.9731 39.3293 68.1131 38.956H69.2751C69.1631 39.376 68.9671 39.754 68.6871 40.09C68.4071 40.426 68.0571 40.692 67.6371 40.888C67.2264 41.0747 66.7458 41.168 66.1951 41.168ZM71.0581 41V30.92H72.2341V41H71.0581ZM77.2693 41.168C76.6066 41.168 76.0186 41.014 75.5053 40.706C75.0013 40.398 74.6046 39.9687 74.3153 39.418C74.026 38.858 73.8813 38.2093 73.8813 37.472C73.8813 36.7253 74.0213 36.0767 74.3013 35.526C74.5906 34.9753 74.992 34.546 75.5053 34.238C76.028 33.93 76.6253 33.776 77.2973 33.776C77.988 33.776 78.5713 33.93 79.0473 34.238C79.5326 34.546 79.9013 34.952 80.1533 35.456C80.4146 35.9507 80.5453 36.4967 80.5453 37.094C80.5453 37.1873 80.5453 37.2853 80.5453 37.388C80.5453 37.4907 80.5406 37.6073 80.5313 37.738H74.7633V36.828H79.3973C79.3693 36.184 79.1546 35.68 78.7533 35.316C78.3613 34.952 77.8666 34.77 77.2693 34.77C76.868 34.77 76.4946 34.8633 76.1493 35.05C75.8133 35.2273 75.5426 35.4933 75.3373 35.848C75.132 36.1933 75.0293 36.6273 75.0293 37.15V37.542C75.0293 38.1207 75.132 38.606 75.3373 38.998C75.552 39.39 75.8273 39.684 76.1633 39.88C76.5086 40.076 76.8773 40.174 77.2693 40.174C77.764 40.174 78.17 40.0667 78.4873 39.852C78.814 39.628 79.0473 39.3293 79.1873 38.956H80.3493C80.2373 39.376 80.0413 39.754 79.7613 40.09C79.4813 40.426 79.1313 40.692 78.7113 40.888C78.3006 41.0747 77.82 41.168 77.2693 41.168ZM85.3103 41.168C84.6477 41.168 84.0503 41.014 83.5183 40.706C82.9957 40.398 82.585 39.9687 82.2863 39.418C81.9877 38.858 81.8383 38.214 81.8383 37.486C81.8383 36.7393 81.9877 36.0907 82.2863 35.54C82.585 34.9893 82.9957 34.56 83.5183 34.252C84.0503 33.9347 84.6477 33.776 85.3103 33.776C86.1503 33.776 86.8503 33.9953 87.4103 34.434C87.9703 34.8633 88.325 35.442 88.4743 36.17H87.2703C87.177 35.7313 86.9483 35.3907 86.5843 35.148C86.2203 34.9053 85.791 34.784 85.2963 34.784C84.895 34.784 84.5217 34.8867 84.1763 35.092C83.831 35.288 83.5557 35.5867 83.3503 35.988C83.145 36.3893 83.0423 36.884 83.0423 37.472C83.0423 37.9107 83.103 38.3027 83.2243 38.648C83.3457 38.984 83.509 39.264 83.7143 39.488C83.9197 39.712 84.1577 39.8847 84.4283 40.006C84.7083 40.118 84.9977 40.174 85.2963 40.174C85.6323 40.174 85.9357 40.1227 86.2063 40.02C86.477 39.908 86.7057 39.7447 86.8923 39.53C87.079 39.3153 87.205 39.0633 87.2703 38.774H88.4743C88.325 39.4833 87.9657 40.062 87.3963 40.51C86.8363 40.9487 86.141 41.168 85.3103 41.168ZM92.7247 41C92.3047 41 91.9407 40.9347 91.6327 40.804C91.3247 40.6733 91.0867 40.454 90.9187 40.146C90.76 39.8287 90.6807 39.404 90.6807 38.872V34.938H89.4487V33.944H90.6807L90.8347 32.236H91.8567V33.944H93.9007V34.938H91.8567V38.872C91.8567 39.3107 91.9453 39.6093 92.1227 39.768C92.3 39.9173 92.6127 39.992 93.0607 39.992H93.8167V41H92.7247ZM99.2238 41V31.2H102.416C103.19 31.2 103.825 31.3307 104.32 31.592C104.824 31.844 105.192 32.1847 105.426 32.614C105.668 33.0433 105.79 33.5333 105.79 34.084C105.79 34.616 105.668 35.1013 105.426 35.54C105.192 35.9693 104.828 36.3147 104.334 36.576C103.839 36.8373 103.2 36.968 102.416 36.968H100.4V41H99.2238ZM100.4 35.974H102.402C103.186 35.974 103.746 35.8013 104.082 35.456C104.418 35.1107 104.586 34.6533 104.586 34.084C104.586 33.4773 104.418 33.0107 104.082 32.684C103.746 32.348 103.186 32.18 102.402 32.18H100.4V35.974ZM109.243 41.168C108.673 41.168 108.197 41.07 107.815 40.874C107.432 40.6687 107.147 40.4027 106.961 40.076C106.774 39.74 106.681 39.376 106.681 38.984C106.681 38.508 106.802 38.1067 107.045 37.78C107.297 37.444 107.647 37.192 108.095 37.024C108.552 36.8467 109.089 36.758 109.705 36.758H111.567C111.567 36.3193 111.497 35.9553 111.357 35.666C111.226 35.3673 111.03 35.1433 110.769 34.994C110.517 34.8447 110.199 34.77 109.817 34.77C109.369 34.77 108.981 34.882 108.655 35.106C108.328 35.33 108.127 35.6613 108.053 36.1H106.849C106.905 35.596 107.073 35.176 107.353 34.84C107.642 34.4947 108.006 34.2333 108.445 34.056C108.883 33.8693 109.341 33.776 109.817 33.776C110.47 33.776 111.011 33.8973 111.441 34.14C111.879 34.3733 112.206 34.7047 112.421 35.134C112.635 35.554 112.743 36.0533 112.743 36.632V41H111.693L111.623 39.754C111.529 39.95 111.408 40.1367 111.259 40.314C111.119 40.482 110.951 40.6313 110.755 40.762C110.559 40.8833 110.335 40.9813 110.083 41.056C109.84 41.1307 109.56 41.168 109.243 41.168ZM109.425 40.174C109.751 40.174 110.045 40.1087 110.307 39.978C110.577 39.838 110.806 39.6513 110.993 39.418C111.179 39.1753 111.319 38.9093 111.413 38.62C111.515 38.3307 111.567 38.0273 111.567 37.71V37.668H109.803C109.345 37.668 108.977 37.724 108.697 37.836C108.417 37.9387 108.216 38.088 108.095 38.284C107.973 38.4707 107.913 38.6853 107.913 38.928C107.913 39.18 107.969 39.3993 108.081 39.586C108.202 39.7727 108.375 39.9173 108.599 40.02C108.832 40.1227 109.107 40.174 109.425 40.174ZM117.74 41.168C117.077 41.168 116.48 41.014 115.948 40.706C115.425 40.398 115.015 39.9687 114.716 39.418C114.417 38.858 114.268 38.214 114.268 37.486C114.268 36.7393 114.417 36.0907 114.716 35.54C115.015 34.9893 115.425 34.56 115.948 34.252C116.48 33.9347 117.077 33.776 117.74 33.776C118.58 33.776 119.28 33.9953 119.84 34.434C120.4 34.8633 120.755 35.442 120.904 36.17H119.7C119.607 35.7313 119.378 35.3907 119.014 35.148C118.65 34.9053 118.221 34.784 117.726 34.784C117.325 34.784 116.951 34.8867 116.606 35.092C116.261 35.288 115.985 35.5867 115.78 35.988C115.575 36.3893 115.472 36.884 115.472 37.472C115.472 37.9107 115.533 38.3027 115.654 38.648C115.775 38.984 115.939 39.264 116.144 39.488C116.349 39.712 116.587 39.8847 116.858 40.006C117.138 40.118 117.427 40.174 117.726 40.174C118.062 40.174 118.365 40.1227 118.636 40.02C118.907 39.908 119.135 39.7447 119.322 39.53C119.509 39.3153 119.635 39.0633 119.7 38.774H120.904C120.755 39.4833 120.395 40.062 119.826 40.51C119.266 40.9487 118.571 41.168 117.74 41.168ZM126.914 41L123.554 37.136L126.62 33.944H128.062L124.548 37.556L124.562 36.716L128.412 41H126.914ZM122.574 41V30.92H123.75V41H122.574ZM131.87 41.168C131.3 41.168 130.824 41.07 130.442 40.874C130.059 40.6687 129.774 40.4027 129.588 40.076C129.401 39.74 129.308 39.376 129.308 38.984C129.308 38.508 129.429 38.1067 129.672 37.78C129.924 37.444 130.274 37.192 130.722 37.024C131.179 36.8467 131.716 36.758 132.332 36.758H134.194C134.194 36.3193 134.124 35.9553 133.984 35.666C133.853 35.3673 133.657 35.1433 133.396 34.994C133.144 34.8447 132.826 34.77 132.444 34.77C131.996 34.77 131.608 34.882 131.282 35.106C130.955 35.33 130.754 35.6613 130.68 36.1H129.476C129.532 35.596 129.7 35.176 129.98 34.84C130.269 34.4947 130.633 34.2333 131.072 34.056C131.51 33.8693 131.968 33.776 132.444 33.776C133.097 33.776 133.638 33.8973 134.068 34.14C134.506 34.3733 134.833 34.7047 135.048 35.134C135.262 35.554 135.37 36.0533 135.37 36.632V41H134.32L134.25 39.754C134.156 39.95 134.035 40.1367 133.886 40.314C133.746 40.482 133.578 40.6313 133.382 40.762C133.186 40.8833 132.962 40.9813 132.71 41.056C132.467 41.1307 132.187 41.168 131.87 41.168ZM132.052 40.174C132.378 40.174 132.672 40.1087 132.934 39.978C133.204 39.838 133.433 39.6513 133.62 39.418C133.806 39.1753 133.946 38.9093 134.04 38.62C134.142 38.3307 134.194 38.0273 134.194 37.71V37.668H132.43C131.972 37.668 131.604 37.724 131.324 37.836C131.044 37.9387 130.843 38.088 130.722 38.284C130.6 38.4707 130.54 38.6853 130.54 38.928C130.54 39.18 130.596 39.3993 130.708 39.586C130.829 39.7727 131.002 39.9173 131.226 40.02C131.459 40.1227 131.734 40.174 132.052 40.174ZM139.975 44.248C139.34 44.248 138.776 44.164 138.281 43.996C137.796 43.8373 137.418 43.59 137.147 43.254C136.876 42.918 136.741 42.5027 136.741 42.008C136.741 41.7933 136.783 41.5647 136.867 41.322C136.96 41.0793 137.114 40.8413 137.329 40.608C137.553 40.3747 137.866 40.1647 138.267 39.978L139.079 40.454C138.584 40.6593 138.262 40.8927 138.113 41.154C137.964 41.4247 137.889 41.672 137.889 41.896C137.889 42.204 137.978 42.4607 138.155 42.666C138.332 42.8713 138.58 43.0253 138.897 43.128C139.214 43.2307 139.574 43.282 139.975 43.282C140.376 43.282 140.722 43.226 141.011 43.114C141.3 43.002 141.524 42.8433 141.683 42.638C141.842 42.4327 141.921 42.19 141.921 41.91C141.921 41.5833 141.8 41.308 141.557 41.084C141.314 40.8693 140.852 40.7433 140.171 40.706C139.62 40.6687 139.158 40.6173 138.785 40.552C138.412 40.4867 138.104 40.412 137.861 40.328C137.618 40.2347 137.413 40.132 137.245 40.02C137.086 39.908 136.942 39.7913 136.811 39.67V39.348L138.169 38.004L139.191 38.368L137.791 39.628L137.973 39.138C138.076 39.2127 138.174 39.2827 138.267 39.348C138.36 39.4133 138.486 39.4693 138.645 39.516C138.804 39.5627 139.023 39.6047 139.303 39.642C139.592 39.6793 139.97 39.7167 140.437 39.754C141.081 39.8007 141.594 39.9127 141.977 40.09C142.369 40.2673 142.649 40.5053 142.817 40.804C142.994 41.1027 143.083 41.4573 143.083 41.868C143.083 42.2693 142.971 42.6473 142.747 43.002C142.532 43.366 142.196 43.6647 141.739 43.898C141.282 44.1313 140.694 44.248 139.975 44.248ZM139.961 38.788C139.373 38.788 138.869 38.676 138.449 38.452C138.038 38.228 137.726 37.9293 137.511 37.556C137.296 37.1733 137.189 36.7487 137.189 36.282C137.189 35.8153 137.296 35.3953 137.511 35.022C137.735 34.6487 138.052 34.35 138.463 34.126C138.874 33.8927 139.373 33.776 139.961 33.776C140.549 33.776 141.048 33.8927 141.459 34.126C141.87 34.35 142.182 34.6487 142.397 35.022C142.612 35.3953 142.719 35.8153 142.719 36.282C142.719 36.7487 142.612 37.1733 142.397 37.556C142.182 37.9293 141.87 38.228 141.459 38.452C141.048 38.676 140.549 38.788 139.961 38.788ZM139.961 37.822C140.465 37.822 140.862 37.6913 141.151 37.43C141.44 37.1687 141.585 36.786 141.585 36.282C141.585 35.7873 141.44 35.4093 141.151 35.148C140.862 34.8867 140.465 34.756 139.961 34.756C139.466 34.756 139.065 34.8867 138.757 35.148C138.458 35.4093 138.309 35.7873 138.309 36.282C138.309 36.786 138.458 37.1687 138.757 37.43C139.056 37.6913 139.457 37.822 139.961 37.822ZM141.109 34.938L140.759 33.944H143.643V34.826L141.109 34.938ZM147.816 41.168C147.154 41.168 146.566 41.014 146.052 40.706C145.548 40.398 145.152 39.9687 144.862 39.418C144.573 38.858 144.428 38.2093 144.428 37.472C144.428 36.7253 144.568 36.0767 144.848 35.526C145.138 34.9753 145.539 34.546 146.052 34.238C146.575 33.93 147.172 33.776 147.844 33.776C148.535 33.776 149.118 33.93 149.594 34.238C150.08 34.546 150.448 34.952 150.7 35.456C150.962 35.9507 151.092 36.4967 151.092 37.094C151.092 37.1873 151.092 37.2853 151.092 37.388C151.092 37.4907 151.088 37.6073 151.078 37.738H145.31V36.828H149.944C149.916 36.184 149.702 35.68 149.3 35.316C148.908 34.952 148.414 34.77 147.816 34.77C147.415 34.77 147.042 34.8633 146.696 35.05C146.36 35.2273 146.09 35.4933 145.884 35.848C145.679 36.1933 145.576 36.6273 145.576 37.15V37.542C145.576 38.1207 145.679 38.606 145.884 38.998C146.099 39.39 146.374 39.684 146.71 39.88C147.056 40.076 147.424 40.174 147.816 40.174C148.311 40.174 148.717 40.0667 149.034 39.852C149.361 39.628 149.594 39.3293 149.734 38.956H150.896C150.784 39.376 150.588 39.754 150.308 40.09C150.028 40.426 149.678 40.692 149.258 40.888C148.848 41.0747 148.367 41.168 147.816 41.168Z" fill="#EEEFF1"/>
<path d="M306.25 34.125L310 37.875L313.75 34.125" stroke="#575B62" stroke-linecap="round" stroke-linejoin="round"/>
</g>
<g filter="url(#filter1_d_2654_28028)">
<g clip-path="url(#clip0_2654_28028)">
<rect width="284" height="122" transform="translate(44 62)" fill="#232529"/>
<rect x="49.5" y="67.5" width="273" height="27" rx="9.5" fill="#313337"/>
<rect x="49.5" y="67.5" width="273" height="27" rx="9.5" stroke="#575B62"/>
<path d="M63.875 81.5625L65.8393 83.8125L70.75 78.1875" stroke="#EEEFF1" stroke-linecap="round" stroke-linejoin="round"/>
<path d="M86.486 88.03C85.982 87.5447 85.5153 86.966 85.086 86.294C84.6567 85.6313 84.3113 84.8847 84.05 84.054C83.798 83.2233 83.672 82.318 83.672 81.338C83.672 80.358 83.798 79.4527 84.05 78.622C84.3113 77.7913 84.6567 77.04 85.086 76.368C85.5153 75.696 85.982 75.122 86.486 74.646H87.69V74.758C87.1207 75.318 86.6213 75.9433 86.192 76.634C85.772 77.3247 85.4407 78.0667 85.198 78.86C84.9647 79.644 84.848 80.47 84.848 81.338C84.848 82.206 84.9647 83.0367 85.198 83.83C85.4407 84.614 85.7767 85.3513 86.206 86.042C86.6353 86.7327 87.13 87.358 87.69 87.918V88.03H86.486ZM89.2027 89.08V78.944H90.2667L90.3647 80.092C90.514 79.868 90.7053 79.658 90.9387 79.462C91.172 79.2567 91.452 79.0933 91.7787 78.972C92.1053 78.8413 92.4787 78.776 92.8987 78.776C93.5893 78.776 94.1867 78.9393 94.6907 79.266C95.204 79.5927 95.6007 80.036 95.8807 80.596C96.17 81.1467 96.3147 81.7767 96.3147 82.486C96.3147 83.1953 96.17 83.83 95.8807 84.39C95.6007 84.9407 95.204 85.3747 94.6907 85.692C94.1773 86.0093 93.5753 86.168 92.8847 86.168C92.3153 86.168 91.8113 86.0513 91.3727 85.818C90.9433 85.5847 90.612 85.258 90.3787 84.838V89.08H89.2027ZM92.7587 85.146C93.216 85.146 93.622 85.034 93.9767 84.81C94.3313 84.586 94.6067 84.278 94.8027 83.886C95.008 83.4847 95.1107 83.0133 95.1107 82.472C95.1107 81.94 95.008 81.4733 94.8027 81.072C94.6067 80.6707 94.3313 80.358 93.9767 80.134C93.622 79.91 93.216 79.798 92.7587 79.798C92.292 79.798 91.8813 79.91 91.5267 80.134C91.172 80.358 90.8967 80.6707 90.7007 81.072C90.5047 81.4733 90.4067 81.94 90.4067 82.472C90.4067 83.0133 90.5047 83.4847 90.7007 83.886C90.8967 84.278 91.172 84.586 91.5267 84.81C91.8813 85.034 92.292 85.146 92.7587 85.146ZM98.1758 89.08L99.8978 85.216H99.4918L96.7198 78.944H97.9938L100.29 84.334L102.698 78.944H103.916L99.4078 89.08H98.1758ZM107.957 86C107.537 86 107.173 85.9347 106.865 85.804C106.557 85.6733 106.319 85.454 106.151 85.146C105.992 84.8287 105.913 84.404 105.913 83.872V79.938H104.681V78.944H105.913L106.067 77.236H107.089V78.944H109.133V79.938H107.089V83.872C107.089 84.3107 107.178 84.6093 107.355 84.768C107.532 84.9173 107.845 84.992 108.293 84.992H109.049V86H107.957ZM110.668 86V75.92H111.844V80.134C112.077 79.714 112.404 79.3827 112.824 79.14C113.253 78.8973 113.72 78.776 114.224 78.776C114.765 78.776 115.236 78.888 115.638 79.112C116.039 79.3267 116.347 79.658 116.562 80.106C116.776 80.554 116.883 81.1187 116.883 81.8V86H115.722V81.926C115.722 81.2167 115.572 80.6847 115.274 80.33C114.975 79.966 114.541 79.784 113.972 79.784C113.57 79.784 113.206 79.882 112.88 80.078C112.562 80.274 112.31 80.554 112.124 80.918C111.937 81.282 111.844 81.73 111.844 82.262V86H110.668ZM121.87 86.168C121.217 86.168 120.629 86.0187 120.106 85.72C119.584 85.412 119.173 84.9827 118.874 84.432C118.576 83.872 118.426 83.2233 118.426 82.486C118.426 81.73 118.576 81.0767 118.874 80.526C119.182 79.966 119.598 79.5367 120.12 79.238C120.652 78.93 121.245 78.776 121.898 78.776C122.57 78.776 123.163 78.93 123.676 79.238C124.199 79.5367 124.61 79.966 124.908 80.526C125.216 81.0767 125.37 81.7253 125.37 82.472C125.37 83.2187 125.216 83.872 124.908 84.432C124.6 84.9827 124.185 85.412 123.662 85.72C123.14 86.0187 122.542 86.168 121.87 86.168ZM121.884 85.16C122.286 85.16 122.659 85.062 123.004 84.866C123.35 84.6607 123.63 84.3573 123.844 83.956C124.059 83.5547 124.166 83.06 124.166 82.472C124.166 81.8747 124.059 81.38 123.844 80.988C123.639 80.5867 123.364 80.288 123.018 80.092C122.682 79.8867 122.309 79.784 121.898 79.784C121.506 79.784 121.133 79.8867 120.778 80.092C120.433 80.288 120.153 80.5867 119.938 80.988C119.733 81.38 119.63 81.8747 119.63 82.472C119.63 83.06 119.733 83.5547 119.938 83.956C120.153 84.3573 120.428 84.6607 120.764 84.866C121.11 85.062 121.483 85.16 121.884 85.16ZM127.019 86V78.944H128.083L128.139 80.176C128.363 79.7373 128.68 79.3967 129.091 79.154C129.511 78.902 129.987 78.776 130.519 78.776C131.07 78.776 131.546 78.888 131.947 79.112C132.348 79.3267 132.661 79.658 132.885 80.106C133.109 80.5447 133.221 81.1047 133.221 81.786V86H132.045V81.912C132.045 81.2027 131.886 80.6707 131.569 80.316C131.261 79.9613 130.822 79.784 130.253 79.784C129.861 79.784 129.511 79.882 129.203 80.078C128.895 80.2647 128.648 80.54 128.461 80.904C128.284 81.2587 128.195 81.702 128.195 82.234V86H127.019ZM135.814 88.03H134.61V87.918C135.179 87.358 135.674 86.7327 136.094 86.042C136.523 85.3513 136.855 84.614 137.088 83.83C137.331 83.0367 137.452 82.206 137.452 81.338C137.452 80.47 137.331 79.644 137.088 78.86C136.855 78.0667 136.523 77.3247 136.094 76.634C135.674 75.9433 135.179 75.318 134.61 74.758V74.646H135.814C136.327 75.122 136.794 75.696 137.214 76.368C137.643 77.04 137.984 77.7913 138.236 78.622C138.497 79.4527 138.628 80.358 138.628 81.338C138.628 82.318 138.497 83.2233 138.236 84.054C137.984 84.8847 137.643 85.6313 137.214 86.294C136.794 86.966 136.327 87.5447 135.814 88.03ZM144 89.08V78.944H145.064L145.162 80.092C145.311 79.868 145.502 79.658 145.736 79.462C145.969 79.2567 146.249 79.0933 146.576 78.972C146.902 78.8413 147.276 78.776 147.696 78.776C148.386 78.776 148.984 78.9393 149.488 79.266C150.001 79.5927 150.398 80.036 150.678 80.596C150.967 81.1467 151.112 81.7767 151.112 82.486C151.112 83.1953 150.967 83.83 150.678 84.39C150.398 84.9407 150.001 85.3747 149.488 85.692C148.974 86.0093 148.372 86.168 147.682 86.168C147.112 86.168 146.608 86.0513 146.17 85.818C145.74 85.5847 145.409 85.258 145.176 84.838V89.08H144ZM147.556 85.146C148.013 85.146 148.419 85.034 148.774 84.81C149.128 84.586 149.404 84.278 149.6 83.886C149.805 83.4847 149.908 83.0133 149.908 82.472C149.908 81.94 149.805 81.4733 149.6 81.072C149.404 80.6707 149.128 80.358 148.774 80.134C148.419 79.91 148.013 79.798 147.556 79.798C147.089 79.798 146.678 79.91 146.324 80.134C145.969 80.358 145.694 80.6707 145.498 81.072C145.302 81.4733 145.204 81.94 145.204 82.472C145.204 83.0133 145.302 83.4847 145.498 83.886C145.694 84.278 145.969 84.586 146.324 84.81C146.678 85.034 147.089 85.146 147.556 85.146ZM152.763 86V78.944H153.827L153.911 80.288C154.07 79.9707 154.271 79.7 154.513 79.476C154.765 79.252 155.064 79.0793 155.409 78.958C155.764 78.8367 156.165 78.776 156.613 78.776V80.008H156.179C155.881 80.008 155.596 80.05 155.325 80.134C155.055 80.2087 154.812 80.3347 154.597 80.512C154.392 80.6893 154.229 80.932 154.107 81.24C153.995 81.5387 153.939 81.912 153.939 82.36V86H152.763ZM160.835 86.168C160.182 86.168 159.594 86.0187 159.071 85.72C158.548 85.412 158.138 84.9827 157.839 84.432C157.54 83.872 157.391 83.2233 157.391 82.486C157.391 81.73 157.54 81.0767 157.839 80.526C158.147 79.966 158.562 79.5367 159.085 79.238C159.617 78.93 160.21 78.776 160.863 78.776C161.535 78.776 162.128 78.93 162.641 79.238C163.164 79.5367 163.574 79.966 163.873 80.526C164.181 81.0767 164.335 81.7253 164.335 82.472C164.335 83.2187 164.181 83.872 163.873 84.432C163.565 84.9827 163.15 85.412 162.627 85.72C162.104 86.0187 161.507 86.168 160.835 86.168ZM160.849 85.16C161.25 85.16 161.624 85.062 161.969 84.866C162.314 84.6607 162.594 84.3573 162.809 83.956C163.024 83.5547 163.131 83.06 163.131 82.472C163.131 81.8747 163.024 81.38 162.809 80.988C162.604 80.5867 162.328 80.288 161.983 80.092C161.647 79.8867 161.274 79.784 160.863 79.784C160.471 79.784 160.098 79.8867 159.743 80.092C159.398 80.288 159.118 80.5867 158.903 80.988C158.698 81.38 158.595 81.8747 158.595 82.472C158.595 83.06 158.698 83.5547 158.903 83.956C159.118 84.3573 159.393 84.6607 159.729 84.866C160.074 85.062 160.448 85.16 160.849 85.16ZM169.162 86.168C168.499 86.168 167.902 86.014 167.37 85.706C166.847 85.398 166.437 84.9687 166.138 84.418C165.839 83.858 165.69 83.214 165.69 82.486C165.69 81.7393 165.839 81.0907 166.138 80.54C166.437 79.9893 166.847 79.56 167.37 79.252C167.902 78.9347 168.499 78.776 169.162 78.776C170.002 78.776 170.702 78.9953 171.262 79.434C171.822 79.8633 172.177 80.442 172.326 81.17H171.122C171.029 80.7313 170.8 80.3907 170.436 80.148C170.072 79.9053 169.643 79.784 169.148 79.784C168.747 79.784 168.373 79.8867 168.028 80.092C167.683 80.288 167.407 80.5867 167.202 80.988C166.997 81.3893 166.894 81.884 166.894 82.472C166.894 82.9107 166.955 83.3027 167.076 83.648C167.197 83.984 167.361 84.264 167.566 84.488C167.771 84.712 168.009 84.8847 168.28 85.006C168.56 85.118 168.849 85.174 169.148 85.174C169.484 85.174 169.787 85.1227 170.058 85.02C170.329 84.908 170.557 84.7447 170.744 84.53C170.931 84.3153 171.057 84.0633 171.122 83.774H172.326C172.177 84.4833 171.817 85.062 171.248 85.51C170.688 85.9487 169.993 86.168 169.162 86.168ZM177.09 86.168C176.427 86.168 175.839 86.014 175.326 85.706C174.822 85.398 174.425 84.9687 174.136 84.418C173.846 83.858 173.702 83.2093 173.702 82.472C173.702 81.7253 173.842 81.0767 174.122 80.526C174.411 79.9753 174.812 79.546 175.326 79.238C175.848 78.93 176.446 78.776 177.118 78.776C177.808 78.776 178.392 78.93 178.868 79.238C179.353 79.546 179.722 79.952 179.974 80.456C180.235 80.9507 180.366 81.4967 180.366 82.094C180.366 82.1873 180.366 82.2853 180.366 82.388C180.366 82.4907 180.361 82.6073 180.352 82.738H174.584V81.828H179.218C179.19 81.184 178.975 80.68 178.574 80.316C178.182 79.952 177.687 79.77 177.09 79.77C176.688 79.77 176.315 79.8633 175.97 80.05C175.634 80.2273 175.363 80.4933 175.158 80.848C174.952 81.1933 174.85 81.6273 174.85 82.15V82.542C174.85 83.1207 174.952 83.606 175.158 83.998C175.372 84.39 175.648 84.684 175.984 84.88C176.329 85.076 176.698 85.174 177.09 85.174C177.584 85.174 177.99 85.0667 178.308 84.852C178.634 84.628 178.868 84.3293 179.008 83.956H180.17C180.058 84.376 179.862 84.754 179.582 85.09C179.302 85.426 178.952 85.692 178.532 85.888C178.121 86.0747 177.64 86.168 177.09 86.168ZM184.613 86.168C184.025 86.168 183.511 86.07 183.073 85.874C182.643 85.678 182.298 85.4073 182.037 85.062C181.785 84.7073 181.631 84.292 181.575 83.816H182.779C182.825 84.0587 182.923 84.2827 183.073 84.488C183.222 84.6933 183.423 84.8613 183.675 84.992C183.936 85.1133 184.253 85.174 184.627 85.174C184.953 85.174 185.224 85.1273 185.439 85.034C185.653 84.9313 185.812 84.796 185.915 84.628C186.027 84.46 186.083 84.278 186.083 84.082C186.083 83.7927 186.013 83.5733 185.873 83.424C185.742 83.2747 185.546 83.158 185.285 83.074C185.023 82.9807 184.706 82.9013 184.333 82.836C184.025 82.78 183.721 82.7053 183.423 82.612C183.124 82.5187 182.858 82.3973 182.625 82.248C182.391 82.0893 182.205 81.898 182.065 81.674C181.934 81.45 181.869 81.1747 181.869 80.848C181.869 80.4467 181.971 80.092 182.177 79.784C182.382 79.4667 182.676 79.2193 183.059 79.042C183.451 78.8647 183.903 78.776 184.417 78.776C185.173 78.776 185.784 78.958 186.251 79.322C186.717 79.686 186.993 80.2133 187.077 80.904H185.915C185.868 80.5493 185.714 80.274 185.453 80.078C185.201 79.8727 184.851 79.77 184.403 79.77C183.964 79.77 183.628 79.8587 183.395 80.036C183.171 80.2133 183.059 80.4467 183.059 80.736C183.059 80.9227 183.119 81.0907 183.241 81.24C183.371 81.38 183.558 81.5013 183.801 81.604C184.053 81.7067 184.361 81.7907 184.725 81.856C185.191 81.94 185.616 82.052 185.999 82.192C186.381 82.332 186.689 82.542 186.923 82.822C187.165 83.0927 187.287 83.48 187.287 83.984C187.287 84.4227 187.175 84.8053 186.951 85.132C186.736 85.4587 186.428 85.7153 186.027 85.902C185.625 86.0793 185.154 86.168 184.613 86.168ZM191.64 86.168C191.052 86.168 190.539 86.07 190.1 85.874C189.671 85.678 189.325 85.4073 189.064 85.062C188.812 84.7073 188.658 84.292 188.602 83.816H189.806C189.853 84.0587 189.951 84.2827 190.1 84.488C190.249 84.6933 190.45 84.8613 190.702 84.992C190.963 85.1133 191.281 85.174 191.654 85.174C191.981 85.174 192.251 85.1273 192.466 85.034C192.681 84.9313 192.839 84.796 192.942 84.628C193.054 84.46 193.11 84.278 193.11 84.082C193.11 83.7927 193.04 83.5733 192.9 83.424C192.769 83.2747 192.573 83.158 192.312 83.074C192.051 82.9807 191.733 82.9013 191.36 82.836C191.052 82.78 190.749 82.7053 190.45 82.612C190.151 82.5187 189.885 82.3973 189.652 82.248C189.419 82.0893 189.232 81.898 189.092 81.674C188.961 81.45 188.896 81.1747 188.896 80.848C188.896 80.4467 188.999 80.092 189.204 79.784C189.409 79.4667 189.703 79.2193 190.086 79.042C190.478 78.8647 190.931 78.776 191.444 78.776C192.2 78.776 192.811 78.958 193.278 79.322C193.745 79.686 194.02 80.2133 194.104 80.904H192.942C192.895 80.5493 192.741 80.274 192.48 80.078C192.228 79.8727 191.878 79.77 191.43 79.77C190.991 79.77 190.655 79.8587 190.422 80.036C190.198 80.2133 190.086 80.4467 190.086 80.736C190.086 80.9227 190.147 81.0907 190.268 81.24C190.399 81.38 190.585 81.5013 190.828 81.604C191.08 81.7067 191.388 81.7907 191.752 81.856C192.219 81.94 192.643 82.052 193.026 82.192C193.409 82.332 193.717 82.542 193.95 82.822C194.193 83.0927 194.314 83.48 194.314 83.984C194.314 84.4227 194.202 84.8053 193.978 85.132C193.763 85.4587 193.455 85.7153 193.054 85.902C192.653 86.0793 192.181 86.168 191.64 86.168ZM196.035 87.61V86.504H203.259V87.61H196.035ZM208.344 86.168C207.681 86.168 207.093 86.014 206.58 85.706C206.076 85.398 205.679 84.9687 205.39 84.418C205.1 83.858 204.956 83.2093 204.956 82.472C204.956 81.7253 205.096 81.0767 205.376 80.526C205.665 79.9753 206.066 79.546 206.58 79.238C207.102 78.93 207.7 78.776 208.372 78.776C209.062 78.776 209.646 78.93 210.122 79.238C210.607 79.546 210.976 79.952 211.228 80.456C211.489 80.9507 211.62 81.4967 211.62 82.094C211.62 82.1873 211.62 82.2853 211.62 82.388C211.62 82.4907 211.615 82.6073 211.606 82.738H205.838V81.828H210.472C210.444 81.184 210.229 80.68 209.828 80.316C209.436 79.952 208.941 79.77 208.344 79.77C207.942 79.77 207.569 79.8633 207.224 80.05C206.888 80.2273 206.617 80.4933 206.412 80.848C206.206 81.1933 206.104 81.6273 206.104 82.15V82.542C206.104 83.1207 206.206 83.606 206.412 83.998C206.626 84.39 206.902 84.684 207.238 84.88C207.583 85.076 207.952 85.174 208.344 85.174C208.838 85.174 209.244 85.0667 209.562 84.852C209.888 84.628 210.122 84.3293 210.262 83.956H211.424C211.312 84.376 211.116 84.754 210.836 85.09C210.556 85.426 210.206 85.692 209.786 85.888C209.375 86.0747 208.894 86.168 208.344 86.168ZM216.315 86.168C215.633 86.168 215.036 86.0093 214.523 85.692C214.009 85.3653 213.613 84.922 213.333 84.362C213.053 83.802 212.913 83.1673 212.913 82.458C212.913 81.7487 213.053 81.1187 213.333 80.568C213.613 80.008 214.009 79.5693 214.523 79.252C215.045 78.9347 215.647 78.776 216.329 78.776C216.907 78.776 217.411 78.8927 217.841 79.126C218.279 79.3593 218.615 79.686 218.849 80.106V75.92H220.025V86H218.961L218.863 84.838C218.713 85.0713 218.522 85.2907 218.289 85.496C218.055 85.692 217.775 85.8553 217.449 85.986C217.122 86.1073 216.744 86.168 216.315 86.168ZM216.455 85.146C216.921 85.146 217.332 85.034 217.687 84.81C218.041 84.586 218.317 84.278 218.513 83.886C218.709 83.4847 218.807 83.0133 218.807 82.472C218.807 81.94 218.709 81.4733 218.513 81.072C218.317 80.6707 218.041 80.358 217.687 80.134C217.332 79.91 216.921 79.798 216.455 79.798C215.997 79.798 215.591 79.91 215.237 80.134C214.882 80.358 214.607 80.6707 214.411 81.072C214.215 81.4733 214.117 81.94 214.117 82.472C214.117 83.0133 214.215 83.4847 214.411 83.886C214.607 84.278 214.882 84.586 215.237 84.81C215.591 85.034 215.997 85.146 216.455 85.146ZM222.096 86V78.944H223.272V86H222.096ZM222.684 77.446C222.451 77.446 222.255 77.3713 222.096 77.222C221.947 77.0633 221.872 76.8673 221.872 76.634C221.872 76.4007 221.947 76.214 222.096 76.074C222.255 75.9247 222.451 75.85 222.684 75.85C222.908 75.85 223.099 75.9247 223.258 76.074C223.417 76.214 223.496 76.4007 223.496 76.634C223.496 76.8673 223.417 77.0633 223.258 77.222C223.099 77.3713 222.908 77.446 222.684 77.446Z" fill="#EEEFF1"/>
<rect x="49" y="95" width="274" height="28" rx="10" fill="#232529"/>
<path d="M62.486 116.03C61.982 115.545 61.5153 114.966 61.086 114.294C60.6567 113.631 60.3113 112.885 60.05 112.054C59.798 111.223 59.672 110.318 59.672 109.338C59.672 108.358 59.798 107.453 60.05 106.622C60.3113 105.791 60.6567 105.04 61.086 104.368C61.5153 103.696 61.982 103.122 62.486 102.646H63.69V102.758C63.1207 103.318 62.6213 103.943 62.192 104.634C61.772 105.325 61.4407 106.067 61.198 106.86C60.9647 107.644 60.848 108.47 60.848 109.338C60.848 110.206 60.9647 111.037 61.198 111.83C61.4407 112.614 61.7767 113.351 62.206 114.042C62.6353 114.733 63.13 115.358 63.69 115.918V116.03H62.486ZM65.2027 114V106.944H66.2667L66.3227 108.176C66.5467 107.737 66.864 107.397 67.2747 107.154C67.6947 106.902 68.1707 106.776 68.7027 106.776C69.2533 106.776 69.7293 106.888 70.1307 107.112C70.532 107.327 70.8447 107.658 71.0687 108.106C71.2927 108.545 71.4047 109.105 71.4047 109.786V114H70.2287V109.912C70.2287 109.203 70.07 108.671 69.7527 108.316C69.4447 107.961 69.006 107.784 68.4367 107.784C68.0447 107.784 67.6947 107.882 67.3867 108.078C67.0787 108.265 66.8313 108.54 66.6447 108.904C66.4673 109.259 66.3787 109.702 66.3787 110.234V114H65.2027ZM76.3917 114.168C75.7384 114.168 75.1504 114.019 74.6277 113.72C74.1051 113.412 73.6944 112.983 73.3957 112.432C73.0971 111.872 72.9477 111.223 72.9477 110.486C72.9477 109.73 73.0971 109.077 73.3957 108.526C73.7037 107.966 74.1191 107.537 74.6417 107.238C75.1737 106.93 75.7664 106.776 76.4197 106.776C77.0917 106.776 77.6844 106.93 78.1977 107.238C78.7204 107.537 79.1311 107.966 79.4297 108.526C79.7377 109.077 79.8917 109.725 79.8917 110.472C79.8917 111.219 79.7377 111.872 79.4297 112.432C79.1217 112.983 78.7064 113.412 78.1837 113.72C77.6611 114.019 77.0637 114.168 76.3917 114.168ZM76.4057 113.16C76.8071 113.16 77.1804 113.062 77.5257 112.866C77.8711 112.661 78.1511 112.357 78.3657 111.956C78.5804 111.555 78.6877 111.06 78.6877 110.472C78.6877 109.875 78.5804 109.38 78.3657 108.988C78.1604 108.587 77.8851 108.288 77.5397 108.092C77.2037 107.887 76.8304 107.784 76.4197 107.784C76.0277 107.784 75.6544 107.887 75.2997 108.092C74.9544 108.288 74.6744 108.587 74.4597 108.988C74.2544 109.38 74.1517 109.875 74.1517 110.472C74.1517 111.06 74.2544 111.555 74.4597 111.956C74.6744 112.357 74.9497 112.661 75.2857 112.866C75.6311 113.062 76.0044 113.16 76.4057 113.16ZM84.6485 114.168C83.9672 114.168 83.3699 114.009 82.8565 113.692C82.3432 113.365 81.9465 112.922 81.6665 112.362C81.3865 111.802 81.2465 111.167 81.2465 110.458C81.2465 109.749 81.3865 109.119 81.6665 108.568C81.9465 108.008 82.3432 107.569 82.8565 107.252C83.3792 106.935 83.9812 106.776 84.6625 106.776C85.2412 106.776 85.7452 106.893 86.1745 107.126C86.6132 107.359 86.9492 107.686 87.1825 108.106V103.92H88.3585V114H87.2945L87.1965 112.838C87.0472 113.071 86.8559 113.291 86.6225 113.496C86.3892 113.692 86.1092 113.855 85.7825 113.986C85.4559 114.107 85.0779 114.168 84.6485 114.168ZM84.7885 113.146C85.2552 113.146 85.6659 113.034 86.0205 112.81C86.3752 112.586 86.6505 112.278 86.8465 111.886C87.0425 111.485 87.1405 111.013 87.1405 110.472C87.1405 109.94 87.0425 109.473 86.8465 109.072C86.6505 108.671 86.3752 108.358 86.0205 108.134C85.6659 107.91 85.2552 107.798 84.7885 107.798C84.3312 107.798 83.9252 107.91 83.5705 108.134C83.2159 108.358 82.9405 108.671 82.7445 109.072C82.5485 109.473 82.4505 109.94 82.4505 110.472C82.4505 111.013 82.5485 111.485 82.7445 111.886C82.9405 112.278 83.2159 112.586 83.5705 112.81C83.9252 113.034 84.3312 113.146 84.7885 113.146ZM93.4119 114.168C92.7492 114.168 92.1612 114.014 91.6479 113.706C91.1439 113.398 90.7472 112.969 90.4579 112.418C90.1686 111.858 90.0239 111.209 90.0239 110.472C90.0239 109.725 90.1639 109.077 90.4439 108.526C90.7332 107.975 91.1346 107.546 91.6479 107.238C92.1706 106.93 92.7679 106.776 93.4399 106.776C94.1306 106.776 94.7139 106.93 95.1899 107.238C95.6752 107.546 96.0439 107.952 96.2959 108.456C96.5572 108.951 96.6879 109.497 96.6879 110.094C96.6879 110.187 96.6879 110.285 96.6879 110.388C96.6879 110.491 96.6832 110.607 96.6739 110.738H90.9059V109.828H95.5399C95.5119 109.184 95.2972 108.68 94.8959 108.316C94.5039 107.952 94.0092 107.77 93.4119 107.77C93.0106 107.77 92.6372 107.863 92.2919 108.05C91.9559 108.227 91.6852 108.493 91.4799 108.848C91.2746 109.193 91.1719 109.627 91.1719 110.15V110.542C91.1719 111.121 91.2746 111.606 91.4799 111.998C91.6946 112.39 91.9699 112.684 92.3059 112.88C92.6512 113.076 93.0199 113.174 93.4119 113.174C93.9066 113.174 94.3126 113.067 94.6299 112.852C94.9566 112.628 95.1899 112.329 95.3299 111.956H96.4919C96.3799 112.376 96.1839 112.754 95.9039 113.09C95.6239 113.426 95.2739 113.692 94.8539 113.888C94.4432 114.075 93.9626 114.168 93.4119 114.168ZM96.9169 117.08V116.072H97.4629C97.8176 116.072 98.0696 115.997 98.2189 115.848C98.3683 115.708 98.4429 115.465 98.4429 115.12V106.944H99.6189V115.148C99.6189 115.596 99.5443 115.96 99.3949 116.24C99.2456 116.529 99.0216 116.739 98.7229 116.87C98.4336 117.01 98.0743 117.08 97.6449 117.08H96.9169ZM99.0449 105.446C98.8116 105.446 98.6156 105.371 98.4569 105.222C98.3076 105.063 98.2329 104.867 98.2329 104.634C98.2329 104.401 98.3076 104.214 98.4569 104.074C98.6156 103.925 98.8116 103.85 99.0449 103.85C99.2689 103.85 99.4556 103.925 99.6049 104.074C99.7636 104.214 99.8429 104.401 99.8429 104.634C99.8429 104.867 99.7636 105.063 99.6049 105.222C99.4556 105.371 99.2689 105.446 99.0449 105.446ZM104.339 114.168C103.751 114.168 103.238 114.07 102.799 113.874C102.37 113.678 102.025 113.407 101.763 113.062C101.511 112.707 101.357 112.292 101.301 111.816H102.505C102.552 112.059 102.65 112.283 102.799 112.488C102.949 112.693 103.149 112.861 103.401 112.992C103.663 113.113 103.98 113.174 104.353 113.174C104.68 113.174 104.951 113.127 105.165 113.034C105.38 112.931 105.539 112.796 105.641 112.628C105.753 112.46 105.809 112.278 105.809 112.082C105.809 111.793 105.739 111.573 105.599 111.424C105.469 111.275 105.273 111.158 105.011 111.074C104.75 110.981 104.433 110.901 104.059 110.836C103.751 110.78 103.448 110.705 103.149 110.612C102.851 110.519 102.585 110.397 102.351 110.248C102.118 110.089 101.931 109.898 101.791 109.674C101.661 109.45 101.595 109.175 101.595 108.848C101.595 108.447 101.698 108.092 101.903 107.784C102.109 107.467 102.403 107.219 102.785 107.042C103.177 106.865 103.63 106.776 104.143 106.776C104.899 106.776 105.511 106.958 105.977 107.322C106.444 107.686 106.719 108.213 106.803 108.904H105.641C105.595 108.549 105.441 108.274 105.179 108.078C104.927 107.873 104.577 107.77 104.129 107.77C103.691 107.77 103.355 107.859 103.121 108.036C102.897 108.213 102.785 108.447 102.785 108.736C102.785 108.923 102.846 109.091 102.967 109.24C103.098 109.38 103.285 109.501 103.527 109.604C103.779 109.707 104.087 109.791 104.451 109.856C104.918 109.94 105.343 110.052 105.725 110.192C106.108 110.332 106.416 110.542 106.649 110.822C106.892 111.093 107.013 111.48 107.013 111.984C107.013 112.423 106.901 112.805 106.677 113.132C106.463 113.459 106.155 113.715 105.753 113.902C105.352 114.079 104.881 114.168 104.339 114.168ZM109.422 116.03H108.218V115.918C108.787 115.358 109.282 114.733 109.702 114.042C110.131 113.351 110.462 112.614 110.696 111.83C110.938 111.037 111.06 110.206 111.06 109.338C111.06 108.47 110.938 107.644 110.696 106.86C110.462 106.067 110.131 105.325 109.702 104.634C109.282 103.943 108.787 103.318 108.218 102.758V102.646H109.422C109.935 103.122 110.402 103.696 110.822 104.368C111.251 105.04 111.592 105.791 111.844 106.622C112.105 107.453 112.236 108.358 112.236 109.338C112.236 110.318 112.105 111.223 111.844 112.054C111.592 112.885 111.251 113.631 110.822 114.294C110.402 114.966 109.935 115.545 109.422 116.03ZM117.607 114V106.944H118.671L118.755 108.288C118.914 107.971 119.114 107.7 119.357 107.476C119.609 107.252 119.908 107.079 120.253 106.958C120.608 106.837 121.009 106.776 121.457 106.776V108.008H121.023C120.724 108.008 120.44 108.05 120.169 108.134C119.898 108.209 119.656 108.335 119.441 108.512C119.236 108.689 119.072 108.932 118.951 109.24C118.839 109.539 118.783 109.912 118.783 110.36V114H117.607ZM125.351 114.168C124.809 114.168 124.333 114.061 123.923 113.846C123.521 113.631 123.209 113.3 122.985 112.852C122.77 112.404 122.663 111.844 122.663 111.172V106.944H123.839V111.046C123.839 111.746 123.993 112.273 124.301 112.628C124.609 112.983 125.043 113.16 125.603 113.16C125.995 113.16 126.349 113.067 126.667 112.88C126.984 112.684 127.231 112.409 127.409 112.054C127.595 111.69 127.689 111.247 127.689 110.724V106.944H128.865V114H127.801L127.731 112.768C127.516 113.207 127.199 113.552 126.779 113.804C126.359 114.047 125.883 114.168 125.351 114.168ZM130.814 114V106.944H131.878L131.934 108.176C132.158 107.737 132.475 107.397 132.886 107.154C133.306 106.902 133.782 106.776 134.314 106.776C134.865 106.776 135.341 106.888 135.742 107.112C136.143 107.327 136.456 107.658 136.68 108.106C136.904 108.545 137.016 109.105 137.016 109.786V114H135.84V109.912C135.84 109.203 135.681 108.671 135.364 108.316C135.056 107.961 134.617 107.784 134.048 107.784C133.656 107.784 133.306 107.882 132.998 108.078C132.69 108.265 132.443 108.54 132.256 108.904C132.079 109.259 131.99 109.702 131.99 110.234V114H130.814ZM138.881 115.61V114.504H146.105V115.61H138.881ZM148.207 114V106.944H149.383V114H148.207ZM148.795 105.446C148.562 105.446 148.366 105.371 148.207 105.222C148.058 105.063 147.983 104.867 147.983 104.634C147.983 104.401 148.058 104.214 148.207 104.074C148.366 103.925 148.562 103.85 148.795 103.85C149.019 103.85 149.211 103.925 149.369 104.074C149.528 104.214 149.607 104.401 149.607 104.634C149.607 104.867 149.528 105.063 149.369 105.222C149.211 105.371 149.019 105.446 148.795 105.446ZM151.459 114V106.944H152.523L152.579 108.176C152.803 107.737 153.12 107.397 153.531 107.154C153.951 106.902 154.427 106.776 154.959 106.776C155.509 106.776 155.985 106.888 156.387 107.112C156.788 107.327 157.101 107.658 157.325 108.106C157.549 108.545 157.661 109.105 157.661 109.786V114H156.485V109.912C156.485 109.203 156.326 108.671 156.009 108.316C155.701 107.961 155.262 107.784 154.693 107.784C154.301 107.784 153.951 107.882 153.643 108.078C153.335 108.265 153.087 108.54 152.901 108.904C152.723 109.259 152.635 109.702 152.635 110.234V114H151.459ZM161.391 114L158.717 106.944H159.949L162.077 112.866L164.219 106.944H165.423L162.749 114H161.391ZM169.482 114.168C168.82 114.168 168.232 114.014 167.718 113.706C167.214 113.398 166.818 112.969 166.528 112.418C166.239 111.858 166.094 111.209 166.094 110.472C166.094 109.725 166.234 109.077 166.514 108.526C166.804 107.975 167.205 107.546 167.718 107.238C168.241 106.93 168.838 106.776 169.51 106.776C170.201 106.776 170.784 106.93 171.26 107.238C171.746 107.546 172.114 107.952 172.366 108.456C172.628 108.951 172.758 109.497 172.758 110.094C172.758 110.187 172.758 110.285 172.758 110.388C172.758 110.491 172.754 110.607 172.744 110.738H166.976V109.828H171.61C171.582 109.184 171.368 108.68 170.966 108.316C170.574 107.952 170.08 107.77 169.482 107.77C169.081 107.77 168.708 107.863 168.362 108.05C168.026 108.227 167.756 108.493 167.55 108.848C167.345 109.193 167.242 109.627 167.242 110.15V110.542C167.242 111.121 167.345 111.606 167.55 111.998C167.765 112.39 168.04 112.684 168.376 112.88C168.722 113.076 169.09 113.174 169.482 113.174C169.977 113.174 170.383 113.067 170.7 112.852C171.027 112.628 171.26 112.329 171.4 111.956H172.562C172.45 112.376 172.254 112.754 171.974 113.09C171.694 113.426 171.344 113.692 170.924 113.888C170.514 114.075 170.033 114.168 169.482 114.168ZM174.345 114V106.944H175.409L175.465 108.176C175.689 107.737 176.007 107.397 176.417 107.154C176.837 106.902 177.313 106.776 177.845 106.776C178.396 106.776 178.872 106.888 179.273 107.112C179.675 107.327 179.987 107.658 180.211 108.106C180.435 108.545 180.547 109.105 180.547 109.786V114H179.371V109.912C179.371 109.203 179.213 108.671 178.895 108.316C178.587 107.961 178.149 107.784 177.579 107.784C177.187 107.784 176.837 107.882 176.529 108.078C176.221 108.265 175.974 108.54 175.787 108.904C175.61 109.259 175.521 109.702 175.521 110.234V114H174.345ZM185.156 114C184.736 114 184.372 113.935 184.064 113.804C183.756 113.673 183.518 113.454 183.35 113.146C183.192 112.829 183.112 112.404 183.112 111.872V107.938H181.88V106.944H183.112L183.266 105.236H184.288V106.944H186.332V107.938H184.288V111.872C184.288 112.311 184.377 112.609 184.554 112.768C184.732 112.917 185.044 112.992 185.492 112.992H186.248V114H185.156ZM190.825 114.168C190.172 114.168 189.584 114.019 189.061 113.72C188.539 113.412 188.128 112.983 187.829 112.432C187.531 111.872 187.381 111.223 187.381 110.486C187.381 109.73 187.531 109.077 187.829 108.526C188.137 107.966 188.553 107.537 189.075 107.238C189.607 106.93 190.2 106.776 190.853 106.776C191.525 106.776 192.118 106.93 192.631 107.238C193.154 107.537 193.565 107.966 193.863 108.526C194.171 109.077 194.325 109.725 194.325 110.472C194.325 111.219 194.171 111.872 193.863 112.432C193.555 112.983 193.14 113.412 192.617 113.72C192.095 114.019 191.497 114.168 190.825 114.168ZM190.839 113.16C191.241 113.16 191.614 113.062 191.959 112.866C192.305 112.661 192.585 112.357 192.799 111.956C193.014 111.555 193.121 111.06 193.121 110.472C193.121 109.875 193.014 109.38 192.799 108.988C192.594 108.587 192.319 108.288 191.973 108.092C191.637 107.887 191.264 107.784 190.853 107.784C190.461 107.784 190.088 107.887 189.733 108.092C189.388 108.288 189.108 108.587 188.893 108.988C188.688 109.38 188.585 109.875 188.585 110.472C188.585 111.06 188.688 111.555 188.893 111.956C189.108 112.357 189.383 112.661 189.719 112.866C190.065 113.062 190.438 113.16 190.839 113.16ZM195.974 114V106.944H197.038L197.122 108.288C197.281 107.971 197.481 107.7 197.724 107.476C197.976 107.252 198.275 107.079 198.62 106.958C198.975 106.837 199.376 106.776 199.824 106.776V108.008H199.39C199.091 108.008 198.807 108.05 198.536 108.134C198.265 108.209 198.023 108.335 197.808 108.512C197.603 108.689 197.439 108.932 197.318 109.24C197.206 109.539 197.15 109.912 197.15 110.36V114H195.974ZM201.926 117.08L203.648 113.216H203.242L200.47 106.944H201.744L204.04 112.334L206.448 106.944H207.666L203.158 117.08H201.926Z" fill="#EEEFF1"/>
<rect x="49" y="123" width="274" height="28" rx="10" fill="#232529"/>
<path d="M62.486 144.03C61.982 143.545 61.5153 142.966 61.086 142.294C60.6567 141.631 60.3113 140.885 60.05 140.054C59.798 139.223 59.672 138.318 59.672 137.338C59.672 136.358 59.798 135.453 60.05 134.622C60.3113 133.791 60.6567 133.04 61.086 132.368C61.5153 131.696 61.982 131.122 62.486 130.646H63.69V130.758C63.1207 131.318 62.6213 131.943 62.192 132.634C61.772 133.325 61.4407 134.067 61.198 134.86C60.9647 135.644 60.848 136.47 60.848 137.338C60.848 138.206 60.9647 139.037 61.198 139.83C61.4407 140.614 61.7767 141.351 62.206 142.042C62.6353 142.733 63.13 143.358 63.69 143.918V144.03H62.486ZM63.8447 145.08V144.072H64.3907C64.7453 144.072 64.9973 143.997 65.1467 143.848C65.296 143.708 65.3707 143.465 65.3707 143.12V134.944H66.5467V143.148C66.5467 143.596 66.472 143.96 66.3227 144.24C66.1733 144.529 65.9493 144.739 65.6507 144.87C65.3613 145.01 65.002 145.08 64.5727 145.08H63.8447ZM65.9727 133.446C65.7393 133.446 65.5433 133.371 65.3847 133.222C65.2353 133.063 65.1607 132.867 65.1607 132.634C65.1607 132.401 65.2353 132.214 65.3847 132.074C65.5433 131.925 65.7393 131.85 65.9727 131.85C66.1967 131.85 66.3833 131.925 66.5327 132.074C66.6913 132.214 66.7707 132.401 66.7707 132.634C66.7707 132.867 66.6913 133.063 66.5327 133.222C66.3833 133.371 66.1967 133.446 65.9727 133.446ZM70.903 142.168C70.3336 142.168 69.8576 142.07 69.475 141.874C69.0923 141.669 68.8076 141.403 68.621 141.076C68.4343 140.74 68.341 140.376 68.341 139.984C68.341 139.508 68.4623 139.107 68.705 138.78C68.957 138.444 69.307 138.192 69.755 138.024C70.2123 137.847 70.749 137.758 71.365 137.758H73.227C73.227 137.319 73.157 136.955 73.017 136.666C72.8863 136.367 72.6903 136.143 72.429 135.994C72.177 135.845 71.8596 135.77 71.477 135.77C71.029 135.77 70.6416 135.882 70.315 136.106C69.9883 136.33 69.7876 136.661 69.713 137.1H68.509C68.565 136.596 68.733 136.176 69.013 135.84C69.3023 135.495 69.6663 135.233 70.105 135.056C70.5436 134.869 71.001 134.776 71.477 134.776C72.1303 134.776 72.6716 134.897 73.101 135.14C73.5396 135.373 73.8663 135.705 74.081 136.134C74.2956 136.554 74.403 137.053 74.403 137.632V142H73.353L73.283 140.754C73.1896 140.95 73.0683 141.137 72.919 141.314C72.779 141.482 72.611 141.631 72.415 141.762C72.219 141.883 71.995 141.981 71.743 142.056C71.5003 142.131 71.2203 142.168 70.903 142.168ZM71.085 141.174C71.4116 141.174 71.7056 141.109 71.967 140.978C72.2376 140.838 72.4663 140.651 72.653 140.418C72.8396 140.175 72.9796 139.909 73.073 139.62C73.1756 139.331 73.227 139.027 73.227 138.71V138.668H71.463C71.0056 138.668 70.637 138.724 70.357 138.836C70.077 138.939 69.8763 139.088 69.755 139.284C69.6336 139.471 69.573 139.685 69.573 139.928C69.573 140.18 69.629 140.399 69.741 140.586C69.8623 140.773 70.035 140.917 70.259 141.02C70.4923 141.123 70.7676 141.174 71.085 141.174ZM77.9924 142L75.3184 134.944H76.5504L78.6784 140.866L80.8204 134.944H82.0244L79.3504 142H77.9924ZM85.2858 142.168C84.7164 142.168 84.2404 142.07 83.8578 141.874C83.4751 141.669 83.1904 141.403 83.0038 141.076C82.8171 140.74 82.7238 140.376 82.7238 139.984C82.7238 139.508 82.8451 139.107 83.0878 138.78C83.3398 138.444 83.6898 138.192 84.1378 138.024C84.5951 137.847 85.1318 137.758 85.7478 137.758H87.6098C87.6098 137.319 87.5398 136.955 87.3998 136.666C87.2691 136.367 87.0731 136.143 86.8118 135.994C86.5598 135.845 86.2424 135.77 85.8598 135.77C85.4118 135.77 85.0244 135.882 84.6978 136.106C84.3711 136.33 84.1704 136.661 84.0958 137.1H82.8918C82.9478 136.596 83.1158 136.176 83.3958 135.84C83.6851 135.495 84.0491 135.233 84.4878 135.056C84.9264 134.869 85.3838 134.776 85.8598 134.776C86.5131 134.776 87.0544 134.897 87.4838 135.14C87.9224 135.373 88.2491 135.705 88.4638 136.134C88.6784 136.554 88.7858 137.053 88.7858 137.632V142H87.7358L87.6658 140.754C87.5724 140.95 87.4511 141.137 87.3018 141.314C87.1618 141.482 86.9938 141.631 86.7978 141.762C86.6018 141.883 86.3778 141.981 86.1258 142.056C85.8831 142.131 85.6031 142.168 85.2858 142.168ZM85.4678 141.174C85.7944 141.174 86.0884 141.109 86.3498 140.978C86.6204 140.838 86.8491 140.651 87.0358 140.418C87.2224 140.175 87.3624 139.909 87.4558 139.62C87.5584 139.331 87.6098 139.027 87.6098 138.71V138.668H85.8458C85.3884 138.668 85.0198 138.724 84.7398 138.836C84.4598 138.939 84.2591 139.088 84.1378 139.284C84.0164 139.471 83.9558 139.685 83.9558 139.928C83.9558 140.18 84.0118 140.399 84.1238 140.586C84.2451 140.773 84.4178 140.917 84.6418 141.02C84.8751 141.123 85.1504 141.174 85.4678 141.174ZM91.361 144.03H90.157V143.918C90.7263 143.358 91.221 142.733 91.641 142.042C92.0703 141.351 92.4017 140.614 92.635 139.83C92.8777 139.037 92.999 138.206 92.999 137.338C92.999 136.47 92.8777 135.644 92.635 134.86C92.4017 134.067 92.0703 133.325 91.641 132.634C91.221 131.943 90.7263 131.318 90.157 130.758V130.646H91.361C91.8743 131.122 92.341 131.696 92.761 132.368C93.1903 133.04 93.531 133.791 93.783 134.622C94.0443 135.453 94.175 136.358 94.175 137.338C94.175 138.318 94.0443 139.223 93.783 140.054C93.531 140.885 93.1903 141.631 92.761 142.294C92.341 142.966 91.8743 143.545 91.361 144.03ZM99.5464 142V134.944H100.61L100.68 135.952C100.904 135.588 101.203 135.303 101.576 135.098C101.959 134.883 102.374 134.776 102.822 134.776C103.186 134.776 103.513 134.827 103.802 134.93C104.101 135.023 104.362 135.173 104.586 135.378C104.81 135.574 104.992 135.826 105.132 136.134C105.375 135.705 105.706 135.373 106.126 135.14C106.556 134.897 107.013 134.776 107.498 134.776C108.04 134.776 108.511 134.888 108.912 135.112C109.323 135.327 109.636 135.658 109.85 136.106C110.074 136.545 110.186 137.105 110.186 137.786V142H109.024V137.912C109.024 137.203 108.88 136.671 108.59 136.316C108.301 135.961 107.895 135.784 107.372 135.784C107.008 135.784 106.682 135.882 106.392 136.078C106.103 136.265 105.874 136.54 105.706 136.904C105.538 137.268 105.454 137.716 105.454 138.248V142H104.278V137.912C104.278 137.203 104.134 136.671 103.844 136.316C103.555 135.961 103.144 135.784 102.612 135.784C102.258 135.784 101.936 135.882 101.646 136.078C101.366 136.265 101.142 136.54 100.974 136.904C100.806 137.268 100.722 137.716 100.722 138.248V142H99.5464ZM115.165 142.168C114.512 142.168 113.924 142.019 113.401 141.72C112.878 141.412 112.468 140.983 112.169 140.432C111.87 139.872 111.721 139.223 111.721 138.486C111.721 137.73 111.87 137.077 112.169 136.526C112.477 135.966 112.892 135.537 113.415 135.238C113.947 134.93 114.54 134.776 115.193 134.776C115.865 134.776 116.458 134.93 116.971 135.238C117.494 135.537 117.904 135.966 118.203 136.526C118.511 137.077 118.665 137.725 118.665 138.472C118.665 139.219 118.511 139.872 118.203 140.432C117.895 140.983 117.48 141.412 116.957 141.72C116.434 142.019 115.837 142.168 115.165 142.168ZM115.179 141.16C115.58 141.16 115.954 141.062 116.299 140.866C116.644 140.661 116.924 140.357 117.139 139.956C117.354 139.555 117.461 139.06 117.461 138.472C117.461 137.875 117.354 137.38 117.139 136.988C116.934 136.587 116.658 136.288 116.313 136.092C115.977 135.887 115.604 135.784 115.193 135.784C114.801 135.784 114.428 135.887 114.073 136.092C113.728 136.288 113.448 136.587 113.233 136.988C113.028 137.38 112.925 137.875 112.925 138.472C112.925 139.06 113.028 139.555 113.233 139.956C113.448 140.357 113.723 140.661 114.059 140.866C114.404 141.062 114.778 141.16 115.179 141.16ZM121.989 142L119.315 134.944H120.547L122.675 140.866L124.817 134.944H126.021L123.347 142H121.989ZM130.08 142.168C129.417 142.168 128.829 142.014 128.316 141.706C127.812 141.398 127.415 140.969 127.126 140.418C126.837 139.858 126.692 139.209 126.692 138.472C126.692 137.725 126.832 137.077 127.112 136.526C127.401 135.975 127.803 135.546 128.316 135.238C128.839 134.93 129.436 134.776 130.108 134.776C130.799 134.776 131.382 134.93 131.858 135.238C132.343 135.546 132.712 135.952 132.964 136.456C133.225 136.951 133.356 137.497 133.356 138.094C133.356 138.187 133.356 138.285 133.356 138.388C133.356 138.491 133.351 138.607 133.342 138.738H127.574V137.828H132.208C132.18 137.184 131.965 136.68 131.564 136.316C131.172 135.952 130.677 135.77 130.08 135.77C129.679 135.77 129.305 135.863 128.96 136.05C128.624 136.227 128.353 136.493 128.148 136.848C127.943 137.193 127.84 137.627 127.84 138.15V138.542C127.84 139.121 127.943 139.606 128.148 139.998C128.363 140.39 128.638 140.684 128.974 140.88C129.319 141.076 129.688 141.174 130.08 141.174C130.575 141.174 130.981 141.067 131.298 140.852C131.625 140.628 131.858 140.329 131.998 139.956H133.16C133.048 140.376 132.852 140.754 132.572 141.09C132.292 141.426 131.942 141.692 131.522 141.888C131.111 142.075 130.631 142.168 130.08 142.168ZM134.971 143.61V142.504H142.195V143.61H134.971ZM147.335 142.168C146.682 142.168 146.094 142.019 145.571 141.72C145.048 141.412 144.638 140.983 144.339 140.432C144.04 139.872 143.891 139.223 143.891 138.486C143.891 137.73 144.04 137.077 144.339 136.526C144.647 135.966 145.062 135.537 145.585 135.238C146.117 134.93 146.71 134.776 147.363 134.776C148.035 134.776 148.628 134.93 149.141 135.238C149.664 135.537 150.074 135.966 150.373 136.526C150.681 137.077 150.835 137.725 150.835 138.472C150.835 139.219 150.681 139.872 150.373 140.432C150.065 140.983 149.65 141.412 149.127 141.72C148.604 142.019 148.007 142.168 147.335 142.168ZM147.349 141.16C147.75 141.16 148.124 141.062 148.469 140.866C148.814 140.661 149.094 140.357 149.309 139.956C149.524 139.555 149.631 139.06 149.631 138.472C149.631 137.875 149.524 137.38 149.309 136.988C149.104 136.587 148.828 136.288 148.483 136.092C148.147 135.887 147.774 135.784 147.363 135.784C146.971 135.784 146.598 135.887 146.243 136.092C145.898 136.288 145.618 136.587 145.403 136.988C145.198 137.38 145.095 137.875 145.095 138.472C145.095 139.06 145.198 139.555 145.403 139.956C145.618 140.357 145.893 140.661 146.229 140.866C146.574 141.062 146.948 141.16 147.349 141.16ZM152.484 142V134.944H153.548L153.632 136.288C153.791 135.971 153.991 135.7 154.234 135.476C154.486 135.252 154.785 135.079 155.13 134.958C155.485 134.837 155.886 134.776 156.334 134.776V136.008H155.9C155.601 136.008 155.317 136.05 155.046 136.134C154.775 136.209 154.533 136.335 154.318 136.512C154.113 136.689 153.949 136.932 153.828 137.24C153.716 137.539 153.66 137.912 153.66 138.36V142H152.484ZM160.514 142.168C159.832 142.168 159.235 142.009 158.722 141.692C158.208 141.365 157.812 140.922 157.532 140.362C157.252 139.802 157.112 139.167 157.112 138.458C157.112 137.749 157.252 137.119 157.532 136.568C157.812 136.008 158.208 135.569 158.722 135.252C159.244 134.935 159.846 134.776 160.528 134.776C161.106 134.776 161.61 134.893 162.04 135.126C162.478 135.359 162.814 135.686 163.048 136.106V131.92H164.224V142H163.16L163.062 140.838C162.912 141.071 162.721 141.291 162.488 141.496C162.254 141.692 161.974 141.855 161.648 141.986C161.321 142.107 160.943 142.168 160.514 142.168ZM160.654 141.146C161.12 141.146 161.531 141.034 161.886 140.81C162.24 140.586 162.516 140.278 162.712 139.886C162.908 139.485 163.006 139.013 163.006 138.472C163.006 137.94 162.908 137.473 162.712 137.072C162.516 136.671 162.24 136.358 161.886 136.134C161.531 135.91 161.12 135.798 160.654 135.798C160.196 135.798 159.79 135.91 159.436 136.134C159.081 136.358 158.806 136.671 158.61 137.072C158.414 137.473 158.316 137.94 158.316 138.472C158.316 139.013 158.414 139.485 158.61 139.886C158.806 140.278 159.081 140.586 159.436 140.81C159.79 141.034 160.196 141.146 160.654 141.146ZM169.277 142.168C168.614 142.168 168.026 142.014 167.513 141.706C167.009 141.398 166.612 140.969 166.323 140.418C166.034 139.858 165.889 139.209 165.889 138.472C165.889 137.725 166.029 137.077 166.309 136.526C166.598 135.975 167 135.546 167.513 135.238C168.036 134.93 168.633 134.776 169.305 134.776C169.996 134.776 170.579 134.93 171.055 135.238C171.54 135.546 171.909 135.952 172.161 136.456C172.422 136.951 172.553 137.497 172.553 138.094C172.553 138.187 172.553 138.285 172.553 138.388C172.553 138.491 172.548 138.607 172.539 138.738H166.771V137.828H171.405C171.377 137.184 171.162 136.68 170.761 136.316C170.369 135.952 169.874 135.77 169.277 135.77C168.876 135.77 168.502 135.863 168.157 136.05C167.821 136.227 167.55 136.493 167.345 136.848C167.14 137.193 167.037 137.627 167.037 138.15V138.542C167.037 139.121 167.14 139.606 167.345 139.998C167.56 140.39 167.835 140.684 168.171 140.88C168.516 141.076 168.885 141.174 169.277 141.174C169.772 141.174 170.178 141.067 170.495 140.852C170.822 140.628 171.055 140.329 171.195 139.956H172.357C172.245 140.376 172.049 140.754 171.769 141.09C171.489 141.426 171.139 141.692 170.719 141.888C170.308 142.075 169.828 142.168 169.277 142.168ZM174.14 142V134.944H175.204L175.288 136.288C175.447 135.971 175.647 135.7 175.89 135.476C176.142 135.252 176.441 135.079 176.786 134.958C177.141 134.837 177.542 134.776 177.99 134.776V136.008H177.556C177.257 136.008 176.973 136.05 176.702 136.134C176.431 136.209 176.189 136.335 175.974 136.512C175.769 136.689 175.605 136.932 175.484 137.24C175.372 137.539 175.316 137.912 175.316 138.36V142H174.14ZM181.982 142.168C181.394 142.168 180.88 142.07 180.442 141.874C180.012 141.678 179.667 141.407 179.406 141.062C179.154 140.707 179 140.292 178.944 139.816H180.148C180.194 140.059 180.292 140.283 180.442 140.488C180.591 140.693 180.792 140.861 181.044 140.992C181.305 141.113 181.622 141.174 181.996 141.174C182.322 141.174 182.593 141.127 182.808 141.034C183.022 140.931 183.181 140.796 183.284 140.628C183.396 140.46 183.452 140.278 183.452 140.082C183.452 139.793 183.382 139.573 183.242 139.424C183.111 139.275 182.915 139.158 182.654 139.074C182.392 138.981 182.075 138.901 181.702 138.836C181.394 138.78 181.09 138.705 180.792 138.612C180.493 138.519 180.227 138.397 179.994 138.248C179.76 138.089 179.574 137.898 179.434 137.674C179.303 137.45 179.238 137.175 179.238 136.848C179.238 136.447 179.34 136.092 179.546 135.784C179.751 135.467 180.045 135.219 180.428 135.042C180.82 134.865 181.272 134.776 181.786 134.776C182.542 134.776 183.153 134.958 183.62 135.322C184.086 135.686 184.362 136.213 184.446 136.904H183.284C183.237 136.549 183.083 136.274 182.822 136.078C182.57 135.873 182.22 135.77 181.772 135.77C181.333 135.77 180.997 135.859 180.764 136.036C180.54 136.213 180.428 136.447 180.428 136.736C180.428 136.923 180.488 137.091 180.61 137.24C180.74 137.38 180.927 137.501 181.17 137.604C181.422 137.707 181.73 137.791 182.094 137.856C182.56 137.94 182.985 138.052 183.368 138.192C183.75 138.332 184.058 138.542 184.292 138.822C184.534 139.093 184.656 139.48 184.656 139.984C184.656 140.423 184.544 140.805 184.32 141.132C184.105 141.459 183.797 141.715 183.396 141.902C182.994 142.079 182.523 142.168 181.982 142.168Z" fill="#EEEFF1"/>
<rect x="49" y="151" width="274" height="28" rx="10" fill="#232529"/>
<path d="M62.486 172.03C61.982 171.545 61.5153 170.966 61.086 170.294C60.6567 169.631 60.3113 168.885 60.05 168.054C59.798 167.223 59.672 166.318 59.672 165.338C59.672 164.358 59.798 163.453 60.05 162.622C60.3113 161.791 60.6567 161.04 61.086 160.368C61.5153 159.696 61.982 159.122 62.486 158.646H63.69V158.758C63.1207 159.318 62.6213 159.943 62.192 160.634C61.772 161.325 61.4407 162.067 61.198 162.86C60.9647 163.644 60.848 164.47 60.848 165.338C60.848 166.206 60.9647 167.037 61.198 167.83C61.4407 168.614 61.7767 169.351 62.206 170.042C62.6353 170.733 63.13 171.358 63.69 171.918V172.03H62.486ZM65.2027 170V162.944H66.2667L66.3507 164.288C66.5093 163.971 66.71 163.7 66.9527 163.476C67.2047 163.252 67.5033 163.079 67.8487 162.958C68.2033 162.837 68.6047 162.776 69.0527 162.776V164.008H68.6187C68.32 164.008 68.0353 164.05 67.7647 164.134C67.494 164.209 67.2513 164.335 67.0367 164.512C66.8313 164.689 66.668 164.932 66.5467 165.24C66.4347 165.539 66.3787 165.912 66.3787 166.36V170H65.2027ZM72.9463 170.168C72.405 170.168 71.929 170.061 71.5183 169.846C71.117 169.631 70.8043 169.3 70.5803 168.852C70.3656 168.404 70.2583 167.844 70.2583 167.172V162.944H71.4343V167.046C71.4343 167.746 71.5883 168.273 71.8963 168.628C72.2043 168.983 72.6383 169.16 73.1983 169.16C73.5903 169.16 73.945 169.067 74.2623 168.88C74.5796 168.684 74.827 168.409 75.0043 168.054C75.191 167.69 75.2843 167.247 75.2843 166.724V162.944H76.4603V170H75.3963L75.3263 168.768C75.1116 169.207 74.7943 169.552 74.3743 169.804C73.9543 170.047 73.4783 170.168 72.9463 170.168ZM81.0697 170.168C80.4817 170.168 79.9684 170.07 79.5297 169.874C79.1004 169.678 78.755 169.407 78.4937 169.062C78.2417 168.707 78.0877 168.292 78.0317 167.816H79.2357C79.2824 168.059 79.3804 168.283 79.5297 168.488C79.679 168.693 79.8797 168.861 80.1317 168.992C80.393 169.113 80.7104 169.174 81.0837 169.174C81.4104 169.174 81.681 169.127 81.8957 169.034C82.1104 168.931 82.269 168.796 82.3717 168.628C82.4837 168.46 82.5397 168.278 82.5397 168.082C82.5397 167.793 82.4697 167.573 82.3297 167.424C82.199 167.275 82.003 167.158 81.7417 167.074C81.4804 166.981 81.163 166.901 80.7897 166.836C80.4817 166.78 80.1784 166.705 79.8797 166.612C79.581 166.519 79.315 166.397 79.0817 166.248C78.8484 166.089 78.6617 165.898 78.5217 165.674C78.391 165.45 78.3257 165.175 78.3257 164.848C78.3257 164.447 78.4284 164.092 78.6337 163.784C78.839 163.467 79.133 163.219 79.5157 163.042C79.9077 162.865 80.3604 162.776 80.8737 162.776C81.6297 162.776 82.241 162.958 82.7077 163.322C83.1744 163.686 83.4497 164.213 83.5337 164.904H82.3717C82.325 164.549 82.171 164.274 81.9097 164.078C81.6577 163.873 81.3077 163.77 80.8597 163.77C80.421 163.77 80.085 163.859 79.8517 164.036C79.6277 164.213 79.5157 164.447 79.5157 164.736C79.5157 164.923 79.5764 165.091 79.6977 165.24C79.8284 165.38 80.015 165.501 80.2577 165.604C80.5097 165.707 80.8177 165.791 81.1817 165.856C81.6484 165.94 82.073 166.052 82.4557 166.192C82.8384 166.332 83.1464 166.542 83.3797 166.822C83.6224 167.093 83.7437 167.48 83.7437 167.984C83.7437 168.423 83.6317 168.805 83.4077 169.132C83.193 169.459 82.885 169.715 82.4837 169.902C82.0824 170.079 81.611 170.168 81.0697 170.168ZM87.8946 170C87.4746 170 87.1106 169.935 86.8026 169.804C86.4946 169.673 86.2566 169.454 86.0886 169.146C85.9299 168.829 85.8506 168.404 85.8506 167.872V163.938H84.6186V162.944H85.8506L86.0046 161.236H87.0266V162.944H89.0706V163.938H87.0266V167.872C87.0266 168.311 87.1152 168.609 87.2926 168.768C87.4699 168.917 87.7826 168.992 88.2306 168.992H88.9866V170H87.8946ZM91.361 172.03H90.157V171.918C90.7263 171.358 91.221 170.733 91.641 170.042C92.0703 169.351 92.4017 168.614 92.635 167.83C92.8777 167.037 92.999 166.206 92.999 165.338C92.999 164.47 92.8777 163.644 92.635 162.86C92.4017 162.067 92.0703 161.325 91.641 160.634C91.221 159.943 90.7263 159.318 90.157 158.758V158.646H91.361C91.8743 159.122 92.341 159.696 92.761 160.368C93.1903 161.04 93.531 161.791 93.783 162.622C94.0443 163.453 94.175 164.358 94.175 165.338C94.175 166.318 94.0443 167.223 93.783 168.054C93.531 168.885 93.1903 169.631 92.761 170.294C92.341 170.966 91.8743 171.545 91.361 172.03ZM102.332 173.248C101.698 173.248 101.133 173.164 100.638 172.996C100.153 172.837 99.7751 172.59 99.5044 172.254C99.2337 171.918 99.0984 171.503 99.0984 171.008C99.0984 170.793 99.1404 170.565 99.2244 170.322C99.3177 170.079 99.4717 169.841 99.6864 169.608C99.9104 169.375 100.223 169.165 100.624 168.978L101.436 169.454C100.942 169.659 100.62 169.893 100.47 170.154C100.321 170.425 100.246 170.672 100.246 170.896C100.246 171.204 100.335 171.461 100.512 171.666C100.69 171.871 100.937 172.025 101.254 172.128C101.572 172.231 101.931 172.282 102.332 172.282C102.734 172.282 103.079 172.226 103.368 172.114C103.658 172.002 103.882 171.843 104.04 171.638C104.199 171.433 104.278 171.19 104.278 170.91C104.278 170.583 104.157 170.308 103.914 170.084C103.672 169.869 103.21 169.743 102.528 169.706C101.978 169.669 101.516 169.617 101.142 169.552C100.769 169.487 100.461 169.412 100.218 169.328C99.9757 169.235 99.7704 169.132 99.6024 169.02C99.4437 168.908 99.2991 168.791 99.1684 168.67V168.348L100.526 167.004L101.548 167.368L100.148 168.628L100.33 168.138C100.433 168.213 100.531 168.283 100.624 168.348C100.718 168.413 100.844 168.469 101.002 168.516C101.161 168.563 101.38 168.605 101.66 168.642C101.95 168.679 102.328 168.717 102.794 168.754C103.438 168.801 103.952 168.913 104.334 169.09C104.726 169.267 105.006 169.505 105.174 169.804C105.352 170.103 105.44 170.457 105.44 170.868C105.44 171.269 105.328 171.647 105.104 172.002C104.89 172.366 104.554 172.665 104.096 172.898C103.639 173.131 103.051 173.248 102.332 173.248ZM102.318 167.788C101.73 167.788 101.226 167.676 100.806 167.452C100.396 167.228 100.083 166.929 99.8684 166.556C99.6537 166.173 99.5464 165.749 99.5464 165.282C99.5464 164.815 99.6537 164.395 99.8684 164.022C100.092 163.649 100.41 163.35 100.82 163.126C101.231 162.893 101.73 162.776 102.318 162.776C102.906 162.776 103.406 162.893 103.816 163.126C104.227 163.35 104.54 163.649 104.754 164.022C104.969 164.395 105.076 164.815 105.076 165.282C105.076 165.749 104.969 166.173 104.754 166.556C104.54 166.929 104.227 167.228 103.816 167.452C103.406 167.676 102.906 167.788 102.318 167.788ZM102.318 166.822C102.822 166.822 103.219 166.691 103.508 166.43C103.798 166.169 103.942 165.786 103.942 165.282C103.942 164.787 103.798 164.409 103.508 164.148C103.219 163.887 102.822 163.756 102.318 163.756C101.824 163.756 101.422 163.887 101.114 164.148C100.816 164.409 100.666 164.787 100.666 165.282C100.666 165.786 100.816 166.169 101.114 166.43C101.413 166.691 101.814 166.822 102.318 166.822ZM103.466 163.938L103.116 162.944H106V163.826L103.466 163.938ZM110.174 170.168C109.511 170.168 108.923 170.014 108.41 169.706C107.906 169.398 107.509 168.969 107.22 168.418C106.93 167.858 106.786 167.209 106.786 166.472C106.786 165.725 106.926 165.077 107.206 164.526C107.495 163.975 107.896 163.546 108.41 163.238C108.932 162.93 109.53 162.776 110.202 162.776C110.892 162.776 111.476 162.93 111.952 163.238C112.437 163.546 112.806 163.952 113.058 164.456C113.319 164.951 113.45 165.497 113.45 166.094C113.45 166.187 113.45 166.285 113.45 166.388C113.45 166.491 113.445 166.607 113.436 166.738H107.668V165.828H112.302C112.274 165.184 112.059 164.68 111.658 164.316C111.266 163.952 110.771 163.77 110.174 163.77C109.772 163.77 109.399 163.863 109.054 164.05C108.718 164.227 108.447 164.493 108.242 164.848C108.036 165.193 107.934 165.627 107.934 166.15V166.542C107.934 167.121 108.036 167.606 108.242 167.998C108.456 168.39 108.732 168.684 109.068 168.88C109.413 169.076 109.782 169.174 110.174 169.174C110.668 169.174 111.074 169.067 111.392 168.852C111.718 168.628 111.952 168.329 112.092 167.956H113.254C113.142 168.376 112.946 168.754 112.666 169.09C112.386 169.426 112.036 169.692 111.616 169.888C111.205 170.075 110.724 170.168 110.174 170.168ZM115.037 170V162.944H116.101L116.157 164.176C116.381 163.737 116.698 163.397 117.109 163.154C117.529 162.902 118.005 162.776 118.537 162.776C119.087 162.776 119.563 162.888 119.965 163.112C120.366 163.327 120.679 163.658 120.903 164.106C121.127 164.545 121.239 165.105 121.239 165.786V170H120.063V165.912C120.063 165.203 119.904 164.671 119.587 164.316C119.279 163.961 118.84 163.784 118.271 163.784C117.879 163.784 117.529 163.882 117.221 164.078C116.913 164.265 116.665 164.54 116.479 164.904C116.301 165.259 116.213 165.702 116.213 166.234V170H115.037ZM126.17 170.168C125.507 170.168 124.919 170.014 124.406 169.706C123.902 169.398 123.505 168.969 123.216 168.418C122.926 167.858 122.782 167.209 122.782 166.472C122.782 165.725 122.922 165.077 123.202 164.526C123.491 163.975 123.892 163.546 124.406 163.238C124.928 162.93 125.526 162.776 126.198 162.776C126.888 162.776 127.472 162.93 127.948 163.238C128.433 163.546 128.802 163.952 129.054 164.456C129.315 164.951 129.446 165.497 129.446 166.094C129.446 166.187 129.446 166.285 129.446 166.388C129.446 166.491 129.441 166.607 129.432 166.738H123.664V165.828H128.298C128.27 165.184 128.055 164.68 127.654 164.316C127.262 163.952 126.767 163.77 126.17 163.77C125.768 163.77 125.395 163.863 125.05 164.05C124.714 164.227 124.443 164.493 124.238 164.848C124.032 165.193 123.93 165.627 123.93 166.15V166.542C123.93 167.121 124.032 167.606 124.238 167.998C124.452 168.39 124.728 168.684 125.064 168.88C125.409 169.076 125.778 169.174 126.17 169.174C126.664 169.174 127.07 169.067 127.388 168.852C127.714 168.628 127.948 168.329 128.088 167.956H129.25C129.138 168.376 128.942 168.754 128.662 169.09C128.382 169.426 128.032 169.692 127.612 169.888C127.201 170.075 126.72 170.168 126.17 170.168ZM131.033 170V162.944H132.097L132.181 164.288C132.339 163.971 132.54 163.7 132.783 163.476C133.035 163.252 133.333 163.079 133.679 162.958C134.033 162.837 134.435 162.776 134.883 162.776V164.008H134.449C134.15 164.008 133.865 164.05 133.595 164.134C133.324 164.209 133.081 164.335 132.867 164.512C132.661 164.689 132.498 164.932 132.377 165.24C132.265 165.539 132.209 165.912 132.209 166.36V170H131.033ZM138.51 170.168C137.941 170.168 137.465 170.07 137.082 169.874C136.7 169.669 136.415 169.403 136.228 169.076C136.042 168.74 135.948 168.376 135.948 167.984C135.948 167.508 136.07 167.107 136.312 166.78C136.564 166.444 136.914 166.192 137.362 166.024C137.82 165.847 138.356 165.758 138.972 165.758H140.834C140.834 165.319 140.764 164.955 140.624 164.666C140.494 164.367 140.298 164.143 140.036 163.994C139.784 163.845 139.467 163.77 139.084 163.77C138.636 163.77 138.249 163.882 137.922 164.106C137.596 164.33 137.395 164.661 137.32 165.1H136.116C136.172 164.596 136.34 164.176 136.62 163.84C136.91 163.495 137.274 163.233 137.712 163.056C138.151 162.869 138.608 162.776 139.084 162.776C139.738 162.776 140.279 162.897 140.708 163.14C141.147 163.373 141.474 163.705 141.688 164.134C141.903 164.554 142.01 165.053 142.01 165.632V170H140.96L140.89 168.754C140.797 168.95 140.676 169.137 140.526 169.314C140.386 169.482 140.218 169.631 140.022 169.762C139.826 169.883 139.602 169.981 139.35 170.056C139.108 170.131 138.828 170.168 138.51 170.168ZM138.692 169.174C139.019 169.174 139.313 169.109 139.574 168.978C139.845 168.838 140.074 168.651 140.26 168.418C140.447 168.175 140.587 167.909 140.68 167.62C140.783 167.331 140.834 167.027 140.834 166.71V166.668H139.07C138.613 166.668 138.244 166.724 137.964 166.836C137.684 166.939 137.484 167.088 137.362 167.284C137.241 167.471 137.18 167.685 137.18 167.928C137.18 168.18 137.236 168.399 137.348 168.586C137.47 168.773 137.642 168.917 137.866 169.02C138.1 169.123 138.375 169.174 138.692 169.174ZM146.41 170C145.99 170 145.626 169.935 145.318 169.804C145.01 169.673 144.772 169.454 144.604 169.146C144.446 168.829 144.366 168.404 144.366 167.872V163.938H143.134V162.944H144.366L144.52 161.236H145.542V162.944H147.586V163.938H145.542V167.872C145.542 168.311 145.631 168.609 145.808 168.768C145.986 168.917 146.298 168.992 146.746 168.992H147.502V170H146.41ZM152.023 170.168C151.361 170.168 150.773 170.014 150.259 169.706C149.755 169.398 149.359 168.969 149.069 168.418C148.78 167.858 148.635 167.209 148.635 166.472C148.635 165.725 148.775 165.077 149.055 164.526C149.345 163.975 149.746 163.546 150.259 163.238C150.782 162.93 151.379 162.776 152.051 162.776C152.742 162.776 153.325 162.93 153.801 163.238C154.287 163.546 154.655 163.952 154.907 164.456C155.169 164.951 155.299 165.497 155.299 166.094C155.299 166.187 155.299 166.285 155.299 166.388C155.299 166.491 155.295 166.607 155.285 166.738H149.517V165.828H154.151C154.123 165.184 153.909 164.68 153.507 164.316C153.115 163.952 152.621 163.77 152.023 163.77C151.622 163.77 151.249 163.863 150.903 164.05C150.567 164.227 150.297 164.493 150.091 164.848C149.886 165.193 149.783 165.627 149.783 166.15V166.542C149.783 167.121 149.886 167.606 150.091 167.998C150.306 168.39 150.581 168.684 150.917 168.88C151.263 169.076 151.631 169.174 152.023 169.174C152.518 169.174 152.924 169.067 153.241 168.852C153.568 168.628 153.801 168.329 153.941 167.956H155.103C154.991 168.376 154.795 168.754 154.515 169.09C154.235 169.426 153.885 169.692 153.465 169.888C153.055 170.075 152.574 170.168 152.023 170.168ZM156.914 171.61V170.504H164.138V171.61H156.914ZM166.24 170V162.944H167.416V170H166.24ZM166.828 161.446C166.595 161.446 166.399 161.371 166.24 161.222C166.091 161.063 166.016 160.867 166.016 160.634C166.016 160.401 166.091 160.214 166.24 160.074C166.399 159.925 166.595 159.85 166.828 159.85C167.052 159.85 167.244 159.925 167.402 160.074C167.561 160.214 167.64 160.401 167.64 160.634C167.64 160.867 167.561 161.063 167.402 161.222C167.244 161.371 167.052 161.446 166.828 161.446ZM169.492 170V162.944H170.556L170.612 164.176C170.836 163.737 171.153 163.397 171.564 163.154C171.984 162.902 172.46 162.776 172.992 162.776C173.542 162.776 174.018 162.888 174.42 163.112C174.821 163.327 175.134 163.658 175.358 164.106C175.582 164.545 175.694 165.105 175.694 165.786V170H174.518V165.912C174.518 165.203 174.359 164.671 174.042 164.316C173.734 163.961 173.295 163.784 172.726 163.784C172.334 163.784 171.984 163.882 171.676 164.078C171.368 164.265 171.12 164.54 170.934 164.904C170.756 165.259 170.668 165.702 170.668 166.234V170H169.492ZM179.424 170L176.75 162.944H177.982L180.11 168.866L182.252 162.944H183.456L180.782 170H179.424ZM187.571 170.168C186.918 170.168 186.33 170.019 185.807 169.72C185.285 169.412 184.874 168.983 184.575 168.432C184.277 167.872 184.127 167.223 184.127 166.486C184.127 165.73 184.277 165.077 184.575 164.526C184.883 163.966 185.299 163.537 185.821 163.238C186.353 162.93 186.946 162.776 187.599 162.776C188.271 162.776 188.864 162.93 189.377 163.238C189.9 163.537 190.311 163.966 190.609 164.526C190.917 165.077 191.071 165.725 191.071 166.472C191.071 167.219 190.917 167.872 190.609 168.432C190.301 168.983 189.886 169.412 189.363 169.72C188.841 170.019 188.243 170.168 187.571 170.168ZM187.585 169.16C187.987 169.16 188.36 169.062 188.705 168.866C189.051 168.661 189.331 168.357 189.545 167.956C189.76 167.555 189.867 167.06 189.867 166.472C189.867 165.875 189.76 165.38 189.545 164.988C189.34 164.587 189.065 164.288 188.719 164.092C188.383 163.887 188.01 163.784 187.599 163.784C187.207 163.784 186.834 163.887 186.479 164.092C186.134 164.288 185.854 164.587 185.639 164.988C185.434 165.38 185.331 165.875 185.331 166.472C185.331 167.06 185.434 167.555 185.639 167.956C185.854 168.357 186.129 168.661 186.465 168.866C186.811 169.062 187.184 169.16 187.585 169.16ZM192.832 170V162.944H194.008V170H192.832ZM193.42 161.446C193.187 161.446 192.991 161.371 192.832 161.222C192.683 161.063 192.608 160.867 192.608 160.634C192.608 160.401 192.683 160.214 192.832 160.074C192.991 159.925 193.187 159.85 193.42 159.85C193.644 159.85 193.836 159.925 193.994 160.074C194.153 160.214 194.232 160.401 194.232 160.634C194.232 160.867 194.153 161.063 193.994 161.222C193.836 161.371 193.644 161.446 193.42 161.446ZM199.262 170.168C198.599 170.168 198.002 170.014 197.47 169.706C196.947 169.398 196.536 168.969 196.238 168.418C195.939 167.858 195.79 167.214 195.79 166.486C195.79 165.739 195.939 165.091 196.238 164.54C196.536 163.989 196.947 163.56 197.47 163.252C198.002 162.935 198.599 162.776 199.262 162.776C200.102 162.776 200.802 162.995 201.362 163.434C201.922 163.863 202.276 164.442 202.426 165.17H201.222C201.128 164.731 200.9 164.391 200.536 164.148C200.172 163.905 199.742 163.784 199.248 163.784C198.846 163.784 198.473 163.887 198.128 164.092C197.782 164.288 197.507 164.587 197.302 164.988C197.096 165.389 196.994 165.884 196.994 166.472C196.994 166.911 197.054 167.303 197.176 167.648C197.297 167.984 197.46 168.264 197.666 168.488C197.871 168.712 198.109 168.885 198.38 169.006C198.66 169.118 198.949 169.174 199.248 169.174C199.584 169.174 199.887 169.123 200.158 169.02C200.428 168.908 200.657 168.745 200.844 168.53C201.03 168.315 201.156 168.063 201.222 167.774H202.426C202.276 168.483 201.917 169.062 201.348 169.51C200.788 169.949 200.092 170.168 199.262 170.168ZM207.189 170.168C206.527 170.168 205.939 170.014 205.425 169.706C204.921 169.398 204.525 168.969 204.235 168.418C203.946 167.858 203.801 167.209 203.801 166.472C203.801 165.725 203.941 165.077 204.221 164.526C204.511 163.975 204.912 163.546 205.425 163.238C205.948 162.93 206.545 162.776 207.217 162.776C207.908 162.776 208.491 162.93 208.967 163.238C209.453 163.546 209.821 163.952 210.073 164.456C210.335 164.951 210.465 165.497 210.465 166.094C210.465 166.187 210.465 166.285 210.465 166.388C210.465 166.491 210.461 166.607 210.451 166.738H204.683V165.828H209.317C209.289 165.184 209.075 164.68 208.673 164.316C208.281 163.952 207.787 163.77 207.189 163.77C206.788 163.77 206.415 163.863 206.069 164.05C205.733 164.227 205.463 164.493 205.257 164.848C205.052 165.193 204.949 165.627 204.949 166.15V166.542C204.949 167.121 205.052 167.606 205.257 167.998C205.472 168.39 205.747 168.684 206.083 168.88C206.429 169.076 206.797 169.174 207.189 169.174C207.684 169.174 208.09 169.067 208.407 168.852C208.734 168.628 208.967 168.329 209.107 167.956H210.269C210.157 168.376 209.961 168.754 209.681 169.09C209.401 169.426 209.051 169.692 208.631 169.888C208.221 170.075 207.74 170.168 207.189 170.168ZM214.712 170.168C214.124 170.168 213.611 170.07 213.172 169.874C212.743 169.678 212.398 169.407 212.136 169.062C211.884 168.707 211.73 168.292 211.674 167.816H212.878C212.925 168.059 213.023 168.283 213.172 168.488C213.322 168.693 213.522 168.861 213.774 168.992C214.036 169.113 214.353 169.174 214.726 169.174C215.053 169.174 215.324 169.127 215.538 169.034C215.753 168.931 215.912 168.796 216.014 168.628C216.126 168.46 216.182 168.278 216.182 168.082C216.182 167.793 216.112 167.573 215.972 167.424C215.842 167.275 215.646 167.158 215.384 167.074C215.123 166.981 214.806 166.901 214.432 166.836C214.124 166.78 213.821 166.705 213.522 166.612C213.224 166.519 212.958 166.397 212.724 166.248C212.491 166.089 212.304 165.898 212.164 165.674C212.034 165.45 211.968 165.175 211.968 164.848C211.968 164.447 212.071 164.092 212.276 163.784C212.482 163.467 212.776 163.219 213.158 163.042C213.55 162.865 214.003 162.776 214.516 162.776C215.272 162.776 215.884 162.958 216.35 163.322C216.817 163.686 217.092 164.213 217.176 164.904H216.014C215.968 164.549 215.814 164.274 215.552 164.078C215.3 163.873 214.95 163.77 214.502 163.77C214.064 163.77 213.728 163.859 213.494 164.036C213.27 164.213 213.158 164.447 213.158 164.736C213.158 164.923 213.219 165.091 213.34 165.24C213.471 165.38 213.658 165.501 213.9 165.604C214.152 165.707 214.46 165.791 214.824 165.856C215.291 165.94 215.716 166.052 216.098 166.192C216.481 166.332 216.789 166.542 217.022 166.822C217.265 167.093 217.386 167.48 217.386 167.984C217.386 168.423 217.274 168.805 217.05 169.132C216.836 169.459 216.528 169.715 216.126 169.902C215.725 170.079 215.254 170.168 214.712 170.168Z" fill="#EEEFF1"/>
<line x1="79" y1="183.5" x2="293" y2="183.5" stroke="#575B62"/>
</g>
<rect x="44.5" y="62.5" width="283" height="121" rx="5.5" stroke="#575B62" shape-rendering="crispEdges"/>
</g>
<defs>
<filter id="filter0_d_2654_28028" x="0" y="0" width="372" height="120" filterUnits="userSpaceOnUse" color-interpolation-filters="sRGB">
<feFlood flood-opacity="0" result="BackgroundImageFix"/>
<feColorMatrix in="SourceAlpha" type="matrix" values="0 0 0 0 0 0 0 0 0 0 0 0 0 0 0 0 0 0 127 0" result="hardAlpha"/>
<feOffset dy="24"/>
<feGaussianBlur stdDeviation="22"/>
<feComposite in2="hardAlpha" operator="out"/>
<feColorMatrix type="matrix" values="0 0 0 0 0 0 0 0 0 0 0 0 0 0 0 0 0 0 0.5 0"/>
<feBlend mode="normal" in2="BackgroundImageFix" result="effect1_dropShadow_2654_28028"/>
<feBlend mode="normal" in="SourceGraphic" in2="effect1_dropShadow_2654_28028" result="shape"/>
</filter>
<filter id="filter1_d_2654_28028" x="0" y="42" width="372" height="210" filterUnits="userSpaceOnUse" color-interpolation-filters="sRGB">
<feFlood flood-opacity="0" result="BackgroundImageFix"/>
<feColorMatrix in="SourceAlpha" type="matrix" values="0 0 0 0 0 0 0 0 0 0 0 0 0 0 0 0 0 0 127 0" result="hardAlpha"/>
<feOffset dy="24"/>
<feGaussianBlur stdDeviation="22"/>
<feComposite in2="hardAlpha" operator="out"/>
<feColorMatrix type="matrix" values="0 0 0 0 0 0 0 0 0 0 0 0 0 0 0 0 0 0 0.5 0"/>
<feBlend mode="normal" in2="BackgroundImageFix" result="effect1_dropShadow_2654_28028"/>
<feBlend mode="normal" in="SourceGraphic" in2="effect1_dropShadow_2654_28028" result="shape"/>
</filter>
<clipPath id="clip0_2654_28028">
<rect x="44" y="62" width="284" height="122" rx="6" fill="white"/>
</clipPath>
</defs>
</svg>
