<svg width="458" height="514" viewBox="0 0 458 514" fill="none" xmlns="http://www.w3.org/2000/svg">
<g filter="url(#filter0_f_2483_57416)">
<ellipse cx="229.5" cy="308" rx="182.5" ry="60" fill="url(#paint0_linear_2483_57416)"/>
</g>
<g filter="url(#filter1_d_2483_57416)">
<path d="M57.5 238C57.5 232.753 61.7533 228.5 67 228.5H392C397.247 228.5 401.5 232.753 401.5 238V267.5H57.5V238Z" fill="#0C0D0E" stroke="#86888E"/>
<rect x="57.5" y="267.5" width="344" height="35" fill="#1D1F22" stroke="#86888E"/>
<rect x="57.5" y="337.5" width="344" height="35" fill="#1D1F22" stroke="#86888E"/>
<path d="M57.5 372.5H401.5V398C401.5 403.247 397.247 407.5 392 407.5H67C61.7533 407.5 57.5 403.247 57.5 398V372.5Z" fill="#1D1F22" stroke="#86888E"/>
<path d="M57.5 302.5H401.5V337.5H57.5V302.5Z" fill="#1D1F22" stroke="#86888E"/>
<path d="M108.05 253V243.2H109.226L114.448 251.054V243.2H115.624V253H114.448L109.226 245.146V253H108.05ZM119.956 253.168C119.386 253.168 118.91 253.07 118.528 252.874C118.145 252.669 117.86 252.403 117.674 252.076C117.487 251.74 117.394 251.376 117.394 250.984C117.394 250.508 117.515 250.107 117.758 249.78C118.01 249.444 118.36 249.192 118.808 249.024C119.265 248.847 119.802 248.758 120.418 248.758H122.28C122.28 248.319 122.21 247.955 122.07 247.666C121.939 247.367 121.743 247.143 121.482 246.994C121.23 246.845 120.912 246.77 120.53 246.77C120.082 246.77 119.694 246.882 119.368 247.106C119.041 247.33 118.84 247.661 118.766 248.1H117.562C117.618 247.596 117.786 247.176 118.066 246.84C118.355 246.495 118.719 246.233 119.158 246.056C119.596 245.869 120.054 245.776 120.53 245.776C121.183 245.776 121.724 245.897 122.154 246.14C122.592 246.373 122.919 246.705 123.134 247.134C123.348 247.554 123.456 248.053 123.456 248.632V253H122.406L122.336 251.754C122.242 251.95 122.121 252.137 121.972 252.314C121.832 252.482 121.664 252.631 121.468 252.762C121.272 252.883 121.048 252.981 120.796 253.056C120.553 253.131 120.273 253.168 119.956 253.168ZM120.138 252.174C120.464 252.174 120.758 252.109 121.02 251.978C121.29 251.838 121.519 251.651 121.706 251.418C121.892 251.175 122.032 250.909 122.126 250.62C122.228 250.331 122.28 250.027 122.28 249.71V249.668H120.516C120.058 249.668 119.69 249.724 119.41 249.836C119.13 249.939 118.929 250.088 118.808 250.284C118.686 250.471 118.626 250.685 118.626 250.928C118.626 251.18 118.682 251.399 118.794 251.586C118.915 251.773 119.088 251.917 119.312 252.02C119.545 252.123 119.82 252.174 120.138 252.174ZM125.275 253V245.944H126.339L126.409 246.952C126.633 246.588 126.932 246.303 127.305 246.098C127.688 245.883 128.103 245.776 128.551 245.776C128.915 245.776 129.242 245.827 129.531 245.93C129.83 246.023 130.091 246.173 130.315 246.378C130.539 246.574 130.721 246.826 130.861 247.134C131.104 246.705 131.435 246.373 131.855 246.14C132.284 245.897 132.742 245.776 133.227 245.776C133.768 245.776 134.24 245.888 134.641 246.112C135.052 246.327 135.364 246.658 135.579 247.106C135.803 247.545 135.915 248.105 135.915 248.786V253H134.753V248.912C134.753 248.203 134.608 247.671 134.319 247.316C134.03 246.961 133.624 246.784 133.101 246.784C132.737 246.784 132.41 246.882 132.121 247.078C131.832 247.265 131.603 247.54 131.435 247.904C131.267 248.268 131.183 248.716 131.183 249.248V253H130.007V248.912C130.007 248.203 129.862 247.671 129.573 247.316C129.284 246.961 128.873 246.784 128.341 246.784C127.986 246.784 127.664 246.882 127.375 247.078C127.095 247.265 126.871 247.54 126.703 247.904C126.535 248.268 126.451 248.716 126.451 249.248V253H125.275ZM140.838 253.168C140.175 253.168 139.587 253.014 139.074 252.706C138.57 252.398 138.173 251.969 137.884 251.418C137.594 250.858 137.45 250.209 137.45 249.472C137.45 248.725 137.59 248.077 137.87 247.526C138.159 246.975 138.56 246.546 139.074 246.238C139.596 245.93 140.194 245.776 140.866 245.776C141.556 245.776 142.14 245.93 142.616 246.238C143.101 246.546 143.47 246.952 143.722 247.456C143.983 247.951 144.114 248.497 144.114 249.094C144.114 249.187 144.114 249.285 144.114 249.388C144.114 249.491 144.109 249.607 144.1 249.738H138.332V248.828H142.966C142.938 248.184 142.723 247.68 142.322 247.316C141.93 246.952 141.435 246.77 140.838 246.77C140.436 246.77 140.063 246.863 139.718 247.05C139.382 247.227 139.111 247.493 138.906 247.848C138.7 248.193 138.598 248.627 138.598 249.15V249.542C138.598 250.121 138.7 250.606 138.906 250.998C139.12 251.39 139.396 251.684 139.732 251.88C140.077 252.076 140.446 252.174 140.838 252.174C141.332 252.174 141.738 252.067 142.056 251.852C142.382 251.628 142.616 251.329 142.756 250.956H143.918C143.806 251.376 143.61 251.754 143.33 252.09C143.05 252.426 142.7 252.692 142.28 252.888C141.869 253.075 141.388 253.168 140.838 253.168Z" fill="#EEEFF1"/>
<path d="M92.1381 253.625H93.7863C95.1784 253.625 95.8745 253.625 96.4556 253.292C97.0366 252.959 97.4055 252.349 98.1434 251.128L98.5689 250.424C99.1896 249.397 99.5 248.884 99.5 248.312C99.5 247.741 99.1896 247.228 98.5689 246.201L98.1434 245.497C97.4055 244.276 97.0366 243.666 96.4556 243.333C95.8745 243 95.1784 243 93.7863 243H92.1381C89.716 243 88.5049 243 87.7525 243.778C87 244.556 87 245.808 87 248.312C87 250.817 87 252.069 87.7525 252.847C88.5049 253.625 89.716 253.625 92.1381 253.625Z" stroke="#86888E" stroke-linecap="round"/>
<path d="M92.7139 249.801L92.3794 248.966H90.6899L90.3555 249.801H89.8647L91.2686 246.351H91.8154L93.2192 249.801H92.7139ZM90.8608 248.541H92.2109L91.5347 246.847L90.8608 248.541ZM95.7217 247.252H96.1514V249.801H95.7217V249.342C95.6126 249.505 95.4718 249.632 95.2993 249.725C95.1284 249.816 94.9388 249.862 94.7305 249.862C94.4912 249.862 94.2739 249.804 94.0786 249.688C93.8833 249.571 93.7303 249.411 93.6196 249.208C93.5106 249.002 93.4561 248.775 93.4561 248.526C93.4561 248.277 93.5106 248.051 93.6196 247.848C93.7303 247.643 93.8833 247.482 94.0786 247.367C94.2739 247.25 94.4912 247.191 94.7305 247.191C94.9388 247.191 95.1284 247.237 95.2993 247.33C95.4718 247.421 95.6126 247.548 95.7217 247.711V247.252ZM94.811 249.447C95.0715 249.447 95.2879 249.359 95.4604 249.183C95.6346 249.007 95.7217 248.788 95.7217 248.526C95.7217 248.264 95.6346 248.045 95.4604 247.87C95.2879 247.694 95.0715 247.606 94.811 247.606C94.549 247.606 94.3309 247.694 94.1567 247.87C93.9826 248.045 93.8955 248.264 93.8955 248.526C93.8955 248.788 93.9826 249.007 94.1567 249.183C94.3309 249.359 94.549 249.447 94.811 249.447Z" fill="#86888E"/>
<path d="M349.49 254V244.2H352.654C353.419 244.2 354.045 244.331 354.53 244.592C355.015 244.844 355.375 245.185 355.608 245.614C355.841 246.043 355.958 246.529 355.958 247.07C355.958 247.593 355.837 248.073 355.594 248.512C355.361 248.951 354.997 249.301 354.502 249.562C354.007 249.823 353.373 249.954 352.598 249.954H350.666V254H349.49ZM354.67 254L352.514 249.618H353.83L356.056 254H354.67ZM350.666 249.03H352.57C353.317 249.03 353.863 248.848 354.208 248.484C354.563 248.12 354.74 247.653 354.74 247.084C354.74 246.505 354.567 246.048 354.222 245.712C353.886 245.367 353.331 245.194 352.556 245.194H350.666V249.03ZM360.403 254.168C359.74 254.168 359.152 254.014 358.639 253.706C358.135 253.398 357.738 252.969 357.449 252.418C357.159 251.858 357.015 251.209 357.015 250.472C357.015 249.725 357.155 249.077 357.435 248.526C357.724 247.975 358.125 247.546 358.639 247.238C359.161 246.93 359.759 246.776 360.431 246.776C361.121 246.776 361.705 246.93 362.181 247.238C362.666 247.546 363.035 247.952 363.287 248.456C363.548 248.951 363.679 249.497 363.679 250.094C363.679 250.187 363.679 250.285 363.679 250.388C363.679 250.491 363.674 250.607 363.665 250.738H357.897V249.828H362.531C362.503 249.184 362.288 248.68 361.887 248.316C361.495 247.952 361 247.77 360.403 247.77C360.001 247.77 359.628 247.863 359.283 248.05C358.947 248.227 358.676 248.493 358.471 248.848C358.265 249.193 358.163 249.627 358.163 250.15V250.542C358.163 251.121 358.265 251.606 358.471 251.998C358.685 252.39 358.961 252.684 359.297 252.88C359.642 253.076 360.011 253.174 360.403 253.174C360.897 253.174 361.303 253.067 361.621 252.852C361.947 252.628 362.181 252.329 362.321 251.956H363.483C363.371 252.376 363.175 252.754 362.895 253.09C362.615 253.426 362.265 253.692 361.845 253.888C361.434 254.075 360.953 254.168 360.403 254.168ZM367.805 254C367.385 254 367.021 253.935 366.713 253.804C366.405 253.673 366.167 253.454 365.999 253.146C365.841 252.829 365.761 252.404 365.761 251.872V247.938H364.529V246.944H365.761L365.915 245.236H366.937V246.944H368.981V247.938H366.937V251.872C366.937 252.311 367.026 252.609 367.203 252.768C367.381 252.917 367.693 252.992 368.141 252.992H368.897V254H367.805ZM370.516 254V246.944H371.58L371.664 248.288C371.822 247.971 372.023 247.7 372.266 247.476C372.518 247.252 372.816 247.079 373.162 246.958C373.516 246.837 373.918 246.776 374.366 246.776V248.008H373.932C373.633 248.008 373.348 248.05 373.078 248.134C372.807 248.209 372.564 248.335 372.35 248.512C372.144 248.689 371.981 248.932 371.86 249.24C371.748 249.539 371.692 249.912 371.692 250.36V254H370.516ZM375.809 254V246.944H376.985V254H375.809ZM376.397 245.446C376.164 245.446 375.968 245.371 375.809 245.222C375.66 245.063 375.585 244.867 375.585 244.634C375.585 244.401 375.66 244.214 375.809 244.074C375.968 243.925 376.164 243.85 376.397 243.85C376.621 243.85 376.813 243.925 376.971 244.074C377.13 244.214 377.209 244.401 377.209 244.634C377.209 244.867 377.13 245.063 376.971 245.222C376.813 245.371 376.621 245.446 376.397 245.446ZM382.155 254.168C381.492 254.168 380.904 254.014 380.391 253.706C379.887 253.398 379.49 252.969 379.201 252.418C378.911 251.858 378.767 251.209 378.767 250.472C378.767 249.725 378.907 249.077 379.187 248.526C379.476 247.975 379.877 247.546 380.391 247.238C380.913 246.93 381.511 246.776 382.183 246.776C382.873 246.776 383.457 246.93 383.933 247.238C384.418 247.546 384.787 247.952 385.039 248.456C385.3 248.951 385.431 249.497 385.431 250.094C385.431 250.187 385.431 250.285 385.431 250.388C385.431 250.491 385.426 250.607 385.417 250.738H379.649V249.828H384.283C384.255 249.184 384.04 248.68 383.639 248.316C383.247 247.952 382.752 247.77 382.155 247.77C381.753 247.77 381.38 247.863 381.035 248.05C380.699 248.227 380.428 248.493 380.223 248.848C380.017 249.193 379.915 249.627 379.915 250.15V250.542C379.915 251.121 380.017 251.606 380.223 251.998C380.437 252.39 380.713 252.684 381.049 252.88C381.394 253.076 381.763 253.174 382.155 253.174C382.649 253.174 383.055 253.067 383.373 252.852C383.699 252.628 383.933 252.329 384.073 251.956H385.235C385.123 252.376 384.927 252.754 384.647 253.09C384.367 253.426 384.017 253.692 383.597 253.888C383.186 254.075 382.705 254.168 382.155 254.168ZM389.678 254.168C389.09 254.168 388.576 254.07 388.138 253.874C387.708 253.678 387.363 253.407 387.102 253.062C386.85 252.707 386.696 252.292 386.64 251.816H387.844C387.89 252.059 387.988 252.283 388.138 252.488C388.287 252.693 388.488 252.861 388.74 252.992C389.001 253.113 389.318 253.174 389.692 253.174C390.018 253.174 390.289 253.127 390.504 253.034C390.718 252.931 390.877 252.796 390.98 252.628C391.092 252.46 391.148 252.278 391.148 252.082C391.148 251.793 391.078 251.573 390.938 251.424C390.807 251.275 390.611 251.158 390.35 251.074C390.088 250.981 389.771 250.901 389.398 250.836C389.09 250.78 388.786 250.705 388.488 250.612C388.189 250.519 387.923 250.397 387.69 250.248C387.456 250.089 387.27 249.898 387.13 249.674C386.999 249.45 386.934 249.175 386.934 248.848C386.934 248.447 387.036 248.092 387.242 247.784C387.447 247.467 387.741 247.219 388.124 247.042C388.516 246.865 388.968 246.776 389.482 246.776C390.238 246.776 390.849 246.958 391.316 247.322C391.782 247.686 392.058 248.213 392.142 248.904H390.98C390.933 248.549 390.779 248.274 390.518 248.078C390.266 247.873 389.916 247.77 389.468 247.77C389.029 247.77 388.693 247.859 388.46 248.036C388.236 248.213 388.124 248.447 388.124 248.736C388.124 248.923 388.184 249.091 388.306 249.24C388.436 249.38 388.623 249.501 388.866 249.604C389.118 249.707 389.426 249.791 389.79 249.856C390.256 249.94 390.681 250.052 391.064 250.192C391.446 250.332 391.754 250.542 391.988 250.822C392.23 251.093 392.352 251.48 392.352 251.984C392.352 252.423 392.24 252.805 392.016 253.132C391.801 253.459 391.493 253.715 391.092 253.902C390.69 254.079 390.219 254.168 389.678 254.168Z" fill="#EEEFF1"/>
<path d="M334.689 253.348C334.917 253.348 335.103 253.163 335.103 252.934C335.103 252.705 334.917 252.52 334.689 252.52V253.348ZM335.517 245.202V245.617C335.685 245.617 335.836 245.516 335.9 245.361C335.964 245.206 335.928 245.028 335.81 244.909L335.517 245.202ZM334.705 243.805C334.544 243.643 334.281 243.643 334.12 243.805C333.958 243.967 333.958 244.229 334.12 244.391L334.705 243.805ZM334.689 252.52H334.413V253.348H334.689V252.52ZM334.412 245.617H335.517V244.788H334.412V245.617ZM335.81 244.909L334.705 243.805L334.12 244.391L335.224 245.495L335.81 244.909ZM330.132 249.068C330.132 251.432 332.049 253.348 334.413 253.348V252.52C332.506 252.52 330.961 250.975 330.961 249.068H330.132ZM330.961 249.068C330.961 247.162 332.506 245.617 334.412 245.617V244.788C332.049 244.788 330.132 246.704 330.132 249.068H330.961Z" fill="#86888E"/>
<path d="M336.621 252.935V252.521C336.454 252.521 336.303 252.622 336.239 252.777C336.174 252.931 336.21 253.11 336.328 253.228L336.621 252.935ZM337.433 254.333C337.595 254.494 337.857 254.494 338.019 254.333C338.18 254.171 338.18 253.909 338.019 253.747L337.433 254.333ZM337.45 244.789C337.221 244.789 337.035 244.975 337.035 245.203C337.035 245.432 337.221 245.617 337.45 245.617V244.789ZM337.726 252.521H336.621V253.349H337.726V252.521ZM336.328 253.228L337.433 254.333L338.019 253.747L336.914 252.642L336.328 253.228ZM337.45 245.617H337.726V244.789H337.45V245.617ZM341.178 249.069C341.178 250.976 339.632 252.521 337.726 252.521V253.349C340.09 253.349 342.006 251.433 342.006 249.069H341.178ZM342.006 249.069C342.006 246.705 340.09 244.789 337.726 244.789V245.617C339.632 245.617 341.178 247.163 341.178 249.069H342.006Z" fill="#86888E"/>
</g>
<rect x="65.5" y="241.5" width="13.1382" height="13.1382" rx="4.5" stroke="#ACADAE"/>
<path d="M222.069 250.174L224.278 247.965" stroke="#86888E" stroke-linecap="round" stroke-linejoin="round"/>
<path d="M217.286 252.935C216.802 252.095 216.546 251.143 216.546 250.173C216.546 249.204 216.802 248.251 217.286 247.412C217.771 246.572 218.468 245.875 219.308 245.39C220.147 244.906 221.1 244.65 222.069 244.65C223.039 244.65 223.991 244.906 224.831 245.39C225.67 245.875 226.367 246.572 226.852 247.412C227.337 248.251 227.592 249.204 227.592 250.173C227.592 251.143 227.337 252.095 226.852 252.935" stroke="#86888E" stroke-linecap="round" stroke-linejoin="round"/>
<path d="M238.612 254.168C237.893 254.168 237.268 254.037 236.736 253.776C236.204 253.515 235.793 253.151 235.504 252.684C235.215 252.217 235.07 251.676 235.07 251.06H236.302C236.302 251.443 236.391 251.797 236.568 252.124C236.745 252.441 237.002 252.698 237.338 252.894C237.683 253.081 238.108 253.174 238.612 253.174C239.051 253.174 239.424 253.104 239.732 252.964C240.049 252.815 240.287 252.614 240.446 252.362C240.614 252.11 240.698 251.825 240.698 251.508C240.698 251.125 240.614 250.817 240.446 250.584C240.287 250.341 240.068 250.145 239.788 249.996C239.508 249.847 239.181 249.716 238.808 249.604C238.444 249.483 238.061 249.357 237.66 249.226C236.885 248.965 236.316 248.638 235.952 248.246C235.588 247.854 235.406 247.345 235.406 246.72C235.406 246.188 235.527 245.721 235.77 245.32C236.022 244.919 236.377 244.606 236.834 244.382C237.301 244.149 237.851 244.032 238.486 244.032C239.111 244.032 239.653 244.149 240.11 244.382C240.577 244.615 240.941 244.937 241.202 245.348C241.463 245.749 241.594 246.216 241.594 246.748H240.362C240.362 246.477 240.292 246.211 240.152 245.95C240.012 245.689 239.797 245.474 239.508 245.306C239.228 245.129 238.873 245.04 238.444 245.04C238.089 245.031 237.772 245.091 237.492 245.222C237.221 245.343 237.007 245.521 236.848 245.754C236.699 245.987 236.624 246.272 236.624 246.608C236.624 246.925 236.689 247.182 236.82 247.378C236.96 247.574 237.156 247.742 237.408 247.882C237.669 248.013 237.973 248.134 238.318 248.246C238.663 248.358 239.046 248.484 239.466 248.624C239.942 248.783 240.362 248.979 240.726 249.212C241.099 249.436 241.389 249.725 241.594 250.08C241.809 250.435 241.916 250.887 241.916 251.438C241.916 251.905 241.79 252.348 241.538 252.768C241.295 253.179 240.931 253.515 240.446 253.776C239.961 254.037 239.349 254.168 238.612 254.168ZM246.313 254C245.893 254 245.529 253.935 245.221 253.804C244.913 253.673 244.675 253.454 244.507 253.146C244.348 252.829 244.269 252.404 244.269 251.872V247.938H243.037V246.944H244.269L244.423 245.236H245.445V246.944H247.489V247.938H245.445V251.872C245.445 252.311 245.534 252.609 245.711 252.768C245.888 252.917 246.201 252.992 246.649 252.992H247.405V254H246.313ZM251.319 254.168C250.75 254.168 250.274 254.07 249.891 253.874C249.509 253.669 249.224 253.403 249.037 253.076C248.851 252.74 248.757 252.376 248.757 251.984C248.757 251.508 248.879 251.107 249.121 250.78C249.373 250.444 249.723 250.192 250.171 250.024C250.629 249.847 251.165 249.758 251.781 249.758H253.643C253.643 249.319 253.573 248.955 253.433 248.666C253.303 248.367 253.107 248.143 252.845 247.994C252.593 247.845 252.276 247.77 251.893 247.77C251.445 247.77 251.058 247.882 250.731 248.106C250.405 248.33 250.204 248.661 250.129 249.1H248.925C248.981 248.596 249.149 248.176 249.429 247.84C249.719 247.495 250.083 247.233 250.521 247.056C250.96 246.869 251.417 246.776 251.893 246.776C252.547 246.776 253.088 246.897 253.517 247.14C253.956 247.373 254.283 247.705 254.497 248.134C254.712 248.554 254.819 249.053 254.819 249.632V254H253.769L253.699 252.754C253.606 252.95 253.485 253.137 253.335 253.314C253.195 253.482 253.027 253.631 252.831 253.762C252.635 253.883 252.411 253.981 252.159 254.056C251.917 254.131 251.637 254.168 251.319 254.168ZM251.501 253.174C251.828 253.174 252.122 253.109 252.383 252.978C252.654 252.838 252.883 252.651 253.069 252.418C253.256 252.175 253.396 251.909 253.489 251.62C253.592 251.331 253.643 251.027 253.643 250.71V250.668H251.879C251.422 250.668 251.053 250.724 250.773 250.836C250.493 250.939 250.293 251.088 250.171 251.284C250.05 251.471 249.989 251.685 249.989 251.928C249.989 252.18 250.045 252.399 250.157 252.586C250.279 252.773 250.451 252.917 250.675 253.02C250.909 253.123 251.184 253.174 251.501 253.174ZM259.219 254C258.799 254 258.435 253.935 258.127 253.804C257.819 253.673 257.581 253.454 257.413 253.146C257.255 252.829 257.175 252.404 257.175 251.872V247.938H255.943V246.944H257.175L257.329 245.236H258.351V246.944H260.395V247.938H258.351V251.872C258.351 252.311 258.44 252.609 258.617 252.768C258.795 252.917 259.107 252.992 259.555 252.992H260.311V254H259.219ZM264.832 254.168C264.17 254.168 263.582 254.014 263.068 253.706C262.564 253.398 262.168 252.969 261.878 252.418C261.589 251.858 261.444 251.209 261.444 250.472C261.444 249.725 261.584 249.077 261.864 248.526C262.154 247.975 262.555 247.546 263.068 247.238C263.591 246.93 264.188 246.776 264.86 246.776C265.551 246.776 266.134 246.93 266.61 247.238C267.096 247.546 267.464 247.952 267.716 248.456C267.978 248.951 268.108 249.497 268.108 250.094C268.108 250.187 268.108 250.285 268.108 250.388C268.108 250.491 268.104 250.607 268.094 250.738H262.326V249.828H266.96C266.932 249.184 266.718 248.68 266.316 248.316C265.924 247.952 265.43 247.77 264.832 247.77C264.431 247.77 264.058 247.863 263.712 248.05C263.376 248.227 263.106 248.493 262.9 248.848C262.695 249.193 262.592 249.627 262.592 250.15V250.542C262.592 251.121 262.695 251.606 262.9 251.998C263.115 252.39 263.39 252.684 263.726 252.88C264.072 253.076 264.44 253.174 264.832 253.174C265.327 253.174 265.733 253.067 266.05 252.852C266.377 252.628 266.61 252.329 266.75 251.956H267.912C267.8 252.376 267.604 252.754 267.324 253.09C267.044 253.426 266.694 253.692 266.274 253.888C265.864 254.075 265.383 254.168 264.832 254.168Z" fill="#EEEFF1"/>
<path d="M87.9141 290L85.2261 280.2H86.4861L88.6001 288.6L90.9941 280.2H92.3101L94.6481 288.628L96.7901 280.2H98.0501L95.3061 290H93.9621L91.6241 281.894L89.2301 290H87.9141ZM101.816 290.168C101.163 290.168 100.575 290.019 100.052 289.72C99.5294 289.412 99.1187 288.983 98.82 288.432C98.5214 287.872 98.372 287.223 98.372 286.486C98.372 285.73 98.5214 285.077 98.82 284.526C99.128 283.966 99.5434 283.537 100.066 283.238C100.598 282.93 101.191 282.776 101.844 282.776C102.516 282.776 103.109 282.93 103.622 283.238C104.145 283.537 104.555 283.966 104.854 284.526C105.162 285.077 105.316 285.725 105.316 286.472C105.316 287.219 105.162 287.872 104.854 288.432C104.546 288.983 104.131 289.412 103.608 289.72C103.085 290.019 102.488 290.168 101.816 290.168ZM101.83 289.16C102.231 289.16 102.605 289.062 102.95 288.866C103.295 288.661 103.575 288.357 103.79 287.956C104.005 287.555 104.112 287.06 104.112 286.472C104.112 285.875 104.005 285.38 103.79 284.988C103.585 284.587 103.309 284.288 102.964 284.092C102.628 283.887 102.255 283.784 101.844 283.784C101.452 283.784 101.079 283.887 100.724 284.092C100.379 284.288 100.099 284.587 99.884 284.988C99.6787 285.38 99.576 285.875 99.576 286.472C99.576 287.06 99.6787 287.555 99.884 287.956C100.099 288.357 100.374 288.661 100.71 288.866C101.055 289.062 101.429 289.16 101.83 289.16ZM106.965 290V282.944H108.029L108.113 284.288C108.272 283.971 108.472 283.7 108.715 283.476C108.967 283.252 109.266 283.079 109.611 282.958C109.966 282.837 110.367 282.776 110.815 282.776V284.008H110.381C110.082 284.008 109.798 284.05 109.527 284.134C109.256 284.209 109.014 284.335 108.799 284.512C108.594 284.689 108.43 284.932 108.309 285.24C108.197 285.539 108.141 285.912 108.141 286.36V290H106.965ZM116.487 290L113.127 286.136L116.193 282.944H117.635L114.121 286.556L114.135 285.716L117.985 290H116.487ZM112.147 290V279.92H113.323V290H112.147ZM122.99 290V280.2H124.166V290H122.99ZM128.973 290C128.553 290 128.189 289.935 127.881 289.804C127.573 289.673 127.335 289.454 127.167 289.146C127.009 288.829 126.929 288.404 126.929 287.872V283.938H125.697V282.944H126.929L127.083 281.236H128.105V282.944H130.149V283.938H128.105V287.872C128.105 288.311 128.194 288.609 128.371 288.768C128.549 288.917 128.861 288.992 129.309 288.992H130.065V290H128.973ZM134.586 290.168C133.924 290.168 133.336 290.014 132.822 289.706C132.318 289.398 131.922 288.969 131.632 288.418C131.343 287.858 131.198 287.209 131.198 286.472C131.198 285.725 131.338 285.077 131.618 284.526C131.908 283.975 132.309 283.546 132.822 283.238C133.345 282.93 133.942 282.776 134.614 282.776C135.305 282.776 135.888 282.93 136.364 283.238C136.85 283.546 137.218 283.952 137.47 284.456C137.732 284.951 137.862 285.497 137.862 286.094C137.862 286.187 137.862 286.285 137.862 286.388C137.862 286.491 137.858 286.607 137.848 286.738H132.08V285.828H136.714C136.686 285.184 136.472 284.68 136.07 284.316C135.678 283.952 135.184 283.77 134.586 283.77C134.185 283.77 133.812 283.863 133.466 284.05C133.13 284.227 132.86 284.493 132.654 284.848C132.449 285.193 132.346 285.627 132.346 286.15V286.542C132.346 287.121 132.449 287.606 132.654 287.998C132.869 288.39 133.144 288.684 133.48 288.88C133.826 289.076 134.194 289.174 134.586 289.174C135.081 289.174 135.487 289.067 135.804 288.852C136.131 288.628 136.364 288.329 136.504 287.956H137.666C137.554 288.376 137.358 288.754 137.078 289.09C136.798 289.426 136.448 289.692 136.028 289.888C135.618 290.075 135.137 290.168 134.586 290.168ZM139.449 290V282.944H140.513L140.583 283.952C140.807 283.588 141.106 283.303 141.479 283.098C141.862 282.883 142.277 282.776 142.725 282.776C143.089 282.776 143.416 282.827 143.705 282.93C144.004 283.023 144.265 283.173 144.489 283.378C144.713 283.574 144.895 283.826 145.035 284.134C145.278 283.705 145.609 283.373 146.029 283.14C146.459 282.897 146.916 282.776 147.401 282.776C147.943 282.776 148.414 282.888 148.815 283.112C149.226 283.327 149.539 283.658 149.753 284.106C149.977 284.545 150.089 285.105 150.089 285.786V290H148.927V285.912C148.927 285.203 148.783 284.671 148.493 284.316C148.204 283.961 147.798 283.784 147.275 283.784C146.911 283.784 146.585 283.882 146.295 284.078C146.006 284.265 145.777 284.54 145.609 284.904C145.441 285.268 145.357 285.716 145.357 286.248V290H144.181V285.912C144.181 285.203 144.037 284.671 143.747 284.316C143.458 283.961 143.047 283.784 142.515 283.784C142.161 283.784 141.839 283.882 141.549 284.078C141.269 284.265 141.045 284.54 140.877 284.904C140.709 285.268 140.625 285.716 140.625 286.248V290H139.449ZM156.785 290V281.516L155.105 281.936V281.096L157.177 280.2H157.975V290H156.785Z" fill="#EEEFF1"/>
<path d="M87.9141 325L85.2261 315.2H86.4861L88.6001 323.6L90.9941 315.2H92.3101L94.6481 323.628L96.7901 315.2H98.0501L95.3061 325H93.9621L91.6241 316.894L89.2301 325H87.9141ZM101.816 325.168C101.163 325.168 100.575 325.019 100.052 324.72C99.5294 324.412 99.1187 323.983 98.82 323.432C98.5214 322.872 98.372 322.223 98.372 321.486C98.372 320.73 98.5214 320.077 98.82 319.526C99.128 318.966 99.5434 318.537 100.066 318.238C100.598 317.93 101.191 317.776 101.844 317.776C102.516 317.776 103.109 317.93 103.622 318.238C104.145 318.537 104.555 318.966 104.854 319.526C105.162 320.077 105.316 320.725 105.316 321.472C105.316 322.219 105.162 322.872 104.854 323.432C104.546 323.983 104.131 324.412 103.608 324.72C103.085 325.019 102.488 325.168 101.816 325.168ZM101.83 324.16C102.231 324.16 102.605 324.062 102.95 323.866C103.295 323.661 103.575 323.357 103.79 322.956C104.005 322.555 104.112 322.06 104.112 321.472C104.112 320.875 104.005 320.38 103.79 319.988C103.585 319.587 103.309 319.288 102.964 319.092C102.628 318.887 102.255 318.784 101.844 318.784C101.452 318.784 101.079 318.887 100.724 319.092C100.379 319.288 100.099 319.587 99.884 319.988C99.6787 320.38 99.576 320.875 99.576 321.472C99.576 322.06 99.6787 322.555 99.884 322.956C100.099 323.357 100.374 323.661 100.71 323.866C101.055 324.062 101.429 324.16 101.83 324.16ZM106.965 325V317.944H108.029L108.113 319.288C108.272 318.971 108.472 318.7 108.715 318.476C108.967 318.252 109.266 318.079 109.611 317.958C109.966 317.837 110.367 317.776 110.815 317.776V319.008H110.381C110.082 319.008 109.798 319.05 109.527 319.134C109.256 319.209 109.014 319.335 108.799 319.512C108.594 319.689 108.43 319.932 108.309 320.24C108.197 320.539 108.141 320.912 108.141 321.36V325H106.965ZM116.487 325L113.127 321.136L116.193 317.944H117.635L114.121 321.556L114.135 320.716L117.985 325H116.487ZM112.147 325V314.92H113.323V325H112.147ZM122.99 325V315.2H124.166V325H122.99ZM128.973 325C128.553 325 128.189 324.935 127.881 324.804C127.573 324.673 127.335 324.454 127.167 324.146C127.009 323.829 126.929 323.404 126.929 322.872V318.938H125.697V317.944H126.929L127.083 316.236H128.105V317.944H130.149V318.938H128.105V322.872C128.105 323.311 128.194 323.609 128.371 323.768C128.549 323.917 128.861 323.992 129.309 323.992H130.065V325H128.973ZM134.586 325.168C133.924 325.168 133.336 325.014 132.822 324.706C132.318 324.398 131.922 323.969 131.632 323.418C131.343 322.858 131.198 322.209 131.198 321.472C131.198 320.725 131.338 320.077 131.618 319.526C131.908 318.975 132.309 318.546 132.822 318.238C133.345 317.93 133.942 317.776 134.614 317.776C135.305 317.776 135.888 317.93 136.364 318.238C136.85 318.546 137.218 318.952 137.47 319.456C137.732 319.951 137.862 320.497 137.862 321.094C137.862 321.187 137.862 321.285 137.862 321.388C137.862 321.491 137.858 321.607 137.848 321.738H132.08V320.828H136.714C136.686 320.184 136.472 319.68 136.07 319.316C135.678 318.952 135.184 318.77 134.586 318.77C134.185 318.77 133.812 318.863 133.466 319.05C133.13 319.227 132.86 319.493 132.654 319.848C132.449 320.193 132.346 320.627 132.346 321.15V321.542C132.346 322.121 132.449 322.606 132.654 322.998C132.869 323.39 133.144 323.684 133.48 323.88C133.826 324.076 134.194 324.174 134.586 324.174C135.081 324.174 135.487 324.067 135.804 323.852C136.131 323.628 136.364 323.329 136.504 322.956H137.666C137.554 323.376 137.358 323.754 137.078 324.09C136.798 324.426 136.448 324.692 136.028 324.888C135.618 325.075 135.137 325.168 134.586 325.168ZM139.449 325V317.944H140.513L140.583 318.952C140.807 318.588 141.106 318.303 141.479 318.098C141.862 317.883 142.277 317.776 142.725 317.776C143.089 317.776 143.416 317.827 143.705 317.93C144.004 318.023 144.265 318.173 144.489 318.378C144.713 318.574 144.895 318.826 145.035 319.134C145.278 318.705 145.609 318.373 146.029 318.14C146.459 317.897 146.916 317.776 147.401 317.776C147.943 317.776 148.414 317.888 148.815 318.112C149.226 318.327 149.539 318.658 149.753 319.106C149.977 319.545 150.089 320.105 150.089 320.786V325H148.927V320.912C148.927 320.203 148.783 319.671 148.493 319.316C148.204 318.961 147.798 318.784 147.275 318.784C146.911 318.784 146.585 318.882 146.295 319.078C146.006 319.265 145.777 319.54 145.609 319.904C145.441 320.268 145.357 320.716 145.357 321.248V325H144.181V320.912C144.181 320.203 144.037 319.671 143.747 319.316C143.458 318.961 143.047 318.784 142.515 318.784C142.161 318.784 141.839 318.882 141.549 319.078C141.269 319.265 141.045 319.54 140.877 319.904C140.709 320.268 140.625 320.716 140.625 321.248V325H139.449ZM155.553 325V324.174C156.215 323.651 156.845 323.124 157.443 322.592C158.049 322.06 158.586 321.533 159.053 321.01C159.519 320.478 159.883 319.96 160.145 319.456C160.415 318.952 160.551 318.467 160.551 318C160.551 317.655 160.49 317.337 160.369 317.048C160.247 316.749 160.051 316.507 159.781 316.32C159.519 316.133 159.165 316.04 158.717 316.04C158.278 316.04 157.914 316.138 157.625 316.334C157.335 316.521 157.116 316.773 156.967 317.09C156.827 317.398 156.757 317.739 156.757 318.112H155.623C155.632 317.468 155.767 316.917 156.029 316.46C156.299 315.993 156.668 315.639 157.135 315.396C157.601 315.153 158.133 315.032 158.731 315.032C159.319 315.032 159.837 315.144 160.285 315.368C160.733 315.583 161.083 315.905 161.335 316.334C161.596 316.763 161.727 317.305 161.727 317.958C161.727 318.415 161.629 318.873 161.433 319.33C161.246 319.787 160.994 320.235 160.677 320.674C160.359 321.103 160.005 321.519 159.613 321.92C159.23 322.321 158.833 322.699 158.423 323.054C158.021 323.409 157.643 323.731 157.289 324.02H162.063V325H155.553Z" fill="#EEEFF1"/>
<path d="M87.9141 360L85.2261 350.2H86.4861L88.6001 358.6L90.9941 350.2H92.3101L94.6481 358.628L96.7901 350.2H98.0501L95.3061 360H93.9621L91.6241 351.894L89.2301 360H87.9141ZM101.816 360.168C101.163 360.168 100.575 360.019 100.052 359.72C99.5294 359.412 99.1187 358.983 98.82 358.432C98.5214 357.872 98.372 357.223 98.372 356.486C98.372 355.73 98.5214 355.077 98.82 354.526C99.128 353.966 99.5434 353.537 100.066 353.238C100.598 352.93 101.191 352.776 101.844 352.776C102.516 352.776 103.109 352.93 103.622 353.238C104.145 353.537 104.555 353.966 104.854 354.526C105.162 355.077 105.316 355.725 105.316 356.472C105.316 357.219 105.162 357.872 104.854 358.432C104.546 358.983 104.131 359.412 103.608 359.72C103.085 360.019 102.488 360.168 101.816 360.168ZM101.83 359.16C102.231 359.16 102.605 359.062 102.95 358.866C103.295 358.661 103.575 358.357 103.79 357.956C104.005 357.555 104.112 357.06 104.112 356.472C104.112 355.875 104.005 355.38 103.79 354.988C103.585 354.587 103.309 354.288 102.964 354.092C102.628 353.887 102.255 353.784 101.844 353.784C101.452 353.784 101.079 353.887 100.724 354.092C100.379 354.288 100.099 354.587 99.884 354.988C99.6787 355.38 99.576 355.875 99.576 356.472C99.576 357.06 99.6787 357.555 99.884 357.956C100.099 358.357 100.374 358.661 100.71 358.866C101.055 359.062 101.429 359.16 101.83 359.16ZM106.965 360V352.944H108.029L108.113 354.288C108.272 353.971 108.472 353.7 108.715 353.476C108.967 353.252 109.266 353.079 109.611 352.958C109.966 352.837 110.367 352.776 110.815 352.776V354.008H110.381C110.082 354.008 109.798 354.05 109.527 354.134C109.256 354.209 109.014 354.335 108.799 354.512C108.594 354.689 108.43 354.932 108.309 355.24C108.197 355.539 108.141 355.912 108.141 356.36V360H106.965ZM116.487 360L113.127 356.136L116.193 352.944H117.635L114.121 356.556L114.135 355.716L117.985 360H116.487ZM112.147 360V349.92H113.323V360H112.147ZM122.99 360V350.2H124.166V360H122.99ZM128.973 360C128.553 360 128.189 359.935 127.881 359.804C127.573 359.673 127.335 359.454 127.167 359.146C127.009 358.829 126.929 358.404 126.929 357.872V353.938H125.697V352.944H126.929L127.083 351.236H128.105V352.944H130.149V353.938H128.105V357.872C128.105 358.311 128.194 358.609 128.371 358.768C128.549 358.917 128.861 358.992 129.309 358.992H130.065V360H128.973ZM134.586 360.168C133.924 360.168 133.336 360.014 132.822 359.706C132.318 359.398 131.922 358.969 131.632 358.418C131.343 357.858 131.198 357.209 131.198 356.472C131.198 355.725 131.338 355.077 131.618 354.526C131.908 353.975 132.309 353.546 132.822 353.238C133.345 352.93 133.942 352.776 134.614 352.776C135.305 352.776 135.888 352.93 136.364 353.238C136.85 353.546 137.218 353.952 137.47 354.456C137.732 354.951 137.862 355.497 137.862 356.094C137.862 356.187 137.862 356.285 137.862 356.388C137.862 356.491 137.858 356.607 137.848 356.738H132.08V355.828H136.714C136.686 355.184 136.472 354.68 136.07 354.316C135.678 353.952 135.184 353.77 134.586 353.77C134.185 353.77 133.812 353.863 133.466 354.05C133.13 354.227 132.86 354.493 132.654 354.848C132.449 355.193 132.346 355.627 132.346 356.15V356.542C132.346 357.121 132.449 357.606 132.654 357.998C132.869 358.39 133.144 358.684 133.48 358.88C133.826 359.076 134.194 359.174 134.586 359.174C135.081 359.174 135.487 359.067 135.804 358.852C136.131 358.628 136.364 358.329 136.504 357.956H137.666C137.554 358.376 137.358 358.754 137.078 359.09C136.798 359.426 136.448 359.692 136.028 359.888C135.618 360.075 135.137 360.168 134.586 360.168ZM139.449 360V352.944H140.513L140.583 353.952C140.807 353.588 141.106 353.303 141.479 353.098C141.862 352.883 142.277 352.776 142.725 352.776C143.089 352.776 143.416 352.827 143.705 352.93C144.004 353.023 144.265 353.173 144.489 353.378C144.713 353.574 144.895 353.826 145.035 354.134C145.278 353.705 145.609 353.373 146.029 353.14C146.459 352.897 146.916 352.776 147.401 352.776C147.943 352.776 148.414 352.888 148.815 353.112C149.226 353.327 149.539 353.658 149.753 354.106C149.977 354.545 150.089 355.105 150.089 355.786V360H148.927V355.912C148.927 355.203 148.783 354.671 148.493 354.316C148.204 353.961 147.798 353.784 147.275 353.784C146.911 353.784 146.585 353.882 146.295 354.078C146.006 354.265 145.777 354.54 145.609 354.904C145.441 355.268 145.357 355.716 145.357 356.248V360H144.181V355.912C144.181 355.203 144.037 354.671 143.747 354.316C143.458 353.961 143.047 353.784 142.515 353.784C142.161 353.784 141.839 353.882 141.549 354.078C141.269 354.265 141.045 354.54 140.877 354.904C140.709 355.268 140.625 355.716 140.625 356.248V360H139.449ZM158.759 360.168C158.133 360.168 157.564 360.056 157.051 359.832C156.547 359.599 156.145 359.253 155.847 358.796C155.548 358.339 155.389 357.769 155.371 357.088H156.561C156.57 357.461 156.659 357.807 156.827 358.124C157.004 358.432 157.256 358.679 157.583 358.866C157.909 359.053 158.301 359.146 158.759 359.146C159.216 359.146 159.599 359.057 159.907 358.88C160.215 358.703 160.448 358.469 160.607 358.18C160.765 357.881 160.845 357.55 160.845 357.186C160.845 356.729 160.733 356.36 160.509 356.08C160.294 355.791 160 355.581 159.627 355.45C159.263 355.31 158.861 355.24 158.423 355.24H157.695V354.246H158.423C159.067 354.246 159.571 354.097 159.935 353.798C160.299 353.499 160.481 353.089 160.481 352.566C160.481 352.137 160.336 351.777 160.047 351.488C159.767 351.199 159.337 351.054 158.759 351.054C158.208 351.054 157.769 351.213 157.443 351.53C157.116 351.847 156.929 352.253 156.883 352.748H155.693C155.721 352.216 155.865 351.745 156.127 351.334C156.388 350.923 156.743 350.606 157.191 350.382C157.639 350.149 158.166 350.032 158.773 350.032C159.407 350.032 159.939 350.144 160.369 350.368C160.798 350.592 161.12 350.891 161.335 351.264C161.559 351.637 161.671 352.048 161.671 352.496C161.671 352.832 161.61 353.149 161.489 353.448C161.367 353.737 161.185 353.994 160.943 354.218C160.7 354.442 160.392 354.601 160.019 354.694C160.401 354.769 160.742 354.913 161.041 355.128C161.349 355.343 161.591 355.623 161.769 355.968C161.946 356.313 162.035 356.719 162.035 357.186C162.035 357.718 161.909 358.213 161.657 358.67C161.414 359.118 161.05 359.482 160.565 359.762C160.079 360.033 159.477 360.168 158.759 360.168Z" fill="#EEEFF1"/>
<path d="M87.9141 395L85.2261 385.2H86.4861L88.6001 393.6L90.9941 385.2H92.3101L94.6481 393.628L96.7901 385.2H98.0501L95.3061 395H93.9621L91.6241 386.894L89.2301 395H87.9141ZM101.816 395.168C101.163 395.168 100.575 395.019 100.052 394.72C99.5294 394.412 99.1187 393.983 98.82 393.432C98.5214 392.872 98.372 392.223 98.372 391.486C98.372 390.73 98.5214 390.077 98.82 389.526C99.128 388.966 99.5434 388.537 100.066 388.238C100.598 387.93 101.191 387.776 101.844 387.776C102.516 387.776 103.109 387.93 103.622 388.238C104.145 388.537 104.555 388.966 104.854 389.526C105.162 390.077 105.316 390.725 105.316 391.472C105.316 392.219 105.162 392.872 104.854 393.432C104.546 393.983 104.131 394.412 103.608 394.72C103.085 395.019 102.488 395.168 101.816 395.168ZM101.83 394.16C102.231 394.16 102.605 394.062 102.95 393.866C103.295 393.661 103.575 393.357 103.79 392.956C104.005 392.555 104.112 392.06 104.112 391.472C104.112 390.875 104.005 390.38 103.79 389.988C103.585 389.587 103.309 389.288 102.964 389.092C102.628 388.887 102.255 388.784 101.844 388.784C101.452 388.784 101.079 388.887 100.724 389.092C100.379 389.288 100.099 389.587 99.884 389.988C99.6787 390.38 99.576 390.875 99.576 391.472C99.576 392.06 99.6787 392.555 99.884 392.956C100.099 393.357 100.374 393.661 100.71 393.866C101.055 394.062 101.429 394.16 101.83 394.16ZM106.965 395V387.944H108.029L108.113 389.288C108.272 388.971 108.472 388.7 108.715 388.476C108.967 388.252 109.266 388.079 109.611 387.958C109.966 387.837 110.367 387.776 110.815 387.776V389.008H110.381C110.082 389.008 109.798 389.05 109.527 389.134C109.256 389.209 109.014 389.335 108.799 389.512C108.594 389.689 108.43 389.932 108.309 390.24C108.197 390.539 108.141 390.912 108.141 391.36V395H106.965ZM116.487 395L113.127 391.136L116.193 387.944H117.635L114.121 391.556L114.135 390.716L117.985 395H116.487ZM112.147 395V384.92H113.323V395H112.147ZM122.99 395V385.2H124.166V395H122.99ZM128.973 395C128.553 395 128.189 394.935 127.881 394.804C127.573 394.673 127.335 394.454 127.167 394.146C127.009 393.829 126.929 393.404 126.929 392.872V388.938H125.697V387.944H126.929L127.083 386.236H128.105V387.944H130.149V388.938H128.105V392.872C128.105 393.311 128.194 393.609 128.371 393.768C128.549 393.917 128.861 393.992 129.309 393.992H130.065V395H128.973ZM134.586 395.168C133.924 395.168 133.336 395.014 132.822 394.706C132.318 394.398 131.922 393.969 131.632 393.418C131.343 392.858 131.198 392.209 131.198 391.472C131.198 390.725 131.338 390.077 131.618 389.526C131.908 388.975 132.309 388.546 132.822 388.238C133.345 387.93 133.942 387.776 134.614 387.776C135.305 387.776 135.888 387.93 136.364 388.238C136.85 388.546 137.218 388.952 137.47 389.456C137.732 389.951 137.862 390.497 137.862 391.094C137.862 391.187 137.862 391.285 137.862 391.388C137.862 391.491 137.858 391.607 137.848 391.738H132.08V390.828H136.714C136.686 390.184 136.472 389.68 136.07 389.316C135.678 388.952 135.184 388.77 134.586 388.77C134.185 388.77 133.812 388.863 133.466 389.05C133.13 389.227 132.86 389.493 132.654 389.848C132.449 390.193 132.346 390.627 132.346 391.15V391.542C132.346 392.121 132.449 392.606 132.654 392.998C132.869 393.39 133.144 393.684 133.48 393.88C133.826 394.076 134.194 394.174 134.586 394.174C135.081 394.174 135.487 394.067 135.804 393.852C136.131 393.628 136.364 393.329 136.504 392.956H137.666C137.554 393.376 137.358 393.754 137.078 394.09C136.798 394.426 136.448 394.692 136.028 394.888C135.618 395.075 135.137 395.168 134.586 395.168ZM139.449 395V387.944H140.513L140.583 388.952C140.807 388.588 141.106 388.303 141.479 388.098C141.862 387.883 142.277 387.776 142.725 387.776C143.089 387.776 143.416 387.827 143.705 387.93C144.004 388.023 144.265 388.173 144.489 388.378C144.713 388.574 144.895 388.826 145.035 389.134C145.278 388.705 145.609 388.373 146.029 388.14C146.459 387.897 146.916 387.776 147.401 387.776C147.943 387.776 148.414 387.888 148.815 388.112C149.226 388.327 149.539 388.658 149.753 389.106C149.977 389.545 150.089 390.105 150.089 390.786V395H148.927V390.912C148.927 390.203 148.783 389.671 148.493 389.316C148.204 388.961 147.798 388.784 147.275 388.784C146.911 388.784 146.585 388.882 146.295 389.078C146.006 389.265 145.777 389.54 145.609 389.904C145.441 390.268 145.357 390.716 145.357 391.248V395H144.181V390.912C144.181 390.203 144.037 389.671 143.747 389.316C143.458 388.961 143.047 388.784 142.515 388.784C142.161 388.784 141.839 388.882 141.549 389.078C141.269 389.265 141.045 389.54 140.877 389.904C140.709 390.268 140.625 390.716 140.625 391.248V395H139.449ZM160.145 395V392.9H155.175V391.99L159.935 385.2H161.307V391.864H162.763V392.9H161.307V395H160.145ZM156.477 391.864H160.201V386.502L156.477 391.864Z" fill="#EEEFF1"/>
<path d="M360.802 289.168C359.943 289.168 359.201 288.958 358.576 288.538C357.96 288.109 357.489 287.516 357.162 286.76C356.835 285.995 356.672 285.108 356.672 284.1C356.672 283.092 356.835 282.21 357.162 281.454C357.489 280.689 357.96 280.096 358.576 279.676C359.201 279.247 359.943 279.032 360.802 279.032C361.661 279.032 362.393 279.247 363 279.676C363.616 280.096 364.087 280.689 364.414 281.454C364.741 282.21 364.904 283.092 364.904 284.1C364.904 285.108 364.741 285.995 364.414 286.76C364.087 287.516 363.616 288.109 363 288.538C362.393 288.958 361.661 289.168 360.802 289.168ZM360.788 288.132C361.348 288.132 361.847 287.973 362.286 287.656C362.725 287.329 363.07 286.867 363.322 286.27C363.574 285.663 363.7 284.94 363.7 284.1C363.7 283.26 363.574 282.541 363.322 281.944C363.07 281.337 362.725 280.875 362.286 280.558C361.847 280.241 361.348 280.082 360.788 280.082C360.228 280.082 359.724 280.241 359.276 280.558C358.837 280.875 358.492 281.337 358.24 281.944C357.997 282.541 357.876 283.26 357.876 284.1C357.876 284.94 357.997 285.663 358.24 286.27C358.492 286.867 358.837 287.329 359.276 287.656C359.724 287.973 360.228 288.132 360.788 288.132Z" fill="#EEEFF1"/>
<path d="M361.128 325V316.516L359.448 316.936V316.096L361.52 315.2H362.318V325H361.128Z" fill="#EEEFF1"/>
<path d="M361.128 360V351.516L359.448 351.936V351.096L361.52 350.2H362.318V360H361.128Z" fill="#EEEFF1"/>
<path d="M361.102 395.168C360.477 395.168 359.907 395.056 359.394 394.832C358.89 394.599 358.489 394.253 358.19 393.796C357.891 393.339 357.733 392.769 357.714 392.088H358.904C358.913 392.461 359.002 392.807 359.17 393.124C359.347 393.432 359.599 393.679 359.926 393.866C360.253 394.053 360.645 394.146 361.102 394.146C361.559 394.146 361.942 394.057 362.25 393.88C362.558 393.703 362.791 393.469 362.95 393.18C363.109 392.881 363.188 392.55 363.188 392.186C363.188 391.729 363.076 391.36 362.852 391.08C362.637 390.791 362.343 390.581 361.97 390.45C361.606 390.31 361.205 390.24 360.766 390.24H360.038V389.246H360.766C361.41 389.246 361.914 389.097 362.278 388.798C362.642 388.499 362.824 388.089 362.824 387.566C362.824 387.137 362.679 386.777 362.39 386.488C362.11 386.199 361.681 386.054 361.102 386.054C360.551 386.054 360.113 386.213 359.786 386.53C359.459 386.847 359.273 387.253 359.226 387.748H358.036C358.064 387.216 358.209 386.745 358.47 386.334C358.731 385.923 359.086 385.606 359.534 385.382C359.982 385.149 360.509 385.032 361.116 385.032C361.751 385.032 362.283 385.144 362.712 385.368C363.141 385.592 363.463 385.891 363.678 386.264C363.902 386.637 364.014 387.048 364.014 387.496C364.014 387.832 363.953 388.149 363.832 388.448C363.711 388.737 363.529 388.994 363.286 389.218C363.043 389.442 362.735 389.601 362.362 389.694C362.745 389.769 363.085 389.913 363.384 390.128C363.692 390.343 363.935 390.623 364.112 390.968C364.289 391.313 364.378 391.719 364.378 392.186C364.378 392.718 364.252 393.213 364 393.67C363.757 394.118 363.393 394.482 362.908 394.762C362.423 395.033 361.821 395.168 361.102 395.168Z" fill="#EEEFF1"/>
<rect x="65.5" y="278.799" width="12.0428" height="13.1382" rx="4.5" stroke="#ACADAE"/>
<rect x="65.5" y="313.799" width="12.0428" height="13.1382" rx="4.5" stroke="#ACADAE"/>
<rect x="65.5" y="348.799" width="12.0428" height="13.1382" rx="4.5" stroke="#ACADAE"/>
<rect x="65.5" y="383.799" width="12.0428" height="13.1382" rx="4.5" stroke="#ACADAE"/>
<rect x="198" y="276" width="88" height="17.6728" rx="8.8364" fill="#575B62"/>
<path d="M212.81 282.2C212.75 281.696 212.508 281.305 212.084 281.026C211.66 280.748 211.139 280.609 210.523 280.609C210.072 280.609 209.678 280.682 209.34 280.827C209.005 280.973 208.743 281.174 208.554 281.429C208.369 281.684 208.276 281.974 208.276 282.299C208.276 282.571 208.34 282.804 208.47 283C208.602 283.192 208.771 283.353 208.977 283.482C209.182 283.608 209.398 283.713 209.623 283.795C209.849 283.875 210.056 283.94 210.245 283.989L211.279 284.268C211.544 284.337 211.839 284.433 212.164 284.556C212.492 284.679 212.805 284.846 213.103 285.058C213.405 285.267 213.653 285.536 213.849 285.864C214.045 286.192 214.142 286.594 214.142 287.072C214.142 287.622 213.998 288.119 213.71 288.563C213.425 289.007 213.007 289.36 212.457 289.622C211.91 289.884 211.246 290.015 210.463 290.015C209.734 290.015 209.103 289.897 208.569 289.662C208.039 289.427 207.621 289.098 207.316 288.678C207.015 288.257 206.844 287.768 206.804 287.211H208.077C208.11 287.595 208.239 287.914 208.465 288.165C208.693 288.414 208.982 288.6 209.33 288.722C209.681 288.842 210.059 288.901 210.463 288.901C210.934 288.901 211.357 288.825 211.731 288.673C212.106 288.517 212.402 288.301 212.621 288.026C212.84 287.748 212.949 287.423 212.949 287.052C212.949 286.714 212.855 286.439 212.666 286.227C212.477 286.014 212.228 285.842 211.92 285.71C211.612 285.577 211.279 285.461 210.921 285.362L209.668 285.004C208.872 284.775 208.243 284.448 207.779 284.024C207.315 283.6 207.083 283.045 207.083 282.359C207.083 281.789 207.237 281.291 207.545 280.867C207.857 280.44 208.274 280.108 208.798 279.873C209.325 279.634 209.913 279.515 210.563 279.515C211.219 279.515 211.802 279.633 212.313 279.868C212.823 280.1 213.228 280.418 213.526 280.822C213.827 281.227 213.987 281.686 214.003 282.2H212.81ZM220.823 286.714V282.2H221.996V289.836H220.823V288.543H220.743C220.564 288.931 220.286 289.261 219.908 289.533C219.53 289.801 219.053 289.935 218.476 289.935C217.999 289.935 217.575 289.831 217.204 289.622C216.832 289.41 216.541 289.092 216.329 288.668C216.116 288.24 216.01 287.701 216.01 287.052V282.2H217.184V286.972C217.184 287.529 217.339 287.973 217.651 288.305C217.966 288.636 218.367 288.802 218.854 288.802C219.146 288.802 219.442 288.727 219.744 288.578C220.049 288.429 220.304 288.2 220.51 287.892C220.718 287.584 220.823 287.191 220.823 286.714ZM227.247 289.995C226.532 289.995 225.915 289.826 225.398 289.488C224.881 289.15 224.483 288.684 224.205 288.091C223.926 287.498 223.787 286.82 223.787 286.058C223.787 285.282 223.93 284.598 224.215 284.004C224.503 283.408 224.904 282.942 225.418 282.607C225.935 282.269 226.538 282.1 227.228 282.1C227.764 282.1 228.248 282.2 228.679 282.398C229.11 282.597 229.463 282.876 229.738 283.234C230.013 283.592 230.184 284.009 230.25 284.487H229.077C228.987 284.138 228.789 283.83 228.48 283.562C228.175 283.29 227.764 283.154 227.247 283.154C226.79 283.154 226.389 283.273 226.044 283.512C225.703 283.747 225.436 284.08 225.244 284.511C225.055 284.939 224.96 285.441 224.96 286.018C224.96 286.608 225.053 287.121 225.239 287.559C225.428 287.996 225.693 288.336 226.034 288.578C226.379 288.82 226.783 288.941 227.247 288.941C227.552 288.941 227.829 288.888 228.078 288.782C228.326 288.676 228.537 288.523 228.709 288.325C228.881 288.126 229.004 287.887 229.077 287.609H230.25C230.184 288.059 230.02 288.465 229.758 288.827C229.5 289.185 229.157 289.47 228.729 289.682C228.305 289.891 227.811 289.995 227.247 289.995ZM235.068 289.995C234.352 289.995 233.735 289.826 233.218 289.488C232.701 289.15 232.304 288.684 232.025 288.091C231.747 287.498 231.608 286.82 231.608 286.058C231.608 285.282 231.75 284.598 232.035 284.004C232.323 283.408 232.724 282.942 233.238 282.607C233.755 282.269 234.358 282.1 235.048 282.1C235.585 282.1 236.069 282.2 236.5 282.398C236.93 282.597 237.283 282.876 237.559 283.234C237.834 283.592 238.004 284.009 238.071 284.487H236.897C236.808 284.138 236.609 283.83 236.301 283.562C235.996 283.29 235.585 283.154 235.068 283.154C234.61 283.154 234.209 283.273 233.865 283.512C233.523 283.747 233.256 284.08 233.064 284.511C232.875 284.939 232.781 285.441 232.781 286.018C232.781 286.608 232.874 287.121 233.059 287.559C233.248 287.996 233.513 288.336 233.855 288.578C234.199 288.82 234.604 288.941 235.068 288.941C235.373 288.941 235.649 288.888 235.898 288.782C236.147 288.676 236.357 288.523 236.529 288.325C236.702 288.126 236.824 287.887 236.897 287.609H238.071C238.004 288.059 237.84 288.465 237.578 288.827C237.32 289.185 236.977 289.47 236.549 289.682C236.125 289.891 235.631 289.995 235.068 289.995ZM242.987 289.995C242.252 289.995 241.617 289.833 241.083 289.508C240.553 289.18 240.144 288.722 239.855 288.136C239.57 287.546 239.428 286.86 239.428 286.077C239.428 285.295 239.57 284.606 239.855 284.009C240.144 283.409 240.545 282.942 241.059 282.607C241.576 282.269 242.179 282.1 242.868 282.1C243.266 282.1 243.659 282.166 244.046 282.299C244.434 282.432 244.787 282.647 245.105 282.945C245.424 283.24 245.677 283.631 245.866 284.119C246.055 284.606 246.149 285.206 246.149 285.918V286.415H240.263V285.401H244.956C244.956 284.97 244.87 284.586 244.698 284.248C244.529 283.91 244.287 283.643 243.972 283.447C243.66 283.252 243.292 283.154 242.868 283.154C242.401 283.154 241.996 283.27 241.655 283.502C241.317 283.731 241.057 284.029 240.875 284.397C240.692 284.765 240.601 285.159 240.601 285.58V286.256C240.601 286.833 240.701 287.322 240.899 287.723C241.102 288.121 241.382 288.424 241.74 288.633C242.098 288.838 242.514 288.941 242.987 288.941C243.296 288.941 243.574 288.898 243.823 288.812C244.075 288.722 244.292 288.59 244.474 288.414C244.656 288.235 244.797 288.013 244.897 287.748L246.03 288.066C245.911 288.451 245.71 288.789 245.429 289.08C245.147 289.369 244.799 289.594 244.384 289.756C243.97 289.915 243.505 289.995 242.987 289.995ZM253.343 283.91L252.289 284.208C252.223 284.032 252.125 283.862 251.996 283.696C251.87 283.527 251.698 283.388 251.479 283.278C251.26 283.169 250.98 283.114 250.639 283.114C250.171 283.114 249.782 283.222 249.47 283.438C249.162 283.65 249.008 283.92 249.008 284.248C249.008 284.54 249.114 284.77 249.326 284.939C249.538 285.108 249.87 285.249 250.321 285.362L251.454 285.64C252.137 285.806 252.646 286.059 252.98 286.401C253.315 286.739 253.483 287.174 253.483 287.708C253.483 288.146 253.357 288.537 253.105 288.881C252.856 289.226 252.508 289.498 252.061 289.697C251.613 289.896 251.093 289.995 250.5 289.995C249.721 289.995 249.076 289.826 248.566 289.488C248.055 289.15 247.732 288.656 247.596 288.006L248.71 287.728C248.816 288.139 249.016 288.447 249.311 288.653C249.61 288.858 249.999 288.961 250.48 288.961C251.027 288.961 251.461 288.845 251.782 288.613C252.107 288.378 252.269 288.096 252.269 287.768C252.269 287.503 252.177 287.281 251.991 287.102C251.805 286.919 251.52 286.783 251.136 286.694L249.863 286.396C249.164 286.23 248.65 285.973 248.322 285.625C247.997 285.274 247.835 284.835 247.835 284.308C247.835 283.877 247.956 283.496 248.198 283.164C248.443 282.833 248.776 282.572 249.197 282.384C249.621 282.195 250.102 282.1 250.639 282.1C251.394 282.1 251.988 282.266 252.419 282.597C252.853 282.929 253.161 283.366 253.343 283.91ZM260.658 283.91L259.604 284.208C259.537 284.032 259.44 283.862 259.31 283.696C259.185 283.527 259.012 283.388 258.793 283.278C258.575 283.169 258.295 283.114 257.953 283.114C257.486 283.114 257.096 283.222 256.785 283.438C256.477 283.65 256.323 283.92 256.323 284.248C256.323 284.54 256.429 284.77 256.641 284.939C256.853 285.108 257.184 285.249 257.635 285.362L258.769 285.64C259.451 285.806 259.96 286.059 260.295 286.401C260.63 286.739 260.797 287.174 260.797 287.708C260.797 288.146 260.671 288.537 260.419 288.881C260.171 289.226 259.823 289.498 259.375 289.697C258.928 289.896 258.407 289.995 257.814 289.995C257.035 289.995 256.39 289.826 255.88 289.488C255.37 289.15 255.046 288.656 254.911 288.006L256.024 287.728C256.13 288.139 256.331 288.447 256.626 288.653C256.924 288.858 257.314 288.961 257.794 288.961C258.341 288.961 258.775 288.845 259.097 288.613C259.421 288.378 259.584 288.096 259.584 287.768C259.584 287.503 259.491 287.281 259.305 287.102C259.12 286.919 258.835 286.783 258.45 286.694L257.178 286.396C256.478 286.23 255.965 285.973 255.636 285.625C255.312 285.274 255.149 284.835 255.149 284.308C255.149 283.877 255.27 283.496 255.512 283.164C255.757 282.833 256.091 282.572 256.511 282.384C256.936 282.195 257.416 282.1 257.953 282.1C258.709 282.1 259.302 282.266 259.733 282.597C260.167 282.929 260.475 283.366 260.658 283.91ZM265.964 282.2V283.194H261.847V282.2H265.964ZM263.08 289.836V281.146C263.08 280.708 263.183 280.344 263.388 280.052C263.594 279.76 263.861 279.541 264.189 279.396C264.517 279.25 264.863 279.177 265.228 279.177C265.516 279.177 265.752 279.2 265.934 279.246C266.116 279.293 266.252 279.336 266.342 279.376L266.003 280.39C265.944 280.37 265.861 280.345 265.755 280.315C265.652 280.286 265.516 280.271 265.347 280.271C264.959 280.271 264.679 280.368 264.507 280.564C264.338 280.759 264.253 281.046 264.253 281.424V289.836H263.08ZM272.421 286.714V282.2H273.594V289.836H272.421V288.543H272.341C272.162 288.931 271.884 289.261 271.506 289.533C271.128 289.801 270.651 289.935 270.074 289.935C269.597 289.935 269.172 289.831 268.801 289.622C268.43 289.41 268.138 289.092 267.926 288.668C267.714 288.24 267.608 287.701 267.608 287.052V282.2H268.781V286.972C268.781 287.529 268.937 287.973 269.249 288.305C269.564 288.636 269.965 288.802 270.452 288.802C270.743 288.802 271.04 288.727 271.342 288.578C271.647 288.429 271.902 288.2 272.107 287.892C272.316 287.584 272.421 287.191 272.421 286.714ZM276.916 279.654V289.836H275.743V279.654H276.916Z" fill="#EEEFF1"/>
<rect x="209.5" y="311" width="61" height="17.6728" rx="8.8364" fill="#575B62"/>
<path d="M218.866 324.836V314.654H222.306C223.102 314.654 223.754 314.79 224.265 315.062C224.775 315.33 225.153 315.7 225.398 316.17C225.644 316.641 225.766 317.176 225.766 317.776C225.766 318.376 225.644 318.908 225.398 319.372C225.153 319.836 224.777 320.201 224.27 320.466C223.763 320.728 223.115 320.859 222.326 320.859H219.542V319.745H222.286C222.83 319.745 223.267 319.665 223.599 319.506C223.933 319.347 224.175 319.122 224.325 318.83C224.477 318.535 224.553 318.184 224.553 317.776C224.553 317.369 224.477 317.012 224.325 316.707C224.172 316.402 223.929 316.167 223.594 316.001C223.259 315.832 222.817 315.748 222.266 315.748H220.099V324.836H218.866ZM223.658 320.262L226.164 324.836H224.732L222.266 320.262H223.658ZM230.781 324.995C230.046 324.995 229.411 324.833 228.877 324.508C228.347 324.18 227.938 323.722 227.649 323.136C227.364 322.546 227.222 321.86 227.222 321.077C227.222 320.295 227.364 319.606 227.649 319.009C227.938 318.409 228.339 317.942 228.852 317.607C229.369 317.269 229.973 317.1 230.662 317.1C231.06 317.1 231.453 317.166 231.84 317.299C232.228 317.432 232.581 317.647 232.899 317.945C233.218 318.24 233.471 318.631 233.66 319.119C233.849 319.606 233.943 320.206 233.943 320.918V321.415H228.057V320.401H232.75C232.75 319.97 232.664 319.586 232.492 319.248C232.323 318.91 232.081 318.643 231.766 318.447C231.454 318.252 231.086 318.154 230.662 318.154C230.195 318.154 229.79 318.27 229.449 318.502C229.111 318.731 228.851 319.029 228.669 319.397C228.486 319.765 228.395 320.159 228.395 320.58V321.256C228.395 321.833 228.494 322.322 228.693 322.723C228.896 323.121 229.176 323.424 229.534 323.633C229.892 323.838 230.307 323.941 230.781 323.941C231.09 323.941 231.368 323.898 231.617 323.812C231.869 323.722 232.086 323.59 232.268 323.414C232.45 323.235 232.591 323.013 232.691 322.748L233.824 323.066C233.705 323.451 233.504 323.789 233.222 324.08C232.941 324.369 232.593 324.594 232.178 324.756C231.764 324.915 231.298 324.995 230.781 324.995ZM236.901 320.242V324.836H235.728V317.2H236.862V318.393H236.961C237.14 318.005 237.412 317.693 237.776 317.458C238.141 317.219 238.612 317.1 239.188 317.1C239.705 317.1 240.158 317.206 240.546 317.418C240.933 317.627 241.235 317.945 241.45 318.373C241.666 318.797 241.774 319.334 241.774 319.984V324.836H240.6V320.063C240.6 319.463 240.445 318.996 240.133 318.661C239.821 318.323 239.394 318.154 238.85 318.154C238.476 318.154 238.141 318.235 237.846 318.398C237.554 318.56 237.324 318.797 237.155 319.109C236.986 319.42 236.901 319.798 236.901 320.242ZM247.119 324.995C246.384 324.995 245.749 324.833 245.215 324.508C244.685 324.18 244.276 323.722 243.987 323.136C243.702 322.546 243.56 321.86 243.56 321.077C243.56 320.295 243.702 319.606 243.987 319.009C244.276 318.409 244.677 317.942 245.19 317.607C245.707 317.269 246.311 317.1 247 317.1C247.398 317.1 247.79 317.166 248.178 317.299C248.566 317.432 248.919 317.647 249.237 317.945C249.555 318.24 249.809 318.631 249.998 319.119C250.187 319.606 250.281 320.206 250.281 320.918V321.415H244.395V320.401H249.088C249.088 319.97 249.002 319.586 248.83 319.248C248.661 318.91 248.419 318.643 248.104 318.447C247.792 318.252 247.424 318.154 247 318.154C246.533 318.154 246.128 318.27 245.787 318.502C245.449 318.731 245.189 319.029 245.006 319.397C244.824 319.765 244.733 320.159 244.733 320.58V321.256C244.733 321.833 244.832 322.322 245.031 322.723C245.233 323.121 245.513 323.424 245.871 323.633C246.229 323.838 246.645 323.941 247.119 323.941C247.428 323.941 247.706 323.898 247.955 323.812C248.206 323.722 248.424 323.59 248.606 323.414C248.788 323.235 248.929 323.013 249.028 322.748L250.162 323.066C250.043 323.451 249.842 323.789 249.56 324.08C249.279 324.369 248.931 324.594 248.516 324.756C248.102 324.915 247.636 324.995 247.119 324.995ZM253.796 324.836L251.469 317.2H252.702L254.353 323.046H254.433L256.063 317.2H257.316L258.927 323.026H259.006L260.657 317.2H261.89L259.563 324.836H258.41L256.739 318.969H256.62L254.95 324.836H253.796Z" fill="#EEEFF1"/>
<rect x="209.5" y="346" width="61" height="17.6728" rx="8.8364" fill="#575B62"/>
<path d="M218.866 359.836V349.654H222.306C223.102 349.654 223.754 349.79 224.265 350.062C224.775 350.33 225.153 350.7 225.398 351.17C225.644 351.641 225.766 352.176 225.766 352.776C225.766 353.376 225.644 353.908 225.398 354.372C225.153 354.836 224.777 355.201 224.27 355.466C223.763 355.728 223.115 355.859 222.326 355.859H219.542V354.745H222.286C222.83 354.745 223.267 354.665 223.599 354.506C223.933 354.347 224.175 354.122 224.325 353.83C224.477 353.535 224.553 353.184 224.553 352.776C224.553 352.369 224.477 352.012 224.325 351.707C224.172 351.402 223.929 351.167 223.594 351.001C223.259 350.832 222.817 350.748 222.266 350.748H220.099V359.836H218.866ZM223.658 355.262L226.164 359.836H224.732L222.266 355.262H223.658ZM230.781 359.995C230.046 359.995 229.411 359.833 228.877 359.508C228.347 359.18 227.938 358.722 227.649 358.136C227.364 357.546 227.222 356.86 227.222 356.077C227.222 355.295 227.364 354.606 227.649 354.009C227.938 353.409 228.339 352.942 228.852 352.607C229.369 352.269 229.973 352.1 230.662 352.1C231.06 352.1 231.453 352.166 231.84 352.299C232.228 352.432 232.581 352.647 232.899 352.945C233.218 353.24 233.471 353.631 233.66 354.119C233.849 354.606 233.943 355.206 233.943 355.918V356.415H228.057V355.401H232.75C232.75 354.97 232.664 354.586 232.492 354.248C232.323 353.91 232.081 353.643 231.766 353.447C231.454 353.252 231.086 353.154 230.662 353.154C230.195 353.154 229.79 353.27 229.449 353.502C229.111 353.731 228.851 354.029 228.669 354.397C228.486 354.765 228.395 355.159 228.395 355.58V356.256C228.395 356.833 228.494 357.322 228.693 357.723C228.896 358.121 229.176 358.424 229.534 358.633C229.892 358.838 230.307 358.941 230.781 358.941C231.09 358.941 231.368 358.898 231.617 358.812C231.869 358.722 232.086 358.59 232.268 358.414C232.45 358.235 232.591 358.013 232.691 357.748L233.824 358.066C233.705 358.451 233.504 358.789 233.222 359.08C232.941 359.369 232.593 359.594 232.178 359.756C231.764 359.915 231.298 359.995 230.781 359.995ZM236.901 355.242V359.836H235.728V352.2H236.862V353.393H236.961C237.14 353.005 237.412 352.693 237.776 352.458C238.141 352.219 238.612 352.1 239.188 352.1C239.705 352.1 240.158 352.206 240.546 352.418C240.933 352.627 241.235 352.945 241.45 353.373C241.666 353.797 241.774 354.334 241.774 354.984V359.836H240.6V355.063C240.6 354.463 240.445 353.996 240.133 353.661C239.821 353.323 239.394 353.154 238.85 353.154C238.476 353.154 238.141 353.235 237.846 353.398C237.554 353.56 237.324 353.797 237.155 354.109C236.986 354.42 236.901 354.798 236.901 355.242ZM247.119 359.995C246.384 359.995 245.749 359.833 245.215 359.508C244.685 359.18 244.276 358.722 243.987 358.136C243.702 357.546 243.56 356.86 243.56 356.077C243.56 355.295 243.702 354.606 243.987 354.009C244.276 353.409 244.677 352.942 245.19 352.607C245.707 352.269 246.311 352.1 247 352.1C247.398 352.1 247.79 352.166 248.178 352.299C248.566 352.432 248.919 352.647 249.237 352.945C249.555 353.24 249.809 353.631 249.998 354.119C250.187 354.606 250.281 355.206 250.281 355.918V356.415H244.395V355.401H249.088C249.088 354.97 249.002 354.586 248.83 354.248C248.661 353.91 248.419 353.643 248.104 353.447C247.792 353.252 247.424 353.154 247 353.154C246.533 353.154 246.128 353.27 245.787 353.502C245.449 353.731 245.189 354.029 245.006 354.397C244.824 354.765 244.733 355.159 244.733 355.58V356.256C244.733 356.833 244.832 357.322 245.031 357.723C245.233 358.121 245.513 358.424 245.871 358.633C246.229 358.838 246.645 358.941 247.119 358.941C247.428 358.941 247.706 358.898 247.955 358.812C248.206 358.722 248.424 358.59 248.606 358.414C248.788 358.235 248.929 358.013 249.028 357.748L250.162 358.066C250.043 358.451 249.842 358.789 249.56 359.08C249.279 359.369 248.931 359.594 248.516 359.756C248.102 359.915 247.636 359.995 247.119 359.995ZM253.796 359.836L251.469 352.2H252.702L254.353 358.046H254.433L256.063 352.2H257.316L258.927 358.026H259.006L260.657 352.2H261.89L259.563 359.836H258.41L256.739 353.969H256.62L254.95 359.836H253.796Z" fill="#EEEFF1"/>
<rect x="214" y="381" width="56" height="17.6728" rx="8.8364" fill="#575B62"/>
<path d="M223.436 394.836V384.654H229.541V385.748H224.669V389.188H229.084V390.282H224.669V394.836H223.436ZM233.741 395.015C233.257 395.015 232.818 394.924 232.423 394.741C232.029 394.556 231.716 394.289 231.484 393.941C231.252 393.59 231.136 393.165 231.136 392.668C231.136 392.231 231.222 391.876 231.394 391.604C231.567 391.329 231.797 391.114 232.085 390.958C232.374 390.802 232.692 390.686 233.04 390.61C233.391 390.531 233.744 390.468 234.099 390.421C234.563 390.362 234.939 390.317 235.227 390.287C235.519 390.254 235.731 390.199 235.864 390.123C236 390.047 236.068 389.914 236.068 389.725V389.685C236.068 389.195 235.933 388.814 235.665 388.542C235.4 388.27 234.997 388.134 234.457 388.134C233.897 388.134 233.458 388.257 233.139 388.502C232.821 388.747 232.597 389.009 232.468 389.288L231.355 388.89C231.553 388.426 231.819 388.065 232.15 387.806C232.485 387.544 232.849 387.362 233.244 387.259C233.642 387.153 234.033 387.1 234.417 387.1C234.662 387.1 234.944 387.13 235.262 387.19C235.584 387.246 235.894 387.364 236.192 387.543C236.494 387.722 236.744 387.992 236.943 388.353C237.142 388.714 237.241 389.198 237.241 389.805V394.836H236.068V393.802H236.008C235.928 393.968 235.796 394.145 235.61 394.334C235.425 394.523 235.178 394.683 234.869 394.816C234.561 394.949 234.185 395.015 233.741 395.015ZM233.92 393.961C234.384 393.961 234.775 393.87 235.093 393.688C235.415 393.505 235.657 393.27 235.819 392.982C235.985 392.693 236.068 392.39 236.068 392.072V390.998C236.018 391.058 235.909 391.112 235.74 391.162C235.574 391.208 235.382 391.25 235.163 391.286C234.947 391.319 234.737 391.349 234.531 391.376C234.329 391.399 234.165 391.419 234.039 391.435C233.734 391.475 233.449 391.54 233.184 391.629C232.922 391.715 232.71 391.846 232.548 392.022C232.389 392.194 232.309 392.43 232.309 392.728C232.309 393.136 232.46 393.444 232.762 393.653C233.066 393.858 233.453 393.961 233.92 393.961ZM239.382 394.836V387.2H240.556V394.836H239.382ZM239.979 385.927C239.75 385.927 239.553 385.849 239.387 385.693C239.225 385.537 239.144 385.35 239.144 385.131C239.144 384.913 239.225 384.725 239.387 384.57C239.553 384.414 239.75 384.336 239.979 384.336C240.208 384.336 240.403 384.414 240.566 384.57C240.731 384.725 240.814 384.913 240.814 385.131C240.814 385.35 240.731 385.537 240.566 385.693C240.403 385.849 240.208 385.927 239.979 385.927ZM243.878 384.654V394.836H242.705V384.654H243.878ZM249.229 394.995C248.493 394.995 247.858 394.833 247.325 394.508C246.794 394.18 246.385 393.722 246.097 393.136C245.812 392.546 245.669 391.86 245.669 391.077C245.669 390.295 245.812 389.606 246.097 389.009C246.385 388.409 246.786 387.942 247.3 387.607C247.817 387.269 248.42 387.1 249.109 387.1C249.507 387.1 249.9 387.166 250.288 387.299C250.675 387.432 251.028 387.647 251.347 387.945C251.665 388.24 251.918 388.631 252.107 389.119C252.296 389.606 252.391 390.206 252.391 390.918V391.415H246.504V390.401H251.197C251.197 389.97 251.111 389.586 250.939 389.248C250.77 388.91 250.528 388.643 250.213 388.447C249.902 388.252 249.534 388.154 249.109 388.154C248.642 388.154 248.238 388.27 247.896 388.502C247.558 388.731 247.298 389.029 247.116 389.397C246.933 389.765 246.842 390.159 246.842 390.58V391.256C246.842 391.833 246.942 392.322 247.141 392.723C247.343 393.121 247.623 393.424 247.981 393.633C248.339 393.838 248.755 393.941 249.229 393.941C249.537 393.941 249.815 393.898 250.064 393.812C250.316 393.722 250.533 393.59 250.715 393.414C250.897 393.235 251.038 393.013 251.138 392.748L252.271 393.066C252.152 393.451 251.951 393.789 251.67 394.08C251.388 394.369 251.04 394.594 250.626 394.756C250.211 394.915 249.746 394.995 249.229 394.995ZM257.059 394.995C256.423 394.995 255.861 394.834 255.374 394.513C254.886 394.188 254.505 393.731 254.23 393.141C253.955 392.547 253.817 391.846 253.817 391.038C253.817 390.236 253.955 389.54 254.23 388.95C254.505 388.36 254.888 387.904 255.379 387.582C255.869 387.261 256.436 387.1 257.079 387.1C257.576 387.1 257.969 387.183 258.257 387.349C258.549 387.511 258.771 387.697 258.923 387.906C259.079 388.111 259.2 388.28 259.286 388.413H259.386V384.654H260.559V394.836H259.425V393.663H259.286C259.2 393.802 259.077 393.978 258.918 394.19C258.759 394.398 258.532 394.586 258.237 394.751C257.942 394.914 257.549 394.995 257.059 394.995ZM257.218 393.941C257.689 393.941 258.086 393.818 258.411 393.573C258.736 393.325 258.983 392.982 259.152 392.544C259.321 392.103 259.406 391.594 259.406 391.018C259.406 390.448 259.323 389.949 259.157 389.521C258.991 389.09 258.746 388.756 258.421 388.517C258.096 388.275 257.695 388.154 257.218 388.154C256.721 388.154 256.307 388.282 255.975 388.537C255.647 388.789 255.4 389.132 255.234 389.566C255.072 389.997 254.991 390.481 254.991 391.018C254.991 391.561 255.074 392.055 255.239 392.499C255.408 392.94 255.657 393.291 255.985 393.553C256.317 393.812 256.728 393.941 257.218 393.941Z" fill="#EEEFF1"/>
<defs>
<filter id="filter0_f_2483_57416" x="-253" y="-52" width="965" height="720" filterUnits="userSpaceOnUse" color-interpolation-filters="sRGB">
<feFlood flood-opacity="0" result="BackgroundImageFix"/>
<feBlend mode="normal" in="SourceGraphic" in2="BackgroundImageFix" result="shape"/>
<feGaussianBlur stdDeviation="150" result="effect1_foregroundBlur_2483_57416"/>
</filter>
<filter id="filter1_d_2483_57416" x="13" y="208" width="433" height="268" filterUnits="userSpaceOnUse" color-interpolation-filters="sRGB">
<feFlood flood-opacity="0" result="BackgroundImageFix"/>
<feColorMatrix in="SourceAlpha" type="matrix" values="0 0 0 0 0 0 0 0 0 0 0 0 0 0 0 0 0 0 127 0" result="hardAlpha"/>
<feOffset dy="24"/>
<feGaussianBlur stdDeviation="22"/>
<feComposite in2="hardAlpha" operator="out"/>
<feColorMatrix type="matrix" values="0 0 0 0 0 0 0 0 0 0 0 0 0 0 0 0 0 0 0.5 0"/>
<feBlend mode="normal" in2="BackgroundImageFix" result="effect1_dropShadow_2483_57416"/>
<feBlend mode="normal" in="SourceGraphic" in2="effect1_dropShadow_2483_57416" result="shape"/>
</filter>
<linearGradient id="paint0_linear_2483_57416" x1="229.5" y1="248" x2="229.5" y2="368" gradientUnits="userSpaceOnUse">
<stop stop-color="#0D0D11"/>
<stop offset="1" stop-color="#0D0D11" stop-opacity="0.5"/>
</linearGradient>
</defs>
</svg>
