<svg width="433" height="268" viewBox="0 0 433 268" fill="none" xmlns="http://www.w3.org/2000/svg">
<g filter="url(#filter0_d_2654_28129)">
<path d="M54 20.5H379C384.247 20.5 388.5 24.7533 388.5 30V59.5H44.5V30C44.5 24.7533 48.7533 20.5 54 20.5Z" fill="#0C0D0E" stroke="#86888E"/>
<rect x="44.5" y="59.5" width="344" height="35" fill="#1D1F22" stroke="#86888E"/>
<rect x="44.5" y="129.5" width="344" height="35" fill="#1D1F22" stroke="#86888E"/>
<path d="M44.5 164.5H388.5V190C388.5 195.247 384.247 199.5 379 199.5H54C48.7533 199.5 44.5 195.247 44.5 190V164.5Z" fill="#1D1F22" stroke="#86888E"/>
<path d="M44.5 94.5H388.5V129.5H44.5V94.5Z" fill="#1D1F22" stroke="#86888E"/>
<path d="M95.05 45V35.2H96.226L101.448 43.054V35.2H102.624V45H101.448L96.226 37.146V45H95.05ZM106.956 45.168C106.386 45.168 105.91 45.07 105.528 44.874C105.145 44.6687 104.86 44.4027 104.674 44.076C104.487 43.74 104.394 43.376 104.394 42.984C104.394 42.508 104.515 42.1067 104.758 41.78C105.01 41.444 105.36 41.192 105.808 41.024C106.265 40.8467 106.802 40.758 107.418 40.758H109.28C109.28 40.3193 109.21 39.9553 109.07 39.666C108.939 39.3673 108.743 39.1433 108.482 38.994C108.23 38.8447 107.912 38.77 107.53 38.77C107.082 38.77 106.694 38.882 106.368 39.106C106.041 39.33 105.84 39.6613 105.766 40.1H104.562C104.618 39.596 104.786 39.176 105.066 38.84C105.355 38.4947 105.719 38.2333 106.158 38.056C106.596 37.8693 107.054 37.776 107.53 37.776C108.183 37.776 108.724 37.8973 109.154 38.14C109.592 38.3733 109.919 38.7047 110.134 39.134C110.348 39.554 110.456 40.0533 110.456 40.632V45H109.406L109.336 43.754C109.242 43.95 109.121 44.1367 108.972 44.314C108.832 44.482 108.664 44.6313 108.468 44.762C108.272 44.8833 108.048 44.9813 107.796 45.056C107.553 45.1307 107.273 45.168 106.956 45.168ZM107.138 44.174C107.464 44.174 107.758 44.1087 108.02 43.978C108.29 43.838 108.519 43.6513 108.706 43.418C108.892 43.1753 109.032 42.9093 109.126 42.62C109.228 42.3307 109.28 42.0273 109.28 41.71V41.668H107.516C107.058 41.668 106.69 41.724 106.41 41.836C106.13 41.9387 105.929 42.088 105.808 42.284C105.686 42.4707 105.626 42.6853 105.626 42.928C105.626 43.18 105.682 43.3993 105.794 43.586C105.915 43.7727 106.088 43.9173 106.312 44.02C106.545 44.1227 106.82 44.174 107.138 44.174ZM112.275 45V37.944H113.339L113.409 38.952C113.633 38.588 113.932 38.3033 114.305 38.098C114.688 37.8833 115.103 37.776 115.551 37.776C115.915 37.776 116.242 37.8273 116.531 37.93C116.83 38.0233 117.091 38.1727 117.315 38.378C117.539 38.574 117.721 38.826 117.861 39.134C118.104 38.7047 118.435 38.3733 118.855 38.14C119.284 37.8973 119.742 37.776 120.227 37.776C120.768 37.776 121.24 37.888 121.641 38.112C122.052 38.3267 122.364 38.658 122.579 39.106C122.803 39.5447 122.915 40.1047 122.915 40.786V45H121.753V40.912C121.753 40.2027 121.608 39.6707 121.319 39.316C121.03 38.9613 120.624 38.784 120.101 38.784C119.737 38.784 119.41 38.882 119.121 39.078C118.832 39.2647 118.603 39.54 118.435 39.904C118.267 40.268 118.183 40.716 118.183 41.248V45H117.007V40.912C117.007 40.2027 116.862 39.6707 116.573 39.316C116.284 38.9613 115.873 38.784 115.341 38.784C114.986 38.784 114.664 38.882 114.375 39.078C114.095 39.2647 113.871 39.54 113.703 39.904C113.535 40.268 113.451 40.716 113.451 41.248V45H112.275ZM127.838 45.168C127.175 45.168 126.587 45.014 126.074 44.706C125.57 44.398 125.173 43.9687 124.884 43.418C124.594 42.858 124.45 42.2093 124.45 41.472C124.45 40.7253 124.59 40.0767 124.87 39.526C125.159 38.9753 125.56 38.546 126.074 38.238C126.596 37.93 127.194 37.776 127.866 37.776C128.556 37.776 129.14 37.93 129.616 38.238C130.101 38.546 130.47 38.952 130.722 39.456C130.983 39.9507 131.114 40.4967 131.114 41.094C131.114 41.1873 131.114 41.2853 131.114 41.388C131.114 41.4907 131.109 41.6073 131.1 41.738H125.332V40.828H129.966C129.938 40.184 129.723 39.68 129.322 39.316C128.93 38.952 128.435 38.77 127.838 38.77C127.436 38.77 127.063 38.8633 126.718 39.05C126.382 39.2273 126.111 39.4933 125.906 39.848C125.7 40.1933 125.598 40.6273 125.598 41.15V41.542C125.598 42.1207 125.7 42.606 125.906 42.998C126.12 43.39 126.396 43.684 126.732 43.88C127.077 44.076 127.446 44.174 127.838 44.174C128.332 44.174 128.738 44.0667 129.056 43.852C129.382 43.628 129.616 43.3293 129.756 42.956H130.918C130.806 43.376 130.61 43.754 130.33 44.09C130.05 44.426 129.7 44.692 129.28 44.888C128.869 45.0747 128.388 45.168 127.838 45.168Z" fill="#EEEFF1"/>
<path d="M79.1381 45.625H80.7863C82.1784 45.625 82.8745 45.625 83.4556 45.292C84.0366 44.9591 84.4055 44.3488 85.1434 43.1281L85.5689 42.4242C86.1896 41.3973 86.5 40.8839 86.5 40.3125C86.5 39.7411 86.1896 39.2277 85.5689 38.2008L85.1434 37.4969C84.4055 36.2763 84.0366 35.666 83.4556 35.333C82.8745 35 82.1784 35 80.7863 35H79.1381C76.716 35 75.5049 35 74.7525 35.778C74 36.556 74 37.8082 74 40.3125C74 42.8168 74 44.069 74.7525 44.847C75.5049 45.625 76.716 45.625 79.1381 45.625Z" stroke="#86888E" stroke-linecap="round"/>
<path d="M79.7139 41.8008L79.3794 40.9658H77.6899L77.3555 41.8008H76.8647L78.2686 38.3511H78.8154L80.2192 41.8008H79.7139ZM77.8608 40.541H79.2109L78.5347 38.8467L77.8608 40.541ZM82.7217 39.252H83.1514V41.8008H82.7217V41.3418C82.6126 41.5046 82.4718 41.6323 82.2993 41.7251C82.1284 41.8162 81.9388 41.8618 81.7305 41.8618C81.4912 41.8618 81.2739 41.804 81.0786 41.6885C80.8833 41.5713 80.7303 41.411 80.6196 41.2075C80.5106 41.0024 80.4561 40.7754 80.4561 40.5264C80.4561 40.2773 80.5106 40.0511 80.6196 39.8477C80.7303 39.6426 80.8833 39.4823 81.0786 39.3667C81.2739 39.2495 81.4912 39.1909 81.7305 39.1909C81.9388 39.1909 82.1284 39.2373 82.2993 39.3301C82.4718 39.4212 82.6126 39.5482 82.7217 39.7109V39.252ZM81.811 41.4468C82.0715 41.4468 82.2879 41.3589 82.4604 41.1831C82.6346 41.0073 82.7217 40.7884 82.7217 40.5264C82.7217 40.2643 82.6346 40.0454 82.4604 39.8696C82.2879 39.6938 82.0715 39.606 81.811 39.606C81.549 39.606 81.3309 39.6938 81.1567 39.8696C80.9826 40.0454 80.8955 40.2643 80.8955 40.5264C80.8955 40.7884 80.9826 41.0073 81.1567 41.1831C81.3309 41.3589 81.549 41.4468 81.811 41.4468Z" fill="#86888E"/>
<path d="M336.49 46V36.2H339.654C340.42 36.2 341.045 36.3307 341.53 36.592C342.016 36.844 342.375 37.1847 342.608 37.614C342.842 38.0433 342.958 38.5287 342.958 39.07C342.958 39.5927 342.837 40.0733 342.594 40.512C342.361 40.9507 341.997 41.3007 341.502 41.562C341.008 41.8233 340.373 41.954 339.598 41.954H337.666V46H336.49ZM341.67 46L339.514 41.618H340.83L343.056 46H341.67ZM337.666 41.03H339.57C340.317 41.03 340.863 40.848 341.208 40.484C341.563 40.12 341.74 39.6533 341.74 39.084C341.74 38.5053 341.568 38.048 341.222 37.712C340.886 37.3667 340.331 37.194 339.556 37.194H337.666V41.03ZM347.403 46.168C346.74 46.168 346.152 46.014 345.639 45.706C345.135 45.398 344.738 44.9687 344.449 44.418C344.16 43.858 344.015 43.2093 344.015 42.472C344.015 41.7253 344.155 41.0767 344.435 40.526C344.724 39.9753 345.126 39.546 345.639 39.238C346.162 38.93 346.759 38.776 347.431 38.776C348.122 38.776 348.705 38.93 349.181 39.238C349.666 39.546 350.035 39.952 350.287 40.456C350.548 40.9507 350.679 41.4967 350.679 42.094C350.679 42.1873 350.679 42.2853 350.679 42.388C350.679 42.4907 350.674 42.6073 350.665 42.738H344.897V41.828H349.531C349.503 41.184 349.288 40.68 348.887 40.316C348.495 39.952 348 39.77 347.403 39.77C347.002 39.77 346.628 39.8633 346.283 40.05C345.947 40.2273 345.676 40.4933 345.471 40.848C345.266 41.1933 345.163 41.6273 345.163 42.15V42.542C345.163 43.1207 345.266 43.606 345.471 43.998C345.686 44.39 345.961 44.684 346.297 44.88C346.642 45.076 347.011 45.174 347.403 45.174C347.898 45.174 348.304 45.0667 348.621 44.852C348.948 44.628 349.181 44.3293 349.321 43.956H350.483C350.371 44.376 350.175 44.754 349.895 45.09C349.615 45.426 349.265 45.692 348.845 45.888C348.434 46.0747 347.954 46.168 347.403 46.168ZM354.806 46C354.386 46 354.022 45.9347 353.714 45.804C353.406 45.6733 353.168 45.454 353 45.146C352.841 44.8287 352.762 44.404 352.762 43.872V39.938H351.53V38.944H352.762L352.916 37.236H353.938V38.944H355.982V39.938H353.938V43.872C353.938 44.3107 354.026 44.6093 354.204 44.768C354.381 44.9173 354.694 44.992 355.142 44.992H355.898V46H354.806ZM357.516 46V38.944H358.58L358.664 40.288C358.823 39.9707 359.023 39.7 359.266 39.476C359.518 39.252 359.817 39.0793 360.162 38.958C360.517 38.8367 360.918 38.776 361.366 38.776V40.008H360.932C360.633 40.008 360.349 40.05 360.078 40.134C359.807 40.2087 359.565 40.3347 359.35 40.512C359.145 40.6893 358.981 40.932 358.86 41.24C358.748 41.5387 358.692 41.912 358.692 42.36V46H357.516ZM362.81 46V38.944H363.986V46H362.81ZM363.398 37.446C363.164 37.446 362.968 37.3713 362.81 37.222C362.66 37.0633 362.586 36.8673 362.586 36.634C362.586 36.4007 362.66 36.214 362.81 36.074C362.968 35.9247 363.164 35.85 363.398 35.85C363.622 35.85 363.813 35.9247 363.972 36.074C364.13 36.214 364.21 36.4007 364.21 36.634C364.21 36.8673 364.13 37.0633 363.972 37.222C363.813 37.3713 363.622 37.446 363.398 37.446ZM369.155 46.168C368.492 46.168 367.904 46.014 367.391 45.706C366.887 45.398 366.49 44.9687 366.201 44.418C365.912 43.858 365.767 43.2093 365.767 42.472C365.767 41.7253 365.907 41.0767 366.187 40.526C366.476 39.9753 366.878 39.546 367.391 39.238C367.914 38.93 368.511 38.776 369.183 38.776C369.874 38.776 370.457 38.93 370.933 39.238C371.418 39.546 371.787 39.952 372.039 40.456C372.3 40.9507 372.431 41.4967 372.431 42.094C372.431 42.1873 372.431 42.2853 372.431 42.388C372.431 42.4907 372.426 42.6073 372.417 42.738H366.649V41.828H371.283C371.255 41.184 371.04 40.68 370.639 40.316C370.247 39.952 369.752 39.77 369.155 39.77C368.754 39.77 368.38 39.8633 368.035 40.05C367.699 40.2273 367.428 40.4933 367.223 40.848C367.018 41.1933 366.915 41.6273 366.915 42.15V42.542C366.915 43.1207 367.018 43.606 367.223 43.998C367.438 44.39 367.713 44.684 368.049 44.88C368.394 45.076 368.763 45.174 369.155 45.174C369.65 45.174 370.056 45.0667 370.373 44.852C370.7 44.628 370.933 44.3293 371.073 43.956H372.235C372.123 44.376 371.927 44.754 371.647 45.09C371.367 45.426 371.017 45.692 370.597 45.888C370.186 46.0747 369.706 46.168 369.155 46.168ZM376.678 46.168C376.09 46.168 375.577 46.07 375.138 45.874C374.709 45.678 374.363 45.4073 374.102 45.062C373.85 44.7073 373.696 44.292 373.64 43.816H374.844C374.891 44.0587 374.989 44.2827 375.138 44.488C375.287 44.6933 375.488 44.8613 375.74 44.992C376.001 45.1133 376.319 45.174 376.692 45.174C377.019 45.174 377.289 45.1273 377.504 45.034C377.719 44.9313 377.877 44.796 377.98 44.628C378.092 44.46 378.148 44.278 378.148 44.082C378.148 43.7927 378.078 43.5733 377.938 43.424C377.807 43.2747 377.611 43.158 377.35 43.074C377.089 42.9807 376.771 42.9013 376.398 42.836C376.09 42.78 375.787 42.7053 375.488 42.612C375.189 42.5187 374.923 42.3973 374.69 42.248C374.457 42.0893 374.27 41.898 374.13 41.674C373.999 41.45 373.934 41.1747 373.934 40.848C373.934 40.4467 374.037 40.092 374.242 39.784C374.447 39.4667 374.741 39.2193 375.124 39.042C375.516 38.8647 375.969 38.776 376.482 38.776C377.238 38.776 377.849 38.958 378.316 39.322C378.783 39.686 379.058 40.2133 379.142 40.904H377.98C377.933 40.5493 377.779 40.274 377.518 40.078C377.266 39.8727 376.916 39.77 376.468 39.77C376.029 39.77 375.693 39.8587 375.46 40.036C375.236 40.2133 375.124 40.4467 375.124 40.736C375.124 40.9227 375.185 41.0907 375.306 41.24C375.437 41.38 375.623 41.5013 375.866 41.604C376.118 41.7067 376.426 41.7907 376.79 41.856C377.257 41.94 377.681 42.052 378.064 42.192C378.447 42.332 378.755 42.542 378.988 42.822C379.231 43.0927 379.352 43.48 379.352 43.984C379.352 44.4227 379.24 44.8053 379.016 45.132C378.801 45.4587 378.493 45.7153 378.092 45.902C377.691 46.0793 377.219 46.168 376.678 46.168Z" fill="#EEEFF1"/>
<path d="M321.688 45.3484C321.917 45.3484 322.102 45.1629 322.102 44.9342C322.102 44.7054 321.917 44.52 321.688 44.52V45.3484ZM322.517 37.2023V37.6166C322.684 37.6166 322.835 37.5156 322.899 37.3609C322.963 37.2061 322.928 37.0279 322.809 36.9095L322.517 37.2023ZM321.705 35.8049C321.543 35.6432 321.281 35.6432 321.119 35.8049C320.957 35.9667 320.957 36.2289 321.119 36.3907L321.705 35.8049ZM321.688 44.52H321.412V45.3484H321.688V44.52ZM321.412 37.6166H322.517V36.7881H321.412V37.6166ZM322.809 36.9095L321.705 35.8049L321.119 36.3907L322.224 37.4952L322.809 36.9095ZM317.132 41.0683C317.132 43.4321 319.048 45.3484 321.412 45.3484V44.52C319.506 44.52 317.96 42.9746 317.96 41.0683H317.132ZM317.96 41.0683C317.96 39.1619 319.506 37.6166 321.412 37.6166V36.7881C319.048 36.7881 317.132 38.7044 317.132 41.0683H317.96Z" fill="#86888E"/>
<path d="M323.621 44.9351V44.5209C323.454 44.5209 323.303 44.6218 323.239 44.7766C323.174 44.9314 323.21 45.1095 323.328 45.228L323.621 44.9351ZM324.433 46.3325C324.595 46.4943 324.857 46.4943 325.019 46.3325C325.18 46.1708 325.18 45.9086 325.019 45.7468L324.433 46.3325ZM324.45 36.7891C324.221 36.7891 324.035 36.9745 324.035 37.2033C324.035 37.432 324.221 37.6175 324.45 37.6175V36.7891ZM324.726 44.5209H323.621V45.3493H324.726V44.5209ZM323.328 45.228L324.433 46.3325L325.019 45.7468L323.914 44.6422L323.328 45.228ZM324.45 37.6175H324.726V36.7891H324.45V37.6175ZM328.178 41.0692C328.178 42.9755 326.632 44.5209 324.726 44.5209V45.3493C327.09 45.3493 329.006 43.433 329.006 41.0692H328.178ZM329.006 41.0692C329.006 38.7053 327.09 36.7891 324.726 36.7891V37.6175C326.632 37.6175 328.178 39.1629 328.178 41.0692H329.006Z" fill="#86888E"/>
</g>
<rect x="52.5" y="33.5" width="13.1382" height="13.1382" rx="4.5" stroke="#ACADAE"/>
<path d="M209.069 42.1739L211.278 39.9648" stroke="#86888E" stroke-linecap="round" stroke-linejoin="round"/>
<path d="M204.286 44.9348C203.801 44.0952 203.546 43.1428 203.546 42.1733C203.546 41.2039 203.801 40.2515 204.286 39.4119C204.77 38.5723 205.468 37.8751 206.307 37.3903C207.147 36.9056 208.099 36.6504 209.069 36.6504C210.038 36.6504 210.991 36.9056 211.83 37.3903C212.67 37.8751 213.367 38.5723 213.852 39.4119C214.336 40.2515 214.591 41.2039 214.591 42.1733C214.591 43.1428 214.336 44.0952 213.851 44.9348" stroke="#86888E" stroke-linecap="round" stroke-linejoin="round"/>
<path d="M225.612 46.168C224.894 46.168 224.268 46.0373 223.736 45.776C223.204 45.5147 222.794 45.1507 222.504 44.684C222.215 44.2173 222.07 43.676 222.07 43.06H223.302C223.302 43.4427 223.391 43.7973 223.568 44.124C223.746 44.4413 224.002 44.698 224.338 44.894C224.684 45.0807 225.108 45.174 225.612 45.174C226.051 45.174 226.424 45.104 226.732 44.964C227.05 44.8147 227.288 44.614 227.446 44.362C227.614 44.11 227.698 43.8253 227.698 43.508C227.698 43.1253 227.614 42.8173 227.446 42.584C227.288 42.3413 227.068 42.1453 226.788 41.996C226.508 41.8467 226.182 41.716 225.808 41.604C225.444 41.4827 225.062 41.3567 224.66 41.226C223.886 40.9647 223.316 40.638 222.952 40.246C222.588 39.854 222.406 39.3453 222.406 38.72C222.406 38.188 222.528 37.7213 222.77 37.32C223.022 36.9187 223.377 36.606 223.834 36.382C224.301 36.1487 224.852 36.032 225.486 36.032C226.112 36.032 226.653 36.1487 227.11 36.382C227.577 36.6153 227.941 36.9373 228.202 37.348C228.464 37.7493 228.594 38.216 228.594 38.748H227.362C227.362 38.4773 227.292 38.2113 227.152 37.95C227.012 37.6887 226.798 37.474 226.508 37.306C226.228 37.1287 225.874 37.04 225.444 37.04C225.09 37.0307 224.772 37.0913 224.492 37.222C224.222 37.3433 224.007 37.5207 223.848 37.754C223.699 37.9873 223.624 38.272 223.624 38.608C223.624 38.9253 223.69 39.182 223.82 39.378C223.96 39.574 224.156 39.742 224.408 39.882C224.67 40.0127 224.973 40.134 225.318 40.246C225.664 40.358 226.046 40.484 226.466 40.624C226.942 40.7827 227.362 40.9787 227.726 41.212C228.1 41.436 228.389 41.7253 228.594 42.08C228.809 42.4347 228.916 42.8873 228.916 43.438C228.916 43.9047 228.79 44.348 228.538 44.768C228.296 45.1787 227.932 45.5147 227.446 45.776C226.961 46.0373 226.35 46.168 225.612 46.168ZM233.314 46C232.894 46 232.53 45.9347 232.222 45.804C231.914 45.6733 231.676 45.454 231.508 45.146C231.349 44.8287 231.27 44.404 231.27 43.872V39.938H230.038V38.944H231.27L231.424 37.236H232.446V38.944H234.49V39.938H232.446V43.872C232.446 44.3107 232.534 44.6093 232.712 44.768C232.889 44.9173 233.202 44.992 233.65 44.992H234.406V46H233.314ZM238.32 46.168C237.751 46.168 237.275 46.07 236.892 45.874C236.509 45.6687 236.225 45.4027 236.038 45.076C235.851 44.74 235.758 44.376 235.758 43.984C235.758 43.508 235.879 43.1067 236.122 42.78C236.374 42.444 236.724 42.192 237.172 42.024C237.629 41.8467 238.166 41.758 238.782 41.758H240.644C240.644 41.3193 240.574 40.9553 240.434 40.666C240.303 40.3673 240.107 40.1433 239.846 39.994C239.594 39.8447 239.277 39.77 238.894 39.77C238.446 39.77 238.059 39.882 237.732 40.106C237.405 40.33 237.205 40.6613 237.13 41.1H235.926C235.982 40.596 236.15 40.176 236.43 39.84C236.719 39.4947 237.083 39.2333 237.522 39.056C237.961 38.8693 238.418 38.776 238.894 38.776C239.547 38.776 240.089 38.8973 240.518 39.14C240.957 39.3733 241.283 39.7047 241.498 40.134C241.713 40.554 241.82 41.0533 241.82 41.632V46H240.77L240.7 44.754C240.607 44.95 240.485 45.1367 240.336 45.314C240.196 45.482 240.028 45.6313 239.832 45.762C239.636 45.8833 239.412 45.9813 239.16 46.056C238.917 46.1307 238.637 46.168 238.32 46.168ZM238.502 45.174C238.829 45.174 239.123 45.1087 239.384 44.978C239.655 44.838 239.883 44.6513 240.07 44.418C240.257 44.1753 240.397 43.9093 240.49 43.62C240.593 43.3307 240.644 43.0273 240.644 42.71V42.668H238.88C238.423 42.668 238.054 42.724 237.774 42.836C237.494 42.9387 237.293 43.088 237.172 43.284C237.051 43.4707 236.99 43.6853 236.99 43.928C236.99 44.18 237.046 44.3993 237.158 44.586C237.279 44.7727 237.452 44.9173 237.676 45.02C237.909 45.1227 238.185 45.174 238.502 45.174ZM246.22 46C245.8 46 245.436 45.9347 245.128 45.804C244.82 45.6733 244.582 45.454 244.414 45.146C244.255 44.8287 244.176 44.404 244.176 43.872V39.938H242.944V38.944H244.176L244.33 37.236H245.352V38.944H247.396V39.938H245.352V43.872C245.352 44.3107 245.44 44.6093 245.618 44.768C245.795 44.9173 246.108 44.992 246.556 44.992H247.312V46H246.22ZM251.833 46.168C251.17 46.168 250.582 46.014 250.069 45.706C249.565 45.398 249.168 44.9687 248.879 44.418C248.589 43.858 248.445 43.2093 248.445 42.472C248.445 41.7253 248.585 41.0767 248.865 40.526C249.154 39.9753 249.555 39.546 250.069 39.238C250.591 38.93 251.189 38.776 251.861 38.776C252.551 38.776 253.135 38.93 253.611 39.238C254.096 39.546 254.465 39.952 254.717 40.456C254.978 40.9507 255.109 41.4967 255.109 42.094C255.109 42.1873 255.109 42.2853 255.109 42.388C255.109 42.4907 255.104 42.6073 255.095 42.738H249.327V41.828H253.961C253.933 41.184 253.718 40.68 253.317 40.316C252.925 39.952 252.43 39.77 251.833 39.77C251.431 39.77 251.058 39.8633 250.713 40.05C250.377 40.2273 250.106 40.4933 249.901 40.848C249.695 41.1933 249.593 41.6273 249.593 42.15V42.542C249.593 43.1207 249.695 43.606 249.901 43.998C250.115 44.39 250.391 44.684 250.727 44.88C251.072 45.076 251.441 45.174 251.833 45.174C252.327 45.174 252.733 45.0667 253.051 44.852C253.377 44.628 253.611 44.3293 253.751 43.956H254.913C254.801 44.376 254.605 44.754 254.325 45.09C254.045 45.426 253.695 45.692 253.275 45.888C252.864 46.0747 252.383 46.168 251.833 46.168Z" fill="#EEEFF1"/>
<path d="M74.9137 82L72.2257 72.2H73.4857L75.5997 80.6L77.9937 72.2H79.3097L81.6477 80.628L83.7897 72.2H85.0497L82.3057 82H80.9617L78.6237 73.894L76.2297 82H74.9137ZM88.8155 82.168C88.1622 82.168 87.5742 82.0187 87.0515 81.72C86.5289 81.412 86.1182 80.9827 85.8195 80.432C85.5209 79.872 85.3715 79.2233 85.3715 78.486C85.3715 77.73 85.5209 77.0767 85.8195 76.526C86.1275 75.966 86.5429 75.5367 87.0655 75.238C87.5975 74.93 88.1902 74.776 88.8435 74.776C89.5155 74.776 90.1082 74.93 90.6215 75.238C91.1442 75.5367 91.5549 75.966 91.8535 76.526C92.1615 77.0767 92.3155 77.7253 92.3155 78.472C92.3155 79.2187 92.1615 79.872 91.8535 80.432C91.5455 80.9827 91.1302 81.412 90.6075 81.72C90.0849 82.0187 89.4875 82.168 88.8155 82.168ZM88.8295 81.16C89.2309 81.16 89.6042 81.062 89.9495 80.866C90.2949 80.6607 90.5749 80.3573 90.7895 79.956C91.0042 79.5547 91.1115 79.06 91.1115 78.472C91.1115 77.8747 91.0042 77.38 90.7895 76.988C90.5842 76.5867 90.3089 76.288 89.9635 76.092C89.6275 75.8867 89.2542 75.784 88.8435 75.784C88.4515 75.784 88.0782 75.8867 87.7235 76.092C87.3782 76.288 87.0982 76.5867 86.8835 76.988C86.6782 77.38 86.5755 77.8747 86.5755 78.472C86.5755 79.06 86.6782 79.5547 86.8835 79.956C87.0982 80.3573 87.3735 80.6607 87.7095 80.866C88.0549 81.062 88.4282 81.16 88.8295 81.16ZM93.9644 82V74.944H95.0284L95.1124 76.288C95.271 75.9707 95.4717 75.7 95.7144 75.476C95.9664 75.252 96.265 75.0793 96.6104 74.958C96.965 74.8367 97.3664 74.776 97.8144 74.776V76.008H97.3804C97.0817 76.008 96.797 76.05 96.5264 76.134C96.2557 76.2087 96.013 76.3347 95.7984 76.512C95.593 76.6893 95.4297 76.932 95.3084 77.24C95.1964 77.5387 95.1404 77.912 95.1404 78.36V82H93.9644ZM103.486 82L100.126 78.136L103.192 74.944H104.634L101.12 78.556L101.134 77.716L104.984 82H103.486ZM99.146 82V71.92H100.322V82H99.146ZM109.989 82V72.2H111.165V82H109.989ZM115.973 82C115.553 82 115.189 81.9347 114.881 81.804C114.573 81.6733 114.335 81.454 114.167 81.146C114.008 80.8287 113.929 80.404 113.929 79.872V75.938H112.697V74.944H113.929L114.083 73.236H115.105V74.944H117.149V75.938H115.105V79.872C115.105 80.3107 115.193 80.6093 115.371 80.768C115.548 80.9173 115.861 80.992 116.309 80.992H117.065V82H115.973ZM121.586 82.168C120.923 82.168 120.335 82.014 119.822 81.706C119.318 81.398 118.921 80.9687 118.632 80.418C118.342 79.858 118.198 79.2093 118.198 78.472C118.198 77.7253 118.338 77.0767 118.618 76.526C118.907 75.9753 119.308 75.546 119.822 75.238C120.344 74.93 120.942 74.776 121.614 74.776C122.304 74.776 122.888 74.93 123.364 75.238C123.849 75.546 124.218 75.952 124.47 76.456C124.731 76.9507 124.862 77.4967 124.862 78.094C124.862 78.1873 124.862 78.2853 124.862 78.388C124.862 78.4907 124.857 78.6073 124.848 78.738H119.08V77.828H123.714C123.686 77.184 123.471 76.68 123.07 76.316C122.678 75.952 122.183 75.77 121.586 75.77C121.184 75.77 120.811 75.8633 120.466 76.05C120.13 76.2273 119.859 76.4933 119.654 76.848C119.448 77.1933 119.346 77.6273 119.346 78.15V78.542C119.346 79.1207 119.448 79.606 119.654 79.998C119.868 80.39 120.144 80.684 120.48 80.88C120.825 81.076 121.194 81.174 121.586 81.174C122.08 81.174 122.486 81.0667 122.804 80.852C123.13 80.628 123.364 80.3293 123.504 79.956H124.666C124.554 80.376 124.358 80.754 124.078 81.09C123.798 81.426 123.448 81.692 123.028 81.888C122.617 82.0747 122.136 82.168 121.586 82.168ZM126.449 82V74.944H127.513L127.583 75.952C127.807 75.588 128.105 75.3033 128.479 75.098C128.861 74.8833 129.277 74.776 129.725 74.776C130.089 74.776 130.415 74.8273 130.705 74.93C131.003 75.0233 131.265 75.1727 131.489 75.378C131.713 75.574 131.895 75.826 132.035 76.134C132.277 75.7047 132.609 75.3733 133.029 75.14C133.458 74.8973 133.915 74.776 134.401 74.776C134.942 74.776 135.413 74.888 135.815 75.112C136.225 75.3267 136.538 75.658 136.753 76.106C136.977 76.5447 137.089 77.1047 137.089 77.786V82H135.927V77.912C135.927 77.2027 135.782 76.6707 135.493 76.316C135.203 75.9613 134.797 75.784 134.275 75.784C133.911 75.784 133.584 75.882 133.295 76.078C133.005 76.2647 132.777 76.54 132.609 76.904C132.441 77.268 132.357 77.716 132.357 78.248V82H131.181V77.912C131.181 77.2027 131.036 76.6707 130.747 76.316C130.457 75.9613 130.047 75.784 129.515 75.784C129.16 75.784 128.838 75.882 128.549 76.078C128.269 76.2647 128.045 76.54 127.877 76.904C127.709 77.268 127.625 77.716 127.625 78.248V82H126.449ZM143.784 82V73.516L142.104 73.936V73.096L144.176 72.2H144.974V82H143.784Z" fill="#EEEFF1"/>
<path d="M74.9137 117L72.2257 107.2H73.4857L75.5997 115.6L77.9937 107.2H79.3097L81.6477 115.628L83.7897 107.2H85.0497L82.3057 117H80.9617L78.6237 108.894L76.2297 117H74.9137ZM88.8155 117.168C88.1622 117.168 87.5742 117.019 87.0515 116.72C86.5289 116.412 86.1182 115.983 85.8195 115.432C85.5209 114.872 85.3715 114.223 85.3715 113.486C85.3715 112.73 85.5209 112.077 85.8195 111.526C86.1275 110.966 86.5429 110.537 87.0655 110.238C87.5975 109.93 88.1902 109.776 88.8435 109.776C89.5155 109.776 90.1082 109.93 90.6215 110.238C91.1442 110.537 91.5549 110.966 91.8535 111.526C92.1615 112.077 92.3155 112.725 92.3155 113.472C92.3155 114.219 92.1615 114.872 91.8535 115.432C91.5455 115.983 91.1302 116.412 90.6075 116.72C90.0849 117.019 89.4875 117.168 88.8155 117.168ZM88.8295 116.16C89.2309 116.16 89.6042 116.062 89.9495 115.866C90.2949 115.661 90.5749 115.357 90.7895 114.956C91.0042 114.555 91.1115 114.06 91.1115 113.472C91.1115 112.875 91.0042 112.38 90.7895 111.988C90.5842 111.587 90.3089 111.288 89.9635 111.092C89.6275 110.887 89.2542 110.784 88.8435 110.784C88.4515 110.784 88.0782 110.887 87.7235 111.092C87.3782 111.288 87.0982 111.587 86.8835 111.988C86.6782 112.38 86.5755 112.875 86.5755 113.472C86.5755 114.06 86.6782 114.555 86.8835 114.956C87.0982 115.357 87.3735 115.661 87.7095 115.866C88.0549 116.062 88.4282 116.16 88.8295 116.16ZM93.9644 117V109.944H95.0284L95.1124 111.288C95.271 110.971 95.4717 110.7 95.7144 110.476C95.9664 110.252 96.265 110.079 96.6104 109.958C96.965 109.837 97.3664 109.776 97.8144 109.776V111.008H97.3804C97.0817 111.008 96.797 111.05 96.5264 111.134C96.2557 111.209 96.013 111.335 95.7984 111.512C95.593 111.689 95.4297 111.932 95.3084 112.24C95.1964 112.539 95.1404 112.912 95.1404 113.36V117H93.9644ZM103.486 117L100.126 113.136L103.192 109.944H104.634L101.12 113.556L101.134 112.716L104.984 117H103.486ZM99.146 117V106.92H100.322V117H99.146ZM109.989 117V107.2H111.165V117H109.989ZM115.973 117C115.553 117 115.189 116.935 114.881 116.804C114.573 116.673 114.335 116.454 114.167 116.146C114.008 115.829 113.929 115.404 113.929 114.872V110.938H112.697V109.944H113.929L114.083 108.236H115.105V109.944H117.149V110.938H115.105V114.872C115.105 115.311 115.193 115.609 115.371 115.768C115.548 115.917 115.861 115.992 116.309 115.992H117.065V117H115.973ZM121.586 117.168C120.923 117.168 120.335 117.014 119.822 116.706C119.318 116.398 118.921 115.969 118.632 115.418C118.342 114.858 118.198 114.209 118.198 113.472C118.198 112.725 118.338 112.077 118.618 111.526C118.907 110.975 119.308 110.546 119.822 110.238C120.344 109.93 120.942 109.776 121.614 109.776C122.304 109.776 122.888 109.93 123.364 110.238C123.849 110.546 124.218 110.952 124.47 111.456C124.731 111.951 124.862 112.497 124.862 113.094C124.862 113.187 124.862 113.285 124.862 113.388C124.862 113.491 124.857 113.607 124.848 113.738H119.08V112.828H123.714C123.686 112.184 123.471 111.68 123.07 111.316C122.678 110.952 122.183 110.77 121.586 110.77C121.184 110.77 120.811 110.863 120.466 111.05C120.13 111.227 119.859 111.493 119.654 111.848C119.448 112.193 119.346 112.627 119.346 113.15V113.542C119.346 114.121 119.448 114.606 119.654 114.998C119.868 115.39 120.144 115.684 120.48 115.88C120.825 116.076 121.194 116.174 121.586 116.174C122.08 116.174 122.486 116.067 122.804 115.852C123.13 115.628 123.364 115.329 123.504 114.956H124.666C124.554 115.376 124.358 115.754 124.078 116.09C123.798 116.426 123.448 116.692 123.028 116.888C122.617 117.075 122.136 117.168 121.586 117.168ZM126.449 117V109.944H127.513L127.583 110.952C127.807 110.588 128.105 110.303 128.479 110.098C128.861 109.883 129.277 109.776 129.725 109.776C130.089 109.776 130.415 109.827 130.705 109.93C131.003 110.023 131.265 110.173 131.489 110.378C131.713 110.574 131.895 110.826 132.035 111.134C132.277 110.705 132.609 110.373 133.029 110.14C133.458 109.897 133.915 109.776 134.401 109.776C134.942 109.776 135.413 109.888 135.815 110.112C136.225 110.327 136.538 110.658 136.753 111.106C136.977 111.545 137.089 112.105 137.089 112.786V117H135.927V112.912C135.927 112.203 135.782 111.671 135.493 111.316C135.203 110.961 134.797 110.784 134.275 110.784C133.911 110.784 133.584 110.882 133.295 111.078C133.005 111.265 132.777 111.54 132.609 111.904C132.441 112.268 132.357 112.716 132.357 113.248V117H131.181V112.912C131.181 112.203 131.036 111.671 130.747 111.316C130.457 110.961 130.047 110.784 129.515 110.784C129.16 110.784 128.838 110.882 128.549 111.078C128.269 111.265 128.045 111.54 127.877 111.904C127.709 112.268 127.625 112.716 127.625 113.248V117H126.449ZM142.552 117V116.174C143.215 115.651 143.845 115.124 144.442 114.592C145.049 114.06 145.586 113.533 146.052 113.01C146.519 112.478 146.883 111.96 147.144 111.456C147.415 110.952 147.55 110.467 147.55 110C147.55 109.655 147.49 109.337 147.368 109.048C147.247 108.749 147.051 108.507 146.78 108.32C146.519 108.133 146.164 108.04 145.716 108.04C145.278 108.04 144.914 108.138 144.624 108.334C144.335 108.521 144.116 108.773 143.966 109.09C143.826 109.398 143.756 109.739 143.756 110.112H142.622C142.632 109.468 142.767 108.917 143.028 108.46C143.299 107.993 143.668 107.639 144.134 107.396C144.601 107.153 145.133 107.032 145.73 107.032C146.318 107.032 146.836 107.144 147.284 107.368C147.732 107.583 148.082 107.905 148.334 108.334C148.596 108.763 148.726 109.305 148.726 109.958C148.726 110.415 148.628 110.873 148.432 111.33C148.246 111.787 147.994 112.235 147.676 112.674C147.359 113.103 147.004 113.519 146.612 113.92C146.23 114.321 145.833 114.699 145.422 115.054C145.021 115.409 144.643 115.731 144.288 116.02H149.062V117H142.552Z" fill="#EEEFF1"/>
<path d="M74.9137 152L72.2257 142.2H73.4857L75.5997 150.6L77.9937 142.2H79.3097L81.6477 150.628L83.7897 142.2H85.0497L82.3057 152H80.9617L78.6237 143.894L76.2297 152H74.9137ZM88.8155 152.168C88.1622 152.168 87.5742 152.019 87.0515 151.72C86.5289 151.412 86.1182 150.983 85.8195 150.432C85.5209 149.872 85.3715 149.223 85.3715 148.486C85.3715 147.73 85.5209 147.077 85.8195 146.526C86.1275 145.966 86.5429 145.537 87.0655 145.238C87.5975 144.93 88.1902 144.776 88.8435 144.776C89.5155 144.776 90.1082 144.93 90.6215 145.238C91.1442 145.537 91.5549 145.966 91.8535 146.526C92.1615 147.077 92.3155 147.725 92.3155 148.472C92.3155 149.219 92.1615 149.872 91.8535 150.432C91.5455 150.983 91.1302 151.412 90.6075 151.72C90.0849 152.019 89.4875 152.168 88.8155 152.168ZM88.8295 151.16C89.2309 151.16 89.6042 151.062 89.9495 150.866C90.2949 150.661 90.5749 150.357 90.7895 149.956C91.0042 149.555 91.1115 149.06 91.1115 148.472C91.1115 147.875 91.0042 147.38 90.7895 146.988C90.5842 146.587 90.3089 146.288 89.9635 146.092C89.6275 145.887 89.2542 145.784 88.8435 145.784C88.4515 145.784 88.0782 145.887 87.7235 146.092C87.3782 146.288 87.0982 146.587 86.8835 146.988C86.6782 147.38 86.5755 147.875 86.5755 148.472C86.5755 149.06 86.6782 149.555 86.8835 149.956C87.0982 150.357 87.3735 150.661 87.7095 150.866C88.0549 151.062 88.4282 151.16 88.8295 151.16ZM93.9644 152V144.944H95.0284L95.1124 146.288C95.271 145.971 95.4717 145.7 95.7144 145.476C95.9664 145.252 96.265 145.079 96.6104 144.958C96.965 144.837 97.3664 144.776 97.8144 144.776V146.008H97.3804C97.0817 146.008 96.797 146.05 96.5264 146.134C96.2557 146.209 96.013 146.335 95.7984 146.512C95.593 146.689 95.4297 146.932 95.3084 147.24C95.1964 147.539 95.1404 147.912 95.1404 148.36V152H93.9644ZM103.486 152L100.126 148.136L103.192 144.944H104.634L101.12 148.556L101.134 147.716L104.984 152H103.486ZM99.146 152V141.92H100.322V152H99.146ZM109.989 152V142.2H111.165V152H109.989ZM115.973 152C115.553 152 115.189 151.935 114.881 151.804C114.573 151.673 114.335 151.454 114.167 151.146C114.008 150.829 113.929 150.404 113.929 149.872V145.938H112.697V144.944H113.929L114.083 143.236H115.105V144.944H117.149V145.938H115.105V149.872C115.105 150.311 115.193 150.609 115.371 150.768C115.548 150.917 115.861 150.992 116.309 150.992H117.065V152H115.973ZM121.586 152.168C120.923 152.168 120.335 152.014 119.822 151.706C119.318 151.398 118.921 150.969 118.632 150.418C118.342 149.858 118.198 149.209 118.198 148.472C118.198 147.725 118.338 147.077 118.618 146.526C118.907 145.975 119.308 145.546 119.822 145.238C120.344 144.93 120.942 144.776 121.614 144.776C122.304 144.776 122.888 144.93 123.364 145.238C123.849 145.546 124.218 145.952 124.47 146.456C124.731 146.951 124.862 147.497 124.862 148.094C124.862 148.187 124.862 148.285 124.862 148.388C124.862 148.491 124.857 148.607 124.848 148.738H119.08V147.828H123.714C123.686 147.184 123.471 146.68 123.07 146.316C122.678 145.952 122.183 145.77 121.586 145.77C121.184 145.77 120.811 145.863 120.466 146.05C120.13 146.227 119.859 146.493 119.654 146.848C119.448 147.193 119.346 147.627 119.346 148.15V148.542C119.346 149.121 119.448 149.606 119.654 149.998C119.868 150.39 120.144 150.684 120.48 150.88C120.825 151.076 121.194 151.174 121.586 151.174C122.08 151.174 122.486 151.067 122.804 150.852C123.13 150.628 123.364 150.329 123.504 149.956H124.666C124.554 150.376 124.358 150.754 124.078 151.09C123.798 151.426 123.448 151.692 123.028 151.888C122.617 152.075 122.136 152.168 121.586 152.168ZM126.449 152V144.944H127.513L127.583 145.952C127.807 145.588 128.105 145.303 128.479 145.098C128.861 144.883 129.277 144.776 129.725 144.776C130.089 144.776 130.415 144.827 130.705 144.93C131.003 145.023 131.265 145.173 131.489 145.378C131.713 145.574 131.895 145.826 132.035 146.134C132.277 145.705 132.609 145.373 133.029 145.14C133.458 144.897 133.915 144.776 134.401 144.776C134.942 144.776 135.413 144.888 135.815 145.112C136.225 145.327 136.538 145.658 136.753 146.106C136.977 146.545 137.089 147.105 137.089 147.786V152H135.927V147.912C135.927 147.203 135.782 146.671 135.493 146.316C135.203 145.961 134.797 145.784 134.275 145.784C133.911 145.784 133.584 145.882 133.295 146.078C133.005 146.265 132.777 146.54 132.609 146.904C132.441 147.268 132.357 147.716 132.357 148.248V152H131.181V147.912C131.181 147.203 131.036 146.671 130.747 146.316C130.457 145.961 130.047 145.784 129.515 145.784C129.16 145.784 128.838 145.882 128.549 146.078C128.269 146.265 128.045 146.54 127.877 146.904C127.709 147.268 127.625 147.716 127.625 148.248V152H126.449ZM145.758 152.168C145.133 152.168 144.564 152.056 144.05 151.832C143.546 151.599 143.145 151.253 142.846 150.796C142.548 150.339 142.389 149.769 142.37 149.088H143.56C143.57 149.461 143.658 149.807 143.826 150.124C144.004 150.432 144.256 150.679 144.582 150.866C144.909 151.053 145.301 151.146 145.758 151.146C146.216 151.146 146.598 151.057 146.906 150.88C147.214 150.703 147.448 150.469 147.606 150.18C147.765 149.881 147.844 149.55 147.844 149.186C147.844 148.729 147.732 148.36 147.508 148.08C147.294 147.791 147 147.581 146.626 147.45C146.262 147.31 145.861 147.24 145.422 147.24H144.694V146.246H145.422C146.066 146.246 146.57 146.097 146.934 145.798C147.298 145.499 147.48 145.089 147.48 144.566C147.48 144.137 147.336 143.777 147.046 143.488C146.766 143.199 146.337 143.054 145.758 143.054C145.208 143.054 144.769 143.213 144.442 143.53C144.116 143.847 143.929 144.253 143.882 144.748H142.692C142.72 144.216 142.865 143.745 143.126 143.334C143.388 142.923 143.742 142.606 144.19 142.382C144.638 142.149 145.166 142.032 145.772 142.032C146.407 142.032 146.939 142.144 147.368 142.368C147.798 142.592 148.12 142.891 148.334 143.264C148.558 143.637 148.67 144.048 148.67 144.496C148.67 144.832 148.61 145.149 148.488 145.448C148.367 145.737 148.185 145.994 147.942 146.218C147.7 146.442 147.392 146.601 147.018 146.694C147.401 146.769 147.742 146.913 148.04 147.128C148.348 147.343 148.591 147.623 148.768 147.968C148.946 148.313 149.034 148.719 149.034 149.186C149.034 149.718 148.908 150.213 148.656 150.67C148.414 151.118 148.05 151.482 147.564 151.762C147.079 152.033 146.477 152.168 145.758 152.168Z" fill="#EEEFF1"/>
<path d="M74.9137 187L72.2257 177.2H73.4857L75.5997 185.6L77.9937 177.2H79.3097L81.6477 185.628L83.7897 177.2H85.0497L82.3057 187H80.9617L78.6237 178.894L76.2297 187H74.9137ZM88.8155 187.168C88.1622 187.168 87.5742 187.019 87.0515 186.72C86.5289 186.412 86.1182 185.983 85.8195 185.432C85.5209 184.872 85.3715 184.223 85.3715 183.486C85.3715 182.73 85.5209 182.077 85.8195 181.526C86.1275 180.966 86.5429 180.537 87.0655 180.238C87.5975 179.93 88.1902 179.776 88.8435 179.776C89.5155 179.776 90.1082 179.93 90.6215 180.238C91.1442 180.537 91.5549 180.966 91.8535 181.526C92.1615 182.077 92.3155 182.725 92.3155 183.472C92.3155 184.219 92.1615 184.872 91.8535 185.432C91.5455 185.983 91.1302 186.412 90.6075 186.72C90.0849 187.019 89.4875 187.168 88.8155 187.168ZM88.8295 186.16C89.2309 186.16 89.6042 186.062 89.9495 185.866C90.2949 185.661 90.5749 185.357 90.7895 184.956C91.0042 184.555 91.1115 184.06 91.1115 183.472C91.1115 182.875 91.0042 182.38 90.7895 181.988C90.5842 181.587 90.3089 181.288 89.9635 181.092C89.6275 180.887 89.2542 180.784 88.8435 180.784C88.4515 180.784 88.0782 180.887 87.7235 181.092C87.3782 181.288 87.0982 181.587 86.8835 181.988C86.6782 182.38 86.5755 182.875 86.5755 183.472C86.5755 184.06 86.6782 184.555 86.8835 184.956C87.0982 185.357 87.3735 185.661 87.7095 185.866C88.0549 186.062 88.4282 186.16 88.8295 186.16ZM93.9644 187V179.944H95.0284L95.1124 181.288C95.271 180.971 95.4717 180.7 95.7144 180.476C95.9664 180.252 96.265 180.079 96.6104 179.958C96.965 179.837 97.3664 179.776 97.8144 179.776V181.008H97.3804C97.0817 181.008 96.797 181.05 96.5264 181.134C96.2557 181.209 96.013 181.335 95.7984 181.512C95.593 181.689 95.4297 181.932 95.3084 182.24C95.1964 182.539 95.1404 182.912 95.1404 183.36V187H93.9644ZM103.486 187L100.126 183.136L103.192 179.944H104.634L101.12 183.556L101.134 182.716L104.984 187H103.486ZM99.146 187V176.92H100.322V187H99.146ZM109.989 187V177.2H111.165V187H109.989ZM115.973 187C115.553 187 115.189 186.935 114.881 186.804C114.573 186.673 114.335 186.454 114.167 186.146C114.008 185.829 113.929 185.404 113.929 184.872V180.938H112.697V179.944H113.929L114.083 178.236H115.105V179.944H117.149V180.938H115.105V184.872C115.105 185.311 115.193 185.609 115.371 185.768C115.548 185.917 115.861 185.992 116.309 185.992H117.065V187H115.973ZM121.586 187.168C120.923 187.168 120.335 187.014 119.822 186.706C119.318 186.398 118.921 185.969 118.632 185.418C118.342 184.858 118.198 184.209 118.198 183.472C118.198 182.725 118.338 182.077 118.618 181.526C118.907 180.975 119.308 180.546 119.822 180.238C120.344 179.93 120.942 179.776 121.614 179.776C122.304 179.776 122.888 179.93 123.364 180.238C123.849 180.546 124.218 180.952 124.47 181.456C124.731 181.951 124.862 182.497 124.862 183.094C124.862 183.187 124.862 183.285 124.862 183.388C124.862 183.491 124.857 183.607 124.848 183.738H119.08V182.828H123.714C123.686 182.184 123.471 181.68 123.07 181.316C122.678 180.952 122.183 180.77 121.586 180.77C121.184 180.77 120.811 180.863 120.466 181.05C120.13 181.227 119.859 181.493 119.654 181.848C119.448 182.193 119.346 182.627 119.346 183.15V183.542C119.346 184.121 119.448 184.606 119.654 184.998C119.868 185.39 120.144 185.684 120.48 185.88C120.825 186.076 121.194 186.174 121.586 186.174C122.08 186.174 122.486 186.067 122.804 185.852C123.13 185.628 123.364 185.329 123.504 184.956H124.666C124.554 185.376 124.358 185.754 124.078 186.09C123.798 186.426 123.448 186.692 123.028 186.888C122.617 187.075 122.136 187.168 121.586 187.168ZM126.449 187V179.944H127.513L127.583 180.952C127.807 180.588 128.105 180.303 128.479 180.098C128.861 179.883 129.277 179.776 129.725 179.776C130.089 179.776 130.415 179.827 130.705 179.93C131.003 180.023 131.265 180.173 131.489 180.378C131.713 180.574 131.895 180.826 132.035 181.134C132.277 180.705 132.609 180.373 133.029 180.14C133.458 179.897 133.915 179.776 134.401 179.776C134.942 179.776 135.413 179.888 135.815 180.112C136.225 180.327 136.538 180.658 136.753 181.106C136.977 181.545 137.089 182.105 137.089 182.786V187H135.927V182.912C135.927 182.203 135.782 181.671 135.493 181.316C135.203 180.961 134.797 180.784 134.275 180.784C133.911 180.784 133.584 180.882 133.295 181.078C133.005 181.265 132.777 181.54 132.609 181.904C132.441 182.268 132.357 182.716 132.357 183.248V187H131.181V182.912C131.181 182.203 131.036 181.671 130.747 181.316C130.457 180.961 130.047 180.784 129.515 180.784C129.16 180.784 128.838 180.882 128.549 181.078C128.269 181.265 128.045 181.54 127.877 181.904C127.709 182.268 127.625 182.716 127.625 183.248V187H126.449ZM147.144 187V184.9H142.174V183.99L146.934 177.2H148.306V183.864H149.762V184.9H148.306V187H147.144ZM143.476 183.864H147.2V178.502L143.476 183.864Z" fill="#EEEFF1"/>
<path d="M347.802 81.168C346.943 81.168 346.201 80.958 345.576 80.538C344.96 80.1087 344.489 79.516 344.162 78.76C343.835 77.9947 343.672 77.108 343.672 76.1C343.672 75.092 343.835 74.21 344.162 73.454C344.489 72.6887 344.96 72.096 345.576 71.676C346.201 71.2467 346.943 71.032 347.802 71.032C348.661 71.032 349.393 71.2467 350 71.676C350.616 72.096 351.087 72.6887 351.414 73.454C351.741 74.21 351.904 75.092 351.904 76.1C351.904 77.108 351.741 77.9947 351.414 78.76C351.087 79.516 350.616 80.1087 350 80.538C349.393 80.958 348.661 81.168 347.802 81.168ZM347.788 80.132C348.348 80.132 348.847 79.9733 349.286 79.656C349.725 79.3293 350.07 78.8673 350.322 78.27C350.574 77.6633 350.7 76.94 350.7 76.1C350.7 75.26 350.574 74.5413 350.322 73.944C350.07 73.3373 349.725 72.8753 349.286 72.558C348.847 72.2407 348.348 72.082 347.788 72.082C347.228 72.082 346.724 72.2407 346.276 72.558C345.837 72.8753 345.492 73.3373 345.24 73.944C344.997 74.5413 344.876 75.26 344.876 76.1C344.876 76.94 344.997 77.6633 345.24 78.27C345.492 78.8673 345.837 79.3293 346.276 79.656C346.724 79.9733 347.228 80.132 347.788 80.132Z" fill="#EEEFF1"/>
<path d="M348.128 117V108.516L346.448 108.936V108.096L348.52 107.2H349.318V117H348.128Z" fill="#EEEFF1"/>
<path d="M348.128 152V143.516L346.448 143.936V143.096L348.52 142.2H349.318V152H348.128Z" fill="#EEEFF1"/>
<path d="M348.102 187.168C347.477 187.168 346.907 187.056 346.394 186.832C345.89 186.599 345.489 186.253 345.19 185.796C344.891 185.339 344.733 184.769 344.714 184.088H345.904C345.913 184.461 346.002 184.807 346.17 185.124C346.347 185.432 346.599 185.679 346.926 185.866C347.253 186.053 347.645 186.146 348.102 186.146C348.559 186.146 348.942 186.057 349.25 185.88C349.558 185.703 349.791 185.469 349.95 185.18C350.109 184.881 350.188 184.55 350.188 184.186C350.188 183.729 350.076 183.36 349.852 183.08C349.637 182.791 349.343 182.581 348.97 182.45C348.606 182.31 348.205 182.24 347.766 182.24H347.038V181.246H347.766C348.41 181.246 348.914 181.097 349.278 180.798C349.642 180.499 349.824 180.089 349.824 179.566C349.824 179.137 349.679 178.777 349.39 178.488C349.11 178.199 348.681 178.054 348.102 178.054C347.551 178.054 347.113 178.213 346.786 178.53C346.459 178.847 346.273 179.253 346.226 179.748H345.036C345.064 179.216 345.209 178.745 345.47 178.334C345.731 177.923 346.086 177.606 346.534 177.382C346.982 177.149 347.509 177.032 348.116 177.032C348.751 177.032 349.283 177.144 349.712 177.368C350.141 177.592 350.463 177.891 350.678 178.264C350.902 178.637 351.014 179.048 351.014 179.496C351.014 179.832 350.953 180.149 350.832 180.448C350.711 180.737 350.529 180.994 350.286 181.218C350.043 181.442 349.735 181.601 349.362 181.694C349.745 181.769 350.085 181.913 350.384 182.128C350.692 182.343 350.935 182.623 351.112 182.968C351.289 183.313 351.378 183.719 351.378 184.186C351.378 184.718 351.252 185.213 351 185.67C350.757 186.118 350.393 186.482 349.908 186.762C349.423 187.033 348.821 187.168 348.102 187.168Z" fill="#EEEFF1"/>
<rect x="52.5" y="70.7988" width="12.0428" height="13.1382" rx="4.5" stroke="#ACADAE"/>
<rect x="52.5" y="105.799" width="12.0428" height="13.1382" rx="4.5" stroke="#ACADAE"/>
<rect x="52.5" y="140.799" width="12.0428" height="13.1382" rx="4.5" stroke="#ACADAE"/>
<rect x="52.5" y="175.799" width="12.0428" height="13.1382" rx="4.5" stroke="#ACADAE"/>
<rect x="185.5" y="68.5" width="87" height="16.6728" rx="8.3364" fill="#304E32"/>
<rect x="185.5" y="68.5" width="87" height="16.6728" rx="8.3364" stroke="#88AE8A"/>
<path d="M199.81 74.1996C199.75 73.6958 199.508 73.3047 199.084 73.0263C198.66 72.7479 198.139 72.6087 197.523 72.6087C197.072 72.6087 196.678 72.6816 196.34 72.8274C196.005 72.9732 195.743 73.1738 195.554 73.429C195.369 73.6842 195.276 73.9742 195.276 74.299C195.276 74.5708 195.34 74.8045 195.47 75C195.602 75.1922 195.771 75.353 195.977 75.4822C196.182 75.6082 196.398 75.7126 196.623 75.7955C196.849 75.875 197.056 75.9396 197.245 75.9893L198.279 76.2678C198.544 76.3374 198.839 76.4335 199.164 76.5561C199.492 76.6787 199.805 76.8461 200.103 77.0582C200.405 77.267 200.653 77.5355 200.849 77.8636C201.045 78.1918 201.142 78.5945 201.142 79.0717C201.142 79.6219 200.998 80.1191 200.71 80.5632C200.425 81.0073 200.007 81.3603 199.457 81.6222C198.91 81.884 198.246 82.0149 197.463 82.0149C196.734 82.0149 196.103 81.8973 195.569 81.6619C195.039 81.4266 194.621 81.0985 194.316 80.6776C194.015 80.2566 193.844 79.7678 193.804 79.2109H195.077C195.11 79.5954 195.239 79.9136 195.465 80.1655C195.693 80.4141 195.982 80.5997 196.33 80.7223C196.681 80.8416 197.059 80.9013 197.463 80.9013C197.934 80.9013 198.357 80.825 198.731 80.6726C199.106 80.5168 199.402 80.3014 199.621 80.0263C199.84 79.7479 199.949 79.4231 199.949 79.0518C199.949 78.7138 199.855 78.4387 199.666 78.2266C199.477 78.0144 199.228 77.8421 198.92 77.7095C198.612 77.5769 198.279 77.4609 197.921 77.3615L196.668 77.0036C195.872 76.7749 195.243 76.4484 194.779 76.0241C194.315 75.5999 194.083 75.0447 194.083 74.3587C194.083 73.7886 194.237 73.2914 194.545 72.8672C194.857 72.4396 195.274 72.1082 195.798 71.8729C196.325 71.6342 196.913 71.5149 197.563 71.5149C198.219 71.5149 198.802 71.6326 199.313 71.8679C199.823 72.0999 200.228 72.4181 200.526 72.8224C200.827 73.2268 200.987 73.6858 201.003 74.1996H199.81ZM207.823 78.7138V74.1996H208.996V81.8359H207.823V80.5433H207.743C207.564 80.9311 207.286 81.2609 206.908 81.5327C206.53 81.8011 206.053 81.9354 205.476 81.9354C204.999 81.9354 204.575 81.831 204.204 81.6222C203.832 81.41 203.541 81.0919 203.329 80.6676C203.116 80.2401 203.01 79.7015 203.01 79.0518V74.1996H204.184V78.9723C204.184 79.5291 204.339 79.9732 204.651 80.3047C204.966 80.6361 205.367 80.8018 205.854 80.8018C206.146 80.8018 206.442 80.7273 206.744 80.5781C207.049 80.429 207.304 80.2003 207.51 79.892C207.718 79.5838 207.823 79.1911 207.823 78.7138ZM214.247 81.995C213.532 81.995 212.915 81.826 212.398 81.4879C211.881 81.1499 211.483 80.6842 211.205 80.0909C210.926 79.4976 210.787 78.8198 210.787 78.0575C210.787 77.282 210.93 76.5975 211.215 76.0043C211.503 75.4077 211.904 74.942 212.418 74.6072C212.935 74.2692 213.538 74.1001 214.228 74.1001C214.764 74.1001 215.248 74.1996 215.679 74.3984C216.11 74.5973 216.463 74.8757 216.738 75.2337C217.013 75.5916 217.184 76.0092 217.25 76.4865H216.077C215.987 76.1385 215.789 75.8303 215.48 75.5618C215.175 75.29 214.764 75.1541 214.247 75.1541C213.79 75.1541 213.389 75.2734 213.044 75.5121C212.703 75.7474 212.436 76.0805 212.244 76.5114C212.055 76.9389 211.96 77.4411 211.96 78.0178C211.96 78.6077 212.053 79.1214 212.239 79.5589C212.428 79.9964 212.693 80.3362 213.034 80.5781C213.379 80.8201 213.783 80.9411 214.247 80.9411C214.552 80.9411 214.829 80.888 215.078 80.782C215.326 80.6759 215.537 80.5234 215.709 80.3246C215.881 80.1257 216.004 79.8871 216.077 79.6087H217.25C217.184 80.0594 217.02 80.4654 216.758 80.8267C216.5 81.1847 216.157 81.4697 215.729 81.6818C215.305 81.8906 214.811 81.995 214.247 81.995ZM222.068 81.995C221.352 81.995 220.735 81.826 220.218 81.4879C219.701 81.1499 219.304 80.6842 219.025 80.0909C218.747 79.4976 218.608 78.8198 218.608 78.0575C218.608 77.282 218.75 76.5975 219.035 76.0043C219.323 75.4077 219.724 74.942 220.238 74.6072C220.755 74.2692 221.358 74.1001 222.048 74.1001C222.585 74.1001 223.069 74.1996 223.5 74.3984C223.93 74.5973 224.283 74.8757 224.559 75.2337C224.834 75.5916 225.004 76.0092 225.071 76.4865H223.897C223.808 76.1385 223.609 75.8303 223.301 75.5618C222.996 75.29 222.585 75.1541 222.068 75.1541C221.61 75.1541 221.209 75.2734 220.865 75.5121C220.523 75.7474 220.256 76.0805 220.064 76.5114C219.875 76.9389 219.781 77.4411 219.781 78.0178C219.781 78.6077 219.874 79.1214 220.059 79.5589C220.248 79.9964 220.513 80.3362 220.855 80.5781C221.199 80.8201 221.604 80.9411 222.068 80.9411C222.373 80.9411 222.649 80.888 222.898 80.782C223.147 80.6759 223.357 80.5234 223.529 80.3246C223.702 80.1257 223.824 79.8871 223.897 79.6087H225.071C225.004 80.0594 224.84 80.4654 224.578 80.8267C224.32 81.1847 223.977 81.4697 223.549 81.6818C223.125 81.8906 222.631 81.995 222.068 81.995ZM229.987 81.995C229.252 81.995 228.617 81.8326 228.083 81.5078C227.553 81.1797 227.144 80.7223 226.855 80.1357C226.57 79.5457 226.428 78.8596 226.428 78.0774C226.428 77.2952 226.57 76.6058 226.855 76.0092C227.144 75.4093 227.545 74.942 228.059 74.6072C228.576 74.2692 229.179 74.1001 229.868 74.1001C230.266 74.1001 230.659 74.1664 231.046 74.299C231.434 74.4316 231.787 74.647 232.105 74.9453C232.424 75.2403 232.677 75.6314 232.866 76.1186C233.055 76.6058 233.149 77.2057 233.149 77.9183V78.4155H227.263V77.4013H231.956C231.956 76.9704 231.87 76.5859 231.698 76.2479C231.529 75.9098 231.287 75.643 230.972 75.4474C230.66 75.2519 230.292 75.1541 229.868 75.1541C229.401 75.1541 228.996 75.2701 228.655 75.5021C228.317 75.7308 228.057 76.0291 227.875 76.397C227.692 76.7649 227.601 77.1593 227.601 77.5803V78.2564C227.601 78.8331 227.701 79.322 227.899 79.723C228.102 80.1207 228.382 80.424 228.74 80.6328C229.098 80.8383 229.514 80.9411 229.987 80.9411C230.296 80.9411 230.574 80.898 230.823 80.8118C231.075 80.7223 231.292 80.5897 231.474 80.4141C231.656 80.2351 231.797 80.013 231.897 79.7479L233.03 80.0661C232.911 80.4505 232.71 80.7886 232.429 81.0803C232.147 81.3686 231.799 81.594 231.384 81.7564C230.97 81.9155 230.505 81.995 229.987 81.995ZM240.343 75.9098L239.289 76.2081C239.223 76.0324 239.125 75.8617 238.996 75.696C238.87 75.527 238.698 75.3878 238.479 75.2784C238.26 75.169 237.98 75.1143 237.639 75.1143C237.171 75.1143 236.782 75.2221 236.47 75.4375C236.162 75.6496 236.008 75.9197 236.008 76.2479C236.008 76.5395 236.114 76.7699 236.326 76.9389C236.538 77.108 236.87 77.2488 237.321 77.3615L238.454 77.6399C239.137 77.8056 239.646 78.0592 239.98 78.4006C240.315 78.7386 240.483 79.1745 240.483 79.7081C240.483 80.1456 240.357 80.5367 240.105 80.8814C239.856 81.2261 239.508 81.4979 239.061 81.6967C238.613 81.8956 238.093 81.995 237.5 81.995C236.721 81.995 236.076 81.826 235.566 81.4879C235.055 81.1499 234.732 80.656 234.596 80.0064L235.71 79.728C235.816 80.139 236.016 80.4472 236.311 80.6527C236.61 80.8582 236.999 80.9609 237.48 80.9609C238.027 80.9609 238.461 80.8449 238.782 80.6129C239.107 80.3776 239.269 80.0959 239.269 79.7678C239.269 79.5026 239.177 79.2805 238.991 79.1016C238.805 78.9193 238.52 78.7834 238.136 78.6939L236.863 78.3956C236.164 78.2299 235.65 77.973 235.322 77.625C234.997 77.2737 234.835 76.8345 234.835 76.3075C234.835 75.8767 234.956 75.4955 235.198 75.1641C235.443 74.8326 235.776 74.5724 236.197 74.3835C236.621 74.1946 237.102 74.1001 237.639 74.1001C238.394 74.1001 238.988 74.2659 239.419 74.5973C239.853 74.9287 240.161 75.3662 240.343 75.9098ZM247.658 75.9098L246.604 76.2081C246.537 76.0324 246.44 75.8617 246.31 75.696C246.185 75.527 246.012 75.3878 245.793 75.2784C245.575 75.169 245.295 75.1143 244.953 75.1143C244.486 75.1143 244.096 75.2221 243.785 75.4375C243.477 75.6496 243.323 75.9197 243.323 76.2479C243.323 76.5395 243.429 76.7699 243.641 76.9389C243.853 77.108 244.184 77.2488 244.635 77.3615L245.769 77.6399C246.451 77.8056 246.96 78.0592 247.295 78.4006C247.63 78.7386 247.797 79.1745 247.797 79.7081C247.797 80.1456 247.671 80.5367 247.419 80.8814C247.171 81.2261 246.823 81.4979 246.375 81.6967C245.928 81.8956 245.407 81.995 244.814 81.995C244.035 81.995 243.39 81.826 242.88 81.4879C242.37 81.1499 242.046 80.656 241.911 80.0064L243.024 79.728C243.13 80.139 243.331 80.4472 243.626 80.6527C243.924 80.8582 244.314 80.9609 244.794 80.9609C245.341 80.9609 245.775 80.8449 246.097 80.6129C246.421 80.3776 246.584 80.0959 246.584 79.7678C246.584 79.5026 246.491 79.2805 246.305 79.1016C246.12 78.9193 245.835 78.7834 245.45 78.6939L244.178 78.3956C243.478 78.2299 242.965 77.973 242.636 77.625C242.312 77.2737 242.149 76.8345 242.149 76.3075C242.149 75.8767 242.27 75.4955 242.512 75.1641C242.757 74.8326 243.091 74.5724 243.511 74.3835C243.936 74.1946 244.416 74.1001 244.953 74.1001C245.709 74.1001 246.302 74.2659 246.733 74.5973C247.167 74.9287 247.475 75.3662 247.658 75.9098ZM252.964 74.1996V75.1939H248.847V74.1996H252.964ZM250.08 81.8359V73.1456C250.08 72.7081 250.183 72.3435 250.388 72.0518C250.594 71.7602 250.861 71.5414 251.189 71.3956C251.517 71.2498 251.863 71.1768 252.228 71.1768C252.516 71.1768 252.752 71.2 252.934 71.2464C253.116 71.2928 253.252 71.3359 253.342 71.3757L253.003 72.3899C252.944 72.37 252.861 72.3452 252.755 72.3153C252.652 72.2855 252.516 72.2706 252.347 72.2706C251.959 72.2706 251.679 72.3684 251.507 72.5639C251.338 72.7595 251.253 73.0462 251.253 73.424V81.8359H250.08ZM259.421 78.7138V74.1996H260.594V81.8359H259.421V80.5433H259.341C259.162 80.9311 258.884 81.2609 258.506 81.5327C258.128 81.8011 257.651 81.9354 257.074 81.9354C256.597 81.9354 256.172 81.831 255.801 81.6222C255.43 81.41 255.138 81.0919 254.926 80.6676C254.714 80.2401 254.608 79.7015 254.608 79.0518V74.1996H255.781V78.9723C255.781 79.5291 255.937 79.9732 256.249 80.3047C256.564 80.6361 256.965 80.8018 257.452 80.8018C257.743 80.8018 258.04 80.7273 258.342 80.5781C258.647 80.429 258.902 80.2003 259.107 79.892C259.316 79.5838 259.421 79.1911 259.421 78.7138ZM263.916 71.6541V81.8359H262.743V71.6541H263.916Z" fill="#D7F3D9"/>
<rect x="197" y="103.5" width="60" height="16.6728" rx="8.3364" fill="#30484E"/>
<rect x="197" y="103.5" width="60" height="16.6728" rx="8.3364" stroke="#6B929B"/>
<path d="M205.866 116.836V106.654H209.306C210.102 106.654 210.754 106.79 211.265 107.062C211.775 107.33 212.153 107.7 212.398 108.17C212.644 108.641 212.766 109.176 212.766 109.776C212.766 110.376 212.644 110.908 212.398 111.372C212.153 111.836 211.777 112.201 211.27 112.466C210.763 112.728 210.115 112.859 209.326 112.859H206.542V111.745H209.286C209.83 111.745 210.267 111.665 210.599 111.506C210.933 111.347 211.175 111.122 211.325 110.83C211.477 110.535 211.553 110.184 211.553 109.776C211.553 109.369 211.477 109.012 211.325 108.707C211.172 108.402 210.929 108.167 210.594 108.001C210.259 107.832 209.817 107.748 209.266 107.748H207.099V116.836H205.866ZM210.658 112.262L213.164 116.836H211.732L209.266 112.262H210.658ZM217.781 116.995C217.046 116.995 216.411 116.833 215.877 116.508C215.347 116.18 214.938 115.722 214.649 115.136C214.364 114.546 214.222 113.86 214.222 113.077C214.222 112.295 214.364 111.606 214.649 111.009C214.938 110.409 215.339 109.942 215.852 109.607C216.369 109.269 216.973 109.1 217.662 109.1C218.06 109.1 218.453 109.166 218.84 109.299C219.228 109.432 219.581 109.647 219.899 109.945C220.218 110.24 220.471 110.631 220.66 111.119C220.849 111.606 220.943 112.206 220.943 112.918V113.415H215.057V112.401H219.75C219.75 111.97 219.664 111.586 219.492 111.248C219.323 110.91 219.081 110.643 218.766 110.447C218.454 110.252 218.086 110.154 217.662 110.154C217.195 110.154 216.79 110.27 216.449 110.502C216.111 110.731 215.851 111.029 215.669 111.397C215.486 111.765 215.395 112.159 215.395 112.58V113.256C215.395 113.833 215.494 114.322 215.693 114.723C215.896 115.121 216.176 115.424 216.534 115.633C216.892 115.838 217.307 115.941 217.781 115.941C218.09 115.941 218.368 115.898 218.617 115.812C218.869 115.722 219.086 115.59 219.268 115.414C219.45 115.235 219.591 115.013 219.691 114.748L220.824 115.066C220.705 115.451 220.504 115.789 220.222 116.08C219.941 116.369 219.593 116.594 219.178 116.756C218.764 116.915 218.298 116.995 217.781 116.995ZM223.901 112.242V116.836H222.728V109.2H223.862V110.393H223.961C224.14 110.005 224.412 109.693 224.776 109.458C225.141 109.219 225.612 109.1 226.188 109.1C226.705 109.1 227.158 109.206 227.546 109.418C227.933 109.627 228.235 109.945 228.45 110.373C228.666 110.797 228.774 111.334 228.774 111.984V116.836H227.6V112.063C227.6 111.463 227.445 110.996 227.133 110.661C226.821 110.323 226.394 110.154 225.85 110.154C225.476 110.154 225.141 110.235 224.846 110.398C224.554 110.56 224.324 110.797 224.155 111.109C223.986 111.42 223.901 111.798 223.901 112.242ZM234.119 116.995C233.384 116.995 232.749 116.833 232.215 116.508C231.685 116.18 231.276 115.722 230.987 115.136C230.702 114.546 230.56 113.86 230.56 113.077C230.56 112.295 230.702 111.606 230.987 111.009C231.276 110.409 231.677 109.942 232.19 109.607C232.707 109.269 233.311 109.1 234 109.1C234.398 109.1 234.79 109.166 235.178 109.299C235.566 109.432 235.919 109.647 236.237 109.945C236.555 110.24 236.809 110.631 236.998 111.119C237.187 111.606 237.281 112.206 237.281 112.918V113.415H231.395V112.401H236.088C236.088 111.97 236.002 111.586 235.83 111.248C235.661 110.91 235.419 110.643 235.104 110.447C234.792 110.252 234.424 110.154 234 110.154C233.533 110.154 233.128 110.27 232.787 110.502C232.449 110.731 232.189 111.029 232.006 111.397C231.824 111.765 231.733 112.159 231.733 112.58V113.256C231.733 113.833 231.832 114.322 232.031 114.723C232.233 115.121 232.513 115.424 232.871 115.633C233.229 115.838 233.645 115.941 234.119 115.941C234.428 115.941 234.706 115.898 234.955 115.812C235.206 115.722 235.424 115.59 235.606 115.414C235.788 115.235 235.929 115.013 236.028 114.748L237.162 115.066C237.043 115.451 236.842 115.789 236.56 116.08C236.279 116.369 235.931 116.594 235.516 116.756C235.102 116.915 234.636 116.995 234.119 116.995ZM240.796 116.836L238.469 109.2H239.702L241.353 115.046H241.433L243.063 109.2H244.316L245.927 115.026H246.006L247.657 109.2H248.89L246.563 116.836H245.41L243.739 110.969H243.62L241.95 116.836H240.796Z" fill="#D8E9ED"/>
<rect x="197" y="138.5" width="60" height="16.6728" rx="8.3364" fill="#30484E"/>
<rect x="197" y="138.5" width="60" height="16.6728" rx="8.3364" stroke="#6B929B"/>
<path d="M205.866 151.836V141.654H209.306C210.102 141.654 210.754 141.79 211.265 142.062C211.775 142.33 212.153 142.7 212.398 143.17C212.644 143.641 212.766 144.176 212.766 144.776C212.766 145.376 212.644 145.908 212.398 146.372C212.153 146.836 211.777 147.201 211.27 147.466C210.763 147.728 210.115 147.859 209.326 147.859H206.542V146.745H209.286C209.83 146.745 210.267 146.665 210.599 146.506C210.933 146.347 211.175 146.122 211.325 145.83C211.477 145.535 211.553 145.184 211.553 144.776C211.553 144.369 211.477 144.012 211.325 143.707C211.172 143.402 210.929 143.167 210.594 143.001C210.259 142.832 209.817 142.748 209.266 142.748H207.099V151.836H205.866ZM210.658 147.262L213.164 151.836H211.732L209.266 147.262H210.658ZM217.781 151.995C217.046 151.995 216.411 151.833 215.877 151.508C215.347 151.18 214.938 150.722 214.649 150.136C214.364 149.546 214.222 148.86 214.222 148.077C214.222 147.295 214.364 146.606 214.649 146.009C214.938 145.409 215.339 144.942 215.852 144.607C216.369 144.269 216.973 144.1 217.662 144.1C218.06 144.1 218.453 144.166 218.84 144.299C219.228 144.432 219.581 144.647 219.899 144.945C220.218 145.24 220.471 145.631 220.66 146.119C220.849 146.606 220.943 147.206 220.943 147.918V148.415H215.057V147.401H219.75C219.75 146.97 219.664 146.586 219.492 146.248C219.323 145.91 219.081 145.643 218.766 145.447C218.454 145.252 218.086 145.154 217.662 145.154C217.195 145.154 216.79 145.27 216.449 145.502C216.111 145.731 215.851 146.029 215.669 146.397C215.486 146.765 215.395 147.159 215.395 147.58V148.256C215.395 148.833 215.494 149.322 215.693 149.723C215.896 150.121 216.176 150.424 216.534 150.633C216.892 150.838 217.307 150.941 217.781 150.941C218.09 150.941 218.368 150.898 218.617 150.812C218.869 150.722 219.086 150.59 219.268 150.414C219.45 150.235 219.591 150.013 219.691 149.748L220.824 150.066C220.705 150.451 220.504 150.789 220.222 151.08C219.941 151.369 219.593 151.594 219.178 151.756C218.764 151.915 218.298 151.995 217.781 151.995ZM223.901 147.242V151.836H222.728V144.2H223.862V145.393H223.961C224.14 145.005 224.412 144.693 224.776 144.458C225.141 144.219 225.612 144.1 226.188 144.1C226.705 144.1 227.158 144.206 227.546 144.418C227.933 144.627 228.235 144.945 228.45 145.373C228.666 145.797 228.774 146.334 228.774 146.984V151.836H227.6V147.063C227.6 146.463 227.445 145.996 227.133 145.661C226.821 145.323 226.394 145.154 225.85 145.154C225.476 145.154 225.141 145.235 224.846 145.398C224.554 145.56 224.324 145.797 224.155 146.109C223.986 146.42 223.901 146.798 223.901 147.242ZM234.119 151.995C233.384 151.995 232.749 151.833 232.215 151.508C231.685 151.18 231.276 150.722 230.987 150.136C230.702 149.546 230.56 148.86 230.56 148.077C230.56 147.295 230.702 146.606 230.987 146.009C231.276 145.409 231.677 144.942 232.19 144.607C232.707 144.269 233.311 144.1 234 144.1C234.398 144.1 234.79 144.166 235.178 144.299C235.566 144.432 235.919 144.647 236.237 144.945C236.555 145.24 236.809 145.631 236.998 146.119C237.187 146.606 237.281 147.206 237.281 147.918V148.415H231.395V147.401H236.088C236.088 146.97 236.002 146.586 235.83 146.248C235.661 145.91 235.419 145.643 235.104 145.447C234.792 145.252 234.424 145.154 234 145.154C233.533 145.154 233.128 145.27 232.787 145.502C232.449 145.731 232.189 146.029 232.006 146.397C231.824 146.765 231.733 147.159 231.733 147.58V148.256C231.733 148.833 231.832 149.322 232.031 149.723C232.233 150.121 232.513 150.424 232.871 150.633C233.229 150.838 233.645 150.941 234.119 150.941C234.428 150.941 234.706 150.898 234.955 150.812C235.206 150.722 235.424 150.59 235.606 150.414C235.788 150.235 235.929 150.013 236.028 149.748L237.162 150.066C237.043 150.451 236.842 150.789 236.56 151.08C236.279 151.369 235.931 151.594 235.516 151.756C235.102 151.915 234.636 151.995 234.119 151.995ZM240.796 151.836L238.469 144.2H239.702L241.353 150.046H241.433L243.063 144.2H244.316L245.927 150.026H246.006L247.657 144.2H248.89L246.563 151.836H245.41L243.739 145.969H243.62L241.95 151.836H240.796Z" fill="#D8E9ED"/>
<rect x="201.5" y="173.5" width="55" height="16.6728" rx="8.3364" fill="#4E3030"/>
<rect x="201.5" y="173.5" width="55" height="16.6728" rx="8.3364" stroke="#886260"/>
<path d="M210.436 186.836V176.654H216.541V177.748H211.669V181.188H216.084V182.282H211.669V186.836H210.436ZM220.741 187.015C220.257 187.015 219.818 186.924 219.423 186.741C219.029 186.556 218.716 186.289 218.484 185.941C218.252 185.59 218.136 185.165 218.136 184.668C218.136 184.231 218.222 183.876 218.394 183.604C218.567 183.329 218.797 183.114 219.085 182.958C219.374 182.802 219.692 182.686 220.04 182.61C220.391 182.531 220.744 182.468 221.099 182.421C221.563 182.362 221.939 182.317 222.227 182.287C222.519 182.254 222.731 182.199 222.864 182.123C223 182.047 223.068 181.914 223.068 181.725V181.685C223.068 181.195 222.933 180.814 222.665 180.542C222.4 180.27 221.997 180.134 221.457 180.134C220.897 180.134 220.458 180.257 220.139 180.502C219.821 180.747 219.597 181.009 219.468 181.288L218.355 180.89C218.553 180.426 218.819 180.065 219.15 179.806C219.485 179.544 219.849 179.362 220.244 179.259C220.642 179.153 221.033 179.1 221.417 179.1C221.662 179.1 221.944 179.13 222.262 179.19C222.584 179.246 222.894 179.364 223.192 179.543C223.494 179.722 223.744 179.992 223.943 180.353C224.142 180.714 224.241 181.198 224.241 181.805V186.836H223.068V185.802H223.008C222.928 185.968 222.796 186.145 222.61 186.334C222.425 186.523 222.178 186.683 221.869 186.816C221.561 186.949 221.185 187.015 220.741 187.015ZM220.92 185.961C221.384 185.961 221.775 185.87 222.093 185.688C222.415 185.505 222.657 185.27 222.819 184.982C222.985 184.693 223.068 184.39 223.068 184.072V182.998C223.018 183.058 222.909 183.112 222.74 183.162C222.574 183.208 222.382 183.25 222.163 183.286C221.947 183.319 221.737 183.349 221.531 183.376C221.329 183.399 221.165 183.419 221.039 183.435C220.734 183.475 220.449 183.54 220.184 183.629C219.922 183.715 219.71 183.846 219.548 184.022C219.389 184.194 219.309 184.43 219.309 184.728C219.309 185.136 219.46 185.444 219.762 185.653C220.066 185.858 220.453 185.961 220.92 185.961ZM226.382 186.836V179.2H227.556V186.836H226.382ZM226.979 177.927C226.75 177.927 226.553 177.849 226.387 177.693C226.225 177.537 226.144 177.35 226.144 177.131C226.144 176.913 226.225 176.725 226.387 176.57C226.553 176.414 226.75 176.336 226.979 176.336C227.208 176.336 227.403 176.414 227.566 176.57C227.731 176.725 227.814 176.913 227.814 177.131C227.814 177.35 227.731 177.537 227.566 177.693C227.403 177.849 227.208 177.927 226.979 177.927ZM230.878 176.654V186.836H229.705V176.654H230.878ZM236.229 186.995C235.493 186.995 234.858 186.833 234.325 186.508C233.794 186.18 233.385 185.722 233.097 185.136C232.812 184.546 232.669 183.86 232.669 183.077C232.669 182.295 232.812 181.606 233.097 181.009C233.385 180.409 233.786 179.942 234.3 179.607C234.817 179.269 235.42 179.1 236.109 179.1C236.507 179.1 236.9 179.166 237.288 179.299C237.675 179.432 238.028 179.647 238.347 179.945C238.665 180.24 238.918 180.631 239.107 181.119C239.296 181.606 239.391 182.206 239.391 182.918V183.415H233.504V182.401H238.197C238.197 181.97 238.111 181.586 237.939 181.248C237.77 180.91 237.528 180.643 237.213 180.447C236.902 180.252 236.534 180.154 236.109 180.154C235.642 180.154 235.238 180.27 234.896 180.502C234.558 180.731 234.298 181.029 234.116 181.397C233.933 181.765 233.842 182.159 233.842 182.58V183.256C233.842 183.833 233.942 184.322 234.141 184.723C234.343 185.121 234.623 185.424 234.981 185.633C235.339 185.838 235.755 185.941 236.229 185.941C236.537 185.941 236.815 185.898 237.064 185.812C237.316 185.722 237.533 185.59 237.715 185.414C237.897 185.235 238.038 185.013 238.138 184.748L239.271 185.066C239.152 185.451 238.951 185.789 238.67 186.08C238.388 186.369 238.04 186.594 237.626 186.756C237.211 186.915 236.746 186.995 236.229 186.995ZM244.059 186.995C243.423 186.995 242.861 186.834 242.374 186.513C241.886 186.188 241.505 185.731 241.23 185.141C240.955 184.547 240.817 183.846 240.817 183.038C240.817 182.236 240.955 181.54 241.23 180.95C241.505 180.36 241.888 179.904 242.379 179.582C242.869 179.261 243.436 179.1 244.079 179.1C244.576 179.1 244.969 179.183 245.257 179.349C245.549 179.511 245.771 179.697 245.923 179.906C246.079 180.111 246.2 180.28 246.286 180.413H246.386V176.654H247.559V186.836H246.425V185.663H246.286C246.2 185.802 246.077 185.978 245.918 186.19C245.759 186.398 245.532 186.586 245.237 186.751C244.942 186.914 244.549 186.995 244.059 186.995ZM244.218 185.941C244.689 185.941 245.086 185.818 245.411 185.573C245.736 185.325 245.983 184.982 246.152 184.544C246.321 184.103 246.406 183.594 246.406 183.018C246.406 182.448 246.323 181.949 246.157 181.521C245.991 181.09 245.746 180.756 245.421 180.517C245.096 180.275 244.695 180.154 244.218 180.154C243.721 180.154 243.307 180.282 242.975 180.537C242.647 180.789 242.4 181.132 242.234 181.566C242.072 181.997 241.991 182.481 241.991 183.018C241.991 183.561 242.074 184.055 242.239 184.499C242.408 184.94 242.657 185.291 242.985 185.553C243.317 185.812 243.728 185.941 244.218 185.941Z" fill="#EFDEDD"/>
<defs>
<filter id="filter0_d_2654_28129" x="0" y="0" width="433" height="268" filterUnits="userSpaceOnUse" color-interpolation-filters="sRGB">
<feFlood flood-opacity="0" result="BackgroundImageFix"/>
<feColorMatrix in="SourceAlpha" type="matrix" values="0 0 0 0 0 0 0 0 0 0 0 0 0 0 0 0 0 0 127 0" result="hardAlpha"/>
<feOffset dy="24"/>
<feGaussianBlur stdDeviation="22"/>
<feComposite in2="hardAlpha" operator="out"/>
<feColorMatrix type="matrix" values="0 0 0 0 0 0 0 0 0 0 0 0 0 0 0 0 0 0 0.5 0"/>
<feBlend mode="normal" in2="BackgroundImageFix" result="effect1_dropShadow_2654_28129"/>
<feBlend mode="normal" in="SourceGraphic" in2="effect1_dropShadow_2654_28129" result="shape"/>
</filter>
</defs>
</svg>
