<svg width="163" height="32" viewBox="0 0 163 32" fill="none" xmlns="http://www.w3.org/2000/svg">
<g clip-path="url(#clip0_2639_25267)">
<mask id="mask0_2639_25267" style="mask-type:luminance" maskUnits="userSpaceOnUse" x="0" y="0" width="163" height="32">
<path d="M0 32H163V6.81397e-07H0V32Z" fill="white"/>
</mask>
<g mask="url(#mask0_2639_25267)">
<mask id="mask1_2639_25267" style="mask-type:luminance" maskUnits="userSpaceOnUse" x="0" y="0" width="163" height="32">
<path d="M0.144531 0.630371V31.4182H163.001V0.630371H0.144531Z" fill="white"/>
</mask>
<g mask="url(#mask1_2639_25267)">
<path d="M24.8888 5.10829C25.1042 4.53427 25.3195 4.05595 25.3674 3.96025H25.4153C25.5349 4.17546 25.7025 4.72562 25.8701 5.204L26.923 8.40918C27.1145 8.93532 27.0666 9.03102 26.4923 9.03102H24.0751C23.5007 9.03102 23.5007 9.00711 23.6443 8.55271L24.8888 5.10829ZM28.4307 13.0016C28.5984 13.48 28.694 13.8388 28.694 14.054C28.694 14.2454 28.4069 14.365 28 14.4128L27.4256 14.4607C27.282 14.5564 27.3059 14.8673 27.4735 14.9629C28.0479 14.939 28.7897 14.8912 29.747 14.8912C30.6325 14.8912 31.3265 14.9151 32.1402 14.9629C32.236 14.8673 32.2838 14.5564 32.1402 14.4607L31.5899 14.4128C30.7522 14.3171 30.4889 14.0062 29.9146 12.3079L27.2102 4.36682C26.923 3.50573 26.588 2.59687 26.3487 1.71181C26.3008 1.59219 26.1572 1.54436 26.0375 1.54436C25.8222 1.80746 25.4871 2.16632 25.0084 2.28589C25.0802 2.62073 24.9605 2.97953 24.6734 3.69709L22.6631 9.03102C21.8255 11.2316 21.275 12.5232 20.916 13.4321C20.6527 14.1497 20.1981 14.365 19.7433 14.4128L19.0733 14.4607C18.9535 14.5564 19.0014 14.8673 19.1211 14.9629C19.6476 14.939 20.3656 14.8912 21.0117 14.8912C21.9451 14.9151 22.5673 14.9151 23.0699 14.9629C23.2613 14.8673 23.2613 14.5564 23.1178 14.4607L22.4716 14.4128C21.993 14.365 21.8972 14.2454 21.8972 14.0062C21.8972 13.7909 22.0169 13.2647 22.328 12.3558L23.0221 10.2748C23.1657 9.86826 23.2853 9.79641 23.764 9.79641H26.7555C27.3538 9.79641 27.4256 9.86826 27.5692 10.2988L28.4307 13.0016Z" stroke="#575B62" stroke-width="1.06299" stroke-miterlimit="22.9256"/>
<path fill-rule="evenodd" clip-rule="evenodd" d="M24.8888 5.10829C25.1042 4.53427 25.3195 4.05595 25.3674 3.96025H25.4153C25.5349 4.17546 25.7025 4.72562 25.8701 5.204L26.923 8.40918C27.1145 8.93532 27.0666 9.03102 26.4923 9.03102H24.0751C23.5007 9.03102 23.5007 9.00711 23.6443 8.55271L24.8888 5.10829ZM28.4307 13.0016C28.5984 13.48 28.694 13.8388 28.694 14.054C28.694 14.2454 28.4069 14.365 28 14.4128L27.4256 14.4607C27.282 14.5564 27.3059 14.8673 27.4735 14.9629C28.0479 14.939 28.7897 14.8912 29.747 14.8912C30.6325 14.8912 31.3265 14.9151 32.1402 14.9629C32.236 14.8673 32.2838 14.5564 32.1402 14.4607L31.5899 14.4128C30.7522 14.3171 30.4889 14.0062 29.9146 12.3079L27.2102 4.36682C26.923 3.50573 26.588 2.59687 26.3487 1.71181C26.3008 1.59219 26.1572 1.54436 26.0375 1.54436C25.8222 1.80746 25.4871 2.16632 25.0084 2.28589C25.0802 2.62073 24.9605 2.97953 24.6734 3.69709L22.6631 9.03102C21.8255 11.2316 21.275 12.5232 20.916 13.4321C20.6527 14.1497 20.1981 14.365 19.7433 14.4128L19.0733 14.4607C18.9535 14.5564 19.0014 14.8673 19.1211 14.9629C19.6476 14.939 20.3656 14.8912 21.0117 14.8912C21.9451 14.9151 22.5673 14.9151 23.0699 14.9629C23.2613 14.8673 23.2613 14.5564 23.1178 14.4607L22.4716 14.4128C21.993 14.365 21.8972 14.2454 21.8972 14.0062C21.8972 13.7909 22.0169 13.2647 22.328 12.3558L23.0221 10.2748C23.1657 9.86826 23.2853 9.79641 23.764 9.79641H26.7555C27.3538 9.79641 27.4256 9.86826 27.5692 10.2988L28.4307 13.0016Z" fill="#575B62"/>
<path d="M32.2364 3.96008C31.7817 2.83583 31.4946 2.42919 30.6329 2.33349L30.274 2.28572C30.1304 2.16616 30.1543 1.903 30.3218 1.80729C30.8962 1.83126 31.5184 1.85517 32.38 1.85517C33.2416 1.85517 33.9357 1.83126 34.7732 1.80729C34.9169 1.87903 34.9408 2.16616 34.821 2.28572L34.51 2.33349C33.7681 2.42919 33.6005 2.54888 33.5766 2.71627C33.6245 2.90757 33.9595 3.96008 34.5818 5.46692C35.4912 7.76313 36.4006 10.0354 37.3818 12.2838C38.0041 10.9922 38.8417 8.93514 39.2725 7.9066C39.8708 6.56715 40.7802 4.31882 41.1153 3.48171C41.2828 3.05104 41.3067 2.83583 41.3067 2.71627C41.3067 2.57273 41.0914 2.40535 40.3973 2.33349L40.0622 2.28572C39.9186 2.16616 39.9427 1.87903 40.0862 1.80729C40.6366 1.83126 41.4025 1.85517 42.1443 1.85517C42.7906 1.85517 43.4128 1.83126 44.0589 1.80729C44.2025 1.87903 44.2025 2.19007 44.1068 2.28572L43.5086 2.33349C43.0298 2.38137 42.7427 2.5967 42.4795 3.02724C41.929 3.96008 41.1631 5.53866 40.2776 7.57183L39.2007 9.9876C38.4109 11.8055 37.4776 14.1017 37.1425 15.1541C37.0947 15.1781 36.9989 15.2019 36.9271 15.2019C36.8314 15.2019 36.7356 15.1781 36.6399 15.1541C36.4245 14.317 36.0655 13.3602 35.7305 12.523L32.2364 3.96008Z" stroke="#575B62" stroke-width="1.06299" stroke-miterlimit="22.9256"/>
<path fill-rule="evenodd" clip-rule="evenodd" d="M32.2364 3.96008C31.7817 2.83583 31.4946 2.42919 30.6329 2.33349L30.274 2.28572C30.1304 2.16616 30.1543 1.903 30.3218 1.80729C30.8962 1.83126 31.5184 1.85517 32.38 1.85517C33.2416 1.85517 33.9357 1.83126 34.7732 1.80729C34.9169 1.87903 34.9408 2.16616 34.821 2.28572L34.51 2.33349C33.7681 2.42919 33.6005 2.54888 33.5766 2.71627C33.6245 2.90757 33.9595 3.96008 34.5818 5.46692C35.4912 7.76313 36.4006 10.0354 37.3818 12.2838C38.0041 10.9922 38.8417 8.93514 39.2725 7.9066C39.8708 6.56715 40.7802 4.31882 41.1153 3.48171C41.2828 3.05104 41.3067 2.83583 41.3067 2.71627C41.3067 2.57273 41.0914 2.40535 40.3973 2.33349L40.0622 2.28572C39.9186 2.16616 39.9427 1.87903 40.0862 1.80729C40.6366 1.83126 41.4025 1.85517 42.1443 1.85517C42.7906 1.85517 43.4128 1.83126 44.0589 1.80729C44.2025 1.87903 44.2025 2.19007 44.1068 2.28572L43.5086 2.33349C43.0298 2.38137 42.7427 2.5967 42.4795 3.02724C41.929 3.96008 41.1631 5.53866 40.2776 7.57183L39.2007 9.9876C38.4109 11.8055 37.4776 14.1017 37.1425 15.1541C37.0947 15.1781 36.9989 15.2019 36.9271 15.2019C36.8314 15.2019 36.7356 15.1781 36.6399 15.1541C36.4245 14.317 36.0655 13.3602 35.7305 12.523L32.2364 3.96008Z" fill="#575B62"/>
<path d="M47.5294 5.10829C47.7448 4.53427 47.9362 4.05595 48.008 3.96025H48.032C48.1516 4.17546 48.3431 4.72562 48.4866 5.204L49.5636 8.40918C49.7311 8.93532 49.7073 9.03102 49.1328 9.03102H46.6917C46.1414 9.03102 46.1173 9.00711 46.2849 8.55271L47.5294 5.10829ZM51.0714 13.0016C51.215 13.48 51.3107 13.8388 51.3107 14.054C51.3107 14.2454 51.0474 14.365 50.6406 14.4128L50.0662 14.4607C49.9226 14.5564 49.9465 14.8673 50.0901 14.9629C50.6645 14.939 51.4303 14.8912 52.3637 14.8912C53.2492 14.8912 53.9432 14.9151 54.7569 14.9629C54.8527 14.8673 54.9005 14.5564 54.7569 14.4607L54.2304 14.4128C53.3688 14.3171 53.1295 14.0062 52.5551 12.3079L49.8508 4.36682C49.5397 3.50573 49.2285 2.59687 48.9653 1.71181C48.9174 1.59219 48.7977 1.54436 48.6782 1.54436C48.4628 1.80746 48.1276 2.16632 47.649 2.28589C47.6969 2.62073 47.5772 2.97953 47.314 3.69709L45.2797 9.03102C44.466 11.2316 43.9156 12.5232 43.5566 13.4321C43.2694 14.1497 42.8386 14.365 42.36 14.4128L41.7138 14.4607C41.5942 14.5564 41.6421 14.8673 41.7617 14.9629C42.2882 14.939 43.0062 14.8912 43.6524 14.8912C44.5857 14.9151 45.184 14.9151 45.7105 14.9629C45.8781 14.8673 45.8781 14.5564 45.7344 14.4607L45.0882 14.4128C44.6096 14.365 44.5139 14.2454 44.5139 14.0062C44.5139 13.7909 44.6575 13.2647 44.9447 12.3558L45.6387 10.2748C45.7823 9.86826 45.902 9.79641 46.4045 9.79641H49.3721C49.9705 9.79641 50.0662 9.86826 50.1859 10.2988L51.0714 13.0016Z" stroke="#575B62" stroke-width="1.06299" stroke-miterlimit="22.9256"/>
<path fill-rule="evenodd" clip-rule="evenodd" d="M47.5294 5.10829C47.7448 4.53427 47.9362 4.05595 48.008 3.96025H48.032C48.1516 4.17546 48.3431 4.72562 48.4866 5.204L49.5636 8.40918C49.7311 8.93532 49.7073 9.03102 49.1328 9.03102H46.6917C46.1414 9.03102 46.1173 9.00711 46.2849 8.55271L47.5294 5.10829ZM51.0714 13.0016C51.215 13.48 51.3107 13.8388 51.3107 14.054C51.3107 14.2454 51.0474 14.365 50.6406 14.4128L50.0662 14.4607C49.9226 14.5564 49.9465 14.8673 50.0901 14.9629C50.6645 14.939 51.4303 14.8912 52.3637 14.8912C53.2492 14.8912 53.9432 14.9151 54.7569 14.9629C54.8527 14.8673 54.9005 14.5564 54.7569 14.4607L54.2304 14.4128C53.3688 14.3171 53.1295 14.0062 52.5551 12.3079L49.8508 4.36682C49.5397 3.50573 49.2285 2.59687 48.9653 1.71181C48.9174 1.59219 48.7977 1.54436 48.6782 1.54436C48.4628 1.80746 48.1276 2.16632 47.649 2.28589C47.6969 2.62073 47.5772 2.97953 47.314 3.69709L45.2797 9.03102C44.466 11.2316 43.9156 12.5232 43.5566 13.4321C43.2694 14.1497 42.8386 14.365 42.36 14.4128L41.7138 14.4607C41.5942 14.5564 41.6421 14.8673 41.7617 14.9629C42.2882 14.939 43.0062 14.8912 43.6524 14.8912C44.5857 14.9151 45.184 14.9151 45.7105 14.9629C45.8781 14.8673 45.8781 14.5564 45.7344 14.4607L45.0882 14.4128C44.6096 14.365 44.5139 14.2454 44.5139 14.0062C44.5139 13.7909 44.6575 13.2647 44.9447 12.3558L45.6387 10.2748C45.7823 9.86826 45.902 9.79641 46.4045 9.79641H49.3721C49.9705 9.79641 50.0662 9.86826 50.1859 10.2988L51.0714 13.0016Z" fill="#575B62"/>
<path d="M67.055 12.8818C67.055 13.6711 67.1747 14.1255 67.5336 14.2691C67.5815 14.3409 67.5815 14.4366 67.5098 14.5084C67.2704 14.5084 66.9114 14.5801 66.5285 14.6757C65.4755 14.9627 64.0635 15.2019 62.9865 15.2019C60.6412 15.2019 58.4872 14.5562 56.9556 13.0014C55.7829 11.8295 55.1367 10.2746 55.1367 8.52857C55.1367 6.85427 55.6871 5.15594 56.9316 3.86437C58.248 2.47702 60.2104 1.54419 63.2019 1.54419C64.3267 1.54419 65.3797 1.75946 65.7148 1.83126C66.0738 1.903 66.6961 2.04654 66.9354 1.99871C66.9354 2.64453 67.055 3.67301 67.2225 4.86899C67.1747 5.03644 66.8157 5.0603 66.6961 4.94073C66.1456 2.81198 64.6618 2.14224 62.6276 2.14224C58.7983 2.14224 57.1231 4.86899 57.1231 7.83487C57.1231 11.6141 59.0855 14.5801 63.0583 14.5801C64.2789 14.5801 65.0208 14.3409 65.2361 14.006C65.3318 13.8624 65.4276 13.5036 65.4276 12.8818V12.0925C65.4276 10.4421 65.3797 10.3224 64.1353 10.179L63.2737 10.0833C63.1062 10.0116 63.1302 9.6527 63.2737 9.58102C63.8481 9.6289 64.925 9.62891 66.0977 9.62891C66.8635 9.62891 67.5336 9.6289 68.2038 9.58102C68.3234 9.6527 68.3474 9.96369 68.2038 10.0833L67.8926 10.1072C67.0789 10.2268 67.055 10.7769 67.055 11.7816V12.8818Z" stroke="#575B62" stroke-width="1.06299" stroke-miterlimit="22.9256"/>
<path fill-rule="evenodd" clip-rule="evenodd" d="M67.055 12.8818C67.055 13.6711 67.1747 14.1255 67.5336 14.2691C67.5815 14.3409 67.5815 14.4366 67.5098 14.5084C67.2704 14.5084 66.9114 14.5801 66.5285 14.6757C65.4755 14.9627 64.0635 15.2019 62.9865 15.2019C60.6412 15.2019 58.4872 14.5562 56.9556 13.0014C55.7829 11.8295 55.1367 10.2746 55.1367 8.52857C55.1367 6.85427 55.6871 5.15594 56.9316 3.86437C58.248 2.47702 60.2104 1.54419 63.2019 1.54419C64.3267 1.54419 65.3797 1.75946 65.7148 1.83126C66.0738 1.903 66.6961 2.04654 66.9354 1.99871C66.9354 2.64453 67.055 3.67301 67.2225 4.86899C67.1747 5.03644 66.8157 5.0603 66.6961 4.94073C66.1456 2.81198 64.6618 2.14224 62.6276 2.14224C58.7983 2.14224 57.1231 4.86899 57.1231 7.83487C57.1231 11.6141 59.0855 14.5801 63.0583 14.5801C64.2789 14.5801 65.0208 14.3409 65.2361 14.006C65.3318 13.8624 65.4276 13.5036 65.4276 12.8818V12.0925C65.4276 10.4421 65.3797 10.3224 64.1353 10.179L63.2737 10.0833C63.1062 10.0116 63.1302 9.6527 63.2737 9.58102C63.8481 9.6289 64.925 9.62891 66.0977 9.62891C66.8635 9.62891 67.5336 9.6289 68.2038 9.58102C68.3234 9.6527 68.3474 9.96369 68.2038 10.0833L67.8926 10.1072C67.0789 10.2268 67.055 10.7769 67.055 11.7816V12.8818Z" fill="#575B62"/>
<path fill-rule="evenodd" clip-rule="evenodd" d="M74.214 8.64831C74.214 9.27022 73.7114 9.74854 73.1131 9.74854C72.4909 9.74854 71.9883 9.27022 71.9883 8.64831C71.9883 8.02641 72.4909 7.52413 73.1131 7.52413C73.7114 7.52413 74.214 8.02641 74.214 8.64831Z" fill="#575B62"/>
<path fill-rule="evenodd" clip-rule="evenodd" d="M80.8913 8.50483C79.958 8.50483 79.9101 8.52874 79.9101 9.12673V11.9253C79.9101 14.0062 80.0059 14.2932 81.1067 14.4128L81.6811 14.4607C81.8008 14.5564 81.7768 14.8912 81.6572 14.9629C80.5802 14.9151 79.9101 14.8912 79.1443 14.8912C78.2827 14.8912 77.2776 14.939 76.5118 14.9629C76.3921 14.8912 76.3681 14.5802 76.4878 14.4607L77.134 14.4128C78.2588 14.2215 78.2827 14.0062 78.2827 11.9253V4.82134C78.2827 2.74035 78.1631 2.40551 77.134 2.33366L76.2724 2.28589C76.1528 2.21415 76.2007 1.85534 76.3202 1.80746C77.2776 1.80746 78.2827 1.85534 79.1443 1.85534C79.9101 1.85534 80.5802 1.83143 81.4419 1.80746C81.5614 1.85534 81.5854 2.21415 81.4657 2.28589L81.1067 2.33366C79.958 2.45339 79.9101 2.74035 79.9101 4.82134V7.06966C79.9101 7.6915 79.958 7.71554 80.8913 7.71554H86.5394C87.4967 7.71554 87.5446 7.6915 87.5446 7.06966V4.82134C87.5446 2.74035 87.4967 2.45339 86.324 2.33366L85.965 2.28589C85.8453 2.21415 85.8693 1.85534 85.9889 1.80746C86.8984 1.83143 87.5685 1.85534 88.3821 1.85534C89.148 1.85534 89.8181 1.83143 90.7275 1.80746C90.8472 1.85534 90.8711 2.21415 90.7515 2.28589L90.3446 2.33366C89.1959 2.45339 89.148 2.74035 89.148 4.82134V11.9253C89.148 14.0062 89.1959 14.2693 90.3446 14.4128L90.8233 14.4607C90.9429 14.5564 90.8951 14.8912 90.7754 14.9629C89.8181 14.9151 89.148 14.8912 88.3821 14.8912C87.5685 14.8912 86.8744 14.9151 85.9889 14.9629C85.8693 14.8912 85.8453 14.5802 85.965 14.4607L86.324 14.4128C87.5446 14.2454 87.4967 14.0062 87.5446 11.9253V9.12673C87.5446 8.52874 87.4967 8.50483 86.5394 8.50483H80.8913Z" fill="#575B62"/>
<path fill-rule="evenodd" clip-rule="evenodd" d="M98.5526 11.2317C98.5526 12.7624 98.0261 14.5564 96.2791 14.5564C94.532 14.5564 93.7422 12.6428 93.7422 10.8489C93.7422 8.67226 94.6995 7.4285 96.0157 7.4285C97.8826 7.4285 98.5526 9.55731 98.5526 11.2317ZM96.2312 6.83052C93.9097 6.83052 92.043 8.62443 92.043 11.112C92.043 13.5517 93.814 15.1543 96.0876 15.1543C98.5526 15.1543 100.252 13.3843 100.252 10.9207C100.252 8.50487 98.4569 6.83052 96.2312 6.83052Z" fill="#575B62"/>
<path fill-rule="evenodd" clip-rule="evenodd" d="M104.153 12.6907C104.153 14.1019 104.201 14.3171 104.919 14.4128L105.374 14.4607C105.517 14.5564 105.47 14.8912 105.35 14.9629C104.68 14.9151 104.105 14.8912 103.435 14.8912C102.717 14.8912 102.119 14.9151 101.545 14.9629C101.401 14.8912 101.353 14.5564 101.497 14.4607L101.952 14.4128C102.693 14.3171 102.693 14.1019 102.693 12.6907V3.74497C102.693 2.5729 102.693 2.45339 102.095 2.09459L101.88 1.97497C101.784 1.92708 101.784 1.64007 101.88 1.59219C102.382 1.42486 103.316 1.13779 104.01 0.755127C104.105 0.755127 104.177 0.802952 104.225 0.874631C104.201 1.47268 104.153 2.45339 104.153 3.33834V12.6907Z" fill="#575B62"/>
<path fill-rule="evenodd" clip-rule="evenodd" d="M112.766 12.9298C112.766 13.2408 112.742 13.5517 112.622 13.6714C112.311 13.9823 111.617 14.2215 111.091 14.2215C109.152 14.2215 108.147 12.5233 108.147 10.7293C108.147 9.00716 109.08 7.45242 110.875 7.45242C111.641 7.45242 112.239 7.88297 112.527 8.2896C112.67 8.48096 112.766 8.67227 112.766 9.05499V12.9298ZM114.202 3.33839C114.202 2.45344 114.25 1.47273 114.274 0.874678C114.226 0.802999 114.154 0.755173 114.082 0.755173C113.364 1.13783 112.431 1.4249 111.952 1.59223C111.856 1.64012 111.856 1.92713 111.952 1.97501L112.144 2.09464C112.742 2.45344 112.766 2.57295 112.766 3.74502V6.73493C112.766 6.8784 112.742 6.99802 112.646 6.99802C112.431 6.9502 111.976 6.83052 111.306 6.83052C108.626 6.83052 106.52 8.62444 106.52 11.3752C106.52 13.4561 107.979 15.1543 110.181 15.1543C111.138 15.1543 111.809 14.8434 112.67 14.2454H112.766C112.79 14.3411 112.79 14.5803 112.79 14.8673V15.2021C112.79 15.2978 112.885 15.3696 113.005 15.3696C113.556 15.1543 114.776 14.8434 115.614 14.7238C115.781 14.6281 115.781 14.1258 115.638 14.1019C115.327 14.1976 114.992 14.2933 114.776 14.2933C114.226 14.2933 114.202 13.5517 114.202 11.997V3.33839Z" fill="#575B62"/>
<path fill-rule="evenodd" clip-rule="evenodd" d="M117.865 9.22238C117.865 8.457 117.865 8.36129 117.314 8.00249L117.147 7.88292C117.075 7.81118 117.075 7.59586 117.171 7.52417C117.626 7.35672 118.75 6.85444 119.205 6.56732C119.301 6.56732 119.373 6.59135 119.397 6.68699C119.349 7.35672 119.325 8.31347 119.325 9.12673V12.6907C119.325 14.1019 119.349 14.3171 120.067 14.4128L120.474 14.4607C120.617 14.5564 120.569 14.8912 120.45 14.9629C119.851 14.9151 119.277 14.8912 118.583 14.8912C117.889 14.8912 117.291 14.9151 116.74 14.9629C116.596 14.8912 116.549 14.5564 116.692 14.4607L117.099 14.4128C117.841 14.3171 117.865 14.1019 117.865 12.6907V9.22238ZM119.468 2.81215C119.468 3.50573 118.966 3.8167 118.439 3.8167C117.817 3.8167 117.434 3.38622 117.434 2.85997C117.434 2.21415 117.913 1.80746 118.487 1.80746C119.085 1.80746 119.468 2.26198 119.468 2.81215Z" fill="#575B62"/>
<path fill-rule="evenodd" clip-rule="evenodd" d="M122.941 9.22238C122.941 8.457 122.941 8.36129 122.414 8.00249L122.223 7.88292C122.151 7.81118 122.151 7.59586 122.247 7.52417C122.701 7.38064 123.826 6.85444 124.209 6.56732C124.305 6.56732 124.401 6.61514 124.448 6.71085C124.401 7.16536 124.401 7.45238 124.401 7.64368C124.401 7.7633 124.472 7.85901 124.616 7.85901C125.454 7.33276 126.387 6.83048 127.392 6.83048C129.02 6.83048 129.69 7.97863 129.69 9.29412V12.6907C129.69 14.1019 129.737 14.3171 130.455 14.4128L130.886 14.4607C131.03 14.5564 130.982 14.8912 130.838 14.9629C130.24 14.9151 129.666 14.8912 128.996 14.8912C128.278 14.8912 127.679 14.9151 127.153 14.9629C127.009 14.8912 126.961 14.5564 127.105 14.4607L127.488 14.4128C128.23 14.2932 128.23 14.1019 128.23 12.6907V9.74858C128.23 8.62439 127.727 7.78721 126.387 7.78721C125.621 7.78721 124.975 8.09819 124.688 8.48091C124.448 8.81575 124.401 9.10276 124.401 9.6769V12.6907C124.401 14.1019 124.448 14.2932 125.142 14.4128L125.501 14.4607C125.645 14.5564 125.597 14.8912 125.478 14.9629C124.927 14.9151 124.353 14.8912 123.659 14.8912C122.965 14.8912 122.366 14.9151 121.816 14.9629C121.672 14.8912 121.648 14.5564 121.768 14.4607L122.199 14.4128C122.917 14.3171 122.941 14.1019 122.941 12.6907V9.22238Z" fill="#575B62"/>
<path fill-rule="evenodd" clip-rule="evenodd" d="M136.724 15.5131C138.16 15.5131 138.998 16.0393 138.998 17.2353C138.998 18.3594 137.825 19.364 136.054 19.364C134.259 19.364 133.397 18.479 133.397 17.4027C133.397 16.6372 133.876 16.0393 134.355 15.7284C134.642 15.5609 135.432 15.5131 136.054 15.5131H136.724ZM138.591 7.54802C138.16 7.54802 138.016 7.50019 137.394 7.23716C136.939 7.0458 136.245 6.83047 135.479 6.83047C133.732 6.83047 132.273 8.12216 132.273 9.82037C132.273 11.0881 133.086 11.8535 133.756 12.2123C133.756 12.3079 133.661 12.4754 133.565 12.595C133.206 12.9298 132.847 13.2647 132.512 13.48C132.273 13.6473 132.201 13.7191 132.201 13.8148C132.201 14.5085 132.871 15.1782 133.661 15.3696C133.828 15.4892 133.661 15.6805 133.493 15.8479C133.038 16.3024 132.488 16.8287 132.153 17.1875C132.009 17.3309 131.938 17.594 131.938 17.905C131.938 18.9095 132.775 20.2012 135.216 20.2012C137.777 20.2012 140.146 18.6225 140.146 16.4699C140.146 14.4845 138.471 14.2932 137.37 14.2932C136.485 14.2932 135.671 14.341 135.001 14.341C134.091 14.341 133.637 13.9822 133.637 13.5278C133.637 12.9537 134.259 12.595 134.498 12.4515C134.738 12.4754 135.001 12.4993 135.36 12.4993C137.873 12.4993 138.686 10.7293 138.686 9.36586C138.686 9.03101 138.686 8.69624 138.639 8.36129H140.075C140.386 8.31346 140.41 7.64367 140.194 7.54802H138.591ZM135.647 11.9253C134.714 11.9253 133.876 11.0163 133.876 9.62907C133.876 8.28955 134.57 7.42845 135.527 7.42845C136.724 7.42845 137.274 8.55271 137.274 9.86825C137.274 11.0881 136.724 11.9253 135.647 11.9253Z" fill="#575B62"/>
<path d="M0.339844 21.3792H162.974" stroke="#575B62" stroke-width="0.5" stroke-miterlimit="22.9256"/>
<path d="M22.9413 29.1319C22.9413 29.4864 22.9732 29.7603 23.0371 29.9537C23.1009 30.147 23.1986 30.3129 23.3301 30.4515C23.4615 30.5901 23.6512 30.7045 23.8992 30.7947C24.147 30.8849 24.3875 30.9301 24.6203 30.9301C25.1161 30.9301 25.5293 30.7883 25.8598 30.5047C26.1904 30.2211 26.3557 29.8634 26.3557 29.4316C26.3557 28.7871 25.935 28.3505 25.0935 28.1185L23.9667 27.7881C22.9075 27.4788 22.3778 26.902 22.3778 26.0577C22.3778 25.497 22.5751 25.0475 22.9695 24.7091C23.3639 24.3708 23.9329 24.2016 24.6766 24.2016C25.0297 24.2016 25.3227 24.2338 25.5556 24.2983C25.7885 24.3627 26.012 24.4803 26.226 24.6511C26.4402 24.8219 26.596 25.0104 26.6937 25.2167C26.7914 25.4229 26.8402 25.7129 26.8402 26.0867H26.1303C26.1303 25.7902 26.1002 25.5695 26.0401 25.4245C25.98 25.2795 25.8504 25.1168 25.6513 24.9363C25.4523 24.7559 25.1236 24.6656 24.6654 24.6656C24.1846 24.6656 23.7996 24.7832 23.5103 25.0185C23.2211 25.2537 23.0765 25.5679 23.0765 25.9611C23.0765 26.3026 23.1704 26.5765 23.3582 26.7828C23.546 26.989 23.8578 27.1566 24.2935 27.2854L25.5105 27.6528C26.0439 27.8075 26.4345 28.0266 26.6824 28.3102C26.9304 28.5938 27.0543 28.9611 27.0543 29.4123C27.0543 30.0117 26.8327 30.4886 26.3894 30.843C25.9463 31.1975 25.3453 31.3748 24.5865 31.3748C23.8653 31.3748 23.3507 31.2555 23.0427 31.0171C22.7347 30.7786 22.5394 30.553 22.4568 30.3403C22.3741 30.1276 22.3196 29.9359 22.2933 29.7652C22.2671 29.5943 22.2539 29.3833 22.2539 29.1319H22.9413Z" fill="#575B62"/>
<path d="M29.9395 25.4198C30.0672 25.1749 30.2963 24.9058 30.6269 24.6126C30.9574 24.3194 31.4757 24.1727 32.1819 24.1727C32.8806 24.1727 33.3989 24.3194 33.737 24.6126C34.075 24.9058 34.3079 25.1846 34.4356 25.4488C34.5633 25.713 34.6648 26.0498 34.7399 26.4591C34.815 26.8683 34.8525 27.305 34.8525 27.769C34.8525 28.233 34.815 28.6712 34.7399 29.0838C34.6648 29.4962 34.5614 29.8362 34.4299 30.1036C34.2985 30.3711 34.0694 30.6482 33.7426 30.935C33.4158 31.2218 32.8956 31.3652 32.1819 31.3652C31.8063 31.3652 31.487 31.3233 31.2241 31.2396C30.9612 31.1558 30.7132 31.0124 30.4803 30.8094C30.2475 30.6063 30.0259 30.2905 29.8155 29.8619C29.6051 29.4334 29.5 28.7357 29.5 27.769C29.5 27.305 29.5375 26.8699 29.6126 26.4639C29.6878 26.0578 29.7967 25.7098 29.9395 25.4198ZM30.2212 27.769C30.2212 29.8764 30.8823 30.9302 32.2044 30.9302C33.4966 30.9302 34.1426 29.8764 34.1426 27.769C34.1426 25.6615 33.489 24.6078 32.1819 24.6078C30.8748 24.6078 30.2212 25.6615 30.2212 27.769Z" fill="#575B62"/>
<path d="M41.746 26.3478C41.7159 26.0514 41.6821 25.8355 41.6445 25.7002C41.607 25.5648 41.4887 25.3537 41.2896 25.0669C41.0906 24.7801 40.7093 24.6367 40.1458 24.6367C39.8078 24.6367 39.4979 24.7189 39.2162 24.8832C38.9344 25.0476 38.7242 25.2651 38.5852 25.5358C38.4462 25.8065 38.3467 26.1287 38.2865 26.5025C38.2264 26.8763 38.1964 27.3468 38.1964 27.914C38.1964 28.668 38.264 29.248 38.3992 29.6541C38.5344 30.0601 38.7504 30.3694 39.0472 30.5821C39.3438 30.7948 39.68 30.9011 40.0557 30.9011C40.5966 30.9011 40.9891 30.7432 41.2333 30.4274C41.4774 30.1117 41.6352 29.8571 41.7065 29.6637C41.7779 29.4704 41.8136 29.2126 41.8136 28.8903H42.501C42.501 29.2835 42.4634 29.5896 42.3883 29.8087C42.3132 30.0279 42.116 30.3453 41.7967 30.761C41.4774 31.1767 40.9008 31.3845 40.0669 31.3845C39.3683 31.3845 38.8274 31.2089 38.4443 30.8576C38.0612 30.5064 37.7982 30.102 37.6555 29.6444C37.5128 29.1868 37.4414 28.6003 37.4414 27.8849C37.4414 26.6282 37.663 25.7002 38.1063 25.1008C38.5495 24.5014 39.2369 24.2017 40.1684 24.2017C40.9797 24.2017 41.5244 24.3757 41.8023 24.7237C42.0803 25.0717 42.2568 25.344 42.3319 25.5406C42.407 25.7372 42.4446 26.0063 42.4446 26.3478H41.746Z" fill="#575B62"/>
<path d="M45.1836 24.2984H45.8597V31.2686H45.1836V24.2984Z" fill="#575B62"/>
<path d="M48.8711 24.2984H52.8601V24.7915H49.5472V27.4016H52.646V27.8753H49.5472V30.7755H52.9503V31.2686H48.8711V24.2984Z" fill="#575B62"/>
<path d="M54.9336 24.2984H59.8467V24.7915H57.7395V31.2686H57.0521V24.7915H54.9336V24.2984Z" fill="#575B62"/>
<path d="M63.9575 24.2983H64.8251L67.2591 31.2684H66.5568L65.8619 29.2093H62.9095L62.2371 31.27L61.5234 31.2684L63.9575 24.2983ZM63.0842 28.7356H65.6966L64.397 24.8783L63.0842 28.7356Z" fill="#575B62"/>
<path d="M69.9296 29.1319C69.9296 29.4864 69.9615 29.7603 70.0254 29.9537C70.0892 30.147 70.1868 30.3129 70.3183 30.4515C70.4498 30.5901 70.6395 30.7045 70.8874 30.7947C71.1353 30.8849 71.3757 30.9301 71.6086 30.9301C72.1044 30.9301 72.5176 30.7883 72.8481 30.5047C73.1787 30.2211 73.344 29.8634 73.344 29.4316C73.344 28.7871 72.9233 28.3505 72.0818 28.1185L70.955 27.7881C69.8958 27.4788 69.3661 26.902 69.3661 26.0577C69.3661 25.497 69.5633 25.0475 69.9578 24.7091C70.3522 24.3708 70.9212 24.2016 71.6649 24.2016C72.018 24.2016 72.311 24.2338 72.5439 24.2983C72.7768 24.3627 73.0003 24.4803 73.2143 24.6511C73.4284 24.8219 73.5843 25.0104 73.682 25.2167C73.7797 25.4229 73.8285 25.7129 73.8285 26.0867H73.1186C73.1186 25.7902 73.0885 25.5695 73.0284 25.4245C72.9683 25.2795 72.8387 25.1168 72.6396 24.9363C72.4406 24.7559 72.1119 24.6656 71.6537 24.6656C71.1729 24.6656 70.7879 24.7832 70.4986 25.0185C70.2094 25.2537 70.0648 25.5679 70.0648 25.9611C70.0648 26.3026 70.1587 26.5765 70.3465 26.7828C70.5343 26.989 70.8461 27.1566 71.2818 27.2854L72.4988 27.6528C73.0322 27.8075 73.4228 28.0266 73.6707 28.3102C73.9186 28.5938 74.0426 28.9611 74.0426 29.4123C74.0426 30.0117 73.821 30.4886 73.3777 30.843C72.9345 31.1975 72.3335 31.3748 71.5748 31.3748C70.8536 31.3748 70.3389 31.2555 70.031 31.0171C69.723 30.7786 69.5277 30.553 69.4451 30.3403C69.3624 30.1276 69.3079 29.9359 69.2816 29.7652C69.2553 29.5943 69.2422 29.3833 69.2422 29.1319H69.9296Z" fill="#575B62"/>
<path d="M81.6055 24.2984H85.5945V24.7915H82.2816V27.4016H85.3804V27.8753H82.2816V30.7755H85.6847V31.2686H81.6055V24.2984Z" fill="#575B62"/>
<path d="M92.8277 29.3833C92.8277 29.7313 92.7751 30.0278 92.6699 30.2727C92.5648 30.5176 92.4051 30.7286 92.1911 30.9059C91.977 31.0831 91.7441 31.2056 91.4924 31.2732C91.2408 31.3409 90.9121 31.3748 90.5064 31.3748C89.8002 31.3748 89.2594 31.2039 88.8837 30.8624C88.5081 30.5208 88.3203 30.0278 88.3203 29.3833V24.2983H88.9964V29.4219C88.9964 29.9053 89.1317 30.2759 89.4021 30.5337C89.6725 30.7915 90.0632 30.9204 90.574 30.9204C91.0773 30.9204 91.4642 30.7915 91.7346 30.5337C92.0051 30.2759 92.1403 29.9053 92.1403 29.4219V24.2983H92.8277V29.3833Z" fill="#575B62"/>
<path d="M95.8125 24.2984H98.1789C98.6071 24.2984 98.9526 24.3451 99.2156 24.4386C99.4785 24.532 99.7321 24.7141 99.9762 24.9848C100.22 25.2555 100.342 25.6293 100.342 26.1062C100.342 26.6283 100.234 27.0037 100.016 27.2324C99.7978 27.4613 99.6231 27.6046 99.4916 27.6626C99.3602 27.7206 99.1517 27.7786 98.8662 27.8366C99.332 27.9076 99.6382 28.03 99.7846 28.204C99.9312 28.378 100.042 28.5569 100.117 28.7406C100.192 28.9242 100.23 29.1192 100.23 29.3254L100.297 30.5531C100.297 30.7659 100.305 30.8964 100.32 30.9447C100.335 30.9931 100.384 31.101 100.466 31.2686H99.7565C99.6814 31.101 99.6438 30.956 99.6438 30.8335L99.6194 30.4855L99.5311 29.2771C99.5311 28.4908 99.0315 28.0977 98.0324 28.0977H96.4886V31.2686H95.8125V24.2984ZM96.4886 27.6433H98.0211C98.5169 27.6433 98.9114 27.5144 99.2043 27.2566C99.4973 26.9988 99.6438 26.654 99.6438 26.2222C99.6438 25.2619 99.1255 24.7818 98.0887 24.7818H96.4886V27.6433Z" fill="#575B62"/>
<path d="M103.365 25.4198C103.493 25.1749 103.722 24.9058 104.053 24.6126C104.383 24.3194 104.902 24.1727 105.608 24.1727C106.306 24.1727 106.825 24.3194 107.163 24.6126C107.501 24.9058 107.734 25.1846 107.861 25.4488C107.989 25.713 108.091 26.0498 108.166 26.4591C108.241 26.8683 108.278 27.305 108.278 27.769C108.278 28.233 108.241 28.6712 108.166 29.0838C108.091 29.4962 107.987 29.8362 107.856 30.1036C107.724 30.3711 107.495 30.6482 107.168 30.935C106.842 31.2218 106.321 31.3652 105.608 31.3652C105.232 31.3652 104.913 31.3233 104.65 31.2396C104.387 31.1558 104.139 31.0124 103.906 30.8094C103.673 30.6063 103.452 30.2905 103.241 29.8619C103.031 29.4334 102.926 28.7357 102.926 27.769C102.926 27.305 102.963 26.8699 103.038 26.4639C103.114 26.0578 103.223 25.7098 103.365 25.4198ZM103.647 27.769C103.647 29.8764 104.308 30.9302 105.63 30.9302C106.922 30.9302 107.568 29.8764 107.568 27.769C107.568 25.6615 106.915 24.6078 105.608 24.6078C104.301 24.6078 103.647 25.6615 103.647 27.769Z" fill="#575B62"/>
<path d="M111.082 24.2984H113.279C114.782 24.2984 115.533 24.9397 115.533 26.2222C115.533 26.8667 115.332 27.3613 114.93 27.7061C114.528 28.0509 113.955 28.2234 113.212 28.2234H111.758V31.2686H111.082V24.2984ZM111.758 27.769H113.122C113.678 27.769 114.108 27.6385 114.412 27.3775C114.716 27.1165 114.868 26.7443 114.868 26.2609C114.868 25.784 114.729 25.4166 114.451 25.1588C114.173 24.901 113.779 24.7721 113.268 24.7721H111.758V27.769Z" fill="#575B62"/>
<path d="M119.715 24.2983H120.583L123.017 31.2684H122.315L121.62 29.2093H118.667L117.995 31.27L117.281 31.2684L119.715 24.2983ZM118.842 28.7356H121.454L120.155 24.8783L118.842 28.7356Z" fill="#575B62"/>
<path d="M125.348 24.2984H129.337V24.7915H126.024V27.4016H129.123V27.8753H126.024V30.7755H129.427V31.2686H125.348V24.2984Z" fill="#575B62"/>
<path d="M133.825 24.2983H134.692L137.126 31.2684H136.424L135.729 29.2093H132.777L132.104 31.27L131.391 31.2684L133.825 24.2983ZM132.951 28.7356H135.564L134.264 24.8783L132.951 28.7356Z" fill="#575B62"/>
</g>
</g>
</g>
<defs>
<clipPath id="clip0_2639_25267">
<rect width="163" height="32" fill="white"/>
</clipPath>
</defs>
</svg>
