<svg width="458" height="480" viewBox="0 0 458 480" fill="none" xmlns="http://www.w3.org/2000/svg">
<g filter="url(#filter0_f_2474_18607)">
<ellipse cx="199.5" cy="270" rx="149.5" ry="70" fill="url(#paint0_linear_2474_18607)"/>
</g>
<g filter="url(#filter1_d_2474_18607)">
<rect x="50.4631" y="204.463" width="787.131" height="134.307" rx="8.79944" stroke="#575B62" stroke-width="0.926257" shape-rendering="crispEdges"/>
<rect x="59.7258" y="210.02" width="767.606" height="34.2715" rx="8.79944" fill="#EEEFF1"/>
<rect x="59.7258" y="210.02" width="767.606" height="34.2715" rx="8.79944" fill="#282A2F"/>
<rect x="59.7258" y="210.02" width="767.606" height="34.2715" rx="8.79944" stroke="#575B62" stroke-width="0.926257"/>
<path d="M69.498 231.656V222.579H70.7688L73.9588 228.933L77.1359 222.579H78.4197V231.656H77.3304V224.524L74.3738 230.398H73.5568L70.5872 224.563V231.656H69.498ZM83.1644 231.812C82.5506 231.812 82.006 231.669 81.5305 231.384C81.0636 231.099 80.6962 230.697 80.4282 230.178C80.1602 229.659 80.0262 229.054 80.0262 228.362C80.0262 227.662 80.1559 227.057 80.4153 226.547C80.6833 226.028 81.055 225.626 81.5305 225.341C82.0146 225.056 82.5679 224.913 83.1903 224.913C83.8301 224.913 84.3704 225.056 84.8113 225.341C85.2608 225.626 85.6023 226.007 85.8357 226.482C86.0778 226.949 86.1988 227.459 86.1988 228.012C86.1988 228.099 86.1988 228.19 86.1988 228.285C86.1988 228.38 86.1945 228.488 86.1858 228.609H80.8432V227.766H85.1225C85.0966 227.152 84.8977 226.677 84.526 226.34C84.1629 226.002 83.709 225.834 83.1644 225.834C82.7927 225.834 82.4468 225.92 82.127 226.093C81.8158 226.257 81.5651 226.504 81.3749 226.832C81.1847 227.161 81.0896 227.571 81.0896 228.064V228.427C81.0896 228.972 81.1847 229.43 81.3749 229.802C81.5737 230.165 81.8287 230.437 82.1399 230.619C82.4598 230.8 82.8013 230.891 83.1644 230.891C83.6226 230.891 83.9986 230.792 84.2926 230.593C84.5865 230.394 84.8026 230.117 84.941 229.763H86.0173C85.9049 230.161 85.719 230.515 85.4597 230.826C85.2003 231.129 84.8761 231.371 84.4871 231.553C84.1067 231.725 83.6658 231.812 83.1644 231.812ZM87.6688 231.656V225.069H88.6543L88.7192 226.002C88.9267 225.657 89.2033 225.389 89.5491 225.198C89.9036 225.008 90.2883 224.913 90.7032 224.913C91.0317 224.913 91.33 224.961 91.598 225.056C91.8746 225.142 92.1167 225.281 92.3242 225.471C92.5317 225.652 92.7002 225.881 92.8299 226.158C93.0547 225.76 93.3616 225.453 93.7506 225.237C94.1396 225.021 94.5546 224.913 94.9955 224.913C95.5056 224.913 95.9465 225.013 96.3182 225.211C96.6899 225.41 96.9752 225.717 97.1741 226.132C97.3729 226.538 97.4723 227.048 97.4723 227.662V231.656H96.396V227.779C96.396 227.139 96.262 226.659 95.994 226.34C95.726 226.011 95.3499 225.847 94.8658 225.847C94.5373 225.847 94.2391 225.933 93.9711 226.106C93.7117 226.279 93.5042 226.534 93.3486 226.871C93.193 227.2 93.1152 227.606 93.1152 228.09V231.656H92.0259V227.779C92.0259 227.139 91.8919 226.659 91.6239 226.34C91.3559 226.011 90.9842 225.847 90.5087 225.847C90.1802 225.847 89.8819 225.933 89.6139 226.106C89.3546 226.279 89.1471 226.534 88.9915 226.871C88.8359 227.2 88.7581 227.606 88.7581 228.09V231.656H87.6688ZM102.616 231.812C102.236 231.812 101.894 231.76 101.592 231.656C101.298 231.544 101.038 231.397 100.814 231.215C100.598 231.025 100.416 230.813 100.269 230.58L100.178 231.656H99.1927V222.32H100.282V226.132C100.49 225.786 100.788 225.497 101.177 225.263C101.574 225.03 102.05 224.913 102.603 224.913C103.243 224.913 103.796 225.064 104.263 225.367C104.739 225.661 105.106 226.067 105.365 226.586C105.625 227.105 105.754 227.697 105.754 228.362C105.754 229.02 105.625 229.612 105.365 230.139C105.106 230.658 104.739 231.068 104.263 231.371C103.788 231.665 103.239 231.812 102.616 231.812ZM102.487 230.865C102.91 230.865 103.282 230.761 103.602 230.554C103.93 230.347 104.185 230.057 104.367 229.685C104.557 229.305 104.652 228.864 104.652 228.362C104.652 227.852 104.557 227.412 104.367 227.04C104.185 226.668 103.93 226.378 103.602 226.171C103.282 225.963 102.91 225.86 102.487 225.86C102.054 225.86 101.674 225.963 101.345 226.171C101.017 226.378 100.762 226.668 100.58 227.04C100.399 227.412 100.308 227.852 100.308 228.362C100.308 228.864 100.399 229.305 100.58 229.685C100.762 230.057 101.017 230.347 101.345 230.554C101.674 230.761 102.054 230.865 102.487 230.865ZM110.176 231.812C109.562 231.812 109.018 231.669 108.542 231.384C108.075 231.099 107.708 230.697 107.44 230.178C107.172 229.659 107.038 229.054 107.038 228.362C107.038 227.662 107.168 227.057 107.427 226.547C107.695 226.028 108.067 225.626 108.542 225.341C109.026 225.056 109.579 224.913 110.202 224.913C110.842 224.913 111.382 225.056 111.823 225.341C112.272 225.626 112.614 226.007 112.847 226.482C113.089 226.949 113.21 227.459 113.21 228.012C113.21 228.099 113.21 228.19 113.21 228.285C113.21 228.38 113.206 228.488 113.197 228.609H107.855V227.766H112.134C112.108 227.152 111.909 226.677 111.538 226.34C111.174 226.002 110.721 225.834 110.176 225.834C109.804 225.834 109.458 225.92 109.139 226.093C108.827 226.257 108.577 226.504 108.386 226.832C108.196 227.161 108.101 227.571 108.101 228.064V228.427C108.101 228.972 108.196 229.43 108.386 229.802C108.585 230.165 108.84 230.437 109.152 230.619C109.471 230.8 109.813 230.891 110.176 230.891C110.634 230.891 111.01 230.792 111.304 230.593C111.598 230.394 111.814 230.117 111.953 229.763H113.029C112.916 230.161 112.731 230.515 112.471 230.826C112.212 231.129 111.888 231.371 111.499 231.553C111.118 231.725 110.677 231.812 110.176 231.812ZM114.68 231.656V225.069H115.666L115.744 226.314C115.891 226.011 116.081 225.756 116.314 225.549C116.556 225.341 116.842 225.185 117.17 225.082C117.499 224.969 117.875 224.913 118.298 224.913V226.054H117.845C117.568 226.054 117.304 226.089 117.053 226.158C116.803 226.227 116.578 226.344 116.379 226.508C116.189 226.672 116.038 226.893 115.925 227.169C115.822 227.446 115.77 227.792 115.77 228.207V231.656H114.68Z" fill="#9FA1A6"/>
<path d="M176.959 231.656L174.469 222.579H175.636L177.594 230.359L179.811 222.579H181.03L183.196 230.385L185.18 222.579H186.347L183.805 231.656H182.561L180.395 224.148L178.178 231.656H176.959ZM189.848 231.812C189.234 231.812 188.685 231.669 188.201 231.384C187.717 231.099 187.337 230.697 187.06 230.178C186.784 229.659 186.645 229.054 186.645 228.362C186.645 227.662 186.784 227.053 187.06 226.534C187.345 226.015 187.73 225.618 188.214 225.341C188.707 225.056 189.26 224.913 189.874 224.913C190.488 224.913 191.037 225.056 191.521 225.341C192.005 225.618 192.386 226.015 192.662 226.534C192.939 227.053 193.077 227.662 193.077 228.362C193.077 229.063 192.935 229.672 192.649 230.191C192.373 230.701 191.988 231.099 191.495 231.384C191.011 231.669 190.462 231.812 189.848 231.812ZM189.848 230.878C190.229 230.878 190.579 230.787 190.899 230.606C191.218 230.416 191.474 230.135 191.664 229.763C191.863 229.383 191.962 228.916 191.962 228.362C191.962 227.801 191.867 227.334 191.677 226.962C191.486 226.59 191.231 226.314 190.912 226.132C190.592 225.942 190.246 225.847 189.874 225.847C189.502 225.847 189.152 225.942 188.824 226.132C188.504 226.314 188.245 226.59 188.046 226.962C187.856 227.334 187.76 227.801 187.76 228.362C187.76 228.916 187.856 229.383 188.046 229.763C188.245 230.135 188.5 230.416 188.811 230.606C189.131 230.787 189.477 230.878 189.848 230.878ZM194.617 231.656V225.069H195.603L195.68 226.314C195.827 226.011 196.018 225.756 196.251 225.549C196.493 225.341 196.778 225.185 197.107 225.082C197.435 224.969 197.811 224.913 198.235 224.913V226.054H197.781C197.505 226.054 197.241 226.089 196.99 226.158C196.739 226.227 196.515 226.344 196.316 226.508C196.126 226.672 195.974 226.893 195.862 227.169C195.758 227.446 195.706 227.792 195.706 228.207V231.656H194.617ZM203.487 231.656L200.375 228.064L203.228 225.069H204.564L201.296 228.453L201.309 227.675L204.875 231.656H203.487ZM199.467 231.656V222.32H200.557V231.656H199.467ZM208.086 231.812C207.532 231.812 207.053 231.721 206.646 231.54C206.24 231.358 205.92 231.103 205.687 230.774C205.462 230.446 205.324 230.061 205.272 229.62H206.387C206.43 229.854 206.517 230.066 206.646 230.256C206.785 230.446 206.975 230.602 207.217 230.723C207.459 230.835 207.753 230.891 208.099 230.891C208.401 230.891 208.652 230.848 208.851 230.761C209.05 230.666 209.197 230.541 209.292 230.385C209.395 230.23 209.447 230.057 209.447 229.867C209.447 229.599 209.382 229.391 209.253 229.244C209.132 229.097 208.95 228.985 208.708 228.907C208.475 228.829 208.185 228.76 207.839 228.7C207.528 228.648 207.234 228.579 206.957 228.492C206.681 228.397 206.434 228.28 206.218 228.142C206.011 227.995 205.842 227.814 205.713 227.597C205.592 227.381 205.531 227.122 205.531 226.819C205.531 226.448 205.626 226.119 205.816 225.834C206.015 225.54 206.292 225.315 206.646 225.159C207.009 224.995 207.433 224.913 207.917 224.913C208.617 224.913 209.184 225.082 209.616 225.419C210.057 225.756 210.312 226.24 210.381 226.871H209.305C209.27 226.543 209.127 226.288 208.877 226.106C208.635 225.925 208.31 225.834 207.904 225.834C207.489 225.834 207.174 225.916 206.957 226.08C206.741 226.244 206.633 226.461 206.633 226.729C206.633 226.901 206.689 227.061 206.802 227.208C206.914 227.347 207.087 227.463 207.321 227.558C207.563 227.654 207.857 227.731 208.202 227.792C208.652 227.87 209.054 227.973 209.408 228.103C209.763 228.233 210.044 228.427 210.251 228.687C210.467 228.937 210.571 229.3 210.562 229.776C210.571 230.191 210.472 230.55 210.264 230.852C210.057 231.155 209.767 231.393 209.395 231.565C209.024 231.73 208.587 231.812 208.086 231.812ZM212.156 234.509V225.069H213.142L213.233 226.132C213.371 225.916 213.548 225.717 213.764 225.536C213.98 225.345 214.24 225.194 214.542 225.082C214.845 224.969 215.191 224.913 215.58 224.913C216.211 224.913 216.76 225.064 217.227 225.367C217.702 225.67 218.069 226.08 218.329 226.599C218.588 227.118 218.718 227.71 218.718 228.375C218.718 229.041 218.588 229.633 218.329 230.152C218.069 230.662 217.702 231.068 217.227 231.371C216.751 231.665 216.198 231.812 215.567 231.812C215.039 231.812 214.573 231.704 214.166 231.488C213.769 231.272 213.462 230.969 213.246 230.58V234.509H212.156ZM215.45 230.865C215.865 230.865 216.237 230.761 216.565 230.554C216.894 230.347 217.149 230.057 217.33 229.685C217.521 229.305 217.616 228.864 217.616 228.362C217.616 227.852 217.521 227.412 217.33 227.04C217.149 226.668 216.894 226.378 216.565 226.171C216.237 225.963 215.865 225.86 215.45 225.86C215.018 225.86 214.637 225.963 214.309 226.171C213.98 226.378 213.725 226.668 213.544 227.04C213.362 227.412 213.271 227.852 213.271 228.362C213.271 228.864 213.362 229.305 213.544 229.685C213.725 230.057 213.98 230.347 214.309 230.554C214.637 230.761 215.018 230.865 215.45 230.865ZM222.4 231.812C221.873 231.812 221.432 231.721 221.078 231.54C220.732 231.349 220.473 231.099 220.3 230.787C220.127 230.476 220.04 230.139 220.04 229.776C220.04 229.335 220.153 228.959 220.377 228.648C220.611 228.337 220.935 228.103 221.35 227.948C221.774 227.783 222.266 227.701 222.828 227.701H224.553C224.553 227.286 224.492 226.94 224.371 226.664C224.25 226.387 224.069 226.18 223.827 226.041C223.593 225.903 223.295 225.834 222.932 225.834C222.526 225.834 222.171 225.938 221.869 226.145C221.575 226.344 221.393 226.642 221.324 227.04H220.209C220.261 226.582 220.416 226.197 220.676 225.886C220.944 225.566 221.276 225.324 221.674 225.159C222.072 224.995 222.491 224.913 222.932 224.913C223.537 224.913 224.039 225.025 224.436 225.25C224.843 225.466 225.145 225.773 225.344 226.171C225.543 226.56 225.642 227.018 225.642 227.546V231.656H224.67L224.605 230.502C224.518 230.684 224.406 230.857 224.268 231.021C224.138 231.176 223.982 231.315 223.801 231.436C223.619 231.548 223.412 231.639 223.178 231.708C222.954 231.777 222.694 231.812 222.4 231.812ZM222.569 230.891C222.872 230.891 223.144 230.831 223.386 230.71C223.628 230.58 223.835 230.407 224.008 230.191C224.19 229.966 224.324 229.72 224.41 229.452C224.505 229.175 224.553 228.894 224.553 228.609V228.544H222.919C222.504 228.544 222.167 228.596 221.908 228.7C221.648 228.795 221.462 228.933 221.35 229.115C221.238 229.296 221.181 229.499 221.181 229.724C221.181 229.957 221.233 230.165 221.337 230.347C221.449 230.519 221.609 230.653 221.817 230.749C222.024 230.844 222.275 230.891 222.569 230.891ZM230.296 231.812C229.683 231.812 229.129 231.669 228.636 231.384C228.152 231.09 227.772 230.684 227.495 230.165C227.219 229.646 227.08 229.045 227.08 228.362C227.08 227.671 227.219 227.07 227.495 226.56C227.772 226.041 228.152 225.639 228.636 225.354C229.129 225.06 229.687 224.913 230.309 224.913C231.079 224.913 231.723 225.116 232.241 225.523C232.76 225.92 233.093 226.461 233.24 227.144H232.125C232.03 226.729 231.814 226.409 231.476 226.184C231.139 225.959 230.742 225.847 230.283 225.847C229.912 225.847 229.566 225.942 229.246 226.132C228.926 226.314 228.671 226.595 228.481 226.975C228.291 227.347 228.196 227.809 228.196 228.362C228.196 228.777 228.252 229.145 228.364 229.465C228.477 229.776 228.628 230.04 228.818 230.256C229.008 230.463 229.229 230.623 229.479 230.736C229.739 230.839 230.007 230.891 230.283 230.891C230.595 230.891 230.876 230.839 231.126 230.736C231.377 230.632 231.589 230.485 231.762 230.295C231.943 230.096 232.064 229.858 232.125 229.581H233.24C233.102 230.247 232.769 230.787 232.241 231.202C231.714 231.609 231.066 231.812 230.296 231.812ZM237.652 231.812C237.038 231.812 236.494 231.669 236.018 231.384C235.551 231.099 235.184 230.697 234.916 230.178C234.648 229.659 234.514 229.054 234.514 228.362C234.514 227.662 234.644 227.057 234.903 226.547C235.171 226.028 235.543 225.626 236.018 225.341C236.502 225.056 237.056 224.913 237.678 224.913C238.318 224.913 238.858 225.056 239.299 225.341C239.749 225.626 240.09 226.007 240.323 226.482C240.565 226.949 240.686 227.459 240.686 228.012C240.686 228.099 240.686 228.19 240.686 228.285C240.686 228.38 240.682 228.488 240.674 228.609H235.331V227.766H239.61C239.584 227.152 239.385 226.677 239.014 226.34C238.651 226.002 238.197 225.834 237.652 225.834C237.28 225.834 236.935 225.92 236.615 226.093C236.303 226.257 236.053 226.504 235.863 226.832C235.672 227.161 235.577 227.571 235.577 228.064V228.427C235.577 228.972 235.672 229.43 235.863 229.802C236.061 230.165 236.316 230.437 236.628 230.619C236.948 230.8 237.289 230.891 237.652 230.891C238.11 230.891 238.486 230.792 238.78 230.593C239.074 230.394 239.29 230.117 239.429 229.763H240.505C240.393 230.161 240.207 230.515 239.947 230.826C239.688 231.129 239.364 231.371 238.975 231.553C238.594 231.725 238.153 231.812 237.652 231.812ZM247.74 231.812C247.213 231.812 246.772 231.721 246.418 231.54C246.072 231.349 245.813 231.099 245.64 230.787C245.467 230.476 245.38 230.139 245.38 229.776C245.38 229.335 245.493 228.959 245.717 228.648C245.951 228.337 246.275 228.103 246.69 227.948C247.114 227.783 247.606 227.701 248.168 227.701H249.893C249.893 227.286 249.832 226.94 249.711 226.664C249.59 226.387 249.409 226.18 249.167 226.041C248.933 225.903 248.635 225.834 248.272 225.834C247.866 225.834 247.511 225.938 247.209 226.145C246.915 226.344 246.733 226.642 246.664 227.04H245.549C245.601 226.582 245.756 226.197 246.016 225.886C246.284 225.566 246.616 225.324 247.014 225.159C247.412 224.995 247.831 224.913 248.272 224.913C248.877 224.913 249.379 225.025 249.776 225.25C250.183 225.466 250.485 225.773 250.684 226.171C250.883 226.56 250.982 227.018 250.982 227.546V231.656H250.01L249.945 230.502C249.858 230.684 249.746 230.857 249.608 231.021C249.478 231.176 249.322 231.315 249.141 231.436C248.959 231.548 248.752 231.639 248.518 231.708C248.294 231.777 248.034 231.812 247.74 231.812ZM247.909 230.891C248.212 230.891 248.484 230.831 248.726 230.71C248.968 230.58 249.175 230.407 249.348 230.191C249.53 229.966 249.664 229.72 249.75 229.452C249.845 229.175 249.893 228.894 249.893 228.609V228.544H248.259C247.844 228.544 247.507 228.596 247.248 228.7C246.988 228.795 246.802 228.933 246.69 229.115C246.578 229.296 246.521 229.499 246.521 229.724C246.521 229.957 246.573 230.165 246.677 230.347C246.789 230.519 246.949 230.653 247.157 230.749C247.364 230.844 247.615 230.891 247.909 230.891Z" fill="#EEEFF1"/>
<g filter="url(#filter2_d_2474_18607)">
<rect x="292.874" y="214.188" width="127.903" height="25.9352" rx="9.26257" fill="#4E3030" shape-rendering="crispEdges"/>
<rect x="293.337" y="214.651" width="126.977" height="25.0089" rx="8.79944" stroke="#575B62" stroke-width="0.926257" shape-rendering="crispEdges"/>
<path d="M305.494 221.945H313.599C313.599 221.945 314.757 221.945 314.757 223.103V231.208C314.757 231.208 314.757 232.366 313.599 232.366H305.494C305.494 232.366 304.336 232.366 304.336 231.208V223.103C304.336 223.103 304.336 221.945 305.494 221.945Z" stroke="#EEEFF1" stroke-width="0.926257" stroke-linecap="round" stroke-linejoin="round"/>
<path d="M311.284 225.418L307.81 228.891" stroke="#EEEFF1" stroke-width="0.926257" stroke-linecap="round" stroke-linejoin="round"/>
<path d="M307.81 225.418L311.284 228.891" stroke="#EEEFF1" stroke-width="0.926257" stroke-linecap="round" stroke-linejoin="round"/>
<path d="M323.487 231.654V222.577H326.417C327.126 222.577 327.706 222.698 328.155 222.94C328.605 223.173 328.937 223.489 329.154 223.887C329.37 224.284 329.478 224.734 329.478 225.235C329.478 225.719 329.365 226.165 329.141 226.571C328.924 226.977 328.587 227.302 328.129 227.544C327.671 227.786 327.083 227.907 326.366 227.907H324.576V231.654H323.487ZM328.285 231.654L326.288 227.595H327.507L329.569 231.654H328.285ZM324.576 227.051H326.34C327.031 227.051 327.537 226.882 327.857 226.545C328.185 226.208 328.35 225.776 328.35 225.248C328.35 224.712 328.19 224.289 327.87 223.977C327.559 223.658 327.044 223.498 326.327 223.498H324.576V227.051ZM333.607 231.81C332.994 231.81 332.449 231.667 331.973 231.382C331.507 231.097 331.139 230.695 330.871 230.176C330.603 229.657 330.469 229.052 330.469 228.361C330.469 227.66 330.599 227.055 330.858 226.545C331.126 226.026 331.498 225.624 331.973 225.339C332.458 225.054 333.011 224.911 333.633 224.911C334.273 224.911 334.813 225.054 335.254 225.339C335.704 225.624 336.045 226.005 336.279 226.48C336.521 226.947 336.642 227.457 336.642 228.01C336.642 228.097 336.642 228.188 336.642 228.283C336.642 228.378 336.637 228.486 336.629 228.607H331.286V227.764H335.565C335.54 227.15 335.341 226.675 334.969 226.338C334.606 226 334.152 225.832 333.607 225.832C333.236 225.832 332.89 225.918 332.57 226.091C332.259 226.255 332.008 226.502 331.818 226.83C331.628 227.159 331.533 227.57 331.533 228.062V228.425C331.533 228.97 331.628 229.428 331.818 229.8C332.017 230.163 332.272 230.435 332.583 230.617C332.903 230.798 333.244 230.889 333.607 230.889C334.066 230.889 334.442 230.79 334.736 230.591C335.029 230.392 335.246 230.115 335.384 229.761H336.46C336.348 230.159 336.162 230.513 335.903 230.824C335.643 231.127 335.319 231.369 334.93 231.551C334.55 231.723 334.109 231.81 333.607 231.81ZM338.112 231.654V225.067H339.097L339.162 226C339.37 225.655 339.646 225.387 339.992 225.196C340.346 225.006 340.731 224.911 341.146 224.911C341.475 224.911 341.773 224.959 342.041 225.054C342.318 225.14 342.56 225.279 342.767 225.469C342.975 225.65 343.143 225.879 343.273 226.156C343.498 225.758 343.805 225.451 344.194 225.235C344.583 225.019 344.998 224.911 345.438 224.911C345.948 224.911 346.389 225.011 346.761 225.209C347.133 225.408 347.418 225.715 347.617 226.13C347.816 226.536 347.915 227.046 347.915 227.66V231.654H346.839V227.777C346.839 227.137 346.705 226.657 346.437 226.338C346.169 226.009 345.793 225.845 345.309 225.845C344.98 225.845 344.682 225.931 344.414 226.104C344.155 226.277 343.947 226.532 343.792 226.869C343.636 227.198 343.558 227.604 343.558 228.088V231.654H342.469V227.777C342.469 227.137 342.335 226.657 342.067 226.338C341.799 226.009 341.427 225.845 340.952 225.845C340.623 225.845 340.325 225.931 340.057 226.104C339.798 226.277 339.59 226.532 339.434 226.869C339.279 227.198 339.201 227.604 339.201 228.088V231.654H338.112ZM352.566 231.81C351.953 231.81 351.404 231.667 350.919 231.382C350.435 231.097 350.055 230.695 349.778 230.176C349.502 229.657 349.363 229.052 349.363 228.361C349.363 227.66 349.502 227.051 349.778 226.532C350.064 226.013 350.448 225.616 350.932 225.339C351.425 225.054 351.978 224.911 352.592 224.911C353.206 224.911 353.755 225.054 354.239 225.339C354.723 225.616 355.104 226.013 355.38 226.532C355.657 227.051 355.795 227.66 355.795 228.361C355.795 229.061 355.653 229.67 355.367 230.189C355.091 230.699 354.706 231.097 354.213 231.382C353.729 231.667 353.18 231.81 352.566 231.81ZM352.566 230.876C352.947 230.876 353.297 230.785 353.617 230.604C353.937 230.414 354.192 230.133 354.382 229.761C354.581 229.381 354.68 228.914 354.68 228.361C354.68 227.799 354.585 227.332 354.395 226.96C354.205 226.588 353.95 226.312 353.63 226.13C353.31 225.94 352.964 225.845 352.592 225.845C352.221 225.845 351.87 225.94 351.542 226.13C351.222 226.312 350.963 226.588 350.764 226.96C350.574 227.332 350.479 227.799 350.479 228.361C350.479 228.914 350.574 229.381 350.764 229.761C350.963 230.133 351.218 230.414 351.529 230.604C351.849 230.785 352.195 230.876 352.566 230.876ZM358.912 231.654L356.409 225.067H357.551L359.548 230.604L361.545 225.067H362.66L360.17 231.654H358.912ZM366.419 231.81C365.805 231.81 365.26 231.667 364.785 231.382C364.318 231.097 363.951 230.695 363.683 230.176C363.415 229.657 363.281 229.052 363.281 228.361C363.281 227.66 363.41 227.055 363.67 226.545C363.938 226.026 364.31 225.624 364.785 225.339C365.269 225.054 365.822 224.911 366.445 224.911C367.085 224.911 367.625 225.054 368.066 225.339C368.515 225.624 368.857 226.005 369.09 226.48C369.332 226.947 369.453 227.457 369.453 228.01C369.453 228.097 369.453 228.188 369.453 228.283C369.453 228.378 369.449 228.486 369.44 228.607H364.098V227.764H368.377C368.351 227.15 368.152 226.675 367.78 226.338C367.417 226 366.964 225.832 366.419 225.832C366.047 225.832 365.701 225.918 365.381 226.091C365.07 226.255 364.82 226.502 364.629 226.83C364.439 227.159 364.344 227.57 364.344 228.062V228.425C364.344 228.97 364.439 229.428 364.629 229.8C364.828 230.163 365.083 230.435 365.394 230.617C365.714 230.798 366.056 230.889 366.419 230.889C366.877 230.889 367.253 230.79 367.547 230.591C367.841 230.392 368.057 230.115 368.195 229.761H369.272C369.159 230.159 368.974 230.513 368.714 230.824C368.455 231.127 368.131 231.369 367.742 231.551C367.361 231.723 366.92 231.81 366.419 231.81ZM374.445 231.654V222.577H377.376C378.085 222.577 378.664 222.698 379.114 222.94C379.563 223.173 379.896 223.489 380.112 223.887C380.328 224.284 380.436 224.734 380.436 225.235C380.436 225.719 380.324 226.165 380.099 226.571C379.883 226.977 379.546 227.302 379.088 227.544C378.63 227.786 378.042 227.907 377.324 227.907H375.535V231.654H374.445ZM379.243 231.654L377.246 227.595H378.465L380.527 231.654H379.243ZM375.535 227.051H377.298C377.99 227.051 378.496 226.882 378.815 226.545C379.144 226.208 379.308 225.776 379.308 225.248C379.308 224.712 379.148 224.289 378.828 223.977C378.517 223.658 378.003 223.498 377.285 223.498H375.535V227.051ZM382.196 231.654V225.067H383.286V231.654H382.196ZM382.741 223.692C382.525 223.692 382.343 223.623 382.196 223.485C382.058 223.338 381.989 223.156 381.989 222.94C381.989 222.724 382.058 222.551 382.196 222.421C382.343 222.283 382.525 222.214 382.741 222.214C382.949 222.214 383.126 222.283 383.273 222.421C383.42 222.551 383.493 222.724 383.493 222.94C383.493 223.156 383.42 223.338 383.273 223.485C383.126 223.623 382.949 223.692 382.741 223.692ZM387.801 234.663C387.214 234.663 386.691 234.585 386.232 234.429C385.783 234.282 385.428 234.053 385.169 233.742C384.918 233.431 384.793 233.046 384.793 232.588C384.793 232.389 384.832 232.177 384.91 231.953C384.996 231.728 385.139 231.507 385.338 231.291C385.545 231.075 385.835 230.881 386.206 230.708L386.972 231.149C386.513 231.339 386.211 231.555 386.064 231.797C385.925 232.039 385.856 232.268 385.856 232.484C385.856 232.77 385.938 233.007 386.103 233.197C386.276 233.388 386.509 233.53 386.803 233.625C387.097 233.72 387.43 233.768 387.801 233.768C388.182 233.768 388.506 233.716 388.774 233.612C389.042 233.509 389.25 233.362 389.396 233.172C389.552 232.981 389.63 232.761 389.63 232.51C389.63 232.199 389.513 231.94 389.28 231.732C389.055 231.533 388.627 231.417 387.996 231.382C387.477 231.347 387.045 231.3 386.699 231.239C386.353 231.179 386.064 231.11 385.83 231.032C385.606 230.945 385.415 230.85 385.26 230.747C385.113 230.643 384.979 230.535 384.858 230.422V230.124L386.129 228.866L387.088 229.203L385.766 230.383L385.934 229.917C386.029 229.986 386.12 230.051 386.206 230.111C386.293 230.163 386.41 230.215 386.557 230.267C386.712 230.31 386.92 230.353 387.179 230.396C387.447 230.431 387.801 230.466 388.242 230.5C388.839 230.543 389.314 230.647 389.669 230.811C390.032 230.976 390.296 231.196 390.46 231.473C390.624 231.749 390.706 232.082 390.706 232.471C390.706 232.834 390.602 233.18 390.395 233.509C390.196 233.846 389.881 234.122 389.448 234.339C389.025 234.555 388.476 234.663 387.801 234.663ZM387.788 229.592C387.244 229.592 386.781 229.489 386.401 229.281C386.021 229.074 385.731 228.793 385.532 228.438C385.333 228.084 385.234 227.686 385.234 227.245C385.234 226.813 385.333 226.424 385.532 226.078C385.731 225.724 386.021 225.443 386.401 225.235C386.781 225.019 387.244 224.911 387.788 224.911C388.342 224.911 388.809 225.019 389.189 225.235C389.569 225.443 389.859 225.724 390.058 226.078C390.257 226.424 390.356 226.813 390.356 227.245C390.356 227.686 390.257 228.084 390.058 228.438C389.859 228.793 389.569 229.074 389.189 229.281C388.809 229.489 388.342 229.592 387.788 229.592ZM387.788 228.698C388.264 228.698 388.636 228.577 388.904 228.335C389.172 228.084 389.306 227.721 389.306 227.245C389.306 226.778 389.172 226.424 388.904 226.182C388.636 225.94 388.264 225.819 387.788 225.819C387.33 225.819 386.959 225.94 386.673 226.182C386.397 226.424 386.258 226.778 386.258 227.245C386.258 227.721 386.397 228.084 386.673 228.335C386.959 228.577 387.33 228.698 387.788 228.698ZM388.878 225.987L388.554 225.067H391.225V225.884L388.878 225.987ZM392.477 231.654V222.318H393.566V226.169C393.782 225.771 394.085 225.464 394.474 225.248C394.872 225.024 395.304 224.911 395.771 224.911C396.272 224.911 396.709 225.011 397.08 225.209C397.452 225.408 397.737 225.715 397.936 226.13C398.135 226.536 398.234 227.055 398.234 227.686V231.654H397.158V227.803C397.158 227.155 397.016 226.666 396.73 226.338C396.454 226.009 396.056 225.845 395.537 225.845C395.165 225.845 394.828 225.936 394.526 226.117C394.232 226.29 393.998 226.545 393.826 226.882C393.653 227.211 393.566 227.621 393.566 228.114V231.654H392.477ZM402.529 231.654C402.14 231.654 401.803 231.594 401.518 231.473C401.232 231.352 401.012 231.149 400.856 230.863C400.709 230.569 400.636 230.176 400.636 229.683V225.987H399.495V225.067H400.636L400.778 223.459H401.725V225.067H403.631V225.987H401.725V229.683C401.725 230.09 401.807 230.366 401.971 230.513C402.136 230.651 402.425 230.721 402.84 230.721H403.566V231.654H402.529ZM407.528 231.81C406.975 231.81 406.495 231.719 406.089 231.538C405.683 231.356 405.363 231.101 405.129 230.773C404.905 230.444 404.766 230.059 404.714 229.618H405.83C405.873 229.852 405.959 230.064 406.089 230.254C406.227 230.444 406.418 230.6 406.66 230.721C406.902 230.833 407.196 230.889 407.541 230.889C407.844 230.889 408.095 230.846 408.294 230.76C408.492 230.664 408.639 230.539 408.734 230.383C408.838 230.228 408.89 230.055 408.89 229.865C408.89 229.597 408.825 229.389 408.695 229.242C408.574 229.095 408.393 228.983 408.151 228.905C407.917 228.827 407.628 228.758 407.282 228.698C406.971 228.646 406.677 228.577 406.4 228.49C406.124 228.395 405.877 228.278 405.661 228.14C405.454 227.993 405.285 227.812 405.155 227.595C405.034 227.379 404.974 227.12 404.974 226.817C404.974 226.446 405.069 226.117 405.259 225.832C405.458 225.538 405.735 225.313 406.089 225.158C406.452 224.993 406.876 224.911 407.36 224.911C408.06 224.911 408.626 225.08 409.059 225.417C409.499 225.754 409.755 226.238 409.824 226.869H408.747C408.713 226.541 408.57 226.286 408.319 226.104C408.077 225.923 407.753 225.832 407.347 225.832C406.932 225.832 406.616 225.914 406.4 226.078C406.184 226.242 406.076 226.459 406.076 226.727C406.076 226.9 406.132 227.059 406.245 227.206C406.357 227.345 406.53 227.461 406.763 227.557C407.005 227.652 407.299 227.729 407.645 227.79C408.095 227.868 408.497 227.971 408.851 228.101C409.206 228.231 409.487 228.425 409.694 228.685C409.91 228.935 410.014 229.299 410.005 229.774C410.014 230.189 409.914 230.548 409.707 230.85C409.499 231.153 409.21 231.391 408.838 231.564C408.466 231.728 408.03 231.81 407.528 231.81Z" fill="#EEEFF1"/>
</g>
<rect x="59.7258" y="254.481" width="768.606" height="34.2715" rx="8.79944" fill="#EEEFF1"/>
<rect x="59.7258" y="254.481" width="768.606" height="34.2715" rx="8.79944" fill="#282A2F"/>
<rect x="59.7258" y="254.481" width="768.606" height="34.2715" rx="8.79944" stroke="#575B62" stroke-width="0.926257"/>
<path d="M69.498 276.117V267.04H70.7688L73.9588 273.394L77.1359 267.04H78.4197V276.117H77.3304V268.985L74.3738 274.859H73.5568L70.5872 269.024V276.117H69.498ZM83.1644 276.273C82.5506 276.273 82.006 276.13 81.5305 275.845C81.0636 275.56 80.6962 275.158 80.4282 274.639C80.1602 274.12 80.0262 273.515 80.0262 272.823C80.0262 272.123 80.1559 271.518 80.4153 271.008C80.6833 270.489 81.055 270.087 81.5305 269.802C82.0146 269.517 82.5679 269.374 83.1903 269.374C83.8301 269.374 84.3704 269.517 84.8113 269.802C85.2608 270.087 85.6023 270.468 85.8357 270.943C86.0778 271.41 86.1988 271.92 86.1988 272.473C86.1988 272.56 86.1988 272.651 86.1988 272.746C86.1988 272.841 86.1945 272.949 86.1858 273.07H80.8432V272.227H85.1225C85.0966 271.613 84.8977 271.138 84.526 270.8C84.1629 270.463 83.709 270.295 83.1644 270.295C82.7927 270.295 82.4468 270.381 82.127 270.554C81.8158 270.718 81.5651 270.965 81.3749 271.293C81.1847 271.622 81.0896 272.032 81.0896 272.525V272.888C81.0896 273.433 81.1847 273.891 81.3749 274.263C81.5737 274.626 81.8287 274.898 82.1399 275.08C82.4598 275.261 82.8013 275.352 83.1644 275.352C83.6226 275.352 83.9986 275.253 84.2926 275.054C84.5865 274.855 84.8026 274.578 84.941 274.224H86.0173C85.9049 274.622 85.719 274.976 85.4597 275.287C85.2003 275.59 84.8761 275.832 84.4871 276.013C84.1067 276.186 83.6658 276.273 83.1644 276.273ZM87.6688 276.117V269.53H88.6543L88.7192 270.463C88.9267 270.118 89.2033 269.85 89.5491 269.659C89.9036 269.469 90.2883 269.374 90.7032 269.374C91.0317 269.374 91.33 269.422 91.598 269.517C91.8746 269.603 92.1167 269.741 92.3242 269.932C92.5317 270.113 92.7002 270.342 92.8299 270.619C93.0547 270.221 93.3616 269.914 93.7506 269.698C94.1396 269.482 94.5546 269.374 94.9955 269.374C95.5056 269.374 95.9465 269.473 96.3182 269.672C96.6899 269.871 96.9752 270.178 97.1741 270.593C97.3729 270.999 97.4723 271.509 97.4723 272.123V276.117H96.396V272.24C96.396 271.6 96.262 271.12 95.994 270.8C95.726 270.472 95.3499 270.308 94.8658 270.308C94.5373 270.308 94.2391 270.394 93.9711 270.567C93.7117 270.74 93.5042 270.995 93.3486 271.332C93.193 271.661 93.1152 272.067 93.1152 272.551V276.117H92.0259V272.24C92.0259 271.6 91.8919 271.12 91.6239 270.8C91.3559 270.472 90.9842 270.308 90.5087 270.308C90.1802 270.308 89.8819 270.394 89.6139 270.567C89.3546 270.74 89.1471 270.995 88.9915 271.332C88.8359 271.661 88.7581 272.067 88.7581 272.551V276.117H87.6688ZM102.616 276.273C102.236 276.273 101.894 276.221 101.592 276.117C101.298 276.005 101.038 275.858 100.814 275.676C100.598 275.486 100.416 275.274 100.269 275.041L100.178 276.117H99.1927V266.781H100.282V270.593C100.49 270.247 100.788 269.958 101.177 269.724C101.574 269.491 102.05 269.374 102.603 269.374C103.243 269.374 103.796 269.525 104.263 269.828C104.739 270.122 105.106 270.528 105.365 271.047C105.625 271.566 105.754 272.158 105.754 272.823C105.754 273.48 105.625 274.073 105.365 274.6C105.106 275.119 104.739 275.529 104.263 275.832C103.788 276.126 103.239 276.273 102.616 276.273ZM102.487 275.326C102.91 275.326 103.282 275.222 103.602 275.015C103.93 274.807 104.185 274.518 104.367 274.146C104.557 273.766 104.652 273.325 104.652 272.823C104.652 272.313 104.557 271.872 104.367 271.501C104.185 271.129 103.93 270.839 103.602 270.632C103.282 270.424 102.91 270.321 102.487 270.321C102.054 270.321 101.674 270.424 101.345 270.632C101.017 270.839 100.762 271.129 100.58 271.501C100.399 271.872 100.308 272.313 100.308 272.823C100.308 273.325 100.399 273.766 100.58 274.146C100.762 274.518 101.017 274.807 101.345 275.015C101.674 275.222 102.054 275.326 102.487 275.326ZM110.176 276.273C109.562 276.273 109.018 276.13 108.542 275.845C108.075 275.56 107.708 275.158 107.44 274.639C107.172 274.12 107.038 273.515 107.038 272.823C107.038 272.123 107.168 271.518 107.427 271.008C107.695 270.489 108.067 270.087 108.542 269.802C109.026 269.517 109.579 269.374 110.202 269.374C110.842 269.374 111.382 269.517 111.823 269.802C112.272 270.087 112.614 270.468 112.847 270.943C113.089 271.41 113.21 271.92 113.21 272.473C113.21 272.56 113.21 272.651 113.21 272.746C113.21 272.841 113.206 272.949 113.197 273.07H107.855V272.227H112.134C112.108 271.613 111.909 271.138 111.538 270.8C111.174 270.463 110.721 270.295 110.176 270.295C109.804 270.295 109.458 270.381 109.139 270.554C108.827 270.718 108.577 270.965 108.386 271.293C108.196 271.622 108.101 272.032 108.101 272.525V272.888C108.101 273.433 108.196 273.891 108.386 274.263C108.585 274.626 108.84 274.898 109.152 275.08C109.471 275.261 109.813 275.352 110.176 275.352C110.634 275.352 111.01 275.253 111.304 275.054C111.598 274.855 111.814 274.578 111.953 274.224H113.029C112.916 274.622 112.731 274.976 112.471 275.287C112.212 275.59 111.888 275.832 111.499 276.013C111.118 276.186 110.677 276.273 110.176 276.273ZM114.68 276.117V269.53H115.666L115.744 270.775C115.891 270.472 116.081 270.217 116.314 270.009C116.556 269.802 116.842 269.646 117.17 269.543C117.499 269.43 117.875 269.374 118.298 269.374V270.515H117.845C117.568 270.515 117.304 270.55 117.053 270.619C116.803 270.688 116.578 270.805 116.379 270.969C116.189 271.133 116.038 271.354 115.925 271.63C115.822 271.907 115.77 272.253 115.77 272.668V276.117H114.68Z" fill="#9FA1A6"/>
<path d="M176.959 276.117L174.469 267.04H175.636L177.594 274.82L179.811 267.04H181.03L183.196 274.846L185.18 267.04H186.347L183.805 276.117H182.561L180.395 268.609L178.178 276.117H176.959ZM189.848 276.273C189.234 276.273 188.685 276.13 188.201 275.845C187.717 275.56 187.337 275.158 187.06 274.639C186.784 274.12 186.645 273.515 186.645 272.823C186.645 272.123 186.784 271.514 187.06 270.995C187.345 270.476 187.73 270.079 188.214 269.802C188.707 269.517 189.26 269.374 189.874 269.374C190.488 269.374 191.037 269.517 191.521 269.802C192.005 270.079 192.386 270.476 192.662 270.995C192.939 271.514 193.077 272.123 193.077 272.823C193.077 273.524 192.935 274.133 192.649 274.652C192.373 275.162 191.988 275.56 191.495 275.845C191.011 276.13 190.462 276.273 189.848 276.273ZM189.848 275.339C190.229 275.339 190.579 275.248 190.899 275.067C191.218 274.877 191.474 274.596 191.664 274.224C191.863 273.844 191.962 273.377 191.962 272.823C191.962 272.261 191.867 271.795 191.677 271.423C191.486 271.051 191.231 270.775 190.912 270.593C190.592 270.403 190.246 270.308 189.874 270.308C189.502 270.308 189.152 270.403 188.824 270.593C188.504 270.775 188.245 271.051 188.046 271.423C187.856 271.795 187.76 272.261 187.76 272.823C187.76 273.377 187.856 273.844 188.046 274.224C188.245 274.596 188.5 274.877 188.811 275.067C189.131 275.248 189.477 275.339 189.848 275.339ZM194.617 276.117V269.53H195.603L195.68 270.775C195.827 270.472 196.018 270.217 196.251 270.009C196.493 269.802 196.778 269.646 197.107 269.543C197.435 269.43 197.811 269.374 198.235 269.374V270.515H197.781C197.505 270.515 197.241 270.55 196.99 270.619C196.739 270.688 196.515 270.805 196.316 270.969C196.126 271.133 195.974 271.354 195.862 271.63C195.758 271.907 195.706 272.253 195.706 272.668V276.117H194.617ZM203.487 276.117L200.375 272.525L203.228 269.53H204.564L201.296 272.914L201.309 272.136L204.875 276.117H203.487ZM199.467 276.117V266.781H200.557V276.117H199.467ZM208.086 276.273C207.532 276.273 207.053 276.182 206.646 276C206.24 275.819 205.92 275.564 205.687 275.235C205.462 274.907 205.324 274.522 205.272 274.081H206.387C206.43 274.315 206.517 274.526 206.646 274.717C206.785 274.907 206.975 275.062 207.217 275.184C207.459 275.296 207.753 275.352 208.099 275.352C208.401 275.352 208.652 275.309 208.851 275.222C209.05 275.127 209.197 275.002 209.292 274.846C209.395 274.691 209.447 274.518 209.447 274.328C209.447 274.06 209.382 273.852 209.253 273.705C209.132 273.558 208.95 273.446 208.708 273.368C208.475 273.29 208.185 273.221 207.839 273.161C207.528 273.109 207.234 273.04 206.957 272.953C206.681 272.858 206.434 272.741 206.218 272.603C206.011 272.456 205.842 272.274 205.713 272.058C205.592 271.842 205.531 271.583 205.531 271.28C205.531 270.909 205.626 270.58 205.816 270.295C206.015 270.001 206.292 269.776 206.646 269.62C207.009 269.456 207.433 269.374 207.917 269.374C208.617 269.374 209.184 269.543 209.616 269.88C210.057 270.217 210.312 270.701 210.381 271.332H209.305C209.27 271.004 209.127 270.749 208.877 270.567C208.635 270.386 208.31 270.295 207.904 270.295C207.489 270.295 207.174 270.377 206.957 270.541C206.741 270.705 206.633 270.922 206.633 271.19C206.633 271.362 206.689 271.522 206.802 271.669C206.914 271.808 207.087 271.924 207.321 272.019C207.563 272.115 207.857 272.192 208.202 272.253C208.652 272.331 209.054 272.434 209.408 272.564C209.763 272.694 210.044 272.888 210.251 273.148C210.467 273.398 210.571 273.761 210.562 274.237C210.571 274.652 210.472 275.011 210.264 275.313C210.057 275.616 209.767 275.854 209.395 276.026C209.024 276.191 208.587 276.273 208.086 276.273ZM212.156 278.97V269.53H213.142L213.233 270.593C213.371 270.377 213.548 270.178 213.764 269.996C213.98 269.806 214.24 269.655 214.542 269.543C214.845 269.43 215.191 269.374 215.58 269.374C216.211 269.374 216.76 269.525 217.227 269.828C217.702 270.13 218.069 270.541 218.329 271.06C218.588 271.579 218.718 272.171 218.718 272.836C218.718 273.502 218.588 274.094 218.329 274.613C218.069 275.123 217.702 275.529 217.227 275.832C216.751 276.126 216.198 276.273 215.567 276.273C215.039 276.273 214.573 276.165 214.166 275.949C213.769 275.732 213.462 275.43 213.246 275.041V278.97H212.156ZM215.45 275.326C215.865 275.326 216.237 275.222 216.565 275.015C216.894 274.807 217.149 274.518 217.33 274.146C217.521 273.766 217.616 273.325 217.616 272.823C217.616 272.313 217.521 271.872 217.33 271.501C217.149 271.129 216.894 270.839 216.565 270.632C216.237 270.424 215.865 270.321 215.45 270.321C215.018 270.321 214.637 270.424 214.309 270.632C213.98 270.839 213.725 271.129 213.544 271.501C213.362 271.872 213.271 272.313 213.271 272.823C213.271 273.325 213.362 273.766 213.544 274.146C213.725 274.518 213.98 274.807 214.309 275.015C214.637 275.222 215.018 275.326 215.45 275.326ZM222.4 276.273C221.873 276.273 221.432 276.182 221.078 276C220.732 275.81 220.473 275.56 220.3 275.248C220.127 274.937 220.04 274.6 220.04 274.237C220.04 273.796 220.153 273.42 220.377 273.109C220.611 272.797 220.935 272.564 221.35 272.408C221.774 272.244 222.266 272.162 222.828 272.162H224.553C224.553 271.747 224.492 271.401 224.371 271.125C224.25 270.848 224.069 270.641 223.827 270.502C223.593 270.364 223.295 270.295 222.932 270.295C222.526 270.295 222.171 270.398 221.869 270.606C221.575 270.805 221.393 271.103 221.324 271.501H220.209C220.261 271.043 220.416 270.658 220.676 270.347C220.944 270.027 221.276 269.785 221.674 269.62C222.072 269.456 222.491 269.374 222.932 269.374C223.537 269.374 224.039 269.486 224.436 269.711C224.843 269.927 225.145 270.234 225.344 270.632C225.543 271.021 225.642 271.479 225.642 272.006V276.117H224.67L224.605 274.963C224.518 275.145 224.406 275.318 224.268 275.482C224.138 275.637 223.982 275.776 223.801 275.897C223.619 276.009 223.412 276.1 223.178 276.169C222.954 276.238 222.694 276.273 222.4 276.273ZM222.569 275.352C222.872 275.352 223.144 275.292 223.386 275.171C223.628 275.041 223.835 274.868 224.008 274.652C224.19 274.427 224.324 274.181 224.41 273.913C224.505 273.636 224.553 273.355 224.553 273.07V273.005H222.919C222.504 273.005 222.167 273.057 221.908 273.161C221.648 273.256 221.462 273.394 221.35 273.576C221.238 273.757 221.181 273.96 221.181 274.185C221.181 274.418 221.233 274.626 221.337 274.807C221.449 274.98 221.609 275.114 221.817 275.209C222.024 275.305 222.275 275.352 222.569 275.352ZM230.296 276.273C229.683 276.273 229.129 276.13 228.636 275.845C228.152 275.551 227.772 275.145 227.495 274.626C227.219 274.107 227.08 273.506 227.08 272.823C227.08 272.132 227.219 271.531 227.495 271.021C227.772 270.502 228.152 270.1 228.636 269.815C229.129 269.521 229.687 269.374 230.309 269.374C231.079 269.374 231.723 269.577 232.241 269.984C232.76 270.381 233.093 270.922 233.24 271.604H232.125C232.03 271.19 231.814 270.87 231.476 270.645C231.139 270.42 230.742 270.308 230.283 270.308C229.912 270.308 229.566 270.403 229.246 270.593C228.926 270.775 228.671 271.056 228.481 271.436C228.291 271.808 228.196 272.27 228.196 272.823C228.196 273.238 228.252 273.606 228.364 273.926C228.477 274.237 228.628 274.501 228.818 274.717C229.008 274.924 229.229 275.084 229.479 275.196C229.739 275.3 230.007 275.352 230.283 275.352C230.595 275.352 230.876 275.3 231.126 275.196C231.377 275.093 231.589 274.946 231.762 274.756C231.943 274.557 232.064 274.319 232.125 274.042H233.24C233.102 274.708 232.769 275.248 232.241 275.663C231.714 276.07 231.066 276.273 230.296 276.273ZM237.652 276.273C237.038 276.273 236.494 276.13 236.018 275.845C235.551 275.56 235.184 275.158 234.916 274.639C234.648 274.12 234.514 273.515 234.514 272.823C234.514 272.123 234.644 271.518 234.903 271.008C235.171 270.489 235.543 270.087 236.018 269.802C236.502 269.517 237.056 269.374 237.678 269.374C238.318 269.374 238.858 269.517 239.299 269.802C239.749 270.087 240.09 270.468 240.323 270.943C240.565 271.41 240.686 271.92 240.686 272.473C240.686 272.56 240.686 272.651 240.686 272.746C240.686 272.841 240.682 272.949 240.674 273.07H235.331V272.227H239.61C239.584 271.613 239.385 271.138 239.014 270.8C238.651 270.463 238.197 270.295 237.652 270.295C237.28 270.295 236.935 270.381 236.615 270.554C236.303 270.718 236.053 270.965 235.863 271.293C235.672 271.622 235.577 272.032 235.577 272.525V272.888C235.577 273.433 235.672 273.891 235.863 274.263C236.061 274.626 236.316 274.898 236.628 275.08C236.948 275.261 237.289 275.352 237.652 275.352C238.11 275.352 238.486 275.253 238.78 275.054C239.074 274.855 239.29 274.578 239.429 274.224H240.505C240.393 274.622 240.207 274.976 239.947 275.287C239.688 275.59 239.364 275.832 238.975 276.013C238.594 276.186 238.153 276.273 237.652 276.273ZM249.037 276.273C248.657 276.273 248.315 276.221 248.013 276.117C247.719 276.005 247.459 275.858 247.235 275.676C247.018 275.486 246.837 275.274 246.69 275.041L246.599 276.117H245.614V266.781H246.703V270.593C246.91 270.247 247.209 269.958 247.598 269.724C247.995 269.491 248.471 269.374 249.024 269.374C249.664 269.374 250.217 269.525 250.684 269.828C251.159 270.122 251.527 270.528 251.786 271.047C252.046 271.566 252.175 272.158 252.175 272.823C252.175 273.48 252.046 274.073 251.786 274.6C251.527 275.119 251.159 275.529 250.684 275.832C250.209 276.126 249.66 276.273 249.037 276.273ZM248.907 275.326C249.331 275.326 249.703 275.222 250.023 275.015C250.351 274.807 250.606 274.518 250.788 274.146C250.978 273.766 251.073 273.325 251.073 272.823C251.073 272.313 250.978 271.872 250.788 271.501C250.606 271.129 250.351 270.839 250.023 270.632C249.703 270.424 249.331 270.321 248.907 270.321C248.475 270.321 248.095 270.424 247.766 270.632C247.438 270.839 247.183 271.129 247.001 271.501C246.82 271.872 246.729 272.313 246.729 272.823C246.729 273.325 246.82 273.766 247.001 274.146C247.183 274.518 247.438 274.807 247.766 275.015C248.095 275.222 248.475 275.326 248.907 275.326Z" fill="#EEEFF1"/>
<g filter="url(#filter3_d_2474_18607)">
<rect x="293.874" y="258.648" width="127.903" height="25.9352" rx="9.26257" fill="#4E3030" shape-rendering="crispEdges"/>
<rect x="294.337" y="259.112" width="126.977" height="25.0089" rx="8.79944" stroke="#575B62" stroke-width="0.926257" shape-rendering="crispEdges"/>
<path d="M306.494 266.406H314.599C314.599 266.406 315.757 266.406 315.757 267.564V275.669C315.757 275.669 315.757 276.827 314.599 276.827H306.494C306.494 276.827 305.336 276.827 305.336 275.669V267.564C305.336 267.564 305.336 266.406 306.494 266.406Z" stroke="#EEEFF1" stroke-width="0.926257" stroke-linecap="round" stroke-linejoin="round"/>
<path d="M312.284 269.879L308.81 273.352" stroke="#EEEFF1" stroke-width="0.926257" stroke-linecap="round" stroke-linejoin="round"/>
<path d="M308.81 269.879L312.284 273.352" stroke="#EEEFF1" stroke-width="0.926257" stroke-linecap="round" stroke-linejoin="round"/>
<path d="M324.487 276.115V267.038H327.417C328.126 267.038 328.706 267.159 329.155 267.401C329.605 267.634 329.937 267.95 330.154 268.348C330.37 268.745 330.478 269.195 330.478 269.696C330.478 270.18 330.365 270.626 330.141 271.032C329.924 271.438 329.587 271.762 329.129 272.005C328.671 272.247 328.083 272.368 327.366 272.368H325.576V276.115H324.487ZM329.285 276.115L327.288 272.056H328.507L330.569 276.115H329.285ZM325.576 271.512H327.34C328.031 271.512 328.537 271.343 328.857 271.006C329.185 270.669 329.35 270.237 329.35 269.709C329.35 269.173 329.19 268.75 328.87 268.438C328.559 268.119 328.044 267.959 327.327 267.959H325.576V271.512ZM334.607 276.271C333.994 276.271 333.449 276.128 332.973 275.843C332.507 275.558 332.139 275.156 331.871 274.637C331.603 274.118 331.469 273.513 331.469 272.821C331.469 272.121 331.599 271.516 331.858 271.006C332.126 270.487 332.498 270.085 332.973 269.8C333.458 269.515 334.011 269.372 334.633 269.372C335.273 269.372 335.813 269.515 336.254 269.8C336.704 270.085 337.045 270.466 337.279 270.941C337.521 271.408 337.642 271.918 337.642 272.471C337.642 272.558 337.642 272.649 337.642 272.744C337.642 272.839 337.637 272.947 337.629 273.068H332.286V272.225H336.565C336.54 271.611 336.341 271.136 335.969 270.799C335.606 270.461 335.152 270.293 334.607 270.293C334.236 270.293 333.89 270.379 333.57 270.552C333.259 270.716 333.008 270.963 332.818 271.291C332.628 271.62 332.533 272.03 332.533 272.523V272.886C332.533 273.431 332.628 273.889 332.818 274.261C333.017 274.624 333.272 274.896 333.583 275.078C333.903 275.259 334.244 275.35 334.607 275.35C335.066 275.35 335.442 275.251 335.736 275.052C336.029 274.853 336.246 274.576 336.384 274.222H337.46C337.348 274.62 337.162 274.974 336.903 275.285C336.643 275.588 336.319 275.83 335.93 276.011C335.55 276.184 335.109 276.271 334.607 276.271ZM339.112 276.115V269.528H340.097L340.162 270.461C340.37 270.116 340.646 269.848 340.992 269.657C341.346 269.467 341.731 269.372 342.146 269.372C342.475 269.372 342.773 269.42 343.041 269.515C343.318 269.601 343.56 269.739 343.767 269.93C343.975 270.111 344.143 270.34 344.273 270.617C344.498 270.219 344.805 269.912 345.194 269.696C345.583 269.48 345.998 269.372 346.438 269.372C346.948 269.372 347.389 269.472 347.761 269.67C348.133 269.869 348.418 270.176 348.617 270.591C348.816 270.997 348.915 271.507 348.915 272.121V276.115H347.839V272.238C347.839 271.598 347.705 271.118 347.437 270.799C347.169 270.47 346.793 270.306 346.309 270.306C345.98 270.306 345.682 270.392 345.414 270.565C345.155 270.738 344.947 270.993 344.792 271.33C344.636 271.659 344.558 272.065 344.558 272.549V276.115H343.469V272.238C343.469 271.598 343.335 271.118 343.067 270.799C342.799 270.47 342.427 270.306 341.952 270.306C341.623 270.306 341.325 270.392 341.057 270.565C340.798 270.738 340.59 270.993 340.434 271.33C340.279 271.659 340.201 272.065 340.201 272.549V276.115H339.112ZM353.566 276.271C352.953 276.271 352.404 276.128 351.919 275.843C351.435 275.558 351.055 275.156 350.778 274.637C350.502 274.118 350.363 273.513 350.363 272.821C350.363 272.121 350.502 271.512 350.778 270.993C351.064 270.474 351.448 270.077 351.932 269.8C352.425 269.515 352.978 269.372 353.592 269.372C354.206 269.372 354.755 269.515 355.239 269.8C355.723 270.077 356.104 270.474 356.38 270.993C356.657 271.512 356.795 272.121 356.795 272.821C356.795 273.522 356.653 274.131 356.367 274.65C356.091 275.16 355.706 275.558 355.213 275.843C354.729 276.128 354.18 276.271 353.566 276.271ZM353.566 275.337C353.947 275.337 354.297 275.246 354.617 275.065C354.937 274.875 355.192 274.594 355.382 274.222C355.581 273.842 355.68 273.375 355.68 272.821C355.68 272.26 355.585 271.793 355.395 271.421C355.205 271.049 354.95 270.773 354.63 270.591C354.31 270.401 353.964 270.306 353.592 270.306C353.221 270.306 352.87 270.401 352.542 270.591C352.222 270.773 351.963 271.049 351.764 271.421C351.574 271.793 351.479 272.26 351.479 272.821C351.479 273.375 351.574 273.842 351.764 274.222C351.963 274.594 352.218 274.875 352.529 275.065C352.849 275.246 353.195 275.337 353.566 275.337ZM359.912 276.115L357.409 269.528H358.551L360.548 275.065L362.545 269.528H363.66L361.17 276.115H359.912ZM367.419 276.271C366.805 276.271 366.26 276.128 365.785 275.843C365.318 275.558 364.951 275.156 364.683 274.637C364.415 274.118 364.281 273.513 364.281 272.821C364.281 272.121 364.41 271.516 364.67 271.006C364.938 270.487 365.31 270.085 365.785 269.8C366.269 269.515 366.822 269.372 367.445 269.372C368.085 269.372 368.625 269.515 369.066 269.8C369.515 270.085 369.857 270.466 370.09 270.941C370.332 271.408 370.453 271.918 370.453 272.471C370.453 272.558 370.453 272.649 370.453 272.744C370.453 272.839 370.449 272.947 370.44 273.068H365.098V272.225H369.377C369.351 271.611 369.152 271.136 368.78 270.799C368.417 270.461 367.964 270.293 367.419 270.293C367.047 270.293 366.701 270.379 366.381 270.552C366.07 270.716 365.82 270.963 365.629 271.291C365.439 271.62 365.344 272.03 365.344 272.523V272.886C365.344 273.431 365.439 273.889 365.629 274.261C365.828 274.624 366.083 274.896 366.394 275.078C366.714 275.259 367.056 275.35 367.419 275.35C367.877 275.35 368.253 275.251 368.547 275.052C368.841 274.853 369.057 274.576 369.195 274.222H370.272C370.159 274.62 369.974 274.974 369.714 275.285C369.455 275.588 369.131 275.83 368.742 276.011C368.361 276.184 367.92 276.271 367.419 276.271ZM375.445 276.115V267.038H378.376C379.085 267.038 379.664 267.159 380.114 267.401C380.563 267.634 380.896 267.95 381.112 268.348C381.328 268.745 381.436 269.195 381.436 269.696C381.436 270.18 381.324 270.626 381.099 271.032C380.883 271.438 380.546 271.762 380.088 272.005C379.63 272.247 379.042 272.368 378.324 272.368H376.535V276.115H375.445ZM380.243 276.115L378.246 272.056H379.465L381.527 276.115H380.243ZM376.535 271.512H378.298C378.99 271.512 379.496 271.343 379.815 271.006C380.144 270.669 380.308 270.237 380.308 269.709C380.308 269.173 380.148 268.75 379.828 268.438C379.517 268.119 379.003 267.959 378.285 267.959H376.535V271.512ZM383.196 276.115V269.528H384.286V276.115H383.196ZM383.741 268.153C383.525 268.153 383.343 268.084 383.196 267.946C383.058 267.799 382.989 267.617 382.989 267.401C382.989 267.185 383.058 267.012 383.196 266.882C383.343 266.744 383.525 266.675 383.741 266.675C383.949 266.675 384.126 266.744 384.273 266.882C384.42 267.012 384.493 267.185 384.493 267.401C384.493 267.617 384.42 267.799 384.273 267.946C384.126 268.084 383.949 268.153 383.741 268.153ZM388.801 279.124C388.214 279.124 387.691 279.046 387.232 278.89C386.783 278.743 386.428 278.514 386.169 278.203C385.918 277.892 385.793 277.507 385.793 277.049C385.793 276.85 385.832 276.638 385.91 276.413C385.996 276.189 386.139 275.968 386.338 275.752C386.545 275.536 386.835 275.342 387.206 275.169L387.972 275.609C387.513 275.8 387.211 276.016 387.064 276.258C386.925 276.5 386.856 276.729 386.856 276.945C386.856 277.23 386.938 277.468 387.103 277.658C387.276 277.849 387.509 277.991 387.803 278.086C388.097 278.181 388.43 278.229 388.801 278.229C389.182 278.229 389.506 278.177 389.774 278.073C390.042 277.97 390.25 277.823 390.396 277.632C390.552 277.442 390.63 277.222 390.63 276.971C390.63 276.66 390.513 276.401 390.28 276.193C390.055 275.994 389.627 275.877 388.996 275.843C388.477 275.808 388.045 275.761 387.699 275.7C387.353 275.64 387.064 275.571 386.83 275.493C386.606 275.406 386.415 275.311 386.26 275.208C386.113 275.104 385.979 274.996 385.858 274.883V274.585L387.129 273.327L388.088 273.664L386.766 274.844L386.934 274.378C387.029 274.447 387.12 274.512 387.206 274.572C387.293 274.624 387.41 274.676 387.557 274.728C387.712 274.771 387.92 274.814 388.179 274.857C388.447 274.892 388.801 274.927 389.242 274.961C389.839 275.004 390.314 275.108 390.669 275.272C391.032 275.437 391.296 275.657 391.46 275.934C391.624 276.21 391.706 276.543 391.706 276.932C391.706 277.295 391.602 277.641 391.395 277.97C391.196 278.307 390.881 278.583 390.448 278.8C390.025 279.016 389.476 279.124 388.801 279.124ZM388.788 274.053C388.244 274.053 387.781 273.95 387.401 273.742C387.021 273.535 386.731 273.254 386.532 272.899C386.333 272.545 386.234 272.147 386.234 271.706C386.234 271.274 386.333 270.885 386.532 270.539C386.731 270.185 387.021 269.904 387.401 269.696C387.781 269.48 388.244 269.372 388.788 269.372C389.342 269.372 389.809 269.48 390.189 269.696C390.569 269.904 390.859 270.185 391.058 270.539C391.257 270.885 391.356 271.274 391.356 271.706C391.356 272.147 391.257 272.545 391.058 272.899C390.859 273.254 390.569 273.535 390.189 273.742C389.809 273.95 389.342 274.053 388.788 274.053ZM388.788 273.159C389.264 273.159 389.636 273.038 389.904 272.796C390.172 272.545 390.306 272.182 390.306 271.706C390.306 271.239 390.172 270.885 389.904 270.643C389.636 270.401 389.264 270.28 388.788 270.28C388.33 270.28 387.959 270.401 387.673 270.643C387.397 270.885 387.258 271.239 387.258 271.706C387.258 272.182 387.397 272.545 387.673 272.796C387.959 273.038 388.33 273.159 388.788 273.159ZM389.878 270.448L389.554 269.528H392.225V270.345L389.878 270.448ZM393.477 276.115V266.779H394.566V270.63C394.782 270.232 395.085 269.925 395.474 269.709C395.872 269.484 396.304 269.372 396.771 269.372C397.272 269.372 397.709 269.472 398.08 269.67C398.452 269.869 398.737 270.176 398.936 270.591C399.135 270.997 399.234 271.516 399.234 272.147V276.115H398.158V272.264C398.158 271.615 398.016 271.127 397.73 270.799C397.454 270.47 397.056 270.306 396.537 270.306C396.165 270.306 395.828 270.397 395.526 270.578C395.232 270.751 394.998 271.006 394.826 271.343C394.653 271.672 394.566 272.082 394.566 272.575V276.115H393.477ZM403.529 276.115C403.14 276.115 402.803 276.055 402.518 275.934C402.232 275.813 402.012 275.609 401.856 275.324C401.709 275.03 401.636 274.637 401.636 274.144V270.448H400.495V269.528H401.636L401.778 267.92H402.725V269.528H404.631V270.448H402.725V274.144C402.725 274.55 402.807 274.827 402.971 274.974C403.136 275.112 403.425 275.182 403.84 275.182H404.566V276.115H403.529ZM408.528 276.271C407.975 276.271 407.495 276.18 407.089 275.999C406.683 275.817 406.363 275.562 406.129 275.233C405.905 274.905 405.766 274.52 405.714 274.079H406.83C406.873 274.313 406.959 274.525 407.089 274.715C407.227 274.905 407.418 275.061 407.66 275.182C407.902 275.294 408.196 275.35 408.541 275.35C408.844 275.35 409.095 275.307 409.294 275.22C409.492 275.125 409.639 275 409.734 274.844C409.838 274.689 409.89 274.516 409.89 274.326C409.89 274.058 409.825 273.85 409.695 273.703C409.574 273.556 409.393 273.444 409.151 273.366C408.917 273.288 408.628 273.219 408.282 273.159C407.971 273.107 407.677 273.038 407.4 272.951C407.124 272.856 406.877 272.739 406.661 272.601C406.454 272.454 406.285 272.273 406.155 272.056C406.034 271.84 405.974 271.581 405.974 271.278C405.974 270.907 406.069 270.578 406.259 270.293C406.458 269.999 406.735 269.774 407.089 269.618C407.452 269.454 407.876 269.372 408.36 269.372C409.06 269.372 409.626 269.541 410.059 269.878C410.499 270.215 410.755 270.699 410.824 271.33H409.747C409.713 271.002 409.57 270.747 409.319 270.565C409.077 270.384 408.753 270.293 408.347 270.293C407.932 270.293 407.616 270.375 407.4 270.539C407.184 270.703 407.076 270.92 407.076 271.188C407.076 271.36 407.132 271.52 407.245 271.667C407.357 271.806 407.53 271.922 407.763 272.017C408.005 272.113 408.299 272.19 408.645 272.251C409.095 272.329 409.497 272.432 409.851 272.562C410.206 272.692 410.487 272.886 410.694 273.146C410.91 273.396 411.014 273.759 411.005 274.235C411.014 274.65 410.914 275.009 410.707 275.311C410.499 275.614 410.21 275.852 409.838 276.024C409.466 276.189 409.03 276.271 408.528 276.271Z" fill="#EEEFF1"/>
</g>
<rect x="59.7258" y="298.94" width="768.606" height="34.2715" rx="8.79944" fill="#EEEFF1"/>
<rect x="59.7258" y="298.94" width="768.606" height="34.2715" rx="8.79944" fill="#282A2F"/>
<rect x="59.7258" y="298.94" width="768.606" height="34.2715" rx="8.79944" stroke="#575B62" stroke-width="0.926257"/>
<path d="M68.9144 320.576L72.2601 311.499H73.4142L76.7468 320.576H75.5927L72.8306 312.86L70.0556 320.576H68.9144ZM70.4446 318.242L70.7558 317.36H74.8665L75.1778 318.242H70.4446ZM80.5686 320.732C79.9376 320.732 79.3843 320.58 78.9088 320.278C78.4333 319.975 78.0659 319.565 77.8065 319.046C77.5472 318.527 77.4175 317.935 77.4175 317.269C77.4175 316.604 77.5472 316.012 77.8065 315.493C78.0659 314.974 78.4333 314.568 78.9088 314.274C79.3929 313.98 79.9505 313.833 80.5816 313.833C81.109 313.833 81.5715 313.941 81.9691 314.157C82.3755 314.373 82.6867 314.676 82.9028 315.065V311.24H83.9921V320.576H83.0065L82.9028 319.5C82.7731 319.716 82.6002 319.919 82.3841 320.109C82.168 320.291 81.9086 320.442 81.606 320.563C81.3121 320.676 80.9663 320.732 80.5686 320.732ZM80.6853 319.785C81.1176 319.785 81.498 319.681 81.8265 319.474C82.155 319.266 82.41 318.977 82.5916 318.605C82.7731 318.225 82.8639 317.784 82.8639 317.282C82.8639 316.772 82.7731 316.331 82.5916 315.96C82.41 315.588 82.155 315.298 81.8265 315.091C81.498 314.883 81.1176 314.78 80.6853 314.78C80.2704 314.78 79.8986 314.883 79.5701 315.091C79.2416 315.298 78.9866 315.588 78.805 315.96C78.6235 316.331 78.5327 316.772 78.5327 317.282C78.5327 317.784 78.6235 318.225 78.805 318.605C78.9866 318.977 79.2416 319.266 79.5701 319.474C79.8986 319.681 80.2704 319.785 80.6853 319.785ZM85.8072 320.576V313.989H86.7928L86.8576 314.922C87.0651 314.576 87.3417 314.308 87.6875 314.118C88.042 313.928 88.4267 313.833 88.8417 313.833C89.1702 313.833 89.4684 313.881 89.7364 313.976C90.0131 314.062 90.2551 314.2 90.4626 314.391C90.6701 314.572 90.8387 314.801 90.9683 315.078C91.1931 314.68 91.5 314.373 91.889 314.157C92.2781 313.941 92.693 313.833 93.1339 313.833C93.644 313.833 94.0849 313.932 94.4566 314.131C94.8284 314.33 95.1137 314.637 95.3125 315.052C95.5113 315.458 95.6107 315.968 95.6107 316.582V320.576H94.5344V316.699C94.5344 316.059 94.4004 315.579 94.1324 315.259C93.8644 314.931 93.4884 314.767 93.0043 314.767C92.6757 314.767 92.3775 314.853 92.1095 315.026C91.8501 315.199 91.6427 315.454 91.4871 315.791C91.3314 316.12 91.2536 316.526 91.2536 317.01V320.576H90.1644V316.699C90.1644 316.059 90.0304 315.579 89.7624 315.259C89.4944 314.931 89.1226 314.767 88.6471 314.767C88.3186 314.767 88.0204 314.853 87.7524 315.026C87.493 315.199 87.2856 315.454 87.1299 315.791C86.9743 316.12 86.8965 316.526 86.8965 317.01V320.576H85.8072ZM97.4349 320.576V313.989H98.5242V320.576H97.4349ZM97.9796 312.614C97.7634 312.614 97.5819 312.545 97.4349 312.407C97.2966 312.26 97.2274 312.078 97.2274 311.862C97.2274 311.646 97.2966 311.473 97.4349 311.343C97.5819 311.205 97.7634 311.136 97.9796 311.136C98.187 311.136 98.3643 311.205 98.5112 311.343C98.6582 311.473 98.7317 311.646 98.7317 311.862C98.7317 312.078 98.6582 312.26 98.5112 312.407C98.3643 312.545 98.187 312.614 97.9796 312.614ZM100.446 320.576V313.989H101.432L101.484 315.104C101.691 314.706 101.985 314.395 102.366 314.17C102.755 313.945 103.196 313.833 103.688 313.833C104.19 313.833 104.626 313.932 104.998 314.131C105.37 314.33 105.659 314.633 105.867 315.039C106.074 315.445 106.178 315.96 106.178 316.582V320.576H105.089V316.699C105.089 316.059 104.942 315.579 104.648 315.259C104.363 314.931 103.961 314.767 103.442 314.767C103.079 314.767 102.755 314.853 102.469 315.026C102.184 315.199 101.955 315.45 101.782 315.778C101.618 316.107 101.536 316.513 101.536 316.997V320.576H100.446Z" fill="#9FA1A6"/>
<path d="M176.959 320.576L174.469 311.499H175.636L177.594 319.279L179.811 311.499H181.03L183.196 319.305L185.18 311.499H186.347L183.805 320.576H182.561L180.395 313.068L178.178 320.576H176.959ZM189.848 320.732C189.234 320.732 188.685 320.589 188.201 320.304C187.717 320.019 187.337 319.617 187.06 319.098C186.784 318.579 186.645 317.974 186.645 317.282C186.645 316.582 186.784 315.973 187.06 315.454C187.345 314.935 187.73 314.538 188.214 314.261C188.707 313.976 189.26 313.833 189.874 313.833C190.488 313.833 191.037 313.976 191.521 314.261C192.005 314.538 192.386 314.935 192.662 315.454C192.939 315.973 193.077 316.582 193.077 317.282C193.077 317.983 192.935 318.592 192.649 319.111C192.373 319.621 191.988 320.019 191.495 320.304C191.011 320.589 190.462 320.732 189.848 320.732ZM189.848 319.798C190.229 319.798 190.579 319.707 190.899 319.526C191.218 319.336 191.474 319.055 191.664 318.683C191.863 318.303 191.962 317.836 191.962 317.282C191.962 316.72 191.867 316.254 191.677 315.882C191.486 315.51 191.231 315.234 190.912 315.052C190.592 314.862 190.246 314.767 189.874 314.767C189.502 314.767 189.152 314.862 188.824 315.052C188.504 315.234 188.245 315.51 188.046 315.882C187.856 316.254 187.76 316.72 187.76 317.282C187.76 317.836 187.856 318.303 188.046 318.683C188.245 319.055 188.5 319.336 188.811 319.526C189.131 319.707 189.477 319.798 189.848 319.798ZM194.617 320.576V313.989H195.603L195.68 315.234C195.827 314.931 196.018 314.676 196.251 314.468C196.493 314.261 196.778 314.105 197.107 314.002C197.435 313.889 197.811 313.833 198.235 313.833V314.974H197.781C197.505 314.974 197.241 315.009 196.99 315.078C196.739 315.147 196.515 315.264 196.316 315.428C196.126 315.592 195.974 315.813 195.862 316.089C195.758 316.366 195.706 316.712 195.706 317.127V320.576H194.617ZM203.487 320.576L200.375 316.984L203.228 313.989H204.564L201.296 317.373L201.309 316.595L204.875 320.576H203.487ZM199.467 320.576V311.24H200.557V320.576H199.467ZM208.086 320.732C207.532 320.732 207.053 320.641 206.646 320.459C206.24 320.278 205.92 320.023 205.687 319.694C205.462 319.366 205.324 318.981 205.272 318.54H206.387C206.43 318.774 206.517 318.985 206.646 319.176C206.785 319.366 206.975 319.521 207.217 319.643C207.459 319.755 207.753 319.811 208.099 319.811C208.401 319.811 208.652 319.768 208.851 319.681C209.05 319.586 209.197 319.461 209.292 319.305C209.395 319.15 209.447 318.977 209.447 318.787C209.447 318.519 209.382 318.311 209.253 318.164C209.132 318.017 208.95 317.905 208.708 317.827C208.475 317.749 208.185 317.68 207.839 317.62C207.528 317.568 207.234 317.499 206.957 317.412C206.681 317.317 206.434 317.2 206.218 317.062C206.011 316.915 205.842 316.733 205.713 316.517C205.592 316.301 205.531 316.042 205.531 315.739C205.531 315.368 205.626 315.039 205.816 314.754C206.015 314.46 206.292 314.235 206.646 314.079C207.009 313.915 207.433 313.833 207.917 313.833C208.617 313.833 209.184 314.002 209.616 314.339C210.057 314.676 210.312 315.16 210.381 315.791H209.305C209.27 315.463 209.127 315.208 208.877 315.026C208.635 314.844 208.31 314.754 207.904 314.754C207.489 314.754 207.174 314.836 206.957 315C206.741 315.164 206.633 315.38 206.633 315.648C206.633 315.821 206.689 315.981 206.802 316.128C206.914 316.267 207.087 316.383 207.321 316.478C207.563 316.574 207.857 316.651 208.202 316.712C208.652 316.79 209.054 316.893 209.408 317.023C209.763 317.153 210.044 317.347 210.251 317.607C210.467 317.857 210.571 318.22 210.562 318.696C210.571 319.111 210.472 319.47 210.264 319.772C210.057 320.075 209.767 320.312 209.395 320.485C209.024 320.65 208.587 320.732 208.086 320.732ZM212.156 323.429V313.989H213.142L213.233 315.052C213.371 314.836 213.548 314.637 213.764 314.455C213.98 314.265 214.24 314.114 214.542 314.002C214.845 313.889 215.191 313.833 215.58 313.833C216.211 313.833 216.76 313.984 217.227 314.287C217.702 314.589 218.069 315 218.329 315.519C218.588 316.038 218.718 316.63 218.718 317.295C218.718 317.961 218.588 318.553 218.329 319.072C218.069 319.582 217.702 319.988 217.227 320.291C216.751 320.585 216.198 320.732 215.567 320.732C215.039 320.732 214.573 320.624 214.166 320.408C213.769 320.191 213.462 319.889 213.246 319.5V323.429H212.156ZM215.45 319.785C215.865 319.785 216.237 319.681 216.565 319.474C216.894 319.266 217.149 318.977 217.33 318.605C217.521 318.225 217.616 317.784 217.616 317.282C217.616 316.772 217.521 316.331 217.33 315.96C217.149 315.588 216.894 315.298 216.565 315.091C216.237 314.883 215.865 314.78 215.45 314.78C215.018 314.78 214.637 314.883 214.309 315.091C213.98 315.298 213.725 315.588 213.544 315.96C213.362 316.331 213.271 316.772 213.271 317.282C213.271 317.784 213.362 318.225 213.544 318.605C213.725 318.977 213.98 319.266 214.309 319.474C214.637 319.681 215.018 319.785 215.45 319.785ZM222.4 320.732C221.873 320.732 221.432 320.641 221.078 320.459C220.732 320.269 220.473 320.019 220.3 319.707C220.127 319.396 220.04 319.059 220.04 318.696C220.04 318.255 220.153 317.879 220.377 317.568C220.611 317.256 220.935 317.023 221.35 316.867C221.774 316.703 222.266 316.621 222.828 316.621H224.553C224.553 316.206 224.492 315.86 224.371 315.584C224.25 315.307 224.069 315.1 223.827 314.961C223.593 314.823 223.295 314.754 222.932 314.754C222.526 314.754 222.171 314.857 221.869 315.065C221.575 315.264 221.393 315.562 221.324 315.96H220.209C220.261 315.502 220.416 315.117 220.676 314.806C220.944 314.486 221.276 314.244 221.674 314.079C222.072 313.915 222.491 313.833 222.932 313.833C223.537 313.833 224.039 313.945 224.436 314.17C224.843 314.386 225.145 314.693 225.344 315.091C225.543 315.48 225.642 315.938 225.642 316.465V320.576H224.67L224.605 319.422C224.518 319.604 224.406 319.777 224.268 319.941C224.138 320.096 223.982 320.235 223.801 320.356C223.619 320.468 223.412 320.559 223.178 320.628C222.954 320.697 222.694 320.732 222.4 320.732ZM222.569 319.811C222.872 319.811 223.144 319.751 223.386 319.63C223.628 319.5 223.835 319.327 224.008 319.111C224.19 318.886 224.324 318.64 224.41 318.372C224.505 318.095 224.553 317.814 224.553 317.529V317.464H222.919C222.504 317.464 222.167 317.516 221.908 317.62C221.648 317.715 221.462 317.853 221.35 318.035C221.238 318.216 221.181 318.419 221.181 318.644C221.181 318.877 221.233 319.085 221.337 319.266C221.449 319.439 221.609 319.573 221.817 319.668C222.024 319.764 222.275 319.811 222.569 319.811ZM230.296 320.732C229.683 320.732 229.129 320.589 228.636 320.304C228.152 320.01 227.772 319.604 227.495 319.085C227.219 318.566 227.08 317.965 227.08 317.282C227.08 316.591 227.219 315.99 227.495 315.48C227.772 314.961 228.152 314.559 228.636 314.274C229.129 313.98 229.687 313.833 230.309 313.833C231.079 313.833 231.723 314.036 232.241 314.442C232.76 314.84 233.093 315.38 233.24 316.063H232.125C232.03 315.648 231.814 315.329 231.476 315.104C231.139 314.879 230.742 314.767 230.283 314.767C229.912 314.767 229.566 314.862 229.246 315.052C228.926 315.234 228.671 315.514 228.481 315.895C228.291 316.267 228.196 316.729 228.196 317.282C228.196 317.697 228.252 318.065 228.364 318.385C228.477 318.696 228.628 318.96 228.818 319.176C229.008 319.383 229.229 319.543 229.479 319.655C229.739 319.759 230.007 319.811 230.283 319.811C230.595 319.811 230.876 319.759 231.126 319.655C231.377 319.552 231.589 319.405 231.762 319.215C231.943 319.016 232.064 318.778 232.125 318.501H233.24C233.102 319.167 232.769 319.707 232.241 320.122C231.714 320.529 231.066 320.732 230.296 320.732ZM237.652 320.732C237.038 320.732 236.494 320.589 236.018 320.304C235.551 320.019 235.184 319.617 234.916 319.098C234.648 318.579 234.514 317.974 234.514 317.282C234.514 316.582 234.644 315.977 234.903 315.467C235.171 314.948 235.543 314.546 236.018 314.261C236.502 313.976 237.056 313.833 237.678 313.833C238.318 313.833 238.858 313.976 239.299 314.261C239.749 314.546 240.09 314.927 240.323 315.402C240.565 315.869 240.686 316.379 240.686 316.932C240.686 317.019 240.686 317.11 240.686 317.205C240.686 317.3 240.682 317.408 240.674 317.529H235.331V316.686H239.61C239.584 316.072 239.385 315.597 239.014 315.259C238.651 314.922 238.197 314.754 237.652 314.754C237.28 314.754 236.935 314.84 236.615 315.013C236.303 315.177 236.053 315.424 235.863 315.752C235.672 316.081 235.577 316.491 235.577 316.984V317.347C235.577 317.892 235.672 318.35 235.863 318.722C236.061 319.085 236.316 319.357 236.628 319.539C236.948 319.72 237.289 319.811 237.652 319.811C238.11 319.811 238.486 319.712 238.78 319.513C239.074 319.314 239.29 319.037 239.429 318.683H240.505C240.393 319.081 240.207 319.435 239.947 319.746C239.688 320.049 239.364 320.291 238.975 320.472C238.594 320.645 238.153 320.732 237.652 320.732ZM248.557 320.732C247.944 320.732 247.39 320.589 246.897 320.304C246.413 320.01 246.033 319.604 245.756 319.085C245.48 318.566 245.341 317.965 245.341 317.282C245.341 316.591 245.48 315.99 245.756 315.48C246.033 314.961 246.413 314.559 246.897 314.274C247.39 313.98 247.948 313.833 248.57 313.833C249.34 313.833 249.984 314.036 250.502 314.442C251.021 314.84 251.354 315.38 251.501 316.063H250.386C250.291 315.648 250.075 315.329 249.737 315.104C249.4 314.879 249.003 314.767 248.544 314.767C248.173 314.767 247.827 314.862 247.507 315.052C247.187 315.234 246.932 315.514 246.742 315.895C246.552 316.267 246.457 316.729 246.457 317.282C246.457 317.697 246.513 318.065 246.625 318.385C246.738 318.696 246.889 318.96 247.079 319.176C247.269 319.383 247.49 319.543 247.74 319.655C248 319.759 248.268 319.811 248.544 319.811C248.856 319.811 249.137 319.759 249.387 319.655C249.638 319.552 249.85 319.405 250.023 319.215C250.204 319.016 250.325 318.778 250.386 318.501H251.501C251.363 319.167 251.03 319.707 250.502 320.122C249.975 320.529 249.327 320.732 248.557 320.732Z" fill="#EEEFF1"/>
<g filter="url(#filter4_d_2474_18607)">
<rect x="293.874" y="303.107" width="127.903" height="25.9352" rx="9.26257" fill="#4E3030" shape-rendering="crispEdges"/>
<rect x="294.337" y="303.571" width="126.977" height="25.0089" rx="8.79944" stroke="#575B62" stroke-width="0.926257" shape-rendering="crispEdges"/>
<path d="M306.494 310.865H314.599C314.599 310.865 315.757 310.865 315.757 312.023V320.128C315.757 320.128 315.757 321.286 314.599 321.286H306.494C306.494 321.286 305.336 321.286 305.336 320.128V312.023C305.336 312.023 305.336 310.865 306.494 310.865Z" stroke="#EEEFF1" stroke-width="0.926257" stroke-linecap="round" stroke-linejoin="round"/>
<path d="M312.284 314.338L308.81 317.811" stroke="#EEEFF1" stroke-width="0.926257" stroke-linecap="round" stroke-linejoin="round"/>
<path d="M308.81 314.338L312.284 317.811" stroke="#EEEFF1" stroke-width="0.926257" stroke-linecap="round" stroke-linejoin="round"/>
<path d="M324.487 320.574V311.497H327.417C328.126 311.497 328.706 311.618 329.155 311.86C329.605 312.093 329.937 312.409 330.154 312.807C330.37 313.204 330.478 313.654 330.478 314.155C330.478 314.639 330.365 315.085 330.141 315.491C329.924 315.897 329.587 316.221 329.129 316.463C328.671 316.706 328.083 316.827 327.366 316.827H325.576V320.574H324.487ZM329.285 320.574L327.288 316.515H328.507L330.569 320.574H329.285ZM325.576 315.971H327.34C328.031 315.971 328.537 315.802 328.857 315.465C329.185 315.128 329.35 314.696 329.35 314.168C329.35 313.632 329.19 313.209 328.87 312.897C328.559 312.578 328.044 312.418 327.327 312.418H325.576V315.971ZM334.607 320.73C333.994 320.73 333.449 320.587 332.973 320.302C332.507 320.017 332.139 319.615 331.871 319.096C331.603 318.577 331.469 317.972 331.469 317.28C331.469 316.58 331.599 315.975 331.858 315.465C332.126 314.946 332.498 314.544 332.973 314.259C333.458 313.974 334.011 313.831 334.633 313.831C335.273 313.831 335.813 313.974 336.254 314.259C336.704 314.544 337.045 314.925 337.279 315.4C337.521 315.867 337.642 316.377 337.642 316.93C337.642 317.017 337.642 317.108 337.642 317.203C337.642 317.298 337.637 317.406 337.629 317.527H332.286V316.684H336.565C336.54 316.07 336.341 315.595 335.969 315.258C335.606 314.92 335.152 314.752 334.607 314.752C334.236 314.752 333.89 314.838 333.57 315.011C333.259 315.175 333.008 315.422 332.818 315.75C332.628 316.079 332.533 316.489 332.533 316.982V317.345C332.533 317.89 332.628 318.348 332.818 318.72C333.017 319.083 333.272 319.355 333.583 319.537C333.903 319.718 334.244 319.809 334.607 319.809C335.066 319.809 335.442 319.71 335.736 319.511C336.029 319.312 336.246 319.035 336.384 318.681H337.46C337.348 319.079 337.162 319.433 336.903 319.744C336.643 320.047 336.319 320.289 335.93 320.47C335.55 320.643 335.109 320.73 334.607 320.73ZM339.112 320.574V313.987H340.097L340.162 314.92C340.37 314.575 340.646 314.307 340.992 314.116C341.346 313.926 341.731 313.831 342.146 313.831C342.475 313.831 342.773 313.879 343.041 313.974C343.318 314.06 343.56 314.198 343.767 314.389C343.975 314.57 344.143 314.799 344.273 315.076C344.498 314.678 344.805 314.371 345.194 314.155C345.583 313.939 345.998 313.831 346.438 313.831C346.948 313.831 347.389 313.93 347.761 314.129C348.133 314.328 348.418 314.635 348.617 315.05C348.816 315.456 348.915 315.966 348.915 316.58V320.574H347.839V316.697C347.839 316.057 347.705 315.577 347.437 315.258C347.169 314.929 346.793 314.765 346.309 314.765C345.98 314.765 345.682 314.851 345.414 315.024C345.155 315.197 344.947 315.452 344.792 315.789C344.636 316.118 344.558 316.524 344.558 317.008V320.574H343.469V316.697C343.469 316.057 343.335 315.577 343.067 315.258C342.799 314.929 342.427 314.765 341.952 314.765C341.623 314.765 341.325 314.851 341.057 315.024C340.798 315.197 340.59 315.452 340.434 315.789C340.279 316.118 340.201 316.524 340.201 317.008V320.574H339.112ZM353.566 320.73C352.953 320.73 352.404 320.587 351.919 320.302C351.435 320.017 351.055 319.615 350.778 319.096C350.502 318.577 350.363 317.972 350.363 317.28C350.363 316.58 350.502 315.971 350.778 315.452C351.064 314.933 351.448 314.536 351.932 314.259C352.425 313.974 352.978 313.831 353.592 313.831C354.206 313.831 354.755 313.974 355.239 314.259C355.723 314.536 356.104 314.933 356.38 315.452C356.657 315.971 356.795 316.58 356.795 317.28C356.795 317.981 356.653 318.59 356.367 319.109C356.091 319.619 355.706 320.017 355.213 320.302C354.729 320.587 354.18 320.73 353.566 320.73ZM353.566 319.796C353.947 319.796 354.297 319.705 354.617 319.524C354.937 319.334 355.192 319.053 355.382 318.681C355.581 318.301 355.68 317.834 355.68 317.28C355.68 316.719 355.585 316.252 355.395 315.88C355.205 315.508 354.95 315.232 354.63 315.05C354.31 314.86 353.964 314.765 353.592 314.765C353.221 314.765 352.87 314.86 352.542 315.05C352.222 315.232 351.963 315.508 351.764 315.88C351.574 316.252 351.479 316.719 351.479 317.28C351.479 317.834 351.574 318.301 351.764 318.681C351.963 319.053 352.218 319.334 352.529 319.524C352.849 319.705 353.195 319.796 353.566 319.796ZM359.912 320.574L357.409 313.987H358.551L360.548 319.524L362.545 313.987H363.66L361.17 320.574H359.912ZM367.419 320.73C366.805 320.73 366.26 320.587 365.785 320.302C365.318 320.017 364.951 319.615 364.683 319.096C364.415 318.577 364.281 317.972 364.281 317.28C364.281 316.58 364.41 315.975 364.67 315.465C364.938 314.946 365.31 314.544 365.785 314.259C366.269 313.974 366.822 313.831 367.445 313.831C368.085 313.831 368.625 313.974 369.066 314.259C369.515 314.544 369.857 314.925 370.09 315.4C370.332 315.867 370.453 316.377 370.453 316.93C370.453 317.017 370.453 317.108 370.453 317.203C370.453 317.298 370.449 317.406 370.44 317.527H365.098V316.684H369.377C369.351 316.07 369.152 315.595 368.78 315.258C368.417 314.92 367.964 314.752 367.419 314.752C367.047 314.752 366.701 314.838 366.381 315.011C366.07 315.175 365.82 315.422 365.629 315.75C365.439 316.079 365.344 316.489 365.344 316.982V317.345C365.344 317.89 365.439 318.348 365.629 318.72C365.828 319.083 366.083 319.355 366.394 319.537C366.714 319.718 367.056 319.809 367.419 319.809C367.877 319.809 368.253 319.71 368.547 319.511C368.841 319.312 369.057 319.035 369.195 318.681H370.272C370.159 319.079 369.974 319.433 369.714 319.744C369.455 320.047 369.131 320.289 368.742 320.47C368.361 320.643 367.92 320.73 367.419 320.73ZM375.445 320.574V311.497H378.376C379.085 311.497 379.664 311.618 380.114 311.86C380.563 312.093 380.896 312.409 381.112 312.807C381.328 313.204 381.436 313.654 381.436 314.155C381.436 314.639 381.324 315.085 381.099 315.491C380.883 315.897 380.546 316.221 380.088 316.463C379.63 316.706 379.042 316.827 378.324 316.827H376.535V320.574H375.445ZM380.243 320.574L378.246 316.515H379.465L381.527 320.574H380.243ZM376.535 315.971H378.298C378.99 315.971 379.496 315.802 379.815 315.465C380.144 315.128 380.308 314.696 380.308 314.168C380.308 313.632 380.148 313.209 379.828 312.897C379.517 312.578 379.003 312.418 378.285 312.418H376.535V315.971ZM383.196 320.574V313.987H384.286V320.574H383.196ZM383.741 312.612C383.525 312.612 383.343 312.543 383.196 312.405C383.058 312.258 382.989 312.076 382.989 311.86C382.989 311.644 383.058 311.471 383.196 311.341C383.343 311.203 383.525 311.134 383.741 311.134C383.949 311.134 384.126 311.203 384.273 311.341C384.42 311.471 384.493 311.644 384.493 311.86C384.493 312.076 384.42 312.258 384.273 312.405C384.126 312.543 383.949 312.612 383.741 312.612ZM388.801 323.583C388.214 323.583 387.691 323.505 387.232 323.349C386.783 323.202 386.428 322.973 386.169 322.662C385.918 322.351 385.793 321.966 385.793 321.508C385.793 321.309 385.832 321.097 385.91 320.872C385.996 320.648 386.139 320.427 386.338 320.211C386.545 319.995 386.835 319.8 387.206 319.628L387.972 320.068C387.513 320.259 387.211 320.475 387.064 320.717C386.925 320.959 386.856 321.188 386.856 321.404C386.856 321.689 386.938 321.927 387.103 322.117C387.276 322.308 387.509 322.45 387.803 322.545C388.097 322.64 388.43 322.688 388.801 322.688C389.182 322.688 389.506 322.636 389.774 322.532C390.042 322.429 390.25 322.282 390.396 322.091C390.552 321.901 390.63 321.681 390.63 321.43C390.63 321.119 390.513 320.86 390.28 320.652C390.055 320.453 389.627 320.336 388.996 320.302C388.477 320.267 388.045 320.22 387.699 320.159C387.353 320.099 387.064 320.03 386.83 319.952C386.606 319.865 386.415 319.77 386.26 319.666C386.113 319.563 385.979 319.455 385.858 319.342V319.044L387.129 317.786L388.088 318.123L386.766 319.303L386.934 318.837C387.029 318.906 387.12 318.971 387.206 319.031C387.293 319.083 387.41 319.135 387.557 319.187C387.712 319.23 387.92 319.273 388.179 319.316C388.447 319.351 388.801 319.386 389.242 319.42C389.839 319.463 390.314 319.567 390.669 319.731C391.032 319.896 391.296 320.116 391.46 320.393C391.624 320.669 391.706 321.002 391.706 321.391C391.706 321.754 391.602 322.1 391.395 322.429C391.196 322.766 390.881 323.042 390.448 323.259C390.025 323.475 389.476 323.583 388.801 323.583ZM388.788 318.512C388.244 318.512 387.781 318.409 387.401 318.201C387.021 317.994 386.731 317.713 386.532 317.358C386.333 317.004 386.234 316.606 386.234 316.165C386.234 315.733 386.333 315.344 386.532 314.998C386.731 314.644 387.021 314.363 387.401 314.155C387.781 313.939 388.244 313.831 388.788 313.831C389.342 313.831 389.809 313.939 390.189 314.155C390.569 314.363 390.859 314.644 391.058 314.998C391.257 315.344 391.356 315.733 391.356 316.165C391.356 316.606 391.257 317.004 391.058 317.358C390.859 317.713 390.569 317.994 390.189 318.201C389.809 318.409 389.342 318.512 388.788 318.512ZM388.788 317.618C389.264 317.618 389.636 317.497 389.904 317.255C390.172 317.004 390.306 316.641 390.306 316.165C390.306 315.698 390.172 315.344 389.904 315.102C389.636 314.86 389.264 314.739 388.788 314.739C388.33 314.739 387.959 314.86 387.673 315.102C387.397 315.344 387.258 315.698 387.258 316.165C387.258 316.641 387.397 317.004 387.673 317.255C387.959 317.497 388.33 317.618 388.788 317.618ZM389.878 314.907L389.554 313.987H392.225V314.804L389.878 314.907ZM393.477 320.574V311.238H394.566V315.089C394.782 314.691 395.085 314.384 395.474 314.168C395.872 313.943 396.304 313.831 396.771 313.831C397.272 313.831 397.709 313.93 398.08 314.129C398.452 314.328 398.737 314.635 398.936 315.05C399.135 315.456 399.234 315.975 399.234 316.606V320.574H398.158V316.723C398.158 316.074 398.016 315.586 397.73 315.258C397.454 314.929 397.056 314.765 396.537 314.765C396.165 314.765 395.828 314.856 395.526 315.037C395.232 315.21 394.998 315.465 394.826 315.802C394.653 316.131 394.566 316.541 394.566 317.034V320.574H393.477ZM403.529 320.574C403.14 320.574 402.803 320.514 402.518 320.393C402.232 320.272 402.012 320.068 401.856 319.783C401.709 319.489 401.636 319.096 401.636 318.603V314.907H400.495V313.987H401.636L401.778 312.379H402.725V313.987H404.631V314.907H402.725V318.603C402.725 319.009 402.807 319.286 402.971 319.433C403.136 319.571 403.425 319.641 403.84 319.641H404.566V320.574H403.529ZM408.528 320.73C407.975 320.73 407.495 320.639 407.089 320.458C406.683 320.276 406.363 320.021 406.129 319.692C405.905 319.364 405.766 318.979 405.714 318.538H406.83C406.873 318.772 406.959 318.984 407.089 319.174C407.227 319.364 407.418 319.52 407.66 319.641C407.902 319.753 408.196 319.809 408.541 319.809C408.844 319.809 409.095 319.766 409.294 319.679C409.492 319.584 409.639 319.459 409.734 319.303C409.838 319.148 409.89 318.975 409.89 318.785C409.89 318.517 409.825 318.309 409.695 318.162C409.574 318.015 409.393 317.903 409.151 317.825C408.917 317.747 408.628 317.678 408.282 317.618C407.971 317.566 407.677 317.497 407.4 317.41C407.124 317.315 406.877 317.198 406.661 317.06C406.454 316.913 406.285 316.731 406.155 316.515C406.034 316.299 405.974 316.04 405.974 315.737C405.974 315.366 406.069 315.037 406.259 314.752C406.458 314.458 406.735 314.233 407.089 314.077C407.452 313.913 407.876 313.831 408.36 313.831C409.06 313.831 409.626 314 410.059 314.337C410.499 314.674 410.755 315.158 410.824 315.789H409.747C409.713 315.461 409.57 315.206 409.319 315.024C409.077 314.843 408.753 314.752 408.347 314.752C407.932 314.752 407.616 314.834 407.4 314.998C407.184 315.162 407.076 315.379 407.076 315.647C407.076 315.819 407.132 315.979 407.245 316.126C407.357 316.265 407.53 316.381 407.763 316.476C408.005 316.572 408.299 316.649 408.645 316.71C409.095 316.788 409.497 316.891 409.851 317.021C410.206 317.151 410.487 317.345 410.694 317.605C410.91 317.855 411.014 318.218 411.005 318.694C411.014 319.109 410.914 319.468 410.707 319.77C410.499 320.073 410.21 320.311 409.838 320.483C409.466 320.648 409.03 320.73 408.528 320.73Z" fill="#EEEFF1"/>
</g>
</g>
<defs>
<filter id="filter0_f_2474_18607" x="-150" y="0" width="699" height="540" filterUnits="userSpaceOnUse" color-interpolation-filters="sRGB">
<feFlood flood-opacity="0" result="BackgroundImageFix"/>
<feBlend mode="normal" in="SourceGraphic" in2="BackgroundImageFix" result="shape"/>
<feGaussianBlur stdDeviation="100" result="effect1_foregroundBlur_2474_18607"/>
</filter>
<filter id="filter1_d_2474_18607" x="42.5899" y="200.295" width="802.877" height="150.054" filterUnits="userSpaceOnUse" color-interpolation-filters="sRGB">
<feFlood flood-opacity="0" result="BackgroundImageFix"/>
<feColorMatrix in="SourceAlpha" type="matrix" values="0 0 0 0 0 0 0 0 0 0 0 0 0 0 0 0 0 0 127 0" result="hardAlpha"/>
<feOffset dy="3.70503"/>
<feGaussianBlur stdDeviation="3.70503"/>
<feComposite in2="hardAlpha" operator="out"/>
<feColorMatrix type="matrix" values="0 0 0 0 0 0 0 0 0 0 0 0 0 0 0 0 0 0 0.2 0"/>
<feBlend mode="normal" in2="BackgroundImageFix" result="effect1_dropShadow_2474_18607"/>
<feBlend mode="normal" in="SourceGraphic" in2="effect1_dropShadow_2474_18607" result="shape"/>
</filter>
<filter id="filter2_d_2474_18607" x="285.464" y="210.482" width="142.723" height="40.7557" filterUnits="userSpaceOnUse" color-interpolation-filters="sRGB">
<feFlood flood-opacity="0" result="BackgroundImageFix"/>
<feColorMatrix in="SourceAlpha" type="matrix" values="0 0 0 0 0 0 0 0 0 0 0 0 0 0 0 0 0 0 127 0" result="hardAlpha"/>
<feOffset dy="3.70503"/>
<feGaussianBlur stdDeviation="3.70503"/>
<feComposite in2="hardAlpha" operator="out"/>
<feColorMatrix type="matrix" values="0 0 0 0 0 0 0 0 0 0 0 0 0 0 0 0 0 0 0.2 0"/>
<feBlend mode="normal" in2="BackgroundImageFix" result="effect1_dropShadow_2474_18607"/>
<feBlend mode="normal" in="SourceGraphic" in2="effect1_dropShadow_2474_18607" result="shape"/>
</filter>
<filter id="filter3_d_2474_18607" x="286.464" y="254.943" width="142.723" height="40.7557" filterUnits="userSpaceOnUse" color-interpolation-filters="sRGB">
<feFlood flood-opacity="0" result="BackgroundImageFix"/>
<feColorMatrix in="SourceAlpha" type="matrix" values="0 0 0 0 0 0 0 0 0 0 0 0 0 0 0 0 0 0 127 0" result="hardAlpha"/>
<feOffset dy="3.70503"/>
<feGaussianBlur stdDeviation="3.70503"/>
<feComposite in2="hardAlpha" operator="out"/>
<feColorMatrix type="matrix" values="0 0 0 0 0 0 0 0 0 0 0 0 0 0 0 0 0 0 0.2 0"/>
<feBlend mode="normal" in2="BackgroundImageFix" result="effect1_dropShadow_2474_18607"/>
<feBlend mode="normal" in="SourceGraphic" in2="effect1_dropShadow_2474_18607" result="shape"/>
</filter>
<filter id="filter4_d_2474_18607" x="286.464" y="299.402" width="142.723" height="40.7557" filterUnits="userSpaceOnUse" color-interpolation-filters="sRGB">
<feFlood flood-opacity="0" result="BackgroundImageFix"/>
<feColorMatrix in="SourceAlpha" type="matrix" values="0 0 0 0 0 0 0 0 0 0 0 0 0 0 0 0 0 0 127 0" result="hardAlpha"/>
<feOffset dy="3.70503"/>
<feGaussianBlur stdDeviation="3.70503"/>
<feComposite in2="hardAlpha" operator="out"/>
<feColorMatrix type="matrix" values="0 0 0 0 0 0 0 0 0 0 0 0 0 0 0 0 0 0 0.2 0"/>
<feBlend mode="normal" in2="BackgroundImageFix" result="effect1_dropShadow_2474_18607"/>
<feBlend mode="normal" in="SourceGraphic" in2="effect1_dropShadow_2474_18607" result="shape"/>
</filter>
<linearGradient id="paint0_linear_2474_18607" x1="199.5" y1="200" x2="199.5" y2="340" gradientUnits="userSpaceOnUse">
<stop stop-color="#4A4A54"/>
<stop offset="1" stop-color="#4A4A54" stop-opacity="0.5"/>
</linearGradient>
</defs>
</svg>
