<svg width="458" height="514" viewBox="0 0 458 514" fill="none" xmlns="http://www.w3.org/2000/svg">
<g filter="url(#filter0_f_2474_18607)">
<ellipse cx="220.5" cy="340" rx="149.5" ry="70" fill="url(#paint0_linear_2474_18607)"/>
</g>
<g filter="url(#filter1_d_2474_18607)">
<rect x="50.4631" y="238.463" width="787.131" height="134.307" rx="8.79944" stroke="#575B62" stroke-width="0.926257" shape-rendering="crispEdges"/>
<rect x="59.7258" y="244.02" width="767.606" height="34.2715" rx="8.79944" fill="#EEEFF1"/>
<rect x="59.7258" y="244.02" width="767.606" height="34.2715" rx="8.79944" fill="#282A2F"/>
<rect x="59.7258" y="244.02" width="767.606" height="34.2715" rx="8.79944" stroke="#575B62" stroke-width="0.926257"/>
<path d="M69.498 265.656V256.579H70.7688L73.9588 262.933L77.1359 256.579H78.4197V265.656H77.3304V258.524L74.3738 264.398H73.5568L70.5872 258.563V265.656H69.498ZM83.1644 265.812C82.5506 265.812 82.006 265.669 81.5305 265.384C81.0636 265.099 80.6962 264.697 80.4282 264.178C80.1602 263.659 80.0262 263.054 80.0262 262.362C80.0262 261.662 80.1559 261.057 80.4153 260.547C80.6833 260.028 81.055 259.626 81.5305 259.341C82.0146 259.056 82.5679 258.913 83.1903 258.913C83.8301 258.913 84.3704 259.056 84.8113 259.341C85.2608 259.626 85.6023 260.007 85.8357 260.482C86.0778 260.949 86.1988 261.459 86.1988 262.012C86.1988 262.099 86.1988 262.19 86.1988 262.285C86.1988 262.38 86.1945 262.488 86.1858 262.609H80.8432V261.766H85.1225C85.0966 261.152 84.8977 260.677 84.526 260.34C84.1629 260.002 83.709 259.834 83.1644 259.834C82.7927 259.834 82.4468 259.92 82.127 260.093C81.8158 260.257 81.5651 260.504 81.3749 260.832C81.1847 261.161 81.0896 261.571 81.0896 262.064V262.427C81.0896 262.972 81.1847 263.43 81.3749 263.802C81.5737 264.165 81.8287 264.437 82.1399 264.619C82.4598 264.8 82.8013 264.891 83.1644 264.891C83.6226 264.891 83.9986 264.792 84.2926 264.593C84.5865 264.394 84.8026 264.117 84.941 263.763H86.0173C85.9049 264.161 85.719 264.515 85.4597 264.826C85.2003 265.129 84.8761 265.371 84.4871 265.553C84.1067 265.725 83.6658 265.812 83.1644 265.812ZM87.6688 265.656V259.069H88.6543L88.7192 260.002C88.9267 259.657 89.2033 259.389 89.5491 259.198C89.9036 259.008 90.2883 258.913 90.7032 258.913C91.0317 258.913 91.33 258.961 91.598 259.056C91.8746 259.142 92.1167 259.281 92.3242 259.471C92.5317 259.652 92.7002 259.881 92.8299 260.158C93.0547 259.76 93.3616 259.453 93.7506 259.237C94.1396 259.021 94.5546 258.913 94.9955 258.913C95.5056 258.913 95.9465 259.013 96.3182 259.211C96.6899 259.41 96.9752 259.717 97.1741 260.132C97.3729 260.538 97.4723 261.048 97.4723 261.662V265.656H96.396V261.779C96.396 261.139 96.262 260.659 95.994 260.34C95.726 260.011 95.3499 259.847 94.8658 259.847C94.5373 259.847 94.2391 259.933 93.9711 260.106C93.7117 260.279 93.5042 260.534 93.3486 260.871C93.193 261.2 93.1152 261.606 93.1152 262.09V265.656H92.0259V261.779C92.0259 261.139 91.8919 260.659 91.6239 260.34C91.3559 260.011 90.9842 259.847 90.5087 259.847C90.1802 259.847 89.8819 259.933 89.6139 260.106C89.3546 260.279 89.1471 260.534 88.9915 260.871C88.8359 261.2 88.7581 261.606 88.7581 262.09V265.656H87.6688ZM102.616 265.812C102.236 265.812 101.894 265.76 101.592 265.656C101.298 265.544 101.038 265.397 100.814 265.215C100.598 265.025 100.416 264.813 100.269 264.58L100.178 265.656H99.1927V256.32H100.282V260.132C100.49 259.786 100.788 259.497 101.177 259.263C101.574 259.03 102.05 258.913 102.603 258.913C103.243 258.913 103.796 259.064 104.263 259.367C104.739 259.661 105.106 260.067 105.365 260.586C105.625 261.105 105.754 261.697 105.754 262.362C105.754 263.02 105.625 263.612 105.365 264.139C105.106 264.658 104.739 265.068 104.263 265.371C103.788 265.665 103.239 265.812 102.616 265.812ZM102.487 264.865C102.91 264.865 103.282 264.761 103.602 264.554C103.93 264.347 104.185 264.057 104.367 263.685C104.557 263.305 104.652 262.864 104.652 262.362C104.652 261.852 104.557 261.412 104.367 261.04C104.185 260.668 103.93 260.378 103.602 260.171C103.282 259.963 102.91 259.86 102.487 259.86C102.054 259.86 101.674 259.963 101.345 260.171C101.017 260.378 100.762 260.668 100.58 261.04C100.399 261.412 100.308 261.852 100.308 262.362C100.308 262.864 100.399 263.305 100.58 263.685C100.762 264.057 101.017 264.347 101.345 264.554C101.674 264.761 102.054 264.865 102.487 264.865ZM110.176 265.812C109.562 265.812 109.018 265.669 108.542 265.384C108.075 265.099 107.708 264.697 107.44 264.178C107.172 263.659 107.038 263.054 107.038 262.362C107.038 261.662 107.168 261.057 107.427 260.547C107.695 260.028 108.067 259.626 108.542 259.341C109.026 259.056 109.579 258.913 110.202 258.913C110.842 258.913 111.382 259.056 111.823 259.341C112.272 259.626 112.614 260.007 112.847 260.482C113.089 260.949 113.21 261.459 113.21 262.012C113.21 262.099 113.21 262.19 113.21 262.285C113.21 262.38 113.206 262.488 113.197 262.609H107.855V261.766H112.134C112.108 261.152 111.909 260.677 111.538 260.34C111.174 260.002 110.721 259.834 110.176 259.834C109.804 259.834 109.458 259.92 109.139 260.093C108.827 260.257 108.577 260.504 108.386 260.832C108.196 261.161 108.101 261.571 108.101 262.064V262.427C108.101 262.972 108.196 263.43 108.386 263.802C108.585 264.165 108.84 264.437 109.152 264.619C109.471 264.8 109.813 264.891 110.176 264.891C110.634 264.891 111.01 264.792 111.304 264.593C111.598 264.394 111.814 264.117 111.953 263.763H113.029C112.916 264.161 112.731 264.515 112.471 264.826C112.212 265.129 111.888 265.371 111.499 265.553C111.118 265.725 110.677 265.812 110.176 265.812ZM114.68 265.656V259.069H115.666L115.744 260.314C115.891 260.011 116.081 259.756 116.314 259.549C116.556 259.341 116.842 259.185 117.17 259.082C117.499 258.969 117.875 258.913 118.298 258.913V260.054H117.845C117.568 260.054 117.304 260.089 117.053 260.158C116.803 260.227 116.578 260.344 116.379 260.508C116.189 260.672 116.038 260.893 115.925 261.169C115.822 261.446 115.77 261.792 115.77 262.207V265.656H114.68Z" fill="#9FA1A6"/>
<path d="M176.959 265.656L174.469 256.579H175.636L177.594 264.359L179.811 256.579H181.03L183.196 264.385L185.18 256.579H186.347L183.805 265.656H182.561L180.395 258.148L178.178 265.656H176.959ZM189.848 265.812C189.234 265.812 188.685 265.669 188.201 265.384C187.717 265.099 187.337 264.697 187.06 264.178C186.784 263.659 186.645 263.054 186.645 262.362C186.645 261.662 186.784 261.053 187.06 260.534C187.345 260.015 187.73 259.618 188.214 259.341C188.707 259.056 189.26 258.913 189.874 258.913C190.488 258.913 191.037 259.056 191.521 259.341C192.005 259.618 192.386 260.015 192.662 260.534C192.939 261.053 193.077 261.662 193.077 262.362C193.077 263.063 192.935 263.672 192.649 264.191C192.373 264.701 191.988 265.099 191.495 265.384C191.011 265.669 190.462 265.812 189.848 265.812ZM189.848 264.878C190.229 264.878 190.579 264.787 190.899 264.606C191.218 264.416 191.474 264.135 191.664 263.763C191.863 263.383 191.962 262.916 191.962 262.362C191.962 261.801 191.867 261.334 191.677 260.962C191.486 260.59 191.231 260.314 190.912 260.132C190.592 259.942 190.246 259.847 189.874 259.847C189.502 259.847 189.152 259.942 188.824 260.132C188.504 260.314 188.245 260.59 188.046 260.962C187.856 261.334 187.76 261.801 187.76 262.362C187.76 262.916 187.856 263.383 188.046 263.763C188.245 264.135 188.5 264.416 188.811 264.606C189.131 264.787 189.477 264.878 189.848 264.878ZM194.617 265.656V259.069H195.603L195.68 260.314C195.827 260.011 196.018 259.756 196.251 259.549C196.493 259.341 196.778 259.185 197.107 259.082C197.435 258.969 197.811 258.913 198.235 258.913V260.054H197.781C197.505 260.054 197.241 260.089 196.99 260.158C196.739 260.227 196.515 260.344 196.316 260.508C196.126 260.672 195.974 260.893 195.862 261.169C195.758 261.446 195.706 261.792 195.706 262.207V265.656H194.617ZM203.487 265.656L200.375 262.064L203.228 259.069H204.564L201.296 262.453L201.309 261.675L204.875 265.656H203.487ZM199.467 265.656V256.32H200.557V265.656H199.467ZM208.086 265.812C207.532 265.812 207.053 265.721 206.646 265.54C206.24 265.358 205.92 265.103 205.687 264.774C205.462 264.446 205.324 264.061 205.272 263.62H206.387C206.43 263.854 206.517 264.066 206.646 264.256C206.785 264.446 206.975 264.602 207.217 264.723C207.459 264.835 207.753 264.891 208.099 264.891C208.401 264.891 208.652 264.848 208.851 264.761C209.05 264.666 209.197 264.541 209.292 264.385C209.395 264.23 209.447 264.057 209.447 263.867C209.447 263.599 209.382 263.391 209.253 263.244C209.132 263.097 208.95 262.985 208.708 262.907C208.475 262.829 208.185 262.76 207.839 262.7C207.528 262.648 207.234 262.579 206.957 262.492C206.681 262.397 206.434 262.28 206.218 262.142C206.011 261.995 205.842 261.814 205.713 261.597C205.592 261.381 205.531 261.122 205.531 260.819C205.531 260.448 205.626 260.119 205.816 259.834C206.015 259.54 206.292 259.315 206.646 259.159C207.009 258.995 207.433 258.913 207.917 258.913C208.617 258.913 209.184 259.082 209.616 259.419C210.057 259.756 210.312 260.24 210.381 260.871H209.305C209.27 260.543 209.127 260.288 208.877 260.106C208.635 259.925 208.31 259.834 207.904 259.834C207.489 259.834 207.174 259.916 206.957 260.08C206.741 260.244 206.633 260.461 206.633 260.729C206.633 260.901 206.689 261.061 206.802 261.208C206.914 261.347 207.087 261.463 207.321 261.558C207.563 261.654 207.857 261.731 208.202 261.792C208.652 261.87 209.054 261.973 209.408 262.103C209.763 262.233 210.044 262.427 210.251 262.687C210.467 262.937 210.571 263.3 210.562 263.776C210.571 264.191 210.472 264.55 210.264 264.852C210.057 265.155 209.767 265.393 209.395 265.565C209.024 265.73 208.587 265.812 208.086 265.812ZM212.156 268.509V259.069H213.142L213.233 260.132C213.371 259.916 213.548 259.717 213.764 259.536C213.98 259.345 214.24 259.194 214.542 259.082C214.845 258.969 215.191 258.913 215.58 258.913C216.211 258.913 216.76 259.064 217.227 259.367C217.702 259.67 218.069 260.08 218.329 260.599C218.588 261.118 218.718 261.71 218.718 262.375C218.718 263.041 218.588 263.633 218.329 264.152C218.069 264.662 217.702 265.068 217.227 265.371C216.751 265.665 216.198 265.812 215.567 265.812C215.039 265.812 214.573 265.704 214.166 265.488C213.769 265.272 213.462 264.969 213.246 264.58V268.509H212.156ZM215.45 264.865C215.865 264.865 216.237 264.761 216.565 264.554C216.894 264.347 217.149 264.057 217.33 263.685C217.521 263.305 217.616 262.864 217.616 262.362C217.616 261.852 217.521 261.412 217.33 261.04C217.149 260.668 216.894 260.378 216.565 260.171C216.237 259.963 215.865 259.86 215.45 259.86C215.018 259.86 214.637 259.963 214.309 260.171C213.98 260.378 213.725 260.668 213.544 261.04C213.362 261.412 213.271 261.852 213.271 262.362C213.271 262.864 213.362 263.305 213.544 263.685C213.725 264.057 213.98 264.347 214.309 264.554C214.637 264.761 215.018 264.865 215.45 264.865ZM222.4 265.812C221.873 265.812 221.432 265.721 221.078 265.54C220.732 265.349 220.473 265.099 220.3 264.787C220.127 264.476 220.04 264.139 220.04 263.776C220.04 263.335 220.153 262.959 220.377 262.648C220.611 262.337 220.935 262.103 221.35 261.948C221.774 261.783 222.266 261.701 222.828 261.701H224.553C224.553 261.286 224.492 260.94 224.371 260.664C224.25 260.387 224.069 260.18 223.827 260.041C223.593 259.903 223.295 259.834 222.932 259.834C222.526 259.834 222.171 259.938 221.869 260.145C221.575 260.344 221.393 260.642 221.324 261.04H220.209C220.261 260.582 220.416 260.197 220.676 259.886C220.944 259.566 221.276 259.324 221.674 259.159C222.072 258.995 222.491 258.913 222.932 258.913C223.537 258.913 224.039 259.025 224.436 259.25C224.843 259.466 225.145 259.773 225.344 260.171C225.543 260.56 225.642 261.018 225.642 261.546V265.656H224.67L224.605 264.502C224.518 264.684 224.406 264.857 224.268 265.021C224.138 265.176 223.982 265.315 223.801 265.436C223.619 265.548 223.412 265.639 223.178 265.708C222.954 265.777 222.694 265.812 222.4 265.812ZM222.569 264.891C222.872 264.891 223.144 264.831 223.386 264.71C223.628 264.58 223.835 264.407 224.008 264.191C224.19 263.966 224.324 263.72 224.41 263.452C224.505 263.175 224.553 262.894 224.553 262.609V262.544H222.919C222.504 262.544 222.167 262.596 221.908 262.7C221.648 262.795 221.462 262.933 221.35 263.115C221.238 263.296 221.181 263.499 221.181 263.724C221.181 263.957 221.233 264.165 221.337 264.347C221.449 264.519 221.609 264.653 221.817 264.749C222.024 264.844 222.275 264.891 222.569 264.891ZM230.296 265.812C229.683 265.812 229.129 265.669 228.636 265.384C228.152 265.09 227.772 264.684 227.495 264.165C227.219 263.646 227.08 263.045 227.08 262.362C227.08 261.671 227.219 261.07 227.495 260.56C227.772 260.041 228.152 259.639 228.636 259.354C229.129 259.06 229.687 258.913 230.309 258.913C231.079 258.913 231.723 259.116 232.241 259.523C232.76 259.92 233.093 260.461 233.24 261.144H232.125C232.03 260.729 231.814 260.409 231.476 260.184C231.139 259.959 230.742 259.847 230.283 259.847C229.912 259.847 229.566 259.942 229.246 260.132C228.926 260.314 228.671 260.595 228.481 260.975C228.291 261.347 228.196 261.809 228.196 262.362C228.196 262.777 228.252 263.145 228.364 263.465C228.477 263.776 228.628 264.04 228.818 264.256C229.008 264.463 229.229 264.623 229.479 264.736C229.739 264.839 230.007 264.891 230.283 264.891C230.595 264.891 230.876 264.839 231.126 264.736C231.377 264.632 231.589 264.485 231.762 264.295C231.943 264.096 232.064 263.858 232.125 263.581H233.24C233.102 264.247 232.769 264.787 232.241 265.202C231.714 265.609 231.066 265.812 230.296 265.812ZM237.652 265.812C237.038 265.812 236.494 265.669 236.018 265.384C235.551 265.099 235.184 264.697 234.916 264.178C234.648 263.659 234.514 263.054 234.514 262.362C234.514 261.662 234.644 261.057 234.903 260.547C235.171 260.028 235.543 259.626 236.018 259.341C236.502 259.056 237.056 258.913 237.678 258.913C238.318 258.913 238.858 259.056 239.299 259.341C239.749 259.626 240.09 260.007 240.323 260.482C240.565 260.949 240.686 261.459 240.686 262.012C240.686 262.099 240.686 262.19 240.686 262.285C240.686 262.38 240.682 262.488 240.674 262.609H235.331V261.766H239.61C239.584 261.152 239.385 260.677 239.014 260.34C238.651 260.002 238.197 259.834 237.652 259.834C237.28 259.834 236.935 259.92 236.615 260.093C236.303 260.257 236.053 260.504 235.863 260.832C235.672 261.161 235.577 261.571 235.577 262.064V262.427C235.577 262.972 235.672 263.43 235.863 263.802C236.061 264.165 236.316 264.437 236.628 264.619C236.948 264.8 237.289 264.891 237.652 264.891C238.11 264.891 238.486 264.792 238.78 264.593C239.074 264.394 239.29 264.117 239.429 263.763H240.505C240.393 264.161 240.207 264.515 239.947 264.826C239.688 265.129 239.364 265.371 238.975 265.553C238.594 265.725 238.153 265.812 237.652 265.812ZM247.74 265.812C247.213 265.812 246.772 265.721 246.418 265.54C246.072 265.349 245.813 265.099 245.64 264.787C245.467 264.476 245.38 264.139 245.38 263.776C245.38 263.335 245.493 262.959 245.717 262.648C245.951 262.337 246.275 262.103 246.69 261.948C247.114 261.783 247.606 261.701 248.168 261.701H249.893C249.893 261.286 249.832 260.94 249.711 260.664C249.59 260.387 249.409 260.18 249.167 260.041C248.933 259.903 248.635 259.834 248.272 259.834C247.866 259.834 247.511 259.938 247.209 260.145C246.915 260.344 246.733 260.642 246.664 261.04H245.549C245.601 260.582 245.756 260.197 246.016 259.886C246.284 259.566 246.616 259.324 247.014 259.159C247.412 258.995 247.831 258.913 248.272 258.913C248.877 258.913 249.379 259.025 249.776 259.25C250.183 259.466 250.485 259.773 250.684 260.171C250.883 260.56 250.982 261.018 250.982 261.546V265.656H250.01L249.945 264.502C249.858 264.684 249.746 264.857 249.608 265.021C249.478 265.176 249.322 265.315 249.141 265.436C248.959 265.548 248.752 265.639 248.518 265.708C248.294 265.777 248.034 265.812 247.74 265.812ZM247.909 264.891C248.212 264.891 248.484 264.831 248.726 264.71C248.968 264.58 249.175 264.407 249.348 264.191C249.53 263.966 249.664 263.72 249.75 263.452C249.845 263.175 249.893 262.894 249.893 262.609V262.544H248.259C247.844 262.544 247.507 262.596 247.248 262.7C246.988 262.795 246.802 262.933 246.69 263.115C246.578 263.296 246.521 263.499 246.521 263.724C246.521 263.957 246.573 264.165 246.677 264.347C246.789 264.519 246.949 264.653 247.157 264.749C247.364 264.844 247.615 264.891 247.909 264.891Z" fill="#EEEFF1"/>
<g filter="url(#filter2_d_2474_18607)">
<rect x="292.874" y="248.188" width="127.903" height="25.9352" rx="9.26257" fill="#4E3030" shape-rendering="crispEdges"/>
<rect x="293.337" y="248.651" width="126.977" height="25.0089" rx="8.79944" stroke="#575B62" stroke-width="0.926257" shape-rendering="crispEdges"/>
<path d="M305.494 255.945H313.599C313.599 255.945 314.757 255.945 314.757 257.103V265.208C314.757 265.208 314.757 266.366 313.599 266.366H305.494C305.494 266.366 304.336 266.366 304.336 265.208V257.103C304.336 257.103 304.336 255.945 305.494 255.945Z" stroke="#EEEFF1" stroke-width="0.926257" stroke-linecap="round" stroke-linejoin="round"/>
<path d="M311.284 259.418L307.81 262.891" stroke="#EEEFF1" stroke-width="0.926257" stroke-linecap="round" stroke-linejoin="round"/>
<path d="M307.81 259.418L311.284 262.891" stroke="#EEEFF1" stroke-width="0.926257" stroke-linecap="round" stroke-linejoin="round"/>
<path d="M323.487 265.654V256.577H326.417C327.126 256.577 327.706 256.698 328.155 256.94C328.605 257.173 328.937 257.489 329.154 257.887C329.37 258.284 329.478 258.734 329.478 259.235C329.478 259.719 329.365 260.165 329.141 260.571C328.924 260.977 328.587 261.302 328.129 261.544C327.671 261.786 327.083 261.907 326.366 261.907H324.576V265.654H323.487ZM328.285 265.654L326.288 261.595H327.507L329.569 265.654H328.285ZM324.576 261.051H326.34C327.031 261.051 327.537 260.882 327.857 260.545C328.185 260.208 328.35 259.776 328.35 259.248C328.35 258.712 328.19 258.289 327.87 257.977C327.559 257.658 327.044 257.498 326.327 257.498H324.576V261.051ZM333.607 265.81C332.994 265.81 332.449 265.667 331.973 265.382C331.507 265.097 331.139 264.695 330.871 264.176C330.603 263.657 330.469 263.052 330.469 262.361C330.469 261.66 330.599 261.055 330.858 260.545C331.126 260.026 331.498 259.624 331.973 259.339C332.458 259.054 333.011 258.911 333.633 258.911C334.273 258.911 334.813 259.054 335.254 259.339C335.704 259.624 336.045 260.005 336.279 260.48C336.521 260.947 336.642 261.457 336.642 262.01C336.642 262.097 336.642 262.188 336.642 262.283C336.642 262.378 336.637 262.486 336.629 262.607H331.286V261.764H335.565C335.54 261.15 335.341 260.675 334.969 260.338C334.606 260 334.152 259.832 333.607 259.832C333.236 259.832 332.89 259.918 332.57 260.091C332.259 260.255 332.008 260.502 331.818 260.83C331.628 261.159 331.533 261.57 331.533 262.062V262.425C331.533 262.97 331.628 263.428 331.818 263.8C332.017 264.163 332.272 264.435 332.583 264.617C332.903 264.798 333.244 264.889 333.607 264.889C334.066 264.889 334.442 264.79 334.736 264.591C335.029 264.392 335.246 264.115 335.384 263.761H336.46C336.348 264.159 336.162 264.513 335.903 264.824C335.643 265.127 335.319 265.369 334.93 265.551C334.55 265.723 334.109 265.81 333.607 265.81ZM338.112 265.654V259.067H339.097L339.162 260C339.37 259.655 339.646 259.387 339.992 259.196C340.346 259.006 340.731 258.911 341.146 258.911C341.475 258.911 341.773 258.959 342.041 259.054C342.318 259.14 342.56 259.279 342.767 259.469C342.975 259.65 343.143 259.879 343.273 260.156C343.498 259.758 343.805 259.451 344.194 259.235C344.583 259.019 344.998 258.911 345.438 258.911C345.948 258.911 346.389 259.011 346.761 259.209C347.133 259.408 347.418 259.715 347.617 260.13C347.816 260.536 347.915 261.046 347.915 261.66V265.654H346.839V261.777C346.839 261.137 346.705 260.657 346.437 260.338C346.169 260.009 345.793 259.845 345.309 259.845C344.98 259.845 344.682 259.931 344.414 260.104C344.155 260.277 343.947 260.532 343.792 260.869C343.636 261.198 343.558 261.604 343.558 262.088V265.654H342.469V261.777C342.469 261.137 342.335 260.657 342.067 260.338C341.799 260.009 341.427 259.845 340.952 259.845C340.623 259.845 340.325 259.931 340.057 260.104C339.798 260.277 339.59 260.532 339.434 260.869C339.279 261.198 339.201 261.604 339.201 262.088V265.654H338.112ZM352.566 265.81C351.953 265.81 351.404 265.667 350.919 265.382C350.435 265.097 350.055 264.695 349.778 264.176C349.502 263.657 349.363 263.052 349.363 262.361C349.363 261.66 349.502 261.051 349.778 260.532C350.064 260.013 350.448 259.616 350.932 259.339C351.425 259.054 351.978 258.911 352.592 258.911C353.206 258.911 353.755 259.054 354.239 259.339C354.723 259.616 355.104 260.013 355.38 260.532C355.657 261.051 355.795 261.66 355.795 262.361C355.795 263.061 355.653 263.67 355.367 264.189C355.091 264.699 354.706 265.097 354.213 265.382C353.729 265.667 353.18 265.81 352.566 265.81ZM352.566 264.876C352.947 264.876 353.297 264.785 353.617 264.604C353.937 264.414 354.192 264.133 354.382 263.761C354.581 263.381 354.68 262.914 354.68 262.361C354.68 261.799 354.585 261.332 354.395 260.96C354.205 260.588 353.95 260.312 353.63 260.13C353.31 259.94 352.964 259.845 352.592 259.845C352.221 259.845 351.87 259.94 351.542 260.13C351.222 260.312 350.963 260.588 350.764 260.96C350.574 261.332 350.479 261.799 350.479 262.361C350.479 262.914 350.574 263.381 350.764 263.761C350.963 264.133 351.218 264.414 351.529 264.604C351.849 264.785 352.195 264.876 352.566 264.876ZM358.912 265.654L356.409 259.067H357.551L359.548 264.604L361.545 259.067H362.66L360.17 265.654H358.912ZM366.419 265.81C365.805 265.81 365.26 265.667 364.785 265.382C364.318 265.097 363.951 264.695 363.683 264.176C363.415 263.657 363.281 263.052 363.281 262.361C363.281 261.66 363.41 261.055 363.67 260.545C363.938 260.026 364.31 259.624 364.785 259.339C365.269 259.054 365.822 258.911 366.445 258.911C367.085 258.911 367.625 259.054 368.066 259.339C368.515 259.624 368.857 260.005 369.09 260.48C369.332 260.947 369.453 261.457 369.453 262.01C369.453 262.097 369.453 262.188 369.453 262.283C369.453 262.378 369.449 262.486 369.44 262.607H364.098V261.764H368.377C368.351 261.15 368.152 260.675 367.78 260.338C367.417 260 366.964 259.832 366.419 259.832C366.047 259.832 365.701 259.918 365.381 260.091C365.07 260.255 364.82 260.502 364.629 260.83C364.439 261.159 364.344 261.57 364.344 262.062V262.425C364.344 262.97 364.439 263.428 364.629 263.8C364.828 264.163 365.083 264.435 365.394 264.617C365.714 264.798 366.056 264.889 366.419 264.889C366.877 264.889 367.253 264.79 367.547 264.591C367.841 264.392 368.057 264.115 368.195 263.761H369.272C369.159 264.159 368.974 264.513 368.714 264.824C368.455 265.127 368.131 265.369 367.742 265.551C367.361 265.723 366.92 265.81 366.419 265.81ZM374.445 265.654V256.577H377.376C378.085 256.577 378.664 256.698 379.114 256.94C379.563 257.173 379.896 257.489 380.112 257.887C380.328 258.284 380.436 258.734 380.436 259.235C380.436 259.719 380.324 260.165 380.099 260.571C379.883 260.977 379.546 261.302 379.088 261.544C378.63 261.786 378.042 261.907 377.324 261.907H375.535V265.654H374.445ZM379.243 265.654L377.246 261.595H378.465L380.527 265.654H379.243ZM375.535 261.051H377.298C377.99 261.051 378.496 260.882 378.815 260.545C379.144 260.208 379.308 259.776 379.308 259.248C379.308 258.712 379.148 258.289 378.828 257.977C378.517 257.658 378.003 257.498 377.285 257.498H375.535V261.051ZM382.196 265.654V259.067H383.286V265.654H382.196ZM382.741 257.692C382.525 257.692 382.343 257.623 382.196 257.485C382.058 257.338 381.989 257.156 381.989 256.94C381.989 256.724 382.058 256.551 382.196 256.421C382.343 256.283 382.525 256.214 382.741 256.214C382.949 256.214 383.126 256.283 383.273 256.421C383.42 256.551 383.493 256.724 383.493 256.94C383.493 257.156 383.42 257.338 383.273 257.485C383.126 257.623 382.949 257.692 382.741 257.692ZM387.801 268.663C387.214 268.663 386.691 268.585 386.232 268.429C385.783 268.282 385.428 268.053 385.169 267.742C384.918 267.431 384.793 267.046 384.793 266.588C384.793 266.389 384.832 266.177 384.91 265.953C384.996 265.728 385.139 265.507 385.338 265.291C385.545 265.075 385.835 264.881 386.206 264.708L386.972 265.149C386.513 265.339 386.211 265.555 386.064 265.797C385.925 266.039 385.856 266.268 385.856 266.484C385.856 266.77 385.938 267.007 386.103 267.197C386.276 267.388 386.509 267.53 386.803 267.625C387.097 267.72 387.43 267.768 387.801 267.768C388.182 267.768 388.506 267.716 388.774 267.612C389.042 267.509 389.25 267.362 389.396 267.172C389.552 266.981 389.63 266.761 389.63 266.51C389.63 266.199 389.513 265.94 389.28 265.732C389.055 265.533 388.627 265.417 387.996 265.382C387.477 265.347 387.045 265.3 386.699 265.239C386.353 265.179 386.064 265.11 385.83 265.032C385.606 264.945 385.415 264.85 385.26 264.747C385.113 264.643 384.979 264.535 384.858 264.422V264.124L386.129 262.866L387.088 263.203L385.766 264.383L385.934 263.917C386.029 263.986 386.12 264.051 386.206 264.111C386.293 264.163 386.41 264.215 386.557 264.267C386.712 264.31 386.92 264.353 387.179 264.396C387.447 264.431 387.801 264.466 388.242 264.5C388.839 264.543 389.314 264.647 389.669 264.811C390.032 264.976 390.296 265.196 390.46 265.473C390.624 265.749 390.706 266.082 390.706 266.471C390.706 266.834 390.602 267.18 390.395 267.509C390.196 267.846 389.881 268.122 389.448 268.339C389.025 268.555 388.476 268.663 387.801 268.663ZM387.788 263.592C387.244 263.592 386.781 263.489 386.401 263.281C386.021 263.074 385.731 262.793 385.532 262.438C385.333 262.084 385.234 261.686 385.234 261.245C385.234 260.813 385.333 260.424 385.532 260.078C385.731 259.724 386.021 259.443 386.401 259.235C386.781 259.019 387.244 258.911 387.788 258.911C388.342 258.911 388.809 259.019 389.189 259.235C389.569 259.443 389.859 259.724 390.058 260.078C390.257 260.424 390.356 260.813 390.356 261.245C390.356 261.686 390.257 262.084 390.058 262.438C389.859 262.793 389.569 263.074 389.189 263.281C388.809 263.489 388.342 263.592 387.788 263.592ZM387.788 262.698C388.264 262.698 388.636 262.577 388.904 262.335C389.172 262.084 389.306 261.721 389.306 261.245C389.306 260.778 389.172 260.424 388.904 260.182C388.636 259.94 388.264 259.819 387.788 259.819C387.33 259.819 386.959 259.94 386.673 260.182C386.397 260.424 386.258 260.778 386.258 261.245C386.258 261.721 386.397 262.084 386.673 262.335C386.959 262.577 387.33 262.698 387.788 262.698ZM388.878 259.987L388.554 259.067H391.225V259.884L388.878 259.987ZM392.477 265.654V256.318H393.566V260.169C393.782 259.771 394.085 259.464 394.474 259.248C394.872 259.024 395.304 258.911 395.771 258.911C396.272 258.911 396.709 259.011 397.08 259.209C397.452 259.408 397.737 259.715 397.936 260.13C398.135 260.536 398.234 261.055 398.234 261.686V265.654H397.158V261.803C397.158 261.155 397.016 260.666 396.73 260.338C396.454 260.009 396.056 259.845 395.537 259.845C395.165 259.845 394.828 259.936 394.526 260.117C394.232 260.29 393.998 260.545 393.826 260.882C393.653 261.211 393.566 261.621 393.566 262.114V265.654H392.477ZM402.529 265.654C402.14 265.654 401.803 265.594 401.518 265.473C401.232 265.352 401.012 265.149 400.856 264.863C400.709 264.569 400.636 264.176 400.636 263.683V259.987H399.495V259.067H400.636L400.778 257.459H401.725V259.067H403.631V259.987H401.725V263.683C401.725 264.09 401.807 264.366 401.971 264.513C402.136 264.651 402.425 264.721 402.84 264.721H403.566V265.654H402.529ZM407.528 265.81C406.975 265.81 406.495 265.719 406.089 265.538C405.683 265.356 405.363 265.101 405.129 264.773C404.905 264.444 404.766 264.059 404.714 263.618H405.83C405.873 263.852 405.959 264.064 406.089 264.254C406.227 264.444 406.418 264.6 406.66 264.721C406.902 264.833 407.196 264.889 407.541 264.889C407.844 264.889 408.095 264.846 408.294 264.76C408.492 264.664 408.639 264.539 408.734 264.383C408.838 264.228 408.89 264.055 408.89 263.865C408.89 263.597 408.825 263.389 408.695 263.242C408.574 263.095 408.393 262.983 408.151 262.905C407.917 262.827 407.628 262.758 407.282 262.698C406.971 262.646 406.677 262.577 406.4 262.49C406.124 262.395 405.877 262.278 405.661 262.14C405.454 261.993 405.285 261.812 405.155 261.595C405.034 261.379 404.974 261.12 404.974 260.817C404.974 260.446 405.069 260.117 405.259 259.832C405.458 259.538 405.735 259.313 406.089 259.158C406.452 258.993 406.876 258.911 407.36 258.911C408.06 258.911 408.626 259.08 409.059 259.417C409.499 259.754 409.755 260.238 409.824 260.869H408.747C408.713 260.541 408.57 260.286 408.319 260.104C408.077 259.923 407.753 259.832 407.347 259.832C406.932 259.832 406.616 259.914 406.4 260.078C406.184 260.242 406.076 260.459 406.076 260.727C406.076 260.9 406.132 261.059 406.245 261.206C406.357 261.345 406.53 261.461 406.763 261.557C407.005 261.652 407.299 261.729 407.645 261.79C408.095 261.868 408.497 261.971 408.851 262.101C409.206 262.231 409.487 262.425 409.694 262.685C409.91 262.935 410.014 263.299 410.005 263.774C410.014 264.189 409.914 264.548 409.707 264.85C409.499 265.153 409.21 265.391 408.838 265.564C408.466 265.728 408.03 265.81 407.528 265.81Z" fill="#EEEFF1"/>
</g>
<rect x="59.7258" y="288.481" width="768.606" height="34.2715" rx="8.79944" fill="#EEEFF1"/>
<rect x="59.7258" y="288.481" width="768.606" height="34.2715" rx="8.79944" fill="#282A2F"/>
<rect x="59.7258" y="288.481" width="768.606" height="34.2715" rx="8.79944" stroke="#575B62" stroke-width="0.926257"/>
<path d="M69.498 310.117V301.04H70.7688L73.9588 307.394L77.1359 301.04H78.4197V310.117H77.3304V302.985L74.3738 308.859H73.5568L70.5872 303.024V310.117H69.498ZM83.1644 310.273C82.5506 310.273 82.006 310.13 81.5305 309.845C81.0636 309.56 80.6962 309.158 80.4282 308.639C80.1602 308.12 80.0262 307.515 80.0262 306.823C80.0262 306.123 80.1559 305.518 80.4153 305.008C80.6833 304.489 81.055 304.087 81.5305 303.802C82.0146 303.517 82.5679 303.374 83.1903 303.374C83.8301 303.374 84.3704 303.517 84.8113 303.802C85.2608 304.087 85.6023 304.468 85.8357 304.943C86.0778 305.41 86.1988 305.92 86.1988 306.473C86.1988 306.56 86.1988 306.651 86.1988 306.746C86.1988 306.841 86.1945 306.949 86.1858 307.07H80.8432V306.227H85.1225C85.0966 305.613 84.8977 305.138 84.526 304.8C84.1629 304.463 83.709 304.295 83.1644 304.295C82.7927 304.295 82.4468 304.381 82.127 304.554C81.8158 304.718 81.5651 304.965 81.3749 305.293C81.1847 305.622 81.0896 306.032 81.0896 306.525V306.888C81.0896 307.433 81.1847 307.891 81.3749 308.263C81.5737 308.626 81.8287 308.898 82.1399 309.08C82.4598 309.261 82.8013 309.352 83.1644 309.352C83.6226 309.352 83.9986 309.253 84.2926 309.054C84.5865 308.855 84.8026 308.578 84.941 308.224H86.0173C85.9049 308.622 85.719 308.976 85.4597 309.287C85.2003 309.59 84.8761 309.832 84.4871 310.013C84.1067 310.186 83.6658 310.273 83.1644 310.273ZM87.6688 310.117V303.53H88.6543L88.7192 304.463C88.9267 304.118 89.2033 303.85 89.5491 303.659C89.9036 303.469 90.2883 303.374 90.7032 303.374C91.0317 303.374 91.33 303.422 91.598 303.517C91.8746 303.603 92.1167 303.741 92.3242 303.932C92.5317 304.113 92.7002 304.342 92.8299 304.619C93.0547 304.221 93.3616 303.914 93.7506 303.698C94.1396 303.482 94.5546 303.374 94.9955 303.374C95.5056 303.374 95.9465 303.473 96.3182 303.672C96.6899 303.871 96.9752 304.178 97.1741 304.593C97.3729 304.999 97.4723 305.509 97.4723 306.123V310.117H96.396V306.24C96.396 305.6 96.262 305.12 95.994 304.8C95.726 304.472 95.3499 304.308 94.8658 304.308C94.5373 304.308 94.2391 304.394 93.9711 304.567C93.7117 304.74 93.5042 304.995 93.3486 305.332C93.193 305.661 93.1152 306.067 93.1152 306.551V310.117H92.0259V306.24C92.0259 305.6 91.8919 305.12 91.6239 304.8C91.3559 304.472 90.9842 304.308 90.5087 304.308C90.1802 304.308 89.8819 304.394 89.6139 304.567C89.3546 304.74 89.1471 304.995 88.9915 305.332C88.8359 305.661 88.7581 306.067 88.7581 306.551V310.117H87.6688ZM102.616 310.273C102.236 310.273 101.894 310.221 101.592 310.117C101.298 310.005 101.038 309.858 100.814 309.676C100.598 309.486 100.416 309.274 100.269 309.041L100.178 310.117H99.1927V300.781H100.282V304.593C100.49 304.247 100.788 303.958 101.177 303.724C101.574 303.491 102.05 303.374 102.603 303.374C103.243 303.374 103.796 303.525 104.263 303.828C104.739 304.122 105.106 304.528 105.365 305.047C105.625 305.566 105.754 306.158 105.754 306.823C105.754 307.48 105.625 308.073 105.365 308.6C105.106 309.119 104.739 309.529 104.263 309.832C103.788 310.126 103.239 310.273 102.616 310.273ZM102.487 309.326C102.91 309.326 103.282 309.222 103.602 309.015C103.93 308.807 104.185 308.518 104.367 308.146C104.557 307.766 104.652 307.325 104.652 306.823C104.652 306.313 104.557 305.872 104.367 305.501C104.185 305.129 103.93 304.839 103.602 304.632C103.282 304.424 102.91 304.321 102.487 304.321C102.054 304.321 101.674 304.424 101.345 304.632C101.017 304.839 100.762 305.129 100.58 305.501C100.399 305.872 100.308 306.313 100.308 306.823C100.308 307.325 100.399 307.766 100.58 308.146C100.762 308.518 101.017 308.807 101.345 309.015C101.674 309.222 102.054 309.326 102.487 309.326ZM110.176 310.273C109.562 310.273 109.018 310.13 108.542 309.845C108.075 309.56 107.708 309.158 107.44 308.639C107.172 308.12 107.038 307.515 107.038 306.823C107.038 306.123 107.168 305.518 107.427 305.008C107.695 304.489 108.067 304.087 108.542 303.802C109.026 303.517 109.579 303.374 110.202 303.374C110.842 303.374 111.382 303.517 111.823 303.802C112.272 304.087 112.614 304.468 112.847 304.943C113.089 305.41 113.21 305.92 113.21 306.473C113.21 306.56 113.21 306.651 113.21 306.746C113.21 306.841 113.206 306.949 113.197 307.07H107.855V306.227H112.134C112.108 305.613 111.909 305.138 111.538 304.8C111.174 304.463 110.721 304.295 110.176 304.295C109.804 304.295 109.458 304.381 109.139 304.554C108.827 304.718 108.577 304.965 108.386 305.293C108.196 305.622 108.101 306.032 108.101 306.525V306.888C108.101 307.433 108.196 307.891 108.386 308.263C108.585 308.626 108.84 308.898 109.152 309.08C109.471 309.261 109.813 309.352 110.176 309.352C110.634 309.352 111.01 309.253 111.304 309.054C111.598 308.855 111.814 308.578 111.953 308.224H113.029C112.916 308.622 112.731 308.976 112.471 309.287C112.212 309.59 111.888 309.832 111.499 310.013C111.118 310.186 110.677 310.273 110.176 310.273ZM114.68 310.117V303.53H115.666L115.744 304.775C115.891 304.472 116.081 304.217 116.314 304.009C116.556 303.802 116.842 303.646 117.17 303.543C117.499 303.43 117.875 303.374 118.298 303.374V304.515H117.845C117.568 304.515 117.304 304.55 117.053 304.619C116.803 304.688 116.578 304.805 116.379 304.969C116.189 305.133 116.038 305.354 115.925 305.63C115.822 305.907 115.77 306.253 115.77 306.668V310.117H114.68Z" fill="#9FA1A6"/>
<path d="M176.959 310.117L174.469 301.04H175.636L177.594 308.82L179.811 301.04H181.03L183.196 308.846L185.18 301.04H186.347L183.805 310.117H182.561L180.395 302.609L178.178 310.117H176.959ZM189.848 310.273C189.234 310.273 188.685 310.13 188.201 309.845C187.717 309.56 187.337 309.158 187.06 308.639C186.784 308.12 186.645 307.515 186.645 306.823C186.645 306.123 186.784 305.514 187.06 304.995C187.345 304.476 187.73 304.079 188.214 303.802C188.707 303.517 189.26 303.374 189.874 303.374C190.488 303.374 191.037 303.517 191.521 303.802C192.005 304.079 192.386 304.476 192.662 304.995C192.939 305.514 193.077 306.123 193.077 306.823C193.077 307.524 192.935 308.133 192.649 308.652C192.373 309.162 191.988 309.56 191.495 309.845C191.011 310.13 190.462 310.273 189.848 310.273ZM189.848 309.339C190.229 309.339 190.579 309.248 190.899 309.067C191.218 308.877 191.474 308.596 191.664 308.224C191.863 307.844 191.962 307.377 191.962 306.823C191.962 306.261 191.867 305.795 191.677 305.423C191.486 305.051 191.231 304.775 190.912 304.593C190.592 304.403 190.246 304.308 189.874 304.308C189.502 304.308 189.152 304.403 188.824 304.593C188.504 304.775 188.245 305.051 188.046 305.423C187.856 305.795 187.76 306.261 187.76 306.823C187.76 307.377 187.856 307.844 188.046 308.224C188.245 308.596 188.5 308.877 188.811 309.067C189.131 309.248 189.477 309.339 189.848 309.339ZM194.617 310.117V303.53H195.603L195.68 304.775C195.827 304.472 196.018 304.217 196.251 304.009C196.493 303.802 196.778 303.646 197.107 303.543C197.435 303.43 197.811 303.374 198.235 303.374V304.515H197.781C197.505 304.515 197.241 304.55 196.99 304.619C196.739 304.688 196.515 304.805 196.316 304.969C196.126 305.133 195.974 305.354 195.862 305.63C195.758 305.907 195.706 306.253 195.706 306.668V310.117H194.617ZM203.487 310.117L200.375 306.525L203.228 303.53H204.564L201.296 306.914L201.309 306.136L204.875 310.117H203.487ZM199.467 310.117V300.781H200.557V310.117H199.467ZM208.086 310.273C207.532 310.273 207.053 310.182 206.646 310C206.24 309.819 205.92 309.564 205.687 309.235C205.462 308.907 205.324 308.522 205.272 308.081H206.387C206.43 308.315 206.517 308.526 206.646 308.717C206.785 308.907 206.975 309.062 207.217 309.184C207.459 309.296 207.753 309.352 208.099 309.352C208.401 309.352 208.652 309.309 208.851 309.222C209.05 309.127 209.197 309.002 209.292 308.846C209.395 308.691 209.447 308.518 209.447 308.328C209.447 308.06 209.382 307.852 209.253 307.705C209.132 307.558 208.95 307.446 208.708 307.368C208.475 307.29 208.185 307.221 207.839 307.161C207.528 307.109 207.234 307.04 206.957 306.953C206.681 306.858 206.434 306.741 206.218 306.603C206.011 306.456 205.842 306.274 205.713 306.058C205.592 305.842 205.531 305.583 205.531 305.28C205.531 304.909 205.626 304.58 205.816 304.295C206.015 304.001 206.292 303.776 206.646 303.62C207.009 303.456 207.433 303.374 207.917 303.374C208.617 303.374 209.184 303.543 209.616 303.88C210.057 304.217 210.312 304.701 210.381 305.332H209.305C209.27 305.004 209.127 304.749 208.877 304.567C208.635 304.386 208.31 304.295 207.904 304.295C207.489 304.295 207.174 304.377 206.957 304.541C206.741 304.705 206.633 304.922 206.633 305.19C206.633 305.362 206.689 305.522 206.802 305.669C206.914 305.808 207.087 305.924 207.321 306.019C207.563 306.115 207.857 306.192 208.202 306.253C208.652 306.331 209.054 306.434 209.408 306.564C209.763 306.694 210.044 306.888 210.251 307.148C210.467 307.398 210.571 307.761 210.562 308.237C210.571 308.652 210.472 309.011 210.264 309.313C210.057 309.616 209.767 309.854 209.395 310.026C209.024 310.191 208.587 310.273 208.086 310.273ZM212.156 312.97V303.53H213.142L213.233 304.593C213.371 304.377 213.548 304.178 213.764 303.996C213.98 303.806 214.24 303.655 214.542 303.543C214.845 303.43 215.191 303.374 215.58 303.374C216.211 303.374 216.76 303.525 217.227 303.828C217.702 304.13 218.069 304.541 218.329 305.06C218.588 305.579 218.718 306.171 218.718 306.836C218.718 307.502 218.588 308.094 218.329 308.613C218.069 309.123 217.702 309.529 217.227 309.832C216.751 310.126 216.198 310.273 215.567 310.273C215.039 310.273 214.573 310.165 214.166 309.949C213.769 309.732 213.462 309.43 213.246 309.041V312.97H212.156ZM215.45 309.326C215.865 309.326 216.237 309.222 216.565 309.015C216.894 308.807 217.149 308.518 217.33 308.146C217.521 307.766 217.616 307.325 217.616 306.823C217.616 306.313 217.521 305.872 217.33 305.501C217.149 305.129 216.894 304.839 216.565 304.632C216.237 304.424 215.865 304.321 215.45 304.321C215.018 304.321 214.637 304.424 214.309 304.632C213.98 304.839 213.725 305.129 213.544 305.501C213.362 305.872 213.271 306.313 213.271 306.823C213.271 307.325 213.362 307.766 213.544 308.146C213.725 308.518 213.98 308.807 214.309 309.015C214.637 309.222 215.018 309.326 215.45 309.326ZM222.4 310.273C221.873 310.273 221.432 310.182 221.078 310C220.732 309.81 220.473 309.56 220.3 309.248C220.127 308.937 220.04 308.6 220.04 308.237C220.04 307.796 220.153 307.42 220.377 307.109C220.611 306.797 220.935 306.564 221.35 306.408C221.774 306.244 222.266 306.162 222.828 306.162H224.553C224.553 305.747 224.492 305.401 224.371 305.125C224.25 304.848 224.069 304.641 223.827 304.502C223.593 304.364 223.295 304.295 222.932 304.295C222.526 304.295 222.171 304.398 221.869 304.606C221.575 304.805 221.393 305.103 221.324 305.501H220.209C220.261 305.043 220.416 304.658 220.676 304.347C220.944 304.027 221.276 303.785 221.674 303.62C222.072 303.456 222.491 303.374 222.932 303.374C223.537 303.374 224.039 303.486 224.436 303.711C224.843 303.927 225.145 304.234 225.344 304.632C225.543 305.021 225.642 305.479 225.642 306.006V310.117H224.67L224.605 308.963C224.518 309.145 224.406 309.318 224.268 309.482C224.138 309.637 223.982 309.776 223.801 309.897C223.619 310.009 223.412 310.1 223.178 310.169C222.954 310.238 222.694 310.273 222.4 310.273ZM222.569 309.352C222.872 309.352 223.144 309.292 223.386 309.171C223.628 309.041 223.835 308.868 224.008 308.652C224.19 308.427 224.324 308.181 224.41 307.913C224.505 307.636 224.553 307.355 224.553 307.07V307.005H222.919C222.504 307.005 222.167 307.057 221.908 307.161C221.648 307.256 221.462 307.394 221.35 307.576C221.238 307.757 221.181 307.96 221.181 308.185C221.181 308.418 221.233 308.626 221.337 308.807C221.449 308.98 221.609 309.114 221.817 309.209C222.024 309.305 222.275 309.352 222.569 309.352ZM230.296 310.273C229.683 310.273 229.129 310.13 228.636 309.845C228.152 309.551 227.772 309.145 227.495 308.626C227.219 308.107 227.08 307.506 227.08 306.823C227.08 306.132 227.219 305.531 227.495 305.021C227.772 304.502 228.152 304.1 228.636 303.815C229.129 303.521 229.687 303.374 230.309 303.374C231.079 303.374 231.723 303.577 232.241 303.984C232.76 304.381 233.093 304.922 233.24 305.604H232.125C232.03 305.19 231.814 304.87 231.476 304.645C231.139 304.42 230.742 304.308 230.283 304.308C229.912 304.308 229.566 304.403 229.246 304.593C228.926 304.775 228.671 305.056 228.481 305.436C228.291 305.808 228.196 306.27 228.196 306.823C228.196 307.238 228.252 307.606 228.364 307.926C228.477 308.237 228.628 308.501 228.818 308.717C229.008 308.924 229.229 309.084 229.479 309.196C229.739 309.3 230.007 309.352 230.283 309.352C230.595 309.352 230.876 309.3 231.126 309.196C231.377 309.093 231.589 308.946 231.762 308.756C231.943 308.557 232.064 308.319 232.125 308.042H233.24C233.102 308.708 232.769 309.248 232.241 309.663C231.714 310.07 231.066 310.273 230.296 310.273ZM237.652 310.273C237.038 310.273 236.494 310.13 236.018 309.845C235.551 309.56 235.184 309.158 234.916 308.639C234.648 308.12 234.514 307.515 234.514 306.823C234.514 306.123 234.644 305.518 234.903 305.008C235.171 304.489 235.543 304.087 236.018 303.802C236.502 303.517 237.056 303.374 237.678 303.374C238.318 303.374 238.858 303.517 239.299 303.802C239.749 304.087 240.09 304.468 240.323 304.943C240.565 305.41 240.686 305.92 240.686 306.473C240.686 306.56 240.686 306.651 240.686 306.746C240.686 306.841 240.682 306.949 240.674 307.07H235.331V306.227H239.61C239.584 305.613 239.385 305.138 239.014 304.8C238.651 304.463 238.197 304.295 237.652 304.295C237.28 304.295 236.935 304.381 236.615 304.554C236.303 304.718 236.053 304.965 235.863 305.293C235.672 305.622 235.577 306.032 235.577 306.525V306.888C235.577 307.433 235.672 307.891 235.863 308.263C236.061 308.626 236.316 308.898 236.628 309.08C236.948 309.261 237.289 309.352 237.652 309.352C238.11 309.352 238.486 309.253 238.78 309.054C239.074 308.855 239.29 308.578 239.429 308.224H240.505C240.393 308.622 240.207 308.976 239.947 309.287C239.688 309.59 239.364 309.832 238.975 310.013C238.594 310.186 238.153 310.273 237.652 310.273ZM249.037 310.273C248.657 310.273 248.315 310.221 248.013 310.117C247.719 310.005 247.459 309.858 247.235 309.676C247.018 309.486 246.837 309.274 246.69 309.041L246.599 310.117H245.614V300.781H246.703V304.593C246.91 304.247 247.209 303.958 247.598 303.724C247.995 303.491 248.471 303.374 249.024 303.374C249.664 303.374 250.217 303.525 250.684 303.828C251.159 304.122 251.527 304.528 251.786 305.047C252.046 305.566 252.175 306.158 252.175 306.823C252.175 307.48 252.046 308.073 251.786 308.6C251.527 309.119 251.159 309.529 250.684 309.832C250.209 310.126 249.66 310.273 249.037 310.273ZM248.907 309.326C249.331 309.326 249.703 309.222 250.023 309.015C250.351 308.807 250.606 308.518 250.788 308.146C250.978 307.766 251.073 307.325 251.073 306.823C251.073 306.313 250.978 305.872 250.788 305.501C250.606 305.129 250.351 304.839 250.023 304.632C249.703 304.424 249.331 304.321 248.907 304.321C248.475 304.321 248.095 304.424 247.766 304.632C247.438 304.839 247.183 305.129 247.001 305.501C246.82 305.872 246.729 306.313 246.729 306.823C246.729 307.325 246.82 307.766 247.001 308.146C247.183 308.518 247.438 308.807 247.766 309.015C248.095 309.222 248.475 309.326 248.907 309.326Z" fill="#EEEFF1"/>
<g filter="url(#filter3_d_2474_18607)">
<rect x="293.874" y="292.648" width="127.903" height="25.9352" rx="9.26257" fill="#4E3030" shape-rendering="crispEdges"/>
<rect x="294.337" y="293.112" width="126.977" height="25.0089" rx="8.79944" stroke="#575B62" stroke-width="0.926257" shape-rendering="crispEdges"/>
<path d="M306.494 300.406H314.599C314.599 300.406 315.757 300.406 315.757 301.564V309.669C315.757 309.669 315.757 310.827 314.599 310.827H306.494C306.494 310.827 305.336 310.827 305.336 309.669V301.564C305.336 301.564 305.336 300.406 306.494 300.406Z" stroke="#EEEFF1" stroke-width="0.926257" stroke-linecap="round" stroke-linejoin="round"/>
<path d="M312.284 303.879L308.81 307.352" stroke="#EEEFF1" stroke-width="0.926257" stroke-linecap="round" stroke-linejoin="round"/>
<path d="M308.81 303.879L312.284 307.352" stroke="#EEEFF1" stroke-width="0.926257" stroke-linecap="round" stroke-linejoin="round"/>
<path d="M324.487 310.115V301.038H327.417C328.126 301.038 328.706 301.159 329.155 301.401C329.605 301.634 329.937 301.95 330.154 302.348C330.37 302.745 330.478 303.195 330.478 303.696C330.478 304.18 330.365 304.626 330.141 305.032C329.924 305.438 329.587 305.762 329.129 306.005C328.671 306.247 328.083 306.368 327.366 306.368H325.576V310.115H324.487ZM329.285 310.115L327.288 306.056H328.507L330.569 310.115H329.285ZM325.576 305.512H327.34C328.031 305.512 328.537 305.343 328.857 305.006C329.185 304.669 329.35 304.237 329.35 303.709C329.35 303.173 329.19 302.75 328.87 302.438C328.559 302.119 328.044 301.959 327.327 301.959H325.576V305.512ZM334.607 310.271C333.994 310.271 333.449 310.128 332.973 309.843C332.507 309.558 332.139 309.156 331.871 308.637C331.603 308.118 331.469 307.513 331.469 306.821C331.469 306.121 331.599 305.516 331.858 305.006C332.126 304.487 332.498 304.085 332.973 303.8C333.458 303.515 334.011 303.372 334.633 303.372C335.273 303.372 335.813 303.515 336.254 303.8C336.704 304.085 337.045 304.466 337.279 304.941C337.521 305.408 337.642 305.918 337.642 306.471C337.642 306.558 337.642 306.649 337.642 306.744C337.642 306.839 337.637 306.947 337.629 307.068H332.286V306.225H336.565C336.54 305.611 336.341 305.136 335.969 304.799C335.606 304.461 335.152 304.293 334.607 304.293C334.236 304.293 333.89 304.379 333.57 304.552C333.259 304.716 333.008 304.963 332.818 305.291C332.628 305.62 332.533 306.03 332.533 306.523V306.886C332.533 307.431 332.628 307.889 332.818 308.261C333.017 308.624 333.272 308.896 333.583 309.078C333.903 309.259 334.244 309.35 334.607 309.35C335.066 309.35 335.442 309.251 335.736 309.052C336.029 308.853 336.246 308.576 336.384 308.222H337.46C337.348 308.62 337.162 308.974 336.903 309.285C336.643 309.588 336.319 309.83 335.93 310.011C335.55 310.184 335.109 310.271 334.607 310.271ZM339.112 310.115V303.528H340.097L340.162 304.461C340.37 304.116 340.646 303.848 340.992 303.657C341.346 303.467 341.731 303.372 342.146 303.372C342.475 303.372 342.773 303.42 343.041 303.515C343.318 303.601 343.56 303.739 343.767 303.93C343.975 304.111 344.143 304.34 344.273 304.617C344.498 304.219 344.805 303.912 345.194 303.696C345.583 303.48 345.998 303.372 346.438 303.372C346.948 303.372 347.389 303.472 347.761 303.67C348.133 303.869 348.418 304.176 348.617 304.591C348.816 304.997 348.915 305.507 348.915 306.121V310.115H347.839V306.238C347.839 305.598 347.705 305.118 347.437 304.799C347.169 304.47 346.793 304.306 346.309 304.306C345.98 304.306 345.682 304.392 345.414 304.565C345.155 304.738 344.947 304.993 344.792 305.33C344.636 305.659 344.558 306.065 344.558 306.549V310.115H343.469V306.238C343.469 305.598 343.335 305.118 343.067 304.799C342.799 304.47 342.427 304.306 341.952 304.306C341.623 304.306 341.325 304.392 341.057 304.565C340.798 304.738 340.59 304.993 340.434 305.33C340.279 305.659 340.201 306.065 340.201 306.549V310.115H339.112ZM353.566 310.271C352.953 310.271 352.404 310.128 351.919 309.843C351.435 309.558 351.055 309.156 350.778 308.637C350.502 308.118 350.363 307.513 350.363 306.821C350.363 306.121 350.502 305.512 350.778 304.993C351.064 304.474 351.448 304.077 351.932 303.8C352.425 303.515 352.978 303.372 353.592 303.372C354.206 303.372 354.755 303.515 355.239 303.8C355.723 304.077 356.104 304.474 356.38 304.993C356.657 305.512 356.795 306.121 356.795 306.821C356.795 307.522 356.653 308.131 356.367 308.65C356.091 309.16 355.706 309.558 355.213 309.843C354.729 310.128 354.18 310.271 353.566 310.271ZM353.566 309.337C353.947 309.337 354.297 309.246 354.617 309.065C354.937 308.875 355.192 308.594 355.382 308.222C355.581 307.842 355.68 307.375 355.68 306.821C355.68 306.26 355.585 305.793 355.395 305.421C355.205 305.049 354.95 304.773 354.63 304.591C354.31 304.401 353.964 304.306 353.592 304.306C353.221 304.306 352.87 304.401 352.542 304.591C352.222 304.773 351.963 305.049 351.764 305.421C351.574 305.793 351.479 306.26 351.479 306.821C351.479 307.375 351.574 307.842 351.764 308.222C351.963 308.594 352.218 308.875 352.529 309.065C352.849 309.246 353.195 309.337 353.566 309.337ZM359.912 310.115L357.409 303.528H358.551L360.548 309.065L362.545 303.528H363.66L361.17 310.115H359.912ZM367.419 310.271C366.805 310.271 366.26 310.128 365.785 309.843C365.318 309.558 364.951 309.156 364.683 308.637C364.415 308.118 364.281 307.513 364.281 306.821C364.281 306.121 364.41 305.516 364.67 305.006C364.938 304.487 365.31 304.085 365.785 303.8C366.269 303.515 366.822 303.372 367.445 303.372C368.085 303.372 368.625 303.515 369.066 303.8C369.515 304.085 369.857 304.466 370.09 304.941C370.332 305.408 370.453 305.918 370.453 306.471C370.453 306.558 370.453 306.649 370.453 306.744C370.453 306.839 370.449 306.947 370.44 307.068H365.098V306.225H369.377C369.351 305.611 369.152 305.136 368.78 304.799C368.417 304.461 367.964 304.293 367.419 304.293C367.047 304.293 366.701 304.379 366.381 304.552C366.07 304.716 365.82 304.963 365.629 305.291C365.439 305.62 365.344 306.03 365.344 306.523V306.886C365.344 307.431 365.439 307.889 365.629 308.261C365.828 308.624 366.083 308.896 366.394 309.078C366.714 309.259 367.056 309.35 367.419 309.35C367.877 309.35 368.253 309.251 368.547 309.052C368.841 308.853 369.057 308.576 369.195 308.222H370.272C370.159 308.62 369.974 308.974 369.714 309.285C369.455 309.588 369.131 309.83 368.742 310.011C368.361 310.184 367.92 310.271 367.419 310.271ZM375.445 310.115V301.038H378.376C379.085 301.038 379.664 301.159 380.114 301.401C380.563 301.634 380.896 301.95 381.112 302.348C381.328 302.745 381.436 303.195 381.436 303.696C381.436 304.18 381.324 304.626 381.099 305.032C380.883 305.438 380.546 305.762 380.088 306.005C379.63 306.247 379.042 306.368 378.324 306.368H376.535V310.115H375.445ZM380.243 310.115L378.246 306.056H379.465L381.527 310.115H380.243ZM376.535 305.512H378.298C378.99 305.512 379.496 305.343 379.815 305.006C380.144 304.669 380.308 304.237 380.308 303.709C380.308 303.173 380.148 302.75 379.828 302.438C379.517 302.119 379.003 301.959 378.285 301.959H376.535V305.512ZM383.196 310.115V303.528H384.286V310.115H383.196ZM383.741 302.153C383.525 302.153 383.343 302.084 383.196 301.946C383.058 301.799 382.989 301.617 382.989 301.401C382.989 301.185 383.058 301.012 383.196 300.882C383.343 300.744 383.525 300.675 383.741 300.675C383.949 300.675 384.126 300.744 384.273 300.882C384.42 301.012 384.493 301.185 384.493 301.401C384.493 301.617 384.42 301.799 384.273 301.946C384.126 302.084 383.949 302.153 383.741 302.153ZM388.801 313.124C388.214 313.124 387.691 313.046 387.232 312.89C386.783 312.743 386.428 312.514 386.169 312.203C385.918 311.892 385.793 311.507 385.793 311.049C385.793 310.85 385.832 310.638 385.91 310.413C385.996 310.189 386.139 309.968 386.338 309.752C386.545 309.536 386.835 309.342 387.206 309.169L387.972 309.609C387.513 309.8 387.211 310.016 387.064 310.258C386.925 310.5 386.856 310.729 386.856 310.945C386.856 311.23 386.938 311.468 387.103 311.658C387.276 311.849 387.509 311.991 387.803 312.086C388.097 312.181 388.43 312.229 388.801 312.229C389.182 312.229 389.506 312.177 389.774 312.073C390.042 311.97 390.25 311.823 390.396 311.632C390.552 311.442 390.63 311.222 390.63 310.971C390.63 310.66 390.513 310.401 390.28 310.193C390.055 309.994 389.627 309.877 388.996 309.843C388.477 309.808 388.045 309.761 387.699 309.7C387.353 309.64 387.064 309.571 386.83 309.493C386.606 309.406 386.415 309.311 386.26 309.208C386.113 309.104 385.979 308.996 385.858 308.883V308.585L387.129 307.327L388.088 307.664L386.766 308.844L386.934 308.378C387.029 308.447 387.12 308.512 387.206 308.572C387.293 308.624 387.41 308.676 387.557 308.728C387.712 308.771 387.92 308.814 388.179 308.857C388.447 308.892 388.801 308.927 389.242 308.961C389.839 309.004 390.314 309.108 390.669 309.272C391.032 309.437 391.296 309.657 391.46 309.934C391.624 310.21 391.706 310.543 391.706 310.932C391.706 311.295 391.602 311.641 391.395 311.97C391.196 312.307 390.881 312.583 390.448 312.8C390.025 313.016 389.476 313.124 388.801 313.124ZM388.788 308.053C388.244 308.053 387.781 307.95 387.401 307.742C387.021 307.535 386.731 307.254 386.532 306.899C386.333 306.545 386.234 306.147 386.234 305.706C386.234 305.274 386.333 304.885 386.532 304.539C386.731 304.185 387.021 303.904 387.401 303.696C387.781 303.48 388.244 303.372 388.788 303.372C389.342 303.372 389.809 303.48 390.189 303.696C390.569 303.904 390.859 304.185 391.058 304.539C391.257 304.885 391.356 305.274 391.356 305.706C391.356 306.147 391.257 306.545 391.058 306.899C390.859 307.254 390.569 307.535 390.189 307.742C389.809 307.95 389.342 308.053 388.788 308.053ZM388.788 307.159C389.264 307.159 389.636 307.038 389.904 306.796C390.172 306.545 390.306 306.182 390.306 305.706C390.306 305.239 390.172 304.885 389.904 304.643C389.636 304.401 389.264 304.28 388.788 304.28C388.33 304.28 387.959 304.401 387.673 304.643C387.397 304.885 387.258 305.239 387.258 305.706C387.258 306.182 387.397 306.545 387.673 306.796C387.959 307.038 388.33 307.159 388.788 307.159ZM389.878 304.448L389.554 303.528H392.225V304.345L389.878 304.448ZM393.477 310.115V300.779H394.566V304.63C394.782 304.232 395.085 303.925 395.474 303.709C395.872 303.484 396.304 303.372 396.771 303.372C397.272 303.372 397.709 303.472 398.08 303.67C398.452 303.869 398.737 304.176 398.936 304.591C399.135 304.997 399.234 305.516 399.234 306.147V310.115H398.158V306.264C398.158 305.615 398.016 305.127 397.73 304.799C397.454 304.47 397.056 304.306 396.537 304.306C396.165 304.306 395.828 304.397 395.526 304.578C395.232 304.751 394.998 305.006 394.826 305.343C394.653 305.672 394.566 306.082 394.566 306.575V310.115H393.477ZM403.529 310.115C403.14 310.115 402.803 310.055 402.518 309.934C402.232 309.813 402.012 309.609 401.856 309.324C401.709 309.03 401.636 308.637 401.636 308.144V304.448H400.495V303.528H401.636L401.778 301.92H402.725V303.528H404.631V304.448H402.725V308.144C402.725 308.55 402.807 308.827 402.971 308.974C403.136 309.112 403.425 309.182 403.84 309.182H404.566V310.115H403.529ZM408.528 310.271C407.975 310.271 407.495 310.18 407.089 309.999C406.683 309.817 406.363 309.562 406.129 309.233C405.905 308.905 405.766 308.52 405.714 308.079H406.83C406.873 308.313 406.959 308.525 407.089 308.715C407.227 308.905 407.418 309.061 407.66 309.182C407.902 309.294 408.196 309.35 408.541 309.35C408.844 309.35 409.095 309.307 409.294 309.22C409.492 309.125 409.639 309 409.734 308.844C409.838 308.689 409.89 308.516 409.89 308.326C409.89 308.058 409.825 307.85 409.695 307.703C409.574 307.556 409.393 307.444 409.151 307.366C408.917 307.288 408.628 307.219 408.282 307.159C407.971 307.107 407.677 307.038 407.4 306.951C407.124 306.856 406.877 306.739 406.661 306.601C406.454 306.454 406.285 306.273 406.155 306.056C406.034 305.84 405.974 305.581 405.974 305.278C405.974 304.907 406.069 304.578 406.259 304.293C406.458 303.999 406.735 303.774 407.089 303.618C407.452 303.454 407.876 303.372 408.36 303.372C409.06 303.372 409.626 303.541 410.059 303.878C410.499 304.215 410.755 304.699 410.824 305.33H409.747C409.713 305.002 409.57 304.747 409.319 304.565C409.077 304.384 408.753 304.293 408.347 304.293C407.932 304.293 407.616 304.375 407.4 304.539C407.184 304.703 407.076 304.92 407.076 305.188C407.076 305.36 407.132 305.52 407.245 305.667C407.357 305.806 407.53 305.922 407.763 306.017C408.005 306.113 408.299 306.19 408.645 306.251C409.095 306.329 409.497 306.432 409.851 306.562C410.206 306.692 410.487 306.886 410.694 307.146C410.91 307.396 411.014 307.759 411.005 308.235C411.014 308.65 410.914 309.009 410.707 309.311C410.499 309.614 410.21 309.852 409.838 310.024C409.466 310.189 409.03 310.271 408.528 310.271Z" fill="#EEEFF1"/>
</g>
<rect x="59.7258" y="332.94" width="768.606" height="34.2715" rx="8.79944" fill="#EEEFF1"/>
<rect x="59.7258" y="332.94" width="768.606" height="34.2715" rx="8.79944" fill="#282A2F"/>
<rect x="59.7258" y="332.94" width="768.606" height="34.2715" rx="8.79944" stroke="#575B62" stroke-width="0.926257"/>
<path d="M68.9144 354.576L72.2601 345.499H73.4142L76.7468 354.576H75.5927L72.8306 346.86L70.0556 354.576H68.9144ZM70.4446 352.242L70.7558 351.36H74.8665L75.1778 352.242H70.4446ZM80.5686 354.732C79.9376 354.732 79.3843 354.58 78.9088 354.278C78.4333 353.975 78.0659 353.565 77.8065 353.046C77.5472 352.527 77.4175 351.935 77.4175 351.269C77.4175 350.604 77.5472 350.012 77.8065 349.493C78.0659 348.974 78.4333 348.568 78.9088 348.274C79.3929 347.98 79.9505 347.833 80.5816 347.833C81.109 347.833 81.5715 347.941 81.9691 348.157C82.3755 348.373 82.6867 348.676 82.9028 349.065V345.24H83.9921V354.576H83.0065L82.9028 353.5C82.7731 353.716 82.6002 353.919 82.3841 354.109C82.168 354.291 81.9086 354.442 81.606 354.563C81.3121 354.676 80.9663 354.732 80.5686 354.732ZM80.6853 353.785C81.1176 353.785 81.498 353.681 81.8265 353.474C82.155 353.266 82.41 352.977 82.5916 352.605C82.7731 352.225 82.8639 351.784 82.8639 351.282C82.8639 350.772 82.7731 350.331 82.5916 349.96C82.41 349.588 82.155 349.298 81.8265 349.091C81.498 348.883 81.1176 348.78 80.6853 348.78C80.2704 348.78 79.8986 348.883 79.5701 349.091C79.2416 349.298 78.9866 349.588 78.805 349.96C78.6235 350.331 78.5327 350.772 78.5327 351.282C78.5327 351.784 78.6235 352.225 78.805 352.605C78.9866 352.977 79.2416 353.266 79.5701 353.474C79.8986 353.681 80.2704 353.785 80.6853 353.785ZM85.8072 354.576V347.989H86.7928L86.8576 348.922C87.0651 348.576 87.3417 348.308 87.6875 348.118C88.042 347.928 88.4267 347.833 88.8417 347.833C89.1702 347.833 89.4684 347.881 89.7364 347.976C90.0131 348.062 90.2551 348.2 90.4626 348.391C90.6701 348.572 90.8387 348.801 90.9683 349.078C91.1931 348.68 91.5 348.373 91.889 348.157C92.2781 347.941 92.693 347.833 93.1339 347.833C93.644 347.833 94.0849 347.932 94.4566 348.131C94.8284 348.33 95.1137 348.637 95.3125 349.052C95.5113 349.458 95.6107 349.968 95.6107 350.582V354.576H94.5344V350.699C94.5344 350.059 94.4004 349.579 94.1324 349.259C93.8644 348.931 93.4884 348.767 93.0043 348.767C92.6757 348.767 92.3775 348.853 92.1095 349.026C91.8501 349.199 91.6427 349.454 91.4871 349.791C91.3314 350.12 91.2536 350.526 91.2536 351.01V354.576H90.1644V350.699C90.1644 350.059 90.0304 349.579 89.7624 349.259C89.4944 348.931 89.1226 348.767 88.6471 348.767C88.3186 348.767 88.0204 348.853 87.7524 349.026C87.493 349.199 87.2856 349.454 87.1299 349.791C86.9743 350.12 86.8965 350.526 86.8965 351.01V354.576H85.8072ZM97.4349 354.576V347.989H98.5242V354.576H97.4349ZM97.9796 346.614C97.7634 346.614 97.5819 346.545 97.4349 346.407C97.2966 346.26 97.2274 346.078 97.2274 345.862C97.2274 345.646 97.2966 345.473 97.4349 345.343C97.5819 345.205 97.7634 345.136 97.9796 345.136C98.187 345.136 98.3643 345.205 98.5112 345.343C98.6582 345.473 98.7317 345.646 98.7317 345.862C98.7317 346.078 98.6582 346.26 98.5112 346.407C98.3643 346.545 98.187 346.614 97.9796 346.614ZM100.446 354.576V347.989H101.432L101.484 349.104C101.691 348.706 101.985 348.395 102.366 348.17C102.755 347.945 103.196 347.833 103.688 347.833C104.19 347.833 104.626 347.932 104.998 348.131C105.37 348.33 105.659 348.633 105.867 349.039C106.074 349.445 106.178 349.96 106.178 350.582V354.576H105.089V350.699C105.089 350.059 104.942 349.579 104.648 349.259C104.363 348.931 103.961 348.767 103.442 348.767C103.079 348.767 102.755 348.853 102.469 349.026C102.184 349.199 101.955 349.45 101.782 349.778C101.618 350.107 101.536 350.513 101.536 350.997V354.576H100.446Z" fill="#9FA1A6"/>
<path d="M176.959 354.576L174.469 345.499H175.636L177.594 353.279L179.811 345.499H181.03L183.196 353.305L185.18 345.499H186.347L183.805 354.576H182.561L180.395 347.068L178.178 354.576H176.959ZM189.848 354.732C189.234 354.732 188.685 354.589 188.201 354.304C187.717 354.019 187.337 353.617 187.06 353.098C186.784 352.579 186.645 351.974 186.645 351.282C186.645 350.582 186.784 349.973 187.06 349.454C187.345 348.935 187.73 348.538 188.214 348.261C188.707 347.976 189.26 347.833 189.874 347.833C190.488 347.833 191.037 347.976 191.521 348.261C192.005 348.538 192.386 348.935 192.662 349.454C192.939 349.973 193.077 350.582 193.077 351.282C193.077 351.983 192.935 352.592 192.649 353.111C192.373 353.621 191.988 354.019 191.495 354.304C191.011 354.589 190.462 354.732 189.848 354.732ZM189.848 353.798C190.229 353.798 190.579 353.707 190.899 353.526C191.218 353.336 191.474 353.055 191.664 352.683C191.863 352.303 191.962 351.836 191.962 351.282C191.962 350.72 191.867 350.254 191.677 349.882C191.486 349.51 191.231 349.234 190.912 349.052C190.592 348.862 190.246 348.767 189.874 348.767C189.502 348.767 189.152 348.862 188.824 349.052C188.504 349.234 188.245 349.51 188.046 349.882C187.856 350.254 187.76 350.72 187.76 351.282C187.76 351.836 187.856 352.303 188.046 352.683C188.245 353.055 188.5 353.336 188.811 353.526C189.131 353.707 189.477 353.798 189.848 353.798ZM194.617 354.576V347.989H195.603L195.68 349.234C195.827 348.931 196.018 348.676 196.251 348.468C196.493 348.261 196.778 348.105 197.107 348.002C197.435 347.889 197.811 347.833 198.235 347.833V348.974H197.781C197.505 348.974 197.241 349.009 196.99 349.078C196.739 349.147 196.515 349.264 196.316 349.428C196.126 349.592 195.974 349.813 195.862 350.089C195.758 350.366 195.706 350.712 195.706 351.127V354.576H194.617ZM203.487 354.576L200.375 350.984L203.228 347.989H204.564L201.296 351.373L201.309 350.595L204.875 354.576H203.487ZM199.467 354.576V345.24H200.557V354.576H199.467ZM208.086 354.732C207.532 354.732 207.053 354.641 206.646 354.459C206.24 354.278 205.92 354.023 205.687 353.694C205.462 353.366 205.324 352.981 205.272 352.54H206.387C206.43 352.774 206.517 352.985 206.646 353.176C206.785 353.366 206.975 353.521 207.217 353.643C207.459 353.755 207.753 353.811 208.099 353.811C208.401 353.811 208.652 353.768 208.851 353.681C209.05 353.586 209.197 353.461 209.292 353.305C209.395 353.15 209.447 352.977 209.447 352.787C209.447 352.519 209.382 352.311 209.253 352.164C209.132 352.017 208.95 351.905 208.708 351.827C208.475 351.749 208.185 351.68 207.839 351.62C207.528 351.568 207.234 351.499 206.957 351.412C206.681 351.317 206.434 351.2 206.218 351.062C206.011 350.915 205.842 350.733 205.713 350.517C205.592 350.301 205.531 350.042 205.531 349.739C205.531 349.368 205.626 349.039 205.816 348.754C206.015 348.46 206.292 348.235 206.646 348.079C207.009 347.915 207.433 347.833 207.917 347.833C208.617 347.833 209.184 348.002 209.616 348.339C210.057 348.676 210.312 349.16 210.381 349.791H209.305C209.27 349.463 209.127 349.208 208.877 349.026C208.635 348.844 208.31 348.754 207.904 348.754C207.489 348.754 207.174 348.836 206.957 349C206.741 349.164 206.633 349.38 206.633 349.648C206.633 349.821 206.689 349.981 206.802 350.128C206.914 350.267 207.087 350.383 207.321 350.478C207.563 350.574 207.857 350.651 208.202 350.712C208.652 350.79 209.054 350.893 209.408 351.023C209.763 351.153 210.044 351.347 210.251 351.607C210.467 351.857 210.571 352.22 210.562 352.696C210.571 353.111 210.472 353.47 210.264 353.772C210.057 354.075 209.767 354.312 209.395 354.485C209.024 354.65 208.587 354.732 208.086 354.732ZM212.156 357.429V347.989H213.142L213.233 349.052C213.371 348.836 213.548 348.637 213.764 348.455C213.98 348.265 214.24 348.114 214.542 348.002C214.845 347.889 215.191 347.833 215.58 347.833C216.211 347.833 216.76 347.984 217.227 348.287C217.702 348.589 218.069 349 218.329 349.519C218.588 350.038 218.718 350.63 218.718 351.295C218.718 351.961 218.588 352.553 218.329 353.072C218.069 353.582 217.702 353.988 217.227 354.291C216.751 354.585 216.198 354.732 215.567 354.732C215.039 354.732 214.573 354.624 214.166 354.408C213.769 354.191 213.462 353.889 213.246 353.5V357.429H212.156ZM215.45 353.785C215.865 353.785 216.237 353.681 216.565 353.474C216.894 353.266 217.149 352.977 217.33 352.605C217.521 352.225 217.616 351.784 217.616 351.282C217.616 350.772 217.521 350.331 217.33 349.96C217.149 349.588 216.894 349.298 216.565 349.091C216.237 348.883 215.865 348.78 215.45 348.78C215.018 348.78 214.637 348.883 214.309 349.091C213.98 349.298 213.725 349.588 213.544 349.96C213.362 350.331 213.271 350.772 213.271 351.282C213.271 351.784 213.362 352.225 213.544 352.605C213.725 352.977 213.98 353.266 214.309 353.474C214.637 353.681 215.018 353.785 215.45 353.785ZM222.4 354.732C221.873 354.732 221.432 354.641 221.078 354.459C220.732 354.269 220.473 354.019 220.3 353.707C220.127 353.396 220.04 353.059 220.04 352.696C220.04 352.255 220.153 351.879 220.377 351.568C220.611 351.256 220.935 351.023 221.35 350.867C221.774 350.703 222.266 350.621 222.828 350.621H224.553C224.553 350.206 224.492 349.86 224.371 349.584C224.25 349.307 224.069 349.1 223.827 348.961C223.593 348.823 223.295 348.754 222.932 348.754C222.526 348.754 222.171 348.857 221.869 349.065C221.575 349.264 221.393 349.562 221.324 349.96H220.209C220.261 349.502 220.416 349.117 220.676 348.806C220.944 348.486 221.276 348.244 221.674 348.079C222.072 347.915 222.491 347.833 222.932 347.833C223.537 347.833 224.039 347.945 224.436 348.17C224.843 348.386 225.145 348.693 225.344 349.091C225.543 349.48 225.642 349.938 225.642 350.465V354.576H224.67L224.605 353.422C224.518 353.604 224.406 353.777 224.268 353.941C224.138 354.096 223.982 354.235 223.801 354.356C223.619 354.468 223.412 354.559 223.178 354.628C222.954 354.697 222.694 354.732 222.4 354.732ZM222.569 353.811C222.872 353.811 223.144 353.751 223.386 353.63C223.628 353.5 223.835 353.327 224.008 353.111C224.19 352.886 224.324 352.64 224.41 352.372C224.505 352.095 224.553 351.814 224.553 351.529V351.464H222.919C222.504 351.464 222.167 351.516 221.908 351.62C221.648 351.715 221.462 351.853 221.35 352.035C221.238 352.216 221.181 352.419 221.181 352.644C221.181 352.877 221.233 353.085 221.337 353.266C221.449 353.439 221.609 353.573 221.817 353.668C222.024 353.764 222.275 353.811 222.569 353.811ZM230.296 354.732C229.683 354.732 229.129 354.589 228.636 354.304C228.152 354.01 227.772 353.604 227.495 353.085C227.219 352.566 227.08 351.965 227.08 351.282C227.08 350.591 227.219 349.99 227.495 349.48C227.772 348.961 228.152 348.559 228.636 348.274C229.129 347.98 229.687 347.833 230.309 347.833C231.079 347.833 231.723 348.036 232.241 348.442C232.76 348.84 233.093 349.38 233.24 350.063H232.125C232.03 349.648 231.814 349.329 231.476 349.104C231.139 348.879 230.742 348.767 230.283 348.767C229.912 348.767 229.566 348.862 229.246 349.052C228.926 349.234 228.671 349.514 228.481 349.895C228.291 350.267 228.196 350.729 228.196 351.282C228.196 351.697 228.252 352.065 228.364 352.385C228.477 352.696 228.628 352.96 228.818 353.176C229.008 353.383 229.229 353.543 229.479 353.655C229.739 353.759 230.007 353.811 230.283 353.811C230.595 353.811 230.876 353.759 231.126 353.655C231.377 353.552 231.589 353.405 231.762 353.215C231.943 353.016 232.064 352.778 232.125 352.501H233.24C233.102 353.167 232.769 353.707 232.241 354.122C231.714 354.529 231.066 354.732 230.296 354.732ZM237.652 354.732C237.038 354.732 236.494 354.589 236.018 354.304C235.551 354.019 235.184 353.617 234.916 353.098C234.648 352.579 234.514 351.974 234.514 351.282C234.514 350.582 234.644 349.977 234.903 349.467C235.171 348.948 235.543 348.546 236.018 348.261C236.502 347.976 237.056 347.833 237.678 347.833C238.318 347.833 238.858 347.976 239.299 348.261C239.749 348.546 240.09 348.927 240.323 349.402C240.565 349.869 240.686 350.379 240.686 350.932C240.686 351.019 240.686 351.11 240.686 351.205C240.686 351.3 240.682 351.408 240.674 351.529H235.331V350.686H239.61C239.584 350.072 239.385 349.597 239.014 349.259C238.651 348.922 238.197 348.754 237.652 348.754C237.28 348.754 236.935 348.84 236.615 349.013C236.303 349.177 236.053 349.424 235.863 349.752C235.672 350.081 235.577 350.491 235.577 350.984V351.347C235.577 351.892 235.672 352.35 235.863 352.722C236.061 353.085 236.316 353.357 236.628 353.539C236.948 353.72 237.289 353.811 237.652 353.811C238.11 353.811 238.486 353.712 238.78 353.513C239.074 353.314 239.29 353.037 239.429 352.683H240.505C240.393 353.081 240.207 353.435 239.947 353.746C239.688 354.049 239.364 354.291 238.975 354.472C238.594 354.645 238.153 354.732 237.652 354.732ZM248.557 354.732C247.944 354.732 247.39 354.589 246.897 354.304C246.413 354.01 246.033 353.604 245.756 353.085C245.48 352.566 245.341 351.965 245.341 351.282C245.341 350.591 245.48 349.99 245.756 349.48C246.033 348.961 246.413 348.559 246.897 348.274C247.39 347.98 247.948 347.833 248.57 347.833C249.34 347.833 249.984 348.036 250.502 348.442C251.021 348.84 251.354 349.38 251.501 350.063H250.386C250.291 349.648 250.075 349.329 249.737 349.104C249.4 348.879 249.003 348.767 248.544 348.767C248.173 348.767 247.827 348.862 247.507 349.052C247.187 349.234 246.932 349.514 246.742 349.895C246.552 350.267 246.457 350.729 246.457 351.282C246.457 351.697 246.513 352.065 246.625 352.385C246.738 352.696 246.889 352.96 247.079 353.176C247.269 353.383 247.49 353.543 247.74 353.655C248 353.759 248.268 353.811 248.544 353.811C248.856 353.811 249.137 353.759 249.387 353.655C249.638 353.552 249.85 353.405 250.023 353.215C250.204 353.016 250.325 352.778 250.386 352.501H251.501C251.363 353.167 251.03 353.707 250.502 354.122C249.975 354.529 249.327 354.732 248.557 354.732Z" fill="#EEEFF1"/>
<g filter="url(#filter4_d_2474_18607)">
<rect x="293.874" y="337.107" width="127.903" height="25.9352" rx="9.26257" fill="#4E3030" shape-rendering="crispEdges"/>
<rect x="294.337" y="337.571" width="126.977" height="25.0089" rx="8.79944" stroke="#575B62" stroke-width="0.926257" shape-rendering="crispEdges"/>
<path d="M306.494 344.865H314.599C314.599 344.865 315.757 344.865 315.757 346.023V354.128C315.757 354.128 315.757 355.286 314.599 355.286H306.494C306.494 355.286 305.336 355.286 305.336 354.128V346.023C305.336 346.023 305.336 344.865 306.494 344.865Z" stroke="#EEEFF1" stroke-width="0.926257" stroke-linecap="round" stroke-linejoin="round"/>
<path d="M312.284 348.338L308.81 351.811" stroke="#EEEFF1" stroke-width="0.926257" stroke-linecap="round" stroke-linejoin="round"/>
<path d="M308.81 348.338L312.284 351.811" stroke="#EEEFF1" stroke-width="0.926257" stroke-linecap="round" stroke-linejoin="round"/>
<path d="M324.487 354.574V345.497H327.417C328.126 345.497 328.706 345.618 329.155 345.86C329.605 346.093 329.937 346.409 330.154 346.807C330.37 347.204 330.478 347.654 330.478 348.155C330.478 348.639 330.365 349.085 330.141 349.491C329.924 349.897 329.587 350.221 329.129 350.463C328.671 350.706 328.083 350.827 327.366 350.827H325.576V354.574H324.487ZM329.285 354.574L327.288 350.515H328.507L330.569 354.574H329.285ZM325.576 349.971H327.34C328.031 349.971 328.537 349.802 328.857 349.465C329.185 349.128 329.35 348.696 329.35 348.168C329.35 347.632 329.19 347.209 328.87 346.897C328.559 346.578 328.044 346.418 327.327 346.418H325.576V349.971ZM334.607 354.73C333.994 354.73 333.449 354.587 332.973 354.302C332.507 354.017 332.139 353.615 331.871 353.096C331.603 352.577 331.469 351.972 331.469 351.28C331.469 350.58 331.599 349.975 331.858 349.465C332.126 348.946 332.498 348.544 332.973 348.259C333.458 347.974 334.011 347.831 334.633 347.831C335.273 347.831 335.813 347.974 336.254 348.259C336.704 348.544 337.045 348.925 337.279 349.4C337.521 349.867 337.642 350.377 337.642 350.93C337.642 351.017 337.642 351.108 337.642 351.203C337.642 351.298 337.637 351.406 337.629 351.527H332.286V350.684H336.565C336.54 350.07 336.341 349.595 335.969 349.258C335.606 348.92 335.152 348.752 334.607 348.752C334.236 348.752 333.89 348.838 333.57 349.011C333.259 349.175 333.008 349.422 332.818 349.75C332.628 350.079 332.533 350.489 332.533 350.982V351.345C332.533 351.89 332.628 352.348 332.818 352.72C333.017 353.083 333.272 353.355 333.583 353.537C333.903 353.718 334.244 353.809 334.607 353.809C335.066 353.809 335.442 353.71 335.736 353.511C336.029 353.312 336.246 353.035 336.384 352.681H337.46C337.348 353.079 337.162 353.433 336.903 353.744C336.643 354.047 336.319 354.289 335.93 354.47C335.55 354.643 335.109 354.73 334.607 354.73ZM339.112 354.574V347.987H340.097L340.162 348.92C340.37 348.575 340.646 348.307 340.992 348.116C341.346 347.926 341.731 347.831 342.146 347.831C342.475 347.831 342.773 347.879 343.041 347.974C343.318 348.06 343.56 348.198 343.767 348.389C343.975 348.57 344.143 348.799 344.273 349.076C344.498 348.678 344.805 348.371 345.194 348.155C345.583 347.939 345.998 347.831 346.438 347.831C346.948 347.831 347.389 347.93 347.761 348.129C348.133 348.328 348.418 348.635 348.617 349.05C348.816 349.456 348.915 349.966 348.915 350.58V354.574H347.839V350.697C347.839 350.057 347.705 349.577 347.437 349.258C347.169 348.929 346.793 348.765 346.309 348.765C345.98 348.765 345.682 348.851 345.414 349.024C345.155 349.197 344.947 349.452 344.792 349.789C344.636 350.118 344.558 350.524 344.558 351.008V354.574H343.469V350.697C343.469 350.057 343.335 349.577 343.067 349.258C342.799 348.929 342.427 348.765 341.952 348.765C341.623 348.765 341.325 348.851 341.057 349.024C340.798 349.197 340.59 349.452 340.434 349.789C340.279 350.118 340.201 350.524 340.201 351.008V354.574H339.112ZM353.566 354.73C352.953 354.73 352.404 354.587 351.919 354.302C351.435 354.017 351.055 353.615 350.778 353.096C350.502 352.577 350.363 351.972 350.363 351.28C350.363 350.58 350.502 349.971 350.778 349.452C351.064 348.933 351.448 348.536 351.932 348.259C352.425 347.974 352.978 347.831 353.592 347.831C354.206 347.831 354.755 347.974 355.239 348.259C355.723 348.536 356.104 348.933 356.38 349.452C356.657 349.971 356.795 350.58 356.795 351.28C356.795 351.981 356.653 352.59 356.367 353.109C356.091 353.619 355.706 354.017 355.213 354.302C354.729 354.587 354.18 354.73 353.566 354.73ZM353.566 353.796C353.947 353.796 354.297 353.705 354.617 353.524C354.937 353.334 355.192 353.053 355.382 352.681C355.581 352.301 355.68 351.834 355.68 351.28C355.68 350.719 355.585 350.252 355.395 349.88C355.205 349.508 354.95 349.232 354.63 349.05C354.31 348.86 353.964 348.765 353.592 348.765C353.221 348.765 352.87 348.86 352.542 349.05C352.222 349.232 351.963 349.508 351.764 349.88C351.574 350.252 351.479 350.719 351.479 351.28C351.479 351.834 351.574 352.301 351.764 352.681C351.963 353.053 352.218 353.334 352.529 353.524C352.849 353.705 353.195 353.796 353.566 353.796ZM359.912 354.574L357.409 347.987H358.551L360.548 353.524L362.545 347.987H363.66L361.17 354.574H359.912ZM367.419 354.73C366.805 354.73 366.26 354.587 365.785 354.302C365.318 354.017 364.951 353.615 364.683 353.096C364.415 352.577 364.281 351.972 364.281 351.28C364.281 350.58 364.41 349.975 364.67 349.465C364.938 348.946 365.31 348.544 365.785 348.259C366.269 347.974 366.822 347.831 367.445 347.831C368.085 347.831 368.625 347.974 369.066 348.259C369.515 348.544 369.857 348.925 370.09 349.4C370.332 349.867 370.453 350.377 370.453 350.93C370.453 351.017 370.453 351.108 370.453 351.203C370.453 351.298 370.449 351.406 370.44 351.527H365.098V350.684H369.377C369.351 350.07 369.152 349.595 368.78 349.258C368.417 348.92 367.964 348.752 367.419 348.752C367.047 348.752 366.701 348.838 366.381 349.011C366.07 349.175 365.82 349.422 365.629 349.75C365.439 350.079 365.344 350.489 365.344 350.982V351.345C365.344 351.89 365.439 352.348 365.629 352.72C365.828 353.083 366.083 353.355 366.394 353.537C366.714 353.718 367.056 353.809 367.419 353.809C367.877 353.809 368.253 353.71 368.547 353.511C368.841 353.312 369.057 353.035 369.195 352.681H370.272C370.159 353.079 369.974 353.433 369.714 353.744C369.455 354.047 369.131 354.289 368.742 354.47C368.361 354.643 367.92 354.73 367.419 354.73ZM375.445 354.574V345.497H378.376C379.085 345.497 379.664 345.618 380.114 345.86C380.563 346.093 380.896 346.409 381.112 346.807C381.328 347.204 381.436 347.654 381.436 348.155C381.436 348.639 381.324 349.085 381.099 349.491C380.883 349.897 380.546 350.221 380.088 350.463C379.63 350.706 379.042 350.827 378.324 350.827H376.535V354.574H375.445ZM380.243 354.574L378.246 350.515H379.465L381.527 354.574H380.243ZM376.535 349.971H378.298C378.99 349.971 379.496 349.802 379.815 349.465C380.144 349.128 380.308 348.696 380.308 348.168C380.308 347.632 380.148 347.209 379.828 346.897C379.517 346.578 379.003 346.418 378.285 346.418H376.535V349.971ZM383.196 354.574V347.987H384.286V354.574H383.196ZM383.741 346.612C383.525 346.612 383.343 346.543 383.196 346.405C383.058 346.258 382.989 346.076 382.989 345.86C382.989 345.644 383.058 345.471 383.196 345.341C383.343 345.203 383.525 345.134 383.741 345.134C383.949 345.134 384.126 345.203 384.273 345.341C384.42 345.471 384.493 345.644 384.493 345.86C384.493 346.076 384.42 346.258 384.273 346.405C384.126 346.543 383.949 346.612 383.741 346.612ZM388.801 357.583C388.214 357.583 387.691 357.505 387.232 357.349C386.783 357.202 386.428 356.973 386.169 356.662C385.918 356.351 385.793 355.966 385.793 355.508C385.793 355.309 385.832 355.097 385.91 354.872C385.996 354.648 386.139 354.427 386.338 354.211C386.545 353.995 386.835 353.8 387.206 353.628L387.972 354.068C387.513 354.259 387.211 354.475 387.064 354.717C386.925 354.959 386.856 355.188 386.856 355.404C386.856 355.689 386.938 355.927 387.103 356.117C387.276 356.308 387.509 356.45 387.803 356.545C388.097 356.64 388.43 356.688 388.801 356.688C389.182 356.688 389.506 356.636 389.774 356.532C390.042 356.429 390.25 356.282 390.396 356.091C390.552 355.901 390.63 355.681 390.63 355.43C390.63 355.119 390.513 354.86 390.28 354.652C390.055 354.453 389.627 354.336 388.996 354.302C388.477 354.267 388.045 354.22 387.699 354.159C387.353 354.099 387.064 354.03 386.83 353.952C386.606 353.865 386.415 353.77 386.26 353.666C386.113 353.563 385.979 353.455 385.858 353.342V353.044L387.129 351.786L388.088 352.123L386.766 353.303L386.934 352.837C387.029 352.906 387.12 352.971 387.206 353.031C387.293 353.083 387.41 353.135 387.557 353.187C387.712 353.23 387.92 353.273 388.179 353.316C388.447 353.351 388.801 353.386 389.242 353.42C389.839 353.463 390.314 353.567 390.669 353.731C391.032 353.896 391.296 354.116 391.46 354.393C391.624 354.669 391.706 355.002 391.706 355.391C391.706 355.754 391.602 356.1 391.395 356.429C391.196 356.766 390.881 357.042 390.448 357.259C390.025 357.475 389.476 357.583 388.801 357.583ZM388.788 352.512C388.244 352.512 387.781 352.409 387.401 352.201C387.021 351.994 386.731 351.713 386.532 351.358C386.333 351.004 386.234 350.606 386.234 350.165C386.234 349.733 386.333 349.344 386.532 348.998C386.731 348.644 387.021 348.363 387.401 348.155C387.781 347.939 388.244 347.831 388.788 347.831C389.342 347.831 389.809 347.939 390.189 348.155C390.569 348.363 390.859 348.644 391.058 348.998C391.257 349.344 391.356 349.733 391.356 350.165C391.356 350.606 391.257 351.004 391.058 351.358C390.859 351.713 390.569 351.994 390.189 352.201C389.809 352.409 389.342 352.512 388.788 352.512ZM388.788 351.618C389.264 351.618 389.636 351.497 389.904 351.255C390.172 351.004 390.306 350.641 390.306 350.165C390.306 349.698 390.172 349.344 389.904 349.102C389.636 348.86 389.264 348.739 388.788 348.739C388.33 348.739 387.959 348.86 387.673 349.102C387.397 349.344 387.258 349.698 387.258 350.165C387.258 350.641 387.397 351.004 387.673 351.255C387.959 351.497 388.33 351.618 388.788 351.618ZM389.878 348.907L389.554 347.987H392.225V348.804L389.878 348.907ZM393.477 354.574V345.238H394.566V349.089C394.782 348.691 395.085 348.384 395.474 348.168C395.872 347.943 396.304 347.831 396.771 347.831C397.272 347.831 397.709 347.93 398.08 348.129C398.452 348.328 398.737 348.635 398.936 349.05C399.135 349.456 399.234 349.975 399.234 350.606V354.574H398.158V350.723C398.158 350.074 398.016 349.586 397.73 349.258C397.454 348.929 397.056 348.765 396.537 348.765C396.165 348.765 395.828 348.856 395.526 349.037C395.232 349.21 394.998 349.465 394.826 349.802C394.653 350.131 394.566 350.541 394.566 351.034V354.574H393.477ZM403.529 354.574C403.14 354.574 402.803 354.514 402.518 354.393C402.232 354.272 402.012 354.068 401.856 353.783C401.709 353.489 401.636 353.096 401.636 352.603V348.907H400.495V347.987H401.636L401.778 346.379H402.725V347.987H404.631V348.907H402.725V352.603C402.725 353.009 402.807 353.286 402.971 353.433C403.136 353.571 403.425 353.641 403.84 353.641H404.566V354.574H403.529ZM408.528 354.73C407.975 354.73 407.495 354.639 407.089 354.458C406.683 354.276 406.363 354.021 406.129 353.692C405.905 353.364 405.766 352.979 405.714 352.538H406.83C406.873 352.772 406.959 352.984 407.089 353.174C407.227 353.364 407.418 353.52 407.66 353.641C407.902 353.753 408.196 353.809 408.541 353.809C408.844 353.809 409.095 353.766 409.294 353.679C409.492 353.584 409.639 353.459 409.734 353.303C409.838 353.148 409.89 352.975 409.89 352.785C409.89 352.517 409.825 352.309 409.695 352.162C409.574 352.015 409.393 351.903 409.151 351.825C408.917 351.747 408.628 351.678 408.282 351.618C407.971 351.566 407.677 351.497 407.4 351.41C407.124 351.315 406.877 351.198 406.661 351.06C406.454 350.913 406.285 350.731 406.155 350.515C406.034 350.299 405.974 350.04 405.974 349.737C405.974 349.366 406.069 349.037 406.259 348.752C406.458 348.458 406.735 348.233 407.089 348.077C407.452 347.913 407.876 347.831 408.36 347.831C409.06 347.831 409.626 348 410.059 348.337C410.499 348.674 410.755 349.158 410.824 349.789H409.747C409.713 349.461 409.57 349.206 409.319 349.024C409.077 348.843 408.753 348.752 408.347 348.752C407.932 348.752 407.616 348.834 407.4 348.998C407.184 349.162 407.076 349.379 407.076 349.647C407.076 349.819 407.132 349.979 407.245 350.126C407.357 350.265 407.53 350.381 407.763 350.476C408.005 350.572 408.299 350.649 408.645 350.71C409.095 350.788 409.497 350.891 409.851 351.021C410.206 351.151 410.487 351.345 410.694 351.605C410.91 351.855 411.014 352.218 411.005 352.694C411.014 353.109 410.914 353.468 410.707 353.77C410.499 354.073 410.21 354.311 409.838 354.483C409.466 354.648 409.03 354.73 408.528 354.73Z" fill="#EEEFF1"/>
</g>
</g>
<defs>
<filter id="filter0_f_2474_18607" x="-229" y="-30" width="899" height="740" filterUnits="userSpaceOnUse" color-interpolation-filters="sRGB">
<feFlood flood-opacity="0" result="BackgroundImageFix"/>
<feBlend mode="normal" in="SourceGraphic" in2="BackgroundImageFix" result="shape"/>
<feGaussianBlur stdDeviation="150" result="effect1_foregroundBlur_2474_18607"/>
</filter>
<filter id="filter1_d_2474_18607" x="42.5899" y="234.295" width="802.877" height="150.054" filterUnits="userSpaceOnUse" color-interpolation-filters="sRGB">
<feFlood flood-opacity="0" result="BackgroundImageFix"/>
<feColorMatrix in="SourceAlpha" type="matrix" values="0 0 0 0 0 0 0 0 0 0 0 0 0 0 0 0 0 0 127 0" result="hardAlpha"/>
<feOffset dy="3.70503"/>
<feGaussianBlur stdDeviation="3.70503"/>
<feComposite in2="hardAlpha" operator="out"/>
<feColorMatrix type="matrix" values="0 0 0 0 0 0 0 0 0 0 0 0 0 0 0 0 0 0 0.2 0"/>
<feBlend mode="normal" in2="BackgroundImageFix" result="effect1_dropShadow_2474_18607"/>
<feBlend mode="normal" in="SourceGraphic" in2="effect1_dropShadow_2474_18607" result="shape"/>
</filter>
<filter id="filter2_d_2474_18607" x="285.464" y="244.482" width="142.723" height="40.7557" filterUnits="userSpaceOnUse" color-interpolation-filters="sRGB">
<feFlood flood-opacity="0" result="BackgroundImageFix"/>
<feColorMatrix in="SourceAlpha" type="matrix" values="0 0 0 0 0 0 0 0 0 0 0 0 0 0 0 0 0 0 127 0" result="hardAlpha"/>
<feOffset dy="3.70503"/>
<feGaussianBlur stdDeviation="3.70503"/>
<feComposite in2="hardAlpha" operator="out"/>
<feColorMatrix type="matrix" values="0 0 0 0 0 0 0 0 0 0 0 0 0 0 0 0 0 0 0.2 0"/>
<feBlend mode="normal" in2="BackgroundImageFix" result="effect1_dropShadow_2474_18607"/>
<feBlend mode="normal" in="SourceGraphic" in2="effect1_dropShadow_2474_18607" result="shape"/>
</filter>
<filter id="filter3_d_2474_18607" x="286.464" y="288.943" width="142.723" height="40.7557" filterUnits="userSpaceOnUse" color-interpolation-filters="sRGB">
<feFlood flood-opacity="0" result="BackgroundImageFix"/>
<feColorMatrix in="SourceAlpha" type="matrix" values="0 0 0 0 0 0 0 0 0 0 0 0 0 0 0 0 0 0 127 0" result="hardAlpha"/>
<feOffset dy="3.70503"/>
<feGaussianBlur stdDeviation="3.70503"/>
<feComposite in2="hardAlpha" operator="out"/>
<feColorMatrix type="matrix" values="0 0 0 0 0 0 0 0 0 0 0 0 0 0 0 0 0 0 0.2 0"/>
<feBlend mode="normal" in2="BackgroundImageFix" result="effect1_dropShadow_2474_18607"/>
<feBlend mode="normal" in="SourceGraphic" in2="effect1_dropShadow_2474_18607" result="shape"/>
</filter>
<filter id="filter4_d_2474_18607" x="286.464" y="333.402" width="142.723" height="40.7557" filterUnits="userSpaceOnUse" color-interpolation-filters="sRGB">
<feFlood flood-opacity="0" result="BackgroundImageFix"/>
<feColorMatrix in="SourceAlpha" type="matrix" values="0 0 0 0 0 0 0 0 0 0 0 0 0 0 0 0 0 0 127 0" result="hardAlpha"/>
<feOffset dy="3.70503"/>
<feGaussianBlur stdDeviation="3.70503"/>
<feComposite in2="hardAlpha" operator="out"/>
<feColorMatrix type="matrix" values="0 0 0 0 0 0 0 0 0 0 0 0 0 0 0 0 0 0 0.2 0"/>
<feBlend mode="normal" in2="BackgroundImageFix" result="effect1_dropShadow_2474_18607"/>
<feBlend mode="normal" in="SourceGraphic" in2="effect1_dropShadow_2474_18607" result="shape"/>
</filter>
<linearGradient id="paint0_linear_2474_18607" x1="220.5" y1="270" x2="220.5" y2="410" gradientUnits="userSpaceOnUse">
<stop stop-color="#4A4A54"/>
<stop offset="1" stop-color="#4A4A54" stop-opacity="0.5"/>
</linearGradient>
</defs>
</svg>
