<svg width="416" height="151" viewBox="0 0 416 151" fill="none" xmlns="http://www.w3.org/2000/svg">
<g filter="url(#filter0_d_2654_37820)">
<rect x="8.46313" y="4.46313" width="787.131" height="134.307" rx="8.79944" stroke="#575B62" stroke-width="0.926257" shape-rendering="crispEdges"/>
<rect x="17.7258" y="10.0198" width="767.606" height="34.2715" rx="8.79944" fill="#EEEFF1"/>
<rect x="17.7258" y="10.0198" width="767.606" height="34.2715" rx="8.79944" fill="#282A2F"/>
<rect x="17.7258" y="10.0198" width="767.606" height="34.2715" rx="8.79944" stroke="#575B62" stroke-width="0.926257"/>
<path d="M27.498 31.6562V22.5789H28.7688L31.9588 28.9331L35.1359 22.5789H36.4197V31.6562H35.3304V24.5241L32.3738 30.3984H31.5568L28.5872 24.563V31.6562H27.498ZM41.1644 31.8119C40.5506 31.8119 40.006 31.6692 39.5305 31.3839C39.0636 31.0986 38.6962 30.6966 38.4282 30.1779C38.1602 29.6592 38.0262 29.0541 38.0262 28.3625C38.0262 27.6622 38.1559 27.0571 38.4153 26.547C38.6833 26.0283 39.055 25.6263 39.5305 25.341C40.0146 25.0557 40.5679 24.9131 41.1903 24.9131C41.8301 24.9131 42.3704 25.0557 42.8113 25.341C43.2608 25.6263 43.6023 26.0067 43.8357 26.4822C44.0778 26.949 44.1988 27.4591 44.1988 28.0124C44.1988 28.0988 44.1988 28.1896 44.1988 28.2847C44.1988 28.3798 44.1945 28.4878 44.1858 28.6089H38.8432V27.766H43.1225C43.0966 27.1522 42.8977 26.6767 42.526 26.3395C42.1629 26.0024 41.709 25.8338 41.1644 25.8338C40.7927 25.8338 40.4468 25.9202 40.127 26.0932C39.8158 26.2574 39.5651 26.5038 39.3749 26.8323C39.1847 27.1608 39.0896 27.5715 39.0896 28.0642V28.4273C39.0896 28.972 39.1847 29.4301 39.3749 29.8019C39.5737 30.165 39.8287 30.4373 40.1399 30.6188C40.4598 30.8004 40.8013 30.8912 41.1644 30.8912C41.6226 30.8912 41.9986 30.7917 42.2926 30.5929C42.5865 30.3941 42.8026 30.1174 42.941 29.763H44.0173C43.9049 30.1607 43.719 30.5151 43.4597 30.8263C43.2003 31.1289 42.8761 31.371 42.4871 31.5525C42.1067 31.7254 41.6658 31.8119 41.1644 31.8119ZM45.6688 31.6562V25.0687H46.6543L46.7192 26.0024C46.9267 25.6566 47.2033 25.3886 47.5491 25.1984C47.9036 25.0082 48.2883 24.9131 48.7032 24.9131C49.0317 24.9131 49.33 24.9606 49.598 25.0557C49.8746 25.1422 50.1167 25.2805 50.3242 25.4707C50.5317 25.6523 50.7002 25.8813 50.8299 26.158C51.0547 25.7603 51.3616 25.4534 51.7506 25.2373C52.1396 25.0212 52.5546 24.9131 52.9955 24.9131C53.5056 24.9131 53.9465 25.0125 54.3182 25.2114C54.6899 25.4102 54.9752 25.7171 55.1741 26.1321C55.3729 26.5384 55.4723 27.0484 55.4723 27.6622V31.6562H54.396V27.7789C54.396 27.1392 54.262 26.6594 53.994 26.3395C53.726 26.011 53.3499 25.8468 52.8658 25.8468C52.5373 25.8468 52.2391 25.9332 51.9711 26.1061C51.7117 26.279 51.5042 26.534 51.3486 26.8712C51.193 27.1997 51.1152 27.606 51.1152 28.0902V31.6562H50.0259V27.7789C50.0259 27.1392 49.8919 26.6594 49.6239 26.3395C49.3559 26.011 48.9842 25.8468 48.5087 25.8468C48.1802 25.8468 47.8819 25.9332 47.6139 26.1061C47.3546 26.279 47.1471 26.534 46.9915 26.8712C46.8359 27.1997 46.7581 27.606 46.7581 28.0902V31.6562H45.6688ZM60.6162 31.8119C60.2358 31.8119 59.8943 31.76 59.5918 31.6562C59.2978 31.5439 59.0385 31.3969 58.8137 31.2154C58.5976 31.0252 58.416 30.8134 58.2691 30.5799L58.1783 31.6562H57.1927V22.3196H58.282V26.1321C58.4895 25.7863 58.7878 25.4966 59.1768 25.2632C59.5745 25.0298 60.0499 24.9131 60.6032 24.9131C61.243 24.9131 61.7962 25.0644 62.2631 25.367C62.7386 25.6609 63.106 26.0672 63.3653 26.5859C63.6247 27.1046 63.7543 27.6968 63.7543 28.3625C63.7543 29.0195 63.6247 29.6117 63.3653 30.139C63.106 30.6577 62.7386 31.0684 62.2631 31.371C61.7876 31.6649 61.2386 31.8119 60.6162 31.8119ZM60.4865 30.8652C60.9101 30.8652 61.2819 30.7615 61.6017 30.554C61.9302 30.3465 62.1853 30.0569 62.3668 29.6852C62.557 29.3048 62.6521 28.8639 62.6521 28.3625C62.6521 27.8524 62.557 27.4115 62.3668 27.0398C62.1853 26.668 61.9302 26.3784 61.6017 26.171C61.2819 25.9635 60.9101 25.8597 60.4865 25.8597C60.0543 25.8597 59.6739 25.9635 59.3454 26.171C59.0169 26.3784 58.7618 26.668 58.5803 27.0398C58.3987 27.4115 58.308 27.8524 58.308 28.3625C58.308 28.8639 58.3987 29.3048 58.5803 29.6852C58.7618 30.0569 59.0169 30.3465 59.3454 30.554C59.6739 30.7615 60.0543 30.8652 60.4865 30.8652ZM68.176 31.8119C67.5622 31.8119 67.0176 31.6692 66.5421 31.3839C66.0752 31.0986 65.7078 30.6966 65.4398 30.1779C65.1718 29.6592 65.0378 29.0541 65.0378 28.3625C65.0378 27.6622 65.1675 27.0571 65.4269 26.547C65.6949 26.0283 66.0666 25.6263 66.5421 25.341C67.0262 25.0557 67.5795 24.9131 68.2019 24.9131C68.8417 24.9131 69.382 25.0557 69.8229 25.341C70.2724 25.6263 70.6139 26.0067 70.8473 26.4822C71.0894 26.949 71.2104 27.4591 71.2104 28.0124C71.2104 28.0988 71.2104 28.1896 71.2104 28.2847C71.2104 28.3798 71.2061 28.4878 71.1974 28.6089H65.8548V27.766H70.1341C70.1082 27.1522 69.9093 26.6767 69.5376 26.3395C69.1745 26.0024 68.7206 25.8338 68.176 25.8338C67.8043 25.8338 67.4585 25.9202 67.1386 26.0932C66.8274 26.2574 66.5767 26.5038 66.3865 26.8323C66.1963 27.1608 66.1012 27.5715 66.1012 28.0642V28.4273C66.1012 28.972 66.1963 29.4301 66.3865 29.8019C66.5853 30.165 66.8403 30.4373 67.1516 30.6188C67.4714 30.8004 67.8129 30.8912 68.176 30.8912C68.6342 30.8912 69.0102 30.7917 69.3042 30.5929C69.5981 30.3941 69.8142 30.1174 69.9526 29.763H71.0289C70.9165 30.1607 70.7306 30.5151 70.4713 30.8263C70.2119 31.1289 69.8877 31.371 69.4987 31.5525C69.1183 31.7254 68.6774 31.8119 68.176 31.8119ZM72.6804 31.6562V25.0687H73.666L73.7438 26.3136C73.8907 26.011 74.0809 25.756 74.3143 25.5485C74.5564 25.341 74.8417 25.1854 75.1702 25.0817C75.4987 24.9693 75.8748 24.9131 76.2984 24.9131V26.0542H75.8445C75.5679 26.0542 75.3042 26.0888 75.0535 26.158C74.8028 26.2271 74.578 26.3439 74.3792 26.5081C74.189 26.6724 74.0377 26.8928 73.9253 27.1695C73.8216 27.4461 73.7697 27.7919 73.7697 28.2069V31.6562H72.6804Z" fill="#9FA1A6"/>
<path d="M134.958 31.6562L132.468 22.5789H133.635L135.593 30.3595L137.811 22.5789H139.03L141.195 30.3854L143.18 22.5789H144.347L141.805 31.6562H140.56L138.394 24.148L136.177 31.6562H134.958ZM147.848 31.8119C147.234 31.8119 146.685 31.6692 146.201 31.3839C145.717 31.0986 145.336 30.6966 145.06 30.1779C144.783 29.6592 144.645 29.0541 144.645 28.3625C144.645 27.6622 144.783 27.0528 145.06 26.534C145.345 26.0153 145.73 25.6177 146.214 25.341C146.707 25.0557 147.26 24.9131 147.874 24.9131C148.487 24.9131 149.036 25.0557 149.521 25.341C150.005 25.6177 150.385 26.0153 150.662 26.534C150.938 27.0528 151.077 27.6622 151.077 28.3625C151.077 29.0627 150.934 29.6722 150.649 30.1909C150.372 30.701 149.987 31.0986 149.495 31.3839C149.011 31.6692 148.462 31.8119 147.848 31.8119ZM147.848 30.8782C148.228 30.8782 148.578 30.7874 148.898 30.6059C149.218 30.4157 149.473 30.1347 149.663 29.763C149.862 29.3826 149.961 28.9158 149.961 28.3625C149.961 27.8006 149.866 27.3337 149.676 26.962C149.486 26.5902 149.231 26.3136 148.911 26.1321C148.591 25.9419 148.245 25.8468 147.874 25.8468C147.502 25.8468 147.152 25.9419 146.823 26.1321C146.503 26.3136 146.244 26.5902 146.045 26.962C145.855 27.3337 145.76 27.8006 145.76 28.3625C145.76 28.9158 145.855 29.3826 146.045 29.763C146.244 30.1347 146.499 30.4157 146.81 30.6059C147.13 30.7874 147.476 30.8782 147.848 30.8782ZM152.617 31.6562V25.0687H153.602L153.68 26.3136C153.827 26.011 154.017 25.756 154.251 25.5485C154.493 25.341 154.778 25.1854 155.106 25.0817C155.435 24.9693 155.811 24.9131 156.235 24.9131V26.0542H155.781C155.504 26.0542 155.24 26.0888 154.99 26.158C154.739 26.2271 154.514 26.3439 154.315 26.5081C154.125 26.6724 153.974 26.8928 153.861 27.1695C153.758 27.4461 153.706 27.7919 153.706 28.2069V31.6562H152.617ZM161.487 31.6562L158.375 28.0642L161.227 25.0687H162.563L159.295 28.4533L159.308 27.6752L162.874 31.6562H161.487ZM157.467 31.6562V22.3196H158.556V31.6562H157.467ZM166.085 31.8119C165.532 31.8119 165.052 31.7211 164.646 31.5395C164.239 31.358 163.92 31.103 163.686 30.7745C163.461 30.4459 163.323 30.0612 163.271 29.6203H164.386C164.43 29.8538 164.516 30.0656 164.646 30.2557C164.784 30.4459 164.974 30.6016 165.216 30.7226C165.458 30.835 165.752 30.8912 166.098 30.8912C166.401 30.8912 166.651 30.8479 166.85 30.7615C167.049 30.6664 167.196 30.541 167.291 30.3854C167.395 30.2298 167.447 30.0569 167.447 29.8667C167.447 29.5987 167.382 29.3912 167.252 29.2443C167.131 29.0973 166.95 28.9849 166.708 28.9071C166.474 28.8293 166.185 28.7602 165.839 28.6996C165.528 28.6478 165.234 28.5786 164.957 28.4922C164.68 28.3971 164.434 28.2804 164.218 28.142C164.01 27.9951 163.842 27.8135 163.712 27.5974C163.591 27.3813 163.531 27.1219 163.531 26.8193C163.531 26.4476 163.626 26.1191 163.816 25.8338C164.015 25.5399 164.291 25.3151 164.646 25.1595C165.009 24.9952 165.432 24.9131 165.917 24.9131C166.617 24.9131 167.183 25.0817 167.615 25.4188C168.056 25.756 168.311 26.2401 168.38 26.8712H167.304C167.27 26.5427 167.127 26.2877 166.876 26.1061C166.634 25.9246 166.31 25.8338 165.904 25.8338C165.489 25.8338 165.173 25.9159 164.957 26.0802C164.741 26.2444 164.633 26.4606 164.633 26.7286C164.633 26.9015 164.689 27.0614 164.801 27.2084C164.914 27.3467 165.087 27.4634 165.32 27.5585C165.562 27.6536 165.856 27.7314 166.202 27.7919C166.651 27.8697 167.053 27.9735 167.408 28.1031C167.762 28.2328 168.043 28.4273 168.251 28.6867C168.467 28.9374 168.571 29.3005 168.562 29.7759C168.571 30.1909 168.471 30.5497 168.264 30.8523C168.056 31.1548 167.767 31.3926 167.395 31.5655C167.023 31.7297 166.587 31.8119 166.085 31.8119ZM170.156 34.5091V25.0687H171.141L171.232 26.1321C171.37 25.9159 171.548 25.7171 171.764 25.5355C171.98 25.3454 172.239 25.1941 172.542 25.0817C172.844 24.9693 173.19 24.9131 173.579 24.9131C174.21 24.9131 174.759 25.0644 175.226 25.367C175.702 25.6695 176.069 26.0802 176.328 26.5989C176.588 27.1176 176.717 27.7098 176.717 28.3754C176.717 29.0411 176.588 29.6333 176.328 30.152C176.069 30.6621 175.702 31.0684 175.226 31.371C174.751 31.6649 174.197 31.8119 173.566 31.8119C173.039 31.8119 172.572 31.7038 172.166 31.4877C171.768 31.2715 171.461 30.969 171.245 30.5799V34.5091H170.156ZM173.45 30.8652C173.865 30.8652 174.236 30.7615 174.565 30.554C174.893 30.3465 175.148 30.0569 175.33 29.6852C175.52 29.3048 175.615 28.8639 175.615 28.3625C175.615 27.8524 175.52 27.4115 175.33 27.0398C175.148 26.668 174.893 26.3784 174.565 26.171C174.236 25.9635 173.865 25.8597 173.45 25.8597C173.017 25.8597 172.637 25.9635 172.308 26.171C171.98 26.3784 171.725 26.668 171.543 27.0398C171.362 27.4115 171.271 27.8524 171.271 28.3625C171.271 28.8639 171.362 29.3048 171.543 29.6852C171.725 30.0569 171.98 30.3465 172.308 30.554C172.637 30.7615 173.017 30.8652 173.45 30.8652ZM180.4 31.8119C179.873 31.8119 179.432 31.7211 179.077 31.5395C178.731 31.3494 178.472 31.0986 178.299 30.7874C178.126 30.4762 178.04 30.139 178.04 29.7759C178.04 29.3351 178.152 28.959 178.377 28.6478C178.61 28.3365 178.935 28.1031 179.349 27.9475C179.773 27.7833 180.266 27.7011 180.828 27.7011H182.552C182.552 27.2862 182.492 26.9404 182.371 26.6637C182.25 26.3871 182.068 26.1796 181.826 26.0413C181.593 25.903 181.295 25.8338 180.932 25.8338C180.525 25.8338 180.171 25.9375 179.868 26.145C179.574 26.3439 179.393 26.6421 179.324 27.0398H178.208C178.26 26.5816 178.416 26.1969 178.675 25.8857C178.943 25.5658 179.276 25.3237 179.674 25.1595C180.071 24.9952 180.491 24.9131 180.932 24.9131C181.537 24.9131 182.038 25.0255 182.436 25.2503C182.842 25.4664 183.145 25.7733 183.344 26.171C183.542 26.56 183.642 27.0182 183.642 27.5455V31.6562H182.669L182.604 30.5021C182.518 30.6837 182.406 30.8566 182.267 31.0208C182.138 31.1764 181.982 31.3148 181.8 31.4358C181.619 31.5482 181.411 31.639 181.178 31.7081C180.953 31.7773 180.694 31.8119 180.4 31.8119ZM180.568 30.8912C180.871 30.8912 181.143 30.8306 181.385 30.7096C181.627 30.5799 181.835 30.407 182.008 30.1909C182.189 29.9661 182.323 29.7198 182.41 29.4518C182.505 29.1751 182.552 28.8942 182.552 28.6089V28.544H180.919C180.504 28.544 180.166 28.5959 179.907 28.6996C179.648 28.7947 179.462 28.9331 179.349 29.1146C179.237 29.2961 179.181 29.4993 179.181 29.7241C179.181 29.9575 179.233 30.165 179.337 30.3465C179.449 30.5194 179.609 30.6534 179.816 30.7485C180.024 30.8436 180.275 30.8912 180.568 30.8912ZM188.296 31.8119C187.682 31.8119 187.129 31.6692 186.636 31.3839C186.152 31.09 185.771 30.6837 185.495 30.165C185.218 29.6463 185.08 29.0454 185.08 28.3625C185.08 27.6709 185.218 27.07 185.495 26.56C185.771 26.0413 186.152 25.6393 186.636 25.354C187.129 25.0601 187.686 24.9131 188.309 24.9131C189.078 24.9131 189.722 25.1163 190.241 25.5226C190.76 25.9202 191.092 26.4606 191.239 27.1435H190.124C190.029 26.7286 189.813 26.4087 189.476 26.1839C189.139 25.9592 188.741 25.8468 188.283 25.8468C187.911 25.8468 187.565 25.9419 187.245 26.1321C186.926 26.3136 186.671 26.5946 186.48 26.9749C186.29 27.3467 186.195 27.8092 186.195 28.3625C186.195 28.7774 186.251 29.1449 186.364 29.4647C186.476 29.7759 186.627 30.0396 186.818 30.2557C187.008 30.4632 187.228 30.6232 187.479 30.7356C187.738 30.8393 188.006 30.8912 188.283 30.8912C188.594 30.8912 188.875 30.8393 189.126 30.7356C189.376 30.6318 189.588 30.4848 189.761 30.2947C189.943 30.0958 190.064 29.8581 190.124 29.5814H191.239C191.101 30.2471 190.768 30.7874 190.241 31.2024C189.714 31.6087 189.065 31.8119 188.296 31.8119ZM195.652 31.8119C195.038 31.8119 194.493 31.6692 194.018 31.3839C193.551 31.0986 193.183 30.6966 192.915 30.1779C192.647 29.6592 192.513 29.0541 192.513 28.3625C192.513 27.6622 192.643 27.0571 192.902 26.547C193.17 26.0283 193.542 25.6263 194.018 25.341C194.502 25.0557 195.055 24.9131 195.678 24.9131C196.317 24.9131 196.858 25.0557 197.298 25.341C197.748 25.6263 198.089 26.0067 198.323 26.4822C198.565 26.949 198.686 27.4591 198.686 28.0124C198.686 28.0988 198.686 28.1896 198.686 28.2847C198.686 28.3798 198.682 28.4878 198.673 28.6089H193.33V27.766H197.61C197.584 27.1522 197.385 26.6767 197.013 26.3395C196.65 26.0024 196.196 25.8338 195.652 25.8338C195.28 25.8338 194.934 25.9202 194.614 26.0932C194.303 26.2574 194.052 26.5038 193.862 26.8323C193.672 27.1608 193.577 27.5715 193.577 28.0642V28.4273C193.577 28.972 193.672 29.4301 193.862 29.8019C194.061 30.165 194.316 30.4373 194.627 30.6188C194.947 30.8004 195.288 30.8912 195.652 30.8912C196.11 30.8912 196.486 30.7917 196.78 30.5929C197.074 30.3941 197.29 30.1174 197.428 29.763H198.504C198.392 30.1607 198.206 30.5151 197.947 30.8263C197.688 31.1289 197.363 31.371 196.974 31.5525C196.594 31.7254 196.153 31.8119 195.652 31.8119ZM205.74 31.8119C205.213 31.8119 204.772 31.7211 204.417 31.5395C204.071 31.3494 203.812 31.0986 203.639 30.7874C203.466 30.4762 203.38 30.139 203.38 29.7759C203.38 29.3351 203.492 28.959 203.717 28.6478C203.95 28.3365 204.275 28.1031 204.689 27.9475C205.113 27.7833 205.606 27.7011 206.168 27.7011H207.892C207.892 27.2862 207.832 26.9404 207.711 26.6637C207.59 26.3871 207.408 26.1796 207.166 26.0413C206.933 25.903 206.635 25.8338 206.272 25.8338C205.865 25.8338 205.511 25.9375 205.208 26.145C204.914 26.3439 204.733 26.6421 204.664 27.0398H203.548C203.6 26.5816 203.756 26.1969 204.015 25.8857C204.283 25.5658 204.616 25.3237 205.014 25.1595C205.411 24.9952 205.831 24.9131 206.272 24.9131C206.877 24.9131 207.378 25.0255 207.776 25.2503C208.182 25.4664 208.485 25.7733 208.684 26.171C208.882 26.56 208.982 27.0182 208.982 27.5455V31.6562H208.009L207.944 30.5021C207.858 30.6837 207.746 30.8566 207.607 31.0208C207.478 31.1764 207.322 31.3148 207.14 31.4358C206.959 31.5482 206.751 31.639 206.518 31.7081C206.293 31.7773 206.034 31.8119 205.74 31.8119ZM205.908 30.8912C206.211 30.8912 206.483 30.8306 206.725 30.7096C206.967 30.5799 207.175 30.407 207.348 30.1909C207.529 29.9661 207.663 29.7198 207.75 29.4518C207.845 29.1751 207.892 28.8942 207.892 28.6089V28.544H206.259C205.844 28.544 205.506 28.5959 205.247 28.6996C204.988 28.7947 204.802 28.9331 204.689 29.1146C204.577 29.2961 204.521 29.4993 204.521 29.7241C204.521 29.9575 204.573 30.165 204.677 30.3465C204.789 30.5194 204.949 30.6534 205.156 30.7485C205.364 30.8436 205.615 30.8912 205.908 30.8912Z" fill="#EEEFF1"/>
<g filter="url(#filter1_d_2654_37820)">
<rect x="250.874" y="14.1875" width="127.903" height="25.9352" rx="9.26257" fill="#4E3030" shape-rendering="crispEdges"/>
<rect x="251.337" y="14.6506" width="126.977" height="25.0089" rx="8.79944" stroke="#575B62" stroke-width="0.926257" shape-rendering="crispEdges"/>
<path d="M263.495 21.9453H271.599C271.599 21.9453 272.757 21.9453 272.757 23.1031V31.2079C272.757 31.2079 272.757 32.3657 271.599 32.3657H263.495C263.495 32.3657 262.337 32.3657 262.337 31.2079V23.1031C262.337 23.1031 262.337 21.9453 263.495 21.9453Z" stroke="#EEEFF1" stroke-width="0.926257" stroke-linecap="round" stroke-linejoin="round"/>
<path d="M269.283 25.418L265.81 28.8914" stroke="#EEEFF1" stroke-width="0.926257" stroke-linecap="round" stroke-linejoin="round"/>
<path d="M265.81 25.418L269.283 28.8914" stroke="#EEEFF1" stroke-width="0.926257" stroke-linecap="round" stroke-linejoin="round"/>
<path d="M281.487 31.6543V22.577H284.418C285.127 22.577 285.706 22.698 286.156 22.9401C286.605 23.1735 286.938 23.489 287.154 23.8867C287.37 24.2844 287.478 24.7339 287.478 25.2353C287.478 25.7195 287.366 26.1647 287.141 26.571C286.925 26.9773 286.588 27.3015 286.13 27.5436C285.671 27.7856 285.084 27.9067 284.366 27.9067H282.576V31.6543H281.487ZM286.285 31.6543L284.288 27.5954H285.507L287.569 31.6543H286.285ZM282.576 27.0508H284.34C285.032 27.0508 285.537 26.8822 285.857 26.5451C286.186 26.2079 286.35 25.7757 286.35 25.2483C286.35 24.7123 286.19 24.2887 285.87 23.9775C285.559 23.6576 285.045 23.4977 284.327 23.4977H282.576V27.0508ZM291.608 31.8099C290.994 31.8099 290.449 31.6673 289.974 31.382C289.507 31.0967 289.14 30.6947 288.872 30.176C288.604 29.6573 288.47 29.0521 288.47 28.3605C288.47 27.6603 288.599 27.0551 288.859 26.5451C289.127 26.0264 289.498 25.6244 289.974 25.3391C290.458 25.0538 291.011 24.9111 291.634 24.9111C292.273 24.9111 292.814 25.0538 293.255 25.3391C293.704 25.6244 294.046 26.0047 294.279 26.4802C294.521 26.9471 294.642 27.4571 294.642 28.0104C294.642 28.0969 294.642 28.1876 294.642 28.2827C294.642 28.3778 294.638 28.4859 294.629 28.6069H289.287V27.764H293.566C293.54 27.1502 293.341 26.6747 292.969 26.3376C292.606 26.0004 292.152 25.8318 291.608 25.8318C291.236 25.8318 290.89 25.9183 290.57 26.0912C290.259 26.2555 290.008 26.5018 289.818 26.8304C289.628 27.1589 289.533 27.5695 289.533 28.0623V28.4254C289.533 28.97 289.628 29.4282 289.818 29.7999C290.017 30.163 290.272 30.4353 290.583 30.6169C290.903 30.7984 291.245 30.8892 291.608 30.8892C292.066 30.8892 292.442 30.7898 292.736 30.591C293.03 30.3921 293.246 30.1155 293.384 29.761H294.461C294.348 30.1587 294.162 30.5131 293.903 30.8244C293.644 31.1269 293.32 31.369 292.931 31.5506C292.55 31.7235 292.109 31.8099 291.608 31.8099ZM296.112 31.6543V25.0668H297.098L297.163 26.0004C297.37 25.6546 297.647 25.3866 297.993 25.1964C298.347 25.0062 298.732 24.9111 299.147 24.9111C299.475 24.9111 299.773 24.9587 300.041 25.0538C300.318 25.1402 300.56 25.2786 300.768 25.4688C300.975 25.6503 301.144 25.8794 301.273 26.156C301.498 25.7584 301.805 25.4515 302.194 25.2353C302.583 25.0192 302.998 24.9111 303.439 24.9111C303.949 24.9111 304.39 25.0106 304.762 25.2094C305.133 25.4082 305.419 25.7151 305.617 26.1301C305.816 26.5364 305.916 27.0465 305.916 27.6603V31.6543H304.839V27.777C304.839 27.1373 304.705 26.6574 304.437 26.3376C304.169 26.0091 303.793 25.8448 303.309 25.8448C302.981 25.8448 302.682 25.9313 302.414 26.1042C302.155 26.2771 301.948 26.5321 301.792 26.8693C301.636 27.1978 301.559 27.6041 301.559 28.0882V31.6543H300.469V27.777C300.469 27.1373 300.335 26.6574 300.067 26.3376C299.799 26.0091 299.428 25.8448 298.952 25.8448C298.624 25.8448 298.325 25.9313 298.057 26.1042C297.798 26.2771 297.591 26.5321 297.435 26.8693C297.279 27.1978 297.202 27.6041 297.202 28.0882V31.6543H296.112ZM310.567 31.8099C309.953 31.8099 309.404 31.6673 308.92 31.382C308.436 31.0967 308.055 30.6947 307.779 30.176C307.502 29.6573 307.364 29.0521 307.364 28.3605C307.364 27.6603 307.502 27.0508 307.779 26.5321C308.064 26.0134 308.449 25.6157 308.933 25.3391C309.426 25.0538 309.979 24.9111 310.593 24.9111C311.207 24.9111 311.756 25.0538 312.24 25.3391C312.724 25.6157 313.104 26.0134 313.381 26.5321C313.657 27.0508 313.796 27.6603 313.796 28.3605C313.796 29.0608 313.653 29.6703 313.368 30.189C313.091 30.699 312.707 31.0967 312.214 31.382C311.73 31.6673 311.181 31.8099 310.567 31.8099ZM310.567 30.8762C310.947 30.8762 311.297 30.7855 311.617 30.6039C311.937 30.4137 312.192 30.1328 312.382 29.761C312.581 29.3806 312.681 28.9138 312.681 28.3605C312.681 27.7986 312.585 27.3318 312.395 26.96C312.205 26.5883 311.95 26.3116 311.63 26.1301C311.31 25.9399 310.965 25.8448 310.593 25.8448C310.221 25.8448 309.871 25.9399 309.542 26.1301C309.223 26.3116 308.963 26.5883 308.764 26.96C308.574 27.3318 308.479 27.7986 308.479 28.3605C308.479 28.9138 308.574 29.3806 308.764 29.761C308.963 30.1328 309.218 30.4137 309.529 30.6039C309.849 30.7855 310.195 30.8762 310.567 30.8762ZM316.913 31.6543L314.41 25.0668H315.551L317.548 30.6039L319.545 25.0668H320.66L318.171 31.6543H316.913ZM324.419 31.8099C323.806 31.8099 323.261 31.6673 322.785 31.382C322.319 31.0967 321.951 30.6947 321.683 30.176C321.415 29.6573 321.281 29.0521 321.281 28.3605C321.281 27.6603 321.411 27.0551 321.67 26.5451C321.938 26.0264 322.31 25.6244 322.785 25.3391C323.27 25.0538 323.823 24.9111 324.445 24.9111C325.085 24.9111 325.625 25.0538 326.066 25.3391C326.516 25.6244 326.857 26.0047 327.091 26.4802C327.333 26.9471 327.454 27.4571 327.454 28.0104C327.454 28.0969 327.454 28.1876 327.454 28.2827C327.454 28.3778 327.449 28.4859 327.441 28.6069H322.098V27.764H326.377C326.352 27.1502 326.153 26.6747 325.781 26.3376C325.418 26.0004 324.964 25.8318 324.419 25.8318C324.048 25.8318 323.702 25.9183 323.382 26.0912C323.071 26.2555 322.82 26.5018 322.63 26.8304C322.44 27.1589 322.345 27.5695 322.345 28.0623V28.4254C322.345 28.97 322.44 29.4282 322.63 29.7999C322.829 30.163 323.084 30.4353 323.395 30.6169C323.715 30.7984 324.056 30.8892 324.419 30.8892C324.878 30.8892 325.254 30.7898 325.548 30.591C325.842 30.3921 326.058 30.1155 326.196 29.761H327.272C327.16 30.1587 326.974 30.5131 326.715 30.8244C326.455 31.1269 326.131 31.369 325.742 31.5506C325.362 31.7235 324.921 31.8099 324.419 31.8099ZM332.446 31.6543V22.577H335.376C336.085 22.577 336.665 22.698 337.114 22.9401C337.564 23.1735 337.897 23.489 338.113 23.8867C338.329 24.2844 338.437 24.7339 338.437 25.2353C338.437 25.7195 338.324 26.1647 338.1 26.571C337.884 26.9773 337.546 27.3015 337.088 27.5436C336.63 27.7856 336.042 27.9067 335.325 27.9067H333.535V31.6543H332.446ZM337.244 31.6543L335.247 27.5954H336.466L338.528 31.6543H337.244ZM333.535 27.0508H335.299C335.99 27.0508 336.496 26.8822 336.816 26.5451C337.144 26.2079 337.309 25.7757 337.309 25.2483C337.309 24.7123 337.149 24.2887 336.829 23.9775C336.518 23.6576 336.003 23.4977 335.286 23.4977H333.535V27.0508ZM340.197 31.6543V25.0668H341.286V31.6543H340.197ZM340.742 23.6922C340.525 23.6922 340.344 23.623 340.197 23.4847C340.059 23.3377 339.989 23.1562 339.989 22.9401C339.989 22.7239 340.059 22.551 340.197 22.4214C340.344 22.283 340.525 22.2139 340.742 22.2139C340.949 22.2139 341.126 22.283 341.273 22.4214C341.42 22.551 341.494 22.7239 341.494 22.9401C341.494 23.1562 341.42 23.3377 341.273 23.4847C341.126 23.623 340.949 23.6922 340.742 23.6922ZM345.802 34.6628C345.214 34.6628 344.691 34.585 344.233 34.4294C343.783 34.2824 343.429 34.0533 343.17 33.7421C342.919 33.4309 342.793 33.0462 342.793 32.588C342.793 32.3891 342.832 32.1773 342.91 31.9526C342.997 31.7278 343.139 31.5073 343.338 31.2912C343.546 31.0751 343.835 30.8806 344.207 30.7077L344.972 31.1486C344.514 31.3388 344.211 31.5549 344.064 31.7969C343.926 32.039 343.857 32.2681 343.857 32.4842C343.857 32.7695 343.939 33.0072 344.103 33.1974C344.276 33.3876 344.51 33.5303 344.803 33.6254C345.097 33.7205 345.43 33.768 345.802 33.768C346.182 33.768 346.507 33.7161 346.775 33.6124C347.043 33.5087 347.25 33.3617 347.397 33.1715C347.553 32.9813 347.63 32.7609 347.63 32.5102C347.63 32.1989 347.514 31.9396 347.28 31.7321C347.055 31.5333 346.628 31.4166 345.996 31.382C345.478 31.3474 345.045 31.2998 344.7 31.2393C344.354 31.1788 344.064 31.1097 343.831 31.0319C343.606 30.9454 343.416 30.8503 343.26 30.7466C343.113 30.6428 342.979 30.5348 342.858 30.4224V30.1241L344.129 28.8663L345.089 29.2034L343.766 30.3835L343.935 29.9166C344.03 29.9858 344.12 30.0506 344.207 30.1112C344.293 30.163 344.41 30.2149 344.557 30.2668C344.713 30.31 344.92 30.3532 345.179 30.3964C345.447 30.431 345.802 30.4656 346.243 30.5002C346.839 30.5434 347.315 30.6471 347.669 30.8114C348.032 30.9757 348.296 31.1961 348.46 31.4728C348.625 31.7494 348.707 32.0822 348.707 32.4713C348.707 32.8343 348.603 33.1802 348.395 33.5087C348.197 33.8458 347.881 34.1225 347.449 34.3386C347.025 34.5547 346.476 34.6628 345.802 34.6628ZM345.789 29.5924C345.244 29.5924 344.782 29.4887 344.401 29.2812C344.021 29.0737 343.731 28.7928 343.533 28.4383C343.334 28.0839 343.234 27.6862 343.234 27.2453C343.234 26.8131 343.334 26.424 343.533 26.0782C343.731 25.7238 344.021 25.4428 344.401 25.2353C344.782 25.0192 345.244 24.9111 345.789 24.9111C346.342 24.9111 346.809 25.0192 347.189 25.2353C347.57 25.4428 347.859 25.7238 348.058 26.0782C348.257 26.424 348.357 26.8131 348.357 27.2453C348.357 27.6862 348.257 28.0839 348.058 28.4383C347.859 28.7928 347.57 29.0737 347.189 29.2812C346.809 29.4887 346.342 29.5924 345.789 29.5924ZM345.789 28.6977C346.264 28.6977 346.636 28.5767 346.904 28.3346C347.172 28.0839 347.306 27.7208 347.306 27.2453C347.306 26.7785 347.172 26.424 346.904 26.182C346.636 25.9399 346.264 25.8189 345.789 25.8189C345.331 25.8189 344.959 25.9399 344.674 26.182C344.397 26.424 344.259 26.7785 344.259 27.2453C344.259 27.7208 344.397 28.0839 344.674 28.3346C344.959 28.5767 345.331 28.6977 345.789 28.6977ZM346.878 25.9875L346.554 25.0668H349.225V25.8837L346.878 25.9875ZM350.477 31.6543V22.3176H351.567V26.169C351.783 25.7713 352.085 25.4644 352.474 25.2483C352.872 25.0235 353.304 24.9111 353.771 24.9111C354.273 24.9111 354.709 25.0106 355.081 25.2094C355.453 25.4082 355.738 25.7151 355.937 26.1301C356.136 26.5364 356.235 27.0551 356.235 27.6862V31.6543H355.159V27.8029C355.159 27.1545 355.016 26.6661 354.731 26.3376C354.454 26.0091 354.056 25.8448 353.538 25.8448C353.166 25.8448 352.829 25.9356 352.526 26.1171C352.232 26.29 351.999 26.5451 351.826 26.8822C351.653 27.2107 351.567 27.6214 351.567 28.1141V31.6543H350.477ZM360.529 31.6543C360.14 31.6543 359.803 31.5938 359.518 31.4728C359.233 31.3517 359.012 31.1486 358.857 30.8633C358.71 30.5693 358.636 30.176 358.636 29.6832V25.9875H357.495V25.0668H358.636L358.779 23.4588H359.725V25.0668H361.632V25.9875H359.725V29.6832C359.725 30.0895 359.808 30.3662 359.972 30.5131C360.136 30.6515 360.426 30.7206 360.841 30.7206H361.567V31.6543H360.529ZM365.529 31.8099C364.976 31.8099 364.496 31.7191 364.089 31.5376C363.683 31.356 363.363 31.101 363.13 30.7725C362.905 30.444 362.767 30.0593 362.715 29.6184H363.83C363.873 29.8518 363.96 30.0636 364.089 30.2538C364.228 30.444 364.418 30.5996 364.66 30.7206C364.902 30.833 365.196 30.8892 365.542 30.8892C365.844 30.8892 366.095 30.846 366.294 30.7595C366.493 30.6644 366.64 30.5391 366.735 30.3835C366.839 30.2279 366.89 30.055 366.89 29.8648C366.89 29.5968 366.826 29.3893 366.696 29.2423C366.575 29.0954 366.393 28.983 366.151 28.9052C365.918 28.8274 365.628 28.7582 365.283 28.6977C364.971 28.6458 364.677 28.5767 364.401 28.4902C364.124 28.3951 363.878 28.2784 363.662 28.1401C363.454 27.9931 363.286 27.8116 363.156 27.5954C363.035 27.3793 362.974 27.12 362.974 26.8174C362.974 26.4456 363.069 26.1171 363.26 25.8318C363.458 25.5379 363.735 25.3131 364.089 25.1575C364.453 24.9933 364.876 24.9111 365.36 24.9111C366.061 24.9111 366.627 25.0797 367.059 25.4169C367.5 25.754 367.755 26.2382 367.824 26.8693H366.748C366.713 26.5407 366.571 26.2857 366.32 26.1042C366.078 25.9226 365.754 25.8318 365.347 25.8318C364.932 25.8318 364.617 25.914 364.401 26.0782C364.185 26.2425 364.077 26.4586 364.077 26.7266C364.077 26.8995 364.133 27.0594 364.245 27.2064C364.357 27.3447 364.53 27.4614 364.764 27.5565C365.006 27.6516 365.3 27.7294 365.646 27.79C366.095 27.8678 366.497 27.9715 366.852 28.1012C367.206 28.2309 367.487 28.4254 367.694 28.6847C367.911 28.9354 368.014 29.2985 368.006 29.774C368.014 30.189 367.915 30.5477 367.707 30.8503C367.5 31.1529 367.21 31.3906 366.839 31.5635C366.467 31.7278 366.03 31.8099 365.529 31.8099Z" fill="#EEEFF1"/>
</g>
<rect x="17.7258" y="54.4807" width="768.606" height="34.2715" rx="8.79944" fill="#EEEFF1"/>
<rect x="17.7258" y="54.4807" width="768.606" height="34.2715" rx="8.79944" fill="#282A2F"/>
<rect x="17.7258" y="54.4807" width="768.606" height="34.2715" rx="8.79944" stroke="#575B62" stroke-width="0.926257"/>
<path d="M27.498 76.1172V67.0399H28.7688L31.9588 73.394L35.1359 67.0399H36.4197V76.1172H35.3304V68.985L32.3738 74.8593H31.5568L28.5872 69.0239V76.1172H27.498ZM41.1644 76.2728C40.5506 76.2728 40.006 76.1302 39.5305 75.8449C39.0636 75.5596 38.6962 75.1576 38.4282 74.6389C38.1602 74.1202 38.0262 73.515 38.0262 72.8234C38.0262 72.1232 38.1559 71.518 38.4153 71.008C38.6833 70.4893 39.055 70.0873 39.5305 69.802C40.0146 69.5167 40.5679 69.374 41.1903 69.374C41.8301 69.374 42.3704 69.5167 42.8113 69.802C43.2608 70.0873 43.6023 70.4676 43.8357 70.9431C44.0778 71.4099 44.1988 71.92 44.1988 72.4733C44.1988 72.5597 44.1988 72.6505 44.1988 72.7456C44.1988 72.8407 44.1945 72.9488 44.1858 73.0698H38.8432V72.2269H43.1225C43.0966 71.6131 42.8977 71.1376 42.526 70.8005C42.1629 70.4633 41.709 70.2947 41.1644 70.2947C40.7927 70.2947 40.4468 70.3812 40.127 70.5541C39.8158 70.7183 39.5651 70.9647 39.3749 71.2932C39.1847 71.6218 39.0896 72.0324 39.0896 72.5252V72.8883C39.0896 73.4329 39.1847 73.8911 39.3749 74.2628C39.5737 74.6259 39.8287 74.8982 40.1399 75.0798C40.4598 75.2613 40.8013 75.3521 41.1644 75.3521C41.6226 75.3521 41.9986 75.2527 42.2926 75.0538C42.5865 74.855 42.8026 74.5784 42.941 74.2239H44.0173C43.9049 74.6216 43.719 74.976 43.4597 75.2873C43.2003 75.5898 42.8761 75.8319 42.4871 76.0134C42.1067 76.1863 41.6658 76.2728 41.1644 76.2728ZM45.6688 76.1172V69.5296H46.6543L46.7192 70.4633C46.9267 70.1175 47.2033 69.8495 47.5491 69.6593C47.9036 69.4691 48.2883 69.374 48.7032 69.374C49.0317 69.374 49.33 69.4216 49.598 69.5167C49.8746 69.6031 50.1167 69.7415 50.3242 69.9316C50.5317 70.1132 50.7002 70.3423 50.8299 70.6189C51.0547 70.2213 51.3616 69.9144 51.7506 69.6982C52.1396 69.4821 52.5546 69.374 52.9955 69.374C53.5056 69.374 53.9465 69.4735 54.3182 69.6723C54.6899 69.8711 54.9752 70.178 55.1741 70.593C55.3729 70.9993 55.4723 71.5094 55.4723 72.1232V76.1172H54.396V72.2399C54.396 71.6001 54.262 71.1203 53.994 70.8005C53.726 70.472 53.3499 70.3077 52.8658 70.3077C52.5373 70.3077 52.2391 70.3942 51.9711 70.5671C51.7117 70.74 51.5042 70.995 51.3486 71.3321C51.193 71.6607 51.1152 72.067 51.1152 72.5511V76.1172H50.0259V72.2399C50.0259 71.6001 49.8919 71.1203 49.6239 70.8005C49.3559 70.472 48.9842 70.3077 48.5087 70.3077C48.1802 70.3077 47.8819 70.3942 47.6139 70.5671C47.3546 70.74 47.1471 70.995 46.9915 71.3321C46.8359 71.6607 46.7581 72.067 46.7581 72.5511V76.1172H45.6688ZM60.6162 76.2728C60.2358 76.2728 59.8943 76.2209 59.5918 76.1172C59.2978 76.0048 59.0385 75.8578 58.8137 75.6763C58.5976 75.4861 58.416 75.2743 58.2691 75.0409L58.1783 76.1172H57.1927V66.7805H58.282V70.593C58.4895 70.2472 58.7878 69.9576 59.1768 69.7242C59.5745 69.4907 60.0499 69.374 60.6032 69.374C61.243 69.374 61.7962 69.5253 62.2631 69.8279C62.7386 70.1218 63.106 70.5282 63.3653 71.0469C63.6247 71.5656 63.7543 72.1577 63.7543 72.8234C63.7543 73.4804 63.6247 74.0726 63.3653 74.6C63.106 75.1187 62.7386 75.5293 62.2631 75.8319C61.7876 76.1258 61.2386 76.2728 60.6162 76.2728ZM60.4865 75.3262C60.9101 75.3262 61.2819 75.2224 61.6017 75.0149C61.9302 74.8075 62.1853 74.5179 62.3668 74.1461C62.557 73.7657 62.6521 73.3248 62.6521 72.8234C62.6521 72.3134 62.557 71.8725 62.3668 71.5007C62.1853 71.129 61.9302 70.8394 61.6017 70.6319C61.2819 70.4244 60.9101 70.3207 60.4865 70.3207C60.0543 70.3207 59.6739 70.4244 59.3454 70.6319C59.0169 70.8394 58.7618 71.129 58.5803 71.5007C58.3987 71.8725 58.308 72.3134 58.308 72.8234C58.308 73.3248 58.3987 73.7657 58.5803 74.1461C58.7618 74.5179 59.0169 74.8075 59.3454 75.0149C59.6739 75.2224 60.0543 75.3262 60.4865 75.3262ZM68.176 76.2728C67.5622 76.2728 67.0176 76.1302 66.5421 75.8449C66.0752 75.5596 65.7078 75.1576 65.4398 74.6389C65.1718 74.1202 65.0378 73.515 65.0378 72.8234C65.0378 72.1232 65.1675 71.518 65.4269 71.008C65.6949 70.4893 66.0666 70.0873 66.5421 69.802C67.0262 69.5167 67.5795 69.374 68.2019 69.374C68.8417 69.374 69.382 69.5167 69.8229 69.802C70.2724 70.0873 70.6139 70.4676 70.8473 70.9431C71.0894 71.4099 71.2104 71.92 71.2104 72.4733C71.2104 72.5597 71.2104 72.6505 71.2104 72.7456C71.2104 72.8407 71.2061 72.9488 71.1974 73.0698H65.8548V72.2269H70.1341C70.1082 71.6131 69.9093 71.1376 69.5376 70.8005C69.1745 70.4633 68.7206 70.2947 68.176 70.2947C67.8043 70.2947 67.4585 70.3812 67.1386 70.5541C66.8274 70.7183 66.5767 70.9647 66.3865 71.2932C66.1963 71.6218 66.1012 72.0324 66.1012 72.5252V72.8883C66.1012 73.4329 66.1963 73.8911 66.3865 74.2628C66.5853 74.6259 66.8403 74.8982 67.1516 75.0798C67.4714 75.2613 67.8129 75.3521 68.176 75.3521C68.6342 75.3521 69.0102 75.2527 69.3042 75.0538C69.5981 74.855 69.8142 74.5784 69.9526 74.2239H71.0289C70.9165 74.6216 70.7306 74.976 70.4713 75.2873C70.2119 75.5898 69.8877 75.8319 69.4987 76.0134C69.1183 76.1863 68.6774 76.2728 68.176 76.2728ZM72.6804 76.1172V69.5296H73.666L73.7438 70.7745C73.8907 70.472 74.0809 70.2169 74.3143 70.0094C74.5564 69.802 74.8417 69.6464 75.1702 69.5426C75.4987 69.4302 75.8748 69.374 76.2984 69.374V70.5152H75.8445C75.5679 70.5152 75.3042 70.5498 75.0535 70.6189C74.8028 70.6881 74.578 70.8048 74.3792 70.9691C74.189 71.1333 74.0377 71.3538 73.9253 71.6304C73.8216 71.907 73.7697 72.2528 73.7697 72.6678V76.1172H72.6804Z" fill="#9FA1A6"/>
<path d="M134.958 76.1172L132.468 67.0399H133.635L135.593 74.8204L137.811 67.0399H139.03L141.195 74.8464L143.18 67.0399H144.347L141.805 76.1172H140.56L138.394 68.6089L136.177 76.1172H134.958ZM147.848 76.2728C147.234 76.2728 146.685 76.1302 146.201 75.8449C145.717 75.5596 145.336 75.1576 145.06 74.6389C144.783 74.1202 144.645 73.515 144.645 72.8234C144.645 72.1232 144.783 71.5137 145.06 70.995C145.345 70.4763 145.73 70.0786 146.214 69.802C146.707 69.5167 147.26 69.374 147.874 69.374C148.487 69.374 149.036 69.5167 149.521 69.802C150.005 70.0786 150.385 70.4763 150.662 70.995C150.938 71.5137 151.077 72.1232 151.077 72.8234C151.077 73.5237 150.934 74.1331 150.649 74.6518C150.372 75.1619 149.987 75.5596 149.495 75.8449C149.011 76.1302 148.462 76.2728 147.848 76.2728ZM147.848 75.3391C148.228 75.3391 148.578 75.2484 148.898 75.0668C149.218 74.8766 149.473 74.5957 149.663 74.2239C149.862 73.8435 149.961 73.3767 149.961 72.8234C149.961 72.2615 149.866 71.7947 149.676 71.4229C149.486 71.0512 149.231 70.7745 148.911 70.593C148.591 70.4028 148.245 70.3077 147.874 70.3077C147.502 70.3077 147.152 70.4028 146.823 70.593C146.503 70.7745 146.244 71.0512 146.045 71.4229C145.855 71.7947 145.76 72.2615 145.76 72.8234C145.76 73.3767 145.855 73.8435 146.045 74.2239C146.244 74.5957 146.499 74.8766 146.81 75.0668C147.13 75.2484 147.476 75.3391 147.848 75.3391ZM152.617 76.1172V69.5296H153.602L153.68 70.7745C153.827 70.472 154.017 70.2169 154.251 70.0094C154.493 69.802 154.778 69.6464 155.106 69.5426C155.435 69.4302 155.811 69.374 156.235 69.374V70.5152H155.781C155.504 70.5152 155.24 70.5498 154.99 70.6189C154.739 70.6881 154.514 70.8048 154.315 70.9691C154.125 71.1333 153.974 71.3538 153.861 71.6304C153.758 71.907 153.706 72.2528 153.706 72.6678V76.1172H152.617ZM161.487 76.1172L158.375 72.5252L161.227 69.5296H162.563L159.295 72.9142L159.308 72.1361L162.874 76.1172H161.487ZM157.467 76.1172V66.7805H158.556V76.1172H157.467ZM166.085 76.2728C165.532 76.2728 165.052 76.182 164.646 76.0005C164.239 75.8189 163.92 75.5639 163.686 75.2354C163.461 74.9069 163.323 74.5222 163.271 74.0813H164.386C164.43 74.3147 164.516 74.5265 164.646 74.7167C164.784 74.9069 164.974 75.0625 165.216 75.1835C165.458 75.2959 165.752 75.3521 166.098 75.3521C166.401 75.3521 166.651 75.3089 166.85 75.2224C167.049 75.1273 167.196 75.002 167.291 74.8464C167.395 74.6908 167.447 74.5179 167.447 74.3277C167.447 74.0597 167.382 73.8522 167.252 73.7052C167.131 73.5582 166.95 73.4459 166.708 73.3681C166.474 73.2903 166.185 73.2211 165.839 73.1606C165.528 73.1087 165.234 73.0395 164.957 72.9531C164.68 72.858 164.434 72.7413 164.218 72.603C164.01 72.456 163.842 72.2745 163.712 72.0583C163.591 71.8422 163.531 71.5829 163.531 71.2803C163.531 70.9085 163.626 70.58 163.816 70.2947C164.015 70.0008 164.291 69.776 164.646 69.6204C165.009 69.4562 165.432 69.374 165.917 69.374C166.617 69.374 167.183 69.5426 167.615 69.8798C168.056 70.2169 168.311 70.7011 168.38 71.3321H167.304C167.27 71.0036 167.127 70.7486 166.876 70.5671C166.634 70.3855 166.31 70.2947 165.904 70.2947C165.489 70.2947 165.173 70.3769 164.957 70.5411C164.741 70.7054 164.633 70.9215 164.633 71.1895C164.633 71.3624 164.689 71.5223 164.801 71.6693C164.914 71.8076 165.087 71.9243 165.32 72.0194C165.562 72.1145 165.856 72.1923 166.202 72.2528C166.651 72.3306 167.053 72.4344 167.408 72.5641C167.762 72.6937 168.043 72.8883 168.251 73.1476C168.467 73.3983 168.571 73.7614 168.562 74.2369C168.571 74.6518 168.471 75.0106 168.264 75.3132C168.056 75.6158 167.767 75.8535 167.395 76.0264C167.023 76.1907 166.587 76.2728 166.085 76.2728ZM170.156 78.9701V69.5296H171.141L171.232 70.593C171.37 70.3769 171.548 70.178 171.764 69.9965C171.98 69.8063 172.239 69.655 172.542 69.5426C172.844 69.4302 173.19 69.374 173.579 69.374C174.21 69.374 174.759 69.5253 175.226 69.8279C175.702 70.1305 176.069 70.5411 176.328 71.0598C176.588 71.5785 176.717 72.1707 176.717 72.8364C176.717 73.5021 176.588 74.0942 176.328 74.6129C176.069 75.123 175.702 75.5293 175.226 75.8319C174.751 76.1258 174.197 76.2728 173.566 76.2728C173.039 76.2728 172.572 76.1647 172.166 75.9486C171.768 75.7325 171.461 75.4299 171.245 75.0409V78.9701H170.156ZM173.45 75.3262C173.865 75.3262 174.236 75.2224 174.565 75.0149C174.893 74.8075 175.148 74.5179 175.33 74.1461C175.52 73.7657 175.615 73.3248 175.615 72.8234C175.615 72.3134 175.52 71.8725 175.33 71.5007C175.148 71.129 174.893 70.8394 174.565 70.6319C174.236 70.4244 173.865 70.3207 173.45 70.3207C173.017 70.3207 172.637 70.4244 172.308 70.6319C171.98 70.8394 171.725 71.129 171.543 71.5007C171.362 71.8725 171.271 72.3134 171.271 72.8234C171.271 73.3248 171.362 73.7657 171.543 74.1461C171.725 74.5179 171.98 74.8075 172.308 75.0149C172.637 75.2224 173.017 75.3262 173.45 75.3262ZM180.4 76.2728C179.873 76.2728 179.432 76.182 179.077 76.0005C178.731 75.8103 178.472 75.5596 178.299 75.2484C178.126 74.9371 178.04 74.6 178.04 74.2369C178.04 73.796 178.152 73.4199 178.377 73.1087C178.61 72.7975 178.935 72.5641 179.349 72.4085C179.773 72.2442 180.266 72.1621 180.828 72.1621H182.552C182.552 71.7471 182.492 71.4013 182.371 71.1247C182.25 70.848 182.068 70.6405 181.826 70.5022C181.593 70.3639 181.295 70.2947 180.932 70.2947C180.525 70.2947 180.171 70.3985 179.868 70.606C179.574 70.8048 179.393 71.103 179.324 71.5007H178.208C178.26 71.0425 178.416 70.6578 178.675 70.3466C178.943 70.0267 179.276 69.7847 179.674 69.6204C180.071 69.4562 180.491 69.374 180.932 69.374C181.537 69.374 182.038 69.4864 182.436 69.7112C182.842 69.9273 183.145 70.2342 183.344 70.6319C183.542 71.0209 183.642 71.4791 183.642 72.0065V76.1172H182.669L182.604 74.9631C182.518 75.1446 182.406 75.3175 182.267 75.4818C182.138 75.6374 181.982 75.7757 181.8 75.8967C181.619 76.0091 181.411 76.0999 181.178 76.1691C180.953 76.2382 180.694 76.2728 180.4 76.2728ZM180.568 75.3521C180.871 75.3521 181.143 75.2916 181.385 75.1706C181.627 75.0409 181.835 74.868 182.008 74.6518C182.189 74.4271 182.323 74.1807 182.41 73.9127C182.505 73.6361 182.552 73.3551 182.552 73.0698V73.005H180.919C180.504 73.005 180.166 73.0568 179.907 73.1606C179.648 73.2557 179.462 73.394 179.349 73.5755C179.237 73.7571 179.181 73.9602 179.181 74.185C179.181 74.4184 179.233 74.6259 179.337 74.8075C179.449 74.9804 179.609 75.1144 179.816 75.2095C180.024 75.3046 180.275 75.3521 180.568 75.3521ZM188.296 76.2728C187.682 76.2728 187.129 76.1302 186.636 75.8449C186.152 75.5509 185.771 75.1446 185.495 74.6259C185.218 74.1072 185.08 73.5064 185.08 72.8234C185.08 72.1318 185.218 71.531 185.495 71.0209C185.771 70.5022 186.152 70.1002 186.636 69.8149C187.129 69.521 187.686 69.374 188.309 69.374C189.078 69.374 189.722 69.5772 190.241 69.9835C190.76 70.3812 191.092 70.9215 191.239 71.6045H190.124C190.029 71.1895 189.813 70.8696 189.476 70.6449C189.139 70.4201 188.741 70.3077 188.283 70.3077C187.911 70.3077 187.565 70.4028 187.245 70.593C186.926 70.7745 186.671 71.0555 186.48 71.4359C186.29 71.8076 186.195 72.2701 186.195 72.8234C186.195 73.2384 186.251 73.6058 186.364 73.9257C186.476 74.2369 186.627 74.5006 186.818 74.7167C187.008 74.9242 187.228 75.0841 187.479 75.1965C187.738 75.3002 188.006 75.3521 188.283 75.3521C188.594 75.3521 188.875 75.3002 189.126 75.1965C189.376 75.0927 189.588 74.9458 189.761 74.7556C189.943 74.5568 190.064 74.319 190.124 74.0424H191.239C191.101 74.708 190.768 75.2484 190.241 75.6633C189.714 76.0696 189.065 76.2728 188.296 76.2728ZM195.652 76.2728C195.038 76.2728 194.493 76.1302 194.018 75.8449C193.551 75.5596 193.183 75.1576 192.915 74.6389C192.647 74.1202 192.513 73.515 192.513 72.8234C192.513 72.1232 192.643 71.518 192.902 71.008C193.17 70.4893 193.542 70.0873 194.018 69.802C194.502 69.5167 195.055 69.374 195.678 69.374C196.317 69.374 196.858 69.5167 197.298 69.802C197.748 70.0873 198.089 70.4676 198.323 70.9431C198.565 71.4099 198.686 71.92 198.686 72.4733C198.686 72.5597 198.686 72.6505 198.686 72.7456C198.686 72.8407 198.682 72.9488 198.673 73.0698H193.33V72.2269H197.61C197.584 71.6131 197.385 71.1376 197.013 70.8005C196.65 70.4633 196.196 70.2947 195.652 70.2947C195.28 70.2947 194.934 70.3812 194.614 70.5541C194.303 70.7183 194.052 70.9647 193.862 71.2932C193.672 71.6218 193.577 72.0324 193.577 72.5252V72.8883C193.577 73.4329 193.672 73.8911 193.862 74.2628C194.061 74.6259 194.316 74.8982 194.627 75.0798C194.947 75.2613 195.288 75.3521 195.652 75.3521C196.11 75.3521 196.486 75.2527 196.78 75.0538C197.074 74.855 197.29 74.5784 197.428 74.2239H198.504C198.392 74.6216 198.206 74.976 197.947 75.2873C197.688 75.5898 197.363 75.8319 196.974 76.0134C196.594 76.1863 196.153 76.2728 195.652 76.2728ZM207.037 76.2728C206.656 76.2728 206.315 76.2209 206.012 76.1172C205.718 76.0048 205.459 75.8578 205.234 75.6763C205.018 75.4861 204.836 75.2743 204.689 75.0409L204.599 76.1172H203.613V66.7805H204.702V70.593C204.91 70.2472 205.208 69.9576 205.597 69.7242C205.995 69.4907 206.47 69.374 207.024 69.374C207.663 69.374 208.217 69.5253 208.684 69.8279C209.159 70.1218 209.526 70.5282 209.786 71.0469C210.045 71.5656 210.175 72.1577 210.175 72.8234C210.175 73.4804 210.045 74.0726 209.786 74.6C209.526 75.1187 209.159 75.5293 208.684 75.8319C208.208 76.1258 207.659 76.2728 207.037 76.2728ZM206.907 75.3262C207.331 75.3262 207.702 75.2224 208.022 75.0149C208.351 74.8075 208.606 74.5179 208.787 74.1461C208.977 73.7657 209.073 73.3248 209.073 72.8234C209.073 72.3134 208.977 71.8725 208.787 71.5007C208.606 71.129 208.351 70.8394 208.022 70.6319C207.702 70.4244 207.331 70.3207 206.907 70.3207C206.475 70.3207 206.094 70.4244 205.766 70.6319C205.437 70.8394 205.182 71.129 205.001 71.5007C204.819 71.8725 204.728 72.3134 204.728 72.8234C204.728 73.3248 204.819 73.7657 205.001 74.1461C205.182 74.5179 205.437 74.8075 205.766 75.0149C206.094 75.2224 206.475 75.3262 206.907 75.3262Z" fill="#EEEFF1"/>
<g filter="url(#filter2_d_2654_37820)">
<rect x="251.874" y="58.6484" width="127.903" height="25.9352" rx="9.26257" fill="#4E3030" shape-rendering="crispEdges"/>
<rect x="252.337" y="59.1116" width="126.977" height="25.0089" rx="8.79944" stroke="#575B62" stroke-width="0.926257" shape-rendering="crispEdges"/>
<path d="M264.495 66.4062H272.599C272.599 66.4062 273.757 66.4062 273.757 67.5641V75.6688C273.757 75.6688 273.757 76.8266 272.599 76.8266H264.495C264.495 76.8266 263.337 76.8266 263.337 75.6688V67.5641C263.337 67.5641 263.337 66.4062 264.495 66.4062Z" stroke="#EEEFF1" stroke-width="0.926257" stroke-linecap="round" stroke-linejoin="round"/>
<path d="M270.283 69.8789L266.81 73.3524" stroke="#EEEFF1" stroke-width="0.926257" stroke-linecap="round" stroke-linejoin="round"/>
<path d="M266.81 69.8789L270.283 73.3524" stroke="#EEEFF1" stroke-width="0.926257" stroke-linecap="round" stroke-linejoin="round"/>
<path d="M282.487 76.1152V67.0379H285.418C286.127 67.0379 286.706 67.1589 287.156 67.401C287.605 67.6344 287.938 67.95 288.154 68.3476C288.37 68.7453 288.478 69.1949 288.478 69.6963C288.478 70.1804 288.366 70.6256 288.141 71.0319C287.925 71.4383 287.588 71.7624 287.13 72.0045C286.671 72.2466 286.084 72.3676 285.366 72.3676H283.576V76.1152H282.487ZM287.285 76.1152L285.288 72.0564H286.507L288.569 76.1152H287.285ZM283.576 71.5117H285.34C286.032 71.5117 286.537 71.3432 286.857 71.006C287.186 70.6688 287.35 70.2366 287.35 69.7092C287.35 69.1732 287.19 68.7496 286.87 68.4384C286.559 68.1185 286.045 67.9586 285.327 67.9586H283.576V71.5117ZM292.608 76.2708C291.994 76.2708 291.449 76.1282 290.974 75.8429C290.507 75.5576 290.14 75.1556 289.872 74.6369C289.604 74.1182 289.47 73.5131 289.47 72.8215C289.47 72.1212 289.599 71.5161 289.859 71.006C290.127 70.4873 290.498 70.0853 290.974 69.8C291.458 69.5147 292.011 69.3721 292.634 69.3721C293.273 69.3721 293.814 69.5147 294.255 69.8C294.704 70.0853 295.046 70.4657 295.279 70.9412C295.521 71.408 295.642 71.9181 295.642 72.4713C295.642 72.5578 295.642 72.6486 295.642 72.7437C295.642 72.8388 295.638 72.9468 295.629 73.0678H290.287V72.225H294.566C294.54 71.6112 294.341 71.1357 293.969 70.7985C293.606 70.4614 293.152 70.2928 292.608 70.2928C292.236 70.2928 291.89 70.3792 291.57 70.5521C291.259 70.7164 291.008 70.9628 290.818 71.2913C290.628 71.6198 290.533 72.0304 290.533 72.5232V72.8863C290.533 73.4309 290.628 73.8891 290.818 74.2609C291.017 74.624 291.272 74.8963 291.583 75.0778C291.903 75.2594 292.245 75.3501 292.608 75.3501C293.066 75.3501 293.442 75.2507 293.736 75.0519C294.03 74.8531 294.246 74.5764 294.384 74.222H295.461C295.348 74.6196 295.162 74.9741 294.903 75.2853C294.644 75.5879 294.32 75.8299 293.931 76.0115C293.55 76.1844 293.109 76.2708 292.608 76.2708ZM297.112 76.1152V69.5277H298.098L298.163 70.4614C298.37 70.1156 298.647 69.8476 298.993 69.6574C299.347 69.4672 299.732 69.3721 300.147 69.3721C300.475 69.3721 300.773 69.4196 301.041 69.5147C301.318 69.6012 301.56 69.7395 301.768 69.9297C301.975 70.1112 302.144 70.3403 302.273 70.617C302.498 70.2193 302.805 69.9124 303.194 69.6963C303.583 69.4801 303.998 69.3721 304.439 69.3721C304.949 69.3721 305.39 69.4715 305.762 69.6703C306.133 69.8692 306.419 70.1761 306.617 70.591C306.816 70.9974 306.916 71.5074 306.916 72.1212V76.1152H305.839V72.2379C305.839 71.5982 305.705 71.1184 305.437 70.7985C305.169 70.47 304.793 70.3058 304.309 70.3058C303.981 70.3058 303.682 70.3922 303.414 70.5651C303.155 70.738 302.948 70.993 302.792 71.3302C302.636 71.6587 302.559 72.065 302.559 72.5491V76.1152H301.469V72.2379C301.469 71.5982 301.335 71.1184 301.067 70.7985C300.799 70.47 300.428 70.3058 299.952 70.3058C299.624 70.3058 299.325 70.3922 299.057 70.5651C298.798 70.738 298.591 70.993 298.435 71.3302C298.279 71.6587 298.202 72.065 298.202 72.5491V76.1152H297.112ZM311.567 76.2708C310.953 76.2708 310.404 76.1282 309.92 75.8429C309.436 75.5576 309.055 75.1556 308.779 74.6369C308.502 74.1182 308.364 73.5131 308.364 72.8215C308.364 72.1212 308.502 71.5117 308.779 70.993C309.064 70.4743 309.449 70.0767 309.933 69.8C310.426 69.5147 310.979 69.3721 311.593 69.3721C312.207 69.3721 312.756 69.5147 313.24 69.8C313.724 70.0767 314.104 70.4743 314.381 70.993C314.657 71.5117 314.796 72.1212 314.796 72.8215C314.796 73.5217 314.653 74.1312 314.368 74.6499C314.091 75.16 313.707 75.5576 313.214 75.8429C312.73 76.1282 312.181 76.2708 311.567 76.2708ZM311.567 75.3372C311.947 75.3372 312.297 75.2464 312.617 75.0649C312.937 74.8747 313.192 74.5937 313.382 74.222C313.581 73.8416 313.681 73.3747 313.681 72.8215C313.681 72.2595 313.585 71.7927 313.395 71.421C313.205 71.0492 312.95 70.7726 312.63 70.591C312.31 70.4008 311.965 70.3058 311.593 70.3058C311.221 70.3058 310.871 70.4008 310.542 70.591C310.223 70.7726 309.963 71.0492 309.764 71.421C309.574 71.7927 309.479 72.2595 309.479 72.8215C309.479 73.3747 309.574 73.8416 309.764 74.222C309.963 74.5937 310.218 74.8747 310.529 75.0649C310.849 75.2464 311.195 75.3372 311.567 75.3372ZM317.913 76.1152L315.41 69.5277H316.551L318.548 75.0649L320.545 69.5277H321.66L319.171 76.1152H317.913ZM325.419 76.2708C324.806 76.2708 324.261 76.1282 323.785 75.8429C323.319 75.5576 322.951 75.1556 322.683 74.6369C322.415 74.1182 322.281 73.5131 322.281 72.8215C322.281 72.1212 322.411 71.5161 322.67 71.006C322.938 70.4873 323.31 70.0853 323.785 69.8C324.27 69.5147 324.823 69.3721 325.445 69.3721C326.085 69.3721 326.625 69.5147 327.066 69.8C327.516 70.0853 327.857 70.4657 328.091 70.9412C328.333 71.408 328.454 71.9181 328.454 72.4713C328.454 72.5578 328.454 72.6486 328.454 72.7437C328.454 72.8388 328.449 72.9468 328.441 73.0678H323.098V72.225H327.377C327.352 71.6112 327.153 71.1357 326.781 70.7985C326.418 70.4614 325.964 70.2928 325.419 70.2928C325.048 70.2928 324.702 70.3792 324.382 70.5521C324.071 70.7164 323.82 70.9628 323.63 71.2913C323.44 71.6198 323.345 72.0304 323.345 72.5232V72.8863C323.345 73.4309 323.44 73.8891 323.63 74.2609C323.829 74.624 324.084 74.8963 324.395 75.0778C324.715 75.2594 325.056 75.3501 325.419 75.3501C325.878 75.3501 326.254 75.2507 326.548 75.0519C326.842 74.8531 327.058 74.5764 327.196 74.222H328.272C328.16 74.6196 327.974 74.9741 327.715 75.2853C327.455 75.5879 327.131 75.8299 326.742 76.0115C326.362 76.1844 325.921 76.2708 325.419 76.2708ZM333.446 76.1152V67.0379H336.376C337.085 67.0379 337.665 67.1589 338.114 67.401C338.564 67.6344 338.897 67.95 339.113 68.3476C339.329 68.7453 339.437 69.1949 339.437 69.6963C339.437 70.1804 339.324 70.6256 339.1 71.0319C338.884 71.4383 338.546 71.7624 338.088 72.0045C337.63 72.2466 337.042 72.3676 336.325 72.3676H334.535V76.1152H333.446ZM338.244 76.1152L336.247 72.0564H337.466L339.528 76.1152H338.244ZM334.535 71.5117H336.299C336.99 71.5117 337.496 71.3432 337.816 71.006C338.144 70.6688 338.309 70.2366 338.309 69.7092C338.309 69.1732 338.149 68.7496 337.829 68.4384C337.518 68.1185 337.003 67.9586 336.286 67.9586H334.535V71.5117ZM341.197 76.1152V69.5277H342.286V76.1152H341.197ZM341.742 68.1531C341.525 68.1531 341.344 68.084 341.197 67.9456C341.059 67.7987 340.989 67.6171 340.989 67.401C340.989 67.1849 341.059 67.012 341.197 66.8823C341.344 66.744 341.525 66.6748 341.742 66.6748C341.949 66.6748 342.126 66.744 342.273 66.8823C342.42 67.012 342.494 67.1849 342.494 67.401C342.494 67.6171 342.42 67.7987 342.273 67.9456C342.126 68.084 341.949 68.1531 341.742 68.1531ZM346.802 79.1237C346.214 79.1237 345.691 79.0459 345.233 78.8903C344.783 78.7433 344.429 78.5142 344.17 78.203C343.919 77.8918 343.793 77.5071 343.793 77.0489C343.793 76.8501 343.832 76.6383 343.91 76.4135C343.997 76.1887 344.139 75.9683 344.338 75.7521C344.546 75.536 344.835 75.3415 345.207 75.1686L345.972 75.6095C345.514 75.7997 345.211 76.0158 345.064 76.2579C344.926 76.4999 344.857 76.729 344.857 76.9452C344.857 77.2304 344.939 77.4682 345.103 77.6584C345.276 77.8486 345.51 77.9912 345.803 78.0863C346.097 78.1814 346.43 78.229 346.802 78.229C347.182 78.229 347.507 78.1771 347.775 78.0733C348.043 77.9696 348.25 77.8226 348.397 77.6324C348.553 77.4423 348.63 77.2218 348.63 76.9711C348.63 76.6599 348.514 76.4005 348.28 76.193C348.055 75.9942 347.628 75.8775 346.996 75.8429C346.478 75.8083 346.045 75.7608 345.7 75.7003C345.354 75.6398 345.064 75.5706 344.831 75.4928C344.606 75.4063 344.416 75.3112 344.26 75.2075C344.113 75.1038 343.979 74.9957 343.858 74.8833V74.5851L345.129 73.3272L346.089 73.6644L344.766 74.8444L344.935 74.3776C345.03 74.4467 345.12 74.5116 345.207 74.5721C345.293 74.624 345.41 74.6758 345.557 74.7277C345.713 74.7709 345.92 74.8142 346.179 74.8574C346.447 74.892 346.802 74.9265 347.243 74.9611C347.839 75.0043 348.315 75.1081 348.669 75.2723C349.032 75.4366 349.296 75.657 349.46 75.9337C349.625 76.2103 349.707 76.5432 349.707 76.9322C349.707 77.2953 349.603 77.6411 349.395 77.9696C349.197 78.3068 348.881 78.5834 348.449 78.7995C348.025 79.0157 347.476 79.1237 346.802 79.1237ZM346.789 74.0534C346.244 74.0534 345.782 73.9496 345.401 73.7422C345.021 73.5347 344.731 73.2537 344.533 72.8993C344.334 72.5448 344.234 72.1471 344.234 71.7063C344.234 71.274 344.334 70.885 344.533 70.5392C344.731 70.1847 345.021 69.9038 345.401 69.6963C345.782 69.4801 346.244 69.3721 346.789 69.3721C347.342 69.3721 347.809 69.4801 348.189 69.6963C348.57 69.9038 348.859 70.1847 349.058 70.5392C349.257 70.885 349.357 71.274 349.357 71.7063C349.357 72.1471 349.257 72.5448 349.058 72.8993C348.859 73.2537 348.57 73.5347 348.189 73.7422C347.809 73.9496 347.342 74.0534 346.789 74.0534ZM346.789 73.1586C347.264 73.1586 347.636 73.0376 347.904 72.7955C348.172 72.5448 348.306 72.1817 348.306 71.7063C348.306 71.2394 348.172 70.885 347.904 70.6429C347.636 70.4008 347.264 70.2798 346.789 70.2798C346.331 70.2798 345.959 70.4008 345.674 70.6429C345.397 70.885 345.259 71.2394 345.259 71.7063C345.259 72.1817 345.397 72.5448 345.674 72.7955C345.959 73.0376 346.331 73.1586 346.789 73.1586ZM347.878 70.4484L347.554 69.5277H350.225V70.3447L347.878 70.4484ZM351.477 76.1152V66.7786H352.567V70.6299C352.783 70.2323 353.085 69.9254 353.474 69.7092C353.872 69.4845 354.304 69.3721 354.771 69.3721C355.273 69.3721 355.709 69.4715 356.081 69.6703C356.453 69.8692 356.738 70.1761 356.937 70.591C357.136 70.9974 357.235 71.5161 357.235 72.1471V76.1152H356.159V72.2639C356.159 71.6155 356.016 71.127 355.731 70.7985C355.454 70.47 355.056 70.3058 354.538 70.3058C354.166 70.3058 353.829 70.3965 353.526 70.5781C353.232 70.751 352.999 71.006 352.826 71.3432C352.653 71.6717 352.567 72.0823 352.567 72.5751V76.1152H351.477ZM361.529 76.1152C361.14 76.1152 360.803 76.0547 360.518 75.9337C360.233 75.8127 360.012 75.6095 359.857 75.3242C359.71 75.0303 359.636 74.6369 359.636 74.1442V70.4484H358.495V69.5277H359.636L359.779 67.9197H360.725V69.5277H362.632V70.4484H360.725V74.1442C360.725 74.5505 360.808 74.8271 360.972 74.9741C361.136 75.1124 361.426 75.1816 361.841 75.1816H362.567V76.1152H361.529ZM366.529 76.2708C365.976 76.2708 365.496 76.1801 365.089 75.9985C364.683 75.817 364.363 75.562 364.13 75.2334C363.905 74.9049 363.767 74.5202 363.715 74.0793H364.83C364.873 74.3127 364.96 74.5245 365.089 74.7147C365.228 74.9049 365.418 75.0605 365.66 75.1816C365.902 75.294 366.196 75.3501 366.542 75.3501C366.844 75.3501 367.095 75.3069 367.294 75.2205C367.493 75.1254 367.64 75 367.735 74.8444C367.839 74.6888 367.89 74.5159 367.89 74.3257C367.89 74.0577 367.826 73.8502 367.696 73.7033C367.575 73.5563 367.393 73.4439 367.151 73.3661C366.918 73.2883 366.628 73.2191 366.283 73.1586C365.971 73.1068 365.677 73.0376 365.401 72.9511C365.124 72.856 364.878 72.7393 364.662 72.601C364.454 72.454 364.286 72.2725 364.156 72.0564C364.035 71.8402 363.974 71.5809 363.974 71.2783C363.974 70.9066 364.069 70.5781 364.26 70.2928C364.458 69.9989 364.735 69.7741 365.089 69.6185C365.453 69.4542 365.876 69.3721 366.36 69.3721C367.061 69.3721 367.627 69.5407 368.059 69.8778C368.5 70.215 368.755 70.6991 368.824 71.3302H367.748C367.713 71.0017 367.571 70.7466 367.32 70.5651C367.078 70.3836 366.754 70.2928 366.347 70.2928C365.932 70.2928 365.617 70.3749 365.401 70.5392C365.185 70.7034 365.077 70.9196 365.077 71.1875C365.077 71.3604 365.133 71.5204 365.245 71.6673C365.357 71.8057 365.53 71.9224 365.764 72.0175C366.006 72.1126 366.3 72.1904 366.646 72.2509C367.095 72.3287 367.497 72.4324 367.852 72.5621C368.206 72.6918 368.487 72.8863 368.694 73.1457C368.911 73.3964 369.014 73.7595 369.006 74.2349C369.014 74.6499 368.915 75.0087 368.707 75.3112C368.5 75.6138 368.21 75.8516 367.839 76.0245C367.467 76.1887 367.03 76.2708 366.529 76.2708Z" fill="#EEEFF1"/>
</g>
<rect x="17.7258" y="98.9397" width="768.606" height="34.2715" rx="8.79944" fill="#EEEFF1"/>
<rect x="17.7258" y="98.9397" width="768.606" height="34.2715" rx="8.79944" fill="#282A2F"/>
<rect x="17.7258" y="98.9397" width="768.606" height="34.2715" rx="8.79944" stroke="#575B62" stroke-width="0.926257"/>
<path d="M26.9144 120.576L30.2601 111.499H31.4142L34.7468 120.576H33.5927L30.8306 112.86L28.0556 120.576H26.9144ZM28.4446 118.242L28.7558 117.36H32.8665L33.1778 118.242H28.4446ZM38.5686 120.732C37.9376 120.732 37.3843 120.58 36.9088 120.278C36.4333 119.975 36.0659 119.565 35.8065 119.046C35.5472 118.527 35.4175 117.935 35.4175 117.269C35.4175 116.604 35.5472 116.012 35.8065 115.493C36.0659 114.974 36.4333 114.568 36.9088 114.274C37.3929 113.98 37.9505 113.833 38.5816 113.833C39.109 113.833 39.5715 113.941 39.9691 114.157C40.3755 114.373 40.6867 114.676 40.9028 115.065V111.24H41.9921V120.576H41.0065L40.9028 119.5C40.7731 119.716 40.6002 119.919 40.3841 120.109C40.168 120.291 39.9086 120.442 39.606 120.563C39.3121 120.676 38.9663 120.732 38.5686 120.732ZM38.6853 119.785C39.1176 119.785 39.498 119.681 39.8265 119.474C40.155 119.266 40.41 118.977 40.5916 118.605C40.7731 118.225 40.8639 117.784 40.8639 117.282C40.8639 116.772 40.7731 116.331 40.5916 115.96C40.41 115.588 40.155 115.298 39.8265 115.091C39.498 114.883 39.1176 114.78 38.6853 114.78C38.2704 114.78 37.8986 114.883 37.5701 115.091C37.2416 115.298 36.9866 115.588 36.805 115.96C36.6235 116.331 36.5327 116.772 36.5327 117.282C36.5327 117.784 36.6235 118.225 36.805 118.605C36.9866 118.977 37.2416 119.266 37.5701 119.474C37.8986 119.681 38.2704 119.785 38.6853 119.785ZM43.8072 120.576V113.989H44.7928L44.8576 114.922C45.0651 114.576 45.3417 114.308 45.6875 114.118C46.042 113.928 46.4267 113.833 46.8417 113.833C47.1702 113.833 47.4684 113.881 47.7364 113.976C48.0131 114.062 48.2551 114.2 48.4626 114.391C48.6701 114.572 48.8387 114.801 48.9683 115.078C49.1931 114.68 49.5 114.373 49.889 114.157C50.2781 113.941 50.693 113.833 51.1339 113.833C51.644 113.833 52.0849 113.932 52.4566 114.131C52.8284 114.33 53.1137 114.637 53.3125 115.052C53.5113 115.458 53.6107 115.968 53.6107 116.582V120.576H52.5344V116.699C52.5344 116.059 52.4004 115.579 52.1324 115.259C51.8644 114.931 51.4884 114.767 51.0043 114.767C50.6757 114.767 50.3775 114.853 50.1095 115.026C49.8501 115.199 49.6427 115.454 49.4871 115.791C49.3314 116.12 49.2536 116.526 49.2536 117.01V120.576H48.1644V116.699C48.1644 116.059 48.0304 115.579 47.7624 115.259C47.4944 114.931 47.1226 114.767 46.6471 114.767C46.3186 114.767 46.0204 114.853 45.7524 115.026C45.493 115.199 45.2856 115.454 45.1299 115.791C44.9743 116.12 44.8965 116.526 44.8965 117.01V120.576H43.8072ZM55.4349 120.576V113.989H56.5242V120.576H55.4349ZM55.9796 112.614C55.7634 112.614 55.5819 112.545 55.4349 112.407C55.2966 112.26 55.2274 112.078 55.2274 111.862C55.2274 111.646 55.2966 111.473 55.4349 111.343C55.5819 111.205 55.7634 111.136 55.9796 111.136C56.187 111.136 56.3643 111.205 56.5112 111.343C56.6582 111.473 56.7317 111.646 56.7317 111.862C56.7317 112.078 56.6582 112.26 56.5112 112.407C56.3643 112.545 56.187 112.614 55.9796 112.614ZM58.4464 120.576V113.989H59.432L59.4839 115.104C59.6913 114.706 59.9853 114.395 60.3657 114.17C60.7547 113.945 61.1956 113.833 61.6883 113.833C62.1898 113.833 62.6263 113.932 62.9981 114.131C63.3698 114.33 63.6594 114.633 63.8669 115.039C64.0744 115.445 64.1781 115.96 64.1781 116.582V120.576H63.0888V116.699C63.0888 116.059 62.9419 115.579 62.6479 115.259C62.3627 114.931 61.9607 114.767 61.442 114.767C61.0789 114.767 60.7547 114.853 60.4694 115.026C60.1841 115.199 59.955 115.45 59.7821 115.778C59.6179 116.107 59.5357 116.513 59.5357 116.997V120.576H58.4464Z" fill="#9FA1A6"/>
<path d="M134.958 120.576L132.468 111.499H133.635L135.593 119.279L137.811 111.499H139.03L141.195 119.305L143.18 111.499H144.347L141.805 120.576H140.56L138.394 113.068L136.177 120.576H134.958ZM147.848 120.732C147.234 120.732 146.685 120.589 146.201 120.304C145.717 120.019 145.336 119.617 145.06 119.098C144.783 118.579 144.645 117.974 144.645 117.282C144.645 116.582 144.783 115.973 145.06 115.454C145.345 114.935 145.73 114.538 146.214 114.261C146.707 113.976 147.26 113.833 147.874 113.833C148.487 113.833 149.036 113.976 149.521 114.261C150.005 114.538 150.385 114.935 150.662 115.454C150.938 115.973 151.077 116.582 151.077 117.282C151.077 117.983 150.934 118.592 150.649 119.111C150.372 119.621 149.987 120.019 149.495 120.304C149.011 120.589 148.462 120.732 147.848 120.732ZM147.848 119.798C148.228 119.798 148.578 119.707 148.898 119.526C149.218 119.336 149.473 119.055 149.663 118.683C149.862 118.303 149.961 117.836 149.961 117.282C149.961 116.72 149.866 116.254 149.676 115.882C149.486 115.51 149.231 115.234 148.911 115.052C148.591 114.862 148.245 114.767 147.874 114.767C147.502 114.767 147.152 114.862 146.823 115.052C146.503 115.234 146.244 115.51 146.045 115.882C145.855 116.254 145.76 116.72 145.76 117.282C145.76 117.836 145.855 118.303 146.045 118.683C146.244 119.055 146.499 119.336 146.81 119.526C147.13 119.707 147.476 119.798 147.848 119.798ZM152.617 120.576V113.989H153.602L153.68 115.234C153.827 114.931 154.017 114.676 154.251 114.468C154.493 114.261 154.778 114.105 155.106 114.002C155.435 113.889 155.811 113.833 156.235 113.833V114.974H155.781C155.504 114.974 155.24 115.009 154.99 115.078C154.739 115.147 154.514 115.264 154.315 115.428C154.125 115.592 153.974 115.813 153.861 116.089C153.758 116.366 153.706 116.712 153.706 117.127V120.576H152.617ZM161.487 120.576L158.375 116.984L161.227 113.989H162.563L159.295 117.373L159.308 116.595L162.874 120.576H161.487ZM157.467 120.576V111.24H158.556V120.576H157.467ZM166.085 120.732C165.532 120.732 165.052 120.641 164.646 120.459C164.239 120.278 163.92 120.023 163.686 119.694C163.461 119.366 163.323 118.981 163.271 118.54H164.386C164.43 118.774 164.516 118.985 164.646 119.176C164.784 119.366 164.974 119.521 165.216 119.643C165.458 119.755 165.752 119.811 166.098 119.811C166.401 119.811 166.651 119.768 166.85 119.681C167.049 119.586 167.196 119.461 167.291 119.305C167.395 119.15 167.447 118.977 167.447 118.787C167.447 118.519 167.382 118.311 167.252 118.164C167.131 118.017 166.95 117.905 166.708 117.827C166.474 117.749 166.185 117.68 165.839 117.62C165.528 117.568 165.234 117.499 164.957 117.412C164.68 117.317 164.434 117.2 164.218 117.062C164.01 116.915 163.842 116.733 163.712 116.517C163.591 116.301 163.531 116.042 163.531 115.739C163.531 115.368 163.626 115.039 163.816 114.754C164.015 114.46 164.291 114.235 164.646 114.079C165.009 113.915 165.432 113.833 165.917 113.833C166.617 113.833 167.183 114.002 167.615 114.339C168.056 114.676 168.311 115.16 168.38 115.791H167.304C167.27 115.463 167.127 115.208 166.876 115.026C166.634 114.844 166.31 114.754 165.904 114.754C165.489 114.754 165.173 114.836 164.957 115C164.741 115.164 164.633 115.38 164.633 115.648C164.633 115.821 164.689 115.981 164.801 116.128C164.914 116.267 165.087 116.383 165.32 116.478C165.562 116.574 165.856 116.651 166.202 116.712C166.651 116.79 167.053 116.893 167.408 117.023C167.762 117.153 168.043 117.347 168.251 117.607C168.467 117.857 168.571 118.22 168.562 118.696C168.571 119.111 168.471 119.47 168.264 119.772C168.056 120.075 167.767 120.312 167.395 120.485C167.023 120.65 166.587 120.732 166.085 120.732ZM170.156 123.429V113.989H171.141L171.232 115.052C171.37 114.836 171.548 114.637 171.764 114.455C171.98 114.265 172.239 114.114 172.542 114.002C172.844 113.889 173.19 113.833 173.579 113.833C174.21 113.833 174.759 113.984 175.226 114.287C175.702 114.589 176.069 115 176.328 115.519C176.588 116.038 176.717 116.63 176.717 117.295C176.717 117.961 176.588 118.553 176.328 119.072C176.069 119.582 175.702 119.988 175.226 120.291C174.751 120.585 174.197 120.732 173.566 120.732C173.039 120.732 172.572 120.624 172.166 120.408C171.768 120.191 171.461 119.889 171.245 119.5V123.429H170.156ZM173.45 119.785C173.865 119.785 174.236 119.681 174.565 119.474C174.893 119.266 175.148 118.977 175.33 118.605C175.52 118.225 175.615 117.784 175.615 117.282C175.615 116.772 175.52 116.331 175.33 115.96C175.148 115.588 174.893 115.298 174.565 115.091C174.236 114.883 173.865 114.78 173.45 114.78C173.017 114.78 172.637 114.883 172.308 115.091C171.98 115.298 171.725 115.588 171.543 115.96C171.362 116.331 171.271 116.772 171.271 117.282C171.271 117.784 171.362 118.225 171.543 118.605C171.725 118.977 171.98 119.266 172.308 119.474C172.637 119.681 173.017 119.785 173.45 119.785ZM180.4 120.732C179.873 120.732 179.432 120.641 179.077 120.459C178.731 120.269 178.472 120.019 178.299 119.707C178.126 119.396 178.04 119.059 178.04 118.696C178.04 118.255 178.152 117.879 178.377 117.568C178.61 117.256 178.935 117.023 179.349 116.867C179.773 116.703 180.266 116.621 180.828 116.621H182.552C182.552 116.206 182.492 115.86 182.371 115.584C182.25 115.307 182.068 115.1 181.826 114.961C181.593 114.823 181.295 114.754 180.932 114.754C180.525 114.754 180.171 114.857 179.868 115.065C179.574 115.264 179.393 115.562 179.324 115.96H178.208C178.26 115.502 178.416 115.117 178.675 114.806C178.943 114.486 179.276 114.244 179.674 114.079C180.071 113.915 180.491 113.833 180.932 113.833C181.537 113.833 182.038 113.945 182.436 114.17C182.842 114.386 183.145 114.693 183.344 115.091C183.542 115.48 183.642 115.938 183.642 116.465V120.576H182.669L182.604 119.422C182.518 119.604 182.406 119.777 182.267 119.941C182.138 120.096 181.982 120.235 181.8 120.356C181.619 120.468 181.411 120.559 181.178 120.628C180.953 120.697 180.694 120.732 180.4 120.732ZM180.568 119.811C180.871 119.811 181.143 119.751 181.385 119.63C181.627 119.5 181.835 119.327 182.008 119.111C182.189 118.886 182.323 118.64 182.41 118.372C182.505 118.095 182.552 117.814 182.552 117.529V117.464H180.919C180.504 117.464 180.166 117.516 179.907 117.62C179.648 117.715 179.462 117.853 179.349 118.035C179.237 118.216 179.181 118.419 179.181 118.644C179.181 118.877 179.233 119.085 179.337 119.266C179.449 119.439 179.609 119.573 179.816 119.668C180.024 119.764 180.275 119.811 180.568 119.811ZM188.296 120.732C187.682 120.732 187.129 120.589 186.636 120.304C186.152 120.01 185.771 119.604 185.495 119.085C185.218 118.566 185.08 117.965 185.08 117.282C185.08 116.591 185.218 115.99 185.495 115.48C185.771 114.961 186.152 114.559 186.636 114.274C187.129 113.98 187.686 113.833 188.309 113.833C189.078 113.833 189.722 114.036 190.241 114.442C190.76 114.84 191.092 115.38 191.239 116.063H190.124C190.029 115.648 189.813 115.329 189.476 115.104C189.139 114.879 188.741 114.767 188.283 114.767C187.911 114.767 187.565 114.862 187.245 115.052C186.926 115.234 186.671 115.514 186.48 115.895C186.29 116.267 186.195 116.729 186.195 117.282C186.195 117.697 186.251 118.065 186.364 118.385C186.476 118.696 186.627 118.96 186.818 119.176C187.008 119.383 187.228 119.543 187.479 119.655C187.738 119.759 188.006 119.811 188.283 119.811C188.594 119.811 188.875 119.759 189.126 119.655C189.376 119.552 189.588 119.405 189.761 119.215C189.943 119.016 190.064 118.778 190.124 118.501H191.239C191.101 119.167 190.768 119.707 190.241 120.122C189.714 120.529 189.065 120.732 188.296 120.732ZM195.652 120.732C195.038 120.732 194.493 120.589 194.018 120.304C193.551 120.019 193.183 119.617 192.915 119.098C192.647 118.579 192.513 117.974 192.513 117.282C192.513 116.582 192.643 115.977 192.902 115.467C193.17 114.948 193.542 114.546 194.018 114.261C194.502 113.976 195.055 113.833 195.678 113.833C196.317 113.833 196.858 113.976 197.298 114.261C197.748 114.546 198.089 114.927 198.323 115.402C198.565 115.869 198.686 116.379 198.686 116.932C198.686 117.019 198.686 117.11 198.686 117.205C198.686 117.3 198.682 117.408 198.673 117.529H193.33V116.686H197.61C197.584 116.072 197.385 115.597 197.013 115.259C196.65 114.922 196.196 114.754 195.652 114.754C195.28 114.754 194.934 114.84 194.614 115.013C194.303 115.177 194.052 115.424 193.862 115.752C193.672 116.081 193.577 116.491 193.577 116.984V117.347C193.577 117.892 193.672 118.35 193.862 118.722C194.061 119.085 194.316 119.357 194.627 119.539C194.947 119.72 195.288 119.811 195.652 119.811C196.11 119.811 196.486 119.712 196.78 119.513C197.074 119.314 197.29 119.037 197.428 118.683H198.504C198.392 119.081 198.206 119.435 197.947 119.746C197.688 120.049 197.363 120.291 196.974 120.472C196.594 120.645 196.153 120.732 195.652 120.732ZM206.557 120.732C205.943 120.732 205.39 120.589 204.897 120.304C204.413 120.01 204.032 119.604 203.756 119.085C203.479 118.566 203.341 117.965 203.341 117.282C203.341 116.591 203.479 115.99 203.756 115.48C204.032 114.961 204.413 114.559 204.897 114.274C205.39 113.98 205.947 113.833 206.57 113.833C207.339 113.833 207.983 114.036 208.502 114.442C209.021 114.84 209.354 115.38 209.5 116.063H208.385C208.29 115.648 208.074 115.329 207.737 115.104C207.4 114.879 207.002 114.767 206.544 114.767C206.172 114.767 205.826 114.862 205.506 115.052C205.187 115.234 204.932 115.514 204.741 115.895C204.551 116.267 204.456 116.729 204.456 117.282C204.456 117.697 204.512 118.065 204.625 118.385C204.737 118.696 204.888 118.96 205.079 119.176C205.269 119.383 205.489 119.543 205.74 119.655C205.999 119.759 206.267 119.811 206.544 119.811C206.855 119.811 207.136 119.759 207.387 119.655C207.637 119.552 207.849 119.405 208.022 119.215C208.204 119.016 208.325 118.778 208.385 118.501H209.5C209.362 119.167 209.029 119.707 208.502 120.122C207.975 120.529 207.326 120.732 206.557 120.732Z" fill="#EEEFF1"/>
<g filter="url(#filter3_d_2654_37820)">
<rect x="251.874" y="103.107" width="127.903" height="25.9352" rx="9.26257" fill="#4E3030" shape-rendering="crispEdges"/>
<rect x="252.337" y="103.571" width="126.977" height="25.0089" rx="8.79944" stroke="#575B62" stroke-width="0.926257" shape-rendering="crispEdges"/>
<path d="M264.495 110.865H272.599C272.599 110.865 273.757 110.865 273.757 112.023V120.128C273.757 120.128 273.757 121.286 272.599 121.286H264.495C264.495 121.286 263.337 121.286 263.337 120.128V112.023C263.337 112.023 263.337 110.865 264.495 110.865Z" stroke="#EEEFF1" stroke-width="0.926257" stroke-linecap="round" stroke-linejoin="round"/>
<path d="M270.283 114.338L266.81 117.811" stroke="#EEEFF1" stroke-width="0.926257" stroke-linecap="round" stroke-linejoin="round"/>
<path d="M266.81 114.338L270.283 117.811" stroke="#EEEFF1" stroke-width="0.926257" stroke-linecap="round" stroke-linejoin="round"/>
<path d="M282.487 120.574V111.497H285.418C286.127 111.497 286.706 111.618 287.156 111.86C287.605 112.093 287.938 112.409 288.154 112.807C288.37 113.204 288.478 113.654 288.478 114.155C288.478 114.639 288.366 115.085 288.141 115.491C287.925 115.897 287.588 116.221 287.13 116.463C286.671 116.706 286.084 116.827 285.366 116.827H283.576V120.574H282.487ZM287.285 120.574L285.288 116.515H286.507L288.569 120.574H287.285ZM283.576 115.971H285.34C286.032 115.971 286.537 115.802 286.857 115.465C287.186 115.128 287.35 114.696 287.35 114.168C287.35 113.632 287.19 113.209 286.87 112.897C286.559 112.578 286.045 112.418 285.327 112.418H283.576V115.971ZM292.608 120.73C291.994 120.73 291.449 120.587 290.974 120.302C290.507 120.017 290.14 119.615 289.872 119.096C289.604 118.577 289.47 117.972 289.47 117.28C289.47 116.58 289.599 115.975 289.859 115.465C290.127 114.946 290.498 114.544 290.974 114.259C291.458 113.974 292.011 113.831 292.634 113.831C293.273 113.831 293.814 113.974 294.255 114.259C294.704 114.544 295.046 114.925 295.279 115.4C295.521 115.867 295.642 116.377 295.642 116.93C295.642 117.017 295.642 117.108 295.642 117.203C295.642 117.298 295.638 117.406 295.629 117.527H290.287V116.684H294.566C294.54 116.07 294.341 115.595 293.969 115.258C293.606 114.92 293.152 114.752 292.608 114.752C292.236 114.752 291.89 114.838 291.57 115.011C291.259 115.175 291.008 115.422 290.818 115.75C290.628 116.079 290.533 116.489 290.533 116.982V117.345C290.533 117.89 290.628 118.348 290.818 118.72C291.017 119.083 291.272 119.355 291.583 119.537C291.903 119.718 292.245 119.809 292.608 119.809C293.066 119.809 293.442 119.71 293.736 119.511C294.03 119.312 294.246 119.035 294.384 118.681H295.461C295.348 119.079 295.162 119.433 294.903 119.744C294.644 120.047 294.32 120.289 293.931 120.47C293.55 120.643 293.109 120.73 292.608 120.73ZM297.112 120.574V113.987H298.098L298.163 114.92C298.37 114.575 298.647 114.307 298.993 114.116C299.347 113.926 299.732 113.831 300.147 113.831C300.475 113.831 300.773 113.879 301.041 113.974C301.318 114.06 301.56 114.198 301.768 114.389C301.975 114.57 302.144 114.799 302.273 115.076C302.498 114.678 302.805 114.371 303.194 114.155C303.583 113.939 303.998 113.831 304.439 113.831C304.949 113.831 305.39 113.93 305.762 114.129C306.133 114.328 306.419 114.635 306.617 115.05C306.816 115.456 306.916 115.966 306.916 116.58V120.574H305.839V116.697C305.839 116.057 305.705 115.577 305.437 115.258C305.169 114.929 304.793 114.765 304.309 114.765C303.981 114.765 303.682 114.851 303.414 115.024C303.155 115.197 302.948 115.452 302.792 115.789C302.636 116.118 302.559 116.524 302.559 117.008V120.574H301.469V116.697C301.469 116.057 301.335 115.577 301.067 115.258C300.799 114.929 300.428 114.765 299.952 114.765C299.624 114.765 299.325 114.851 299.057 115.024C298.798 115.197 298.591 115.452 298.435 115.789C298.279 116.118 298.202 116.524 298.202 117.008V120.574H297.112ZM311.567 120.73C310.953 120.73 310.404 120.587 309.92 120.302C309.436 120.017 309.055 119.615 308.779 119.096C308.502 118.577 308.364 117.972 308.364 117.28C308.364 116.58 308.502 115.971 308.779 115.452C309.064 114.933 309.449 114.536 309.933 114.259C310.426 113.974 310.979 113.831 311.593 113.831C312.207 113.831 312.756 113.974 313.24 114.259C313.724 114.536 314.104 114.933 314.381 115.452C314.657 115.971 314.796 116.58 314.796 117.28C314.796 117.981 314.653 118.59 314.368 119.109C314.091 119.619 313.707 120.017 313.214 120.302C312.73 120.587 312.181 120.73 311.567 120.73ZM311.567 119.796C311.947 119.796 312.297 119.705 312.617 119.524C312.937 119.334 313.192 119.053 313.382 118.681C313.581 118.301 313.681 117.834 313.681 117.28C313.681 116.719 313.585 116.252 313.395 115.88C313.205 115.508 312.95 115.232 312.63 115.05C312.31 114.86 311.965 114.765 311.593 114.765C311.221 114.765 310.871 114.86 310.542 115.05C310.223 115.232 309.963 115.508 309.764 115.88C309.574 116.252 309.479 116.719 309.479 117.28C309.479 117.834 309.574 118.301 309.764 118.681C309.963 119.053 310.218 119.334 310.529 119.524C310.849 119.705 311.195 119.796 311.567 119.796ZM317.913 120.574L315.41 113.987H316.551L318.548 119.524L320.545 113.987H321.66L319.171 120.574H317.913ZM325.419 120.73C324.806 120.73 324.261 120.587 323.785 120.302C323.319 120.017 322.951 119.615 322.683 119.096C322.415 118.577 322.281 117.972 322.281 117.28C322.281 116.58 322.411 115.975 322.67 115.465C322.938 114.946 323.31 114.544 323.785 114.259C324.27 113.974 324.823 113.831 325.445 113.831C326.085 113.831 326.625 113.974 327.066 114.259C327.516 114.544 327.857 114.925 328.091 115.4C328.333 115.867 328.454 116.377 328.454 116.93C328.454 117.017 328.454 117.108 328.454 117.203C328.454 117.298 328.449 117.406 328.441 117.527H323.098V116.684H327.377C327.352 116.07 327.153 115.595 326.781 115.258C326.418 114.92 325.964 114.752 325.419 114.752C325.048 114.752 324.702 114.838 324.382 115.011C324.071 115.175 323.82 115.422 323.63 115.75C323.44 116.079 323.345 116.489 323.345 116.982V117.345C323.345 117.89 323.44 118.348 323.63 118.72C323.829 119.083 324.084 119.355 324.395 119.537C324.715 119.718 325.056 119.809 325.419 119.809C325.878 119.809 326.254 119.71 326.548 119.511C326.842 119.312 327.058 119.035 327.196 118.681H328.272C328.16 119.079 327.974 119.433 327.715 119.744C327.455 120.047 327.131 120.289 326.742 120.47C326.362 120.643 325.921 120.73 325.419 120.73ZM333.446 120.574V111.497H336.376C337.085 111.497 337.665 111.618 338.114 111.86C338.564 112.093 338.897 112.409 339.113 112.807C339.329 113.204 339.437 113.654 339.437 114.155C339.437 114.639 339.324 115.085 339.1 115.491C338.884 115.897 338.546 116.221 338.088 116.463C337.63 116.706 337.042 116.827 336.325 116.827H334.535V120.574H333.446ZM338.244 120.574L336.247 116.515H337.466L339.528 120.574H338.244ZM334.535 115.971H336.299C336.99 115.971 337.496 115.802 337.816 115.465C338.144 115.128 338.309 114.696 338.309 114.168C338.309 113.632 338.149 113.209 337.829 112.897C337.518 112.578 337.003 112.418 336.286 112.418H334.535V115.971ZM341.197 120.574V113.987H342.286V120.574H341.197ZM341.742 112.612C341.525 112.612 341.344 112.543 341.197 112.405C341.059 112.258 340.989 112.076 340.989 111.86C340.989 111.644 341.059 111.471 341.197 111.341C341.344 111.203 341.525 111.134 341.742 111.134C341.949 111.134 342.126 111.203 342.273 111.341C342.42 111.471 342.494 111.644 342.494 111.86C342.494 112.076 342.42 112.258 342.273 112.405C342.126 112.543 341.949 112.612 341.742 112.612ZM346.802 123.583C346.214 123.583 345.691 123.505 345.233 123.349C344.783 123.202 344.429 122.973 344.17 122.662C343.919 122.351 343.793 121.966 343.793 121.508C343.793 121.309 343.832 121.097 343.91 120.872C343.997 120.648 344.139 120.427 344.338 120.211C344.546 119.995 344.835 119.8 345.207 119.628L345.972 120.068C345.514 120.259 345.211 120.475 345.064 120.717C344.926 120.959 344.857 121.188 344.857 121.404C344.857 121.689 344.939 121.927 345.103 122.117C345.276 122.308 345.51 122.45 345.803 122.545C346.097 122.64 346.43 122.688 346.802 122.688C347.182 122.688 347.507 122.636 347.775 122.532C348.043 122.429 348.25 122.282 348.397 122.091C348.553 121.901 348.63 121.681 348.63 121.43C348.63 121.119 348.514 120.86 348.28 120.652C348.055 120.453 347.628 120.336 346.996 120.302C346.478 120.267 346.045 120.22 345.7 120.159C345.354 120.099 345.064 120.03 344.831 119.952C344.606 119.865 344.416 119.77 344.26 119.666C344.113 119.563 343.979 119.455 343.858 119.342V119.044L345.129 117.786L346.089 118.123L344.766 119.303L344.935 118.837C345.03 118.906 345.12 118.971 345.207 119.031C345.293 119.083 345.41 119.135 345.557 119.187C345.713 119.23 345.92 119.273 346.179 119.316C346.447 119.351 346.802 119.386 347.243 119.42C347.839 119.463 348.315 119.567 348.669 119.731C349.032 119.896 349.296 120.116 349.46 120.393C349.625 120.669 349.707 121.002 349.707 121.391C349.707 121.754 349.603 122.1 349.395 122.429C349.197 122.766 348.881 123.042 348.449 123.259C348.025 123.475 347.476 123.583 346.802 123.583ZM346.789 118.512C346.244 118.512 345.782 118.409 345.401 118.201C345.021 117.994 344.731 117.713 344.533 117.358C344.334 117.004 344.234 116.606 344.234 116.165C344.234 115.733 344.334 115.344 344.533 114.998C344.731 114.644 345.021 114.363 345.401 114.155C345.782 113.939 346.244 113.831 346.789 113.831C347.342 113.831 347.809 113.939 348.189 114.155C348.57 114.363 348.859 114.644 349.058 114.998C349.257 115.344 349.357 115.733 349.357 116.165C349.357 116.606 349.257 117.004 349.058 117.358C348.859 117.713 348.57 117.994 348.189 118.201C347.809 118.409 347.342 118.512 346.789 118.512ZM346.789 117.618C347.264 117.618 347.636 117.497 347.904 117.255C348.172 117.004 348.306 116.641 348.306 116.165C348.306 115.698 348.172 115.344 347.904 115.102C347.636 114.86 347.264 114.739 346.789 114.739C346.331 114.739 345.959 114.86 345.674 115.102C345.397 115.344 345.259 115.698 345.259 116.165C345.259 116.641 345.397 117.004 345.674 117.255C345.959 117.497 346.331 117.618 346.789 117.618ZM347.878 114.907L347.554 113.987H350.225V114.804L347.878 114.907ZM351.477 120.574V111.238H352.567V115.089C352.783 114.691 353.085 114.384 353.474 114.168C353.872 113.943 354.304 113.831 354.771 113.831C355.273 113.831 355.709 113.93 356.081 114.129C356.453 114.328 356.738 114.635 356.937 115.05C357.136 115.456 357.235 115.975 357.235 116.606V120.574H356.159V116.723C356.159 116.074 356.016 115.586 355.731 115.258C355.454 114.929 355.056 114.765 354.538 114.765C354.166 114.765 353.829 114.856 353.526 115.037C353.232 115.21 352.999 115.465 352.826 115.802C352.653 116.131 352.567 116.541 352.567 117.034V120.574H351.477ZM361.529 120.574C361.14 120.574 360.803 120.514 360.518 120.393C360.233 120.272 360.012 120.068 359.857 119.783C359.71 119.489 359.636 119.096 359.636 118.603V114.907H358.495V113.987H359.636L359.779 112.379H360.725V113.987H362.632V114.907H360.725V118.603C360.725 119.009 360.808 119.286 360.972 119.433C361.136 119.571 361.426 119.641 361.841 119.641H362.567V120.574H361.529ZM366.529 120.73C365.976 120.73 365.496 120.639 365.089 120.458C364.683 120.276 364.363 120.021 364.13 119.692C363.905 119.364 363.767 118.979 363.715 118.538H364.83C364.873 118.772 364.96 118.984 365.089 119.174C365.228 119.364 365.418 119.52 365.66 119.641C365.902 119.753 366.196 119.809 366.542 119.809C366.844 119.809 367.095 119.766 367.294 119.679C367.493 119.584 367.64 119.459 367.735 119.303C367.839 119.148 367.89 118.975 367.89 118.785C367.89 118.517 367.826 118.309 367.696 118.162C367.575 118.015 367.393 117.903 367.151 117.825C366.918 117.747 366.628 117.678 366.283 117.618C365.971 117.566 365.677 117.497 365.401 117.41C365.124 117.315 364.878 117.198 364.662 117.06C364.454 116.913 364.286 116.731 364.156 116.515C364.035 116.299 363.974 116.04 363.974 115.737C363.974 115.366 364.069 115.037 364.26 114.752C364.458 114.458 364.735 114.233 365.089 114.077C365.453 113.913 365.876 113.831 366.36 113.831C367.061 113.831 367.627 114 368.059 114.337C368.5 114.674 368.755 115.158 368.824 115.789H367.748C367.713 115.461 367.571 115.206 367.32 115.024C367.078 114.843 366.754 114.752 366.347 114.752C365.932 114.752 365.617 114.834 365.401 114.998C365.185 115.162 365.077 115.379 365.077 115.647C365.077 115.819 365.133 115.979 365.245 116.126C365.357 116.265 365.53 116.381 365.764 116.476C366.006 116.572 366.3 116.649 366.646 116.71C367.095 116.788 367.497 116.891 367.852 117.021C368.206 117.151 368.487 117.345 368.694 117.605C368.911 117.855 369.014 118.218 369.006 118.694C369.014 119.109 368.915 119.468 368.707 119.77C368.5 120.073 368.21 120.311 367.839 120.483C367.467 120.648 367.03 120.73 366.529 120.73Z" fill="#EEEFF1"/>
</g>
</g>
<defs>
<filter id="filter0_d_2654_37820" x="0.589944" y="0.294972" width="802.877" height="150.054" filterUnits="userSpaceOnUse" color-interpolation-filters="sRGB">
<feFlood flood-opacity="0" result="BackgroundImageFix"/>
<feColorMatrix in="SourceAlpha" type="matrix" values="0 0 0 0 0 0 0 0 0 0 0 0 0 0 0 0 0 0 127 0" result="hardAlpha"/>
<feOffset dy="3.70503"/>
<feGaussianBlur stdDeviation="3.70503"/>
<feComposite in2="hardAlpha" operator="out"/>
<feColorMatrix type="matrix" values="0 0 0 0 0 0 0 0 0 0 0 0 0 0 0 0 0 0 0.2 0"/>
<feBlend mode="normal" in2="BackgroundImageFix" result="effect1_dropShadow_2654_37820"/>
<feBlend mode="normal" in="SourceGraphic" in2="effect1_dropShadow_2654_37820" result="shape"/>
</filter>
<filter id="filter1_d_2654_37820" x="243.464" y="10.4825" width="142.722" height="40.7557" filterUnits="userSpaceOnUse" color-interpolation-filters="sRGB">
<feFlood flood-opacity="0" result="BackgroundImageFix"/>
<feColorMatrix in="SourceAlpha" type="matrix" values="0 0 0 0 0 0 0 0 0 0 0 0 0 0 0 0 0 0 127 0" result="hardAlpha"/>
<feOffset dy="3.70503"/>
<feGaussianBlur stdDeviation="3.70503"/>
<feComposite in2="hardAlpha" operator="out"/>
<feColorMatrix type="matrix" values="0 0 0 0 0 0 0 0 0 0 0 0 0 0 0 0 0 0 0.2 0"/>
<feBlend mode="normal" in2="BackgroundImageFix" result="effect1_dropShadow_2654_37820"/>
<feBlend mode="normal" in="SourceGraphic" in2="effect1_dropShadow_2654_37820" result="shape"/>
</filter>
<filter id="filter2_d_2654_37820" x="244.464" y="54.9434" width="142.722" height="40.7557" filterUnits="userSpaceOnUse" color-interpolation-filters="sRGB">
<feFlood flood-opacity="0" result="BackgroundImageFix"/>
<feColorMatrix in="SourceAlpha" type="matrix" values="0 0 0 0 0 0 0 0 0 0 0 0 0 0 0 0 0 0 127 0" result="hardAlpha"/>
<feOffset dy="3.70503"/>
<feGaussianBlur stdDeviation="3.70503"/>
<feComposite in2="hardAlpha" operator="out"/>
<feColorMatrix type="matrix" values="0 0 0 0 0 0 0 0 0 0 0 0 0 0 0 0 0 0 0.2 0"/>
<feBlend mode="normal" in2="BackgroundImageFix" result="effect1_dropShadow_2654_37820"/>
<feBlend mode="normal" in="SourceGraphic" in2="effect1_dropShadow_2654_37820" result="shape"/>
</filter>
<filter id="filter3_d_2654_37820" x="244.464" y="99.4024" width="142.722" height="40.7557" filterUnits="userSpaceOnUse" color-interpolation-filters="sRGB">
<feFlood flood-opacity="0" result="BackgroundImageFix"/>
<feColorMatrix in="SourceAlpha" type="matrix" values="0 0 0 0 0 0 0 0 0 0 0 0 0 0 0 0 0 0 127 0" result="hardAlpha"/>
<feOffset dy="3.70503"/>
<feGaussianBlur stdDeviation="3.70503"/>
<feComposite in2="hardAlpha" operator="out"/>
<feColorMatrix type="matrix" values="0 0 0 0 0 0 0 0 0 0 0 0 0 0 0 0 0 0 0.2 0"/>
<feBlend mode="normal" in2="BackgroundImageFix" result="effect1_dropShadow_2654_37820"/>
<feBlend mode="normal" in="SourceGraphic" in2="effect1_dropShadow_2654_37820" result="shape"/>
</filter>
</defs>
</svg>
