<svg width="458" height="476" viewBox="0 0 458 476" fill="none" xmlns="http://www.w3.org/2000/svg">
<g filter="url(#filter0_f_2483_87624)">
<ellipse cx="199.5" cy="270" rx="149.5" ry="70" fill="url(#paint0_linear_2483_87624)"/>
</g>
<g filter="url(#filter1_d_2483_87624)">
<rect x="50.4631" y="200.463" width="787.131" height="134.307" rx="8.79944" stroke="#575B62" stroke-width="0.926257" shape-rendering="crispEdges"/>
<rect x="59.7258" y="206.02" width="767.606" height="34.2715" rx="8.79944" fill="#EEEFF1"/>
<rect x="59.7258" y="206.02" width="767.606" height="34.2715" rx="8.79944" fill="#282A2F"/>
<rect x="59.7258" y="206.02" width="767.606" height="34.2715" rx="8.79944" stroke="#575B62" stroke-width="0.926257"/>
<path d="M69.498 227.656V218.579H70.7688L73.9588 224.933L77.1359 218.579H78.4197V227.656H77.3304V220.524L74.3738 226.398H73.5568L70.5872 220.563V227.656H69.498ZM83.1644 227.812C82.5506 227.812 82.006 227.669 81.5305 227.384C81.0636 227.099 80.6962 226.697 80.4282 226.178C80.1602 225.659 80.0262 225.054 80.0262 224.362C80.0262 223.662 80.1559 223.057 80.4153 222.547C80.6833 222.028 81.055 221.626 81.5305 221.341C82.0146 221.056 82.5679 220.913 83.1903 220.913C83.8301 220.913 84.3704 221.056 84.8113 221.341C85.2608 221.626 85.6023 222.007 85.8357 222.482C86.0778 222.949 86.1988 223.459 86.1988 224.012C86.1988 224.099 86.1988 224.19 86.1988 224.285C86.1988 224.38 86.1945 224.488 86.1858 224.609H80.8432V223.766H85.1225C85.0966 223.152 84.8977 222.677 84.526 222.34C84.1629 222.002 83.709 221.834 83.1644 221.834C82.7927 221.834 82.4468 221.92 82.127 222.093C81.8158 222.257 81.5651 222.504 81.3749 222.832C81.1847 223.161 81.0896 223.571 81.0896 224.064V224.427C81.0896 224.972 81.1847 225.43 81.3749 225.802C81.5737 226.165 81.8287 226.437 82.1399 226.619C82.4598 226.8 82.8013 226.891 83.1644 226.891C83.6226 226.891 83.9986 226.792 84.2926 226.593C84.5865 226.394 84.8026 226.117 84.941 225.763H86.0173C85.9049 226.161 85.719 226.515 85.4597 226.826C85.2003 227.129 84.8761 227.371 84.4871 227.553C84.1067 227.725 83.6658 227.812 83.1644 227.812ZM87.6688 227.656V221.069H88.6543L88.7192 222.002C88.9267 221.657 89.2033 221.389 89.5491 221.198C89.9036 221.008 90.2883 220.913 90.7032 220.913C91.0317 220.913 91.33 220.961 91.598 221.056C91.8746 221.142 92.1167 221.281 92.3242 221.471C92.5317 221.652 92.7002 221.881 92.8299 222.158C93.0547 221.76 93.3616 221.453 93.7506 221.237C94.1396 221.021 94.5546 220.913 94.9955 220.913C95.5056 220.913 95.9465 221.013 96.3182 221.211C96.6899 221.41 96.9752 221.717 97.1741 222.132C97.3729 222.538 97.4723 223.048 97.4723 223.662V227.656H96.396V223.779C96.396 223.139 96.262 222.659 95.994 222.34C95.726 222.011 95.3499 221.847 94.8658 221.847C94.5373 221.847 94.2391 221.933 93.9711 222.106C93.7117 222.279 93.5042 222.534 93.3486 222.871C93.193 223.2 93.1152 223.606 93.1152 224.09V227.656H92.0259V223.779C92.0259 223.139 91.8919 222.659 91.6239 222.34C91.3559 222.011 90.9842 221.847 90.5087 221.847C90.1802 221.847 89.8819 221.933 89.6139 222.106C89.3546 222.279 89.1471 222.534 88.9915 222.871C88.8359 223.2 88.7581 223.606 88.7581 224.09V227.656H87.6688ZM102.616 227.812C102.236 227.812 101.894 227.76 101.592 227.656C101.298 227.544 101.038 227.397 100.814 227.215C100.598 227.025 100.416 226.813 100.269 226.58L100.178 227.656H99.1927V218.32H100.282V222.132C100.49 221.786 100.788 221.497 101.177 221.263C101.574 221.03 102.05 220.913 102.603 220.913C103.243 220.913 103.796 221.064 104.263 221.367C104.739 221.661 105.106 222.067 105.365 222.586C105.625 223.105 105.754 223.697 105.754 224.362C105.754 225.02 105.625 225.612 105.365 226.139C105.106 226.658 104.739 227.068 104.263 227.371C103.788 227.665 103.239 227.812 102.616 227.812ZM102.487 226.865C102.91 226.865 103.282 226.761 103.602 226.554C103.93 226.347 104.185 226.057 104.367 225.685C104.557 225.305 104.652 224.864 104.652 224.362C104.652 223.852 104.557 223.412 104.367 223.04C104.185 222.668 103.93 222.378 103.602 222.171C103.282 221.963 102.91 221.86 102.487 221.86C102.054 221.86 101.674 221.963 101.345 222.171C101.017 222.378 100.762 222.668 100.58 223.04C100.399 223.412 100.308 223.852 100.308 224.362C100.308 224.864 100.399 225.305 100.58 225.685C100.762 226.057 101.017 226.347 101.345 226.554C101.674 226.761 102.054 226.865 102.487 226.865ZM110.176 227.812C109.562 227.812 109.018 227.669 108.542 227.384C108.075 227.099 107.708 226.697 107.44 226.178C107.172 225.659 107.038 225.054 107.038 224.362C107.038 223.662 107.168 223.057 107.427 222.547C107.695 222.028 108.067 221.626 108.542 221.341C109.026 221.056 109.579 220.913 110.202 220.913C110.842 220.913 111.382 221.056 111.823 221.341C112.272 221.626 112.614 222.007 112.847 222.482C113.089 222.949 113.21 223.459 113.21 224.012C113.21 224.099 113.21 224.19 113.21 224.285C113.21 224.38 113.206 224.488 113.197 224.609H107.855V223.766H112.134C112.108 223.152 111.909 222.677 111.538 222.34C111.174 222.002 110.721 221.834 110.176 221.834C109.804 221.834 109.458 221.92 109.139 222.093C108.827 222.257 108.577 222.504 108.386 222.832C108.196 223.161 108.101 223.571 108.101 224.064V224.427C108.101 224.972 108.196 225.43 108.386 225.802C108.585 226.165 108.84 226.437 109.152 226.619C109.471 226.8 109.813 226.891 110.176 226.891C110.634 226.891 111.01 226.792 111.304 226.593C111.598 226.394 111.814 226.117 111.953 225.763H113.029C112.916 226.161 112.731 226.515 112.471 226.826C112.212 227.129 111.888 227.371 111.499 227.553C111.118 227.725 110.677 227.812 110.176 227.812ZM114.68 227.656V221.069H115.666L115.744 222.314C115.891 222.011 116.081 221.756 116.314 221.549C116.556 221.341 116.842 221.185 117.17 221.082C117.499 220.969 117.875 220.913 118.298 220.913V222.054H117.845C117.568 222.054 117.304 222.089 117.053 222.158C116.803 222.227 116.578 222.344 116.379 222.508C116.189 222.672 116.038 222.893 115.925 223.169C115.822 223.446 115.77 223.792 115.77 224.207V227.656H114.68Z" fill="#9FA1A6"/>
<path d="M176.959 227.656L174.469 218.579H175.636L177.594 226.359L179.811 218.579H181.03L183.196 226.385L185.18 218.579H186.347L183.805 227.656H182.561L180.395 220.148L178.178 227.656H176.959ZM189.848 227.812C189.234 227.812 188.685 227.669 188.201 227.384C187.717 227.099 187.337 226.697 187.06 226.178C186.784 225.659 186.645 225.054 186.645 224.362C186.645 223.662 186.784 223.053 187.06 222.534C187.345 222.015 187.73 221.618 188.214 221.341C188.707 221.056 189.26 220.913 189.874 220.913C190.488 220.913 191.037 221.056 191.521 221.341C192.005 221.618 192.386 222.015 192.662 222.534C192.939 223.053 193.077 223.662 193.077 224.362C193.077 225.063 192.935 225.672 192.649 226.191C192.373 226.701 191.988 227.099 191.495 227.384C191.011 227.669 190.462 227.812 189.848 227.812ZM189.848 226.878C190.229 226.878 190.579 226.787 190.899 226.606C191.218 226.416 191.474 226.135 191.664 225.763C191.863 225.383 191.962 224.916 191.962 224.362C191.962 223.801 191.867 223.334 191.677 222.962C191.486 222.59 191.231 222.314 190.912 222.132C190.592 221.942 190.246 221.847 189.874 221.847C189.502 221.847 189.152 221.942 188.824 222.132C188.504 222.314 188.245 222.59 188.046 222.962C187.856 223.334 187.76 223.801 187.76 224.362C187.76 224.916 187.856 225.383 188.046 225.763C188.245 226.135 188.5 226.416 188.811 226.606C189.131 226.787 189.477 226.878 189.848 226.878ZM194.617 227.656V221.069H195.603L195.68 222.314C195.827 222.011 196.018 221.756 196.251 221.549C196.493 221.341 196.778 221.185 197.107 221.082C197.435 220.969 197.811 220.913 198.235 220.913V222.054H197.781C197.505 222.054 197.241 222.089 196.99 222.158C196.739 222.227 196.515 222.344 196.316 222.508C196.126 222.672 195.974 222.893 195.862 223.169C195.758 223.446 195.706 223.792 195.706 224.207V227.656H194.617ZM203.487 227.656L200.375 224.064L203.228 221.069H204.564L201.296 224.453L201.309 223.675L204.875 227.656H203.487ZM199.467 227.656V218.32H200.557V227.656H199.467ZM208.086 227.812C207.532 227.812 207.053 227.721 206.646 227.54C206.24 227.358 205.92 227.103 205.687 226.774C205.462 226.446 205.324 226.061 205.272 225.62H206.387C206.43 225.854 206.517 226.066 206.646 226.256C206.785 226.446 206.975 226.602 207.217 226.723C207.459 226.835 207.753 226.891 208.099 226.891C208.401 226.891 208.652 226.848 208.851 226.761C209.05 226.666 209.197 226.541 209.292 226.385C209.395 226.23 209.447 226.057 209.447 225.867C209.447 225.599 209.382 225.391 209.253 225.244C209.132 225.097 208.95 224.985 208.708 224.907C208.475 224.829 208.185 224.76 207.839 224.7C207.528 224.648 207.234 224.579 206.957 224.492C206.681 224.397 206.434 224.28 206.218 224.142C206.011 223.995 205.842 223.814 205.713 223.597C205.592 223.381 205.531 223.122 205.531 222.819C205.531 222.448 205.626 222.119 205.816 221.834C206.015 221.54 206.292 221.315 206.646 221.159C207.009 220.995 207.433 220.913 207.917 220.913C208.617 220.913 209.184 221.082 209.616 221.419C210.057 221.756 210.312 222.24 210.381 222.871H209.305C209.27 222.543 209.127 222.288 208.877 222.106C208.635 221.925 208.31 221.834 207.904 221.834C207.489 221.834 207.174 221.916 206.957 222.08C206.741 222.244 206.633 222.461 206.633 222.729C206.633 222.901 206.689 223.061 206.802 223.208C206.914 223.347 207.087 223.463 207.321 223.558C207.563 223.654 207.857 223.731 208.202 223.792C208.652 223.87 209.054 223.973 209.408 224.103C209.763 224.233 210.044 224.427 210.251 224.687C210.467 224.937 210.571 225.3 210.562 225.776C210.571 226.191 210.472 226.55 210.264 226.852C210.057 227.155 209.767 227.393 209.395 227.565C209.024 227.73 208.587 227.812 208.086 227.812ZM212.156 230.509V221.069H213.142L213.233 222.132C213.371 221.916 213.548 221.717 213.764 221.536C213.98 221.345 214.24 221.194 214.542 221.082C214.845 220.969 215.191 220.913 215.58 220.913C216.211 220.913 216.76 221.064 217.227 221.367C217.702 221.67 218.069 222.08 218.329 222.599C218.588 223.118 218.718 223.71 218.718 224.375C218.718 225.041 218.588 225.633 218.329 226.152C218.069 226.662 217.702 227.068 217.227 227.371C216.751 227.665 216.198 227.812 215.567 227.812C215.039 227.812 214.573 227.704 214.166 227.488C213.769 227.272 213.462 226.969 213.246 226.58V230.509H212.156ZM215.45 226.865C215.865 226.865 216.237 226.761 216.565 226.554C216.894 226.347 217.149 226.057 217.33 225.685C217.521 225.305 217.616 224.864 217.616 224.362C217.616 223.852 217.521 223.412 217.33 223.04C217.149 222.668 216.894 222.378 216.565 222.171C216.237 221.963 215.865 221.86 215.45 221.86C215.018 221.86 214.637 221.963 214.309 222.171C213.98 222.378 213.725 222.668 213.544 223.04C213.362 223.412 213.271 223.852 213.271 224.362C213.271 224.864 213.362 225.305 213.544 225.685C213.725 226.057 213.98 226.347 214.309 226.554C214.637 226.761 215.018 226.865 215.45 226.865ZM222.4 227.812C221.873 227.812 221.432 227.721 221.078 227.54C220.732 227.349 220.473 227.099 220.3 226.787C220.127 226.476 220.04 226.139 220.04 225.776C220.04 225.335 220.153 224.959 220.377 224.648C220.611 224.337 220.935 224.103 221.35 223.948C221.774 223.783 222.266 223.701 222.828 223.701H224.553C224.553 223.286 224.492 222.94 224.371 222.664C224.25 222.387 224.069 222.18 223.827 222.041C223.593 221.903 223.295 221.834 222.932 221.834C222.526 221.834 222.171 221.938 221.869 222.145C221.575 222.344 221.393 222.642 221.324 223.04H220.209C220.261 222.582 220.416 222.197 220.676 221.886C220.944 221.566 221.276 221.324 221.674 221.159C222.072 220.995 222.491 220.913 222.932 220.913C223.537 220.913 224.039 221.025 224.436 221.25C224.843 221.466 225.145 221.773 225.344 222.171C225.543 222.56 225.642 223.018 225.642 223.546V227.656H224.67L224.605 226.502C224.518 226.684 224.406 226.857 224.268 227.021C224.138 227.176 223.982 227.315 223.801 227.436C223.619 227.548 223.412 227.639 223.178 227.708C222.954 227.777 222.694 227.812 222.4 227.812ZM222.569 226.891C222.872 226.891 223.144 226.831 223.386 226.71C223.628 226.58 223.835 226.407 224.008 226.191C224.19 225.966 224.324 225.72 224.41 225.452C224.505 225.175 224.553 224.894 224.553 224.609V224.544H222.919C222.504 224.544 222.167 224.596 221.908 224.7C221.648 224.795 221.462 224.933 221.35 225.115C221.238 225.296 221.181 225.499 221.181 225.724C221.181 225.957 221.233 226.165 221.337 226.347C221.449 226.519 221.609 226.653 221.817 226.749C222.024 226.844 222.275 226.891 222.569 226.891ZM230.296 227.812C229.683 227.812 229.129 227.669 228.636 227.384C228.152 227.09 227.772 226.684 227.495 226.165C227.219 225.646 227.08 225.045 227.08 224.362C227.08 223.671 227.219 223.07 227.495 222.56C227.772 222.041 228.152 221.639 228.636 221.354C229.129 221.06 229.687 220.913 230.309 220.913C231.079 220.913 231.723 221.116 232.241 221.523C232.76 221.92 233.093 222.461 233.24 223.144H232.125C232.03 222.729 231.814 222.409 231.476 222.184C231.139 221.959 230.742 221.847 230.283 221.847C229.912 221.847 229.566 221.942 229.246 222.132C228.926 222.314 228.671 222.595 228.481 222.975C228.291 223.347 228.196 223.809 228.196 224.362C228.196 224.777 228.252 225.145 228.364 225.465C228.477 225.776 228.628 226.04 228.818 226.256C229.008 226.463 229.229 226.623 229.479 226.736C229.739 226.839 230.007 226.891 230.283 226.891C230.595 226.891 230.876 226.839 231.126 226.736C231.377 226.632 231.589 226.485 231.762 226.295C231.943 226.096 232.064 225.858 232.125 225.581H233.24C233.102 226.247 232.769 226.787 232.241 227.202C231.714 227.609 231.066 227.812 230.296 227.812ZM237.652 227.812C237.038 227.812 236.494 227.669 236.018 227.384C235.551 227.099 235.184 226.697 234.916 226.178C234.648 225.659 234.514 225.054 234.514 224.362C234.514 223.662 234.644 223.057 234.903 222.547C235.171 222.028 235.543 221.626 236.018 221.341C236.502 221.056 237.056 220.913 237.678 220.913C238.318 220.913 238.858 221.056 239.299 221.341C239.749 221.626 240.09 222.007 240.323 222.482C240.565 222.949 240.686 223.459 240.686 224.012C240.686 224.099 240.686 224.19 240.686 224.285C240.686 224.38 240.682 224.488 240.674 224.609H235.331V223.766H239.61C239.584 223.152 239.385 222.677 239.014 222.34C238.651 222.002 238.197 221.834 237.652 221.834C237.28 221.834 236.935 221.92 236.615 222.093C236.303 222.257 236.053 222.504 235.863 222.832C235.672 223.161 235.577 223.571 235.577 224.064V224.427C235.577 224.972 235.672 225.43 235.863 225.802C236.061 226.165 236.316 226.437 236.628 226.619C236.948 226.8 237.289 226.891 237.652 226.891C238.11 226.891 238.486 226.792 238.78 226.593C239.074 226.394 239.29 226.117 239.429 225.763H240.505C240.393 226.161 240.207 226.515 239.947 226.826C239.688 227.129 239.364 227.371 238.975 227.553C238.594 227.725 238.153 227.812 237.652 227.812ZM247.74 227.812C247.213 227.812 246.772 227.721 246.418 227.54C246.072 227.349 245.813 227.099 245.64 226.787C245.467 226.476 245.38 226.139 245.38 225.776C245.38 225.335 245.493 224.959 245.717 224.648C245.951 224.337 246.275 224.103 246.69 223.948C247.114 223.783 247.606 223.701 248.168 223.701H249.893C249.893 223.286 249.832 222.94 249.711 222.664C249.59 222.387 249.409 222.18 249.167 222.041C248.933 221.903 248.635 221.834 248.272 221.834C247.866 221.834 247.511 221.938 247.209 222.145C246.915 222.344 246.733 222.642 246.664 223.04H245.549C245.601 222.582 245.756 222.197 246.016 221.886C246.284 221.566 246.616 221.324 247.014 221.159C247.412 220.995 247.831 220.913 248.272 220.913C248.877 220.913 249.379 221.025 249.776 221.25C250.183 221.466 250.485 221.773 250.684 222.171C250.883 222.56 250.982 223.018 250.982 223.546V227.656H250.01L249.945 226.502C249.858 226.684 249.746 226.857 249.608 227.021C249.478 227.176 249.322 227.315 249.141 227.436C248.959 227.548 248.752 227.639 248.518 227.708C248.294 227.777 248.034 227.812 247.74 227.812ZM247.909 226.891C248.212 226.891 248.484 226.831 248.726 226.71C248.968 226.58 249.175 226.407 249.348 226.191C249.53 225.966 249.664 225.72 249.75 225.452C249.845 225.175 249.893 224.894 249.893 224.609V224.544H248.259C247.844 224.544 247.507 224.596 247.248 224.7C246.988 224.795 246.802 224.933 246.69 225.115C246.578 225.296 246.521 225.499 246.521 225.724C246.521 225.957 246.573 226.165 246.677 226.347C246.789 226.519 246.949 226.653 247.157 226.749C247.364 226.844 247.615 226.891 247.909 226.891Z" fill="#EEEFF1"/>
<rect x="293.337" y="210.651" width="126.977" height="25.0089" rx="8.79944" fill="#575B62"/>
<rect x="293.337" y="210.651" width="126.977" height="25.0089" rx="8.79944" stroke="#575B62" stroke-width="0.926257"/>
<path d="M305.494 217.945H313.599C313.599 217.945 314.757 217.945 314.757 219.103V227.208C314.757 227.208 314.757 228.366 313.599 228.366H305.494C305.494 228.366 304.336 228.366 304.336 227.208V219.103C304.336 219.103 304.336 217.945 305.494 217.945Z" stroke="#EEEFF1" stroke-width="0.926257" stroke-linecap="round" stroke-linejoin="round"/>
<path d="M311.284 221.418L307.81 224.891" stroke="#EEEFF1" stroke-width="0.926257" stroke-linecap="round" stroke-linejoin="round"/>
<path d="M307.81 221.418L311.284 224.891" stroke="#EEEFF1" stroke-width="0.926257" stroke-linecap="round" stroke-linejoin="round"/>
<path d="M323.487 227.654V218.577H326.417C327.126 218.577 327.706 218.698 328.155 218.94C328.605 219.173 328.937 219.489 329.154 219.887C329.37 220.284 329.478 220.734 329.478 221.235C329.478 221.719 329.365 222.165 329.141 222.571C328.924 222.977 328.587 223.302 328.129 223.544C327.671 223.786 327.083 223.907 326.366 223.907H324.576V227.654H323.487ZM328.285 227.654L326.288 223.595H327.507L329.569 227.654H328.285ZM324.576 223.051H326.34C327.031 223.051 327.537 222.882 327.857 222.545C328.185 222.208 328.35 221.776 328.35 221.248C328.35 220.712 328.19 220.289 327.87 219.977C327.559 219.658 327.044 219.498 326.327 219.498H324.576V223.051ZM333.607 227.81C332.994 227.81 332.449 227.667 331.973 227.382C331.507 227.097 331.139 226.695 330.871 226.176C330.603 225.657 330.469 225.052 330.469 224.361C330.469 223.66 330.599 223.055 330.858 222.545C331.126 222.026 331.498 221.624 331.973 221.339C332.458 221.054 333.011 220.911 333.633 220.911C334.273 220.911 334.813 221.054 335.254 221.339C335.704 221.624 336.045 222.005 336.279 222.48C336.521 222.947 336.642 223.457 336.642 224.01C336.642 224.097 336.642 224.188 336.642 224.283C336.642 224.378 336.637 224.486 336.629 224.607H331.286V223.764H335.565C335.54 223.15 335.341 222.675 334.969 222.338C334.606 222 334.152 221.832 333.607 221.832C333.236 221.832 332.89 221.918 332.57 222.091C332.259 222.255 332.008 222.502 331.818 222.83C331.628 223.159 331.533 223.57 331.533 224.062V224.425C331.533 224.97 331.628 225.428 331.818 225.8C332.017 226.163 332.272 226.435 332.583 226.617C332.903 226.798 333.244 226.889 333.607 226.889C334.066 226.889 334.442 226.79 334.736 226.591C335.029 226.392 335.246 226.115 335.384 225.761H336.46C336.348 226.159 336.162 226.513 335.903 226.824C335.643 227.127 335.319 227.369 334.93 227.551C334.55 227.723 334.109 227.81 333.607 227.81ZM338.112 227.654V221.067H339.097L339.162 222C339.37 221.655 339.646 221.387 339.992 221.196C340.346 221.006 340.731 220.911 341.146 220.911C341.475 220.911 341.773 220.959 342.041 221.054C342.318 221.14 342.56 221.279 342.767 221.469C342.975 221.65 343.143 221.879 343.273 222.156C343.498 221.758 343.805 221.451 344.194 221.235C344.583 221.019 344.998 220.911 345.438 220.911C345.948 220.911 346.389 221.011 346.761 221.209C347.133 221.408 347.418 221.715 347.617 222.13C347.816 222.536 347.915 223.046 347.915 223.66V227.654H346.839V223.777C346.839 223.137 346.705 222.657 346.437 222.338C346.169 222.009 345.793 221.845 345.309 221.845C344.98 221.845 344.682 221.931 344.414 222.104C344.155 222.277 343.947 222.532 343.792 222.869C343.636 223.198 343.558 223.604 343.558 224.088V227.654H342.469V223.777C342.469 223.137 342.335 222.657 342.067 222.338C341.799 222.009 341.427 221.845 340.952 221.845C340.623 221.845 340.325 221.931 340.057 222.104C339.798 222.277 339.59 222.532 339.434 222.869C339.279 223.198 339.201 223.604 339.201 224.088V227.654H338.112ZM352.566 227.81C351.953 227.81 351.404 227.667 350.919 227.382C350.435 227.097 350.055 226.695 349.778 226.176C349.502 225.657 349.363 225.052 349.363 224.361C349.363 223.66 349.502 223.051 349.778 222.532C350.064 222.013 350.448 221.616 350.932 221.339C351.425 221.054 351.978 220.911 352.592 220.911C353.206 220.911 353.755 221.054 354.239 221.339C354.723 221.616 355.104 222.013 355.38 222.532C355.657 223.051 355.795 223.66 355.795 224.361C355.795 225.061 355.653 225.67 355.367 226.189C355.091 226.699 354.706 227.097 354.213 227.382C353.729 227.667 353.18 227.81 352.566 227.81ZM352.566 226.876C352.947 226.876 353.297 226.785 353.617 226.604C353.937 226.414 354.192 226.133 354.382 225.761C354.581 225.381 354.68 224.914 354.68 224.361C354.68 223.799 354.585 223.332 354.395 222.96C354.205 222.588 353.95 222.312 353.63 222.13C353.31 221.94 352.964 221.845 352.592 221.845C352.221 221.845 351.87 221.94 351.542 222.13C351.222 222.312 350.963 222.588 350.764 222.96C350.574 223.332 350.479 223.799 350.479 224.361C350.479 224.914 350.574 225.381 350.764 225.761C350.963 226.133 351.218 226.414 351.529 226.604C351.849 226.785 352.195 226.876 352.566 226.876ZM358.912 227.654L356.409 221.067H357.551L359.548 226.604L361.545 221.067H362.66L360.17 227.654H358.912ZM366.419 227.81C365.805 227.81 365.26 227.667 364.785 227.382C364.318 227.097 363.951 226.695 363.683 226.176C363.415 225.657 363.281 225.052 363.281 224.361C363.281 223.66 363.41 223.055 363.67 222.545C363.938 222.026 364.31 221.624 364.785 221.339C365.269 221.054 365.822 220.911 366.445 220.911C367.085 220.911 367.625 221.054 368.066 221.339C368.515 221.624 368.857 222.005 369.09 222.48C369.332 222.947 369.453 223.457 369.453 224.01C369.453 224.097 369.453 224.188 369.453 224.283C369.453 224.378 369.449 224.486 369.44 224.607H364.098V223.764H368.377C368.351 223.15 368.152 222.675 367.78 222.338C367.417 222 366.964 221.832 366.419 221.832C366.047 221.832 365.701 221.918 365.381 222.091C365.07 222.255 364.82 222.502 364.629 222.83C364.439 223.159 364.344 223.57 364.344 224.062V224.425C364.344 224.97 364.439 225.428 364.629 225.8C364.828 226.163 365.083 226.435 365.394 226.617C365.714 226.798 366.056 226.889 366.419 226.889C366.877 226.889 367.253 226.79 367.547 226.591C367.841 226.392 368.057 226.115 368.195 225.761H369.272C369.159 226.159 368.974 226.513 368.714 226.824C368.455 227.127 368.131 227.369 367.742 227.551C367.361 227.723 366.92 227.81 366.419 227.81ZM374.445 227.654V218.577H377.376C378.085 218.577 378.664 218.698 379.114 218.94C379.563 219.173 379.896 219.489 380.112 219.887C380.328 220.284 380.436 220.734 380.436 221.235C380.436 221.719 380.324 222.165 380.099 222.571C379.883 222.977 379.546 223.302 379.088 223.544C378.63 223.786 378.042 223.907 377.324 223.907H375.535V227.654H374.445ZM379.243 227.654L377.246 223.595H378.465L380.527 227.654H379.243ZM375.535 223.051H377.298C377.99 223.051 378.496 222.882 378.815 222.545C379.144 222.208 379.308 221.776 379.308 221.248C379.308 220.712 379.148 220.289 378.828 219.977C378.517 219.658 378.003 219.498 377.285 219.498H375.535V223.051ZM382.196 227.654V221.067H383.286V227.654H382.196ZM382.741 219.692C382.525 219.692 382.343 219.623 382.196 219.485C382.058 219.338 381.989 219.156 381.989 218.94C381.989 218.724 382.058 218.551 382.196 218.421C382.343 218.283 382.525 218.214 382.741 218.214C382.949 218.214 383.126 218.283 383.273 218.421C383.42 218.551 383.493 218.724 383.493 218.94C383.493 219.156 383.42 219.338 383.273 219.485C383.126 219.623 382.949 219.692 382.741 219.692ZM387.801 230.663C387.214 230.663 386.691 230.585 386.232 230.429C385.783 230.282 385.428 230.053 385.169 229.742C384.918 229.431 384.793 229.046 384.793 228.588C384.793 228.389 384.832 228.177 384.91 227.953C384.996 227.728 385.139 227.507 385.338 227.291C385.545 227.075 385.835 226.881 386.206 226.708L386.972 227.149C386.513 227.339 386.211 227.555 386.064 227.797C385.925 228.039 385.856 228.268 385.856 228.484C385.856 228.77 385.938 229.007 386.103 229.197C386.276 229.388 386.509 229.53 386.803 229.625C387.097 229.72 387.43 229.768 387.801 229.768C388.182 229.768 388.506 229.716 388.774 229.612C389.042 229.509 389.25 229.362 389.396 229.172C389.552 228.981 389.63 228.761 389.63 228.51C389.63 228.199 389.513 227.94 389.28 227.732C389.055 227.533 388.627 227.417 387.996 227.382C387.477 227.347 387.045 227.3 386.699 227.239C386.353 227.179 386.064 227.11 385.83 227.032C385.606 226.945 385.415 226.85 385.26 226.747C385.113 226.643 384.979 226.535 384.858 226.422V226.124L386.129 224.866L387.088 225.203L385.766 226.383L385.934 225.917C386.029 225.986 386.12 226.051 386.206 226.111C386.293 226.163 386.41 226.215 386.557 226.267C386.712 226.31 386.92 226.353 387.179 226.396C387.447 226.431 387.801 226.466 388.242 226.5C388.839 226.543 389.314 226.647 389.669 226.811C390.032 226.976 390.296 227.196 390.46 227.473C390.624 227.749 390.706 228.082 390.706 228.471C390.706 228.834 390.602 229.18 390.395 229.509C390.196 229.846 389.881 230.122 389.448 230.339C389.025 230.555 388.476 230.663 387.801 230.663ZM387.788 225.592C387.244 225.592 386.781 225.489 386.401 225.281C386.021 225.074 385.731 224.793 385.532 224.438C385.333 224.084 385.234 223.686 385.234 223.245C385.234 222.813 385.333 222.424 385.532 222.078C385.731 221.724 386.021 221.443 386.401 221.235C386.781 221.019 387.244 220.911 387.788 220.911C388.342 220.911 388.809 221.019 389.189 221.235C389.569 221.443 389.859 221.724 390.058 222.078C390.257 222.424 390.356 222.813 390.356 223.245C390.356 223.686 390.257 224.084 390.058 224.438C389.859 224.793 389.569 225.074 389.189 225.281C388.809 225.489 388.342 225.592 387.788 225.592ZM387.788 224.698C388.264 224.698 388.636 224.577 388.904 224.335C389.172 224.084 389.306 223.721 389.306 223.245C389.306 222.778 389.172 222.424 388.904 222.182C388.636 221.94 388.264 221.819 387.788 221.819C387.33 221.819 386.959 221.94 386.673 222.182C386.397 222.424 386.258 222.778 386.258 223.245C386.258 223.721 386.397 224.084 386.673 224.335C386.959 224.577 387.33 224.698 387.788 224.698ZM388.878 221.987L388.554 221.067H391.225V221.884L388.878 221.987ZM392.477 227.654V218.318H393.566V222.169C393.782 221.771 394.085 221.464 394.474 221.248C394.872 221.024 395.304 220.911 395.771 220.911C396.272 220.911 396.709 221.011 397.08 221.209C397.452 221.408 397.737 221.715 397.936 222.13C398.135 222.536 398.234 223.055 398.234 223.686V227.654H397.158V223.803C397.158 223.155 397.016 222.666 396.73 222.338C396.454 222.009 396.056 221.845 395.537 221.845C395.165 221.845 394.828 221.936 394.526 222.117C394.232 222.29 393.998 222.545 393.826 222.882C393.653 223.211 393.566 223.621 393.566 224.114V227.654H392.477ZM402.529 227.654C402.14 227.654 401.803 227.594 401.518 227.473C401.232 227.352 401.012 227.149 400.856 226.863C400.709 226.569 400.636 226.176 400.636 225.683V221.987H399.495V221.067H400.636L400.778 219.459H401.725V221.067H403.631V221.987H401.725V225.683C401.725 226.09 401.807 226.366 401.971 226.513C402.136 226.651 402.425 226.721 402.84 226.721H403.566V227.654H402.529ZM407.528 227.81C406.975 227.81 406.495 227.719 406.089 227.538C405.683 227.356 405.363 227.101 405.129 226.773C404.905 226.444 404.766 226.059 404.714 225.618H405.83C405.873 225.852 405.959 226.064 406.089 226.254C406.227 226.444 406.418 226.6 406.66 226.721C406.902 226.833 407.196 226.889 407.541 226.889C407.844 226.889 408.095 226.846 408.294 226.76C408.492 226.664 408.639 226.539 408.734 226.383C408.838 226.228 408.89 226.055 408.89 225.865C408.89 225.597 408.825 225.389 408.695 225.242C408.574 225.095 408.393 224.983 408.151 224.905C407.917 224.827 407.628 224.758 407.282 224.698C406.971 224.646 406.677 224.577 406.4 224.49C406.124 224.395 405.877 224.278 405.661 224.14C405.454 223.993 405.285 223.812 405.155 223.595C405.034 223.379 404.974 223.12 404.974 222.817C404.974 222.446 405.069 222.117 405.259 221.832C405.458 221.538 405.735 221.313 406.089 221.158C406.452 220.993 406.876 220.911 407.36 220.911C408.06 220.911 408.626 221.08 409.059 221.417C409.499 221.754 409.755 222.238 409.824 222.869H408.747C408.713 222.541 408.57 222.286 408.319 222.104C408.077 221.923 407.753 221.832 407.347 221.832C406.932 221.832 406.616 221.914 406.4 222.078C406.184 222.242 406.076 222.459 406.076 222.727C406.076 222.9 406.132 223.059 406.245 223.206C406.357 223.345 406.53 223.461 406.763 223.557C407.005 223.652 407.299 223.729 407.645 223.79C408.095 223.868 408.497 223.971 408.851 224.101C409.206 224.231 409.487 224.425 409.694 224.685C409.91 224.935 410.014 225.299 410.005 225.774C410.014 226.189 409.914 226.548 409.707 226.85C409.499 227.153 409.21 227.391 408.838 227.564C408.466 227.728 408.03 227.81 407.528 227.81Z" fill="#EEEFF1"/>
<rect x="59.7258" y="250.481" width="768.606" height="34.2715" rx="8.79944" fill="#EEEFF1"/>
<rect x="59.7258" y="250.481" width="768.606" height="34.2715" rx="8.79944" fill="#282A2F"/>
<rect x="59.7258" y="250.481" width="768.606" height="34.2715" rx="8.79944" stroke="#575B62" stroke-width="0.926257"/>
<path d="M69.498 272.117V263.04H70.7688L73.9588 269.394L77.1359 263.04H78.4197V272.117H77.3304V264.985L74.3738 270.859H73.5568L70.5872 265.024V272.117H69.498ZM83.1644 272.273C82.5506 272.273 82.006 272.13 81.5305 271.845C81.0636 271.56 80.6962 271.158 80.4282 270.639C80.1602 270.12 80.0262 269.515 80.0262 268.823C80.0262 268.123 80.1559 267.518 80.4153 267.008C80.6833 266.489 81.055 266.087 81.5305 265.802C82.0146 265.517 82.5679 265.374 83.1903 265.374C83.8301 265.374 84.3704 265.517 84.8113 265.802C85.2608 266.087 85.6023 266.468 85.8357 266.943C86.0778 267.41 86.1988 267.92 86.1988 268.473C86.1988 268.56 86.1988 268.651 86.1988 268.746C86.1988 268.841 86.1945 268.949 86.1858 269.07H80.8432V268.227H85.1225C85.0966 267.613 84.8977 267.138 84.526 266.8C84.1629 266.463 83.709 266.295 83.1644 266.295C82.7927 266.295 82.4468 266.381 82.127 266.554C81.8158 266.718 81.5651 266.965 81.3749 267.293C81.1847 267.622 81.0896 268.032 81.0896 268.525V268.888C81.0896 269.433 81.1847 269.891 81.3749 270.263C81.5737 270.626 81.8287 270.898 82.1399 271.08C82.4598 271.261 82.8013 271.352 83.1644 271.352C83.6226 271.352 83.9986 271.253 84.2926 271.054C84.5865 270.855 84.8026 270.578 84.941 270.224H86.0173C85.9049 270.622 85.719 270.976 85.4597 271.287C85.2003 271.59 84.8761 271.832 84.4871 272.013C84.1067 272.186 83.6658 272.273 83.1644 272.273ZM87.6688 272.117V265.53H88.6543L88.7192 266.463C88.9267 266.118 89.2033 265.85 89.5491 265.659C89.9036 265.469 90.2883 265.374 90.7032 265.374C91.0317 265.374 91.33 265.422 91.598 265.517C91.8746 265.603 92.1167 265.741 92.3242 265.932C92.5317 266.113 92.7002 266.342 92.8299 266.619C93.0547 266.221 93.3616 265.914 93.7506 265.698C94.1396 265.482 94.5546 265.374 94.9955 265.374C95.5056 265.374 95.9465 265.473 96.3182 265.672C96.6899 265.871 96.9752 266.178 97.1741 266.593C97.3729 266.999 97.4723 267.509 97.4723 268.123V272.117H96.396V268.24C96.396 267.6 96.262 267.12 95.994 266.8C95.726 266.472 95.3499 266.308 94.8658 266.308C94.5373 266.308 94.2391 266.394 93.9711 266.567C93.7117 266.74 93.5042 266.995 93.3486 267.332C93.193 267.661 93.1152 268.067 93.1152 268.551V272.117H92.0259V268.24C92.0259 267.6 91.8919 267.12 91.6239 266.8C91.3559 266.472 90.9842 266.308 90.5087 266.308C90.1802 266.308 89.8819 266.394 89.6139 266.567C89.3546 266.74 89.1471 266.995 88.9915 267.332C88.8359 267.661 88.7581 268.067 88.7581 268.551V272.117H87.6688ZM102.616 272.273C102.236 272.273 101.894 272.221 101.592 272.117C101.298 272.005 101.038 271.858 100.814 271.676C100.598 271.486 100.416 271.274 100.269 271.041L100.178 272.117H99.1927V262.781H100.282V266.593C100.49 266.247 100.788 265.958 101.177 265.724C101.574 265.491 102.05 265.374 102.603 265.374C103.243 265.374 103.796 265.525 104.263 265.828C104.739 266.122 105.106 266.528 105.365 267.047C105.625 267.566 105.754 268.158 105.754 268.823C105.754 269.48 105.625 270.073 105.365 270.6C105.106 271.119 104.739 271.529 104.263 271.832C103.788 272.126 103.239 272.273 102.616 272.273ZM102.487 271.326C102.91 271.326 103.282 271.222 103.602 271.015C103.93 270.807 104.185 270.518 104.367 270.146C104.557 269.766 104.652 269.325 104.652 268.823C104.652 268.313 104.557 267.872 104.367 267.501C104.185 267.129 103.93 266.839 103.602 266.632C103.282 266.424 102.91 266.321 102.487 266.321C102.054 266.321 101.674 266.424 101.345 266.632C101.017 266.839 100.762 267.129 100.58 267.501C100.399 267.872 100.308 268.313 100.308 268.823C100.308 269.325 100.399 269.766 100.58 270.146C100.762 270.518 101.017 270.807 101.345 271.015C101.674 271.222 102.054 271.326 102.487 271.326ZM110.176 272.273C109.562 272.273 109.018 272.13 108.542 271.845C108.075 271.56 107.708 271.158 107.44 270.639C107.172 270.12 107.038 269.515 107.038 268.823C107.038 268.123 107.168 267.518 107.427 267.008C107.695 266.489 108.067 266.087 108.542 265.802C109.026 265.517 109.579 265.374 110.202 265.374C110.842 265.374 111.382 265.517 111.823 265.802C112.272 266.087 112.614 266.468 112.847 266.943C113.089 267.41 113.21 267.92 113.21 268.473C113.21 268.56 113.21 268.651 113.21 268.746C113.21 268.841 113.206 268.949 113.197 269.07H107.855V268.227H112.134C112.108 267.613 111.909 267.138 111.538 266.8C111.174 266.463 110.721 266.295 110.176 266.295C109.804 266.295 109.458 266.381 109.139 266.554C108.827 266.718 108.577 266.965 108.386 267.293C108.196 267.622 108.101 268.032 108.101 268.525V268.888C108.101 269.433 108.196 269.891 108.386 270.263C108.585 270.626 108.84 270.898 109.152 271.08C109.471 271.261 109.813 271.352 110.176 271.352C110.634 271.352 111.01 271.253 111.304 271.054C111.598 270.855 111.814 270.578 111.953 270.224H113.029C112.916 270.622 112.731 270.976 112.471 271.287C112.212 271.59 111.888 271.832 111.499 272.013C111.118 272.186 110.677 272.273 110.176 272.273ZM114.68 272.117V265.53H115.666L115.744 266.775C115.891 266.472 116.081 266.217 116.314 266.009C116.556 265.802 116.842 265.646 117.17 265.543C117.499 265.43 117.875 265.374 118.298 265.374V266.515H117.845C117.568 266.515 117.304 266.55 117.053 266.619C116.803 266.688 116.578 266.805 116.379 266.969C116.189 267.133 116.038 267.354 115.925 267.63C115.822 267.907 115.77 268.253 115.77 268.668V272.117H114.68Z" fill="#9FA1A6"/>
<path d="M176.959 272.117L174.469 263.04H175.636L177.594 270.82L179.811 263.04H181.03L183.196 270.846L185.18 263.04H186.347L183.805 272.117H182.561L180.395 264.609L178.178 272.117H176.959ZM189.848 272.273C189.234 272.273 188.685 272.13 188.201 271.845C187.717 271.56 187.337 271.158 187.06 270.639C186.784 270.12 186.645 269.515 186.645 268.823C186.645 268.123 186.784 267.514 187.06 266.995C187.345 266.476 187.73 266.079 188.214 265.802C188.707 265.517 189.26 265.374 189.874 265.374C190.488 265.374 191.037 265.517 191.521 265.802C192.005 266.079 192.386 266.476 192.662 266.995C192.939 267.514 193.077 268.123 193.077 268.823C193.077 269.524 192.935 270.133 192.649 270.652C192.373 271.162 191.988 271.56 191.495 271.845C191.011 272.13 190.462 272.273 189.848 272.273ZM189.848 271.339C190.229 271.339 190.579 271.248 190.899 271.067C191.218 270.877 191.474 270.596 191.664 270.224C191.863 269.844 191.962 269.377 191.962 268.823C191.962 268.261 191.867 267.795 191.677 267.423C191.486 267.051 191.231 266.775 190.912 266.593C190.592 266.403 190.246 266.308 189.874 266.308C189.502 266.308 189.152 266.403 188.824 266.593C188.504 266.775 188.245 267.051 188.046 267.423C187.856 267.795 187.76 268.261 187.76 268.823C187.76 269.377 187.856 269.844 188.046 270.224C188.245 270.596 188.5 270.877 188.811 271.067C189.131 271.248 189.477 271.339 189.848 271.339ZM194.617 272.117V265.53H195.603L195.68 266.775C195.827 266.472 196.018 266.217 196.251 266.009C196.493 265.802 196.778 265.646 197.107 265.543C197.435 265.43 197.811 265.374 198.235 265.374V266.515H197.781C197.505 266.515 197.241 266.55 196.99 266.619C196.739 266.688 196.515 266.805 196.316 266.969C196.126 267.133 195.974 267.354 195.862 267.63C195.758 267.907 195.706 268.253 195.706 268.668V272.117H194.617ZM203.487 272.117L200.375 268.525L203.228 265.53H204.564L201.296 268.914L201.309 268.136L204.875 272.117H203.487ZM199.467 272.117V262.781H200.557V272.117H199.467ZM208.086 272.273C207.532 272.273 207.053 272.182 206.646 272C206.24 271.819 205.92 271.564 205.687 271.235C205.462 270.907 205.324 270.522 205.272 270.081H206.387C206.43 270.315 206.517 270.526 206.646 270.717C206.785 270.907 206.975 271.062 207.217 271.184C207.459 271.296 207.753 271.352 208.099 271.352C208.401 271.352 208.652 271.309 208.851 271.222C209.05 271.127 209.197 271.002 209.292 270.846C209.395 270.691 209.447 270.518 209.447 270.328C209.447 270.06 209.382 269.852 209.253 269.705C209.132 269.558 208.95 269.446 208.708 269.368C208.475 269.29 208.185 269.221 207.839 269.161C207.528 269.109 207.234 269.04 206.957 268.953C206.681 268.858 206.434 268.741 206.218 268.603C206.011 268.456 205.842 268.274 205.713 268.058C205.592 267.842 205.531 267.583 205.531 267.28C205.531 266.909 205.626 266.58 205.816 266.295C206.015 266.001 206.292 265.776 206.646 265.62C207.009 265.456 207.433 265.374 207.917 265.374C208.617 265.374 209.184 265.543 209.616 265.88C210.057 266.217 210.312 266.701 210.381 267.332H209.305C209.27 267.004 209.127 266.749 208.877 266.567C208.635 266.386 208.31 266.295 207.904 266.295C207.489 266.295 207.174 266.377 206.957 266.541C206.741 266.705 206.633 266.922 206.633 267.19C206.633 267.362 206.689 267.522 206.802 267.669C206.914 267.808 207.087 267.924 207.321 268.019C207.563 268.115 207.857 268.192 208.202 268.253C208.652 268.331 209.054 268.434 209.408 268.564C209.763 268.694 210.044 268.888 210.251 269.148C210.467 269.398 210.571 269.761 210.562 270.237C210.571 270.652 210.472 271.011 210.264 271.313C210.057 271.616 209.767 271.854 209.395 272.026C209.024 272.191 208.587 272.273 208.086 272.273ZM212.156 274.97V265.53H213.142L213.233 266.593C213.371 266.377 213.548 266.178 213.764 265.996C213.98 265.806 214.24 265.655 214.542 265.543C214.845 265.43 215.191 265.374 215.58 265.374C216.211 265.374 216.76 265.525 217.227 265.828C217.702 266.13 218.069 266.541 218.329 267.06C218.588 267.579 218.718 268.171 218.718 268.836C218.718 269.502 218.588 270.094 218.329 270.613C218.069 271.123 217.702 271.529 217.227 271.832C216.751 272.126 216.198 272.273 215.567 272.273C215.039 272.273 214.573 272.165 214.166 271.949C213.769 271.732 213.462 271.43 213.246 271.041V274.97H212.156ZM215.45 271.326C215.865 271.326 216.237 271.222 216.565 271.015C216.894 270.807 217.149 270.518 217.33 270.146C217.521 269.766 217.616 269.325 217.616 268.823C217.616 268.313 217.521 267.872 217.33 267.501C217.149 267.129 216.894 266.839 216.565 266.632C216.237 266.424 215.865 266.321 215.45 266.321C215.018 266.321 214.637 266.424 214.309 266.632C213.98 266.839 213.725 267.129 213.544 267.501C213.362 267.872 213.271 268.313 213.271 268.823C213.271 269.325 213.362 269.766 213.544 270.146C213.725 270.518 213.98 270.807 214.309 271.015C214.637 271.222 215.018 271.326 215.45 271.326ZM222.4 272.273C221.873 272.273 221.432 272.182 221.078 272C220.732 271.81 220.473 271.56 220.3 271.248C220.127 270.937 220.04 270.6 220.04 270.237C220.04 269.796 220.153 269.42 220.377 269.109C220.611 268.797 220.935 268.564 221.35 268.408C221.774 268.244 222.266 268.162 222.828 268.162H224.553C224.553 267.747 224.492 267.401 224.371 267.125C224.25 266.848 224.069 266.641 223.827 266.502C223.593 266.364 223.295 266.295 222.932 266.295C222.526 266.295 222.171 266.398 221.869 266.606C221.575 266.805 221.393 267.103 221.324 267.501H220.209C220.261 267.043 220.416 266.658 220.676 266.347C220.944 266.027 221.276 265.785 221.674 265.62C222.072 265.456 222.491 265.374 222.932 265.374C223.537 265.374 224.039 265.486 224.436 265.711C224.843 265.927 225.145 266.234 225.344 266.632C225.543 267.021 225.642 267.479 225.642 268.006V272.117H224.67L224.605 270.963C224.518 271.145 224.406 271.318 224.268 271.482C224.138 271.637 223.982 271.776 223.801 271.897C223.619 272.009 223.412 272.1 223.178 272.169C222.954 272.238 222.694 272.273 222.4 272.273ZM222.569 271.352C222.872 271.352 223.144 271.292 223.386 271.171C223.628 271.041 223.835 270.868 224.008 270.652C224.19 270.427 224.324 270.181 224.41 269.913C224.505 269.636 224.553 269.355 224.553 269.07V269.005H222.919C222.504 269.005 222.167 269.057 221.908 269.161C221.648 269.256 221.462 269.394 221.35 269.576C221.238 269.757 221.181 269.96 221.181 270.185C221.181 270.418 221.233 270.626 221.337 270.807C221.449 270.98 221.609 271.114 221.817 271.209C222.024 271.305 222.275 271.352 222.569 271.352ZM230.296 272.273C229.683 272.273 229.129 272.13 228.636 271.845C228.152 271.551 227.772 271.145 227.495 270.626C227.219 270.107 227.08 269.506 227.08 268.823C227.08 268.132 227.219 267.531 227.495 267.021C227.772 266.502 228.152 266.1 228.636 265.815C229.129 265.521 229.687 265.374 230.309 265.374C231.079 265.374 231.723 265.577 232.241 265.984C232.76 266.381 233.093 266.922 233.24 267.604H232.125C232.03 267.19 231.814 266.87 231.476 266.645C231.139 266.42 230.742 266.308 230.283 266.308C229.912 266.308 229.566 266.403 229.246 266.593C228.926 266.775 228.671 267.056 228.481 267.436C228.291 267.808 228.196 268.27 228.196 268.823C228.196 269.238 228.252 269.606 228.364 269.926C228.477 270.237 228.628 270.501 228.818 270.717C229.008 270.924 229.229 271.084 229.479 271.196C229.739 271.3 230.007 271.352 230.283 271.352C230.595 271.352 230.876 271.3 231.126 271.196C231.377 271.093 231.589 270.946 231.762 270.756C231.943 270.557 232.064 270.319 232.125 270.042H233.24C233.102 270.708 232.769 271.248 232.241 271.663C231.714 272.07 231.066 272.273 230.296 272.273ZM237.652 272.273C237.038 272.273 236.494 272.13 236.018 271.845C235.551 271.56 235.184 271.158 234.916 270.639C234.648 270.12 234.514 269.515 234.514 268.823C234.514 268.123 234.644 267.518 234.903 267.008C235.171 266.489 235.543 266.087 236.018 265.802C236.502 265.517 237.056 265.374 237.678 265.374C238.318 265.374 238.858 265.517 239.299 265.802C239.749 266.087 240.09 266.468 240.323 266.943C240.565 267.41 240.686 267.92 240.686 268.473C240.686 268.56 240.686 268.651 240.686 268.746C240.686 268.841 240.682 268.949 240.674 269.07H235.331V268.227H239.61C239.584 267.613 239.385 267.138 239.014 266.8C238.651 266.463 238.197 266.295 237.652 266.295C237.28 266.295 236.935 266.381 236.615 266.554C236.303 266.718 236.053 266.965 235.863 267.293C235.672 267.622 235.577 268.032 235.577 268.525V268.888C235.577 269.433 235.672 269.891 235.863 270.263C236.061 270.626 236.316 270.898 236.628 271.08C236.948 271.261 237.289 271.352 237.652 271.352C238.11 271.352 238.486 271.253 238.78 271.054C239.074 270.855 239.29 270.578 239.429 270.224H240.505C240.393 270.622 240.207 270.976 239.947 271.287C239.688 271.59 239.364 271.832 238.975 272.013C238.594 272.186 238.153 272.273 237.652 272.273ZM249.037 272.273C248.657 272.273 248.315 272.221 248.013 272.117C247.719 272.005 247.459 271.858 247.235 271.676C247.018 271.486 246.837 271.274 246.69 271.041L246.599 272.117H245.614V262.781H246.703V266.593C246.91 266.247 247.209 265.958 247.598 265.724C247.995 265.491 248.471 265.374 249.024 265.374C249.664 265.374 250.217 265.525 250.684 265.828C251.159 266.122 251.527 266.528 251.786 267.047C252.046 267.566 252.175 268.158 252.175 268.823C252.175 269.48 252.046 270.073 251.786 270.6C251.527 271.119 251.159 271.529 250.684 271.832C250.209 272.126 249.66 272.273 249.037 272.273ZM248.907 271.326C249.331 271.326 249.703 271.222 250.023 271.015C250.351 270.807 250.606 270.518 250.788 270.146C250.978 269.766 251.073 269.325 251.073 268.823C251.073 268.313 250.978 267.872 250.788 267.501C250.606 267.129 250.351 266.839 250.023 266.632C249.703 266.424 249.331 266.321 248.907 266.321C248.475 266.321 248.095 266.424 247.766 266.632C247.438 266.839 247.183 267.129 247.001 267.501C246.82 267.872 246.729 268.313 246.729 268.823C246.729 269.325 246.82 269.766 247.001 270.146C247.183 270.518 247.438 270.807 247.766 271.015C248.095 271.222 248.475 271.326 248.907 271.326Z" fill="#EEEFF1"/>
<rect x="294.337" y="255.112" width="126.977" height="25.0089" rx="8.79944" fill="#575B62"/>
<rect x="294.337" y="255.112" width="126.977" height="25.0089" rx="8.79944" stroke="#575B62" stroke-width="0.926257"/>
<path d="M306.494 262.406H314.599C314.599 262.406 315.757 262.406 315.757 263.564V271.669C315.757 271.669 315.757 272.827 314.599 272.827H306.494C306.494 272.827 305.336 272.827 305.336 271.669V263.564C305.336 263.564 305.336 262.406 306.494 262.406Z" stroke="#EEEFF1" stroke-width="0.926257" stroke-linecap="round" stroke-linejoin="round"/>
<path d="M312.284 265.879L308.81 269.352" stroke="#EEEFF1" stroke-width="0.926257" stroke-linecap="round" stroke-linejoin="round"/>
<path d="M308.81 265.879L312.284 269.352" stroke="#EEEFF1" stroke-width="0.926257" stroke-linecap="round" stroke-linejoin="round"/>
<path d="M324.487 272.115V263.038H327.417C328.126 263.038 328.706 263.159 329.155 263.401C329.605 263.634 329.937 263.95 330.154 264.348C330.37 264.745 330.478 265.195 330.478 265.696C330.478 266.18 330.365 266.626 330.141 267.032C329.924 267.438 329.587 267.762 329.129 268.005C328.671 268.247 328.083 268.368 327.366 268.368H325.576V272.115H324.487ZM329.285 272.115L327.288 268.056H328.507L330.569 272.115H329.285ZM325.576 267.512H327.34C328.031 267.512 328.537 267.343 328.857 267.006C329.185 266.669 329.35 266.237 329.35 265.709C329.35 265.173 329.19 264.75 328.87 264.438C328.559 264.119 328.044 263.959 327.327 263.959H325.576V267.512ZM334.607 272.271C333.994 272.271 333.449 272.128 332.973 271.843C332.507 271.558 332.139 271.156 331.871 270.637C331.603 270.118 331.469 269.513 331.469 268.821C331.469 268.121 331.599 267.516 331.858 267.006C332.126 266.487 332.498 266.085 332.973 265.8C333.458 265.515 334.011 265.372 334.633 265.372C335.273 265.372 335.813 265.515 336.254 265.8C336.704 266.085 337.045 266.466 337.279 266.941C337.521 267.408 337.642 267.918 337.642 268.471C337.642 268.558 337.642 268.649 337.642 268.744C337.642 268.839 337.637 268.947 337.629 269.068H332.286V268.225H336.565C336.54 267.611 336.341 267.136 335.969 266.799C335.606 266.461 335.152 266.293 334.607 266.293C334.236 266.293 333.89 266.379 333.57 266.552C333.259 266.716 333.008 266.963 332.818 267.291C332.628 267.62 332.533 268.03 332.533 268.523V268.886C332.533 269.431 332.628 269.889 332.818 270.261C333.017 270.624 333.272 270.896 333.583 271.078C333.903 271.259 334.244 271.35 334.607 271.35C335.066 271.35 335.442 271.251 335.736 271.052C336.029 270.853 336.246 270.576 336.384 270.222H337.46C337.348 270.62 337.162 270.974 336.903 271.285C336.643 271.588 336.319 271.83 335.93 272.011C335.55 272.184 335.109 272.271 334.607 272.271ZM339.112 272.115V265.528H340.097L340.162 266.461C340.37 266.116 340.646 265.848 340.992 265.657C341.346 265.467 341.731 265.372 342.146 265.372C342.475 265.372 342.773 265.42 343.041 265.515C343.318 265.601 343.56 265.739 343.767 265.93C343.975 266.111 344.143 266.34 344.273 266.617C344.498 266.219 344.805 265.912 345.194 265.696C345.583 265.48 345.998 265.372 346.438 265.372C346.948 265.372 347.389 265.472 347.761 265.67C348.133 265.869 348.418 266.176 348.617 266.591C348.816 266.997 348.915 267.507 348.915 268.121V272.115H347.839V268.238C347.839 267.598 347.705 267.118 347.437 266.799C347.169 266.47 346.793 266.306 346.309 266.306C345.98 266.306 345.682 266.392 345.414 266.565C345.155 266.738 344.947 266.993 344.792 267.33C344.636 267.659 344.558 268.065 344.558 268.549V272.115H343.469V268.238C343.469 267.598 343.335 267.118 343.067 266.799C342.799 266.47 342.427 266.306 341.952 266.306C341.623 266.306 341.325 266.392 341.057 266.565C340.798 266.738 340.59 266.993 340.434 267.33C340.279 267.659 340.201 268.065 340.201 268.549V272.115H339.112ZM353.566 272.271C352.953 272.271 352.404 272.128 351.919 271.843C351.435 271.558 351.055 271.156 350.778 270.637C350.502 270.118 350.363 269.513 350.363 268.821C350.363 268.121 350.502 267.512 350.778 266.993C351.064 266.474 351.448 266.077 351.932 265.8C352.425 265.515 352.978 265.372 353.592 265.372C354.206 265.372 354.755 265.515 355.239 265.8C355.723 266.077 356.104 266.474 356.38 266.993C356.657 267.512 356.795 268.121 356.795 268.821C356.795 269.522 356.653 270.131 356.367 270.65C356.091 271.16 355.706 271.558 355.213 271.843C354.729 272.128 354.18 272.271 353.566 272.271ZM353.566 271.337C353.947 271.337 354.297 271.246 354.617 271.065C354.937 270.875 355.192 270.594 355.382 270.222C355.581 269.842 355.68 269.375 355.68 268.821C355.68 268.26 355.585 267.793 355.395 267.421C355.205 267.049 354.95 266.773 354.63 266.591C354.31 266.401 353.964 266.306 353.592 266.306C353.221 266.306 352.87 266.401 352.542 266.591C352.222 266.773 351.963 267.049 351.764 267.421C351.574 267.793 351.479 268.26 351.479 268.821C351.479 269.375 351.574 269.842 351.764 270.222C351.963 270.594 352.218 270.875 352.529 271.065C352.849 271.246 353.195 271.337 353.566 271.337ZM359.912 272.115L357.409 265.528H358.551L360.548 271.065L362.545 265.528H363.66L361.17 272.115H359.912ZM367.419 272.271C366.805 272.271 366.26 272.128 365.785 271.843C365.318 271.558 364.951 271.156 364.683 270.637C364.415 270.118 364.281 269.513 364.281 268.821C364.281 268.121 364.41 267.516 364.67 267.006C364.938 266.487 365.31 266.085 365.785 265.8C366.269 265.515 366.822 265.372 367.445 265.372C368.085 265.372 368.625 265.515 369.066 265.8C369.515 266.085 369.857 266.466 370.09 266.941C370.332 267.408 370.453 267.918 370.453 268.471C370.453 268.558 370.453 268.649 370.453 268.744C370.453 268.839 370.449 268.947 370.44 269.068H365.098V268.225H369.377C369.351 267.611 369.152 267.136 368.78 266.799C368.417 266.461 367.964 266.293 367.419 266.293C367.047 266.293 366.701 266.379 366.381 266.552C366.07 266.716 365.82 266.963 365.629 267.291C365.439 267.62 365.344 268.03 365.344 268.523V268.886C365.344 269.431 365.439 269.889 365.629 270.261C365.828 270.624 366.083 270.896 366.394 271.078C366.714 271.259 367.056 271.35 367.419 271.35C367.877 271.35 368.253 271.251 368.547 271.052C368.841 270.853 369.057 270.576 369.195 270.222H370.272C370.159 270.62 369.974 270.974 369.714 271.285C369.455 271.588 369.131 271.83 368.742 272.011C368.361 272.184 367.92 272.271 367.419 272.271ZM375.445 272.115V263.038H378.376C379.085 263.038 379.664 263.159 380.114 263.401C380.563 263.634 380.896 263.95 381.112 264.348C381.328 264.745 381.436 265.195 381.436 265.696C381.436 266.18 381.324 266.626 381.099 267.032C380.883 267.438 380.546 267.762 380.088 268.005C379.63 268.247 379.042 268.368 378.324 268.368H376.535V272.115H375.445ZM380.243 272.115L378.246 268.056H379.465L381.527 272.115H380.243ZM376.535 267.512H378.298C378.99 267.512 379.496 267.343 379.815 267.006C380.144 266.669 380.308 266.237 380.308 265.709C380.308 265.173 380.148 264.75 379.828 264.438C379.517 264.119 379.003 263.959 378.285 263.959H376.535V267.512ZM383.196 272.115V265.528H384.286V272.115H383.196ZM383.741 264.153C383.525 264.153 383.343 264.084 383.196 263.946C383.058 263.799 382.989 263.617 382.989 263.401C382.989 263.185 383.058 263.012 383.196 262.882C383.343 262.744 383.525 262.675 383.741 262.675C383.949 262.675 384.126 262.744 384.273 262.882C384.42 263.012 384.493 263.185 384.493 263.401C384.493 263.617 384.42 263.799 384.273 263.946C384.126 264.084 383.949 264.153 383.741 264.153ZM388.801 275.124C388.214 275.124 387.691 275.046 387.232 274.89C386.783 274.743 386.428 274.514 386.169 274.203C385.918 273.892 385.793 273.507 385.793 273.049C385.793 272.85 385.832 272.638 385.91 272.413C385.996 272.189 386.139 271.968 386.338 271.752C386.545 271.536 386.835 271.342 387.206 271.169L387.972 271.609C387.513 271.8 387.211 272.016 387.064 272.258C386.925 272.5 386.856 272.729 386.856 272.945C386.856 273.23 386.938 273.468 387.103 273.658C387.276 273.849 387.509 273.991 387.803 274.086C388.097 274.181 388.43 274.229 388.801 274.229C389.182 274.229 389.506 274.177 389.774 274.073C390.042 273.97 390.25 273.823 390.396 273.632C390.552 273.442 390.63 273.222 390.63 272.971C390.63 272.66 390.513 272.401 390.28 272.193C390.055 271.994 389.627 271.877 388.996 271.843C388.477 271.808 388.045 271.761 387.699 271.7C387.353 271.64 387.064 271.571 386.83 271.493C386.606 271.406 386.415 271.311 386.26 271.208C386.113 271.104 385.979 270.996 385.858 270.883V270.585L387.129 269.327L388.088 269.664L386.766 270.844L386.934 270.378C387.029 270.447 387.12 270.512 387.206 270.572C387.293 270.624 387.41 270.676 387.557 270.728C387.712 270.771 387.92 270.814 388.179 270.857C388.447 270.892 388.801 270.927 389.242 270.961C389.839 271.004 390.314 271.108 390.669 271.272C391.032 271.437 391.296 271.657 391.46 271.934C391.624 272.21 391.706 272.543 391.706 272.932C391.706 273.295 391.602 273.641 391.395 273.97C391.196 274.307 390.881 274.583 390.448 274.8C390.025 275.016 389.476 275.124 388.801 275.124ZM388.788 270.053C388.244 270.053 387.781 269.95 387.401 269.742C387.021 269.535 386.731 269.254 386.532 268.899C386.333 268.545 386.234 268.147 386.234 267.706C386.234 267.274 386.333 266.885 386.532 266.539C386.731 266.185 387.021 265.904 387.401 265.696C387.781 265.48 388.244 265.372 388.788 265.372C389.342 265.372 389.809 265.48 390.189 265.696C390.569 265.904 390.859 266.185 391.058 266.539C391.257 266.885 391.356 267.274 391.356 267.706C391.356 268.147 391.257 268.545 391.058 268.899C390.859 269.254 390.569 269.535 390.189 269.742C389.809 269.95 389.342 270.053 388.788 270.053ZM388.788 269.159C389.264 269.159 389.636 269.038 389.904 268.796C390.172 268.545 390.306 268.182 390.306 267.706C390.306 267.239 390.172 266.885 389.904 266.643C389.636 266.401 389.264 266.28 388.788 266.28C388.33 266.28 387.959 266.401 387.673 266.643C387.397 266.885 387.258 267.239 387.258 267.706C387.258 268.182 387.397 268.545 387.673 268.796C387.959 269.038 388.33 269.159 388.788 269.159ZM389.878 266.448L389.554 265.528H392.225V266.345L389.878 266.448ZM393.477 272.115V262.779H394.566V266.63C394.782 266.232 395.085 265.925 395.474 265.709C395.872 265.484 396.304 265.372 396.771 265.372C397.272 265.372 397.709 265.472 398.08 265.67C398.452 265.869 398.737 266.176 398.936 266.591C399.135 266.997 399.234 267.516 399.234 268.147V272.115H398.158V268.264C398.158 267.615 398.016 267.127 397.73 266.799C397.454 266.47 397.056 266.306 396.537 266.306C396.165 266.306 395.828 266.397 395.526 266.578C395.232 266.751 394.998 267.006 394.826 267.343C394.653 267.672 394.566 268.082 394.566 268.575V272.115H393.477ZM403.529 272.115C403.14 272.115 402.803 272.055 402.518 271.934C402.232 271.813 402.012 271.609 401.856 271.324C401.709 271.03 401.636 270.637 401.636 270.144V266.448H400.495V265.528H401.636L401.778 263.92H402.725V265.528H404.631V266.448H402.725V270.144C402.725 270.55 402.807 270.827 402.971 270.974C403.136 271.112 403.425 271.182 403.84 271.182H404.566V272.115H403.529ZM408.528 272.271C407.975 272.271 407.495 272.18 407.089 271.999C406.683 271.817 406.363 271.562 406.129 271.233C405.905 270.905 405.766 270.52 405.714 270.079H406.83C406.873 270.313 406.959 270.525 407.089 270.715C407.227 270.905 407.418 271.061 407.66 271.182C407.902 271.294 408.196 271.35 408.541 271.35C408.844 271.35 409.095 271.307 409.294 271.22C409.492 271.125 409.639 271 409.734 270.844C409.838 270.689 409.89 270.516 409.89 270.326C409.89 270.058 409.825 269.85 409.695 269.703C409.574 269.556 409.393 269.444 409.151 269.366C408.917 269.288 408.628 269.219 408.282 269.159C407.971 269.107 407.677 269.038 407.4 268.951C407.124 268.856 406.877 268.739 406.661 268.601C406.454 268.454 406.285 268.273 406.155 268.056C406.034 267.84 405.974 267.581 405.974 267.278C405.974 266.907 406.069 266.578 406.259 266.293C406.458 265.999 406.735 265.774 407.089 265.618C407.452 265.454 407.876 265.372 408.36 265.372C409.06 265.372 409.626 265.541 410.059 265.878C410.499 266.215 410.755 266.699 410.824 267.33H409.747C409.713 267.002 409.57 266.747 409.319 266.565C409.077 266.384 408.753 266.293 408.347 266.293C407.932 266.293 407.616 266.375 407.4 266.539C407.184 266.703 407.076 266.92 407.076 267.188C407.076 267.36 407.132 267.52 407.245 267.667C407.357 267.806 407.53 267.922 407.763 268.017C408.005 268.113 408.299 268.19 408.645 268.251C409.095 268.329 409.497 268.432 409.851 268.562C410.206 268.692 410.487 268.886 410.694 269.146C410.91 269.396 411.014 269.759 411.005 270.235C411.014 270.65 410.914 271.009 410.707 271.311C410.499 271.614 410.21 271.852 409.838 272.024C409.466 272.189 409.03 272.271 408.528 272.271Z" fill="#EEEFF1"/>
<rect x="59.7258" y="294.94" width="768.606" height="34.2715" rx="8.79944" fill="#EEEFF1"/>
<rect x="59.7258" y="294.94" width="768.606" height="34.2715" rx="8.79944" fill="#282A2F"/>
<rect x="59.7258" y="294.94" width="768.606" height="34.2715" rx="8.79944" stroke="#575B62" stroke-width="0.926257"/>
<path d="M68.9144 316.576L72.2601 307.499H73.4142L76.7468 316.576H75.5927L72.8306 308.86L70.0556 316.576H68.9144ZM70.4446 314.242L70.7558 313.36H74.8665L75.1778 314.242H70.4446ZM80.5686 316.732C79.9376 316.732 79.3843 316.58 78.9088 316.278C78.4333 315.975 78.0659 315.565 77.8065 315.046C77.5472 314.527 77.4175 313.935 77.4175 313.269C77.4175 312.604 77.5472 312.012 77.8065 311.493C78.0659 310.974 78.4333 310.568 78.9088 310.274C79.3929 309.98 79.9505 309.833 80.5816 309.833C81.109 309.833 81.5715 309.941 81.9691 310.157C82.3755 310.373 82.6867 310.676 82.9028 311.065V307.24H83.9921V316.576H83.0065L82.9028 315.5C82.7731 315.716 82.6002 315.919 82.3841 316.109C82.168 316.291 81.9086 316.442 81.606 316.563C81.3121 316.676 80.9663 316.732 80.5686 316.732ZM80.6853 315.785C81.1176 315.785 81.498 315.681 81.8265 315.474C82.155 315.266 82.41 314.977 82.5916 314.605C82.7731 314.225 82.8639 313.784 82.8639 313.282C82.8639 312.772 82.7731 312.331 82.5916 311.96C82.41 311.588 82.155 311.298 81.8265 311.091C81.498 310.883 81.1176 310.78 80.6853 310.78C80.2704 310.78 79.8986 310.883 79.5701 311.091C79.2416 311.298 78.9866 311.588 78.805 311.96C78.6235 312.331 78.5327 312.772 78.5327 313.282C78.5327 313.784 78.6235 314.225 78.805 314.605C78.9866 314.977 79.2416 315.266 79.5701 315.474C79.8986 315.681 80.2704 315.785 80.6853 315.785ZM85.8072 316.576V309.989H86.7928L86.8576 310.922C87.0651 310.576 87.3417 310.308 87.6875 310.118C88.042 309.928 88.4267 309.833 88.8417 309.833C89.1702 309.833 89.4684 309.881 89.7364 309.976C90.0131 310.062 90.2551 310.2 90.4626 310.391C90.6701 310.572 90.8387 310.801 90.9683 311.078C91.1931 310.68 91.5 310.373 91.889 310.157C92.2781 309.941 92.693 309.833 93.1339 309.833C93.644 309.833 94.0849 309.932 94.4566 310.131C94.8284 310.33 95.1137 310.637 95.3125 311.052C95.5113 311.458 95.6107 311.968 95.6107 312.582V316.576H94.5344V312.699C94.5344 312.059 94.4004 311.579 94.1324 311.259C93.8644 310.931 93.4884 310.767 93.0043 310.767C92.6757 310.767 92.3775 310.853 92.1095 311.026C91.8501 311.199 91.6427 311.454 91.4871 311.791C91.3314 312.12 91.2536 312.526 91.2536 313.01V316.576H90.1644V312.699C90.1644 312.059 90.0304 311.579 89.7624 311.259C89.4944 310.931 89.1226 310.767 88.6471 310.767C88.3186 310.767 88.0204 310.853 87.7524 311.026C87.493 311.199 87.2856 311.454 87.1299 311.791C86.9743 312.12 86.8965 312.526 86.8965 313.01V316.576H85.8072ZM97.4349 316.576V309.989H98.5242V316.576H97.4349ZM97.9796 308.614C97.7634 308.614 97.5819 308.545 97.4349 308.407C97.2966 308.26 97.2274 308.078 97.2274 307.862C97.2274 307.646 97.2966 307.473 97.4349 307.343C97.5819 307.205 97.7634 307.136 97.9796 307.136C98.187 307.136 98.3643 307.205 98.5112 307.343C98.6582 307.473 98.7317 307.646 98.7317 307.862C98.7317 308.078 98.6582 308.26 98.5112 308.407C98.3643 308.545 98.187 308.614 97.9796 308.614ZM100.446 316.576V309.989H101.432L101.484 311.104C101.691 310.706 101.985 310.395 102.366 310.17C102.755 309.945 103.196 309.833 103.688 309.833C104.19 309.833 104.626 309.932 104.998 310.131C105.37 310.33 105.659 310.633 105.867 311.039C106.074 311.445 106.178 311.96 106.178 312.582V316.576H105.089V312.699C105.089 312.059 104.942 311.579 104.648 311.259C104.363 310.931 103.961 310.767 103.442 310.767C103.079 310.767 102.755 310.853 102.469 311.026C102.184 311.199 101.955 311.45 101.782 311.778C101.618 312.107 101.536 312.513 101.536 312.997V316.576H100.446Z" fill="#9FA1A6"/>
<path d="M176.959 316.576L174.469 307.499H175.636L177.594 315.279L179.811 307.499H181.03L183.196 315.305L185.18 307.499H186.347L183.805 316.576H182.561L180.395 309.068L178.178 316.576H176.959ZM189.848 316.732C189.234 316.732 188.685 316.589 188.201 316.304C187.717 316.019 187.337 315.617 187.06 315.098C186.784 314.579 186.645 313.974 186.645 313.282C186.645 312.582 186.784 311.973 187.06 311.454C187.345 310.935 187.73 310.538 188.214 310.261C188.707 309.976 189.26 309.833 189.874 309.833C190.488 309.833 191.037 309.976 191.521 310.261C192.005 310.538 192.386 310.935 192.662 311.454C192.939 311.973 193.077 312.582 193.077 313.282C193.077 313.983 192.935 314.592 192.649 315.111C192.373 315.621 191.988 316.019 191.495 316.304C191.011 316.589 190.462 316.732 189.848 316.732ZM189.848 315.798C190.229 315.798 190.579 315.707 190.899 315.526C191.218 315.336 191.474 315.055 191.664 314.683C191.863 314.303 191.962 313.836 191.962 313.282C191.962 312.72 191.867 312.254 191.677 311.882C191.486 311.51 191.231 311.234 190.912 311.052C190.592 310.862 190.246 310.767 189.874 310.767C189.502 310.767 189.152 310.862 188.824 311.052C188.504 311.234 188.245 311.51 188.046 311.882C187.856 312.254 187.76 312.72 187.76 313.282C187.76 313.836 187.856 314.303 188.046 314.683C188.245 315.055 188.5 315.336 188.811 315.526C189.131 315.707 189.477 315.798 189.848 315.798ZM194.617 316.576V309.989H195.603L195.68 311.234C195.827 310.931 196.018 310.676 196.251 310.468C196.493 310.261 196.778 310.105 197.107 310.002C197.435 309.889 197.811 309.833 198.235 309.833V310.974H197.781C197.505 310.974 197.241 311.009 196.99 311.078C196.739 311.147 196.515 311.264 196.316 311.428C196.126 311.592 195.974 311.813 195.862 312.089C195.758 312.366 195.706 312.712 195.706 313.127V316.576H194.617ZM203.487 316.576L200.375 312.984L203.228 309.989H204.564L201.296 313.373L201.309 312.595L204.875 316.576H203.487ZM199.467 316.576V307.24H200.557V316.576H199.467ZM208.086 316.732C207.532 316.732 207.053 316.641 206.646 316.459C206.24 316.278 205.92 316.023 205.687 315.694C205.462 315.366 205.324 314.981 205.272 314.54H206.387C206.43 314.774 206.517 314.985 206.646 315.176C206.785 315.366 206.975 315.521 207.217 315.643C207.459 315.755 207.753 315.811 208.099 315.811C208.401 315.811 208.652 315.768 208.851 315.681C209.05 315.586 209.197 315.461 209.292 315.305C209.395 315.15 209.447 314.977 209.447 314.787C209.447 314.519 209.382 314.311 209.253 314.164C209.132 314.017 208.95 313.905 208.708 313.827C208.475 313.749 208.185 313.68 207.839 313.62C207.528 313.568 207.234 313.499 206.957 313.412C206.681 313.317 206.434 313.2 206.218 313.062C206.011 312.915 205.842 312.733 205.713 312.517C205.592 312.301 205.531 312.042 205.531 311.739C205.531 311.368 205.626 311.039 205.816 310.754C206.015 310.46 206.292 310.235 206.646 310.079C207.009 309.915 207.433 309.833 207.917 309.833C208.617 309.833 209.184 310.002 209.616 310.339C210.057 310.676 210.312 311.16 210.381 311.791H209.305C209.27 311.463 209.127 311.208 208.877 311.026C208.635 310.844 208.31 310.754 207.904 310.754C207.489 310.754 207.174 310.836 206.957 311C206.741 311.164 206.633 311.38 206.633 311.648C206.633 311.821 206.689 311.981 206.802 312.128C206.914 312.267 207.087 312.383 207.321 312.478C207.563 312.574 207.857 312.651 208.202 312.712C208.652 312.79 209.054 312.893 209.408 313.023C209.763 313.153 210.044 313.347 210.251 313.607C210.467 313.857 210.571 314.22 210.562 314.696C210.571 315.111 210.472 315.47 210.264 315.772C210.057 316.075 209.767 316.312 209.395 316.485C209.024 316.65 208.587 316.732 208.086 316.732ZM212.156 319.429V309.989H213.142L213.233 311.052C213.371 310.836 213.548 310.637 213.764 310.455C213.98 310.265 214.24 310.114 214.542 310.002C214.845 309.889 215.191 309.833 215.58 309.833C216.211 309.833 216.76 309.984 217.227 310.287C217.702 310.589 218.069 311 218.329 311.519C218.588 312.038 218.718 312.63 218.718 313.295C218.718 313.961 218.588 314.553 218.329 315.072C218.069 315.582 217.702 315.988 217.227 316.291C216.751 316.585 216.198 316.732 215.567 316.732C215.039 316.732 214.573 316.624 214.166 316.408C213.769 316.191 213.462 315.889 213.246 315.5V319.429H212.156ZM215.45 315.785C215.865 315.785 216.237 315.681 216.565 315.474C216.894 315.266 217.149 314.977 217.33 314.605C217.521 314.225 217.616 313.784 217.616 313.282C217.616 312.772 217.521 312.331 217.33 311.96C217.149 311.588 216.894 311.298 216.565 311.091C216.237 310.883 215.865 310.78 215.45 310.78C215.018 310.78 214.637 310.883 214.309 311.091C213.98 311.298 213.725 311.588 213.544 311.96C213.362 312.331 213.271 312.772 213.271 313.282C213.271 313.784 213.362 314.225 213.544 314.605C213.725 314.977 213.98 315.266 214.309 315.474C214.637 315.681 215.018 315.785 215.45 315.785ZM222.4 316.732C221.873 316.732 221.432 316.641 221.078 316.459C220.732 316.269 220.473 316.019 220.3 315.707C220.127 315.396 220.04 315.059 220.04 314.696C220.04 314.255 220.153 313.879 220.377 313.568C220.611 313.256 220.935 313.023 221.35 312.867C221.774 312.703 222.266 312.621 222.828 312.621H224.553C224.553 312.206 224.492 311.86 224.371 311.584C224.25 311.307 224.069 311.1 223.827 310.961C223.593 310.823 223.295 310.754 222.932 310.754C222.526 310.754 222.171 310.857 221.869 311.065C221.575 311.264 221.393 311.562 221.324 311.96H220.209C220.261 311.502 220.416 311.117 220.676 310.806C220.944 310.486 221.276 310.244 221.674 310.079C222.072 309.915 222.491 309.833 222.932 309.833C223.537 309.833 224.039 309.945 224.436 310.17C224.843 310.386 225.145 310.693 225.344 311.091C225.543 311.48 225.642 311.938 225.642 312.465V316.576H224.67L224.605 315.422C224.518 315.604 224.406 315.777 224.268 315.941C224.138 316.096 223.982 316.235 223.801 316.356C223.619 316.468 223.412 316.559 223.178 316.628C222.954 316.697 222.694 316.732 222.4 316.732ZM222.569 315.811C222.872 315.811 223.144 315.751 223.386 315.63C223.628 315.5 223.835 315.327 224.008 315.111C224.19 314.886 224.324 314.64 224.41 314.372C224.505 314.095 224.553 313.814 224.553 313.529V313.464H222.919C222.504 313.464 222.167 313.516 221.908 313.62C221.648 313.715 221.462 313.853 221.35 314.035C221.238 314.216 221.181 314.419 221.181 314.644C221.181 314.877 221.233 315.085 221.337 315.266C221.449 315.439 221.609 315.573 221.817 315.668C222.024 315.764 222.275 315.811 222.569 315.811ZM230.296 316.732C229.683 316.732 229.129 316.589 228.636 316.304C228.152 316.01 227.772 315.604 227.495 315.085C227.219 314.566 227.08 313.965 227.08 313.282C227.08 312.591 227.219 311.99 227.495 311.48C227.772 310.961 228.152 310.559 228.636 310.274C229.129 309.98 229.687 309.833 230.309 309.833C231.079 309.833 231.723 310.036 232.241 310.442C232.76 310.84 233.093 311.38 233.24 312.063H232.125C232.03 311.648 231.814 311.329 231.476 311.104C231.139 310.879 230.742 310.767 230.283 310.767C229.912 310.767 229.566 310.862 229.246 311.052C228.926 311.234 228.671 311.514 228.481 311.895C228.291 312.267 228.196 312.729 228.196 313.282C228.196 313.697 228.252 314.065 228.364 314.385C228.477 314.696 228.628 314.96 228.818 315.176C229.008 315.383 229.229 315.543 229.479 315.655C229.739 315.759 230.007 315.811 230.283 315.811C230.595 315.811 230.876 315.759 231.126 315.655C231.377 315.552 231.589 315.405 231.762 315.215C231.943 315.016 232.064 314.778 232.125 314.501H233.24C233.102 315.167 232.769 315.707 232.241 316.122C231.714 316.529 231.066 316.732 230.296 316.732ZM237.652 316.732C237.038 316.732 236.494 316.589 236.018 316.304C235.551 316.019 235.184 315.617 234.916 315.098C234.648 314.579 234.514 313.974 234.514 313.282C234.514 312.582 234.644 311.977 234.903 311.467C235.171 310.948 235.543 310.546 236.018 310.261C236.502 309.976 237.056 309.833 237.678 309.833C238.318 309.833 238.858 309.976 239.299 310.261C239.749 310.546 240.09 310.927 240.323 311.402C240.565 311.869 240.686 312.379 240.686 312.932C240.686 313.019 240.686 313.11 240.686 313.205C240.686 313.3 240.682 313.408 240.674 313.529H235.331V312.686H239.61C239.584 312.072 239.385 311.597 239.014 311.259C238.651 310.922 238.197 310.754 237.652 310.754C237.28 310.754 236.935 310.84 236.615 311.013C236.303 311.177 236.053 311.424 235.863 311.752C235.672 312.081 235.577 312.491 235.577 312.984V313.347C235.577 313.892 235.672 314.35 235.863 314.722C236.061 315.085 236.316 315.357 236.628 315.539C236.948 315.72 237.289 315.811 237.652 315.811C238.11 315.811 238.486 315.712 238.78 315.513C239.074 315.314 239.29 315.037 239.429 314.683H240.505C240.393 315.081 240.207 315.435 239.947 315.746C239.688 316.049 239.364 316.291 238.975 316.472C238.594 316.645 238.153 316.732 237.652 316.732ZM248.557 316.732C247.944 316.732 247.39 316.589 246.897 316.304C246.413 316.01 246.033 315.604 245.756 315.085C245.48 314.566 245.341 313.965 245.341 313.282C245.341 312.591 245.48 311.99 245.756 311.48C246.033 310.961 246.413 310.559 246.897 310.274C247.39 309.98 247.948 309.833 248.57 309.833C249.34 309.833 249.984 310.036 250.502 310.442C251.021 310.84 251.354 311.38 251.501 312.063H250.386C250.291 311.648 250.075 311.329 249.737 311.104C249.4 310.879 249.003 310.767 248.544 310.767C248.173 310.767 247.827 310.862 247.507 311.052C247.187 311.234 246.932 311.514 246.742 311.895C246.552 312.267 246.457 312.729 246.457 313.282C246.457 313.697 246.513 314.065 246.625 314.385C246.738 314.696 246.889 314.96 247.079 315.176C247.269 315.383 247.49 315.543 247.74 315.655C248 315.759 248.268 315.811 248.544 315.811C248.856 315.811 249.137 315.759 249.387 315.655C249.638 315.552 249.85 315.405 250.023 315.215C250.204 315.016 250.325 314.778 250.386 314.501H251.501C251.363 315.167 251.03 315.707 250.502 316.122C249.975 316.529 249.327 316.732 248.557 316.732Z" fill="#EEEFF1"/>
<rect x="294.337" y="299.571" width="126.977" height="25.0089" rx="8.79944" fill="#575B62"/>
<rect x="294.337" y="299.571" width="126.977" height="25.0089" rx="8.79944" stroke="#575B62" stroke-width="0.926257"/>
<path d="M306.494 306.865H314.599C314.599 306.865 315.757 306.865 315.757 308.023V316.128C315.757 316.128 315.757 317.286 314.599 317.286H306.494C306.494 317.286 305.336 317.286 305.336 316.128V308.023C305.336 308.023 305.336 306.865 306.494 306.865Z" stroke="#EEEFF1" stroke-width="0.926257" stroke-linecap="round" stroke-linejoin="round"/>
<path d="M312.284 310.338L308.81 313.811" stroke="#EEEFF1" stroke-width="0.926257" stroke-linecap="round" stroke-linejoin="round"/>
<path d="M308.81 310.338L312.284 313.811" stroke="#EEEFF1" stroke-width="0.926257" stroke-linecap="round" stroke-linejoin="round"/>
<path d="M324.487 316.574V307.497H327.417C328.126 307.497 328.706 307.618 329.155 307.86C329.605 308.093 329.937 308.409 330.154 308.807C330.37 309.204 330.478 309.654 330.478 310.155C330.478 310.639 330.365 311.085 330.141 311.491C329.924 311.897 329.587 312.221 329.129 312.463C328.671 312.706 328.083 312.827 327.366 312.827H325.576V316.574H324.487ZM329.285 316.574L327.288 312.515H328.507L330.569 316.574H329.285ZM325.576 311.971H327.34C328.031 311.971 328.537 311.802 328.857 311.465C329.185 311.128 329.35 310.696 329.35 310.168C329.35 309.632 329.19 309.209 328.87 308.897C328.559 308.578 328.044 308.418 327.327 308.418H325.576V311.971ZM334.607 316.73C333.994 316.73 333.449 316.587 332.973 316.302C332.507 316.017 332.139 315.615 331.871 315.096C331.603 314.577 331.469 313.972 331.469 313.28C331.469 312.58 331.599 311.975 331.858 311.465C332.126 310.946 332.498 310.544 332.973 310.259C333.458 309.974 334.011 309.831 334.633 309.831C335.273 309.831 335.813 309.974 336.254 310.259C336.704 310.544 337.045 310.925 337.279 311.4C337.521 311.867 337.642 312.377 337.642 312.93C337.642 313.017 337.642 313.108 337.642 313.203C337.642 313.298 337.637 313.406 337.629 313.527H332.286V312.684H336.565C336.54 312.07 336.341 311.595 335.969 311.258C335.606 310.92 335.152 310.752 334.607 310.752C334.236 310.752 333.89 310.838 333.57 311.011C333.259 311.175 333.008 311.422 332.818 311.75C332.628 312.079 332.533 312.489 332.533 312.982V313.345C332.533 313.89 332.628 314.348 332.818 314.72C333.017 315.083 333.272 315.355 333.583 315.537C333.903 315.718 334.244 315.809 334.607 315.809C335.066 315.809 335.442 315.71 335.736 315.511C336.029 315.312 336.246 315.035 336.384 314.681H337.46C337.348 315.079 337.162 315.433 336.903 315.744C336.643 316.047 336.319 316.289 335.93 316.47C335.55 316.643 335.109 316.73 334.607 316.73ZM339.112 316.574V309.987H340.097L340.162 310.92C340.37 310.575 340.646 310.307 340.992 310.116C341.346 309.926 341.731 309.831 342.146 309.831C342.475 309.831 342.773 309.879 343.041 309.974C343.318 310.06 343.56 310.198 343.767 310.389C343.975 310.57 344.143 310.799 344.273 311.076C344.498 310.678 344.805 310.371 345.194 310.155C345.583 309.939 345.998 309.831 346.438 309.831C346.948 309.831 347.389 309.93 347.761 310.129C348.133 310.328 348.418 310.635 348.617 311.05C348.816 311.456 348.915 311.966 348.915 312.58V316.574H347.839V312.697C347.839 312.057 347.705 311.577 347.437 311.258C347.169 310.929 346.793 310.765 346.309 310.765C345.98 310.765 345.682 310.851 345.414 311.024C345.155 311.197 344.947 311.452 344.792 311.789C344.636 312.118 344.558 312.524 344.558 313.008V316.574H343.469V312.697C343.469 312.057 343.335 311.577 343.067 311.258C342.799 310.929 342.427 310.765 341.952 310.765C341.623 310.765 341.325 310.851 341.057 311.024C340.798 311.197 340.59 311.452 340.434 311.789C340.279 312.118 340.201 312.524 340.201 313.008V316.574H339.112ZM353.566 316.73C352.953 316.73 352.404 316.587 351.919 316.302C351.435 316.017 351.055 315.615 350.778 315.096C350.502 314.577 350.363 313.972 350.363 313.28C350.363 312.58 350.502 311.971 350.778 311.452C351.064 310.933 351.448 310.536 351.932 310.259C352.425 309.974 352.978 309.831 353.592 309.831C354.206 309.831 354.755 309.974 355.239 310.259C355.723 310.536 356.104 310.933 356.38 311.452C356.657 311.971 356.795 312.58 356.795 313.28C356.795 313.981 356.653 314.59 356.367 315.109C356.091 315.619 355.706 316.017 355.213 316.302C354.729 316.587 354.18 316.73 353.566 316.73ZM353.566 315.796C353.947 315.796 354.297 315.705 354.617 315.524C354.937 315.334 355.192 315.053 355.382 314.681C355.581 314.301 355.68 313.834 355.68 313.28C355.68 312.719 355.585 312.252 355.395 311.88C355.205 311.508 354.95 311.232 354.63 311.05C354.31 310.86 353.964 310.765 353.592 310.765C353.221 310.765 352.87 310.86 352.542 311.05C352.222 311.232 351.963 311.508 351.764 311.88C351.574 312.252 351.479 312.719 351.479 313.28C351.479 313.834 351.574 314.301 351.764 314.681C351.963 315.053 352.218 315.334 352.529 315.524C352.849 315.705 353.195 315.796 353.566 315.796ZM359.912 316.574L357.409 309.987H358.551L360.548 315.524L362.545 309.987H363.66L361.17 316.574H359.912ZM367.419 316.73C366.805 316.73 366.26 316.587 365.785 316.302C365.318 316.017 364.951 315.615 364.683 315.096C364.415 314.577 364.281 313.972 364.281 313.28C364.281 312.58 364.41 311.975 364.67 311.465C364.938 310.946 365.31 310.544 365.785 310.259C366.269 309.974 366.822 309.831 367.445 309.831C368.085 309.831 368.625 309.974 369.066 310.259C369.515 310.544 369.857 310.925 370.09 311.4C370.332 311.867 370.453 312.377 370.453 312.93C370.453 313.017 370.453 313.108 370.453 313.203C370.453 313.298 370.449 313.406 370.44 313.527H365.098V312.684H369.377C369.351 312.07 369.152 311.595 368.78 311.258C368.417 310.92 367.964 310.752 367.419 310.752C367.047 310.752 366.701 310.838 366.381 311.011C366.07 311.175 365.82 311.422 365.629 311.75C365.439 312.079 365.344 312.489 365.344 312.982V313.345C365.344 313.89 365.439 314.348 365.629 314.72C365.828 315.083 366.083 315.355 366.394 315.537C366.714 315.718 367.056 315.809 367.419 315.809C367.877 315.809 368.253 315.71 368.547 315.511C368.841 315.312 369.057 315.035 369.195 314.681H370.272C370.159 315.079 369.974 315.433 369.714 315.744C369.455 316.047 369.131 316.289 368.742 316.47C368.361 316.643 367.92 316.73 367.419 316.73ZM375.445 316.574V307.497H378.376C379.085 307.497 379.664 307.618 380.114 307.86C380.563 308.093 380.896 308.409 381.112 308.807C381.328 309.204 381.436 309.654 381.436 310.155C381.436 310.639 381.324 311.085 381.099 311.491C380.883 311.897 380.546 312.221 380.088 312.463C379.63 312.706 379.042 312.827 378.324 312.827H376.535V316.574H375.445ZM380.243 316.574L378.246 312.515H379.465L381.527 316.574H380.243ZM376.535 311.971H378.298C378.99 311.971 379.496 311.802 379.815 311.465C380.144 311.128 380.308 310.696 380.308 310.168C380.308 309.632 380.148 309.209 379.828 308.897C379.517 308.578 379.003 308.418 378.285 308.418H376.535V311.971ZM383.196 316.574V309.987H384.286V316.574H383.196ZM383.741 308.612C383.525 308.612 383.343 308.543 383.196 308.405C383.058 308.258 382.989 308.076 382.989 307.86C382.989 307.644 383.058 307.471 383.196 307.341C383.343 307.203 383.525 307.134 383.741 307.134C383.949 307.134 384.126 307.203 384.273 307.341C384.42 307.471 384.493 307.644 384.493 307.86C384.493 308.076 384.42 308.258 384.273 308.405C384.126 308.543 383.949 308.612 383.741 308.612ZM388.801 319.583C388.214 319.583 387.691 319.505 387.232 319.349C386.783 319.202 386.428 318.973 386.169 318.662C385.918 318.351 385.793 317.966 385.793 317.508C385.793 317.309 385.832 317.097 385.91 316.872C385.996 316.648 386.139 316.427 386.338 316.211C386.545 315.995 386.835 315.8 387.206 315.628L387.972 316.068C387.513 316.259 387.211 316.475 387.064 316.717C386.925 316.959 386.856 317.188 386.856 317.404C386.856 317.689 386.938 317.927 387.103 318.117C387.276 318.308 387.509 318.45 387.803 318.545C388.097 318.64 388.43 318.688 388.801 318.688C389.182 318.688 389.506 318.636 389.774 318.532C390.042 318.429 390.25 318.282 390.396 318.091C390.552 317.901 390.63 317.681 390.63 317.43C390.63 317.119 390.513 316.86 390.28 316.652C390.055 316.453 389.627 316.336 388.996 316.302C388.477 316.267 388.045 316.22 387.699 316.159C387.353 316.099 387.064 316.03 386.83 315.952C386.606 315.865 386.415 315.77 386.26 315.666C386.113 315.563 385.979 315.455 385.858 315.342V315.044L387.129 313.786L388.088 314.123L386.766 315.303L386.934 314.837C387.029 314.906 387.12 314.971 387.206 315.031C387.293 315.083 387.41 315.135 387.557 315.187C387.712 315.23 387.92 315.273 388.179 315.316C388.447 315.351 388.801 315.386 389.242 315.42C389.839 315.463 390.314 315.567 390.669 315.731C391.032 315.896 391.296 316.116 391.46 316.393C391.624 316.669 391.706 317.002 391.706 317.391C391.706 317.754 391.602 318.1 391.395 318.429C391.196 318.766 390.881 319.042 390.448 319.259C390.025 319.475 389.476 319.583 388.801 319.583ZM388.788 314.512C388.244 314.512 387.781 314.409 387.401 314.201C387.021 313.994 386.731 313.713 386.532 313.358C386.333 313.004 386.234 312.606 386.234 312.165C386.234 311.733 386.333 311.344 386.532 310.998C386.731 310.644 387.021 310.363 387.401 310.155C387.781 309.939 388.244 309.831 388.788 309.831C389.342 309.831 389.809 309.939 390.189 310.155C390.569 310.363 390.859 310.644 391.058 310.998C391.257 311.344 391.356 311.733 391.356 312.165C391.356 312.606 391.257 313.004 391.058 313.358C390.859 313.713 390.569 313.994 390.189 314.201C389.809 314.409 389.342 314.512 388.788 314.512ZM388.788 313.618C389.264 313.618 389.636 313.497 389.904 313.255C390.172 313.004 390.306 312.641 390.306 312.165C390.306 311.698 390.172 311.344 389.904 311.102C389.636 310.86 389.264 310.739 388.788 310.739C388.33 310.739 387.959 310.86 387.673 311.102C387.397 311.344 387.258 311.698 387.258 312.165C387.258 312.641 387.397 313.004 387.673 313.255C387.959 313.497 388.33 313.618 388.788 313.618ZM389.878 310.907L389.554 309.987H392.225V310.804L389.878 310.907ZM393.477 316.574V307.238H394.566V311.089C394.782 310.691 395.085 310.384 395.474 310.168C395.872 309.943 396.304 309.831 396.771 309.831C397.272 309.831 397.709 309.93 398.08 310.129C398.452 310.328 398.737 310.635 398.936 311.05C399.135 311.456 399.234 311.975 399.234 312.606V316.574H398.158V312.723C398.158 312.074 398.016 311.586 397.73 311.258C397.454 310.929 397.056 310.765 396.537 310.765C396.165 310.765 395.828 310.856 395.526 311.037C395.232 311.21 394.998 311.465 394.826 311.802C394.653 312.131 394.566 312.541 394.566 313.034V316.574H393.477ZM403.529 316.574C403.14 316.574 402.803 316.514 402.518 316.393C402.232 316.272 402.012 316.068 401.856 315.783C401.709 315.489 401.636 315.096 401.636 314.603V310.907H400.495V309.987H401.636L401.778 308.379H402.725V309.987H404.631V310.907H402.725V314.603C402.725 315.009 402.807 315.286 402.971 315.433C403.136 315.571 403.425 315.641 403.84 315.641H404.566V316.574H403.529ZM408.528 316.73C407.975 316.73 407.495 316.639 407.089 316.458C406.683 316.276 406.363 316.021 406.129 315.692C405.905 315.364 405.766 314.979 405.714 314.538H406.83C406.873 314.772 406.959 314.984 407.089 315.174C407.227 315.364 407.418 315.52 407.66 315.641C407.902 315.753 408.196 315.809 408.541 315.809C408.844 315.809 409.095 315.766 409.294 315.679C409.492 315.584 409.639 315.459 409.734 315.303C409.838 315.148 409.89 314.975 409.89 314.785C409.89 314.517 409.825 314.309 409.695 314.162C409.574 314.015 409.393 313.903 409.151 313.825C408.917 313.747 408.628 313.678 408.282 313.618C407.971 313.566 407.677 313.497 407.4 313.41C407.124 313.315 406.877 313.198 406.661 313.06C406.454 312.913 406.285 312.731 406.155 312.515C406.034 312.299 405.974 312.04 405.974 311.737C405.974 311.366 406.069 311.037 406.259 310.752C406.458 310.458 406.735 310.233 407.089 310.077C407.452 309.913 407.876 309.831 408.36 309.831C409.06 309.831 409.626 310 410.059 310.337C410.499 310.674 410.755 311.158 410.824 311.789H409.747C409.713 311.461 409.57 311.206 409.319 311.024C409.077 310.843 408.753 310.752 408.347 310.752C407.932 310.752 407.616 310.834 407.4 310.998C407.184 311.162 407.076 311.379 407.076 311.647C407.076 311.819 407.132 311.979 407.245 312.126C407.357 312.265 407.53 312.381 407.763 312.476C408.005 312.572 408.299 312.649 408.645 312.71C409.095 312.788 409.497 312.891 409.851 313.021C410.206 313.151 410.487 313.345 410.694 313.605C410.91 313.855 411.014 314.218 411.005 314.694C411.014 315.109 410.914 315.468 410.707 315.77C410.499 316.073 410.21 316.311 409.838 316.483C409.466 316.648 409.03 316.73 408.528 316.73Z" fill="#EEEFF1"/>
</g>
<defs>
<filter id="filter0_f_2483_87624" x="-150" y="0" width="699" height="540" filterUnits="userSpaceOnUse" color-interpolation-filters="sRGB">
<feFlood flood-opacity="0" result="BackgroundImageFix"/>
<feBlend mode="normal" in="SourceGraphic" in2="BackgroundImageFix" result="shape"/>
<feGaussianBlur stdDeviation="100" result="effect1_foregroundBlur_2483_87624"/>
</filter>
<filter id="filter1_d_2483_87624" x="42.5899" y="196.295" width="802.877" height="150.054" filterUnits="userSpaceOnUse" color-interpolation-filters="sRGB">
<feFlood flood-opacity="0" result="BackgroundImageFix"/>
<feColorMatrix in="SourceAlpha" type="matrix" values="0 0 0 0 0 0 0 0 0 0 0 0 0 0 0 0 0 0 127 0" result="hardAlpha"/>
<feOffset dy="3.70503"/>
<feGaussianBlur stdDeviation="3.70503"/>
<feComposite in2="hardAlpha" operator="out"/>
<feColorMatrix type="matrix" values="0 0 0 0 0 0 0 0 0 0 0 0 0 0 0 0 0 0 0.2 0"/>
<feBlend mode="normal" in2="BackgroundImageFix" result="effect1_dropShadow_2483_87624"/>
<feBlend mode="normal" in="SourceGraphic" in2="effect1_dropShadow_2483_87624" result="shape"/>
</filter>
<linearGradient id="paint0_linear_2483_87624" x1="199.5" y1="200" x2="199.5" y2="340" gradientUnits="userSpaceOnUse">
<stop stop-color="#0D0D11"/>
<stop offset="1" stop-color="#0D0D11" stop-opacity="0.5"/>
</linearGradient>
</defs>
</svg>
