<svg width="445" height="268" viewBox="0 0 445 268" fill="none" xmlns="http://www.w3.org/2000/svg">
<g filter="url(#filter0_d_2654_37847)">
<path d="M54 20.5H460C465.247 20.5 469.5 24.7533 469.5 30V59.5H44.5V30C44.5 24.7533 48.7533 20.5 54 20.5Z" fill="#0C0D0E" stroke="#86888E"/>
<rect x="44.5" y="59.5" width="436" height="35" fill="#1D1F22" stroke="#86888E"/>
<rect x="44.5" y="129.5" width="436" height="35" fill="#1D1F22" stroke="#86888E"/>
<path d="M44.5 164.5H469.5V190C469.5 195.247 465.247 199.5 460 199.5H54C48.7533 199.5 44.5 195.247 44.5 190V164.5Z" fill="#1D1F22" stroke="#86888E"/>
<path d="M57.234 82.168C56.646 82.168 56.1373 82.056 55.708 81.832C55.288 81.608 54.9613 81.286 54.728 80.866C54.504 80.446 54.392 79.9467 54.392 79.368H55.582C55.582 79.6947 55.6333 79.9933 55.736 80.264C55.848 80.5253 56.0207 80.7353 56.254 80.894C56.4967 81.0433 56.8187 81.118 57.22 81.118C57.612 81.118 57.92 81.0433 58.144 80.894C58.3773 80.7447 58.5407 80.544 58.634 80.292C58.7367 80.0307 58.788 79.7367 58.788 79.41V72.2H59.964V79.41C59.964 80.2873 59.7213 80.9687 59.236 81.454C58.76 81.93 58.0927 82.168 57.234 82.168ZM65.1437 82.168C64.4903 82.168 63.9023 82.0187 63.3797 81.72C62.857 81.412 62.4463 80.9827 62.1477 80.432C61.849 79.872 61.6997 79.2233 61.6997 78.486C61.6997 77.73 61.849 77.0767 62.1477 76.526C62.4557 75.966 62.871 75.5367 63.3937 75.238C63.9257 74.93 64.5183 74.776 65.1717 74.776C65.8437 74.776 66.4363 74.93 66.9497 75.238C67.4723 75.5367 67.883 75.966 68.1817 76.526C68.4897 77.0767 68.6437 77.7253 68.6437 78.472C68.6437 79.2187 68.4897 79.872 68.1817 80.432C67.8737 80.9827 67.4583 81.412 66.9357 81.72C66.413 82.0187 65.8157 82.168 65.1437 82.168ZM65.1577 81.16C65.559 81.16 65.9323 81.062 66.2777 80.866C66.623 80.6607 66.903 80.3573 67.1177 79.956C67.3323 79.5547 67.4397 79.06 67.4397 78.472C67.4397 77.8747 67.3323 77.38 67.1177 76.988C66.9123 76.5867 66.637 76.288 66.2917 76.092C65.9557 75.8867 65.5823 75.784 65.1717 75.784C64.7797 75.784 64.4063 75.8867 64.0517 76.092C63.7063 76.288 63.4263 76.5867 63.2117 76.988C63.0063 77.38 62.9037 77.8747 62.9037 78.472C62.9037 79.06 63.0063 79.5547 63.2117 79.956C63.4263 80.3573 63.7017 80.6607 64.0377 80.866C64.383 81.062 64.7563 81.16 65.1577 81.16ZM70.2925 82V71.92H71.4685V76.134C71.7018 75.714 72.0285 75.3827 72.4485 75.14C72.8778 74.8973 73.3445 74.776 73.8485 74.776C74.3898 74.776 74.8612 74.888 75.2625 75.112C75.6638 75.3267 75.9718 75.658 76.1865 76.106C76.4012 76.554 76.5085 77.1187 76.5085 77.8V82H75.3465V77.926C75.3465 77.2167 75.1972 76.6847 74.8985 76.33C74.5998 75.966 74.1658 75.784 73.5965 75.784C73.1952 75.784 72.8312 75.882 72.5045 76.078C72.1872 76.274 71.9352 76.554 71.7485 76.918C71.5618 77.282 71.4685 77.73 71.4685 78.262V82H70.2925ZM78.3452 82V74.944H79.4092L79.4652 76.176C79.6892 75.7373 80.0066 75.3967 80.4172 75.154C80.8372 74.902 81.3132 74.776 81.8452 74.776C82.3959 74.776 82.8719 74.888 83.2732 75.112C83.6746 75.3267 83.9872 75.658 84.2112 76.106C84.4352 76.5447 84.5472 77.1047 84.5472 77.786V82H83.3712V77.912C83.3712 77.2027 83.2126 76.6707 82.8952 76.316C82.5872 75.9613 82.1486 75.784 81.5792 75.784C81.1872 75.784 80.8372 75.882 80.5292 76.078C80.2212 76.2647 79.9739 76.54 79.7872 76.904C79.6099 77.2587 79.5212 77.702 79.5212 78.234V82H78.3452ZM90.173 82V72.2H93.057C94.205 72.2 95.1477 72.4007 95.885 72.802C96.6317 73.194 97.1824 73.7587 97.537 74.496C97.901 75.224 98.083 76.1013 98.083 77.128C98.083 78.136 97.901 79.004 97.537 79.732C97.1824 80.46 96.6317 81.02 95.885 81.412C95.1477 81.804 94.205 82 93.057 82H90.173ZM91.349 81.02H93.029C93.981 81.02 94.737 80.866 95.297 80.558C95.857 80.2407 96.2584 79.7927 96.501 79.214C96.7437 78.626 96.865 77.9307 96.865 77.128C96.865 76.3067 96.7437 75.602 96.501 75.014C96.2584 74.426 95.857 73.9733 95.297 73.656C94.737 73.3387 93.981 73.18 93.029 73.18H91.349V81.02ZM102.892 82.168C102.238 82.168 101.65 82.0187 101.128 81.72C100.605 81.412 100.194 80.9827 99.8957 80.432C99.5971 79.872 99.4477 79.2233 99.4477 78.486C99.4477 77.73 99.5971 77.0767 99.8957 76.526C100.204 75.966 100.619 75.5367 101.142 75.238C101.674 74.93 102.266 74.776 102.92 74.776C103.592 74.776 104.184 74.93 104.698 75.238C105.22 75.5367 105.631 75.966 105.93 76.526C106.238 77.0767 106.392 77.7253 106.392 78.472C106.392 79.2187 106.238 79.872 105.93 80.432C105.622 80.9827 105.206 81.412 104.684 81.72C104.161 82.0187 103.564 82.168 102.892 82.168ZM102.906 81.16C103.307 81.16 103.68 81.062 104.026 80.866C104.371 80.6607 104.651 80.3573 104.866 79.956C105.08 79.5547 105.188 79.06 105.188 78.472C105.188 77.8747 105.08 77.38 104.866 76.988C104.66 76.5867 104.385 76.288 104.04 76.092C103.704 75.8867 103.33 75.784 102.92 75.784C102.528 75.784 102.154 75.8867 101.8 76.092C101.454 76.288 101.174 76.5867 100.96 76.988C100.754 77.38 100.652 77.8747 100.652 78.472C100.652 79.06 100.754 79.5547 100.96 79.956C101.174 80.3573 101.45 80.6607 101.786 80.866C102.131 81.062 102.504 81.16 102.906 81.16ZM111.135 82.168C110.472 82.168 109.884 82.014 109.371 81.706C108.867 81.398 108.47 80.9687 108.181 80.418C107.891 79.858 107.747 79.2093 107.747 78.472C107.747 77.7253 107.887 77.0767 108.167 76.526C108.456 75.9753 108.857 75.546 109.371 75.238C109.893 74.93 110.491 74.776 111.163 74.776C111.853 74.776 112.437 74.93 112.913 75.238C113.398 75.546 113.767 75.952 114.019 76.456C114.28 76.9507 114.411 77.4967 114.411 78.094C114.411 78.1873 114.411 78.2853 114.411 78.388C114.411 78.4907 114.406 78.6073 114.397 78.738H108.629V77.828H113.263C113.235 77.184 113.02 76.68 112.619 76.316C112.227 75.952 111.732 75.77 111.135 75.77C110.733 75.77 110.36 75.8633 110.015 76.05C109.679 76.2273 109.408 76.4933 109.203 76.848C108.997 77.1933 108.895 77.6273 108.895 78.15V78.542C108.895 79.1207 108.997 79.606 109.203 79.998C109.417 80.39 109.693 80.684 110.029 80.88C110.374 81.076 110.743 81.174 111.135 81.174C111.629 81.174 112.035 81.0667 112.353 80.852C112.679 80.628 112.913 80.3293 113.053 79.956H114.215C114.103 80.376 113.907 80.754 113.627 81.09C113.347 81.426 112.997 81.692 112.577 81.888C112.166 82.0747 111.685 82.168 111.135 82.168Z" fill="#EEEFF1"/>
<path d="M57.234 152.168C56.646 152.168 56.1373 152.056 55.708 151.832C55.288 151.608 54.9613 151.286 54.728 150.866C54.504 150.446 54.392 149.947 54.392 149.368H55.582C55.582 149.695 55.6333 149.993 55.736 150.264C55.848 150.525 56.0207 150.735 56.254 150.894C56.4967 151.043 56.8187 151.118 57.22 151.118C57.612 151.118 57.92 151.043 58.144 150.894C58.3773 150.745 58.5407 150.544 58.634 150.292C58.7367 150.031 58.788 149.737 58.788 149.41V142.2H59.964V149.41C59.964 150.287 59.7213 150.969 59.236 151.454C58.76 151.93 58.0927 152.168 57.234 152.168ZM65.1437 152.168C64.4903 152.168 63.9023 152.019 63.3797 151.72C62.857 151.412 62.4463 150.983 62.1477 150.432C61.849 149.872 61.6997 149.223 61.6997 148.486C61.6997 147.73 61.849 147.077 62.1477 146.526C62.4557 145.966 62.871 145.537 63.3937 145.238C63.9257 144.93 64.5183 144.776 65.1717 144.776C65.8437 144.776 66.4363 144.93 66.9497 145.238C67.4723 145.537 67.883 145.966 68.1817 146.526C68.4897 147.077 68.6437 147.725 68.6437 148.472C68.6437 149.219 68.4897 149.872 68.1817 150.432C67.8737 150.983 67.4583 151.412 66.9357 151.72C66.413 152.019 65.8157 152.168 65.1437 152.168ZM65.1577 151.16C65.559 151.16 65.9323 151.062 66.2777 150.866C66.623 150.661 66.903 150.357 67.1177 149.956C67.3323 149.555 67.4397 149.06 67.4397 148.472C67.4397 147.875 67.3323 147.38 67.1177 146.988C66.9123 146.587 66.637 146.288 66.2917 146.092C65.9557 145.887 65.5823 145.784 65.1717 145.784C64.7797 145.784 64.4063 145.887 64.0517 146.092C63.7063 146.288 63.4263 146.587 63.2117 146.988C63.0063 147.38 62.9037 147.875 62.9037 148.472C62.9037 149.06 63.0063 149.555 63.2117 149.956C63.4263 150.357 63.7017 150.661 64.0377 150.866C64.383 151.062 64.7563 151.16 65.1577 151.16ZM70.2925 152V141.92H71.4685V146.134C71.7018 145.714 72.0285 145.383 72.4485 145.14C72.8778 144.897 73.3445 144.776 73.8485 144.776C74.3898 144.776 74.8612 144.888 75.2625 145.112C75.6638 145.327 75.9718 145.658 76.1865 146.106C76.4012 146.554 76.5085 147.119 76.5085 147.8V152H75.3465V147.926C75.3465 147.217 75.1972 146.685 74.8985 146.33C74.5998 145.966 74.1658 145.784 73.5965 145.784C73.1952 145.784 72.8312 145.882 72.5045 146.078C72.1872 146.274 71.9352 146.554 71.7485 146.918C71.5618 147.282 71.4685 147.73 71.4685 148.262V152H70.2925ZM78.3452 152V144.944H79.4092L79.4652 146.176C79.6892 145.737 80.0066 145.397 80.4172 145.154C80.8372 144.902 81.3132 144.776 81.8452 144.776C82.3959 144.776 82.8719 144.888 83.2732 145.112C83.6746 145.327 83.9872 145.658 84.2112 146.106C84.4352 146.545 84.5472 147.105 84.5472 147.786V152H83.3712V147.912C83.3712 147.203 83.2126 146.671 82.8952 146.316C82.5872 145.961 82.1486 145.784 81.5792 145.784C81.1872 145.784 80.8372 145.882 80.5292 146.078C80.2212 146.265 79.9739 146.54 79.7872 146.904C79.6099 147.259 79.5212 147.702 79.5212 148.234V152H78.3452ZM90.173 152V142.2H93.057C94.205 142.2 95.1477 142.401 95.885 142.802C96.6317 143.194 97.1824 143.759 97.537 144.496C97.901 145.224 98.083 146.101 98.083 147.128C98.083 148.136 97.901 149.004 97.537 149.732C97.1824 150.46 96.6317 151.02 95.885 151.412C95.1477 151.804 94.205 152 93.057 152H90.173ZM91.349 151.02H93.029C93.981 151.02 94.737 150.866 95.297 150.558C95.857 150.241 96.2584 149.793 96.501 149.214C96.7437 148.626 96.865 147.931 96.865 147.128C96.865 146.307 96.7437 145.602 96.501 145.014C96.2584 144.426 95.857 143.973 95.297 143.656C94.737 143.339 93.981 143.18 93.029 143.18H91.349V151.02ZM102.892 152.168C102.238 152.168 101.65 152.019 101.128 151.72C100.605 151.412 100.194 150.983 99.8957 150.432C99.5971 149.872 99.4477 149.223 99.4477 148.486C99.4477 147.73 99.5971 147.077 99.8957 146.526C100.204 145.966 100.619 145.537 101.142 145.238C101.674 144.93 102.266 144.776 102.92 144.776C103.592 144.776 104.184 144.93 104.698 145.238C105.22 145.537 105.631 145.966 105.93 146.526C106.238 147.077 106.392 147.725 106.392 148.472C106.392 149.219 106.238 149.872 105.93 150.432C105.622 150.983 105.206 151.412 104.684 151.72C104.161 152.019 103.564 152.168 102.892 152.168ZM102.906 151.16C103.307 151.16 103.68 151.062 104.026 150.866C104.371 150.661 104.651 150.357 104.866 149.956C105.08 149.555 105.188 149.06 105.188 148.472C105.188 147.875 105.08 147.38 104.866 146.988C104.66 146.587 104.385 146.288 104.04 146.092C103.704 145.887 103.33 145.784 102.92 145.784C102.528 145.784 102.154 145.887 101.8 146.092C101.454 146.288 101.174 146.587 100.96 146.988C100.754 147.38 100.652 147.875 100.652 148.472C100.652 149.06 100.754 149.555 100.96 149.956C101.174 150.357 101.45 150.661 101.786 150.866C102.131 151.062 102.504 151.16 102.906 151.16ZM111.135 152.168C110.472 152.168 109.884 152.014 109.371 151.706C108.867 151.398 108.47 150.969 108.181 150.418C107.891 149.858 107.747 149.209 107.747 148.472C107.747 147.725 107.887 147.077 108.167 146.526C108.456 145.975 108.857 145.546 109.371 145.238C109.893 144.93 110.491 144.776 111.163 144.776C111.853 144.776 112.437 144.93 112.913 145.238C113.398 145.546 113.767 145.952 114.019 146.456C114.28 146.951 114.411 147.497 114.411 148.094C114.411 148.187 114.411 148.285 114.411 148.388C114.411 148.491 114.406 148.607 114.397 148.738H108.629V147.828H113.263C113.235 147.184 113.02 146.68 112.619 146.316C112.227 145.952 111.732 145.77 111.135 145.77C110.733 145.77 110.36 145.863 110.015 146.05C109.679 146.227 109.408 146.493 109.203 146.848C108.997 147.193 108.895 147.627 108.895 148.15V148.542C108.895 149.121 108.997 149.606 109.203 149.998C109.417 150.39 109.693 150.684 110.029 150.88C110.374 151.076 110.743 151.174 111.135 151.174C111.629 151.174 112.035 151.067 112.353 150.852C112.679 150.628 112.913 150.329 113.053 149.956H114.215C114.103 150.376 113.907 150.754 113.627 151.09C113.347 151.426 112.997 151.692 112.577 151.888C112.166 152.075 111.685 152.168 111.135 152.168Z" fill="#EEEFF1"/>
<path d="M57.234 187.168C56.646 187.168 56.1373 187.056 55.708 186.832C55.288 186.608 54.9613 186.286 54.728 185.866C54.504 185.446 54.392 184.947 54.392 184.368H55.582C55.582 184.695 55.6333 184.993 55.736 185.264C55.848 185.525 56.0207 185.735 56.254 185.894C56.4967 186.043 56.8187 186.118 57.22 186.118C57.612 186.118 57.92 186.043 58.144 185.894C58.3773 185.745 58.5407 185.544 58.634 185.292C58.7367 185.031 58.788 184.737 58.788 184.41V177.2H59.964V184.41C59.964 185.287 59.7213 185.969 59.236 186.454C58.76 186.93 58.0927 187.168 57.234 187.168ZM65.1437 187.168C64.4903 187.168 63.9023 187.019 63.3797 186.72C62.857 186.412 62.4463 185.983 62.1477 185.432C61.849 184.872 61.6997 184.223 61.6997 183.486C61.6997 182.73 61.849 182.077 62.1477 181.526C62.4557 180.966 62.871 180.537 63.3937 180.238C63.9257 179.93 64.5183 179.776 65.1717 179.776C65.8437 179.776 66.4363 179.93 66.9497 180.238C67.4723 180.537 67.883 180.966 68.1817 181.526C68.4897 182.077 68.6437 182.725 68.6437 183.472C68.6437 184.219 68.4897 184.872 68.1817 185.432C67.8737 185.983 67.4583 186.412 66.9357 186.72C66.413 187.019 65.8157 187.168 65.1437 187.168ZM65.1577 186.16C65.559 186.16 65.9323 186.062 66.2777 185.866C66.623 185.661 66.903 185.357 67.1177 184.956C67.3323 184.555 67.4397 184.06 67.4397 183.472C67.4397 182.875 67.3323 182.38 67.1177 181.988C66.9123 181.587 66.637 181.288 66.2917 181.092C65.9557 180.887 65.5823 180.784 65.1717 180.784C64.7797 180.784 64.4063 180.887 64.0517 181.092C63.7063 181.288 63.4263 181.587 63.2117 181.988C63.0063 182.38 62.9037 182.875 62.9037 183.472C62.9037 184.06 63.0063 184.555 63.2117 184.956C63.4263 185.357 63.7017 185.661 64.0377 185.866C64.383 186.062 64.7563 186.16 65.1577 186.16ZM70.2925 187V176.92H71.4685V181.134C71.7018 180.714 72.0285 180.383 72.4485 180.14C72.8778 179.897 73.3445 179.776 73.8485 179.776C74.3898 179.776 74.8612 179.888 75.2625 180.112C75.6638 180.327 75.9718 180.658 76.1865 181.106C76.4012 181.554 76.5085 182.119 76.5085 182.8V187H75.3465V182.926C75.3465 182.217 75.1972 181.685 74.8985 181.33C74.5998 180.966 74.1658 180.784 73.5965 180.784C73.1952 180.784 72.8312 180.882 72.5045 181.078C72.1872 181.274 71.9352 181.554 71.7485 181.918C71.5618 182.282 71.4685 182.73 71.4685 183.262V187H70.2925ZM78.3452 187V179.944H79.4092L79.4652 181.176C79.6892 180.737 80.0066 180.397 80.4172 180.154C80.8372 179.902 81.3132 179.776 81.8452 179.776C82.3959 179.776 82.8719 179.888 83.2732 180.112C83.6746 180.327 83.9872 180.658 84.2112 181.106C84.4352 181.545 84.5472 182.105 84.5472 182.786V187H83.3712V182.912C83.3712 182.203 83.2126 181.671 82.8952 181.316C82.5872 180.961 82.1486 180.784 81.5792 180.784C81.1872 180.784 80.8372 180.882 80.5292 181.078C80.2212 181.265 79.9739 181.54 79.7872 181.904C79.6099 182.259 79.5212 182.702 79.5212 183.234V187H78.3452ZM90.173 187V177.2H93.057C94.205 177.2 95.1477 177.401 95.885 177.802C96.6317 178.194 97.1824 178.759 97.537 179.496C97.901 180.224 98.083 181.101 98.083 182.128C98.083 183.136 97.901 184.004 97.537 184.732C97.1824 185.46 96.6317 186.02 95.885 186.412C95.1477 186.804 94.205 187 93.057 187H90.173ZM91.349 186.02H93.029C93.981 186.02 94.737 185.866 95.297 185.558C95.857 185.241 96.2584 184.793 96.501 184.214C96.7437 183.626 96.865 182.931 96.865 182.128C96.865 181.307 96.7437 180.602 96.501 180.014C96.2584 179.426 95.857 178.973 95.297 178.656C94.737 178.339 93.981 178.18 93.029 178.18H91.349V186.02ZM102.892 187.168C102.238 187.168 101.65 187.019 101.128 186.72C100.605 186.412 100.194 185.983 99.8957 185.432C99.5971 184.872 99.4477 184.223 99.4477 183.486C99.4477 182.73 99.5971 182.077 99.8957 181.526C100.204 180.966 100.619 180.537 101.142 180.238C101.674 179.93 102.266 179.776 102.92 179.776C103.592 179.776 104.184 179.93 104.698 180.238C105.22 180.537 105.631 180.966 105.93 181.526C106.238 182.077 106.392 182.725 106.392 183.472C106.392 184.219 106.238 184.872 105.93 185.432C105.622 185.983 105.206 186.412 104.684 186.72C104.161 187.019 103.564 187.168 102.892 187.168ZM102.906 186.16C103.307 186.16 103.68 186.062 104.026 185.866C104.371 185.661 104.651 185.357 104.866 184.956C105.08 184.555 105.188 184.06 105.188 183.472C105.188 182.875 105.08 182.38 104.866 181.988C104.66 181.587 104.385 181.288 104.04 181.092C103.704 180.887 103.33 180.784 102.92 180.784C102.528 180.784 102.154 180.887 101.8 181.092C101.454 181.288 101.174 181.587 100.96 181.988C100.754 182.38 100.652 182.875 100.652 183.472C100.652 184.06 100.754 184.555 100.96 184.956C101.174 185.357 101.45 185.661 101.786 185.866C102.131 186.062 102.504 186.16 102.906 186.16ZM111.135 187.168C110.472 187.168 109.884 187.014 109.371 186.706C108.867 186.398 108.47 185.969 108.181 185.418C107.891 184.858 107.747 184.209 107.747 183.472C107.747 182.725 107.887 182.077 108.167 181.526C108.456 180.975 108.857 180.546 109.371 180.238C109.893 179.93 110.491 179.776 111.163 179.776C111.853 179.776 112.437 179.93 112.913 180.238C113.398 180.546 113.767 180.952 114.019 181.456C114.28 181.951 114.411 182.497 114.411 183.094C114.411 183.187 114.411 183.285 114.411 183.388C114.411 183.491 114.406 183.607 114.397 183.738H108.629V182.828H113.263C113.235 182.184 113.02 181.68 112.619 181.316C112.227 180.952 111.732 180.77 111.135 180.77C110.733 180.77 110.36 180.863 110.015 181.05C109.679 181.227 109.408 181.493 109.203 181.848C108.997 182.193 108.895 182.627 108.895 183.15V183.542C108.895 184.121 108.997 184.606 109.203 184.998C109.417 185.39 109.693 185.684 110.029 185.88C110.374 186.076 110.743 186.174 111.135 186.174C111.629 186.174 112.035 186.067 112.353 185.852C112.679 185.628 112.913 185.329 113.053 184.956H114.215C114.103 185.376 113.907 185.754 113.627 186.09C113.347 186.426 112.997 186.692 112.577 186.888C112.166 187.075 111.685 187.168 111.135 187.168Z" fill="#EEEFF1"/>
<path d="M220.809 82.168C220.137 82.168 219.525 82.0327 218.975 81.762C218.433 81.4913 217.999 81.0807 217.673 80.53C217.346 79.97 217.183 79.256 217.183 78.388V72.2H218.359V78.402C218.359 79.0367 218.461 79.5547 218.667 79.956C218.881 80.3573 219.175 80.6513 219.549 80.838C219.922 81.0247 220.351 81.118 220.837 81.118C221.331 81.118 221.761 81.0247 222.125 80.838C222.489 80.6513 222.773 80.3573 222.979 79.956C223.184 79.5547 223.287 79.0367 223.287 78.402V72.2H224.463V78.388C224.463 79.256 224.299 79.97 223.973 80.53C223.646 81.0807 223.207 81.4913 222.657 81.762C222.106 82.0327 221.49 82.168 220.809 82.168ZM229.045 82.168C228.457 82.168 227.943 82.07 227.505 81.874C227.075 81.678 226.73 81.4073 226.469 81.062C226.217 80.7073 226.063 80.292 226.007 79.816H227.211C227.257 80.0587 227.355 80.2827 227.505 80.488C227.654 80.6933 227.855 80.8613 228.107 80.992C228.368 81.1133 228.685 81.174 229.059 81.174C229.385 81.174 229.656 81.1273 229.871 81.034C230.085 80.9313 230.244 80.796 230.347 80.628C230.459 80.46 230.515 80.278 230.515 80.082C230.515 79.7927 230.445 79.5733 230.305 79.424C230.174 79.2747 229.978 79.158 229.717 79.074C229.455 78.9807 229.138 78.9013 228.765 78.836C228.457 78.78 228.153 78.7053 227.855 78.612C227.556 78.5187 227.29 78.3973 227.057 78.248C226.823 78.0893 226.637 77.898 226.497 77.674C226.366 77.45 226.301 77.1747 226.301 76.848C226.301 76.4467 226.403 76.092 226.609 75.784C226.814 75.4667 227.108 75.2193 227.491 75.042C227.883 74.8647 228.335 74.776 228.849 74.776C229.605 74.776 230.216 74.958 230.683 75.322C231.149 75.686 231.425 76.2133 231.509 76.904H230.347C230.3 76.5493 230.146 76.274 229.885 76.078C229.633 75.8727 229.283 75.77 228.835 75.77C228.396 75.77 228.06 75.8587 227.827 76.036C227.603 76.2133 227.491 76.4467 227.491 76.736C227.491 76.9227 227.551 77.0907 227.673 77.24C227.803 77.38 227.99 77.5013 228.233 77.604C228.485 77.7067 228.793 77.7907 229.157 77.856C229.623 77.94 230.048 78.052 230.431 78.192C230.813 78.332 231.121 78.542 231.355 78.822C231.597 79.0927 231.719 79.48 231.719 79.984C231.719 80.4227 231.607 80.8053 231.383 81.132C231.168 81.4587 230.86 81.7153 230.459 81.902C230.057 82.0793 229.586 82.168 229.045 82.168ZM236.506 82.168C235.843 82.168 235.255 82.014 234.742 81.706C234.238 81.398 233.841 80.9687 233.552 80.418C233.263 79.858 233.118 79.2093 233.118 78.472C233.118 77.7253 233.258 77.0767 233.538 76.526C233.827 75.9753 234.229 75.546 234.742 75.238C235.265 74.93 235.862 74.776 236.534 74.776C237.225 74.776 237.808 74.93 238.284 75.238C238.769 75.546 239.138 75.952 239.39 76.456C239.651 76.9507 239.782 77.4967 239.782 78.094C239.782 78.1873 239.782 78.2853 239.782 78.388C239.782 78.4907 239.777 78.6073 239.768 78.738H234V77.828H238.634C238.606 77.184 238.391 76.68 237.99 76.316C237.598 75.952 237.103 75.77 236.506 75.77C236.105 75.77 235.731 75.8633 235.386 76.05C235.05 76.2273 234.779 76.4933 234.574 76.848C234.369 77.1933 234.266 77.6273 234.266 78.15V78.542C234.266 79.1207 234.369 79.606 234.574 79.998C234.789 80.39 235.064 80.684 235.4 80.88C235.745 81.076 236.114 81.174 236.506 81.174C237.001 81.174 237.407 81.0667 237.724 80.852C238.051 80.628 238.284 80.3293 238.424 79.956H239.586C239.474 80.376 239.278 80.754 238.998 81.09C238.718 81.426 238.368 81.692 237.948 81.888C237.537 82.0747 237.057 82.168 236.506 82.168ZM241.369 82V74.944H242.433L242.517 76.288C242.676 75.9707 242.876 75.7 243.119 75.476C243.371 75.252 243.67 75.0793 244.015 74.958C244.37 74.8367 244.771 74.776 245.219 74.776V76.008H244.785C244.486 76.008 244.202 76.05 243.931 76.134C243.66 76.2087 243.418 76.3347 243.203 76.512C242.998 76.6893 242.834 76.932 242.713 77.24C242.601 77.5387 242.545 77.912 242.545 78.36V82H241.369Z" fill="#ACADAE"/>
<path d="M366.066 82V73.516L364.386 73.936V73.096L366.458 72.2H367.256V82H366.066ZM372.541 82.168C371.925 82.168 371.398 82.0513 370.959 81.818C370.52 81.5753 370.17 81.2533 369.909 80.852C369.657 80.4413 369.503 79.9933 369.447 79.508H370.539C370.632 80.0307 370.856 80.4367 371.211 80.726C371.566 81.006 372.014 81.146 372.555 81.146C373.05 81.146 373.488 80.9967 373.871 80.698C374.254 80.3993 374.562 79.9467 374.795 79.34C375.038 78.724 375.173 77.9447 375.201 77.002C375.201 76.974 375.201 76.946 375.201 76.918C375.201 76.89 375.201 76.862 375.201 76.834C375.061 77.1233 374.856 77.394 374.585 77.646C374.314 77.898 373.992 78.0987 373.619 78.248C373.255 78.3973 372.844 78.472 372.387 78.472C371.836 78.472 371.314 78.3413 370.819 78.08C370.334 77.8187 369.937 77.4547 369.629 76.988C369.33 76.512 369.181 75.9567 369.181 75.322C369.181 74.7713 369.316 74.244 369.587 73.74C369.858 73.236 370.245 72.8253 370.749 72.508C371.253 72.1907 371.85 72.032 372.541 72.032C373.241 72.032 373.834 72.1673 374.319 72.438C374.804 72.6993 375.192 73.054 375.481 73.502C375.78 73.9407 375.994 74.44 376.125 75C376.256 75.56 376.321 76.1293 376.321 76.708C376.321 77.7813 376.172 78.7287 375.873 79.55C375.584 80.3713 375.154 81.0153 374.585 81.482C374.025 81.9393 373.344 82.168 372.541 82.168ZM372.625 77.45C373.054 77.45 373.442 77.352 373.787 77.156C374.132 76.96 374.403 76.694 374.599 76.358C374.804 76.022 374.907 75.6533 374.907 75.252C374.907 74.8227 374.804 74.4447 374.599 74.118C374.403 73.7913 374.132 73.5347 373.787 73.348C373.442 73.1613 373.054 73.068 372.625 73.068C372.196 73.068 371.808 73.166 371.463 73.362C371.127 73.5487 370.861 73.8053 370.665 74.132C370.469 74.4587 370.371 74.8367 370.371 75.266C370.371 75.7047 370.469 76.0873 370.665 76.414C370.861 76.7407 371.127 76.9973 371.463 77.184C371.808 77.3613 372.196 77.45 372.625 77.45ZM381.654 82.168C380.945 82.168 380.347 82.0373 379.862 81.776C379.377 81.5053 378.989 81.1507 378.7 80.712C378.411 80.264 378.196 79.76 378.056 79.2C377.925 78.64 377.86 78.0707 377.86 77.492C377.86 76.4093 378.009 75.462 378.308 74.65C378.607 73.8287 379.036 73.1893 379.596 72.732C380.165 72.2653 380.847 72.032 381.64 72.032C382.256 72.032 382.783 72.1533 383.222 72.396C383.67 72.6293 384.025 72.9467 384.286 73.348C384.547 73.7493 384.706 74.1973 384.762 74.692H383.67C383.577 74.1693 383.348 73.768 382.984 73.488C382.629 73.1987 382.177 73.054 381.626 73.054C381.141 73.054 380.702 73.208 380.31 73.516C379.918 73.8147 379.605 74.2767 379.372 74.902C379.148 75.518 379.017 76.3067 378.98 77.268C378.98 77.2773 378.98 77.2913 378.98 77.31C378.98 77.3287 378.98 77.3473 378.98 77.366C379.129 77.0767 379.335 76.806 379.596 76.554C379.867 76.302 380.189 76.1013 380.562 75.952C380.935 75.8027 381.351 75.728 381.808 75.728C382.359 75.728 382.877 75.8587 383.362 76.12C383.847 76.3813 384.239 76.75 384.538 77.226C384.846 77.6927 385 78.2433 385 78.878C385 79.4287 384.865 79.956 384.594 80.46C384.333 80.964 383.95 81.3747 383.446 81.692C382.942 82.0093 382.345 82.168 381.654 82.168ZM381.57 81.132C381.999 81.132 382.382 81.0387 382.718 80.852C383.063 80.656 383.329 80.3947 383.516 80.068C383.712 79.732 383.81 79.354 383.81 78.934C383.81 78.4953 383.712 78.1127 383.516 77.786C383.329 77.4593 383.063 77.2073 382.718 77.03C382.382 76.8433 381.999 76.75 381.57 76.75C381.141 76.75 380.753 76.848 380.408 77.044C380.063 77.24 379.787 77.506 379.582 77.842C379.386 78.1687 379.288 78.5373 379.288 78.948C379.288 79.368 379.386 79.746 379.582 80.082C379.787 80.4087 380.063 80.6653 380.408 80.852C380.753 81.0387 381.141 81.132 381.57 81.132ZM391.369 82V79.9H386.399V78.99L391.159 72.2H392.531V78.864H393.987V79.9H392.531V82H391.369ZM387.701 78.864H391.425V73.502L387.701 78.864ZM396.317 82L400.139 73.208H394.763V72.2H401.343V73.082L397.563 82H396.317Z" fill="#ACADAE"/>
<path d="M220.908 152.168C220.236 152.168 219.625 152.033 219.074 151.762C218.533 151.491 218.099 151.081 217.772 150.53C217.445 149.97 217.282 149.256 217.282 148.388V142.2H218.458V148.402C218.458 149.037 218.561 149.555 218.766 149.956C218.981 150.357 219.275 150.651 219.648 150.838C220.021 151.025 220.451 151.118 220.936 151.118C221.431 151.118 221.86 151.025 222.224 150.838C222.588 150.651 222.873 150.357 223.078 149.956C223.283 149.555 223.386 149.037 223.386 148.402V142.2H224.562V148.388C224.562 149.256 224.399 149.97 224.072 150.53C223.745 151.081 223.307 151.491 222.756 151.762C222.205 152.033 221.589 152.168 220.908 152.168ZM229.144 152.168C228.556 152.168 228.043 152.07 227.604 151.874C227.175 151.678 226.829 151.407 226.568 151.062C226.316 150.707 226.162 150.292 226.106 149.816H227.31C227.357 150.059 227.455 150.283 227.604 150.488C227.753 150.693 227.954 150.861 228.206 150.992C228.467 151.113 228.785 151.174 229.158 151.174C229.485 151.174 229.755 151.127 229.97 151.034C230.185 150.931 230.343 150.796 230.446 150.628C230.558 150.46 230.614 150.278 230.614 150.082C230.614 149.793 230.544 149.573 230.404 149.424C230.273 149.275 230.077 149.158 229.816 149.074C229.555 148.981 229.237 148.901 228.864 148.836C228.556 148.78 228.253 148.705 227.954 148.612C227.655 148.519 227.389 148.397 227.156 148.248C226.923 148.089 226.736 147.898 226.596 147.674C226.465 147.45 226.4 147.175 226.4 146.848C226.4 146.447 226.503 146.092 226.708 145.784C226.913 145.467 227.207 145.219 227.59 145.042C227.982 144.865 228.435 144.776 228.948 144.776C229.704 144.776 230.315 144.958 230.782 145.322C231.249 145.686 231.524 146.213 231.608 146.904H230.446C230.399 146.549 230.245 146.274 229.984 146.078C229.732 145.873 229.382 145.77 228.934 145.77C228.495 145.77 228.159 145.859 227.926 146.036C227.702 146.213 227.59 146.447 227.59 146.736C227.59 146.923 227.651 147.091 227.772 147.24C227.903 147.38 228.089 147.501 228.332 147.604C228.584 147.707 228.892 147.791 229.256 147.856C229.723 147.94 230.147 148.052 230.53 148.192C230.913 148.332 231.221 148.542 231.454 148.822C231.697 149.093 231.818 149.48 231.818 149.984C231.818 150.423 231.706 150.805 231.482 151.132C231.267 151.459 230.959 151.715 230.558 151.902C230.157 152.079 229.685 152.168 229.144 152.168ZM236.605 152.168C235.943 152.168 235.355 152.014 234.841 151.706C234.337 151.398 233.941 150.969 233.651 150.418C233.362 149.858 233.217 149.209 233.217 148.472C233.217 147.725 233.357 147.077 233.637 146.526C233.927 145.975 234.328 145.546 234.841 145.238C235.364 144.93 235.961 144.776 236.633 144.776C237.324 144.776 237.907 144.93 238.383 145.238C238.869 145.546 239.237 145.952 239.489 146.456C239.751 146.951 239.881 147.497 239.881 148.094C239.881 148.187 239.881 148.285 239.881 148.388C239.881 148.491 239.877 148.607 239.867 148.738H234.099V147.828H238.733C238.705 147.184 238.491 146.68 238.089 146.316C237.697 145.952 237.203 145.77 236.605 145.77C236.204 145.77 235.831 145.863 235.485 146.05C235.149 146.227 234.879 146.493 234.673 146.848C234.468 147.193 234.365 147.627 234.365 148.15V148.542C234.365 149.121 234.468 149.606 234.673 149.998C234.888 150.39 235.163 150.684 235.499 150.88C235.845 151.076 236.213 151.174 236.605 151.174C237.1 151.174 237.506 151.067 237.823 150.852C238.15 150.628 238.383 150.329 238.523 149.956H239.685C239.573 150.376 239.377 150.754 239.097 151.09C238.817 151.426 238.467 151.692 238.047 151.888C237.637 152.075 237.156 152.168 236.605 152.168ZM241.468 152V144.944H242.532L242.616 146.288C242.775 145.971 242.976 145.7 243.218 145.476C243.47 145.252 243.769 145.079 244.114 144.958C244.469 144.837 244.87 144.776 245.318 144.776V146.008H244.884C244.586 146.008 244.301 146.05 244.03 146.134C243.76 146.209 243.517 146.335 243.302 146.512C243.097 146.689 242.934 146.932 242.812 147.24C242.7 147.539 242.644 147.912 242.644 148.36V152H241.468Z" fill="#ACADAE"/>
<path d="M364.586 152V143.516L362.906 143.936V143.096L364.978 142.2H365.776V152H364.586ZM371.061 152.168C370.445 152.168 369.918 152.051 369.479 151.818C369.041 151.575 368.691 151.253 368.429 150.852C368.177 150.441 368.023 149.993 367.967 149.508H369.059C369.153 150.031 369.377 150.437 369.731 150.726C370.086 151.006 370.534 151.146 371.075 151.146C371.57 151.146 372.009 150.997 372.391 150.698C372.774 150.399 373.082 149.947 373.315 149.34C373.558 148.724 373.693 147.945 373.721 147.002C373.721 146.974 373.721 146.946 373.721 146.918C373.721 146.89 373.721 146.862 373.721 146.834C373.581 147.123 373.376 147.394 373.105 147.646C372.835 147.898 372.513 148.099 372.139 148.248C371.775 148.397 371.365 148.472 370.907 148.472C370.357 148.472 369.834 148.341 369.339 148.08C368.854 147.819 368.457 147.455 368.149 146.988C367.851 146.512 367.701 145.957 367.701 145.322C367.701 144.771 367.837 144.244 368.107 143.74C368.378 143.236 368.765 142.825 369.269 142.508C369.773 142.191 370.371 142.032 371.061 142.032C371.761 142.032 372.354 142.167 372.839 142.438C373.325 142.699 373.712 143.054 374.001 143.502C374.3 143.941 374.515 144.44 374.645 145C374.776 145.56 374.841 146.129 374.841 146.708C374.841 147.781 374.692 148.729 374.393 149.55C374.104 150.371 373.675 151.015 373.105 151.482C372.545 151.939 371.864 152.168 371.061 152.168ZM371.145 147.45C371.575 147.45 371.962 147.352 372.307 147.156C372.653 146.96 372.923 146.694 373.119 146.358C373.325 146.022 373.427 145.653 373.427 145.252C373.427 144.823 373.325 144.445 373.119 144.118C372.923 143.791 372.653 143.535 372.307 143.348C371.962 143.161 371.575 143.068 371.145 143.068C370.716 143.068 370.329 143.166 369.983 143.362C369.647 143.549 369.381 143.805 369.185 144.132C368.989 144.459 368.891 144.837 368.891 145.266C368.891 145.705 368.989 146.087 369.185 146.414C369.381 146.741 369.647 146.997 369.983 147.184C370.329 147.361 370.716 147.45 371.145 147.45ZM380.174 152.168C379.465 152.168 378.868 152.037 378.382 151.776C377.897 151.505 377.51 151.151 377.22 150.712C376.931 150.264 376.716 149.76 376.576 149.2C376.446 148.64 376.38 148.071 376.38 147.492C376.38 146.409 376.53 145.462 376.828 144.65C377.127 143.829 377.556 143.189 378.116 142.732C378.686 142.265 379.367 142.032 380.16 142.032C380.776 142.032 381.304 142.153 381.742 142.396C382.19 142.629 382.545 142.947 382.806 143.348C383.068 143.749 383.226 144.197 383.282 144.692H382.19C382.097 144.169 381.868 143.768 381.504 143.488C381.15 143.199 380.697 143.054 380.146 143.054C379.661 143.054 379.222 143.208 378.83 143.516C378.438 143.815 378.126 144.277 377.892 144.902C377.668 145.518 377.538 146.307 377.5 147.268C377.5 147.277 377.5 147.291 377.5 147.31C377.5 147.329 377.5 147.347 377.5 147.366C377.65 147.077 377.855 146.806 378.116 146.554C378.387 146.302 378.709 146.101 379.082 145.952C379.456 145.803 379.871 145.728 380.328 145.728C380.879 145.728 381.397 145.859 381.882 146.12C382.368 146.381 382.76 146.75 383.058 147.226C383.366 147.693 383.52 148.243 383.52 148.878C383.52 149.429 383.385 149.956 383.114 150.46C382.853 150.964 382.47 151.375 381.966 151.692C381.462 152.009 380.865 152.168 380.174 152.168ZM380.09 151.132C380.52 151.132 380.902 151.039 381.238 150.852C381.584 150.656 381.85 150.395 382.036 150.068C382.232 149.732 382.33 149.354 382.33 148.934C382.33 148.495 382.232 148.113 382.036 147.786C381.85 147.459 381.584 147.207 381.238 147.03C380.902 146.843 380.52 146.75 380.09 146.75C379.661 146.75 379.274 146.848 378.928 147.044C378.583 147.24 378.308 147.506 378.102 147.842C377.906 148.169 377.808 148.537 377.808 148.948C377.808 149.368 377.906 149.746 378.102 150.082C378.308 150.409 378.583 150.665 378.928 150.852C379.274 151.039 379.661 151.132 380.09 151.132ZM389.203 152.168C388.345 152.168 387.603 151.958 386.977 151.538C386.361 151.109 385.89 150.516 385.563 149.76C385.237 148.995 385.073 148.108 385.073 147.1C385.073 146.092 385.237 145.21 385.563 144.454C385.89 143.689 386.361 143.096 386.977 142.676C387.603 142.247 388.345 142.032 389.203 142.032C390.062 142.032 390.795 142.247 391.401 142.676C392.017 143.096 392.489 143.689 392.815 144.454C393.142 145.21 393.305 146.092 393.305 147.1C393.305 148.108 393.142 148.995 392.815 149.76C392.489 150.516 392.017 151.109 391.401 151.538C390.795 151.958 390.062 152.168 389.203 152.168ZM389.189 151.132C389.749 151.132 390.249 150.973 390.687 150.656C391.126 150.329 391.471 149.867 391.723 149.27C391.975 148.663 392.101 147.94 392.101 147.1C392.101 146.26 391.975 145.541 391.723 144.944C391.471 144.337 391.126 143.875 390.687 143.558C390.249 143.241 389.749 143.082 389.189 143.082C388.629 143.082 388.125 143.241 387.677 143.558C387.239 143.875 386.893 144.337 386.641 144.944C386.399 145.541 386.277 146.26 386.277 147.1C386.277 147.94 386.399 148.663 386.641 149.27C386.893 149.867 387.239 150.329 387.677 150.656C388.125 150.973 388.629 151.132 389.189 151.132ZM398.774 152.168C397.915 152.168 397.173 151.958 396.548 151.538C395.932 151.109 395.46 150.516 395.134 149.76C394.807 148.995 394.644 148.108 394.644 147.1C394.644 146.092 394.807 145.21 395.134 144.454C395.46 143.689 395.932 143.096 396.548 142.676C397.173 142.247 397.915 142.032 398.774 142.032C399.632 142.032 400.365 142.247 400.972 142.676C401.588 143.096 402.059 143.689 402.386 144.454C402.712 145.21 402.876 146.092 402.876 147.1C402.876 148.108 402.712 148.995 402.386 149.76C402.059 150.516 401.588 151.109 400.972 151.538C400.365 151.958 399.632 152.168 398.774 152.168ZM398.76 151.132C399.32 151.132 399.819 150.973 400.258 150.656C400.696 150.329 401.042 149.867 401.294 149.27C401.546 148.663 401.672 147.94 401.672 147.1C401.672 146.26 401.546 145.541 401.294 144.944C401.042 144.337 400.696 143.875 400.258 143.558C399.819 143.241 399.32 143.082 398.76 143.082C398.2 143.082 397.696 143.241 397.248 143.558C396.809 143.875 396.464 144.337 396.212 144.944C395.969 145.541 395.848 146.26 395.848 147.1C395.848 147.94 395.969 148.663 396.212 149.27C396.464 149.867 396.809 150.329 397.248 150.656C397.696 150.973 398.2 151.132 398.76 151.132Z" fill="#ACADAE"/>
<path d="M220.908 187.168C220.236 187.168 219.625 187.033 219.074 186.762C218.533 186.491 218.099 186.081 217.772 185.53C217.445 184.97 217.282 184.256 217.282 183.388V177.2H218.458V183.402C218.458 184.037 218.561 184.555 218.766 184.956C218.981 185.357 219.275 185.651 219.648 185.838C220.021 186.025 220.451 186.118 220.936 186.118C221.431 186.118 221.86 186.025 222.224 185.838C222.588 185.651 222.873 185.357 223.078 184.956C223.283 184.555 223.386 184.037 223.386 183.402V177.2H224.562V183.388C224.562 184.256 224.399 184.97 224.072 185.53C223.745 186.081 223.307 186.491 222.756 186.762C222.205 187.033 221.589 187.168 220.908 187.168ZM229.144 187.168C228.556 187.168 228.043 187.07 227.604 186.874C227.175 186.678 226.829 186.407 226.568 186.062C226.316 185.707 226.162 185.292 226.106 184.816H227.31C227.357 185.059 227.455 185.283 227.604 185.488C227.753 185.693 227.954 185.861 228.206 185.992C228.467 186.113 228.785 186.174 229.158 186.174C229.485 186.174 229.755 186.127 229.97 186.034C230.185 185.931 230.343 185.796 230.446 185.628C230.558 185.46 230.614 185.278 230.614 185.082C230.614 184.793 230.544 184.573 230.404 184.424C230.273 184.275 230.077 184.158 229.816 184.074C229.555 183.981 229.237 183.901 228.864 183.836C228.556 183.78 228.253 183.705 227.954 183.612C227.655 183.519 227.389 183.397 227.156 183.248C226.923 183.089 226.736 182.898 226.596 182.674C226.465 182.45 226.4 182.175 226.4 181.848C226.4 181.447 226.503 181.092 226.708 180.784C226.913 180.467 227.207 180.219 227.59 180.042C227.982 179.865 228.435 179.776 228.948 179.776C229.704 179.776 230.315 179.958 230.782 180.322C231.249 180.686 231.524 181.213 231.608 181.904H230.446C230.399 181.549 230.245 181.274 229.984 181.078C229.732 180.873 229.382 180.77 228.934 180.77C228.495 180.77 228.159 180.859 227.926 181.036C227.702 181.213 227.59 181.447 227.59 181.736C227.59 181.923 227.651 182.091 227.772 182.24C227.903 182.38 228.089 182.501 228.332 182.604C228.584 182.707 228.892 182.791 229.256 182.856C229.723 182.94 230.147 183.052 230.53 183.192C230.913 183.332 231.221 183.542 231.454 183.822C231.697 184.093 231.818 184.48 231.818 184.984C231.818 185.423 231.706 185.805 231.482 186.132C231.267 186.459 230.959 186.715 230.558 186.902C230.157 187.079 229.685 187.168 229.144 187.168ZM236.605 187.168C235.943 187.168 235.355 187.014 234.841 186.706C234.337 186.398 233.941 185.969 233.651 185.418C233.362 184.858 233.217 184.209 233.217 183.472C233.217 182.725 233.357 182.077 233.637 181.526C233.927 180.975 234.328 180.546 234.841 180.238C235.364 179.93 235.961 179.776 236.633 179.776C237.324 179.776 237.907 179.93 238.383 180.238C238.869 180.546 239.237 180.952 239.489 181.456C239.751 181.951 239.881 182.497 239.881 183.094C239.881 183.187 239.881 183.285 239.881 183.388C239.881 183.491 239.877 183.607 239.867 183.738H234.099V182.828H238.733C238.705 182.184 238.491 181.68 238.089 181.316C237.697 180.952 237.203 180.77 236.605 180.77C236.204 180.77 235.831 180.863 235.485 181.05C235.149 181.227 234.879 181.493 234.673 181.848C234.468 182.193 234.365 182.627 234.365 183.15V183.542C234.365 184.121 234.468 184.606 234.673 184.998C234.888 185.39 235.163 185.684 235.499 185.88C235.845 186.076 236.213 186.174 236.605 186.174C237.1 186.174 237.506 186.067 237.823 185.852C238.15 185.628 238.383 185.329 238.523 184.956H239.685C239.573 185.376 239.377 185.754 239.097 186.09C238.817 186.426 238.467 186.692 238.047 186.888C237.637 187.075 237.156 187.168 236.605 187.168ZM241.468 187V179.944H242.532L242.616 181.288C242.775 180.971 242.976 180.7 243.218 180.476C243.47 180.252 243.769 180.079 244.114 179.958C244.469 179.837 244.87 179.776 245.318 179.776V181.008H244.884C244.586 181.008 244.301 181.05 244.03 181.134C243.76 181.209 243.517 181.335 243.302 181.512C243.097 181.689 242.934 181.932 242.812 182.24C242.7 182.539 242.644 182.912 242.644 183.36V187H241.468Z" fill="#ACADAE"/>
<path d="M366.269 187V178.516L364.589 178.936V178.096L366.661 177.2H367.459V187H366.269ZM372.744 187.168C372.128 187.168 371.601 187.051 371.162 186.818C370.723 186.575 370.373 186.253 370.112 185.852C369.86 185.441 369.706 184.993 369.65 184.508H370.742C370.835 185.031 371.059 185.437 371.414 185.726C371.769 186.006 372.217 186.146 372.758 186.146C373.253 186.146 373.691 185.997 374.074 185.698C374.457 185.399 374.765 184.947 374.998 184.34C375.241 183.724 375.376 182.945 375.404 182.002C375.404 181.974 375.404 181.946 375.404 181.918C375.404 181.89 375.404 181.862 375.404 181.834C375.264 182.123 375.059 182.394 374.788 182.646C374.517 182.898 374.195 183.099 373.822 183.248C373.458 183.397 373.047 183.472 372.59 183.472C372.039 183.472 371.517 183.341 371.022 183.08C370.537 182.819 370.14 182.455 369.832 181.988C369.533 181.512 369.384 180.957 369.384 180.322C369.384 179.771 369.519 179.244 369.79 178.74C370.061 178.236 370.448 177.825 370.952 177.508C371.456 177.191 372.053 177.032 372.744 177.032C373.444 177.032 374.037 177.167 374.522 177.438C375.007 177.699 375.395 178.054 375.684 178.502C375.983 178.941 376.197 179.44 376.328 180C376.459 180.56 376.524 181.129 376.524 181.708C376.524 182.781 376.375 183.729 376.076 184.55C375.787 185.371 375.357 186.015 374.788 186.482C374.228 186.939 373.547 187.168 372.744 187.168ZM372.828 182.45C373.257 182.45 373.645 182.352 373.99 182.156C374.335 181.96 374.606 181.694 374.802 181.358C375.007 181.022 375.11 180.653 375.11 180.252C375.11 179.823 375.007 179.445 374.802 179.118C374.606 178.791 374.335 178.535 373.99 178.348C373.645 178.161 373.257 178.068 372.828 178.068C372.399 178.068 372.011 178.166 371.666 178.362C371.33 178.549 371.064 178.805 370.868 179.132C370.672 179.459 370.574 179.837 370.574 180.266C370.574 180.705 370.672 181.087 370.868 181.414C371.064 181.741 371.33 181.997 371.666 182.184C372.011 182.361 372.399 182.45 372.828 182.45ZM381.647 187.168C380.975 187.168 380.392 187.047 379.897 186.804C379.412 186.561 379.024 186.23 378.735 185.81C378.455 185.39 378.278 184.919 378.203 184.396H379.351C379.463 184.919 379.72 185.343 380.121 185.67C380.522 185.997 381.036 186.16 381.661 186.16C382.128 186.16 382.524 186.053 382.851 185.838C383.187 185.623 383.444 185.329 383.621 184.956C383.808 184.583 383.901 184.167 383.901 183.71C383.901 183.234 383.808 182.814 383.621 182.45C383.434 182.086 383.178 181.806 382.851 181.61C382.524 181.405 382.142 181.302 381.703 181.302C381.171 181.302 380.718 181.419 380.345 181.652C379.972 181.885 379.692 182.184 379.505 182.548H378.371L379.183 177.2H384.363V178.222H380.093L379.547 181.232C379.78 180.961 380.088 180.742 380.471 180.574C380.863 180.397 381.316 180.308 381.829 180.308C382.314 180.308 382.753 180.392 383.145 180.56C383.537 180.728 383.873 180.966 384.153 181.274C384.433 181.582 384.648 181.941 384.797 182.352C384.956 182.763 385.035 183.211 385.035 183.696C385.035 184.172 384.956 184.62 384.797 185.04C384.648 185.451 384.428 185.819 384.139 186.146C383.85 186.463 383.495 186.715 383.075 186.902C382.655 187.079 382.179 187.168 381.647 187.168ZM390.094 187.168C389.459 187.168 388.89 187.051 388.386 186.818C387.882 186.575 387.481 186.244 387.182 185.824C386.883 185.395 386.734 184.9 386.734 184.34C386.734 183.939 386.813 183.565 386.972 183.22C387.131 182.875 387.35 182.576 387.63 182.324C387.919 182.063 388.251 181.881 388.624 181.778C388.101 181.591 387.695 181.302 387.406 180.91C387.126 180.518 386.986 180.093 386.986 179.636C386.986 179.151 387.112 178.712 387.364 178.32C387.616 177.928 387.971 177.615 388.428 177.382C388.895 177.149 389.45 177.032 390.094 177.032C390.747 177.032 391.303 177.149 391.76 177.382C392.227 177.615 392.581 177.928 392.824 178.32C393.076 178.712 393.202 179.151 393.202 179.636C393.202 180.093 393.057 180.518 392.768 180.91C392.488 181.302 392.087 181.591 391.564 181.778C391.947 181.881 392.278 182.063 392.558 182.324C392.847 182.576 393.067 182.875 393.216 183.22C393.375 183.565 393.454 183.939 393.454 184.34C393.454 184.9 393.305 185.395 393.006 185.824C392.717 186.244 392.315 186.575 391.802 186.818C391.298 187.051 390.729 187.168 390.094 187.168ZM390.094 186.132C390.831 186.132 391.377 185.964 391.732 185.628C392.096 185.283 392.278 184.83 392.278 184.27C392.278 183.635 392.077 183.155 391.676 182.828C391.284 182.501 390.757 182.338 390.094 182.338C389.431 182.338 388.899 182.501 388.498 182.828C388.106 183.155 387.91 183.635 387.91 184.27C387.91 184.83 388.092 185.283 388.456 185.628C388.82 185.964 389.366 186.132 390.094 186.132ZM390.094 181.358C390.682 181.358 391.149 181.204 391.494 180.896C391.839 180.588 392.012 180.191 392.012 179.706C392.012 179.155 391.839 178.74 391.494 178.46C391.158 178.18 390.691 178.04 390.094 178.04C389.506 178.04 389.039 178.18 388.694 178.46C388.358 178.74 388.19 179.155 388.19 179.706C388.19 180.191 388.358 180.588 388.694 180.896C389.039 181.204 389.506 181.358 390.094 181.358ZM399.843 187V184.9H394.873V183.99L399.633 177.2H401.005V183.864H402.461V184.9H401.005V187H399.843ZM396.175 183.864H399.899V178.502L396.175 183.864Z" fill="#ACADAE"/>
<path d="M44.5 94.5H480.5V129.5H44.5V94.5Z" fill="#1D1F22" stroke="#86888E"/>
<path d="M220.887 117.168C220.215 117.168 219.604 117.033 219.053 116.762C218.512 116.491 218.078 116.081 217.751 115.53C217.424 114.97 217.261 114.256 217.261 113.388V107.2H218.437V113.402C218.437 114.037 218.54 114.555 218.745 114.956C218.96 115.357 219.254 115.651 219.627 115.838C220 116.025 220.43 116.118 220.915 116.118C221.41 116.118 221.839 116.025 222.203 115.838C222.567 115.651 222.852 115.357 223.057 114.956C223.262 114.555 223.365 114.037 223.365 113.402V107.2H224.541V113.388C224.541 114.256 224.378 114.97 224.051 115.53C223.724 116.081 223.286 116.491 222.735 116.762C222.184 117.033 221.568 117.168 220.887 117.168ZM229.123 117.168C228.535 117.168 228.021 117.07 227.583 116.874C227.153 116.678 226.808 116.407 226.547 116.062C226.295 115.707 226.141 115.292 226.085 114.816H227.289C227.335 115.059 227.433 115.283 227.583 115.488C227.732 115.693 227.933 115.861 228.185 115.992C228.446 116.113 228.763 116.174 229.137 116.174C229.463 116.174 229.734 116.127 229.949 116.034C230.163 115.931 230.322 115.796 230.425 115.628C230.537 115.46 230.593 115.278 230.593 115.082C230.593 114.793 230.523 114.573 230.383 114.424C230.252 114.275 230.056 114.158 229.795 114.074C229.533 113.981 229.216 113.901 228.843 113.836C228.535 113.78 228.231 113.705 227.933 113.612C227.634 113.519 227.368 113.397 227.135 113.248C226.901 113.089 226.715 112.898 226.575 112.674C226.444 112.45 226.379 112.175 226.379 111.848C226.379 111.447 226.481 111.092 226.687 110.784C226.892 110.467 227.186 110.219 227.569 110.042C227.961 109.865 228.413 109.776 228.927 109.776C229.683 109.776 230.294 109.958 230.761 110.322C231.227 110.686 231.503 111.213 231.587 111.904H230.425C230.378 111.549 230.224 111.274 229.963 111.078C229.711 110.873 229.361 110.77 228.913 110.77C228.474 110.77 228.138 110.859 227.905 111.036C227.681 111.213 227.569 111.447 227.569 111.736C227.569 111.923 227.629 112.091 227.751 112.24C227.881 112.38 228.068 112.501 228.311 112.604C228.563 112.707 228.871 112.791 229.235 112.856C229.701 112.94 230.126 113.052 230.509 113.192C230.891 113.332 231.199 113.542 231.433 113.822C231.675 114.093 231.797 114.48 231.797 114.984C231.797 115.423 231.685 115.805 231.461 116.132C231.246 116.459 230.938 116.715 230.537 116.902C230.135 117.079 229.664 117.168 229.123 117.168ZM236.584 117.168C235.921 117.168 235.333 117.014 234.82 116.706C234.316 116.398 233.919 115.969 233.63 115.418C233.341 114.858 233.196 114.209 233.196 113.472C233.196 112.725 233.336 112.077 233.616 111.526C233.905 110.975 234.307 110.546 234.82 110.238C235.343 109.93 235.94 109.776 236.612 109.776C237.303 109.776 237.886 109.93 238.362 110.238C238.847 110.546 239.216 110.952 239.468 111.456C239.729 111.951 239.86 112.497 239.86 113.094C239.86 113.187 239.86 113.285 239.86 113.388C239.86 113.491 239.855 113.607 239.846 113.738H234.078V112.828H238.712C238.684 112.184 238.469 111.68 238.068 111.316C237.676 110.952 237.181 110.77 236.584 110.77C236.183 110.77 235.809 110.863 235.464 111.05C235.128 111.227 234.857 111.493 234.652 111.848C234.447 112.193 234.344 112.627 234.344 113.15V113.542C234.344 114.121 234.447 114.606 234.652 114.998C234.867 115.39 235.142 115.684 235.478 115.88C235.823 116.076 236.192 116.174 236.584 116.174C237.079 116.174 237.485 116.067 237.802 115.852C238.129 115.628 238.362 115.329 238.502 114.956H239.664C239.552 115.376 239.356 115.754 239.076 116.09C238.796 116.426 238.446 116.692 238.026 116.888C237.615 117.075 237.135 117.168 236.584 117.168ZM241.447 117V109.944H242.511L242.595 111.288C242.754 110.971 242.955 110.7 243.197 110.476C243.449 110.252 243.748 110.079 244.093 109.958C244.448 109.837 244.849 109.776 245.297 109.776V111.008H244.863C244.565 111.008 244.28 111.05 244.009 111.134C243.739 111.209 243.496 111.335 243.281 111.512C243.076 111.689 242.913 111.932 242.791 112.24C242.679 112.539 242.623 112.912 242.623 113.36V117H241.447Z" fill="#ACADAE"/>
<path d="M365.214 117V108.516L363.534 108.936V108.096L365.606 107.2H366.404V117H365.214ZM371.69 117.168C371.074 117.168 370.546 117.051 370.108 116.818C369.669 116.575 369.319 116.253 369.058 115.852C368.806 115.441 368.652 114.993 368.596 114.508H369.688C369.781 115.031 370.005 115.437 370.36 115.726C370.714 116.006 371.162 116.146 371.704 116.146C372.198 116.146 372.637 115.997 373.02 115.698C373.402 115.399 373.71 114.947 373.944 114.34C374.186 113.724 374.322 112.945 374.35 112.002C374.35 111.974 374.35 111.946 374.35 111.918C374.35 111.89 374.35 111.862 374.35 111.834C374.21 112.123 374.004 112.394 373.734 112.646C373.463 112.898 373.141 113.099 372.768 113.248C372.404 113.397 371.993 113.472 371.536 113.472C370.985 113.472 370.462 113.341 369.968 113.08C369.482 112.819 369.086 112.455 368.778 111.988C368.479 111.512 368.33 110.957 368.33 110.322C368.33 109.771 368.465 109.244 368.736 108.74C369.006 108.236 369.394 107.825 369.898 107.508C370.402 107.191 370.999 107.032 371.69 107.032C372.39 107.032 372.982 107.167 373.468 107.438C373.953 107.699 374.34 108.054 374.63 108.502C374.928 108.941 375.143 109.44 375.274 110C375.404 110.56 375.47 111.129 375.47 111.708C375.47 112.781 375.32 113.729 375.022 114.55C374.732 115.371 374.303 116.015 373.734 116.482C373.174 116.939 372.492 117.168 371.69 117.168ZM371.774 112.45C372.203 112.45 372.59 112.352 372.936 112.156C373.281 111.96 373.552 111.694 373.748 111.358C373.953 111.022 374.056 110.653 374.056 110.252C374.056 109.823 373.953 109.445 373.748 109.118C373.552 108.791 373.281 108.535 372.936 108.348C372.59 108.161 372.203 108.068 371.774 108.068C371.344 108.068 370.957 108.166 370.612 108.362C370.276 108.549 370.01 108.805 369.814 109.132C369.618 109.459 369.52 109.837 369.52 110.266C369.52 110.705 369.618 111.087 369.814 111.414C370.01 111.741 370.276 111.997 370.612 112.184C370.957 112.361 371.344 112.45 371.774 112.45ZM380.803 117.168C380.093 117.168 379.496 117.037 379.011 116.776C378.525 116.505 378.138 116.151 377.849 115.712C377.559 115.264 377.345 114.76 377.205 114.2C377.074 113.64 377.009 113.071 377.009 112.492C377.009 111.409 377.158 110.462 377.457 109.65C377.755 108.829 378.185 108.189 378.745 107.732C379.314 107.265 379.995 107.032 380.789 107.032C381.405 107.032 381.932 107.153 382.371 107.396C382.819 107.629 383.173 107.947 383.435 108.348C383.696 108.749 383.855 109.197 383.911 109.692H382.819C382.725 109.169 382.497 108.768 382.133 108.488C381.778 108.199 381.325 108.054 380.775 108.054C380.289 108.054 379.851 108.208 379.459 108.516C379.067 108.815 378.754 109.277 378.521 109.902C378.297 110.518 378.166 111.307 378.129 112.268C378.129 112.277 378.129 112.291 378.129 112.31C378.129 112.329 378.129 112.347 378.129 112.366C378.278 112.077 378.483 111.806 378.745 111.554C379.015 111.302 379.337 111.101 379.711 110.952C380.084 110.803 380.499 110.728 380.957 110.728C381.507 110.728 382.025 110.859 382.511 111.12C382.996 111.381 383.388 111.75 383.687 112.226C383.995 112.693 384.149 113.243 384.149 113.878C384.149 114.429 384.013 114.956 383.743 115.46C383.481 115.964 383.099 116.375 382.595 116.692C382.091 117.009 381.493 117.168 380.803 117.168ZM380.719 116.132C381.148 116.132 381.531 116.039 381.867 115.852C382.212 115.656 382.478 115.395 382.665 115.068C382.861 114.732 382.959 114.354 382.959 113.934C382.959 113.495 382.861 113.113 382.665 112.786C382.478 112.459 382.212 112.207 381.867 112.03C381.531 111.843 381.148 111.75 380.719 111.75C380.289 111.75 379.902 111.848 379.557 112.044C379.211 112.24 378.936 112.506 378.731 112.842C378.535 113.169 378.437 113.537 378.437 113.948C378.437 114.368 378.535 114.746 378.731 115.082C378.936 115.409 379.211 115.665 379.557 115.852C379.902 116.039 380.289 116.132 380.719 116.132ZM389.832 117.168C388.973 117.168 388.231 116.958 387.606 116.538C386.99 116.109 386.518 115.516 386.192 114.76C385.865 113.995 385.702 113.108 385.702 112.1C385.702 111.092 385.865 110.21 386.192 109.454C386.518 108.689 386.99 108.096 387.606 107.676C388.231 107.247 388.973 107.032 389.832 107.032C390.69 107.032 391.423 107.247 392.03 107.676C392.646 108.096 393.117 108.689 393.444 109.454C393.77 110.21 393.934 111.092 393.934 112.1C393.934 113.108 393.77 113.995 393.444 114.76C393.117 115.516 392.646 116.109 392.03 116.538C391.423 116.958 390.69 117.168 389.832 117.168ZM389.818 116.132C390.378 116.132 390.877 115.973 391.316 115.656C391.754 115.329 392.1 114.867 392.352 114.27C392.604 113.663 392.73 112.94 392.73 112.1C392.73 111.26 392.604 110.541 392.352 109.944C392.1 109.337 391.754 108.875 391.316 108.558C390.877 108.241 390.378 108.082 389.818 108.082C389.258 108.082 388.754 108.241 388.306 108.558C387.867 108.875 387.522 109.337 387.27 109.944C387.027 110.541 386.906 111.26 386.906 112.1C386.906 112.94 387.027 113.663 387.27 114.27C387.522 114.867 387.867 115.329 388.306 115.656C388.754 115.973 389.258 116.132 389.818 116.132ZM398.702 117.168C398.077 117.168 397.507 117.056 396.994 116.832C396.49 116.599 396.089 116.253 395.79 115.796C395.491 115.339 395.333 114.769 395.314 114.088H396.504C396.513 114.461 396.602 114.807 396.77 115.124C396.947 115.432 397.199 115.679 397.526 115.866C397.853 116.053 398.245 116.146 398.702 116.146C399.159 116.146 399.542 116.057 399.85 115.88C400.158 115.703 400.391 115.469 400.55 115.18C400.709 114.881 400.788 114.55 400.788 114.186C400.788 113.729 400.676 113.36 400.452 113.08C400.237 112.791 399.943 112.581 399.57 112.45C399.206 112.31 398.805 112.24 398.366 112.24H397.638V111.246H398.366C399.01 111.246 399.514 111.097 399.878 110.798C400.242 110.499 400.424 110.089 400.424 109.566C400.424 109.137 400.279 108.777 399.99 108.488C399.71 108.199 399.281 108.054 398.702 108.054C398.151 108.054 397.713 108.213 397.386 108.53C397.059 108.847 396.873 109.253 396.826 109.748H395.636C395.664 109.216 395.809 108.745 396.07 108.334C396.331 107.923 396.686 107.606 397.134 107.382C397.582 107.149 398.109 107.032 398.716 107.032C399.351 107.032 399.883 107.144 400.312 107.368C400.741 107.592 401.063 107.891 401.278 108.264C401.502 108.637 401.614 109.048 401.614 109.496C401.614 109.832 401.553 110.149 401.432 110.448C401.311 110.737 401.129 110.994 400.886 111.218C400.643 111.442 400.335 111.601 399.962 111.694C400.345 111.769 400.685 111.913 400.984 112.128C401.292 112.343 401.535 112.623 401.712 112.968C401.889 113.313 401.978 113.719 401.978 114.186C401.978 114.718 401.852 115.213 401.6 115.67C401.357 116.118 400.993 116.482 400.508 116.762C400.023 117.033 399.421 117.168 398.702 117.168Z" fill="#ACADAE"/>
<path d="M57.234 117.168C56.646 117.168 56.1373 117.056 55.708 116.832C55.288 116.608 54.9613 116.286 54.728 115.866C54.504 115.446 54.392 114.947 54.392 114.368H55.582C55.582 114.695 55.6333 114.993 55.736 115.264C55.848 115.525 56.0207 115.735 56.254 115.894C56.4967 116.043 56.8187 116.118 57.22 116.118C57.612 116.118 57.92 116.043 58.144 115.894C58.3773 115.745 58.5407 115.544 58.634 115.292C58.7367 115.031 58.788 114.737 58.788 114.41V107.2H59.964V114.41C59.964 115.287 59.7213 115.969 59.236 116.454C58.76 116.93 58.0927 117.168 57.234 117.168ZM65.1437 117.168C64.4903 117.168 63.9023 117.019 63.3797 116.72C62.857 116.412 62.4463 115.983 62.1477 115.432C61.849 114.872 61.6997 114.223 61.6997 113.486C61.6997 112.73 61.849 112.077 62.1477 111.526C62.4557 110.966 62.871 110.537 63.3937 110.238C63.9257 109.93 64.5183 109.776 65.1717 109.776C65.8437 109.776 66.4363 109.93 66.9497 110.238C67.4723 110.537 67.883 110.966 68.1817 111.526C68.4897 112.077 68.6437 112.725 68.6437 113.472C68.6437 114.219 68.4897 114.872 68.1817 115.432C67.8737 115.983 67.4583 116.412 66.9357 116.72C66.413 117.019 65.8157 117.168 65.1437 117.168ZM65.1577 116.16C65.559 116.16 65.9323 116.062 66.2777 115.866C66.623 115.661 66.903 115.357 67.1177 114.956C67.3323 114.555 67.4397 114.06 67.4397 113.472C67.4397 112.875 67.3323 112.38 67.1177 111.988C66.9123 111.587 66.637 111.288 66.2917 111.092C65.9557 110.887 65.5823 110.784 65.1717 110.784C64.7797 110.784 64.4063 110.887 64.0517 111.092C63.7063 111.288 63.4263 111.587 63.2117 111.988C63.0063 112.38 62.9037 112.875 62.9037 113.472C62.9037 114.06 63.0063 114.555 63.2117 114.956C63.4263 115.357 63.7017 115.661 64.0377 115.866C64.383 116.062 64.7563 116.16 65.1577 116.16ZM70.2925 117V106.92H71.4685V111.134C71.7018 110.714 72.0285 110.383 72.4485 110.14C72.8778 109.897 73.3445 109.776 73.8485 109.776C74.3898 109.776 74.8612 109.888 75.2625 110.112C75.6638 110.327 75.9718 110.658 76.1865 111.106C76.4012 111.554 76.5085 112.119 76.5085 112.8V117H75.3465V112.926C75.3465 112.217 75.1972 111.685 74.8985 111.33C74.5998 110.966 74.1658 110.784 73.5965 110.784C73.1952 110.784 72.8312 110.882 72.5045 111.078C72.1872 111.274 71.9352 111.554 71.7485 111.918C71.5618 112.282 71.4685 112.73 71.4685 113.262V117H70.2925ZM78.3452 117V109.944H79.4092L79.4652 111.176C79.6892 110.737 80.0066 110.397 80.4172 110.154C80.8372 109.902 81.3132 109.776 81.8452 109.776C82.3959 109.776 82.8719 109.888 83.2732 110.112C83.6746 110.327 83.9872 110.658 84.2112 111.106C84.4352 111.545 84.5472 112.105 84.5472 112.786V117H83.3712V112.912C83.3712 112.203 83.2126 111.671 82.8952 111.316C82.5872 110.961 82.1486 110.784 81.5792 110.784C81.1872 110.784 80.8372 110.882 80.5292 111.078C80.2212 111.265 79.9739 111.54 79.7872 111.904C79.6099 112.259 79.5212 112.702 79.5212 113.234V117H78.3452ZM90.173 117V107.2H93.057C94.205 107.2 95.1477 107.401 95.885 107.802C96.6317 108.194 97.1824 108.759 97.537 109.496C97.901 110.224 98.083 111.101 98.083 112.128C98.083 113.136 97.901 114.004 97.537 114.732C97.1824 115.46 96.6317 116.02 95.885 116.412C95.1477 116.804 94.205 117 93.057 117H90.173ZM91.349 116.02H93.029C93.981 116.02 94.737 115.866 95.297 115.558C95.857 115.241 96.2584 114.793 96.501 114.214C96.7437 113.626 96.865 112.931 96.865 112.128C96.865 111.307 96.7437 110.602 96.501 110.014C96.2584 109.426 95.857 108.973 95.297 108.656C94.737 108.339 93.981 108.18 93.029 108.18H91.349V116.02ZM102.892 117.168C102.238 117.168 101.65 117.019 101.128 116.72C100.605 116.412 100.194 115.983 99.8957 115.432C99.5971 114.872 99.4477 114.223 99.4477 113.486C99.4477 112.73 99.5971 112.077 99.8957 111.526C100.204 110.966 100.619 110.537 101.142 110.238C101.674 109.93 102.266 109.776 102.92 109.776C103.592 109.776 104.184 109.93 104.698 110.238C105.22 110.537 105.631 110.966 105.93 111.526C106.238 112.077 106.392 112.725 106.392 113.472C106.392 114.219 106.238 114.872 105.93 115.432C105.622 115.983 105.206 116.412 104.684 116.72C104.161 117.019 103.564 117.168 102.892 117.168ZM102.906 116.16C103.307 116.16 103.68 116.062 104.026 115.866C104.371 115.661 104.651 115.357 104.866 114.956C105.08 114.555 105.188 114.06 105.188 113.472C105.188 112.875 105.08 112.38 104.866 111.988C104.66 111.587 104.385 111.288 104.04 111.092C103.704 110.887 103.33 110.784 102.92 110.784C102.528 110.784 102.154 110.887 101.8 111.092C101.454 111.288 101.174 111.587 100.96 111.988C100.754 112.38 100.652 112.875 100.652 113.472C100.652 114.06 100.754 114.555 100.96 114.956C101.174 115.357 101.45 115.661 101.786 115.866C102.131 116.062 102.504 116.16 102.906 116.16ZM111.135 117.168C110.472 117.168 109.884 117.014 109.371 116.706C108.867 116.398 108.47 115.969 108.181 115.418C107.891 114.858 107.747 114.209 107.747 113.472C107.747 112.725 107.887 112.077 108.167 111.526C108.456 110.975 108.857 110.546 109.371 110.238C109.893 109.93 110.491 109.776 111.163 109.776C111.853 109.776 112.437 109.93 112.913 110.238C113.398 110.546 113.767 110.952 114.019 111.456C114.28 111.951 114.411 112.497 114.411 113.094C114.411 113.187 114.411 113.285 114.411 113.388C114.411 113.491 114.406 113.607 114.397 113.738H108.629V112.828H113.263C113.235 112.184 113.02 111.68 112.619 111.316C112.227 110.952 111.732 110.77 111.135 110.77C110.733 110.77 110.36 110.863 110.015 111.05C109.679 111.227 109.408 111.493 109.203 111.848C108.997 112.193 108.895 112.627 108.895 113.15V113.542C108.895 114.121 108.997 114.606 109.203 114.998C109.417 115.39 109.693 115.684 110.029 115.88C110.374 116.076 110.743 116.174 111.135 116.174C111.629 116.174 112.035 116.067 112.353 115.852C112.679 115.628 112.913 115.329 113.053 114.956H114.215C114.103 115.376 113.907 115.754 113.627 116.09C113.347 116.426 112.997 116.692 112.577 116.888C112.166 117.075 111.685 117.168 111.135 117.168Z" fill="#EEEFF1"/>
<path d="M77.05 45V35.2H78.226L83.448 43.054V35.2H84.624V45H83.448L78.226 37.146V45H77.05ZM88.9557 45.168C88.3864 45.168 87.9104 45.07 87.5277 44.874C87.145 44.6687 86.8604 44.4027 86.6737 44.076C86.487 43.74 86.3937 43.376 86.3937 42.984C86.3937 42.508 86.515 42.1067 86.7577 41.78C87.0097 41.444 87.3597 41.192 87.8077 41.024C88.265 40.8467 88.8017 40.758 89.4177 40.758H91.2797C91.2797 40.3193 91.2097 39.9553 91.0697 39.666C90.939 39.3673 90.743 39.1433 90.4817 38.994C90.2297 38.8447 89.9124 38.77 89.5297 38.77C89.0817 38.77 88.6944 38.882 88.3677 39.106C88.041 39.33 87.8404 39.6613 87.7657 40.1H86.5617C86.6177 39.596 86.7857 39.176 87.0657 38.84C87.355 38.4947 87.719 38.2333 88.1577 38.056C88.5964 37.8693 89.0537 37.776 89.5297 37.776C90.183 37.776 90.7244 37.8973 91.1537 38.14C91.5924 38.3733 91.919 38.7047 92.1337 39.134C92.3484 39.554 92.4557 40.0533 92.4557 40.632V45H91.4057L91.3357 43.754C91.2424 43.95 91.121 44.1367 90.9717 44.314C90.8317 44.482 90.6637 44.6313 90.4677 44.762C90.2717 44.8833 90.0477 44.9813 89.7957 45.056C89.553 45.1307 89.273 45.168 88.9557 45.168ZM89.1377 44.174C89.4644 44.174 89.7584 44.1087 90.0197 43.978C90.2904 43.838 90.519 43.6513 90.7057 43.418C90.8924 43.1753 91.0324 42.9093 91.1257 42.62C91.2284 42.3307 91.2797 42.0273 91.2797 41.71V41.668H89.5157C89.0584 41.668 88.6897 41.724 88.4097 41.836C88.1297 41.9387 87.929 42.088 87.8077 42.284C87.6864 42.4707 87.6257 42.6853 87.6257 42.928C87.6257 43.18 87.6817 43.3993 87.7937 43.586C87.915 43.7727 88.0877 43.9173 88.3117 44.02C88.545 44.1227 88.8204 44.174 89.1377 44.174ZM94.2749 45V37.944H95.3389L95.4089 38.952C95.6329 38.588 95.9316 38.3033 96.3049 38.098C96.6876 37.8833 97.1029 37.776 97.5509 37.776C97.9149 37.776 98.2416 37.8273 98.5309 37.93C98.8296 38.0233 99.0909 38.1727 99.3149 38.378C99.5389 38.574 99.7209 38.826 99.8609 39.134C100.104 38.7047 100.435 38.3733 100.855 38.14C101.284 37.8973 101.742 37.776 102.227 37.776C102.768 37.776 103.24 37.888 103.641 38.112C104.052 38.3267 104.364 38.658 104.579 39.106C104.803 39.5447 104.915 40.1047 104.915 40.786V45H103.753V40.912C103.753 40.2027 103.608 39.6707 103.319 39.316C103.03 38.9613 102.624 38.784 102.101 38.784C101.737 38.784 101.41 38.882 101.121 39.078C100.832 39.2647 100.603 39.54 100.435 39.904C100.267 40.268 100.183 40.716 100.183 41.248V45H99.0069V40.912C99.0069 40.2027 98.8623 39.6707 98.5729 39.316C98.2836 38.9613 97.8729 38.784 97.3409 38.784C96.9863 38.784 96.6643 38.882 96.3749 39.078C96.0949 39.2647 95.8709 39.54 95.7029 39.904C95.5349 40.268 95.4509 40.716 95.4509 41.248V45H94.2749ZM109.838 45.168C109.175 45.168 108.587 45.014 108.074 44.706C107.57 44.398 107.173 43.9687 106.884 43.418C106.594 42.858 106.45 42.2093 106.45 41.472C106.45 40.7253 106.59 40.0767 106.87 39.526C107.159 38.9753 107.56 38.546 108.074 38.238C108.596 37.93 109.194 37.776 109.866 37.776C110.556 37.776 111.14 37.93 111.616 38.238C112.101 38.546 112.47 38.952 112.722 39.456C112.983 39.9507 113.114 40.4967 113.114 41.094C113.114 41.1873 113.114 41.2853 113.114 41.388C113.114 41.4907 113.109 41.6073 113.1 41.738H107.332V40.828H111.966C111.938 40.184 111.723 39.68 111.322 39.316C110.93 38.952 110.435 38.77 109.838 38.77C109.436 38.77 109.063 38.8633 108.718 39.05C108.382 39.2273 108.111 39.4933 107.906 39.848C107.7 40.1933 107.598 40.6273 107.598 41.15V41.542C107.598 42.1207 107.7 42.606 107.906 42.998C108.12 43.39 108.396 43.684 108.732 43.88C109.077 44.076 109.446 44.174 109.838 44.174C110.332 44.174 110.738 44.0667 111.056 43.852C111.382 43.628 111.616 43.3293 111.756 42.956H112.918C112.806 43.376 112.61 43.754 112.33 44.09C112.05 44.426 111.7 44.692 111.28 44.888C110.869 45.0747 110.388 45.168 109.838 45.168Z" fill="#EEEFF1"/>
<path d="M61.1381 45.625H62.7863C64.1784 45.625 64.8745 45.625 65.4556 45.292C66.0366 44.9591 66.4055 44.3488 67.1434 43.1281L67.5689 42.4242C68.1896 41.3973 68.5 40.8839 68.5 40.3125C68.5 39.7411 68.1896 39.2277 67.5689 38.2008L67.1434 37.4969C66.4055 36.2763 66.0366 35.666 65.4556 35.333C64.8745 35 64.1784 35 62.7863 35H61.1381C58.716 35 57.5049 35 56.7525 35.778C56 36.556 56 37.8082 56 40.3125C56 42.8168 56 44.069 56.7525 44.847C57.5049 45.625 58.716 45.625 61.1381 45.625Z" stroke="#86888E" stroke-linecap="round"/>
<path d="M61.7139 41.8008L61.3794 40.9658H59.6899L59.3555 41.8008H58.8647L60.2686 38.3511H60.8154L62.2192 41.8008H61.7139ZM59.8608 40.541H61.2109L60.5347 38.8467L59.8608 40.541ZM64.7217 39.252H65.1514V41.8008H64.7217V41.3418C64.6126 41.5046 64.4718 41.6323 64.2993 41.7251C64.1284 41.8162 63.9388 41.8618 63.7305 41.8618C63.4912 41.8618 63.2739 41.804 63.0786 41.6885C62.8833 41.5713 62.7303 41.411 62.6196 41.2075C62.5106 41.0024 62.4561 40.7754 62.4561 40.5264C62.4561 40.2773 62.5106 40.0511 62.6196 39.8477C62.7303 39.6426 62.8833 39.4823 63.0786 39.3667C63.2739 39.2495 63.4912 39.1909 63.7305 39.1909C63.9388 39.1909 64.1284 39.2373 64.2993 39.3301C64.4718 39.4212 64.6126 39.5482 64.7217 39.7109V39.252ZM63.811 41.4468C64.0715 41.4468 64.2879 41.3589 64.4604 41.1831C64.6346 41.0073 64.7217 40.7884 64.7217 40.5264C64.7217 40.2643 64.6346 40.0454 64.4604 39.8696C64.2879 39.6938 64.0715 39.606 63.811 39.606C63.549 39.606 63.3309 39.6938 63.1567 39.8696C62.9826 40.0454 62.8955 40.2643 62.8955 40.5264C62.8955 40.7884 62.9826 41.0073 63.1567 41.1831C63.3309 41.3589 63.549 41.4468 63.811 41.4468Z" fill="#86888E"/>
<path d="M212.366 34.1163C212.132 33.8818 211.814 33.7501 211.483 33.75H207C206.668 33.75 206.351 33.8817 206.116 34.1161C205.882 34.3505 205.75 34.6685 205.75 35V39.4825C205.75 39.814 205.882 40.1319 206.116 40.3663L211.556 45.8062C211.84 46.0885 212.225 46.247 212.625 46.247C213.025 46.247 213.41 46.0885 213.694 45.8062L217.806 41.6938C218.089 41.4097 218.247 41.0255 218.247 40.625C218.247 40.2245 218.089 39.8403 217.806 39.5563L212.366 34.1163Z" stroke="#86888E" stroke-linecap="round" stroke-linejoin="round"/>
<path d="M208.875 37.1875C208.875 37.2704 208.908 37.3499 208.967 37.4085C209.025 37.4671 209.105 37.5 209.188 37.5C209.27 37.5 209.35 37.4671 209.408 37.4085C209.467 37.3499 209.5 37.2704 209.5 37.1875C209.5 37.1046 209.467 37.0251 209.408 36.9665C209.35 36.9079 209.27 36.875 209.188 36.875C209.105 36.875 209.025 36.9079 208.967 36.9665C208.908 37.0251 208.875 37.1046 208.875 37.1875Z" fill="#86888E" stroke="#86888E" stroke-linecap="round" stroke-linejoin="round"/>
<path d="M229.346 45V36.166H226.42V35.2H233.448V36.166H230.522V45H229.346ZM234.9 48.08L236.622 44.216H236.216L233.444 37.944H234.718L237.014 43.334L239.422 37.944H240.64L236.132 48.08H234.9ZM241.91 48.08V37.944H242.974L243.072 39.092C243.221 38.868 243.412 38.658 243.646 38.462C243.879 38.2567 244.159 38.0933 244.486 37.972C244.812 37.8413 245.186 37.776 245.606 37.776C246.296 37.776 246.894 37.9393 247.398 38.266C247.911 38.5927 248.308 39.036 248.588 39.596C248.877 40.1467 249.022 40.7767 249.022 41.486C249.022 42.1953 248.877 42.83 248.588 43.39C248.308 43.9407 247.911 44.3747 247.398 44.692C246.884 45.0093 246.282 45.168 245.592 45.168C245.022 45.168 244.518 45.0513 244.08 44.818C243.65 44.5847 243.319 44.258 243.086 43.838V48.08H241.91ZM245.466 44.146C245.923 44.146 246.329 44.034 246.684 43.81C247.038 43.586 247.314 43.278 247.51 42.886C247.715 42.4847 247.818 42.0133 247.818 41.472C247.818 40.94 247.715 40.4733 247.51 40.072C247.314 39.6707 247.038 39.358 246.684 39.134C246.329 38.91 245.923 38.798 245.466 38.798C244.999 38.798 244.588 38.91 244.234 39.134C243.879 39.358 243.604 39.6707 243.408 40.072C243.212 40.4733 243.114 40.94 243.114 41.472C243.114 42.0133 243.212 42.4847 243.408 42.886C243.604 43.278 243.879 43.586 244.234 43.81C244.588 44.034 244.999 44.146 245.466 44.146ZM253.767 45.168C253.105 45.168 252.517 45.014 252.003 44.706C251.499 44.398 251.103 43.9687 250.813 43.418C250.524 42.858 250.379 42.2093 250.379 41.472C250.379 40.7253 250.519 40.0767 250.799 39.526C251.089 38.9753 251.49 38.546 252.003 38.238C252.526 37.93 253.123 37.776 253.795 37.776C254.486 37.776 255.069 37.93 255.545 38.238C256.031 38.546 256.399 38.952 256.651 39.456C256.913 39.9507 257.043 40.4967 257.043 41.094C257.043 41.1873 257.043 41.2853 257.043 41.388C257.043 41.4907 257.039 41.6073 257.029 41.738H251.261V40.828H255.895C255.867 40.184 255.653 39.68 255.251 39.316C254.859 38.952 254.365 38.77 253.767 38.77C253.366 38.77 252.993 38.8633 252.647 39.05C252.311 39.2273 252.041 39.4933 251.835 39.848C251.63 40.1933 251.527 40.6273 251.527 41.15V41.542C251.527 42.1207 251.63 42.606 251.835 42.998C252.05 43.39 252.325 43.684 252.661 43.88C253.007 44.076 253.375 44.174 253.767 44.174C254.262 44.174 254.668 44.0667 254.985 43.852C255.312 43.628 255.545 43.3293 255.685 42.956H256.847C256.735 43.376 256.539 43.754 256.259 44.09C255.979 44.426 255.629 44.692 255.209 44.888C254.799 45.0747 254.318 45.168 253.767 45.168Z" fill="#EEEFF1"/>
<path d="M360.625 36.875H358.75C358.418 36.875 358.101 36.7433 357.866 36.5089C357.632 36.2745 357.5 35.9565 357.5 35.625V33.75" stroke="#86888E" stroke-linecap="round" stroke-linejoin="round"/>
<path d="M360.625 36.25V40.3125C360.625 40.8125 360.188 41.25 359.688 41.25H355.312C354.812 41.25 354.375 40.8125 354.375 40.3125V34.6875C354.375 34.1875 354.812 33.75 355.312 33.75H358.125L360.625 36.25Z" stroke="#86888E" stroke-linecap="round" stroke-linejoin="round"/>
<path d="M351.875 37.5V43C351.875 43.1875 352 43.375 352.125 43.5C352.25 43.625 352.438 43.75 352.625 43.75H356.875" stroke="#86888E" stroke-linecap="round" stroke-linejoin="round"/>
<path d="M349.375 40V45.5C349.375 45.6875 349.5 45.875 349.625 46C349.75 46.125 349.938 46.25 350.125 46.25H354.375" stroke="#86888E" stroke-linecap="round" stroke-linejoin="round"/>
<path d="M372.99 45L369.308 35.2H370.582L373.676 43.754L376.798 35.2H378.044L374.362 45H372.99ZM381.523 45.168C380.861 45.168 380.273 45.014 379.759 44.706C379.255 44.398 378.859 43.9687 378.569 43.418C378.28 42.858 378.135 42.2093 378.135 41.472C378.135 40.7253 378.275 40.0767 378.555 39.526C378.845 38.9753 379.246 38.546 379.759 38.238C380.282 37.93 380.879 37.776 381.551 37.776C382.242 37.776 382.825 37.93 383.301 38.238C383.787 38.546 384.155 38.952 384.407 39.456C384.669 39.9507 384.799 40.4967 384.799 41.094C384.799 41.1873 384.799 41.2853 384.799 41.388C384.799 41.4907 384.795 41.6073 384.785 41.738H379.017V40.828H383.651C383.623 40.184 383.409 39.68 383.007 39.316C382.615 38.952 382.121 38.77 381.523 38.77C381.122 38.77 380.749 38.8633 380.403 39.05C380.067 39.2273 379.797 39.4933 379.591 39.848C379.386 40.1933 379.283 40.6273 379.283 41.15V41.542C379.283 42.1207 379.386 42.606 379.591 42.998C379.806 43.39 380.081 43.684 380.417 43.88C380.763 44.076 381.131 44.174 381.523 44.174C382.018 44.174 382.424 44.0667 382.741 43.852C383.068 43.628 383.301 43.3293 383.441 42.956H384.603C384.491 43.376 384.295 43.754 384.015 44.09C383.735 44.426 383.385 44.692 382.965 44.888C382.555 45.0747 382.074 45.168 381.523 45.168ZM386.386 45V37.944H387.45L387.534 39.288C387.693 38.9707 387.894 38.7 388.136 38.476C388.388 38.252 388.687 38.0793 389.032 37.958C389.387 37.8367 389.788 37.776 390.236 37.776V39.008H389.802C389.504 39.008 389.219 39.05 388.948 39.134C388.678 39.2087 388.435 39.3347 388.22 39.512C388.015 39.6893 387.852 39.932 387.73 40.24C387.618 40.5387 387.562 40.912 387.562 41.36V45H386.386ZM394.228 45.168C393.64 45.168 393.127 45.07 392.688 44.874C392.259 44.678 391.913 44.4073 391.652 44.062C391.4 43.7073 391.246 43.292 391.19 42.816H392.394C392.441 43.0587 392.539 43.2827 392.688 43.488C392.837 43.6933 393.038 43.8613 393.29 43.992C393.551 44.1133 393.869 44.174 394.242 44.174C394.569 44.174 394.839 44.1273 395.054 44.034C395.269 43.9313 395.427 43.796 395.53 43.628C395.642 43.46 395.698 43.278 395.698 43.082C395.698 42.7927 395.628 42.5733 395.488 42.424C395.357 42.2747 395.161 42.158 394.9 42.074C394.639 41.9807 394.321 41.9013 393.948 41.836C393.64 41.78 393.337 41.7053 393.038 41.612C392.739 41.5187 392.473 41.3973 392.24 41.248C392.007 41.0893 391.82 40.898 391.68 40.674C391.549 40.45 391.484 40.1747 391.484 39.848C391.484 39.4467 391.587 39.092 391.792 38.784C391.997 38.4667 392.291 38.2193 392.674 38.042C393.066 37.8647 393.519 37.776 394.032 37.776C394.788 37.776 395.399 37.958 395.866 38.322C396.333 38.686 396.608 39.2133 396.692 39.904H395.53C395.483 39.5493 395.329 39.274 395.068 39.078C394.816 38.8727 394.466 38.77 394.018 38.77C393.579 38.77 393.243 38.8587 393.01 39.036C392.786 39.2133 392.674 39.4467 392.674 39.736C392.674 39.9227 392.735 40.0907 392.856 40.24C392.987 40.38 393.173 40.5013 393.416 40.604C393.668 40.7067 393.976 40.7907 394.34 40.856C394.807 40.94 395.231 41.052 395.614 41.192C395.997 41.332 396.305 41.542 396.538 41.822C396.781 42.0927 396.902 42.48 396.902 42.984C396.902 43.4227 396.79 43.8053 396.566 44.132C396.351 44.4587 396.043 44.7153 395.642 44.902C395.241 45.0793 394.769 45.168 394.228 45.168ZM398.707 45V37.944H399.883V45H398.707ZM399.295 36.446C399.062 36.446 398.866 36.3713 398.707 36.222C398.558 36.0633 398.483 35.8673 398.483 35.634C398.483 35.4007 398.558 35.214 398.707 35.074C398.866 34.9247 399.062 34.85 399.295 34.85C399.519 34.85 399.711 34.9247 399.869 35.074C400.028 35.214 400.107 35.4007 400.107 35.634C400.107 35.8673 400.028 36.0633 399.869 36.222C399.711 36.3713 399.519 36.446 399.295 36.446ZM405.109 45.168C404.455 45.168 403.867 45.0187 403.345 44.72C402.822 44.412 402.411 43.9827 402.113 43.432C401.814 42.872 401.665 42.2233 401.665 41.486C401.665 40.73 401.814 40.0767 402.113 39.526C402.421 38.966 402.836 38.5367 403.359 38.238C403.891 37.93 404.483 37.776 405.137 37.776C405.809 37.776 406.401 37.93 406.915 38.238C407.437 38.5367 407.848 38.966 408.147 39.526C408.455 40.0767 408.609 40.7253 408.609 41.472C408.609 42.2187 408.455 42.872 408.147 43.432C407.839 43.9827 407.423 44.412 406.901 44.72C406.378 45.0187 405.781 45.168 405.109 45.168ZM405.123 44.16C405.524 44.16 405.897 44.062 406.243 43.866C406.588 43.6607 406.868 43.3573 407.083 42.956C407.297 42.5547 407.405 42.06 407.405 41.472C407.405 40.8747 407.297 40.38 407.083 39.988C406.877 39.5867 406.602 39.288 406.257 39.092C405.921 38.8867 405.547 38.784 405.137 38.784C404.745 38.784 404.371 38.8867 404.017 39.092C403.671 39.288 403.391 39.5867 403.177 39.988C402.971 40.38 402.869 40.8747 402.869 41.472C402.869 42.06 402.971 42.5547 403.177 42.956C403.391 43.3573 403.667 43.6607 404.003 43.866C404.348 44.062 404.721 44.16 405.123 44.16ZM410.257 45V37.944H411.321L411.377 39.176C411.601 38.7373 411.919 38.3967 412.329 38.154C412.749 37.902 413.225 37.776 413.757 37.776C414.308 37.776 414.784 37.888 415.185 38.112C415.587 38.3267 415.899 38.658 416.123 39.106C416.347 39.5447 416.459 40.1047 416.459 40.786V45H415.283V40.912C415.283 40.2027 415.125 39.6707 414.807 39.316C414.499 38.9613 414.061 38.784 413.491 38.784C413.099 38.784 412.749 38.882 412.441 39.078C412.133 39.2647 411.886 39.54 411.699 39.904C411.522 40.2587 411.433 40.702 411.433 41.234V45H410.257Z" fill="#EEEFF1"/>
</g>
<defs>
<filter id="filter0_d_2654_37847" x="0" y="0" width="525" height="268" filterUnits="userSpaceOnUse" color-interpolation-filters="sRGB">
<feFlood flood-opacity="0" result="BackgroundImageFix"/>
<feColorMatrix in="SourceAlpha" type="matrix" values="0 0 0 0 0 0 0 0 0 0 0 0 0 0 0 0 0 0 127 0" result="hardAlpha"/>
<feOffset dy="24"/>
<feGaussianBlur stdDeviation="22"/>
<feComposite in2="hardAlpha" operator="out"/>
<feColorMatrix type="matrix" values="0 0 0 0 0 0 0 0 0 0 0 0 0 0 0 0 0 0 0.5 0"/>
<feBlend mode="normal" in2="BackgroundImageFix" result="effect1_dropShadow_2654_37847"/>
<feBlend mode="normal" in="SourceGraphic" in2="effect1_dropShadow_2654_37847" result="shape"/>
</filter>
</defs>
</svg>
