<svg width="458" height="456" viewBox="0 0 458 456" fill="none" xmlns="http://www.w3.org/2000/svg">
<g filter="url(#filter0_f_2483_87663)">
<ellipse cx="229" cy="288" rx="177" ry="88" fill="url(#paint0_linear_2483_87663)"/>
</g>
<g filter="url(#filter1_d_2483_87663)">
<path d="M57.5 190C57.5 184.753 61.7533 180.5 67 180.5H473C478.247 180.5 482.5 184.753 482.5 190V219.5H57.5V190Z" fill="#0C0D0E" stroke="#86888E"/>
<rect x="57.5" y="219.5" width="436" height="35" fill="#1D1F22" stroke="#86888E"/>
<rect x="57.5" y="289.5" width="436" height="35" fill="#1D1F22" stroke="#86888E"/>
<path d="M57.5 324.5H482.5V350C482.5 355.247 478.247 359.5 473 359.5H67C61.7533 359.5 57.5 355.247 57.5 350V324.5Z" fill="#1D1F22" stroke="#86888E"/>
<path d="M70.234 242.168C69.646 242.168 69.1373 242.056 68.708 241.832C68.288 241.608 67.9613 241.286 67.728 240.866C67.504 240.446 67.392 239.947 67.392 239.368H68.582C68.582 239.695 68.6333 239.993 68.736 240.264C68.848 240.525 69.0207 240.735 69.254 240.894C69.4967 241.043 69.8187 241.118 70.22 241.118C70.612 241.118 70.92 241.043 71.144 240.894C71.3773 240.745 71.5407 240.544 71.634 240.292C71.7367 240.031 71.788 239.737 71.788 239.41V232.2H72.964V239.41C72.964 240.287 72.7213 240.969 72.236 241.454C71.76 241.93 71.0927 242.168 70.234 242.168ZM78.1437 242.168C77.4903 242.168 76.9023 242.019 76.3797 241.72C75.857 241.412 75.4463 240.983 75.1477 240.432C74.849 239.872 74.6997 239.223 74.6997 238.486C74.6997 237.73 74.849 237.077 75.1477 236.526C75.4557 235.966 75.871 235.537 76.3937 235.238C76.9257 234.93 77.5183 234.776 78.1717 234.776C78.8437 234.776 79.4363 234.93 79.9497 235.238C80.4723 235.537 80.883 235.966 81.1817 236.526C81.4897 237.077 81.6437 237.725 81.6437 238.472C81.6437 239.219 81.4897 239.872 81.1817 240.432C80.8737 240.983 80.4583 241.412 79.9357 241.72C79.413 242.019 78.8157 242.168 78.1437 242.168ZM78.1577 241.16C78.559 241.16 78.9323 241.062 79.2777 240.866C79.623 240.661 79.903 240.357 80.1177 239.956C80.3323 239.555 80.4397 239.06 80.4397 238.472C80.4397 237.875 80.3323 237.38 80.1177 236.988C79.9123 236.587 79.637 236.288 79.2917 236.092C78.9557 235.887 78.5823 235.784 78.1717 235.784C77.7797 235.784 77.4063 235.887 77.0517 236.092C76.7063 236.288 76.4263 236.587 76.2117 236.988C76.0063 237.38 75.9037 237.875 75.9037 238.472C75.9037 239.06 76.0063 239.555 76.2117 239.956C76.4263 240.357 76.7017 240.661 77.0377 240.866C77.383 241.062 77.7563 241.16 78.1577 241.16ZM83.2925 242V231.92H84.4685V236.134C84.7018 235.714 85.0285 235.383 85.4485 235.14C85.8778 234.897 86.3445 234.776 86.8485 234.776C87.3898 234.776 87.8612 234.888 88.2625 235.112C88.6638 235.327 88.9718 235.658 89.1865 236.106C89.4012 236.554 89.5085 237.119 89.5085 237.8V242H88.3465V237.926C88.3465 237.217 88.1972 236.685 87.8985 236.33C87.5998 235.966 87.1658 235.784 86.5965 235.784C86.1952 235.784 85.8312 235.882 85.5045 236.078C85.1872 236.274 84.9352 236.554 84.7485 236.918C84.5618 237.282 84.4685 237.73 84.4685 238.262V242H83.2925ZM91.3452 242V234.944H92.4092L92.4652 236.176C92.6892 235.737 93.0066 235.397 93.4172 235.154C93.8372 234.902 94.3132 234.776 94.8452 234.776C95.3959 234.776 95.8719 234.888 96.2732 235.112C96.6746 235.327 96.9872 235.658 97.2112 236.106C97.4352 236.545 97.5472 237.105 97.5472 237.786V242H96.3712V237.912C96.3712 237.203 96.2126 236.671 95.8952 236.316C95.5872 235.961 95.1486 235.784 94.5792 235.784C94.1872 235.784 93.8372 235.882 93.5292 236.078C93.2212 236.265 92.9739 236.54 92.7872 236.904C92.6099 237.259 92.5212 237.702 92.5212 238.234V242H91.3452ZM103.173 242V232.2H106.057C107.205 232.2 108.148 232.401 108.885 232.802C109.632 233.194 110.182 233.759 110.537 234.496C110.901 235.224 111.083 236.101 111.083 237.128C111.083 238.136 110.901 239.004 110.537 239.732C110.182 240.46 109.632 241.02 108.885 241.412C108.148 241.804 107.205 242 106.057 242H103.173ZM104.349 241.02H106.029C106.981 241.02 107.737 240.866 108.297 240.558C108.857 240.241 109.258 239.793 109.501 239.214C109.744 238.626 109.865 237.931 109.865 237.128C109.865 236.307 109.744 235.602 109.501 235.014C109.258 234.426 108.857 233.973 108.297 233.656C107.737 233.339 106.981 233.18 106.029 233.18H104.349V241.02ZM115.892 242.168C115.238 242.168 114.65 242.019 114.128 241.72C113.605 241.412 113.194 240.983 112.896 240.432C112.597 239.872 112.448 239.223 112.448 238.486C112.448 237.73 112.597 237.077 112.896 236.526C113.204 235.966 113.619 235.537 114.142 235.238C114.674 234.93 115.266 234.776 115.92 234.776C116.592 234.776 117.184 234.93 117.698 235.238C118.22 235.537 118.631 235.966 118.93 236.526C119.238 237.077 119.392 237.725 119.392 238.472C119.392 239.219 119.238 239.872 118.93 240.432C118.622 240.983 118.206 241.412 117.684 241.72C117.161 242.019 116.564 242.168 115.892 242.168ZM115.906 241.16C116.307 241.16 116.68 241.062 117.026 240.866C117.371 240.661 117.651 240.357 117.866 239.956C118.08 239.555 118.188 239.06 118.188 238.472C118.188 237.875 118.08 237.38 117.866 236.988C117.66 236.587 117.385 236.288 117.04 236.092C116.704 235.887 116.33 235.784 115.92 235.784C115.528 235.784 115.154 235.887 114.8 236.092C114.454 236.288 114.174 236.587 113.96 236.988C113.754 237.38 113.652 237.875 113.652 238.472C113.652 239.06 113.754 239.555 113.96 239.956C114.174 240.357 114.45 240.661 114.786 240.866C115.131 241.062 115.504 241.16 115.906 241.16ZM124.135 242.168C123.472 242.168 122.884 242.014 122.371 241.706C121.867 241.398 121.47 240.969 121.181 240.418C120.891 239.858 120.747 239.209 120.747 238.472C120.747 237.725 120.887 237.077 121.167 236.526C121.456 235.975 121.857 235.546 122.371 235.238C122.893 234.93 123.491 234.776 124.163 234.776C124.853 234.776 125.437 234.93 125.913 235.238C126.398 235.546 126.767 235.952 127.019 236.456C127.28 236.951 127.411 237.497 127.411 238.094C127.411 238.187 127.411 238.285 127.411 238.388C127.411 238.491 127.406 238.607 127.397 238.738H121.629V237.828H126.263C126.235 237.184 126.02 236.68 125.619 236.316C125.227 235.952 124.732 235.77 124.135 235.77C123.733 235.77 123.36 235.863 123.015 236.05C122.679 236.227 122.408 236.493 122.203 236.848C121.997 237.193 121.895 237.627 121.895 238.15V238.542C121.895 239.121 121.997 239.606 122.203 239.998C122.417 240.39 122.693 240.684 123.029 240.88C123.374 241.076 123.743 241.174 124.135 241.174C124.629 241.174 125.035 241.067 125.353 240.852C125.679 240.628 125.913 240.329 126.053 239.956H127.215C127.103 240.376 126.907 240.754 126.627 241.09C126.347 241.426 125.997 241.692 125.577 241.888C125.166 242.075 124.685 242.168 124.135 242.168Z" fill="#EEEFF1"/>
<path d="M70.234 312.168C69.646 312.168 69.1373 312.056 68.708 311.832C68.288 311.608 67.9613 311.286 67.728 310.866C67.504 310.446 67.392 309.947 67.392 309.368H68.582C68.582 309.695 68.6333 309.993 68.736 310.264C68.848 310.525 69.0207 310.735 69.254 310.894C69.4967 311.043 69.8187 311.118 70.22 311.118C70.612 311.118 70.92 311.043 71.144 310.894C71.3773 310.745 71.5407 310.544 71.634 310.292C71.7367 310.031 71.788 309.737 71.788 309.41V302.2H72.964V309.41C72.964 310.287 72.7213 310.969 72.236 311.454C71.76 311.93 71.0927 312.168 70.234 312.168ZM78.1437 312.168C77.4903 312.168 76.9023 312.019 76.3797 311.72C75.857 311.412 75.4463 310.983 75.1477 310.432C74.849 309.872 74.6997 309.223 74.6997 308.486C74.6997 307.73 74.849 307.077 75.1477 306.526C75.4557 305.966 75.871 305.537 76.3937 305.238C76.9257 304.93 77.5183 304.776 78.1717 304.776C78.8437 304.776 79.4363 304.93 79.9497 305.238C80.4723 305.537 80.883 305.966 81.1817 306.526C81.4897 307.077 81.6437 307.725 81.6437 308.472C81.6437 309.219 81.4897 309.872 81.1817 310.432C80.8737 310.983 80.4583 311.412 79.9357 311.72C79.413 312.019 78.8157 312.168 78.1437 312.168ZM78.1577 311.16C78.559 311.16 78.9323 311.062 79.2777 310.866C79.623 310.661 79.903 310.357 80.1177 309.956C80.3323 309.555 80.4397 309.06 80.4397 308.472C80.4397 307.875 80.3323 307.38 80.1177 306.988C79.9123 306.587 79.637 306.288 79.2917 306.092C78.9557 305.887 78.5823 305.784 78.1717 305.784C77.7797 305.784 77.4063 305.887 77.0517 306.092C76.7063 306.288 76.4263 306.587 76.2117 306.988C76.0063 307.38 75.9037 307.875 75.9037 308.472C75.9037 309.06 76.0063 309.555 76.2117 309.956C76.4263 310.357 76.7017 310.661 77.0377 310.866C77.383 311.062 77.7563 311.16 78.1577 311.16ZM83.2925 312V301.92H84.4685V306.134C84.7018 305.714 85.0285 305.383 85.4485 305.14C85.8778 304.897 86.3445 304.776 86.8485 304.776C87.3898 304.776 87.8612 304.888 88.2625 305.112C88.6638 305.327 88.9718 305.658 89.1865 306.106C89.4012 306.554 89.5085 307.119 89.5085 307.8V312H88.3465V307.926C88.3465 307.217 88.1972 306.685 87.8985 306.33C87.5998 305.966 87.1658 305.784 86.5965 305.784C86.1952 305.784 85.8312 305.882 85.5045 306.078C85.1872 306.274 84.9352 306.554 84.7485 306.918C84.5618 307.282 84.4685 307.73 84.4685 308.262V312H83.2925ZM91.3452 312V304.944H92.4092L92.4652 306.176C92.6892 305.737 93.0066 305.397 93.4172 305.154C93.8372 304.902 94.3132 304.776 94.8452 304.776C95.3959 304.776 95.8719 304.888 96.2732 305.112C96.6746 305.327 96.9872 305.658 97.2112 306.106C97.4352 306.545 97.5472 307.105 97.5472 307.786V312H96.3712V307.912C96.3712 307.203 96.2126 306.671 95.8952 306.316C95.5872 305.961 95.1486 305.784 94.5792 305.784C94.1872 305.784 93.8372 305.882 93.5292 306.078C93.2212 306.265 92.9739 306.54 92.7872 306.904C92.6099 307.259 92.5212 307.702 92.5212 308.234V312H91.3452ZM103.173 312V302.2H106.057C107.205 302.2 108.148 302.401 108.885 302.802C109.632 303.194 110.182 303.759 110.537 304.496C110.901 305.224 111.083 306.101 111.083 307.128C111.083 308.136 110.901 309.004 110.537 309.732C110.182 310.46 109.632 311.02 108.885 311.412C108.148 311.804 107.205 312 106.057 312H103.173ZM104.349 311.02H106.029C106.981 311.02 107.737 310.866 108.297 310.558C108.857 310.241 109.258 309.793 109.501 309.214C109.744 308.626 109.865 307.931 109.865 307.128C109.865 306.307 109.744 305.602 109.501 305.014C109.258 304.426 108.857 303.973 108.297 303.656C107.737 303.339 106.981 303.18 106.029 303.18H104.349V311.02ZM115.892 312.168C115.238 312.168 114.65 312.019 114.128 311.72C113.605 311.412 113.194 310.983 112.896 310.432C112.597 309.872 112.448 309.223 112.448 308.486C112.448 307.73 112.597 307.077 112.896 306.526C113.204 305.966 113.619 305.537 114.142 305.238C114.674 304.93 115.266 304.776 115.92 304.776C116.592 304.776 117.184 304.93 117.698 305.238C118.22 305.537 118.631 305.966 118.93 306.526C119.238 307.077 119.392 307.725 119.392 308.472C119.392 309.219 119.238 309.872 118.93 310.432C118.622 310.983 118.206 311.412 117.684 311.72C117.161 312.019 116.564 312.168 115.892 312.168ZM115.906 311.16C116.307 311.16 116.68 311.062 117.026 310.866C117.371 310.661 117.651 310.357 117.866 309.956C118.08 309.555 118.188 309.06 118.188 308.472C118.188 307.875 118.08 307.38 117.866 306.988C117.66 306.587 117.385 306.288 117.04 306.092C116.704 305.887 116.33 305.784 115.92 305.784C115.528 305.784 115.154 305.887 114.8 306.092C114.454 306.288 114.174 306.587 113.96 306.988C113.754 307.38 113.652 307.875 113.652 308.472C113.652 309.06 113.754 309.555 113.96 309.956C114.174 310.357 114.45 310.661 114.786 310.866C115.131 311.062 115.504 311.16 115.906 311.16ZM124.135 312.168C123.472 312.168 122.884 312.014 122.371 311.706C121.867 311.398 121.47 310.969 121.181 310.418C120.891 309.858 120.747 309.209 120.747 308.472C120.747 307.725 120.887 307.077 121.167 306.526C121.456 305.975 121.857 305.546 122.371 305.238C122.893 304.93 123.491 304.776 124.163 304.776C124.853 304.776 125.437 304.93 125.913 305.238C126.398 305.546 126.767 305.952 127.019 306.456C127.28 306.951 127.411 307.497 127.411 308.094C127.411 308.187 127.411 308.285 127.411 308.388C127.411 308.491 127.406 308.607 127.397 308.738H121.629V307.828H126.263C126.235 307.184 126.02 306.68 125.619 306.316C125.227 305.952 124.732 305.77 124.135 305.77C123.733 305.77 123.36 305.863 123.015 306.05C122.679 306.227 122.408 306.493 122.203 306.848C121.997 307.193 121.895 307.627 121.895 308.15V308.542C121.895 309.121 121.997 309.606 122.203 309.998C122.417 310.39 122.693 310.684 123.029 310.88C123.374 311.076 123.743 311.174 124.135 311.174C124.629 311.174 125.035 311.067 125.353 310.852C125.679 310.628 125.913 310.329 126.053 309.956H127.215C127.103 310.376 126.907 310.754 126.627 311.09C126.347 311.426 125.997 311.692 125.577 311.888C125.166 312.075 124.685 312.168 124.135 312.168Z" fill="#EEEFF1"/>
<path d="M70.234 347.168C69.646 347.168 69.1373 347.056 68.708 346.832C68.288 346.608 67.9613 346.286 67.728 345.866C67.504 345.446 67.392 344.947 67.392 344.368H68.582C68.582 344.695 68.6333 344.993 68.736 345.264C68.848 345.525 69.0207 345.735 69.254 345.894C69.4967 346.043 69.8187 346.118 70.22 346.118C70.612 346.118 70.92 346.043 71.144 345.894C71.3773 345.745 71.5407 345.544 71.634 345.292C71.7367 345.031 71.788 344.737 71.788 344.41V337.2H72.964V344.41C72.964 345.287 72.7213 345.969 72.236 346.454C71.76 346.93 71.0927 347.168 70.234 347.168ZM78.1437 347.168C77.4903 347.168 76.9023 347.019 76.3797 346.72C75.857 346.412 75.4463 345.983 75.1477 345.432C74.849 344.872 74.6997 344.223 74.6997 343.486C74.6997 342.73 74.849 342.077 75.1477 341.526C75.4557 340.966 75.871 340.537 76.3937 340.238C76.9257 339.93 77.5183 339.776 78.1717 339.776C78.8437 339.776 79.4363 339.93 79.9497 340.238C80.4723 340.537 80.883 340.966 81.1817 341.526C81.4897 342.077 81.6437 342.725 81.6437 343.472C81.6437 344.219 81.4897 344.872 81.1817 345.432C80.8737 345.983 80.4583 346.412 79.9357 346.72C79.413 347.019 78.8157 347.168 78.1437 347.168ZM78.1577 346.16C78.559 346.16 78.9323 346.062 79.2777 345.866C79.623 345.661 79.903 345.357 80.1177 344.956C80.3323 344.555 80.4397 344.06 80.4397 343.472C80.4397 342.875 80.3323 342.38 80.1177 341.988C79.9123 341.587 79.637 341.288 79.2917 341.092C78.9557 340.887 78.5823 340.784 78.1717 340.784C77.7797 340.784 77.4063 340.887 77.0517 341.092C76.7063 341.288 76.4263 341.587 76.2117 341.988C76.0063 342.38 75.9037 342.875 75.9037 343.472C75.9037 344.06 76.0063 344.555 76.2117 344.956C76.4263 345.357 76.7017 345.661 77.0377 345.866C77.383 346.062 77.7563 346.16 78.1577 346.16ZM83.2925 347V336.92H84.4685V341.134C84.7018 340.714 85.0285 340.383 85.4485 340.14C85.8778 339.897 86.3445 339.776 86.8485 339.776C87.3898 339.776 87.8612 339.888 88.2625 340.112C88.6638 340.327 88.9718 340.658 89.1865 341.106C89.4012 341.554 89.5085 342.119 89.5085 342.8V347H88.3465V342.926C88.3465 342.217 88.1972 341.685 87.8985 341.33C87.5998 340.966 87.1658 340.784 86.5965 340.784C86.1952 340.784 85.8312 340.882 85.5045 341.078C85.1872 341.274 84.9352 341.554 84.7485 341.918C84.5618 342.282 84.4685 342.73 84.4685 343.262V347H83.2925ZM91.3452 347V339.944H92.4092L92.4652 341.176C92.6892 340.737 93.0066 340.397 93.4172 340.154C93.8372 339.902 94.3132 339.776 94.8452 339.776C95.3959 339.776 95.8719 339.888 96.2732 340.112C96.6746 340.327 96.9872 340.658 97.2112 341.106C97.4352 341.545 97.5472 342.105 97.5472 342.786V347H96.3712V342.912C96.3712 342.203 96.2126 341.671 95.8952 341.316C95.5872 340.961 95.1486 340.784 94.5792 340.784C94.1872 340.784 93.8372 340.882 93.5292 341.078C93.2212 341.265 92.9739 341.54 92.7872 341.904C92.6099 342.259 92.5212 342.702 92.5212 343.234V347H91.3452ZM103.173 347V337.2H106.057C107.205 337.2 108.148 337.401 108.885 337.802C109.632 338.194 110.182 338.759 110.537 339.496C110.901 340.224 111.083 341.101 111.083 342.128C111.083 343.136 110.901 344.004 110.537 344.732C110.182 345.46 109.632 346.02 108.885 346.412C108.148 346.804 107.205 347 106.057 347H103.173ZM104.349 346.02H106.029C106.981 346.02 107.737 345.866 108.297 345.558C108.857 345.241 109.258 344.793 109.501 344.214C109.744 343.626 109.865 342.931 109.865 342.128C109.865 341.307 109.744 340.602 109.501 340.014C109.258 339.426 108.857 338.973 108.297 338.656C107.737 338.339 106.981 338.18 106.029 338.18H104.349V346.02ZM115.892 347.168C115.238 347.168 114.65 347.019 114.128 346.72C113.605 346.412 113.194 345.983 112.896 345.432C112.597 344.872 112.448 344.223 112.448 343.486C112.448 342.73 112.597 342.077 112.896 341.526C113.204 340.966 113.619 340.537 114.142 340.238C114.674 339.93 115.266 339.776 115.92 339.776C116.592 339.776 117.184 339.93 117.698 340.238C118.22 340.537 118.631 340.966 118.93 341.526C119.238 342.077 119.392 342.725 119.392 343.472C119.392 344.219 119.238 344.872 118.93 345.432C118.622 345.983 118.206 346.412 117.684 346.72C117.161 347.019 116.564 347.168 115.892 347.168ZM115.906 346.16C116.307 346.16 116.68 346.062 117.026 345.866C117.371 345.661 117.651 345.357 117.866 344.956C118.08 344.555 118.188 344.06 118.188 343.472C118.188 342.875 118.08 342.38 117.866 341.988C117.66 341.587 117.385 341.288 117.04 341.092C116.704 340.887 116.33 340.784 115.92 340.784C115.528 340.784 115.154 340.887 114.8 341.092C114.454 341.288 114.174 341.587 113.96 341.988C113.754 342.38 113.652 342.875 113.652 343.472C113.652 344.06 113.754 344.555 113.96 344.956C114.174 345.357 114.45 345.661 114.786 345.866C115.131 346.062 115.504 346.16 115.906 346.16ZM124.135 347.168C123.472 347.168 122.884 347.014 122.371 346.706C121.867 346.398 121.47 345.969 121.181 345.418C120.891 344.858 120.747 344.209 120.747 343.472C120.747 342.725 120.887 342.077 121.167 341.526C121.456 340.975 121.857 340.546 122.371 340.238C122.893 339.93 123.491 339.776 124.163 339.776C124.853 339.776 125.437 339.93 125.913 340.238C126.398 340.546 126.767 340.952 127.019 341.456C127.28 341.951 127.411 342.497 127.411 343.094C127.411 343.187 127.411 343.285 127.411 343.388C127.411 343.491 127.406 343.607 127.397 343.738H121.629V342.828H126.263C126.235 342.184 126.02 341.68 125.619 341.316C125.227 340.952 124.732 340.77 124.135 340.77C123.733 340.77 123.36 340.863 123.015 341.05C122.679 341.227 122.408 341.493 122.203 341.848C121.997 342.193 121.895 342.627 121.895 343.15V343.542C121.895 344.121 121.997 344.606 122.203 344.998C122.417 345.39 122.693 345.684 123.029 345.88C123.374 346.076 123.743 346.174 124.135 346.174C124.629 346.174 125.035 346.067 125.353 345.852C125.679 345.628 125.913 345.329 126.053 344.956H127.215C127.103 345.376 126.907 345.754 126.627 346.09C126.347 346.426 125.997 346.692 125.577 346.888C125.166 347.075 124.685 347.168 124.135 347.168Z" fill="#EEEFF1"/>
<path d="M233.809 242.168C233.137 242.168 232.525 242.033 231.975 241.762C231.433 241.491 230.999 241.081 230.673 240.53C230.346 239.97 230.183 239.256 230.183 238.388V232.2H231.359V238.402C231.359 239.037 231.461 239.555 231.667 239.956C231.881 240.357 232.175 240.651 232.549 240.838C232.922 241.025 233.351 241.118 233.837 241.118C234.331 241.118 234.761 241.025 235.125 240.838C235.489 240.651 235.773 240.357 235.979 239.956C236.184 239.555 236.287 239.037 236.287 238.402V232.2H237.463V238.388C237.463 239.256 237.299 239.97 236.973 240.53C236.646 241.081 236.207 241.491 235.657 241.762C235.106 242.033 234.49 242.168 233.809 242.168ZM242.045 242.168C241.457 242.168 240.943 242.07 240.505 241.874C240.075 241.678 239.73 241.407 239.469 241.062C239.217 240.707 239.063 240.292 239.007 239.816H240.211C240.257 240.059 240.355 240.283 240.505 240.488C240.654 240.693 240.855 240.861 241.107 240.992C241.368 241.113 241.685 241.174 242.059 241.174C242.385 241.174 242.656 241.127 242.871 241.034C243.085 240.931 243.244 240.796 243.347 240.628C243.459 240.46 243.515 240.278 243.515 240.082C243.515 239.793 243.445 239.573 243.305 239.424C243.174 239.275 242.978 239.158 242.717 239.074C242.455 238.981 242.138 238.901 241.765 238.836C241.457 238.78 241.153 238.705 240.855 238.612C240.556 238.519 240.29 238.397 240.057 238.248C239.823 238.089 239.637 237.898 239.497 237.674C239.366 237.45 239.301 237.175 239.301 236.848C239.301 236.447 239.403 236.092 239.609 235.784C239.814 235.467 240.108 235.219 240.491 235.042C240.883 234.865 241.335 234.776 241.849 234.776C242.605 234.776 243.216 234.958 243.683 235.322C244.149 235.686 244.425 236.213 244.509 236.904H243.347C243.3 236.549 243.146 236.274 242.885 236.078C242.633 235.873 242.283 235.77 241.835 235.77C241.396 235.77 241.06 235.859 240.827 236.036C240.603 236.213 240.491 236.447 240.491 236.736C240.491 236.923 240.551 237.091 240.673 237.24C240.803 237.38 240.99 237.501 241.233 237.604C241.485 237.707 241.793 237.791 242.157 237.856C242.623 237.94 243.048 238.052 243.431 238.192C243.813 238.332 244.121 238.542 244.355 238.822C244.597 239.093 244.719 239.48 244.719 239.984C244.719 240.423 244.607 240.805 244.383 241.132C244.168 241.459 243.86 241.715 243.459 241.902C243.057 242.079 242.586 242.168 242.045 242.168ZM249.506 242.168C248.843 242.168 248.255 242.014 247.742 241.706C247.238 241.398 246.841 240.969 246.552 240.418C246.263 239.858 246.118 239.209 246.118 238.472C246.118 237.725 246.258 237.077 246.538 236.526C246.827 235.975 247.229 235.546 247.742 235.238C248.265 234.93 248.862 234.776 249.534 234.776C250.225 234.776 250.808 234.93 251.284 235.238C251.769 235.546 252.138 235.952 252.39 236.456C252.651 236.951 252.782 237.497 252.782 238.094C252.782 238.187 252.782 238.285 252.782 238.388C252.782 238.491 252.777 238.607 252.768 238.738H247V237.828H251.634C251.606 237.184 251.391 236.68 250.99 236.316C250.598 235.952 250.103 235.77 249.506 235.77C249.105 235.77 248.731 235.863 248.386 236.05C248.05 236.227 247.779 236.493 247.574 236.848C247.369 237.193 247.266 237.627 247.266 238.15V238.542C247.266 239.121 247.369 239.606 247.574 239.998C247.789 240.39 248.064 240.684 248.4 240.88C248.745 241.076 249.114 241.174 249.506 241.174C250.001 241.174 250.407 241.067 250.724 240.852C251.051 240.628 251.284 240.329 251.424 239.956H252.586C252.474 240.376 252.278 240.754 251.998 241.09C251.718 241.426 251.368 241.692 250.948 241.888C250.537 242.075 250.057 242.168 249.506 242.168ZM254.369 242V234.944H255.433L255.517 236.288C255.676 235.971 255.876 235.7 256.119 235.476C256.371 235.252 256.67 235.079 257.015 234.958C257.37 234.837 257.771 234.776 258.219 234.776V236.008H257.785C257.486 236.008 257.202 236.05 256.931 236.134C256.66 236.209 256.418 236.335 256.203 236.512C255.998 236.689 255.834 236.932 255.713 237.24C255.601 237.539 255.545 237.912 255.545 238.36V242H254.369Z" fill="#ACADAE"/>
<path d="M379.066 242V233.516L377.386 233.936V233.096L379.458 232.2H380.256V242H379.066ZM385.541 242.168C384.925 242.168 384.398 242.051 383.959 241.818C383.52 241.575 383.17 241.253 382.909 240.852C382.657 240.441 382.503 239.993 382.447 239.508H383.539C383.632 240.031 383.856 240.437 384.211 240.726C384.566 241.006 385.014 241.146 385.555 241.146C386.05 241.146 386.488 240.997 386.871 240.698C387.254 240.399 387.562 239.947 387.795 239.34C388.038 238.724 388.173 237.945 388.201 237.002C388.201 236.974 388.201 236.946 388.201 236.918C388.201 236.89 388.201 236.862 388.201 236.834C388.061 237.123 387.856 237.394 387.585 237.646C387.314 237.898 386.992 238.099 386.619 238.248C386.255 238.397 385.844 238.472 385.387 238.472C384.836 238.472 384.314 238.341 383.819 238.08C383.334 237.819 382.937 237.455 382.629 236.988C382.33 236.512 382.181 235.957 382.181 235.322C382.181 234.771 382.316 234.244 382.587 233.74C382.858 233.236 383.245 232.825 383.749 232.508C384.253 232.191 384.85 232.032 385.541 232.032C386.241 232.032 386.834 232.167 387.319 232.438C387.804 232.699 388.192 233.054 388.481 233.502C388.78 233.941 388.994 234.44 389.125 235C389.256 235.56 389.321 236.129 389.321 236.708C389.321 237.781 389.172 238.729 388.873 239.55C388.584 240.371 388.154 241.015 387.585 241.482C387.025 241.939 386.344 242.168 385.541 242.168ZM385.625 237.45C386.054 237.45 386.442 237.352 386.787 237.156C387.132 236.96 387.403 236.694 387.599 236.358C387.804 236.022 387.907 235.653 387.907 235.252C387.907 234.823 387.804 234.445 387.599 234.118C387.403 233.791 387.132 233.535 386.787 233.348C386.442 233.161 386.054 233.068 385.625 233.068C385.196 233.068 384.808 233.166 384.463 233.362C384.127 233.549 383.861 233.805 383.665 234.132C383.469 234.459 383.371 234.837 383.371 235.266C383.371 235.705 383.469 236.087 383.665 236.414C383.861 236.741 384.127 236.997 384.463 237.184C384.808 237.361 385.196 237.45 385.625 237.45ZM394.654 242.168C393.945 242.168 393.347 242.037 392.862 241.776C392.377 241.505 391.989 241.151 391.7 240.712C391.411 240.264 391.196 239.76 391.056 239.2C390.925 238.64 390.86 238.071 390.86 237.492C390.86 236.409 391.009 235.462 391.308 234.65C391.607 233.829 392.036 233.189 392.596 232.732C393.165 232.265 393.847 232.032 394.64 232.032C395.256 232.032 395.783 232.153 396.222 232.396C396.67 232.629 397.025 232.947 397.286 233.348C397.547 233.749 397.706 234.197 397.762 234.692H396.67C396.577 234.169 396.348 233.768 395.984 233.488C395.629 233.199 395.177 233.054 394.626 233.054C394.141 233.054 393.702 233.208 393.31 233.516C392.918 233.815 392.605 234.277 392.372 234.902C392.148 235.518 392.017 236.307 391.98 237.268C391.98 237.277 391.98 237.291 391.98 237.31C391.98 237.329 391.98 237.347 391.98 237.366C392.129 237.077 392.335 236.806 392.596 236.554C392.867 236.302 393.189 236.101 393.562 235.952C393.935 235.803 394.351 235.728 394.808 235.728C395.359 235.728 395.877 235.859 396.362 236.12C396.847 236.381 397.239 236.75 397.538 237.226C397.846 237.693 398 238.243 398 238.878C398 239.429 397.865 239.956 397.594 240.46C397.333 240.964 396.95 241.375 396.446 241.692C395.942 242.009 395.345 242.168 394.654 242.168ZM394.57 241.132C394.999 241.132 395.382 241.039 395.718 240.852C396.063 240.656 396.329 240.395 396.516 240.068C396.712 239.732 396.81 239.354 396.81 238.934C396.81 238.495 396.712 238.113 396.516 237.786C396.329 237.459 396.063 237.207 395.718 237.03C395.382 236.843 394.999 236.75 394.57 236.75C394.141 236.75 393.753 236.848 393.408 237.044C393.063 237.24 392.787 237.506 392.582 237.842C392.386 238.169 392.288 238.537 392.288 238.948C392.288 239.368 392.386 239.746 392.582 240.082C392.787 240.409 393.063 240.665 393.408 240.852C393.753 241.039 394.141 241.132 394.57 241.132ZM404.369 242V239.9H399.399V238.99L404.159 232.2H405.531V238.864H406.987V239.9H405.531V242H404.369ZM400.701 238.864H404.425V233.502L400.701 238.864ZM409.317 242L413.139 233.208H407.763V232.2H414.343V233.082L410.563 242H409.317Z" fill="#ACADAE"/>
<path d="M233.908 312.168C233.236 312.168 232.625 312.033 232.074 311.762C231.533 311.491 231.099 311.081 230.772 310.53C230.445 309.97 230.282 309.256 230.282 308.388V302.2H231.458V308.402C231.458 309.037 231.561 309.555 231.766 309.956C231.981 310.357 232.275 310.651 232.648 310.838C233.021 311.025 233.451 311.118 233.936 311.118C234.431 311.118 234.86 311.025 235.224 310.838C235.588 310.651 235.873 310.357 236.078 309.956C236.283 309.555 236.386 309.037 236.386 308.402V302.2H237.562V308.388C237.562 309.256 237.399 309.97 237.072 310.53C236.745 311.081 236.307 311.491 235.756 311.762C235.205 312.033 234.589 312.168 233.908 312.168ZM242.144 312.168C241.556 312.168 241.043 312.07 240.604 311.874C240.175 311.678 239.829 311.407 239.568 311.062C239.316 310.707 239.162 310.292 239.106 309.816H240.31C240.357 310.059 240.455 310.283 240.604 310.488C240.753 310.693 240.954 310.861 241.206 310.992C241.467 311.113 241.785 311.174 242.158 311.174C242.485 311.174 242.755 311.127 242.97 311.034C243.185 310.931 243.343 310.796 243.446 310.628C243.558 310.46 243.614 310.278 243.614 310.082C243.614 309.793 243.544 309.573 243.404 309.424C243.273 309.275 243.077 309.158 242.816 309.074C242.555 308.981 242.237 308.901 241.864 308.836C241.556 308.78 241.253 308.705 240.954 308.612C240.655 308.519 240.389 308.397 240.156 308.248C239.923 308.089 239.736 307.898 239.596 307.674C239.465 307.45 239.4 307.175 239.4 306.848C239.4 306.447 239.503 306.092 239.708 305.784C239.913 305.467 240.207 305.219 240.59 305.042C240.982 304.865 241.435 304.776 241.948 304.776C242.704 304.776 243.315 304.958 243.782 305.322C244.249 305.686 244.524 306.213 244.608 306.904H243.446C243.399 306.549 243.245 306.274 242.984 306.078C242.732 305.873 242.382 305.77 241.934 305.77C241.495 305.77 241.159 305.859 240.926 306.036C240.702 306.213 240.59 306.447 240.59 306.736C240.59 306.923 240.651 307.091 240.772 307.24C240.903 307.38 241.089 307.501 241.332 307.604C241.584 307.707 241.892 307.791 242.256 307.856C242.723 307.94 243.147 308.052 243.53 308.192C243.913 308.332 244.221 308.542 244.454 308.822C244.697 309.093 244.818 309.48 244.818 309.984C244.818 310.423 244.706 310.805 244.482 311.132C244.267 311.459 243.959 311.715 243.558 311.902C243.157 312.079 242.685 312.168 242.144 312.168ZM249.605 312.168C248.943 312.168 248.355 312.014 247.841 311.706C247.337 311.398 246.941 310.969 246.651 310.418C246.362 309.858 246.217 309.209 246.217 308.472C246.217 307.725 246.357 307.077 246.637 306.526C246.927 305.975 247.328 305.546 247.841 305.238C248.364 304.93 248.961 304.776 249.633 304.776C250.324 304.776 250.907 304.93 251.383 305.238C251.869 305.546 252.237 305.952 252.489 306.456C252.751 306.951 252.881 307.497 252.881 308.094C252.881 308.187 252.881 308.285 252.881 308.388C252.881 308.491 252.877 308.607 252.867 308.738H247.099V307.828H251.733C251.705 307.184 251.491 306.68 251.089 306.316C250.697 305.952 250.203 305.77 249.605 305.77C249.204 305.77 248.831 305.863 248.485 306.05C248.149 306.227 247.879 306.493 247.673 306.848C247.468 307.193 247.365 307.627 247.365 308.15V308.542C247.365 309.121 247.468 309.606 247.673 309.998C247.888 310.39 248.163 310.684 248.499 310.88C248.845 311.076 249.213 311.174 249.605 311.174C250.1 311.174 250.506 311.067 250.823 310.852C251.15 310.628 251.383 310.329 251.523 309.956H252.685C252.573 310.376 252.377 310.754 252.097 311.09C251.817 311.426 251.467 311.692 251.047 311.888C250.637 312.075 250.156 312.168 249.605 312.168ZM254.468 312V304.944H255.532L255.616 306.288C255.775 305.971 255.976 305.7 256.218 305.476C256.47 305.252 256.769 305.079 257.114 304.958C257.469 304.837 257.87 304.776 258.318 304.776V306.008H257.884C257.586 306.008 257.301 306.05 257.03 306.134C256.76 306.209 256.517 306.335 256.302 306.512C256.097 306.689 255.934 306.932 255.812 307.24C255.7 307.539 255.644 307.912 255.644 308.36V312H254.468Z" fill="#ACADAE"/>
<path d="M377.586 312V303.516L375.906 303.936V303.096L377.978 302.2H378.776V312H377.586ZM384.061 312.168C383.445 312.168 382.918 312.051 382.479 311.818C382.041 311.575 381.691 311.253 381.429 310.852C381.177 310.441 381.023 309.993 380.967 309.508H382.059C382.153 310.031 382.377 310.437 382.731 310.726C383.086 311.006 383.534 311.146 384.075 311.146C384.57 311.146 385.009 310.997 385.391 310.698C385.774 310.399 386.082 309.947 386.315 309.34C386.558 308.724 386.693 307.945 386.721 307.002C386.721 306.974 386.721 306.946 386.721 306.918C386.721 306.89 386.721 306.862 386.721 306.834C386.581 307.123 386.376 307.394 386.105 307.646C385.835 307.898 385.513 308.099 385.139 308.248C384.775 308.397 384.365 308.472 383.907 308.472C383.357 308.472 382.834 308.341 382.339 308.08C381.854 307.819 381.457 307.455 381.149 306.988C380.851 306.512 380.701 305.957 380.701 305.322C380.701 304.771 380.837 304.244 381.107 303.74C381.378 303.236 381.765 302.825 382.269 302.508C382.773 302.191 383.371 302.032 384.061 302.032C384.761 302.032 385.354 302.167 385.839 302.438C386.325 302.699 386.712 303.054 387.001 303.502C387.3 303.941 387.515 304.44 387.645 305C387.776 305.56 387.841 306.129 387.841 306.708C387.841 307.781 387.692 308.729 387.393 309.55C387.104 310.371 386.675 311.015 386.105 311.482C385.545 311.939 384.864 312.168 384.061 312.168ZM384.145 307.45C384.575 307.45 384.962 307.352 385.307 307.156C385.653 306.96 385.923 306.694 386.119 306.358C386.325 306.022 386.427 305.653 386.427 305.252C386.427 304.823 386.325 304.445 386.119 304.118C385.923 303.791 385.653 303.535 385.307 303.348C384.962 303.161 384.575 303.068 384.145 303.068C383.716 303.068 383.329 303.166 382.983 303.362C382.647 303.549 382.381 303.805 382.185 304.132C381.989 304.459 381.891 304.837 381.891 305.266C381.891 305.705 381.989 306.087 382.185 306.414C382.381 306.741 382.647 306.997 382.983 307.184C383.329 307.361 383.716 307.45 384.145 307.45ZM393.174 312.168C392.465 312.168 391.868 312.037 391.382 311.776C390.897 311.505 390.51 311.151 390.22 310.712C389.931 310.264 389.716 309.76 389.576 309.2C389.446 308.64 389.38 308.071 389.38 307.492C389.38 306.409 389.53 305.462 389.828 304.65C390.127 303.829 390.556 303.189 391.116 302.732C391.686 302.265 392.367 302.032 393.16 302.032C393.776 302.032 394.304 302.153 394.742 302.396C395.19 302.629 395.545 302.947 395.806 303.348C396.068 303.749 396.226 304.197 396.282 304.692H395.19C395.097 304.169 394.868 303.768 394.504 303.488C394.15 303.199 393.697 303.054 393.146 303.054C392.661 303.054 392.222 303.208 391.83 303.516C391.438 303.815 391.126 304.277 390.892 304.902C390.668 305.518 390.538 306.307 390.5 307.268C390.5 307.277 390.5 307.291 390.5 307.31C390.5 307.329 390.5 307.347 390.5 307.366C390.65 307.077 390.855 306.806 391.116 306.554C391.387 306.302 391.709 306.101 392.082 305.952C392.456 305.803 392.871 305.728 393.328 305.728C393.879 305.728 394.397 305.859 394.882 306.12C395.368 306.381 395.76 306.75 396.058 307.226C396.366 307.693 396.52 308.243 396.52 308.878C396.52 309.429 396.385 309.956 396.114 310.46C395.853 310.964 395.47 311.375 394.966 311.692C394.462 312.009 393.865 312.168 393.174 312.168ZM393.09 311.132C393.52 311.132 393.902 311.039 394.238 310.852C394.584 310.656 394.85 310.395 395.036 310.068C395.232 309.732 395.33 309.354 395.33 308.934C395.33 308.495 395.232 308.113 395.036 307.786C394.85 307.459 394.584 307.207 394.238 307.03C393.902 306.843 393.52 306.75 393.09 306.75C392.661 306.75 392.274 306.848 391.928 307.044C391.583 307.24 391.308 307.506 391.102 307.842C390.906 308.169 390.808 308.537 390.808 308.948C390.808 309.368 390.906 309.746 391.102 310.082C391.308 310.409 391.583 310.665 391.928 310.852C392.274 311.039 392.661 311.132 393.09 311.132ZM402.203 312.168C401.345 312.168 400.603 311.958 399.977 311.538C399.361 311.109 398.89 310.516 398.563 309.76C398.237 308.995 398.073 308.108 398.073 307.1C398.073 306.092 398.237 305.21 398.563 304.454C398.89 303.689 399.361 303.096 399.977 302.676C400.603 302.247 401.345 302.032 402.203 302.032C403.062 302.032 403.795 302.247 404.401 302.676C405.017 303.096 405.489 303.689 405.815 304.454C406.142 305.21 406.305 306.092 406.305 307.1C406.305 308.108 406.142 308.995 405.815 309.76C405.489 310.516 405.017 311.109 404.401 311.538C403.795 311.958 403.062 312.168 402.203 312.168ZM402.189 311.132C402.749 311.132 403.249 310.973 403.687 310.656C404.126 310.329 404.471 309.867 404.723 309.27C404.975 308.663 405.101 307.94 405.101 307.1C405.101 306.26 404.975 305.541 404.723 304.944C404.471 304.337 404.126 303.875 403.687 303.558C403.249 303.241 402.749 303.082 402.189 303.082C401.629 303.082 401.125 303.241 400.677 303.558C400.239 303.875 399.893 304.337 399.641 304.944C399.399 305.541 399.277 306.26 399.277 307.1C399.277 307.94 399.399 308.663 399.641 309.27C399.893 309.867 400.239 310.329 400.677 310.656C401.125 310.973 401.629 311.132 402.189 311.132ZM411.774 312.168C410.915 312.168 410.173 311.958 409.548 311.538C408.932 311.109 408.46 310.516 408.134 309.76C407.807 308.995 407.644 308.108 407.644 307.1C407.644 306.092 407.807 305.21 408.134 304.454C408.46 303.689 408.932 303.096 409.548 302.676C410.173 302.247 410.915 302.032 411.774 302.032C412.632 302.032 413.365 302.247 413.972 302.676C414.588 303.096 415.059 303.689 415.386 304.454C415.712 305.21 415.876 306.092 415.876 307.1C415.876 308.108 415.712 308.995 415.386 309.76C415.059 310.516 414.588 311.109 413.972 311.538C413.365 311.958 412.632 312.168 411.774 312.168ZM411.76 311.132C412.32 311.132 412.819 310.973 413.258 310.656C413.696 310.329 414.042 309.867 414.294 309.27C414.546 308.663 414.672 307.94 414.672 307.1C414.672 306.26 414.546 305.541 414.294 304.944C414.042 304.337 413.696 303.875 413.258 303.558C412.819 303.241 412.32 303.082 411.76 303.082C411.2 303.082 410.696 303.241 410.248 303.558C409.809 303.875 409.464 304.337 409.212 304.944C408.969 305.541 408.848 306.26 408.848 307.1C408.848 307.94 408.969 308.663 409.212 309.27C409.464 309.867 409.809 310.329 410.248 310.656C410.696 310.973 411.2 311.132 411.76 311.132Z" fill="#ACADAE"/>
<path d="M233.908 347.168C233.236 347.168 232.625 347.033 232.074 346.762C231.533 346.491 231.099 346.081 230.772 345.53C230.445 344.97 230.282 344.256 230.282 343.388V337.2H231.458V343.402C231.458 344.037 231.561 344.555 231.766 344.956C231.981 345.357 232.275 345.651 232.648 345.838C233.021 346.025 233.451 346.118 233.936 346.118C234.431 346.118 234.86 346.025 235.224 345.838C235.588 345.651 235.873 345.357 236.078 344.956C236.283 344.555 236.386 344.037 236.386 343.402V337.2H237.562V343.388C237.562 344.256 237.399 344.97 237.072 345.53C236.745 346.081 236.307 346.491 235.756 346.762C235.205 347.033 234.589 347.168 233.908 347.168ZM242.144 347.168C241.556 347.168 241.043 347.07 240.604 346.874C240.175 346.678 239.829 346.407 239.568 346.062C239.316 345.707 239.162 345.292 239.106 344.816H240.31C240.357 345.059 240.455 345.283 240.604 345.488C240.753 345.693 240.954 345.861 241.206 345.992C241.467 346.113 241.785 346.174 242.158 346.174C242.485 346.174 242.755 346.127 242.97 346.034C243.185 345.931 243.343 345.796 243.446 345.628C243.558 345.46 243.614 345.278 243.614 345.082C243.614 344.793 243.544 344.573 243.404 344.424C243.273 344.275 243.077 344.158 242.816 344.074C242.555 343.981 242.237 343.901 241.864 343.836C241.556 343.78 241.253 343.705 240.954 343.612C240.655 343.519 240.389 343.397 240.156 343.248C239.923 343.089 239.736 342.898 239.596 342.674C239.465 342.45 239.4 342.175 239.4 341.848C239.4 341.447 239.503 341.092 239.708 340.784C239.913 340.467 240.207 340.219 240.59 340.042C240.982 339.865 241.435 339.776 241.948 339.776C242.704 339.776 243.315 339.958 243.782 340.322C244.249 340.686 244.524 341.213 244.608 341.904H243.446C243.399 341.549 243.245 341.274 242.984 341.078C242.732 340.873 242.382 340.77 241.934 340.77C241.495 340.77 241.159 340.859 240.926 341.036C240.702 341.213 240.59 341.447 240.59 341.736C240.59 341.923 240.651 342.091 240.772 342.24C240.903 342.38 241.089 342.501 241.332 342.604C241.584 342.707 241.892 342.791 242.256 342.856C242.723 342.94 243.147 343.052 243.53 343.192C243.913 343.332 244.221 343.542 244.454 343.822C244.697 344.093 244.818 344.48 244.818 344.984C244.818 345.423 244.706 345.805 244.482 346.132C244.267 346.459 243.959 346.715 243.558 346.902C243.157 347.079 242.685 347.168 242.144 347.168ZM249.605 347.168C248.943 347.168 248.355 347.014 247.841 346.706C247.337 346.398 246.941 345.969 246.651 345.418C246.362 344.858 246.217 344.209 246.217 343.472C246.217 342.725 246.357 342.077 246.637 341.526C246.927 340.975 247.328 340.546 247.841 340.238C248.364 339.93 248.961 339.776 249.633 339.776C250.324 339.776 250.907 339.93 251.383 340.238C251.869 340.546 252.237 340.952 252.489 341.456C252.751 341.951 252.881 342.497 252.881 343.094C252.881 343.187 252.881 343.285 252.881 343.388C252.881 343.491 252.877 343.607 252.867 343.738H247.099V342.828H251.733C251.705 342.184 251.491 341.68 251.089 341.316C250.697 340.952 250.203 340.77 249.605 340.77C249.204 340.77 248.831 340.863 248.485 341.05C248.149 341.227 247.879 341.493 247.673 341.848C247.468 342.193 247.365 342.627 247.365 343.15V343.542C247.365 344.121 247.468 344.606 247.673 344.998C247.888 345.39 248.163 345.684 248.499 345.88C248.845 346.076 249.213 346.174 249.605 346.174C250.1 346.174 250.506 346.067 250.823 345.852C251.15 345.628 251.383 345.329 251.523 344.956H252.685C252.573 345.376 252.377 345.754 252.097 346.09C251.817 346.426 251.467 346.692 251.047 346.888C250.637 347.075 250.156 347.168 249.605 347.168ZM254.468 347V339.944H255.532L255.616 341.288C255.775 340.971 255.976 340.7 256.218 340.476C256.47 340.252 256.769 340.079 257.114 339.958C257.469 339.837 257.87 339.776 258.318 339.776V341.008H257.884C257.586 341.008 257.301 341.05 257.03 341.134C256.76 341.209 256.517 341.335 256.302 341.512C256.097 341.689 255.934 341.932 255.812 342.24C255.7 342.539 255.644 342.912 255.644 343.36V347H254.468Z" fill="#ACADAE"/>
<path d="M379.269 347V338.516L377.589 338.936V338.096L379.661 337.2H380.459V347H379.269ZM385.744 347.168C385.128 347.168 384.601 347.051 384.162 346.818C383.723 346.575 383.373 346.253 383.112 345.852C382.86 345.441 382.706 344.993 382.65 344.508H383.742C383.835 345.031 384.059 345.437 384.414 345.726C384.769 346.006 385.217 346.146 385.758 346.146C386.253 346.146 386.691 345.997 387.074 345.698C387.457 345.399 387.765 344.947 387.998 344.34C388.241 343.724 388.376 342.945 388.404 342.002C388.404 341.974 388.404 341.946 388.404 341.918C388.404 341.89 388.404 341.862 388.404 341.834C388.264 342.123 388.059 342.394 387.788 342.646C387.517 342.898 387.195 343.099 386.822 343.248C386.458 343.397 386.047 343.472 385.59 343.472C385.039 343.472 384.517 343.341 384.022 343.08C383.537 342.819 383.14 342.455 382.832 341.988C382.533 341.512 382.384 340.957 382.384 340.322C382.384 339.771 382.519 339.244 382.79 338.74C383.061 338.236 383.448 337.825 383.952 337.508C384.456 337.191 385.053 337.032 385.744 337.032C386.444 337.032 387.037 337.167 387.522 337.438C388.007 337.699 388.395 338.054 388.684 338.502C388.983 338.941 389.197 339.44 389.328 340C389.459 340.56 389.524 341.129 389.524 341.708C389.524 342.781 389.375 343.729 389.076 344.55C388.787 345.371 388.357 346.015 387.788 346.482C387.228 346.939 386.547 347.168 385.744 347.168ZM385.828 342.45C386.257 342.45 386.645 342.352 386.99 342.156C387.335 341.96 387.606 341.694 387.802 341.358C388.007 341.022 388.11 340.653 388.11 340.252C388.11 339.823 388.007 339.445 387.802 339.118C387.606 338.791 387.335 338.535 386.99 338.348C386.645 338.161 386.257 338.068 385.828 338.068C385.399 338.068 385.011 338.166 384.666 338.362C384.33 338.549 384.064 338.805 383.868 339.132C383.672 339.459 383.574 339.837 383.574 340.266C383.574 340.705 383.672 341.087 383.868 341.414C384.064 341.741 384.33 341.997 384.666 342.184C385.011 342.361 385.399 342.45 385.828 342.45ZM394.647 347.168C393.975 347.168 393.392 347.047 392.897 346.804C392.412 346.561 392.024 346.23 391.735 345.81C391.455 345.39 391.278 344.919 391.203 344.396H392.351C392.463 344.919 392.72 345.343 393.121 345.67C393.522 345.997 394.036 346.16 394.661 346.16C395.128 346.16 395.524 346.053 395.851 345.838C396.187 345.623 396.444 345.329 396.621 344.956C396.808 344.583 396.901 344.167 396.901 343.71C396.901 343.234 396.808 342.814 396.621 342.45C396.434 342.086 396.178 341.806 395.851 341.61C395.524 341.405 395.142 341.302 394.703 341.302C394.171 341.302 393.718 341.419 393.345 341.652C392.972 341.885 392.692 342.184 392.505 342.548H391.371L392.183 337.2H397.363V338.222H393.093L392.547 341.232C392.78 340.961 393.088 340.742 393.471 340.574C393.863 340.397 394.316 340.308 394.829 340.308C395.314 340.308 395.753 340.392 396.145 340.56C396.537 340.728 396.873 340.966 397.153 341.274C397.433 341.582 397.648 341.941 397.797 342.352C397.956 342.763 398.035 343.211 398.035 343.696C398.035 344.172 397.956 344.62 397.797 345.04C397.648 345.451 397.428 345.819 397.139 346.146C396.85 346.463 396.495 346.715 396.075 346.902C395.655 347.079 395.179 347.168 394.647 347.168ZM403.094 347.168C402.459 347.168 401.89 347.051 401.386 346.818C400.882 346.575 400.481 346.244 400.182 345.824C399.883 345.395 399.734 344.9 399.734 344.34C399.734 343.939 399.813 343.565 399.972 343.22C400.131 342.875 400.35 342.576 400.63 342.324C400.919 342.063 401.251 341.881 401.624 341.778C401.101 341.591 400.695 341.302 400.406 340.91C400.126 340.518 399.986 340.093 399.986 339.636C399.986 339.151 400.112 338.712 400.364 338.32C400.616 337.928 400.971 337.615 401.428 337.382C401.895 337.149 402.45 337.032 403.094 337.032C403.747 337.032 404.303 337.149 404.76 337.382C405.227 337.615 405.581 337.928 405.824 338.32C406.076 338.712 406.202 339.151 406.202 339.636C406.202 340.093 406.057 340.518 405.768 340.91C405.488 341.302 405.087 341.591 404.564 341.778C404.947 341.881 405.278 342.063 405.558 342.324C405.847 342.576 406.067 342.875 406.216 343.22C406.375 343.565 406.454 343.939 406.454 344.34C406.454 344.9 406.305 345.395 406.006 345.824C405.717 346.244 405.315 346.575 404.802 346.818C404.298 347.051 403.729 347.168 403.094 347.168ZM403.094 346.132C403.831 346.132 404.377 345.964 404.732 345.628C405.096 345.283 405.278 344.83 405.278 344.27C405.278 343.635 405.077 343.155 404.676 342.828C404.284 342.501 403.757 342.338 403.094 342.338C402.431 342.338 401.899 342.501 401.498 342.828C401.106 343.155 400.91 343.635 400.91 344.27C400.91 344.83 401.092 345.283 401.456 345.628C401.82 345.964 402.366 346.132 403.094 346.132ZM403.094 341.358C403.682 341.358 404.149 341.204 404.494 340.896C404.839 340.588 405.012 340.191 405.012 339.706C405.012 339.155 404.839 338.74 404.494 338.46C404.158 338.18 403.691 338.04 403.094 338.04C402.506 338.04 402.039 338.18 401.694 338.46C401.358 338.74 401.19 339.155 401.19 339.706C401.19 340.191 401.358 340.588 401.694 340.896C402.039 341.204 402.506 341.358 403.094 341.358ZM412.843 347V344.9H407.873V343.99L412.633 337.2H414.005V343.864H415.461V344.9H414.005V347H412.843ZM409.175 343.864H412.899V338.502L409.175 343.864Z" fill="#ACADAE"/>
<path d="M57.5 254.5H493.5V289.5H57.5V254.5Z" fill="#1D1F22" stroke="#86888E"/>
<path d="M233.887 277.168C233.215 277.168 232.604 277.033 232.053 276.762C231.512 276.491 231.078 276.081 230.751 275.53C230.424 274.97 230.261 274.256 230.261 273.388V267.2H231.437V273.402C231.437 274.037 231.54 274.555 231.745 274.956C231.96 275.357 232.254 275.651 232.627 275.838C233 276.025 233.43 276.118 233.915 276.118C234.41 276.118 234.839 276.025 235.203 275.838C235.567 275.651 235.852 275.357 236.057 274.956C236.262 274.555 236.365 274.037 236.365 273.402V267.2H237.541V273.388C237.541 274.256 237.378 274.97 237.051 275.53C236.724 276.081 236.286 276.491 235.735 276.762C235.184 277.033 234.568 277.168 233.887 277.168ZM242.123 277.168C241.535 277.168 241.021 277.07 240.583 276.874C240.153 276.678 239.808 276.407 239.547 276.062C239.295 275.707 239.141 275.292 239.085 274.816H240.289C240.335 275.059 240.433 275.283 240.583 275.488C240.732 275.693 240.933 275.861 241.185 275.992C241.446 276.113 241.763 276.174 242.137 276.174C242.463 276.174 242.734 276.127 242.949 276.034C243.163 275.931 243.322 275.796 243.425 275.628C243.537 275.46 243.593 275.278 243.593 275.082C243.593 274.793 243.523 274.573 243.383 274.424C243.252 274.275 243.056 274.158 242.795 274.074C242.533 273.981 242.216 273.901 241.843 273.836C241.535 273.78 241.231 273.705 240.933 273.612C240.634 273.519 240.368 273.397 240.135 273.248C239.901 273.089 239.715 272.898 239.575 272.674C239.444 272.45 239.379 272.175 239.379 271.848C239.379 271.447 239.481 271.092 239.687 270.784C239.892 270.467 240.186 270.219 240.569 270.042C240.961 269.865 241.413 269.776 241.927 269.776C242.683 269.776 243.294 269.958 243.761 270.322C244.227 270.686 244.503 271.213 244.587 271.904H243.425C243.378 271.549 243.224 271.274 242.963 271.078C242.711 270.873 242.361 270.77 241.913 270.77C241.474 270.77 241.138 270.859 240.905 271.036C240.681 271.213 240.569 271.447 240.569 271.736C240.569 271.923 240.629 272.091 240.751 272.24C240.881 272.38 241.068 272.501 241.311 272.604C241.563 272.707 241.871 272.791 242.235 272.856C242.701 272.94 243.126 273.052 243.509 273.192C243.891 273.332 244.199 273.542 244.433 273.822C244.675 274.093 244.797 274.48 244.797 274.984C244.797 275.423 244.685 275.805 244.461 276.132C244.246 276.459 243.938 276.715 243.537 276.902C243.135 277.079 242.664 277.168 242.123 277.168ZM249.584 277.168C248.921 277.168 248.333 277.014 247.82 276.706C247.316 276.398 246.919 275.969 246.63 275.418C246.341 274.858 246.196 274.209 246.196 273.472C246.196 272.725 246.336 272.077 246.616 271.526C246.905 270.975 247.307 270.546 247.82 270.238C248.343 269.93 248.94 269.776 249.612 269.776C250.303 269.776 250.886 269.93 251.362 270.238C251.847 270.546 252.216 270.952 252.468 271.456C252.729 271.951 252.86 272.497 252.86 273.094C252.86 273.187 252.86 273.285 252.86 273.388C252.86 273.491 252.855 273.607 252.846 273.738H247.078V272.828H251.712C251.684 272.184 251.469 271.68 251.068 271.316C250.676 270.952 250.181 270.77 249.584 270.77C249.183 270.77 248.809 270.863 248.464 271.05C248.128 271.227 247.857 271.493 247.652 271.848C247.447 272.193 247.344 272.627 247.344 273.15V273.542C247.344 274.121 247.447 274.606 247.652 274.998C247.867 275.39 248.142 275.684 248.478 275.88C248.823 276.076 249.192 276.174 249.584 276.174C250.079 276.174 250.485 276.067 250.802 275.852C251.129 275.628 251.362 275.329 251.502 274.956H252.664C252.552 275.376 252.356 275.754 252.076 276.09C251.796 276.426 251.446 276.692 251.026 276.888C250.615 277.075 250.135 277.168 249.584 277.168ZM254.447 277V269.944H255.511L255.595 271.288C255.754 270.971 255.955 270.7 256.197 270.476C256.449 270.252 256.748 270.079 257.093 269.958C257.448 269.837 257.849 269.776 258.297 269.776V271.008H257.863C257.565 271.008 257.28 271.05 257.009 271.134C256.739 271.209 256.496 271.335 256.281 271.512C256.076 271.689 255.913 271.932 255.791 272.24C255.679 272.539 255.623 272.912 255.623 273.36V277H254.447Z" fill="#ACADAE"/>
<path d="M378.214 277V268.516L376.534 268.936V268.096L378.606 267.2H379.404V277H378.214ZM384.69 277.168C384.074 277.168 383.546 277.051 383.108 276.818C382.669 276.575 382.319 276.253 382.058 275.852C381.806 275.441 381.652 274.993 381.596 274.508H382.688C382.781 275.031 383.005 275.437 383.36 275.726C383.714 276.006 384.162 276.146 384.704 276.146C385.198 276.146 385.637 275.997 386.02 275.698C386.402 275.399 386.71 274.947 386.944 274.34C387.186 273.724 387.322 272.945 387.35 272.002C387.35 271.974 387.35 271.946 387.35 271.918C387.35 271.89 387.35 271.862 387.35 271.834C387.21 272.123 387.004 272.394 386.734 272.646C386.463 272.898 386.141 273.099 385.768 273.248C385.404 273.397 384.993 273.472 384.536 273.472C383.985 273.472 383.462 273.341 382.968 273.08C382.482 272.819 382.086 272.455 381.778 271.988C381.479 271.512 381.33 270.957 381.33 270.322C381.33 269.771 381.465 269.244 381.736 268.74C382.006 268.236 382.394 267.825 382.898 267.508C383.402 267.191 383.999 267.032 384.69 267.032C385.39 267.032 385.982 267.167 386.468 267.438C386.953 267.699 387.34 268.054 387.63 268.502C387.928 268.941 388.143 269.44 388.274 270C388.404 270.56 388.47 271.129 388.47 271.708C388.47 272.781 388.32 273.729 388.022 274.55C387.732 275.371 387.303 276.015 386.734 276.482C386.174 276.939 385.492 277.168 384.69 277.168ZM384.774 272.45C385.203 272.45 385.59 272.352 385.936 272.156C386.281 271.96 386.552 271.694 386.748 271.358C386.953 271.022 387.056 270.653 387.056 270.252C387.056 269.823 386.953 269.445 386.748 269.118C386.552 268.791 386.281 268.535 385.936 268.348C385.59 268.161 385.203 268.068 384.774 268.068C384.344 268.068 383.957 268.166 383.612 268.362C383.276 268.549 383.01 268.805 382.814 269.132C382.618 269.459 382.52 269.837 382.52 270.266C382.52 270.705 382.618 271.087 382.814 271.414C383.01 271.741 383.276 271.997 383.612 272.184C383.957 272.361 384.344 272.45 384.774 272.45ZM393.803 277.168C393.093 277.168 392.496 277.037 392.011 276.776C391.525 276.505 391.138 276.151 390.849 275.712C390.559 275.264 390.345 274.76 390.205 274.2C390.074 273.64 390.009 273.071 390.009 272.492C390.009 271.409 390.158 270.462 390.457 269.65C390.755 268.829 391.185 268.189 391.745 267.732C392.314 267.265 392.995 267.032 393.789 267.032C394.405 267.032 394.932 267.153 395.371 267.396C395.819 267.629 396.173 267.947 396.435 268.348C396.696 268.749 396.855 269.197 396.911 269.692H395.819C395.725 269.169 395.497 268.768 395.133 268.488C394.778 268.199 394.325 268.054 393.775 268.054C393.289 268.054 392.851 268.208 392.459 268.516C392.067 268.815 391.754 269.277 391.521 269.902C391.297 270.518 391.166 271.307 391.129 272.268C391.129 272.277 391.129 272.291 391.129 272.31C391.129 272.329 391.129 272.347 391.129 272.366C391.278 272.077 391.483 271.806 391.745 271.554C392.015 271.302 392.337 271.101 392.711 270.952C393.084 270.803 393.499 270.728 393.957 270.728C394.507 270.728 395.025 270.859 395.511 271.12C395.996 271.381 396.388 271.75 396.687 272.226C396.995 272.693 397.149 273.243 397.149 273.878C397.149 274.429 397.013 274.956 396.743 275.46C396.481 275.964 396.099 276.375 395.595 276.692C395.091 277.009 394.493 277.168 393.803 277.168ZM393.719 276.132C394.148 276.132 394.531 276.039 394.867 275.852C395.212 275.656 395.478 275.395 395.665 275.068C395.861 274.732 395.959 274.354 395.959 273.934C395.959 273.495 395.861 273.113 395.665 272.786C395.478 272.459 395.212 272.207 394.867 272.03C394.531 271.843 394.148 271.75 393.719 271.75C393.289 271.75 392.902 271.848 392.557 272.044C392.211 272.24 391.936 272.506 391.731 272.842C391.535 273.169 391.437 273.537 391.437 273.948C391.437 274.368 391.535 274.746 391.731 275.082C391.936 275.409 392.211 275.665 392.557 275.852C392.902 276.039 393.289 276.132 393.719 276.132ZM402.832 277.168C401.973 277.168 401.231 276.958 400.606 276.538C399.99 276.109 399.518 275.516 399.192 274.76C398.865 273.995 398.702 273.108 398.702 272.1C398.702 271.092 398.865 270.21 399.192 269.454C399.518 268.689 399.99 268.096 400.606 267.676C401.231 267.247 401.973 267.032 402.832 267.032C403.69 267.032 404.423 267.247 405.03 267.676C405.646 268.096 406.117 268.689 406.444 269.454C406.77 270.21 406.934 271.092 406.934 272.1C406.934 273.108 406.77 273.995 406.444 274.76C406.117 275.516 405.646 276.109 405.03 276.538C404.423 276.958 403.69 277.168 402.832 277.168ZM402.818 276.132C403.378 276.132 403.877 275.973 404.316 275.656C404.754 275.329 405.1 274.867 405.352 274.27C405.604 273.663 405.73 272.94 405.73 272.1C405.73 271.26 405.604 270.541 405.352 269.944C405.1 269.337 404.754 268.875 404.316 268.558C403.877 268.241 403.378 268.082 402.818 268.082C402.258 268.082 401.754 268.241 401.306 268.558C400.867 268.875 400.522 269.337 400.27 269.944C400.027 270.541 399.906 271.26 399.906 272.1C399.906 272.94 400.027 273.663 400.27 274.27C400.522 274.867 400.867 275.329 401.306 275.656C401.754 275.973 402.258 276.132 402.818 276.132ZM411.702 277.168C411.077 277.168 410.507 277.056 409.994 276.832C409.49 276.599 409.089 276.253 408.79 275.796C408.491 275.339 408.333 274.769 408.314 274.088H409.504C409.513 274.461 409.602 274.807 409.77 275.124C409.947 275.432 410.199 275.679 410.526 275.866C410.853 276.053 411.245 276.146 411.702 276.146C412.159 276.146 412.542 276.057 412.85 275.88C413.158 275.703 413.391 275.469 413.55 275.18C413.709 274.881 413.788 274.55 413.788 274.186C413.788 273.729 413.676 273.36 413.452 273.08C413.237 272.791 412.943 272.581 412.57 272.45C412.206 272.31 411.805 272.24 411.366 272.24H410.638V271.246H411.366C412.01 271.246 412.514 271.097 412.878 270.798C413.242 270.499 413.424 270.089 413.424 269.566C413.424 269.137 413.279 268.777 412.99 268.488C412.71 268.199 412.281 268.054 411.702 268.054C411.151 268.054 410.713 268.213 410.386 268.53C410.059 268.847 409.873 269.253 409.826 269.748H408.636C408.664 269.216 408.809 268.745 409.07 268.334C409.331 267.923 409.686 267.606 410.134 267.382C410.582 267.149 411.109 267.032 411.716 267.032C412.351 267.032 412.883 267.144 413.312 267.368C413.741 267.592 414.063 267.891 414.278 268.264C414.502 268.637 414.614 269.048 414.614 269.496C414.614 269.832 414.553 270.149 414.432 270.448C414.311 270.737 414.129 270.994 413.886 271.218C413.643 271.442 413.335 271.601 412.962 271.694C413.345 271.769 413.685 271.913 413.984 272.128C414.292 272.343 414.535 272.623 414.712 272.968C414.889 273.313 414.978 273.719 414.978 274.186C414.978 274.718 414.852 275.213 414.6 275.67C414.357 276.118 413.993 276.482 413.508 276.762C413.023 277.033 412.421 277.168 411.702 277.168Z" fill="#ACADAE"/>
<path d="M70.234 277.168C69.646 277.168 69.1373 277.056 68.708 276.832C68.288 276.608 67.9613 276.286 67.728 275.866C67.504 275.446 67.392 274.947 67.392 274.368H68.582C68.582 274.695 68.6333 274.993 68.736 275.264C68.848 275.525 69.0207 275.735 69.254 275.894C69.4967 276.043 69.8187 276.118 70.22 276.118C70.612 276.118 70.92 276.043 71.144 275.894C71.3773 275.745 71.5407 275.544 71.634 275.292C71.7367 275.031 71.788 274.737 71.788 274.41V267.2H72.964V274.41C72.964 275.287 72.7213 275.969 72.236 276.454C71.76 276.93 71.0927 277.168 70.234 277.168ZM78.1437 277.168C77.4903 277.168 76.9023 277.019 76.3797 276.72C75.857 276.412 75.4463 275.983 75.1477 275.432C74.849 274.872 74.6997 274.223 74.6997 273.486C74.6997 272.73 74.849 272.077 75.1477 271.526C75.4557 270.966 75.871 270.537 76.3937 270.238C76.9257 269.93 77.5183 269.776 78.1717 269.776C78.8437 269.776 79.4363 269.93 79.9497 270.238C80.4723 270.537 80.883 270.966 81.1817 271.526C81.4897 272.077 81.6437 272.725 81.6437 273.472C81.6437 274.219 81.4897 274.872 81.1817 275.432C80.8737 275.983 80.4583 276.412 79.9357 276.72C79.413 277.019 78.8157 277.168 78.1437 277.168ZM78.1577 276.16C78.559 276.16 78.9323 276.062 79.2777 275.866C79.623 275.661 79.903 275.357 80.1177 274.956C80.3323 274.555 80.4397 274.06 80.4397 273.472C80.4397 272.875 80.3323 272.38 80.1177 271.988C79.9123 271.587 79.637 271.288 79.2917 271.092C78.9557 270.887 78.5823 270.784 78.1717 270.784C77.7797 270.784 77.4063 270.887 77.0517 271.092C76.7063 271.288 76.4263 271.587 76.2117 271.988C76.0063 272.38 75.9037 272.875 75.9037 273.472C75.9037 274.06 76.0063 274.555 76.2117 274.956C76.4263 275.357 76.7017 275.661 77.0377 275.866C77.383 276.062 77.7563 276.16 78.1577 276.16ZM83.2925 277V266.92H84.4685V271.134C84.7018 270.714 85.0285 270.383 85.4485 270.14C85.8778 269.897 86.3445 269.776 86.8485 269.776C87.3898 269.776 87.8612 269.888 88.2625 270.112C88.6638 270.327 88.9718 270.658 89.1865 271.106C89.4012 271.554 89.5085 272.119 89.5085 272.8V277H88.3465V272.926C88.3465 272.217 88.1972 271.685 87.8985 271.33C87.5998 270.966 87.1658 270.784 86.5965 270.784C86.1952 270.784 85.8312 270.882 85.5045 271.078C85.1872 271.274 84.9352 271.554 84.7485 271.918C84.5618 272.282 84.4685 272.73 84.4685 273.262V277H83.2925ZM91.3452 277V269.944H92.4092L92.4652 271.176C92.6892 270.737 93.0066 270.397 93.4172 270.154C93.8372 269.902 94.3132 269.776 94.8452 269.776C95.3959 269.776 95.8719 269.888 96.2732 270.112C96.6746 270.327 96.9872 270.658 97.2112 271.106C97.4352 271.545 97.5472 272.105 97.5472 272.786V277H96.3712V272.912C96.3712 272.203 96.2126 271.671 95.8952 271.316C95.5872 270.961 95.1486 270.784 94.5792 270.784C94.1872 270.784 93.8372 270.882 93.5292 271.078C93.2212 271.265 92.9739 271.54 92.7872 271.904C92.6099 272.259 92.5212 272.702 92.5212 273.234V277H91.3452ZM103.173 277V267.2H106.057C107.205 267.2 108.148 267.401 108.885 267.802C109.632 268.194 110.182 268.759 110.537 269.496C110.901 270.224 111.083 271.101 111.083 272.128C111.083 273.136 110.901 274.004 110.537 274.732C110.182 275.46 109.632 276.02 108.885 276.412C108.148 276.804 107.205 277 106.057 277H103.173ZM104.349 276.02H106.029C106.981 276.02 107.737 275.866 108.297 275.558C108.857 275.241 109.258 274.793 109.501 274.214C109.744 273.626 109.865 272.931 109.865 272.128C109.865 271.307 109.744 270.602 109.501 270.014C109.258 269.426 108.857 268.973 108.297 268.656C107.737 268.339 106.981 268.18 106.029 268.18H104.349V276.02ZM115.892 277.168C115.238 277.168 114.65 277.019 114.128 276.72C113.605 276.412 113.194 275.983 112.896 275.432C112.597 274.872 112.448 274.223 112.448 273.486C112.448 272.73 112.597 272.077 112.896 271.526C113.204 270.966 113.619 270.537 114.142 270.238C114.674 269.93 115.266 269.776 115.92 269.776C116.592 269.776 117.184 269.93 117.698 270.238C118.22 270.537 118.631 270.966 118.93 271.526C119.238 272.077 119.392 272.725 119.392 273.472C119.392 274.219 119.238 274.872 118.93 275.432C118.622 275.983 118.206 276.412 117.684 276.72C117.161 277.019 116.564 277.168 115.892 277.168ZM115.906 276.16C116.307 276.16 116.68 276.062 117.026 275.866C117.371 275.661 117.651 275.357 117.866 274.956C118.08 274.555 118.188 274.06 118.188 273.472C118.188 272.875 118.08 272.38 117.866 271.988C117.66 271.587 117.385 271.288 117.04 271.092C116.704 270.887 116.33 270.784 115.92 270.784C115.528 270.784 115.154 270.887 114.8 271.092C114.454 271.288 114.174 271.587 113.96 271.988C113.754 272.38 113.652 272.875 113.652 273.472C113.652 274.06 113.754 274.555 113.96 274.956C114.174 275.357 114.45 275.661 114.786 275.866C115.131 276.062 115.504 276.16 115.906 276.16ZM124.135 277.168C123.472 277.168 122.884 277.014 122.371 276.706C121.867 276.398 121.47 275.969 121.181 275.418C120.891 274.858 120.747 274.209 120.747 273.472C120.747 272.725 120.887 272.077 121.167 271.526C121.456 270.975 121.857 270.546 122.371 270.238C122.893 269.93 123.491 269.776 124.163 269.776C124.853 269.776 125.437 269.93 125.913 270.238C126.398 270.546 126.767 270.952 127.019 271.456C127.28 271.951 127.411 272.497 127.411 273.094C127.411 273.187 127.411 273.285 127.411 273.388C127.411 273.491 127.406 273.607 127.397 273.738H121.629V272.828H126.263C126.235 272.184 126.02 271.68 125.619 271.316C125.227 270.952 124.732 270.77 124.135 270.77C123.733 270.77 123.36 270.863 123.015 271.05C122.679 271.227 122.408 271.493 122.203 271.848C121.997 272.193 121.895 272.627 121.895 273.15V273.542C121.895 274.121 121.997 274.606 122.203 274.998C122.417 275.39 122.693 275.684 123.029 275.88C123.374 276.076 123.743 276.174 124.135 276.174C124.629 276.174 125.035 276.067 125.353 275.852C125.679 275.628 125.913 275.329 126.053 274.956H127.215C127.103 275.376 126.907 275.754 126.627 276.09C126.347 276.426 125.997 276.692 125.577 276.888C125.166 277.075 124.685 277.168 124.135 277.168Z" fill="#EEEFF1"/>
<path d="M90.05 205V195.2H91.226L96.448 203.054V195.2H97.624V205H96.448L91.226 197.146V205H90.05ZM101.956 205.168C101.386 205.168 100.91 205.07 100.528 204.874C100.145 204.669 99.8604 204.403 99.6737 204.076C99.487 203.74 99.3937 203.376 99.3937 202.984C99.3937 202.508 99.515 202.107 99.7577 201.78C100.01 201.444 100.36 201.192 100.808 201.024C101.265 200.847 101.802 200.758 102.418 200.758H104.28C104.28 200.319 104.21 199.955 104.07 199.666C103.939 199.367 103.743 199.143 103.482 198.994C103.23 198.845 102.912 198.77 102.53 198.77C102.082 198.77 101.694 198.882 101.368 199.106C101.041 199.33 100.84 199.661 100.766 200.1H99.5617C99.6177 199.596 99.7857 199.176 100.066 198.84C100.355 198.495 100.719 198.233 101.158 198.056C101.596 197.869 102.054 197.776 102.53 197.776C103.183 197.776 103.724 197.897 104.154 198.14C104.592 198.373 104.919 198.705 105.134 199.134C105.348 199.554 105.456 200.053 105.456 200.632V205H104.406L104.336 203.754C104.242 203.95 104.121 204.137 103.972 204.314C103.832 204.482 103.664 204.631 103.468 204.762C103.272 204.883 103.048 204.981 102.796 205.056C102.553 205.131 102.273 205.168 101.956 205.168ZM102.138 204.174C102.464 204.174 102.758 204.109 103.02 203.978C103.29 203.838 103.519 203.651 103.706 203.418C103.892 203.175 104.032 202.909 104.126 202.62C104.228 202.331 104.28 202.027 104.28 201.71V201.668H102.516C102.058 201.668 101.69 201.724 101.41 201.836C101.13 201.939 100.929 202.088 100.808 202.284C100.686 202.471 100.626 202.685 100.626 202.928C100.626 203.18 100.682 203.399 100.794 203.586C100.915 203.773 101.088 203.917 101.312 204.02C101.545 204.123 101.82 204.174 102.138 204.174ZM107.275 205V197.944H108.339L108.409 198.952C108.633 198.588 108.932 198.303 109.305 198.098C109.688 197.883 110.103 197.776 110.551 197.776C110.915 197.776 111.242 197.827 111.531 197.93C111.83 198.023 112.091 198.173 112.315 198.378C112.539 198.574 112.721 198.826 112.861 199.134C113.104 198.705 113.435 198.373 113.855 198.14C114.284 197.897 114.742 197.776 115.227 197.776C115.768 197.776 116.24 197.888 116.641 198.112C117.052 198.327 117.364 198.658 117.579 199.106C117.803 199.545 117.915 200.105 117.915 200.786V205H116.753V200.912C116.753 200.203 116.608 199.671 116.319 199.316C116.03 198.961 115.624 198.784 115.101 198.784C114.737 198.784 114.41 198.882 114.121 199.078C113.832 199.265 113.603 199.54 113.435 199.904C113.267 200.268 113.183 200.716 113.183 201.248V205H112.007V200.912C112.007 200.203 111.862 199.671 111.573 199.316C111.284 198.961 110.873 198.784 110.341 198.784C109.986 198.784 109.664 198.882 109.375 199.078C109.095 199.265 108.871 199.54 108.703 199.904C108.535 200.268 108.451 200.716 108.451 201.248V205H107.275ZM122.838 205.168C122.175 205.168 121.587 205.014 121.074 204.706C120.57 204.398 120.173 203.969 119.884 203.418C119.594 202.858 119.45 202.209 119.45 201.472C119.45 200.725 119.59 200.077 119.87 199.526C120.159 198.975 120.56 198.546 121.074 198.238C121.596 197.93 122.194 197.776 122.866 197.776C123.556 197.776 124.14 197.93 124.616 198.238C125.101 198.546 125.47 198.952 125.722 199.456C125.983 199.951 126.114 200.497 126.114 201.094C126.114 201.187 126.114 201.285 126.114 201.388C126.114 201.491 126.109 201.607 126.1 201.738H120.332V200.828H124.966C124.938 200.184 124.723 199.68 124.322 199.316C123.93 198.952 123.435 198.77 122.838 198.77C122.436 198.77 122.063 198.863 121.718 199.05C121.382 199.227 121.111 199.493 120.906 199.848C120.7 200.193 120.598 200.627 120.598 201.15V201.542C120.598 202.121 120.7 202.606 120.906 202.998C121.12 203.39 121.396 203.684 121.732 203.88C122.077 204.076 122.446 204.174 122.838 204.174C123.332 204.174 123.738 204.067 124.056 203.852C124.382 203.628 124.616 203.329 124.756 202.956H125.918C125.806 203.376 125.61 203.754 125.33 204.09C125.05 204.426 124.7 204.692 124.28 204.888C123.869 205.075 123.388 205.168 122.838 205.168Z" fill="#EEEFF1"/>
<path d="M74.1381 205.625H75.7863C77.1784 205.625 77.8745 205.625 78.4556 205.292C79.0366 204.959 79.4055 204.349 80.1434 203.128L80.5689 202.424C81.1896 201.397 81.5 200.884 81.5 200.312C81.5 199.741 81.1896 199.228 80.5689 198.201L80.1434 197.497C79.4055 196.276 79.0366 195.666 78.4556 195.333C77.8745 195 77.1784 195 75.7863 195H74.1381C71.716 195 70.5049 195 69.7525 195.778C69 196.556 69 197.808 69 200.312C69 202.817 69 204.069 69.7525 204.847C70.5049 205.625 71.716 205.625 74.1381 205.625Z" stroke="#86888E" stroke-linecap="round"/>
<path d="M74.7139 201.801L74.3794 200.966H72.6899L72.3555 201.801H71.8647L73.2686 198.351H73.8154L75.2192 201.801H74.7139ZM72.8608 200.541H74.2109L73.5347 198.847L72.8608 200.541ZM77.7217 199.252H78.1514V201.801H77.7217V201.342C77.6126 201.505 77.4718 201.632 77.2993 201.725C77.1284 201.816 76.9388 201.862 76.7305 201.862C76.4912 201.862 76.2739 201.804 76.0786 201.688C75.8833 201.571 75.7303 201.411 75.6196 201.208C75.5106 201.002 75.4561 200.775 75.4561 200.526C75.4561 200.277 75.5106 200.051 75.6196 199.848C75.7303 199.643 75.8833 199.482 76.0786 199.367C76.2739 199.25 76.4912 199.191 76.7305 199.191C76.9388 199.191 77.1284 199.237 77.2993 199.33C77.4718 199.421 77.6126 199.548 77.7217 199.711V199.252ZM76.811 201.447C77.0715 201.447 77.2879 201.359 77.4604 201.183C77.6346 201.007 77.7217 200.788 77.7217 200.526C77.7217 200.264 77.6346 200.045 77.4604 199.87C77.2879 199.694 77.0715 199.606 76.811 199.606C76.549 199.606 76.3309 199.694 76.1567 199.87C75.9826 200.045 75.8955 200.264 75.8955 200.526C75.8955 200.788 75.9826 201.007 76.1567 201.183C76.3309 201.359 76.549 201.447 76.811 201.447Z" fill="#86888E"/>
<path d="M225.366 194.116C225.132 193.882 224.814 193.75 224.483 193.75H220C219.668 193.75 219.351 193.882 219.116 194.116C218.882 194.351 218.75 194.668 218.75 195V199.483C218.75 199.814 218.882 200.132 219.116 200.366L224.556 205.806C224.84 206.089 225.225 206.247 225.625 206.247C226.025 206.247 226.41 206.089 226.694 205.806L230.806 201.694C231.089 201.41 231.247 201.025 231.247 200.625C231.247 200.225 231.089 199.84 230.806 199.556L225.366 194.116Z" stroke="#86888E" stroke-linecap="round" stroke-linejoin="round"/>
<path d="M221.875 197.188C221.875 197.27 221.908 197.35 221.967 197.408C222.025 197.467 222.105 197.5 222.188 197.5C222.27 197.5 222.35 197.467 222.408 197.408C222.467 197.35 222.5 197.27 222.5 197.188C222.5 197.105 222.467 197.025 222.408 196.967C222.35 196.908 222.27 196.875 222.188 196.875C222.105 196.875 222.025 196.908 221.967 196.967C221.908 197.025 221.875 197.105 221.875 197.188Z" fill="#86888E" stroke="#86888E" stroke-linecap="round" stroke-linejoin="round"/>
<path d="M242.346 205V196.166H239.42V195.2H246.448V196.166H243.522V205H242.346ZM247.9 208.08L249.622 204.216H249.216L246.444 197.944H247.718L250.014 203.334L252.422 197.944H253.64L249.132 208.08H247.9ZM254.91 208.08V197.944H255.974L256.072 199.092C256.221 198.868 256.412 198.658 256.646 198.462C256.879 198.257 257.159 198.093 257.486 197.972C257.812 197.841 258.186 197.776 258.606 197.776C259.296 197.776 259.894 197.939 260.398 198.266C260.911 198.593 261.308 199.036 261.588 199.596C261.877 200.147 262.022 200.777 262.022 201.486C262.022 202.195 261.877 202.83 261.588 203.39C261.308 203.941 260.911 204.375 260.398 204.692C259.884 205.009 259.282 205.168 258.592 205.168C258.022 205.168 257.518 205.051 257.08 204.818C256.65 204.585 256.319 204.258 256.086 203.838V208.08H254.91ZM258.466 204.146C258.923 204.146 259.329 204.034 259.684 203.81C260.038 203.586 260.314 203.278 260.51 202.886C260.715 202.485 260.818 202.013 260.818 201.472C260.818 200.94 260.715 200.473 260.51 200.072C260.314 199.671 260.038 199.358 259.684 199.134C259.329 198.91 258.923 198.798 258.466 198.798C257.999 198.798 257.588 198.91 257.234 199.134C256.879 199.358 256.604 199.671 256.408 200.072C256.212 200.473 256.114 200.94 256.114 201.472C256.114 202.013 256.212 202.485 256.408 202.886C256.604 203.278 256.879 203.586 257.234 203.81C257.588 204.034 257.999 204.146 258.466 204.146ZM266.767 205.168C266.105 205.168 265.517 205.014 265.003 204.706C264.499 204.398 264.103 203.969 263.813 203.418C263.524 202.858 263.379 202.209 263.379 201.472C263.379 200.725 263.519 200.077 263.799 199.526C264.089 198.975 264.49 198.546 265.003 198.238C265.526 197.93 266.123 197.776 266.795 197.776C267.486 197.776 268.069 197.93 268.545 198.238C269.031 198.546 269.399 198.952 269.651 199.456C269.913 199.951 270.043 200.497 270.043 201.094C270.043 201.187 270.043 201.285 270.043 201.388C270.043 201.491 270.039 201.607 270.029 201.738H264.261V200.828H268.895C268.867 200.184 268.653 199.68 268.251 199.316C267.859 198.952 267.365 198.77 266.767 198.77C266.366 198.77 265.993 198.863 265.647 199.05C265.311 199.227 265.041 199.493 264.835 199.848C264.63 200.193 264.527 200.627 264.527 201.15V201.542C264.527 202.121 264.63 202.606 264.835 202.998C265.05 203.39 265.325 203.684 265.661 203.88C266.007 204.076 266.375 204.174 266.767 204.174C267.262 204.174 267.668 204.067 267.985 203.852C268.312 203.628 268.545 203.329 268.685 202.956H269.847C269.735 203.376 269.539 203.754 269.259 204.09C268.979 204.426 268.629 204.692 268.209 204.888C267.799 205.075 267.318 205.168 266.767 205.168Z" fill="#EEEFF1"/>
<path d="M373.625 196.875H371.75C371.418 196.875 371.101 196.743 370.866 196.509C370.632 196.274 370.5 195.957 370.5 195.625V193.75" stroke="#86888E" stroke-linecap="round" stroke-linejoin="round"/>
<path d="M373.625 196.25V200.312C373.625 200.812 373.188 201.25 372.688 201.25H368.312C367.812 201.25 367.375 200.812 367.375 200.312V194.688C367.375 194.188 367.812 193.75 368.312 193.75H371.125L373.625 196.25Z" stroke="#86888E" stroke-linecap="round" stroke-linejoin="round"/>
<path d="M364.875 197.5V203C364.875 203.188 365 203.375 365.125 203.5C365.25 203.625 365.438 203.75 365.625 203.75H369.875" stroke="#86888E" stroke-linecap="round" stroke-linejoin="round"/>
<path d="M362.375 200V205.5C362.375 205.688 362.5 205.875 362.625 206C362.75 206.125 362.938 206.25 363.125 206.25H367.375" stroke="#86888E" stroke-linecap="round" stroke-linejoin="round"/>
<path d="M385.99 205L382.308 195.2H383.582L386.676 203.754L389.798 195.2H391.044L387.362 205H385.99ZM394.523 205.168C393.861 205.168 393.273 205.014 392.759 204.706C392.255 204.398 391.859 203.969 391.569 203.418C391.28 202.858 391.135 202.209 391.135 201.472C391.135 200.725 391.275 200.077 391.555 199.526C391.845 198.975 392.246 198.546 392.759 198.238C393.282 197.93 393.879 197.776 394.551 197.776C395.242 197.776 395.825 197.93 396.301 198.238C396.787 198.546 397.155 198.952 397.407 199.456C397.669 199.951 397.799 200.497 397.799 201.094C397.799 201.187 397.799 201.285 397.799 201.388C397.799 201.491 397.795 201.607 397.785 201.738H392.017V200.828H396.651C396.623 200.184 396.409 199.68 396.007 199.316C395.615 198.952 395.121 198.77 394.523 198.77C394.122 198.77 393.749 198.863 393.403 199.05C393.067 199.227 392.797 199.493 392.591 199.848C392.386 200.193 392.283 200.627 392.283 201.15V201.542C392.283 202.121 392.386 202.606 392.591 202.998C392.806 203.39 393.081 203.684 393.417 203.88C393.763 204.076 394.131 204.174 394.523 204.174C395.018 204.174 395.424 204.067 395.741 203.852C396.068 203.628 396.301 203.329 396.441 202.956H397.603C397.491 203.376 397.295 203.754 397.015 204.09C396.735 204.426 396.385 204.692 395.965 204.888C395.555 205.075 395.074 205.168 394.523 205.168ZM399.386 205V197.944H400.45L400.534 199.288C400.693 198.971 400.894 198.7 401.136 198.476C401.388 198.252 401.687 198.079 402.032 197.958C402.387 197.837 402.788 197.776 403.236 197.776V199.008H402.802C402.504 199.008 402.219 199.05 401.948 199.134C401.678 199.209 401.435 199.335 401.22 199.512C401.015 199.689 400.852 199.932 400.73 200.24C400.618 200.539 400.562 200.912 400.562 201.36V205H399.386ZM407.228 205.168C406.64 205.168 406.127 205.07 405.688 204.874C405.259 204.678 404.913 204.407 404.652 204.062C404.4 203.707 404.246 203.292 404.19 202.816H405.394C405.441 203.059 405.539 203.283 405.688 203.488C405.837 203.693 406.038 203.861 406.29 203.992C406.551 204.113 406.869 204.174 407.242 204.174C407.569 204.174 407.839 204.127 408.054 204.034C408.269 203.931 408.427 203.796 408.53 203.628C408.642 203.46 408.698 203.278 408.698 203.082C408.698 202.793 408.628 202.573 408.488 202.424C408.357 202.275 408.161 202.158 407.9 202.074C407.639 201.981 407.321 201.901 406.948 201.836C406.64 201.78 406.337 201.705 406.038 201.612C405.739 201.519 405.473 201.397 405.24 201.248C405.007 201.089 404.82 200.898 404.68 200.674C404.549 200.45 404.484 200.175 404.484 199.848C404.484 199.447 404.587 199.092 404.792 198.784C404.997 198.467 405.291 198.219 405.674 198.042C406.066 197.865 406.519 197.776 407.032 197.776C407.788 197.776 408.399 197.958 408.866 198.322C409.333 198.686 409.608 199.213 409.692 199.904H408.53C408.483 199.549 408.329 199.274 408.068 199.078C407.816 198.873 407.466 198.77 407.018 198.77C406.579 198.77 406.243 198.859 406.01 199.036C405.786 199.213 405.674 199.447 405.674 199.736C405.674 199.923 405.735 200.091 405.856 200.24C405.987 200.38 406.173 200.501 406.416 200.604C406.668 200.707 406.976 200.791 407.34 200.856C407.807 200.94 408.231 201.052 408.614 201.192C408.997 201.332 409.305 201.542 409.538 201.822C409.781 202.093 409.902 202.48 409.902 202.984C409.902 203.423 409.79 203.805 409.566 204.132C409.351 204.459 409.043 204.715 408.642 204.902C408.241 205.079 407.769 205.168 407.228 205.168ZM411.707 205V197.944H412.883V205H411.707ZM412.295 196.446C412.062 196.446 411.866 196.371 411.707 196.222C411.558 196.063 411.483 195.867 411.483 195.634C411.483 195.401 411.558 195.214 411.707 195.074C411.866 194.925 412.062 194.85 412.295 194.85C412.519 194.85 412.711 194.925 412.869 195.074C413.028 195.214 413.107 195.401 413.107 195.634C413.107 195.867 413.028 196.063 412.869 196.222C412.711 196.371 412.519 196.446 412.295 196.446ZM418.109 205.168C417.455 205.168 416.867 205.019 416.345 204.72C415.822 204.412 415.411 203.983 415.113 203.432C414.814 202.872 414.665 202.223 414.665 201.486C414.665 200.73 414.814 200.077 415.113 199.526C415.421 198.966 415.836 198.537 416.359 198.238C416.891 197.93 417.483 197.776 418.137 197.776C418.809 197.776 419.401 197.93 419.915 198.238C420.437 198.537 420.848 198.966 421.147 199.526C421.455 200.077 421.609 200.725 421.609 201.472C421.609 202.219 421.455 202.872 421.147 203.432C420.839 203.983 420.423 204.412 419.901 204.72C419.378 205.019 418.781 205.168 418.109 205.168ZM418.123 204.16C418.524 204.16 418.897 204.062 419.243 203.866C419.588 203.661 419.868 203.357 420.083 202.956C420.297 202.555 420.405 202.06 420.405 201.472C420.405 200.875 420.297 200.38 420.083 199.988C419.877 199.587 419.602 199.288 419.257 199.092C418.921 198.887 418.547 198.784 418.137 198.784C417.745 198.784 417.371 198.887 417.017 199.092C416.671 199.288 416.391 199.587 416.177 199.988C415.971 200.38 415.869 200.875 415.869 201.472C415.869 202.06 415.971 202.555 416.177 202.956C416.391 203.357 416.667 203.661 417.003 203.866C417.348 204.062 417.721 204.16 418.123 204.16ZM423.257 205V197.944H424.321L424.377 199.176C424.601 198.737 424.919 198.397 425.329 198.154C425.749 197.902 426.225 197.776 426.757 197.776C427.308 197.776 427.784 197.888 428.185 198.112C428.587 198.327 428.899 198.658 429.123 199.106C429.347 199.545 429.459 200.105 429.459 200.786V205H428.283V200.912C428.283 200.203 428.125 199.671 427.807 199.316C427.499 198.961 427.061 198.784 426.491 198.784C426.099 198.784 425.749 198.882 425.441 199.078C425.133 199.265 424.886 199.54 424.699 199.904C424.522 200.259 424.433 200.702 424.433 201.234V205H423.257Z" fill="#EEEFF1"/>
</g>
<defs>
<filter id="filter0_f_2483_87663" x="-148" y="0" width="754" height="576" filterUnits="userSpaceOnUse" color-interpolation-filters="sRGB">
<feFlood flood-opacity="0" result="BackgroundImageFix"/>
<feBlend mode="normal" in="SourceGraphic" in2="BackgroundImageFix" result="shape"/>
<feGaussianBlur stdDeviation="100" result="effect1_foregroundBlur_2483_87663"/>
</filter>
<filter id="filter1_d_2483_87663" x="13" y="160" width="525" height="268" filterUnits="userSpaceOnUse" color-interpolation-filters="sRGB">
<feFlood flood-opacity="0" result="BackgroundImageFix"/>
<feColorMatrix in="SourceAlpha" type="matrix" values="0 0 0 0 0 0 0 0 0 0 0 0 0 0 0 0 0 0 127 0" result="hardAlpha"/>
<feOffset dy="24"/>
<feGaussianBlur stdDeviation="22"/>
<feComposite in2="hardAlpha" operator="out"/>
<feColorMatrix type="matrix" values="0 0 0 0 0 0 0 0 0 0 0 0 0 0 0 0 0 0 0.5 0"/>
<feBlend mode="normal" in2="BackgroundImageFix" result="effect1_dropShadow_2483_87663"/>
<feBlend mode="normal" in="SourceGraphic" in2="effect1_dropShadow_2483_87663" result="shape"/>
</filter>
<linearGradient id="paint0_linear_2483_87663" x1="229" y1="200" x2="229" y2="376" gradientUnits="userSpaceOnUse">
<stop stop-color="#0D0D11"/>
<stop offset="1" stop-color="#0D0D11" stop-opacity="0.5"/>
</linearGradient>
</defs>
</svg>
