<svg width="458" height="476" viewBox="0 0 458 476" fill="none" xmlns="http://www.w3.org/2000/svg">
<g filter="url(#filter0_f_2546_53117)">
<ellipse cx="230.5" cy="288" rx="178.5" ry="88" fill="url(#paint0_linear_2546_53117)"/>
</g>
<g filter="url(#filter1_d_2546_53117)">
<path d="M57.5 210C57.5 204.753 61.7533 200.5 67 200.5H473C478.247 200.5 482.5 204.753 482.5 210V239.5H57.5V210Z" fill="#0C0D0E" stroke="#86888E"/>
<rect x="57.5" y="239.5" width="436" height="35" fill="#1D1F22" stroke="#86888E"/>
<rect x="57.5" y="309.5" width="436" height="35" fill="#1D1F22" stroke="#86888E"/>
<path d="M57.5 344.5H482.5V370C482.5 375.247 478.247 379.5 473 379.5H67C61.7533 379.5 57.5 375.247 57.5 370V344.5Z" fill="#1D1F22" stroke="#86888E"/>
<path d="M70.234 262.168C69.646 262.168 69.1373 262.056 68.708 261.832C68.288 261.608 67.9613 261.286 67.728 260.866C67.504 260.446 67.392 259.947 67.392 259.368H68.582C68.582 259.695 68.6333 259.993 68.736 260.264C68.848 260.525 69.0207 260.735 69.254 260.894C69.4967 261.043 69.8187 261.118 70.22 261.118C70.612 261.118 70.92 261.043 71.144 260.894C71.3773 260.745 71.5407 260.544 71.634 260.292C71.7367 260.031 71.788 259.737 71.788 259.41V252.2H72.964V259.41C72.964 260.287 72.7213 260.969 72.236 261.454C71.76 261.93 71.0927 262.168 70.234 262.168ZM78.1437 262.168C77.4903 262.168 76.9023 262.019 76.3797 261.72C75.857 261.412 75.4463 260.983 75.1477 260.432C74.849 259.872 74.6997 259.223 74.6997 258.486C74.6997 257.73 74.849 257.077 75.1477 256.526C75.4557 255.966 75.871 255.537 76.3937 255.238C76.9257 254.93 77.5183 254.776 78.1717 254.776C78.8437 254.776 79.4363 254.93 79.9497 255.238C80.4723 255.537 80.883 255.966 81.1817 256.526C81.4897 257.077 81.6437 257.725 81.6437 258.472C81.6437 259.219 81.4897 259.872 81.1817 260.432C80.8737 260.983 80.4583 261.412 79.9357 261.72C79.413 262.019 78.8157 262.168 78.1437 262.168ZM78.1577 261.16C78.559 261.16 78.9323 261.062 79.2777 260.866C79.623 260.661 79.903 260.357 80.1177 259.956C80.3323 259.555 80.4397 259.06 80.4397 258.472C80.4397 257.875 80.3323 257.38 80.1177 256.988C79.9123 256.587 79.637 256.288 79.2917 256.092C78.9557 255.887 78.5823 255.784 78.1717 255.784C77.7797 255.784 77.4063 255.887 77.0517 256.092C76.7063 256.288 76.4263 256.587 76.2117 256.988C76.0063 257.38 75.9037 257.875 75.9037 258.472C75.9037 259.06 76.0063 259.555 76.2117 259.956C76.4263 260.357 76.7017 260.661 77.0377 260.866C77.383 261.062 77.7563 261.16 78.1577 261.16ZM83.2925 262V251.92H84.4685V256.134C84.7018 255.714 85.0285 255.383 85.4485 255.14C85.8778 254.897 86.3445 254.776 86.8485 254.776C87.3898 254.776 87.8612 254.888 88.2625 255.112C88.6638 255.327 88.9718 255.658 89.1865 256.106C89.4012 256.554 89.5085 257.119 89.5085 257.8V262H88.3465V257.926C88.3465 257.217 88.1972 256.685 87.8985 256.33C87.5998 255.966 87.1658 255.784 86.5965 255.784C86.1952 255.784 85.8312 255.882 85.5045 256.078C85.1872 256.274 84.9352 256.554 84.7485 256.918C84.5618 257.282 84.4685 257.73 84.4685 258.262V262H83.2925ZM91.3452 262V254.944H92.4092L92.4652 256.176C92.6892 255.737 93.0066 255.397 93.4172 255.154C93.8372 254.902 94.3132 254.776 94.8452 254.776C95.3959 254.776 95.8719 254.888 96.2732 255.112C96.6746 255.327 96.9872 255.658 97.2112 256.106C97.4352 256.545 97.5472 257.105 97.5472 257.786V262H96.3712V257.912C96.3712 257.203 96.2126 256.671 95.8952 256.316C95.5872 255.961 95.1486 255.784 94.5792 255.784C94.1872 255.784 93.8372 255.882 93.5292 256.078C93.2212 256.265 92.9739 256.54 92.7872 256.904C92.6099 257.259 92.5212 257.702 92.5212 258.234V262H91.3452ZM103.173 262V252.2H106.057C107.205 252.2 108.148 252.401 108.885 252.802C109.632 253.194 110.182 253.759 110.537 254.496C110.901 255.224 111.083 256.101 111.083 257.128C111.083 258.136 110.901 259.004 110.537 259.732C110.182 260.46 109.632 261.02 108.885 261.412C108.148 261.804 107.205 262 106.057 262H103.173ZM104.349 261.02H106.029C106.981 261.02 107.737 260.866 108.297 260.558C108.857 260.241 109.258 259.793 109.501 259.214C109.744 258.626 109.865 257.931 109.865 257.128C109.865 256.307 109.744 255.602 109.501 255.014C109.258 254.426 108.857 253.973 108.297 253.656C107.737 253.339 106.981 253.18 106.029 253.18H104.349V261.02ZM115.892 262.168C115.238 262.168 114.65 262.019 114.128 261.72C113.605 261.412 113.194 260.983 112.896 260.432C112.597 259.872 112.448 259.223 112.448 258.486C112.448 257.73 112.597 257.077 112.896 256.526C113.204 255.966 113.619 255.537 114.142 255.238C114.674 254.93 115.266 254.776 115.92 254.776C116.592 254.776 117.184 254.93 117.698 255.238C118.22 255.537 118.631 255.966 118.93 256.526C119.238 257.077 119.392 257.725 119.392 258.472C119.392 259.219 119.238 259.872 118.93 260.432C118.622 260.983 118.206 261.412 117.684 261.72C117.161 262.019 116.564 262.168 115.892 262.168ZM115.906 261.16C116.307 261.16 116.68 261.062 117.026 260.866C117.371 260.661 117.651 260.357 117.866 259.956C118.08 259.555 118.188 259.06 118.188 258.472C118.188 257.875 118.08 257.38 117.866 256.988C117.66 256.587 117.385 256.288 117.04 256.092C116.704 255.887 116.33 255.784 115.92 255.784C115.528 255.784 115.154 255.887 114.8 256.092C114.454 256.288 114.174 256.587 113.96 256.988C113.754 257.38 113.652 257.875 113.652 258.472C113.652 259.06 113.754 259.555 113.96 259.956C114.174 260.357 114.45 260.661 114.786 260.866C115.131 261.062 115.504 261.16 115.906 261.16ZM124.135 262.168C123.472 262.168 122.884 262.014 122.371 261.706C121.867 261.398 121.47 260.969 121.181 260.418C120.891 259.858 120.747 259.209 120.747 258.472C120.747 257.725 120.887 257.077 121.167 256.526C121.456 255.975 121.857 255.546 122.371 255.238C122.893 254.93 123.491 254.776 124.163 254.776C124.853 254.776 125.437 254.93 125.913 255.238C126.398 255.546 126.767 255.952 127.019 256.456C127.28 256.951 127.411 257.497 127.411 258.094C127.411 258.187 127.411 258.285 127.411 258.388C127.411 258.491 127.406 258.607 127.397 258.738H121.629V257.828H126.263C126.235 257.184 126.02 256.68 125.619 256.316C125.227 255.952 124.732 255.77 124.135 255.77C123.733 255.77 123.36 255.863 123.015 256.05C122.679 256.227 122.408 256.493 122.203 256.848C121.997 257.193 121.895 257.627 121.895 258.15V258.542C121.895 259.121 121.997 259.606 122.203 259.998C122.417 260.39 122.693 260.684 123.029 260.88C123.374 261.076 123.743 261.174 124.135 261.174C124.629 261.174 125.035 261.067 125.353 260.852C125.679 260.628 125.913 260.329 126.053 259.956H127.215C127.103 260.376 126.907 260.754 126.627 261.09C126.347 261.426 125.997 261.692 125.577 261.888C125.166 262.075 124.685 262.168 124.135 262.168Z" fill="#EEEFF1"/>
<path d="M70.234 332.168C69.646 332.168 69.1373 332.056 68.708 331.832C68.288 331.608 67.9613 331.286 67.728 330.866C67.504 330.446 67.392 329.947 67.392 329.368H68.582C68.582 329.695 68.6333 329.993 68.736 330.264C68.848 330.525 69.0207 330.735 69.254 330.894C69.4967 331.043 69.8187 331.118 70.22 331.118C70.612 331.118 70.92 331.043 71.144 330.894C71.3773 330.745 71.5407 330.544 71.634 330.292C71.7367 330.031 71.788 329.737 71.788 329.41V322.2H72.964V329.41C72.964 330.287 72.7213 330.969 72.236 331.454C71.76 331.93 71.0927 332.168 70.234 332.168ZM78.1437 332.168C77.4903 332.168 76.9023 332.019 76.3797 331.72C75.857 331.412 75.4463 330.983 75.1477 330.432C74.849 329.872 74.6997 329.223 74.6997 328.486C74.6997 327.73 74.849 327.077 75.1477 326.526C75.4557 325.966 75.871 325.537 76.3937 325.238C76.9257 324.93 77.5183 324.776 78.1717 324.776C78.8437 324.776 79.4363 324.93 79.9497 325.238C80.4723 325.537 80.883 325.966 81.1817 326.526C81.4897 327.077 81.6437 327.725 81.6437 328.472C81.6437 329.219 81.4897 329.872 81.1817 330.432C80.8737 330.983 80.4583 331.412 79.9357 331.72C79.413 332.019 78.8157 332.168 78.1437 332.168ZM78.1577 331.16C78.559 331.16 78.9323 331.062 79.2777 330.866C79.623 330.661 79.903 330.357 80.1177 329.956C80.3323 329.555 80.4397 329.06 80.4397 328.472C80.4397 327.875 80.3323 327.38 80.1177 326.988C79.9123 326.587 79.637 326.288 79.2917 326.092C78.9557 325.887 78.5823 325.784 78.1717 325.784C77.7797 325.784 77.4063 325.887 77.0517 326.092C76.7063 326.288 76.4263 326.587 76.2117 326.988C76.0063 327.38 75.9037 327.875 75.9037 328.472C75.9037 329.06 76.0063 329.555 76.2117 329.956C76.4263 330.357 76.7017 330.661 77.0377 330.866C77.383 331.062 77.7563 331.16 78.1577 331.16ZM83.2925 332V321.92H84.4685V326.134C84.7018 325.714 85.0285 325.383 85.4485 325.14C85.8778 324.897 86.3445 324.776 86.8485 324.776C87.3898 324.776 87.8612 324.888 88.2625 325.112C88.6638 325.327 88.9718 325.658 89.1865 326.106C89.4012 326.554 89.5085 327.119 89.5085 327.8V332H88.3465V327.926C88.3465 327.217 88.1972 326.685 87.8985 326.33C87.5998 325.966 87.1658 325.784 86.5965 325.784C86.1952 325.784 85.8312 325.882 85.5045 326.078C85.1872 326.274 84.9352 326.554 84.7485 326.918C84.5618 327.282 84.4685 327.73 84.4685 328.262V332H83.2925ZM91.3452 332V324.944H92.4092L92.4652 326.176C92.6892 325.737 93.0066 325.397 93.4172 325.154C93.8372 324.902 94.3132 324.776 94.8452 324.776C95.3959 324.776 95.8719 324.888 96.2732 325.112C96.6746 325.327 96.9872 325.658 97.2112 326.106C97.4352 326.545 97.5472 327.105 97.5472 327.786V332H96.3712V327.912C96.3712 327.203 96.2126 326.671 95.8952 326.316C95.5872 325.961 95.1486 325.784 94.5792 325.784C94.1872 325.784 93.8372 325.882 93.5292 326.078C93.2212 326.265 92.9739 326.54 92.7872 326.904C92.6099 327.259 92.5212 327.702 92.5212 328.234V332H91.3452ZM103.173 332V322.2H106.057C107.205 322.2 108.148 322.401 108.885 322.802C109.632 323.194 110.182 323.759 110.537 324.496C110.901 325.224 111.083 326.101 111.083 327.128C111.083 328.136 110.901 329.004 110.537 329.732C110.182 330.46 109.632 331.02 108.885 331.412C108.148 331.804 107.205 332 106.057 332H103.173ZM104.349 331.02H106.029C106.981 331.02 107.737 330.866 108.297 330.558C108.857 330.241 109.258 329.793 109.501 329.214C109.744 328.626 109.865 327.931 109.865 327.128C109.865 326.307 109.744 325.602 109.501 325.014C109.258 324.426 108.857 323.973 108.297 323.656C107.737 323.339 106.981 323.18 106.029 323.18H104.349V331.02ZM115.892 332.168C115.238 332.168 114.65 332.019 114.128 331.72C113.605 331.412 113.194 330.983 112.896 330.432C112.597 329.872 112.448 329.223 112.448 328.486C112.448 327.73 112.597 327.077 112.896 326.526C113.204 325.966 113.619 325.537 114.142 325.238C114.674 324.93 115.266 324.776 115.92 324.776C116.592 324.776 117.184 324.93 117.698 325.238C118.22 325.537 118.631 325.966 118.93 326.526C119.238 327.077 119.392 327.725 119.392 328.472C119.392 329.219 119.238 329.872 118.93 330.432C118.622 330.983 118.206 331.412 117.684 331.72C117.161 332.019 116.564 332.168 115.892 332.168ZM115.906 331.16C116.307 331.16 116.68 331.062 117.026 330.866C117.371 330.661 117.651 330.357 117.866 329.956C118.08 329.555 118.188 329.06 118.188 328.472C118.188 327.875 118.08 327.38 117.866 326.988C117.66 326.587 117.385 326.288 117.04 326.092C116.704 325.887 116.33 325.784 115.92 325.784C115.528 325.784 115.154 325.887 114.8 326.092C114.454 326.288 114.174 326.587 113.96 326.988C113.754 327.38 113.652 327.875 113.652 328.472C113.652 329.06 113.754 329.555 113.96 329.956C114.174 330.357 114.45 330.661 114.786 330.866C115.131 331.062 115.504 331.16 115.906 331.16ZM124.135 332.168C123.472 332.168 122.884 332.014 122.371 331.706C121.867 331.398 121.47 330.969 121.181 330.418C120.891 329.858 120.747 329.209 120.747 328.472C120.747 327.725 120.887 327.077 121.167 326.526C121.456 325.975 121.857 325.546 122.371 325.238C122.893 324.93 123.491 324.776 124.163 324.776C124.853 324.776 125.437 324.93 125.913 325.238C126.398 325.546 126.767 325.952 127.019 326.456C127.28 326.951 127.411 327.497 127.411 328.094C127.411 328.187 127.411 328.285 127.411 328.388C127.411 328.491 127.406 328.607 127.397 328.738H121.629V327.828H126.263C126.235 327.184 126.02 326.68 125.619 326.316C125.227 325.952 124.732 325.77 124.135 325.77C123.733 325.77 123.36 325.863 123.015 326.05C122.679 326.227 122.408 326.493 122.203 326.848C121.997 327.193 121.895 327.627 121.895 328.15V328.542C121.895 329.121 121.997 329.606 122.203 329.998C122.417 330.39 122.693 330.684 123.029 330.88C123.374 331.076 123.743 331.174 124.135 331.174C124.629 331.174 125.035 331.067 125.353 330.852C125.679 330.628 125.913 330.329 126.053 329.956H127.215C127.103 330.376 126.907 330.754 126.627 331.09C126.347 331.426 125.997 331.692 125.577 331.888C125.166 332.075 124.685 332.168 124.135 332.168Z" fill="#EEEFF1"/>
<path d="M70.234 367.168C69.646 367.168 69.1373 367.056 68.708 366.832C68.288 366.608 67.9613 366.286 67.728 365.866C67.504 365.446 67.392 364.947 67.392 364.368H68.582C68.582 364.695 68.6333 364.993 68.736 365.264C68.848 365.525 69.0207 365.735 69.254 365.894C69.4967 366.043 69.8187 366.118 70.22 366.118C70.612 366.118 70.92 366.043 71.144 365.894C71.3773 365.745 71.5407 365.544 71.634 365.292C71.7367 365.031 71.788 364.737 71.788 364.41V357.2H72.964V364.41C72.964 365.287 72.7213 365.969 72.236 366.454C71.76 366.93 71.0927 367.168 70.234 367.168ZM78.1437 367.168C77.4903 367.168 76.9023 367.019 76.3797 366.72C75.857 366.412 75.4463 365.983 75.1477 365.432C74.849 364.872 74.6997 364.223 74.6997 363.486C74.6997 362.73 74.849 362.077 75.1477 361.526C75.4557 360.966 75.871 360.537 76.3937 360.238C76.9257 359.93 77.5183 359.776 78.1717 359.776C78.8437 359.776 79.4363 359.93 79.9497 360.238C80.4723 360.537 80.883 360.966 81.1817 361.526C81.4897 362.077 81.6437 362.725 81.6437 363.472C81.6437 364.219 81.4897 364.872 81.1817 365.432C80.8737 365.983 80.4583 366.412 79.9357 366.72C79.413 367.019 78.8157 367.168 78.1437 367.168ZM78.1577 366.16C78.559 366.16 78.9323 366.062 79.2777 365.866C79.623 365.661 79.903 365.357 80.1177 364.956C80.3323 364.555 80.4397 364.06 80.4397 363.472C80.4397 362.875 80.3323 362.38 80.1177 361.988C79.9123 361.587 79.637 361.288 79.2917 361.092C78.9557 360.887 78.5823 360.784 78.1717 360.784C77.7797 360.784 77.4063 360.887 77.0517 361.092C76.7063 361.288 76.4263 361.587 76.2117 361.988C76.0063 362.38 75.9037 362.875 75.9037 363.472C75.9037 364.06 76.0063 364.555 76.2117 364.956C76.4263 365.357 76.7017 365.661 77.0377 365.866C77.383 366.062 77.7563 366.16 78.1577 366.16ZM83.2925 367V356.92H84.4685V361.134C84.7018 360.714 85.0285 360.383 85.4485 360.14C85.8778 359.897 86.3445 359.776 86.8485 359.776C87.3898 359.776 87.8612 359.888 88.2625 360.112C88.6638 360.327 88.9718 360.658 89.1865 361.106C89.4012 361.554 89.5085 362.119 89.5085 362.8V367H88.3465V362.926C88.3465 362.217 88.1972 361.685 87.8985 361.33C87.5998 360.966 87.1658 360.784 86.5965 360.784C86.1952 360.784 85.8312 360.882 85.5045 361.078C85.1872 361.274 84.9352 361.554 84.7485 361.918C84.5618 362.282 84.4685 362.73 84.4685 363.262V367H83.2925ZM91.3452 367V359.944H92.4092L92.4652 361.176C92.6892 360.737 93.0066 360.397 93.4172 360.154C93.8372 359.902 94.3132 359.776 94.8452 359.776C95.3959 359.776 95.8719 359.888 96.2732 360.112C96.6746 360.327 96.9872 360.658 97.2112 361.106C97.4352 361.545 97.5472 362.105 97.5472 362.786V367H96.3712V362.912C96.3712 362.203 96.2126 361.671 95.8952 361.316C95.5872 360.961 95.1486 360.784 94.5792 360.784C94.1872 360.784 93.8372 360.882 93.5292 361.078C93.2212 361.265 92.9739 361.54 92.7872 361.904C92.6099 362.259 92.5212 362.702 92.5212 363.234V367H91.3452ZM103.173 367V357.2H106.057C107.205 357.2 108.148 357.401 108.885 357.802C109.632 358.194 110.182 358.759 110.537 359.496C110.901 360.224 111.083 361.101 111.083 362.128C111.083 363.136 110.901 364.004 110.537 364.732C110.182 365.46 109.632 366.02 108.885 366.412C108.148 366.804 107.205 367 106.057 367H103.173ZM104.349 366.02H106.029C106.981 366.02 107.737 365.866 108.297 365.558C108.857 365.241 109.258 364.793 109.501 364.214C109.744 363.626 109.865 362.931 109.865 362.128C109.865 361.307 109.744 360.602 109.501 360.014C109.258 359.426 108.857 358.973 108.297 358.656C107.737 358.339 106.981 358.18 106.029 358.18H104.349V366.02ZM115.892 367.168C115.238 367.168 114.65 367.019 114.128 366.72C113.605 366.412 113.194 365.983 112.896 365.432C112.597 364.872 112.448 364.223 112.448 363.486C112.448 362.73 112.597 362.077 112.896 361.526C113.204 360.966 113.619 360.537 114.142 360.238C114.674 359.93 115.266 359.776 115.92 359.776C116.592 359.776 117.184 359.93 117.698 360.238C118.22 360.537 118.631 360.966 118.93 361.526C119.238 362.077 119.392 362.725 119.392 363.472C119.392 364.219 119.238 364.872 118.93 365.432C118.622 365.983 118.206 366.412 117.684 366.72C117.161 367.019 116.564 367.168 115.892 367.168ZM115.906 366.16C116.307 366.16 116.68 366.062 117.026 365.866C117.371 365.661 117.651 365.357 117.866 364.956C118.08 364.555 118.188 364.06 118.188 363.472C118.188 362.875 118.08 362.38 117.866 361.988C117.66 361.587 117.385 361.288 117.04 361.092C116.704 360.887 116.33 360.784 115.92 360.784C115.528 360.784 115.154 360.887 114.8 361.092C114.454 361.288 114.174 361.587 113.96 361.988C113.754 362.38 113.652 362.875 113.652 363.472C113.652 364.06 113.754 364.555 113.96 364.956C114.174 365.357 114.45 365.661 114.786 365.866C115.131 366.062 115.504 366.16 115.906 366.16ZM124.135 367.168C123.472 367.168 122.884 367.014 122.371 366.706C121.867 366.398 121.47 365.969 121.181 365.418C120.891 364.858 120.747 364.209 120.747 363.472C120.747 362.725 120.887 362.077 121.167 361.526C121.456 360.975 121.857 360.546 122.371 360.238C122.893 359.93 123.491 359.776 124.163 359.776C124.853 359.776 125.437 359.93 125.913 360.238C126.398 360.546 126.767 360.952 127.019 361.456C127.28 361.951 127.411 362.497 127.411 363.094C127.411 363.187 127.411 363.285 127.411 363.388C127.411 363.491 127.406 363.607 127.397 363.738H121.629V362.828H126.263C126.235 362.184 126.02 361.68 125.619 361.316C125.227 360.952 124.732 360.77 124.135 360.77C123.733 360.77 123.36 360.863 123.015 361.05C122.679 361.227 122.408 361.493 122.203 361.848C121.997 362.193 121.895 362.627 121.895 363.15V363.542C121.895 364.121 121.997 364.606 122.203 364.998C122.417 365.39 122.693 365.684 123.029 365.88C123.374 366.076 123.743 366.174 124.135 366.174C124.629 366.174 125.035 366.067 125.353 365.852C125.679 365.628 125.913 365.329 126.053 364.956H127.215C127.103 365.376 126.907 365.754 126.627 366.09C126.347 366.426 125.997 366.692 125.577 366.888C125.166 367.075 124.685 367.168 124.135 367.168Z" fill="#EEEFF1"/>
<path d="M233.809 262.168C233.137 262.168 232.525 262.033 231.975 261.762C231.433 261.491 230.999 261.081 230.673 260.53C230.346 259.97 230.183 259.256 230.183 258.388V252.2H231.359V258.402C231.359 259.037 231.461 259.555 231.667 259.956C231.881 260.357 232.175 260.651 232.549 260.838C232.922 261.025 233.351 261.118 233.837 261.118C234.331 261.118 234.761 261.025 235.125 260.838C235.489 260.651 235.773 260.357 235.979 259.956C236.184 259.555 236.287 259.037 236.287 258.402V252.2H237.463V258.388C237.463 259.256 237.299 259.97 236.973 260.53C236.646 261.081 236.207 261.491 235.657 261.762C235.106 262.033 234.49 262.168 233.809 262.168ZM242.045 262.168C241.457 262.168 240.943 262.07 240.505 261.874C240.075 261.678 239.73 261.407 239.469 261.062C239.217 260.707 239.063 260.292 239.007 259.816H240.211C240.257 260.059 240.355 260.283 240.505 260.488C240.654 260.693 240.855 260.861 241.107 260.992C241.368 261.113 241.685 261.174 242.059 261.174C242.385 261.174 242.656 261.127 242.871 261.034C243.085 260.931 243.244 260.796 243.347 260.628C243.459 260.46 243.515 260.278 243.515 260.082C243.515 259.793 243.445 259.573 243.305 259.424C243.174 259.275 242.978 259.158 242.717 259.074C242.455 258.981 242.138 258.901 241.765 258.836C241.457 258.78 241.153 258.705 240.855 258.612C240.556 258.519 240.29 258.397 240.057 258.248C239.823 258.089 239.637 257.898 239.497 257.674C239.366 257.45 239.301 257.175 239.301 256.848C239.301 256.447 239.403 256.092 239.609 255.784C239.814 255.467 240.108 255.219 240.491 255.042C240.883 254.865 241.335 254.776 241.849 254.776C242.605 254.776 243.216 254.958 243.683 255.322C244.149 255.686 244.425 256.213 244.509 256.904H243.347C243.3 256.549 243.146 256.274 242.885 256.078C242.633 255.873 242.283 255.77 241.835 255.77C241.396 255.77 241.06 255.859 240.827 256.036C240.603 256.213 240.491 256.447 240.491 256.736C240.491 256.923 240.551 257.091 240.673 257.24C240.803 257.38 240.99 257.501 241.233 257.604C241.485 257.707 241.793 257.791 242.157 257.856C242.623 257.94 243.048 258.052 243.431 258.192C243.813 258.332 244.121 258.542 244.355 258.822C244.597 259.093 244.719 259.48 244.719 259.984C244.719 260.423 244.607 260.805 244.383 261.132C244.168 261.459 243.86 261.715 243.459 261.902C243.057 262.079 242.586 262.168 242.045 262.168ZM249.506 262.168C248.843 262.168 248.255 262.014 247.742 261.706C247.238 261.398 246.841 260.969 246.552 260.418C246.263 259.858 246.118 259.209 246.118 258.472C246.118 257.725 246.258 257.077 246.538 256.526C246.827 255.975 247.229 255.546 247.742 255.238C248.265 254.93 248.862 254.776 249.534 254.776C250.225 254.776 250.808 254.93 251.284 255.238C251.769 255.546 252.138 255.952 252.39 256.456C252.651 256.951 252.782 257.497 252.782 258.094C252.782 258.187 252.782 258.285 252.782 258.388C252.782 258.491 252.777 258.607 252.768 258.738H247V257.828H251.634C251.606 257.184 251.391 256.68 250.99 256.316C250.598 255.952 250.103 255.77 249.506 255.77C249.105 255.77 248.731 255.863 248.386 256.05C248.05 256.227 247.779 256.493 247.574 256.848C247.369 257.193 247.266 257.627 247.266 258.15V258.542C247.266 259.121 247.369 259.606 247.574 259.998C247.789 260.39 248.064 260.684 248.4 260.88C248.745 261.076 249.114 261.174 249.506 261.174C250.001 261.174 250.407 261.067 250.724 260.852C251.051 260.628 251.284 260.329 251.424 259.956H252.586C252.474 260.376 252.278 260.754 251.998 261.09C251.718 261.426 251.368 261.692 250.948 261.888C250.537 262.075 250.057 262.168 249.506 262.168ZM254.369 262V254.944H255.433L255.517 256.288C255.676 255.971 255.876 255.7 256.119 255.476C256.371 255.252 256.67 255.079 257.015 254.958C257.37 254.837 257.771 254.776 258.219 254.776V256.008H257.785C257.486 256.008 257.202 256.05 256.931 256.134C256.66 256.209 256.418 256.335 256.203 256.512C255.998 256.689 255.834 256.932 255.713 257.24C255.601 257.539 255.545 257.912 255.545 258.36V262H254.369Z" fill="#ACADAE"/>
<path d="M379.066 262V253.516L377.386 253.936V253.096L379.458 252.2H380.256V262H379.066ZM385.541 262.168C384.925 262.168 384.398 262.051 383.959 261.818C383.52 261.575 383.17 261.253 382.909 260.852C382.657 260.441 382.503 259.993 382.447 259.508H383.539C383.632 260.031 383.856 260.437 384.211 260.726C384.566 261.006 385.014 261.146 385.555 261.146C386.05 261.146 386.488 260.997 386.871 260.698C387.254 260.399 387.562 259.947 387.795 259.34C388.038 258.724 388.173 257.945 388.201 257.002C388.201 256.974 388.201 256.946 388.201 256.918C388.201 256.89 388.201 256.862 388.201 256.834C388.061 257.123 387.856 257.394 387.585 257.646C387.314 257.898 386.992 258.099 386.619 258.248C386.255 258.397 385.844 258.472 385.387 258.472C384.836 258.472 384.314 258.341 383.819 258.08C383.334 257.819 382.937 257.455 382.629 256.988C382.33 256.512 382.181 255.957 382.181 255.322C382.181 254.771 382.316 254.244 382.587 253.74C382.858 253.236 383.245 252.825 383.749 252.508C384.253 252.191 384.85 252.032 385.541 252.032C386.241 252.032 386.834 252.167 387.319 252.438C387.804 252.699 388.192 253.054 388.481 253.502C388.78 253.941 388.994 254.44 389.125 255C389.256 255.56 389.321 256.129 389.321 256.708C389.321 257.781 389.172 258.729 388.873 259.55C388.584 260.371 388.154 261.015 387.585 261.482C387.025 261.939 386.344 262.168 385.541 262.168ZM385.625 257.45C386.054 257.45 386.442 257.352 386.787 257.156C387.132 256.96 387.403 256.694 387.599 256.358C387.804 256.022 387.907 255.653 387.907 255.252C387.907 254.823 387.804 254.445 387.599 254.118C387.403 253.791 387.132 253.535 386.787 253.348C386.442 253.161 386.054 253.068 385.625 253.068C385.196 253.068 384.808 253.166 384.463 253.362C384.127 253.549 383.861 253.805 383.665 254.132C383.469 254.459 383.371 254.837 383.371 255.266C383.371 255.705 383.469 256.087 383.665 256.414C383.861 256.741 384.127 256.997 384.463 257.184C384.808 257.361 385.196 257.45 385.625 257.45ZM394.654 262.168C393.945 262.168 393.347 262.037 392.862 261.776C392.377 261.505 391.989 261.151 391.7 260.712C391.411 260.264 391.196 259.76 391.056 259.2C390.925 258.64 390.86 258.071 390.86 257.492C390.86 256.409 391.009 255.462 391.308 254.65C391.607 253.829 392.036 253.189 392.596 252.732C393.165 252.265 393.847 252.032 394.64 252.032C395.256 252.032 395.783 252.153 396.222 252.396C396.67 252.629 397.025 252.947 397.286 253.348C397.547 253.749 397.706 254.197 397.762 254.692H396.67C396.577 254.169 396.348 253.768 395.984 253.488C395.629 253.199 395.177 253.054 394.626 253.054C394.141 253.054 393.702 253.208 393.31 253.516C392.918 253.815 392.605 254.277 392.372 254.902C392.148 255.518 392.017 256.307 391.98 257.268C391.98 257.277 391.98 257.291 391.98 257.31C391.98 257.329 391.98 257.347 391.98 257.366C392.129 257.077 392.335 256.806 392.596 256.554C392.867 256.302 393.189 256.101 393.562 255.952C393.935 255.803 394.351 255.728 394.808 255.728C395.359 255.728 395.877 255.859 396.362 256.12C396.847 256.381 397.239 256.75 397.538 257.226C397.846 257.693 398 258.243 398 258.878C398 259.429 397.865 259.956 397.594 260.46C397.333 260.964 396.95 261.375 396.446 261.692C395.942 262.009 395.345 262.168 394.654 262.168ZM394.57 261.132C394.999 261.132 395.382 261.039 395.718 260.852C396.063 260.656 396.329 260.395 396.516 260.068C396.712 259.732 396.81 259.354 396.81 258.934C396.81 258.495 396.712 258.113 396.516 257.786C396.329 257.459 396.063 257.207 395.718 257.03C395.382 256.843 394.999 256.75 394.57 256.75C394.141 256.75 393.753 256.848 393.408 257.044C393.063 257.24 392.787 257.506 392.582 257.842C392.386 258.169 392.288 258.537 392.288 258.948C392.288 259.368 392.386 259.746 392.582 260.082C392.787 260.409 393.063 260.665 393.408 260.852C393.753 261.039 394.141 261.132 394.57 261.132ZM404.369 262V259.9H399.399V258.99L404.159 252.2H405.531V258.864H406.987V259.9H405.531V262H404.369ZM400.701 258.864H404.425V253.502L400.701 258.864ZM409.317 262L413.139 253.208H407.763V252.2H414.343V253.082L410.563 262H409.317Z" fill="#ACADAE"/>
<path d="M233.908 332.168C233.236 332.168 232.625 332.033 232.074 331.762C231.533 331.491 231.099 331.081 230.772 330.53C230.445 329.97 230.282 329.256 230.282 328.388V322.2H231.458V328.402C231.458 329.037 231.561 329.555 231.766 329.956C231.981 330.357 232.275 330.651 232.648 330.838C233.021 331.025 233.451 331.118 233.936 331.118C234.431 331.118 234.86 331.025 235.224 330.838C235.588 330.651 235.873 330.357 236.078 329.956C236.283 329.555 236.386 329.037 236.386 328.402V322.2H237.562V328.388C237.562 329.256 237.399 329.97 237.072 330.53C236.745 331.081 236.307 331.491 235.756 331.762C235.205 332.033 234.589 332.168 233.908 332.168ZM242.144 332.168C241.556 332.168 241.043 332.07 240.604 331.874C240.175 331.678 239.829 331.407 239.568 331.062C239.316 330.707 239.162 330.292 239.106 329.816H240.31C240.357 330.059 240.455 330.283 240.604 330.488C240.753 330.693 240.954 330.861 241.206 330.992C241.467 331.113 241.785 331.174 242.158 331.174C242.485 331.174 242.755 331.127 242.97 331.034C243.185 330.931 243.343 330.796 243.446 330.628C243.558 330.46 243.614 330.278 243.614 330.082C243.614 329.793 243.544 329.573 243.404 329.424C243.273 329.275 243.077 329.158 242.816 329.074C242.555 328.981 242.237 328.901 241.864 328.836C241.556 328.78 241.253 328.705 240.954 328.612C240.655 328.519 240.389 328.397 240.156 328.248C239.923 328.089 239.736 327.898 239.596 327.674C239.465 327.45 239.4 327.175 239.4 326.848C239.4 326.447 239.503 326.092 239.708 325.784C239.913 325.467 240.207 325.219 240.59 325.042C240.982 324.865 241.435 324.776 241.948 324.776C242.704 324.776 243.315 324.958 243.782 325.322C244.249 325.686 244.524 326.213 244.608 326.904H243.446C243.399 326.549 243.245 326.274 242.984 326.078C242.732 325.873 242.382 325.77 241.934 325.77C241.495 325.77 241.159 325.859 240.926 326.036C240.702 326.213 240.59 326.447 240.59 326.736C240.59 326.923 240.651 327.091 240.772 327.24C240.903 327.38 241.089 327.501 241.332 327.604C241.584 327.707 241.892 327.791 242.256 327.856C242.723 327.94 243.147 328.052 243.53 328.192C243.913 328.332 244.221 328.542 244.454 328.822C244.697 329.093 244.818 329.48 244.818 329.984C244.818 330.423 244.706 330.805 244.482 331.132C244.267 331.459 243.959 331.715 243.558 331.902C243.157 332.079 242.685 332.168 242.144 332.168ZM249.605 332.168C248.943 332.168 248.355 332.014 247.841 331.706C247.337 331.398 246.941 330.969 246.651 330.418C246.362 329.858 246.217 329.209 246.217 328.472C246.217 327.725 246.357 327.077 246.637 326.526C246.927 325.975 247.328 325.546 247.841 325.238C248.364 324.93 248.961 324.776 249.633 324.776C250.324 324.776 250.907 324.93 251.383 325.238C251.869 325.546 252.237 325.952 252.489 326.456C252.751 326.951 252.881 327.497 252.881 328.094C252.881 328.187 252.881 328.285 252.881 328.388C252.881 328.491 252.877 328.607 252.867 328.738H247.099V327.828H251.733C251.705 327.184 251.491 326.68 251.089 326.316C250.697 325.952 250.203 325.77 249.605 325.77C249.204 325.77 248.831 325.863 248.485 326.05C248.149 326.227 247.879 326.493 247.673 326.848C247.468 327.193 247.365 327.627 247.365 328.15V328.542C247.365 329.121 247.468 329.606 247.673 329.998C247.888 330.39 248.163 330.684 248.499 330.88C248.845 331.076 249.213 331.174 249.605 331.174C250.1 331.174 250.506 331.067 250.823 330.852C251.15 330.628 251.383 330.329 251.523 329.956H252.685C252.573 330.376 252.377 330.754 252.097 331.09C251.817 331.426 251.467 331.692 251.047 331.888C250.637 332.075 250.156 332.168 249.605 332.168ZM254.468 332V324.944H255.532L255.616 326.288C255.775 325.971 255.976 325.7 256.218 325.476C256.47 325.252 256.769 325.079 257.114 324.958C257.469 324.837 257.87 324.776 258.318 324.776V326.008H257.884C257.586 326.008 257.301 326.05 257.03 326.134C256.76 326.209 256.517 326.335 256.302 326.512C256.097 326.689 255.934 326.932 255.812 327.24C255.7 327.539 255.644 327.912 255.644 328.36V332H254.468Z" fill="#ACADAE"/>
<path d="M377.586 332V323.516L375.906 323.936V323.096L377.978 322.2H378.776V332H377.586ZM384.061 332.168C383.445 332.168 382.918 332.051 382.479 331.818C382.041 331.575 381.691 331.253 381.429 330.852C381.177 330.441 381.023 329.993 380.967 329.508H382.059C382.153 330.031 382.377 330.437 382.731 330.726C383.086 331.006 383.534 331.146 384.075 331.146C384.57 331.146 385.009 330.997 385.391 330.698C385.774 330.399 386.082 329.947 386.315 329.34C386.558 328.724 386.693 327.945 386.721 327.002C386.721 326.974 386.721 326.946 386.721 326.918C386.721 326.89 386.721 326.862 386.721 326.834C386.581 327.123 386.376 327.394 386.105 327.646C385.835 327.898 385.513 328.099 385.139 328.248C384.775 328.397 384.365 328.472 383.907 328.472C383.357 328.472 382.834 328.341 382.339 328.08C381.854 327.819 381.457 327.455 381.149 326.988C380.851 326.512 380.701 325.957 380.701 325.322C380.701 324.771 380.837 324.244 381.107 323.74C381.378 323.236 381.765 322.825 382.269 322.508C382.773 322.191 383.371 322.032 384.061 322.032C384.761 322.032 385.354 322.167 385.839 322.438C386.325 322.699 386.712 323.054 387.001 323.502C387.3 323.941 387.515 324.44 387.645 325C387.776 325.56 387.841 326.129 387.841 326.708C387.841 327.781 387.692 328.729 387.393 329.55C387.104 330.371 386.675 331.015 386.105 331.482C385.545 331.939 384.864 332.168 384.061 332.168ZM384.145 327.45C384.575 327.45 384.962 327.352 385.307 327.156C385.653 326.96 385.923 326.694 386.119 326.358C386.325 326.022 386.427 325.653 386.427 325.252C386.427 324.823 386.325 324.445 386.119 324.118C385.923 323.791 385.653 323.535 385.307 323.348C384.962 323.161 384.575 323.068 384.145 323.068C383.716 323.068 383.329 323.166 382.983 323.362C382.647 323.549 382.381 323.805 382.185 324.132C381.989 324.459 381.891 324.837 381.891 325.266C381.891 325.705 381.989 326.087 382.185 326.414C382.381 326.741 382.647 326.997 382.983 327.184C383.329 327.361 383.716 327.45 384.145 327.45ZM393.174 332.168C392.465 332.168 391.868 332.037 391.382 331.776C390.897 331.505 390.51 331.151 390.22 330.712C389.931 330.264 389.716 329.76 389.576 329.2C389.446 328.64 389.38 328.071 389.38 327.492C389.38 326.409 389.53 325.462 389.828 324.65C390.127 323.829 390.556 323.189 391.116 322.732C391.686 322.265 392.367 322.032 393.16 322.032C393.776 322.032 394.304 322.153 394.742 322.396C395.19 322.629 395.545 322.947 395.806 323.348C396.068 323.749 396.226 324.197 396.282 324.692H395.19C395.097 324.169 394.868 323.768 394.504 323.488C394.15 323.199 393.697 323.054 393.146 323.054C392.661 323.054 392.222 323.208 391.83 323.516C391.438 323.815 391.126 324.277 390.892 324.902C390.668 325.518 390.538 326.307 390.5 327.268C390.5 327.277 390.5 327.291 390.5 327.31C390.5 327.329 390.5 327.347 390.5 327.366C390.65 327.077 390.855 326.806 391.116 326.554C391.387 326.302 391.709 326.101 392.082 325.952C392.456 325.803 392.871 325.728 393.328 325.728C393.879 325.728 394.397 325.859 394.882 326.12C395.368 326.381 395.76 326.75 396.058 327.226C396.366 327.693 396.52 328.243 396.52 328.878C396.52 329.429 396.385 329.956 396.114 330.46C395.853 330.964 395.47 331.375 394.966 331.692C394.462 332.009 393.865 332.168 393.174 332.168ZM393.09 331.132C393.52 331.132 393.902 331.039 394.238 330.852C394.584 330.656 394.85 330.395 395.036 330.068C395.232 329.732 395.33 329.354 395.33 328.934C395.33 328.495 395.232 328.113 395.036 327.786C394.85 327.459 394.584 327.207 394.238 327.03C393.902 326.843 393.52 326.75 393.09 326.75C392.661 326.75 392.274 326.848 391.928 327.044C391.583 327.24 391.308 327.506 391.102 327.842C390.906 328.169 390.808 328.537 390.808 328.948C390.808 329.368 390.906 329.746 391.102 330.082C391.308 330.409 391.583 330.665 391.928 330.852C392.274 331.039 392.661 331.132 393.09 331.132ZM402.203 332.168C401.345 332.168 400.603 331.958 399.977 331.538C399.361 331.109 398.89 330.516 398.563 329.76C398.237 328.995 398.073 328.108 398.073 327.1C398.073 326.092 398.237 325.21 398.563 324.454C398.89 323.689 399.361 323.096 399.977 322.676C400.603 322.247 401.345 322.032 402.203 322.032C403.062 322.032 403.795 322.247 404.401 322.676C405.017 323.096 405.489 323.689 405.815 324.454C406.142 325.21 406.305 326.092 406.305 327.1C406.305 328.108 406.142 328.995 405.815 329.76C405.489 330.516 405.017 331.109 404.401 331.538C403.795 331.958 403.062 332.168 402.203 332.168ZM402.189 331.132C402.749 331.132 403.249 330.973 403.687 330.656C404.126 330.329 404.471 329.867 404.723 329.27C404.975 328.663 405.101 327.94 405.101 327.1C405.101 326.26 404.975 325.541 404.723 324.944C404.471 324.337 404.126 323.875 403.687 323.558C403.249 323.241 402.749 323.082 402.189 323.082C401.629 323.082 401.125 323.241 400.677 323.558C400.239 323.875 399.893 324.337 399.641 324.944C399.399 325.541 399.277 326.26 399.277 327.1C399.277 327.94 399.399 328.663 399.641 329.27C399.893 329.867 400.239 330.329 400.677 330.656C401.125 330.973 401.629 331.132 402.189 331.132ZM411.774 332.168C410.915 332.168 410.173 331.958 409.548 331.538C408.932 331.109 408.46 330.516 408.134 329.76C407.807 328.995 407.644 328.108 407.644 327.1C407.644 326.092 407.807 325.21 408.134 324.454C408.46 323.689 408.932 323.096 409.548 322.676C410.173 322.247 410.915 322.032 411.774 322.032C412.632 322.032 413.365 322.247 413.972 322.676C414.588 323.096 415.059 323.689 415.386 324.454C415.712 325.21 415.876 326.092 415.876 327.1C415.876 328.108 415.712 328.995 415.386 329.76C415.059 330.516 414.588 331.109 413.972 331.538C413.365 331.958 412.632 332.168 411.774 332.168ZM411.76 331.132C412.32 331.132 412.819 330.973 413.258 330.656C413.696 330.329 414.042 329.867 414.294 329.27C414.546 328.663 414.672 327.94 414.672 327.1C414.672 326.26 414.546 325.541 414.294 324.944C414.042 324.337 413.696 323.875 413.258 323.558C412.819 323.241 412.32 323.082 411.76 323.082C411.2 323.082 410.696 323.241 410.248 323.558C409.809 323.875 409.464 324.337 409.212 324.944C408.969 325.541 408.848 326.26 408.848 327.1C408.848 327.94 408.969 328.663 409.212 329.27C409.464 329.867 409.809 330.329 410.248 330.656C410.696 330.973 411.2 331.132 411.76 331.132Z" fill="#ACADAE"/>
<path d="M233.908 367.168C233.236 367.168 232.625 367.033 232.074 366.762C231.533 366.491 231.099 366.081 230.772 365.53C230.445 364.97 230.282 364.256 230.282 363.388V357.2H231.458V363.402C231.458 364.037 231.561 364.555 231.766 364.956C231.981 365.357 232.275 365.651 232.648 365.838C233.021 366.025 233.451 366.118 233.936 366.118C234.431 366.118 234.86 366.025 235.224 365.838C235.588 365.651 235.873 365.357 236.078 364.956C236.283 364.555 236.386 364.037 236.386 363.402V357.2H237.562V363.388C237.562 364.256 237.399 364.97 237.072 365.53C236.745 366.081 236.307 366.491 235.756 366.762C235.205 367.033 234.589 367.168 233.908 367.168ZM242.144 367.168C241.556 367.168 241.043 367.07 240.604 366.874C240.175 366.678 239.829 366.407 239.568 366.062C239.316 365.707 239.162 365.292 239.106 364.816H240.31C240.357 365.059 240.455 365.283 240.604 365.488C240.753 365.693 240.954 365.861 241.206 365.992C241.467 366.113 241.785 366.174 242.158 366.174C242.485 366.174 242.755 366.127 242.97 366.034C243.185 365.931 243.343 365.796 243.446 365.628C243.558 365.46 243.614 365.278 243.614 365.082C243.614 364.793 243.544 364.573 243.404 364.424C243.273 364.275 243.077 364.158 242.816 364.074C242.555 363.981 242.237 363.901 241.864 363.836C241.556 363.78 241.253 363.705 240.954 363.612C240.655 363.519 240.389 363.397 240.156 363.248C239.923 363.089 239.736 362.898 239.596 362.674C239.465 362.45 239.4 362.175 239.4 361.848C239.4 361.447 239.503 361.092 239.708 360.784C239.913 360.467 240.207 360.219 240.59 360.042C240.982 359.865 241.435 359.776 241.948 359.776C242.704 359.776 243.315 359.958 243.782 360.322C244.249 360.686 244.524 361.213 244.608 361.904H243.446C243.399 361.549 243.245 361.274 242.984 361.078C242.732 360.873 242.382 360.77 241.934 360.77C241.495 360.77 241.159 360.859 240.926 361.036C240.702 361.213 240.59 361.447 240.59 361.736C240.59 361.923 240.651 362.091 240.772 362.24C240.903 362.38 241.089 362.501 241.332 362.604C241.584 362.707 241.892 362.791 242.256 362.856C242.723 362.94 243.147 363.052 243.53 363.192C243.913 363.332 244.221 363.542 244.454 363.822C244.697 364.093 244.818 364.48 244.818 364.984C244.818 365.423 244.706 365.805 244.482 366.132C244.267 366.459 243.959 366.715 243.558 366.902C243.157 367.079 242.685 367.168 242.144 367.168ZM249.605 367.168C248.943 367.168 248.355 367.014 247.841 366.706C247.337 366.398 246.941 365.969 246.651 365.418C246.362 364.858 246.217 364.209 246.217 363.472C246.217 362.725 246.357 362.077 246.637 361.526C246.927 360.975 247.328 360.546 247.841 360.238C248.364 359.93 248.961 359.776 249.633 359.776C250.324 359.776 250.907 359.93 251.383 360.238C251.869 360.546 252.237 360.952 252.489 361.456C252.751 361.951 252.881 362.497 252.881 363.094C252.881 363.187 252.881 363.285 252.881 363.388C252.881 363.491 252.877 363.607 252.867 363.738H247.099V362.828H251.733C251.705 362.184 251.491 361.68 251.089 361.316C250.697 360.952 250.203 360.77 249.605 360.77C249.204 360.77 248.831 360.863 248.485 361.05C248.149 361.227 247.879 361.493 247.673 361.848C247.468 362.193 247.365 362.627 247.365 363.15V363.542C247.365 364.121 247.468 364.606 247.673 364.998C247.888 365.39 248.163 365.684 248.499 365.88C248.845 366.076 249.213 366.174 249.605 366.174C250.1 366.174 250.506 366.067 250.823 365.852C251.15 365.628 251.383 365.329 251.523 364.956H252.685C252.573 365.376 252.377 365.754 252.097 366.09C251.817 366.426 251.467 366.692 251.047 366.888C250.637 367.075 250.156 367.168 249.605 367.168ZM254.468 367V359.944H255.532L255.616 361.288C255.775 360.971 255.976 360.7 256.218 360.476C256.47 360.252 256.769 360.079 257.114 359.958C257.469 359.837 257.87 359.776 258.318 359.776V361.008H257.884C257.586 361.008 257.301 361.05 257.03 361.134C256.76 361.209 256.517 361.335 256.302 361.512C256.097 361.689 255.934 361.932 255.812 362.24C255.7 362.539 255.644 362.912 255.644 363.36V367H254.468Z" fill="#ACADAE"/>
<path d="M379.269 367V358.516L377.589 358.936V358.096L379.661 357.2H380.459V367H379.269ZM385.744 367.168C385.128 367.168 384.601 367.051 384.162 366.818C383.723 366.575 383.373 366.253 383.112 365.852C382.86 365.441 382.706 364.993 382.65 364.508H383.742C383.835 365.031 384.059 365.437 384.414 365.726C384.769 366.006 385.217 366.146 385.758 366.146C386.253 366.146 386.691 365.997 387.074 365.698C387.457 365.399 387.765 364.947 387.998 364.34C388.241 363.724 388.376 362.945 388.404 362.002C388.404 361.974 388.404 361.946 388.404 361.918C388.404 361.89 388.404 361.862 388.404 361.834C388.264 362.123 388.059 362.394 387.788 362.646C387.517 362.898 387.195 363.099 386.822 363.248C386.458 363.397 386.047 363.472 385.59 363.472C385.039 363.472 384.517 363.341 384.022 363.08C383.537 362.819 383.14 362.455 382.832 361.988C382.533 361.512 382.384 360.957 382.384 360.322C382.384 359.771 382.519 359.244 382.79 358.74C383.061 358.236 383.448 357.825 383.952 357.508C384.456 357.191 385.053 357.032 385.744 357.032C386.444 357.032 387.037 357.167 387.522 357.438C388.007 357.699 388.395 358.054 388.684 358.502C388.983 358.941 389.197 359.44 389.328 360C389.459 360.56 389.524 361.129 389.524 361.708C389.524 362.781 389.375 363.729 389.076 364.55C388.787 365.371 388.357 366.015 387.788 366.482C387.228 366.939 386.547 367.168 385.744 367.168ZM385.828 362.45C386.257 362.45 386.645 362.352 386.99 362.156C387.335 361.96 387.606 361.694 387.802 361.358C388.007 361.022 388.11 360.653 388.11 360.252C388.11 359.823 388.007 359.445 387.802 359.118C387.606 358.791 387.335 358.535 386.99 358.348C386.645 358.161 386.257 358.068 385.828 358.068C385.399 358.068 385.011 358.166 384.666 358.362C384.33 358.549 384.064 358.805 383.868 359.132C383.672 359.459 383.574 359.837 383.574 360.266C383.574 360.705 383.672 361.087 383.868 361.414C384.064 361.741 384.33 361.997 384.666 362.184C385.011 362.361 385.399 362.45 385.828 362.45ZM394.647 367.168C393.975 367.168 393.392 367.047 392.897 366.804C392.412 366.561 392.024 366.23 391.735 365.81C391.455 365.39 391.278 364.919 391.203 364.396H392.351C392.463 364.919 392.72 365.343 393.121 365.67C393.522 365.997 394.036 366.16 394.661 366.16C395.128 366.16 395.524 366.053 395.851 365.838C396.187 365.623 396.444 365.329 396.621 364.956C396.808 364.583 396.901 364.167 396.901 363.71C396.901 363.234 396.808 362.814 396.621 362.45C396.434 362.086 396.178 361.806 395.851 361.61C395.524 361.405 395.142 361.302 394.703 361.302C394.171 361.302 393.718 361.419 393.345 361.652C392.972 361.885 392.692 362.184 392.505 362.548H391.371L392.183 357.2H397.363V358.222H393.093L392.547 361.232C392.78 360.961 393.088 360.742 393.471 360.574C393.863 360.397 394.316 360.308 394.829 360.308C395.314 360.308 395.753 360.392 396.145 360.56C396.537 360.728 396.873 360.966 397.153 361.274C397.433 361.582 397.648 361.941 397.797 362.352C397.956 362.763 398.035 363.211 398.035 363.696C398.035 364.172 397.956 364.62 397.797 365.04C397.648 365.451 397.428 365.819 397.139 366.146C396.85 366.463 396.495 366.715 396.075 366.902C395.655 367.079 395.179 367.168 394.647 367.168ZM403.094 367.168C402.459 367.168 401.89 367.051 401.386 366.818C400.882 366.575 400.481 366.244 400.182 365.824C399.883 365.395 399.734 364.9 399.734 364.34C399.734 363.939 399.813 363.565 399.972 363.22C400.131 362.875 400.35 362.576 400.63 362.324C400.919 362.063 401.251 361.881 401.624 361.778C401.101 361.591 400.695 361.302 400.406 360.91C400.126 360.518 399.986 360.093 399.986 359.636C399.986 359.151 400.112 358.712 400.364 358.32C400.616 357.928 400.971 357.615 401.428 357.382C401.895 357.149 402.45 357.032 403.094 357.032C403.747 357.032 404.303 357.149 404.76 357.382C405.227 357.615 405.581 357.928 405.824 358.32C406.076 358.712 406.202 359.151 406.202 359.636C406.202 360.093 406.057 360.518 405.768 360.91C405.488 361.302 405.087 361.591 404.564 361.778C404.947 361.881 405.278 362.063 405.558 362.324C405.847 362.576 406.067 362.875 406.216 363.22C406.375 363.565 406.454 363.939 406.454 364.34C406.454 364.9 406.305 365.395 406.006 365.824C405.717 366.244 405.315 366.575 404.802 366.818C404.298 367.051 403.729 367.168 403.094 367.168ZM403.094 366.132C403.831 366.132 404.377 365.964 404.732 365.628C405.096 365.283 405.278 364.83 405.278 364.27C405.278 363.635 405.077 363.155 404.676 362.828C404.284 362.501 403.757 362.338 403.094 362.338C402.431 362.338 401.899 362.501 401.498 362.828C401.106 363.155 400.91 363.635 400.91 364.27C400.91 364.83 401.092 365.283 401.456 365.628C401.82 365.964 402.366 366.132 403.094 366.132ZM403.094 361.358C403.682 361.358 404.149 361.204 404.494 360.896C404.839 360.588 405.012 360.191 405.012 359.706C405.012 359.155 404.839 358.74 404.494 358.46C404.158 358.18 403.691 358.04 403.094 358.04C402.506 358.04 402.039 358.18 401.694 358.46C401.358 358.74 401.19 359.155 401.19 359.706C401.19 360.191 401.358 360.588 401.694 360.896C402.039 361.204 402.506 361.358 403.094 361.358ZM412.843 367V364.9H407.873V363.99L412.633 357.2H414.005V363.864H415.461V364.9H414.005V367H412.843ZM409.175 363.864H412.899V358.502L409.175 363.864Z" fill="#ACADAE"/>
<path d="M57.5 274.5H493.5V309.5H57.5V274.5Z" fill="#1D1F22" stroke="#86888E"/>
<path d="M233.887 297.168C233.215 297.168 232.604 297.033 232.053 296.762C231.512 296.491 231.078 296.081 230.751 295.53C230.424 294.97 230.261 294.256 230.261 293.388V287.2H231.437V293.402C231.437 294.037 231.54 294.555 231.745 294.956C231.96 295.357 232.254 295.651 232.627 295.838C233 296.025 233.43 296.118 233.915 296.118C234.41 296.118 234.839 296.025 235.203 295.838C235.567 295.651 235.852 295.357 236.057 294.956C236.262 294.555 236.365 294.037 236.365 293.402V287.2H237.541V293.388C237.541 294.256 237.378 294.97 237.051 295.53C236.724 296.081 236.286 296.491 235.735 296.762C235.184 297.033 234.568 297.168 233.887 297.168ZM242.123 297.168C241.535 297.168 241.021 297.07 240.583 296.874C240.153 296.678 239.808 296.407 239.547 296.062C239.295 295.707 239.141 295.292 239.085 294.816H240.289C240.335 295.059 240.433 295.283 240.583 295.488C240.732 295.693 240.933 295.861 241.185 295.992C241.446 296.113 241.763 296.174 242.137 296.174C242.463 296.174 242.734 296.127 242.949 296.034C243.163 295.931 243.322 295.796 243.425 295.628C243.537 295.46 243.593 295.278 243.593 295.082C243.593 294.793 243.523 294.573 243.383 294.424C243.252 294.275 243.056 294.158 242.795 294.074C242.533 293.981 242.216 293.901 241.843 293.836C241.535 293.78 241.231 293.705 240.933 293.612C240.634 293.519 240.368 293.397 240.135 293.248C239.901 293.089 239.715 292.898 239.575 292.674C239.444 292.45 239.379 292.175 239.379 291.848C239.379 291.447 239.481 291.092 239.687 290.784C239.892 290.467 240.186 290.219 240.569 290.042C240.961 289.865 241.413 289.776 241.927 289.776C242.683 289.776 243.294 289.958 243.761 290.322C244.227 290.686 244.503 291.213 244.587 291.904H243.425C243.378 291.549 243.224 291.274 242.963 291.078C242.711 290.873 242.361 290.77 241.913 290.77C241.474 290.77 241.138 290.859 240.905 291.036C240.681 291.213 240.569 291.447 240.569 291.736C240.569 291.923 240.629 292.091 240.751 292.24C240.881 292.38 241.068 292.501 241.311 292.604C241.563 292.707 241.871 292.791 242.235 292.856C242.701 292.94 243.126 293.052 243.509 293.192C243.891 293.332 244.199 293.542 244.433 293.822C244.675 294.093 244.797 294.48 244.797 294.984C244.797 295.423 244.685 295.805 244.461 296.132C244.246 296.459 243.938 296.715 243.537 296.902C243.135 297.079 242.664 297.168 242.123 297.168ZM249.584 297.168C248.921 297.168 248.333 297.014 247.82 296.706C247.316 296.398 246.919 295.969 246.63 295.418C246.341 294.858 246.196 294.209 246.196 293.472C246.196 292.725 246.336 292.077 246.616 291.526C246.905 290.975 247.307 290.546 247.82 290.238C248.343 289.93 248.94 289.776 249.612 289.776C250.303 289.776 250.886 289.93 251.362 290.238C251.847 290.546 252.216 290.952 252.468 291.456C252.729 291.951 252.86 292.497 252.86 293.094C252.86 293.187 252.86 293.285 252.86 293.388C252.86 293.491 252.855 293.607 252.846 293.738H247.078V292.828H251.712C251.684 292.184 251.469 291.68 251.068 291.316C250.676 290.952 250.181 290.77 249.584 290.77C249.183 290.77 248.809 290.863 248.464 291.05C248.128 291.227 247.857 291.493 247.652 291.848C247.447 292.193 247.344 292.627 247.344 293.15V293.542C247.344 294.121 247.447 294.606 247.652 294.998C247.867 295.39 248.142 295.684 248.478 295.88C248.823 296.076 249.192 296.174 249.584 296.174C250.079 296.174 250.485 296.067 250.802 295.852C251.129 295.628 251.362 295.329 251.502 294.956H252.664C252.552 295.376 252.356 295.754 252.076 296.09C251.796 296.426 251.446 296.692 251.026 296.888C250.615 297.075 250.135 297.168 249.584 297.168ZM254.447 297V289.944H255.511L255.595 291.288C255.754 290.971 255.955 290.7 256.197 290.476C256.449 290.252 256.748 290.079 257.093 289.958C257.448 289.837 257.849 289.776 258.297 289.776V291.008H257.863C257.565 291.008 257.28 291.05 257.009 291.134C256.739 291.209 256.496 291.335 256.281 291.512C256.076 291.689 255.913 291.932 255.791 292.24C255.679 292.539 255.623 292.912 255.623 293.36V297H254.447Z" fill="#ACADAE"/>
<path d="M378.214 297V288.516L376.534 288.936V288.096L378.606 287.2H379.404V297H378.214ZM384.69 297.168C384.074 297.168 383.546 297.051 383.108 296.818C382.669 296.575 382.319 296.253 382.058 295.852C381.806 295.441 381.652 294.993 381.596 294.508H382.688C382.781 295.031 383.005 295.437 383.36 295.726C383.714 296.006 384.162 296.146 384.704 296.146C385.198 296.146 385.637 295.997 386.02 295.698C386.402 295.399 386.71 294.947 386.944 294.34C387.186 293.724 387.322 292.945 387.35 292.002C387.35 291.974 387.35 291.946 387.35 291.918C387.35 291.89 387.35 291.862 387.35 291.834C387.21 292.123 387.004 292.394 386.734 292.646C386.463 292.898 386.141 293.099 385.768 293.248C385.404 293.397 384.993 293.472 384.536 293.472C383.985 293.472 383.462 293.341 382.968 293.08C382.482 292.819 382.086 292.455 381.778 291.988C381.479 291.512 381.33 290.957 381.33 290.322C381.33 289.771 381.465 289.244 381.736 288.74C382.006 288.236 382.394 287.825 382.898 287.508C383.402 287.191 383.999 287.032 384.69 287.032C385.39 287.032 385.982 287.167 386.468 287.438C386.953 287.699 387.34 288.054 387.63 288.502C387.928 288.941 388.143 289.44 388.274 290C388.404 290.56 388.47 291.129 388.47 291.708C388.47 292.781 388.32 293.729 388.022 294.55C387.732 295.371 387.303 296.015 386.734 296.482C386.174 296.939 385.492 297.168 384.69 297.168ZM384.774 292.45C385.203 292.45 385.59 292.352 385.936 292.156C386.281 291.96 386.552 291.694 386.748 291.358C386.953 291.022 387.056 290.653 387.056 290.252C387.056 289.823 386.953 289.445 386.748 289.118C386.552 288.791 386.281 288.535 385.936 288.348C385.59 288.161 385.203 288.068 384.774 288.068C384.344 288.068 383.957 288.166 383.612 288.362C383.276 288.549 383.01 288.805 382.814 289.132C382.618 289.459 382.52 289.837 382.52 290.266C382.52 290.705 382.618 291.087 382.814 291.414C383.01 291.741 383.276 291.997 383.612 292.184C383.957 292.361 384.344 292.45 384.774 292.45ZM393.803 297.168C393.093 297.168 392.496 297.037 392.011 296.776C391.525 296.505 391.138 296.151 390.849 295.712C390.559 295.264 390.345 294.76 390.205 294.2C390.074 293.64 390.009 293.071 390.009 292.492C390.009 291.409 390.158 290.462 390.457 289.65C390.755 288.829 391.185 288.189 391.745 287.732C392.314 287.265 392.995 287.032 393.789 287.032C394.405 287.032 394.932 287.153 395.371 287.396C395.819 287.629 396.173 287.947 396.435 288.348C396.696 288.749 396.855 289.197 396.911 289.692H395.819C395.725 289.169 395.497 288.768 395.133 288.488C394.778 288.199 394.325 288.054 393.775 288.054C393.289 288.054 392.851 288.208 392.459 288.516C392.067 288.815 391.754 289.277 391.521 289.902C391.297 290.518 391.166 291.307 391.129 292.268C391.129 292.277 391.129 292.291 391.129 292.31C391.129 292.329 391.129 292.347 391.129 292.366C391.278 292.077 391.483 291.806 391.745 291.554C392.015 291.302 392.337 291.101 392.711 290.952C393.084 290.803 393.499 290.728 393.957 290.728C394.507 290.728 395.025 290.859 395.511 291.12C395.996 291.381 396.388 291.75 396.687 292.226C396.995 292.693 397.149 293.243 397.149 293.878C397.149 294.429 397.013 294.956 396.743 295.46C396.481 295.964 396.099 296.375 395.595 296.692C395.091 297.009 394.493 297.168 393.803 297.168ZM393.719 296.132C394.148 296.132 394.531 296.039 394.867 295.852C395.212 295.656 395.478 295.395 395.665 295.068C395.861 294.732 395.959 294.354 395.959 293.934C395.959 293.495 395.861 293.113 395.665 292.786C395.478 292.459 395.212 292.207 394.867 292.03C394.531 291.843 394.148 291.75 393.719 291.75C393.289 291.75 392.902 291.848 392.557 292.044C392.211 292.24 391.936 292.506 391.731 292.842C391.535 293.169 391.437 293.537 391.437 293.948C391.437 294.368 391.535 294.746 391.731 295.082C391.936 295.409 392.211 295.665 392.557 295.852C392.902 296.039 393.289 296.132 393.719 296.132ZM402.832 297.168C401.973 297.168 401.231 296.958 400.606 296.538C399.99 296.109 399.518 295.516 399.192 294.76C398.865 293.995 398.702 293.108 398.702 292.1C398.702 291.092 398.865 290.21 399.192 289.454C399.518 288.689 399.99 288.096 400.606 287.676C401.231 287.247 401.973 287.032 402.832 287.032C403.69 287.032 404.423 287.247 405.03 287.676C405.646 288.096 406.117 288.689 406.444 289.454C406.77 290.21 406.934 291.092 406.934 292.1C406.934 293.108 406.77 293.995 406.444 294.76C406.117 295.516 405.646 296.109 405.03 296.538C404.423 296.958 403.69 297.168 402.832 297.168ZM402.818 296.132C403.378 296.132 403.877 295.973 404.316 295.656C404.754 295.329 405.1 294.867 405.352 294.27C405.604 293.663 405.73 292.94 405.73 292.1C405.73 291.26 405.604 290.541 405.352 289.944C405.1 289.337 404.754 288.875 404.316 288.558C403.877 288.241 403.378 288.082 402.818 288.082C402.258 288.082 401.754 288.241 401.306 288.558C400.867 288.875 400.522 289.337 400.27 289.944C400.027 290.541 399.906 291.26 399.906 292.1C399.906 292.94 400.027 293.663 400.27 294.27C400.522 294.867 400.867 295.329 401.306 295.656C401.754 295.973 402.258 296.132 402.818 296.132ZM411.702 297.168C411.077 297.168 410.507 297.056 409.994 296.832C409.49 296.599 409.089 296.253 408.79 295.796C408.491 295.339 408.333 294.769 408.314 294.088H409.504C409.513 294.461 409.602 294.807 409.77 295.124C409.947 295.432 410.199 295.679 410.526 295.866C410.853 296.053 411.245 296.146 411.702 296.146C412.159 296.146 412.542 296.057 412.85 295.88C413.158 295.703 413.391 295.469 413.55 295.18C413.709 294.881 413.788 294.55 413.788 294.186C413.788 293.729 413.676 293.36 413.452 293.08C413.237 292.791 412.943 292.581 412.57 292.45C412.206 292.31 411.805 292.24 411.366 292.24H410.638V291.246H411.366C412.01 291.246 412.514 291.097 412.878 290.798C413.242 290.499 413.424 290.089 413.424 289.566C413.424 289.137 413.279 288.777 412.99 288.488C412.71 288.199 412.281 288.054 411.702 288.054C411.151 288.054 410.713 288.213 410.386 288.53C410.059 288.847 409.873 289.253 409.826 289.748H408.636C408.664 289.216 408.809 288.745 409.07 288.334C409.331 287.923 409.686 287.606 410.134 287.382C410.582 287.149 411.109 287.032 411.716 287.032C412.351 287.032 412.883 287.144 413.312 287.368C413.741 287.592 414.063 287.891 414.278 288.264C414.502 288.637 414.614 289.048 414.614 289.496C414.614 289.832 414.553 290.149 414.432 290.448C414.311 290.737 414.129 290.994 413.886 291.218C413.643 291.442 413.335 291.601 412.962 291.694C413.345 291.769 413.685 291.913 413.984 292.128C414.292 292.343 414.535 292.623 414.712 292.968C414.889 293.313 414.978 293.719 414.978 294.186C414.978 294.718 414.852 295.213 414.6 295.67C414.357 296.118 413.993 296.482 413.508 296.762C413.023 297.033 412.421 297.168 411.702 297.168Z" fill="#ACADAE"/>
<path d="M70.234 297.168C69.646 297.168 69.1373 297.056 68.708 296.832C68.288 296.608 67.9613 296.286 67.728 295.866C67.504 295.446 67.392 294.947 67.392 294.368H68.582C68.582 294.695 68.6333 294.993 68.736 295.264C68.848 295.525 69.0207 295.735 69.254 295.894C69.4967 296.043 69.8187 296.118 70.22 296.118C70.612 296.118 70.92 296.043 71.144 295.894C71.3773 295.745 71.5407 295.544 71.634 295.292C71.7367 295.031 71.788 294.737 71.788 294.41V287.2H72.964V294.41C72.964 295.287 72.7213 295.969 72.236 296.454C71.76 296.93 71.0927 297.168 70.234 297.168ZM78.1437 297.168C77.4903 297.168 76.9023 297.019 76.3797 296.72C75.857 296.412 75.4463 295.983 75.1477 295.432C74.849 294.872 74.6997 294.223 74.6997 293.486C74.6997 292.73 74.849 292.077 75.1477 291.526C75.4557 290.966 75.871 290.537 76.3937 290.238C76.9257 289.93 77.5183 289.776 78.1717 289.776C78.8437 289.776 79.4363 289.93 79.9497 290.238C80.4723 290.537 80.883 290.966 81.1817 291.526C81.4897 292.077 81.6437 292.725 81.6437 293.472C81.6437 294.219 81.4897 294.872 81.1817 295.432C80.8737 295.983 80.4583 296.412 79.9357 296.72C79.413 297.019 78.8157 297.168 78.1437 297.168ZM78.1577 296.16C78.559 296.16 78.9323 296.062 79.2777 295.866C79.623 295.661 79.903 295.357 80.1177 294.956C80.3323 294.555 80.4397 294.06 80.4397 293.472C80.4397 292.875 80.3323 292.38 80.1177 291.988C79.9123 291.587 79.637 291.288 79.2917 291.092C78.9557 290.887 78.5823 290.784 78.1717 290.784C77.7797 290.784 77.4063 290.887 77.0517 291.092C76.7063 291.288 76.4263 291.587 76.2117 291.988C76.0063 292.38 75.9037 292.875 75.9037 293.472C75.9037 294.06 76.0063 294.555 76.2117 294.956C76.4263 295.357 76.7017 295.661 77.0377 295.866C77.383 296.062 77.7563 296.16 78.1577 296.16ZM83.2925 297V286.92H84.4685V291.134C84.7018 290.714 85.0285 290.383 85.4485 290.14C85.8778 289.897 86.3445 289.776 86.8485 289.776C87.3898 289.776 87.8612 289.888 88.2625 290.112C88.6638 290.327 88.9718 290.658 89.1865 291.106C89.4012 291.554 89.5085 292.119 89.5085 292.8V297H88.3465V292.926C88.3465 292.217 88.1972 291.685 87.8985 291.33C87.5998 290.966 87.1658 290.784 86.5965 290.784C86.1952 290.784 85.8312 290.882 85.5045 291.078C85.1872 291.274 84.9352 291.554 84.7485 291.918C84.5618 292.282 84.4685 292.73 84.4685 293.262V297H83.2925ZM91.3452 297V289.944H92.4092L92.4652 291.176C92.6892 290.737 93.0066 290.397 93.4172 290.154C93.8372 289.902 94.3132 289.776 94.8452 289.776C95.3959 289.776 95.8719 289.888 96.2732 290.112C96.6746 290.327 96.9872 290.658 97.2112 291.106C97.4352 291.545 97.5472 292.105 97.5472 292.786V297H96.3712V292.912C96.3712 292.203 96.2126 291.671 95.8952 291.316C95.5872 290.961 95.1486 290.784 94.5792 290.784C94.1872 290.784 93.8372 290.882 93.5292 291.078C93.2212 291.265 92.9739 291.54 92.7872 291.904C92.6099 292.259 92.5212 292.702 92.5212 293.234V297H91.3452ZM103.173 297V287.2H106.057C107.205 287.2 108.148 287.401 108.885 287.802C109.632 288.194 110.182 288.759 110.537 289.496C110.901 290.224 111.083 291.101 111.083 292.128C111.083 293.136 110.901 294.004 110.537 294.732C110.182 295.46 109.632 296.02 108.885 296.412C108.148 296.804 107.205 297 106.057 297H103.173ZM104.349 296.02H106.029C106.981 296.02 107.737 295.866 108.297 295.558C108.857 295.241 109.258 294.793 109.501 294.214C109.744 293.626 109.865 292.931 109.865 292.128C109.865 291.307 109.744 290.602 109.501 290.014C109.258 289.426 108.857 288.973 108.297 288.656C107.737 288.339 106.981 288.18 106.029 288.18H104.349V296.02ZM115.892 297.168C115.238 297.168 114.65 297.019 114.128 296.72C113.605 296.412 113.194 295.983 112.896 295.432C112.597 294.872 112.448 294.223 112.448 293.486C112.448 292.73 112.597 292.077 112.896 291.526C113.204 290.966 113.619 290.537 114.142 290.238C114.674 289.93 115.266 289.776 115.92 289.776C116.592 289.776 117.184 289.93 117.698 290.238C118.22 290.537 118.631 290.966 118.93 291.526C119.238 292.077 119.392 292.725 119.392 293.472C119.392 294.219 119.238 294.872 118.93 295.432C118.622 295.983 118.206 296.412 117.684 296.72C117.161 297.019 116.564 297.168 115.892 297.168ZM115.906 296.16C116.307 296.16 116.68 296.062 117.026 295.866C117.371 295.661 117.651 295.357 117.866 294.956C118.08 294.555 118.188 294.06 118.188 293.472C118.188 292.875 118.08 292.38 117.866 291.988C117.66 291.587 117.385 291.288 117.04 291.092C116.704 290.887 116.33 290.784 115.92 290.784C115.528 290.784 115.154 290.887 114.8 291.092C114.454 291.288 114.174 291.587 113.96 291.988C113.754 292.38 113.652 292.875 113.652 293.472C113.652 294.06 113.754 294.555 113.96 294.956C114.174 295.357 114.45 295.661 114.786 295.866C115.131 296.062 115.504 296.16 115.906 296.16ZM124.135 297.168C123.472 297.168 122.884 297.014 122.371 296.706C121.867 296.398 121.47 295.969 121.181 295.418C120.891 294.858 120.747 294.209 120.747 293.472C120.747 292.725 120.887 292.077 121.167 291.526C121.456 290.975 121.857 290.546 122.371 290.238C122.893 289.93 123.491 289.776 124.163 289.776C124.853 289.776 125.437 289.93 125.913 290.238C126.398 290.546 126.767 290.952 127.019 291.456C127.28 291.951 127.411 292.497 127.411 293.094C127.411 293.187 127.411 293.285 127.411 293.388C127.411 293.491 127.406 293.607 127.397 293.738H121.629V292.828H126.263C126.235 292.184 126.02 291.68 125.619 291.316C125.227 290.952 124.732 290.77 124.135 290.77C123.733 290.77 123.36 290.863 123.015 291.05C122.679 291.227 122.408 291.493 122.203 291.848C121.997 292.193 121.895 292.627 121.895 293.15V293.542C121.895 294.121 121.997 294.606 122.203 294.998C122.417 295.39 122.693 295.684 123.029 295.88C123.374 296.076 123.743 296.174 124.135 296.174C124.629 296.174 125.035 296.067 125.353 295.852C125.679 295.628 125.913 295.329 126.053 294.956H127.215C127.103 295.376 126.907 295.754 126.627 296.09C126.347 296.426 125.997 296.692 125.577 296.888C125.166 297.075 124.685 297.168 124.135 297.168Z" fill="#EEEFF1"/>
<path d="M90.05 225V215.2H91.226L96.448 223.054V215.2H97.624V225H96.448L91.226 217.146V225H90.05ZM101.956 225.168C101.386 225.168 100.91 225.07 100.528 224.874C100.145 224.669 99.8604 224.403 99.6737 224.076C99.487 223.74 99.3937 223.376 99.3937 222.984C99.3937 222.508 99.515 222.107 99.7577 221.78C100.01 221.444 100.36 221.192 100.808 221.024C101.265 220.847 101.802 220.758 102.418 220.758H104.28C104.28 220.319 104.21 219.955 104.07 219.666C103.939 219.367 103.743 219.143 103.482 218.994C103.23 218.845 102.912 218.77 102.53 218.77C102.082 218.77 101.694 218.882 101.368 219.106C101.041 219.33 100.84 219.661 100.766 220.1H99.5617C99.6177 219.596 99.7857 219.176 100.066 218.84C100.355 218.495 100.719 218.233 101.158 218.056C101.596 217.869 102.054 217.776 102.53 217.776C103.183 217.776 103.724 217.897 104.154 218.14C104.592 218.373 104.919 218.705 105.134 219.134C105.348 219.554 105.456 220.053 105.456 220.632V225H104.406L104.336 223.754C104.242 223.95 104.121 224.137 103.972 224.314C103.832 224.482 103.664 224.631 103.468 224.762C103.272 224.883 103.048 224.981 102.796 225.056C102.553 225.131 102.273 225.168 101.956 225.168ZM102.138 224.174C102.464 224.174 102.758 224.109 103.02 223.978C103.29 223.838 103.519 223.651 103.706 223.418C103.892 223.175 104.032 222.909 104.126 222.62C104.228 222.331 104.28 222.027 104.28 221.71V221.668H102.516C102.058 221.668 101.69 221.724 101.41 221.836C101.13 221.939 100.929 222.088 100.808 222.284C100.686 222.471 100.626 222.685 100.626 222.928C100.626 223.18 100.682 223.399 100.794 223.586C100.915 223.773 101.088 223.917 101.312 224.02C101.545 224.123 101.82 224.174 102.138 224.174ZM107.275 225V217.944H108.339L108.409 218.952C108.633 218.588 108.932 218.303 109.305 218.098C109.688 217.883 110.103 217.776 110.551 217.776C110.915 217.776 111.242 217.827 111.531 217.93C111.83 218.023 112.091 218.173 112.315 218.378C112.539 218.574 112.721 218.826 112.861 219.134C113.104 218.705 113.435 218.373 113.855 218.14C114.284 217.897 114.742 217.776 115.227 217.776C115.768 217.776 116.24 217.888 116.641 218.112C117.052 218.327 117.364 218.658 117.579 219.106C117.803 219.545 117.915 220.105 117.915 220.786V225H116.753V220.912C116.753 220.203 116.608 219.671 116.319 219.316C116.03 218.961 115.624 218.784 115.101 218.784C114.737 218.784 114.41 218.882 114.121 219.078C113.832 219.265 113.603 219.54 113.435 219.904C113.267 220.268 113.183 220.716 113.183 221.248V225H112.007V220.912C112.007 220.203 111.862 219.671 111.573 219.316C111.284 218.961 110.873 218.784 110.341 218.784C109.986 218.784 109.664 218.882 109.375 219.078C109.095 219.265 108.871 219.54 108.703 219.904C108.535 220.268 108.451 220.716 108.451 221.248V225H107.275ZM122.838 225.168C122.175 225.168 121.587 225.014 121.074 224.706C120.57 224.398 120.173 223.969 119.884 223.418C119.594 222.858 119.45 222.209 119.45 221.472C119.45 220.725 119.59 220.077 119.87 219.526C120.159 218.975 120.56 218.546 121.074 218.238C121.596 217.93 122.194 217.776 122.866 217.776C123.556 217.776 124.14 217.93 124.616 218.238C125.101 218.546 125.47 218.952 125.722 219.456C125.983 219.951 126.114 220.497 126.114 221.094C126.114 221.187 126.114 221.285 126.114 221.388C126.114 221.491 126.109 221.607 126.1 221.738H120.332V220.828H124.966C124.938 220.184 124.723 219.68 124.322 219.316C123.93 218.952 123.435 218.77 122.838 218.77C122.436 218.77 122.063 218.863 121.718 219.05C121.382 219.227 121.111 219.493 120.906 219.848C120.7 220.193 120.598 220.627 120.598 221.15V221.542C120.598 222.121 120.7 222.606 120.906 222.998C121.12 223.39 121.396 223.684 121.732 223.88C122.077 224.076 122.446 224.174 122.838 224.174C123.332 224.174 123.738 224.067 124.056 223.852C124.382 223.628 124.616 223.329 124.756 222.956H125.918C125.806 223.376 125.61 223.754 125.33 224.09C125.05 224.426 124.7 224.692 124.28 224.888C123.869 225.075 123.388 225.168 122.838 225.168Z" fill="#EEEFF1"/>
<path d="M74.1381 225.625H75.7863C77.1784 225.625 77.8745 225.625 78.4556 225.292C79.0366 224.959 79.4055 224.349 80.1434 223.128L80.5689 222.424C81.1896 221.397 81.5 220.884 81.5 220.312C81.5 219.741 81.1896 219.228 80.5689 218.201L80.1434 217.497C79.4055 216.276 79.0366 215.666 78.4556 215.333C77.8745 215 77.1784 215 75.7863 215H74.1381C71.716 215 70.5049 215 69.7525 215.778C69 216.556 69 217.808 69 220.312C69 222.817 69 224.069 69.7525 224.847C70.5049 225.625 71.716 225.625 74.1381 225.625Z" stroke="#86888E" stroke-linecap="round"/>
<path d="M74.7139 221.801L74.3794 220.966H72.6899L72.3555 221.801H71.8647L73.2686 218.351H73.8154L75.2192 221.801H74.7139ZM72.8608 220.541H74.2109L73.5347 218.847L72.8608 220.541ZM77.7217 219.252H78.1514V221.801H77.7217V221.342C77.6126 221.505 77.4718 221.632 77.2993 221.725C77.1284 221.816 76.9388 221.862 76.7305 221.862C76.4912 221.862 76.2739 221.804 76.0786 221.688C75.8833 221.571 75.7303 221.411 75.6196 221.208C75.5106 221.002 75.4561 220.775 75.4561 220.526C75.4561 220.277 75.5106 220.051 75.6196 219.848C75.7303 219.643 75.8833 219.482 76.0786 219.367C76.2739 219.25 76.4912 219.191 76.7305 219.191C76.9388 219.191 77.1284 219.237 77.2993 219.33C77.4718 219.421 77.6126 219.548 77.7217 219.711V219.252ZM76.811 221.447C77.0715 221.447 77.2879 221.359 77.4604 221.183C77.6346 221.007 77.7217 220.788 77.7217 220.526C77.7217 220.264 77.6346 220.045 77.4604 219.87C77.2879 219.694 77.0715 219.606 76.811 219.606C76.549 219.606 76.3309 219.694 76.1567 219.87C75.9826 220.045 75.8955 220.264 75.8955 220.526C75.8955 220.788 75.9826 221.007 76.1567 221.183C76.3309 221.359 76.549 221.447 76.811 221.447Z" fill="#86888E"/>
<path d="M225.366 214.116C225.132 213.882 224.814 213.75 224.483 213.75H220C219.668 213.75 219.351 213.882 219.116 214.116C218.882 214.351 218.75 214.668 218.75 215V219.483C218.75 219.814 218.882 220.132 219.116 220.366L224.556 225.806C224.84 226.089 225.225 226.247 225.625 226.247C226.025 226.247 226.41 226.089 226.694 225.806L230.806 221.694C231.089 221.41 231.247 221.025 231.247 220.625C231.247 220.225 231.089 219.84 230.806 219.556L225.366 214.116Z" stroke="#86888E" stroke-linecap="round" stroke-linejoin="round"/>
<path d="M221.875 217.188C221.875 217.27 221.908 217.35 221.967 217.408C222.025 217.467 222.105 217.5 222.188 217.5C222.27 217.5 222.35 217.467 222.408 217.408C222.467 217.35 222.5 217.27 222.5 217.188C222.5 217.105 222.467 217.025 222.408 216.967C222.35 216.908 222.27 216.875 222.188 216.875C222.105 216.875 222.025 216.908 221.967 216.967C221.908 217.025 221.875 217.105 221.875 217.188Z" fill="#86888E" stroke="#86888E" stroke-linecap="round" stroke-linejoin="round"/>
<path d="M242.346 225V216.166H239.42V215.2H246.448V216.166H243.522V225H242.346ZM247.9 228.08L249.622 224.216H249.216L246.444 217.944H247.718L250.014 223.334L252.422 217.944H253.64L249.132 228.08H247.9ZM254.91 228.08V217.944H255.974L256.072 219.092C256.221 218.868 256.412 218.658 256.646 218.462C256.879 218.257 257.159 218.093 257.486 217.972C257.812 217.841 258.186 217.776 258.606 217.776C259.296 217.776 259.894 217.939 260.398 218.266C260.911 218.593 261.308 219.036 261.588 219.596C261.877 220.147 262.022 220.777 262.022 221.486C262.022 222.195 261.877 222.83 261.588 223.39C261.308 223.941 260.911 224.375 260.398 224.692C259.884 225.009 259.282 225.168 258.592 225.168C258.022 225.168 257.518 225.051 257.08 224.818C256.65 224.585 256.319 224.258 256.086 223.838V228.08H254.91ZM258.466 224.146C258.923 224.146 259.329 224.034 259.684 223.81C260.038 223.586 260.314 223.278 260.51 222.886C260.715 222.485 260.818 222.013 260.818 221.472C260.818 220.94 260.715 220.473 260.51 220.072C260.314 219.671 260.038 219.358 259.684 219.134C259.329 218.91 258.923 218.798 258.466 218.798C257.999 218.798 257.588 218.91 257.234 219.134C256.879 219.358 256.604 219.671 256.408 220.072C256.212 220.473 256.114 220.94 256.114 221.472C256.114 222.013 256.212 222.485 256.408 222.886C256.604 223.278 256.879 223.586 257.234 223.81C257.588 224.034 257.999 224.146 258.466 224.146ZM266.767 225.168C266.105 225.168 265.517 225.014 265.003 224.706C264.499 224.398 264.103 223.969 263.813 223.418C263.524 222.858 263.379 222.209 263.379 221.472C263.379 220.725 263.519 220.077 263.799 219.526C264.089 218.975 264.49 218.546 265.003 218.238C265.526 217.93 266.123 217.776 266.795 217.776C267.486 217.776 268.069 217.93 268.545 218.238C269.031 218.546 269.399 218.952 269.651 219.456C269.913 219.951 270.043 220.497 270.043 221.094C270.043 221.187 270.043 221.285 270.043 221.388C270.043 221.491 270.039 221.607 270.029 221.738H264.261V220.828H268.895C268.867 220.184 268.653 219.68 268.251 219.316C267.859 218.952 267.365 218.77 266.767 218.77C266.366 218.77 265.993 218.863 265.647 219.05C265.311 219.227 265.041 219.493 264.835 219.848C264.63 220.193 264.527 220.627 264.527 221.15V221.542C264.527 222.121 264.63 222.606 264.835 222.998C265.05 223.39 265.325 223.684 265.661 223.88C266.007 224.076 266.375 224.174 266.767 224.174C267.262 224.174 267.668 224.067 267.985 223.852C268.312 223.628 268.545 223.329 268.685 222.956H269.847C269.735 223.376 269.539 223.754 269.259 224.09C268.979 224.426 268.629 224.692 268.209 224.888C267.799 225.075 267.318 225.168 266.767 225.168Z" fill="#EEEFF1"/>
<path d="M373.625 216.875H371.75C371.418 216.875 371.101 216.743 370.866 216.509C370.632 216.274 370.5 215.957 370.5 215.625V213.75" stroke="#86888E" stroke-linecap="round" stroke-linejoin="round"/>
<path d="M373.625 216.25V220.312C373.625 220.812 373.188 221.25 372.688 221.25H368.312C367.812 221.25 367.375 220.812 367.375 220.312V214.688C367.375 214.188 367.812 213.75 368.312 213.75H371.125L373.625 216.25Z" stroke="#86888E" stroke-linecap="round" stroke-linejoin="round"/>
<path d="M364.875 217.5V223C364.875 223.188 365 223.375 365.125 223.5C365.25 223.625 365.438 223.75 365.625 223.75H369.875" stroke="#86888E" stroke-linecap="round" stroke-linejoin="round"/>
<path d="M362.375 220V225.5C362.375 225.688 362.5 225.875 362.625 226C362.75 226.125 362.938 226.25 363.125 226.25H367.375" stroke="#86888E" stroke-linecap="round" stroke-linejoin="round"/>
<path d="M385.99 225L382.308 215.2H383.582L386.676 223.754L389.798 215.2H391.044L387.362 225H385.99ZM394.523 225.168C393.861 225.168 393.273 225.014 392.759 224.706C392.255 224.398 391.859 223.969 391.569 223.418C391.28 222.858 391.135 222.209 391.135 221.472C391.135 220.725 391.275 220.077 391.555 219.526C391.845 218.975 392.246 218.546 392.759 218.238C393.282 217.93 393.879 217.776 394.551 217.776C395.242 217.776 395.825 217.93 396.301 218.238C396.787 218.546 397.155 218.952 397.407 219.456C397.669 219.951 397.799 220.497 397.799 221.094C397.799 221.187 397.799 221.285 397.799 221.388C397.799 221.491 397.795 221.607 397.785 221.738H392.017V220.828H396.651C396.623 220.184 396.409 219.68 396.007 219.316C395.615 218.952 395.121 218.77 394.523 218.77C394.122 218.77 393.749 218.863 393.403 219.05C393.067 219.227 392.797 219.493 392.591 219.848C392.386 220.193 392.283 220.627 392.283 221.15V221.542C392.283 222.121 392.386 222.606 392.591 222.998C392.806 223.39 393.081 223.684 393.417 223.88C393.763 224.076 394.131 224.174 394.523 224.174C395.018 224.174 395.424 224.067 395.741 223.852C396.068 223.628 396.301 223.329 396.441 222.956H397.603C397.491 223.376 397.295 223.754 397.015 224.09C396.735 224.426 396.385 224.692 395.965 224.888C395.555 225.075 395.074 225.168 394.523 225.168ZM399.386 225V217.944H400.45L400.534 219.288C400.693 218.971 400.894 218.7 401.136 218.476C401.388 218.252 401.687 218.079 402.032 217.958C402.387 217.837 402.788 217.776 403.236 217.776V219.008H402.802C402.504 219.008 402.219 219.05 401.948 219.134C401.678 219.209 401.435 219.335 401.22 219.512C401.015 219.689 400.852 219.932 400.73 220.24C400.618 220.539 400.562 220.912 400.562 221.36V225H399.386ZM407.228 225.168C406.64 225.168 406.127 225.07 405.688 224.874C405.259 224.678 404.913 224.407 404.652 224.062C404.4 223.707 404.246 223.292 404.19 222.816H405.394C405.441 223.059 405.539 223.283 405.688 223.488C405.837 223.693 406.038 223.861 406.29 223.992C406.551 224.113 406.869 224.174 407.242 224.174C407.569 224.174 407.839 224.127 408.054 224.034C408.269 223.931 408.427 223.796 408.53 223.628C408.642 223.46 408.698 223.278 408.698 223.082C408.698 222.793 408.628 222.573 408.488 222.424C408.357 222.275 408.161 222.158 407.9 222.074C407.639 221.981 407.321 221.901 406.948 221.836C406.64 221.78 406.337 221.705 406.038 221.612C405.739 221.519 405.473 221.397 405.24 221.248C405.007 221.089 404.82 220.898 404.68 220.674C404.549 220.45 404.484 220.175 404.484 219.848C404.484 219.447 404.587 219.092 404.792 218.784C404.997 218.467 405.291 218.219 405.674 218.042C406.066 217.865 406.519 217.776 407.032 217.776C407.788 217.776 408.399 217.958 408.866 218.322C409.333 218.686 409.608 219.213 409.692 219.904H408.53C408.483 219.549 408.329 219.274 408.068 219.078C407.816 218.873 407.466 218.77 407.018 218.77C406.579 218.77 406.243 218.859 406.01 219.036C405.786 219.213 405.674 219.447 405.674 219.736C405.674 219.923 405.735 220.091 405.856 220.24C405.987 220.38 406.173 220.501 406.416 220.604C406.668 220.707 406.976 220.791 407.34 220.856C407.807 220.94 408.231 221.052 408.614 221.192C408.997 221.332 409.305 221.542 409.538 221.822C409.781 222.093 409.902 222.48 409.902 222.984C409.902 223.423 409.79 223.805 409.566 224.132C409.351 224.459 409.043 224.715 408.642 224.902C408.241 225.079 407.769 225.168 407.228 225.168ZM411.707 225V217.944H412.883V225H411.707ZM412.295 216.446C412.062 216.446 411.866 216.371 411.707 216.222C411.558 216.063 411.483 215.867 411.483 215.634C411.483 215.401 411.558 215.214 411.707 215.074C411.866 214.925 412.062 214.85 412.295 214.85C412.519 214.85 412.711 214.925 412.869 215.074C413.028 215.214 413.107 215.401 413.107 215.634C413.107 215.867 413.028 216.063 412.869 216.222C412.711 216.371 412.519 216.446 412.295 216.446ZM418.109 225.168C417.455 225.168 416.867 225.019 416.345 224.72C415.822 224.412 415.411 223.983 415.113 223.432C414.814 222.872 414.665 222.223 414.665 221.486C414.665 220.73 414.814 220.077 415.113 219.526C415.421 218.966 415.836 218.537 416.359 218.238C416.891 217.93 417.483 217.776 418.137 217.776C418.809 217.776 419.401 217.93 419.915 218.238C420.437 218.537 420.848 218.966 421.147 219.526C421.455 220.077 421.609 220.725 421.609 221.472C421.609 222.219 421.455 222.872 421.147 223.432C420.839 223.983 420.423 224.412 419.901 224.72C419.378 225.019 418.781 225.168 418.109 225.168ZM418.123 224.16C418.524 224.16 418.897 224.062 419.243 223.866C419.588 223.661 419.868 223.357 420.083 222.956C420.297 222.555 420.405 222.06 420.405 221.472C420.405 220.875 420.297 220.38 420.083 219.988C419.877 219.587 419.602 219.288 419.257 219.092C418.921 218.887 418.547 218.784 418.137 218.784C417.745 218.784 417.371 218.887 417.017 219.092C416.671 219.288 416.391 219.587 416.177 219.988C415.971 220.38 415.869 220.875 415.869 221.472C415.869 222.06 415.971 222.555 416.177 222.956C416.391 223.357 416.667 223.661 417.003 223.866C417.348 224.062 417.721 224.16 418.123 224.16ZM423.257 225V217.944H424.321L424.377 219.176C424.601 218.737 424.919 218.397 425.329 218.154C425.749 217.902 426.225 217.776 426.757 217.776C427.308 217.776 427.784 217.888 428.185 218.112C428.587 218.327 428.899 218.658 429.123 219.106C429.347 219.545 429.459 220.105 429.459 220.786V225H428.283V220.912C428.283 220.203 428.125 219.671 427.807 219.316C427.499 218.961 427.061 218.784 426.491 218.784C426.099 218.784 425.749 218.882 425.441 219.078C425.133 219.265 424.886 219.54 424.699 219.904C424.522 220.259 424.433 220.702 424.433 221.234V225H423.257Z" fill="#EEEFF1"/>
</g>
<defs>
<filter id="filter0_f_2546_53117" x="-148" y="0" width="757" height="576" filterUnits="userSpaceOnUse" color-interpolation-filters="sRGB">
<feFlood flood-opacity="0" result="BackgroundImageFix"/>
<feBlend mode="normal" in="SourceGraphic" in2="BackgroundImageFix" result="shape"/>
<feGaussianBlur stdDeviation="100" result="effect1_foregroundBlur_2546_53117"/>
</filter>
<filter id="filter1_d_2546_53117" x="13" y="180" width="525" height="268" filterUnits="userSpaceOnUse" color-interpolation-filters="sRGB">
<feFlood flood-opacity="0" result="BackgroundImageFix"/>
<feColorMatrix in="SourceAlpha" type="matrix" values="0 0 0 0 0 0 0 0 0 0 0 0 0 0 0 0 0 0 127 0" result="hardAlpha"/>
<feOffset dy="24"/>
<feGaussianBlur stdDeviation="22"/>
<feComposite in2="hardAlpha" operator="out"/>
<feColorMatrix type="matrix" values="0 0 0 0 0 0 0 0 0 0 0 0 0 0 0 0 0 0 0.5 0"/>
<feBlend mode="normal" in2="BackgroundImageFix" result="effect1_dropShadow_2546_53117"/>
<feBlend mode="normal" in="SourceGraphic" in2="effect1_dropShadow_2546_53117" result="shape"/>
</filter>
<linearGradient id="paint0_linear_2546_53117" x1="230.5" y1="200" x2="230.5" y2="376" gradientUnits="userSpaceOnUse">
<stop stop-color="#4A4A54"/>
<stop offset="1" stop-color="#4A4A54" stop-opacity="0.5"/>
</linearGradient>
</defs>
</svg>
