<svg width="496" height="363" viewBox="0 0 496 363" fill="none" xmlns="http://www.w3.org/2000/svg">
<g filter="url(#filter0_d_2375_58812)">
<rect x="85.5" y="115.5" width="350" height="187" rx="9.5" fill="#111214" stroke="url(#paint0_linear_2375_58812)"/>
<line x1="85.9971" y1="135.496" x2="435.003" y2="135.496" stroke="url(#paint1_linear_2375_58812)"/>
<g clip-path="url(#clip0_2375_58812)">
<path d="M102.795 124.976C102.781 124.825 102.759 124.653 102.713 124.46C102.667 124.27 102.599 124.061 102.499 123.844C102.398 123.627 102.268 123.402 102.1 123.183C102.034 123.097 101.961 123.013 101.883 122.931C102 122.431 101.742 121.997 101.742 121.997C101.298 121.967 101.015 122.147 100.91 122.229C100.892 122.221 100.876 122.211 100.858 122.204C100.782 122.172 100.705 122.14 100.623 122.113C100.543 122.086 100.461 122.061 100.377 122.039C100.292 122.017 100.208 121.999 100.121 121.985C100.106 121.982 100.092 121.98 100.076 121.977C99.8822 121.306 99.326 121.025 99.326 121.025C98.7038 121.452 98.5876 122.049 98.5876 122.049C98.5876 122.049 98.5853 122.061 98.5807 122.083C98.5466 122.093 98.5124 122.105 98.4782 122.115C98.4303 122.13 98.3825 122.15 98.3369 122.17C98.289 122.189 98.2434 122.209 98.1956 122.231C98.1021 122.276 98.0087 122.325 97.9175 122.379C97.8286 122.433 97.742 122.493 97.6577 122.554C97.6463 122.549 97.6349 122.544 97.6349 122.544C96.7733 122.189 96.0098 122.616 96.0098 122.616C95.9391 123.607 96.354 124.231 96.436 124.344C96.4155 124.406 96.3973 124.468 96.379 124.529C96.3152 124.754 96.2674 124.983 96.2377 125.222C96.2332 125.257 96.2286 125.291 96.2263 125.326C95.4286 125.752 95.1938 126.623 95.1938 126.623C95.8571 127.449 96.632 127.5 96.632 127.5L96.6343 127.498C96.7323 127.688 96.8463 127.868 96.9739 128.038C97.0286 128.109 97.0833 128.176 97.1426 128.243C96.901 128.992 97.1768 129.614 97.1768 129.614C97.9152 129.643 98.4007 129.263 98.5032 129.177C98.5762 129.204 98.6514 129.229 98.7266 129.249C98.9545 129.313 99.187 129.35 99.4195 129.36C99.4765 129.362 99.5357 129.365 99.5927 129.362H99.6201H99.6383H99.6748L99.7112 129.36V129.362C100.06 129.9 100.671 129.976 100.671 129.976C101.106 129.48 101.131 128.987 101.131 128.881C101.131 128.881 101.131 128.879 101.131 128.874C101.131 128.864 101.131 128.859 101.131 128.859C101.131 128.852 101.131 128.844 101.131 128.837C101.222 128.768 101.309 128.694 101.391 128.613C101.564 128.442 101.717 128.248 101.845 128.038C101.856 128.018 101.867 127.999 101.879 127.979C102.371 128.008 102.72 127.648 102.72 127.648C102.638 127.094 102.346 126.822 102.284 126.771C102.284 126.771 102.282 126.768 102.278 126.766C102.273 126.763 102.273 126.761 102.273 126.761C102.271 126.758 102.266 126.756 102.262 126.753C102.264 126.719 102.266 126.687 102.268 126.652C102.273 126.593 102.273 126.531 102.273 126.472V126.428V126.406V126.393C102.273 126.379 102.273 126.383 102.273 126.379L102.271 126.342L102.268 126.292C102.268 126.275 102.266 126.26 102.264 126.245C102.262 126.231 102.262 126.213 102.259 126.199L102.255 126.152L102.248 126.105C102.239 126.043 102.23 125.984 102.216 125.922C102.164 125.683 102.077 125.456 101.965 125.252C101.851 125.047 101.71 124.867 101.548 124.714C101.389 124.561 101.209 124.438 101.022 124.347C100.833 124.256 100.637 124.196 100.441 124.169C100.343 124.154 100.245 124.15 100.147 124.152H100.11H100.101C100.099 124.152 100.087 124.152 100.09 124.152H100.074L100.037 124.154C100.023 124.154 100.01 124.157 99.9984 124.157C99.9483 124.162 99.8981 124.169 99.8503 124.179C99.6542 124.219 99.4696 124.295 99.3078 124.401C99.146 124.507 99.0047 124.638 98.8907 124.786C98.7768 124.934 98.6879 125.099 98.6263 125.269C98.5648 125.439 98.5306 125.617 98.5215 125.787C98.5192 125.829 98.5192 125.873 98.5192 125.915C98.5192 125.925 98.5192 125.937 98.5192 125.947L98.5215 125.982C98.5238 126.001 98.5238 126.023 98.526 126.043C98.5329 126.129 98.5488 126.213 98.5693 126.292C98.6127 126.453 98.681 126.598 98.7654 126.721C98.8497 126.845 98.9523 126.946 99.0594 127.027C99.1665 127.106 99.2827 127.163 99.3967 127.2C99.5107 127.237 99.6246 127.251 99.7317 127.251C99.7454 127.251 99.7591 127.251 99.7705 127.251C99.7773 127.251 99.7842 127.251 99.791 127.251C99.7978 127.251 99.8047 127.251 99.8115 127.249C99.8229 127.249 99.8343 127.246 99.8457 127.246C99.848 127.246 99.8525 127.246 99.8548 127.244L99.8662 127.242C99.873 127.242 99.8799 127.239 99.8867 127.239C99.9004 127.237 99.9118 127.234 99.9255 127.232C99.9391 127.229 99.9505 127.227 99.9619 127.222C99.987 127.217 100.01 127.207 100.033 127.2C100.078 127.182 100.124 127.163 100.163 127.14C100.204 127.118 100.24 127.091 100.276 127.066C100.286 127.059 100.297 127.052 100.306 127.042C100.343 127.01 100.349 126.951 100.32 126.911C100.295 126.877 100.249 126.867 100.213 126.889C100.204 126.894 100.194 126.899 100.185 126.904C100.153 126.921 100.121 126.936 100.087 126.948C100.053 126.96 100.017 126.97 99.9802 126.978C99.9619 126.98 99.9437 126.983 99.9232 126.985C99.9141 126.985 99.905 126.988 99.8936 126.988C99.8844 126.988 99.873 126.988 99.8662 126.988C99.8571 126.988 99.848 126.988 99.8389 126.988C99.8275 126.988 99.8161 126.988 99.8047 126.985C99.8047 126.985 99.7978 126.985 99.8024 126.985H99.7978H99.791C99.7864 126.985 99.7796 126.985 99.775 126.983C99.7636 126.98 99.7545 126.98 99.7431 126.978C99.6588 126.965 99.5745 126.938 99.4947 126.899C99.4127 126.859 99.3352 126.805 99.2645 126.736C99.1938 126.667 99.1323 126.586 99.0844 126.492C99.0366 126.398 99.0024 126.295 98.9864 126.186C98.9796 126.132 98.975 126.075 98.9773 126.021C98.9773 126.006 98.9796 125.991 98.9796 125.977C98.9796 125.982 98.9796 125.974 98.9796 125.974V125.969V125.957C98.9796 125.95 98.9819 125.942 98.9819 125.935C98.9842 125.905 98.9887 125.876 98.9933 125.846C99.032 125.609 99.1414 125.377 99.3101 125.202C99.3534 125.158 99.399 125.119 99.4468 125.082C99.4947 125.045 99.5471 125.013 99.6018 124.985C99.6565 124.958 99.7112 124.936 99.7705 124.919C99.8275 124.902 99.8867 124.892 99.9483 124.884C99.9779 124.882 100.008 124.879 100.039 124.879C100.049 124.879 100.053 124.879 100.06 124.879H100.085H100.101C100.108 124.879 100.101 124.879 100.103 124.879H100.11L100.135 124.882C100.201 124.887 100.265 124.897 100.329 124.914C100.457 124.943 100.582 124.995 100.698 125.064C100.931 125.205 101.129 125.422 101.25 125.683C101.311 125.814 101.355 125.954 101.375 126.1C101.38 126.137 101.384 126.174 101.386 126.211L101.389 126.238L101.391 126.265C101.391 126.275 101.391 126.285 101.391 126.292C101.391 126.302 101.391 126.312 101.391 126.319V126.344V126.371C101.391 126.388 101.389 126.418 101.389 126.435C101.386 126.475 101.382 126.517 101.377 126.556C101.373 126.596 101.366 126.635 101.359 126.674C101.352 126.714 101.343 126.753 101.334 126.79C101.316 126.867 101.293 126.943 101.266 127.02C101.211 127.168 101.138 127.311 101.051 127.441C100.876 127.703 100.637 127.915 100.363 128.05C100.226 128.117 100.083 128.166 99.9346 128.191C99.8617 128.206 99.7864 128.213 99.7112 128.216H99.6976H99.6862H99.6611H99.6246H99.6064C99.6155 128.216 99.6041 128.216 99.6041 128.216H99.5973C99.5562 128.216 99.5175 128.213 99.4765 128.208C99.3169 128.196 99.1597 128.164 99.0047 128.117C98.852 128.07 98.7038 128.003 98.5625 127.925C98.2822 127.762 98.0292 127.54 97.8332 127.271C97.7352 127.138 97.6485 126.993 97.5779 126.842C97.5072 126.692 97.4503 126.531 97.4092 126.371C97.3682 126.208 97.3431 126.043 97.3317 125.876L97.3295 125.843V125.836V125.829V125.814V125.787V125.779V125.769V125.75V125.71V125.703C97.3295 125.703 97.3295 125.705 97.3295 125.7V125.686C97.3295 125.666 97.3295 125.644 97.3295 125.624C97.3317 125.543 97.3386 125.456 97.3477 125.373C97.3568 125.289 97.3705 125.202 97.3864 125.119C97.4024 125.035 97.4206 124.951 97.4434 124.867C97.4867 124.702 97.5414 124.542 97.6052 124.391C97.7352 124.09 97.9038 123.822 98.1067 123.607C98.1568 123.553 98.2092 123.503 98.2639 123.454C98.3186 123.407 98.3756 123.363 98.4349 123.321C98.4919 123.279 98.5534 123.242 98.6149 123.208C98.6446 123.19 98.6765 123.173 98.7084 123.158C98.7243 123.151 98.7403 123.143 98.7562 123.136C98.7722 123.129 98.7881 123.121 98.8041 123.114C98.8679 123.084 98.934 123.06 99.0024 123.037C99.0183 123.033 99.0366 123.028 99.0525 123.02C99.0685 123.015 99.0867 123.01 99.1027 123.005C99.1369 122.996 99.1711 122.986 99.2052 122.978C99.2212 122.973 99.2394 122.971 99.2577 122.966C99.2759 122.961 99.2919 122.959 99.3101 122.954C99.3283 122.951 99.3443 122.946 99.3625 122.944L99.3876 122.939L99.4149 122.934C99.4332 122.931 99.4491 122.929 99.4674 122.926C99.4879 122.924 99.5061 122.922 99.5266 122.919C99.5426 122.917 99.5699 122.914 99.5859 122.912C99.5973 122.909 99.6109 122.909 99.6223 122.907L99.6474 122.904L99.6588 122.902H99.6725C99.693 122.899 99.7112 122.899 99.7317 122.897L99.7614 122.894C99.7614 122.894 99.7728 122.894 99.7636 122.894H99.7705H99.7842C99.8001 122.894 99.8183 122.892 99.8343 122.892C99.9004 122.89 99.9688 122.89 100.035 122.892C100.167 122.897 100.297 122.914 100.422 122.939C100.675 122.991 100.912 123.077 101.129 123.193C101.345 123.306 101.537 123.447 101.706 123.6C101.717 123.61 101.726 123.619 101.737 123.629C101.747 123.639 101.758 123.649 101.767 123.659C101.788 123.679 101.806 123.698 101.826 123.718C101.847 123.738 101.865 123.757 101.883 123.777C101.902 123.797 101.92 123.817 101.938 123.839C102.009 123.92 102.075 124.002 102.134 124.085C102.253 124.251 102.348 124.418 102.423 124.576C102.428 124.586 102.433 124.596 102.437 124.606C102.442 124.616 102.446 124.625 102.451 124.635C102.46 124.655 102.469 124.675 102.476 124.694C102.485 124.714 102.492 124.731 102.501 124.751C102.508 124.771 102.517 124.788 102.524 124.808C102.551 124.882 102.578 124.953 102.599 125.02C102.633 125.128 102.658 125.225 102.679 125.308C102.686 125.343 102.715 125.365 102.747 125.36C102.781 125.358 102.806 125.328 102.806 125.291C102.809 125.202 102.806 125.096 102.795 124.976Z" fill="url(#paint2_linear_2375_58812)"/>
</g>
<rect x="95" y="146" width="331" height="147" rx="5" fill="#1D1F22"/>
<path d="M356.801 174.801C364.356 182.138 369.847 191.336 372.722 201.468L355.405 206.381C353.393 199.288 349.549 192.85 344.261 187.714L356.801 174.801Z" fill="url(#paint3_linear_2375_58812)"/>
<path d="M366.914 187.761C374.552 200.942 376.89 216.534 373.455 231.375C370.019 246.217 361.067 259.195 348.414 267.679C335.762 276.163 320.355 279.516 305.321 277.058C290.287 274.601 276.751 266.517 267.458 254.446C258.165 242.375 253.811 227.221 255.28 212.059C256.749 196.896 263.93 182.86 275.368 172.797C286.805 162.735 301.641 157.399 316.868 157.873C332.094 158.347 346.57 164.595 357.359 175.35L344.651 188.098C337.099 180.57 326.966 176.196 316.308 175.865C305.649 175.533 295.264 179.267 287.257 186.311C279.251 193.355 274.224 203.18 273.196 213.794C272.168 224.408 275.215 235.016 281.72 243.465C288.226 251.915 297.701 257.574 308.225 259.294C318.749 261.014 329.533 258.667 338.39 252.729C347.247 246.79 353.514 237.705 355.918 227.316C358.323 216.927 356.686 206.012 351.34 196.786L366.914 187.761Z" fill="#5D97A6"/>
<rect x="355" y="173.844" width="31" height="16" rx="5" fill="white" fill-opacity="0.05"/>
<path d="M363.9 185.988C363.3 185.988 362.792 185.876 362.376 185.652C361.968 185.428 361.64 185.124 361.392 184.74C361.144 184.356 360.96 183.928 360.84 183.456C360.728 182.976 360.672 182.484 360.672 181.98C360.672 181.052 360.8 180.24 361.056 179.544C361.312 178.84 361.68 178.292 362.16 177.9C362.648 177.5 363.232 177.3 363.912 177.3C364.44 177.3 364.892 177.404 365.268 177.612C365.652 177.812 365.952 178.084 366.168 178.428C366.392 178.764 366.528 179.14 366.576 179.556H365.64C365.56 179.116 365.368 178.776 365.064 178.536C364.76 178.296 364.372 178.176 363.9 178.176C363.476 178.176 363.096 178.308 362.76 178.572C362.432 178.836 362.168 179.232 361.968 179.76C361.776 180.288 361.664 180.964 361.632 181.788C361.632 181.804 361.632 181.82 361.632 181.836C361.632 181.852 361.632 181.868 361.632 181.884C361.752 181.628 361.924 181.396 362.148 181.188C362.38 180.972 362.656 180.8 362.976 180.672C363.296 180.536 363.648 180.468 364.032 180.468C364.512 180.468 364.956 180.58 365.364 180.804C365.78 181.028 366.112 181.344 366.36 181.752C366.616 182.152 366.744 182.624 366.744 183.168C366.744 183.64 366.628 184.092 366.396 184.524C366.172 184.956 365.848 185.308 365.424 185.58C365 185.852 364.492 185.988 363.9 185.988ZM363.828 185.1C364.196 185.1 364.52 185.02 364.8 184.86C365.088 184.7 365.312 184.48 365.472 184.2C365.64 183.912 365.724 183.584 365.724 183.216C365.724 182.84 365.64 182.512 365.472 182.232C365.312 181.952 365.088 181.736 364.8 181.584C364.52 181.424 364.196 181.344 363.828 181.344C363.468 181.344 363.14 181.428 362.844 181.596C362.556 181.764 362.324 181.992 362.148 182.28C361.98 182.56 361.896 182.876 361.896 183.228C361.896 183.596 361.98 183.92 362.148 184.2C362.324 184.48 362.556 184.7 362.844 184.86C363.14 185.02 363.468 185.1 363.828 185.1ZM373.027 185.844L377.911 177.444H378.919L374.035 185.844H373.027ZM378.403 185.988C378.043 185.988 377.719 185.908 377.431 185.748C377.143 185.58 376.911 185.344 376.735 185.04C376.567 184.736 376.483 184.38 376.483 183.972C376.483 183.556 376.567 183.2 376.735 182.904C376.911 182.6 377.143 182.368 377.431 182.208C377.719 182.04 378.043 181.956 378.403 181.956C378.771 181.956 379.095 182.04 379.375 182.208C379.663 182.368 379.891 182.6 380.059 182.904C380.227 183.2 380.311 183.556 380.311 183.972C380.311 184.38 380.227 184.736 380.059 185.04C379.891 185.344 379.663 185.58 379.375 185.748C379.087 185.908 378.763 185.988 378.403 185.988ZM378.391 185.208C378.583 185.208 378.759 185.164 378.919 185.076C379.079 184.98 379.207 184.84 379.303 184.656C379.407 184.472 379.459 184.244 379.459 183.972C379.459 183.692 379.411 183.46 379.315 183.276C379.219 183.092 379.091 182.956 378.931 182.868C378.771 182.772 378.595 182.724 378.403 182.724C378.219 182.724 378.043 182.772 377.875 182.868C377.715 182.956 377.583 183.092 377.479 183.276C377.383 183.46 377.335 183.692 377.335 183.972C377.335 184.244 377.383 184.472 377.479 184.656C377.583 184.84 377.715 184.98 377.875 185.076C378.035 185.164 378.207 185.208 378.391 185.208ZM373.639 181.344C373.279 181.344 372.955 181.264 372.667 181.104C372.379 180.936 372.147 180.7 371.971 180.396C371.803 180.092 371.719 179.736 371.719 179.328C371.719 178.912 371.803 178.556 371.971 178.26C372.147 177.956 372.379 177.724 372.667 177.564C372.963 177.396 373.291 177.312 373.651 177.312C374.011 177.312 374.335 177.396 374.623 177.564C374.911 177.724 375.139 177.956 375.307 178.26C375.475 178.556 375.559 178.912 375.559 179.328C375.559 179.736 375.475 180.092 375.307 180.396C375.139 180.7 374.907 180.936 374.611 181.104C374.323 181.264 373.999 181.344 373.639 181.344ZM373.639 180.564C373.831 180.564 374.007 180.52 374.167 180.432C374.327 180.336 374.455 180.196 374.551 180.012C374.647 179.828 374.695 179.6 374.695 179.328C374.695 179.048 374.647 178.816 374.551 178.632C374.455 178.44 374.327 178.3 374.167 178.212C374.007 178.116 373.835 178.068 373.651 178.068C373.467 178.068 373.291 178.116 373.123 178.212C372.955 178.3 372.819 178.44 372.715 178.632C372.619 178.816 372.571 179.048 372.571 179.328C372.571 179.6 372.619 179.828 372.715 180.012C372.819 180.196 372.951 180.336 373.111 180.432C373.279 180.52 373.455 180.564 373.639 180.564Z" fill="#ACADAE"/>
<rect x="229" y="209.844" width="39" height="16" rx="5" fill="white" fill-opacity="0.05"/>
<path d="M237.636 221.988C237.108 221.988 236.656 221.888 236.28 221.688C235.904 221.48 235.604 221.204 235.38 220.86C235.164 220.508 235.032 220.124 234.984 219.708H235.92C236 220.156 236.192 220.504 236.496 220.752C236.8 220.992 237.184 221.112 237.648 221.112C238.072 221.112 238.448 220.984 238.776 220.728C239.104 220.472 239.368 220.084 239.568 219.564C239.776 219.036 239.892 218.368 239.916 217.56C239.916 217.536 239.916 217.512 239.916 217.488C239.916 217.464 239.916 217.44 239.916 217.416C239.796 217.664 239.62 217.896 239.388 218.112C239.156 218.328 238.88 218.5 238.56 218.628C238.248 218.756 237.896 218.82 237.504 218.82C237.032 218.82 236.584 218.708 236.16 218.484C235.744 218.26 235.404 217.948 235.14 217.548C234.884 217.14 234.756 216.664 234.756 216.12C234.756 215.648 234.872 215.196 235.104 214.764C235.336 214.332 235.668 213.98 236.1 213.708C236.532 213.436 237.044 213.3 237.636 213.3C238.236 213.3 238.744 213.416 239.16 213.648C239.576 213.872 239.908 214.176 240.156 214.56C240.412 214.936 240.596 215.364 240.708 215.844C240.82 216.324 240.876 216.812 240.876 217.308C240.876 218.228 240.748 219.04 240.492 219.744C240.244 220.448 239.876 221 239.388 221.4C238.908 221.792 238.324 221.988 237.636 221.988ZM237.708 217.944C238.076 217.944 238.408 217.86 238.704 217.692C239 217.524 239.232 217.296 239.4 217.008C239.576 216.72 239.664 216.404 239.664 216.06C239.664 215.692 239.576 215.368 239.4 215.088C239.232 214.808 239 214.588 238.704 214.428C238.408 214.268 238.076 214.188 237.708 214.188C237.34 214.188 237.008 214.272 236.712 214.44C236.424 214.6 236.196 214.82 236.028 215.1C235.86 215.38 235.776 215.704 235.776 216.072C235.776 216.448 235.86 216.776 236.028 217.056C236.196 217.336 236.424 217.556 236.712 217.716C237.008 217.868 237.34 217.944 237.708 217.944ZM246.479 221.844V220.044H242.219V219.264L246.299 213.444H247.475V219.156H248.723V220.044H247.475V221.844H246.479ZM243.335 219.156H246.527V214.56L243.335 219.156ZM254.472 221.844L259.356 213.444H260.364L255.48 221.844H254.472ZM259.764 221.988C259.404 221.988 259.08 221.908 258.792 221.748C258.504 221.58 258.272 221.344 258.096 221.04C257.928 220.736 257.844 220.38 257.844 219.972C257.844 219.556 257.928 219.2 258.096 218.904C258.272 218.6 258.504 218.368 258.792 218.208C259.08 218.04 259.404 217.956 259.764 217.956C260.132 217.956 260.456 218.04 260.736 218.208C261.024 218.368 261.252 218.6 261.42 218.904C261.588 219.2 261.672 219.556 261.672 219.972C261.672 220.38 261.588 220.736 261.42 221.04C261.252 221.344 261.024 221.58 260.736 221.748C260.448 221.908 260.124 221.988 259.764 221.988ZM259.752 221.208C259.944 221.208 260.12 221.164 260.28 221.076C260.44 220.98 260.568 220.84 260.664 220.656C260.768 220.472 260.82 220.244 260.82 219.972C260.82 219.692 260.772 219.46 260.676 219.276C260.58 219.092 260.452 218.956 260.292 218.868C260.132 218.772 259.956 218.724 259.764 218.724C259.58 218.724 259.404 218.772 259.236 218.868C259.076 218.956 258.944 219.092 258.84 219.276C258.744 219.46 258.696 219.692 258.696 219.972C258.696 220.244 258.744 220.472 258.84 220.656C258.944 220.84 259.076 220.98 259.236 221.076C259.396 221.164 259.568 221.208 259.752 221.208ZM255.144 217.344C254.784 217.344 254.46 217.264 254.172 217.104C253.884 216.936 253.652 216.7 253.476 216.396C253.308 216.092 253.224 215.736 253.224 215.328C253.224 214.912 253.308 214.556 253.476 214.26C253.652 213.956 253.884 213.724 254.172 213.564C254.468 213.396 254.796 213.312 255.156 213.312C255.516 213.312 255.84 213.396 256.128 213.564C256.416 213.724 256.644 213.956 256.812 214.26C256.98 214.556 257.064 214.912 257.064 215.328C257.064 215.736 256.98 216.092 256.812 216.396C256.644 216.7 256.412 216.936 256.116 217.104C255.828 217.264 255.504 217.344 255.144 217.344ZM255.144 216.564C255.336 216.564 255.512 216.52 255.672 216.432C255.832 216.336 255.96 216.196 256.056 216.012C256.152 215.828 256.2 215.6 256.2 215.328C256.2 215.048 256.152 214.816 256.056 214.632C255.96 214.44 255.832 214.3 255.672 214.212C255.512 214.116 255.34 214.068 255.156 214.068C254.972 214.068 254.796 214.116 254.628 214.212C254.46 214.3 254.324 214.44 254.22 214.632C254.124 214.816 254.076 215.048 254.076 215.328C254.076 215.6 254.124 215.828 254.22 216.012C254.324 216.196 254.456 216.336 254.616 216.432C254.784 216.52 254.96 216.564 255.144 216.564Z" fill="#ACADAE"/>
<rect x="110" y="204" width="28" height="6" rx="2" fill="#5D97A6"/>
<path d="M149.01 210.12C148.497 210.12 148.05 210.027 147.67 209.84C147.29 209.653 146.997 209.393 146.79 209.06C146.583 208.727 146.48 208.34 146.48 207.9H147.36C147.36 208.173 147.423 208.427 147.55 208.66C147.677 208.887 147.86 209.07 148.1 209.21C148.347 209.343 148.65 209.41 149.01 209.41C149.323 209.41 149.59 209.36 149.81 209.26C150.037 209.153 150.207 209.01 150.32 208.83C150.44 208.65 150.5 208.447 150.5 208.22C150.5 207.967 150.443 207.757 150.33 207.59C150.223 207.417 150.073 207.277 149.88 207.17C149.687 207.057 149.463 206.957 149.21 206.87C148.957 206.783 148.683 206.693 148.39 206.6C147.803 206.413 147.377 206.18 147.11 205.9C146.85 205.613 146.72 205.247 146.72 204.8C146.72 204.42 146.807 204.087 146.98 203.8C147.16 203.513 147.413 203.29 147.74 203.13C148.073 202.963 148.467 202.88 148.92 202.88C149.367 202.88 149.753 202.963 150.08 203.13C150.413 203.297 150.673 203.527 150.86 203.82C151.047 204.107 151.14 204.44 151.14 204.82H150.26C150.26 204.627 150.21 204.437 150.11 204.25C150.01 204.063 149.857 203.91 149.65 203.79C149.45 203.663 149.197 203.6 148.89 203.6C148.637 203.593 148.41 203.637 148.21 203.73C148.017 203.817 147.863 203.943 147.75 204.11C147.643 204.277 147.59 204.48 147.59 204.72C147.59 204.947 147.637 205.13 147.73 205.27C147.83 205.41 147.97 205.53 148.15 205.63C148.337 205.723 148.553 205.81 148.8 205.89C149.047 205.97 149.32 206.06 149.62 206.16C149.96 206.273 150.26 206.413 150.52 206.58C150.787 206.74 150.993 206.947 151.14 207.2C151.293 207.453 151.37 207.777 151.37 208.17C151.37 208.503 151.28 208.82 151.1 209.12C150.927 209.413 150.667 209.653 150.32 209.84C149.973 210.027 149.537 210.12 149.01 210.12ZM154.659 210.12C154.273 210.12 153.936 210.047 153.649 209.9C153.363 209.753 153.139 209.53 152.979 209.23C152.819 208.923 152.739 208.543 152.739 208.09V204.74H153.579V208C153.579 208.467 153.693 208.817 153.919 209.05C154.153 209.283 154.463 209.4 154.849 209.4C155.116 209.4 155.356 209.34 155.569 209.22C155.783 209.093 155.953 208.91 156.079 208.67C156.213 208.43 156.279 208.137 156.279 207.79V204.74H157.119V210H156.359L156.309 209.16C156.169 209.467 155.953 209.703 155.659 209.87C155.373 210.037 155.039 210.12 154.659 210.12ZM161.011 210.12C160.531 210.12 160.104 210.007 159.731 209.78C159.358 209.547 159.064 209.223 158.851 208.81C158.638 208.397 158.531 207.917 158.531 207.37C158.531 206.817 158.638 206.337 158.851 205.93C159.064 205.517 159.358 205.197 159.731 204.97C160.104 204.737 160.531 204.62 161.011 204.62C161.611 204.62 162.111 204.78 162.511 205.1C162.918 205.42 163.178 205.85 163.291 206.39H162.431C162.358 206.057 162.188 205.8 161.921 205.62C161.661 205.433 161.354 205.34 161.001 205.34C160.694 205.34 160.418 205.417 160.171 205.57C159.931 205.723 159.741 205.95 159.601 206.25C159.461 206.55 159.391 206.923 159.391 207.37C159.391 207.703 159.431 208 159.511 208.26C159.591 208.513 159.701 208.727 159.841 208.9C159.988 209.067 160.158 209.193 160.351 209.28C160.551 209.367 160.768 209.41 161.001 209.41C161.241 209.41 161.458 209.37 161.651 209.29C161.851 209.203 162.018 209.08 162.151 208.92C162.291 208.76 162.384 208.57 162.431 208.35H163.291C163.184 208.877 162.924 209.303 162.511 209.63C162.104 209.957 161.604 210.12 161.011 210.12ZM166.982 210.12C166.502 210.12 166.076 210.007 165.702 209.78C165.329 209.547 165.036 209.223 164.822 208.81C164.609 208.397 164.502 207.917 164.502 207.37C164.502 206.817 164.609 206.337 164.822 205.93C165.036 205.517 165.329 205.197 165.702 204.97C166.076 204.737 166.502 204.62 166.982 204.62C167.582 204.62 168.082 204.78 168.482 205.1C168.889 205.42 169.149 205.85 169.262 206.39H168.402C168.329 206.057 168.159 205.8 167.892 205.62C167.632 205.433 167.326 205.34 166.972 205.34C166.666 205.34 166.389 205.417 166.142 205.57C165.902 205.723 165.712 205.95 165.572 206.25C165.432 206.55 165.362 206.923 165.362 207.37C165.362 207.703 165.402 208 165.482 208.26C165.562 208.513 165.672 208.727 165.812 208.9C165.959 209.067 166.129 209.193 166.322 209.28C166.522 209.367 166.739 209.41 166.972 209.41C167.212 209.41 167.429 209.37 167.622 209.29C167.822 209.203 167.989 209.08 168.122 208.92C168.262 208.76 168.356 208.57 168.402 208.35H169.262C169.156 208.877 168.896 209.303 168.482 209.63C168.076 209.957 167.576 210.12 166.982 210.12ZM172.864 210.12C172.397 210.12 171.984 210.007 171.624 209.78C171.264 209.553 170.98 209.233 170.774 208.82C170.574 208.407 170.474 207.923 170.474 207.37C170.474 206.817 170.574 206.333 170.774 205.92C170.98 205.507 171.264 205.187 171.624 204.96C171.99 204.733 172.41 204.62 172.884 204.62C173.39 204.62 173.814 204.733 174.154 204.96C174.494 205.187 174.75 205.49 174.924 205.87C175.097 206.25 175.184 206.667 175.184 207.12C175.184 207.187 175.184 207.253 175.184 207.32C175.184 207.387 175.18 207.467 175.174 207.56H171.104V206.91H174.364C174.35 206.397 174.2 206.007 173.914 205.74C173.634 205.467 173.284 205.33 172.864 205.33C172.584 205.33 172.324 205.4 172.084 205.54C171.85 205.673 171.66 205.873 171.514 206.14C171.367 206.407 171.294 206.74 171.294 207.14V207.42C171.294 207.86 171.367 208.23 171.514 208.53C171.66 208.823 171.85 209.043 172.084 209.19C172.324 209.337 172.584 209.41 172.864 209.41C173.237 209.41 173.53 209.34 173.744 209.2C173.957 209.053 174.114 208.847 174.214 208.58H175.044C174.964 208.873 174.824 209.137 174.624 209.37C174.43 209.603 174.184 209.787 173.884 209.92C173.59 210.053 173.25 210.12 172.864 210.12ZM178.448 210.12C177.975 210.12 177.581 210.05 177.268 209.91C176.961 209.763 176.728 209.563 176.568 209.31C176.408 209.05 176.311 208.75 176.278 208.41H177.138C177.165 208.59 177.225 208.757 177.318 208.91C177.418 209.057 177.561 209.177 177.748 209.27C177.935 209.363 178.171 209.41 178.458 209.41C178.685 209.41 178.878 209.377 179.038 209.31C179.198 209.237 179.318 209.137 179.398 209.01C179.485 208.883 179.528 208.737 179.528 208.57C179.528 208.35 179.478 208.18 179.378 208.06C179.285 207.933 179.145 207.84 178.958 207.78C178.778 207.713 178.551 207.663 178.278 207.63C177.985 207.59 177.725 207.533 177.498 207.46C177.271 207.387 177.078 207.29 176.918 207.17C176.765 207.05 176.648 206.9 176.568 206.72C176.488 206.54 176.448 206.327 176.448 206.08C176.448 205.793 176.525 205.54 176.678 205.32C176.831 205.1 177.048 204.93 177.328 204.81C177.615 204.683 177.951 204.62 178.338 204.62C178.905 204.62 179.351 204.75 179.678 205.01C180.011 205.27 180.208 205.64 180.268 206.12H179.438C179.405 205.873 179.291 205.68 179.098 205.54C178.905 205.4 178.648 205.33 178.328 205.33C177.988 205.33 177.731 205.393 177.558 205.52C177.385 205.647 177.298 205.813 177.298 206.02C177.298 206.173 177.335 206.313 177.408 206.44C177.488 206.56 177.621 206.663 177.808 206.75C177.995 206.83 178.245 206.89 178.558 206.93C178.951 206.977 179.285 207.053 179.558 207.16C179.831 207.26 180.038 207.417 180.178 207.63C180.325 207.843 180.395 208.133 180.388 208.5C180.388 208.847 180.305 209.14 180.138 209.38C179.978 209.62 179.751 209.803 179.458 209.93C179.171 210.057 178.835 210.12 178.448 210.12ZM182.166 210V204.18C182.166 203.86 182.219 203.6 182.326 203.4C182.432 203.193 182.589 203.043 182.796 202.95C183.009 202.85 183.269 202.8 183.576 202.8H184.346V203.52H183.716C183.462 203.52 183.279 203.573 183.166 203.68C183.059 203.78 183.006 203.957 183.006 204.21V210H182.166ZM181.346 205.45V204.74H184.406V205.45H181.346ZM187.539 210.12C187.152 210.12 186.816 210.047 186.529 209.9C186.242 209.753 186.019 209.53 185.859 209.23C185.699 208.923 185.619 208.543 185.619 208.09V204.74H186.459V208C186.459 208.467 186.572 208.817 186.799 209.05C187.032 209.283 187.342 209.4 187.729 209.4C187.996 209.4 188.236 209.34 188.449 209.22C188.662 209.093 188.832 208.91 188.959 208.67C189.092 208.43 189.159 208.137 189.159 207.79V204.74H189.999V210H189.239L189.189 209.16C189.049 209.467 188.832 209.703 188.539 209.87C188.252 210.037 187.919 210.12 187.539 210.12ZM191.621 210V202.8H192.461V210H191.621Z" fill="white"/>
<path d="M146.77 236V229H151.03V229.69H147.61V232.15H150.52V232.83H147.61V236H146.77ZM153.599 236.12C153.199 236.12 152.865 236.047 152.599 235.9C152.332 235.747 152.132 235.547 151.999 235.3C151.865 235.047 151.799 234.777 151.799 234.49C151.799 234.143 151.885 233.85 152.059 233.61C152.239 233.363 152.489 233.177 152.809 233.05C153.129 232.923 153.502 232.86 153.929 232.86H155.239C155.239 232.52 155.199 232.237 155.119 232.01C155.039 231.783 154.909 231.613 154.729 231.5C154.549 231.387 154.309 231.33 154.009 231.33C153.709 231.33 153.452 231.407 153.239 231.56C153.025 231.707 152.892 231.927 152.839 232.22H151.979C152.019 231.873 152.135 231.583 152.329 231.35C152.522 231.11 152.765 230.93 153.059 230.81C153.359 230.683 153.675 230.62 154.009 230.62C154.482 230.62 154.872 230.707 155.179 230.88C155.485 231.047 155.712 231.283 155.859 231.59C156.005 231.89 156.079 232.247 156.079 232.66V236H155.329L155.279 235.1C155.212 235.24 155.125 235.373 155.019 235.5C154.919 235.62 154.799 235.727 154.659 235.82C154.519 235.913 154.359 235.987 154.179 236.04C154.005 236.093 153.812 236.12 153.599 236.12ZM153.719 235.41C153.939 235.41 154.142 235.36 154.329 235.26C154.515 235.16 154.675 235.027 154.809 234.86C154.949 234.687 155.055 234.493 155.129 234.28C155.202 234.067 155.239 233.843 155.239 233.61V233.51H153.999C153.685 233.51 153.429 233.55 153.229 233.63C153.035 233.71 152.895 233.823 152.809 233.97C152.722 234.11 152.679 234.27 152.679 234.45C152.679 234.643 152.719 234.813 152.799 234.96C152.879 235.1 152.995 235.21 153.149 235.29C153.309 235.37 153.499 235.41 153.719 235.41ZM157.747 236V230.74H158.587V236H157.747ZM158.167 229.74C158 229.74 157.86 229.687 157.747 229.58C157.64 229.467 157.587 229.327 157.587 229.16C157.587 228.993 157.64 228.86 157.747 228.76C157.86 228.653 158 228.6 158.167 228.6C158.327 228.6 158.463 228.653 158.577 228.76C158.69 228.86 158.747 228.993 158.747 229.16C158.747 229.327 158.69 229.467 158.577 229.58C158.463 229.687 158.327 229.74 158.167 229.74ZM160.279 236V228.8H161.119V236H160.279ZM164.915 236.12C164.448 236.12 164.035 236.007 163.675 235.78C163.315 235.553 163.031 235.233 162.825 234.82C162.625 234.407 162.525 233.923 162.525 233.37C162.525 232.817 162.625 232.333 162.825 231.92C163.031 231.507 163.315 231.187 163.675 230.96C164.041 230.733 164.461 230.62 164.935 230.62C165.441 230.62 165.865 230.733 166.205 230.96C166.545 231.187 166.801 231.49 166.975 231.87C167.148 232.25 167.235 232.667 167.235 233.12C167.235 233.187 167.235 233.253 167.235 233.32C167.235 233.387 167.231 233.467 167.225 233.56H163.155V232.91H166.415C166.401 232.397 166.251 232.007 165.965 231.74C165.685 231.467 165.335 231.33 164.915 231.33C164.635 231.33 164.375 231.4 164.135 231.54C163.901 231.673 163.711 231.873 163.565 232.14C163.418 232.407 163.345 232.74 163.345 233.14V233.42C163.345 233.86 163.418 234.23 163.565 234.53C163.711 234.823 163.901 235.043 164.135 235.19C164.375 235.337 164.635 235.41 164.915 235.41C165.288 235.41 165.581 235.34 165.795 235.2C166.008 235.053 166.165 234.847 166.265 234.58H167.095C167.015 234.873 166.875 235.137 166.675 235.37C166.481 235.603 166.235 235.787 165.935 235.92C165.641 236.053 165.301 236.12 164.915 236.12ZM170.769 236.12C170.302 236.12 169.889 236 169.529 235.76C169.169 235.52 168.889 235.193 168.689 234.78C168.489 234.36 168.389 233.887 168.389 233.36C168.389 232.827 168.489 232.357 168.689 231.95C168.889 231.537 169.169 231.213 169.529 230.98C169.889 230.74 170.305 230.62 170.779 230.62C171.192 230.62 171.545 230.703 171.839 230.87C172.139 231.037 172.375 231.27 172.549 231.57V228.8H173.389V236H172.629L172.559 235.16C172.459 235.327 172.325 235.483 172.159 235.63C171.999 235.777 171.802 235.897 171.569 235.99C171.342 236.077 171.075 236.12 170.769 236.12ZM170.879 235.39C171.212 235.39 171.502 235.31 171.749 235.15C171.995 234.983 172.185 234.75 172.319 234.45C172.452 234.143 172.519 233.783 172.519 233.37C172.519 232.957 172.452 232.6 172.319 232.3C172.185 231.993 171.995 231.76 171.749 231.6C171.502 231.433 171.212 231.35 170.879 231.35C170.565 231.35 170.285 231.433 170.039 231.6C169.792 231.76 169.599 231.993 169.459 232.3C169.319 232.6 169.249 232.957 169.249 233.37C169.249 233.783 169.319 234.143 169.459 234.45C169.599 234.75 169.792 234.983 170.039 235.15C170.285 235.31 170.565 235.39 170.879 235.39Z" fill="white"/>
<rect x="110" y="230" width="28" height="6" rx="2" fill="#AB63A5"/>
</g>
<g filter="url(#filter3_d_2375_58812)">
<rect x="65.5" y="95.5" width="350" height="187" rx="9.5" fill="#111214" stroke="url(#paint4_linear_2375_58812)"/>
<line x1="65.9971" y1="115.496" x2="415.003" y2="115.496" stroke="url(#paint5_linear_2375_58812)"/>
<g clip-path="url(#clip1_2375_58812)">
<path d="M82.795 104.976C82.7813 104.825 82.7585 104.653 82.7129 104.46C82.6674 104.27 82.599 104.061 82.4987 103.844C82.3984 103.627 82.2685 103.402 82.0998 103.183C82.0337 103.097 81.9608 103.013 81.8833 102.931C81.9995 102.431 81.742 101.997 81.742 101.997C81.2976 101.967 81.0149 102.147 80.9101 102.229C80.8919 102.221 80.8759 102.211 80.8577 102.204C80.7825 102.172 80.705 102.14 80.6229 102.113C80.5431 102.086 80.4611 102.061 80.3768 102.039C80.2924 102.017 80.2081 101.999 80.1215 101.985C80.1055 101.982 80.0919 101.98 80.0759 101.977C79.8822 101.306 79.326 101.025 79.326 101.025C78.7038 101.452 78.5876 102.049 78.5876 102.049C78.5876 102.049 78.5853 102.061 78.5807 102.083C78.5466 102.093 78.5124 102.105 78.4782 102.115C78.4303 102.13 78.3825 102.15 78.3369 102.17C78.289 102.189 78.2434 102.209 78.1956 102.231C78.1021 102.276 78.0087 102.325 77.9175 102.379C77.8286 102.433 77.742 102.493 77.6577 102.554C77.6463 102.549 77.6349 102.544 77.6349 102.544C76.7733 102.189 76.0098 102.616 76.0098 102.616C75.9391 103.607 76.354 104.231 76.436 104.344C76.4155 104.406 76.3973 104.468 76.379 104.529C76.3152 104.754 76.2674 104.983 76.2377 105.222C76.2332 105.257 76.2286 105.291 76.2263 105.326C75.4286 105.752 75.1938 106.623 75.1938 106.623C75.8571 107.449 76.632 107.5 76.632 107.5L76.6343 107.498C76.7323 107.688 76.8463 107.868 76.9739 108.038C77.0286 108.109 77.0833 108.176 77.1426 108.243C76.901 108.992 77.1768 109.614 77.1768 109.614C77.9152 109.643 78.4007 109.263 78.5032 109.177C78.5762 109.204 78.6514 109.229 78.7266 109.249C78.9545 109.313 79.187 109.35 79.4195 109.36C79.4765 109.362 79.5357 109.365 79.5927 109.362H79.6201H79.6383H79.6748L79.7112 109.36V109.362C80.0599 109.9 80.6708 109.976 80.6708 109.976C81.1061 109.48 81.1312 108.987 81.1312 108.881C81.1312 108.881 81.1312 108.879 81.1312 108.874C81.1312 108.864 81.1312 108.859 81.1312 108.859C81.1312 108.852 81.1312 108.844 81.1312 108.837C81.2223 108.768 81.3089 108.694 81.391 108.613C81.5642 108.442 81.7169 108.248 81.8446 108.038C81.856 108.018 81.8674 107.999 81.8787 107.979C82.3711 108.008 82.7198 107.648 82.7198 107.648C82.6377 107.094 82.346 106.822 82.2844 106.771C82.2844 106.771 82.2822 106.768 82.2776 106.766C82.273 106.763 82.273 106.761 82.273 106.761C82.2708 106.758 82.2662 106.756 82.2617 106.753C82.2639 106.719 82.2662 106.687 82.2685 106.652C82.273 106.593 82.273 106.531 82.273 106.472V106.428V106.406V106.393C82.273 106.379 82.273 106.383 82.273 106.379L82.2708 106.342L82.2685 106.292C82.2685 106.275 82.2662 106.26 82.2639 106.245C82.2617 106.231 82.2617 106.213 82.2594 106.199L82.2548 106.152L82.248 106.105C82.2389 106.043 82.2297 105.984 82.2161 105.922C82.1636 105.683 82.077 105.456 81.9654 105.252C81.8514 105.047 81.7101 104.867 81.5483 104.714C81.3887 104.561 81.2087 104.438 81.0218 104.347C80.8326 104.256 80.6366 104.196 80.4406 104.169C80.3426 104.154 80.2446 104.15 80.1466 104.152H80.1101H80.101C80.0987 104.152 80.0873 104.152 80.0896 104.152H80.0736L80.0372 104.154C80.0235 104.154 80.0098 104.157 79.9984 104.157C79.9483 104.162 79.8981 104.169 79.8503 104.179C79.6542 104.219 79.4696 104.295 79.3078 104.401C79.146 104.507 79.0047 104.638 78.8907 104.786C78.7768 104.934 78.6879 105.099 78.6263 105.269C78.5648 105.439 78.5306 105.617 78.5215 105.787C78.5192 105.829 78.5192 105.873 78.5192 105.915C78.5192 105.925 78.5192 105.937 78.5192 105.947L78.5215 105.982C78.5238 106.001 78.5238 106.023 78.526 106.043C78.5329 106.129 78.5488 106.213 78.5693 106.292C78.6127 106.453 78.681 106.598 78.7654 106.721C78.8497 106.845 78.9523 106.946 79.0594 107.027C79.1665 107.106 79.2827 107.163 79.3967 107.2C79.5107 107.237 79.6246 107.251 79.7317 107.251C79.7454 107.251 79.7591 107.251 79.7705 107.251C79.7773 107.251 79.7842 107.251 79.791 107.251C79.7978 107.251 79.8047 107.251 79.8115 107.249C79.8229 107.249 79.8343 107.246 79.8457 107.246C79.848 107.246 79.8525 107.246 79.8548 107.244L79.8662 107.242C79.873 107.242 79.8799 107.239 79.8867 107.239C79.9004 107.237 79.9118 107.234 79.9255 107.232C79.9391 107.229 79.9505 107.227 79.9619 107.222C79.987 107.217 80.0098 107.207 80.0326 107.2C80.0782 107.182 80.1238 107.163 80.1625 107.14C80.2035 107.118 80.24 107.091 80.2765 107.066C80.2856 107.059 80.297 107.052 80.3061 107.042C80.3426 107.01 80.3494 106.951 80.3198 106.911C80.2947 106.877 80.2491 106.867 80.2127 106.889C80.2035 106.894 80.1944 106.899 80.1853 106.904C80.1534 106.921 80.1215 106.936 80.0873 106.948C80.0531 106.96 80.0166 106.97 79.9802 106.978C79.9619 106.98 79.9437 106.983 79.9232 106.985C79.9141 106.985 79.905 106.988 79.8936 106.988C79.8844 106.988 79.873 106.988 79.8662 106.988C79.8571 106.988 79.848 106.988 79.8389 106.988C79.8275 106.988 79.8161 106.988 79.8047 106.985C79.8047 106.985 79.7978 106.985 79.8024 106.985H79.7978H79.791C79.7864 106.985 79.7796 106.985 79.775 106.983C79.7636 106.98 79.7545 106.98 79.7431 106.978C79.6588 106.965 79.5745 106.938 79.4947 106.899C79.4127 106.859 79.3352 106.805 79.2645 106.736C79.1938 106.667 79.1323 106.586 79.0844 106.492C79.0366 106.398 79.0024 106.295 78.9864 106.186C78.9796 106.132 78.975 106.075 78.9773 106.021C78.9773 106.006 78.9796 105.991 78.9796 105.977C78.9796 105.982 78.9796 105.974 78.9796 105.974V105.969V105.957C78.9796 105.95 78.9819 105.942 78.9819 105.935C78.9842 105.905 78.9887 105.876 78.9933 105.846C79.032 105.609 79.1414 105.377 79.3101 105.202C79.3534 105.158 79.399 105.119 79.4468 105.082C79.4947 105.045 79.5471 105.013 79.6018 104.985C79.6565 104.958 79.7112 104.936 79.7705 104.919C79.8275 104.902 79.8867 104.892 79.9483 104.884C79.9779 104.882 80.0075 104.879 80.0394 104.879C80.0485 104.879 80.0531 104.879 80.0599 104.879H80.085H80.101C80.1078 104.879 80.101 104.879 80.1032 104.879H80.1101L80.1352 104.882C80.2013 104.887 80.2651 104.897 80.3289 104.914C80.4565 104.943 80.5819 104.995 80.6981 105.064C80.9306 105.205 81.1289 105.422 81.2497 105.683C81.3112 105.814 81.3545 105.954 81.375 106.1C81.3796 106.137 81.3842 106.174 81.3864 106.211L81.3887 106.238L81.391 106.265C81.391 106.275 81.391 106.285 81.391 106.292C81.391 106.302 81.391 106.312 81.391 106.319V106.344V106.371C81.391 106.388 81.3887 106.418 81.3887 106.435C81.3864 106.475 81.3819 106.517 81.3773 106.556C81.3728 106.596 81.3659 106.635 81.3591 106.674C81.3523 106.714 81.3431 106.753 81.334 106.79C81.3158 106.867 81.293 106.943 81.2656 107.02C81.2109 107.168 81.138 107.311 81.0514 107.441C80.8759 107.703 80.6366 107.915 80.3631 108.05C80.2263 108.117 80.0827 108.166 79.9346 108.191C79.8617 108.206 79.7864 108.213 79.7112 108.216H79.6976H79.6862H79.6611H79.6246H79.6064C79.6155 108.216 79.6041 108.216 79.6041 108.216H79.5973C79.5562 108.216 79.5175 108.213 79.4765 108.208C79.3169 108.196 79.1597 108.164 79.0047 108.117C78.852 108.07 78.7038 108.003 78.5625 107.925C78.2822 107.762 78.0292 107.54 77.8332 107.271C77.7352 107.138 77.6485 106.993 77.5779 106.842C77.5072 106.692 77.4503 106.531 77.4092 106.371C77.3682 106.208 77.3431 106.043 77.3317 105.876L77.3295 105.843V105.836V105.829V105.814V105.787V105.779V105.769V105.75V105.71V105.703C77.3295 105.703 77.3295 105.705 77.3295 105.7V105.686C77.3295 105.666 77.3295 105.644 77.3295 105.624C77.3317 105.543 77.3386 105.456 77.3477 105.373C77.3568 105.289 77.3705 105.202 77.3864 105.119C77.4024 105.035 77.4206 104.951 77.4434 104.867C77.4867 104.702 77.5414 104.542 77.6052 104.391C77.7352 104.09 77.9038 103.822 78.1067 103.607C78.1568 103.553 78.2092 103.503 78.2639 103.454C78.3186 103.407 78.3756 103.363 78.4349 103.321C78.4919 103.279 78.5534 103.242 78.6149 103.208C78.6446 103.19 78.6765 103.173 78.7084 103.158C78.7243 103.151 78.7403 103.143 78.7562 103.136C78.7722 103.129 78.7881 103.121 78.8041 103.114C78.8679 103.084 78.934 103.06 79.0024 103.037C79.0183 103.033 79.0366 103.028 79.0525 103.02C79.0685 103.015 79.0867 103.01 79.1027 103.005C79.1369 102.996 79.1711 102.986 79.2052 102.978C79.2212 102.973 79.2394 102.971 79.2577 102.966C79.2759 102.961 79.2919 102.959 79.3101 102.954C79.3283 102.951 79.3443 102.946 79.3625 102.944L79.3876 102.939L79.4149 102.934C79.4332 102.931 79.4491 102.929 79.4674 102.926C79.4879 102.924 79.5061 102.922 79.5266 102.919C79.5426 102.917 79.5699 102.914 79.5859 102.912C79.5973 102.909 79.6109 102.909 79.6223 102.907L79.6474 102.904L79.6588 102.902H79.6725C79.693 102.899 79.7112 102.899 79.7317 102.897L79.7614 102.894C79.7614 102.894 79.7728 102.894 79.7636 102.894H79.7705H79.7842C79.8001 102.894 79.8183 102.892 79.8343 102.892C79.9004 102.89 79.9688 102.89 80.0349 102.892C80.1671 102.897 80.297 102.914 80.4223 102.939C80.6753 102.991 80.9124 103.077 81.1289 103.193C81.3454 103.306 81.5369 103.447 81.7055 103.6C81.7169 103.61 81.726 103.619 81.7374 103.629C81.7466 103.639 81.7579 103.649 81.7671 103.659C81.7876 103.679 81.8058 103.698 81.8263 103.718C81.8468 103.738 81.8651 103.757 81.8833 103.777C81.9015 103.797 81.9198 103.817 81.938 103.839C82.0087 103.92 82.0748 104.002 82.134 104.085C82.2525 104.251 82.3483 104.418 82.4235 104.576C82.428 104.586 82.4326 104.596 82.4372 104.606C82.4417 104.616 82.4463 104.625 82.4508 104.635C82.4599 104.655 82.4691 104.675 82.4759 104.694C82.485 104.714 82.4919 104.731 82.501 104.751C82.5078 104.771 82.5169 104.788 82.5238 104.808C82.5511 104.882 82.5785 104.953 82.599 105.02C82.6332 105.128 82.6582 105.225 82.6787 105.308C82.6856 105.343 82.7152 105.365 82.7471 105.36C82.7813 105.358 82.8064 105.328 82.8064 105.291C82.8087 105.202 82.8064 105.096 82.795 104.976Z" fill="url(#paint6_linear_2375_58812)"/>
</g>
<rect x="75" y="126" width="331" height="147" rx="5" fill="#1D1F22"/>
<path d="M336.801 154.801C344.356 162.138 349.847 171.336 352.722 181.468L335.405 186.381C333.393 179.288 329.549 172.85 324.261 167.714L336.801 154.801Z" fill="url(#paint7_linear_2375_58812)"/>
<path d="M346.914 167.761C354.552 180.942 356.89 196.534 353.455 211.375C350.019 226.217 341.067 239.195 328.414 247.679C315.762 256.163 300.355 259.516 285.321 257.058C270.287 254.601 256.751 246.517 247.458 234.446C238.165 222.375 233.811 207.221 235.28 192.059C236.749 176.896 243.93 162.86 255.368 152.797C266.805 142.735 281.641 137.399 296.868 137.873C312.094 138.347 326.57 144.595 337.359 155.35L324.651 168.098C317.099 160.57 306.966 156.196 296.308 155.865C285.649 155.533 275.264 159.267 267.257 166.311C259.251 173.355 254.224 183.18 253.196 193.794C252.168 204.408 255.215 215.016 261.72 223.465C268.226 231.915 277.701 237.574 288.225 239.294C298.749 241.014 309.533 238.667 318.39 232.729C327.247 226.79 333.514 217.705 335.918 207.316C338.323 196.927 336.686 186.012 331.34 176.786L346.914 167.761Z" fill="#5D97A6"/>
<rect x="335" y="153.844" width="31" height="16" rx="5" fill="white" fill-opacity="0.05"/>
<path d="M343.9 165.988C343.3 165.988 342.792 165.876 342.376 165.652C341.968 165.428 341.64 165.124 341.392 164.74C341.144 164.356 340.96 163.928 340.84 163.456C340.728 162.976 340.672 162.484 340.672 161.98C340.672 161.052 340.8 160.24 341.056 159.544C341.312 158.84 341.68 158.292 342.16 157.9C342.648 157.5 343.232 157.3 343.912 157.3C344.44 157.3 344.892 157.404 345.268 157.612C345.652 157.812 345.952 158.084 346.168 158.428C346.392 158.764 346.528 159.14 346.576 159.556H345.64C345.56 159.116 345.368 158.776 345.064 158.536C344.76 158.296 344.372 158.176 343.9 158.176C343.476 158.176 343.096 158.308 342.76 158.572C342.432 158.836 342.168 159.232 341.968 159.76C341.776 160.288 341.664 160.964 341.632 161.788C341.632 161.804 341.632 161.82 341.632 161.836C341.632 161.852 341.632 161.868 341.632 161.884C341.752 161.628 341.924 161.396 342.148 161.188C342.38 160.972 342.656 160.8 342.976 160.672C343.296 160.536 343.648 160.468 344.032 160.468C344.512 160.468 344.956 160.58 345.364 160.804C345.78 161.028 346.112 161.344 346.36 161.752C346.616 162.152 346.744 162.624 346.744 163.168C346.744 163.64 346.628 164.092 346.396 164.524C346.172 164.956 345.848 165.308 345.424 165.58C345 165.852 344.492 165.988 343.9 165.988ZM343.828 165.1C344.196 165.1 344.52 165.02 344.8 164.86C345.088 164.7 345.312 164.48 345.472 164.2C345.64 163.912 345.724 163.584 345.724 163.216C345.724 162.84 345.64 162.512 345.472 162.232C345.312 161.952 345.088 161.736 344.8 161.584C344.52 161.424 344.196 161.344 343.828 161.344C343.468 161.344 343.14 161.428 342.844 161.596C342.556 161.764 342.324 161.992 342.148 162.28C341.98 162.56 341.896 162.876 341.896 163.228C341.896 163.596 341.98 163.92 342.148 164.2C342.324 164.48 342.556 164.7 342.844 164.86C343.14 165.02 343.468 165.1 343.828 165.1ZM353.027 165.844L357.911 157.444H358.919L354.035 165.844H353.027ZM358.403 165.988C358.043 165.988 357.719 165.908 357.431 165.748C357.143 165.58 356.911 165.344 356.735 165.04C356.567 164.736 356.483 164.38 356.483 163.972C356.483 163.556 356.567 163.2 356.735 162.904C356.911 162.6 357.143 162.368 357.431 162.208C357.719 162.04 358.043 161.956 358.403 161.956C358.771 161.956 359.095 162.04 359.375 162.208C359.663 162.368 359.891 162.6 360.059 162.904C360.227 163.2 360.311 163.556 360.311 163.972C360.311 164.38 360.227 164.736 360.059 165.04C359.891 165.344 359.663 165.58 359.375 165.748C359.087 165.908 358.763 165.988 358.403 165.988ZM358.391 165.208C358.583 165.208 358.759 165.164 358.919 165.076C359.079 164.98 359.207 164.84 359.303 164.656C359.407 164.472 359.459 164.244 359.459 163.972C359.459 163.692 359.411 163.46 359.315 163.276C359.219 163.092 359.091 162.956 358.931 162.868C358.771 162.772 358.595 162.724 358.403 162.724C358.219 162.724 358.043 162.772 357.875 162.868C357.715 162.956 357.583 163.092 357.479 163.276C357.383 163.46 357.335 163.692 357.335 163.972C357.335 164.244 357.383 164.472 357.479 164.656C357.583 164.84 357.715 164.98 357.875 165.076C358.035 165.164 358.207 165.208 358.391 165.208ZM353.639 161.344C353.279 161.344 352.955 161.264 352.667 161.104C352.379 160.936 352.147 160.7 351.971 160.396C351.803 160.092 351.719 159.736 351.719 159.328C351.719 158.912 351.803 158.556 351.971 158.26C352.147 157.956 352.379 157.724 352.667 157.564C352.963 157.396 353.291 157.312 353.651 157.312C354.011 157.312 354.335 157.396 354.623 157.564C354.911 157.724 355.139 157.956 355.307 158.26C355.475 158.556 355.559 158.912 355.559 159.328C355.559 159.736 355.475 160.092 355.307 160.396C355.139 160.7 354.907 160.936 354.611 161.104C354.323 161.264 353.999 161.344 353.639 161.344ZM353.639 160.564C353.831 160.564 354.007 160.52 354.167 160.432C354.327 160.336 354.455 160.196 354.551 160.012C354.647 159.828 354.695 159.6 354.695 159.328C354.695 159.048 354.647 158.816 354.551 158.632C354.455 158.44 354.327 158.3 354.167 158.212C354.007 158.116 353.835 158.068 353.651 158.068C353.467 158.068 353.291 158.116 353.123 158.212C352.955 158.3 352.819 158.44 352.715 158.632C352.619 158.816 352.571 159.048 352.571 159.328C352.571 159.6 352.619 159.828 352.715 160.012C352.819 160.196 352.951 160.336 353.111 160.432C353.279 160.52 353.455 160.564 353.639 160.564Z" fill="#ACADAE"/>
<rect x="209" y="189.844" width="39" height="16" rx="5" fill="white" fill-opacity="0.05"/>
<path d="M217.636 201.988C217.108 201.988 216.656 201.888 216.28 201.688C215.904 201.48 215.604 201.204 215.38 200.86C215.164 200.508 215.032 200.124 214.984 199.708H215.92C216 200.156 216.192 200.504 216.496 200.752C216.8 200.992 217.184 201.112 217.648 201.112C218.072 201.112 218.448 200.984 218.776 200.728C219.104 200.472 219.368 200.084 219.568 199.564C219.776 199.036 219.892 198.368 219.916 197.56C219.916 197.536 219.916 197.512 219.916 197.488C219.916 197.464 219.916 197.44 219.916 197.416C219.796 197.664 219.62 197.896 219.388 198.112C219.156 198.328 218.88 198.5 218.56 198.628C218.248 198.756 217.896 198.82 217.504 198.82C217.032 198.82 216.584 198.708 216.16 198.484C215.744 198.26 215.404 197.948 215.14 197.548C214.884 197.14 214.756 196.664 214.756 196.12C214.756 195.648 214.872 195.196 215.104 194.764C215.336 194.332 215.668 193.98 216.1 193.708C216.532 193.436 217.044 193.3 217.636 193.3C218.236 193.3 218.744 193.416 219.16 193.648C219.576 193.872 219.908 194.176 220.156 194.56C220.412 194.936 220.596 195.364 220.708 195.844C220.82 196.324 220.876 196.812 220.876 197.308C220.876 198.228 220.748 199.04 220.492 199.744C220.244 200.448 219.876 201 219.388 201.4C218.908 201.792 218.324 201.988 217.636 201.988ZM217.708 197.944C218.076 197.944 218.408 197.86 218.704 197.692C219 197.524 219.232 197.296 219.4 197.008C219.576 196.72 219.664 196.404 219.664 196.06C219.664 195.692 219.576 195.368 219.4 195.088C219.232 194.808 219 194.588 218.704 194.428C218.408 194.268 218.076 194.188 217.708 194.188C217.34 194.188 217.008 194.272 216.712 194.44C216.424 194.6 216.196 194.82 216.028 195.1C215.86 195.38 215.776 195.704 215.776 196.072C215.776 196.448 215.86 196.776 216.028 197.056C216.196 197.336 216.424 197.556 216.712 197.716C217.008 197.868 217.34 197.944 217.708 197.944ZM226.479 201.844V200.044H222.219V199.264L226.299 193.444H227.475V199.156H228.723V200.044H227.475V201.844H226.479ZM223.335 199.156H226.527V194.56L223.335 199.156ZM234.472 201.844L239.356 193.444H240.364L235.48 201.844H234.472ZM239.764 201.988C239.404 201.988 239.08 201.908 238.792 201.748C238.504 201.58 238.272 201.344 238.096 201.04C237.928 200.736 237.844 200.38 237.844 199.972C237.844 199.556 237.928 199.2 238.096 198.904C238.272 198.6 238.504 198.368 238.792 198.208C239.08 198.04 239.404 197.956 239.764 197.956C240.132 197.956 240.456 198.04 240.736 198.208C241.024 198.368 241.252 198.6 241.42 198.904C241.588 199.2 241.672 199.556 241.672 199.972C241.672 200.38 241.588 200.736 241.42 201.04C241.252 201.344 241.024 201.58 240.736 201.748C240.448 201.908 240.124 201.988 239.764 201.988ZM239.752 201.208C239.944 201.208 240.12 201.164 240.28 201.076C240.44 200.98 240.568 200.84 240.664 200.656C240.768 200.472 240.82 200.244 240.82 199.972C240.82 199.692 240.772 199.46 240.676 199.276C240.58 199.092 240.452 198.956 240.292 198.868C240.132 198.772 239.956 198.724 239.764 198.724C239.58 198.724 239.404 198.772 239.236 198.868C239.076 198.956 238.944 199.092 238.84 199.276C238.744 199.46 238.696 199.692 238.696 199.972C238.696 200.244 238.744 200.472 238.84 200.656C238.944 200.84 239.076 200.98 239.236 201.076C239.396 201.164 239.568 201.208 239.752 201.208ZM235.144 197.344C234.784 197.344 234.46 197.264 234.172 197.104C233.884 196.936 233.652 196.7 233.476 196.396C233.308 196.092 233.224 195.736 233.224 195.328C233.224 194.912 233.308 194.556 233.476 194.26C233.652 193.956 233.884 193.724 234.172 193.564C234.468 193.396 234.796 193.312 235.156 193.312C235.516 193.312 235.84 193.396 236.128 193.564C236.416 193.724 236.644 193.956 236.812 194.26C236.98 194.556 237.064 194.912 237.064 195.328C237.064 195.736 236.98 196.092 236.812 196.396C236.644 196.7 236.412 196.936 236.116 197.104C235.828 197.264 235.504 197.344 235.144 197.344ZM235.144 196.564C235.336 196.564 235.512 196.52 235.672 196.432C235.832 196.336 235.96 196.196 236.056 196.012C236.152 195.828 236.2 195.6 236.2 195.328C236.2 195.048 236.152 194.816 236.056 194.632C235.96 194.44 235.832 194.3 235.672 194.212C235.512 194.116 235.34 194.068 235.156 194.068C234.972 194.068 234.796 194.116 234.628 194.212C234.46 194.3 234.324 194.44 234.22 194.632C234.124 194.816 234.076 195.048 234.076 195.328C234.076 195.6 234.124 195.828 234.22 196.012C234.324 196.196 234.456 196.336 234.616 196.432C234.784 196.52 234.96 196.564 235.144 196.564Z" fill="#ACADAE"/>
<rect x="90" y="184" width="28" height="6" rx="2" fill="#5D97A6"/>
<path d="M129.01 190.12C128.497 190.12 128.05 190.027 127.67 189.84C127.29 189.653 126.997 189.393 126.79 189.06C126.583 188.727 126.48 188.34 126.48 187.9H127.36C127.36 188.173 127.423 188.427 127.55 188.66C127.677 188.887 127.86 189.07 128.1 189.21C128.347 189.343 128.65 189.41 129.01 189.41C129.323 189.41 129.59 189.36 129.81 189.26C130.037 189.153 130.207 189.01 130.32 188.83C130.44 188.65 130.5 188.447 130.5 188.22C130.5 187.967 130.443 187.757 130.33 187.59C130.223 187.417 130.073 187.277 129.88 187.17C129.687 187.057 129.463 186.957 129.21 186.87C128.957 186.783 128.683 186.693 128.39 186.6C127.803 186.413 127.377 186.18 127.11 185.9C126.85 185.613 126.72 185.247 126.72 184.8C126.72 184.42 126.807 184.087 126.98 183.8C127.16 183.513 127.413 183.29 127.74 183.13C128.073 182.963 128.467 182.88 128.92 182.88C129.367 182.88 129.753 182.963 130.08 183.13C130.413 183.297 130.673 183.527 130.86 183.82C131.047 184.107 131.14 184.44 131.14 184.82H130.26C130.26 184.627 130.21 184.437 130.11 184.25C130.01 184.063 129.857 183.91 129.65 183.79C129.45 183.663 129.197 183.6 128.89 183.6C128.637 183.593 128.41 183.637 128.21 183.73C128.017 183.817 127.863 183.943 127.75 184.11C127.643 184.277 127.59 184.48 127.59 184.72C127.59 184.947 127.637 185.13 127.73 185.27C127.83 185.41 127.97 185.53 128.15 185.63C128.337 185.723 128.553 185.81 128.8 185.89C129.047 185.97 129.32 186.06 129.62 186.16C129.96 186.273 130.26 186.413 130.52 186.58C130.787 186.74 130.993 186.947 131.14 187.2C131.293 187.453 131.37 187.777 131.37 188.17C131.37 188.503 131.28 188.82 131.1 189.12C130.927 189.413 130.667 189.653 130.32 189.84C129.973 190.027 129.537 190.12 129.01 190.12ZM134.659 190.12C134.273 190.12 133.936 190.047 133.649 189.9C133.363 189.753 133.139 189.53 132.979 189.23C132.819 188.923 132.739 188.543 132.739 188.09V184.74H133.579V188C133.579 188.467 133.693 188.817 133.919 189.05C134.153 189.283 134.463 189.4 134.849 189.4C135.116 189.4 135.356 189.34 135.569 189.22C135.783 189.093 135.953 188.91 136.079 188.67C136.213 188.43 136.279 188.137 136.279 187.79V184.74H137.119V190H136.359L136.309 189.16C136.169 189.467 135.953 189.703 135.659 189.87C135.373 190.037 135.039 190.12 134.659 190.12ZM141.011 190.12C140.531 190.12 140.104 190.007 139.731 189.78C139.358 189.547 139.064 189.223 138.851 188.81C138.638 188.397 138.531 187.917 138.531 187.37C138.531 186.817 138.638 186.337 138.851 185.93C139.064 185.517 139.358 185.197 139.731 184.97C140.104 184.737 140.531 184.62 141.011 184.62C141.611 184.62 142.111 184.78 142.511 185.1C142.918 185.42 143.178 185.85 143.291 186.39H142.431C142.358 186.057 142.188 185.8 141.921 185.62C141.661 185.433 141.354 185.34 141.001 185.34C140.694 185.34 140.418 185.417 140.171 185.57C139.931 185.723 139.741 185.95 139.601 186.25C139.461 186.55 139.391 186.923 139.391 187.37C139.391 187.703 139.431 188 139.511 188.26C139.591 188.513 139.701 188.727 139.841 188.9C139.988 189.067 140.158 189.193 140.351 189.28C140.551 189.367 140.768 189.41 141.001 189.41C141.241 189.41 141.458 189.37 141.651 189.29C141.851 189.203 142.018 189.08 142.151 188.92C142.291 188.76 142.384 188.57 142.431 188.35H143.291C143.184 188.877 142.924 189.303 142.511 189.63C142.104 189.957 141.604 190.12 141.011 190.12ZM146.982 190.12C146.502 190.12 146.076 190.007 145.702 189.78C145.329 189.547 145.036 189.223 144.822 188.81C144.609 188.397 144.502 187.917 144.502 187.37C144.502 186.817 144.609 186.337 144.822 185.93C145.036 185.517 145.329 185.197 145.702 184.97C146.076 184.737 146.502 184.62 146.982 184.62C147.582 184.62 148.082 184.78 148.482 185.1C148.889 185.42 149.149 185.85 149.262 186.39H148.402C148.329 186.057 148.159 185.8 147.892 185.62C147.632 185.433 147.326 185.34 146.972 185.34C146.666 185.34 146.389 185.417 146.142 185.57C145.902 185.723 145.712 185.95 145.572 186.25C145.432 186.55 145.362 186.923 145.362 187.37C145.362 187.703 145.402 188 145.482 188.26C145.562 188.513 145.672 188.727 145.812 188.9C145.959 189.067 146.129 189.193 146.322 189.28C146.522 189.367 146.739 189.41 146.972 189.41C147.212 189.41 147.429 189.37 147.622 189.29C147.822 189.203 147.989 189.08 148.122 188.92C148.262 188.76 148.356 188.57 148.402 188.35H149.262C149.156 188.877 148.896 189.303 148.482 189.63C148.076 189.957 147.576 190.12 146.982 190.12ZM152.864 190.12C152.397 190.12 151.984 190.007 151.624 189.78C151.264 189.553 150.98 189.233 150.774 188.82C150.574 188.407 150.474 187.923 150.474 187.37C150.474 186.817 150.574 186.333 150.774 185.92C150.98 185.507 151.264 185.187 151.624 184.96C151.99 184.733 152.41 184.62 152.884 184.62C153.39 184.62 153.814 184.733 154.154 184.96C154.494 185.187 154.75 185.49 154.924 185.87C155.097 186.25 155.184 186.667 155.184 187.12C155.184 187.187 155.184 187.253 155.184 187.32C155.184 187.387 155.18 187.467 155.174 187.56H151.104V186.91H154.364C154.35 186.397 154.2 186.007 153.914 185.74C153.634 185.467 153.284 185.33 152.864 185.33C152.584 185.33 152.324 185.4 152.084 185.54C151.85 185.673 151.66 185.873 151.514 186.14C151.367 186.407 151.294 186.74 151.294 187.14V187.42C151.294 187.86 151.367 188.23 151.514 188.53C151.66 188.823 151.85 189.043 152.084 189.19C152.324 189.337 152.584 189.41 152.864 189.41C153.237 189.41 153.53 189.34 153.744 189.2C153.957 189.053 154.114 188.847 154.214 188.58H155.044C154.964 188.873 154.824 189.137 154.624 189.37C154.43 189.603 154.184 189.787 153.884 189.92C153.59 190.053 153.25 190.12 152.864 190.12ZM158.448 190.12C157.975 190.12 157.581 190.05 157.268 189.91C156.961 189.763 156.728 189.563 156.568 189.31C156.408 189.05 156.311 188.75 156.278 188.41H157.138C157.165 188.59 157.225 188.757 157.318 188.91C157.418 189.057 157.561 189.177 157.748 189.27C157.935 189.363 158.171 189.41 158.458 189.41C158.685 189.41 158.878 189.377 159.038 189.31C159.198 189.237 159.318 189.137 159.398 189.01C159.485 188.883 159.528 188.737 159.528 188.57C159.528 188.35 159.478 188.18 159.378 188.06C159.285 187.933 159.145 187.84 158.958 187.78C158.778 187.713 158.551 187.663 158.278 187.63C157.985 187.59 157.725 187.533 157.498 187.46C157.271 187.387 157.078 187.29 156.918 187.17C156.765 187.05 156.648 186.9 156.568 186.72C156.488 186.54 156.448 186.327 156.448 186.08C156.448 185.793 156.525 185.54 156.678 185.32C156.831 185.1 157.048 184.93 157.328 184.81C157.615 184.683 157.951 184.62 158.338 184.62C158.905 184.62 159.351 184.75 159.678 185.01C160.011 185.27 160.208 185.64 160.268 186.12H159.438C159.405 185.873 159.291 185.68 159.098 185.54C158.905 185.4 158.648 185.33 158.328 185.33C157.988 185.33 157.731 185.393 157.558 185.52C157.385 185.647 157.298 185.813 157.298 186.02C157.298 186.173 157.335 186.313 157.408 186.44C157.488 186.56 157.621 186.663 157.808 186.75C157.995 186.83 158.245 186.89 158.558 186.93C158.951 186.977 159.285 187.053 159.558 187.16C159.831 187.26 160.038 187.417 160.178 187.63C160.325 187.843 160.395 188.133 160.388 188.5C160.388 188.847 160.305 189.14 160.138 189.38C159.978 189.62 159.751 189.803 159.458 189.93C159.171 190.057 158.835 190.12 158.448 190.12ZM162.166 190V184.18C162.166 183.86 162.219 183.6 162.326 183.4C162.432 183.193 162.589 183.043 162.796 182.95C163.009 182.85 163.269 182.8 163.576 182.8H164.346V183.52H163.716C163.462 183.52 163.279 183.573 163.166 183.68C163.059 183.78 163.006 183.957 163.006 184.21V190H162.166ZM161.346 185.45V184.74H164.406V185.45H161.346ZM167.539 190.12C167.152 190.12 166.816 190.047 166.529 189.9C166.242 189.753 166.019 189.53 165.859 189.23C165.699 188.923 165.619 188.543 165.619 188.09V184.74H166.459V188C166.459 188.467 166.572 188.817 166.799 189.05C167.032 189.283 167.342 189.4 167.729 189.4C167.996 189.4 168.236 189.34 168.449 189.22C168.662 189.093 168.832 188.91 168.959 188.67C169.092 188.43 169.159 188.137 169.159 187.79V184.74H169.999V190H169.239L169.189 189.16C169.049 189.467 168.832 189.703 168.539 189.87C168.252 190.037 167.919 190.12 167.539 190.12ZM171.621 190V182.8H172.461V190H171.621Z" fill="white"/>
<path d="M126.77 216V209H131.03V209.69H127.61V212.15H130.52V212.83H127.61V216H126.77ZM133.599 216.12C133.199 216.12 132.865 216.047 132.599 215.9C132.332 215.747 132.132 215.547 131.999 215.3C131.865 215.047 131.799 214.777 131.799 214.49C131.799 214.143 131.885 213.85 132.059 213.61C132.239 213.363 132.489 213.177 132.809 213.05C133.129 212.923 133.502 212.86 133.929 212.86H135.239C135.239 212.52 135.199 212.237 135.119 212.01C135.039 211.783 134.909 211.613 134.729 211.5C134.549 211.387 134.309 211.33 134.009 211.33C133.709 211.33 133.452 211.407 133.239 211.56C133.025 211.707 132.892 211.927 132.839 212.22H131.979C132.019 211.873 132.135 211.583 132.329 211.35C132.522 211.11 132.765 210.93 133.059 210.81C133.359 210.683 133.675 210.62 134.009 210.62C134.482 210.62 134.872 210.707 135.179 210.88C135.485 211.047 135.712 211.283 135.859 211.59C136.005 211.89 136.079 212.247 136.079 212.66V216H135.329L135.279 215.1C135.212 215.24 135.125 215.373 135.019 215.5C134.919 215.62 134.799 215.727 134.659 215.82C134.519 215.913 134.359 215.987 134.179 216.04C134.005 216.093 133.812 216.12 133.599 216.12ZM133.719 215.41C133.939 215.41 134.142 215.36 134.329 215.26C134.515 215.16 134.675 215.027 134.809 214.86C134.949 214.687 135.055 214.493 135.129 214.28C135.202 214.067 135.239 213.843 135.239 213.61V213.51H133.999C133.685 213.51 133.429 213.55 133.229 213.63C133.035 213.71 132.895 213.823 132.809 213.97C132.722 214.11 132.679 214.27 132.679 214.45C132.679 214.643 132.719 214.813 132.799 214.96C132.879 215.1 132.995 215.21 133.149 215.29C133.309 215.37 133.499 215.41 133.719 215.41ZM137.747 216V210.74H138.587V216H137.747ZM138.167 209.74C138 209.74 137.86 209.687 137.747 209.58C137.64 209.467 137.587 209.327 137.587 209.16C137.587 208.993 137.64 208.86 137.747 208.76C137.86 208.653 138 208.6 138.167 208.6C138.327 208.6 138.463 208.653 138.577 208.76C138.69 208.86 138.747 208.993 138.747 209.16C138.747 209.327 138.69 209.467 138.577 209.58C138.463 209.687 138.327 209.74 138.167 209.74ZM140.279 216V208.8H141.119V216H140.279ZM144.915 216.12C144.448 216.12 144.035 216.007 143.675 215.78C143.315 215.553 143.031 215.233 142.825 214.82C142.625 214.407 142.525 213.923 142.525 213.37C142.525 212.817 142.625 212.333 142.825 211.92C143.031 211.507 143.315 211.187 143.675 210.96C144.041 210.733 144.461 210.62 144.935 210.62C145.441 210.62 145.865 210.733 146.205 210.96C146.545 211.187 146.801 211.49 146.975 211.87C147.148 212.25 147.235 212.667 147.235 213.12C147.235 213.187 147.235 213.253 147.235 213.32C147.235 213.387 147.231 213.467 147.225 213.56H143.155V212.91H146.415C146.401 212.397 146.251 212.007 145.965 211.74C145.685 211.467 145.335 211.33 144.915 211.33C144.635 211.33 144.375 211.4 144.135 211.54C143.901 211.673 143.711 211.873 143.565 212.14C143.418 212.407 143.345 212.74 143.345 213.14V213.42C143.345 213.86 143.418 214.23 143.565 214.53C143.711 214.823 143.901 215.043 144.135 215.19C144.375 215.337 144.635 215.41 144.915 215.41C145.288 215.41 145.581 215.34 145.795 215.2C146.008 215.053 146.165 214.847 146.265 214.58H147.095C147.015 214.873 146.875 215.137 146.675 215.37C146.481 215.603 146.235 215.787 145.935 215.92C145.641 216.053 145.301 216.12 144.915 216.12ZM150.769 216.12C150.302 216.12 149.889 216 149.529 215.76C149.169 215.52 148.889 215.193 148.689 214.78C148.489 214.36 148.389 213.887 148.389 213.36C148.389 212.827 148.489 212.357 148.689 211.95C148.889 211.537 149.169 211.213 149.529 210.98C149.889 210.74 150.305 210.62 150.779 210.62C151.192 210.62 151.545 210.703 151.839 210.87C152.139 211.037 152.375 211.27 152.549 211.57V208.8H153.389V216H152.629L152.559 215.16C152.459 215.327 152.325 215.483 152.159 215.63C151.999 215.777 151.802 215.897 151.569 215.99C151.342 216.077 151.075 216.12 150.769 216.12ZM150.879 215.39C151.212 215.39 151.502 215.31 151.749 215.15C151.995 214.983 152.185 214.75 152.319 214.45C152.452 214.143 152.519 213.783 152.519 213.37C152.519 212.957 152.452 212.6 152.319 212.3C152.185 211.993 151.995 211.76 151.749 211.6C151.502 211.433 151.212 211.35 150.879 211.35C150.565 211.35 150.285 211.433 150.039 211.6C149.792 211.76 149.599 211.993 149.459 212.3C149.319 212.6 149.249 212.957 149.249 213.37C149.249 213.783 149.319 214.143 149.459 214.45C149.599 214.75 149.792 214.983 150.039 215.15C150.285 215.31 150.565 215.39 150.879 215.39Z" fill="white"/>
<rect x="90" y="210" width="28" height="6" rx="2" fill="#AB63A5"/>
</g>
<g filter="url(#filter6_d_2375_58812)">
<g filter="url(#filter7_d_2375_58812)">
<rect x="45.5" y="75.5" width="350" height="187" rx="9.5" fill="#111214" stroke="url(#paint8_linear_2375_58812)"/>
</g>
<line x1="45.9971" y1="95.4961" x2="395.003" y2="95.4961" stroke="url(#paint9_linear_2375_58812)"/>
<g clip-path="url(#clip2_2375_58812)">
<path d="M62.795 84.9755C62.7813 84.8251 62.7585 84.6525 62.7129 84.4602C62.6674 84.2703 62.599 84.0607 62.4987 83.8437C62.3984 83.6268 62.2685 83.4024 62.0998 83.1829C62.0337 83.0966 61.9608 83.0128 61.8833 82.9314C61.9995 82.4309 61.742 81.9969 61.742 81.9969C61.2976 81.9673 61.0149 82.1473 60.9101 82.2287C60.8919 82.2213 60.8759 82.2114 60.8577 82.204C60.7825 82.172 60.705 82.1399 60.6229 82.1128C60.5431 82.0857 60.4611 82.061 60.3768 82.0388C60.2924 82.0166 60.2081 81.9994 60.1215 81.9846C60.1055 81.9821 60.0919 81.9796 60.0759 81.9772C59.8822 81.3065 59.326 81.0254 59.326 81.0254C58.7038 81.452 58.5876 82.0487 58.5876 82.0487C58.5876 82.0487 58.5853 82.061 58.5807 82.0832C58.5466 82.0931 58.5124 82.1054 58.4782 82.1153C58.4303 82.13 58.3825 82.1498 58.3369 82.1695C58.289 82.1892 58.2434 82.209 58.1956 82.2311C58.1021 82.2755 58.0087 82.3248 57.9175 82.3791C57.8286 82.4333 57.742 82.4925 57.6577 82.5542C57.6463 82.5492 57.6349 82.5443 57.6349 82.5443C56.7733 82.1892 56.0098 82.6158 56.0098 82.6158C55.9391 83.607 56.354 84.2309 56.436 84.3443C56.4155 84.4059 56.3973 84.4676 56.379 84.5292C56.3152 84.7536 56.2674 84.9829 56.2377 85.2221C56.2332 85.2566 56.2286 85.2911 56.2263 85.3257C55.4286 85.7522 55.1938 86.6227 55.1938 86.6227C55.8571 87.4487 56.632 87.5005 56.632 87.5005L56.6343 87.498C56.7323 87.6879 56.8463 87.8679 56.9739 88.038C57.0286 88.1095 57.0833 88.1761 57.1426 88.2427C56.901 88.9922 57.1768 89.6136 57.1768 89.6136C57.9152 89.6432 58.4007 89.2635 58.5032 89.1772C58.5762 89.2043 58.6514 89.229 58.7266 89.2487C58.9545 89.3128 59.187 89.3498 59.4195 89.3596C59.4765 89.3621 59.5357 89.3646 59.5927 89.3621H59.6201H59.6383H59.6748L59.7112 89.3596V89.3621C60.0599 89.8996 60.6708 89.9761 60.6708 89.9761C61.1061 89.4805 61.1312 88.9873 61.1312 88.8813C61.1312 88.8813 61.1312 88.8788 61.1312 88.8739C61.1312 88.864 61.1312 88.8591 61.1312 88.8591C61.1312 88.8517 61.1312 88.8443 61.1312 88.8369C61.2223 88.7679 61.3089 88.6939 61.391 88.6125C61.5642 88.4424 61.7169 88.2476 61.8446 88.038C61.856 88.0183 61.8674 87.9985 61.8787 87.9788C62.3711 88.0084 62.7198 87.6484 62.7198 87.6484C62.6377 87.0936 62.346 86.8224 62.2844 86.7706C62.2844 86.7706 62.2822 86.7681 62.2776 86.7657C62.273 86.7632 62.273 86.7607 62.273 86.7607C62.2708 86.7583 62.2662 86.7558 62.2617 86.7533C62.2639 86.7188 62.2662 86.6868 62.2685 86.6522C62.273 86.5931 62.273 86.5314 62.273 86.4722V86.4279V86.4057V86.3933C62.273 86.3785 62.273 86.3835 62.273 86.3785L62.2708 86.3416L62.2685 86.2922C62.2685 86.275 62.2662 86.2602 62.2639 86.2454C62.2617 86.2306 62.2617 86.2133 62.2594 86.1985L62.2548 86.1517L62.248 86.1048C62.2389 86.0432 62.2297 85.984 62.2161 85.9224C62.1636 85.6832 62.077 85.4563 61.9654 85.2517C61.8514 85.047 61.7101 84.867 61.5483 84.7142C61.3887 84.5613 61.2087 84.438 61.0218 84.3468C60.8326 84.2555 60.6366 84.1963 60.4406 84.1692C60.3426 84.1544 60.2446 84.1495 60.1466 84.152H60.1101H60.101C60.0987 84.152 60.0873 84.152 60.0896 84.152H60.0736L60.0372 84.1544C60.0235 84.1544 60.0098 84.1569 59.9984 84.1569C59.9483 84.1618 59.8981 84.1692 59.8503 84.1791C59.6542 84.2185 59.4696 84.295 59.3078 84.401C59.146 84.507 59.0047 84.6377 58.8907 84.7857C58.7768 84.9336 58.6879 85.0988 58.6263 85.269C58.5648 85.4391 58.5306 85.6166 58.5215 85.7868C58.5192 85.8287 58.5192 85.8731 58.5192 85.915C58.5192 85.9248 58.5192 85.9372 58.5192 85.947L58.5215 85.9816C58.5238 86.0013 58.5238 86.0235 58.526 86.0432C58.5329 86.1295 58.5488 86.2133 58.5693 86.2922C58.6127 86.4525 58.681 86.598 58.7654 86.7213C58.8497 86.8446 58.9523 86.9457 59.0594 87.027C59.1665 87.1059 59.2827 87.1627 59.3967 87.1996C59.5107 87.2366 59.6246 87.2514 59.7317 87.2514C59.7454 87.2514 59.7591 87.2514 59.7705 87.2514C59.7773 87.2514 59.7842 87.2514 59.791 87.2514C59.7978 87.2514 59.8047 87.2514 59.8115 87.249C59.8229 87.249 59.8343 87.2465 59.8457 87.2465C59.848 87.2465 59.8525 87.2465 59.8548 87.244L59.8662 87.2416C59.873 87.2416 59.8799 87.2391 59.8867 87.2391C59.9004 87.2366 59.9118 87.2342 59.9255 87.2317C59.9391 87.2292 59.9505 87.2268 59.9619 87.2218C59.987 87.2169 60.0098 87.207 60.0326 87.1996C60.0782 87.1824 60.1238 87.1627 60.1625 87.1405C60.2035 87.1183 60.24 87.0911 60.2765 87.0665C60.2856 87.0591 60.297 87.0517 60.3061 87.0418C60.3426 87.0098 60.3494 86.9506 60.3198 86.9111C60.2947 86.8766 60.2491 86.8668 60.2127 86.889C60.2035 86.8939 60.1944 86.8988 60.1853 86.9037C60.1534 86.921 60.1215 86.9358 60.0873 86.9481C60.0531 86.9605 60.0166 86.9703 59.9802 86.9777C59.9619 86.9802 59.9437 86.9827 59.9232 86.9851C59.9141 86.9851 59.905 86.9876 59.8936 86.9876C59.8844 86.9876 59.873 86.9876 59.8662 86.9876C59.8571 86.9876 59.848 86.9876 59.8389 86.9876C59.8275 86.9876 59.8161 86.9876 59.8047 86.9851C59.8047 86.9851 59.7978 86.9851 59.8024 86.9851H59.7978H59.791C59.7864 86.9851 59.7796 86.9851 59.775 86.9827C59.7636 86.9802 59.7545 86.9802 59.7431 86.9777C59.6588 86.9654 59.5745 86.9383 59.4947 86.8988C59.4127 86.8594 59.3352 86.8051 59.2645 86.7361C59.1938 86.667 59.1323 86.5857 59.0844 86.492C59.0366 86.3983 59.0024 86.2947 58.9864 86.1862C58.9796 86.132 58.975 86.0753 58.9773 86.021C58.9773 86.0062 58.9796 85.9914 58.9796 85.9766C58.9796 85.9816 58.9796 85.9742 58.9796 85.9742V85.9692V85.9569C58.9796 85.9495 58.9819 85.9421 58.9819 85.9347C58.9842 85.9051 58.9887 85.8755 58.9933 85.8459C59.032 85.6092 59.1414 85.3774 59.3101 85.2024C59.3534 85.158 59.399 85.1185 59.4468 85.0816C59.4947 85.0446 59.5471 85.0125 59.6018 84.9854C59.6565 84.9583 59.7112 84.9361 59.7705 84.9188C59.8275 84.9016 59.8867 84.8917 59.9483 84.8843C59.9779 84.8818 60.0075 84.8794 60.0394 84.8794C60.0485 84.8794 60.0531 84.8794 60.0599 84.8794H60.085H60.101C60.1078 84.8794 60.101 84.8794 60.1032 84.8794H60.1101L60.1352 84.8818C60.2013 84.8868 60.2651 84.8966 60.3289 84.9139C60.4565 84.9435 60.5819 84.9953 60.6981 85.0643C60.9306 85.2048 61.1289 85.4218 61.2497 85.6832C61.3112 85.8139 61.3545 85.9544 61.375 86.0999C61.3796 86.1369 61.3842 86.1739 61.3864 86.2109L61.3887 86.238L61.391 86.2651C61.391 86.275 61.391 86.2848 61.391 86.2922C61.391 86.3021 61.391 86.312 61.391 86.3194V86.344V86.3711C61.391 86.3884 61.3887 86.418 61.3887 86.4353C61.3864 86.4747 61.3819 86.5166 61.3773 86.5561C61.3728 86.5955 61.3659 86.635 61.3591 86.6744C61.3523 86.7139 61.3431 86.7533 61.334 86.7903C61.3158 86.8668 61.293 86.9432 61.2656 87.0196C61.2109 87.1676 61.138 87.3106 61.0514 87.4413C60.8759 87.7027 60.6366 87.9147 60.3631 88.0503C60.2263 88.1169 60.0827 88.1662 59.9346 88.1909C59.8617 88.2057 59.7864 88.2131 59.7112 88.2155H59.6976H59.6862H59.6611H59.6246H59.6064C59.6155 88.2155 59.6041 88.2155 59.6041 88.2155H59.5973C59.5562 88.2155 59.5175 88.2131 59.4765 88.2081C59.3169 88.1958 59.1597 88.1637 59.0047 88.1169C58.852 88.07 58.7038 88.0035 58.5625 87.9246C58.2822 87.7618 58.0292 87.5399 57.8332 87.2711C57.7352 87.138 57.6485 86.9925 57.5779 86.8421C57.5072 86.6917 57.4503 86.5314 57.4092 86.3711C57.3682 86.2084 57.3431 86.0432 57.3317 85.8755L57.3295 85.8435V85.8361V85.8287V85.8139V85.7868V85.7794V85.7695V85.7498V85.7103V85.7029C57.3295 85.7029 57.3295 85.7054 57.3295 85.7005V85.6857C57.3295 85.6659 57.3295 85.6437 57.3295 85.624C57.3317 85.5427 57.3386 85.4563 57.3477 85.3725C57.3568 85.2887 57.3705 85.2024 57.3864 85.1185C57.4024 85.0347 57.4206 84.9509 57.4434 84.867C57.4867 84.7018 57.5414 84.5416 57.6052 84.3911C57.7352 84.0903 57.9038 83.8216 58.1067 83.607C58.1568 83.5528 58.2092 83.5035 58.2639 83.4542C58.3186 83.4073 58.3756 83.3629 58.4349 83.321C58.4919 83.2791 58.5534 83.2421 58.6149 83.2076C58.6446 83.1903 58.6765 83.1731 58.7084 83.1583C58.7243 83.1509 58.7403 83.1435 58.7562 83.1361C58.7722 83.1287 58.7881 83.1213 58.8041 83.1139C58.8679 83.0843 58.934 83.0596 59.0024 83.0374C59.0183 83.0325 59.0366 83.0276 59.0525 83.0202C59.0685 83.0153 59.0867 83.0103 59.1027 83.0054C59.1369 82.9955 59.1711 82.9857 59.2052 82.9783C59.2212 82.9733 59.2394 82.9709 59.2577 82.9659C59.2759 82.961 59.2919 82.9585 59.3101 82.9536C59.3283 82.9511 59.3443 82.9462 59.3625 82.9437L59.3876 82.9388L59.4149 82.9339C59.4332 82.9314 59.4491 82.929 59.4674 82.9265C59.4879 82.924 59.5061 82.9216 59.5266 82.9191C59.5426 82.9166 59.5699 82.9142 59.5859 82.9117C59.5973 82.9092 59.6109 82.9092 59.6223 82.9068L59.6474 82.9043L59.6588 82.9018H59.6725C59.693 82.8994 59.7112 82.8994 59.7317 82.8969L59.7614 82.8944C59.7614 82.8944 59.7728 82.8944 59.7636 82.8944H59.7705H59.7842C59.8001 82.8944 59.8183 82.892 59.8343 82.892C59.9004 82.8895 59.9688 82.8895 60.0349 82.892C60.1671 82.8969 60.297 82.9142 60.4223 82.9388C60.6753 82.9906 60.9124 83.0769 61.1289 83.1928C61.3454 83.3062 61.5369 83.4468 61.7055 83.5996C61.7169 83.6095 61.726 83.6194 61.7374 83.6292C61.7466 83.6391 61.7579 83.649 61.7671 83.6588C61.7876 83.6785 61.8058 83.6983 61.8263 83.718C61.8468 83.7377 61.8651 83.7574 61.8833 83.7772C61.9015 83.7969 61.9198 83.8166 61.938 83.8388C62.0087 83.9202 62.0748 84.0016 62.134 84.0854C62.2525 84.2506 62.3483 84.4183 62.4235 84.5761C62.428 84.5859 62.4326 84.5958 62.4372 84.6057C62.4417 84.6155 62.4463 84.6254 62.4508 84.6353C62.4599 84.655 62.4691 84.6747 62.4759 84.6944C62.485 84.7142 62.4919 84.7314 62.501 84.7511C62.5078 84.7709 62.5169 84.7881 62.5238 84.8079C62.5511 84.8818 62.5785 84.9533 62.599 85.0199C62.6332 85.1284 62.6582 85.2246 62.6787 85.3084C62.6856 85.3429 62.7152 85.3651 62.7471 85.3602C62.7813 85.3577 62.8064 85.3281 62.8064 85.2911C62.8087 85.2024 62.8064 85.0963 62.795 84.9755Z" fill="url(#paint10_linear_2375_58812)"/>
</g>
<rect x="55" y="106" width="331" height="147" rx="5" fill="#1D1F22"/>
<path d="M70 139.145L118.459 146.414L138.946 159.498L152.342 139.145L190.164 132.846L207.499 128L227.592 139.145L248.079 167.736L272.899 173.066L291.81 182.758L306.781 195.841L334.754 156.106L362.726 132.846H371V238H70V139.145Z" fill="#A1D2DF" fill-opacity="0.2" stroke="#5D97A6"/>
</g>
<g filter="url(#filter8_d_2375_58812)">
<rect x="25.5" y="55.5" width="350" height="187" rx="9.5" fill="#111214" stroke="url(#paint11_linear_2375_58812)"/>
<line x1="25.9971" y1="75.4961" x2="375.003" y2="75.4961" stroke="url(#paint12_linear_2375_58812)"/>
<g clip-path="url(#clip3_2375_58812)">
<path d="M42.795 64.9755C42.7813 64.8251 42.7585 64.6525 42.7129 64.4602C42.6674 64.2703 42.599 64.0607 42.4987 63.8437C42.3984 63.6268 42.2685 63.4024 42.0998 63.1829C42.0337 63.0966 41.9608 63.0128 41.8833 62.9314C41.9995 62.4309 41.742 61.9969 41.742 61.9969C41.2976 61.9673 41.0149 62.1473 40.9101 62.2287C40.8919 62.2213 40.8759 62.2114 40.8577 62.204C40.7825 62.172 40.705 62.1399 40.6229 62.1128C40.5431 62.0857 40.4611 62.061 40.3768 62.0388C40.2924 62.0166 40.2081 61.9994 40.1215 61.9846C40.1055 61.9821 40.0919 61.9796 40.0759 61.9772C39.8822 61.3065 39.326 61.0254 39.326 61.0254C38.7038 61.452 38.5876 62.0487 38.5876 62.0487C38.5876 62.0487 38.5853 62.061 38.5807 62.0832C38.5466 62.0931 38.5124 62.1054 38.4782 62.1153C38.4303 62.13 38.3825 62.1498 38.3369 62.1695C38.289 62.1892 38.2434 62.209 38.1956 62.2311C38.1021 62.2755 38.0087 62.3248 37.9175 62.3791C37.8286 62.4333 37.742 62.4925 37.6577 62.5542C37.6463 62.5492 37.6349 62.5443 37.6349 62.5443C36.7733 62.1892 36.0098 62.6158 36.0098 62.6158C35.9391 63.607 36.354 64.2309 36.436 64.3443C36.4155 64.4059 36.3973 64.4676 36.379 64.5292C36.3152 64.7536 36.2674 64.9829 36.2377 65.2221C36.2332 65.2566 36.2286 65.2911 36.2263 65.3257C35.4286 65.7522 35.1938 66.6227 35.1938 66.6227C35.8571 67.4487 36.632 67.5005 36.632 67.5005L36.6343 67.498C36.7323 67.6879 36.8463 67.8679 36.9739 68.038C37.0286 68.1095 37.0833 68.1761 37.1426 68.2427C36.901 68.9922 37.1768 69.6136 37.1768 69.6136C37.9152 69.6432 38.4007 69.2635 38.5032 69.1772C38.5762 69.2043 38.6514 69.229 38.7266 69.2487C38.9545 69.3128 39.187 69.3498 39.4195 69.3596C39.4765 69.3621 39.5357 69.3646 39.5927 69.3621H39.6201H39.6383H39.6748L39.7112 69.3596V69.3621C40.0599 69.8996 40.6708 69.9761 40.6708 69.9761C41.1061 69.4805 41.1312 68.9873 41.1312 68.8813C41.1312 68.8813 41.1312 68.8788 41.1312 68.8739C41.1312 68.864 41.1312 68.8591 41.1312 68.8591C41.1312 68.8517 41.1312 68.8443 41.1312 68.8369C41.2223 68.7679 41.3089 68.6939 41.391 68.6125C41.5642 68.4424 41.7169 68.2476 41.8446 68.038C41.856 68.0183 41.8674 67.9985 41.8787 67.9788C42.3711 68.0084 42.7198 67.6484 42.7198 67.6484C42.6377 67.0936 42.346 66.8224 42.2844 66.7706C42.2844 66.7706 42.2822 66.7681 42.2776 66.7657C42.273 66.7632 42.273 66.7607 42.273 66.7607C42.2708 66.7583 42.2662 66.7558 42.2617 66.7533C42.2639 66.7188 42.2662 66.6868 42.2685 66.6522C42.273 66.5931 42.273 66.5314 42.273 66.4722V66.4279V66.4057V66.3933C42.273 66.3785 42.273 66.3835 42.273 66.3785L42.2708 66.3416L42.2685 66.2922C42.2685 66.275 42.2662 66.2602 42.2639 66.2454C42.2617 66.2306 42.2617 66.2133 42.2594 66.1985L42.2548 66.1517L42.248 66.1048C42.2389 66.0432 42.2297 65.984 42.2161 65.9224C42.1636 65.6832 42.077 65.4563 41.9654 65.2517C41.8514 65.047 41.7101 64.867 41.5483 64.7142C41.3887 64.5613 41.2087 64.438 41.0218 64.3468C40.8326 64.2555 40.6366 64.1963 40.4406 64.1692C40.3426 64.1544 40.2446 64.1495 40.1466 64.152H40.1101H40.101C40.0987 64.152 40.0873 64.152 40.0896 64.152H40.0736L40.0372 64.1544C40.0235 64.1544 40.0098 64.1569 39.9984 64.1569C39.9483 64.1618 39.8981 64.1692 39.8503 64.1791C39.6542 64.2185 39.4696 64.295 39.3078 64.401C39.146 64.507 39.0047 64.6377 38.8907 64.7857C38.7768 64.9336 38.6879 65.0988 38.6263 65.269C38.5648 65.4391 38.5306 65.6166 38.5215 65.7868C38.5192 65.8287 38.5192 65.8731 38.5192 65.915C38.5192 65.9248 38.5192 65.9372 38.5192 65.947L38.5215 65.9816C38.5238 66.0013 38.5238 66.0235 38.526 66.0432C38.5329 66.1295 38.5488 66.2133 38.5693 66.2922C38.6127 66.4525 38.681 66.598 38.7654 66.7213C38.8497 66.8446 38.9523 66.9457 39.0594 67.027C39.1665 67.1059 39.2827 67.1627 39.3967 67.1996C39.5107 67.2366 39.6246 67.2514 39.7317 67.2514C39.7454 67.2514 39.7591 67.2514 39.7705 67.2514C39.7773 67.2514 39.7842 67.2514 39.791 67.2514C39.7978 67.2514 39.8047 67.2514 39.8115 67.249C39.8229 67.249 39.8343 67.2465 39.8457 67.2465C39.848 67.2465 39.8525 67.2465 39.8548 67.244L39.8662 67.2416C39.873 67.2416 39.8799 67.2391 39.8867 67.2391C39.9004 67.2366 39.9118 67.2342 39.9255 67.2317C39.9391 67.2292 39.9505 67.2268 39.9619 67.2218C39.987 67.2169 40.0098 67.207 40.0326 67.1996C40.0782 67.1824 40.1238 67.1627 40.1625 67.1405C40.2035 67.1183 40.24 67.0911 40.2765 67.0665C40.2856 67.0591 40.297 67.0517 40.3061 67.0418C40.3426 67.0098 40.3494 66.9506 40.3198 66.9111C40.2947 66.8766 40.2491 66.8668 40.2127 66.889C40.2035 66.8939 40.1944 66.8988 40.1853 66.9037C40.1534 66.921 40.1215 66.9358 40.0873 66.9481C40.0531 66.9605 40.0166 66.9703 39.9802 66.9777C39.9619 66.9802 39.9437 66.9827 39.9232 66.9851C39.9141 66.9851 39.905 66.9876 39.8936 66.9876C39.8844 66.9876 39.873 66.9876 39.8662 66.9876C39.8571 66.9876 39.848 66.9876 39.8389 66.9876C39.8275 66.9876 39.8161 66.9876 39.8047 66.9851C39.8047 66.9851 39.7978 66.9851 39.8024 66.9851H39.7978H39.791C39.7864 66.9851 39.7796 66.9851 39.775 66.9827C39.7636 66.9802 39.7545 66.9802 39.7431 66.9777C39.6588 66.9654 39.5745 66.9383 39.4947 66.8988C39.4127 66.8594 39.3352 66.8051 39.2645 66.7361C39.1938 66.667 39.1323 66.5857 39.0844 66.492C39.0366 66.3983 39.0024 66.2947 38.9864 66.1862C38.9796 66.132 38.975 66.0753 38.9773 66.021C38.9773 66.0062 38.9796 65.9914 38.9796 65.9766C38.9796 65.9816 38.9796 65.9742 38.9796 65.9742V65.9692V65.9569C38.9796 65.9495 38.9819 65.9421 38.9819 65.9347C38.9842 65.9051 38.9887 65.8755 38.9933 65.8459C39.032 65.6092 39.1414 65.3774 39.3101 65.2024C39.3534 65.158 39.399 65.1185 39.4468 65.0816C39.4947 65.0446 39.5471 65.0125 39.6018 64.9854C39.6565 64.9583 39.7112 64.9361 39.7705 64.9188C39.8275 64.9016 39.8867 64.8917 39.9483 64.8843C39.9779 64.8818 40.0075 64.8794 40.0394 64.8794C40.0485 64.8794 40.0531 64.8794 40.0599 64.8794H40.085H40.101C40.1078 64.8794 40.101 64.8794 40.1032 64.8794H40.1101L40.1352 64.8818C40.2013 64.8868 40.2651 64.8966 40.3289 64.9139C40.4565 64.9435 40.5819 64.9953 40.6981 65.0643C40.9306 65.2048 41.1289 65.4218 41.2497 65.6832C41.3112 65.8139 41.3545 65.9544 41.375 66.0999C41.3796 66.1369 41.3842 66.1739 41.3864 66.2109L41.3887 66.238L41.391 66.2651C41.391 66.275 41.391 66.2848 41.391 66.2922C41.391 66.3021 41.391 66.312 41.391 66.3194V66.344V66.3711C41.391 66.3884 41.3887 66.418 41.3887 66.4353C41.3864 66.4747 41.3819 66.5166 41.3773 66.5561C41.3728 66.5955 41.3659 66.635 41.3591 66.6744C41.3523 66.7139 41.3431 66.7533 41.334 66.7903C41.3158 66.8668 41.293 66.9432 41.2656 67.0196C41.2109 67.1676 41.138 67.3106 41.0514 67.4413C40.8759 67.7027 40.6366 67.9147 40.3631 68.0503C40.2263 68.1169 40.0827 68.1662 39.9346 68.1909C39.8617 68.2057 39.7864 68.2131 39.7112 68.2155H39.6976H39.6862H39.6611H39.6246H39.6064C39.6155 68.2155 39.6041 68.2155 39.6041 68.2155H39.5973C39.5562 68.2155 39.5175 68.2131 39.4765 68.2081C39.3169 68.1958 39.1597 68.1637 39.0047 68.1169C38.852 68.07 38.7038 68.0035 38.5625 67.9246C38.2822 67.7618 38.0292 67.5399 37.8332 67.2711C37.7352 67.138 37.6485 66.9925 37.5779 66.8421C37.5072 66.6917 37.4503 66.5314 37.4092 66.3711C37.3682 66.2084 37.3431 66.0432 37.3317 65.8755L37.3295 65.8435V65.8361V65.8287V65.8139V65.7868V65.7794V65.7695V65.7498V65.7103V65.7029C37.3295 65.7029 37.3295 65.7054 37.3295 65.7005V65.6857C37.3295 65.6659 37.3295 65.6437 37.3295 65.624C37.3317 65.5427 37.3386 65.4563 37.3477 65.3725C37.3568 65.2887 37.3705 65.2024 37.3864 65.1185C37.4024 65.0347 37.4206 64.9509 37.4434 64.867C37.4867 64.7018 37.5414 64.5416 37.6052 64.3911C37.7352 64.0903 37.9038 63.8216 38.1067 63.607C38.1568 63.5528 38.2092 63.5035 38.2639 63.4542C38.3186 63.4073 38.3756 63.3629 38.4349 63.321C38.4919 63.2791 38.5534 63.2421 38.6149 63.2076C38.6446 63.1903 38.6765 63.1731 38.7084 63.1583C38.7243 63.1509 38.7403 63.1435 38.7562 63.1361C38.7722 63.1287 38.7881 63.1213 38.8041 63.1139C38.8679 63.0843 38.934 63.0596 39.0024 63.0374C39.0183 63.0325 39.0366 63.0276 39.0525 63.0202C39.0685 63.0153 39.0867 63.0103 39.1027 63.0054C39.1369 62.9955 39.1711 62.9857 39.2052 62.9783C39.2212 62.9733 39.2394 62.9709 39.2577 62.9659C39.2759 62.961 39.2919 62.9585 39.3101 62.9536C39.3283 62.9511 39.3443 62.9462 39.3625 62.9437L39.3876 62.9388L39.4149 62.9339C39.4332 62.9314 39.4491 62.929 39.4674 62.9265C39.4879 62.924 39.5061 62.9216 39.5266 62.9191C39.5426 62.9166 39.5699 62.9142 39.5859 62.9117C39.5973 62.9092 39.6109 62.9092 39.6223 62.9068L39.6474 62.9043L39.6588 62.9018H39.6725C39.693 62.8994 39.7112 62.8994 39.7317 62.8969L39.7614 62.8944C39.7614 62.8944 39.7728 62.8944 39.7636 62.8944H39.7705H39.7842C39.8001 62.8944 39.8183 62.892 39.8343 62.892C39.9004 62.8895 39.9688 62.8895 40.0349 62.892C40.1671 62.8969 40.297 62.9142 40.4223 62.9388C40.6753 62.9906 40.9124 63.0769 41.1289 63.1928C41.3454 63.3062 41.5369 63.4468 41.7055 63.5996C41.7169 63.6095 41.726 63.6194 41.7374 63.6292C41.7466 63.6391 41.7579 63.649 41.7671 63.6588C41.7876 63.6785 41.8058 63.6983 41.8263 63.718C41.8468 63.7377 41.8651 63.7574 41.8833 63.7772C41.9015 63.7969 41.9198 63.8166 41.938 63.8388C42.0087 63.9202 42.0748 64.0016 42.134 64.0854C42.2525 64.2506 42.3483 64.4183 42.4235 64.5761C42.428 64.5859 42.4326 64.5958 42.4372 64.6057C42.4417 64.6155 42.4463 64.6254 42.4508 64.6353C42.4599 64.655 42.4691 64.6747 42.4759 64.6944C42.485 64.7142 42.4919 64.7314 42.501 64.7511C42.5078 64.7709 42.5169 64.7881 42.5238 64.8079C42.5511 64.8818 42.5785 64.9533 42.599 65.0199C42.6332 65.1284 42.6582 65.2246 42.6787 65.3084C42.6856 65.3429 42.7152 65.3651 42.7471 65.3602C42.7813 65.3577 42.8064 65.3281 42.8064 65.2911C42.8087 65.2024 42.8064 65.0963 42.795 64.9755Z" fill="url(#paint13_linear_2375_58812)"/>
</g>
<rect x="35" y="86" width="331" height="147" rx="5" fill="#1D1F22"/>
</g>
<g filter="url(#filter9_d_2375_58812)">
<path d="M50 108C50 105.239 52.2386 103 55 103H73C75.7614 103 78 105.239 78 108V218H50V108Z" fill="#589F8B"/>
</g>
<g filter="url(#filter10_d_2375_58812)">
<path d="M88 126C88 123.239 90.2386 121 93 121H111C113.761 121 116 123.239 116 126V218H88V126Z" fill="#AB63A5"/>
</g>
<g filter="url(#filter11_d_2375_58812)">
<path d="M126 119C126 116.239 128.239 114 131 114H149C151.761 114 154 116.239 154 119V218H126V119Z" fill="#58659F"/>
</g>
<g filter="url(#filter12_d_2375_58812)">
<path d="M164 108C164 105.239 166.239 103 169 103H187C189.761 103 192 105.239 192 108V218H164V108Z" fill="#9F9358"/>
</g>
<g filter="url(#filter13_d_2375_58812)">
<path d="M202 119C202 116.239 204.239 114 207 114H225C227.761 114 230 116.239 230 119V218H202V119Z" fill="#9F5D58"/>
</g>
<g filter="url(#filter14_d_2375_58812)">
<path d="M240 137C240 134.239 242.239 132 245 132H263C265.761 132 268 134.239 268 137V218H240V137Z" fill="#58899F"/>
</g>
<g filter="url(#filter15_d_2375_58812)">
<path d="M278 108C278 105.239 280.239 103 283 103H301C303.761 103 306 105.239 306 108V218H278V108Z" fill="#77589F"/>
</g>
<g filter="url(#filter16_d_2375_58812)">
<path d="M316 126C316 123.239 318.239 121 321 121H339C341.761 121 344 123.239 344 126V218H316V126Z" fill="#589F69"/>
</g>
<defs>
<filter id="filter0_d_2375_58812" x="65" y="95" width="431" height="268" filterUnits="userSpaceOnUse" color-interpolation-filters="sRGB">
<feFlood flood-opacity="0" result="BackgroundImageFix"/>
<feColorMatrix in="SourceAlpha" type="matrix" values="0 0 0 0 0 0 0 0 0 0 0 0 0 0 0 0 0 0 127 0" result="hardAlpha"/>
<feOffset dx="20" dy="20"/>
<feGaussianBlur stdDeviation="20"/>
<feComposite in2="hardAlpha" operator="out"/>
<feColorMatrix type="matrix" values="0 0 0 0 0 0 0 0 0 0 0 0 0 0 0 0 0 0 0.4 0"/>
<feBlend mode="normal" in2="BackgroundImageFix" result="effect1_dropShadow_2375_58812"/>
<feBlend mode="normal" in="SourceGraphic" in2="effect1_dropShadow_2375_58812" result="shape"/>
</filter>
<filter id="filter3_d_2375_58812" x="45" y="75" width="431" height="268" filterUnits="userSpaceOnUse" color-interpolation-filters="sRGB">
<feFlood flood-opacity="0" result="BackgroundImageFix"/>
<feColorMatrix in="SourceAlpha" type="matrix" values="0 0 0 0 0 0 0 0 0 0 0 0 0 0 0 0 0 0 127 0" result="hardAlpha"/>
<feOffset dx="20" dy="20"/>
<feGaussianBlur stdDeviation="20"/>
<feComposite in2="hardAlpha" operator="out"/>
<feColorMatrix type="matrix" values="0 0 0 0 0 0 0 0 0 0 0 0 0 0 0 0 0 0 0.4 0"/>
<feBlend mode="normal" in2="BackgroundImageFix" result="effect1_dropShadow_2375_58812"/>
<feBlend mode="normal" in="SourceGraphic" in2="effect1_dropShadow_2375_58812" result="shape"/>
</filter>
<filter id="filter6_d_2375_58812" x="25" y="55" width="431" height="268" filterUnits="userSpaceOnUse" color-interpolation-filters="sRGB">
<feFlood flood-opacity="0" result="BackgroundImageFix"/>
<feColorMatrix in="SourceAlpha" type="matrix" values="0 0 0 0 0 0 0 0 0 0 0 0 0 0 0 0 0 0 127 0" result="hardAlpha"/>
<feOffset dx="20" dy="20"/>
<feGaussianBlur stdDeviation="20"/>
<feComposite in2="hardAlpha" operator="out"/>
<feColorMatrix type="matrix" values="0 0 0 0 0 0 0 0 0 0 0 0 0 0 0 0 0 0 0.4 0"/>
<feBlend mode="normal" in2="BackgroundImageFix" result="effect1_dropShadow_2375_58812"/>
<feBlend mode="normal" in="SourceGraphic" in2="effect1_dropShadow_2375_58812" result="shape"/>
</filter>
<filter id="filter7_d_2375_58812" x="0" y="0" width="441" height="278" filterUnits="userSpaceOnUse" color-interpolation-filters="sRGB">
<feFlood flood-opacity="0" result="BackgroundImageFix"/>
<feColorMatrix in="SourceAlpha" type="matrix" values="0 0 0 0 0 0 0 0 0 0 0 0 0 0 0 0 0 0 127 0" result="hardAlpha"/>
<feOffset dy="-30"/>
<feGaussianBlur stdDeviation="22.5"/>
<feComposite in2="hardAlpha" operator="out"/>
<feColorMatrix type="matrix" values="0 0 0 0 0 0 0 0 0 0 0 0 0 0 0 0 0 0 0.5 0"/>
<feBlend mode="normal" in2="BackgroundImageFix" result="effect1_dropShadow_2375_58812"/>
<feBlend mode="normal" in="SourceGraphic" in2="effect1_dropShadow_2375_58812" result="shape"/>
</filter>
<filter id="filter8_d_2375_58812" x="5" y="35" width="431" height="268" filterUnits="userSpaceOnUse" color-interpolation-filters="sRGB">
<feFlood flood-opacity="0" result="BackgroundImageFix"/>
<feColorMatrix in="SourceAlpha" type="matrix" values="0 0 0 0 0 0 0 0 0 0 0 0 0 0 0 0 0 0 127 0" result="hardAlpha"/>
<feOffset dx="20" dy="20"/>
<feGaussianBlur stdDeviation="20"/>
<feComposite in2="hardAlpha" operator="out"/>
<feColorMatrix type="matrix" values="0 0 0 0 0 0 0 0 0 0 0 0 0 0 0 0 0 0 0.4 0"/>
<feBlend mode="normal" in2="BackgroundImageFix" result="effect1_dropShadow_2375_58812"/>
<feBlend mode="normal" in="SourceGraphic" in2="effect1_dropShadow_2375_58812" result="shape"/>
</filter>
<filter id="filter9_d_2375_58812" x="35" y="78" width="68" height="155" filterUnits="userSpaceOnUse" color-interpolation-filters="sRGB">
<feFlood flood-opacity="0" result="BackgroundImageFix"/>
<feColorMatrix in="SourceAlpha" type="matrix" values="0 0 0 0 0 0 0 0 0 0 0 0 0 0 0 0 0 0 127 0" result="hardAlpha"/>
<feOffset dx="5" dy="-5"/>
<feGaussianBlur stdDeviation="10"/>
<feComposite in2="hardAlpha" operator="out"/>
<feColorMatrix type="matrix" values="0 0 0 0 0 0 0 0 0 0 0 0 0 0 0 0 0 0 0.5 0"/>
<feBlend mode="normal" in2="BackgroundImageFix" result="effect1_dropShadow_2375_58812"/>
<feBlend mode="normal" in="SourceGraphic" in2="effect1_dropShadow_2375_58812" result="shape"/>
</filter>
<filter id="filter10_d_2375_58812" x="73" y="96" width="68" height="137" filterUnits="userSpaceOnUse" color-interpolation-filters="sRGB">
<feFlood flood-opacity="0" result="BackgroundImageFix"/>
<feColorMatrix in="SourceAlpha" type="matrix" values="0 0 0 0 0 0 0 0 0 0 0 0 0 0 0 0 0 0 127 0" result="hardAlpha"/>
<feOffset dx="5" dy="-5"/>
<feGaussianBlur stdDeviation="10"/>
<feComposite in2="hardAlpha" operator="out"/>
<feColorMatrix type="matrix" values="0 0 0 0 0 0 0 0 0 0 0 0 0 0 0 0 0 0 0.5 0"/>
<feBlend mode="normal" in2="BackgroundImageFix" result="effect1_dropShadow_2375_58812"/>
<feBlend mode="normal" in="SourceGraphic" in2="effect1_dropShadow_2375_58812" result="shape"/>
</filter>
<filter id="filter11_d_2375_58812" x="111" y="89" width="68" height="144" filterUnits="userSpaceOnUse" color-interpolation-filters="sRGB">
<feFlood flood-opacity="0" result="BackgroundImageFix"/>
<feColorMatrix in="SourceAlpha" type="matrix" values="0 0 0 0 0 0 0 0 0 0 0 0 0 0 0 0 0 0 127 0" result="hardAlpha"/>
<feOffset dx="5" dy="-5"/>
<feGaussianBlur stdDeviation="10"/>
<feComposite in2="hardAlpha" operator="out"/>
<feColorMatrix type="matrix" values="0 0 0 0 0 0 0 0 0 0 0 0 0 0 0 0 0 0 0.5 0"/>
<feBlend mode="normal" in2="BackgroundImageFix" result="effect1_dropShadow_2375_58812"/>
<feBlend mode="normal" in="SourceGraphic" in2="effect1_dropShadow_2375_58812" result="shape"/>
</filter>
<filter id="filter12_d_2375_58812" x="149" y="78" width="68" height="155" filterUnits="userSpaceOnUse" color-interpolation-filters="sRGB">
<feFlood flood-opacity="0" result="BackgroundImageFix"/>
<feColorMatrix in="SourceAlpha" type="matrix" values="0 0 0 0 0 0 0 0 0 0 0 0 0 0 0 0 0 0 127 0" result="hardAlpha"/>
<feOffset dx="5" dy="-5"/>
<feGaussianBlur stdDeviation="10"/>
<feComposite in2="hardAlpha" operator="out"/>
<feColorMatrix type="matrix" values="0 0 0 0 0 0 0 0 0 0 0 0 0 0 0 0 0 0 0.5 0"/>
<feBlend mode="normal" in2="BackgroundImageFix" result="effect1_dropShadow_2375_58812"/>
<feBlend mode="normal" in="SourceGraphic" in2="effect1_dropShadow_2375_58812" result="shape"/>
</filter>
<filter id="filter13_d_2375_58812" x="187" y="89" width="68" height="144" filterUnits="userSpaceOnUse" color-interpolation-filters="sRGB">
<feFlood flood-opacity="0" result="BackgroundImageFix"/>
<feColorMatrix in="SourceAlpha" type="matrix" values="0 0 0 0 0 0 0 0 0 0 0 0 0 0 0 0 0 0 127 0" result="hardAlpha"/>
<feOffset dx="5" dy="-5"/>
<feGaussianBlur stdDeviation="10"/>
<feComposite in2="hardAlpha" operator="out"/>
<feColorMatrix type="matrix" values="0 0 0 0 0 0 0 0 0 0 0 0 0 0 0 0 0 0 0.5 0"/>
<feBlend mode="normal" in2="BackgroundImageFix" result="effect1_dropShadow_2375_58812"/>
<feBlend mode="normal" in="SourceGraphic" in2="effect1_dropShadow_2375_58812" result="shape"/>
</filter>
<filter id="filter14_d_2375_58812" x="225" y="107" width="68" height="126" filterUnits="userSpaceOnUse" color-interpolation-filters="sRGB">
<feFlood flood-opacity="0" result="BackgroundImageFix"/>
<feColorMatrix in="SourceAlpha" type="matrix" values="0 0 0 0 0 0 0 0 0 0 0 0 0 0 0 0 0 0 127 0" result="hardAlpha"/>
<feOffset dx="5" dy="-5"/>
<feGaussianBlur stdDeviation="10"/>
<feComposite in2="hardAlpha" operator="out"/>
<feColorMatrix type="matrix" values="0 0 0 0 0 0 0 0 0 0 0 0 0 0 0 0 0 0 0.5 0"/>
<feBlend mode="normal" in2="BackgroundImageFix" result="effect1_dropShadow_2375_58812"/>
<feBlend mode="normal" in="SourceGraphic" in2="effect1_dropShadow_2375_58812" result="shape"/>
</filter>
<filter id="filter15_d_2375_58812" x="263" y="78" width="68" height="155" filterUnits="userSpaceOnUse" color-interpolation-filters="sRGB">
<feFlood flood-opacity="0" result="BackgroundImageFix"/>
<feColorMatrix in="SourceAlpha" type="matrix" values="0 0 0 0 0 0 0 0 0 0 0 0 0 0 0 0 0 0 127 0" result="hardAlpha"/>
<feOffset dx="5" dy="-5"/>
<feGaussianBlur stdDeviation="10"/>
<feComposite in2="hardAlpha" operator="out"/>
<feColorMatrix type="matrix" values="0 0 0 0 0 0 0 0 0 0 0 0 0 0 0 0 0 0 0.5 0"/>
<feBlend mode="normal" in2="BackgroundImageFix" result="effect1_dropShadow_2375_58812"/>
<feBlend mode="normal" in="SourceGraphic" in2="effect1_dropShadow_2375_58812" result="shape"/>
</filter>
<filter id="filter16_d_2375_58812" x="301" y="96" width="68" height="137" filterUnits="userSpaceOnUse" color-interpolation-filters="sRGB">
<feFlood flood-opacity="0" result="BackgroundImageFix"/>
<feColorMatrix in="SourceAlpha" type="matrix" values="0 0 0 0 0 0 0 0 0 0 0 0 0 0 0 0 0 0 127 0" result="hardAlpha"/>
<feOffset dx="5" dy="-5"/>
<feGaussianBlur stdDeviation="10"/>
<feComposite in2="hardAlpha" operator="out"/>
<feColorMatrix type="matrix" values="0 0 0 0 0 0 0 0 0 0 0 0 0 0 0 0 0 0 0.5 0"/>
<feBlend mode="normal" in2="BackgroundImageFix" result="effect1_dropShadow_2375_58812"/>
<feBlend mode="normal" in="SourceGraphic" in2="effect1_dropShadow_2375_58812" result="shape"/>
</filter>
<linearGradient id="paint0_linear_2375_58812" x1="260.5" y1="115" x2="260.5" y2="303" gradientUnits="userSpaceOnUse">
<stop stop-color="#86888E"/>
<stop offset="1" stop-color="#86888E" stop-opacity="0.7"/>
</linearGradient>
<linearGradient id="paint1_linear_2375_58812" x1="85.9971" y1="136.496" x2="435.003" y2="136.496" gradientUnits="userSpaceOnUse">
<stop stop-color="#86888E"/>
<stop offset="1" stop-color="#86888E" stop-opacity="0.7"/>
</linearGradient>
<linearGradient id="paint2_linear_2375_58812" x1="99.0001" y1="123.701" x2="99.0001" y2="129.911" gradientUnits="userSpaceOnUse">
<stop stop-color="#F05A28"/>
<stop offset="1" stop-color="#FBCA0A"/>
</linearGradient>
<linearGradient id="paint3_linear_2375_58812" x1="356.801" y1="174.801" x2="273.199" y2="260.887" gradientUnits="userSpaceOnUse">
<stop stop-color="#A65DA0"/>
<stop offset="1" stop-color="#DA92D4"/>
</linearGradient>
<linearGradient id="paint4_linear_2375_58812" x1="240.5" y1="95" x2="240.5" y2="283" gradientUnits="userSpaceOnUse">
<stop stop-color="#86888E"/>
<stop offset="1" stop-color="#86888E" stop-opacity="0.7"/>
</linearGradient>
<linearGradient id="paint5_linear_2375_58812" x1="65.9971" y1="116.496" x2="415.003" y2="116.496" gradientUnits="userSpaceOnUse">
<stop stop-color="#86888E"/>
<stop offset="1" stop-color="#86888E" stop-opacity="0.7"/>
</linearGradient>
<linearGradient id="paint6_linear_2375_58812" x1="79.0001" y1="103.701" x2="79.0001" y2="109.911" gradientUnits="userSpaceOnUse">
<stop stop-color="#F05A28"/>
<stop offset="1" stop-color="#FBCA0A"/>
</linearGradient>
<linearGradient id="paint7_linear_2375_58812" x1="336.801" y1="154.801" x2="253.199" y2="240.887" gradientUnits="userSpaceOnUse">
<stop stop-color="#A65DA0"/>
<stop offset="1" stop-color="#DA92D4"/>
</linearGradient>
<linearGradient id="paint8_linear_2375_58812" x1="220.5" y1="75" x2="220.5" y2="263" gradientUnits="userSpaceOnUse">
<stop stop-color="#86888E"/>
<stop offset="1" stop-color="#86888E" stop-opacity="0.7"/>
</linearGradient>
<linearGradient id="paint9_linear_2375_58812" x1="45.9971" y1="96.4961" x2="395.003" y2="96.4961" gradientUnits="userSpaceOnUse">
<stop stop-color="#86888E"/>
<stop offset="1" stop-color="#86888E" stop-opacity="0.7"/>
</linearGradient>
<linearGradient id="paint10_linear_2375_58812" x1="59.0001" y1="83.7007" x2="59.0001" y2="89.9107" gradientUnits="userSpaceOnUse">
<stop stop-color="#F05A28"/>
<stop offset="1" stop-color="#FBCA0A"/>
</linearGradient>
<linearGradient id="paint11_linear_2375_58812" x1="200.5" y1="55" x2="200.5" y2="243" gradientUnits="userSpaceOnUse">
<stop stop-color="#86888E"/>
<stop offset="1" stop-color="#86888E" stop-opacity="0.7"/>
</linearGradient>
<linearGradient id="paint12_linear_2375_58812" x1="25.9971" y1="76.4961" x2="375.003" y2="76.4961" gradientUnits="userSpaceOnUse">
<stop stop-color="#86888E"/>
<stop offset="1" stop-color="#86888E" stop-opacity="0.7"/>
</linearGradient>
<linearGradient id="paint13_linear_2375_58812" x1="39.0001" y1="63.7007" x2="39.0001" y2="69.9107" gradientUnits="userSpaceOnUse">
<stop stop-color="#F05A28"/>
<stop offset="1" stop-color="#FBCA0A"/>
</linearGradient>
<clipPath id="clip0_2375_58812">
<rect width="8" height="9" fill="white" transform="translate(95 121)"/>
</clipPath>
<clipPath id="clip1_2375_58812">
<rect width="8" height="9" fill="white" transform="translate(75 101)"/>
</clipPath>
<clipPath id="clip2_2375_58812">
<rect width="8" height="9" fill="white" transform="translate(55 81)"/>
</clipPath>
<clipPath id="clip3_2375_58812">
<rect width="8" height="9" fill="white" transform="translate(35 61)"/>
</clipPath>
</defs>
</svg>
