<svg width="496" height="363" viewBox="0 0 496 363" fill="none" xmlns="http://www.w3.org/2000/svg">
<g filter="url(#filter0_d_2654_28329)">
<rect x="85.5" y="115.5" width="350" height="187" rx="9.5" fill="#111214" stroke="url(#paint0_linear_2654_28329)"/>
<line x1="85.9971" y1="135.496" x2="435.003" y2="135.496" stroke="url(#paint1_linear_2654_28329)"/>
<g clip-path="url(#clip0_2654_28329)">
<path d="M102.794 124.976C102.781 124.825 102.758 124.653 102.712 124.46C102.667 124.27 102.598 124.061 102.498 123.844C102.398 123.627 102.268 123.402 102.099 123.183C102.033 123.097 101.96 123.013 101.883 122.931C101.999 122.431 101.742 121.997 101.742 121.997C101.297 121.967 101.014 122.147 100.91 122.229C100.891 122.221 100.875 122.211 100.857 122.204C100.782 122.172 100.704 122.14 100.622 122.113C100.543 122.086 100.461 122.061 100.376 122.039C100.292 122.017 100.208 121.999 100.121 121.985C100.105 121.982 100.091 121.98 100.075 121.977C99.8817 121.306 99.3256 121.025 99.3256 121.025C98.7033 121.452 98.5871 122.049 98.5871 122.049C98.5871 122.049 98.5848 122.061 98.5803 122.083C98.5461 122.093 98.5119 122.105 98.4777 122.115C98.4298 122.13 98.382 122.15 98.3364 122.17C98.2885 122.189 98.2429 122.209 98.1951 122.231C98.1016 122.276 98.0082 122.325 97.917 122.379C97.8281 122.433 97.7415 122.493 97.6572 122.554C97.6458 122.549 97.6344 122.544 97.6344 122.544C96.7728 122.189 96.0093 122.616 96.0093 122.616C95.9387 123.607 96.3535 124.231 96.4355 124.344C96.415 124.406 96.3968 124.468 96.3785 124.529C96.3147 124.754 96.2669 124.983 96.2372 125.222C96.2327 125.257 96.2281 125.291 96.2258 125.326C95.4281 125.752 95.1934 126.623 95.1934 126.623C95.8566 127.449 96.6315 127.5 96.6315 127.5L96.6338 127.498C96.7318 127.688 96.8458 127.868 96.9734 128.038C97.0281 128.109 97.0828 128.176 97.1421 128.243C96.9005 128.992 97.1763 129.614 97.1763 129.614C97.9147 129.643 98.4002 129.263 98.5028 129.177C98.5757 129.204 98.6509 129.229 98.7261 129.249C98.954 129.313 99.1865 129.35 99.419 129.36C99.476 129.362 99.5352 129.365 99.5922 129.362H99.6196H99.6378H99.6743L99.7107 129.36V129.362C100.059 129.9 100.67 129.976 100.67 129.976C101.106 129.48 101.131 128.987 101.131 128.881C101.131 128.881 101.131 128.879 101.131 128.874C101.131 128.864 101.131 128.859 101.131 128.859C101.131 128.852 101.131 128.844 101.131 128.837C101.222 128.768 101.308 128.694 101.391 128.613C101.564 128.442 101.716 128.248 101.844 128.038C101.855 128.018 101.867 127.999 101.878 127.979C102.371 128.008 102.719 127.648 102.719 127.648C102.637 127.094 102.345 126.822 102.284 126.771C102.284 126.771 102.282 126.768 102.277 126.766C102.273 126.763 102.273 126.761 102.273 126.761C102.27 126.758 102.266 126.756 102.261 126.753C102.263 126.719 102.266 126.687 102.268 126.652C102.273 126.593 102.273 126.531 102.273 126.472V126.428V126.406V126.393C102.273 126.379 102.273 126.383 102.273 126.379L102.27 126.342L102.268 126.292C102.268 126.275 102.266 126.26 102.263 126.245C102.261 126.231 102.261 126.213 102.259 126.199L102.254 126.152L102.247 126.105C102.238 126.043 102.229 125.984 102.216 125.922C102.163 125.683 102.077 125.456 101.965 125.252C101.851 125.047 101.71 124.867 101.548 124.714C101.388 124.561 101.208 124.438 101.021 124.347C100.832 124.256 100.636 124.196 100.44 124.169C100.342 124.154 100.244 124.15 100.146 124.152H100.11H100.1C100.098 124.152 100.087 124.152 100.089 124.152H100.073L100.037 124.154C100.023 124.154 100.009 124.157 99.9979 124.157C99.9478 124.162 99.8976 124.169 99.8498 124.179C99.6538 124.219 99.4691 124.295 99.3073 124.401C99.1455 124.507 99.0042 124.638 98.8902 124.786C98.7763 124.934 98.6874 125.099 98.6258 125.269C98.5643 125.439 98.5301 125.617 98.521 125.787C98.5187 125.829 98.5187 125.873 98.5187 125.915C98.5187 125.925 98.5187 125.937 98.5187 125.947L98.521 125.982C98.5233 126.001 98.5233 126.023 98.5256 126.043C98.5324 126.129 98.5483 126.213 98.5689 126.292C98.6122 126.453 98.6805 126.598 98.7649 126.721C98.8492 126.845 98.9518 126.946 99.0589 127.027C99.166 127.106 99.2822 127.163 99.3962 127.2C99.5102 127.237 99.6241 127.251 99.7313 127.251C99.7449 127.251 99.7586 127.251 99.77 127.251C99.7768 127.251 99.7837 127.251 99.7905 127.251C99.7973 127.251 99.8042 127.251 99.811 127.249C99.8224 127.249 99.8338 127.246 99.8452 127.246C99.8475 127.246 99.852 127.246 99.8543 127.244L99.8657 127.242C99.8726 127.242 99.8794 127.239 99.8862 127.239C99.8999 127.237 99.9113 127.234 99.925 127.232C99.9387 127.229 99.9501 127.227 99.9615 127.222C99.9865 127.217 100.009 127.207 100.032 127.2C100.078 127.182 100.123 127.163 100.162 127.14C100.203 127.118 100.24 127.091 100.276 127.066C100.285 127.059 100.296 127.052 100.306 127.042C100.342 127.01 100.349 126.951 100.319 126.911C100.294 126.877 100.249 126.867 100.212 126.889C100.203 126.894 100.194 126.899 100.185 126.904C100.153 126.921 100.121 126.936 100.087 126.948C100.053 126.96 100.016 126.97 99.9797 126.978C99.9615 126.98 99.9432 126.983 99.9227 126.985C99.9136 126.985 99.9045 126.988 99.8931 126.988C99.884 126.988 99.8726 126.988 99.8657 126.988C99.8566 126.988 99.8475 126.988 99.8384 126.988C99.827 126.988 99.8156 126.988 99.8042 126.985C99.8042 126.985 99.7973 126.985 99.8019 126.985H99.7973H99.7905C99.786 126.985 99.7791 126.985 99.7746 126.983C99.7632 126.98 99.754 126.98 99.7426 126.978C99.6583 126.965 99.574 126.938 99.4942 126.899C99.4122 126.859 99.3347 126.805 99.264 126.736C99.1934 126.667 99.1318 126.586 99.084 126.492C99.0361 126.398 99.0019 126.295 98.986 126.186C98.9791 126.132 98.9746 126.075 98.9768 126.021C98.9768 126.006 98.9791 125.991 98.9791 125.977C98.9791 125.982 98.9791 125.974 98.9791 125.974V125.969V125.957C98.9791 125.949 98.9814 125.942 98.9814 125.935C98.9837 125.905 98.9882 125.876 98.9928 125.846C99.0315 125.609 99.1409 125.377 99.3096 125.202C99.3529 125.158 99.3985 125.119 99.4464 125.082C99.4942 125.045 99.5466 125.013 99.6013 124.985C99.656 124.958 99.7107 124.936 99.77 124.919C99.827 124.902 99.8862 124.892 99.9478 124.884C99.9774 124.882 100.007 124.879 100.039 124.879C100.048 124.879 100.053 124.879 100.059 124.879H100.085H100.1C100.107 124.879 100.1 124.879 100.103 124.879H100.11L100.135 124.882C100.201 124.887 100.265 124.897 100.328 124.914C100.456 124.943 100.581 124.995 100.698 125.064C100.93 125.205 101.128 125.422 101.249 125.683C101.311 125.814 101.354 125.954 101.375 126.1C101.379 126.137 101.384 126.174 101.386 126.211L101.388 126.238L101.391 126.265C101.391 126.275 101.391 126.285 101.391 126.292C101.391 126.302 101.391 126.312 101.391 126.319V126.344V126.371C101.391 126.388 101.388 126.418 101.388 126.435C101.386 126.475 101.381 126.517 101.377 126.556C101.372 126.596 101.365 126.635 101.359 126.674C101.352 126.714 101.343 126.753 101.334 126.79C101.315 126.867 101.293 126.943 101.265 127.02C101.21 127.168 101.138 127.311 101.051 127.441C100.875 127.703 100.636 127.915 100.363 128.05C100.226 128.117 100.082 128.166 99.9341 128.191C99.8612 128.206 99.786 128.213 99.7107 128.216H99.6971H99.6857H99.6606H99.6241H99.6059C99.615 128.216 99.6036 128.216 99.6036 128.216H99.5968C99.5558 128.216 99.517 128.213 99.476 128.208C99.3164 128.196 99.1592 128.164 99.0042 128.117C98.8515 128.07 98.7033 128.003 98.562 127.925C98.2817 127.762 98.0287 127.54 97.8327 127.271C97.7347 127.138 97.6481 126.993 97.5774 126.842C97.5067 126.692 97.4498 126.531 97.4087 126.371C97.3677 126.208 97.3426 126.043 97.3313 125.876L97.329 125.843V125.836V125.829V125.814V125.787V125.779V125.769V125.75V125.71V125.703C97.329 125.703 97.329 125.705 97.329 125.7V125.686C97.329 125.666 97.329 125.644 97.329 125.624C97.3313 125.543 97.3381 125.456 97.3472 125.373C97.3563 125.289 97.37 125.202 97.386 125.119C97.4019 125.035 97.4201 124.951 97.4429 124.867C97.4862 124.702 97.5409 124.542 97.6048 124.391C97.7347 124.09 97.9033 123.822 98.1062 123.607C98.1563 123.553 98.2087 123.503 98.2634 123.454C98.3181 123.407 98.3751 123.363 98.4344 123.321C98.4914 123.279 98.5529 123.242 98.6144 123.208C98.6441 123.19 98.676 123.173 98.7079 123.158C98.7238 123.151 98.7398 123.143 98.7558 123.136C98.7717 123.129 98.7877 123.121 98.8036 123.114C98.8674 123.084 98.9335 123.06 99.0019 123.037C99.0179 123.033 99.0361 123.028 99.052 123.02C99.068 123.015 99.0862 123.01 99.1022 123.005C99.1364 122.996 99.1706 122.986 99.2048 122.978C99.2207 122.973 99.2389 122.971 99.2572 122.966C99.2754 122.961 99.2914 122.959 99.3096 122.954C99.3278 122.951 99.3438 122.946 99.362 122.944L99.3871 122.939L99.4144 122.934C99.4327 122.931 99.4486 122.929 99.4669 122.926C99.4874 122.924 99.5056 122.922 99.5261 122.919C99.5421 122.917 99.5694 122.914 99.5854 122.912C99.5968 122.909 99.6105 122.909 99.6218 122.907L99.6469 122.904L99.6583 122.902H99.672C99.6925 122.899 99.7107 122.899 99.7313 122.897L99.7609 122.894C99.7609 122.894 99.7723 122.894 99.7632 122.894H99.77H99.7837C99.7996 122.894 99.8179 122.892 99.8338 122.892C99.8999 122.89 99.9683 122.89 100.034 122.892C100.167 122.897 100.296 122.914 100.422 122.939C100.675 122.991 100.912 123.077 101.128 123.193C101.345 123.306 101.536 123.447 101.705 123.6C101.716 123.61 101.726 123.619 101.737 123.629C101.746 123.639 101.757 123.649 101.767 123.659C101.787 123.679 101.805 123.698 101.826 123.718C101.846 123.738 101.865 123.757 101.883 123.777C101.901 123.797 101.919 123.817 101.938 123.839C102.008 123.92 102.074 124.002 102.134 124.085C102.252 124.251 102.348 124.418 102.423 124.576C102.428 124.586 102.432 124.596 102.437 124.606C102.441 124.616 102.446 124.625 102.45 124.635C102.459 124.655 102.469 124.675 102.475 124.694C102.485 124.714 102.491 124.731 102.5 124.751C102.507 124.771 102.516 124.788 102.523 124.808C102.551 124.882 102.578 124.953 102.598 125.02C102.633 125.128 102.658 125.225 102.678 125.308C102.685 125.343 102.715 125.365 102.747 125.36C102.781 125.358 102.806 125.328 102.806 125.291C102.808 125.202 102.806 125.096 102.794 124.976Z" fill="url(#paint2_linear_2654_28329)"/>
</g>
<rect x="95" y="146" width="331" height="147" rx="5" fill="#1D1F22"/>
<path d="M356.801 174.801C364.356 182.138 369.847 191.336 372.722 201.468L355.405 206.381C353.393 199.288 349.549 192.85 344.261 187.714L356.801 174.801Z" fill="url(#paint3_linear_2654_28329)"/>
<path d="M366.914 187.761C374.552 200.942 376.89 216.534 373.455 231.375C370.019 246.217 361.067 259.195 348.414 267.679C335.762 276.163 320.355 279.516 305.321 277.058C290.287 274.601 276.751 266.517 267.458 254.446C258.165 242.375 253.811 227.221 255.28 212.059C256.749 196.896 263.93 182.86 275.368 172.797C286.805 162.735 301.641 157.399 316.868 157.873C332.094 158.347 346.57 164.595 357.359 175.35L344.651 188.098C337.099 180.57 326.966 176.196 316.308 175.865C305.649 175.533 295.264 179.267 287.257 186.311C279.251 193.355 274.224 203.18 273.196 213.794C272.168 224.408 275.215 235.016 281.72 243.465C288.226 251.915 297.701 257.574 308.225 259.294C318.749 261.014 329.533 258.667 338.39 252.729C347.247 246.79 353.514 237.705 355.918 227.316C358.323 216.927 356.686 206.012 351.34 196.786L366.914 187.761Z" fill="#5D97A6"/>
<rect x="355" y="173.844" width="31" height="16" rx="5" fill="white" fill-opacity="0.05"/>
<path d="M363.9 185.988C363.3 185.988 362.792 185.876 362.376 185.652C361.968 185.428 361.64 185.124 361.392 184.74C361.144 184.356 360.96 183.928 360.84 183.456C360.728 182.976 360.672 182.484 360.672 181.98C360.672 181.052 360.8 180.24 361.056 179.544C361.312 178.84 361.68 178.292 362.16 177.9C362.648 177.5 363.232 177.3 363.912 177.3C364.44 177.3 364.892 177.404 365.268 177.612C365.652 177.812 365.952 178.084 366.168 178.428C366.392 178.764 366.528 179.14 366.576 179.556H365.64C365.56 179.116 365.368 178.776 365.064 178.536C364.76 178.296 364.372 178.176 363.9 178.176C363.476 178.176 363.096 178.308 362.76 178.572C362.432 178.836 362.168 179.232 361.968 179.76C361.776 180.288 361.664 180.964 361.632 181.788C361.632 181.804 361.632 181.82 361.632 181.836C361.632 181.852 361.632 181.868 361.632 181.884C361.752 181.628 361.924 181.396 362.148 181.188C362.38 180.972 362.656 180.8 362.976 180.672C363.296 180.536 363.648 180.468 364.032 180.468C364.512 180.468 364.956 180.58 365.364 180.804C365.78 181.028 366.112 181.344 366.36 181.752C366.616 182.152 366.744 182.624 366.744 183.168C366.744 183.64 366.628 184.092 366.396 184.524C366.172 184.956 365.848 185.308 365.424 185.58C365 185.852 364.492 185.988 363.9 185.988ZM363.828 185.1C364.196 185.1 364.52 185.02 364.8 184.86C365.088 184.7 365.312 184.48 365.472 184.2C365.64 183.912 365.724 183.584 365.724 183.216C365.724 182.84 365.64 182.512 365.472 182.232C365.312 181.952 365.088 181.736 364.8 181.584C364.52 181.424 364.196 181.344 363.828 181.344C363.468 181.344 363.14 181.428 362.844 181.596C362.556 181.764 362.324 181.992 362.148 182.28C361.98 182.56 361.896 182.876 361.896 183.228C361.896 183.596 361.98 183.92 362.148 184.2C362.324 184.48 362.556 184.7 362.844 184.86C363.14 185.02 363.468 185.1 363.828 185.1ZM373.027 185.844L377.911 177.444H378.919L374.035 185.844H373.027ZM378.403 185.988C378.043 185.988 377.719 185.908 377.431 185.748C377.143 185.58 376.911 185.344 376.735 185.04C376.567 184.736 376.483 184.38 376.483 183.972C376.483 183.556 376.567 183.2 376.735 182.904C376.911 182.6 377.143 182.368 377.431 182.208C377.719 182.04 378.043 181.956 378.403 181.956C378.771 181.956 379.095 182.04 379.375 182.208C379.663 182.368 379.891 182.6 380.059 182.904C380.227 183.2 380.311 183.556 380.311 183.972C380.311 184.38 380.227 184.736 380.059 185.04C379.891 185.344 379.663 185.58 379.375 185.748C379.087 185.908 378.763 185.988 378.403 185.988ZM378.391 185.208C378.583 185.208 378.759 185.164 378.919 185.076C379.079 184.98 379.207 184.84 379.303 184.656C379.407 184.472 379.459 184.244 379.459 183.972C379.459 183.692 379.411 183.46 379.315 183.276C379.219 183.092 379.091 182.956 378.931 182.868C378.771 182.772 378.595 182.724 378.403 182.724C378.219 182.724 378.043 182.772 377.875 182.868C377.715 182.956 377.583 183.092 377.479 183.276C377.383 183.46 377.335 183.692 377.335 183.972C377.335 184.244 377.383 184.472 377.479 184.656C377.583 184.84 377.715 184.98 377.875 185.076C378.035 185.164 378.207 185.208 378.391 185.208ZM373.639 181.344C373.279 181.344 372.955 181.264 372.667 181.104C372.379 180.936 372.147 180.7 371.971 180.396C371.803 180.092 371.719 179.736 371.719 179.328C371.719 178.912 371.803 178.556 371.971 178.26C372.147 177.956 372.379 177.724 372.667 177.564C372.963 177.396 373.291 177.312 373.651 177.312C374.011 177.312 374.335 177.396 374.623 177.564C374.911 177.724 375.139 177.956 375.307 178.26C375.475 178.556 375.559 178.912 375.559 179.328C375.559 179.736 375.475 180.092 375.307 180.396C375.139 180.7 374.907 180.936 374.611 181.104C374.323 181.264 373.999 181.344 373.639 181.344ZM373.639 180.564C373.831 180.564 374.007 180.52 374.167 180.432C374.327 180.336 374.455 180.196 374.551 180.012C374.647 179.828 374.695 179.6 374.695 179.328C374.695 179.048 374.647 178.816 374.551 178.632C374.455 178.44 374.327 178.3 374.167 178.212C374.007 178.116 373.835 178.068 373.651 178.068C373.467 178.068 373.291 178.116 373.123 178.212C372.955 178.3 372.819 178.44 372.715 178.632C372.619 178.816 372.571 179.048 372.571 179.328C372.571 179.6 372.619 179.828 372.715 180.012C372.819 180.196 372.951 180.336 373.111 180.432C373.279 180.52 373.455 180.564 373.639 180.564Z" fill="#ACADAE"/>
<rect x="229" y="209.844" width="39" height="16" rx="5" fill="white" fill-opacity="0.05"/>
<path d="M237.636 221.988C237.108 221.988 236.656 221.888 236.28 221.688C235.904 221.48 235.604 221.204 235.38 220.86C235.164 220.508 235.032 220.124 234.984 219.708H235.92C236 220.156 236.192 220.504 236.496 220.752C236.8 220.992 237.184 221.112 237.648 221.112C238.072 221.112 238.448 220.984 238.776 220.728C239.104 220.472 239.368 220.084 239.568 219.564C239.776 219.036 239.892 218.368 239.916 217.56C239.916 217.536 239.916 217.512 239.916 217.488C239.916 217.464 239.916 217.44 239.916 217.416C239.796 217.664 239.62 217.896 239.388 218.112C239.156 218.328 238.88 218.5 238.56 218.628C238.248 218.756 237.896 218.82 237.504 218.82C237.032 218.82 236.584 218.708 236.16 218.484C235.744 218.26 235.404 217.948 235.14 217.548C234.884 217.14 234.756 216.664 234.756 216.12C234.756 215.648 234.872 215.196 235.104 214.764C235.336 214.332 235.668 213.98 236.1 213.708C236.532 213.436 237.044 213.3 237.636 213.3C238.236 213.3 238.744 213.416 239.16 213.648C239.576 213.872 239.908 214.176 240.156 214.56C240.412 214.936 240.596 215.364 240.708 215.844C240.82 216.324 240.876 216.812 240.876 217.308C240.876 218.228 240.748 219.04 240.492 219.744C240.244 220.448 239.876 221 239.388 221.4C238.908 221.792 238.324 221.988 237.636 221.988ZM237.708 217.944C238.076 217.944 238.408 217.86 238.704 217.692C239 217.524 239.232 217.296 239.4 217.008C239.576 216.72 239.664 216.404 239.664 216.06C239.664 215.692 239.576 215.368 239.4 215.088C239.232 214.808 239 214.588 238.704 214.428C238.408 214.268 238.076 214.188 237.708 214.188C237.34 214.188 237.008 214.272 236.712 214.44C236.424 214.6 236.196 214.82 236.028 215.1C235.86 215.38 235.776 215.704 235.776 216.072C235.776 216.448 235.86 216.776 236.028 217.056C236.196 217.336 236.424 217.556 236.712 217.716C237.008 217.868 237.34 217.944 237.708 217.944ZM246.479 221.844V220.044H242.219V219.264L246.299 213.444H247.475V219.156H248.723V220.044H247.475V221.844H246.479ZM243.335 219.156H246.527V214.56L243.335 219.156ZM254.472 221.844L259.356 213.444H260.364L255.48 221.844H254.472ZM259.764 221.988C259.404 221.988 259.08 221.908 258.792 221.748C258.504 221.58 258.272 221.344 258.096 221.04C257.928 220.736 257.844 220.38 257.844 219.972C257.844 219.556 257.928 219.2 258.096 218.904C258.272 218.6 258.504 218.368 258.792 218.208C259.08 218.04 259.404 217.956 259.764 217.956C260.132 217.956 260.456 218.04 260.736 218.208C261.024 218.368 261.252 218.6 261.42 218.904C261.588 219.2 261.672 219.556 261.672 219.972C261.672 220.38 261.588 220.736 261.42 221.04C261.252 221.344 261.024 221.58 260.736 221.748C260.448 221.908 260.124 221.988 259.764 221.988ZM259.752 221.208C259.944 221.208 260.12 221.164 260.28 221.076C260.44 220.98 260.568 220.84 260.664 220.656C260.768 220.472 260.82 220.244 260.82 219.972C260.82 219.692 260.772 219.46 260.676 219.276C260.58 219.092 260.452 218.956 260.292 218.868C260.132 218.772 259.956 218.724 259.764 218.724C259.58 218.724 259.404 218.772 259.236 218.868C259.076 218.956 258.944 219.092 258.84 219.276C258.744 219.46 258.696 219.692 258.696 219.972C258.696 220.244 258.744 220.472 258.84 220.656C258.944 220.84 259.076 220.98 259.236 221.076C259.396 221.164 259.568 221.208 259.752 221.208ZM255.144 217.344C254.784 217.344 254.46 217.264 254.172 217.104C253.884 216.936 253.652 216.7 253.476 216.396C253.308 216.092 253.224 215.736 253.224 215.328C253.224 214.912 253.308 214.556 253.476 214.26C253.652 213.956 253.884 213.724 254.172 213.564C254.468 213.396 254.796 213.312 255.156 213.312C255.516 213.312 255.84 213.396 256.128 213.564C256.416 213.724 256.644 213.956 256.812 214.26C256.98 214.556 257.064 214.912 257.064 215.328C257.064 215.736 256.98 216.092 256.812 216.396C256.644 216.7 256.412 216.936 256.116 217.104C255.828 217.264 255.504 217.344 255.144 217.344ZM255.144 216.564C255.336 216.564 255.512 216.52 255.672 216.432C255.832 216.336 255.96 216.196 256.056 216.012C256.152 215.828 256.2 215.6 256.2 215.328C256.2 215.048 256.152 214.816 256.056 214.632C255.96 214.44 255.832 214.3 255.672 214.212C255.512 214.116 255.34 214.068 255.156 214.068C254.972 214.068 254.796 214.116 254.628 214.212C254.46 214.3 254.324 214.44 254.22 214.632C254.124 214.816 254.076 215.048 254.076 215.328C254.076 215.6 254.124 215.828 254.22 216.012C254.324 216.196 254.456 216.336 254.616 216.432C254.784 216.52 254.96 216.564 255.144 216.564Z" fill="#ACADAE"/>
<rect x="110" y="204" width="28" height="6" rx="2" fill="#5D97A6"/>
<path d="M149.01 210.12C148.497 210.12 148.05 210.027 147.67 209.84C147.29 209.653 146.997 209.393 146.79 209.06C146.583 208.727 146.48 208.34 146.48 207.9H147.36C147.36 208.173 147.423 208.427 147.55 208.66C147.677 208.887 147.86 209.07 148.1 209.21C148.347 209.343 148.65 209.41 149.01 209.41C149.323 209.41 149.59 209.36 149.81 209.26C150.037 209.153 150.207 209.01 150.32 208.83C150.44 208.65 150.5 208.447 150.5 208.22C150.5 207.967 150.443 207.757 150.33 207.59C150.223 207.417 150.073 207.277 149.88 207.17C149.687 207.057 149.463 206.957 149.21 206.87C148.957 206.783 148.683 206.693 148.39 206.6C147.803 206.413 147.377 206.18 147.11 205.9C146.85 205.613 146.72 205.247 146.72 204.8C146.72 204.42 146.807 204.087 146.98 203.8C147.16 203.513 147.413 203.29 147.74 203.13C148.073 202.963 148.467 202.88 148.92 202.88C149.367 202.88 149.753 202.963 150.08 203.13C150.413 203.297 150.673 203.527 150.86 203.82C151.047 204.107 151.14 204.44 151.14 204.82H150.26C150.26 204.627 150.21 204.437 150.11 204.25C150.01 204.063 149.857 203.91 149.65 203.79C149.45 203.663 149.197 203.6 148.89 203.6C148.637 203.593 148.41 203.637 148.21 203.73C148.017 203.817 147.863 203.943 147.75 204.11C147.643 204.277 147.59 204.48 147.59 204.72C147.59 204.947 147.637 205.13 147.73 205.27C147.83 205.41 147.97 205.53 148.15 205.63C148.337 205.723 148.553 205.81 148.8 205.89C149.047 205.97 149.32 206.06 149.62 206.16C149.96 206.273 150.26 206.413 150.52 206.58C150.787 206.74 150.993 206.947 151.14 207.2C151.293 207.453 151.37 207.777 151.37 208.17C151.37 208.503 151.28 208.82 151.1 209.12C150.927 209.413 150.667 209.653 150.32 209.84C149.973 210.027 149.537 210.12 149.01 210.12ZM154.659 210.12C154.273 210.12 153.936 210.047 153.649 209.9C153.363 209.753 153.139 209.53 152.979 209.23C152.819 208.923 152.739 208.543 152.739 208.09V204.74H153.579V208C153.579 208.467 153.693 208.817 153.919 209.05C154.153 209.283 154.463 209.4 154.849 209.4C155.116 209.4 155.356 209.34 155.569 209.22C155.783 209.093 155.953 208.91 156.079 208.67C156.213 208.43 156.279 208.137 156.279 207.79V204.74H157.119V210H156.359L156.309 209.16C156.169 209.467 155.953 209.703 155.659 209.87C155.373 210.037 155.039 210.12 154.659 210.12ZM161.011 210.12C160.531 210.12 160.104 210.007 159.731 209.78C159.358 209.547 159.064 209.223 158.851 208.81C158.638 208.397 158.531 207.917 158.531 207.37C158.531 206.817 158.638 206.337 158.851 205.93C159.064 205.517 159.358 205.197 159.731 204.97C160.104 204.737 160.531 204.62 161.011 204.62C161.611 204.62 162.111 204.78 162.511 205.1C162.918 205.42 163.178 205.85 163.291 206.39H162.431C162.358 206.057 162.188 205.8 161.921 205.62C161.661 205.433 161.354 205.34 161.001 205.34C160.694 205.34 160.418 205.417 160.171 205.57C159.931 205.723 159.741 205.95 159.601 206.25C159.461 206.55 159.391 206.923 159.391 207.37C159.391 207.703 159.431 208 159.511 208.26C159.591 208.513 159.701 208.727 159.841 208.9C159.988 209.067 160.158 209.193 160.351 209.28C160.551 209.367 160.768 209.41 161.001 209.41C161.241 209.41 161.458 209.37 161.651 209.29C161.851 209.203 162.018 209.08 162.151 208.92C162.291 208.76 162.384 208.57 162.431 208.35H163.291C163.184 208.877 162.924 209.303 162.511 209.63C162.104 209.957 161.604 210.12 161.011 210.12ZM166.982 210.12C166.502 210.12 166.076 210.007 165.702 209.78C165.329 209.547 165.036 209.223 164.822 208.81C164.609 208.397 164.502 207.917 164.502 207.37C164.502 206.817 164.609 206.337 164.822 205.93C165.036 205.517 165.329 205.197 165.702 204.97C166.076 204.737 166.502 204.62 166.982 204.62C167.582 204.62 168.082 204.78 168.482 205.1C168.889 205.42 169.149 205.85 169.262 206.39H168.402C168.329 206.057 168.159 205.8 167.892 205.62C167.632 205.433 167.326 205.34 166.972 205.34C166.666 205.34 166.389 205.417 166.142 205.57C165.902 205.723 165.712 205.95 165.572 206.25C165.432 206.55 165.362 206.923 165.362 207.37C165.362 207.703 165.402 208 165.482 208.26C165.562 208.513 165.672 208.727 165.812 208.9C165.959 209.067 166.129 209.193 166.322 209.28C166.522 209.367 166.739 209.41 166.972 209.41C167.212 209.41 167.429 209.37 167.622 209.29C167.822 209.203 167.989 209.08 168.122 208.92C168.262 208.76 168.356 208.57 168.402 208.35H169.262C169.156 208.877 168.896 209.303 168.482 209.63C168.076 209.957 167.576 210.12 166.982 210.12ZM172.864 210.12C172.397 210.12 171.984 210.007 171.624 209.78C171.264 209.553 170.98 209.233 170.774 208.82C170.574 208.407 170.474 207.923 170.474 207.37C170.474 206.817 170.574 206.333 170.774 205.92C170.98 205.507 171.264 205.187 171.624 204.96C171.99 204.733 172.41 204.62 172.884 204.62C173.39 204.62 173.814 204.733 174.154 204.96C174.494 205.187 174.75 205.49 174.924 205.87C175.097 206.25 175.184 206.667 175.184 207.12C175.184 207.187 175.184 207.253 175.184 207.32C175.184 207.387 175.18 207.467 175.174 207.56H171.104V206.91H174.364C174.35 206.397 174.2 206.007 173.914 205.74C173.634 205.467 173.284 205.33 172.864 205.33C172.584 205.33 172.324 205.4 172.084 205.54C171.85 205.673 171.66 205.873 171.514 206.14C171.367 206.407 171.294 206.74 171.294 207.14V207.42C171.294 207.86 171.367 208.23 171.514 208.53C171.66 208.823 171.85 209.043 172.084 209.19C172.324 209.337 172.584 209.41 172.864 209.41C173.237 209.41 173.53 209.34 173.744 209.2C173.957 209.053 174.114 208.847 174.214 208.58H175.044C174.964 208.873 174.824 209.137 174.624 209.37C174.43 209.603 174.184 209.787 173.884 209.92C173.59 210.053 173.25 210.12 172.864 210.12ZM178.448 210.12C177.975 210.12 177.581 210.05 177.268 209.91C176.961 209.763 176.728 209.563 176.568 209.31C176.408 209.05 176.311 208.75 176.278 208.41H177.138C177.165 208.59 177.225 208.757 177.318 208.91C177.418 209.057 177.561 209.177 177.748 209.27C177.935 209.363 178.171 209.41 178.458 209.41C178.685 209.41 178.878 209.377 179.038 209.31C179.198 209.237 179.318 209.137 179.398 209.01C179.485 208.883 179.528 208.737 179.528 208.57C179.528 208.35 179.478 208.18 179.378 208.06C179.285 207.933 179.145 207.84 178.958 207.78C178.778 207.713 178.551 207.663 178.278 207.63C177.985 207.59 177.725 207.533 177.498 207.46C177.271 207.387 177.078 207.29 176.918 207.17C176.765 207.05 176.648 206.9 176.568 206.72C176.488 206.54 176.448 206.327 176.448 206.08C176.448 205.793 176.525 205.54 176.678 205.32C176.831 205.1 177.048 204.93 177.328 204.81C177.615 204.683 177.951 204.62 178.338 204.62C178.905 204.62 179.351 204.75 179.678 205.01C180.011 205.27 180.208 205.64 180.268 206.12H179.438C179.405 205.873 179.291 205.68 179.098 205.54C178.905 205.4 178.648 205.33 178.328 205.33C177.988 205.33 177.731 205.393 177.558 205.52C177.385 205.647 177.298 205.813 177.298 206.02C177.298 206.173 177.335 206.313 177.408 206.44C177.488 206.56 177.621 206.663 177.808 206.75C177.995 206.83 178.245 206.89 178.558 206.93C178.951 206.977 179.285 207.053 179.558 207.16C179.831 207.26 180.038 207.417 180.178 207.63C180.325 207.843 180.395 208.133 180.388 208.5C180.388 208.847 180.305 209.14 180.138 209.38C179.978 209.62 179.751 209.803 179.458 209.93C179.171 210.057 178.835 210.12 178.448 210.12ZM182.166 210V204.18C182.166 203.86 182.219 203.6 182.326 203.4C182.432 203.193 182.589 203.043 182.796 202.95C183.009 202.85 183.269 202.8 183.576 202.8H184.346V203.52H183.716C183.462 203.52 183.279 203.573 183.166 203.68C183.059 203.78 183.006 203.957 183.006 204.21V210H182.166ZM181.346 205.45V204.74H184.406V205.45H181.346ZM187.539 210.12C187.152 210.12 186.816 210.047 186.529 209.9C186.242 209.753 186.019 209.53 185.859 209.23C185.699 208.923 185.619 208.543 185.619 208.09V204.74H186.459V208C186.459 208.467 186.572 208.817 186.799 209.05C187.032 209.283 187.342 209.4 187.729 209.4C187.996 209.4 188.236 209.34 188.449 209.22C188.662 209.093 188.832 208.91 188.959 208.67C189.092 208.43 189.159 208.137 189.159 207.79V204.74H189.999V210H189.239L189.189 209.16C189.049 209.467 188.832 209.703 188.539 209.87C188.252 210.037 187.919 210.12 187.539 210.12ZM191.621 210V202.8H192.461V210H191.621Z" fill="white"/>
<path d="M146.77 236V229H151.03V229.69H147.61V232.15H150.52V232.83H147.61V236H146.77ZM153.599 236.12C153.199 236.12 152.865 236.047 152.599 235.9C152.332 235.747 152.132 235.547 151.999 235.3C151.865 235.047 151.799 234.777 151.799 234.49C151.799 234.143 151.885 233.85 152.059 233.61C152.239 233.363 152.489 233.177 152.809 233.05C153.129 232.923 153.502 232.86 153.929 232.86H155.239C155.239 232.52 155.199 232.237 155.119 232.01C155.039 231.783 154.909 231.613 154.729 231.5C154.549 231.387 154.309 231.33 154.009 231.33C153.709 231.33 153.452 231.407 153.239 231.56C153.025 231.707 152.892 231.927 152.839 232.22H151.979C152.019 231.873 152.135 231.583 152.329 231.35C152.522 231.11 152.765 230.93 153.059 230.81C153.359 230.683 153.675 230.62 154.009 230.62C154.482 230.62 154.872 230.707 155.179 230.88C155.485 231.047 155.712 231.283 155.859 231.59C156.005 231.89 156.079 232.247 156.079 232.66V236H155.329L155.279 235.1C155.212 235.24 155.125 235.373 155.019 235.5C154.919 235.62 154.799 235.727 154.659 235.82C154.519 235.913 154.359 235.987 154.179 236.04C154.005 236.093 153.812 236.12 153.599 236.12ZM153.719 235.41C153.939 235.41 154.142 235.36 154.329 235.26C154.515 235.16 154.675 235.027 154.809 234.86C154.949 234.687 155.055 234.493 155.129 234.28C155.202 234.067 155.239 233.843 155.239 233.61V233.51H153.999C153.685 233.51 153.429 233.55 153.229 233.63C153.035 233.71 152.895 233.823 152.809 233.97C152.722 234.11 152.679 234.27 152.679 234.45C152.679 234.643 152.719 234.813 152.799 234.96C152.879 235.1 152.995 235.21 153.149 235.29C153.309 235.37 153.499 235.41 153.719 235.41ZM157.747 236V230.74H158.587V236H157.747ZM158.167 229.74C158 229.74 157.86 229.687 157.747 229.58C157.64 229.467 157.587 229.327 157.587 229.16C157.587 228.993 157.64 228.86 157.747 228.76C157.86 228.653 158 228.6 158.167 228.6C158.327 228.6 158.463 228.653 158.577 228.76C158.69 228.86 158.747 228.993 158.747 229.16C158.747 229.327 158.69 229.467 158.577 229.58C158.463 229.687 158.327 229.74 158.167 229.74ZM160.279 236V228.8H161.119V236H160.279ZM164.915 236.12C164.448 236.12 164.035 236.007 163.675 235.78C163.315 235.553 163.031 235.233 162.825 234.82C162.625 234.407 162.525 233.923 162.525 233.37C162.525 232.817 162.625 232.333 162.825 231.92C163.031 231.507 163.315 231.187 163.675 230.96C164.041 230.733 164.461 230.62 164.935 230.62C165.441 230.62 165.865 230.733 166.205 230.96C166.545 231.187 166.801 231.49 166.975 231.87C167.148 232.25 167.235 232.667 167.235 233.12C167.235 233.187 167.235 233.253 167.235 233.32C167.235 233.387 167.231 233.467 167.225 233.56H163.155V232.91H166.415C166.401 232.397 166.251 232.007 165.965 231.74C165.685 231.467 165.335 231.33 164.915 231.33C164.635 231.33 164.375 231.4 164.135 231.54C163.901 231.673 163.711 231.873 163.565 232.14C163.418 232.407 163.345 232.74 163.345 233.14V233.42C163.345 233.86 163.418 234.23 163.565 234.53C163.711 234.823 163.901 235.043 164.135 235.19C164.375 235.337 164.635 235.41 164.915 235.41C165.288 235.41 165.581 235.34 165.795 235.2C166.008 235.053 166.165 234.847 166.265 234.58H167.095C167.015 234.873 166.875 235.137 166.675 235.37C166.481 235.603 166.235 235.787 165.935 235.92C165.641 236.053 165.301 236.12 164.915 236.12ZM170.769 236.12C170.302 236.12 169.889 236 169.529 235.76C169.169 235.52 168.889 235.193 168.689 234.78C168.489 234.36 168.389 233.887 168.389 233.36C168.389 232.827 168.489 232.357 168.689 231.95C168.889 231.537 169.169 231.213 169.529 230.98C169.889 230.74 170.305 230.62 170.779 230.62C171.192 230.62 171.545 230.703 171.839 230.87C172.139 231.037 172.375 231.27 172.549 231.57V228.8H173.389V236H172.629L172.559 235.16C172.459 235.327 172.325 235.483 172.159 235.63C171.999 235.777 171.802 235.897 171.569 235.99C171.342 236.077 171.075 236.12 170.769 236.12ZM170.879 235.39C171.212 235.39 171.502 235.31 171.749 235.15C171.995 234.983 172.185 234.75 172.319 234.45C172.452 234.143 172.519 233.783 172.519 233.37C172.519 232.957 172.452 232.6 172.319 232.3C172.185 231.993 171.995 231.76 171.749 231.6C171.502 231.433 171.212 231.35 170.879 231.35C170.565 231.35 170.285 231.433 170.039 231.6C169.792 231.76 169.599 231.993 169.459 232.3C169.319 232.6 169.249 232.957 169.249 233.37C169.249 233.783 169.319 234.143 169.459 234.45C169.599 234.75 169.792 234.983 170.039 235.15C170.285 235.31 170.565 235.39 170.879 235.39Z" fill="white"/>
<rect x="110" y="230" width="28" height="6" rx="2" fill="#AB63A5"/>
</g>
<g filter="url(#filter3_d_2654_28329)">
<rect x="65.5" y="95.5" width="350" height="187" rx="9.5" fill="#111214" stroke="url(#paint4_linear_2654_28329)"/>
<line x1="65.9971" y1="115.496" x2="415.003" y2="115.496" stroke="url(#paint5_linear_2654_28329)"/>
<g clip-path="url(#clip1_2654_28329)">
<path d="M82.7945 104.976C82.7808 104.825 82.758 104.653 82.7124 104.46C82.6669 104.27 82.5985 104.061 82.4982 103.844C82.3979 103.627 82.268 103.402 82.0993 103.183C82.0332 103.097 81.9603 103.013 81.8828 102.931C81.9991 102.431 81.7415 101.997 81.7415 101.997C81.2971 101.967 81.0144 102.147 80.9096 102.229C80.8914 102.221 80.8754 102.211 80.8572 102.204C80.782 102.172 80.7045 102.14 80.6224 102.113C80.5426 102.086 80.4606 102.061 80.3763 102.039C80.2919 102.017 80.2076 101.999 80.121 101.985C80.105 101.982 80.0914 101.98 80.0754 101.977C79.8817 101.306 79.3256 101.025 79.3256 101.025C78.7033 101.452 78.5871 102.049 78.5871 102.049C78.5871 102.049 78.5848 102.061 78.5803 102.083C78.5461 102.093 78.5119 102.105 78.4777 102.115C78.4298 102.13 78.382 102.15 78.3364 102.17C78.2885 102.189 78.2429 102.209 78.1951 102.231C78.1016 102.276 78.0082 102.325 77.917 102.379C77.8281 102.433 77.7415 102.493 77.6572 102.554C77.6458 102.549 77.6344 102.544 77.6344 102.544C76.7728 102.189 76.0093 102.616 76.0093 102.616C75.9387 103.607 76.3535 104.231 76.4355 104.344C76.415 104.406 76.3968 104.468 76.3785 104.529C76.3147 104.754 76.2669 104.983 76.2372 105.222C76.2327 105.257 76.2281 105.291 76.2258 105.326C75.4281 105.752 75.1934 106.623 75.1934 106.623C75.8566 107.449 76.6315 107.5 76.6315 107.5L76.6338 107.498C76.7318 107.688 76.8458 107.868 76.9734 108.038C77.0281 108.109 77.0828 108.176 77.1421 108.243C76.9005 108.992 77.1763 109.614 77.1763 109.614C77.9147 109.643 78.4002 109.263 78.5028 109.177C78.5757 109.204 78.6509 109.229 78.7261 109.249C78.954 109.313 79.1865 109.35 79.419 109.36C79.476 109.362 79.5352 109.365 79.5922 109.362H79.6196H79.6378H79.6743L79.7107 109.36V109.362C80.0595 109.9 80.6703 109.976 80.6703 109.976C81.1056 109.48 81.1307 108.987 81.1307 108.881C81.1307 108.881 81.1307 108.879 81.1307 108.874C81.1307 108.864 81.1307 108.859 81.1307 108.859C81.1307 108.852 81.1307 108.844 81.1307 108.837C81.2218 108.768 81.3085 108.694 81.3905 108.613C81.5637 108.442 81.7164 108.248 81.8441 108.038C81.8555 108.018 81.8669 107.999 81.8783 107.979C82.3706 108.008 82.7193 107.648 82.7193 107.648C82.6372 107.094 82.3455 106.822 82.284 106.771C82.284 106.771 82.2817 106.768 82.2771 106.766C82.2726 106.763 82.2726 106.761 82.2726 106.761C82.2703 106.758 82.2657 106.756 82.2612 106.753C82.2634 106.719 82.2657 106.687 82.268 106.652C82.2726 106.593 82.2726 106.531 82.2726 106.472V106.428V106.406V106.393C82.2726 106.379 82.2726 106.383 82.2726 106.379L82.2703 106.342L82.268 106.292C82.268 106.275 82.2657 106.26 82.2634 106.245C82.2612 106.231 82.2612 106.213 82.2589 106.199L82.2543 106.152L82.2475 106.105C82.2384 106.043 82.2293 105.984 82.2156 105.922C82.1632 105.683 82.0765 105.456 81.9649 105.252C81.8509 105.047 81.7096 104.867 81.5478 104.714C81.3882 104.561 81.2082 104.438 81.0213 104.347C80.8321 104.256 80.6361 104.196 80.4401 104.169C80.3421 104.154 80.2441 104.15 80.1461 104.152H80.1096H80.1005C80.0982 104.152 80.0868 104.152 80.0891 104.152H80.0731L80.0367 104.154C80.023 104.154 80.0093 104.157 79.9979 104.157C79.9478 104.162 79.8976 104.169 79.8498 104.179C79.6538 104.219 79.4691 104.295 79.3073 104.401C79.1455 104.507 79.0042 104.638 78.8902 104.786C78.7763 104.934 78.6874 105.099 78.6258 105.269C78.5643 105.439 78.5301 105.617 78.521 105.787C78.5187 105.829 78.5187 105.873 78.5187 105.915C78.5187 105.925 78.5187 105.937 78.5187 105.947L78.521 105.982C78.5233 106.001 78.5233 106.023 78.5256 106.043C78.5324 106.129 78.5483 106.213 78.5689 106.292C78.6122 106.453 78.6805 106.598 78.7649 106.721C78.8492 106.845 78.9518 106.946 79.0589 107.027C79.166 107.106 79.2822 107.163 79.3962 107.2C79.5102 107.237 79.6241 107.251 79.7313 107.251C79.7449 107.251 79.7586 107.251 79.77 107.251C79.7768 107.251 79.7837 107.251 79.7905 107.251C79.7973 107.251 79.8042 107.251 79.811 107.249C79.8224 107.249 79.8338 107.246 79.8452 107.246C79.8475 107.246 79.852 107.246 79.8543 107.244L79.8657 107.242C79.8726 107.242 79.8794 107.239 79.8862 107.239C79.8999 107.237 79.9113 107.234 79.925 107.232C79.9387 107.229 79.9501 107.227 79.9615 107.222C79.9865 107.217 80.0093 107.207 80.0321 107.2C80.0777 107.182 80.1233 107.163 80.162 107.14C80.203 107.118 80.2395 107.091 80.276 107.066C80.2851 107.059 80.2965 107.052 80.3056 107.042C80.3421 107.01 80.3489 106.951 80.3193 106.911C80.2942 106.877 80.2486 106.867 80.2122 106.889C80.203 106.894 80.1939 106.899 80.1848 106.904C80.1529 106.921 80.121 106.936 80.0868 106.948C80.0526 106.96 80.0162 106.97 79.9797 106.978C79.9615 106.98 79.9432 106.983 79.9227 106.985C79.9136 106.985 79.9045 106.988 79.8931 106.988C79.884 106.988 79.8726 106.988 79.8657 106.988C79.8566 106.988 79.8475 106.988 79.8384 106.988C79.827 106.988 79.8156 106.988 79.8042 106.985C79.8042 106.985 79.7973 106.985 79.8019 106.985H79.7973H79.7905C79.786 106.985 79.7791 106.985 79.7746 106.983C79.7632 106.98 79.754 106.98 79.7426 106.978C79.6583 106.965 79.574 106.938 79.4942 106.899C79.4122 106.859 79.3347 106.805 79.264 106.736C79.1934 106.667 79.1318 106.586 79.084 106.492C79.0361 106.398 79.0019 106.295 78.986 106.186C78.9791 106.132 78.9746 106.075 78.9768 106.021C78.9768 106.006 78.9791 105.991 78.9791 105.977C78.9791 105.982 78.9791 105.974 78.9791 105.974V105.969V105.957C78.9791 105.949 78.9814 105.942 78.9814 105.935C78.9837 105.905 78.9882 105.876 78.9928 105.846C79.0315 105.609 79.1409 105.377 79.3096 105.202C79.3529 105.158 79.3985 105.119 79.4464 105.082C79.4942 105.045 79.5466 105.013 79.6013 104.985C79.656 104.958 79.7107 104.936 79.77 104.919C79.827 104.902 79.8862 104.892 79.9478 104.884C79.9774 104.882 80.007 104.879 80.0389 104.879C80.0481 104.879 80.0526 104.879 80.0595 104.879H80.0845H80.1005C80.1073 104.879 80.1005 104.879 80.1028 104.879H80.1096L80.1347 104.882C80.2008 104.887 80.2646 104.897 80.3284 104.914C80.456 104.943 80.5814 104.995 80.6976 105.064C80.9301 105.205 81.1284 105.422 81.2492 105.683C81.3107 105.814 81.354 105.954 81.3746 106.1C81.3791 106.137 81.3837 106.174 81.386 106.211L81.3882 106.238L81.3905 106.265C81.3905 106.275 81.3905 106.285 81.3905 106.292C81.3905 106.302 81.3905 106.312 81.3905 106.319V106.344V106.371C81.3905 106.388 81.3882 106.418 81.3882 106.435C81.386 106.475 81.3814 106.517 81.3768 106.556C81.3723 106.596 81.3654 106.635 81.3586 106.674C81.3518 106.714 81.3426 106.753 81.3335 106.79C81.3153 106.867 81.2925 106.943 81.2652 107.02C81.2105 107.168 81.1375 107.311 81.0509 107.441C80.8754 107.703 80.6361 107.915 80.3626 108.05C80.2258 108.117 80.0822 108.166 79.9341 108.191C79.8612 108.206 79.786 108.213 79.7107 108.216H79.6971H79.6857H79.6606H79.6241H79.6059C79.615 108.216 79.6036 108.216 79.6036 108.216H79.5968C79.5558 108.216 79.517 108.213 79.476 108.208C79.3164 108.196 79.1592 108.164 79.0042 108.117C78.8515 108.07 78.7033 108.003 78.562 107.925C78.2817 107.762 78.0287 107.54 77.8327 107.271C77.7347 107.138 77.6481 106.993 77.5774 106.842C77.5067 106.692 77.4498 106.531 77.4087 106.371C77.3677 106.208 77.3426 106.043 77.3313 105.876L77.329 105.843V105.836V105.829V105.814V105.787V105.779V105.769V105.75V105.71V105.703C77.329 105.703 77.329 105.705 77.329 105.7V105.686C77.329 105.666 77.329 105.644 77.329 105.624C77.3313 105.543 77.3381 105.456 77.3472 105.373C77.3563 105.289 77.37 105.202 77.386 105.119C77.4019 105.035 77.4201 104.951 77.4429 104.867C77.4862 104.702 77.5409 104.542 77.6048 104.391C77.7347 104.09 77.9033 103.822 78.1062 103.607C78.1563 103.553 78.2087 103.503 78.2634 103.454C78.3181 103.407 78.3751 103.363 78.4344 103.321C78.4914 103.279 78.5529 103.242 78.6144 103.208C78.6441 103.19 78.676 103.173 78.7079 103.158C78.7238 103.151 78.7398 103.143 78.7558 103.136C78.7717 103.129 78.7877 103.121 78.8036 103.114C78.8674 103.084 78.9335 103.06 79.0019 103.037C79.0179 103.033 79.0361 103.028 79.052 103.02C79.068 103.015 79.0862 103.01 79.1022 103.005C79.1364 102.996 79.1706 102.986 79.2048 102.978C79.2207 102.973 79.2389 102.971 79.2572 102.966C79.2754 102.961 79.2914 102.959 79.3096 102.954C79.3278 102.951 79.3438 102.946 79.362 102.944L79.3871 102.939L79.4144 102.934C79.4327 102.931 79.4486 102.929 79.4669 102.926C79.4874 102.924 79.5056 102.922 79.5261 102.919C79.5421 102.917 79.5694 102.914 79.5854 102.912C79.5968 102.909 79.6105 102.909 79.6218 102.907L79.6469 102.904L79.6583 102.902H79.672C79.6925 102.899 79.7107 102.899 79.7313 102.897L79.7609 102.894C79.7609 102.894 79.7723 102.894 79.7632 102.894H79.77H79.7837C79.7996 102.894 79.8179 102.892 79.8338 102.892C79.8999 102.89 79.9683 102.89 80.0344 102.892C80.1666 102.897 80.2965 102.914 80.4218 102.939C80.6748 102.991 80.9119 103.077 81.1284 103.193C81.3449 103.306 81.5364 103.447 81.705 103.6C81.7164 103.61 81.7256 103.619 81.7369 103.629C81.7461 103.639 81.7575 103.649 81.7666 103.659C81.7871 103.679 81.8053 103.698 81.8258 103.718C81.8464 103.738 81.8646 103.757 81.8828 103.777C81.9011 103.797 81.9193 103.817 81.9375 103.839C82.0082 103.92 82.0743 104.002 82.1335 104.085C82.252 104.251 82.3478 104.418 82.423 104.576C82.4275 104.586 82.4321 104.596 82.4367 104.606C82.4412 104.616 82.4458 104.625 82.4503 104.635C82.4595 104.655 82.4686 104.675 82.4754 104.694C82.4845 104.714 82.4914 104.731 82.5005 104.751C82.5073 104.771 82.5164 104.788 82.5233 104.808C82.5506 104.882 82.578 104.953 82.5985 105.02C82.6327 105.128 82.6577 105.225 82.6783 105.308C82.6851 105.343 82.7147 105.365 82.7466 105.36C82.7808 105.358 82.8059 105.328 82.8059 105.291C82.8082 105.202 82.8059 105.096 82.7945 104.976Z" fill="url(#paint6_linear_2654_28329)"/>
</g>
<rect x="75" y="126" width="331" height="147" rx="5" fill="#1D1F22"/>
<path d="M336.801 154.801C344.356 162.138 349.847 171.336 352.722 181.468L335.405 186.381C333.393 179.288 329.549 172.85 324.261 167.714L336.801 154.801Z" fill="url(#paint7_linear_2654_28329)"/>
<path d="M346.914 167.761C354.552 180.942 356.89 196.534 353.455 211.375C350.019 226.217 341.067 239.195 328.414 247.679C315.762 256.163 300.355 259.516 285.321 257.058C270.287 254.601 256.751 246.517 247.458 234.446C238.165 222.375 233.811 207.221 235.28 192.059C236.749 176.896 243.93 162.86 255.368 152.797C266.805 142.735 281.641 137.399 296.868 137.873C312.094 138.347 326.57 144.595 337.359 155.35L324.651 168.098C317.099 160.57 306.966 156.196 296.308 155.865C285.649 155.533 275.264 159.267 267.257 166.311C259.251 173.355 254.224 183.18 253.196 193.794C252.168 204.408 255.215 215.016 261.72 223.465C268.226 231.915 277.701 237.574 288.225 239.294C298.749 241.014 309.533 238.667 318.39 232.729C327.247 226.79 333.514 217.705 335.918 207.316C338.323 196.927 336.686 186.012 331.34 176.786L346.914 167.761Z" fill="#5D97A6"/>
<rect x="335" y="153.844" width="31" height="16" rx="5" fill="white" fill-opacity="0.05"/>
<path d="M343.9 165.988C343.3 165.988 342.792 165.876 342.376 165.652C341.968 165.428 341.64 165.124 341.392 164.74C341.144 164.356 340.96 163.928 340.84 163.456C340.728 162.976 340.672 162.484 340.672 161.98C340.672 161.052 340.8 160.24 341.056 159.544C341.312 158.84 341.68 158.292 342.16 157.9C342.648 157.5 343.232 157.3 343.912 157.3C344.44 157.3 344.892 157.404 345.268 157.612C345.652 157.812 345.952 158.084 346.168 158.428C346.392 158.764 346.528 159.14 346.576 159.556H345.64C345.56 159.116 345.368 158.776 345.064 158.536C344.76 158.296 344.372 158.176 343.9 158.176C343.476 158.176 343.096 158.308 342.76 158.572C342.432 158.836 342.168 159.232 341.968 159.76C341.776 160.288 341.664 160.964 341.632 161.788C341.632 161.804 341.632 161.82 341.632 161.836C341.632 161.852 341.632 161.868 341.632 161.884C341.752 161.628 341.924 161.396 342.148 161.188C342.38 160.972 342.656 160.8 342.976 160.672C343.296 160.536 343.648 160.468 344.032 160.468C344.512 160.468 344.956 160.58 345.364 160.804C345.78 161.028 346.112 161.344 346.36 161.752C346.616 162.152 346.744 162.624 346.744 163.168C346.744 163.64 346.628 164.092 346.396 164.524C346.172 164.956 345.848 165.308 345.424 165.58C345 165.852 344.492 165.988 343.9 165.988ZM343.828 165.1C344.196 165.1 344.52 165.02 344.8 164.86C345.088 164.7 345.312 164.48 345.472 164.2C345.64 163.912 345.724 163.584 345.724 163.216C345.724 162.84 345.64 162.512 345.472 162.232C345.312 161.952 345.088 161.736 344.8 161.584C344.52 161.424 344.196 161.344 343.828 161.344C343.468 161.344 343.14 161.428 342.844 161.596C342.556 161.764 342.324 161.992 342.148 162.28C341.98 162.56 341.896 162.876 341.896 163.228C341.896 163.596 341.98 163.92 342.148 164.2C342.324 164.48 342.556 164.7 342.844 164.86C343.14 165.02 343.468 165.1 343.828 165.1ZM353.027 165.844L357.911 157.444H358.919L354.035 165.844H353.027ZM358.403 165.988C358.043 165.988 357.719 165.908 357.431 165.748C357.143 165.58 356.911 165.344 356.735 165.04C356.567 164.736 356.483 164.38 356.483 163.972C356.483 163.556 356.567 163.2 356.735 162.904C356.911 162.6 357.143 162.368 357.431 162.208C357.719 162.04 358.043 161.956 358.403 161.956C358.771 161.956 359.095 162.04 359.375 162.208C359.663 162.368 359.891 162.6 360.059 162.904C360.227 163.2 360.311 163.556 360.311 163.972C360.311 164.38 360.227 164.736 360.059 165.04C359.891 165.344 359.663 165.58 359.375 165.748C359.087 165.908 358.763 165.988 358.403 165.988ZM358.391 165.208C358.583 165.208 358.759 165.164 358.919 165.076C359.079 164.98 359.207 164.84 359.303 164.656C359.407 164.472 359.459 164.244 359.459 163.972C359.459 163.692 359.411 163.46 359.315 163.276C359.219 163.092 359.091 162.956 358.931 162.868C358.771 162.772 358.595 162.724 358.403 162.724C358.219 162.724 358.043 162.772 357.875 162.868C357.715 162.956 357.583 163.092 357.479 163.276C357.383 163.46 357.335 163.692 357.335 163.972C357.335 164.244 357.383 164.472 357.479 164.656C357.583 164.84 357.715 164.98 357.875 165.076C358.035 165.164 358.207 165.208 358.391 165.208ZM353.639 161.344C353.279 161.344 352.955 161.264 352.667 161.104C352.379 160.936 352.147 160.7 351.971 160.396C351.803 160.092 351.719 159.736 351.719 159.328C351.719 158.912 351.803 158.556 351.971 158.26C352.147 157.956 352.379 157.724 352.667 157.564C352.963 157.396 353.291 157.312 353.651 157.312C354.011 157.312 354.335 157.396 354.623 157.564C354.911 157.724 355.139 157.956 355.307 158.26C355.475 158.556 355.559 158.912 355.559 159.328C355.559 159.736 355.475 160.092 355.307 160.396C355.139 160.7 354.907 160.936 354.611 161.104C354.323 161.264 353.999 161.344 353.639 161.344ZM353.639 160.564C353.831 160.564 354.007 160.52 354.167 160.432C354.327 160.336 354.455 160.196 354.551 160.012C354.647 159.828 354.695 159.6 354.695 159.328C354.695 159.048 354.647 158.816 354.551 158.632C354.455 158.44 354.327 158.3 354.167 158.212C354.007 158.116 353.835 158.068 353.651 158.068C353.467 158.068 353.291 158.116 353.123 158.212C352.955 158.3 352.819 158.44 352.715 158.632C352.619 158.816 352.571 159.048 352.571 159.328C352.571 159.6 352.619 159.828 352.715 160.012C352.819 160.196 352.951 160.336 353.111 160.432C353.279 160.52 353.455 160.564 353.639 160.564Z" fill="#ACADAE"/>
<rect x="209" y="189.844" width="39" height="16" rx="5" fill="white" fill-opacity="0.05"/>
<path d="M217.636 201.988C217.108 201.988 216.656 201.888 216.28 201.688C215.904 201.48 215.604 201.204 215.38 200.86C215.164 200.508 215.032 200.124 214.984 199.708H215.92C216 200.156 216.192 200.504 216.496 200.752C216.8 200.992 217.184 201.112 217.648 201.112C218.072 201.112 218.448 200.984 218.776 200.728C219.104 200.472 219.368 200.084 219.568 199.564C219.776 199.036 219.892 198.368 219.916 197.56C219.916 197.536 219.916 197.512 219.916 197.488C219.916 197.464 219.916 197.44 219.916 197.416C219.796 197.664 219.62 197.896 219.388 198.112C219.156 198.328 218.88 198.5 218.56 198.628C218.248 198.756 217.896 198.82 217.504 198.82C217.032 198.82 216.584 198.708 216.16 198.484C215.744 198.26 215.404 197.948 215.14 197.548C214.884 197.14 214.756 196.664 214.756 196.12C214.756 195.648 214.872 195.196 215.104 194.764C215.336 194.332 215.668 193.98 216.1 193.708C216.532 193.436 217.044 193.3 217.636 193.3C218.236 193.3 218.744 193.416 219.16 193.648C219.576 193.872 219.908 194.176 220.156 194.56C220.412 194.936 220.596 195.364 220.708 195.844C220.82 196.324 220.876 196.812 220.876 197.308C220.876 198.228 220.748 199.04 220.492 199.744C220.244 200.448 219.876 201 219.388 201.4C218.908 201.792 218.324 201.988 217.636 201.988ZM217.708 197.944C218.076 197.944 218.408 197.86 218.704 197.692C219 197.524 219.232 197.296 219.4 197.008C219.576 196.72 219.664 196.404 219.664 196.06C219.664 195.692 219.576 195.368 219.4 195.088C219.232 194.808 219 194.588 218.704 194.428C218.408 194.268 218.076 194.188 217.708 194.188C217.34 194.188 217.008 194.272 216.712 194.44C216.424 194.6 216.196 194.82 216.028 195.1C215.86 195.38 215.776 195.704 215.776 196.072C215.776 196.448 215.86 196.776 216.028 197.056C216.196 197.336 216.424 197.556 216.712 197.716C217.008 197.868 217.34 197.944 217.708 197.944ZM226.479 201.844V200.044H222.219V199.264L226.299 193.444H227.475V199.156H228.723V200.044H227.475V201.844H226.479ZM223.335 199.156H226.527V194.56L223.335 199.156ZM234.472 201.844L239.356 193.444H240.364L235.48 201.844H234.472ZM239.764 201.988C239.404 201.988 239.08 201.908 238.792 201.748C238.504 201.58 238.272 201.344 238.096 201.04C237.928 200.736 237.844 200.38 237.844 199.972C237.844 199.556 237.928 199.2 238.096 198.904C238.272 198.6 238.504 198.368 238.792 198.208C239.08 198.04 239.404 197.956 239.764 197.956C240.132 197.956 240.456 198.04 240.736 198.208C241.024 198.368 241.252 198.6 241.42 198.904C241.588 199.2 241.672 199.556 241.672 199.972C241.672 200.38 241.588 200.736 241.42 201.04C241.252 201.344 241.024 201.58 240.736 201.748C240.448 201.908 240.124 201.988 239.764 201.988ZM239.752 201.208C239.944 201.208 240.12 201.164 240.28 201.076C240.44 200.98 240.568 200.84 240.664 200.656C240.768 200.472 240.82 200.244 240.82 199.972C240.82 199.692 240.772 199.46 240.676 199.276C240.58 199.092 240.452 198.956 240.292 198.868C240.132 198.772 239.956 198.724 239.764 198.724C239.58 198.724 239.404 198.772 239.236 198.868C239.076 198.956 238.944 199.092 238.84 199.276C238.744 199.46 238.696 199.692 238.696 199.972C238.696 200.244 238.744 200.472 238.84 200.656C238.944 200.84 239.076 200.98 239.236 201.076C239.396 201.164 239.568 201.208 239.752 201.208ZM235.144 197.344C234.784 197.344 234.46 197.264 234.172 197.104C233.884 196.936 233.652 196.7 233.476 196.396C233.308 196.092 233.224 195.736 233.224 195.328C233.224 194.912 233.308 194.556 233.476 194.26C233.652 193.956 233.884 193.724 234.172 193.564C234.468 193.396 234.796 193.312 235.156 193.312C235.516 193.312 235.84 193.396 236.128 193.564C236.416 193.724 236.644 193.956 236.812 194.26C236.98 194.556 237.064 194.912 237.064 195.328C237.064 195.736 236.98 196.092 236.812 196.396C236.644 196.7 236.412 196.936 236.116 197.104C235.828 197.264 235.504 197.344 235.144 197.344ZM235.144 196.564C235.336 196.564 235.512 196.52 235.672 196.432C235.832 196.336 235.96 196.196 236.056 196.012C236.152 195.828 236.2 195.6 236.2 195.328C236.2 195.048 236.152 194.816 236.056 194.632C235.96 194.44 235.832 194.3 235.672 194.212C235.512 194.116 235.34 194.068 235.156 194.068C234.972 194.068 234.796 194.116 234.628 194.212C234.46 194.3 234.324 194.44 234.22 194.632C234.124 194.816 234.076 195.048 234.076 195.328C234.076 195.6 234.124 195.828 234.22 196.012C234.324 196.196 234.456 196.336 234.616 196.432C234.784 196.52 234.96 196.564 235.144 196.564Z" fill="#ACADAE"/>
<rect x="90" y="184" width="28" height="6" rx="2" fill="#5D97A6"/>
<path d="M129.01 190.12C128.497 190.12 128.05 190.027 127.67 189.84C127.29 189.653 126.997 189.393 126.79 189.06C126.583 188.727 126.48 188.34 126.48 187.9H127.36C127.36 188.173 127.423 188.427 127.55 188.66C127.677 188.887 127.86 189.07 128.1 189.21C128.347 189.343 128.65 189.41 129.01 189.41C129.323 189.41 129.59 189.36 129.81 189.26C130.037 189.153 130.207 189.01 130.32 188.83C130.44 188.65 130.5 188.447 130.5 188.22C130.5 187.967 130.443 187.757 130.33 187.59C130.223 187.417 130.073 187.277 129.88 187.17C129.687 187.057 129.463 186.957 129.21 186.87C128.957 186.783 128.683 186.693 128.39 186.6C127.803 186.413 127.377 186.18 127.11 185.9C126.85 185.613 126.72 185.247 126.72 184.8C126.72 184.42 126.807 184.087 126.98 183.8C127.16 183.513 127.413 183.29 127.74 183.13C128.073 182.963 128.467 182.88 128.92 182.88C129.367 182.88 129.753 182.963 130.08 183.13C130.413 183.297 130.673 183.527 130.86 183.82C131.047 184.107 131.14 184.44 131.14 184.82H130.26C130.26 184.627 130.21 184.437 130.11 184.25C130.01 184.063 129.857 183.91 129.65 183.79C129.45 183.663 129.197 183.6 128.89 183.6C128.637 183.593 128.41 183.637 128.21 183.73C128.017 183.817 127.863 183.943 127.75 184.11C127.643 184.277 127.59 184.48 127.59 184.72C127.59 184.947 127.637 185.13 127.73 185.27C127.83 185.41 127.97 185.53 128.15 185.63C128.337 185.723 128.553 185.81 128.8 185.89C129.047 185.97 129.32 186.06 129.62 186.16C129.96 186.273 130.26 186.413 130.52 186.58C130.787 186.74 130.993 186.947 131.14 187.2C131.293 187.453 131.37 187.777 131.37 188.17C131.37 188.503 131.28 188.82 131.1 189.12C130.927 189.413 130.667 189.653 130.32 189.84C129.973 190.027 129.537 190.12 129.01 190.12ZM134.659 190.12C134.273 190.12 133.936 190.047 133.649 189.9C133.363 189.753 133.139 189.53 132.979 189.23C132.819 188.923 132.739 188.543 132.739 188.09V184.74H133.579V188C133.579 188.467 133.693 188.817 133.919 189.05C134.153 189.283 134.463 189.4 134.849 189.4C135.116 189.4 135.356 189.34 135.569 189.22C135.783 189.093 135.953 188.91 136.079 188.67C136.213 188.43 136.279 188.137 136.279 187.79V184.74H137.119V190H136.359L136.309 189.16C136.169 189.467 135.953 189.703 135.659 189.87C135.373 190.037 135.039 190.12 134.659 190.12ZM141.011 190.12C140.531 190.12 140.104 190.007 139.731 189.78C139.358 189.547 139.064 189.223 138.851 188.81C138.638 188.397 138.531 187.917 138.531 187.37C138.531 186.817 138.638 186.337 138.851 185.93C139.064 185.517 139.358 185.197 139.731 184.97C140.104 184.737 140.531 184.62 141.011 184.62C141.611 184.62 142.111 184.78 142.511 185.1C142.918 185.42 143.178 185.85 143.291 186.39H142.431C142.358 186.057 142.188 185.8 141.921 185.62C141.661 185.433 141.354 185.34 141.001 185.34C140.694 185.34 140.418 185.417 140.171 185.57C139.931 185.723 139.741 185.95 139.601 186.25C139.461 186.55 139.391 186.923 139.391 187.37C139.391 187.703 139.431 188 139.511 188.26C139.591 188.513 139.701 188.727 139.841 188.9C139.988 189.067 140.158 189.193 140.351 189.28C140.551 189.367 140.768 189.41 141.001 189.41C141.241 189.41 141.458 189.37 141.651 189.29C141.851 189.203 142.018 189.08 142.151 188.92C142.291 188.76 142.384 188.57 142.431 188.35H143.291C143.184 188.877 142.924 189.303 142.511 189.63C142.104 189.957 141.604 190.12 141.011 190.12ZM146.982 190.12C146.502 190.12 146.076 190.007 145.702 189.78C145.329 189.547 145.036 189.223 144.822 188.81C144.609 188.397 144.502 187.917 144.502 187.37C144.502 186.817 144.609 186.337 144.822 185.93C145.036 185.517 145.329 185.197 145.702 184.97C146.076 184.737 146.502 184.62 146.982 184.62C147.582 184.62 148.082 184.78 148.482 185.1C148.889 185.42 149.149 185.85 149.262 186.39H148.402C148.329 186.057 148.159 185.8 147.892 185.62C147.632 185.433 147.326 185.34 146.972 185.34C146.666 185.34 146.389 185.417 146.142 185.57C145.902 185.723 145.712 185.95 145.572 186.25C145.432 186.55 145.362 186.923 145.362 187.37C145.362 187.703 145.402 188 145.482 188.26C145.562 188.513 145.672 188.727 145.812 188.9C145.959 189.067 146.129 189.193 146.322 189.28C146.522 189.367 146.739 189.41 146.972 189.41C147.212 189.41 147.429 189.37 147.622 189.29C147.822 189.203 147.989 189.08 148.122 188.92C148.262 188.76 148.356 188.57 148.402 188.35H149.262C149.156 188.877 148.896 189.303 148.482 189.63C148.076 189.957 147.576 190.12 146.982 190.12ZM152.864 190.12C152.397 190.12 151.984 190.007 151.624 189.78C151.264 189.553 150.98 189.233 150.774 188.82C150.574 188.407 150.474 187.923 150.474 187.37C150.474 186.817 150.574 186.333 150.774 185.92C150.98 185.507 151.264 185.187 151.624 184.96C151.99 184.733 152.41 184.62 152.884 184.62C153.39 184.62 153.814 184.733 154.154 184.96C154.494 185.187 154.75 185.49 154.924 185.87C155.097 186.25 155.184 186.667 155.184 187.12C155.184 187.187 155.184 187.253 155.184 187.32C155.184 187.387 155.18 187.467 155.174 187.56H151.104V186.91H154.364C154.35 186.397 154.2 186.007 153.914 185.74C153.634 185.467 153.284 185.33 152.864 185.33C152.584 185.33 152.324 185.4 152.084 185.54C151.85 185.673 151.66 185.873 151.514 186.14C151.367 186.407 151.294 186.74 151.294 187.14V187.42C151.294 187.86 151.367 188.23 151.514 188.53C151.66 188.823 151.85 189.043 152.084 189.19C152.324 189.337 152.584 189.41 152.864 189.41C153.237 189.41 153.53 189.34 153.744 189.2C153.957 189.053 154.114 188.847 154.214 188.58H155.044C154.964 188.873 154.824 189.137 154.624 189.37C154.43 189.603 154.184 189.787 153.884 189.92C153.59 190.053 153.25 190.12 152.864 190.12ZM158.448 190.12C157.975 190.12 157.581 190.05 157.268 189.91C156.961 189.763 156.728 189.563 156.568 189.31C156.408 189.05 156.311 188.75 156.278 188.41H157.138C157.165 188.59 157.225 188.757 157.318 188.91C157.418 189.057 157.561 189.177 157.748 189.27C157.935 189.363 158.171 189.41 158.458 189.41C158.685 189.41 158.878 189.377 159.038 189.31C159.198 189.237 159.318 189.137 159.398 189.01C159.485 188.883 159.528 188.737 159.528 188.57C159.528 188.35 159.478 188.18 159.378 188.06C159.285 187.933 159.145 187.84 158.958 187.78C158.778 187.713 158.551 187.663 158.278 187.63C157.985 187.59 157.725 187.533 157.498 187.46C157.271 187.387 157.078 187.29 156.918 187.17C156.765 187.05 156.648 186.9 156.568 186.72C156.488 186.54 156.448 186.327 156.448 186.08C156.448 185.793 156.525 185.54 156.678 185.32C156.831 185.1 157.048 184.93 157.328 184.81C157.615 184.683 157.951 184.62 158.338 184.62C158.905 184.62 159.351 184.75 159.678 185.01C160.011 185.27 160.208 185.64 160.268 186.12H159.438C159.405 185.873 159.291 185.68 159.098 185.54C158.905 185.4 158.648 185.33 158.328 185.33C157.988 185.33 157.731 185.393 157.558 185.52C157.385 185.647 157.298 185.813 157.298 186.02C157.298 186.173 157.335 186.313 157.408 186.44C157.488 186.56 157.621 186.663 157.808 186.75C157.995 186.83 158.245 186.89 158.558 186.93C158.951 186.977 159.285 187.053 159.558 187.16C159.831 187.26 160.038 187.417 160.178 187.63C160.325 187.843 160.395 188.133 160.388 188.5C160.388 188.847 160.305 189.14 160.138 189.38C159.978 189.62 159.751 189.803 159.458 189.93C159.171 190.057 158.835 190.12 158.448 190.12ZM162.166 190V184.18C162.166 183.86 162.219 183.6 162.326 183.4C162.432 183.193 162.589 183.043 162.796 182.95C163.009 182.85 163.269 182.8 163.576 182.8H164.346V183.52H163.716C163.462 183.52 163.279 183.573 163.166 183.68C163.059 183.78 163.006 183.957 163.006 184.21V190H162.166ZM161.346 185.45V184.74H164.406V185.45H161.346ZM167.539 190.12C167.152 190.12 166.816 190.047 166.529 189.9C166.242 189.753 166.019 189.53 165.859 189.23C165.699 188.923 165.619 188.543 165.619 188.09V184.74H166.459V188C166.459 188.467 166.572 188.817 166.799 189.05C167.032 189.283 167.342 189.4 167.729 189.4C167.996 189.4 168.236 189.34 168.449 189.22C168.662 189.093 168.832 188.91 168.959 188.67C169.092 188.43 169.159 188.137 169.159 187.79V184.74H169.999V190H169.239L169.189 189.16C169.049 189.467 168.832 189.703 168.539 189.87C168.252 190.037 167.919 190.12 167.539 190.12ZM171.621 190V182.8H172.461V190H171.621Z" fill="white"/>
<path d="M126.77 216V209H131.03V209.69H127.61V212.15H130.52V212.83H127.61V216H126.77ZM133.599 216.12C133.199 216.12 132.865 216.047 132.599 215.9C132.332 215.747 132.132 215.547 131.999 215.3C131.865 215.047 131.799 214.777 131.799 214.49C131.799 214.143 131.885 213.85 132.059 213.61C132.239 213.363 132.489 213.177 132.809 213.05C133.129 212.923 133.502 212.86 133.929 212.86H135.239C135.239 212.52 135.199 212.237 135.119 212.01C135.039 211.783 134.909 211.613 134.729 211.5C134.549 211.387 134.309 211.33 134.009 211.33C133.709 211.33 133.452 211.407 133.239 211.56C133.025 211.707 132.892 211.927 132.839 212.22H131.979C132.019 211.873 132.135 211.583 132.329 211.35C132.522 211.11 132.765 210.93 133.059 210.81C133.359 210.683 133.675 210.62 134.009 210.62C134.482 210.62 134.872 210.707 135.179 210.88C135.485 211.047 135.712 211.283 135.859 211.59C136.005 211.89 136.079 212.247 136.079 212.66V216H135.329L135.279 215.1C135.212 215.24 135.125 215.373 135.019 215.5C134.919 215.62 134.799 215.727 134.659 215.82C134.519 215.913 134.359 215.987 134.179 216.04C134.005 216.093 133.812 216.12 133.599 216.12ZM133.719 215.41C133.939 215.41 134.142 215.36 134.329 215.26C134.515 215.16 134.675 215.027 134.809 214.86C134.949 214.687 135.055 214.493 135.129 214.28C135.202 214.067 135.239 213.843 135.239 213.61V213.51H133.999C133.685 213.51 133.429 213.55 133.229 213.63C133.035 213.71 132.895 213.823 132.809 213.97C132.722 214.11 132.679 214.27 132.679 214.45C132.679 214.643 132.719 214.813 132.799 214.96C132.879 215.1 132.995 215.21 133.149 215.29C133.309 215.37 133.499 215.41 133.719 215.41ZM137.747 216V210.74H138.587V216H137.747ZM138.167 209.74C138 209.74 137.86 209.687 137.747 209.58C137.64 209.467 137.587 209.327 137.587 209.16C137.587 208.993 137.64 208.86 137.747 208.76C137.86 208.653 138 208.6 138.167 208.6C138.327 208.6 138.463 208.653 138.577 208.76C138.69 208.86 138.747 208.993 138.747 209.16C138.747 209.327 138.69 209.467 138.577 209.58C138.463 209.687 138.327 209.74 138.167 209.74ZM140.279 216V208.8H141.119V216H140.279ZM144.915 216.12C144.448 216.12 144.035 216.007 143.675 215.78C143.315 215.553 143.031 215.233 142.825 214.82C142.625 214.407 142.525 213.923 142.525 213.37C142.525 212.817 142.625 212.333 142.825 211.92C143.031 211.507 143.315 211.187 143.675 210.96C144.041 210.733 144.461 210.62 144.935 210.62C145.441 210.62 145.865 210.733 146.205 210.96C146.545 211.187 146.801 211.49 146.975 211.87C147.148 212.25 147.235 212.667 147.235 213.12C147.235 213.187 147.235 213.253 147.235 213.32C147.235 213.387 147.231 213.467 147.225 213.56H143.155V212.91H146.415C146.401 212.397 146.251 212.007 145.965 211.74C145.685 211.467 145.335 211.33 144.915 211.33C144.635 211.33 144.375 211.4 144.135 211.54C143.901 211.673 143.711 211.873 143.565 212.14C143.418 212.407 143.345 212.74 143.345 213.14V213.42C143.345 213.86 143.418 214.23 143.565 214.53C143.711 214.823 143.901 215.043 144.135 215.19C144.375 215.337 144.635 215.41 144.915 215.41C145.288 215.41 145.581 215.34 145.795 215.2C146.008 215.053 146.165 214.847 146.265 214.58H147.095C147.015 214.873 146.875 215.137 146.675 215.37C146.481 215.603 146.235 215.787 145.935 215.92C145.641 216.053 145.301 216.12 144.915 216.12ZM150.769 216.12C150.302 216.12 149.889 216 149.529 215.76C149.169 215.52 148.889 215.193 148.689 214.78C148.489 214.36 148.389 213.887 148.389 213.36C148.389 212.827 148.489 212.357 148.689 211.95C148.889 211.537 149.169 211.213 149.529 210.98C149.889 210.74 150.305 210.62 150.779 210.62C151.192 210.62 151.545 210.703 151.839 210.87C152.139 211.037 152.375 211.27 152.549 211.57V208.8H153.389V216H152.629L152.559 215.16C152.459 215.327 152.325 215.483 152.159 215.63C151.999 215.777 151.802 215.897 151.569 215.99C151.342 216.077 151.075 216.12 150.769 216.12ZM150.879 215.39C151.212 215.39 151.502 215.31 151.749 215.15C151.995 214.983 152.185 214.75 152.319 214.45C152.452 214.143 152.519 213.783 152.519 213.37C152.519 212.957 152.452 212.6 152.319 212.3C152.185 211.993 151.995 211.76 151.749 211.6C151.502 211.433 151.212 211.35 150.879 211.35C150.565 211.35 150.285 211.433 150.039 211.6C149.792 211.76 149.599 211.993 149.459 212.3C149.319 212.6 149.249 212.957 149.249 213.37C149.249 213.783 149.319 214.143 149.459 214.45C149.599 214.75 149.792 214.983 150.039 215.15C150.285 215.31 150.565 215.39 150.879 215.39Z" fill="white"/>
<rect x="90" y="210" width="28" height="6" rx="2" fill="#AB63A5"/>
</g>
<g filter="url(#filter6_d_2654_28329)">
<g filter="url(#filter7_d_2654_28329)">
<rect x="45.5" y="75.5" width="350" height="187" rx="9.5" fill="#111214" stroke="url(#paint8_linear_2654_28329)"/>
</g>
<line x1="45.9971" y1="95.4961" x2="395.003" y2="95.4961" stroke="url(#paint9_linear_2654_28329)"/>
<g clip-path="url(#clip2_2654_28329)">
<path d="M62.7945 84.9755C62.7808 84.8251 62.758 84.6525 62.7124 84.4602C62.6669 84.2703 62.5985 84.0607 62.4982 83.8437C62.3979 83.6268 62.268 83.4024 62.0993 83.1829C62.0332 83.0966 61.9603 83.0128 61.8828 82.9314C61.9991 82.4309 61.7415 81.9969 61.7415 81.9969C61.2971 81.9673 61.0144 82.1473 60.9096 82.2287C60.8914 82.2213 60.8754 82.2114 60.8572 82.204C60.782 82.172 60.7045 82.1399 60.6224 82.1128C60.5426 82.0857 60.4606 82.061 60.3763 82.0388C60.2919 82.0166 60.2076 81.9994 60.121 81.9846C60.105 81.9821 60.0914 81.9796 60.0754 81.9772C59.8817 81.3065 59.3256 81.0254 59.3256 81.0254C58.7033 81.452 58.5871 82.0487 58.5871 82.0487C58.5871 82.0487 58.5848 82.061 58.5803 82.0832C58.5461 82.0931 58.5119 82.1054 58.4777 82.1153C58.4298 82.13 58.382 82.1498 58.3364 82.1695C58.2885 82.1892 58.2429 82.209 58.1951 82.2311C58.1016 82.2755 58.0082 82.3248 57.917 82.3791C57.8281 82.4333 57.7415 82.4925 57.6572 82.5542C57.6458 82.5492 57.6344 82.5443 57.6344 82.5443C56.7728 82.1892 56.0093 82.6158 56.0093 82.6158C55.9387 83.607 56.3535 84.2309 56.4355 84.3443C56.415 84.4059 56.3968 84.4676 56.3785 84.5292C56.3147 84.7536 56.2669 84.9829 56.2372 85.2221C56.2327 85.2566 56.2281 85.2911 56.2258 85.3257C55.4281 85.7522 55.1934 86.6227 55.1934 86.6227C55.8566 87.4487 56.6315 87.5005 56.6315 87.5005L56.6338 87.498C56.7318 87.6879 56.8458 87.8679 56.9734 88.038C57.0281 88.1095 57.0828 88.1761 57.1421 88.2427C56.9005 88.9922 57.1763 89.6136 57.1763 89.6136C57.9147 89.6432 58.4002 89.2635 58.5028 89.1772C58.5757 89.2043 58.6509 89.229 58.7261 89.2487C58.954 89.3128 59.1865 89.3498 59.419 89.3596C59.476 89.3621 59.5352 89.3646 59.5922 89.3621H59.6196H59.6378H59.6743L59.7107 89.3596V89.3621C60.0595 89.8996 60.6703 89.9761 60.6703 89.9761C61.1056 89.4805 61.1307 88.9873 61.1307 88.8813C61.1307 88.8813 61.1307 88.8788 61.1307 88.8739C61.1307 88.864 61.1307 88.8591 61.1307 88.8591C61.1307 88.8517 61.1307 88.8443 61.1307 88.8369C61.2218 88.7679 61.3085 88.6939 61.3905 88.6125C61.5637 88.4424 61.7164 88.2476 61.8441 88.038C61.8555 88.0183 61.8669 87.9985 61.8783 87.9788C62.3706 88.0084 62.7193 87.6484 62.7193 87.6484C62.6372 87.0936 62.3455 86.8224 62.284 86.7706C62.284 86.7706 62.2817 86.7681 62.2771 86.7657C62.2726 86.7632 62.2726 86.7607 62.2726 86.7607C62.2703 86.7583 62.2657 86.7558 62.2612 86.7533C62.2634 86.7188 62.2657 86.6868 62.268 86.6522C62.2726 86.5931 62.2726 86.5314 62.2726 86.4722V86.4279V86.4057V86.3933C62.2726 86.3785 62.2726 86.3835 62.2726 86.3785L62.2703 86.3416L62.268 86.2922C62.268 86.275 62.2657 86.2602 62.2634 86.2454C62.2612 86.2306 62.2612 86.2133 62.2589 86.1985L62.2543 86.1517L62.2475 86.1048C62.2384 86.0432 62.2293 85.984 62.2156 85.9224C62.1632 85.6832 62.0765 85.4563 61.9649 85.2517C61.8509 85.047 61.7096 84.867 61.5478 84.7142C61.3882 84.5613 61.2082 84.438 61.0213 84.3468C60.8321 84.2555 60.6361 84.1963 60.4401 84.1692C60.3421 84.1544 60.2441 84.1495 60.1461 84.152H60.1096H60.1005C60.0982 84.152 60.0868 84.152 60.0891 84.152H60.0731L60.0367 84.1544C60.023 84.1544 60.0093 84.1569 59.9979 84.1569C59.9478 84.1618 59.8976 84.1692 59.8498 84.1791C59.6538 84.2185 59.4691 84.295 59.3073 84.401C59.1455 84.507 59.0042 84.6377 58.8902 84.7857C58.7763 84.9336 58.6874 85.0988 58.6258 85.269C58.5643 85.4391 58.5301 85.6166 58.521 85.7868C58.5187 85.8287 58.5187 85.8731 58.5187 85.915C58.5187 85.9248 58.5187 85.9372 58.5187 85.947L58.521 85.9816C58.5233 86.0013 58.5233 86.0235 58.5256 86.0432C58.5324 86.1295 58.5483 86.2133 58.5689 86.2922C58.6122 86.4525 58.6805 86.598 58.7649 86.7213C58.8492 86.8446 58.9518 86.9457 59.0589 87.027C59.166 87.1059 59.2822 87.1627 59.3962 87.1996C59.5102 87.2366 59.6241 87.2514 59.7313 87.2514C59.7449 87.2514 59.7586 87.2514 59.77 87.2514C59.7768 87.2514 59.7837 87.2514 59.7905 87.2514C59.7973 87.2514 59.8042 87.2514 59.811 87.249C59.8224 87.249 59.8338 87.2465 59.8452 87.2465C59.8475 87.2465 59.852 87.2465 59.8543 87.244L59.8657 87.2416C59.8726 87.2416 59.8794 87.2391 59.8862 87.2391C59.8999 87.2366 59.9113 87.2342 59.925 87.2317C59.9387 87.2292 59.9501 87.2268 59.9615 87.2218C59.9865 87.2169 60.0093 87.207 60.0321 87.1996C60.0777 87.1824 60.1233 87.1627 60.162 87.1405C60.203 87.1183 60.2395 87.0911 60.276 87.0665C60.2851 87.0591 60.2965 87.0517 60.3056 87.0418C60.3421 87.0098 60.3489 86.9506 60.3193 86.9111C60.2942 86.8766 60.2486 86.8668 60.2122 86.889C60.203 86.8939 60.1939 86.8988 60.1848 86.9037C60.1529 86.921 60.121 86.9358 60.0868 86.9481C60.0526 86.9605 60.0162 86.9703 59.9797 86.9777C59.9615 86.9802 59.9432 86.9827 59.9227 86.9851C59.9136 86.9851 59.9045 86.9876 59.8931 86.9876C59.884 86.9876 59.8726 86.9876 59.8657 86.9876C59.8566 86.9876 59.8475 86.9876 59.8384 86.9876C59.827 86.9876 59.8156 86.9876 59.8042 86.9851C59.8042 86.9851 59.7973 86.9851 59.8019 86.9851H59.7973H59.7905C59.786 86.9851 59.7791 86.9851 59.7746 86.9827C59.7632 86.9802 59.754 86.9802 59.7426 86.9777C59.6583 86.9654 59.574 86.9383 59.4942 86.8988C59.4122 86.8594 59.3347 86.8051 59.264 86.7361C59.1934 86.667 59.1318 86.5857 59.084 86.492C59.0361 86.3983 59.0019 86.2947 58.986 86.1862C58.9791 86.132 58.9746 86.0753 58.9768 86.021C58.9768 86.0062 58.9791 85.9914 58.9791 85.9766C58.9791 85.9816 58.9791 85.9742 58.9791 85.9742V85.9692V85.9569C58.9791 85.9495 58.9814 85.9421 58.9814 85.9347C58.9837 85.9051 58.9882 85.8755 58.9928 85.8459C59.0315 85.6092 59.1409 85.3774 59.3096 85.2024C59.3529 85.158 59.3985 85.1185 59.4464 85.0816C59.4942 85.0446 59.5466 85.0125 59.6013 84.9854C59.656 84.9583 59.7107 84.9361 59.77 84.9188C59.827 84.9016 59.8862 84.8917 59.9478 84.8843C59.9774 84.8818 60.007 84.8794 60.0389 84.8794C60.0481 84.8794 60.0526 84.8794 60.0595 84.8794H60.0845H60.1005C60.1073 84.8794 60.1005 84.8794 60.1028 84.8794H60.1096L60.1347 84.8818C60.2008 84.8868 60.2646 84.8966 60.3284 84.9139C60.456 84.9435 60.5814 84.9953 60.6976 85.0643C60.9301 85.2048 61.1284 85.4218 61.2492 85.6832C61.3107 85.8139 61.354 85.9544 61.3746 86.0999C61.3791 86.1369 61.3837 86.1739 61.386 86.2109L61.3882 86.238L61.3905 86.2651C61.3905 86.275 61.3905 86.2848 61.3905 86.2922C61.3905 86.3021 61.3905 86.312 61.3905 86.3194V86.344V86.3711C61.3905 86.3884 61.3882 86.418 61.3882 86.4353C61.386 86.4747 61.3814 86.5166 61.3768 86.5561C61.3723 86.5955 61.3654 86.635 61.3586 86.6744C61.3518 86.7139 61.3426 86.7533 61.3335 86.7903C61.3153 86.8668 61.2925 86.9432 61.2652 87.0196C61.2105 87.1676 61.1375 87.3106 61.0509 87.4413C60.8754 87.7027 60.6361 87.9147 60.3626 88.0503C60.2258 88.1169 60.0822 88.1662 59.9341 88.1909C59.8612 88.2057 59.786 88.2131 59.7107 88.2155H59.6971H59.6857H59.6606H59.6241H59.6059C59.615 88.2155 59.6036 88.2155 59.6036 88.2155H59.5968C59.5558 88.2155 59.517 88.2131 59.476 88.2081C59.3164 88.1958 59.1592 88.1637 59.0042 88.1169C58.8515 88.07 58.7033 88.0035 58.562 87.9246C58.2817 87.7618 58.0287 87.5399 57.8327 87.2711C57.7347 87.138 57.6481 86.9925 57.5774 86.8421C57.5067 86.6917 57.4498 86.5314 57.4087 86.3711C57.3677 86.2084 57.3426 86.0432 57.3313 85.8755L57.329 85.8435V85.8361V85.8287V85.8139V85.7868V85.7794V85.7695V85.7498V85.7103V85.7029C57.329 85.7029 57.329 85.7054 57.329 85.7005V85.6857C57.329 85.6659 57.329 85.6437 57.329 85.624C57.3313 85.5427 57.3381 85.4563 57.3472 85.3725C57.3563 85.2887 57.37 85.2024 57.386 85.1185C57.4019 85.0347 57.4201 84.9509 57.4429 84.867C57.4862 84.7018 57.5409 84.5416 57.6048 84.3911C57.7347 84.0903 57.9033 83.8216 58.1062 83.607C58.1563 83.5528 58.2087 83.5035 58.2634 83.4542C58.3181 83.4073 58.3751 83.3629 58.4344 83.321C58.4914 83.2791 58.5529 83.2421 58.6144 83.2076C58.6441 83.1903 58.676 83.1731 58.7079 83.1583C58.7238 83.1509 58.7398 83.1435 58.7558 83.1361C58.7717 83.1287 58.7877 83.1213 58.8036 83.1139C58.8674 83.0843 58.9335 83.0596 59.0019 83.0374C59.0179 83.0325 59.0361 83.0276 59.052 83.0202C59.068 83.0153 59.0862 83.0103 59.1022 83.0054C59.1364 82.9955 59.1706 82.9857 59.2048 82.9783C59.2207 82.9733 59.2389 82.9709 59.2572 82.9659C59.2754 82.961 59.2914 82.9585 59.3096 82.9536C59.3278 82.9511 59.3438 82.9462 59.362 82.9437L59.3871 82.9388L59.4144 82.9339C59.4327 82.9314 59.4486 82.929 59.4669 82.9265C59.4874 82.924 59.5056 82.9216 59.5261 82.9191C59.5421 82.9166 59.5694 82.9142 59.5854 82.9117C59.5968 82.9092 59.6105 82.9092 59.6218 82.9068L59.6469 82.9043L59.6583 82.9018H59.672C59.6925 82.8994 59.7107 82.8994 59.7313 82.8969L59.7609 82.8944C59.7609 82.8944 59.7723 82.8944 59.7632 82.8944H59.77H59.7837C59.7996 82.8944 59.8179 82.892 59.8338 82.892C59.8999 82.8895 59.9683 82.8895 60.0344 82.892C60.1666 82.8969 60.2965 82.9142 60.4218 82.9388C60.6748 82.9906 60.9119 83.0769 61.1284 83.1928C61.3449 83.3062 61.5364 83.4468 61.705 83.5996C61.7164 83.6095 61.7256 83.6194 61.7369 83.6292C61.7461 83.6391 61.7575 83.649 61.7666 83.6588C61.7871 83.6785 61.8053 83.6983 61.8258 83.718C61.8464 83.7377 61.8646 83.7574 61.8828 83.7772C61.9011 83.7969 61.9193 83.8166 61.9375 83.8388C62.0082 83.9202 62.0743 84.0016 62.1335 84.0854C62.252 84.2506 62.3478 84.4183 62.423 84.5761C62.4275 84.5859 62.4321 84.5958 62.4367 84.6057C62.4412 84.6155 62.4458 84.6254 62.4503 84.6353C62.4595 84.655 62.4686 84.6747 62.4754 84.6944C62.4845 84.7142 62.4914 84.7314 62.5005 84.7511C62.5073 84.7709 62.5164 84.7881 62.5233 84.8079C62.5506 84.8818 62.578 84.9533 62.5985 85.0199C62.6327 85.1284 62.6577 85.2246 62.6783 85.3084C62.6851 85.3429 62.7147 85.3651 62.7466 85.3602C62.7808 85.3577 62.8059 85.3281 62.8059 85.2911C62.8082 85.2024 62.8059 85.0963 62.7945 84.9755Z" fill="url(#paint10_linear_2654_28329)"/>
</g>
<rect x="55" y="106" width="331" height="147" rx="5" fill="#1D1F22"/>
<path d="M70 139.145L118.459 146.414L138.946 159.498L152.342 139.145L190.164 132.846L207.499 128L227.592 139.145L248.079 167.736L272.899 173.066L291.81 182.758L306.781 195.841L334.754 156.106L362.726 132.846H371V238H70V139.145Z" fill="#A1D2DF" fill-opacity="0.2" stroke="#5D97A6"/>
</g>
<g filter="url(#filter8_d_2654_28329)">
<rect x="25.5" y="55.5" width="350" height="187" rx="9.5" fill="#111214" stroke="url(#paint11_linear_2654_28329)"/>
<line x1="25.9971" y1="75.4961" x2="375.003" y2="75.4961" stroke="url(#paint12_linear_2654_28329)"/>
<g clip-path="url(#clip3_2654_28329)">
<path d="M42.7945 64.9755C42.7808 64.8251 42.758 64.6525 42.7124 64.4602C42.6669 64.2703 42.5985 64.0607 42.4982 63.8437C42.3979 63.6268 42.268 63.4024 42.0993 63.1829C42.0332 63.0966 41.9603 63.0128 41.8828 62.9314C41.9991 62.4309 41.7415 61.9969 41.7415 61.9969C41.2971 61.9673 41.0144 62.1473 40.9096 62.2287C40.8914 62.2213 40.8754 62.2114 40.8572 62.204C40.782 62.172 40.7045 62.1399 40.6224 62.1128C40.5426 62.0857 40.4606 62.061 40.3763 62.0388C40.2919 62.0166 40.2076 61.9994 40.121 61.9846C40.105 61.9821 40.0914 61.9796 40.0754 61.9772C39.8817 61.3065 39.3256 61.0254 39.3256 61.0254C38.7033 61.452 38.5871 62.0487 38.5871 62.0487C38.5871 62.0487 38.5848 62.061 38.5803 62.0832C38.5461 62.0931 38.5119 62.1054 38.4777 62.1153C38.4298 62.13 38.382 62.1498 38.3364 62.1695C38.2885 62.1892 38.2429 62.209 38.1951 62.2311C38.1016 62.2755 38.0082 62.3248 37.917 62.3791C37.8281 62.4333 37.7415 62.4925 37.6572 62.5542C37.6458 62.5492 37.6344 62.5443 37.6344 62.5443C36.7728 62.1892 36.0093 62.6158 36.0093 62.6158C35.9387 63.607 36.3535 64.2309 36.4355 64.3443C36.415 64.4059 36.3968 64.4676 36.3785 64.5292C36.3147 64.7536 36.2669 64.9829 36.2372 65.2221C36.2327 65.2566 36.2281 65.2911 36.2258 65.3257C35.4281 65.7522 35.1934 66.6227 35.1934 66.6227C35.8566 67.4487 36.6315 67.5005 36.6315 67.5005L36.6338 67.498C36.7318 67.6879 36.8458 67.8679 36.9734 68.038C37.0281 68.1095 37.0828 68.1761 37.1421 68.2427C36.9005 68.9922 37.1763 69.6136 37.1763 69.6136C37.9147 69.6432 38.4002 69.2635 38.5028 69.1772C38.5757 69.2043 38.6509 69.229 38.7261 69.2487C38.954 69.3128 39.1865 69.3498 39.419 69.3596C39.476 69.3621 39.5352 69.3646 39.5922 69.3621H39.6196H39.6378H39.6743L39.7107 69.3596V69.3621C40.0595 69.8996 40.6703 69.9761 40.6703 69.9761C41.1056 69.4805 41.1307 68.9873 41.1307 68.8813C41.1307 68.8813 41.1307 68.8788 41.1307 68.8739C41.1307 68.864 41.1307 68.8591 41.1307 68.8591C41.1307 68.8517 41.1307 68.8443 41.1307 68.8369C41.2218 68.7679 41.3085 68.6939 41.3905 68.6125C41.5637 68.4424 41.7164 68.2476 41.8441 68.038C41.8555 68.0183 41.8669 67.9985 41.8783 67.9788C42.3706 68.0084 42.7193 67.6484 42.7193 67.6484C42.6372 67.0936 42.3455 66.8224 42.284 66.7706C42.284 66.7706 42.2817 66.7681 42.2771 66.7657C42.2726 66.7632 42.2726 66.7607 42.2726 66.7607C42.2703 66.7583 42.2657 66.7558 42.2612 66.7533C42.2634 66.7188 42.2657 66.6868 42.268 66.6522C42.2726 66.5931 42.2726 66.5314 42.2726 66.4722V66.4279V66.4057V66.3933C42.2726 66.3785 42.2726 66.3835 42.2726 66.3785L42.2703 66.3416L42.268 66.2922C42.268 66.275 42.2657 66.2602 42.2634 66.2454C42.2612 66.2306 42.2612 66.2133 42.2589 66.1985L42.2543 66.1517L42.2475 66.1048C42.2384 66.0432 42.2293 65.984 42.2156 65.9224C42.1632 65.6832 42.0765 65.4563 41.9649 65.2517C41.8509 65.047 41.7096 64.867 41.5478 64.7142C41.3882 64.5613 41.2082 64.438 41.0213 64.3468C40.8321 64.2555 40.6361 64.1963 40.4401 64.1692C40.3421 64.1544 40.2441 64.1495 40.1461 64.152H40.1096H40.1005C40.0982 64.152 40.0868 64.152 40.0891 64.152H40.0731L40.0367 64.1544C40.023 64.1544 40.0093 64.1569 39.9979 64.1569C39.9478 64.1618 39.8976 64.1692 39.8498 64.1791C39.6538 64.2185 39.4691 64.295 39.3073 64.401C39.1455 64.507 39.0042 64.6377 38.8902 64.7857C38.7763 64.9336 38.6874 65.0988 38.6258 65.269C38.5643 65.4391 38.5301 65.6166 38.521 65.7868C38.5187 65.8287 38.5187 65.8731 38.5187 65.915C38.5187 65.9248 38.5187 65.9372 38.5187 65.947L38.521 65.9816C38.5233 66.0013 38.5233 66.0235 38.5256 66.0432C38.5324 66.1295 38.5483 66.2133 38.5689 66.2922C38.6122 66.4525 38.6805 66.598 38.7649 66.7213C38.8492 66.8446 38.9518 66.9457 39.0589 67.027C39.166 67.1059 39.2822 67.1627 39.3962 67.1996C39.5102 67.2366 39.6241 67.2514 39.7313 67.2514C39.7449 67.2514 39.7586 67.2514 39.77 67.2514C39.7768 67.2514 39.7837 67.2514 39.7905 67.2514C39.7973 67.2514 39.8042 67.2514 39.811 67.249C39.8224 67.249 39.8338 67.2465 39.8452 67.2465C39.8475 67.2465 39.852 67.2465 39.8543 67.244L39.8657 67.2416C39.8726 67.2416 39.8794 67.2391 39.8862 67.2391C39.8999 67.2366 39.9113 67.2342 39.925 67.2317C39.9387 67.2292 39.9501 67.2268 39.9615 67.2218C39.9865 67.2169 40.0093 67.207 40.0321 67.1996C40.0777 67.1824 40.1233 67.1627 40.162 67.1405C40.203 67.1183 40.2395 67.0911 40.276 67.0665C40.2851 67.0591 40.2965 67.0517 40.3056 67.0418C40.3421 67.0098 40.3489 66.9506 40.3193 66.9111C40.2942 66.8766 40.2486 66.8668 40.2122 66.889C40.203 66.8939 40.1939 66.8988 40.1848 66.9037C40.1529 66.921 40.121 66.9358 40.0868 66.9481C40.0526 66.9605 40.0162 66.9703 39.9797 66.9777C39.9615 66.9802 39.9432 66.9827 39.9227 66.9851C39.9136 66.9851 39.9045 66.9876 39.8931 66.9876C39.884 66.9876 39.8726 66.9876 39.8657 66.9876C39.8566 66.9876 39.8475 66.9876 39.8384 66.9876C39.827 66.9876 39.8156 66.9876 39.8042 66.9851C39.8042 66.9851 39.7973 66.9851 39.8019 66.9851H39.7973H39.7905C39.786 66.9851 39.7791 66.9851 39.7746 66.9827C39.7632 66.9802 39.754 66.9802 39.7426 66.9777C39.6583 66.9654 39.574 66.9383 39.4942 66.8988C39.4122 66.8594 39.3347 66.8051 39.264 66.7361C39.1934 66.667 39.1318 66.5857 39.084 66.492C39.0361 66.3983 39.0019 66.2947 38.986 66.1862C38.9791 66.132 38.9746 66.0753 38.9768 66.021C38.9768 66.0062 38.9791 65.9914 38.9791 65.9766C38.9791 65.9816 38.9791 65.9742 38.9791 65.9742V65.9692V65.9569C38.9791 65.9495 38.9814 65.9421 38.9814 65.9347C38.9837 65.9051 38.9882 65.8755 38.9928 65.8459C39.0315 65.6092 39.1409 65.3774 39.3096 65.2024C39.3529 65.158 39.3985 65.1185 39.4464 65.0816C39.4942 65.0446 39.5466 65.0125 39.6013 64.9854C39.656 64.9583 39.7107 64.9361 39.77 64.9188C39.827 64.9016 39.8862 64.8917 39.9478 64.8843C39.9774 64.8818 40.007 64.8794 40.0389 64.8794C40.0481 64.8794 40.0526 64.8794 40.0595 64.8794H40.0845H40.1005C40.1073 64.8794 40.1005 64.8794 40.1028 64.8794H40.1096L40.1347 64.8818C40.2008 64.8868 40.2646 64.8966 40.3284 64.9139C40.456 64.9435 40.5814 64.9953 40.6976 65.0643C40.9301 65.2048 41.1284 65.4218 41.2492 65.6832C41.3107 65.8139 41.354 65.9544 41.3746 66.0999C41.3791 66.1369 41.3837 66.1739 41.386 66.2109L41.3882 66.238L41.3905 66.2651C41.3905 66.275 41.3905 66.2848 41.3905 66.2922C41.3905 66.3021 41.3905 66.312 41.3905 66.3194V66.344V66.3711C41.3905 66.3884 41.3882 66.418 41.3882 66.4353C41.386 66.4747 41.3814 66.5166 41.3768 66.5561C41.3723 66.5955 41.3654 66.635 41.3586 66.6744C41.3518 66.7139 41.3426 66.7533 41.3335 66.7903C41.3153 66.8668 41.2925 66.9432 41.2652 67.0196C41.2105 67.1676 41.1375 67.3106 41.0509 67.4413C40.8754 67.7027 40.6361 67.9147 40.3626 68.0503C40.2258 68.1169 40.0822 68.1662 39.9341 68.1909C39.8612 68.2057 39.786 68.2131 39.7107 68.2155H39.6971H39.6857H39.6606H39.6241H39.6059C39.615 68.2155 39.6036 68.2155 39.6036 68.2155H39.5968C39.5558 68.2155 39.517 68.2131 39.476 68.2081C39.3164 68.1958 39.1592 68.1637 39.0042 68.1169C38.8515 68.07 38.7033 68.0035 38.562 67.9246C38.2817 67.7618 38.0287 67.5399 37.8327 67.2711C37.7347 67.138 37.6481 66.9925 37.5774 66.8421C37.5067 66.6917 37.4498 66.5314 37.4087 66.3711C37.3677 66.2084 37.3426 66.0432 37.3313 65.8755L37.329 65.8435V65.8361V65.8287V65.8139V65.7868V65.7794V65.7695V65.7498V65.7103V65.7029C37.329 65.7029 37.329 65.7054 37.329 65.7005V65.6857C37.329 65.6659 37.329 65.6437 37.329 65.624C37.3313 65.5427 37.3381 65.4563 37.3472 65.3725C37.3563 65.2887 37.37 65.2024 37.386 65.1185C37.4019 65.0347 37.4201 64.9509 37.4429 64.867C37.4862 64.7018 37.5409 64.5416 37.6048 64.3911C37.7347 64.0903 37.9033 63.8216 38.1062 63.607C38.1563 63.5528 38.2087 63.5035 38.2634 63.4542C38.3181 63.4073 38.3751 63.3629 38.4344 63.321C38.4914 63.2791 38.5529 63.2421 38.6144 63.2076C38.6441 63.1903 38.676 63.1731 38.7079 63.1583C38.7238 63.1509 38.7398 63.1435 38.7558 63.1361C38.7717 63.1287 38.7877 63.1213 38.8036 63.1139C38.8674 63.0843 38.9335 63.0596 39.0019 63.0374C39.0179 63.0325 39.0361 63.0276 39.052 63.0202C39.068 63.0153 39.0862 63.0103 39.1022 63.0054C39.1364 62.9955 39.1706 62.9857 39.2048 62.9783C39.2207 62.9733 39.2389 62.9709 39.2572 62.9659C39.2754 62.961 39.2914 62.9585 39.3096 62.9536C39.3278 62.9511 39.3438 62.9462 39.362 62.9437L39.3871 62.9388L39.4144 62.9339C39.4327 62.9314 39.4486 62.929 39.4669 62.9265C39.4874 62.924 39.5056 62.9216 39.5261 62.9191C39.5421 62.9166 39.5694 62.9142 39.5854 62.9117C39.5968 62.9092 39.6105 62.9092 39.6218 62.9068L39.6469 62.9043L39.6583 62.9018H39.672C39.6925 62.8994 39.7107 62.8994 39.7313 62.8969L39.7609 62.8944C39.7609 62.8944 39.7723 62.8944 39.7632 62.8944H39.77H39.7837C39.7996 62.8944 39.8179 62.892 39.8338 62.892C39.8999 62.8895 39.9683 62.8895 40.0344 62.892C40.1666 62.8969 40.2965 62.9142 40.4218 62.9388C40.6748 62.9906 40.9119 63.0769 41.1284 63.1928C41.3449 63.3062 41.5364 63.4468 41.705 63.5996C41.7164 63.6095 41.7256 63.6194 41.7369 63.6292C41.7461 63.6391 41.7575 63.649 41.7666 63.6588C41.7871 63.6785 41.8053 63.6983 41.8258 63.718C41.8464 63.7377 41.8646 63.7574 41.8828 63.7772C41.9011 63.7969 41.9193 63.8166 41.9375 63.8388C42.0082 63.9202 42.0743 64.0016 42.1335 64.0854C42.252 64.2506 42.3478 64.4183 42.423 64.5761C42.4275 64.5859 42.4321 64.5958 42.4367 64.6057C42.4412 64.6155 42.4458 64.6254 42.4503 64.6353C42.4595 64.655 42.4686 64.6747 42.4754 64.6944C42.4845 64.7142 42.4914 64.7314 42.5005 64.7511C42.5073 64.7709 42.5164 64.7881 42.5233 64.8079C42.5506 64.8818 42.578 64.9533 42.5985 65.0199C42.6327 65.1284 42.6577 65.2246 42.6783 65.3084C42.6851 65.3429 42.7147 65.3651 42.7466 65.3602C42.7808 65.3577 42.8059 65.3281 42.8059 65.2911C42.8082 65.2024 42.8059 65.0963 42.7945 64.9755Z" fill="url(#paint13_linear_2654_28329)"/>
</g>
<rect x="35" y="86" width="331" height="147" rx="5" fill="#1D1F22"/>
</g>
<g filter="url(#filter9_d_2654_28329)">
<path d="M50 108C50 105.239 52.2386 103 55 103H73C75.7614 103 78 105.239 78 108V218H50V108Z" fill="#589F8B"/>
</g>
<g filter="url(#filter10_d_2654_28329)">
<path d="M88 126C88 123.239 90.2386 121 93 121H111C113.761 121 116 123.239 116 126V218H88V126Z" fill="#AB63A5"/>
</g>
<g filter="url(#filter11_d_2654_28329)">
<path d="M126 119C126 116.239 128.239 114 131 114H149C151.761 114 154 116.239 154 119V218H126V119Z" fill="#58659F"/>
</g>
<g filter="url(#filter12_d_2654_28329)">
<path d="M164 108C164 105.239 166.239 103 169 103H187C189.761 103 192 105.239 192 108V218H164V108Z" fill="#9F9358"/>
</g>
<g filter="url(#filter13_d_2654_28329)">
<path d="M202 119C202 116.239 204.239 114 207 114H225C227.761 114 230 116.239 230 119V218H202V119Z" fill="#9F5D58"/>
</g>
<g filter="url(#filter14_d_2654_28329)">
<path d="M240 137C240 134.239 242.239 132 245 132H263C265.761 132 268 134.239 268 137V218H240V137Z" fill="#58899F"/>
</g>
<g filter="url(#filter15_d_2654_28329)">
<path d="M278 108C278 105.239 280.239 103 283 103H301C303.761 103 306 105.239 306 108V218H278V108Z" fill="#77589F"/>
</g>
<g filter="url(#filter16_d_2654_28329)">
<path d="M316 126C316 123.239 318.239 121 321 121H339C341.761 121 344 123.239 344 126V218H316V126Z" fill="#589F69"/>
</g>
<defs>
<filter id="filter0_d_2654_28329" x="65" y="95" width="431" height="268" filterUnits="userSpaceOnUse" color-interpolation-filters="sRGB">
<feFlood flood-opacity="0" result="BackgroundImageFix"/>
<feColorMatrix in="SourceAlpha" type="matrix" values="0 0 0 0 0 0 0 0 0 0 0 0 0 0 0 0 0 0 127 0" result="hardAlpha"/>
<feOffset dx="20" dy="20"/>
<feGaussianBlur stdDeviation="20"/>
<feComposite in2="hardAlpha" operator="out"/>
<feColorMatrix type="matrix" values="0 0 0 0 0 0 0 0 0 0 0 0 0 0 0 0 0 0 0.4 0"/>
<feBlend mode="normal" in2="BackgroundImageFix" result="effect1_dropShadow_2654_28329"/>
<feBlend mode="normal" in="SourceGraphic" in2="effect1_dropShadow_2654_28329" result="shape"/>
</filter>
<filter id="filter3_d_2654_28329" x="45" y="75" width="431" height="268" filterUnits="userSpaceOnUse" color-interpolation-filters="sRGB">
<feFlood flood-opacity="0" result="BackgroundImageFix"/>
<feColorMatrix in="SourceAlpha" type="matrix" values="0 0 0 0 0 0 0 0 0 0 0 0 0 0 0 0 0 0 127 0" result="hardAlpha"/>
<feOffset dx="20" dy="20"/>
<feGaussianBlur stdDeviation="20"/>
<feComposite in2="hardAlpha" operator="out"/>
<feColorMatrix type="matrix" values="0 0 0 0 0 0 0 0 0 0 0 0 0 0 0 0 0 0 0.4 0"/>
<feBlend mode="normal" in2="BackgroundImageFix" result="effect1_dropShadow_2654_28329"/>
<feBlend mode="normal" in="SourceGraphic" in2="effect1_dropShadow_2654_28329" result="shape"/>
</filter>
<filter id="filter6_d_2654_28329" x="25" y="55" width="431" height="268" filterUnits="userSpaceOnUse" color-interpolation-filters="sRGB">
<feFlood flood-opacity="0" result="BackgroundImageFix"/>
<feColorMatrix in="SourceAlpha" type="matrix" values="0 0 0 0 0 0 0 0 0 0 0 0 0 0 0 0 0 0 127 0" result="hardAlpha"/>
<feOffset dx="20" dy="20"/>
<feGaussianBlur stdDeviation="20"/>
<feComposite in2="hardAlpha" operator="out"/>
<feColorMatrix type="matrix" values="0 0 0 0 0 0 0 0 0 0 0 0 0 0 0 0 0 0 0.4 0"/>
<feBlend mode="normal" in2="BackgroundImageFix" result="effect1_dropShadow_2654_28329"/>
<feBlend mode="normal" in="SourceGraphic" in2="effect1_dropShadow_2654_28329" result="shape"/>
</filter>
<filter id="filter7_d_2654_28329" x="0" y="0" width="441" height="278" filterUnits="userSpaceOnUse" color-interpolation-filters="sRGB">
<feFlood flood-opacity="0" result="BackgroundImageFix"/>
<feColorMatrix in="SourceAlpha" type="matrix" values="0 0 0 0 0 0 0 0 0 0 0 0 0 0 0 0 0 0 127 0" result="hardAlpha"/>
<feOffset dy="-30"/>
<feGaussianBlur stdDeviation="22.5"/>
<feComposite in2="hardAlpha" operator="out"/>
<feColorMatrix type="matrix" values="0 0 0 0 0 0 0 0 0 0 0 0 0 0 0 0 0 0 0.5 0"/>
<feBlend mode="normal" in2="BackgroundImageFix" result="effect1_dropShadow_2654_28329"/>
<feBlend mode="normal" in="SourceGraphic" in2="effect1_dropShadow_2654_28329" result="shape"/>
</filter>
<filter id="filter8_d_2654_28329" x="5" y="35" width="431" height="268" filterUnits="userSpaceOnUse" color-interpolation-filters="sRGB">
<feFlood flood-opacity="0" result="BackgroundImageFix"/>
<feColorMatrix in="SourceAlpha" type="matrix" values="0 0 0 0 0 0 0 0 0 0 0 0 0 0 0 0 0 0 127 0" result="hardAlpha"/>
<feOffset dx="20" dy="20"/>
<feGaussianBlur stdDeviation="20"/>
<feComposite in2="hardAlpha" operator="out"/>
<feColorMatrix type="matrix" values="0 0 0 0 0 0 0 0 0 0 0 0 0 0 0 0 0 0 0.4 0"/>
<feBlend mode="normal" in2="BackgroundImageFix" result="effect1_dropShadow_2654_28329"/>
<feBlend mode="normal" in="SourceGraphic" in2="effect1_dropShadow_2654_28329" result="shape"/>
</filter>
<filter id="filter9_d_2654_28329" x="35" y="78" width="68" height="155" filterUnits="userSpaceOnUse" color-interpolation-filters="sRGB">
<feFlood flood-opacity="0" result="BackgroundImageFix"/>
<feColorMatrix in="SourceAlpha" type="matrix" values="0 0 0 0 0 0 0 0 0 0 0 0 0 0 0 0 0 0 127 0" result="hardAlpha"/>
<feOffset dx="5" dy="-5"/>
<feGaussianBlur stdDeviation="10"/>
<feComposite in2="hardAlpha" operator="out"/>
<feColorMatrix type="matrix" values="0 0 0 0 0 0 0 0 0 0 0 0 0 0 0 0 0 0 0.5 0"/>
<feBlend mode="normal" in2="BackgroundImageFix" result="effect1_dropShadow_2654_28329"/>
<feBlend mode="normal" in="SourceGraphic" in2="effect1_dropShadow_2654_28329" result="shape"/>
</filter>
<filter id="filter10_d_2654_28329" x="73" y="96" width="68" height="137" filterUnits="userSpaceOnUse" color-interpolation-filters="sRGB">
<feFlood flood-opacity="0" result="BackgroundImageFix"/>
<feColorMatrix in="SourceAlpha" type="matrix" values="0 0 0 0 0 0 0 0 0 0 0 0 0 0 0 0 0 0 127 0" result="hardAlpha"/>
<feOffset dx="5" dy="-5"/>
<feGaussianBlur stdDeviation="10"/>
<feComposite in2="hardAlpha" operator="out"/>
<feColorMatrix type="matrix" values="0 0 0 0 0 0 0 0 0 0 0 0 0 0 0 0 0 0 0.5 0"/>
<feBlend mode="normal" in2="BackgroundImageFix" result="effect1_dropShadow_2654_28329"/>
<feBlend mode="normal" in="SourceGraphic" in2="effect1_dropShadow_2654_28329" result="shape"/>
</filter>
<filter id="filter11_d_2654_28329" x="111" y="89" width="68" height="144" filterUnits="userSpaceOnUse" color-interpolation-filters="sRGB">
<feFlood flood-opacity="0" result="BackgroundImageFix"/>
<feColorMatrix in="SourceAlpha" type="matrix" values="0 0 0 0 0 0 0 0 0 0 0 0 0 0 0 0 0 0 127 0" result="hardAlpha"/>
<feOffset dx="5" dy="-5"/>
<feGaussianBlur stdDeviation="10"/>
<feComposite in2="hardAlpha" operator="out"/>
<feColorMatrix type="matrix" values="0 0 0 0 0 0 0 0 0 0 0 0 0 0 0 0 0 0 0.5 0"/>
<feBlend mode="normal" in2="BackgroundImageFix" result="effect1_dropShadow_2654_28329"/>
<feBlend mode="normal" in="SourceGraphic" in2="effect1_dropShadow_2654_28329" result="shape"/>
</filter>
<filter id="filter12_d_2654_28329" x="149" y="78" width="68" height="155" filterUnits="userSpaceOnUse" color-interpolation-filters="sRGB">
<feFlood flood-opacity="0" result="BackgroundImageFix"/>
<feColorMatrix in="SourceAlpha" type="matrix" values="0 0 0 0 0 0 0 0 0 0 0 0 0 0 0 0 0 0 127 0" result="hardAlpha"/>
<feOffset dx="5" dy="-5"/>
<feGaussianBlur stdDeviation="10"/>
<feComposite in2="hardAlpha" operator="out"/>
<feColorMatrix type="matrix" values="0 0 0 0 0 0 0 0 0 0 0 0 0 0 0 0 0 0 0.5 0"/>
<feBlend mode="normal" in2="BackgroundImageFix" result="effect1_dropShadow_2654_28329"/>
<feBlend mode="normal" in="SourceGraphic" in2="effect1_dropShadow_2654_28329" result="shape"/>
</filter>
<filter id="filter13_d_2654_28329" x="187" y="89" width="68" height="144" filterUnits="userSpaceOnUse" color-interpolation-filters="sRGB">
<feFlood flood-opacity="0" result="BackgroundImageFix"/>
<feColorMatrix in="SourceAlpha" type="matrix" values="0 0 0 0 0 0 0 0 0 0 0 0 0 0 0 0 0 0 127 0" result="hardAlpha"/>
<feOffset dx="5" dy="-5"/>
<feGaussianBlur stdDeviation="10"/>
<feComposite in2="hardAlpha" operator="out"/>
<feColorMatrix type="matrix" values="0 0 0 0 0 0 0 0 0 0 0 0 0 0 0 0 0 0 0.5 0"/>
<feBlend mode="normal" in2="BackgroundImageFix" result="effect1_dropShadow_2654_28329"/>
<feBlend mode="normal" in="SourceGraphic" in2="effect1_dropShadow_2654_28329" result="shape"/>
</filter>
<filter id="filter14_d_2654_28329" x="225" y="107" width="68" height="126" filterUnits="userSpaceOnUse" color-interpolation-filters="sRGB">
<feFlood flood-opacity="0" result="BackgroundImageFix"/>
<feColorMatrix in="SourceAlpha" type="matrix" values="0 0 0 0 0 0 0 0 0 0 0 0 0 0 0 0 0 0 127 0" result="hardAlpha"/>
<feOffset dx="5" dy="-5"/>
<feGaussianBlur stdDeviation="10"/>
<feComposite in2="hardAlpha" operator="out"/>
<feColorMatrix type="matrix" values="0 0 0 0 0 0 0 0 0 0 0 0 0 0 0 0 0 0 0.5 0"/>
<feBlend mode="normal" in2="BackgroundImageFix" result="effect1_dropShadow_2654_28329"/>
<feBlend mode="normal" in="SourceGraphic" in2="effect1_dropShadow_2654_28329" result="shape"/>
</filter>
<filter id="filter15_d_2654_28329" x="263" y="78" width="68" height="155" filterUnits="userSpaceOnUse" color-interpolation-filters="sRGB">
<feFlood flood-opacity="0" result="BackgroundImageFix"/>
<feColorMatrix in="SourceAlpha" type="matrix" values="0 0 0 0 0 0 0 0 0 0 0 0 0 0 0 0 0 0 127 0" result="hardAlpha"/>
<feOffset dx="5" dy="-5"/>
<feGaussianBlur stdDeviation="10"/>
<feComposite in2="hardAlpha" operator="out"/>
<feColorMatrix type="matrix" values="0 0 0 0 0 0 0 0 0 0 0 0 0 0 0 0 0 0 0.5 0"/>
<feBlend mode="normal" in2="BackgroundImageFix" result="effect1_dropShadow_2654_28329"/>
<feBlend mode="normal" in="SourceGraphic" in2="effect1_dropShadow_2654_28329" result="shape"/>
</filter>
<filter id="filter16_d_2654_28329" x="301" y="96" width="68" height="137" filterUnits="userSpaceOnUse" color-interpolation-filters="sRGB">
<feFlood flood-opacity="0" result="BackgroundImageFix"/>
<feColorMatrix in="SourceAlpha" type="matrix" values="0 0 0 0 0 0 0 0 0 0 0 0 0 0 0 0 0 0 127 0" result="hardAlpha"/>
<feOffset dx="5" dy="-5"/>
<feGaussianBlur stdDeviation="10"/>
<feComposite in2="hardAlpha" operator="out"/>
<feColorMatrix type="matrix" values="0 0 0 0 0 0 0 0 0 0 0 0 0 0 0 0 0 0 0.5 0"/>
<feBlend mode="normal" in2="BackgroundImageFix" result="effect1_dropShadow_2654_28329"/>
<feBlend mode="normal" in="SourceGraphic" in2="effect1_dropShadow_2654_28329" result="shape"/>
</filter>
<linearGradient id="paint0_linear_2654_28329" x1="260.5" y1="115" x2="260.5" y2="303" gradientUnits="userSpaceOnUse">
<stop stop-color="#86888E"/>
<stop offset="1" stop-color="#86888E" stop-opacity="0.7"/>
</linearGradient>
<linearGradient id="paint1_linear_2654_28329" x1="85.9971" y1="136.496" x2="435.003" y2="136.496" gradientUnits="userSpaceOnUse">
<stop stop-color="#86888E"/>
<stop offset="1" stop-color="#86888E" stop-opacity="0.7"/>
</linearGradient>
<linearGradient id="paint2_linear_2654_28329" x1="98.9996" y1="123.701" x2="98.9996" y2="129.911" gradientUnits="userSpaceOnUse">
<stop stop-color="#F05A28"/>
<stop offset="1" stop-color="#FBCA0A"/>
</linearGradient>
<linearGradient id="paint3_linear_2654_28329" x1="356.801" y1="174.801" x2="273.199" y2="260.887" gradientUnits="userSpaceOnUse">
<stop stop-color="#A65DA0"/>
<stop offset="1" stop-color="#DA92D4"/>
</linearGradient>
<linearGradient id="paint4_linear_2654_28329" x1="240.5" y1="95" x2="240.5" y2="283" gradientUnits="userSpaceOnUse">
<stop stop-color="#86888E"/>
<stop offset="1" stop-color="#86888E" stop-opacity="0.7"/>
</linearGradient>
<linearGradient id="paint5_linear_2654_28329" x1="65.9971" y1="116.496" x2="415.003" y2="116.496" gradientUnits="userSpaceOnUse">
<stop stop-color="#86888E"/>
<stop offset="1" stop-color="#86888E" stop-opacity="0.7"/>
</linearGradient>
<linearGradient id="paint6_linear_2654_28329" x1="78.9996" y1="103.701" x2="78.9996" y2="109.911" gradientUnits="userSpaceOnUse">
<stop stop-color="#F05A28"/>
<stop offset="1" stop-color="#FBCA0A"/>
</linearGradient>
<linearGradient id="paint7_linear_2654_28329" x1="336.801" y1="154.801" x2="253.199" y2="240.887" gradientUnits="userSpaceOnUse">
<stop stop-color="#A65DA0"/>
<stop offset="1" stop-color="#DA92D4"/>
</linearGradient>
<linearGradient id="paint8_linear_2654_28329" x1="220.5" y1="75" x2="220.5" y2="263" gradientUnits="userSpaceOnUse">
<stop stop-color="#86888E"/>
<stop offset="1" stop-color="#86888E" stop-opacity="0.7"/>
</linearGradient>
<linearGradient id="paint9_linear_2654_28329" x1="45.9971" y1="96.4961" x2="395.003" y2="96.4961" gradientUnits="userSpaceOnUse">
<stop stop-color="#86888E"/>
<stop offset="1" stop-color="#86888E" stop-opacity="0.7"/>
</linearGradient>
<linearGradient id="paint10_linear_2654_28329" x1="58.9996" y1="83.7007" x2="58.9996" y2="89.9107" gradientUnits="userSpaceOnUse">
<stop stop-color="#F05A28"/>
<stop offset="1" stop-color="#FBCA0A"/>
</linearGradient>
<linearGradient id="paint11_linear_2654_28329" x1="200.5" y1="55" x2="200.5" y2="243" gradientUnits="userSpaceOnUse">
<stop stop-color="#86888E"/>
<stop offset="1" stop-color="#86888E" stop-opacity="0.7"/>
</linearGradient>
<linearGradient id="paint12_linear_2654_28329" x1="25.9971" y1="76.4961" x2="375.003" y2="76.4961" gradientUnits="userSpaceOnUse">
<stop stop-color="#86888E"/>
<stop offset="1" stop-color="#86888E" stop-opacity="0.7"/>
</linearGradient>
<linearGradient id="paint13_linear_2654_28329" x1="38.9996" y1="63.7007" x2="38.9996" y2="69.9107" gradientUnits="userSpaceOnUse">
<stop stop-color="#F05A28"/>
<stop offset="1" stop-color="#FBCA0A"/>
</linearGradient>
<clipPath id="clip0_2654_28329">
<rect width="8" height="9" fill="white" transform="translate(95 121)"/>
</clipPath>
<clipPath id="clip1_2654_28329">
<rect width="8" height="9" fill="white" transform="translate(75 101)"/>
</clipPath>
<clipPath id="clip2_2654_28329">
<rect width="8" height="9" fill="white" transform="translate(55 81)"/>
</clipPath>
<clipPath id="clip3_2654_28329">
<rect width="8" height="9" fill="white" transform="translate(35 61)"/>
</clipPath>
</defs>
</svg>
