<svg width="814" height="514" viewBox="0 0 814 514" fill="none" xmlns="http://www.w3.org/2000/svg">
<g filter="url(#filter0_f_2483_57690)">
<ellipse cx="394.5" cy="316.5" rx="188.5" ry="86.5" fill="url(#paint0_linear_2483_57690)"/>
</g>
<g filter="url(#filter1_d_2483_57690)">
<rect x="261.5" y="260.5" width="350" height="187" rx="9.5" fill="#111214" stroke="url(#paint1_linear_2483_57690)"/>
<line x1="261.997" y1="280.496" x2="611.003" y2="280.496" stroke="url(#paint2_linear_2483_57690)"/>
<g clip-path="url(#clip0_2483_57690)">
<path d="M278.795 269.976C278.781 269.825 278.759 269.653 278.713 269.46C278.667 269.27 278.599 269.061 278.499 268.844C278.398 268.627 278.268 268.402 278.1 268.183C278.034 268.097 277.961 268.013 277.883 267.931C278 267.431 277.742 266.997 277.742 266.997C277.298 266.967 277.015 267.147 276.91 267.229C276.892 267.221 276.876 267.211 276.858 267.204C276.782 267.172 276.705 267.14 276.623 267.113C276.543 267.086 276.461 267.061 276.377 267.039C276.292 267.017 276.208 266.999 276.121 266.985C276.106 266.982 276.092 266.98 276.076 266.977C275.882 266.306 275.326 266.025 275.326 266.025C274.704 266.452 274.588 267.049 274.588 267.049C274.588 267.049 274.585 267.061 274.581 267.083C274.547 267.093 274.512 267.105 274.478 267.115C274.43 267.13 274.382 267.15 274.337 267.17C274.289 267.189 274.243 267.209 274.196 267.231C274.102 267.276 274.009 267.325 273.917 267.379C273.829 267.433 273.742 267.493 273.658 267.554C273.646 267.549 273.635 267.544 273.635 267.544C272.773 267.189 272.01 267.616 272.01 267.616C271.939 268.607 272.354 269.231 272.436 269.344C272.415 269.406 272.397 269.468 272.379 269.529C272.315 269.754 272.267 269.983 272.238 270.222C272.233 270.257 272.229 270.291 272.226 270.326C271.429 270.752 271.194 271.623 271.194 271.623C271.857 272.449 272.632 272.5 272.632 272.5L272.634 272.498C272.732 272.688 272.846 272.868 272.974 273.038C273.029 273.109 273.083 273.176 273.143 273.243C272.901 273.992 273.177 274.614 273.177 274.614C273.915 274.643 274.401 274.263 274.503 274.177C274.576 274.204 274.651 274.229 274.727 274.249C274.955 274.313 275.187 274.35 275.419 274.36C275.476 274.362 275.536 274.365 275.593 274.362H275.62H275.638H275.675L275.711 274.36V274.362C276.06 274.9 276.671 274.976 276.671 274.976C277.106 274.48 277.131 273.987 277.131 273.881C277.131 273.881 277.131 273.879 277.131 273.874C277.131 273.864 277.131 273.859 277.131 273.859C277.131 273.852 277.131 273.844 277.131 273.837C277.222 273.768 277.309 273.694 277.391 273.613C277.564 273.442 277.717 273.248 277.845 273.038C277.856 273.018 277.867 272.999 277.879 272.979C278.371 273.008 278.72 272.648 278.72 272.648C278.638 272.094 278.346 271.822 278.284 271.771C278.284 271.771 278.282 271.768 278.278 271.766C278.273 271.763 278.273 271.761 278.273 271.761C278.271 271.758 278.266 271.756 278.262 271.753C278.264 271.719 278.266 271.687 278.268 271.652C278.273 271.593 278.273 271.531 278.273 271.472V271.428V271.406V271.393C278.273 271.379 278.273 271.383 278.273 271.379L278.271 271.342L278.268 271.292C278.268 271.275 278.266 271.26 278.264 271.245C278.262 271.231 278.262 271.213 278.259 271.199L278.255 271.152L278.248 271.105C278.239 271.043 278.23 270.984 278.216 270.922C278.164 270.683 278.077 270.456 277.965 270.252C277.851 270.047 277.71 269.867 277.548 269.714C277.389 269.561 277.209 269.438 277.022 269.347C276.833 269.256 276.637 269.196 276.441 269.169C276.343 269.154 276.245 269.15 276.147 269.152H276.11H276.101C276.099 269.152 276.087 269.152 276.09 269.152H276.074L276.037 269.154C276.023 269.154 276.01 269.157 275.998 269.157C275.948 269.162 275.898 269.169 275.85 269.179C275.654 269.219 275.47 269.295 275.308 269.401C275.146 269.507 275.005 269.638 274.891 269.786C274.777 269.934 274.688 270.099 274.626 270.269C274.565 270.439 274.531 270.617 274.521 270.787C274.519 270.829 274.519 270.873 274.519 270.915C274.519 270.925 274.519 270.937 274.519 270.947L274.521 270.982C274.524 271.001 274.524 271.023 274.526 271.043C274.533 271.129 274.549 271.213 274.569 271.292C274.613 271.453 274.681 271.598 274.765 271.721C274.85 271.845 274.952 271.946 275.059 272.027C275.166 272.106 275.283 272.163 275.397 272.2C275.511 272.237 275.625 272.251 275.732 272.251C275.745 272.251 275.759 272.251 275.77 272.251C275.777 272.251 275.784 272.251 275.791 272.251C275.798 272.251 275.805 272.251 275.812 272.249C275.823 272.249 275.834 272.246 275.846 272.246C275.848 272.246 275.853 272.246 275.855 272.244L275.866 272.242C275.873 272.242 275.88 272.239 275.887 272.239C275.9 272.237 275.912 272.234 275.925 272.232C275.939 272.229 275.951 272.227 275.962 272.222C275.987 272.217 276.01 272.207 276.033 272.2C276.078 272.182 276.124 272.163 276.163 272.14C276.204 272.118 276.24 272.091 276.276 272.066C276.286 272.059 276.297 272.052 276.306 272.042C276.343 272.01 276.349 271.951 276.32 271.911C276.295 271.877 276.249 271.867 276.213 271.889C276.204 271.894 276.194 271.899 276.185 271.904C276.153 271.921 276.121 271.936 276.087 271.948C276.053 271.96 276.017 271.97 275.98 271.978C275.962 271.98 275.944 271.983 275.923 271.985C275.914 271.985 275.905 271.988 275.894 271.988C275.884 271.988 275.873 271.988 275.866 271.988C275.857 271.988 275.848 271.988 275.839 271.988C275.827 271.988 275.816 271.988 275.805 271.985C275.805 271.985 275.798 271.985 275.802 271.985H275.798H275.791C275.786 271.985 275.78 271.985 275.775 271.983C275.764 271.98 275.755 271.98 275.743 271.978C275.659 271.965 275.574 271.938 275.495 271.899C275.413 271.859 275.335 271.805 275.265 271.736C275.194 271.667 275.132 271.586 275.084 271.492C275.037 271.398 275.002 271.295 274.986 271.186C274.98 271.132 274.975 271.075 274.977 271.021C274.977 271.006 274.98 270.991 274.98 270.977C274.98 270.982 274.98 270.974 274.98 270.974V270.969V270.957C274.98 270.95 274.982 270.942 274.982 270.935C274.984 270.905 274.989 270.876 274.993 270.846C275.032 270.609 275.141 270.377 275.31 270.202C275.353 270.158 275.399 270.119 275.447 270.082C275.495 270.045 275.547 270.013 275.602 269.985C275.657 269.958 275.711 269.936 275.77 269.919C275.827 269.902 275.887 269.892 275.948 269.884C275.978 269.882 276.008 269.879 276.039 269.879C276.049 269.879 276.053 269.879 276.06 269.879H276.085H276.101C276.108 269.879 276.101 269.879 276.103 269.879H276.11L276.135 269.882C276.201 269.887 276.265 269.897 276.329 269.914C276.457 269.943 276.582 269.995 276.698 270.064C276.931 270.205 277.129 270.422 277.25 270.683C277.311 270.814 277.355 270.954 277.375 271.1C277.38 271.137 277.384 271.174 277.386 271.211L277.389 271.238L277.391 271.265C277.391 271.275 277.391 271.285 277.391 271.292C277.391 271.302 277.391 271.312 277.391 271.319V271.344V271.371C277.391 271.388 277.389 271.418 277.389 271.435C277.386 271.475 277.382 271.517 277.377 271.556C277.373 271.596 277.366 271.635 277.359 271.674C277.352 271.714 277.343 271.753 277.334 271.79C277.316 271.867 277.293 271.943 277.266 272.02C277.211 272.168 277.138 272.311 277.051 272.441C276.876 272.703 276.637 272.915 276.363 273.05C276.226 273.117 276.083 273.166 275.935 273.191C275.862 273.206 275.786 273.213 275.711 273.216H275.698H275.686H275.661H275.625H275.606C275.615 273.216 275.604 273.216 275.604 273.216H275.597C275.556 273.216 275.517 273.213 275.476 273.208C275.317 273.196 275.16 273.164 275.005 273.117C274.852 273.07 274.704 273.003 274.563 272.925C274.282 272.762 274.029 272.54 273.833 272.271C273.735 272.138 273.649 271.993 273.578 271.842C273.507 271.692 273.45 271.531 273.409 271.371C273.368 271.208 273.343 271.043 273.332 270.876L273.329 270.843V270.836V270.829V270.814V270.787V270.779V270.769V270.75V270.71V270.703C273.329 270.703 273.329 270.705 273.329 270.7V270.686C273.329 270.666 273.329 270.644 273.329 270.624C273.332 270.543 273.339 270.456 273.348 270.373C273.357 270.289 273.37 270.202 273.386 270.119C273.402 270.035 273.421 269.951 273.443 269.867C273.487 269.702 273.541 269.542 273.605 269.391C273.735 269.09 273.904 268.822 274.107 268.607C274.157 268.553 274.209 268.503 274.264 268.454C274.319 268.407 274.376 268.363 274.435 268.321C274.492 268.279 274.553 268.242 274.615 268.208C274.645 268.19 274.676 268.173 274.708 268.158C274.724 268.151 274.74 268.143 274.756 268.136C274.772 268.129 274.788 268.121 274.804 268.114C274.868 268.084 274.934 268.06 275.002 268.037C275.018 268.033 275.037 268.028 275.053 268.02C275.068 268.015 275.087 268.01 275.103 268.005C275.137 267.996 275.171 267.986 275.205 267.978C275.221 267.973 275.239 267.971 275.258 267.966C275.276 267.961 275.292 267.959 275.31 267.954C275.328 267.951 275.344 267.946 275.363 267.944L275.388 267.939L275.415 267.934C275.433 267.931 275.449 267.929 275.467 267.926C275.488 267.924 275.506 267.922 275.527 267.919C275.543 267.917 275.57 267.914 275.586 267.912C275.597 267.909 275.611 267.909 275.622 267.907L275.647 267.904L275.659 267.902H275.672C275.693 267.899 275.711 267.899 275.732 267.897L275.761 267.894C275.761 267.894 275.773 267.894 275.764 267.894H275.77H275.784C275.8 267.894 275.818 267.892 275.834 267.892C275.9 267.89 275.969 267.89 276.035 267.892C276.167 267.897 276.297 267.914 276.422 267.939C276.675 267.991 276.912 268.077 277.129 268.193C277.345 268.306 277.537 268.447 277.706 268.6C277.717 268.61 277.726 268.619 277.737 268.629C277.747 268.639 277.758 268.649 277.767 268.659C277.788 268.679 277.806 268.698 277.826 268.718C277.847 268.738 277.865 268.757 277.883 268.777C277.902 268.797 277.92 268.817 277.938 268.839C278.009 268.92 278.075 269.002 278.134 269.085C278.253 269.251 278.348 269.418 278.423 269.576C278.428 269.586 278.433 269.596 278.437 269.606C278.442 269.616 278.446 269.625 278.451 269.635C278.46 269.655 278.469 269.675 278.476 269.694C278.485 269.714 278.492 269.731 278.501 269.751C278.508 269.771 278.517 269.788 278.524 269.808C278.551 269.882 278.578 269.953 278.599 270.02C278.633 270.128 278.658 270.225 278.679 270.308C278.686 270.343 278.715 270.365 278.747 270.36C278.781 270.358 278.806 270.328 278.806 270.291C278.809 270.202 278.806 270.096 278.795 269.976Z" fill="url(#paint3_linear_2483_57690)"/>
</g>
<rect x="271" y="291" width="331" height="147" rx="5" fill="#1D1F22"/>
<path d="M532.801 319.801C540.356 327.138 545.847 336.336 548.722 346.468L531.405 351.381C529.393 344.288 525.549 337.85 520.261 332.714L532.801 319.801Z" fill="url(#paint4_linear_2483_57690)"/>
<path d="M542.914 332.761C550.552 345.942 552.89 361.534 549.455 376.375C546.019 391.217 537.067 404.195 524.414 412.679C511.762 421.163 496.355 424.516 481.321 422.058C466.287 419.601 452.751 411.517 443.458 399.446C434.165 387.375 429.811 372.221 431.28 357.059C432.749 341.896 439.93 327.86 451.368 317.797C462.805 307.735 477.641 302.399 492.868 302.873C508.094 303.347 522.57 309.595 533.359 320.35L520.651 333.098C513.099 325.57 502.966 321.196 492.308 320.865C481.649 320.533 471.264 324.267 463.257 331.311C455.251 338.355 450.224 348.18 449.196 358.794C448.168 369.408 451.215 380.016 457.72 388.465C464.226 396.915 473.701 402.574 484.225 404.294C494.749 406.014 505.533 403.667 514.39 397.729C523.247 391.79 529.514 382.705 531.918 372.316C534.323 361.927 532.686 351.012 527.34 341.786L542.914 332.761Z" fill="#5D97A6"/>
<rect x="531" y="318.844" width="31" height="16" rx="5" fill="white" fill-opacity="0.05"/>
<path d="M539.9 330.988C539.3 330.988 538.792 330.876 538.376 330.652C537.968 330.428 537.64 330.124 537.392 329.74C537.144 329.356 536.96 328.928 536.84 328.456C536.728 327.976 536.672 327.484 536.672 326.98C536.672 326.052 536.8 325.24 537.056 324.544C537.312 323.84 537.68 323.292 538.16 322.9C538.648 322.5 539.232 322.3 539.912 322.3C540.44 322.3 540.892 322.404 541.268 322.612C541.652 322.812 541.952 323.084 542.168 323.428C542.392 323.764 542.528 324.14 542.576 324.556H541.64C541.56 324.116 541.368 323.776 541.064 323.536C540.76 323.296 540.372 323.176 539.9 323.176C539.476 323.176 539.096 323.308 538.76 323.572C538.432 323.836 538.168 324.232 537.968 324.76C537.776 325.288 537.664 325.964 537.632 326.788C537.632 326.804 537.632 326.82 537.632 326.836C537.632 326.852 537.632 326.868 537.632 326.884C537.752 326.628 537.924 326.396 538.148 326.188C538.38 325.972 538.656 325.8 538.976 325.672C539.296 325.536 539.648 325.468 540.032 325.468C540.512 325.468 540.956 325.58 541.364 325.804C541.78 326.028 542.112 326.344 542.36 326.752C542.616 327.152 542.744 327.624 542.744 328.168C542.744 328.64 542.628 329.092 542.396 329.524C542.172 329.956 541.848 330.308 541.424 330.58C541 330.852 540.492 330.988 539.9 330.988ZM539.828 330.1C540.196 330.1 540.52 330.02 540.8 329.86C541.088 329.7 541.312 329.48 541.472 329.2C541.64 328.912 541.724 328.584 541.724 328.216C541.724 327.84 541.64 327.512 541.472 327.232C541.312 326.952 541.088 326.736 540.8 326.584C540.52 326.424 540.196 326.344 539.828 326.344C539.468 326.344 539.14 326.428 538.844 326.596C538.556 326.764 538.324 326.992 538.148 327.28C537.98 327.56 537.896 327.876 537.896 328.228C537.896 328.596 537.98 328.92 538.148 329.2C538.324 329.48 538.556 329.7 538.844 329.86C539.14 330.02 539.468 330.1 539.828 330.1ZM549.027 330.844L553.911 322.444H554.919L550.035 330.844H549.027ZM554.403 330.988C554.043 330.988 553.719 330.908 553.431 330.748C553.143 330.58 552.911 330.344 552.735 330.04C552.567 329.736 552.483 329.38 552.483 328.972C552.483 328.556 552.567 328.2 552.735 327.904C552.911 327.6 553.143 327.368 553.431 327.208C553.719 327.04 554.043 326.956 554.403 326.956C554.771 326.956 555.095 327.04 555.375 327.208C555.663 327.368 555.891 327.6 556.059 327.904C556.227 328.2 556.311 328.556 556.311 328.972C556.311 329.38 556.227 329.736 556.059 330.04C555.891 330.344 555.663 330.58 555.375 330.748C555.087 330.908 554.763 330.988 554.403 330.988ZM554.391 330.208C554.583 330.208 554.759 330.164 554.919 330.076C555.079 329.98 555.207 329.84 555.303 329.656C555.407 329.472 555.459 329.244 555.459 328.972C555.459 328.692 555.411 328.46 555.315 328.276C555.219 328.092 555.091 327.956 554.931 327.868C554.771 327.772 554.595 327.724 554.403 327.724C554.219 327.724 554.043 327.772 553.875 327.868C553.715 327.956 553.583 328.092 553.479 328.276C553.383 328.46 553.335 328.692 553.335 328.972C553.335 329.244 553.383 329.472 553.479 329.656C553.583 329.84 553.715 329.98 553.875 330.076C554.035 330.164 554.207 330.208 554.391 330.208ZM549.639 326.344C549.279 326.344 548.955 326.264 548.667 326.104C548.379 325.936 548.147 325.7 547.971 325.396C547.803 325.092 547.719 324.736 547.719 324.328C547.719 323.912 547.803 323.556 547.971 323.26C548.147 322.956 548.379 322.724 548.667 322.564C548.963 322.396 549.291 322.312 549.651 322.312C550.011 322.312 550.335 322.396 550.623 322.564C550.911 322.724 551.139 322.956 551.307 323.26C551.475 323.556 551.559 323.912 551.559 324.328C551.559 324.736 551.475 325.092 551.307 325.396C551.139 325.7 550.907 325.936 550.611 326.104C550.323 326.264 549.999 326.344 549.639 326.344ZM549.639 325.564C549.831 325.564 550.007 325.52 550.167 325.432C550.327 325.336 550.455 325.196 550.551 325.012C550.647 324.828 550.695 324.6 550.695 324.328C550.695 324.048 550.647 323.816 550.551 323.632C550.455 323.44 550.327 323.3 550.167 323.212C550.007 323.116 549.835 323.068 549.651 323.068C549.467 323.068 549.291 323.116 549.123 323.212C548.955 323.3 548.819 323.44 548.715 323.632C548.619 323.816 548.571 324.048 548.571 324.328C548.571 324.6 548.619 324.828 548.715 325.012C548.819 325.196 548.951 325.336 549.111 325.432C549.279 325.52 549.455 325.564 549.639 325.564Z" fill="#ACADAE"/>
<rect x="405" y="354.844" width="39" height="16" rx="5" fill="white" fill-opacity="0.05"/>
<path d="M413.636 366.988C413.108 366.988 412.656 366.888 412.28 366.688C411.904 366.48 411.604 366.204 411.38 365.86C411.164 365.508 411.032 365.124 410.984 364.708H411.92C412 365.156 412.192 365.504 412.496 365.752C412.8 365.992 413.184 366.112 413.648 366.112C414.072 366.112 414.448 365.984 414.776 365.728C415.104 365.472 415.368 365.084 415.568 364.564C415.776 364.036 415.892 363.368 415.916 362.56C415.916 362.536 415.916 362.512 415.916 362.488C415.916 362.464 415.916 362.44 415.916 362.416C415.796 362.664 415.62 362.896 415.388 363.112C415.156 363.328 414.88 363.5 414.56 363.628C414.248 363.756 413.896 363.82 413.504 363.82C413.032 363.82 412.584 363.708 412.16 363.484C411.744 363.26 411.404 362.948 411.14 362.548C410.884 362.14 410.756 361.664 410.756 361.12C410.756 360.648 410.872 360.196 411.104 359.764C411.336 359.332 411.668 358.98 412.1 358.708C412.532 358.436 413.044 358.3 413.636 358.3C414.236 358.3 414.744 358.416 415.16 358.648C415.576 358.872 415.908 359.176 416.156 359.56C416.412 359.936 416.596 360.364 416.708 360.844C416.82 361.324 416.876 361.812 416.876 362.308C416.876 363.228 416.748 364.04 416.492 364.744C416.244 365.448 415.876 366 415.388 366.4C414.908 366.792 414.324 366.988 413.636 366.988ZM413.708 362.944C414.076 362.944 414.408 362.86 414.704 362.692C415 362.524 415.232 362.296 415.4 362.008C415.576 361.72 415.664 361.404 415.664 361.06C415.664 360.692 415.576 360.368 415.4 360.088C415.232 359.808 415 359.588 414.704 359.428C414.408 359.268 414.076 359.188 413.708 359.188C413.34 359.188 413.008 359.272 412.712 359.44C412.424 359.6 412.196 359.82 412.028 360.1C411.86 360.38 411.776 360.704 411.776 361.072C411.776 361.448 411.86 361.776 412.028 362.056C412.196 362.336 412.424 362.556 412.712 362.716C413.008 362.868 413.34 362.944 413.708 362.944ZM422.479 366.844V365.044H418.219V364.264L422.299 358.444H423.475V364.156H424.723V365.044H423.475V366.844H422.479ZM419.335 364.156H422.527V359.56L419.335 364.156ZM430.472 366.844L435.356 358.444H436.364L431.48 366.844H430.472ZM435.764 366.988C435.404 366.988 435.08 366.908 434.792 366.748C434.504 366.58 434.272 366.344 434.096 366.04C433.928 365.736 433.844 365.38 433.844 364.972C433.844 364.556 433.928 364.2 434.096 363.904C434.272 363.6 434.504 363.368 434.792 363.208C435.08 363.04 435.404 362.956 435.764 362.956C436.132 362.956 436.456 363.04 436.736 363.208C437.024 363.368 437.252 363.6 437.42 363.904C437.588 364.2 437.672 364.556 437.672 364.972C437.672 365.38 437.588 365.736 437.42 366.04C437.252 366.344 437.024 366.58 436.736 366.748C436.448 366.908 436.124 366.988 435.764 366.988ZM435.752 366.208C435.944 366.208 436.12 366.164 436.28 366.076C436.44 365.98 436.568 365.84 436.664 365.656C436.768 365.472 436.82 365.244 436.82 364.972C436.82 364.692 436.772 364.46 436.676 364.276C436.58 364.092 436.452 363.956 436.292 363.868C436.132 363.772 435.956 363.724 435.764 363.724C435.58 363.724 435.404 363.772 435.236 363.868C435.076 363.956 434.944 364.092 434.84 364.276C434.744 364.46 434.696 364.692 434.696 364.972C434.696 365.244 434.744 365.472 434.84 365.656C434.944 365.84 435.076 365.98 435.236 366.076C435.396 366.164 435.568 366.208 435.752 366.208ZM431.144 362.344C430.784 362.344 430.46 362.264 430.172 362.104C429.884 361.936 429.652 361.7 429.476 361.396C429.308 361.092 429.224 360.736 429.224 360.328C429.224 359.912 429.308 359.556 429.476 359.26C429.652 358.956 429.884 358.724 430.172 358.564C430.468 358.396 430.796 358.312 431.156 358.312C431.516 358.312 431.84 358.396 432.128 358.564C432.416 358.724 432.644 358.956 432.812 359.26C432.98 359.556 433.064 359.912 433.064 360.328C433.064 360.736 432.98 361.092 432.812 361.396C432.644 361.7 432.412 361.936 432.116 362.104C431.828 362.264 431.504 362.344 431.144 362.344ZM431.144 361.564C431.336 361.564 431.512 361.52 431.672 361.432C431.832 361.336 431.96 361.196 432.056 361.012C432.152 360.828 432.2 360.6 432.2 360.328C432.2 360.048 432.152 359.816 432.056 359.632C431.96 359.44 431.832 359.3 431.672 359.212C431.512 359.116 431.34 359.068 431.156 359.068C430.972 359.068 430.796 359.116 430.628 359.212C430.46 359.3 430.324 359.44 430.22 359.632C430.124 359.816 430.076 360.048 430.076 360.328C430.076 360.6 430.124 360.828 430.22 361.012C430.324 361.196 430.456 361.336 430.616 361.432C430.784 361.52 430.96 361.564 431.144 361.564Z" fill="#ACADAE"/>
<rect x="286" y="349" width="28" height="6" rx="2" fill="#5D97A6"/>
<path d="M325.01 355.12C324.497 355.12 324.05 355.027 323.67 354.84C323.29 354.653 322.997 354.393 322.79 354.06C322.583 353.727 322.48 353.34 322.48 352.9H323.36C323.36 353.173 323.423 353.427 323.55 353.66C323.677 353.887 323.86 354.07 324.1 354.21C324.347 354.343 324.65 354.41 325.01 354.41C325.323 354.41 325.59 354.36 325.81 354.26C326.037 354.153 326.207 354.01 326.32 353.83C326.44 353.65 326.5 353.447 326.5 353.22C326.5 352.967 326.443 352.757 326.33 352.59C326.223 352.417 326.073 352.277 325.88 352.17C325.687 352.057 325.463 351.957 325.21 351.87C324.957 351.783 324.683 351.693 324.39 351.6C323.803 351.413 323.377 351.18 323.11 350.9C322.85 350.613 322.72 350.247 322.72 349.8C322.72 349.42 322.807 349.087 322.98 348.8C323.16 348.513 323.413 348.29 323.74 348.13C324.073 347.963 324.467 347.88 324.92 347.88C325.367 347.88 325.753 347.963 326.08 348.13C326.413 348.297 326.673 348.527 326.86 348.82C327.047 349.107 327.14 349.44 327.14 349.82H326.26C326.26 349.627 326.21 349.437 326.11 349.25C326.01 349.063 325.857 348.91 325.65 348.79C325.45 348.663 325.197 348.6 324.89 348.6C324.637 348.593 324.41 348.637 324.21 348.73C324.017 348.817 323.863 348.943 323.75 349.11C323.643 349.277 323.59 349.48 323.59 349.72C323.59 349.947 323.637 350.13 323.73 350.27C323.83 350.41 323.97 350.53 324.15 350.63C324.337 350.723 324.553 350.81 324.8 350.89C325.047 350.97 325.32 351.06 325.62 351.16C325.96 351.273 326.26 351.413 326.52 351.58C326.787 351.74 326.993 351.947 327.14 352.2C327.293 352.453 327.37 352.777 327.37 353.17C327.37 353.503 327.28 353.82 327.1 354.12C326.927 354.413 326.667 354.653 326.32 354.84C325.973 355.027 325.537 355.12 325.01 355.12ZM330.659 355.12C330.273 355.12 329.936 355.047 329.649 354.9C329.363 354.753 329.139 354.53 328.979 354.23C328.819 353.923 328.739 353.543 328.739 353.09V349.74H329.579V353C329.579 353.467 329.693 353.817 329.919 354.05C330.153 354.283 330.463 354.4 330.849 354.4C331.116 354.4 331.356 354.34 331.569 354.22C331.783 354.093 331.953 353.91 332.079 353.67C332.213 353.43 332.279 353.137 332.279 352.79V349.74H333.119V355H332.359L332.309 354.16C332.169 354.467 331.953 354.703 331.659 354.87C331.373 355.037 331.039 355.12 330.659 355.12ZM337.011 355.12C336.531 355.12 336.104 355.007 335.731 354.78C335.358 354.547 335.064 354.223 334.851 353.81C334.638 353.397 334.531 352.917 334.531 352.37C334.531 351.817 334.638 351.337 334.851 350.93C335.064 350.517 335.358 350.197 335.731 349.97C336.104 349.737 336.531 349.62 337.011 349.62C337.611 349.62 338.111 349.78 338.511 350.1C338.918 350.42 339.178 350.85 339.291 351.39H338.431C338.358 351.057 338.188 350.8 337.921 350.62C337.661 350.433 337.354 350.34 337.001 350.34C336.694 350.34 336.418 350.417 336.171 350.57C335.931 350.723 335.741 350.95 335.601 351.25C335.461 351.55 335.391 351.923 335.391 352.37C335.391 352.703 335.431 353 335.511 353.26C335.591 353.513 335.701 353.727 335.841 353.9C335.988 354.067 336.158 354.193 336.351 354.28C336.551 354.367 336.768 354.41 337.001 354.41C337.241 354.41 337.458 354.37 337.651 354.29C337.851 354.203 338.018 354.08 338.151 353.92C338.291 353.76 338.384 353.57 338.431 353.35H339.291C339.184 353.877 338.924 354.303 338.511 354.63C338.104 354.957 337.604 355.12 337.011 355.12ZM342.982 355.12C342.502 355.12 342.076 355.007 341.702 354.78C341.329 354.547 341.036 354.223 340.822 353.81C340.609 353.397 340.502 352.917 340.502 352.37C340.502 351.817 340.609 351.337 340.822 350.93C341.036 350.517 341.329 350.197 341.702 349.97C342.076 349.737 342.502 349.62 342.982 349.62C343.582 349.62 344.082 349.78 344.482 350.1C344.889 350.42 345.149 350.85 345.262 351.39H344.402C344.329 351.057 344.159 350.8 343.892 350.62C343.632 350.433 343.326 350.34 342.972 350.34C342.666 350.34 342.389 350.417 342.142 350.57C341.902 350.723 341.712 350.95 341.572 351.25C341.432 351.55 341.362 351.923 341.362 352.37C341.362 352.703 341.402 353 341.482 353.26C341.562 353.513 341.672 353.727 341.812 353.9C341.959 354.067 342.129 354.193 342.322 354.28C342.522 354.367 342.739 354.41 342.972 354.41C343.212 354.41 343.429 354.37 343.622 354.29C343.822 354.203 343.989 354.08 344.122 353.92C344.262 353.76 344.356 353.57 344.402 353.35H345.262C345.156 353.877 344.896 354.303 344.482 354.63C344.076 354.957 343.576 355.12 342.982 355.12ZM348.864 355.12C348.397 355.12 347.984 355.007 347.624 354.78C347.264 354.553 346.98 354.233 346.774 353.82C346.574 353.407 346.474 352.923 346.474 352.37C346.474 351.817 346.574 351.333 346.774 350.92C346.98 350.507 347.264 350.187 347.624 349.96C347.99 349.733 348.41 349.62 348.884 349.62C349.39 349.62 349.814 349.733 350.154 349.96C350.494 350.187 350.75 350.49 350.924 350.87C351.097 351.25 351.184 351.667 351.184 352.12C351.184 352.187 351.184 352.253 351.184 352.32C351.184 352.387 351.18 352.467 351.174 352.56H347.104V351.91H350.364C350.35 351.397 350.2 351.007 349.914 350.74C349.634 350.467 349.284 350.33 348.864 350.33C348.584 350.33 348.324 350.4 348.084 350.54C347.85 350.673 347.66 350.873 347.514 351.14C347.367 351.407 347.294 351.74 347.294 352.14V352.42C347.294 352.86 347.367 353.23 347.514 353.53C347.66 353.823 347.85 354.043 348.084 354.19C348.324 354.337 348.584 354.41 348.864 354.41C349.237 354.41 349.53 354.34 349.744 354.2C349.957 354.053 350.114 353.847 350.214 353.58H351.044C350.964 353.873 350.824 354.137 350.624 354.37C350.43 354.603 350.184 354.787 349.884 354.92C349.59 355.053 349.25 355.12 348.864 355.12ZM354.448 355.12C353.975 355.12 353.581 355.05 353.268 354.91C352.961 354.763 352.728 354.563 352.568 354.31C352.408 354.05 352.311 353.75 352.278 353.41H353.138C353.165 353.59 353.225 353.757 353.318 353.91C353.418 354.057 353.561 354.177 353.748 354.27C353.935 354.363 354.171 354.41 354.458 354.41C354.685 354.41 354.878 354.377 355.038 354.31C355.198 354.237 355.318 354.137 355.398 354.01C355.485 353.883 355.528 353.737 355.528 353.57C355.528 353.35 355.478 353.18 355.378 353.06C355.285 352.933 355.145 352.84 354.958 352.78C354.778 352.713 354.551 352.663 354.278 352.63C353.985 352.59 353.725 352.533 353.498 352.46C353.271 352.387 353.078 352.29 352.918 352.17C352.765 352.05 352.648 351.9 352.568 351.72C352.488 351.54 352.448 351.327 352.448 351.08C352.448 350.793 352.525 350.54 352.678 350.32C352.831 350.1 353.048 349.93 353.328 349.81C353.615 349.683 353.951 349.62 354.338 349.62C354.905 349.62 355.351 349.75 355.678 350.01C356.011 350.27 356.208 350.64 356.268 351.12H355.438C355.405 350.873 355.291 350.68 355.098 350.54C354.905 350.4 354.648 350.33 354.328 350.33C353.988 350.33 353.731 350.393 353.558 350.52C353.385 350.647 353.298 350.813 353.298 351.02C353.298 351.173 353.335 351.313 353.408 351.44C353.488 351.56 353.621 351.663 353.808 351.75C353.995 351.83 354.245 351.89 354.558 351.93C354.951 351.977 355.285 352.053 355.558 352.16C355.831 352.26 356.038 352.417 356.178 352.63C356.325 352.843 356.395 353.133 356.388 353.5C356.388 353.847 356.305 354.14 356.138 354.38C355.978 354.62 355.751 354.803 355.458 354.93C355.171 355.057 354.835 355.12 354.448 355.12ZM358.166 355V349.18C358.166 348.86 358.219 348.6 358.326 348.4C358.432 348.193 358.589 348.043 358.796 347.95C359.009 347.85 359.269 347.8 359.576 347.8H360.346V348.52H359.716C359.462 348.52 359.279 348.573 359.166 348.68C359.059 348.78 359.006 348.957 359.006 349.21V355H358.166ZM357.346 350.45V349.74H360.406V350.45H357.346ZM363.539 355.12C363.152 355.12 362.816 355.047 362.529 354.9C362.242 354.753 362.019 354.53 361.859 354.23C361.699 353.923 361.619 353.543 361.619 353.09V349.74H362.459V353C362.459 353.467 362.572 353.817 362.799 354.05C363.032 354.283 363.342 354.4 363.729 354.4C363.996 354.4 364.236 354.34 364.449 354.22C364.662 354.093 364.832 353.91 364.959 353.67C365.092 353.43 365.159 353.137 365.159 352.79V349.74H365.999V355H365.239L365.189 354.16C365.049 354.467 364.832 354.703 364.539 354.87C364.252 355.037 363.919 355.12 363.539 355.12ZM367.621 355V347.8H368.461V355H367.621Z" fill="white"/>
<path d="M322.77 381V374H327.03V374.69H323.61V377.15H326.52V377.83H323.61V381H322.77ZM329.599 381.12C329.199 381.12 328.865 381.047 328.599 380.9C328.332 380.747 328.132 380.547 327.999 380.3C327.865 380.047 327.799 379.777 327.799 379.49C327.799 379.143 327.885 378.85 328.059 378.61C328.239 378.363 328.489 378.177 328.809 378.05C329.129 377.923 329.502 377.86 329.929 377.86H331.239C331.239 377.52 331.199 377.237 331.119 377.01C331.039 376.783 330.909 376.613 330.729 376.5C330.549 376.387 330.309 376.33 330.009 376.33C329.709 376.33 329.452 376.407 329.239 376.56C329.025 376.707 328.892 376.927 328.839 377.22H327.979C328.019 376.873 328.135 376.583 328.329 376.35C328.522 376.11 328.765 375.93 329.059 375.81C329.359 375.683 329.675 375.62 330.009 375.62C330.482 375.62 330.872 375.707 331.179 375.88C331.485 376.047 331.712 376.283 331.859 376.59C332.005 376.89 332.079 377.247 332.079 377.66V381H331.329L331.279 380.1C331.212 380.24 331.125 380.373 331.019 380.5C330.919 380.62 330.799 380.727 330.659 380.82C330.519 380.913 330.359 380.987 330.179 381.04C330.005 381.093 329.812 381.12 329.599 381.12ZM329.719 380.41C329.939 380.41 330.142 380.36 330.329 380.26C330.515 380.16 330.675 380.027 330.809 379.86C330.949 379.687 331.055 379.493 331.129 379.28C331.202 379.067 331.239 378.843 331.239 378.61V378.51H329.999C329.685 378.51 329.429 378.55 329.229 378.63C329.035 378.71 328.895 378.823 328.809 378.97C328.722 379.11 328.679 379.27 328.679 379.45C328.679 379.643 328.719 379.813 328.799 379.96C328.879 380.1 328.995 380.21 329.149 380.29C329.309 380.37 329.499 380.41 329.719 380.41ZM333.747 381V375.74H334.587V381H333.747ZM334.167 374.74C334 374.74 333.86 374.687 333.747 374.58C333.64 374.467 333.587 374.327 333.587 374.16C333.587 373.993 333.64 373.86 333.747 373.76C333.86 373.653 334 373.6 334.167 373.6C334.327 373.6 334.463 373.653 334.577 373.76C334.69 373.86 334.747 373.993 334.747 374.16C334.747 374.327 334.69 374.467 334.577 374.58C334.463 374.687 334.327 374.74 334.167 374.74ZM336.279 381V373.8H337.119V381H336.279ZM340.915 381.12C340.448 381.12 340.035 381.007 339.675 380.78C339.315 380.553 339.031 380.233 338.825 379.82C338.625 379.407 338.525 378.923 338.525 378.37C338.525 377.817 338.625 377.333 338.825 376.92C339.031 376.507 339.315 376.187 339.675 375.96C340.041 375.733 340.461 375.62 340.935 375.62C341.441 375.62 341.865 375.733 342.205 375.96C342.545 376.187 342.801 376.49 342.975 376.87C343.148 377.25 343.235 377.667 343.235 378.12C343.235 378.187 343.235 378.253 343.235 378.32C343.235 378.387 343.231 378.467 343.225 378.56H339.155V377.91H342.415C342.401 377.397 342.251 377.007 341.965 376.74C341.685 376.467 341.335 376.33 340.915 376.33C340.635 376.33 340.375 376.4 340.135 376.54C339.901 376.673 339.711 376.873 339.565 377.14C339.418 377.407 339.345 377.74 339.345 378.14V378.42C339.345 378.86 339.418 379.23 339.565 379.53C339.711 379.823 339.901 380.043 340.135 380.19C340.375 380.337 340.635 380.41 340.915 380.41C341.288 380.41 341.581 380.34 341.795 380.2C342.008 380.053 342.165 379.847 342.265 379.58H343.095C343.015 379.873 342.875 380.137 342.675 380.37C342.481 380.603 342.235 380.787 341.935 380.92C341.641 381.053 341.301 381.12 340.915 381.12ZM346.769 381.12C346.302 381.12 345.889 381 345.529 380.76C345.169 380.52 344.889 380.193 344.689 379.78C344.489 379.36 344.389 378.887 344.389 378.36C344.389 377.827 344.489 377.357 344.689 376.95C344.889 376.537 345.169 376.213 345.529 375.98C345.889 375.74 346.305 375.62 346.779 375.62C347.192 375.62 347.545 375.703 347.839 375.87C348.139 376.037 348.375 376.27 348.549 376.57V373.8H349.389V381H348.629L348.559 380.16C348.459 380.327 348.325 380.483 348.159 380.63C347.999 380.777 347.802 380.897 347.569 380.99C347.342 381.077 347.075 381.12 346.769 381.12ZM346.879 380.39C347.212 380.39 347.502 380.31 347.749 380.15C347.995 379.983 348.185 379.75 348.319 379.45C348.452 379.143 348.519 378.783 348.519 378.37C348.519 377.957 348.452 377.6 348.319 377.3C348.185 376.993 347.995 376.76 347.749 376.6C347.502 376.433 347.212 376.35 346.879 376.35C346.565 376.35 346.285 376.433 346.039 376.6C345.792 376.76 345.599 376.993 345.459 377.3C345.319 377.6 345.249 377.957 345.249 378.37C345.249 378.783 345.319 379.143 345.459 379.45C345.599 379.75 345.792 379.983 346.039 380.15C346.285 380.31 346.565 380.39 346.879 380.39Z" fill="white"/>
<rect x="286" y="375" width="28" height="6" rx="2" fill="#AB63A5"/>
</g>
<g filter="url(#filter4_d_2483_57690)">
<rect x="241.5" y="240.5" width="350" height="187" rx="9.5" fill="#111214" stroke="url(#paint5_linear_2483_57690)"/>
<line x1="241.997" y1="260.496" x2="591.003" y2="260.496" stroke="url(#paint6_linear_2483_57690)"/>
<g clip-path="url(#clip1_2483_57690)">
<path d="M258.795 249.976C258.781 249.825 258.759 249.653 258.713 249.46C258.667 249.27 258.599 249.061 258.499 248.844C258.398 248.627 258.268 248.402 258.1 248.183C258.034 248.097 257.961 248.013 257.883 247.931C258 247.431 257.742 246.997 257.742 246.997C257.298 246.967 257.015 247.147 256.91 247.229C256.892 247.221 256.876 247.211 256.858 247.204C256.782 247.172 256.705 247.14 256.623 247.113C256.543 247.086 256.461 247.061 256.377 247.039C256.292 247.017 256.208 246.999 256.121 246.985C256.106 246.982 256.092 246.98 256.076 246.977C255.882 246.306 255.326 246.025 255.326 246.025C254.704 246.452 254.588 247.049 254.588 247.049C254.588 247.049 254.585 247.061 254.581 247.083C254.547 247.093 254.512 247.105 254.478 247.115C254.43 247.13 254.382 247.15 254.337 247.17C254.289 247.189 254.243 247.209 254.196 247.231C254.102 247.276 254.009 247.325 253.917 247.379C253.829 247.433 253.742 247.493 253.658 247.554C253.646 247.549 253.635 247.544 253.635 247.544C252.773 247.189 252.01 247.616 252.01 247.616C251.939 248.607 252.354 249.231 252.436 249.344C252.415 249.406 252.397 249.468 252.379 249.529C252.315 249.754 252.267 249.983 252.238 250.222C252.233 250.257 252.229 250.291 252.226 250.326C251.429 250.752 251.194 251.623 251.194 251.623C251.857 252.449 252.632 252.5 252.632 252.5L252.634 252.498C252.732 252.688 252.846 252.868 252.974 253.038C253.029 253.109 253.083 253.176 253.143 253.243C252.901 253.992 253.177 254.614 253.177 254.614C253.915 254.643 254.401 254.263 254.503 254.177C254.576 254.204 254.651 254.229 254.727 254.249C254.955 254.313 255.187 254.35 255.419 254.36C255.476 254.362 255.536 254.365 255.593 254.362H255.62H255.638H255.675L255.711 254.36V254.362C256.06 254.9 256.671 254.976 256.671 254.976C257.106 254.48 257.131 253.987 257.131 253.881C257.131 253.881 257.131 253.879 257.131 253.874C257.131 253.864 257.131 253.859 257.131 253.859C257.131 253.852 257.131 253.844 257.131 253.837C257.222 253.768 257.309 253.694 257.391 253.613C257.564 253.442 257.717 253.248 257.845 253.038C257.856 253.018 257.867 252.999 257.879 252.979C258.371 253.008 258.72 252.648 258.72 252.648C258.638 252.094 258.346 251.822 258.284 251.771C258.284 251.771 258.282 251.768 258.278 251.766C258.273 251.763 258.273 251.761 258.273 251.761C258.271 251.758 258.266 251.756 258.262 251.753C258.264 251.719 258.266 251.687 258.268 251.652C258.273 251.593 258.273 251.531 258.273 251.472V251.428V251.406V251.393C258.273 251.379 258.273 251.383 258.273 251.379L258.271 251.342L258.268 251.292C258.268 251.275 258.266 251.26 258.264 251.245C258.262 251.231 258.262 251.213 258.259 251.199L258.255 251.152L258.248 251.105C258.239 251.043 258.23 250.984 258.216 250.922C258.164 250.683 258.077 250.456 257.965 250.252C257.851 250.047 257.71 249.867 257.548 249.714C257.389 249.561 257.209 249.438 257.022 249.347C256.833 249.256 256.637 249.196 256.441 249.169C256.343 249.154 256.245 249.15 256.147 249.152H256.11H256.101C256.099 249.152 256.087 249.152 256.09 249.152H256.074L256.037 249.154C256.023 249.154 256.01 249.157 255.998 249.157C255.948 249.162 255.898 249.169 255.85 249.179C255.654 249.219 255.47 249.295 255.308 249.401C255.146 249.507 255.005 249.638 254.891 249.786C254.777 249.934 254.688 250.099 254.626 250.269C254.565 250.439 254.531 250.617 254.521 250.787C254.519 250.829 254.519 250.873 254.519 250.915C254.519 250.925 254.519 250.937 254.519 250.947L254.521 250.982C254.524 251.001 254.524 251.023 254.526 251.043C254.533 251.129 254.549 251.213 254.569 251.292C254.613 251.453 254.681 251.598 254.765 251.721C254.85 251.845 254.952 251.946 255.059 252.027C255.166 252.106 255.283 252.163 255.397 252.2C255.511 252.237 255.625 252.251 255.732 252.251C255.745 252.251 255.759 252.251 255.77 252.251C255.777 252.251 255.784 252.251 255.791 252.251C255.798 252.251 255.805 252.251 255.812 252.249C255.823 252.249 255.834 252.246 255.846 252.246C255.848 252.246 255.853 252.246 255.855 252.244L255.866 252.242C255.873 252.242 255.88 252.239 255.887 252.239C255.9 252.237 255.912 252.234 255.925 252.232C255.939 252.229 255.951 252.227 255.962 252.222C255.987 252.217 256.01 252.207 256.033 252.2C256.078 252.182 256.124 252.163 256.163 252.14C256.204 252.118 256.24 252.091 256.276 252.066C256.286 252.059 256.297 252.052 256.306 252.042C256.343 252.01 256.349 251.951 256.32 251.911C256.295 251.877 256.249 251.867 256.213 251.889C256.204 251.894 256.194 251.899 256.185 251.904C256.153 251.921 256.121 251.936 256.087 251.948C256.053 251.96 256.017 251.97 255.98 251.978C255.962 251.98 255.944 251.983 255.923 251.985C255.914 251.985 255.905 251.988 255.894 251.988C255.884 251.988 255.873 251.988 255.866 251.988C255.857 251.988 255.848 251.988 255.839 251.988C255.827 251.988 255.816 251.988 255.805 251.985C255.805 251.985 255.798 251.985 255.802 251.985H255.798H255.791C255.786 251.985 255.78 251.985 255.775 251.983C255.764 251.98 255.755 251.98 255.743 251.978C255.659 251.965 255.574 251.938 255.495 251.899C255.413 251.859 255.335 251.805 255.265 251.736C255.194 251.667 255.132 251.586 255.084 251.492C255.037 251.398 255.002 251.295 254.986 251.186C254.98 251.132 254.975 251.075 254.977 251.021C254.977 251.006 254.98 250.991 254.98 250.977C254.98 250.982 254.98 250.974 254.98 250.974V250.969V250.957C254.98 250.95 254.982 250.942 254.982 250.935C254.984 250.905 254.989 250.876 254.993 250.846C255.032 250.609 255.141 250.377 255.31 250.202C255.353 250.158 255.399 250.119 255.447 250.082C255.495 250.045 255.547 250.013 255.602 249.985C255.657 249.958 255.711 249.936 255.77 249.919C255.827 249.902 255.887 249.892 255.948 249.884C255.978 249.882 256.008 249.879 256.039 249.879C256.049 249.879 256.053 249.879 256.06 249.879H256.085H256.101C256.108 249.879 256.101 249.879 256.103 249.879H256.11L256.135 249.882C256.201 249.887 256.265 249.897 256.329 249.914C256.457 249.943 256.582 249.995 256.698 250.064C256.931 250.205 257.129 250.422 257.25 250.683C257.311 250.814 257.355 250.954 257.375 251.1C257.38 251.137 257.384 251.174 257.386 251.211L257.389 251.238L257.391 251.265C257.391 251.275 257.391 251.285 257.391 251.292C257.391 251.302 257.391 251.312 257.391 251.319V251.344V251.371C257.391 251.388 257.389 251.418 257.389 251.435C257.386 251.475 257.382 251.517 257.377 251.556C257.373 251.596 257.366 251.635 257.359 251.674C257.352 251.714 257.343 251.753 257.334 251.79C257.316 251.867 257.293 251.943 257.266 252.02C257.211 252.168 257.138 252.311 257.051 252.441C256.876 252.703 256.637 252.915 256.363 253.05C256.226 253.117 256.083 253.166 255.935 253.191C255.862 253.206 255.786 253.213 255.711 253.216H255.698H255.686H255.661H255.625H255.606C255.615 253.216 255.604 253.216 255.604 253.216H255.597C255.556 253.216 255.517 253.213 255.476 253.208C255.317 253.196 255.16 253.164 255.005 253.117C254.852 253.07 254.704 253.003 254.563 252.925C254.282 252.762 254.029 252.54 253.833 252.271C253.735 252.138 253.649 251.993 253.578 251.842C253.507 251.692 253.45 251.531 253.409 251.371C253.368 251.208 253.343 251.043 253.332 250.876L253.329 250.843V250.836V250.829V250.814V250.787V250.779V250.769V250.75V250.71V250.703C253.329 250.703 253.329 250.705 253.329 250.7V250.686C253.329 250.666 253.329 250.644 253.329 250.624C253.332 250.543 253.339 250.456 253.348 250.373C253.357 250.289 253.37 250.202 253.386 250.119C253.402 250.035 253.421 249.951 253.443 249.867C253.487 249.702 253.541 249.542 253.605 249.391C253.735 249.09 253.904 248.822 254.107 248.607C254.157 248.553 254.209 248.503 254.264 248.454C254.319 248.407 254.376 248.363 254.435 248.321C254.492 248.279 254.553 248.242 254.615 248.208C254.645 248.19 254.676 248.173 254.708 248.158C254.724 248.151 254.74 248.143 254.756 248.136C254.772 248.129 254.788 248.121 254.804 248.114C254.868 248.084 254.934 248.06 255.002 248.037C255.018 248.033 255.037 248.028 255.053 248.02C255.068 248.015 255.087 248.01 255.103 248.005C255.137 247.996 255.171 247.986 255.205 247.978C255.221 247.973 255.239 247.971 255.258 247.966C255.276 247.961 255.292 247.959 255.31 247.954C255.328 247.951 255.344 247.946 255.363 247.944L255.388 247.939L255.415 247.934C255.433 247.931 255.449 247.929 255.467 247.926C255.488 247.924 255.506 247.922 255.527 247.919C255.543 247.917 255.57 247.914 255.586 247.912C255.597 247.909 255.611 247.909 255.622 247.907L255.647 247.904L255.659 247.902H255.672C255.693 247.899 255.711 247.899 255.732 247.897L255.761 247.894C255.761 247.894 255.773 247.894 255.764 247.894H255.77H255.784C255.8 247.894 255.818 247.892 255.834 247.892C255.9 247.89 255.969 247.89 256.035 247.892C256.167 247.897 256.297 247.914 256.422 247.939C256.675 247.991 256.912 248.077 257.129 248.193C257.345 248.306 257.537 248.447 257.706 248.6C257.717 248.61 257.726 248.619 257.737 248.629C257.747 248.639 257.758 248.649 257.767 248.659C257.788 248.679 257.806 248.698 257.826 248.718C257.847 248.738 257.865 248.757 257.883 248.777C257.902 248.797 257.92 248.817 257.938 248.839C258.009 248.92 258.075 249.002 258.134 249.085C258.253 249.251 258.348 249.418 258.423 249.576C258.428 249.586 258.433 249.596 258.437 249.606C258.442 249.616 258.446 249.625 258.451 249.635C258.46 249.655 258.469 249.675 258.476 249.694C258.485 249.714 258.492 249.731 258.501 249.751C258.508 249.771 258.517 249.788 258.524 249.808C258.551 249.882 258.578 249.953 258.599 250.02C258.633 250.128 258.658 250.225 258.679 250.308C258.686 250.343 258.715 250.365 258.747 250.36C258.781 250.358 258.806 250.328 258.806 250.291C258.809 250.202 258.806 250.096 258.795 249.976Z" fill="url(#paint7_linear_2483_57690)"/>
</g>
<rect x="251" y="271" width="331" height="147" rx="5" fill="#1D1F22"/>
<path d="M512.801 299.801C520.356 307.138 525.847 316.336 528.722 326.468L511.405 331.381C509.393 324.288 505.549 317.85 500.261 312.714L512.801 299.801Z" fill="url(#paint8_linear_2483_57690)"/>
<path d="M522.914 312.761C530.552 325.942 532.89 341.534 529.455 356.375C526.019 371.217 517.067 384.195 504.414 392.679C491.762 401.163 476.355 404.516 461.321 402.058C446.287 399.601 432.751 391.517 423.458 379.446C414.165 367.375 409.811 352.221 411.28 337.059C412.749 321.896 419.93 307.86 431.368 297.797C442.805 287.735 457.641 282.399 472.868 282.873C488.094 283.347 502.57 289.595 513.359 300.35L500.651 313.098C493.099 305.57 482.966 301.196 472.308 300.865C461.649 300.533 451.264 304.267 443.257 311.311C435.251 318.355 430.224 328.18 429.196 338.794C428.168 349.408 431.215 360.016 437.72 368.465C444.226 376.915 453.701 382.574 464.225 384.294C474.749 386.014 485.533 383.667 494.39 377.729C503.247 371.79 509.514 362.705 511.918 352.316C514.323 341.927 512.686 331.012 507.34 321.786L522.914 312.761Z" fill="#5D97A6"/>
<rect x="511" y="298.844" width="31" height="16" rx="5" fill="white" fill-opacity="0.05"/>
<path d="M519.9 310.988C519.3 310.988 518.792 310.876 518.376 310.652C517.968 310.428 517.64 310.124 517.392 309.74C517.144 309.356 516.96 308.928 516.84 308.456C516.728 307.976 516.672 307.484 516.672 306.98C516.672 306.052 516.8 305.24 517.056 304.544C517.312 303.84 517.68 303.292 518.16 302.9C518.648 302.5 519.232 302.3 519.912 302.3C520.44 302.3 520.892 302.404 521.268 302.612C521.652 302.812 521.952 303.084 522.168 303.428C522.392 303.764 522.528 304.14 522.576 304.556H521.64C521.56 304.116 521.368 303.776 521.064 303.536C520.76 303.296 520.372 303.176 519.9 303.176C519.476 303.176 519.096 303.308 518.76 303.572C518.432 303.836 518.168 304.232 517.968 304.76C517.776 305.288 517.664 305.964 517.632 306.788C517.632 306.804 517.632 306.82 517.632 306.836C517.632 306.852 517.632 306.868 517.632 306.884C517.752 306.628 517.924 306.396 518.148 306.188C518.38 305.972 518.656 305.8 518.976 305.672C519.296 305.536 519.648 305.468 520.032 305.468C520.512 305.468 520.956 305.58 521.364 305.804C521.78 306.028 522.112 306.344 522.36 306.752C522.616 307.152 522.744 307.624 522.744 308.168C522.744 308.64 522.628 309.092 522.396 309.524C522.172 309.956 521.848 310.308 521.424 310.58C521 310.852 520.492 310.988 519.9 310.988ZM519.828 310.1C520.196 310.1 520.52 310.02 520.8 309.86C521.088 309.7 521.312 309.48 521.472 309.2C521.64 308.912 521.724 308.584 521.724 308.216C521.724 307.84 521.64 307.512 521.472 307.232C521.312 306.952 521.088 306.736 520.8 306.584C520.52 306.424 520.196 306.344 519.828 306.344C519.468 306.344 519.14 306.428 518.844 306.596C518.556 306.764 518.324 306.992 518.148 307.28C517.98 307.56 517.896 307.876 517.896 308.228C517.896 308.596 517.98 308.92 518.148 309.2C518.324 309.48 518.556 309.7 518.844 309.86C519.14 310.02 519.468 310.1 519.828 310.1ZM529.027 310.844L533.911 302.444H534.919L530.035 310.844H529.027ZM534.403 310.988C534.043 310.988 533.719 310.908 533.431 310.748C533.143 310.58 532.911 310.344 532.735 310.04C532.567 309.736 532.483 309.38 532.483 308.972C532.483 308.556 532.567 308.2 532.735 307.904C532.911 307.6 533.143 307.368 533.431 307.208C533.719 307.04 534.043 306.956 534.403 306.956C534.771 306.956 535.095 307.04 535.375 307.208C535.663 307.368 535.891 307.6 536.059 307.904C536.227 308.2 536.311 308.556 536.311 308.972C536.311 309.38 536.227 309.736 536.059 310.04C535.891 310.344 535.663 310.58 535.375 310.748C535.087 310.908 534.763 310.988 534.403 310.988ZM534.391 310.208C534.583 310.208 534.759 310.164 534.919 310.076C535.079 309.98 535.207 309.84 535.303 309.656C535.407 309.472 535.459 309.244 535.459 308.972C535.459 308.692 535.411 308.46 535.315 308.276C535.219 308.092 535.091 307.956 534.931 307.868C534.771 307.772 534.595 307.724 534.403 307.724C534.219 307.724 534.043 307.772 533.875 307.868C533.715 307.956 533.583 308.092 533.479 308.276C533.383 308.46 533.335 308.692 533.335 308.972C533.335 309.244 533.383 309.472 533.479 309.656C533.583 309.84 533.715 309.98 533.875 310.076C534.035 310.164 534.207 310.208 534.391 310.208ZM529.639 306.344C529.279 306.344 528.955 306.264 528.667 306.104C528.379 305.936 528.147 305.7 527.971 305.396C527.803 305.092 527.719 304.736 527.719 304.328C527.719 303.912 527.803 303.556 527.971 303.26C528.147 302.956 528.379 302.724 528.667 302.564C528.963 302.396 529.291 302.312 529.651 302.312C530.011 302.312 530.335 302.396 530.623 302.564C530.911 302.724 531.139 302.956 531.307 303.26C531.475 303.556 531.559 303.912 531.559 304.328C531.559 304.736 531.475 305.092 531.307 305.396C531.139 305.7 530.907 305.936 530.611 306.104C530.323 306.264 529.999 306.344 529.639 306.344ZM529.639 305.564C529.831 305.564 530.007 305.52 530.167 305.432C530.327 305.336 530.455 305.196 530.551 305.012C530.647 304.828 530.695 304.6 530.695 304.328C530.695 304.048 530.647 303.816 530.551 303.632C530.455 303.44 530.327 303.3 530.167 303.212C530.007 303.116 529.835 303.068 529.651 303.068C529.467 303.068 529.291 303.116 529.123 303.212C528.955 303.3 528.819 303.44 528.715 303.632C528.619 303.816 528.571 304.048 528.571 304.328C528.571 304.6 528.619 304.828 528.715 305.012C528.819 305.196 528.951 305.336 529.111 305.432C529.279 305.52 529.455 305.564 529.639 305.564Z" fill="#ACADAE"/>
<rect x="385" y="334.844" width="39" height="16" rx="5" fill="white" fill-opacity="0.05"/>
<path d="M393.636 346.988C393.108 346.988 392.656 346.888 392.28 346.688C391.904 346.48 391.604 346.204 391.38 345.86C391.164 345.508 391.032 345.124 390.984 344.708H391.92C392 345.156 392.192 345.504 392.496 345.752C392.8 345.992 393.184 346.112 393.648 346.112C394.072 346.112 394.448 345.984 394.776 345.728C395.104 345.472 395.368 345.084 395.568 344.564C395.776 344.036 395.892 343.368 395.916 342.56C395.916 342.536 395.916 342.512 395.916 342.488C395.916 342.464 395.916 342.44 395.916 342.416C395.796 342.664 395.62 342.896 395.388 343.112C395.156 343.328 394.88 343.5 394.56 343.628C394.248 343.756 393.896 343.82 393.504 343.82C393.032 343.82 392.584 343.708 392.16 343.484C391.744 343.26 391.404 342.948 391.14 342.548C390.884 342.14 390.756 341.664 390.756 341.12C390.756 340.648 390.872 340.196 391.104 339.764C391.336 339.332 391.668 338.98 392.1 338.708C392.532 338.436 393.044 338.3 393.636 338.3C394.236 338.3 394.744 338.416 395.16 338.648C395.576 338.872 395.908 339.176 396.156 339.56C396.412 339.936 396.596 340.364 396.708 340.844C396.82 341.324 396.876 341.812 396.876 342.308C396.876 343.228 396.748 344.04 396.492 344.744C396.244 345.448 395.876 346 395.388 346.4C394.908 346.792 394.324 346.988 393.636 346.988ZM393.708 342.944C394.076 342.944 394.408 342.86 394.704 342.692C395 342.524 395.232 342.296 395.4 342.008C395.576 341.72 395.664 341.404 395.664 341.06C395.664 340.692 395.576 340.368 395.4 340.088C395.232 339.808 395 339.588 394.704 339.428C394.408 339.268 394.076 339.188 393.708 339.188C393.34 339.188 393.008 339.272 392.712 339.44C392.424 339.6 392.196 339.82 392.028 340.1C391.86 340.38 391.776 340.704 391.776 341.072C391.776 341.448 391.86 341.776 392.028 342.056C392.196 342.336 392.424 342.556 392.712 342.716C393.008 342.868 393.34 342.944 393.708 342.944ZM402.479 346.844V345.044H398.219V344.264L402.299 338.444H403.475V344.156H404.723V345.044H403.475V346.844H402.479ZM399.335 344.156H402.527V339.56L399.335 344.156ZM410.472 346.844L415.356 338.444H416.364L411.48 346.844H410.472ZM415.764 346.988C415.404 346.988 415.08 346.908 414.792 346.748C414.504 346.58 414.272 346.344 414.096 346.04C413.928 345.736 413.844 345.38 413.844 344.972C413.844 344.556 413.928 344.2 414.096 343.904C414.272 343.6 414.504 343.368 414.792 343.208C415.08 343.04 415.404 342.956 415.764 342.956C416.132 342.956 416.456 343.04 416.736 343.208C417.024 343.368 417.252 343.6 417.42 343.904C417.588 344.2 417.672 344.556 417.672 344.972C417.672 345.38 417.588 345.736 417.42 346.04C417.252 346.344 417.024 346.58 416.736 346.748C416.448 346.908 416.124 346.988 415.764 346.988ZM415.752 346.208C415.944 346.208 416.12 346.164 416.28 346.076C416.44 345.98 416.568 345.84 416.664 345.656C416.768 345.472 416.82 345.244 416.82 344.972C416.82 344.692 416.772 344.46 416.676 344.276C416.58 344.092 416.452 343.956 416.292 343.868C416.132 343.772 415.956 343.724 415.764 343.724C415.58 343.724 415.404 343.772 415.236 343.868C415.076 343.956 414.944 344.092 414.84 344.276C414.744 344.46 414.696 344.692 414.696 344.972C414.696 345.244 414.744 345.472 414.84 345.656C414.944 345.84 415.076 345.98 415.236 346.076C415.396 346.164 415.568 346.208 415.752 346.208ZM411.144 342.344C410.784 342.344 410.46 342.264 410.172 342.104C409.884 341.936 409.652 341.7 409.476 341.396C409.308 341.092 409.224 340.736 409.224 340.328C409.224 339.912 409.308 339.556 409.476 339.26C409.652 338.956 409.884 338.724 410.172 338.564C410.468 338.396 410.796 338.312 411.156 338.312C411.516 338.312 411.84 338.396 412.128 338.564C412.416 338.724 412.644 338.956 412.812 339.26C412.98 339.556 413.064 339.912 413.064 340.328C413.064 340.736 412.98 341.092 412.812 341.396C412.644 341.7 412.412 341.936 412.116 342.104C411.828 342.264 411.504 342.344 411.144 342.344ZM411.144 341.564C411.336 341.564 411.512 341.52 411.672 341.432C411.832 341.336 411.96 341.196 412.056 341.012C412.152 340.828 412.2 340.6 412.2 340.328C412.2 340.048 412.152 339.816 412.056 339.632C411.96 339.44 411.832 339.3 411.672 339.212C411.512 339.116 411.34 339.068 411.156 339.068C410.972 339.068 410.796 339.116 410.628 339.212C410.46 339.3 410.324 339.44 410.22 339.632C410.124 339.816 410.076 340.048 410.076 340.328C410.076 340.6 410.124 340.828 410.22 341.012C410.324 341.196 410.456 341.336 410.616 341.432C410.784 341.52 410.96 341.564 411.144 341.564Z" fill="#ACADAE"/>
<rect x="266" y="329" width="28" height="6" rx="2" fill="#5D97A6"/>
<path d="M305.01 335.12C304.497 335.12 304.05 335.027 303.67 334.84C303.29 334.653 302.997 334.393 302.79 334.06C302.583 333.727 302.48 333.34 302.48 332.9H303.36C303.36 333.173 303.423 333.427 303.55 333.66C303.677 333.887 303.86 334.07 304.1 334.21C304.347 334.343 304.65 334.41 305.01 334.41C305.323 334.41 305.59 334.36 305.81 334.26C306.037 334.153 306.207 334.01 306.32 333.83C306.44 333.65 306.5 333.447 306.5 333.22C306.5 332.967 306.443 332.757 306.33 332.59C306.223 332.417 306.073 332.277 305.88 332.17C305.687 332.057 305.463 331.957 305.21 331.87C304.957 331.783 304.683 331.693 304.39 331.6C303.803 331.413 303.377 331.18 303.11 330.9C302.85 330.613 302.72 330.247 302.72 329.8C302.72 329.42 302.807 329.087 302.98 328.8C303.16 328.513 303.413 328.29 303.74 328.13C304.073 327.963 304.467 327.88 304.92 327.88C305.367 327.88 305.753 327.963 306.08 328.13C306.413 328.297 306.673 328.527 306.86 328.82C307.047 329.107 307.14 329.44 307.14 329.82H306.26C306.26 329.627 306.21 329.437 306.11 329.25C306.01 329.063 305.857 328.91 305.65 328.79C305.45 328.663 305.197 328.6 304.89 328.6C304.637 328.593 304.41 328.637 304.21 328.73C304.017 328.817 303.863 328.943 303.75 329.11C303.643 329.277 303.59 329.48 303.59 329.72C303.59 329.947 303.637 330.13 303.73 330.27C303.83 330.41 303.97 330.53 304.15 330.63C304.337 330.723 304.553 330.81 304.8 330.89C305.047 330.97 305.32 331.06 305.62 331.16C305.96 331.273 306.26 331.413 306.52 331.58C306.787 331.74 306.993 331.947 307.14 332.2C307.293 332.453 307.37 332.777 307.37 333.17C307.37 333.503 307.28 333.82 307.1 334.12C306.927 334.413 306.667 334.653 306.32 334.84C305.973 335.027 305.537 335.12 305.01 335.12ZM310.659 335.12C310.273 335.12 309.936 335.047 309.649 334.9C309.363 334.753 309.139 334.53 308.979 334.23C308.819 333.923 308.739 333.543 308.739 333.09V329.74H309.579V333C309.579 333.467 309.693 333.817 309.919 334.05C310.153 334.283 310.463 334.4 310.849 334.4C311.116 334.4 311.356 334.34 311.569 334.22C311.783 334.093 311.953 333.91 312.079 333.67C312.213 333.43 312.279 333.137 312.279 332.79V329.74H313.119V335H312.359L312.309 334.16C312.169 334.467 311.953 334.703 311.659 334.87C311.373 335.037 311.039 335.12 310.659 335.12ZM317.011 335.12C316.531 335.12 316.104 335.007 315.731 334.78C315.358 334.547 315.064 334.223 314.851 333.81C314.638 333.397 314.531 332.917 314.531 332.37C314.531 331.817 314.638 331.337 314.851 330.93C315.064 330.517 315.358 330.197 315.731 329.97C316.104 329.737 316.531 329.62 317.011 329.62C317.611 329.62 318.111 329.78 318.511 330.1C318.918 330.42 319.178 330.85 319.291 331.39H318.431C318.358 331.057 318.188 330.8 317.921 330.62C317.661 330.433 317.354 330.34 317.001 330.34C316.694 330.34 316.418 330.417 316.171 330.57C315.931 330.723 315.741 330.95 315.601 331.25C315.461 331.55 315.391 331.923 315.391 332.37C315.391 332.703 315.431 333 315.511 333.26C315.591 333.513 315.701 333.727 315.841 333.9C315.988 334.067 316.158 334.193 316.351 334.28C316.551 334.367 316.768 334.41 317.001 334.41C317.241 334.41 317.458 334.37 317.651 334.29C317.851 334.203 318.018 334.08 318.151 333.92C318.291 333.76 318.384 333.57 318.431 333.35H319.291C319.184 333.877 318.924 334.303 318.511 334.63C318.104 334.957 317.604 335.12 317.011 335.12ZM322.982 335.12C322.502 335.12 322.076 335.007 321.702 334.78C321.329 334.547 321.036 334.223 320.822 333.81C320.609 333.397 320.502 332.917 320.502 332.37C320.502 331.817 320.609 331.337 320.822 330.93C321.036 330.517 321.329 330.197 321.702 329.97C322.076 329.737 322.502 329.62 322.982 329.62C323.582 329.62 324.082 329.78 324.482 330.1C324.889 330.42 325.149 330.85 325.262 331.39H324.402C324.329 331.057 324.159 330.8 323.892 330.62C323.632 330.433 323.326 330.34 322.972 330.34C322.666 330.34 322.389 330.417 322.142 330.57C321.902 330.723 321.712 330.95 321.572 331.25C321.432 331.55 321.362 331.923 321.362 332.37C321.362 332.703 321.402 333 321.482 333.26C321.562 333.513 321.672 333.727 321.812 333.9C321.959 334.067 322.129 334.193 322.322 334.28C322.522 334.367 322.739 334.41 322.972 334.41C323.212 334.41 323.429 334.37 323.622 334.29C323.822 334.203 323.989 334.08 324.122 333.92C324.262 333.76 324.356 333.57 324.402 333.35H325.262C325.156 333.877 324.896 334.303 324.482 334.63C324.076 334.957 323.576 335.12 322.982 335.12ZM328.864 335.12C328.397 335.12 327.984 335.007 327.624 334.78C327.264 334.553 326.98 334.233 326.774 333.82C326.574 333.407 326.474 332.923 326.474 332.37C326.474 331.817 326.574 331.333 326.774 330.92C326.98 330.507 327.264 330.187 327.624 329.96C327.99 329.733 328.41 329.62 328.884 329.62C329.39 329.62 329.814 329.733 330.154 329.96C330.494 330.187 330.75 330.49 330.924 330.87C331.097 331.25 331.184 331.667 331.184 332.12C331.184 332.187 331.184 332.253 331.184 332.32C331.184 332.387 331.18 332.467 331.174 332.56H327.104V331.91H330.364C330.35 331.397 330.2 331.007 329.914 330.74C329.634 330.467 329.284 330.33 328.864 330.33C328.584 330.33 328.324 330.4 328.084 330.54C327.85 330.673 327.66 330.873 327.514 331.14C327.367 331.407 327.294 331.74 327.294 332.14V332.42C327.294 332.86 327.367 333.23 327.514 333.53C327.66 333.823 327.85 334.043 328.084 334.19C328.324 334.337 328.584 334.41 328.864 334.41C329.237 334.41 329.53 334.34 329.744 334.2C329.957 334.053 330.114 333.847 330.214 333.58H331.044C330.964 333.873 330.824 334.137 330.624 334.37C330.43 334.603 330.184 334.787 329.884 334.92C329.59 335.053 329.25 335.12 328.864 335.12ZM334.448 335.12C333.975 335.12 333.581 335.05 333.268 334.91C332.961 334.763 332.728 334.563 332.568 334.31C332.408 334.05 332.311 333.75 332.278 333.41H333.138C333.165 333.59 333.225 333.757 333.318 333.91C333.418 334.057 333.561 334.177 333.748 334.27C333.935 334.363 334.171 334.41 334.458 334.41C334.685 334.41 334.878 334.377 335.038 334.31C335.198 334.237 335.318 334.137 335.398 334.01C335.485 333.883 335.528 333.737 335.528 333.57C335.528 333.35 335.478 333.18 335.378 333.06C335.285 332.933 335.145 332.84 334.958 332.78C334.778 332.713 334.551 332.663 334.278 332.63C333.985 332.59 333.725 332.533 333.498 332.46C333.271 332.387 333.078 332.29 332.918 332.17C332.765 332.05 332.648 331.9 332.568 331.72C332.488 331.54 332.448 331.327 332.448 331.08C332.448 330.793 332.525 330.54 332.678 330.32C332.831 330.1 333.048 329.93 333.328 329.81C333.615 329.683 333.951 329.62 334.338 329.62C334.905 329.62 335.351 329.75 335.678 330.01C336.011 330.27 336.208 330.64 336.268 331.12H335.438C335.405 330.873 335.291 330.68 335.098 330.54C334.905 330.4 334.648 330.33 334.328 330.33C333.988 330.33 333.731 330.393 333.558 330.52C333.385 330.647 333.298 330.813 333.298 331.02C333.298 331.173 333.335 331.313 333.408 331.44C333.488 331.56 333.621 331.663 333.808 331.75C333.995 331.83 334.245 331.89 334.558 331.93C334.951 331.977 335.285 332.053 335.558 332.16C335.831 332.26 336.038 332.417 336.178 332.63C336.325 332.843 336.395 333.133 336.388 333.5C336.388 333.847 336.305 334.14 336.138 334.38C335.978 334.62 335.751 334.803 335.458 334.93C335.171 335.057 334.835 335.12 334.448 335.12ZM338.166 335V329.18C338.166 328.86 338.219 328.6 338.326 328.4C338.432 328.193 338.589 328.043 338.796 327.95C339.009 327.85 339.269 327.8 339.576 327.8H340.346V328.52H339.716C339.462 328.52 339.279 328.573 339.166 328.68C339.059 328.78 339.006 328.957 339.006 329.21V335H338.166ZM337.346 330.45V329.74H340.406V330.45H337.346ZM343.539 335.12C343.152 335.12 342.816 335.047 342.529 334.9C342.242 334.753 342.019 334.53 341.859 334.23C341.699 333.923 341.619 333.543 341.619 333.09V329.74H342.459V333C342.459 333.467 342.572 333.817 342.799 334.05C343.032 334.283 343.342 334.4 343.729 334.4C343.996 334.4 344.236 334.34 344.449 334.22C344.662 334.093 344.832 333.91 344.959 333.67C345.092 333.43 345.159 333.137 345.159 332.79V329.74H345.999V335H345.239L345.189 334.16C345.049 334.467 344.832 334.703 344.539 334.87C344.252 335.037 343.919 335.12 343.539 335.12ZM347.621 335V327.8H348.461V335H347.621Z" fill="white"/>
<path d="M302.77 361V354H307.03V354.69H303.61V357.15H306.52V357.83H303.61V361H302.77ZM309.599 361.12C309.199 361.12 308.865 361.047 308.599 360.9C308.332 360.747 308.132 360.547 307.999 360.3C307.865 360.047 307.799 359.777 307.799 359.49C307.799 359.143 307.885 358.85 308.059 358.61C308.239 358.363 308.489 358.177 308.809 358.05C309.129 357.923 309.502 357.86 309.929 357.86H311.239C311.239 357.52 311.199 357.237 311.119 357.01C311.039 356.783 310.909 356.613 310.729 356.5C310.549 356.387 310.309 356.33 310.009 356.33C309.709 356.33 309.452 356.407 309.239 356.56C309.025 356.707 308.892 356.927 308.839 357.22H307.979C308.019 356.873 308.135 356.583 308.329 356.35C308.522 356.11 308.765 355.93 309.059 355.81C309.359 355.683 309.675 355.62 310.009 355.62C310.482 355.62 310.872 355.707 311.179 355.88C311.485 356.047 311.712 356.283 311.859 356.59C312.005 356.89 312.079 357.247 312.079 357.66V361H311.329L311.279 360.1C311.212 360.24 311.125 360.373 311.019 360.5C310.919 360.62 310.799 360.727 310.659 360.82C310.519 360.913 310.359 360.987 310.179 361.04C310.005 361.093 309.812 361.12 309.599 361.12ZM309.719 360.41C309.939 360.41 310.142 360.36 310.329 360.26C310.515 360.16 310.675 360.027 310.809 359.86C310.949 359.687 311.055 359.493 311.129 359.28C311.202 359.067 311.239 358.843 311.239 358.61V358.51H309.999C309.685 358.51 309.429 358.55 309.229 358.63C309.035 358.71 308.895 358.823 308.809 358.97C308.722 359.11 308.679 359.27 308.679 359.45C308.679 359.643 308.719 359.813 308.799 359.96C308.879 360.1 308.995 360.21 309.149 360.29C309.309 360.37 309.499 360.41 309.719 360.41ZM313.747 361V355.74H314.587V361H313.747ZM314.167 354.74C314 354.74 313.86 354.687 313.747 354.58C313.64 354.467 313.587 354.327 313.587 354.16C313.587 353.993 313.64 353.86 313.747 353.76C313.86 353.653 314 353.6 314.167 353.6C314.327 353.6 314.463 353.653 314.577 353.76C314.69 353.86 314.747 353.993 314.747 354.16C314.747 354.327 314.69 354.467 314.577 354.58C314.463 354.687 314.327 354.74 314.167 354.74ZM316.279 361V353.8H317.119V361H316.279ZM320.915 361.12C320.448 361.12 320.035 361.007 319.675 360.78C319.315 360.553 319.031 360.233 318.825 359.82C318.625 359.407 318.525 358.923 318.525 358.37C318.525 357.817 318.625 357.333 318.825 356.92C319.031 356.507 319.315 356.187 319.675 355.96C320.041 355.733 320.461 355.62 320.935 355.62C321.441 355.62 321.865 355.733 322.205 355.96C322.545 356.187 322.801 356.49 322.975 356.87C323.148 357.25 323.235 357.667 323.235 358.12C323.235 358.187 323.235 358.253 323.235 358.32C323.235 358.387 323.231 358.467 323.225 358.56H319.155V357.91H322.415C322.401 357.397 322.251 357.007 321.965 356.74C321.685 356.467 321.335 356.33 320.915 356.33C320.635 356.33 320.375 356.4 320.135 356.54C319.901 356.673 319.711 356.873 319.565 357.14C319.418 357.407 319.345 357.74 319.345 358.14V358.42C319.345 358.86 319.418 359.23 319.565 359.53C319.711 359.823 319.901 360.043 320.135 360.19C320.375 360.337 320.635 360.41 320.915 360.41C321.288 360.41 321.581 360.34 321.795 360.2C322.008 360.053 322.165 359.847 322.265 359.58H323.095C323.015 359.873 322.875 360.137 322.675 360.37C322.481 360.603 322.235 360.787 321.935 360.92C321.641 361.053 321.301 361.12 320.915 361.12ZM326.769 361.12C326.302 361.12 325.889 361 325.529 360.76C325.169 360.52 324.889 360.193 324.689 359.78C324.489 359.36 324.389 358.887 324.389 358.36C324.389 357.827 324.489 357.357 324.689 356.95C324.889 356.537 325.169 356.213 325.529 355.98C325.889 355.74 326.305 355.62 326.779 355.62C327.192 355.62 327.545 355.703 327.839 355.87C328.139 356.037 328.375 356.27 328.549 356.57V353.8H329.389V361H328.629L328.559 360.16C328.459 360.327 328.325 360.483 328.159 360.63C327.999 360.777 327.802 360.897 327.569 360.99C327.342 361.077 327.075 361.12 326.769 361.12ZM326.879 360.39C327.212 360.39 327.502 360.31 327.749 360.15C327.995 359.983 328.185 359.75 328.319 359.45C328.452 359.143 328.519 358.783 328.519 358.37C328.519 357.957 328.452 357.6 328.319 357.3C328.185 356.993 327.995 356.76 327.749 356.6C327.502 356.433 327.212 356.35 326.879 356.35C326.565 356.35 326.285 356.433 326.039 356.6C325.792 356.76 325.599 356.993 325.459 357.3C325.319 357.6 325.249 357.957 325.249 358.37C325.249 358.783 325.319 359.143 325.459 359.45C325.599 359.75 325.792 359.983 326.039 360.15C326.285 360.31 326.565 360.39 326.879 360.39Z" fill="white"/>
<rect x="266" y="355" width="28" height="6" rx="2" fill="#AB63A5"/>
</g>
<g filter="url(#filter7_d_2483_57690)">
<g filter="url(#filter8_d_2483_57690)">
<rect x="221.5" y="220.5" width="350" height="187" rx="9.5" fill="#111214" stroke="url(#paint9_linear_2483_57690)"/>
</g>
<line x1="221.997" y1="240.496" x2="571.003" y2="240.496" stroke="url(#paint10_linear_2483_57690)"/>
<g clip-path="url(#clip2_2483_57690)">
<path d="M238.795 229.976C238.781 229.825 238.759 229.653 238.713 229.46C238.667 229.27 238.599 229.061 238.499 228.844C238.398 228.627 238.268 228.402 238.1 228.183C238.034 228.097 237.961 228.013 237.883 227.931C238 227.431 237.742 226.997 237.742 226.997C237.298 226.967 237.015 227.147 236.91 227.229C236.892 227.221 236.876 227.211 236.858 227.204C236.782 227.172 236.705 227.14 236.623 227.113C236.543 227.086 236.461 227.061 236.377 227.039C236.292 227.017 236.208 226.999 236.121 226.985C236.106 226.982 236.092 226.98 236.076 226.977C235.882 226.306 235.326 226.025 235.326 226.025C234.704 226.452 234.588 227.049 234.588 227.049C234.588 227.049 234.585 227.061 234.581 227.083C234.547 227.093 234.512 227.105 234.478 227.115C234.43 227.13 234.382 227.15 234.337 227.17C234.289 227.189 234.243 227.209 234.196 227.231C234.102 227.276 234.009 227.325 233.917 227.379C233.829 227.433 233.742 227.493 233.658 227.554C233.646 227.549 233.635 227.544 233.635 227.544C232.773 227.189 232.01 227.616 232.01 227.616C231.939 228.607 232.354 229.231 232.436 229.344C232.415 229.406 232.397 229.468 232.379 229.529C232.315 229.754 232.267 229.983 232.238 230.222C232.233 230.257 232.229 230.291 232.226 230.326C231.429 230.752 231.194 231.623 231.194 231.623C231.857 232.449 232.632 232.5 232.632 232.5L232.634 232.498C232.732 232.688 232.846 232.868 232.974 233.038C233.029 233.109 233.083 233.176 233.143 233.243C232.901 233.992 233.177 234.614 233.177 234.614C233.915 234.643 234.401 234.263 234.503 234.177C234.576 234.204 234.651 234.229 234.727 234.249C234.955 234.313 235.187 234.35 235.419 234.36C235.476 234.362 235.536 234.365 235.593 234.362H235.62H235.638H235.675L235.711 234.36V234.362C236.06 234.9 236.671 234.976 236.671 234.976C237.106 234.48 237.131 233.987 237.131 233.881C237.131 233.881 237.131 233.879 237.131 233.874C237.131 233.864 237.131 233.859 237.131 233.859C237.131 233.852 237.131 233.844 237.131 233.837C237.222 233.768 237.309 233.694 237.391 233.613C237.564 233.442 237.717 233.248 237.845 233.038C237.856 233.018 237.867 232.999 237.879 232.979C238.371 233.008 238.72 232.648 238.72 232.648C238.638 232.094 238.346 231.822 238.284 231.771C238.284 231.771 238.282 231.768 238.278 231.766C238.273 231.763 238.273 231.761 238.273 231.761C238.271 231.758 238.266 231.756 238.262 231.753C238.264 231.719 238.266 231.687 238.268 231.652C238.273 231.593 238.273 231.531 238.273 231.472V231.428V231.406V231.393C238.273 231.379 238.273 231.383 238.273 231.379L238.271 231.342L238.268 231.292C238.268 231.275 238.266 231.26 238.264 231.245C238.262 231.231 238.262 231.213 238.259 231.199L238.255 231.152L238.248 231.105C238.239 231.043 238.23 230.984 238.216 230.922C238.164 230.683 238.077 230.456 237.965 230.252C237.851 230.047 237.71 229.867 237.548 229.714C237.389 229.561 237.209 229.438 237.022 229.347C236.833 229.256 236.637 229.196 236.441 229.169C236.343 229.154 236.245 229.15 236.147 229.152H236.11H236.101C236.099 229.152 236.087 229.152 236.09 229.152H236.074L236.037 229.154C236.023 229.154 236.01 229.157 235.998 229.157C235.948 229.162 235.898 229.169 235.85 229.179C235.654 229.219 235.47 229.295 235.308 229.401C235.146 229.507 235.005 229.638 234.891 229.786C234.777 229.934 234.688 230.099 234.626 230.269C234.565 230.439 234.531 230.617 234.521 230.787C234.519 230.829 234.519 230.873 234.519 230.915C234.519 230.925 234.519 230.937 234.519 230.947L234.521 230.982C234.524 231.001 234.524 231.023 234.526 231.043C234.533 231.129 234.549 231.213 234.569 231.292C234.613 231.453 234.681 231.598 234.765 231.721C234.85 231.845 234.952 231.946 235.059 232.027C235.166 232.106 235.283 232.163 235.397 232.2C235.511 232.237 235.625 232.251 235.732 232.251C235.745 232.251 235.759 232.251 235.77 232.251C235.777 232.251 235.784 232.251 235.791 232.251C235.798 232.251 235.805 232.251 235.812 232.249C235.823 232.249 235.834 232.246 235.846 232.246C235.848 232.246 235.853 232.246 235.855 232.244L235.866 232.242C235.873 232.242 235.88 232.239 235.887 232.239C235.9 232.237 235.912 232.234 235.925 232.232C235.939 232.229 235.951 232.227 235.962 232.222C235.987 232.217 236.01 232.207 236.033 232.2C236.078 232.182 236.124 232.163 236.163 232.14C236.204 232.118 236.24 232.091 236.276 232.066C236.286 232.059 236.297 232.052 236.306 232.042C236.343 232.01 236.349 231.951 236.32 231.911C236.295 231.877 236.249 231.867 236.213 231.889C236.204 231.894 236.194 231.899 236.185 231.904C236.153 231.921 236.121 231.936 236.087 231.948C236.053 231.96 236.017 231.97 235.98 231.978C235.962 231.98 235.944 231.983 235.923 231.985C235.914 231.985 235.905 231.988 235.894 231.988C235.884 231.988 235.873 231.988 235.866 231.988C235.857 231.988 235.848 231.988 235.839 231.988C235.827 231.988 235.816 231.988 235.805 231.985C235.805 231.985 235.798 231.985 235.802 231.985H235.798H235.791C235.786 231.985 235.78 231.985 235.775 231.983C235.764 231.98 235.755 231.98 235.743 231.978C235.659 231.965 235.574 231.938 235.495 231.899C235.413 231.859 235.335 231.805 235.265 231.736C235.194 231.667 235.132 231.586 235.084 231.492C235.037 231.398 235.002 231.295 234.986 231.186C234.98 231.132 234.975 231.075 234.977 231.021C234.977 231.006 234.98 230.991 234.98 230.977C234.98 230.982 234.98 230.974 234.98 230.974V230.969V230.957C234.98 230.95 234.982 230.942 234.982 230.935C234.984 230.905 234.989 230.876 234.993 230.846C235.032 230.609 235.141 230.377 235.31 230.202C235.353 230.158 235.399 230.119 235.447 230.082C235.495 230.045 235.547 230.013 235.602 229.985C235.657 229.958 235.711 229.936 235.77 229.919C235.827 229.902 235.887 229.892 235.948 229.884C235.978 229.882 236.008 229.879 236.039 229.879C236.049 229.879 236.053 229.879 236.06 229.879H236.085H236.101C236.108 229.879 236.101 229.879 236.103 229.879H236.11L236.135 229.882C236.201 229.887 236.265 229.897 236.329 229.914C236.457 229.943 236.582 229.995 236.698 230.064C236.931 230.205 237.129 230.422 237.25 230.683C237.311 230.814 237.355 230.954 237.375 231.1C237.38 231.137 237.384 231.174 237.386 231.211L237.389 231.238L237.391 231.265C237.391 231.275 237.391 231.285 237.391 231.292C237.391 231.302 237.391 231.312 237.391 231.319V231.344V231.371C237.391 231.388 237.389 231.418 237.389 231.435C237.386 231.475 237.382 231.517 237.377 231.556C237.373 231.596 237.366 231.635 237.359 231.674C237.352 231.714 237.343 231.753 237.334 231.79C237.316 231.867 237.293 231.943 237.266 232.02C237.211 232.168 237.138 232.311 237.051 232.441C236.876 232.703 236.637 232.915 236.363 233.05C236.226 233.117 236.083 233.166 235.935 233.191C235.862 233.206 235.786 233.213 235.711 233.216H235.698H235.686H235.661H235.625H235.606C235.615 233.216 235.604 233.216 235.604 233.216H235.597C235.556 233.216 235.517 233.213 235.476 233.208C235.317 233.196 235.16 233.164 235.005 233.117C234.852 233.07 234.704 233.003 234.563 232.925C234.282 232.762 234.029 232.54 233.833 232.271C233.735 232.138 233.649 231.993 233.578 231.842C233.507 231.692 233.45 231.531 233.409 231.371C233.368 231.208 233.343 231.043 233.332 230.876L233.329 230.843V230.836V230.829V230.814V230.787V230.779V230.769V230.75V230.71V230.703C233.329 230.703 233.329 230.705 233.329 230.7V230.686C233.329 230.666 233.329 230.644 233.329 230.624C233.332 230.543 233.339 230.456 233.348 230.373C233.357 230.289 233.37 230.202 233.386 230.119C233.402 230.035 233.421 229.951 233.443 229.867C233.487 229.702 233.541 229.542 233.605 229.391C233.735 229.09 233.904 228.822 234.107 228.607C234.157 228.553 234.209 228.503 234.264 228.454C234.319 228.407 234.376 228.363 234.435 228.321C234.492 228.279 234.553 228.242 234.615 228.208C234.645 228.19 234.676 228.173 234.708 228.158C234.724 228.151 234.74 228.143 234.756 228.136C234.772 228.129 234.788 228.121 234.804 228.114C234.868 228.084 234.934 228.06 235.002 228.037C235.018 228.033 235.037 228.028 235.053 228.02C235.068 228.015 235.087 228.01 235.103 228.005C235.137 227.996 235.171 227.986 235.205 227.978C235.221 227.973 235.239 227.971 235.258 227.966C235.276 227.961 235.292 227.959 235.31 227.954C235.328 227.951 235.344 227.946 235.363 227.944L235.388 227.939L235.415 227.934C235.433 227.931 235.449 227.929 235.467 227.926C235.488 227.924 235.506 227.922 235.527 227.919C235.543 227.917 235.57 227.914 235.586 227.912C235.597 227.909 235.611 227.909 235.622 227.907L235.647 227.904L235.659 227.902H235.672C235.693 227.899 235.711 227.899 235.732 227.897L235.761 227.894C235.761 227.894 235.773 227.894 235.764 227.894H235.77H235.784C235.8 227.894 235.818 227.892 235.834 227.892C235.9 227.89 235.969 227.89 236.035 227.892C236.167 227.897 236.297 227.914 236.422 227.939C236.675 227.991 236.912 228.077 237.129 228.193C237.345 228.306 237.537 228.447 237.706 228.6C237.717 228.61 237.726 228.619 237.737 228.629C237.747 228.639 237.758 228.649 237.767 228.659C237.788 228.679 237.806 228.698 237.826 228.718C237.847 228.738 237.865 228.757 237.883 228.777C237.902 228.797 237.92 228.817 237.938 228.839C238.009 228.92 238.075 229.002 238.134 229.085C238.253 229.251 238.348 229.418 238.423 229.576C238.428 229.586 238.433 229.596 238.437 229.606C238.442 229.616 238.446 229.625 238.451 229.635C238.46 229.655 238.469 229.675 238.476 229.694C238.485 229.714 238.492 229.731 238.501 229.751C238.508 229.771 238.517 229.788 238.524 229.808C238.551 229.882 238.578 229.953 238.599 230.02C238.633 230.128 238.658 230.225 238.679 230.308C238.686 230.343 238.715 230.365 238.747 230.36C238.781 230.358 238.806 230.328 238.806 230.291C238.809 230.202 238.806 230.096 238.795 229.976Z" fill="url(#paint11_linear_2483_57690)"/>
</g>
<rect x="231" y="251" width="331" height="147" rx="5" fill="#1D1F22"/>
<path d="M246 284.145L294.459 291.414L314.946 304.498L328.342 284.145L366.164 277.846L383.499 273L403.592 284.145L424.079 312.736L448.899 318.066L467.81 327.758L482.781 340.841L510.754 301.106L538.726 277.846H547V383H246V284.145Z" fill="#A1D2DF" fill-opacity="0.2" stroke="#5D97A6"/>
</g>
<g filter="url(#filter9_d_2483_57690)">
<g filter="url(#filter10_d_2483_57690)">
<rect x="201.5" y="200.5" width="350" height="187" rx="9.5" fill="#111214" stroke="url(#paint12_linear_2483_57690)"/>
</g>
<line x1="201.997" y1="220.496" x2="551.003" y2="220.496" stroke="url(#paint13_linear_2483_57690)"/>
<g clip-path="url(#clip3_2483_57690)">
<path d="M218.795 209.976C218.781 209.825 218.759 209.653 218.713 209.46C218.667 209.27 218.599 209.061 218.499 208.844C218.398 208.627 218.268 208.402 218.1 208.183C218.034 208.097 217.961 208.013 217.883 207.931C218 207.431 217.742 206.997 217.742 206.997C217.298 206.967 217.015 207.147 216.91 207.229C216.892 207.221 216.876 207.211 216.858 207.204C216.782 207.172 216.705 207.14 216.623 207.113C216.543 207.086 216.461 207.061 216.377 207.039C216.292 207.017 216.208 206.999 216.121 206.985C216.106 206.982 216.092 206.98 216.076 206.977C215.882 206.306 215.326 206.025 215.326 206.025C214.704 206.452 214.588 207.049 214.588 207.049C214.588 207.049 214.585 207.061 214.581 207.083C214.547 207.093 214.512 207.105 214.478 207.115C214.43 207.13 214.382 207.15 214.337 207.17C214.289 207.189 214.243 207.209 214.196 207.231C214.102 207.276 214.009 207.325 213.917 207.379C213.829 207.433 213.742 207.493 213.658 207.554C213.646 207.549 213.635 207.544 213.635 207.544C212.773 207.189 212.01 207.616 212.01 207.616C211.939 208.607 212.354 209.231 212.436 209.344C212.415 209.406 212.397 209.468 212.379 209.529C212.315 209.754 212.267 209.983 212.238 210.222C212.233 210.257 212.229 210.291 212.226 210.326C211.429 210.752 211.194 211.623 211.194 211.623C211.857 212.449 212.632 212.5 212.632 212.5L212.634 212.498C212.732 212.688 212.846 212.868 212.974 213.038C213.029 213.109 213.083 213.176 213.143 213.243C212.901 213.992 213.177 214.614 213.177 214.614C213.915 214.643 214.401 214.263 214.503 214.177C214.576 214.204 214.651 214.229 214.727 214.249C214.955 214.313 215.187 214.35 215.419 214.36C215.476 214.362 215.536 214.365 215.593 214.362H215.62H215.638H215.675L215.711 214.36V214.362C216.06 214.9 216.671 214.976 216.671 214.976C217.106 214.48 217.131 213.987 217.131 213.881C217.131 213.881 217.131 213.879 217.131 213.874C217.131 213.864 217.131 213.859 217.131 213.859C217.131 213.852 217.131 213.844 217.131 213.837C217.222 213.768 217.309 213.694 217.391 213.613C217.564 213.442 217.717 213.248 217.845 213.038C217.856 213.018 217.867 212.999 217.879 212.979C218.371 213.008 218.72 212.648 218.72 212.648C218.638 212.094 218.346 211.822 218.284 211.771C218.284 211.771 218.282 211.768 218.278 211.766C218.273 211.763 218.273 211.761 218.273 211.761C218.271 211.758 218.266 211.756 218.262 211.753C218.264 211.719 218.266 211.687 218.268 211.652C218.273 211.593 218.273 211.531 218.273 211.472V211.428V211.406V211.393C218.273 211.379 218.273 211.383 218.273 211.379L218.271 211.342L218.268 211.292C218.268 211.275 218.266 211.26 218.264 211.245C218.262 211.231 218.262 211.213 218.259 211.199L218.255 211.152L218.248 211.105C218.239 211.043 218.23 210.984 218.216 210.922C218.164 210.683 218.077 210.456 217.965 210.252C217.851 210.047 217.71 209.867 217.548 209.714C217.389 209.561 217.209 209.438 217.022 209.347C216.833 209.256 216.637 209.196 216.441 209.169C216.343 209.154 216.245 209.15 216.147 209.152H216.11H216.101C216.099 209.152 216.087 209.152 216.09 209.152H216.074L216.037 209.154C216.023 209.154 216.01 209.157 215.998 209.157C215.948 209.162 215.898 209.169 215.85 209.179C215.654 209.219 215.47 209.295 215.308 209.401C215.146 209.507 215.005 209.638 214.891 209.786C214.777 209.934 214.688 210.099 214.626 210.269C214.565 210.439 214.531 210.617 214.521 210.787C214.519 210.829 214.519 210.873 214.519 210.915C214.519 210.925 214.519 210.937 214.519 210.947L214.521 210.982C214.524 211.001 214.524 211.023 214.526 211.043C214.533 211.129 214.549 211.213 214.569 211.292C214.613 211.453 214.681 211.598 214.765 211.721C214.85 211.845 214.952 211.946 215.059 212.027C215.166 212.106 215.283 212.163 215.397 212.2C215.511 212.237 215.625 212.251 215.732 212.251C215.745 212.251 215.759 212.251 215.77 212.251C215.777 212.251 215.784 212.251 215.791 212.251C215.798 212.251 215.805 212.251 215.812 212.249C215.823 212.249 215.834 212.246 215.846 212.246C215.848 212.246 215.853 212.246 215.855 212.244L215.866 212.242C215.873 212.242 215.88 212.239 215.887 212.239C215.9 212.237 215.912 212.234 215.925 212.232C215.939 212.229 215.951 212.227 215.962 212.222C215.987 212.217 216.01 212.207 216.033 212.2C216.078 212.182 216.124 212.163 216.163 212.14C216.204 212.118 216.24 212.091 216.276 212.066C216.286 212.059 216.297 212.052 216.306 212.042C216.343 212.01 216.349 211.951 216.32 211.911C216.295 211.877 216.249 211.867 216.213 211.889C216.204 211.894 216.194 211.899 216.185 211.904C216.153 211.921 216.121 211.936 216.087 211.948C216.053 211.96 216.017 211.97 215.98 211.978C215.962 211.98 215.944 211.983 215.923 211.985C215.914 211.985 215.905 211.988 215.894 211.988C215.884 211.988 215.873 211.988 215.866 211.988C215.857 211.988 215.848 211.988 215.839 211.988C215.827 211.988 215.816 211.988 215.805 211.985C215.805 211.985 215.798 211.985 215.802 211.985H215.798H215.791C215.786 211.985 215.78 211.985 215.775 211.983C215.764 211.98 215.755 211.98 215.743 211.978C215.659 211.965 215.574 211.938 215.495 211.899C215.413 211.859 215.335 211.805 215.265 211.736C215.194 211.667 215.132 211.586 215.084 211.492C215.037 211.398 215.002 211.295 214.986 211.186C214.98 211.132 214.975 211.075 214.977 211.021C214.977 211.006 214.98 210.991 214.98 210.977C214.98 210.982 214.98 210.974 214.98 210.974V210.969V210.957C214.98 210.95 214.982 210.942 214.982 210.935C214.984 210.905 214.989 210.876 214.993 210.846C215.032 210.609 215.141 210.377 215.31 210.202C215.353 210.158 215.399 210.119 215.447 210.082C215.495 210.045 215.547 210.013 215.602 209.985C215.657 209.958 215.711 209.936 215.77 209.919C215.827 209.902 215.887 209.892 215.948 209.884C215.978 209.882 216.008 209.879 216.039 209.879C216.049 209.879 216.053 209.879 216.06 209.879H216.085H216.101C216.108 209.879 216.101 209.879 216.103 209.879H216.11L216.135 209.882C216.201 209.887 216.265 209.897 216.329 209.914C216.457 209.943 216.582 209.995 216.698 210.064C216.931 210.205 217.129 210.422 217.25 210.683C217.311 210.814 217.355 210.954 217.375 211.1C217.38 211.137 217.384 211.174 217.386 211.211L217.389 211.238L217.391 211.265C217.391 211.275 217.391 211.285 217.391 211.292C217.391 211.302 217.391 211.312 217.391 211.319V211.344V211.371C217.391 211.388 217.389 211.418 217.389 211.435C217.386 211.475 217.382 211.517 217.377 211.556C217.373 211.596 217.366 211.635 217.359 211.674C217.352 211.714 217.343 211.753 217.334 211.79C217.316 211.867 217.293 211.943 217.266 212.02C217.211 212.168 217.138 212.311 217.051 212.441C216.876 212.703 216.637 212.915 216.363 213.05C216.226 213.117 216.083 213.166 215.935 213.191C215.862 213.206 215.786 213.213 215.711 213.216H215.698H215.686H215.661H215.625H215.606C215.615 213.216 215.604 213.216 215.604 213.216H215.597C215.556 213.216 215.517 213.213 215.476 213.208C215.317 213.196 215.16 213.164 215.005 213.117C214.852 213.07 214.704 213.003 214.563 212.925C214.282 212.762 214.029 212.54 213.833 212.271C213.735 212.138 213.649 211.993 213.578 211.842C213.507 211.692 213.45 211.531 213.409 211.371C213.368 211.208 213.343 211.043 213.332 210.876L213.329 210.843V210.836V210.829V210.814V210.787V210.779V210.769V210.75V210.71V210.703C213.329 210.703 213.329 210.705 213.329 210.7V210.686C213.329 210.666 213.329 210.644 213.329 210.624C213.332 210.543 213.339 210.456 213.348 210.373C213.357 210.289 213.37 210.202 213.386 210.119C213.402 210.035 213.421 209.951 213.443 209.867C213.487 209.702 213.541 209.542 213.605 209.391C213.735 209.09 213.904 208.822 214.107 208.607C214.157 208.553 214.209 208.503 214.264 208.454C214.319 208.407 214.376 208.363 214.435 208.321C214.492 208.279 214.553 208.242 214.615 208.208C214.645 208.19 214.676 208.173 214.708 208.158C214.724 208.151 214.74 208.143 214.756 208.136C214.772 208.129 214.788 208.121 214.804 208.114C214.868 208.084 214.934 208.06 215.002 208.037C215.018 208.033 215.037 208.028 215.053 208.02C215.068 208.015 215.087 208.01 215.103 208.005C215.137 207.996 215.171 207.986 215.205 207.978C215.221 207.973 215.239 207.971 215.258 207.966C215.276 207.961 215.292 207.959 215.31 207.954C215.328 207.951 215.344 207.946 215.363 207.944L215.388 207.939L215.415 207.934C215.433 207.931 215.449 207.929 215.467 207.926C215.488 207.924 215.506 207.922 215.527 207.919C215.543 207.917 215.57 207.914 215.586 207.912C215.597 207.909 215.611 207.909 215.622 207.907L215.647 207.904L215.659 207.902H215.672C215.693 207.899 215.711 207.899 215.732 207.897L215.761 207.894C215.761 207.894 215.773 207.894 215.764 207.894H215.77H215.784C215.8 207.894 215.818 207.892 215.834 207.892C215.9 207.89 215.969 207.89 216.035 207.892C216.167 207.897 216.297 207.914 216.422 207.939C216.675 207.991 216.912 208.077 217.129 208.193C217.345 208.306 217.537 208.447 217.706 208.6C217.717 208.61 217.726 208.619 217.737 208.629C217.747 208.639 217.758 208.649 217.767 208.659C217.788 208.679 217.806 208.698 217.826 208.718C217.847 208.738 217.865 208.757 217.883 208.777C217.902 208.797 217.92 208.817 217.938 208.839C218.009 208.92 218.075 209.002 218.134 209.085C218.253 209.251 218.348 209.418 218.423 209.576C218.428 209.586 218.433 209.596 218.437 209.606C218.442 209.616 218.446 209.625 218.451 209.635C218.46 209.655 218.469 209.675 218.476 209.694C218.485 209.714 218.492 209.731 218.501 209.751C218.508 209.771 218.517 209.788 218.524 209.808C218.551 209.882 218.578 209.953 218.599 210.02C218.633 210.128 218.658 210.225 218.679 210.308C218.686 210.343 218.715 210.365 218.747 210.36C218.781 210.358 218.806 210.328 218.806 210.291C218.809 210.202 218.806 210.096 218.795 209.976Z" fill="#86888E"/>
</g>
<rect x="211" y="231" width="331" height="147" rx="5" fill="#1D1F22"/>
</g>
<g filter="url(#filter11_d_2483_57690)">
<path d="M226 253C226 250.239 228.239 248 231 248H249C251.761 248 254 250.239 254 253V363H226V253Z" fill="#BBBBBB"/>
</g>
<g filter="url(#filter12_d_2483_57690)">
<path d="M264 271C264 268.239 266.239 266 269 266H287C289.761 266 292 268.239 292 271V363H264V271Z" fill="#EEEFF1"/>
</g>
<g filter="url(#filter13_d_2483_57690)">
<path d="M302 264C302 261.239 304.239 259 307 259H325C327.761 259 330 261.239 330 264V363H302V264Z" fill="#D9D9D9"/>
</g>
<g filter="url(#filter14_d_2483_57690)">
<path d="M340 253C340 250.239 342.239 248 345 248H363C365.761 248 368 250.239 368 253V363H340V253Z" fill="#ACADAE"/>
</g>
<g filter="url(#filter15_d_2483_57690)">
<path d="M378 264C378 261.239 380.239 259 383 259H401C403.761 259 406 261.239 406 264V363H378V264Z" fill="#9FA1A6"/>
</g>
<g filter="url(#filter16_d_2483_57690)">
<path d="M416 282C416 279.239 418.239 277 421 277H439C441.761 277 444 279.239 444 282V363H416V282Z" fill="#86888E"/>
</g>
<g filter="url(#filter17_d_2483_57690)">
<path d="M454 253C454 250.239 456.239 248 459 248H477C479.761 248 482 250.239 482 253V363H454V253Z" fill="#575B62"/>
</g>
<g filter="url(#filter18_d_2483_57690)">
<path d="M492 271C492 268.239 494.239 266 497 266H515C517.761 266 520 268.239 520 271V363H492V271Z" fill="#484A4E"/>
</g>
<defs>
<filter id="filter0_f_2483_57690" x="-94" y="-70" width="977" height="773" filterUnits="userSpaceOnUse" color-interpolation-filters="sRGB">
<feFlood flood-opacity="0" result="BackgroundImageFix"/>
<feBlend mode="normal" in="SourceGraphic" in2="BackgroundImageFix" result="shape"/>
<feGaussianBlur stdDeviation="150" result="effect1_foregroundBlur_2483_57690"/>
</filter>
<filter id="filter1_d_2483_57690" x="241" y="240" width="431" height="268" filterUnits="userSpaceOnUse" color-interpolation-filters="sRGB">
<feFlood flood-opacity="0" result="BackgroundImageFix"/>
<feColorMatrix in="SourceAlpha" type="matrix" values="0 0 0 0 0 0 0 0 0 0 0 0 0 0 0 0 0 0 127 0" result="hardAlpha"/>
<feOffset dx="20" dy="20"/>
<feGaussianBlur stdDeviation="20"/>
<feComposite in2="hardAlpha" operator="out"/>
<feColorMatrix type="matrix" values="0 0 0 0 0 0 0 0 0 0 0 0 0 0 0 0 0 0 0.4 0"/>
<feBlend mode="normal" in2="BackgroundImageFix" result="effect1_dropShadow_2483_57690"/>
<feBlend mode="normal" in="SourceGraphic" in2="effect1_dropShadow_2483_57690" result="shape"/>
</filter>
<filter id="filter4_d_2483_57690" x="221" y="220" width="431" height="268" filterUnits="userSpaceOnUse" color-interpolation-filters="sRGB">
<feFlood flood-opacity="0" result="BackgroundImageFix"/>
<feColorMatrix in="SourceAlpha" type="matrix" values="0 0 0 0 0 0 0 0 0 0 0 0 0 0 0 0 0 0 127 0" result="hardAlpha"/>
<feOffset dx="20" dy="20"/>
<feGaussianBlur stdDeviation="20"/>
<feComposite in2="hardAlpha" operator="out"/>
<feColorMatrix type="matrix" values="0 0 0 0 0 0 0 0 0 0 0 0 0 0 0 0 0 0 0.4 0"/>
<feBlend mode="normal" in2="BackgroundImageFix" result="effect1_dropShadow_2483_57690"/>
<feBlend mode="normal" in="SourceGraphic" in2="effect1_dropShadow_2483_57690" result="shape"/>
</filter>
<filter id="filter7_d_2483_57690" x="201" y="200" width="431" height="268" filterUnits="userSpaceOnUse" color-interpolation-filters="sRGB">
<feFlood flood-opacity="0" result="BackgroundImageFix"/>
<feColorMatrix in="SourceAlpha" type="matrix" values="0 0 0 0 0 0 0 0 0 0 0 0 0 0 0 0 0 0 127 0" result="hardAlpha"/>
<feOffset dx="20" dy="20"/>
<feGaussianBlur stdDeviation="20"/>
<feComposite in2="hardAlpha" operator="out"/>
<feColorMatrix type="matrix" values="0 0 0 0 0 0 0 0 0 0 0 0 0 0 0 0 0 0 0.4 0"/>
<feBlend mode="normal" in2="BackgroundImageFix" result="effect1_dropShadow_2483_57690"/>
<feBlend mode="normal" in="SourceGraphic" in2="effect1_dropShadow_2483_57690" result="shape"/>
</filter>
<filter id="filter8_d_2483_57690" x="176" y="145" width="441" height="278" filterUnits="userSpaceOnUse" color-interpolation-filters="sRGB">
<feFlood flood-opacity="0" result="BackgroundImageFix"/>
<feColorMatrix in="SourceAlpha" type="matrix" values="0 0 0 0 0 0 0 0 0 0 0 0 0 0 0 0 0 0 127 0" result="hardAlpha"/>
<feOffset dy="-30"/>
<feGaussianBlur stdDeviation="22.5"/>
<feComposite in2="hardAlpha" operator="out"/>
<feColorMatrix type="matrix" values="0 0 0 0 0 0 0 0 0 0 0 0 0 0 0 0 0 0 0.5 0"/>
<feBlend mode="normal" in2="BackgroundImageFix" result="effect1_dropShadow_2483_57690"/>
<feBlend mode="normal" in="SourceGraphic" in2="effect1_dropShadow_2483_57690" result="shape"/>
</filter>
<filter id="filter9_d_2483_57690" x="181" y="180" width="431" height="268" filterUnits="userSpaceOnUse" color-interpolation-filters="sRGB">
<feFlood flood-opacity="0" result="BackgroundImageFix"/>
<feColorMatrix in="SourceAlpha" type="matrix" values="0 0 0 0 0 0 0 0 0 0 0 0 0 0 0 0 0 0 127 0" result="hardAlpha"/>
<feOffset dx="20" dy="20"/>
<feGaussianBlur stdDeviation="20"/>
<feComposite in2="hardAlpha" operator="out"/>
<feColorMatrix type="matrix" values="0 0 0 0 0 0 0 0 0 0 0 0 0 0 0 0 0 0 0.4 0"/>
<feBlend mode="normal" in2="BackgroundImageFix" result="effect1_dropShadow_2483_57690"/>
<feBlend mode="normal" in="SourceGraphic" in2="effect1_dropShadow_2483_57690" result="shape"/>
</filter>
<filter id="filter10_d_2483_57690" x="156" y="125" width="441" height="278" filterUnits="userSpaceOnUse" color-interpolation-filters="sRGB">
<feFlood flood-opacity="0" result="BackgroundImageFix"/>
<feColorMatrix in="SourceAlpha" type="matrix" values="0 0 0 0 0 0 0 0 0 0 0 0 0 0 0 0 0 0 127 0" result="hardAlpha"/>
<feOffset dy="-30"/>
<feGaussianBlur stdDeviation="22.5"/>
<feComposite in2="hardAlpha" operator="out"/>
<feColorMatrix type="matrix" values="0 0 0 0 0 0 0 0 0 0 0 0 0 0 0 0 0 0 0.5 0"/>
<feBlend mode="normal" in2="BackgroundImageFix" result="effect1_dropShadow_2483_57690"/>
<feBlend mode="normal" in="SourceGraphic" in2="effect1_dropShadow_2483_57690" result="shape"/>
</filter>
<filter id="filter11_d_2483_57690" x="211" y="223" width="68" height="155" filterUnits="userSpaceOnUse" color-interpolation-filters="sRGB">
<feFlood flood-opacity="0" result="BackgroundImageFix"/>
<feColorMatrix in="SourceAlpha" type="matrix" values="0 0 0 0 0 0 0 0 0 0 0 0 0 0 0 0 0 0 127 0" result="hardAlpha"/>
<feOffset dx="5" dy="-5"/>
<feGaussianBlur stdDeviation="10"/>
<feComposite in2="hardAlpha" operator="out"/>
<feColorMatrix type="matrix" values="0 0 0 0 0 0 0 0 0 0 0 0 0 0 0 0 0 0 0.5 0"/>
<feBlend mode="normal" in2="BackgroundImageFix" result="effect1_dropShadow_2483_57690"/>
<feBlend mode="normal" in="SourceGraphic" in2="effect1_dropShadow_2483_57690" result="shape"/>
</filter>
<filter id="filter12_d_2483_57690" x="249" y="241" width="68" height="137" filterUnits="userSpaceOnUse" color-interpolation-filters="sRGB">
<feFlood flood-opacity="0" result="BackgroundImageFix"/>
<feColorMatrix in="SourceAlpha" type="matrix" values="0 0 0 0 0 0 0 0 0 0 0 0 0 0 0 0 0 0 127 0" result="hardAlpha"/>
<feOffset dx="5" dy="-5"/>
<feGaussianBlur stdDeviation="10"/>
<feComposite in2="hardAlpha" operator="out"/>
<feColorMatrix type="matrix" values="0 0 0 0 0 0 0 0 0 0 0 0 0 0 0 0 0 0 0.5 0"/>
<feBlend mode="normal" in2="BackgroundImageFix" result="effect1_dropShadow_2483_57690"/>
<feBlend mode="normal" in="SourceGraphic" in2="effect1_dropShadow_2483_57690" result="shape"/>
</filter>
<filter id="filter13_d_2483_57690" x="287" y="234" width="68" height="144" filterUnits="userSpaceOnUse" color-interpolation-filters="sRGB">
<feFlood flood-opacity="0" result="BackgroundImageFix"/>
<feColorMatrix in="SourceAlpha" type="matrix" values="0 0 0 0 0 0 0 0 0 0 0 0 0 0 0 0 0 0 127 0" result="hardAlpha"/>
<feOffset dx="5" dy="-5"/>
<feGaussianBlur stdDeviation="10"/>
<feComposite in2="hardAlpha" operator="out"/>
<feColorMatrix type="matrix" values="0 0 0 0 0 0 0 0 0 0 0 0 0 0 0 0 0 0 0.5 0"/>
<feBlend mode="normal" in2="BackgroundImageFix" result="effect1_dropShadow_2483_57690"/>
<feBlend mode="normal" in="SourceGraphic" in2="effect1_dropShadow_2483_57690" result="shape"/>
</filter>
<filter id="filter14_d_2483_57690" x="325" y="223" width="68" height="155" filterUnits="userSpaceOnUse" color-interpolation-filters="sRGB">
<feFlood flood-opacity="0" result="BackgroundImageFix"/>
<feColorMatrix in="SourceAlpha" type="matrix" values="0 0 0 0 0 0 0 0 0 0 0 0 0 0 0 0 0 0 127 0" result="hardAlpha"/>
<feOffset dx="5" dy="-5"/>
<feGaussianBlur stdDeviation="10"/>
<feComposite in2="hardAlpha" operator="out"/>
<feColorMatrix type="matrix" values="0 0 0 0 0 0 0 0 0 0 0 0 0 0 0 0 0 0 0.5 0"/>
<feBlend mode="normal" in2="BackgroundImageFix" result="effect1_dropShadow_2483_57690"/>
<feBlend mode="normal" in="SourceGraphic" in2="effect1_dropShadow_2483_57690" result="shape"/>
</filter>
<filter id="filter15_d_2483_57690" x="363" y="234" width="68" height="144" filterUnits="userSpaceOnUse" color-interpolation-filters="sRGB">
<feFlood flood-opacity="0" result="BackgroundImageFix"/>
<feColorMatrix in="SourceAlpha" type="matrix" values="0 0 0 0 0 0 0 0 0 0 0 0 0 0 0 0 0 0 127 0" result="hardAlpha"/>
<feOffset dx="5" dy="-5"/>
<feGaussianBlur stdDeviation="10"/>
<feComposite in2="hardAlpha" operator="out"/>
<feColorMatrix type="matrix" values="0 0 0 0 0 0 0 0 0 0 0 0 0 0 0 0 0 0 0.5 0"/>
<feBlend mode="normal" in2="BackgroundImageFix" result="effect1_dropShadow_2483_57690"/>
<feBlend mode="normal" in="SourceGraphic" in2="effect1_dropShadow_2483_57690" result="shape"/>
</filter>
<filter id="filter16_d_2483_57690" x="401" y="252" width="68" height="126" filterUnits="userSpaceOnUse" color-interpolation-filters="sRGB">
<feFlood flood-opacity="0" result="BackgroundImageFix"/>
<feColorMatrix in="SourceAlpha" type="matrix" values="0 0 0 0 0 0 0 0 0 0 0 0 0 0 0 0 0 0 127 0" result="hardAlpha"/>
<feOffset dx="5" dy="-5"/>
<feGaussianBlur stdDeviation="10"/>
<feComposite in2="hardAlpha" operator="out"/>
<feColorMatrix type="matrix" values="0 0 0 0 0 0 0 0 0 0 0 0 0 0 0 0 0 0 0.5 0"/>
<feBlend mode="normal" in2="BackgroundImageFix" result="effect1_dropShadow_2483_57690"/>
<feBlend mode="normal" in="SourceGraphic" in2="effect1_dropShadow_2483_57690" result="shape"/>
</filter>
<filter id="filter17_d_2483_57690" x="439" y="223" width="68" height="155" filterUnits="userSpaceOnUse" color-interpolation-filters="sRGB">
<feFlood flood-opacity="0" result="BackgroundImageFix"/>
<feColorMatrix in="SourceAlpha" type="matrix" values="0 0 0 0 0 0 0 0 0 0 0 0 0 0 0 0 0 0 127 0" result="hardAlpha"/>
<feOffset dx="5" dy="-5"/>
<feGaussianBlur stdDeviation="10"/>
<feComposite in2="hardAlpha" operator="out"/>
<feColorMatrix type="matrix" values="0 0 0 0 0 0 0 0 0 0 0 0 0 0 0 0 0 0 0.5 0"/>
<feBlend mode="normal" in2="BackgroundImageFix" result="effect1_dropShadow_2483_57690"/>
<feBlend mode="normal" in="SourceGraphic" in2="effect1_dropShadow_2483_57690" result="shape"/>
</filter>
<filter id="filter18_d_2483_57690" x="477" y="241" width="68" height="137" filterUnits="userSpaceOnUse" color-interpolation-filters="sRGB">
<feFlood flood-opacity="0" result="BackgroundImageFix"/>
<feColorMatrix in="SourceAlpha" type="matrix" values="0 0 0 0 0 0 0 0 0 0 0 0 0 0 0 0 0 0 127 0" result="hardAlpha"/>
<feOffset dx="5" dy="-5"/>
<feGaussianBlur stdDeviation="10"/>
<feComposite in2="hardAlpha" operator="out"/>
<feColorMatrix type="matrix" values="0 0 0 0 0 0 0 0 0 0 0 0 0 0 0 0 0 0 0.5 0"/>
<feBlend mode="normal" in2="BackgroundImageFix" result="effect1_dropShadow_2483_57690"/>
<feBlend mode="normal" in="SourceGraphic" in2="effect1_dropShadow_2483_57690" result="shape"/>
</filter>
<linearGradient id="paint0_linear_2483_57690" x1="394.5" y1="230" x2="394.5" y2="403" gradientUnits="userSpaceOnUse">
<stop stop-color="#0D0D11"/>
<stop offset="1" stop-color="#0D0D11" stop-opacity="0.5"/>
</linearGradient>
<linearGradient id="paint1_linear_2483_57690" x1="436.5" y1="260" x2="436.5" y2="448" gradientUnits="userSpaceOnUse">
<stop stop-color="#86888E"/>
<stop offset="1" stop-color="#86888E" stop-opacity="0.7"/>
</linearGradient>
<linearGradient id="paint2_linear_2483_57690" x1="261.997" y1="281.496" x2="611.003" y2="281.496" gradientUnits="userSpaceOnUse">
<stop stop-color="#86888E"/>
<stop offset="1" stop-color="#86888E" stop-opacity="0.7"/>
</linearGradient>
<linearGradient id="paint3_linear_2483_57690" x1="275" y1="268.701" x2="275" y2="274.911" gradientUnits="userSpaceOnUse">
<stop stop-color="#F05A28"/>
<stop offset="1" stop-color="#FBCA0A"/>
</linearGradient>
<linearGradient id="paint4_linear_2483_57690" x1="532.801" y1="319.801" x2="449.199" y2="405.887" gradientUnits="userSpaceOnUse">
<stop stop-color="#A65DA0"/>
<stop offset="1" stop-color="#DA92D4"/>
</linearGradient>
<linearGradient id="paint5_linear_2483_57690" x1="416.5" y1="240" x2="416.5" y2="428" gradientUnits="userSpaceOnUse">
<stop stop-color="#86888E"/>
<stop offset="1" stop-color="#86888E" stop-opacity="0.7"/>
</linearGradient>
<linearGradient id="paint6_linear_2483_57690" x1="241.997" y1="261.496" x2="591.003" y2="261.496" gradientUnits="userSpaceOnUse">
<stop stop-color="#86888E"/>
<stop offset="1" stop-color="#86888E" stop-opacity="0.7"/>
</linearGradient>
<linearGradient id="paint7_linear_2483_57690" x1="255" y1="248.701" x2="255" y2="254.911" gradientUnits="userSpaceOnUse">
<stop stop-color="#F05A28"/>
<stop offset="1" stop-color="#FBCA0A"/>
</linearGradient>
<linearGradient id="paint8_linear_2483_57690" x1="512.801" y1="299.801" x2="429.199" y2="385.887" gradientUnits="userSpaceOnUse">
<stop stop-color="#A65DA0"/>
<stop offset="1" stop-color="#DA92D4"/>
</linearGradient>
<linearGradient id="paint9_linear_2483_57690" x1="396.5" y1="220" x2="396.5" y2="408" gradientUnits="userSpaceOnUse">
<stop stop-color="#86888E"/>
<stop offset="1" stop-color="#86888E" stop-opacity="0.7"/>
</linearGradient>
<linearGradient id="paint10_linear_2483_57690" x1="221.997" y1="241.496" x2="571.003" y2="241.496" gradientUnits="userSpaceOnUse">
<stop stop-color="#86888E"/>
<stop offset="1" stop-color="#86888E" stop-opacity="0.7"/>
</linearGradient>
<linearGradient id="paint11_linear_2483_57690" x1="235" y1="228.701" x2="235" y2="234.911" gradientUnits="userSpaceOnUse">
<stop stop-color="#F05A28"/>
<stop offset="1" stop-color="#FBCA0A"/>
</linearGradient>
<linearGradient id="paint12_linear_2483_57690" x1="376.5" y1="200" x2="376.5" y2="388" gradientUnits="userSpaceOnUse">
<stop stop-color="#86888E"/>
<stop offset="1" stop-color="#86888E" stop-opacity="0.7"/>
</linearGradient>
<linearGradient id="paint13_linear_2483_57690" x1="201.997" y1="221.496" x2="551.003" y2="221.496" gradientUnits="userSpaceOnUse">
<stop stop-color="#86888E"/>
<stop offset="1" stop-color="#86888E" stop-opacity="0.7"/>
</linearGradient>
<clipPath id="clip0_2483_57690">
<rect width="8" height="9" fill="white" transform="translate(271 266)"/>
</clipPath>
<clipPath id="clip1_2483_57690">
<rect width="8" height="9" fill="white" transform="translate(251 246)"/>
</clipPath>
<clipPath id="clip2_2483_57690">
<rect width="8" height="9" fill="white" transform="translate(231 226)"/>
</clipPath>
<clipPath id="clip3_2483_57690">
<rect width="8" height="9" fill="white" transform="translate(211 206)"/>
</clipPath>
</defs>
</svg>
