<svg width="516" height="383" viewBox="0 0 516 383" fill="none" xmlns="http://www.w3.org/2000/svg">
<g filter="url(#filter0_d_2654_28251)">
<rect x="105.5" y="135.5" width="350" height="187" rx="9.5" fill="#111214" stroke="url(#paint0_linear_2654_28251)"/>
<line x1="105.997" y1="155.496" x2="455.003" y2="155.496" stroke="url(#paint1_linear_2654_28251)"/>
<g clip-path="url(#clip0_2654_28251)">
<path d="M122.794 144.976C122.781 144.825 122.758 144.653 122.712 144.46C122.667 144.27 122.598 144.061 122.498 143.844C122.398 143.627 122.268 143.402 122.099 143.183C122.033 143.097 121.96 143.013 121.883 142.931C121.999 142.431 121.742 141.997 121.742 141.997C121.297 141.967 121.014 142.147 120.91 142.229C120.891 142.221 120.875 142.211 120.857 142.204C120.782 142.172 120.704 142.14 120.622 142.113C120.543 142.086 120.461 142.061 120.376 142.039C120.292 142.017 120.208 141.999 120.121 141.985C120.105 141.982 120.091 141.98 120.075 141.977C119.882 141.306 119.326 141.025 119.326 141.025C118.703 141.452 118.587 142.049 118.587 142.049C118.587 142.049 118.585 142.061 118.58 142.083C118.546 142.093 118.512 142.105 118.478 142.115C118.43 142.13 118.382 142.15 118.336 142.17C118.289 142.189 118.243 142.209 118.195 142.231C118.102 142.276 118.008 142.325 117.917 142.379C117.828 142.433 117.742 142.493 117.657 142.554C117.646 142.549 117.634 142.544 117.634 142.544C116.773 142.189 116.009 142.616 116.009 142.616C115.939 143.607 116.353 144.231 116.436 144.344C116.415 144.406 116.397 144.468 116.379 144.529C116.315 144.754 116.267 144.983 116.237 145.222C116.233 145.257 116.228 145.291 116.226 145.326C115.428 145.752 115.193 146.623 115.193 146.623C115.857 147.449 116.632 147.5 116.632 147.5L116.634 147.498C116.732 147.688 116.846 147.868 116.973 148.038C117.028 148.109 117.083 148.176 117.142 148.243C116.9 148.992 117.176 149.614 117.176 149.614C117.915 149.643 118.4 149.263 118.503 149.177C118.576 149.204 118.651 149.229 118.726 149.249C118.954 149.313 119.187 149.35 119.419 149.36C119.476 149.362 119.535 149.365 119.592 149.362H119.62H119.638H119.674L119.711 149.36V149.362C120.059 149.9 120.67 149.976 120.67 149.976C121.106 149.48 121.131 148.987 121.131 148.881C121.131 148.881 121.131 148.879 121.131 148.874C121.131 148.864 121.131 148.859 121.131 148.859C121.131 148.852 121.131 148.844 121.131 148.837C121.222 148.768 121.308 148.694 121.391 148.613C121.564 148.442 121.716 148.248 121.844 148.038C121.855 148.018 121.867 147.999 121.878 147.979C122.371 148.008 122.719 147.648 122.719 147.648C122.637 147.094 122.345 146.822 122.284 146.771C122.284 146.771 122.282 146.768 122.277 146.766C122.273 146.763 122.273 146.761 122.273 146.761C122.27 146.758 122.266 146.756 122.261 146.753C122.263 146.719 122.266 146.687 122.268 146.652C122.273 146.593 122.273 146.531 122.273 146.472V146.428V146.406V146.393C122.273 146.379 122.273 146.383 122.273 146.379L122.27 146.342L122.268 146.292C122.268 146.275 122.266 146.26 122.263 146.245C122.261 146.231 122.261 146.213 122.259 146.199L122.254 146.152L122.247 146.105C122.238 146.043 122.229 145.984 122.216 145.922C122.163 145.683 122.077 145.456 121.965 145.252C121.851 145.047 121.71 144.867 121.548 144.714C121.388 144.561 121.208 144.438 121.021 144.347C120.832 144.256 120.636 144.196 120.44 144.169C120.342 144.154 120.244 144.15 120.146 144.152H120.11H120.1C120.098 144.152 120.087 144.152 120.089 144.152H120.073L120.037 144.154C120.023 144.154 120.009 144.157 119.998 144.157C119.948 144.162 119.898 144.169 119.85 144.179C119.654 144.219 119.469 144.295 119.307 144.401C119.145 144.507 119.004 144.638 118.89 144.786C118.776 144.934 118.687 145.099 118.626 145.269C118.564 145.439 118.53 145.617 118.521 145.787C118.519 145.829 118.519 145.873 118.519 145.915C118.519 145.925 118.519 145.937 118.519 145.947L118.521 145.982C118.523 146.001 118.523 146.023 118.526 146.043C118.532 146.129 118.548 146.213 118.569 146.292C118.612 146.453 118.681 146.598 118.765 146.721C118.849 146.845 118.952 146.946 119.059 147.027C119.166 147.106 119.282 147.163 119.396 147.2C119.51 147.237 119.624 147.251 119.731 147.251C119.745 147.251 119.759 147.251 119.77 147.251C119.777 147.251 119.784 147.251 119.791 147.251C119.797 147.251 119.804 147.251 119.811 147.249C119.822 147.249 119.834 147.246 119.845 147.246C119.847 147.246 119.852 147.246 119.854 147.244L119.866 147.242C119.873 147.242 119.879 147.239 119.886 147.239C119.9 147.237 119.911 147.234 119.925 147.232C119.939 147.229 119.95 147.227 119.961 147.222C119.987 147.217 120.009 147.207 120.032 147.2C120.078 147.182 120.123 147.163 120.162 147.14C120.203 147.118 120.24 147.091 120.276 147.066C120.285 147.059 120.296 147.052 120.306 147.042C120.342 147.01 120.349 146.951 120.319 146.911C120.294 146.877 120.249 146.867 120.212 146.889C120.203 146.894 120.194 146.899 120.185 146.904C120.153 146.921 120.121 146.936 120.087 146.948C120.053 146.96 120.016 146.97 119.98 146.978C119.961 146.98 119.943 146.983 119.923 146.985C119.914 146.985 119.904 146.988 119.893 146.988C119.884 146.988 119.873 146.988 119.866 146.988C119.857 146.988 119.847 146.988 119.838 146.988C119.827 146.988 119.816 146.988 119.804 146.985C119.804 146.985 119.797 146.985 119.802 146.985H119.797H119.791C119.786 146.985 119.779 146.985 119.775 146.983C119.763 146.98 119.754 146.98 119.743 146.978C119.658 146.965 119.574 146.938 119.494 146.899C119.412 146.859 119.335 146.805 119.264 146.736C119.193 146.667 119.132 146.586 119.084 146.492C119.036 146.398 119.002 146.295 118.986 146.186C118.979 146.132 118.975 146.075 118.977 146.021C118.977 146.006 118.979 145.991 118.979 145.977C118.979 145.982 118.979 145.974 118.979 145.974V145.969V145.957C118.979 145.949 118.981 145.942 118.981 145.935C118.984 145.905 118.988 145.876 118.993 145.846C119.032 145.609 119.141 145.377 119.31 145.202C119.353 145.158 119.398 145.119 119.446 145.082C119.494 145.045 119.547 145.013 119.601 144.985C119.656 144.958 119.711 144.936 119.77 144.919C119.827 144.902 119.886 144.892 119.948 144.884C119.977 144.882 120.007 144.879 120.039 144.879C120.048 144.879 120.053 144.879 120.059 144.879H120.085H120.1C120.107 144.879 120.1 144.879 120.103 144.879H120.11L120.135 144.882C120.201 144.887 120.265 144.897 120.328 144.914C120.456 144.943 120.581 144.995 120.698 145.064C120.93 145.205 121.128 145.422 121.249 145.683C121.311 145.814 121.354 145.954 121.375 146.1C121.379 146.137 121.384 146.174 121.386 146.211L121.388 146.238L121.391 146.265C121.391 146.275 121.391 146.285 121.391 146.292C121.391 146.302 121.391 146.312 121.391 146.319V146.344V146.371C121.391 146.388 121.388 146.418 121.388 146.435C121.386 146.475 121.381 146.517 121.377 146.556C121.372 146.596 121.365 146.635 121.359 146.674C121.352 146.714 121.343 146.753 121.334 146.79C121.315 146.867 121.293 146.943 121.265 147.02C121.21 147.168 121.138 147.311 121.051 147.441C120.875 147.703 120.636 147.915 120.363 148.05C120.226 148.117 120.082 148.166 119.934 148.191C119.861 148.206 119.786 148.213 119.711 148.216H119.697H119.686H119.661H119.624H119.606C119.615 148.216 119.604 148.216 119.604 148.216H119.597C119.556 148.216 119.517 148.213 119.476 148.208C119.316 148.196 119.159 148.164 119.004 148.117C118.851 148.07 118.703 148.003 118.562 147.925C118.282 147.762 118.029 147.54 117.833 147.271C117.735 147.138 117.648 146.993 117.577 146.842C117.507 146.692 117.45 146.531 117.409 146.371C117.368 146.208 117.343 146.043 117.331 145.876L117.329 145.843V145.836V145.829V145.814V145.787V145.779V145.769V145.75V145.71V145.703C117.329 145.703 117.329 145.705 117.329 145.7V145.686C117.329 145.666 117.329 145.644 117.329 145.624C117.331 145.543 117.338 145.456 117.347 145.373C117.356 145.289 117.37 145.202 117.386 145.119C117.402 145.035 117.42 144.951 117.443 144.867C117.486 144.702 117.541 144.542 117.605 144.391C117.735 144.09 117.903 143.822 118.106 143.607C118.156 143.553 118.209 143.503 118.263 143.454C118.318 143.407 118.375 143.363 118.434 143.321C118.491 143.279 118.553 143.242 118.614 143.208C118.644 143.19 118.676 143.173 118.708 143.158C118.724 143.151 118.74 143.143 118.756 143.136C118.772 143.129 118.788 143.121 118.804 143.114C118.867 143.084 118.934 143.06 119.002 143.037C119.018 143.033 119.036 143.028 119.052 143.02C119.068 143.015 119.086 143.01 119.102 143.005C119.136 142.996 119.171 142.986 119.205 142.978C119.221 142.973 119.239 142.971 119.257 142.966C119.275 142.961 119.291 142.959 119.31 142.954C119.328 142.951 119.344 142.946 119.362 142.944L119.387 142.939L119.414 142.934C119.433 142.931 119.449 142.929 119.467 142.926C119.487 142.924 119.506 142.922 119.526 142.919C119.542 142.917 119.569 142.914 119.585 142.912C119.597 142.909 119.61 142.909 119.622 142.907L119.647 142.904L119.658 142.902H119.672C119.693 142.899 119.711 142.899 119.731 142.897L119.761 142.894C119.761 142.894 119.772 142.894 119.763 142.894H119.77H119.784C119.8 142.894 119.818 142.892 119.834 142.892C119.9 142.89 119.968 142.89 120.034 142.892C120.167 142.897 120.296 142.914 120.422 142.939C120.675 142.991 120.912 143.077 121.128 143.193C121.345 143.306 121.536 143.447 121.705 143.6C121.716 143.61 121.726 143.619 121.737 143.629C121.746 143.639 121.757 143.649 121.767 143.659C121.787 143.679 121.805 143.698 121.826 143.718C121.846 143.738 121.865 143.757 121.883 143.777C121.901 143.797 121.919 143.817 121.938 143.839C122.008 143.92 122.074 144.002 122.134 144.085C122.252 144.251 122.348 144.418 122.423 144.576C122.428 144.586 122.432 144.596 122.437 144.606C122.441 144.616 122.446 144.625 122.45 144.635C122.459 144.655 122.469 144.675 122.475 144.694C122.485 144.714 122.491 144.731 122.5 144.751C122.507 144.771 122.516 144.788 122.523 144.808C122.551 144.882 122.578 144.953 122.598 145.02C122.633 145.128 122.658 145.225 122.678 145.308C122.685 145.343 122.715 145.365 122.747 145.36C122.781 145.358 122.806 145.328 122.806 145.291C122.808 145.202 122.806 145.096 122.794 144.976Z" fill="url(#paint2_linear_2654_28251)"/>
</g>
<rect x="115" y="166" width="331" height="147" rx="5" fill="#1D1F22"/>
<path d="M376.801 194.801C384.356 202.138 389.847 211.336 392.722 221.468L375.405 226.381C373.393 219.288 369.549 212.85 364.261 207.714L376.801 194.801Z" fill="url(#paint3_linear_2654_28251)"/>
<path d="M386.914 207.761C394.552 220.942 396.89 236.534 393.455 251.375C390.019 266.217 381.067 279.195 368.414 287.679C355.762 296.163 340.355 299.516 325.321 297.058C310.287 294.601 296.751 286.517 287.458 274.446C278.165 262.375 273.811 247.221 275.28 232.059C276.749 216.896 283.93 202.86 295.368 192.797C306.805 182.735 321.641 177.399 336.868 177.873C352.094 178.347 366.57 184.595 377.359 195.35L364.651 208.098C357.099 200.57 346.966 196.196 336.308 195.865C325.649 195.533 315.264 199.267 307.257 206.311C299.251 213.355 294.224 223.18 293.196 233.794C292.168 244.408 295.215 255.016 301.72 263.465C308.226 271.915 317.701 277.574 328.225 279.294C338.749 281.014 349.533 278.667 358.39 272.729C367.247 266.79 373.514 257.705 375.918 247.316C378.323 236.927 376.686 226.012 371.34 216.786L386.914 207.761Z" fill="#5D97A6"/>
<rect x="375" y="193.844" width="31" height="16" rx="5" fill="white" fill-opacity="0.05"/>
<path d="M383.9 205.988C383.3 205.988 382.792 205.876 382.376 205.652C381.968 205.428 381.64 205.124 381.392 204.74C381.144 204.356 380.96 203.928 380.84 203.456C380.728 202.976 380.672 202.484 380.672 201.98C380.672 201.052 380.8 200.24 381.056 199.544C381.312 198.84 381.68 198.292 382.16 197.9C382.648 197.5 383.232 197.3 383.912 197.3C384.44 197.3 384.892 197.404 385.268 197.612C385.652 197.812 385.952 198.084 386.168 198.428C386.392 198.764 386.528 199.14 386.576 199.556H385.64C385.56 199.116 385.368 198.776 385.064 198.536C384.76 198.296 384.372 198.176 383.9 198.176C383.476 198.176 383.096 198.308 382.76 198.572C382.432 198.836 382.168 199.232 381.968 199.76C381.776 200.288 381.664 200.964 381.632 201.788C381.632 201.804 381.632 201.82 381.632 201.836C381.632 201.852 381.632 201.868 381.632 201.884C381.752 201.628 381.924 201.396 382.148 201.188C382.38 200.972 382.656 200.8 382.976 200.672C383.296 200.536 383.648 200.468 384.032 200.468C384.512 200.468 384.956 200.58 385.364 200.804C385.78 201.028 386.112 201.344 386.36 201.752C386.616 202.152 386.744 202.624 386.744 203.168C386.744 203.64 386.628 204.092 386.396 204.524C386.172 204.956 385.848 205.308 385.424 205.58C385 205.852 384.492 205.988 383.9 205.988ZM383.828 205.1C384.196 205.1 384.52 205.02 384.8 204.86C385.088 204.7 385.312 204.48 385.472 204.2C385.64 203.912 385.724 203.584 385.724 203.216C385.724 202.84 385.64 202.512 385.472 202.232C385.312 201.952 385.088 201.736 384.8 201.584C384.52 201.424 384.196 201.344 383.828 201.344C383.468 201.344 383.14 201.428 382.844 201.596C382.556 201.764 382.324 201.992 382.148 202.28C381.98 202.56 381.896 202.876 381.896 203.228C381.896 203.596 381.98 203.92 382.148 204.2C382.324 204.48 382.556 204.7 382.844 204.86C383.14 205.02 383.468 205.1 383.828 205.1ZM393.027 205.844L397.911 197.444H398.919L394.035 205.844H393.027ZM398.403 205.988C398.043 205.988 397.719 205.908 397.431 205.748C397.143 205.58 396.911 205.344 396.735 205.04C396.567 204.736 396.483 204.38 396.483 203.972C396.483 203.556 396.567 203.2 396.735 202.904C396.911 202.6 397.143 202.368 397.431 202.208C397.719 202.04 398.043 201.956 398.403 201.956C398.771 201.956 399.095 202.04 399.375 202.208C399.663 202.368 399.891 202.6 400.059 202.904C400.227 203.2 400.311 203.556 400.311 203.972C400.311 204.38 400.227 204.736 400.059 205.04C399.891 205.344 399.663 205.58 399.375 205.748C399.087 205.908 398.763 205.988 398.403 205.988ZM398.391 205.208C398.583 205.208 398.759 205.164 398.919 205.076C399.079 204.98 399.207 204.84 399.303 204.656C399.407 204.472 399.459 204.244 399.459 203.972C399.459 203.692 399.411 203.46 399.315 203.276C399.219 203.092 399.091 202.956 398.931 202.868C398.771 202.772 398.595 202.724 398.403 202.724C398.219 202.724 398.043 202.772 397.875 202.868C397.715 202.956 397.583 203.092 397.479 203.276C397.383 203.46 397.335 203.692 397.335 203.972C397.335 204.244 397.383 204.472 397.479 204.656C397.583 204.84 397.715 204.98 397.875 205.076C398.035 205.164 398.207 205.208 398.391 205.208ZM393.639 201.344C393.279 201.344 392.955 201.264 392.667 201.104C392.379 200.936 392.147 200.7 391.971 200.396C391.803 200.092 391.719 199.736 391.719 199.328C391.719 198.912 391.803 198.556 391.971 198.26C392.147 197.956 392.379 197.724 392.667 197.564C392.963 197.396 393.291 197.312 393.651 197.312C394.011 197.312 394.335 197.396 394.623 197.564C394.911 197.724 395.139 197.956 395.307 198.26C395.475 198.556 395.559 198.912 395.559 199.328C395.559 199.736 395.475 200.092 395.307 200.396C395.139 200.7 394.907 200.936 394.611 201.104C394.323 201.264 393.999 201.344 393.639 201.344ZM393.639 200.564C393.831 200.564 394.007 200.52 394.167 200.432C394.327 200.336 394.455 200.196 394.551 200.012C394.647 199.828 394.695 199.6 394.695 199.328C394.695 199.048 394.647 198.816 394.551 198.632C394.455 198.44 394.327 198.3 394.167 198.212C394.007 198.116 393.835 198.068 393.651 198.068C393.467 198.068 393.291 198.116 393.123 198.212C392.955 198.3 392.819 198.44 392.715 198.632C392.619 198.816 392.571 199.048 392.571 199.328C392.571 199.6 392.619 199.828 392.715 200.012C392.819 200.196 392.951 200.336 393.111 200.432C393.279 200.52 393.455 200.564 393.639 200.564Z" fill="#ACADAE"/>
<rect x="249" y="229.844" width="39" height="16" rx="5" fill="white" fill-opacity="0.05"/>
<path d="M257.636 241.988C257.108 241.988 256.656 241.888 256.28 241.688C255.904 241.48 255.604 241.204 255.38 240.86C255.164 240.508 255.032 240.124 254.984 239.708H255.92C256 240.156 256.192 240.504 256.496 240.752C256.8 240.992 257.184 241.112 257.648 241.112C258.072 241.112 258.448 240.984 258.776 240.728C259.104 240.472 259.368 240.084 259.568 239.564C259.776 239.036 259.892 238.368 259.916 237.56C259.916 237.536 259.916 237.512 259.916 237.488C259.916 237.464 259.916 237.44 259.916 237.416C259.796 237.664 259.62 237.896 259.388 238.112C259.156 238.328 258.88 238.5 258.56 238.628C258.248 238.756 257.896 238.82 257.504 238.82C257.032 238.82 256.584 238.708 256.16 238.484C255.744 238.26 255.404 237.948 255.14 237.548C254.884 237.14 254.756 236.664 254.756 236.12C254.756 235.648 254.872 235.196 255.104 234.764C255.336 234.332 255.668 233.98 256.1 233.708C256.532 233.436 257.044 233.3 257.636 233.3C258.236 233.3 258.744 233.416 259.16 233.648C259.576 233.872 259.908 234.176 260.156 234.56C260.412 234.936 260.596 235.364 260.708 235.844C260.82 236.324 260.876 236.812 260.876 237.308C260.876 238.228 260.748 239.04 260.492 239.744C260.244 240.448 259.876 241 259.388 241.4C258.908 241.792 258.324 241.988 257.636 241.988ZM257.708 237.944C258.076 237.944 258.408 237.86 258.704 237.692C259 237.524 259.232 237.296 259.4 237.008C259.576 236.72 259.664 236.404 259.664 236.06C259.664 235.692 259.576 235.368 259.4 235.088C259.232 234.808 259 234.588 258.704 234.428C258.408 234.268 258.076 234.188 257.708 234.188C257.34 234.188 257.008 234.272 256.712 234.44C256.424 234.6 256.196 234.82 256.028 235.1C255.86 235.38 255.776 235.704 255.776 236.072C255.776 236.448 255.86 236.776 256.028 237.056C256.196 237.336 256.424 237.556 256.712 237.716C257.008 237.868 257.34 237.944 257.708 237.944ZM266.479 241.844V240.044H262.219V239.264L266.299 233.444H267.475V239.156H268.723V240.044H267.475V241.844H266.479ZM263.335 239.156H266.527V234.56L263.335 239.156ZM274.472 241.844L279.356 233.444H280.364L275.48 241.844H274.472ZM279.764 241.988C279.404 241.988 279.08 241.908 278.792 241.748C278.504 241.58 278.272 241.344 278.096 241.04C277.928 240.736 277.844 240.38 277.844 239.972C277.844 239.556 277.928 239.2 278.096 238.904C278.272 238.6 278.504 238.368 278.792 238.208C279.08 238.04 279.404 237.956 279.764 237.956C280.132 237.956 280.456 238.04 280.736 238.208C281.024 238.368 281.252 238.6 281.42 238.904C281.588 239.2 281.672 239.556 281.672 239.972C281.672 240.38 281.588 240.736 281.42 241.04C281.252 241.344 281.024 241.58 280.736 241.748C280.448 241.908 280.124 241.988 279.764 241.988ZM279.752 241.208C279.944 241.208 280.12 241.164 280.28 241.076C280.44 240.98 280.568 240.84 280.664 240.656C280.768 240.472 280.82 240.244 280.82 239.972C280.82 239.692 280.772 239.46 280.676 239.276C280.58 239.092 280.452 238.956 280.292 238.868C280.132 238.772 279.956 238.724 279.764 238.724C279.58 238.724 279.404 238.772 279.236 238.868C279.076 238.956 278.944 239.092 278.84 239.276C278.744 239.46 278.696 239.692 278.696 239.972C278.696 240.244 278.744 240.472 278.84 240.656C278.944 240.84 279.076 240.98 279.236 241.076C279.396 241.164 279.568 241.208 279.752 241.208ZM275.144 237.344C274.784 237.344 274.46 237.264 274.172 237.104C273.884 236.936 273.652 236.7 273.476 236.396C273.308 236.092 273.224 235.736 273.224 235.328C273.224 234.912 273.308 234.556 273.476 234.26C273.652 233.956 273.884 233.724 274.172 233.564C274.468 233.396 274.796 233.312 275.156 233.312C275.516 233.312 275.84 233.396 276.128 233.564C276.416 233.724 276.644 233.956 276.812 234.26C276.98 234.556 277.064 234.912 277.064 235.328C277.064 235.736 276.98 236.092 276.812 236.396C276.644 236.7 276.412 236.936 276.116 237.104C275.828 237.264 275.504 237.344 275.144 237.344ZM275.144 236.564C275.336 236.564 275.512 236.52 275.672 236.432C275.832 236.336 275.96 236.196 276.056 236.012C276.152 235.828 276.2 235.6 276.2 235.328C276.2 235.048 276.152 234.816 276.056 234.632C275.96 234.44 275.832 234.3 275.672 234.212C275.512 234.116 275.34 234.068 275.156 234.068C274.972 234.068 274.796 234.116 274.628 234.212C274.46 234.3 274.324 234.44 274.22 234.632C274.124 234.816 274.076 235.048 274.076 235.328C274.076 235.6 274.124 235.828 274.22 236.012C274.324 236.196 274.456 236.336 274.616 236.432C274.784 236.52 274.96 236.564 275.144 236.564Z" fill="#ACADAE"/>
<rect x="130" y="224" width="28" height="6" rx="2" fill="#5D97A6"/>
<path d="M169.01 230.12C168.497 230.12 168.05 230.027 167.67 229.84C167.29 229.653 166.997 229.393 166.79 229.06C166.583 228.727 166.48 228.34 166.48 227.9H167.36C167.36 228.173 167.423 228.427 167.55 228.66C167.677 228.887 167.86 229.07 168.1 229.21C168.347 229.343 168.65 229.41 169.01 229.41C169.323 229.41 169.59 229.36 169.81 229.26C170.037 229.153 170.207 229.01 170.32 228.83C170.44 228.65 170.5 228.447 170.5 228.22C170.5 227.967 170.443 227.757 170.33 227.59C170.223 227.417 170.073 227.277 169.88 227.17C169.687 227.057 169.463 226.957 169.21 226.87C168.957 226.783 168.683 226.693 168.39 226.6C167.803 226.413 167.377 226.18 167.11 225.9C166.85 225.613 166.72 225.247 166.72 224.8C166.72 224.42 166.807 224.087 166.98 223.8C167.16 223.513 167.413 223.29 167.74 223.13C168.073 222.963 168.467 222.88 168.92 222.88C169.367 222.88 169.753 222.963 170.08 223.13C170.413 223.297 170.673 223.527 170.86 223.82C171.047 224.107 171.14 224.44 171.14 224.82H170.26C170.26 224.627 170.21 224.437 170.11 224.25C170.01 224.063 169.857 223.91 169.65 223.79C169.45 223.663 169.197 223.6 168.89 223.6C168.637 223.593 168.41 223.637 168.21 223.73C168.017 223.817 167.863 223.943 167.75 224.11C167.643 224.277 167.59 224.48 167.59 224.72C167.59 224.947 167.637 225.13 167.73 225.27C167.83 225.41 167.97 225.53 168.15 225.63C168.337 225.723 168.553 225.81 168.8 225.89C169.047 225.97 169.32 226.06 169.62 226.16C169.96 226.273 170.26 226.413 170.52 226.58C170.787 226.74 170.993 226.947 171.14 227.2C171.293 227.453 171.37 227.777 171.37 228.17C171.37 228.503 171.28 228.82 171.1 229.12C170.927 229.413 170.667 229.653 170.32 229.84C169.973 230.027 169.537 230.12 169.01 230.12ZM174.659 230.12C174.273 230.12 173.936 230.047 173.649 229.9C173.363 229.753 173.139 229.53 172.979 229.23C172.819 228.923 172.739 228.543 172.739 228.09V224.74H173.579V228C173.579 228.467 173.693 228.817 173.919 229.05C174.153 229.283 174.463 229.4 174.849 229.4C175.116 229.4 175.356 229.34 175.569 229.22C175.783 229.093 175.953 228.91 176.079 228.67C176.213 228.43 176.279 228.137 176.279 227.79V224.74H177.119V230H176.359L176.309 229.16C176.169 229.467 175.953 229.703 175.659 229.87C175.373 230.037 175.039 230.12 174.659 230.12ZM181.011 230.12C180.531 230.12 180.104 230.007 179.731 229.78C179.358 229.547 179.064 229.223 178.851 228.81C178.638 228.397 178.531 227.917 178.531 227.37C178.531 226.817 178.638 226.337 178.851 225.93C179.064 225.517 179.358 225.197 179.731 224.97C180.104 224.737 180.531 224.62 181.011 224.62C181.611 224.62 182.111 224.78 182.511 225.1C182.918 225.42 183.178 225.85 183.291 226.39H182.431C182.358 226.057 182.188 225.8 181.921 225.62C181.661 225.433 181.354 225.34 181.001 225.34C180.694 225.34 180.418 225.417 180.171 225.57C179.931 225.723 179.741 225.95 179.601 226.25C179.461 226.55 179.391 226.923 179.391 227.37C179.391 227.703 179.431 228 179.511 228.26C179.591 228.513 179.701 228.727 179.841 228.9C179.988 229.067 180.158 229.193 180.351 229.28C180.551 229.367 180.768 229.41 181.001 229.41C181.241 229.41 181.458 229.37 181.651 229.29C181.851 229.203 182.018 229.08 182.151 228.92C182.291 228.76 182.384 228.57 182.431 228.35H183.291C183.184 228.877 182.924 229.303 182.511 229.63C182.104 229.957 181.604 230.12 181.011 230.12ZM186.982 230.12C186.502 230.12 186.076 230.007 185.702 229.78C185.329 229.547 185.036 229.223 184.822 228.81C184.609 228.397 184.502 227.917 184.502 227.37C184.502 226.817 184.609 226.337 184.822 225.93C185.036 225.517 185.329 225.197 185.702 224.97C186.076 224.737 186.502 224.62 186.982 224.62C187.582 224.62 188.082 224.78 188.482 225.1C188.889 225.42 189.149 225.85 189.262 226.39H188.402C188.329 226.057 188.159 225.8 187.892 225.62C187.632 225.433 187.326 225.34 186.972 225.34C186.666 225.34 186.389 225.417 186.142 225.57C185.902 225.723 185.712 225.95 185.572 226.25C185.432 226.55 185.362 226.923 185.362 227.37C185.362 227.703 185.402 228 185.482 228.26C185.562 228.513 185.672 228.727 185.812 228.9C185.959 229.067 186.129 229.193 186.322 229.28C186.522 229.367 186.739 229.41 186.972 229.41C187.212 229.41 187.429 229.37 187.622 229.29C187.822 229.203 187.989 229.08 188.122 228.92C188.262 228.76 188.356 228.57 188.402 228.35H189.262C189.156 228.877 188.896 229.303 188.482 229.63C188.076 229.957 187.576 230.12 186.982 230.12ZM192.864 230.12C192.397 230.12 191.984 230.007 191.624 229.78C191.264 229.553 190.98 229.233 190.774 228.82C190.574 228.407 190.474 227.923 190.474 227.37C190.474 226.817 190.574 226.333 190.774 225.92C190.98 225.507 191.264 225.187 191.624 224.96C191.99 224.733 192.41 224.62 192.884 224.62C193.39 224.62 193.814 224.733 194.154 224.96C194.494 225.187 194.75 225.49 194.924 225.87C195.097 226.25 195.184 226.667 195.184 227.12C195.184 227.187 195.184 227.253 195.184 227.32C195.184 227.387 195.18 227.467 195.174 227.56H191.104V226.91H194.364C194.35 226.397 194.2 226.007 193.914 225.74C193.634 225.467 193.284 225.33 192.864 225.33C192.584 225.33 192.324 225.4 192.084 225.54C191.85 225.673 191.66 225.873 191.514 226.14C191.367 226.407 191.294 226.74 191.294 227.14V227.42C191.294 227.86 191.367 228.23 191.514 228.53C191.66 228.823 191.85 229.043 192.084 229.19C192.324 229.337 192.584 229.41 192.864 229.41C193.237 229.41 193.53 229.34 193.744 229.2C193.957 229.053 194.114 228.847 194.214 228.58H195.044C194.964 228.873 194.824 229.137 194.624 229.37C194.43 229.603 194.184 229.787 193.884 229.92C193.59 230.053 193.25 230.12 192.864 230.12ZM198.448 230.12C197.975 230.12 197.581 230.05 197.268 229.91C196.961 229.763 196.728 229.563 196.568 229.31C196.408 229.05 196.311 228.75 196.278 228.41H197.138C197.165 228.59 197.225 228.757 197.318 228.91C197.418 229.057 197.561 229.177 197.748 229.27C197.935 229.363 198.171 229.41 198.458 229.41C198.685 229.41 198.878 229.377 199.038 229.31C199.198 229.237 199.318 229.137 199.398 229.01C199.485 228.883 199.528 228.737 199.528 228.57C199.528 228.35 199.478 228.18 199.378 228.06C199.285 227.933 199.145 227.84 198.958 227.78C198.778 227.713 198.551 227.663 198.278 227.63C197.985 227.59 197.725 227.533 197.498 227.46C197.271 227.387 197.078 227.29 196.918 227.17C196.765 227.05 196.648 226.9 196.568 226.72C196.488 226.54 196.448 226.327 196.448 226.08C196.448 225.793 196.525 225.54 196.678 225.32C196.831 225.1 197.048 224.93 197.328 224.81C197.615 224.683 197.951 224.62 198.338 224.62C198.905 224.62 199.351 224.75 199.678 225.01C200.011 225.27 200.208 225.64 200.268 226.12H199.438C199.405 225.873 199.291 225.68 199.098 225.54C198.905 225.4 198.648 225.33 198.328 225.33C197.988 225.33 197.731 225.393 197.558 225.52C197.385 225.647 197.298 225.813 197.298 226.02C197.298 226.173 197.335 226.313 197.408 226.44C197.488 226.56 197.621 226.663 197.808 226.75C197.995 226.83 198.245 226.89 198.558 226.93C198.951 226.977 199.285 227.053 199.558 227.16C199.831 227.26 200.038 227.417 200.178 227.63C200.325 227.843 200.395 228.133 200.388 228.5C200.388 228.847 200.305 229.14 200.138 229.38C199.978 229.62 199.751 229.803 199.458 229.93C199.171 230.057 198.835 230.12 198.448 230.12ZM202.166 230V224.18C202.166 223.86 202.219 223.6 202.326 223.4C202.432 223.193 202.589 223.043 202.796 222.95C203.009 222.85 203.269 222.8 203.576 222.8H204.346V223.52H203.716C203.462 223.52 203.279 223.573 203.166 223.68C203.059 223.78 203.006 223.957 203.006 224.21V230H202.166ZM201.346 225.45V224.74H204.406V225.45H201.346ZM207.539 230.12C207.152 230.12 206.816 230.047 206.529 229.9C206.242 229.753 206.019 229.53 205.859 229.23C205.699 228.923 205.619 228.543 205.619 228.09V224.74H206.459V228C206.459 228.467 206.572 228.817 206.799 229.05C207.032 229.283 207.342 229.4 207.729 229.4C207.996 229.4 208.236 229.34 208.449 229.22C208.662 229.093 208.832 228.91 208.959 228.67C209.092 228.43 209.159 228.137 209.159 227.79V224.74H209.999V230H209.239L209.189 229.16C209.049 229.467 208.832 229.703 208.539 229.87C208.252 230.037 207.919 230.12 207.539 230.12ZM211.621 230V222.8H212.461V230H211.621Z" fill="white"/>
<path d="M166.77 256V249H171.03V249.69H167.61V252.15H170.52V252.83H167.61V256H166.77ZM173.599 256.12C173.199 256.12 172.865 256.047 172.599 255.9C172.332 255.747 172.132 255.547 171.999 255.3C171.865 255.047 171.799 254.777 171.799 254.49C171.799 254.143 171.885 253.85 172.059 253.61C172.239 253.363 172.489 253.177 172.809 253.05C173.129 252.923 173.502 252.86 173.929 252.86H175.239C175.239 252.52 175.199 252.237 175.119 252.01C175.039 251.783 174.909 251.613 174.729 251.5C174.549 251.387 174.309 251.33 174.009 251.33C173.709 251.33 173.452 251.407 173.239 251.56C173.025 251.707 172.892 251.927 172.839 252.22H171.979C172.019 251.873 172.135 251.583 172.329 251.35C172.522 251.11 172.765 250.93 173.059 250.81C173.359 250.683 173.675 250.62 174.009 250.62C174.482 250.62 174.872 250.707 175.179 250.88C175.485 251.047 175.712 251.283 175.859 251.59C176.005 251.89 176.079 252.247 176.079 252.66V256H175.329L175.279 255.1C175.212 255.24 175.125 255.373 175.019 255.5C174.919 255.62 174.799 255.727 174.659 255.82C174.519 255.913 174.359 255.987 174.179 256.04C174.005 256.093 173.812 256.12 173.599 256.12ZM173.719 255.41C173.939 255.41 174.142 255.36 174.329 255.26C174.515 255.16 174.675 255.027 174.809 254.86C174.949 254.687 175.055 254.493 175.129 254.28C175.202 254.067 175.239 253.843 175.239 253.61V253.51H173.999C173.685 253.51 173.429 253.55 173.229 253.63C173.035 253.71 172.895 253.823 172.809 253.97C172.722 254.11 172.679 254.27 172.679 254.45C172.679 254.643 172.719 254.813 172.799 254.96C172.879 255.1 172.995 255.21 173.149 255.29C173.309 255.37 173.499 255.41 173.719 255.41ZM177.747 256V250.74H178.587V256H177.747ZM178.167 249.74C178 249.74 177.86 249.687 177.747 249.58C177.64 249.467 177.587 249.327 177.587 249.16C177.587 248.993 177.64 248.86 177.747 248.76C177.86 248.653 178 248.6 178.167 248.6C178.327 248.6 178.463 248.653 178.577 248.76C178.69 248.86 178.747 248.993 178.747 249.16C178.747 249.327 178.69 249.467 178.577 249.58C178.463 249.687 178.327 249.74 178.167 249.74ZM180.279 256V248.8H181.119V256H180.279ZM184.915 256.12C184.448 256.12 184.035 256.007 183.675 255.78C183.315 255.553 183.031 255.233 182.825 254.82C182.625 254.407 182.525 253.923 182.525 253.37C182.525 252.817 182.625 252.333 182.825 251.92C183.031 251.507 183.315 251.187 183.675 250.96C184.041 250.733 184.461 250.62 184.935 250.62C185.441 250.62 185.865 250.733 186.205 250.96C186.545 251.187 186.801 251.49 186.975 251.87C187.148 252.25 187.235 252.667 187.235 253.12C187.235 253.187 187.235 253.253 187.235 253.32C187.235 253.387 187.231 253.467 187.225 253.56H183.155V252.91H186.415C186.401 252.397 186.251 252.007 185.965 251.74C185.685 251.467 185.335 251.33 184.915 251.33C184.635 251.33 184.375 251.4 184.135 251.54C183.901 251.673 183.711 251.873 183.565 252.14C183.418 252.407 183.345 252.74 183.345 253.14V253.42C183.345 253.86 183.418 254.23 183.565 254.53C183.711 254.823 183.901 255.043 184.135 255.19C184.375 255.337 184.635 255.41 184.915 255.41C185.288 255.41 185.581 255.34 185.795 255.2C186.008 255.053 186.165 254.847 186.265 254.58H187.095C187.015 254.873 186.875 255.137 186.675 255.37C186.481 255.603 186.235 255.787 185.935 255.92C185.641 256.053 185.301 256.12 184.915 256.12ZM190.769 256.12C190.302 256.12 189.889 256 189.529 255.76C189.169 255.52 188.889 255.193 188.689 254.78C188.489 254.36 188.389 253.887 188.389 253.36C188.389 252.827 188.489 252.357 188.689 251.95C188.889 251.537 189.169 251.213 189.529 250.98C189.889 250.74 190.305 250.62 190.779 250.62C191.192 250.62 191.545 250.703 191.839 250.87C192.139 251.037 192.375 251.27 192.549 251.57V248.8H193.389V256H192.629L192.559 255.16C192.459 255.327 192.325 255.483 192.159 255.63C191.999 255.777 191.802 255.897 191.569 255.99C191.342 256.077 191.075 256.12 190.769 256.12ZM190.879 255.39C191.212 255.39 191.502 255.31 191.749 255.15C191.995 254.983 192.185 254.75 192.319 254.45C192.452 254.143 192.519 253.783 192.519 253.37C192.519 252.957 192.452 252.6 192.319 252.3C192.185 251.993 191.995 251.76 191.749 251.6C191.502 251.433 191.212 251.35 190.879 251.35C190.565 251.35 190.285 251.433 190.039 251.6C189.792 251.76 189.599 251.993 189.459 252.3C189.319 252.6 189.249 252.957 189.249 253.37C189.249 253.783 189.319 254.143 189.459 254.45C189.599 254.75 189.792 254.983 190.039 255.15C190.285 255.31 190.565 255.39 190.879 255.39Z" fill="white"/>
<rect x="130" y="250" width="28" height="6" rx="2" fill="#AB63A5"/>
</g>
<g filter="url(#filter3_d_2654_28251)">
<rect x="85.5" y="115.5" width="350" height="187" rx="9.5" fill="#111214" stroke="url(#paint4_linear_2654_28251)"/>
<line x1="85.9971" y1="135.496" x2="435.003" y2="135.496" stroke="url(#paint5_linear_2654_28251)"/>
<g clip-path="url(#clip1_2654_28251)">
<path d="M102.794 124.976C102.781 124.825 102.758 124.653 102.712 124.46C102.667 124.27 102.598 124.061 102.498 123.844C102.398 123.627 102.268 123.402 102.099 123.183C102.033 123.097 101.96 123.013 101.883 122.931C101.999 122.431 101.742 121.997 101.742 121.997C101.297 121.967 101.014 122.147 100.91 122.229C100.891 122.221 100.875 122.211 100.857 122.204C100.782 122.172 100.704 122.14 100.622 122.113C100.543 122.086 100.461 122.061 100.376 122.039C100.292 122.017 100.208 121.999 100.121 121.985C100.105 121.982 100.091 121.98 100.075 121.977C99.8817 121.306 99.3256 121.025 99.3256 121.025C98.7033 121.452 98.5871 122.049 98.5871 122.049C98.5871 122.049 98.5848 122.061 98.5803 122.083C98.5461 122.093 98.5119 122.105 98.4777 122.115C98.4298 122.13 98.382 122.15 98.3364 122.17C98.2885 122.189 98.2429 122.209 98.1951 122.231C98.1016 122.276 98.0082 122.325 97.917 122.379C97.8281 122.433 97.7415 122.493 97.6572 122.554C97.6458 122.549 97.6344 122.544 97.6344 122.544C96.7728 122.189 96.0093 122.616 96.0093 122.616C95.9387 123.607 96.3535 124.231 96.4355 124.344C96.415 124.406 96.3968 124.468 96.3785 124.529C96.3147 124.754 96.2669 124.983 96.2372 125.222C96.2327 125.257 96.2281 125.291 96.2258 125.326C95.4281 125.752 95.1934 126.623 95.1934 126.623C95.8566 127.449 96.6315 127.5 96.6315 127.5L96.6338 127.498C96.7318 127.688 96.8458 127.868 96.9734 128.038C97.0281 128.109 97.0828 128.176 97.1421 128.243C96.9005 128.992 97.1763 129.614 97.1763 129.614C97.9147 129.643 98.4002 129.263 98.5028 129.177C98.5757 129.204 98.6509 129.229 98.7261 129.249C98.954 129.313 99.1865 129.35 99.419 129.36C99.476 129.362 99.5352 129.365 99.5922 129.362H99.6196H99.6378H99.6743L99.7107 129.36V129.362C100.059 129.9 100.67 129.976 100.67 129.976C101.106 129.48 101.131 128.987 101.131 128.881C101.131 128.881 101.131 128.879 101.131 128.874C101.131 128.864 101.131 128.859 101.131 128.859C101.131 128.852 101.131 128.844 101.131 128.837C101.222 128.768 101.308 128.694 101.391 128.613C101.564 128.442 101.716 128.248 101.844 128.038C101.855 128.018 101.867 127.999 101.878 127.979C102.371 128.008 102.719 127.648 102.719 127.648C102.637 127.094 102.345 126.822 102.284 126.771C102.284 126.771 102.282 126.768 102.277 126.766C102.273 126.763 102.273 126.761 102.273 126.761C102.27 126.758 102.266 126.756 102.261 126.753C102.263 126.719 102.266 126.687 102.268 126.652C102.273 126.593 102.273 126.531 102.273 126.472V126.428V126.406V126.393C102.273 126.379 102.273 126.383 102.273 126.379L102.27 126.342L102.268 126.292C102.268 126.275 102.266 126.26 102.263 126.245C102.261 126.231 102.261 126.213 102.259 126.199L102.254 126.152L102.247 126.105C102.238 126.043 102.229 125.984 102.216 125.922C102.163 125.683 102.077 125.456 101.965 125.252C101.851 125.047 101.71 124.867 101.548 124.714C101.388 124.561 101.208 124.438 101.021 124.347C100.832 124.256 100.636 124.196 100.44 124.169C100.342 124.154 100.244 124.15 100.146 124.152H100.11H100.1C100.098 124.152 100.087 124.152 100.089 124.152H100.073L100.037 124.154C100.023 124.154 100.009 124.157 99.9979 124.157C99.9478 124.162 99.8976 124.169 99.8498 124.179C99.6538 124.219 99.4691 124.295 99.3073 124.401C99.1455 124.507 99.0042 124.638 98.8902 124.786C98.7763 124.934 98.6874 125.099 98.6258 125.269C98.5643 125.439 98.5301 125.617 98.521 125.787C98.5187 125.829 98.5187 125.873 98.5187 125.915C98.5187 125.925 98.5187 125.937 98.5187 125.947L98.521 125.982C98.5233 126.001 98.5233 126.023 98.5256 126.043C98.5324 126.129 98.5483 126.213 98.5689 126.292C98.6122 126.453 98.6805 126.598 98.7649 126.721C98.8492 126.845 98.9518 126.946 99.0589 127.027C99.166 127.106 99.2822 127.163 99.3962 127.2C99.5102 127.237 99.6241 127.251 99.7313 127.251C99.7449 127.251 99.7586 127.251 99.77 127.251C99.7768 127.251 99.7837 127.251 99.7905 127.251C99.7973 127.251 99.8042 127.251 99.811 127.249C99.8224 127.249 99.8338 127.246 99.8452 127.246C99.8475 127.246 99.852 127.246 99.8543 127.244L99.8657 127.242C99.8726 127.242 99.8794 127.239 99.8862 127.239C99.8999 127.237 99.9113 127.234 99.925 127.232C99.9387 127.229 99.9501 127.227 99.9615 127.222C99.9865 127.217 100.009 127.207 100.032 127.2C100.078 127.182 100.123 127.163 100.162 127.14C100.203 127.118 100.24 127.091 100.276 127.066C100.285 127.059 100.296 127.052 100.306 127.042C100.342 127.01 100.349 126.951 100.319 126.911C100.294 126.877 100.249 126.867 100.212 126.889C100.203 126.894 100.194 126.899 100.185 126.904C100.153 126.921 100.121 126.936 100.087 126.948C100.053 126.96 100.016 126.97 99.9797 126.978C99.9615 126.98 99.9432 126.983 99.9227 126.985C99.9136 126.985 99.9045 126.988 99.8931 126.988C99.884 126.988 99.8726 126.988 99.8657 126.988C99.8566 126.988 99.8475 126.988 99.8384 126.988C99.827 126.988 99.8156 126.988 99.8042 126.985C99.8042 126.985 99.7973 126.985 99.8019 126.985H99.7973H99.7905C99.786 126.985 99.7791 126.985 99.7746 126.983C99.7632 126.98 99.754 126.98 99.7426 126.978C99.6583 126.965 99.574 126.938 99.4942 126.899C99.4122 126.859 99.3347 126.805 99.264 126.736C99.1934 126.667 99.1318 126.586 99.084 126.492C99.0361 126.398 99.0019 126.295 98.986 126.186C98.9791 126.132 98.9746 126.075 98.9768 126.021C98.9768 126.006 98.9791 125.991 98.9791 125.977C98.9791 125.982 98.9791 125.974 98.9791 125.974V125.969V125.957C98.9791 125.949 98.9814 125.942 98.9814 125.935C98.9837 125.905 98.9882 125.876 98.9928 125.846C99.0315 125.609 99.1409 125.377 99.3096 125.202C99.3529 125.158 99.3985 125.119 99.4464 125.082C99.4942 125.045 99.5466 125.013 99.6013 124.985C99.656 124.958 99.7107 124.936 99.77 124.919C99.827 124.902 99.8862 124.892 99.9478 124.884C99.9774 124.882 100.007 124.879 100.039 124.879C100.048 124.879 100.053 124.879 100.059 124.879H100.085H100.1C100.107 124.879 100.1 124.879 100.103 124.879H100.11L100.135 124.882C100.201 124.887 100.265 124.897 100.328 124.914C100.456 124.943 100.581 124.995 100.698 125.064C100.93 125.205 101.128 125.422 101.249 125.683C101.311 125.814 101.354 125.954 101.375 126.1C101.379 126.137 101.384 126.174 101.386 126.211L101.388 126.238L101.391 126.265C101.391 126.275 101.391 126.285 101.391 126.292C101.391 126.302 101.391 126.312 101.391 126.319V126.344V126.371C101.391 126.388 101.388 126.418 101.388 126.435C101.386 126.475 101.381 126.517 101.377 126.556C101.372 126.596 101.365 126.635 101.359 126.674C101.352 126.714 101.343 126.753 101.334 126.79C101.315 126.867 101.293 126.943 101.265 127.02C101.21 127.168 101.138 127.311 101.051 127.441C100.875 127.703 100.636 127.915 100.363 128.05C100.226 128.117 100.082 128.166 99.9341 128.191C99.8612 128.206 99.786 128.213 99.7107 128.216H99.6971H99.6857H99.6606H99.6241H99.6059C99.615 128.216 99.6036 128.216 99.6036 128.216H99.5968C99.5558 128.216 99.517 128.213 99.476 128.208C99.3164 128.196 99.1592 128.164 99.0042 128.117C98.8515 128.07 98.7033 128.003 98.562 127.925C98.2817 127.762 98.0287 127.54 97.8327 127.271C97.7347 127.138 97.6481 126.993 97.5774 126.842C97.5067 126.692 97.4498 126.531 97.4087 126.371C97.3677 126.208 97.3426 126.043 97.3313 125.876L97.329 125.843V125.836V125.829V125.814V125.787V125.779V125.769V125.75V125.71V125.703C97.329 125.703 97.329 125.705 97.329 125.7V125.686C97.329 125.666 97.329 125.644 97.329 125.624C97.3313 125.543 97.3381 125.456 97.3472 125.373C97.3563 125.289 97.37 125.202 97.386 125.119C97.4019 125.035 97.4201 124.951 97.4429 124.867C97.4862 124.702 97.5409 124.542 97.6048 124.391C97.7347 124.09 97.9033 123.822 98.1062 123.607C98.1563 123.553 98.2087 123.503 98.2634 123.454C98.3181 123.407 98.3751 123.363 98.4344 123.321C98.4914 123.279 98.5529 123.242 98.6144 123.208C98.6441 123.19 98.676 123.173 98.7079 123.158C98.7238 123.151 98.7398 123.143 98.7558 123.136C98.7717 123.129 98.7877 123.121 98.8036 123.114C98.8674 123.084 98.9335 123.06 99.0019 123.037C99.0179 123.033 99.0361 123.028 99.052 123.02C99.068 123.015 99.0862 123.01 99.1022 123.005C99.1364 122.996 99.1706 122.986 99.2048 122.978C99.2207 122.973 99.2389 122.971 99.2572 122.966C99.2754 122.961 99.2914 122.959 99.3096 122.954C99.3278 122.951 99.3438 122.946 99.362 122.944L99.3871 122.939L99.4144 122.934C99.4327 122.931 99.4486 122.929 99.4669 122.926C99.4874 122.924 99.5056 122.922 99.5261 122.919C99.5421 122.917 99.5694 122.914 99.5854 122.912C99.5968 122.909 99.6105 122.909 99.6218 122.907L99.6469 122.904L99.6583 122.902H99.672C99.6925 122.899 99.7107 122.899 99.7313 122.897L99.7609 122.894C99.7609 122.894 99.7723 122.894 99.7632 122.894H99.77H99.7837C99.7996 122.894 99.8179 122.892 99.8338 122.892C99.8999 122.89 99.9683 122.89 100.034 122.892C100.167 122.897 100.296 122.914 100.422 122.939C100.675 122.991 100.912 123.077 101.128 123.193C101.345 123.306 101.536 123.447 101.705 123.6C101.716 123.61 101.726 123.619 101.737 123.629C101.746 123.639 101.757 123.649 101.767 123.659C101.787 123.679 101.805 123.698 101.826 123.718C101.846 123.738 101.865 123.757 101.883 123.777C101.901 123.797 101.919 123.817 101.938 123.839C102.008 123.92 102.074 124.002 102.134 124.085C102.252 124.251 102.348 124.418 102.423 124.576C102.428 124.586 102.432 124.596 102.437 124.606C102.441 124.616 102.446 124.625 102.45 124.635C102.459 124.655 102.469 124.675 102.475 124.694C102.485 124.714 102.491 124.731 102.5 124.751C102.507 124.771 102.516 124.788 102.523 124.808C102.551 124.882 102.578 124.953 102.598 125.02C102.633 125.128 102.658 125.225 102.678 125.308C102.685 125.343 102.715 125.365 102.747 125.36C102.781 125.358 102.806 125.328 102.806 125.291C102.808 125.202 102.806 125.096 102.794 124.976Z" fill="url(#paint6_linear_2654_28251)"/>
</g>
<rect x="95" y="146" width="331" height="147" rx="5" fill="#1D1F22"/>
<path d="M356.801 174.801C364.356 182.138 369.847 191.336 372.722 201.468L355.405 206.381C353.393 199.288 349.549 192.85 344.261 187.714L356.801 174.801Z" fill="url(#paint7_linear_2654_28251)"/>
<path d="M366.914 187.761C374.552 200.942 376.89 216.534 373.455 231.375C370.019 246.217 361.067 259.195 348.414 267.679C335.762 276.163 320.355 279.516 305.321 277.058C290.287 274.601 276.751 266.517 267.458 254.446C258.165 242.375 253.811 227.221 255.28 212.059C256.749 196.896 263.93 182.86 275.368 172.797C286.805 162.735 301.641 157.399 316.868 157.873C332.094 158.347 346.57 164.595 357.359 175.35L344.651 188.098C337.099 180.57 326.966 176.196 316.308 175.865C305.649 175.533 295.264 179.267 287.257 186.311C279.251 193.355 274.224 203.18 273.196 213.794C272.168 224.408 275.215 235.016 281.72 243.465C288.226 251.915 297.701 257.574 308.225 259.294C318.749 261.014 329.533 258.667 338.39 252.729C347.247 246.79 353.514 237.705 355.918 227.316C358.323 216.927 356.686 206.012 351.34 196.786L366.914 187.761Z" fill="#5D97A6"/>
<rect x="355" y="173.844" width="31" height="16" rx="5" fill="white" fill-opacity="0.05"/>
<path d="M363.9 185.988C363.3 185.988 362.792 185.876 362.376 185.652C361.968 185.428 361.64 185.124 361.392 184.74C361.144 184.356 360.96 183.928 360.84 183.456C360.728 182.976 360.672 182.484 360.672 181.98C360.672 181.052 360.8 180.24 361.056 179.544C361.312 178.84 361.68 178.292 362.16 177.9C362.648 177.5 363.232 177.3 363.912 177.3C364.44 177.3 364.892 177.404 365.268 177.612C365.652 177.812 365.952 178.084 366.168 178.428C366.392 178.764 366.528 179.14 366.576 179.556H365.64C365.56 179.116 365.368 178.776 365.064 178.536C364.76 178.296 364.372 178.176 363.9 178.176C363.476 178.176 363.096 178.308 362.76 178.572C362.432 178.836 362.168 179.232 361.968 179.76C361.776 180.288 361.664 180.964 361.632 181.788C361.632 181.804 361.632 181.82 361.632 181.836C361.632 181.852 361.632 181.868 361.632 181.884C361.752 181.628 361.924 181.396 362.148 181.188C362.38 180.972 362.656 180.8 362.976 180.672C363.296 180.536 363.648 180.468 364.032 180.468C364.512 180.468 364.956 180.58 365.364 180.804C365.78 181.028 366.112 181.344 366.36 181.752C366.616 182.152 366.744 182.624 366.744 183.168C366.744 183.64 366.628 184.092 366.396 184.524C366.172 184.956 365.848 185.308 365.424 185.58C365 185.852 364.492 185.988 363.9 185.988ZM363.828 185.1C364.196 185.1 364.52 185.02 364.8 184.86C365.088 184.7 365.312 184.48 365.472 184.2C365.64 183.912 365.724 183.584 365.724 183.216C365.724 182.84 365.64 182.512 365.472 182.232C365.312 181.952 365.088 181.736 364.8 181.584C364.52 181.424 364.196 181.344 363.828 181.344C363.468 181.344 363.14 181.428 362.844 181.596C362.556 181.764 362.324 181.992 362.148 182.28C361.98 182.56 361.896 182.876 361.896 183.228C361.896 183.596 361.98 183.92 362.148 184.2C362.324 184.48 362.556 184.7 362.844 184.86C363.14 185.02 363.468 185.1 363.828 185.1ZM373.027 185.844L377.911 177.444H378.919L374.035 185.844H373.027ZM378.403 185.988C378.043 185.988 377.719 185.908 377.431 185.748C377.143 185.58 376.911 185.344 376.735 185.04C376.567 184.736 376.483 184.38 376.483 183.972C376.483 183.556 376.567 183.2 376.735 182.904C376.911 182.6 377.143 182.368 377.431 182.208C377.719 182.04 378.043 181.956 378.403 181.956C378.771 181.956 379.095 182.04 379.375 182.208C379.663 182.368 379.891 182.6 380.059 182.904C380.227 183.2 380.311 183.556 380.311 183.972C380.311 184.38 380.227 184.736 380.059 185.04C379.891 185.344 379.663 185.58 379.375 185.748C379.087 185.908 378.763 185.988 378.403 185.988ZM378.391 185.208C378.583 185.208 378.759 185.164 378.919 185.076C379.079 184.98 379.207 184.84 379.303 184.656C379.407 184.472 379.459 184.244 379.459 183.972C379.459 183.692 379.411 183.46 379.315 183.276C379.219 183.092 379.091 182.956 378.931 182.868C378.771 182.772 378.595 182.724 378.403 182.724C378.219 182.724 378.043 182.772 377.875 182.868C377.715 182.956 377.583 183.092 377.479 183.276C377.383 183.46 377.335 183.692 377.335 183.972C377.335 184.244 377.383 184.472 377.479 184.656C377.583 184.84 377.715 184.98 377.875 185.076C378.035 185.164 378.207 185.208 378.391 185.208ZM373.639 181.344C373.279 181.344 372.955 181.264 372.667 181.104C372.379 180.936 372.147 180.7 371.971 180.396C371.803 180.092 371.719 179.736 371.719 179.328C371.719 178.912 371.803 178.556 371.971 178.26C372.147 177.956 372.379 177.724 372.667 177.564C372.963 177.396 373.291 177.312 373.651 177.312C374.011 177.312 374.335 177.396 374.623 177.564C374.911 177.724 375.139 177.956 375.307 178.26C375.475 178.556 375.559 178.912 375.559 179.328C375.559 179.736 375.475 180.092 375.307 180.396C375.139 180.7 374.907 180.936 374.611 181.104C374.323 181.264 373.999 181.344 373.639 181.344ZM373.639 180.564C373.831 180.564 374.007 180.52 374.167 180.432C374.327 180.336 374.455 180.196 374.551 180.012C374.647 179.828 374.695 179.6 374.695 179.328C374.695 179.048 374.647 178.816 374.551 178.632C374.455 178.44 374.327 178.3 374.167 178.212C374.007 178.116 373.835 178.068 373.651 178.068C373.467 178.068 373.291 178.116 373.123 178.212C372.955 178.3 372.819 178.44 372.715 178.632C372.619 178.816 372.571 179.048 372.571 179.328C372.571 179.6 372.619 179.828 372.715 180.012C372.819 180.196 372.951 180.336 373.111 180.432C373.279 180.52 373.455 180.564 373.639 180.564Z" fill="#ACADAE"/>
<rect x="229" y="209.844" width="39" height="16" rx="5" fill="white" fill-opacity="0.05"/>
<path d="M237.636 221.988C237.108 221.988 236.656 221.888 236.28 221.688C235.904 221.48 235.604 221.204 235.38 220.86C235.164 220.508 235.032 220.124 234.984 219.708H235.92C236 220.156 236.192 220.504 236.496 220.752C236.8 220.992 237.184 221.112 237.648 221.112C238.072 221.112 238.448 220.984 238.776 220.728C239.104 220.472 239.368 220.084 239.568 219.564C239.776 219.036 239.892 218.368 239.916 217.56C239.916 217.536 239.916 217.512 239.916 217.488C239.916 217.464 239.916 217.44 239.916 217.416C239.796 217.664 239.62 217.896 239.388 218.112C239.156 218.328 238.88 218.5 238.56 218.628C238.248 218.756 237.896 218.82 237.504 218.82C237.032 218.82 236.584 218.708 236.16 218.484C235.744 218.26 235.404 217.948 235.14 217.548C234.884 217.14 234.756 216.664 234.756 216.12C234.756 215.648 234.872 215.196 235.104 214.764C235.336 214.332 235.668 213.98 236.1 213.708C236.532 213.436 237.044 213.3 237.636 213.3C238.236 213.3 238.744 213.416 239.16 213.648C239.576 213.872 239.908 214.176 240.156 214.56C240.412 214.936 240.596 215.364 240.708 215.844C240.82 216.324 240.876 216.812 240.876 217.308C240.876 218.228 240.748 219.04 240.492 219.744C240.244 220.448 239.876 221 239.388 221.4C238.908 221.792 238.324 221.988 237.636 221.988ZM237.708 217.944C238.076 217.944 238.408 217.86 238.704 217.692C239 217.524 239.232 217.296 239.4 217.008C239.576 216.72 239.664 216.404 239.664 216.06C239.664 215.692 239.576 215.368 239.4 215.088C239.232 214.808 239 214.588 238.704 214.428C238.408 214.268 238.076 214.188 237.708 214.188C237.34 214.188 237.008 214.272 236.712 214.44C236.424 214.6 236.196 214.82 236.028 215.1C235.86 215.38 235.776 215.704 235.776 216.072C235.776 216.448 235.86 216.776 236.028 217.056C236.196 217.336 236.424 217.556 236.712 217.716C237.008 217.868 237.34 217.944 237.708 217.944ZM246.479 221.844V220.044H242.219V219.264L246.299 213.444H247.475V219.156H248.723V220.044H247.475V221.844H246.479ZM243.335 219.156H246.527V214.56L243.335 219.156ZM254.472 221.844L259.356 213.444H260.364L255.48 221.844H254.472ZM259.764 221.988C259.404 221.988 259.08 221.908 258.792 221.748C258.504 221.58 258.272 221.344 258.096 221.04C257.928 220.736 257.844 220.38 257.844 219.972C257.844 219.556 257.928 219.2 258.096 218.904C258.272 218.6 258.504 218.368 258.792 218.208C259.08 218.04 259.404 217.956 259.764 217.956C260.132 217.956 260.456 218.04 260.736 218.208C261.024 218.368 261.252 218.6 261.42 218.904C261.588 219.2 261.672 219.556 261.672 219.972C261.672 220.38 261.588 220.736 261.42 221.04C261.252 221.344 261.024 221.58 260.736 221.748C260.448 221.908 260.124 221.988 259.764 221.988ZM259.752 221.208C259.944 221.208 260.12 221.164 260.28 221.076C260.44 220.98 260.568 220.84 260.664 220.656C260.768 220.472 260.82 220.244 260.82 219.972C260.82 219.692 260.772 219.46 260.676 219.276C260.58 219.092 260.452 218.956 260.292 218.868C260.132 218.772 259.956 218.724 259.764 218.724C259.58 218.724 259.404 218.772 259.236 218.868C259.076 218.956 258.944 219.092 258.84 219.276C258.744 219.46 258.696 219.692 258.696 219.972C258.696 220.244 258.744 220.472 258.84 220.656C258.944 220.84 259.076 220.98 259.236 221.076C259.396 221.164 259.568 221.208 259.752 221.208ZM255.144 217.344C254.784 217.344 254.46 217.264 254.172 217.104C253.884 216.936 253.652 216.7 253.476 216.396C253.308 216.092 253.224 215.736 253.224 215.328C253.224 214.912 253.308 214.556 253.476 214.26C253.652 213.956 253.884 213.724 254.172 213.564C254.468 213.396 254.796 213.312 255.156 213.312C255.516 213.312 255.84 213.396 256.128 213.564C256.416 213.724 256.644 213.956 256.812 214.26C256.98 214.556 257.064 214.912 257.064 215.328C257.064 215.736 256.98 216.092 256.812 216.396C256.644 216.7 256.412 216.936 256.116 217.104C255.828 217.264 255.504 217.344 255.144 217.344ZM255.144 216.564C255.336 216.564 255.512 216.52 255.672 216.432C255.832 216.336 255.96 216.196 256.056 216.012C256.152 215.828 256.2 215.6 256.2 215.328C256.2 215.048 256.152 214.816 256.056 214.632C255.96 214.44 255.832 214.3 255.672 214.212C255.512 214.116 255.34 214.068 255.156 214.068C254.972 214.068 254.796 214.116 254.628 214.212C254.46 214.3 254.324 214.44 254.22 214.632C254.124 214.816 254.076 215.048 254.076 215.328C254.076 215.6 254.124 215.828 254.22 216.012C254.324 216.196 254.456 216.336 254.616 216.432C254.784 216.52 254.96 216.564 255.144 216.564Z" fill="#ACADAE"/>
<rect x="110" y="204" width="28" height="6" rx="2" fill="#5D97A6"/>
<path d="M149.01 210.12C148.497 210.12 148.05 210.027 147.67 209.84C147.29 209.653 146.997 209.393 146.79 209.06C146.583 208.727 146.48 208.34 146.48 207.9H147.36C147.36 208.173 147.423 208.427 147.55 208.66C147.677 208.887 147.86 209.07 148.1 209.21C148.347 209.343 148.65 209.41 149.01 209.41C149.323 209.41 149.59 209.36 149.81 209.26C150.037 209.153 150.207 209.01 150.32 208.83C150.44 208.65 150.5 208.447 150.5 208.22C150.5 207.967 150.443 207.757 150.33 207.59C150.223 207.417 150.073 207.277 149.88 207.17C149.687 207.057 149.463 206.957 149.21 206.87C148.957 206.783 148.683 206.693 148.39 206.6C147.803 206.413 147.377 206.18 147.11 205.9C146.85 205.613 146.72 205.247 146.72 204.8C146.72 204.42 146.807 204.087 146.98 203.8C147.16 203.513 147.413 203.29 147.74 203.13C148.073 202.963 148.467 202.88 148.92 202.88C149.367 202.88 149.753 202.963 150.08 203.13C150.413 203.297 150.673 203.527 150.86 203.82C151.047 204.107 151.14 204.44 151.14 204.82H150.26C150.26 204.627 150.21 204.437 150.11 204.25C150.01 204.063 149.857 203.91 149.65 203.79C149.45 203.663 149.197 203.6 148.89 203.6C148.637 203.593 148.41 203.637 148.21 203.73C148.017 203.817 147.863 203.943 147.75 204.11C147.643 204.277 147.59 204.48 147.59 204.72C147.59 204.947 147.637 205.13 147.73 205.27C147.83 205.41 147.97 205.53 148.15 205.63C148.337 205.723 148.553 205.81 148.8 205.89C149.047 205.97 149.32 206.06 149.62 206.16C149.96 206.273 150.26 206.413 150.52 206.58C150.787 206.74 150.993 206.947 151.14 207.2C151.293 207.453 151.37 207.777 151.37 208.17C151.37 208.503 151.28 208.82 151.1 209.12C150.927 209.413 150.667 209.653 150.32 209.84C149.973 210.027 149.537 210.12 149.01 210.12ZM154.659 210.12C154.273 210.12 153.936 210.047 153.649 209.9C153.363 209.753 153.139 209.53 152.979 209.23C152.819 208.923 152.739 208.543 152.739 208.09V204.74H153.579V208C153.579 208.467 153.693 208.817 153.919 209.05C154.153 209.283 154.463 209.4 154.849 209.4C155.116 209.4 155.356 209.34 155.569 209.22C155.783 209.093 155.953 208.91 156.079 208.67C156.213 208.43 156.279 208.137 156.279 207.79V204.74H157.119V210H156.359L156.309 209.16C156.169 209.467 155.953 209.703 155.659 209.87C155.373 210.037 155.039 210.12 154.659 210.12ZM161.011 210.12C160.531 210.12 160.104 210.007 159.731 209.78C159.358 209.547 159.064 209.223 158.851 208.81C158.638 208.397 158.531 207.917 158.531 207.37C158.531 206.817 158.638 206.337 158.851 205.93C159.064 205.517 159.358 205.197 159.731 204.97C160.104 204.737 160.531 204.62 161.011 204.62C161.611 204.62 162.111 204.78 162.511 205.1C162.918 205.42 163.178 205.85 163.291 206.39H162.431C162.358 206.057 162.188 205.8 161.921 205.62C161.661 205.433 161.354 205.34 161.001 205.34C160.694 205.34 160.418 205.417 160.171 205.57C159.931 205.723 159.741 205.95 159.601 206.25C159.461 206.55 159.391 206.923 159.391 207.37C159.391 207.703 159.431 208 159.511 208.26C159.591 208.513 159.701 208.727 159.841 208.9C159.988 209.067 160.158 209.193 160.351 209.28C160.551 209.367 160.768 209.41 161.001 209.41C161.241 209.41 161.458 209.37 161.651 209.29C161.851 209.203 162.018 209.08 162.151 208.92C162.291 208.76 162.384 208.57 162.431 208.35H163.291C163.184 208.877 162.924 209.303 162.511 209.63C162.104 209.957 161.604 210.12 161.011 210.12ZM166.982 210.12C166.502 210.12 166.076 210.007 165.702 209.78C165.329 209.547 165.036 209.223 164.822 208.81C164.609 208.397 164.502 207.917 164.502 207.37C164.502 206.817 164.609 206.337 164.822 205.93C165.036 205.517 165.329 205.197 165.702 204.97C166.076 204.737 166.502 204.62 166.982 204.62C167.582 204.62 168.082 204.78 168.482 205.1C168.889 205.42 169.149 205.85 169.262 206.39H168.402C168.329 206.057 168.159 205.8 167.892 205.62C167.632 205.433 167.326 205.34 166.972 205.34C166.666 205.34 166.389 205.417 166.142 205.57C165.902 205.723 165.712 205.95 165.572 206.25C165.432 206.55 165.362 206.923 165.362 207.37C165.362 207.703 165.402 208 165.482 208.26C165.562 208.513 165.672 208.727 165.812 208.9C165.959 209.067 166.129 209.193 166.322 209.28C166.522 209.367 166.739 209.41 166.972 209.41C167.212 209.41 167.429 209.37 167.622 209.29C167.822 209.203 167.989 209.08 168.122 208.92C168.262 208.76 168.356 208.57 168.402 208.35H169.262C169.156 208.877 168.896 209.303 168.482 209.63C168.076 209.957 167.576 210.12 166.982 210.12ZM172.864 210.12C172.397 210.12 171.984 210.007 171.624 209.78C171.264 209.553 170.98 209.233 170.774 208.82C170.574 208.407 170.474 207.923 170.474 207.37C170.474 206.817 170.574 206.333 170.774 205.92C170.98 205.507 171.264 205.187 171.624 204.96C171.99 204.733 172.41 204.62 172.884 204.62C173.39 204.62 173.814 204.733 174.154 204.96C174.494 205.187 174.75 205.49 174.924 205.87C175.097 206.25 175.184 206.667 175.184 207.12C175.184 207.187 175.184 207.253 175.184 207.32C175.184 207.387 175.18 207.467 175.174 207.56H171.104V206.91H174.364C174.35 206.397 174.2 206.007 173.914 205.74C173.634 205.467 173.284 205.33 172.864 205.33C172.584 205.33 172.324 205.4 172.084 205.54C171.85 205.673 171.66 205.873 171.514 206.14C171.367 206.407 171.294 206.74 171.294 207.14V207.42C171.294 207.86 171.367 208.23 171.514 208.53C171.66 208.823 171.85 209.043 172.084 209.19C172.324 209.337 172.584 209.41 172.864 209.41C173.237 209.41 173.53 209.34 173.744 209.2C173.957 209.053 174.114 208.847 174.214 208.58H175.044C174.964 208.873 174.824 209.137 174.624 209.37C174.43 209.603 174.184 209.787 173.884 209.92C173.59 210.053 173.25 210.12 172.864 210.12ZM178.448 210.12C177.975 210.12 177.581 210.05 177.268 209.91C176.961 209.763 176.728 209.563 176.568 209.31C176.408 209.05 176.311 208.75 176.278 208.41H177.138C177.165 208.59 177.225 208.757 177.318 208.91C177.418 209.057 177.561 209.177 177.748 209.27C177.935 209.363 178.171 209.41 178.458 209.41C178.685 209.41 178.878 209.377 179.038 209.31C179.198 209.237 179.318 209.137 179.398 209.01C179.485 208.883 179.528 208.737 179.528 208.57C179.528 208.35 179.478 208.18 179.378 208.06C179.285 207.933 179.145 207.84 178.958 207.78C178.778 207.713 178.551 207.663 178.278 207.63C177.985 207.59 177.725 207.533 177.498 207.46C177.271 207.387 177.078 207.29 176.918 207.17C176.765 207.05 176.648 206.9 176.568 206.72C176.488 206.54 176.448 206.327 176.448 206.08C176.448 205.793 176.525 205.54 176.678 205.32C176.831 205.1 177.048 204.93 177.328 204.81C177.615 204.683 177.951 204.62 178.338 204.62C178.905 204.62 179.351 204.75 179.678 205.01C180.011 205.27 180.208 205.64 180.268 206.12H179.438C179.405 205.873 179.291 205.68 179.098 205.54C178.905 205.4 178.648 205.33 178.328 205.33C177.988 205.33 177.731 205.393 177.558 205.52C177.385 205.647 177.298 205.813 177.298 206.02C177.298 206.173 177.335 206.313 177.408 206.44C177.488 206.56 177.621 206.663 177.808 206.75C177.995 206.83 178.245 206.89 178.558 206.93C178.951 206.977 179.285 207.053 179.558 207.16C179.831 207.26 180.038 207.417 180.178 207.63C180.325 207.843 180.395 208.133 180.388 208.5C180.388 208.847 180.305 209.14 180.138 209.38C179.978 209.62 179.751 209.803 179.458 209.93C179.171 210.057 178.835 210.12 178.448 210.12ZM182.166 210V204.18C182.166 203.86 182.219 203.6 182.326 203.4C182.432 203.193 182.589 203.043 182.796 202.95C183.009 202.85 183.269 202.8 183.576 202.8H184.346V203.52H183.716C183.462 203.52 183.279 203.573 183.166 203.68C183.059 203.78 183.006 203.957 183.006 204.21V210H182.166ZM181.346 205.45V204.74H184.406V205.45H181.346ZM187.539 210.12C187.152 210.12 186.816 210.047 186.529 209.9C186.242 209.753 186.019 209.53 185.859 209.23C185.699 208.923 185.619 208.543 185.619 208.09V204.74H186.459V208C186.459 208.467 186.572 208.817 186.799 209.05C187.032 209.283 187.342 209.4 187.729 209.4C187.996 209.4 188.236 209.34 188.449 209.22C188.662 209.093 188.832 208.91 188.959 208.67C189.092 208.43 189.159 208.137 189.159 207.79V204.74H189.999V210H189.239L189.189 209.16C189.049 209.467 188.832 209.703 188.539 209.87C188.252 210.037 187.919 210.12 187.539 210.12ZM191.621 210V202.8H192.461V210H191.621Z" fill="white"/>
<path d="M146.77 236V229H151.03V229.69H147.61V232.15H150.52V232.83H147.61V236H146.77ZM153.599 236.12C153.199 236.12 152.865 236.047 152.599 235.9C152.332 235.747 152.132 235.547 151.999 235.3C151.865 235.047 151.799 234.777 151.799 234.49C151.799 234.143 151.885 233.85 152.059 233.61C152.239 233.363 152.489 233.177 152.809 233.05C153.129 232.923 153.502 232.86 153.929 232.86H155.239C155.239 232.52 155.199 232.237 155.119 232.01C155.039 231.783 154.909 231.613 154.729 231.5C154.549 231.387 154.309 231.33 154.009 231.33C153.709 231.33 153.452 231.407 153.239 231.56C153.025 231.707 152.892 231.927 152.839 232.22H151.979C152.019 231.873 152.135 231.583 152.329 231.35C152.522 231.11 152.765 230.93 153.059 230.81C153.359 230.683 153.675 230.62 154.009 230.62C154.482 230.62 154.872 230.707 155.179 230.88C155.485 231.047 155.712 231.283 155.859 231.59C156.005 231.89 156.079 232.247 156.079 232.66V236H155.329L155.279 235.1C155.212 235.24 155.125 235.373 155.019 235.5C154.919 235.62 154.799 235.727 154.659 235.82C154.519 235.913 154.359 235.987 154.179 236.04C154.005 236.093 153.812 236.12 153.599 236.12ZM153.719 235.41C153.939 235.41 154.142 235.36 154.329 235.26C154.515 235.16 154.675 235.027 154.809 234.86C154.949 234.687 155.055 234.493 155.129 234.28C155.202 234.067 155.239 233.843 155.239 233.61V233.51H153.999C153.685 233.51 153.429 233.55 153.229 233.63C153.035 233.71 152.895 233.823 152.809 233.97C152.722 234.11 152.679 234.27 152.679 234.45C152.679 234.643 152.719 234.813 152.799 234.96C152.879 235.1 152.995 235.21 153.149 235.29C153.309 235.37 153.499 235.41 153.719 235.41ZM157.747 236V230.74H158.587V236H157.747ZM158.167 229.74C158 229.74 157.86 229.687 157.747 229.58C157.64 229.467 157.587 229.327 157.587 229.16C157.587 228.993 157.64 228.86 157.747 228.76C157.86 228.653 158 228.6 158.167 228.6C158.327 228.6 158.463 228.653 158.577 228.76C158.69 228.86 158.747 228.993 158.747 229.16C158.747 229.327 158.69 229.467 158.577 229.58C158.463 229.687 158.327 229.74 158.167 229.74ZM160.279 236V228.8H161.119V236H160.279ZM164.915 236.12C164.448 236.12 164.035 236.007 163.675 235.78C163.315 235.553 163.031 235.233 162.825 234.82C162.625 234.407 162.525 233.923 162.525 233.37C162.525 232.817 162.625 232.333 162.825 231.92C163.031 231.507 163.315 231.187 163.675 230.96C164.041 230.733 164.461 230.62 164.935 230.62C165.441 230.62 165.865 230.733 166.205 230.96C166.545 231.187 166.801 231.49 166.975 231.87C167.148 232.25 167.235 232.667 167.235 233.12C167.235 233.187 167.235 233.253 167.235 233.32C167.235 233.387 167.231 233.467 167.225 233.56H163.155V232.91H166.415C166.401 232.397 166.251 232.007 165.965 231.74C165.685 231.467 165.335 231.33 164.915 231.33C164.635 231.33 164.375 231.4 164.135 231.54C163.901 231.673 163.711 231.873 163.565 232.14C163.418 232.407 163.345 232.74 163.345 233.14V233.42C163.345 233.86 163.418 234.23 163.565 234.53C163.711 234.823 163.901 235.043 164.135 235.19C164.375 235.337 164.635 235.41 164.915 235.41C165.288 235.41 165.581 235.34 165.795 235.2C166.008 235.053 166.165 234.847 166.265 234.58H167.095C167.015 234.873 166.875 235.137 166.675 235.37C166.481 235.603 166.235 235.787 165.935 235.92C165.641 236.053 165.301 236.12 164.915 236.12ZM170.769 236.12C170.302 236.12 169.889 236 169.529 235.76C169.169 235.52 168.889 235.193 168.689 234.78C168.489 234.36 168.389 233.887 168.389 233.36C168.389 232.827 168.489 232.357 168.689 231.95C168.889 231.537 169.169 231.213 169.529 230.98C169.889 230.74 170.305 230.62 170.779 230.62C171.192 230.62 171.545 230.703 171.839 230.87C172.139 231.037 172.375 231.27 172.549 231.57V228.8H173.389V236H172.629L172.559 235.16C172.459 235.327 172.325 235.483 172.159 235.63C171.999 235.777 171.802 235.897 171.569 235.99C171.342 236.077 171.075 236.12 170.769 236.12ZM170.879 235.39C171.212 235.39 171.502 235.31 171.749 235.15C171.995 234.983 172.185 234.75 172.319 234.45C172.452 234.143 172.519 233.783 172.519 233.37C172.519 232.957 172.452 232.6 172.319 232.3C172.185 231.993 171.995 231.76 171.749 231.6C171.502 231.433 171.212 231.35 170.879 231.35C170.565 231.35 170.285 231.433 170.039 231.6C169.792 231.76 169.599 231.993 169.459 232.3C169.319 232.6 169.249 232.957 169.249 233.37C169.249 233.783 169.319 234.143 169.459 234.45C169.599 234.75 169.792 234.983 170.039 235.15C170.285 235.31 170.565 235.39 170.879 235.39Z" fill="white"/>
<rect x="110" y="230" width="28" height="6" rx="2" fill="#AB63A5"/>
</g>
<g filter="url(#filter6_d_2654_28251)">
<g filter="url(#filter7_d_2654_28251)">
<rect x="65.5" y="95.5" width="350" height="187" rx="9.5" fill="#111214" stroke="url(#paint8_linear_2654_28251)"/>
</g>
<line x1="65.9971" y1="115.496" x2="415.003" y2="115.496" stroke="url(#paint9_linear_2654_28251)"/>
<g clip-path="url(#clip2_2654_28251)">
<path d="M82.7945 104.976C82.7808 104.825 82.758 104.653 82.7124 104.46C82.6669 104.27 82.5985 104.061 82.4982 103.844C82.3979 103.627 82.268 103.402 82.0993 103.183C82.0332 103.097 81.9603 103.013 81.8828 102.931C81.9991 102.431 81.7415 101.997 81.7415 101.997C81.2971 101.967 81.0144 102.147 80.9096 102.229C80.8914 102.221 80.8754 102.211 80.8572 102.204C80.782 102.172 80.7045 102.14 80.6224 102.113C80.5426 102.086 80.4606 102.061 80.3763 102.039C80.2919 102.017 80.2076 101.999 80.121 101.985C80.105 101.982 80.0914 101.98 80.0754 101.977C79.8817 101.306 79.3256 101.025 79.3256 101.025C78.7033 101.452 78.5871 102.049 78.5871 102.049C78.5871 102.049 78.5848 102.061 78.5803 102.083C78.5461 102.093 78.5119 102.105 78.4777 102.115C78.4298 102.13 78.382 102.15 78.3364 102.17C78.2885 102.189 78.2429 102.209 78.1951 102.231C78.1016 102.276 78.0082 102.325 77.917 102.379C77.8281 102.433 77.7415 102.493 77.6572 102.554C77.6458 102.549 77.6344 102.544 77.6344 102.544C76.7728 102.189 76.0093 102.616 76.0093 102.616C75.9387 103.607 76.3535 104.231 76.4355 104.344C76.415 104.406 76.3968 104.468 76.3785 104.529C76.3147 104.754 76.2669 104.983 76.2372 105.222C76.2327 105.257 76.2281 105.291 76.2258 105.326C75.4281 105.752 75.1934 106.623 75.1934 106.623C75.8566 107.449 76.6315 107.5 76.6315 107.5L76.6338 107.498C76.7318 107.688 76.8458 107.868 76.9734 108.038C77.0281 108.109 77.0828 108.176 77.1421 108.243C76.9005 108.992 77.1763 109.614 77.1763 109.614C77.9147 109.643 78.4002 109.263 78.5028 109.177C78.5757 109.204 78.6509 109.229 78.7261 109.249C78.954 109.313 79.1865 109.35 79.419 109.36C79.476 109.362 79.5352 109.365 79.5922 109.362H79.6196H79.6378H79.6743L79.7107 109.36V109.362C80.0595 109.9 80.6703 109.976 80.6703 109.976C81.1056 109.48 81.1307 108.987 81.1307 108.881C81.1307 108.881 81.1307 108.879 81.1307 108.874C81.1307 108.864 81.1307 108.859 81.1307 108.859C81.1307 108.852 81.1307 108.844 81.1307 108.837C81.2218 108.768 81.3085 108.694 81.3905 108.613C81.5637 108.442 81.7164 108.248 81.8441 108.038C81.8555 108.018 81.8669 107.999 81.8783 107.979C82.3706 108.008 82.7193 107.648 82.7193 107.648C82.6372 107.094 82.3455 106.822 82.284 106.771C82.284 106.771 82.2817 106.768 82.2771 106.766C82.2726 106.763 82.2726 106.761 82.2726 106.761C82.2703 106.758 82.2657 106.756 82.2612 106.753C82.2634 106.719 82.2657 106.687 82.268 106.652C82.2726 106.593 82.2726 106.531 82.2726 106.472V106.428V106.406V106.393C82.2726 106.379 82.2726 106.383 82.2726 106.379L82.2703 106.342L82.268 106.292C82.268 106.275 82.2657 106.26 82.2634 106.245C82.2612 106.231 82.2612 106.213 82.2589 106.199L82.2543 106.152L82.2475 106.105C82.2384 106.043 82.2293 105.984 82.2156 105.922C82.1632 105.683 82.0765 105.456 81.9649 105.252C81.8509 105.047 81.7096 104.867 81.5478 104.714C81.3882 104.561 81.2082 104.438 81.0213 104.347C80.8321 104.256 80.6361 104.196 80.4401 104.169C80.3421 104.154 80.2441 104.15 80.1461 104.152H80.1096H80.1005C80.0982 104.152 80.0868 104.152 80.0891 104.152H80.0731L80.0367 104.154C80.023 104.154 80.0093 104.157 79.9979 104.157C79.9478 104.162 79.8976 104.169 79.8498 104.179C79.6538 104.219 79.4691 104.295 79.3073 104.401C79.1455 104.507 79.0042 104.638 78.8902 104.786C78.7763 104.934 78.6874 105.099 78.6258 105.269C78.5643 105.439 78.5301 105.617 78.521 105.787C78.5187 105.829 78.5187 105.873 78.5187 105.915C78.5187 105.925 78.5187 105.937 78.5187 105.947L78.521 105.982C78.5233 106.001 78.5233 106.023 78.5256 106.043C78.5324 106.129 78.5483 106.213 78.5689 106.292C78.6122 106.453 78.6805 106.598 78.7649 106.721C78.8492 106.845 78.9518 106.946 79.0589 107.027C79.166 107.106 79.2822 107.163 79.3962 107.2C79.5102 107.237 79.6241 107.251 79.7313 107.251C79.7449 107.251 79.7586 107.251 79.77 107.251C79.7768 107.251 79.7837 107.251 79.7905 107.251C79.7973 107.251 79.8042 107.251 79.811 107.249C79.8224 107.249 79.8338 107.246 79.8452 107.246C79.8475 107.246 79.852 107.246 79.8543 107.244L79.8657 107.242C79.8726 107.242 79.8794 107.239 79.8862 107.239C79.8999 107.237 79.9113 107.234 79.925 107.232C79.9387 107.229 79.9501 107.227 79.9615 107.222C79.9865 107.217 80.0093 107.207 80.0321 107.2C80.0777 107.182 80.1233 107.163 80.162 107.14C80.203 107.118 80.2395 107.091 80.276 107.066C80.2851 107.059 80.2965 107.052 80.3056 107.042C80.3421 107.01 80.3489 106.951 80.3193 106.911C80.2942 106.877 80.2486 106.867 80.2122 106.889C80.203 106.894 80.1939 106.899 80.1848 106.904C80.1529 106.921 80.121 106.936 80.0868 106.948C80.0526 106.96 80.0162 106.97 79.9797 106.978C79.9615 106.98 79.9432 106.983 79.9227 106.985C79.9136 106.985 79.9045 106.988 79.8931 106.988C79.884 106.988 79.8726 106.988 79.8657 106.988C79.8566 106.988 79.8475 106.988 79.8384 106.988C79.827 106.988 79.8156 106.988 79.8042 106.985C79.8042 106.985 79.7973 106.985 79.8019 106.985H79.7973H79.7905C79.786 106.985 79.7791 106.985 79.7746 106.983C79.7632 106.98 79.754 106.98 79.7426 106.978C79.6583 106.965 79.574 106.938 79.4942 106.899C79.4122 106.859 79.3347 106.805 79.264 106.736C79.1934 106.667 79.1318 106.586 79.084 106.492C79.0361 106.398 79.0019 106.295 78.986 106.186C78.9791 106.132 78.9746 106.075 78.9768 106.021C78.9768 106.006 78.9791 105.991 78.9791 105.977C78.9791 105.982 78.9791 105.974 78.9791 105.974V105.969V105.957C78.9791 105.949 78.9814 105.942 78.9814 105.935C78.9837 105.905 78.9882 105.876 78.9928 105.846C79.0315 105.609 79.1409 105.377 79.3096 105.202C79.3529 105.158 79.3985 105.119 79.4464 105.082C79.4942 105.045 79.5466 105.013 79.6013 104.985C79.656 104.958 79.7107 104.936 79.77 104.919C79.827 104.902 79.8862 104.892 79.9478 104.884C79.9774 104.882 80.007 104.879 80.0389 104.879C80.0481 104.879 80.0526 104.879 80.0595 104.879H80.0845H80.1005C80.1073 104.879 80.1005 104.879 80.1028 104.879H80.1096L80.1347 104.882C80.2008 104.887 80.2646 104.897 80.3284 104.914C80.456 104.943 80.5814 104.995 80.6976 105.064C80.9301 105.205 81.1284 105.422 81.2492 105.683C81.3107 105.814 81.354 105.954 81.3746 106.1C81.3791 106.137 81.3837 106.174 81.386 106.211L81.3882 106.238L81.3905 106.265C81.3905 106.275 81.3905 106.285 81.3905 106.292C81.3905 106.302 81.3905 106.312 81.3905 106.319V106.344V106.371C81.3905 106.388 81.3882 106.418 81.3882 106.435C81.386 106.475 81.3814 106.517 81.3768 106.556C81.3723 106.596 81.3654 106.635 81.3586 106.674C81.3518 106.714 81.3426 106.753 81.3335 106.79C81.3153 106.867 81.2925 106.943 81.2652 107.02C81.2105 107.168 81.1375 107.311 81.0509 107.441C80.8754 107.703 80.6361 107.915 80.3626 108.05C80.2258 108.117 80.0822 108.166 79.9341 108.191C79.8612 108.206 79.786 108.213 79.7107 108.216H79.6971H79.6857H79.6606H79.6241H79.6059C79.615 108.216 79.6036 108.216 79.6036 108.216H79.5968C79.5558 108.216 79.517 108.213 79.476 108.208C79.3164 108.196 79.1592 108.164 79.0042 108.117C78.8515 108.07 78.7033 108.003 78.562 107.925C78.2817 107.762 78.0287 107.54 77.8327 107.271C77.7347 107.138 77.6481 106.993 77.5774 106.842C77.5067 106.692 77.4498 106.531 77.4087 106.371C77.3677 106.208 77.3426 106.043 77.3313 105.876L77.329 105.843V105.836V105.829V105.814V105.787V105.779V105.769V105.75V105.71V105.703C77.329 105.703 77.329 105.705 77.329 105.7V105.686C77.329 105.666 77.329 105.644 77.329 105.624C77.3313 105.543 77.3381 105.456 77.3472 105.373C77.3563 105.289 77.37 105.202 77.386 105.119C77.4019 105.035 77.4201 104.951 77.4429 104.867C77.4862 104.702 77.5409 104.542 77.6048 104.391C77.7347 104.09 77.9033 103.822 78.1062 103.607C78.1563 103.553 78.2087 103.503 78.2634 103.454C78.3181 103.407 78.3751 103.363 78.4344 103.321C78.4914 103.279 78.5529 103.242 78.6144 103.208C78.6441 103.19 78.676 103.173 78.7079 103.158C78.7238 103.151 78.7398 103.143 78.7558 103.136C78.7717 103.129 78.7877 103.121 78.8036 103.114C78.8674 103.084 78.9335 103.06 79.0019 103.037C79.0179 103.033 79.0361 103.028 79.052 103.02C79.068 103.015 79.0862 103.01 79.1022 103.005C79.1364 102.996 79.1706 102.986 79.2048 102.978C79.2207 102.973 79.2389 102.971 79.2572 102.966C79.2754 102.961 79.2914 102.959 79.3096 102.954C79.3278 102.951 79.3438 102.946 79.362 102.944L79.3871 102.939L79.4144 102.934C79.4327 102.931 79.4486 102.929 79.4669 102.926C79.4874 102.924 79.5056 102.922 79.5261 102.919C79.5421 102.917 79.5694 102.914 79.5854 102.912C79.5968 102.909 79.6105 102.909 79.6218 102.907L79.6469 102.904L79.6583 102.902H79.672C79.6925 102.899 79.7107 102.899 79.7313 102.897L79.7609 102.894C79.7609 102.894 79.7723 102.894 79.7632 102.894H79.77H79.7837C79.7996 102.894 79.8179 102.892 79.8338 102.892C79.8999 102.89 79.9683 102.89 80.0344 102.892C80.1666 102.897 80.2965 102.914 80.4218 102.939C80.6748 102.991 80.9119 103.077 81.1284 103.193C81.3449 103.306 81.5364 103.447 81.705 103.6C81.7164 103.61 81.7256 103.619 81.7369 103.629C81.7461 103.639 81.7575 103.649 81.7666 103.659C81.7871 103.679 81.8053 103.698 81.8258 103.718C81.8464 103.738 81.8646 103.757 81.8828 103.777C81.9011 103.797 81.9193 103.817 81.9375 103.839C82.0082 103.92 82.0743 104.002 82.1335 104.085C82.252 104.251 82.3478 104.418 82.423 104.576C82.4275 104.586 82.4321 104.596 82.4367 104.606C82.4412 104.616 82.4458 104.625 82.4503 104.635C82.4595 104.655 82.4686 104.675 82.4754 104.694C82.4845 104.714 82.4914 104.731 82.5005 104.751C82.5073 104.771 82.5164 104.788 82.5233 104.808C82.5506 104.882 82.578 104.953 82.5985 105.02C82.6327 105.128 82.6577 105.225 82.6783 105.308C82.6851 105.343 82.7147 105.365 82.7466 105.36C82.7808 105.358 82.8059 105.328 82.8059 105.291C82.8082 105.202 82.8059 105.096 82.7945 104.976Z" fill="url(#paint10_linear_2654_28251)"/>
</g>
<rect x="75" y="126" width="331" height="147" rx="5" fill="#1D1F22"/>
<path d="M90 159.145L138.459 166.414L158.946 179.498L172.342 159.145L210.164 152.846L227.499 148L247.592 159.145L268.079 187.736L292.899 193.066L311.81 202.758L326.781 215.841L354.754 176.106L382.726 152.846H391V258H90V159.145Z" fill="#A1D2DF" fill-opacity="0.2" stroke="#5D97A6"/>
</g>
<g filter="url(#filter8_d_2654_28251)">
<g filter="url(#filter9_d_2654_28251)">
<rect x="45.5" y="75.5" width="350" height="187" rx="9.5" fill="#111214" stroke="url(#paint11_linear_2654_28251)"/>
</g>
<line x1="45.9971" y1="95.4961" x2="395.003" y2="95.4961" stroke="url(#paint12_linear_2654_28251)"/>
<g clip-path="url(#clip3_2654_28251)">
<path d="M62.7945 84.9755C62.7808 84.8251 62.758 84.6525 62.7124 84.4602C62.6669 84.2703 62.5985 84.0607 62.4982 83.8437C62.3979 83.6268 62.268 83.4024 62.0993 83.1829C62.0332 83.0966 61.9603 83.0128 61.8828 82.9314C61.9991 82.4309 61.7415 81.9969 61.7415 81.9969C61.2971 81.9673 61.0144 82.1473 60.9096 82.2287C60.8914 82.2213 60.8754 82.2114 60.8572 82.204C60.782 82.172 60.7045 82.1399 60.6224 82.1128C60.5426 82.0857 60.4606 82.061 60.3763 82.0388C60.2919 82.0166 60.2076 81.9994 60.121 81.9846C60.105 81.9821 60.0914 81.9796 60.0754 81.9772C59.8817 81.3065 59.3256 81.0254 59.3256 81.0254C58.7033 81.452 58.5871 82.0487 58.5871 82.0487C58.5871 82.0487 58.5848 82.061 58.5803 82.0832C58.5461 82.0931 58.5119 82.1054 58.4777 82.1153C58.4298 82.13 58.382 82.1498 58.3364 82.1695C58.2885 82.1892 58.2429 82.209 58.1951 82.2311C58.1016 82.2755 58.0082 82.3248 57.917 82.3791C57.8281 82.4333 57.7415 82.4925 57.6572 82.5542C57.6458 82.5492 57.6344 82.5443 57.6344 82.5443C56.7728 82.1892 56.0093 82.6158 56.0093 82.6158C55.9387 83.607 56.3535 84.2309 56.4355 84.3443C56.415 84.4059 56.3968 84.4676 56.3785 84.5292C56.3147 84.7536 56.2669 84.9829 56.2372 85.2221C56.2327 85.2566 56.2281 85.2911 56.2258 85.3257C55.4281 85.7522 55.1934 86.6227 55.1934 86.6227C55.8566 87.4487 56.6315 87.5005 56.6315 87.5005L56.6338 87.498C56.7318 87.6879 56.8458 87.8679 56.9734 88.038C57.0281 88.1095 57.0828 88.1761 57.1421 88.2427C56.9005 88.9922 57.1763 89.6136 57.1763 89.6136C57.9147 89.6432 58.4002 89.2635 58.5028 89.1772C58.5757 89.2043 58.6509 89.229 58.7261 89.2487C58.954 89.3128 59.1865 89.3498 59.419 89.3596C59.476 89.3621 59.5352 89.3646 59.5922 89.3621H59.6196H59.6378H59.6743L59.7107 89.3596V89.3621C60.0595 89.8996 60.6703 89.9761 60.6703 89.9761C61.1056 89.4805 61.1307 88.9873 61.1307 88.8813C61.1307 88.8813 61.1307 88.8788 61.1307 88.8739C61.1307 88.864 61.1307 88.8591 61.1307 88.8591C61.1307 88.8517 61.1307 88.8443 61.1307 88.8369C61.2218 88.7679 61.3085 88.6939 61.3905 88.6125C61.5637 88.4424 61.7164 88.2476 61.8441 88.038C61.8555 88.0183 61.8669 87.9985 61.8783 87.9788C62.3706 88.0084 62.7193 87.6484 62.7193 87.6484C62.6372 87.0936 62.3455 86.8224 62.284 86.7706C62.284 86.7706 62.2817 86.7681 62.2771 86.7657C62.2726 86.7632 62.2726 86.7607 62.2726 86.7607C62.2703 86.7583 62.2657 86.7558 62.2612 86.7533C62.2634 86.7188 62.2657 86.6868 62.268 86.6522C62.2726 86.5931 62.2726 86.5314 62.2726 86.4722V86.4279V86.4057V86.3933C62.2726 86.3785 62.2726 86.3835 62.2726 86.3785L62.2703 86.3416L62.268 86.2922C62.268 86.275 62.2657 86.2602 62.2634 86.2454C62.2612 86.2306 62.2612 86.2133 62.2589 86.1985L62.2543 86.1517L62.2475 86.1048C62.2384 86.0432 62.2293 85.984 62.2156 85.9224C62.1632 85.6832 62.0765 85.4563 61.9649 85.2517C61.8509 85.047 61.7096 84.867 61.5478 84.7142C61.3882 84.5613 61.2082 84.438 61.0213 84.3468C60.8321 84.2555 60.6361 84.1963 60.4401 84.1692C60.3421 84.1544 60.2441 84.1495 60.1461 84.152H60.1096H60.1005C60.0982 84.152 60.0868 84.152 60.0891 84.152H60.0731L60.0367 84.1544C60.023 84.1544 60.0093 84.1569 59.9979 84.1569C59.9478 84.1618 59.8976 84.1692 59.8498 84.1791C59.6538 84.2185 59.4691 84.295 59.3073 84.401C59.1455 84.507 59.0042 84.6377 58.8902 84.7857C58.7763 84.9336 58.6874 85.0988 58.6258 85.269C58.5643 85.4391 58.5301 85.6166 58.521 85.7868C58.5187 85.8287 58.5187 85.8731 58.5187 85.915C58.5187 85.9248 58.5187 85.9372 58.5187 85.947L58.521 85.9816C58.5233 86.0013 58.5233 86.0235 58.5256 86.0432C58.5324 86.1295 58.5483 86.2133 58.5689 86.2922C58.6122 86.4525 58.6805 86.598 58.7649 86.7213C58.8492 86.8446 58.9518 86.9457 59.0589 87.027C59.166 87.1059 59.2822 87.1627 59.3962 87.1996C59.5102 87.2366 59.6241 87.2514 59.7313 87.2514C59.7449 87.2514 59.7586 87.2514 59.77 87.2514C59.7768 87.2514 59.7837 87.2514 59.7905 87.2514C59.7973 87.2514 59.8042 87.2514 59.811 87.249C59.8224 87.249 59.8338 87.2465 59.8452 87.2465C59.8475 87.2465 59.852 87.2465 59.8543 87.244L59.8657 87.2416C59.8726 87.2416 59.8794 87.2391 59.8862 87.2391C59.8999 87.2366 59.9113 87.2342 59.925 87.2317C59.9387 87.2292 59.9501 87.2268 59.9615 87.2218C59.9865 87.2169 60.0093 87.207 60.0321 87.1996C60.0777 87.1824 60.1233 87.1627 60.162 87.1405C60.203 87.1183 60.2395 87.0911 60.276 87.0665C60.2851 87.0591 60.2965 87.0517 60.3056 87.0418C60.3421 87.0098 60.3489 86.9506 60.3193 86.9111C60.2942 86.8766 60.2486 86.8668 60.2122 86.889C60.203 86.8939 60.1939 86.8988 60.1848 86.9037C60.1529 86.921 60.121 86.9358 60.0868 86.9481C60.0526 86.9605 60.0162 86.9703 59.9797 86.9777C59.9615 86.9802 59.9432 86.9827 59.9227 86.9851C59.9136 86.9851 59.9045 86.9876 59.8931 86.9876C59.884 86.9876 59.8726 86.9876 59.8657 86.9876C59.8566 86.9876 59.8475 86.9876 59.8384 86.9876C59.827 86.9876 59.8156 86.9876 59.8042 86.9851C59.8042 86.9851 59.7973 86.9851 59.8019 86.9851H59.7973H59.7905C59.786 86.9851 59.7791 86.9851 59.7746 86.9827C59.7632 86.9802 59.754 86.9802 59.7426 86.9777C59.6583 86.9654 59.574 86.9383 59.4942 86.8988C59.4122 86.8594 59.3347 86.8051 59.264 86.7361C59.1934 86.667 59.1318 86.5857 59.084 86.492C59.0361 86.3983 59.0019 86.2947 58.986 86.1862C58.9791 86.132 58.9746 86.0753 58.9768 86.021C58.9768 86.0062 58.9791 85.9914 58.9791 85.9766C58.9791 85.9816 58.9791 85.9742 58.9791 85.9742V85.9692V85.9569C58.9791 85.9495 58.9814 85.9421 58.9814 85.9347C58.9837 85.9051 58.9882 85.8755 58.9928 85.8459C59.0315 85.6092 59.1409 85.3774 59.3096 85.2024C59.3529 85.158 59.3985 85.1185 59.4464 85.0816C59.4942 85.0446 59.5466 85.0125 59.6013 84.9854C59.656 84.9583 59.7107 84.9361 59.77 84.9188C59.827 84.9016 59.8862 84.8917 59.9478 84.8843C59.9774 84.8818 60.007 84.8794 60.0389 84.8794C60.0481 84.8794 60.0526 84.8794 60.0595 84.8794H60.0845H60.1005C60.1073 84.8794 60.1005 84.8794 60.1028 84.8794H60.1096L60.1347 84.8818C60.2008 84.8868 60.2646 84.8966 60.3284 84.9139C60.456 84.9435 60.5814 84.9953 60.6976 85.0643C60.9301 85.2048 61.1284 85.4218 61.2492 85.6832C61.3107 85.8139 61.354 85.9544 61.3746 86.0999C61.3791 86.1369 61.3837 86.1739 61.386 86.2109L61.3882 86.238L61.3905 86.2651C61.3905 86.275 61.3905 86.2848 61.3905 86.2922C61.3905 86.3021 61.3905 86.312 61.3905 86.3194V86.344V86.3711C61.3905 86.3884 61.3882 86.418 61.3882 86.4353C61.386 86.4747 61.3814 86.5166 61.3768 86.5561C61.3723 86.5955 61.3654 86.635 61.3586 86.6744C61.3518 86.7139 61.3426 86.7533 61.3335 86.7903C61.3153 86.8668 61.2925 86.9432 61.2652 87.0196C61.2105 87.1676 61.1375 87.3106 61.0509 87.4413C60.8754 87.7027 60.6361 87.9147 60.3626 88.0503C60.2258 88.1169 60.0822 88.1662 59.9341 88.1909C59.8612 88.2057 59.786 88.2131 59.7107 88.2155H59.6971H59.6857H59.6606H59.6241H59.6059C59.615 88.2155 59.6036 88.2155 59.6036 88.2155H59.5968C59.5558 88.2155 59.517 88.2131 59.476 88.2081C59.3164 88.1958 59.1592 88.1637 59.0042 88.1169C58.8515 88.07 58.7033 88.0035 58.562 87.9246C58.2817 87.7618 58.0287 87.5399 57.8327 87.2711C57.7347 87.138 57.6481 86.9925 57.5774 86.8421C57.5067 86.6917 57.4498 86.5314 57.4087 86.3711C57.3677 86.2084 57.3426 86.0432 57.3313 85.8755L57.329 85.8435V85.8361V85.8287V85.8139V85.7868V85.7794V85.7695V85.7498V85.7103V85.7029C57.329 85.7029 57.329 85.7054 57.329 85.7005V85.6857C57.329 85.6659 57.329 85.6437 57.329 85.624C57.3313 85.5427 57.3381 85.4563 57.3472 85.3725C57.3563 85.2887 57.37 85.2024 57.386 85.1185C57.4019 85.0347 57.4201 84.9509 57.4429 84.867C57.4862 84.7018 57.5409 84.5416 57.6048 84.3911C57.7347 84.0903 57.9033 83.8216 58.1062 83.607C58.1563 83.5528 58.2087 83.5035 58.2634 83.4542C58.3181 83.4073 58.3751 83.3629 58.4344 83.321C58.4914 83.2791 58.5529 83.2421 58.6144 83.2076C58.6441 83.1903 58.676 83.1731 58.7079 83.1583C58.7238 83.1509 58.7398 83.1435 58.7558 83.1361C58.7717 83.1287 58.7877 83.1213 58.8036 83.1139C58.8674 83.0843 58.9335 83.0596 59.0019 83.0374C59.0179 83.0325 59.0361 83.0276 59.052 83.0202C59.068 83.0153 59.0862 83.0103 59.1022 83.0054C59.1364 82.9955 59.1706 82.9857 59.2048 82.9783C59.2207 82.9733 59.2389 82.9709 59.2572 82.9659C59.2754 82.961 59.2914 82.9585 59.3096 82.9536C59.3278 82.9511 59.3438 82.9462 59.362 82.9437L59.3871 82.9388L59.4144 82.9339C59.4327 82.9314 59.4486 82.929 59.4669 82.9265C59.4874 82.924 59.5056 82.9216 59.5261 82.9191C59.5421 82.9166 59.5694 82.9142 59.5854 82.9117C59.5968 82.9092 59.6105 82.9092 59.6218 82.9068L59.6469 82.9043L59.6583 82.9018H59.672C59.6925 82.8994 59.7107 82.8994 59.7313 82.8969L59.7609 82.8944C59.7609 82.8944 59.7723 82.8944 59.7632 82.8944H59.77H59.7837C59.7996 82.8944 59.8179 82.892 59.8338 82.892C59.8999 82.8895 59.9683 82.8895 60.0344 82.892C60.1666 82.8969 60.2965 82.9142 60.4218 82.9388C60.6748 82.9906 60.9119 83.0769 61.1284 83.1928C61.3449 83.3062 61.5364 83.4468 61.705 83.5996C61.7164 83.6095 61.7256 83.6194 61.7369 83.6292C61.7461 83.6391 61.7575 83.649 61.7666 83.6588C61.7871 83.6785 61.8053 83.6983 61.8258 83.718C61.8464 83.7377 61.8646 83.7574 61.8828 83.7772C61.9011 83.7969 61.9193 83.8166 61.9375 83.8388C62.0082 83.9202 62.0743 84.0016 62.1335 84.0854C62.252 84.2506 62.3478 84.4183 62.423 84.5761C62.4275 84.5859 62.4321 84.5958 62.4367 84.6057C62.4412 84.6155 62.4458 84.6254 62.4503 84.6353C62.4595 84.655 62.4686 84.6747 62.4754 84.6944C62.4845 84.7142 62.4914 84.7314 62.5005 84.7511C62.5073 84.7709 62.5164 84.7881 62.5233 84.8079C62.5506 84.8818 62.578 84.9533 62.5985 85.0199C62.6327 85.1284 62.6577 85.2246 62.6783 85.3084C62.6851 85.3429 62.7147 85.3651 62.7466 85.3602C62.7808 85.3577 62.8059 85.3281 62.8059 85.2911C62.8082 85.2024 62.8059 85.0963 62.7945 84.9755Z" fill="#86888E"/>
</g>
<rect x="55" y="106" width="331" height="147" rx="5" fill="#1D1F22"/>
</g>
<g filter="url(#filter10_d_2654_28251)">
<path d="M70 128C70 125.239 72.2386 123 75 123H93C95.7614 123 98 125.239 98 128V238H70V128Z" fill="#BBBBBB"/>
</g>
<g filter="url(#filter11_d_2654_28251)">
<path d="M108 146C108 143.239 110.239 141 113 141H131C133.761 141 136 143.239 136 146V238H108V146Z" fill="#EEEFF1"/>
</g>
<g filter="url(#filter12_d_2654_28251)">
<path d="M146 139C146 136.239 148.239 134 151 134H169C171.761 134 174 136.239 174 139V238H146V139Z" fill="#D9D9D9"/>
</g>
<g filter="url(#filter13_d_2654_28251)">
<path d="M184 128C184 125.239 186.239 123 189 123H207C209.761 123 212 125.239 212 128V238H184V128Z" fill="#ACADAE"/>
</g>
<g filter="url(#filter14_d_2654_28251)">
<path d="M222 139C222 136.239 224.239 134 227 134H245C247.761 134 250 136.239 250 139V238H222V139Z" fill="#9FA1A6"/>
</g>
<g filter="url(#filter15_d_2654_28251)">
<path d="M260 157C260 154.239 262.239 152 265 152H283C285.761 152 288 154.239 288 157V238H260V157Z" fill="#86888E"/>
</g>
<g filter="url(#filter16_d_2654_28251)">
<path d="M298 128C298 125.239 300.239 123 303 123H321C323.761 123 326 125.239 326 128V238H298V128Z" fill="#575B62"/>
</g>
<g filter="url(#filter17_d_2654_28251)">
<path d="M336 146C336 143.239 338.239 141 341 141H359C361.761 141 364 143.239 364 146V238H336V146Z" fill="#484A4E"/>
</g>
<defs>
<filter id="filter0_d_2654_28251" x="85" y="115" width="431" height="268" filterUnits="userSpaceOnUse" color-interpolation-filters="sRGB">
<feFlood flood-opacity="0" result="BackgroundImageFix"/>
<feColorMatrix in="SourceAlpha" type="matrix" values="0 0 0 0 0 0 0 0 0 0 0 0 0 0 0 0 0 0 127 0" result="hardAlpha"/>
<feOffset dx="20" dy="20"/>
<feGaussianBlur stdDeviation="20"/>
<feComposite in2="hardAlpha" operator="out"/>
<feColorMatrix type="matrix" values="0 0 0 0 0 0 0 0 0 0 0 0 0 0 0 0 0 0 0.4 0"/>
<feBlend mode="normal" in2="BackgroundImageFix" result="effect1_dropShadow_2654_28251"/>
<feBlend mode="normal" in="SourceGraphic" in2="effect1_dropShadow_2654_28251" result="shape"/>
</filter>
<filter id="filter3_d_2654_28251" x="65" y="95" width="431" height="268" filterUnits="userSpaceOnUse" color-interpolation-filters="sRGB">
<feFlood flood-opacity="0" result="BackgroundImageFix"/>
<feColorMatrix in="SourceAlpha" type="matrix" values="0 0 0 0 0 0 0 0 0 0 0 0 0 0 0 0 0 0 127 0" result="hardAlpha"/>
<feOffset dx="20" dy="20"/>
<feGaussianBlur stdDeviation="20"/>
<feComposite in2="hardAlpha" operator="out"/>
<feColorMatrix type="matrix" values="0 0 0 0 0 0 0 0 0 0 0 0 0 0 0 0 0 0 0.4 0"/>
<feBlend mode="normal" in2="BackgroundImageFix" result="effect1_dropShadow_2654_28251"/>
<feBlend mode="normal" in="SourceGraphic" in2="effect1_dropShadow_2654_28251" result="shape"/>
</filter>
<filter id="filter6_d_2654_28251" x="45" y="75" width="431" height="268" filterUnits="userSpaceOnUse" color-interpolation-filters="sRGB">
<feFlood flood-opacity="0" result="BackgroundImageFix"/>
<feColorMatrix in="SourceAlpha" type="matrix" values="0 0 0 0 0 0 0 0 0 0 0 0 0 0 0 0 0 0 127 0" result="hardAlpha"/>
<feOffset dx="20" dy="20"/>
<feGaussianBlur stdDeviation="20"/>
<feComposite in2="hardAlpha" operator="out"/>
<feColorMatrix type="matrix" values="0 0 0 0 0 0 0 0 0 0 0 0 0 0 0 0 0 0 0.4 0"/>
<feBlend mode="normal" in2="BackgroundImageFix" result="effect1_dropShadow_2654_28251"/>
<feBlend mode="normal" in="SourceGraphic" in2="effect1_dropShadow_2654_28251" result="shape"/>
</filter>
<filter id="filter7_d_2654_28251" x="20" y="20" width="441" height="278" filterUnits="userSpaceOnUse" color-interpolation-filters="sRGB">
<feFlood flood-opacity="0" result="BackgroundImageFix"/>
<feColorMatrix in="SourceAlpha" type="matrix" values="0 0 0 0 0 0 0 0 0 0 0 0 0 0 0 0 0 0 127 0" result="hardAlpha"/>
<feOffset dy="-30"/>
<feGaussianBlur stdDeviation="22.5"/>
<feComposite in2="hardAlpha" operator="out"/>
<feColorMatrix type="matrix" values="0 0 0 0 0 0 0 0 0 0 0 0 0 0 0 0 0 0 0.5 0"/>
<feBlend mode="normal" in2="BackgroundImageFix" result="effect1_dropShadow_2654_28251"/>
<feBlend mode="normal" in="SourceGraphic" in2="effect1_dropShadow_2654_28251" result="shape"/>
</filter>
<filter id="filter8_d_2654_28251" x="25" y="55" width="431" height="268" filterUnits="userSpaceOnUse" color-interpolation-filters="sRGB">
<feFlood flood-opacity="0" result="BackgroundImageFix"/>
<feColorMatrix in="SourceAlpha" type="matrix" values="0 0 0 0 0 0 0 0 0 0 0 0 0 0 0 0 0 0 127 0" result="hardAlpha"/>
<feOffset dx="20" dy="20"/>
<feGaussianBlur stdDeviation="20"/>
<feComposite in2="hardAlpha" operator="out"/>
<feColorMatrix type="matrix" values="0 0 0 0 0 0 0 0 0 0 0 0 0 0 0 0 0 0 0.4 0"/>
<feBlend mode="normal" in2="BackgroundImageFix" result="effect1_dropShadow_2654_28251"/>
<feBlend mode="normal" in="SourceGraphic" in2="effect1_dropShadow_2654_28251" result="shape"/>
</filter>
<filter id="filter9_d_2654_28251" x="0" y="0" width="441" height="278" filterUnits="userSpaceOnUse" color-interpolation-filters="sRGB">
<feFlood flood-opacity="0" result="BackgroundImageFix"/>
<feColorMatrix in="SourceAlpha" type="matrix" values="0 0 0 0 0 0 0 0 0 0 0 0 0 0 0 0 0 0 127 0" result="hardAlpha"/>
<feOffset dy="-30"/>
<feGaussianBlur stdDeviation="22.5"/>
<feComposite in2="hardAlpha" operator="out"/>
<feColorMatrix type="matrix" values="0 0 0 0 0 0 0 0 0 0 0 0 0 0 0 0 0 0 0.5 0"/>
<feBlend mode="normal" in2="BackgroundImageFix" result="effect1_dropShadow_2654_28251"/>
<feBlend mode="normal" in="SourceGraphic" in2="effect1_dropShadow_2654_28251" result="shape"/>
</filter>
<filter id="filter10_d_2654_28251" x="55" y="98" width="68" height="155" filterUnits="userSpaceOnUse" color-interpolation-filters="sRGB">
<feFlood flood-opacity="0" result="BackgroundImageFix"/>
<feColorMatrix in="SourceAlpha" type="matrix" values="0 0 0 0 0 0 0 0 0 0 0 0 0 0 0 0 0 0 127 0" result="hardAlpha"/>
<feOffset dx="5" dy="-5"/>
<feGaussianBlur stdDeviation="10"/>
<feComposite in2="hardAlpha" operator="out"/>
<feColorMatrix type="matrix" values="0 0 0 0 0 0 0 0 0 0 0 0 0 0 0 0 0 0 0.5 0"/>
<feBlend mode="normal" in2="BackgroundImageFix" result="effect1_dropShadow_2654_28251"/>
<feBlend mode="normal" in="SourceGraphic" in2="effect1_dropShadow_2654_28251" result="shape"/>
</filter>
<filter id="filter11_d_2654_28251" x="93" y="116" width="68" height="137" filterUnits="userSpaceOnUse" color-interpolation-filters="sRGB">
<feFlood flood-opacity="0" result="BackgroundImageFix"/>
<feColorMatrix in="SourceAlpha" type="matrix" values="0 0 0 0 0 0 0 0 0 0 0 0 0 0 0 0 0 0 127 0" result="hardAlpha"/>
<feOffset dx="5" dy="-5"/>
<feGaussianBlur stdDeviation="10"/>
<feComposite in2="hardAlpha" operator="out"/>
<feColorMatrix type="matrix" values="0 0 0 0 0 0 0 0 0 0 0 0 0 0 0 0 0 0 0.5 0"/>
<feBlend mode="normal" in2="BackgroundImageFix" result="effect1_dropShadow_2654_28251"/>
<feBlend mode="normal" in="SourceGraphic" in2="effect1_dropShadow_2654_28251" result="shape"/>
</filter>
<filter id="filter12_d_2654_28251" x="131" y="109" width="68" height="144" filterUnits="userSpaceOnUse" color-interpolation-filters="sRGB">
<feFlood flood-opacity="0" result="BackgroundImageFix"/>
<feColorMatrix in="SourceAlpha" type="matrix" values="0 0 0 0 0 0 0 0 0 0 0 0 0 0 0 0 0 0 127 0" result="hardAlpha"/>
<feOffset dx="5" dy="-5"/>
<feGaussianBlur stdDeviation="10"/>
<feComposite in2="hardAlpha" operator="out"/>
<feColorMatrix type="matrix" values="0 0 0 0 0 0 0 0 0 0 0 0 0 0 0 0 0 0 0.5 0"/>
<feBlend mode="normal" in2="BackgroundImageFix" result="effect1_dropShadow_2654_28251"/>
<feBlend mode="normal" in="SourceGraphic" in2="effect1_dropShadow_2654_28251" result="shape"/>
</filter>
<filter id="filter13_d_2654_28251" x="169" y="98" width="68" height="155" filterUnits="userSpaceOnUse" color-interpolation-filters="sRGB">
<feFlood flood-opacity="0" result="BackgroundImageFix"/>
<feColorMatrix in="SourceAlpha" type="matrix" values="0 0 0 0 0 0 0 0 0 0 0 0 0 0 0 0 0 0 127 0" result="hardAlpha"/>
<feOffset dx="5" dy="-5"/>
<feGaussianBlur stdDeviation="10"/>
<feComposite in2="hardAlpha" operator="out"/>
<feColorMatrix type="matrix" values="0 0 0 0 0 0 0 0 0 0 0 0 0 0 0 0 0 0 0.5 0"/>
<feBlend mode="normal" in2="BackgroundImageFix" result="effect1_dropShadow_2654_28251"/>
<feBlend mode="normal" in="SourceGraphic" in2="effect1_dropShadow_2654_28251" result="shape"/>
</filter>
<filter id="filter14_d_2654_28251" x="207" y="109" width="68" height="144" filterUnits="userSpaceOnUse" color-interpolation-filters="sRGB">
<feFlood flood-opacity="0" result="BackgroundImageFix"/>
<feColorMatrix in="SourceAlpha" type="matrix" values="0 0 0 0 0 0 0 0 0 0 0 0 0 0 0 0 0 0 127 0" result="hardAlpha"/>
<feOffset dx="5" dy="-5"/>
<feGaussianBlur stdDeviation="10"/>
<feComposite in2="hardAlpha" operator="out"/>
<feColorMatrix type="matrix" values="0 0 0 0 0 0 0 0 0 0 0 0 0 0 0 0 0 0 0.5 0"/>
<feBlend mode="normal" in2="BackgroundImageFix" result="effect1_dropShadow_2654_28251"/>
<feBlend mode="normal" in="SourceGraphic" in2="effect1_dropShadow_2654_28251" result="shape"/>
</filter>
<filter id="filter15_d_2654_28251" x="245" y="127" width="68" height="126" filterUnits="userSpaceOnUse" color-interpolation-filters="sRGB">
<feFlood flood-opacity="0" result="BackgroundImageFix"/>
<feColorMatrix in="SourceAlpha" type="matrix" values="0 0 0 0 0 0 0 0 0 0 0 0 0 0 0 0 0 0 127 0" result="hardAlpha"/>
<feOffset dx="5" dy="-5"/>
<feGaussianBlur stdDeviation="10"/>
<feComposite in2="hardAlpha" operator="out"/>
<feColorMatrix type="matrix" values="0 0 0 0 0 0 0 0 0 0 0 0 0 0 0 0 0 0 0.5 0"/>
<feBlend mode="normal" in2="BackgroundImageFix" result="effect1_dropShadow_2654_28251"/>
<feBlend mode="normal" in="SourceGraphic" in2="effect1_dropShadow_2654_28251" result="shape"/>
</filter>
<filter id="filter16_d_2654_28251" x="283" y="98" width="68" height="155" filterUnits="userSpaceOnUse" color-interpolation-filters="sRGB">
<feFlood flood-opacity="0" result="BackgroundImageFix"/>
<feColorMatrix in="SourceAlpha" type="matrix" values="0 0 0 0 0 0 0 0 0 0 0 0 0 0 0 0 0 0 127 0" result="hardAlpha"/>
<feOffset dx="5" dy="-5"/>
<feGaussianBlur stdDeviation="10"/>
<feComposite in2="hardAlpha" operator="out"/>
<feColorMatrix type="matrix" values="0 0 0 0 0 0 0 0 0 0 0 0 0 0 0 0 0 0 0.5 0"/>
<feBlend mode="normal" in2="BackgroundImageFix" result="effect1_dropShadow_2654_28251"/>
<feBlend mode="normal" in="SourceGraphic" in2="effect1_dropShadow_2654_28251" result="shape"/>
</filter>
<filter id="filter17_d_2654_28251" x="321" y="116" width="68" height="137" filterUnits="userSpaceOnUse" color-interpolation-filters="sRGB">
<feFlood flood-opacity="0" result="BackgroundImageFix"/>
<feColorMatrix in="SourceAlpha" type="matrix" values="0 0 0 0 0 0 0 0 0 0 0 0 0 0 0 0 0 0 127 0" result="hardAlpha"/>
<feOffset dx="5" dy="-5"/>
<feGaussianBlur stdDeviation="10"/>
<feComposite in2="hardAlpha" operator="out"/>
<feColorMatrix type="matrix" values="0 0 0 0 0 0 0 0 0 0 0 0 0 0 0 0 0 0 0.5 0"/>
<feBlend mode="normal" in2="BackgroundImageFix" result="effect1_dropShadow_2654_28251"/>
<feBlend mode="normal" in="SourceGraphic" in2="effect1_dropShadow_2654_28251" result="shape"/>
</filter>
<linearGradient id="paint0_linear_2654_28251" x1="280.5" y1="135" x2="280.5" y2="323" gradientUnits="userSpaceOnUse">
<stop stop-color="#86888E"/>
<stop offset="1" stop-color="#86888E" stop-opacity="0.7"/>
</linearGradient>
<linearGradient id="paint1_linear_2654_28251" x1="105.997" y1="156.496" x2="455.003" y2="156.496" gradientUnits="userSpaceOnUse">
<stop stop-color="#86888E"/>
<stop offset="1" stop-color="#86888E" stop-opacity="0.7"/>
</linearGradient>
<linearGradient id="paint2_linear_2654_28251" x1="119" y1="143.701" x2="119" y2="149.911" gradientUnits="userSpaceOnUse">
<stop stop-color="#F05A28"/>
<stop offset="1" stop-color="#FBCA0A"/>
</linearGradient>
<linearGradient id="paint3_linear_2654_28251" x1="376.801" y1="194.801" x2="293.199" y2="280.887" gradientUnits="userSpaceOnUse">
<stop stop-color="#A65DA0"/>
<stop offset="1" stop-color="#DA92D4"/>
</linearGradient>
<linearGradient id="paint4_linear_2654_28251" x1="260.5" y1="115" x2="260.5" y2="303" gradientUnits="userSpaceOnUse">
<stop stop-color="#86888E"/>
<stop offset="1" stop-color="#86888E" stop-opacity="0.7"/>
</linearGradient>
<linearGradient id="paint5_linear_2654_28251" x1="85.9971" y1="136.496" x2="435.003" y2="136.496" gradientUnits="userSpaceOnUse">
<stop stop-color="#86888E"/>
<stop offset="1" stop-color="#86888E" stop-opacity="0.7"/>
</linearGradient>
<linearGradient id="paint6_linear_2654_28251" x1="98.9996" y1="123.701" x2="98.9996" y2="129.911" gradientUnits="userSpaceOnUse">
<stop stop-color="#F05A28"/>
<stop offset="1" stop-color="#FBCA0A"/>
</linearGradient>
<linearGradient id="paint7_linear_2654_28251" x1="356.801" y1="174.801" x2="273.199" y2="260.887" gradientUnits="userSpaceOnUse">
<stop stop-color="#A65DA0"/>
<stop offset="1" stop-color="#DA92D4"/>
</linearGradient>
<linearGradient id="paint8_linear_2654_28251" x1="240.5" y1="95" x2="240.5" y2="283" gradientUnits="userSpaceOnUse">
<stop stop-color="#86888E"/>
<stop offset="1" stop-color="#86888E" stop-opacity="0.7"/>
</linearGradient>
<linearGradient id="paint9_linear_2654_28251" x1="65.9971" y1="116.496" x2="415.003" y2="116.496" gradientUnits="userSpaceOnUse">
<stop stop-color="#86888E"/>
<stop offset="1" stop-color="#86888E" stop-opacity="0.7"/>
</linearGradient>
<linearGradient id="paint10_linear_2654_28251" x1="78.9996" y1="103.701" x2="78.9996" y2="109.911" gradientUnits="userSpaceOnUse">
<stop stop-color="#F05A28"/>
<stop offset="1" stop-color="#FBCA0A"/>
</linearGradient>
<linearGradient id="paint11_linear_2654_28251" x1="220.5" y1="75" x2="220.5" y2="263" gradientUnits="userSpaceOnUse">
<stop stop-color="#86888E"/>
<stop offset="1" stop-color="#86888E" stop-opacity="0.7"/>
</linearGradient>
<linearGradient id="paint12_linear_2654_28251" x1="45.9971" y1="96.4961" x2="395.003" y2="96.4961" gradientUnits="userSpaceOnUse">
<stop stop-color="#86888E"/>
<stop offset="1" stop-color="#86888E" stop-opacity="0.7"/>
</linearGradient>
<clipPath id="clip0_2654_28251">
<rect width="8" height="9" fill="white" transform="translate(115 141)"/>
</clipPath>
<clipPath id="clip1_2654_28251">
<rect width="8" height="9" fill="white" transform="translate(95 121)"/>
</clipPath>
<clipPath id="clip2_2654_28251">
<rect width="8" height="9" fill="white" transform="translate(75 101)"/>
</clipPath>
<clipPath id="clip3_2654_28251">
<rect width="8" height="9" fill="white" transform="translate(55 81)"/>
</clipPath>
</defs>
</svg>
