<svg width="411" height="248" viewBox="0 0 411 248" fill="none" xmlns="http://www.w3.org/2000/svg">
<rect x="60.5" y="60.5" width="350" height="187" rx="9.5" fill="#111214" stroke="url(#paint0_linear_2658_38654)"/>
<line x1="60.9971" y1="80.4961" x2="410.003" y2="80.4961" stroke="url(#paint1_linear_2658_38654)"/>
<g clip-path="url(#clip0_2658_38654)">
<path d="M77.7945 69.9755C77.7808 69.8251 77.758 69.6525 77.7124 69.4602C77.6669 69.2703 77.5985 69.0607 77.4982 68.8437C77.3979 68.6268 77.268 68.4024 77.0993 68.1829C77.0332 68.0966 76.9603 68.0128 76.8828 67.9314C76.9991 67.4309 76.7415 66.9969 76.7415 66.9969C76.2971 66.9673 76.0144 67.1473 75.9096 67.2287C75.8914 67.2213 75.8754 67.2114 75.8572 67.204C75.782 67.172 75.7045 67.1399 75.6224 67.1128C75.5426 67.0857 75.4606 67.061 75.3763 67.0388C75.2919 67.0166 75.2076 66.9994 75.121 66.9846C75.105 66.9821 75.0914 66.9796 75.0754 66.9772C74.8817 66.3065 74.3256 66.0254 74.3256 66.0254C73.7033 66.452 73.5871 67.0487 73.5871 67.0487C73.5871 67.0487 73.5848 67.061 73.5803 67.0832C73.5461 67.0931 73.5119 67.1054 73.4777 67.1153C73.4298 67.13 73.382 67.1498 73.3364 67.1695C73.2885 67.1892 73.2429 67.209 73.1951 67.2311C73.1016 67.2755 73.0082 67.3248 72.917 67.3791C72.8281 67.4333 72.7415 67.4925 72.6572 67.5542C72.6458 67.5492 72.6344 67.5443 72.6344 67.5443C71.7728 67.1892 71.0093 67.6158 71.0093 67.6158C70.9387 68.607 71.3535 69.2309 71.4355 69.3443C71.415 69.4059 71.3968 69.4676 71.3785 69.5292C71.3147 69.7536 71.2669 69.9829 71.2372 70.2221C71.2327 70.2566 71.2281 70.2911 71.2258 70.3257C70.4281 70.7522 70.1934 71.6227 70.1934 71.6227C70.8566 72.4487 71.6315 72.5005 71.6315 72.5005L71.6338 72.498C71.7318 72.6879 71.8458 72.8679 71.9734 73.038C72.0281 73.1095 72.0828 73.1761 72.1421 73.2427C71.9005 73.9922 72.1763 74.6136 72.1763 74.6136C72.9147 74.6432 73.4002 74.2635 73.5028 74.1772C73.5757 74.2043 73.6509 74.229 73.7261 74.2487C73.954 74.3128 74.1865 74.3498 74.419 74.3596C74.476 74.3621 74.5352 74.3646 74.5922 74.3621H74.6196H74.6378H74.6743L74.7107 74.3596V74.3621C75.0595 74.8996 75.6703 74.9761 75.6703 74.9761C76.1056 74.4805 76.1307 73.9873 76.1307 73.8813C76.1307 73.8813 76.1307 73.8788 76.1307 73.8739C76.1307 73.864 76.1307 73.8591 76.1307 73.8591C76.1307 73.8517 76.1307 73.8443 76.1307 73.8369C76.2218 73.7679 76.3085 73.6939 76.3905 73.6125C76.5637 73.4424 76.7164 73.2476 76.8441 73.038C76.8555 73.0183 76.8669 72.9985 76.8783 72.9788C77.3706 73.0084 77.7193 72.6484 77.7193 72.6484C77.6372 72.0936 77.3455 71.8224 77.284 71.7706C77.284 71.7706 77.2817 71.7681 77.2771 71.7657C77.2726 71.7632 77.2726 71.7607 77.2726 71.7607C77.2703 71.7583 77.2657 71.7558 77.2612 71.7533C77.2634 71.7188 77.2657 71.6868 77.268 71.6522C77.2726 71.5931 77.2726 71.5314 77.2726 71.4722V71.4279V71.4057V71.3933C77.2726 71.3785 77.2726 71.3835 77.2726 71.3785L77.2703 71.3416L77.268 71.2922C77.268 71.275 77.2657 71.2602 77.2634 71.2454C77.2612 71.2306 77.2612 71.2133 77.2589 71.1985L77.2543 71.1517L77.2475 71.1048C77.2384 71.0432 77.2293 70.984 77.2156 70.9224C77.1632 70.6832 77.0766 70.4563 76.9649 70.2517C76.8509 70.047 76.7096 69.867 76.5478 69.7142C76.3882 69.5613 76.2082 69.438 76.0213 69.3468C75.8321 69.2555 75.6361 69.1963 75.4401 69.1692C75.3421 69.1544 75.2441 69.1495 75.1461 69.152H75.1096H75.1005C75.0982 69.152 75.0868 69.152 75.0891 69.152H75.0731L75.0367 69.1544C75.023 69.1544 75.0093 69.1569 74.9979 69.1569C74.9478 69.1618 74.8976 69.1692 74.8498 69.1791C74.6538 69.2185 74.4691 69.295 74.3073 69.401C74.1455 69.507 74.0042 69.6377 73.8902 69.7857C73.7763 69.9336 73.6874 70.0988 73.6258 70.269C73.5643 70.4391 73.5301 70.6166 73.521 70.7868C73.5187 70.8287 73.5187 70.8731 73.5187 70.915C73.5187 70.9248 73.5187 70.9372 73.5187 70.947L73.521 70.9816C73.5233 71.0013 73.5233 71.0235 73.5256 71.0432C73.5324 71.1295 73.5483 71.2133 73.5689 71.2922C73.6122 71.4525 73.6805 71.598 73.7649 71.7213C73.8492 71.8446 73.9518 71.9457 74.0589 72.027C74.166 72.1059 74.2822 72.1627 74.3962 72.1996C74.5102 72.2366 74.6241 72.2514 74.7313 72.2514C74.7449 72.2514 74.7586 72.2514 74.77 72.2514C74.7768 72.2514 74.7837 72.2514 74.7905 72.2514C74.7973 72.2514 74.8042 72.2514 74.811 72.249C74.8224 72.249 74.8338 72.2465 74.8452 72.2465C74.8475 72.2465 74.852 72.2465 74.8543 72.244L74.8657 72.2416C74.8726 72.2416 74.8794 72.2391 74.8862 72.2391C74.8999 72.2366 74.9113 72.2342 74.925 72.2317C74.9387 72.2292 74.9501 72.2268 74.9615 72.2218C74.9865 72.2169 75.0093 72.207 75.0321 72.1996C75.0777 72.1824 75.1233 72.1627 75.162 72.1405C75.203 72.1183 75.2395 72.0911 75.276 72.0665C75.2851 72.0591 75.2965 72.0517 75.3056 72.0418C75.3421 72.0098 75.3489 71.9506 75.3193 71.9111C75.2942 71.8766 75.2486 71.8668 75.2122 71.889C75.203 71.8939 75.1939 71.8988 75.1848 71.9037C75.1529 71.921 75.121 71.9358 75.0868 71.9481C75.0526 71.9605 75.0162 71.9703 74.9797 71.9777C74.9615 71.9802 74.9432 71.9827 74.9227 71.9851C74.9136 71.9851 74.9045 71.9876 74.8931 71.9876C74.884 71.9876 74.8726 71.9876 74.8657 71.9876C74.8566 71.9876 74.8475 71.9876 74.8384 71.9876C74.827 71.9876 74.8156 71.9876 74.8042 71.9851C74.8042 71.9851 74.7973 71.9851 74.8019 71.9851H74.7973H74.7905C74.786 71.9851 74.7791 71.9851 74.7746 71.9827C74.7632 71.9802 74.754 71.9802 74.7426 71.9777C74.6583 71.9654 74.574 71.9383 74.4942 71.8988C74.4122 71.8594 74.3347 71.8051 74.264 71.7361C74.1934 71.667 74.1318 71.5857 74.084 71.492C74.0361 71.3983 74.0019 71.2947 73.986 71.1862C73.9791 71.132 73.9746 71.0753 73.9768 71.021C73.9768 71.0062 73.9791 70.9914 73.9791 70.9766C73.9791 70.9816 73.9791 70.9742 73.9791 70.9742V70.9692V70.9569C73.9791 70.9495 73.9814 70.9421 73.9814 70.9347C73.9837 70.9051 73.9882 70.8755 73.9928 70.8459C74.0315 70.6092 74.1409 70.3774 74.3096 70.2024C74.3529 70.158 74.3985 70.1185 74.4464 70.0816C74.4942 70.0446 74.5466 70.0125 74.6013 69.9854C74.656 69.9583 74.7107 69.9361 74.77 69.9188C74.827 69.9016 74.8862 69.8917 74.9478 69.8843C74.9774 69.8818 75.007 69.8794 75.0389 69.8794C75.0481 69.8794 75.0526 69.8794 75.0595 69.8794H75.0845H75.1005C75.1073 69.8794 75.1005 69.8794 75.1028 69.8794H75.1096L75.1347 69.8818C75.2008 69.8868 75.2646 69.8966 75.3284 69.9139C75.456 69.9435 75.5814 69.9953 75.6976 70.0643C75.9301 70.2048 76.1284 70.4218 76.2492 70.6832C76.3107 70.8139 76.354 70.9544 76.3746 71.0999C76.3791 71.1369 76.3837 71.1739 76.386 71.2109L76.3882 71.238L76.3905 71.2651C76.3905 71.275 76.3905 71.2848 76.3905 71.2922C76.3905 71.3021 76.3905 71.312 76.3905 71.3194V71.344V71.3711C76.3905 71.3884 76.3882 71.418 76.3882 71.4353C76.386 71.4747 76.3814 71.5166 76.3768 71.5561C76.3723 71.5955 76.3654 71.635 76.3586 71.6744C76.3518 71.7139 76.3426 71.7533 76.3335 71.7903C76.3153 71.8668 76.2925 71.9432 76.2652 72.0196C76.2105 72.1676 76.1375 72.3106 76.0509 72.4413C75.8754 72.7027 75.6361 72.9147 75.3626 73.0503C75.2258 73.1169 75.0822 73.1662 74.9341 73.1909C74.8612 73.2057 74.786 73.2131 74.7107 73.2155H74.6971H74.6857H74.6606H74.6241H74.6059C74.615 73.2155 74.6036 73.2155 74.6036 73.2155H74.5968C74.5558 73.2155 74.517 73.2131 74.476 73.2081C74.3164 73.1958 74.1592 73.1637 74.0042 73.1169C73.8515 73.07 73.7033 73.0035 73.562 72.9246C73.2817 72.7618 73.0287 72.5399 72.8327 72.2711C72.7347 72.138 72.6481 71.9925 72.5774 71.8421C72.5067 71.6917 72.4498 71.5314 72.4087 71.3711C72.3677 71.2084 72.3426 71.0432 72.3313 70.8755L72.329 70.8435V70.8361V70.8287V70.8139V70.7868V70.7794V70.7695V70.7498V70.7103V70.7029C72.329 70.7029 72.329 70.7054 72.329 70.7005V70.6857C72.329 70.6659 72.329 70.6437 72.329 70.624C72.3313 70.5427 72.3381 70.4563 72.3472 70.3725C72.3563 70.2887 72.37 70.2024 72.386 70.1185C72.4019 70.0347 72.4201 69.9509 72.4429 69.867C72.4862 69.7018 72.5409 69.5416 72.6048 69.3911C72.7347 69.0903 72.9033 68.8216 73.1062 68.607C73.1563 68.5528 73.2087 68.5035 73.2634 68.4542C73.3181 68.4073 73.3751 68.3629 73.4344 68.321C73.4914 68.2791 73.5529 68.2421 73.6144 68.2076C73.6441 68.1903 73.676 68.1731 73.7079 68.1583C73.7238 68.1509 73.7398 68.1435 73.7558 68.1361C73.7717 68.1287 73.7877 68.1213 73.8036 68.1139C73.8674 68.0843 73.9335 68.0596 74.0019 68.0374C74.0179 68.0325 74.0361 68.0276 74.052 68.0202C74.068 68.0153 74.0862 68.0103 74.1022 68.0054C74.1364 67.9955 74.1706 67.9857 74.2048 67.9783C74.2207 67.9733 74.2389 67.9709 74.2572 67.9659C74.2754 67.961 74.2914 67.9585 74.3096 67.9536C74.3278 67.9511 74.3438 67.9462 74.362 67.9437L74.3871 67.9388L74.4144 67.9339C74.4327 67.9314 74.4486 67.929 74.4669 67.9265C74.4874 67.924 74.5056 67.9216 74.5261 67.9191C74.5421 67.9166 74.5694 67.9142 74.5854 67.9117C74.5968 67.9092 74.6105 67.9092 74.6218 67.9068L74.6469 67.9043L74.6583 67.9018H74.672C74.6925 67.8994 74.7107 67.8994 74.7313 67.8969L74.7609 67.8944C74.7609 67.8944 74.7723 67.8944 74.7632 67.8944H74.77H74.7837C74.7996 67.8944 74.8179 67.892 74.8338 67.892C74.8999 67.8895 74.9683 67.8895 75.0344 67.892C75.1666 67.8969 75.2965 67.9142 75.4218 67.9388C75.6748 67.9906 75.9119 68.0769 76.1284 68.1928C76.3449 68.3062 76.5364 68.4468 76.705 68.5996C76.7164 68.6095 76.7256 68.6194 76.7369 68.6292C76.7461 68.6391 76.7575 68.649 76.7666 68.6588C76.7871 68.6785 76.8053 68.6983 76.8258 68.718C76.8464 68.7377 76.8646 68.7574 76.8828 68.7772C76.9011 68.7969 76.9193 68.8166 76.9375 68.8388C77.0082 68.9202 77.0743 69.0016 77.1335 69.0854C77.252 69.2506 77.3478 69.4183 77.423 69.5761C77.4275 69.5859 77.4321 69.5958 77.4367 69.6057C77.4412 69.6155 77.4458 69.6254 77.4503 69.6353C77.4595 69.655 77.4686 69.6747 77.4754 69.6944C77.4845 69.7142 77.4914 69.7314 77.5005 69.7511C77.5073 69.7709 77.5164 69.7881 77.5233 69.8079C77.5506 69.8818 77.578 69.9533 77.5985 70.0199C77.6327 70.1284 77.6577 70.2246 77.6783 70.3084C77.6851 70.3429 77.7147 70.3651 77.7466 70.3602C77.7808 70.3577 77.8059 70.3281 77.8059 70.2911C77.8082 70.2024 77.8059 70.0963 77.7945 69.9755Z" fill="url(#paint2_linear_2658_38654)"/>
</g>
<rect x="70" y="91" width="331" height="147" rx="5" fill="#1D1F22"/>
<path d="M331.801 119.801C339.356 127.138 344.847 136.336 347.722 146.468L330.405 151.381C328.393 144.288 324.549 137.85 319.261 132.714L331.801 119.801Z" fill="url(#paint3_linear_2658_38654)"/>
<path d="M341.914 132.761C349.552 145.942 351.89 161.534 348.455 176.375C345.019 191.217 336.067 204.195 323.414 212.679C310.762 221.163 295.355 224.516 280.321 222.058C265.287 219.601 251.751 211.517 242.458 199.446C233.165 187.375 228.811 172.221 230.28 157.059C231.749 141.896 238.93 127.86 250.368 117.797C261.805 107.735 276.641 102.399 291.868 102.873C307.094 103.347 321.57 109.595 332.359 120.35L319.651 133.098C312.099 125.57 301.966 121.196 291.308 120.865C280.649 120.533 270.264 124.267 262.257 131.311C254.251 138.355 249.224 148.18 248.196 158.794C247.168 169.408 250.215 180.016 256.72 188.465C263.226 196.915 272.701 202.574 283.225 204.294C293.749 206.014 304.533 203.667 313.39 197.729C322.247 191.79 328.514 182.705 330.918 172.316C333.323 161.927 331.686 151.012 326.34 141.786L341.914 132.761Z" fill="#5D97A6"/>
<rect x="330" y="118.844" width="31" height="16" rx="5" fill="white" fill-opacity="0.05"/>
<path d="M338.9 130.988C338.3 130.988 337.792 130.876 337.376 130.652C336.968 130.428 336.64 130.124 336.392 129.74C336.144 129.356 335.96 128.928 335.84 128.456C335.728 127.976 335.672 127.484 335.672 126.98C335.672 126.052 335.8 125.24 336.056 124.544C336.312 123.84 336.68 123.292 337.16 122.9C337.648 122.5 338.232 122.3 338.912 122.3C339.44 122.3 339.892 122.404 340.268 122.612C340.652 122.812 340.952 123.084 341.168 123.428C341.392 123.764 341.528 124.14 341.576 124.556H340.64C340.56 124.116 340.368 123.776 340.064 123.536C339.76 123.296 339.372 123.176 338.9 123.176C338.476 123.176 338.096 123.308 337.76 123.572C337.432 123.836 337.168 124.232 336.968 124.76C336.776 125.288 336.664 125.964 336.632 126.788C336.632 126.804 336.632 126.82 336.632 126.836C336.632 126.852 336.632 126.868 336.632 126.884C336.752 126.628 336.924 126.396 337.148 126.188C337.38 125.972 337.656 125.8 337.976 125.672C338.296 125.536 338.648 125.468 339.032 125.468C339.512 125.468 339.956 125.58 340.364 125.804C340.78 126.028 341.112 126.344 341.36 126.752C341.616 127.152 341.744 127.624 341.744 128.168C341.744 128.64 341.628 129.092 341.396 129.524C341.172 129.956 340.848 130.308 340.424 130.58C340 130.852 339.492 130.988 338.9 130.988ZM338.828 130.1C339.196 130.1 339.52 130.02 339.8 129.86C340.088 129.7 340.312 129.48 340.472 129.2C340.64 128.912 340.724 128.584 340.724 128.216C340.724 127.84 340.64 127.512 340.472 127.232C340.312 126.952 340.088 126.736 339.8 126.584C339.52 126.424 339.196 126.344 338.828 126.344C338.468 126.344 338.14 126.428 337.844 126.596C337.556 126.764 337.324 126.992 337.148 127.28C336.98 127.56 336.896 127.876 336.896 128.228C336.896 128.596 336.98 128.92 337.148 129.2C337.324 129.48 337.556 129.7 337.844 129.86C338.14 130.02 338.468 130.1 338.828 130.1ZM348.027 130.844L352.911 122.444H353.919L349.035 130.844H348.027ZM353.403 130.988C353.043 130.988 352.719 130.908 352.431 130.748C352.143 130.58 351.911 130.344 351.735 130.04C351.567 129.736 351.483 129.38 351.483 128.972C351.483 128.556 351.567 128.2 351.735 127.904C351.911 127.6 352.143 127.368 352.431 127.208C352.719 127.04 353.043 126.956 353.403 126.956C353.771 126.956 354.095 127.04 354.375 127.208C354.663 127.368 354.891 127.6 355.059 127.904C355.227 128.2 355.311 128.556 355.311 128.972C355.311 129.38 355.227 129.736 355.059 130.04C354.891 130.344 354.663 130.58 354.375 130.748C354.087 130.908 353.763 130.988 353.403 130.988ZM353.391 130.208C353.583 130.208 353.759 130.164 353.919 130.076C354.079 129.98 354.207 129.84 354.303 129.656C354.407 129.472 354.459 129.244 354.459 128.972C354.459 128.692 354.411 128.46 354.315 128.276C354.219 128.092 354.091 127.956 353.931 127.868C353.771 127.772 353.595 127.724 353.403 127.724C353.219 127.724 353.043 127.772 352.875 127.868C352.715 127.956 352.583 128.092 352.479 128.276C352.383 128.46 352.335 128.692 352.335 128.972C352.335 129.244 352.383 129.472 352.479 129.656C352.583 129.84 352.715 129.98 352.875 130.076C353.035 130.164 353.207 130.208 353.391 130.208ZM348.639 126.344C348.279 126.344 347.955 126.264 347.667 126.104C347.379 125.936 347.147 125.7 346.971 125.396C346.803 125.092 346.719 124.736 346.719 124.328C346.719 123.912 346.803 123.556 346.971 123.26C347.147 122.956 347.379 122.724 347.667 122.564C347.963 122.396 348.291 122.312 348.651 122.312C349.011 122.312 349.335 122.396 349.623 122.564C349.911 122.724 350.139 122.956 350.307 123.26C350.475 123.556 350.559 123.912 350.559 124.328C350.559 124.736 350.475 125.092 350.307 125.396C350.139 125.7 349.907 125.936 349.611 126.104C349.323 126.264 348.999 126.344 348.639 126.344ZM348.639 125.564C348.831 125.564 349.007 125.52 349.167 125.432C349.327 125.336 349.455 125.196 349.551 125.012C349.647 124.828 349.695 124.6 349.695 124.328C349.695 124.048 349.647 123.816 349.551 123.632C349.455 123.44 349.327 123.3 349.167 123.212C349.007 123.116 348.835 123.068 348.651 123.068C348.467 123.068 348.291 123.116 348.123 123.212C347.955 123.3 347.819 123.44 347.715 123.632C347.619 123.816 347.571 124.048 347.571 124.328C347.571 124.6 347.619 124.828 347.715 125.012C347.819 125.196 347.951 125.336 348.111 125.432C348.279 125.52 348.455 125.564 348.639 125.564Z" fill="#ACADAE"/>
<rect x="204" y="154.844" width="39" height="16" rx="5" fill="white" fill-opacity="0.05"/>
<path d="M212.636 166.988C212.108 166.988 211.656 166.888 211.28 166.688C210.904 166.48 210.604 166.204 210.38 165.86C210.164 165.508 210.032 165.124 209.984 164.708H210.92C211 165.156 211.192 165.504 211.496 165.752C211.8 165.992 212.184 166.112 212.648 166.112C213.072 166.112 213.448 165.984 213.776 165.728C214.104 165.472 214.368 165.084 214.568 164.564C214.776 164.036 214.892 163.368 214.916 162.56C214.916 162.536 214.916 162.512 214.916 162.488C214.916 162.464 214.916 162.44 214.916 162.416C214.796 162.664 214.62 162.896 214.388 163.112C214.156 163.328 213.88 163.5 213.56 163.628C213.248 163.756 212.896 163.82 212.504 163.82C212.032 163.82 211.584 163.708 211.16 163.484C210.744 163.26 210.404 162.948 210.14 162.548C209.884 162.14 209.756 161.664 209.756 161.12C209.756 160.648 209.872 160.196 210.104 159.764C210.336 159.332 210.668 158.98 211.1 158.708C211.532 158.436 212.044 158.3 212.636 158.3C213.236 158.3 213.744 158.416 214.16 158.648C214.576 158.872 214.908 159.176 215.156 159.56C215.412 159.936 215.596 160.364 215.708 160.844C215.82 161.324 215.876 161.812 215.876 162.308C215.876 163.228 215.748 164.04 215.492 164.744C215.244 165.448 214.876 166 214.388 166.4C213.908 166.792 213.324 166.988 212.636 166.988ZM212.708 162.944C213.076 162.944 213.408 162.86 213.704 162.692C214 162.524 214.232 162.296 214.4 162.008C214.576 161.72 214.664 161.404 214.664 161.06C214.664 160.692 214.576 160.368 214.4 160.088C214.232 159.808 214 159.588 213.704 159.428C213.408 159.268 213.076 159.188 212.708 159.188C212.34 159.188 212.008 159.272 211.712 159.44C211.424 159.6 211.196 159.82 211.028 160.1C210.86 160.38 210.776 160.704 210.776 161.072C210.776 161.448 210.86 161.776 211.028 162.056C211.196 162.336 211.424 162.556 211.712 162.716C212.008 162.868 212.34 162.944 212.708 162.944ZM221.479 166.844V165.044H217.219V164.264L221.299 158.444H222.475V164.156H223.723V165.044H222.475V166.844H221.479ZM218.335 164.156H221.527V159.56L218.335 164.156ZM229.472 166.844L234.356 158.444H235.364L230.48 166.844H229.472ZM234.764 166.988C234.404 166.988 234.08 166.908 233.792 166.748C233.504 166.58 233.272 166.344 233.096 166.04C232.928 165.736 232.844 165.38 232.844 164.972C232.844 164.556 232.928 164.2 233.096 163.904C233.272 163.6 233.504 163.368 233.792 163.208C234.08 163.04 234.404 162.956 234.764 162.956C235.132 162.956 235.456 163.04 235.736 163.208C236.024 163.368 236.252 163.6 236.42 163.904C236.588 164.2 236.672 164.556 236.672 164.972C236.672 165.38 236.588 165.736 236.42 166.04C236.252 166.344 236.024 166.58 235.736 166.748C235.448 166.908 235.124 166.988 234.764 166.988ZM234.752 166.208C234.944 166.208 235.12 166.164 235.28 166.076C235.44 165.98 235.568 165.84 235.664 165.656C235.768 165.472 235.82 165.244 235.82 164.972C235.82 164.692 235.772 164.46 235.676 164.276C235.58 164.092 235.452 163.956 235.292 163.868C235.132 163.772 234.956 163.724 234.764 163.724C234.58 163.724 234.404 163.772 234.236 163.868C234.076 163.956 233.944 164.092 233.84 164.276C233.744 164.46 233.696 164.692 233.696 164.972C233.696 165.244 233.744 165.472 233.84 165.656C233.944 165.84 234.076 165.98 234.236 166.076C234.396 166.164 234.568 166.208 234.752 166.208ZM230.144 162.344C229.784 162.344 229.46 162.264 229.172 162.104C228.884 161.936 228.652 161.7 228.476 161.396C228.308 161.092 228.224 160.736 228.224 160.328C228.224 159.912 228.308 159.556 228.476 159.26C228.652 158.956 228.884 158.724 229.172 158.564C229.468 158.396 229.796 158.312 230.156 158.312C230.516 158.312 230.84 158.396 231.128 158.564C231.416 158.724 231.644 158.956 231.812 159.26C231.98 159.556 232.064 159.912 232.064 160.328C232.064 160.736 231.98 161.092 231.812 161.396C231.644 161.7 231.412 161.936 231.116 162.104C230.828 162.264 230.504 162.344 230.144 162.344ZM230.144 161.564C230.336 161.564 230.512 161.52 230.672 161.432C230.832 161.336 230.96 161.196 231.056 161.012C231.152 160.828 231.2 160.6 231.2 160.328C231.2 160.048 231.152 159.816 231.056 159.632C230.96 159.44 230.832 159.3 230.672 159.212C230.512 159.116 230.34 159.068 230.156 159.068C229.972 159.068 229.796 159.116 229.628 159.212C229.46 159.3 229.324 159.44 229.22 159.632C229.124 159.816 229.076 160.048 229.076 160.328C229.076 160.6 229.124 160.828 229.22 161.012C229.324 161.196 229.456 161.336 229.616 161.432C229.784 161.52 229.96 161.564 230.144 161.564Z" fill="#ACADAE"/>
<rect x="85" y="149" width="28" height="6" rx="2" fill="#5D97A6"/>
<path d="M124.01 155.12C123.497 155.12 123.05 155.027 122.67 154.84C122.29 154.653 121.997 154.393 121.79 154.06C121.583 153.727 121.48 153.34 121.48 152.9H122.36C122.36 153.173 122.423 153.427 122.55 153.66C122.677 153.887 122.86 154.07 123.1 154.21C123.347 154.343 123.65 154.41 124.01 154.41C124.323 154.41 124.59 154.36 124.81 154.26C125.037 154.153 125.207 154.01 125.32 153.83C125.44 153.65 125.5 153.447 125.5 153.22C125.5 152.967 125.443 152.757 125.33 152.59C125.223 152.417 125.073 152.277 124.88 152.17C124.687 152.057 124.463 151.957 124.21 151.87C123.957 151.783 123.683 151.693 123.39 151.6C122.803 151.413 122.377 151.18 122.11 150.9C121.85 150.613 121.72 150.247 121.72 149.8C121.72 149.42 121.807 149.087 121.98 148.8C122.16 148.513 122.413 148.29 122.74 148.13C123.073 147.963 123.467 147.88 123.92 147.88C124.367 147.88 124.753 147.963 125.08 148.13C125.413 148.297 125.673 148.527 125.86 148.82C126.047 149.107 126.14 149.44 126.14 149.82H125.26C125.26 149.627 125.21 149.437 125.11 149.25C125.01 149.063 124.857 148.91 124.65 148.79C124.45 148.663 124.197 148.6 123.89 148.6C123.637 148.593 123.41 148.637 123.21 148.73C123.017 148.817 122.863 148.943 122.75 149.11C122.643 149.277 122.59 149.48 122.59 149.72C122.59 149.947 122.637 150.13 122.73 150.27C122.83 150.41 122.97 150.53 123.15 150.63C123.337 150.723 123.553 150.81 123.8 150.89C124.047 150.97 124.32 151.06 124.62 151.16C124.96 151.273 125.26 151.413 125.52 151.58C125.787 151.74 125.993 151.947 126.14 152.2C126.293 152.453 126.37 152.777 126.37 153.17C126.37 153.503 126.28 153.82 126.1 154.12C125.927 154.413 125.667 154.653 125.32 154.84C124.973 155.027 124.537 155.12 124.01 155.12ZM129.659 155.12C129.273 155.12 128.936 155.047 128.649 154.9C128.363 154.753 128.139 154.53 127.979 154.23C127.819 153.923 127.739 153.543 127.739 153.09V149.74H128.579V153C128.579 153.467 128.693 153.817 128.919 154.05C129.153 154.283 129.463 154.4 129.849 154.4C130.116 154.4 130.356 154.34 130.569 154.22C130.783 154.093 130.953 153.91 131.079 153.67C131.213 153.43 131.279 153.137 131.279 152.79V149.74H132.119V155H131.359L131.309 154.16C131.169 154.467 130.953 154.703 130.659 154.87C130.373 155.037 130.039 155.12 129.659 155.12ZM136.011 155.12C135.531 155.12 135.104 155.007 134.731 154.78C134.358 154.547 134.064 154.223 133.851 153.81C133.638 153.397 133.531 152.917 133.531 152.37C133.531 151.817 133.638 151.337 133.851 150.93C134.064 150.517 134.358 150.197 134.731 149.97C135.104 149.737 135.531 149.62 136.011 149.62C136.611 149.62 137.111 149.78 137.511 150.1C137.918 150.42 138.178 150.85 138.291 151.39H137.431C137.358 151.057 137.188 150.8 136.921 150.62C136.661 150.433 136.354 150.34 136.001 150.34C135.694 150.34 135.418 150.417 135.171 150.57C134.931 150.723 134.741 150.95 134.601 151.25C134.461 151.55 134.391 151.923 134.391 152.37C134.391 152.703 134.431 153 134.511 153.26C134.591 153.513 134.701 153.727 134.841 153.9C134.988 154.067 135.158 154.193 135.351 154.28C135.551 154.367 135.768 154.41 136.001 154.41C136.241 154.41 136.458 154.37 136.651 154.29C136.851 154.203 137.018 154.08 137.151 153.92C137.291 153.76 137.384 153.57 137.431 153.35H138.291C138.184 153.877 137.924 154.303 137.511 154.63C137.104 154.957 136.604 155.12 136.011 155.12ZM141.982 155.12C141.502 155.12 141.076 155.007 140.702 154.78C140.329 154.547 140.036 154.223 139.822 153.81C139.609 153.397 139.502 152.917 139.502 152.37C139.502 151.817 139.609 151.337 139.822 150.93C140.036 150.517 140.329 150.197 140.702 149.97C141.076 149.737 141.502 149.62 141.982 149.62C142.582 149.62 143.082 149.78 143.482 150.1C143.889 150.42 144.149 150.85 144.262 151.39H143.402C143.329 151.057 143.159 150.8 142.892 150.62C142.632 150.433 142.326 150.34 141.972 150.34C141.666 150.34 141.389 150.417 141.142 150.57C140.902 150.723 140.712 150.95 140.572 151.25C140.432 151.55 140.362 151.923 140.362 152.37C140.362 152.703 140.402 153 140.482 153.26C140.562 153.513 140.672 153.727 140.812 153.9C140.959 154.067 141.129 154.193 141.322 154.28C141.522 154.367 141.739 154.41 141.972 154.41C142.212 154.41 142.429 154.37 142.622 154.29C142.822 154.203 142.989 154.08 143.122 153.92C143.262 153.76 143.356 153.57 143.402 153.35H144.262C144.156 153.877 143.896 154.303 143.482 154.63C143.076 154.957 142.576 155.12 141.982 155.12ZM147.864 155.12C147.397 155.12 146.984 155.007 146.624 154.78C146.264 154.553 145.98 154.233 145.774 153.82C145.574 153.407 145.474 152.923 145.474 152.37C145.474 151.817 145.574 151.333 145.774 150.92C145.98 150.507 146.264 150.187 146.624 149.96C146.99 149.733 147.41 149.62 147.884 149.62C148.39 149.62 148.814 149.733 149.154 149.96C149.494 150.187 149.75 150.49 149.924 150.87C150.097 151.25 150.184 151.667 150.184 152.12C150.184 152.187 150.184 152.253 150.184 152.32C150.184 152.387 150.18 152.467 150.174 152.56H146.104V151.91H149.364C149.35 151.397 149.2 151.007 148.914 150.74C148.634 150.467 148.284 150.33 147.864 150.33C147.584 150.33 147.324 150.4 147.084 150.54C146.85 150.673 146.66 150.873 146.514 151.14C146.367 151.407 146.294 151.74 146.294 152.14V152.42C146.294 152.86 146.367 153.23 146.514 153.53C146.66 153.823 146.85 154.043 147.084 154.19C147.324 154.337 147.584 154.41 147.864 154.41C148.237 154.41 148.53 154.34 148.744 154.2C148.957 154.053 149.114 153.847 149.214 153.58H150.044C149.964 153.873 149.824 154.137 149.624 154.37C149.43 154.603 149.184 154.787 148.884 154.92C148.59 155.053 148.25 155.12 147.864 155.12ZM153.448 155.12C152.975 155.12 152.581 155.05 152.268 154.91C151.961 154.763 151.728 154.563 151.568 154.31C151.408 154.05 151.311 153.75 151.278 153.41H152.138C152.165 153.59 152.225 153.757 152.318 153.91C152.418 154.057 152.561 154.177 152.748 154.27C152.935 154.363 153.171 154.41 153.458 154.41C153.685 154.41 153.878 154.377 154.038 154.31C154.198 154.237 154.318 154.137 154.398 154.01C154.485 153.883 154.528 153.737 154.528 153.57C154.528 153.35 154.478 153.18 154.378 153.06C154.285 152.933 154.145 152.84 153.958 152.78C153.778 152.713 153.551 152.663 153.278 152.63C152.985 152.59 152.725 152.533 152.498 152.46C152.271 152.387 152.078 152.29 151.918 152.17C151.765 152.05 151.648 151.9 151.568 151.72C151.488 151.54 151.448 151.327 151.448 151.08C151.448 150.793 151.525 150.54 151.678 150.32C151.831 150.1 152.048 149.93 152.328 149.81C152.615 149.683 152.951 149.62 153.338 149.62C153.905 149.62 154.351 149.75 154.678 150.01C155.011 150.27 155.208 150.64 155.268 151.12H154.438C154.405 150.873 154.291 150.68 154.098 150.54C153.905 150.4 153.648 150.33 153.328 150.33C152.988 150.33 152.731 150.393 152.558 150.52C152.385 150.647 152.298 150.813 152.298 151.02C152.298 151.173 152.335 151.313 152.408 151.44C152.488 151.56 152.621 151.663 152.808 151.75C152.995 151.83 153.245 151.89 153.558 151.93C153.951 151.977 154.285 152.053 154.558 152.16C154.831 152.26 155.038 152.417 155.178 152.63C155.325 152.843 155.395 153.133 155.388 153.5C155.388 153.847 155.305 154.14 155.138 154.38C154.978 154.62 154.751 154.803 154.458 154.93C154.171 155.057 153.835 155.12 153.448 155.12ZM157.166 155V149.18C157.166 148.86 157.219 148.6 157.326 148.4C157.432 148.193 157.589 148.043 157.796 147.95C158.009 147.85 158.269 147.8 158.576 147.8H159.346V148.52H158.716C158.462 148.52 158.279 148.573 158.166 148.68C158.059 148.78 158.006 148.957 158.006 149.21V155H157.166ZM156.346 150.45V149.74H159.406V150.45H156.346ZM162.539 155.12C162.152 155.12 161.816 155.047 161.529 154.9C161.242 154.753 161.019 154.53 160.859 154.23C160.699 153.923 160.619 153.543 160.619 153.09V149.74H161.459V153C161.459 153.467 161.572 153.817 161.799 154.05C162.032 154.283 162.342 154.4 162.729 154.4C162.996 154.4 163.236 154.34 163.449 154.22C163.662 154.093 163.832 153.91 163.959 153.67C164.092 153.43 164.159 153.137 164.159 152.79V149.74H164.999V155H164.239L164.189 154.16C164.049 154.467 163.832 154.703 163.539 154.87C163.252 155.037 162.919 155.12 162.539 155.12ZM166.621 155V147.8H167.461V155H166.621Z" fill="white"/>
<path d="M121.77 181V174H126.03V174.69H122.61V177.15H125.52V177.83H122.61V181H121.77ZM128.599 181.12C128.199 181.12 127.865 181.047 127.599 180.9C127.332 180.747 127.132 180.547 126.999 180.3C126.865 180.047 126.799 179.777 126.799 179.49C126.799 179.143 126.885 178.85 127.059 178.61C127.239 178.363 127.489 178.177 127.809 178.05C128.129 177.923 128.502 177.86 128.929 177.86H130.239C130.239 177.52 130.199 177.237 130.119 177.01C130.039 176.783 129.909 176.613 129.729 176.5C129.549 176.387 129.309 176.33 129.009 176.33C128.709 176.33 128.452 176.407 128.239 176.56C128.025 176.707 127.892 176.927 127.839 177.22H126.979C127.019 176.873 127.135 176.583 127.329 176.35C127.522 176.11 127.765 175.93 128.059 175.81C128.359 175.683 128.675 175.62 129.009 175.62C129.482 175.62 129.872 175.707 130.179 175.88C130.485 176.047 130.712 176.283 130.859 176.59C131.005 176.89 131.079 177.247 131.079 177.66V181H130.329L130.279 180.1C130.212 180.24 130.125 180.373 130.019 180.5C129.919 180.62 129.799 180.727 129.659 180.82C129.519 180.913 129.359 180.987 129.179 181.04C129.005 181.093 128.812 181.12 128.599 181.12ZM128.719 180.41C128.939 180.41 129.142 180.36 129.329 180.26C129.515 180.16 129.675 180.027 129.809 179.86C129.949 179.687 130.055 179.493 130.129 179.28C130.202 179.067 130.239 178.843 130.239 178.61V178.51H128.999C128.685 178.51 128.429 178.55 128.229 178.63C128.035 178.71 127.895 178.823 127.809 178.97C127.722 179.11 127.679 179.27 127.679 179.45C127.679 179.643 127.719 179.813 127.799 179.96C127.879 180.1 127.995 180.21 128.149 180.29C128.309 180.37 128.499 180.41 128.719 180.41ZM132.747 181V175.74H133.587V181H132.747ZM133.167 174.74C133 174.74 132.86 174.687 132.747 174.58C132.64 174.467 132.587 174.327 132.587 174.16C132.587 173.993 132.64 173.86 132.747 173.76C132.86 173.653 133 173.6 133.167 173.6C133.327 173.6 133.463 173.653 133.577 173.76C133.69 173.86 133.747 173.993 133.747 174.16C133.747 174.327 133.69 174.467 133.577 174.58C133.463 174.687 133.327 174.74 133.167 174.74ZM135.279 181V173.8H136.119V181H135.279ZM139.915 181.12C139.448 181.12 139.035 181.007 138.675 180.78C138.315 180.553 138.031 180.233 137.825 179.82C137.625 179.407 137.525 178.923 137.525 178.37C137.525 177.817 137.625 177.333 137.825 176.92C138.031 176.507 138.315 176.187 138.675 175.96C139.041 175.733 139.461 175.62 139.935 175.62C140.441 175.62 140.865 175.733 141.205 175.96C141.545 176.187 141.801 176.49 141.975 176.87C142.148 177.25 142.235 177.667 142.235 178.12C142.235 178.187 142.235 178.253 142.235 178.32C142.235 178.387 142.231 178.467 142.225 178.56H138.155V177.91H141.415C141.401 177.397 141.251 177.007 140.965 176.74C140.685 176.467 140.335 176.33 139.915 176.33C139.635 176.33 139.375 176.4 139.135 176.54C138.901 176.673 138.711 176.873 138.565 177.14C138.418 177.407 138.345 177.74 138.345 178.14V178.42C138.345 178.86 138.418 179.23 138.565 179.53C138.711 179.823 138.901 180.043 139.135 180.19C139.375 180.337 139.635 180.41 139.915 180.41C140.288 180.41 140.581 180.34 140.795 180.2C141.008 180.053 141.165 179.847 141.265 179.58H142.095C142.015 179.873 141.875 180.137 141.675 180.37C141.481 180.603 141.235 180.787 140.935 180.92C140.641 181.053 140.301 181.12 139.915 181.12ZM145.769 181.12C145.302 181.12 144.889 181 144.529 180.76C144.169 180.52 143.889 180.193 143.689 179.78C143.489 179.36 143.389 178.887 143.389 178.36C143.389 177.827 143.489 177.357 143.689 176.95C143.889 176.537 144.169 176.213 144.529 175.98C144.889 175.74 145.305 175.62 145.779 175.62C146.192 175.62 146.545 175.703 146.839 175.87C147.139 176.037 147.375 176.27 147.549 176.57V173.8H148.389V181H147.629L147.559 180.16C147.459 180.327 147.325 180.483 147.159 180.63C146.999 180.777 146.802 180.897 146.569 180.99C146.342 181.077 146.075 181.12 145.769 181.12ZM145.879 180.39C146.212 180.39 146.502 180.31 146.749 180.15C146.995 179.983 147.185 179.75 147.319 179.45C147.452 179.143 147.519 178.783 147.519 178.37C147.519 177.957 147.452 177.6 147.319 177.3C147.185 176.993 146.995 176.76 146.749 176.6C146.502 176.433 146.212 176.35 145.879 176.35C145.565 176.35 145.285 176.433 145.039 176.6C144.792 176.76 144.599 176.993 144.459 177.3C144.319 177.6 144.249 177.957 144.249 178.37C144.249 178.783 144.319 179.143 144.459 179.45C144.599 179.75 144.792 179.983 145.039 180.15C145.285 180.31 145.565 180.39 145.879 180.39Z" fill="white"/>
<rect x="85" y="175" width="28" height="6" rx="2" fill="#AB63A5"/>
<rect x="40.5" y="40.5" width="350" height="187" rx="9.5" fill="#111214" stroke="url(#paint4_linear_2658_38654)"/>
<line x1="40.9971" y1="60.4961" x2="390.003" y2="60.4961" stroke="url(#paint5_linear_2658_38654)"/>
<g clip-path="url(#clip1_2658_38654)">
<path d="M57.7945 49.9755C57.7808 49.8251 57.758 49.6525 57.7124 49.4602C57.6669 49.2703 57.5985 49.0607 57.4982 48.8437C57.3979 48.6268 57.268 48.4024 57.0993 48.1829C57.0332 48.0966 56.9603 48.0128 56.8828 47.9314C56.9991 47.4309 56.7415 46.9969 56.7415 46.9969C56.2971 46.9673 56.0144 47.1473 55.9096 47.2287C55.8914 47.2213 55.8754 47.2114 55.8572 47.204C55.782 47.172 55.7045 47.1399 55.6224 47.1128C55.5426 47.0857 55.4606 47.061 55.3763 47.0388C55.2919 47.0166 55.2076 46.9994 55.121 46.9846C55.105 46.9821 55.0914 46.9796 55.0754 46.9772C54.8817 46.3065 54.3256 46.0254 54.3256 46.0254C53.7033 46.452 53.5871 47.0487 53.5871 47.0487C53.5871 47.0487 53.5848 47.061 53.5803 47.0832C53.5461 47.0931 53.5119 47.1054 53.4777 47.1153C53.4298 47.13 53.382 47.1498 53.3364 47.1695C53.2885 47.1892 53.2429 47.209 53.1951 47.2311C53.1016 47.2755 53.0082 47.3248 52.917 47.3791C52.8281 47.4333 52.7415 47.4925 52.6572 47.5542C52.6458 47.5492 52.6344 47.5443 52.6344 47.5443C51.7728 47.1892 51.0093 47.6158 51.0093 47.6158C50.9387 48.607 51.3535 49.2309 51.4355 49.3443C51.415 49.4059 51.3968 49.4676 51.3785 49.5292C51.3147 49.7536 51.2669 49.9829 51.2372 50.2221C51.2327 50.2566 51.2281 50.2911 51.2258 50.3257C50.4281 50.7522 50.1934 51.6227 50.1934 51.6227C50.8566 52.4487 51.6315 52.5005 51.6315 52.5005L51.6338 52.498C51.7318 52.6879 51.8458 52.8679 51.9734 53.038C52.0281 53.1095 52.0828 53.1761 52.1421 53.2427C51.9005 53.9922 52.1763 54.6136 52.1763 54.6136C52.9147 54.6432 53.4002 54.2635 53.5028 54.1772C53.5757 54.2043 53.6509 54.229 53.7261 54.2487C53.954 54.3128 54.1865 54.3498 54.419 54.3596C54.476 54.3621 54.5352 54.3646 54.5922 54.3621H54.6196H54.6378H54.6743L54.7107 54.3596V54.3621C55.0595 54.8996 55.6703 54.9761 55.6703 54.9761C56.1056 54.4805 56.1307 53.9873 56.1307 53.8813C56.1307 53.8813 56.1307 53.8788 56.1307 53.8739C56.1307 53.864 56.1307 53.8591 56.1307 53.8591C56.1307 53.8517 56.1307 53.8443 56.1307 53.8369C56.2218 53.7679 56.3085 53.6939 56.3905 53.6125C56.5637 53.4424 56.7164 53.2476 56.8441 53.038C56.8555 53.0183 56.8669 52.9985 56.8783 52.9788C57.3706 53.0084 57.7193 52.6484 57.7193 52.6484C57.6372 52.0936 57.3455 51.8224 57.284 51.7706C57.284 51.7706 57.2817 51.7681 57.2771 51.7657C57.2726 51.7632 57.2726 51.7607 57.2726 51.7607C57.2703 51.7583 57.2657 51.7558 57.2612 51.7533C57.2634 51.7188 57.2657 51.6868 57.268 51.6522C57.2726 51.5931 57.2726 51.5314 57.2726 51.4722V51.4279V51.4057V51.3933C57.2726 51.3785 57.2726 51.3835 57.2726 51.3785L57.2703 51.3416L57.268 51.2922C57.268 51.275 57.2657 51.2602 57.2634 51.2454C57.2612 51.2306 57.2612 51.2133 57.2589 51.1985L57.2543 51.1517L57.2475 51.1048C57.2384 51.0432 57.2293 50.984 57.2156 50.9224C57.1632 50.6832 57.0766 50.4563 56.9649 50.2517C56.8509 50.047 56.7096 49.867 56.5478 49.7142C56.3882 49.5613 56.2082 49.438 56.0213 49.3468C55.8321 49.2555 55.6361 49.1963 55.4401 49.1692C55.3421 49.1544 55.2441 49.1495 55.1461 49.152H55.1096H55.1005C55.0982 49.152 55.0868 49.152 55.0891 49.152H55.0731L55.0367 49.1544C55.023 49.1544 55.0093 49.1569 54.9979 49.1569C54.9478 49.1618 54.8976 49.1692 54.8498 49.1791C54.6538 49.2185 54.4691 49.295 54.3073 49.401C54.1455 49.507 54.0042 49.6377 53.8902 49.7857C53.7763 49.9336 53.6874 50.0988 53.6258 50.269C53.5643 50.4391 53.5301 50.6166 53.521 50.7868C53.5187 50.8287 53.5187 50.8731 53.5187 50.915C53.5187 50.9248 53.5187 50.9372 53.5187 50.947L53.521 50.9816C53.5233 51.0013 53.5233 51.0235 53.5256 51.0432C53.5324 51.1295 53.5483 51.2133 53.5689 51.2922C53.6122 51.4525 53.6805 51.598 53.7649 51.7213C53.8492 51.8446 53.9518 51.9457 54.0589 52.027C54.166 52.1059 54.2822 52.1627 54.3962 52.1996C54.5102 52.2366 54.6241 52.2514 54.7313 52.2514C54.7449 52.2514 54.7586 52.2514 54.77 52.2514C54.7768 52.2514 54.7837 52.2514 54.7905 52.2514C54.7973 52.2514 54.8042 52.2514 54.811 52.249C54.8224 52.249 54.8338 52.2465 54.8452 52.2465C54.8475 52.2465 54.852 52.2465 54.8543 52.244L54.8657 52.2416C54.8726 52.2416 54.8794 52.2391 54.8862 52.2391C54.8999 52.2366 54.9113 52.2342 54.925 52.2317C54.9387 52.2292 54.9501 52.2268 54.9615 52.2218C54.9865 52.2169 55.0093 52.207 55.0321 52.1996C55.0777 52.1824 55.1233 52.1627 55.162 52.1405C55.203 52.1183 55.2395 52.0911 55.276 52.0665C55.2851 52.0591 55.2965 52.0517 55.3056 52.0418C55.3421 52.0098 55.3489 51.9506 55.3193 51.9111C55.2942 51.8766 55.2486 51.8668 55.2122 51.889C55.203 51.8939 55.1939 51.8988 55.1848 51.9037C55.1529 51.921 55.121 51.9358 55.0868 51.9481C55.0526 51.9605 55.0162 51.9703 54.9797 51.9777C54.9615 51.9802 54.9432 51.9827 54.9227 51.9851C54.9136 51.9851 54.9045 51.9876 54.8931 51.9876C54.884 51.9876 54.8726 51.9876 54.8657 51.9876C54.8566 51.9876 54.8475 51.9876 54.8384 51.9876C54.827 51.9876 54.8156 51.9876 54.8042 51.9851C54.8042 51.9851 54.7973 51.9851 54.8019 51.9851H54.7973H54.7905C54.786 51.9851 54.7791 51.9851 54.7746 51.9827C54.7632 51.9802 54.754 51.9802 54.7426 51.9777C54.6583 51.9654 54.574 51.9383 54.4942 51.8988C54.4122 51.8594 54.3347 51.8051 54.264 51.7361C54.1934 51.667 54.1318 51.5857 54.084 51.492C54.0361 51.3983 54.0019 51.2947 53.986 51.1862C53.9791 51.132 53.9746 51.0753 53.9768 51.021C53.9768 51.0062 53.9791 50.9914 53.9791 50.9766C53.9791 50.9816 53.9791 50.9742 53.9791 50.9742V50.9692V50.9569C53.9791 50.9495 53.9814 50.9421 53.9814 50.9347C53.9837 50.9051 53.9882 50.8755 53.9928 50.8459C54.0315 50.6092 54.1409 50.3774 54.3096 50.2024C54.3529 50.158 54.3985 50.1185 54.4464 50.0816C54.4942 50.0446 54.5466 50.0125 54.6013 49.9854C54.656 49.9583 54.7107 49.9361 54.77 49.9188C54.827 49.9016 54.8862 49.8917 54.9478 49.8843C54.9774 49.8818 55.007 49.8794 55.0389 49.8794C55.0481 49.8794 55.0526 49.8794 55.0595 49.8794H55.0845H55.1005C55.1073 49.8794 55.1005 49.8794 55.1028 49.8794H55.1096L55.1347 49.8818C55.2008 49.8868 55.2646 49.8966 55.3284 49.9139C55.456 49.9435 55.5814 49.9953 55.6976 50.0643C55.9301 50.2048 56.1284 50.4218 56.2492 50.6832C56.3107 50.8139 56.354 50.9544 56.3746 51.0999C56.3791 51.1369 56.3837 51.1739 56.386 51.2109L56.3882 51.238L56.3905 51.2651C56.3905 51.275 56.3905 51.2848 56.3905 51.2922C56.3905 51.3021 56.3905 51.312 56.3905 51.3194V51.344V51.3711C56.3905 51.3884 56.3882 51.418 56.3882 51.4353C56.386 51.4747 56.3814 51.5166 56.3768 51.5561C56.3723 51.5955 56.3654 51.635 56.3586 51.6744C56.3518 51.7139 56.3426 51.7533 56.3335 51.7903C56.3153 51.8668 56.2925 51.9432 56.2652 52.0196C56.2105 52.1676 56.1375 52.3106 56.0509 52.4413C55.8754 52.7027 55.6361 52.9147 55.3626 53.0503C55.2258 53.1169 55.0822 53.1662 54.9341 53.1909C54.8612 53.2057 54.786 53.2131 54.7107 53.2155H54.6971H54.6857H54.6606H54.6241H54.6059C54.615 53.2155 54.6036 53.2155 54.6036 53.2155H54.5968C54.5558 53.2155 54.517 53.2131 54.476 53.2081C54.3164 53.1958 54.1592 53.1637 54.0042 53.1169C53.8515 53.07 53.7033 53.0035 53.562 52.9246C53.2817 52.7618 53.0287 52.5399 52.8327 52.2711C52.7347 52.138 52.6481 51.9925 52.5774 51.8421C52.5067 51.6917 52.4498 51.5314 52.4087 51.3711C52.3677 51.2084 52.3426 51.0432 52.3313 50.8755L52.329 50.8435V50.8361V50.8287V50.8139V50.7868V50.7794V50.7695V50.7498V50.7103V50.7029C52.329 50.7029 52.329 50.7054 52.329 50.7005V50.6857C52.329 50.6659 52.329 50.6437 52.329 50.624C52.3313 50.5427 52.3381 50.4563 52.3472 50.3725C52.3563 50.2887 52.37 50.2024 52.386 50.1185C52.4019 50.0347 52.4201 49.9509 52.4429 49.867C52.4862 49.7018 52.5409 49.5416 52.6048 49.3911C52.7347 49.0903 52.9033 48.8216 53.1062 48.607C53.1563 48.5528 53.2087 48.5035 53.2634 48.4542C53.3181 48.4073 53.3751 48.3629 53.4344 48.321C53.4914 48.2791 53.5529 48.2421 53.6144 48.2076C53.6441 48.1903 53.676 48.1731 53.7079 48.1583C53.7238 48.1509 53.7398 48.1435 53.7558 48.1361C53.7717 48.1287 53.7877 48.1213 53.8036 48.1139C53.8674 48.0843 53.9335 48.0596 54.0019 48.0374C54.0179 48.0325 54.0361 48.0276 54.052 48.0202C54.068 48.0153 54.0862 48.0103 54.1022 48.0054C54.1364 47.9955 54.1706 47.9857 54.2048 47.9783C54.2207 47.9733 54.2389 47.9709 54.2572 47.9659C54.2754 47.961 54.2914 47.9585 54.3096 47.9536C54.3278 47.9511 54.3438 47.9462 54.362 47.9437L54.3871 47.9388L54.4144 47.9339C54.4327 47.9314 54.4486 47.929 54.4669 47.9265C54.4874 47.924 54.5056 47.9216 54.5261 47.9191C54.5421 47.9166 54.5694 47.9142 54.5854 47.9117C54.5968 47.9092 54.6105 47.9092 54.6218 47.9068L54.6469 47.9043L54.6583 47.9018H54.672C54.6925 47.8994 54.7107 47.8994 54.7313 47.8969L54.7609 47.8944C54.7609 47.8944 54.7723 47.8944 54.7632 47.8944H54.77H54.7837C54.7996 47.8944 54.8179 47.892 54.8338 47.892C54.8999 47.8895 54.9683 47.8895 55.0344 47.892C55.1666 47.8969 55.2965 47.9142 55.4218 47.9388C55.6748 47.9906 55.9119 48.0769 56.1284 48.1928C56.3449 48.3062 56.5364 48.4468 56.705 48.5996C56.7164 48.6095 56.7256 48.6194 56.7369 48.6292C56.7461 48.6391 56.7575 48.649 56.7666 48.6588C56.7871 48.6785 56.8053 48.6983 56.8258 48.718C56.8464 48.7377 56.8646 48.7574 56.8828 48.7772C56.9011 48.7969 56.9193 48.8166 56.9375 48.8388C57.0082 48.9202 57.0743 49.0016 57.1335 49.0854C57.252 49.2506 57.3478 49.4183 57.423 49.5761C57.4275 49.5859 57.4321 49.5958 57.4367 49.6057C57.4412 49.6155 57.4458 49.6254 57.4503 49.6353C57.4595 49.655 57.4686 49.6747 57.4754 49.6944C57.4845 49.7142 57.4914 49.7314 57.5005 49.7511C57.5073 49.7709 57.5164 49.7881 57.5233 49.8079C57.5506 49.8818 57.578 49.9533 57.5985 50.0199C57.6327 50.1284 57.6577 50.2246 57.6783 50.3084C57.6851 50.3429 57.7147 50.3651 57.7466 50.3602C57.7808 50.3577 57.8059 50.3281 57.8059 50.2911C57.8082 50.2024 57.8059 50.0963 57.7945 49.9755Z" fill="url(#paint6_linear_2658_38654)"/>
</g>
<rect x="50" y="71" width="331" height="147" rx="5" fill="#1D1F22"/>
<path d="M311.801 99.8008C319.356 107.138 324.847 116.336 327.722 126.468L310.405 131.381C308.393 124.288 304.549 117.85 299.261 112.714L311.801 99.8008Z" fill="url(#paint7_linear_2658_38654)"/>
<path d="M321.914 112.761C329.552 125.942 331.89 141.534 328.455 156.375C325.019 171.217 316.067 184.195 303.414 192.679C290.762 201.163 275.355 204.516 260.321 202.058C245.287 199.601 231.751 191.517 222.458 179.446C213.165 167.375 208.811 152.221 210.28 137.059C211.749 121.896 218.93 107.86 230.368 97.7971C241.805 87.7345 256.641 82.3991 271.868 82.8732C287.094 83.3473 301.57 89.5954 312.359 100.35L299.651 113.098C292.099 105.57 281.966 101.196 271.308 100.865C260.649 100.533 250.264 104.267 242.257 111.311C234.251 118.355 229.224 128.18 228.196 138.794C227.168 149.408 230.215 160.016 236.72 168.465C243.226 176.915 252.701 182.574 263.225 184.294C273.749 186.014 284.533 183.667 293.39 177.729C302.247 171.79 308.514 162.705 310.918 152.316C313.323 141.927 311.686 131.012 306.34 121.786L321.914 112.761Z" fill="#5D97A6"/>
<rect x="310" y="98.8438" width="31" height="16" rx="5" fill="white" fill-opacity="0.05"/>
<path d="M318.9 110.988C318.3 110.988 317.792 110.876 317.376 110.652C316.968 110.428 316.64 110.124 316.392 109.74C316.144 109.356 315.96 108.928 315.84 108.456C315.728 107.976 315.672 107.484 315.672 106.98C315.672 106.052 315.8 105.24 316.056 104.544C316.312 103.84 316.68 103.292 317.16 102.9C317.648 102.5 318.232 102.3 318.912 102.3C319.44 102.3 319.892 102.404 320.268 102.612C320.652 102.812 320.952 103.084 321.168 103.428C321.392 103.764 321.528 104.14 321.576 104.556H320.64C320.56 104.116 320.368 103.776 320.064 103.536C319.76 103.296 319.372 103.176 318.9 103.176C318.476 103.176 318.096 103.308 317.76 103.572C317.432 103.836 317.168 104.232 316.968 104.76C316.776 105.288 316.664 105.964 316.632 106.788C316.632 106.804 316.632 106.82 316.632 106.836C316.632 106.852 316.632 106.868 316.632 106.884C316.752 106.628 316.924 106.396 317.148 106.188C317.38 105.972 317.656 105.8 317.976 105.672C318.296 105.536 318.648 105.468 319.032 105.468C319.512 105.468 319.956 105.58 320.364 105.804C320.78 106.028 321.112 106.344 321.36 106.752C321.616 107.152 321.744 107.624 321.744 108.168C321.744 108.64 321.628 109.092 321.396 109.524C321.172 109.956 320.848 110.308 320.424 110.58C320 110.852 319.492 110.988 318.9 110.988ZM318.828 110.1C319.196 110.1 319.52 110.02 319.8 109.86C320.088 109.7 320.312 109.48 320.472 109.2C320.64 108.912 320.724 108.584 320.724 108.216C320.724 107.84 320.64 107.512 320.472 107.232C320.312 106.952 320.088 106.736 319.8 106.584C319.52 106.424 319.196 106.344 318.828 106.344C318.468 106.344 318.14 106.428 317.844 106.596C317.556 106.764 317.324 106.992 317.148 107.28C316.98 107.56 316.896 107.876 316.896 108.228C316.896 108.596 316.98 108.92 317.148 109.2C317.324 109.48 317.556 109.7 317.844 109.86C318.14 110.02 318.468 110.1 318.828 110.1ZM328.027 110.844L332.911 102.444H333.919L329.035 110.844H328.027ZM333.403 110.988C333.043 110.988 332.719 110.908 332.431 110.748C332.143 110.58 331.911 110.344 331.735 110.04C331.567 109.736 331.483 109.38 331.483 108.972C331.483 108.556 331.567 108.2 331.735 107.904C331.911 107.6 332.143 107.368 332.431 107.208C332.719 107.04 333.043 106.956 333.403 106.956C333.771 106.956 334.095 107.04 334.375 107.208C334.663 107.368 334.891 107.6 335.059 107.904C335.227 108.2 335.311 108.556 335.311 108.972C335.311 109.38 335.227 109.736 335.059 110.04C334.891 110.344 334.663 110.58 334.375 110.748C334.087 110.908 333.763 110.988 333.403 110.988ZM333.391 110.208C333.583 110.208 333.759 110.164 333.919 110.076C334.079 109.98 334.207 109.84 334.303 109.656C334.407 109.472 334.459 109.244 334.459 108.972C334.459 108.692 334.411 108.46 334.315 108.276C334.219 108.092 334.091 107.956 333.931 107.868C333.771 107.772 333.595 107.724 333.403 107.724C333.219 107.724 333.043 107.772 332.875 107.868C332.715 107.956 332.583 108.092 332.479 108.276C332.383 108.46 332.335 108.692 332.335 108.972C332.335 109.244 332.383 109.472 332.479 109.656C332.583 109.84 332.715 109.98 332.875 110.076C333.035 110.164 333.207 110.208 333.391 110.208ZM328.639 106.344C328.279 106.344 327.955 106.264 327.667 106.104C327.379 105.936 327.147 105.7 326.971 105.396C326.803 105.092 326.719 104.736 326.719 104.328C326.719 103.912 326.803 103.556 326.971 103.26C327.147 102.956 327.379 102.724 327.667 102.564C327.963 102.396 328.291 102.312 328.651 102.312C329.011 102.312 329.335 102.396 329.623 102.564C329.911 102.724 330.139 102.956 330.307 103.26C330.475 103.556 330.559 103.912 330.559 104.328C330.559 104.736 330.475 105.092 330.307 105.396C330.139 105.7 329.907 105.936 329.611 106.104C329.323 106.264 328.999 106.344 328.639 106.344ZM328.639 105.564C328.831 105.564 329.007 105.52 329.167 105.432C329.327 105.336 329.455 105.196 329.551 105.012C329.647 104.828 329.695 104.6 329.695 104.328C329.695 104.048 329.647 103.816 329.551 103.632C329.455 103.44 329.327 103.3 329.167 103.212C329.007 103.116 328.835 103.068 328.651 103.068C328.467 103.068 328.291 103.116 328.123 103.212C327.955 103.3 327.819 103.44 327.715 103.632C327.619 103.816 327.571 104.048 327.571 104.328C327.571 104.6 327.619 104.828 327.715 105.012C327.819 105.196 327.951 105.336 328.111 105.432C328.279 105.52 328.455 105.564 328.639 105.564Z" fill="#ACADAE"/>
<rect x="184" y="134.844" width="39" height="16" rx="5" fill="white" fill-opacity="0.05"/>
<path d="M192.636 146.988C192.108 146.988 191.656 146.888 191.28 146.688C190.904 146.48 190.604 146.204 190.38 145.86C190.164 145.508 190.032 145.124 189.984 144.708H190.92C191 145.156 191.192 145.504 191.496 145.752C191.8 145.992 192.184 146.112 192.648 146.112C193.072 146.112 193.448 145.984 193.776 145.728C194.104 145.472 194.368 145.084 194.568 144.564C194.776 144.036 194.892 143.368 194.916 142.56C194.916 142.536 194.916 142.512 194.916 142.488C194.916 142.464 194.916 142.44 194.916 142.416C194.796 142.664 194.62 142.896 194.388 143.112C194.156 143.328 193.88 143.5 193.56 143.628C193.248 143.756 192.896 143.82 192.504 143.82C192.032 143.82 191.584 143.708 191.16 143.484C190.744 143.26 190.404 142.948 190.14 142.548C189.884 142.14 189.756 141.664 189.756 141.12C189.756 140.648 189.872 140.196 190.104 139.764C190.336 139.332 190.668 138.98 191.1 138.708C191.532 138.436 192.044 138.3 192.636 138.3C193.236 138.3 193.744 138.416 194.16 138.648C194.576 138.872 194.908 139.176 195.156 139.56C195.412 139.936 195.596 140.364 195.708 140.844C195.82 141.324 195.876 141.812 195.876 142.308C195.876 143.228 195.748 144.04 195.492 144.744C195.244 145.448 194.876 146 194.388 146.4C193.908 146.792 193.324 146.988 192.636 146.988ZM192.708 142.944C193.076 142.944 193.408 142.86 193.704 142.692C194 142.524 194.232 142.296 194.4 142.008C194.576 141.72 194.664 141.404 194.664 141.06C194.664 140.692 194.576 140.368 194.4 140.088C194.232 139.808 194 139.588 193.704 139.428C193.408 139.268 193.076 139.188 192.708 139.188C192.34 139.188 192.008 139.272 191.712 139.44C191.424 139.6 191.196 139.82 191.028 140.1C190.86 140.38 190.776 140.704 190.776 141.072C190.776 141.448 190.86 141.776 191.028 142.056C191.196 142.336 191.424 142.556 191.712 142.716C192.008 142.868 192.34 142.944 192.708 142.944ZM201.479 146.844V145.044H197.219V144.264L201.299 138.444H202.475V144.156H203.723V145.044H202.475V146.844H201.479ZM198.335 144.156H201.527V139.56L198.335 144.156ZM209.472 146.844L214.356 138.444H215.364L210.48 146.844H209.472ZM214.764 146.988C214.404 146.988 214.08 146.908 213.792 146.748C213.504 146.58 213.272 146.344 213.096 146.04C212.928 145.736 212.844 145.38 212.844 144.972C212.844 144.556 212.928 144.2 213.096 143.904C213.272 143.6 213.504 143.368 213.792 143.208C214.08 143.04 214.404 142.956 214.764 142.956C215.132 142.956 215.456 143.04 215.736 143.208C216.024 143.368 216.252 143.6 216.42 143.904C216.588 144.2 216.672 144.556 216.672 144.972C216.672 145.38 216.588 145.736 216.42 146.04C216.252 146.344 216.024 146.58 215.736 146.748C215.448 146.908 215.124 146.988 214.764 146.988ZM214.752 146.208C214.944 146.208 215.12 146.164 215.28 146.076C215.44 145.98 215.568 145.84 215.664 145.656C215.768 145.472 215.82 145.244 215.82 144.972C215.82 144.692 215.772 144.46 215.676 144.276C215.58 144.092 215.452 143.956 215.292 143.868C215.132 143.772 214.956 143.724 214.764 143.724C214.58 143.724 214.404 143.772 214.236 143.868C214.076 143.956 213.944 144.092 213.84 144.276C213.744 144.46 213.696 144.692 213.696 144.972C213.696 145.244 213.744 145.472 213.84 145.656C213.944 145.84 214.076 145.98 214.236 146.076C214.396 146.164 214.568 146.208 214.752 146.208ZM210.144 142.344C209.784 142.344 209.46 142.264 209.172 142.104C208.884 141.936 208.652 141.7 208.476 141.396C208.308 141.092 208.224 140.736 208.224 140.328C208.224 139.912 208.308 139.556 208.476 139.26C208.652 138.956 208.884 138.724 209.172 138.564C209.468 138.396 209.796 138.312 210.156 138.312C210.516 138.312 210.84 138.396 211.128 138.564C211.416 138.724 211.644 138.956 211.812 139.26C211.98 139.556 212.064 139.912 212.064 140.328C212.064 140.736 211.98 141.092 211.812 141.396C211.644 141.7 211.412 141.936 211.116 142.104C210.828 142.264 210.504 142.344 210.144 142.344ZM210.144 141.564C210.336 141.564 210.512 141.52 210.672 141.432C210.832 141.336 210.96 141.196 211.056 141.012C211.152 140.828 211.2 140.6 211.2 140.328C211.2 140.048 211.152 139.816 211.056 139.632C210.96 139.44 210.832 139.3 210.672 139.212C210.512 139.116 210.34 139.068 210.156 139.068C209.972 139.068 209.796 139.116 209.628 139.212C209.46 139.3 209.324 139.44 209.22 139.632C209.124 139.816 209.076 140.048 209.076 140.328C209.076 140.6 209.124 140.828 209.22 141.012C209.324 141.196 209.456 141.336 209.616 141.432C209.784 141.52 209.96 141.564 210.144 141.564Z" fill="#ACADAE"/>
<rect x="65" y="129" width="28" height="6" rx="2" fill="#5D97A6"/>
<path d="M104.01 135.12C103.497 135.12 103.05 135.027 102.67 134.84C102.29 134.653 101.997 134.393 101.79 134.06C101.583 133.727 101.48 133.34 101.48 132.9H102.36C102.36 133.173 102.423 133.427 102.55 133.66C102.677 133.887 102.86 134.07 103.1 134.21C103.347 134.343 103.65 134.41 104.01 134.41C104.323 134.41 104.59 134.36 104.81 134.26C105.037 134.153 105.207 134.01 105.32 133.83C105.44 133.65 105.5 133.447 105.5 133.22C105.5 132.967 105.443 132.757 105.33 132.59C105.223 132.417 105.073 132.277 104.88 132.17C104.687 132.057 104.463 131.957 104.21 131.87C103.957 131.783 103.683 131.693 103.39 131.6C102.803 131.413 102.377 131.18 102.11 130.9C101.85 130.613 101.72 130.247 101.72 129.8C101.72 129.42 101.807 129.087 101.98 128.8C102.16 128.513 102.413 128.29 102.74 128.13C103.073 127.963 103.467 127.88 103.92 127.88C104.367 127.88 104.753 127.963 105.08 128.13C105.413 128.297 105.673 128.527 105.86 128.82C106.047 129.107 106.14 129.44 106.14 129.82H105.26C105.26 129.627 105.21 129.437 105.11 129.25C105.01 129.063 104.857 128.91 104.65 128.79C104.45 128.663 104.197 128.6 103.89 128.6C103.637 128.593 103.41 128.637 103.21 128.73C103.017 128.817 102.863 128.943 102.75 129.11C102.643 129.277 102.59 129.48 102.59 129.72C102.59 129.947 102.637 130.13 102.73 130.27C102.83 130.41 102.97 130.53 103.15 130.63C103.337 130.723 103.553 130.81 103.8 130.89C104.047 130.97 104.32 131.06 104.62 131.16C104.96 131.273 105.26 131.413 105.52 131.58C105.787 131.74 105.993 131.947 106.14 132.2C106.293 132.453 106.37 132.777 106.37 133.17C106.37 133.503 106.28 133.82 106.1 134.12C105.927 134.413 105.667 134.653 105.32 134.84C104.973 135.027 104.537 135.12 104.01 135.12ZM109.659 135.12C109.273 135.12 108.936 135.047 108.649 134.9C108.363 134.753 108.139 134.53 107.979 134.23C107.819 133.923 107.739 133.543 107.739 133.09V129.74H108.579V133C108.579 133.467 108.693 133.817 108.919 134.05C109.153 134.283 109.463 134.4 109.849 134.4C110.116 134.4 110.356 134.34 110.569 134.22C110.783 134.093 110.953 133.91 111.079 133.67C111.213 133.43 111.279 133.137 111.279 132.79V129.74H112.119V135H111.359L111.309 134.16C111.169 134.467 110.953 134.703 110.659 134.87C110.373 135.037 110.039 135.12 109.659 135.12ZM116.011 135.12C115.531 135.12 115.104 135.007 114.731 134.78C114.358 134.547 114.064 134.223 113.851 133.81C113.638 133.397 113.531 132.917 113.531 132.37C113.531 131.817 113.638 131.337 113.851 130.93C114.064 130.517 114.358 130.197 114.731 129.97C115.104 129.737 115.531 129.62 116.011 129.62C116.611 129.62 117.111 129.78 117.511 130.1C117.918 130.42 118.178 130.85 118.291 131.39H117.431C117.358 131.057 117.188 130.8 116.921 130.62C116.661 130.433 116.354 130.34 116.001 130.34C115.694 130.34 115.418 130.417 115.171 130.57C114.931 130.723 114.741 130.95 114.601 131.25C114.461 131.55 114.391 131.923 114.391 132.37C114.391 132.703 114.431 133 114.511 133.26C114.591 133.513 114.701 133.727 114.841 133.9C114.988 134.067 115.158 134.193 115.351 134.28C115.551 134.367 115.768 134.41 116.001 134.41C116.241 134.41 116.458 134.37 116.651 134.29C116.851 134.203 117.018 134.08 117.151 133.92C117.291 133.76 117.384 133.57 117.431 133.35H118.291C118.184 133.877 117.924 134.303 117.511 134.63C117.104 134.957 116.604 135.12 116.011 135.12ZM121.982 135.12C121.502 135.12 121.076 135.007 120.702 134.78C120.329 134.547 120.036 134.223 119.822 133.81C119.609 133.397 119.502 132.917 119.502 132.37C119.502 131.817 119.609 131.337 119.822 130.93C120.036 130.517 120.329 130.197 120.702 129.97C121.076 129.737 121.502 129.62 121.982 129.62C122.582 129.62 123.082 129.78 123.482 130.1C123.889 130.42 124.149 130.85 124.262 131.39H123.402C123.329 131.057 123.159 130.8 122.892 130.62C122.632 130.433 122.326 130.34 121.972 130.34C121.666 130.34 121.389 130.417 121.142 130.57C120.902 130.723 120.712 130.95 120.572 131.25C120.432 131.55 120.362 131.923 120.362 132.37C120.362 132.703 120.402 133 120.482 133.26C120.562 133.513 120.672 133.727 120.812 133.9C120.959 134.067 121.129 134.193 121.322 134.28C121.522 134.367 121.739 134.41 121.972 134.41C122.212 134.41 122.429 134.37 122.622 134.29C122.822 134.203 122.989 134.08 123.122 133.92C123.262 133.76 123.356 133.57 123.402 133.35H124.262C124.156 133.877 123.896 134.303 123.482 134.63C123.076 134.957 122.576 135.12 121.982 135.12ZM127.864 135.12C127.397 135.12 126.984 135.007 126.624 134.78C126.264 134.553 125.98 134.233 125.774 133.82C125.574 133.407 125.474 132.923 125.474 132.37C125.474 131.817 125.574 131.333 125.774 130.92C125.98 130.507 126.264 130.187 126.624 129.96C126.99 129.733 127.41 129.62 127.884 129.62C128.39 129.62 128.814 129.733 129.154 129.96C129.494 130.187 129.75 130.49 129.924 130.87C130.097 131.25 130.184 131.667 130.184 132.12C130.184 132.187 130.184 132.253 130.184 132.32C130.184 132.387 130.18 132.467 130.174 132.56H126.104V131.91H129.364C129.35 131.397 129.2 131.007 128.914 130.74C128.634 130.467 128.284 130.33 127.864 130.33C127.584 130.33 127.324 130.4 127.084 130.54C126.85 130.673 126.66 130.873 126.514 131.14C126.367 131.407 126.294 131.74 126.294 132.14V132.42C126.294 132.86 126.367 133.23 126.514 133.53C126.66 133.823 126.85 134.043 127.084 134.19C127.324 134.337 127.584 134.41 127.864 134.41C128.237 134.41 128.53 134.34 128.744 134.2C128.957 134.053 129.114 133.847 129.214 133.58H130.044C129.964 133.873 129.824 134.137 129.624 134.37C129.43 134.603 129.184 134.787 128.884 134.92C128.59 135.053 128.25 135.12 127.864 135.12ZM133.448 135.12C132.975 135.12 132.581 135.05 132.268 134.91C131.961 134.763 131.728 134.563 131.568 134.31C131.408 134.05 131.311 133.75 131.278 133.41H132.138C132.165 133.59 132.225 133.757 132.318 133.91C132.418 134.057 132.561 134.177 132.748 134.27C132.935 134.363 133.171 134.41 133.458 134.41C133.685 134.41 133.878 134.377 134.038 134.31C134.198 134.237 134.318 134.137 134.398 134.01C134.485 133.883 134.528 133.737 134.528 133.57C134.528 133.35 134.478 133.18 134.378 133.06C134.285 132.933 134.145 132.84 133.958 132.78C133.778 132.713 133.551 132.663 133.278 132.63C132.985 132.59 132.725 132.533 132.498 132.46C132.271 132.387 132.078 132.29 131.918 132.17C131.765 132.05 131.648 131.9 131.568 131.72C131.488 131.54 131.448 131.327 131.448 131.08C131.448 130.793 131.525 130.54 131.678 130.32C131.831 130.1 132.048 129.93 132.328 129.81C132.615 129.683 132.951 129.62 133.338 129.62C133.905 129.62 134.351 129.75 134.678 130.01C135.011 130.27 135.208 130.64 135.268 131.12H134.438C134.405 130.873 134.291 130.68 134.098 130.54C133.905 130.4 133.648 130.33 133.328 130.33C132.988 130.33 132.731 130.393 132.558 130.52C132.385 130.647 132.298 130.813 132.298 131.02C132.298 131.173 132.335 131.313 132.408 131.44C132.488 131.56 132.621 131.663 132.808 131.75C132.995 131.83 133.245 131.89 133.558 131.93C133.951 131.977 134.285 132.053 134.558 132.16C134.831 132.26 135.038 132.417 135.178 132.63C135.325 132.843 135.395 133.133 135.388 133.5C135.388 133.847 135.305 134.14 135.138 134.38C134.978 134.62 134.751 134.803 134.458 134.93C134.171 135.057 133.835 135.12 133.448 135.12ZM137.166 135V129.18C137.166 128.86 137.219 128.6 137.326 128.4C137.432 128.193 137.589 128.043 137.796 127.95C138.009 127.85 138.269 127.8 138.576 127.8H139.346V128.52H138.716C138.462 128.52 138.279 128.573 138.166 128.68C138.059 128.78 138.006 128.957 138.006 129.21V135H137.166ZM136.346 130.45V129.74H139.406V130.45H136.346ZM142.539 135.12C142.152 135.12 141.816 135.047 141.529 134.9C141.242 134.753 141.019 134.53 140.859 134.23C140.699 133.923 140.619 133.543 140.619 133.09V129.74H141.459V133C141.459 133.467 141.572 133.817 141.799 134.05C142.032 134.283 142.342 134.4 142.729 134.4C142.996 134.4 143.236 134.34 143.449 134.22C143.662 134.093 143.832 133.91 143.959 133.67C144.092 133.43 144.159 133.137 144.159 132.79V129.74H144.999V135H144.239L144.189 134.16C144.049 134.467 143.832 134.703 143.539 134.87C143.252 135.037 142.919 135.12 142.539 135.12ZM146.621 135V127.8H147.461V135H146.621Z" fill="white"/>
<path d="M101.77 161V154H106.03V154.69H102.61V157.15H105.52V157.83H102.61V161H101.77ZM108.599 161.12C108.199 161.12 107.865 161.047 107.599 160.9C107.332 160.747 107.132 160.547 106.999 160.3C106.865 160.047 106.799 159.777 106.799 159.49C106.799 159.143 106.885 158.85 107.059 158.61C107.239 158.363 107.489 158.177 107.809 158.05C108.129 157.923 108.502 157.86 108.929 157.86H110.239C110.239 157.52 110.199 157.237 110.119 157.01C110.039 156.783 109.909 156.613 109.729 156.5C109.549 156.387 109.309 156.33 109.009 156.33C108.709 156.33 108.452 156.407 108.239 156.56C108.025 156.707 107.892 156.927 107.839 157.22H106.979C107.019 156.873 107.135 156.583 107.329 156.35C107.522 156.11 107.765 155.93 108.059 155.81C108.359 155.683 108.675 155.62 109.009 155.62C109.482 155.62 109.872 155.707 110.179 155.88C110.485 156.047 110.712 156.283 110.859 156.59C111.005 156.89 111.079 157.247 111.079 157.66V161H110.329L110.279 160.1C110.212 160.24 110.125 160.373 110.019 160.5C109.919 160.62 109.799 160.727 109.659 160.82C109.519 160.913 109.359 160.987 109.179 161.04C109.005 161.093 108.812 161.12 108.599 161.12ZM108.719 160.41C108.939 160.41 109.142 160.36 109.329 160.26C109.515 160.16 109.675 160.027 109.809 159.86C109.949 159.687 110.055 159.493 110.129 159.28C110.202 159.067 110.239 158.843 110.239 158.61V158.51H108.999C108.685 158.51 108.429 158.55 108.229 158.63C108.035 158.71 107.895 158.823 107.809 158.97C107.722 159.11 107.679 159.27 107.679 159.45C107.679 159.643 107.719 159.813 107.799 159.96C107.879 160.1 107.995 160.21 108.149 160.29C108.309 160.37 108.499 160.41 108.719 160.41ZM112.747 161V155.74H113.587V161H112.747ZM113.167 154.74C113 154.74 112.86 154.687 112.747 154.58C112.64 154.467 112.587 154.327 112.587 154.16C112.587 153.993 112.64 153.86 112.747 153.76C112.86 153.653 113 153.6 113.167 153.6C113.327 153.6 113.463 153.653 113.577 153.76C113.69 153.86 113.747 153.993 113.747 154.16C113.747 154.327 113.69 154.467 113.577 154.58C113.463 154.687 113.327 154.74 113.167 154.74ZM115.279 161V153.8H116.119V161H115.279ZM119.915 161.12C119.448 161.12 119.035 161.007 118.675 160.78C118.315 160.553 118.031 160.233 117.825 159.82C117.625 159.407 117.525 158.923 117.525 158.37C117.525 157.817 117.625 157.333 117.825 156.92C118.031 156.507 118.315 156.187 118.675 155.96C119.041 155.733 119.461 155.62 119.935 155.62C120.441 155.62 120.865 155.733 121.205 155.96C121.545 156.187 121.801 156.49 121.975 156.87C122.148 157.25 122.235 157.667 122.235 158.12C122.235 158.187 122.235 158.253 122.235 158.32C122.235 158.387 122.231 158.467 122.225 158.56H118.155V157.91H121.415C121.401 157.397 121.251 157.007 120.965 156.74C120.685 156.467 120.335 156.33 119.915 156.33C119.635 156.33 119.375 156.4 119.135 156.54C118.901 156.673 118.711 156.873 118.565 157.14C118.418 157.407 118.345 157.74 118.345 158.14V158.42C118.345 158.86 118.418 159.23 118.565 159.53C118.711 159.823 118.901 160.043 119.135 160.19C119.375 160.337 119.635 160.41 119.915 160.41C120.288 160.41 120.581 160.34 120.795 160.2C121.008 160.053 121.165 159.847 121.265 159.58H122.095C122.015 159.873 121.875 160.137 121.675 160.37C121.481 160.603 121.235 160.787 120.935 160.92C120.641 161.053 120.301 161.12 119.915 161.12ZM125.769 161.12C125.302 161.12 124.889 161 124.529 160.76C124.169 160.52 123.889 160.193 123.689 159.78C123.489 159.36 123.389 158.887 123.389 158.36C123.389 157.827 123.489 157.357 123.689 156.95C123.889 156.537 124.169 156.213 124.529 155.98C124.889 155.74 125.305 155.62 125.779 155.62C126.192 155.62 126.545 155.703 126.839 155.87C127.139 156.037 127.375 156.27 127.549 156.57V153.8H128.389V161H127.629L127.559 160.16C127.459 160.327 127.325 160.483 127.159 160.63C126.999 160.777 126.802 160.897 126.569 160.99C126.342 161.077 126.075 161.12 125.769 161.12ZM125.879 160.39C126.212 160.39 126.502 160.31 126.749 160.15C126.995 159.983 127.185 159.75 127.319 159.45C127.452 159.143 127.519 158.783 127.519 158.37C127.519 157.957 127.452 157.6 127.319 157.3C127.185 156.993 126.995 156.76 126.749 156.6C126.502 156.433 126.212 156.35 125.879 156.35C125.565 156.35 125.285 156.433 125.039 156.6C124.792 156.76 124.599 156.993 124.459 157.3C124.319 157.6 124.249 157.957 124.249 158.37C124.249 158.783 124.319 159.143 124.459 159.45C124.599 159.75 124.792 159.983 125.039 160.15C125.285 160.31 125.565 160.39 125.879 160.39Z" fill="white"/>
<rect x="65" y="155" width="28" height="6" rx="2" fill="#AB63A5"/>
<rect x="20.5" y="20.5" width="350" height="187" rx="9.5" fill="#111214" stroke="url(#paint8_linear_2658_38654)"/>
<line x1="20.9971" y1="40.4961" x2="370.003" y2="40.4961" stroke="url(#paint9_linear_2658_38654)"/>
<g clip-path="url(#clip2_2658_38654)">
<path d="M37.7945 29.9755C37.7808 29.8251 37.758 29.6525 37.7124 29.4602C37.6669 29.2703 37.5985 29.0607 37.4982 28.8437C37.3979 28.6268 37.268 28.4024 37.0993 28.1829C37.0332 28.0966 36.9603 28.0128 36.8828 27.9314C36.9991 27.4309 36.7415 26.9969 36.7415 26.9969C36.2971 26.9673 36.0144 27.1473 35.9096 27.2287C35.8914 27.2213 35.8754 27.2114 35.8572 27.204C35.782 27.172 35.7045 27.1399 35.6224 27.1128C35.5426 27.0857 35.4606 27.061 35.3763 27.0388C35.2919 27.0166 35.2076 26.9994 35.121 26.9846C35.105 26.9821 35.0914 26.9796 35.0754 26.9772C34.8817 26.3065 34.3256 26.0254 34.3256 26.0254C33.7033 26.452 33.5871 27.0487 33.5871 27.0487C33.5871 27.0487 33.5848 27.061 33.5803 27.0832C33.5461 27.0931 33.5119 27.1054 33.4777 27.1153C33.4298 27.13 33.382 27.1498 33.3364 27.1695C33.2885 27.1892 33.2429 27.209 33.1951 27.2311C33.1016 27.2755 33.0082 27.3248 32.917 27.3791C32.8281 27.4333 32.7415 27.4925 32.6572 27.5542C32.6458 27.5492 32.6344 27.5443 32.6344 27.5443C31.7728 27.1892 31.0093 27.6158 31.0093 27.6158C30.9387 28.607 31.3535 29.2309 31.4355 29.3443C31.415 29.4059 31.3968 29.4676 31.3785 29.5292C31.3147 29.7536 31.2669 29.9829 31.2372 30.2221C31.2327 30.2566 31.2281 30.2911 31.2258 30.3257C30.4281 30.7522 30.1934 31.6227 30.1934 31.6227C30.8566 32.4487 31.6315 32.5005 31.6315 32.5005L31.6338 32.498C31.7318 32.6879 31.8458 32.8679 31.9734 33.038C32.0281 33.1095 32.0828 33.1761 32.1421 33.2427C31.9005 33.9922 32.1763 34.6136 32.1763 34.6136C32.9147 34.6432 33.4002 34.2635 33.5028 34.1772C33.5757 34.2043 33.6509 34.229 33.7261 34.2487C33.954 34.3128 34.1865 34.3498 34.419 34.3596C34.476 34.3621 34.5352 34.3646 34.5922 34.3621H34.6196H34.6378H34.6743L34.7107 34.3596V34.3621C35.0595 34.8996 35.6703 34.9761 35.6703 34.9761C36.1056 34.4805 36.1307 33.9873 36.1307 33.8813C36.1307 33.8813 36.1307 33.8788 36.1307 33.8739C36.1307 33.864 36.1307 33.8591 36.1307 33.8591C36.1307 33.8517 36.1307 33.8443 36.1307 33.8369C36.2218 33.7679 36.3085 33.6939 36.3905 33.6125C36.5637 33.4424 36.7164 33.2476 36.8441 33.038C36.8555 33.0183 36.8669 32.9985 36.8783 32.9788C37.3706 33.0084 37.7193 32.6484 37.7193 32.6484C37.6372 32.0936 37.3455 31.8224 37.284 31.7706C37.284 31.7706 37.2817 31.7681 37.2771 31.7657C37.2726 31.7632 37.2726 31.7607 37.2726 31.7607C37.2703 31.7583 37.2657 31.7558 37.2612 31.7533C37.2634 31.7188 37.2657 31.6868 37.268 31.6522C37.2726 31.5931 37.2726 31.5314 37.2726 31.4722V31.4279V31.4057V31.3933C37.2726 31.3785 37.2726 31.3835 37.2726 31.3785L37.2703 31.3416L37.268 31.2922C37.268 31.275 37.2657 31.2602 37.2634 31.2454C37.2612 31.2306 37.2612 31.2133 37.2589 31.1985L37.2543 31.1517L37.2475 31.1048C37.2384 31.0432 37.2293 30.984 37.2156 30.9224C37.1632 30.6832 37.0766 30.4563 36.9649 30.2517C36.8509 30.047 36.7096 29.867 36.5478 29.7142C36.3882 29.5613 36.2082 29.438 36.0213 29.3468C35.8321 29.2555 35.6361 29.1963 35.4401 29.1692C35.3421 29.1544 35.2441 29.1495 35.1461 29.152H35.1096H35.1005C35.0982 29.152 35.0868 29.152 35.0891 29.152H35.0731L35.0367 29.1544C35.023 29.1544 35.0093 29.1569 34.9979 29.1569C34.9478 29.1618 34.8976 29.1692 34.8498 29.1791C34.6538 29.2185 34.4691 29.295 34.3073 29.401C34.1455 29.507 34.0042 29.6377 33.8902 29.7857C33.7763 29.9336 33.6874 30.0988 33.6258 30.269C33.5643 30.4391 33.5301 30.6166 33.521 30.7868C33.5187 30.8287 33.5187 30.8731 33.5187 30.915C33.5187 30.9248 33.5187 30.9372 33.5187 30.947L33.521 30.9816C33.5233 31.0013 33.5233 31.0235 33.5256 31.0432C33.5324 31.1295 33.5483 31.2133 33.5689 31.2922C33.6122 31.4525 33.6805 31.598 33.7649 31.7213C33.8492 31.8446 33.9518 31.9457 34.0589 32.027C34.166 32.1059 34.2822 32.1627 34.3962 32.1996C34.5102 32.2366 34.6241 32.2514 34.7313 32.2514C34.7449 32.2514 34.7586 32.2514 34.77 32.2514C34.7768 32.2514 34.7837 32.2514 34.7905 32.2514C34.7973 32.2514 34.8042 32.2514 34.811 32.249C34.8224 32.249 34.8338 32.2465 34.8452 32.2465C34.8475 32.2465 34.852 32.2465 34.8543 32.244L34.8657 32.2416C34.8726 32.2416 34.8794 32.2391 34.8862 32.2391C34.8999 32.2366 34.9113 32.2342 34.925 32.2317C34.9387 32.2292 34.9501 32.2268 34.9615 32.2218C34.9865 32.2169 35.0093 32.207 35.0321 32.1996C35.0777 32.1824 35.1233 32.1627 35.162 32.1405C35.203 32.1183 35.2395 32.0911 35.276 32.0665C35.2851 32.0591 35.2965 32.0517 35.3056 32.0418C35.3421 32.0098 35.3489 31.9506 35.3193 31.9111C35.2942 31.8766 35.2486 31.8668 35.2122 31.889C35.203 31.8939 35.1939 31.8988 35.1848 31.9037C35.1529 31.921 35.121 31.9358 35.0868 31.9481C35.0526 31.9605 35.0162 31.9703 34.9797 31.9777C34.9615 31.9802 34.9432 31.9827 34.9227 31.9851C34.9136 31.9851 34.9045 31.9876 34.8931 31.9876C34.884 31.9876 34.8726 31.9876 34.8657 31.9876C34.8566 31.9876 34.8475 31.9876 34.8384 31.9876C34.827 31.9876 34.8156 31.9876 34.8042 31.9851C34.8042 31.9851 34.7973 31.9851 34.8019 31.9851H34.7973H34.7905C34.786 31.9851 34.7791 31.9851 34.7746 31.9827C34.7632 31.9802 34.754 31.9802 34.7426 31.9777C34.6583 31.9654 34.574 31.9383 34.4942 31.8988C34.4122 31.8594 34.3347 31.8051 34.264 31.7361C34.1934 31.667 34.1318 31.5857 34.084 31.492C34.0361 31.3983 34.0019 31.2947 33.986 31.1862C33.9791 31.132 33.9746 31.0753 33.9768 31.021C33.9768 31.0062 33.9791 30.9914 33.9791 30.9766C33.9791 30.9816 33.9791 30.9742 33.9791 30.9742V30.9692V30.9569C33.9791 30.9495 33.9814 30.9421 33.9814 30.9347C33.9837 30.9051 33.9882 30.8755 33.9928 30.8459C34.0315 30.6092 34.1409 30.3774 34.3096 30.2024C34.3529 30.158 34.3985 30.1185 34.4464 30.0816C34.4942 30.0446 34.5466 30.0125 34.6013 29.9854C34.656 29.9583 34.7107 29.9361 34.77 29.9188C34.827 29.9016 34.8862 29.8917 34.9478 29.8843C34.9774 29.8818 35.007 29.8794 35.0389 29.8794C35.0481 29.8794 35.0526 29.8794 35.0595 29.8794H35.0845H35.1005C35.1073 29.8794 35.1005 29.8794 35.1028 29.8794H35.1096L35.1347 29.8818C35.2008 29.8868 35.2646 29.8966 35.3284 29.9139C35.456 29.9435 35.5814 29.9953 35.6976 30.0643C35.9301 30.2048 36.1284 30.4218 36.2492 30.6832C36.3107 30.8139 36.354 30.9544 36.3746 31.0999C36.3791 31.1369 36.3837 31.1739 36.386 31.2109L36.3882 31.238L36.3905 31.2651C36.3905 31.275 36.3905 31.2848 36.3905 31.2922C36.3905 31.3021 36.3905 31.312 36.3905 31.3194V31.344V31.3711C36.3905 31.3884 36.3882 31.418 36.3882 31.4353C36.386 31.4747 36.3814 31.5166 36.3768 31.5561C36.3723 31.5955 36.3654 31.635 36.3586 31.6744C36.3518 31.7139 36.3426 31.7533 36.3335 31.7903C36.3153 31.8668 36.2925 31.9432 36.2652 32.0196C36.2105 32.1676 36.1375 32.3106 36.0509 32.4413C35.8754 32.7027 35.6361 32.9147 35.3626 33.0503C35.2258 33.1169 35.0822 33.1662 34.9341 33.1909C34.8612 33.2057 34.786 33.2131 34.7107 33.2155H34.6971H34.6857H34.6606H34.6241H34.6059C34.615 33.2155 34.6036 33.2155 34.6036 33.2155H34.5968C34.5558 33.2155 34.517 33.2131 34.476 33.2081C34.3164 33.1958 34.1592 33.1637 34.0042 33.1169C33.8515 33.07 33.7033 33.0035 33.562 32.9246C33.2817 32.7618 33.0287 32.5399 32.8327 32.2711C32.7347 32.138 32.6481 31.9925 32.5774 31.8421C32.5067 31.6917 32.4498 31.5314 32.4087 31.3711C32.3677 31.2084 32.3426 31.0432 32.3313 30.8755L32.329 30.8435V30.8361V30.8287V30.8139V30.7868V30.7794V30.7695V30.7498V30.7103V30.7029C32.329 30.7029 32.329 30.7054 32.329 30.7005V30.6857C32.329 30.6659 32.329 30.6437 32.329 30.624C32.3313 30.5427 32.3381 30.4563 32.3472 30.3725C32.3563 30.2887 32.37 30.2024 32.386 30.1185C32.4019 30.0347 32.4201 29.9509 32.4429 29.867C32.4862 29.7018 32.5409 29.5416 32.6048 29.3911C32.7347 29.0903 32.9033 28.8216 33.1062 28.607C33.1563 28.5528 33.2087 28.5035 33.2634 28.4542C33.3181 28.4073 33.3751 28.3629 33.4344 28.321C33.4914 28.2791 33.5529 28.2421 33.6144 28.2076C33.6441 28.1903 33.676 28.1731 33.7079 28.1583C33.7238 28.1509 33.7398 28.1435 33.7558 28.1361C33.7717 28.1287 33.7877 28.1213 33.8036 28.1139C33.8674 28.0843 33.9335 28.0596 34.0019 28.0374C34.0179 28.0325 34.0361 28.0276 34.052 28.0202C34.068 28.0153 34.0862 28.0103 34.1022 28.0054C34.1364 27.9955 34.1706 27.9857 34.2048 27.9783C34.2207 27.9733 34.2389 27.9709 34.2572 27.9659C34.2754 27.961 34.2914 27.9585 34.3096 27.9536C34.3278 27.9511 34.3438 27.9462 34.362 27.9437L34.3871 27.9388L34.4144 27.9339C34.4327 27.9314 34.4486 27.929 34.4669 27.9265C34.4874 27.924 34.5056 27.9216 34.5261 27.9191C34.5421 27.9166 34.5694 27.9142 34.5854 27.9117C34.5968 27.9092 34.6105 27.9092 34.6218 27.9068L34.6469 27.9043L34.6583 27.9018H34.672C34.6925 27.8994 34.7107 27.8994 34.7313 27.8969L34.7609 27.8944C34.7609 27.8944 34.7723 27.8944 34.7632 27.8944H34.77H34.7837C34.7996 27.8944 34.8179 27.892 34.8338 27.892C34.8999 27.8895 34.9683 27.8895 35.0344 27.892C35.1666 27.8969 35.2965 27.9142 35.4218 27.9388C35.6748 27.9906 35.9119 28.0769 36.1284 28.1928C36.3449 28.3062 36.5364 28.4468 36.705 28.5996C36.7164 28.6095 36.7256 28.6194 36.7369 28.6292C36.7461 28.6391 36.7575 28.649 36.7666 28.6588C36.7871 28.6785 36.8053 28.6983 36.8258 28.718C36.8464 28.7377 36.8646 28.7574 36.8828 28.7772C36.9011 28.7969 36.9193 28.8166 36.9375 28.8388C37.0082 28.9202 37.0743 29.0016 37.1335 29.0854C37.252 29.2506 37.3478 29.4183 37.423 29.5761C37.4275 29.5859 37.4321 29.5958 37.4367 29.6057C37.4412 29.6155 37.4458 29.6254 37.4503 29.6353C37.4595 29.655 37.4686 29.6747 37.4754 29.6944C37.4845 29.7142 37.4914 29.7314 37.5005 29.7511C37.5073 29.7709 37.5164 29.7881 37.5233 29.8079C37.5506 29.8818 37.578 29.9533 37.5985 30.0199C37.6327 30.1284 37.6577 30.2246 37.6783 30.3084C37.6851 30.3429 37.7147 30.3651 37.7466 30.3602C37.7808 30.3577 37.8059 30.3281 37.8059 30.2911C37.8082 30.2024 37.8059 30.0963 37.7945 29.9755Z" fill="url(#paint10_linear_2658_38654)"/>
</g>
<rect x="30" y="51" width="331" height="147" rx="5" fill="#1D1F22"/>
<path d="M45 84.1454L93.4594 91.4141L113.946 104.498L127.342 84.1454L165.164 77.8458L182.499 73L202.592 84.1454L223.079 112.736L247.899 118.066L266.81 127.758L281.781 140.841L309.754 101.106L337.726 77.8458H346V183H45V84.1454Z" fill="#A1D2DF" fill-opacity="0.2" stroke="#5D97A6"/>
<rect x="0.5" y="0.5" width="350" height="187" rx="9.5" fill="#111214" stroke="url(#paint11_linear_2658_38654)"/>
<line x1="0.99707" y1="20.4961" x2="350.003" y2="20.4961" stroke="url(#paint12_linear_2658_38654)"/>
<g clip-path="url(#clip3_2658_38654)">
<path d="M17.7945 9.97553C17.7808 9.82512 17.758 9.65251 17.7124 9.46018C17.6669 9.27032 17.5985 9.06073 17.4982 8.84375C17.3979 8.62676 17.268 8.40238 17.0993 8.18292C17.0332 8.09662 16.9603 8.01279 16.8828 7.93142C16.9991 7.43087 16.7415 6.9969 16.7415 6.9969C16.2971 6.96731 16.0144 7.14731 15.9096 7.22868C15.8914 7.22128 15.8754 7.21142 15.8572 7.20402C15.782 7.17197 15.7045 7.13991 15.6224 7.11279C15.5426 7.08566 15.4606 7.06101 15.3763 7.03882C15.2919 7.01662 15.2076 6.99936 15.121 6.98457C15.105 6.9821 15.0914 6.97964 15.0754 6.97717C14.8817 6.30649 14.3256 6.02539 14.3256 6.02539C13.7033 6.45197 13.5871 7.04868 13.5871 7.04868C13.5871 7.04868 13.5848 7.06101 13.5803 7.0832C13.5461 7.09306 13.5119 7.10539 13.4777 7.11525C13.4298 7.13005 13.382 7.14977 13.3364 7.1695C13.2885 7.18923 13.2429 7.20895 13.1951 7.23114C13.1016 7.27553 13.0082 7.32484 12.917 7.37909C12.8281 7.43334 12.7415 7.49251 12.6572 7.55416C12.6458 7.54923 12.6344 7.54429 12.6344 7.54429C11.7728 7.18923 11.0093 7.6158 11.0093 7.6158C10.9387 8.60703 11.3535 9.23087 11.4355 9.34429C11.415 9.40594 11.3968 9.46758 11.3785 9.52923C11.3147 9.75361 11.2669 9.98292 11.2372 10.2221C11.2327 10.2566 11.2281 10.2911 11.2258 10.3257C10.4281 10.7522 10.1934 11.6227 10.1934 11.6227C10.8566 12.4487 11.6315 12.5005 11.6315 12.5005L11.6338 12.498C11.7318 12.6879 11.8458 12.8679 11.9734 13.038C12.0281 13.1095 12.0828 13.1761 12.1421 13.2427C11.9005 13.9922 12.1763 14.6136 12.1763 14.6136C12.9147 14.6432 13.4002 14.2635 13.5028 14.1772C13.5757 14.2043 13.6509 14.229 13.7261 14.2487C13.954 14.3128 14.1865 14.3498 14.419 14.3596C14.476 14.3621 14.5352 14.3646 14.5922 14.3621H14.6196H14.6378H14.6743L14.7107 14.3596V14.3621C15.0595 14.8996 15.6703 14.9761 15.6703 14.9761C16.1056 14.4805 16.1307 13.9873 16.1307 13.8813C16.1307 13.8813 16.1307 13.8788 16.1307 13.8739C16.1307 13.864 16.1307 13.8591 16.1307 13.8591C16.1307 13.8517 16.1307 13.8443 16.1307 13.8369C16.2218 13.7679 16.3085 13.6939 16.3905 13.6125C16.5637 13.4424 16.7164 13.2476 16.8441 13.038C16.8555 13.0183 16.8669 12.9985 16.8783 12.9788C17.3706 13.0084 17.7193 12.6484 17.7193 12.6484C17.6372 12.0936 17.3455 11.8224 17.284 11.7706C17.284 11.7706 17.2817 11.7681 17.2771 11.7657C17.2726 11.7632 17.2726 11.7607 17.2726 11.7607C17.2703 11.7583 17.2657 11.7558 17.2612 11.7533C17.2634 11.7188 17.2657 11.6868 17.268 11.6522C17.2726 11.5931 17.2726 11.5314 17.2726 11.4722V11.4279V11.4057V11.3933C17.2726 11.3785 17.2726 11.3835 17.2726 11.3785L17.2703 11.3416L17.268 11.2922C17.268 11.275 17.2657 11.2602 17.2634 11.2454C17.2612 11.2306 17.2612 11.2133 17.2589 11.1985L17.2543 11.1517L17.2475 11.1048C17.2384 11.0432 17.2293 10.984 17.2156 10.9224C17.1632 10.6832 17.0765 10.4563 16.9649 10.2517C16.8509 10.047 16.7096 9.86703 16.5478 9.71416C16.3882 9.56128 16.2082 9.43799 16.0213 9.34676C15.8321 9.25553 15.6361 9.19635 15.4401 9.16923C15.3421 9.15443 15.2441 9.1495 15.1461 9.15197H15.1096H15.1005C15.0982 9.15197 15.0868 9.15197 15.0891 9.15197H15.0731L15.0367 9.15443C15.023 9.15443 15.0093 9.1569 14.9979 9.1569C14.9478 9.16183 14.8976 9.16923 14.8498 9.17909C14.6538 9.21854 14.4691 9.29498 14.3073 9.40101C14.1455 9.50703 14.0042 9.63772 13.8902 9.78566C13.7763 9.93361 13.6874 10.0988 13.6258 10.269C13.5643 10.4391 13.5301 10.6166 13.521 10.7868C13.5187 10.8287 13.5187 10.8731 13.5187 10.915C13.5187 10.9248 13.5187 10.9372 13.5187 10.947L13.521 10.9816C13.5233 11.0013 13.5233 11.0235 13.5256 11.0432C13.5324 11.1295 13.5483 11.2133 13.5689 11.2922C13.6122 11.4525 13.6805 11.598 13.7649 11.7213C13.8492 11.8446 13.9518 11.9457 14.0589 12.027C14.166 12.1059 14.2822 12.1627 14.3962 12.1996C14.5102 12.2366 14.6241 12.2514 14.7313 12.2514C14.7449 12.2514 14.7586 12.2514 14.77 12.2514C14.7768 12.2514 14.7837 12.2514 14.7905 12.2514C14.7973 12.2514 14.8042 12.2514 14.811 12.249C14.8224 12.249 14.8338 12.2465 14.8452 12.2465C14.8475 12.2465 14.852 12.2465 14.8543 12.244L14.8657 12.2416C14.8726 12.2416 14.8794 12.2391 14.8862 12.2391C14.8999 12.2366 14.9113 12.2342 14.925 12.2317C14.9387 12.2292 14.9501 12.2268 14.9615 12.2218C14.9865 12.2169 15.0093 12.207 15.0321 12.1996C15.0777 12.1824 15.1233 12.1627 15.162 12.1405C15.203 12.1183 15.2395 12.0911 15.276 12.0665C15.2851 12.0591 15.2965 12.0517 15.3056 12.0418C15.3421 12.0098 15.3489 11.9506 15.3193 11.9111C15.2942 11.8766 15.2486 11.8668 15.2122 11.889C15.203 11.8939 15.1939 11.8988 15.1848 11.9037C15.1529 11.921 15.121 11.9358 15.0868 11.9481C15.0526 11.9605 15.0162 11.9703 14.9797 11.9777C14.9615 11.9802 14.9432 11.9827 14.9227 11.9851C14.9136 11.9851 14.9045 11.9876 14.8931 11.9876C14.884 11.9876 14.8726 11.9876 14.8657 11.9876C14.8566 11.9876 14.8475 11.9876 14.8384 11.9876C14.827 11.9876 14.8156 11.9876 14.8042 11.9851C14.8042 11.9851 14.7973 11.9851 14.8019 11.9851H14.7973H14.7905C14.786 11.9851 14.7791 11.9851 14.7746 11.9827C14.7632 11.9802 14.754 11.9802 14.7426 11.9777C14.6583 11.9654 14.574 11.9383 14.4942 11.8988C14.4122 11.8594 14.3347 11.8051 14.264 11.7361C14.1934 11.667 14.1318 11.5857 14.084 11.492C14.0361 11.3983 14.0019 11.2947 13.986 11.1862C13.9791 11.132 13.9746 11.0753 13.9768 11.021C13.9768 11.0062 13.9791 10.9914 13.9791 10.9766C13.9791 10.9816 13.9791 10.9742 13.9791 10.9742V10.9692V10.9569C13.9791 10.9495 13.9814 10.9421 13.9814 10.9347C13.9837 10.9051 13.9882 10.8755 13.9928 10.8459C14.0315 10.6092 14.1409 10.3774 14.3096 10.2024C14.3529 10.158 14.3985 10.1185 14.4464 10.0816C14.4942 10.0446 14.5466 10.0125 14.6013 9.98539C14.656 9.95827 14.7107 9.93608 14.77 9.91881C14.827 9.90155 14.8862 9.89169 14.9478 9.88429C14.9774 9.88183 15.007 9.87936 15.0389 9.87936C15.0481 9.87936 15.0526 9.87936 15.0595 9.87936H15.0845H15.1005C15.1073 9.87936 15.1005 9.87936 15.1028 9.87936H15.1096L15.1347 9.88183C15.2008 9.88676 15.2646 9.89662 15.3284 9.91388C15.456 9.94347 15.5814 9.99525 15.6976 10.0643C15.9301 10.2048 16.1284 10.4218 16.2492 10.6832C16.3107 10.8139 16.354 10.9544 16.3746 11.0999C16.3791 11.1369 16.3837 11.1739 16.386 11.2109L16.3882 11.238L16.3905 11.2651C16.3905 11.275 16.3905 11.2848 16.3905 11.2922C16.3905 11.3021 16.3905 11.312 16.3905 11.3194V11.344V11.3711C16.3905 11.3884 16.3882 11.418 16.3882 11.4353C16.386 11.4747 16.3814 11.5166 16.3768 11.5561C16.3723 11.5955 16.3654 11.635 16.3586 11.6744C16.3518 11.7139 16.3426 11.7533 16.3335 11.7903C16.3153 11.8668 16.2925 11.9432 16.2652 12.0196C16.2105 12.1676 16.1375 12.3106 16.0509 12.4413C15.8754 12.7027 15.6361 12.9147 15.3626 13.0503C15.2258 13.1169 15.0822 13.1662 14.9341 13.1909C14.8612 13.2057 14.786 13.2131 14.7107 13.2155H14.6971H14.6857H14.6606H14.6241H14.6059C14.615 13.2155 14.6036 13.2155 14.6036 13.2155H14.5968C14.5558 13.2155 14.517 13.2131 14.476 13.2081C14.3164 13.1958 14.1592 13.1637 14.0042 13.1169C13.8515 13.07 13.7033 13.0035 13.562 12.9246C13.2817 12.7618 13.0287 12.5399 12.8327 12.2711C12.7347 12.138 12.6481 11.9925 12.5774 11.8421C12.5067 11.6917 12.4498 11.5314 12.4087 11.3711C12.3677 11.2084 12.3426 11.0432 12.3313 10.8755L12.329 10.8435V10.8361V10.8287V10.8139V10.7868V10.7794V10.7695V10.7498V10.7103V10.7029C12.329 10.7029 12.329 10.7054 12.329 10.7005V10.6857C12.329 10.6659 12.329 10.6437 12.329 10.624C12.3313 10.5427 12.3381 10.4563 12.3472 10.3725C12.3563 10.2887 12.37 10.2024 12.386 10.1185C12.4019 10.0347 12.4201 9.95087 12.4429 9.86703C12.4862 9.70183 12.5409 9.54155 12.6048 9.39114C12.7347 9.09032 12.9033 8.82155 13.1062 8.60703C13.1563 8.55279 13.2087 8.50347 13.2634 8.45416C13.3181 8.40731 13.3751 8.36292 13.4344 8.32101C13.4914 8.27909 13.5529 8.2421 13.6144 8.20758C13.6441 8.19032 13.676 8.17306 13.7079 8.15827C13.7238 8.15087 13.7398 8.14347 13.7558 8.13608C13.7717 8.12868 13.7877 8.12128 13.8036 8.11388C13.8674 8.08429 13.9335 8.05964 14.0019 8.03745C14.0179 8.03251 14.0361 8.02758 14.052 8.02019C14.068 8.01525 14.0862 8.01032 14.1022 8.00539C14.1364 7.99553 14.1706 7.98566 14.2048 7.97827C14.2207 7.97334 14.2389 7.97087 14.2572 7.96594C14.2754 7.96101 14.2914 7.95854 14.3096 7.95361C14.3278 7.95114 14.3438 7.94621 14.362 7.94375L14.3871 7.93882L14.4144 7.93388C14.4327 7.93142 14.4486 7.92895 14.4669 7.92649C14.4874 7.92402 14.5056 7.92155 14.5261 7.91909C14.5421 7.91662 14.5694 7.91416 14.5854 7.91169C14.5968 7.90923 14.6105 7.90923 14.6218 7.90676L14.6469 7.90429L14.6583 7.90183H14.672C14.6925 7.89936 14.7107 7.89936 14.7313 7.8969L14.7609 7.89443C14.7609 7.89443 14.7723 7.89443 14.7632 7.89443H14.77H14.7837C14.7996 7.89443 14.8179 7.89197 14.8338 7.89197C14.8999 7.8895 14.9683 7.8895 15.0344 7.89197C15.1666 7.8969 15.2965 7.91416 15.4218 7.93882C15.6748 7.9906 15.9119 8.0769 16.1284 8.19279C16.3449 8.30621 16.5364 8.44676 16.705 8.59964C16.7164 8.6095 16.7256 8.61936 16.7369 8.62923C16.7461 8.63909 16.7575 8.64895 16.7666 8.65882C16.7871 8.67854 16.8053 8.69827 16.8258 8.71799C16.8464 8.73772 16.8646 8.75745 16.8828 8.77717C16.9011 8.7969 16.9193 8.81662 16.9375 8.83882C17.0082 8.92018 17.0743 9.00155 17.1335 9.08539C17.252 9.2506 17.3478 9.41827 17.423 9.57608C17.4275 9.58594 17.4321 9.5958 17.4367 9.60566C17.4412 9.61553 17.4458 9.62539 17.4503 9.63525C17.4595 9.65498 17.4686 9.67471 17.4754 9.69443C17.4845 9.71416 17.4914 9.73142 17.5005 9.75114C17.5073 9.77087 17.5164 9.78813 17.5233 9.80786C17.5506 9.88183 17.578 9.95334 17.5985 10.0199C17.6327 10.1284 17.6577 10.2246 17.6783 10.3084C17.6851 10.3429 17.7147 10.3651 17.7466 10.3602C17.7808 10.3577 17.8059 10.3281 17.8059 10.2911C17.8082 10.2024 17.8059 10.0963 17.7945 9.97553Z" fill="#86888E"/>
</g>
<rect x="10" y="31" width="331" height="147" rx="5" fill="#1D1F22"/>
<g filter="url(#filter4_d_2658_38654)">
<path d="M25 53C25 50.2386 27.2386 48 30 48H48C50.7614 48 53 50.2386 53 53V163H25V53Z" fill="#BBBBBB"/>
</g>
<g filter="url(#filter5_d_2658_38654)">
<path d="M63 71C63 68.2386 65.2386 66 68 66H86C88.7614 66 91 68.2386 91 71V163H63V71Z" fill="#EEEFF1"/>
</g>
<g filter="url(#filter6_d_2658_38654)">
<path d="M101 64C101 61.2386 103.239 59 106 59H124C126.761 59 129 61.2386 129 64V163H101V64Z" fill="#D9D9D9"/>
</g>
<g filter="url(#filter7_d_2658_38654)">
<path d="M139 53C139 50.2386 141.239 48 144 48H162C164.761 48 167 50.2386 167 53V163H139V53Z" fill="#ACADAE"/>
</g>
<g filter="url(#filter8_d_2658_38654)">
<path d="M177 64C177 61.2386 179.239 59 182 59H200C202.761 59 205 61.2386 205 64V163H177V64Z" fill="#9FA1A6"/>
</g>
<g filter="url(#filter9_d_2658_38654)">
<path d="M215 82C215 79.2386 217.239 77 220 77H238C240.761 77 243 79.2386 243 82V163H215V82Z" fill="#86888E"/>
</g>
<g filter="url(#filter10_d_2658_38654)">
<path d="M253 53C253 50.2386 255.239 48 258 48H276C278.761 48 281 50.2386 281 53V163H253V53Z" fill="#575B62"/>
</g>
<g filter="url(#filter11_d_2658_38654)">
<path d="M291 71C291 68.2386 293.239 66 296 66H314C316.761 66 319 68.2386 319 71V163H291V71Z" fill="#484A4E"/>
</g>
<defs>
<filter id="filter4_d_2658_38654" x="10" y="23" width="68" height="155" filterUnits="userSpaceOnUse" color-interpolation-filters="sRGB">
<feFlood flood-opacity="0" result="BackgroundImageFix"/>
<feColorMatrix in="SourceAlpha" type="matrix" values="0 0 0 0 0 0 0 0 0 0 0 0 0 0 0 0 0 0 127 0" result="hardAlpha"/>
<feOffset dx="5" dy="-5"/>
<feGaussianBlur stdDeviation="10"/>
<feComposite in2="hardAlpha" operator="out"/>
<feColorMatrix type="matrix" values="0 0 0 0 0 0 0 0 0 0 0 0 0 0 0 0 0 0 0.5 0"/>
<feBlend mode="normal" in2="BackgroundImageFix" result="effect1_dropShadow_2658_38654"/>
<feBlend mode="normal" in="SourceGraphic" in2="effect1_dropShadow_2658_38654" result="shape"/>
</filter>
<filter id="filter5_d_2658_38654" x="48" y="41" width="68" height="137" filterUnits="userSpaceOnUse" color-interpolation-filters="sRGB">
<feFlood flood-opacity="0" result="BackgroundImageFix"/>
<feColorMatrix in="SourceAlpha" type="matrix" values="0 0 0 0 0 0 0 0 0 0 0 0 0 0 0 0 0 0 127 0" result="hardAlpha"/>
<feOffset dx="5" dy="-5"/>
<feGaussianBlur stdDeviation="10"/>
<feComposite in2="hardAlpha" operator="out"/>
<feColorMatrix type="matrix" values="0 0 0 0 0 0 0 0 0 0 0 0 0 0 0 0 0 0 0.5 0"/>
<feBlend mode="normal" in2="BackgroundImageFix" result="effect1_dropShadow_2658_38654"/>
<feBlend mode="normal" in="SourceGraphic" in2="effect1_dropShadow_2658_38654" result="shape"/>
</filter>
<filter id="filter6_d_2658_38654" x="86" y="34" width="68" height="144" filterUnits="userSpaceOnUse" color-interpolation-filters="sRGB">
<feFlood flood-opacity="0" result="BackgroundImageFix"/>
<feColorMatrix in="SourceAlpha" type="matrix" values="0 0 0 0 0 0 0 0 0 0 0 0 0 0 0 0 0 0 127 0" result="hardAlpha"/>
<feOffset dx="5" dy="-5"/>
<feGaussianBlur stdDeviation="10"/>
<feComposite in2="hardAlpha" operator="out"/>
<feColorMatrix type="matrix" values="0 0 0 0 0 0 0 0 0 0 0 0 0 0 0 0 0 0 0.5 0"/>
<feBlend mode="normal" in2="BackgroundImageFix" result="effect1_dropShadow_2658_38654"/>
<feBlend mode="normal" in="SourceGraphic" in2="effect1_dropShadow_2658_38654" result="shape"/>
</filter>
<filter id="filter7_d_2658_38654" x="124" y="23" width="68" height="155" filterUnits="userSpaceOnUse" color-interpolation-filters="sRGB">
<feFlood flood-opacity="0" result="BackgroundImageFix"/>
<feColorMatrix in="SourceAlpha" type="matrix" values="0 0 0 0 0 0 0 0 0 0 0 0 0 0 0 0 0 0 127 0" result="hardAlpha"/>
<feOffset dx="5" dy="-5"/>
<feGaussianBlur stdDeviation="10"/>
<feComposite in2="hardAlpha" operator="out"/>
<feColorMatrix type="matrix" values="0 0 0 0 0 0 0 0 0 0 0 0 0 0 0 0 0 0 0.5 0"/>
<feBlend mode="normal" in2="BackgroundImageFix" result="effect1_dropShadow_2658_38654"/>
<feBlend mode="normal" in="SourceGraphic" in2="effect1_dropShadow_2658_38654" result="shape"/>
</filter>
<filter id="filter8_d_2658_38654" x="162" y="34" width="68" height="144" filterUnits="userSpaceOnUse" color-interpolation-filters="sRGB">
<feFlood flood-opacity="0" result="BackgroundImageFix"/>
<feColorMatrix in="SourceAlpha" type="matrix" values="0 0 0 0 0 0 0 0 0 0 0 0 0 0 0 0 0 0 127 0" result="hardAlpha"/>
<feOffset dx="5" dy="-5"/>
<feGaussianBlur stdDeviation="10"/>
<feComposite in2="hardAlpha" operator="out"/>
<feColorMatrix type="matrix" values="0 0 0 0 0 0 0 0 0 0 0 0 0 0 0 0 0 0 0.5 0"/>
<feBlend mode="normal" in2="BackgroundImageFix" result="effect1_dropShadow_2658_38654"/>
<feBlend mode="normal" in="SourceGraphic" in2="effect1_dropShadow_2658_38654" result="shape"/>
</filter>
<filter id="filter9_d_2658_38654" x="200" y="52" width="68" height="126" filterUnits="userSpaceOnUse" color-interpolation-filters="sRGB">
<feFlood flood-opacity="0" result="BackgroundImageFix"/>
<feColorMatrix in="SourceAlpha" type="matrix" values="0 0 0 0 0 0 0 0 0 0 0 0 0 0 0 0 0 0 127 0" result="hardAlpha"/>
<feOffset dx="5" dy="-5"/>
<feGaussianBlur stdDeviation="10"/>
<feComposite in2="hardAlpha" operator="out"/>
<feColorMatrix type="matrix" values="0 0 0 0 0 0 0 0 0 0 0 0 0 0 0 0 0 0 0.5 0"/>
<feBlend mode="normal" in2="BackgroundImageFix" result="effect1_dropShadow_2658_38654"/>
<feBlend mode="normal" in="SourceGraphic" in2="effect1_dropShadow_2658_38654" result="shape"/>
</filter>
<filter id="filter10_d_2658_38654" x="238" y="23" width="68" height="155" filterUnits="userSpaceOnUse" color-interpolation-filters="sRGB">
<feFlood flood-opacity="0" result="BackgroundImageFix"/>
<feColorMatrix in="SourceAlpha" type="matrix" values="0 0 0 0 0 0 0 0 0 0 0 0 0 0 0 0 0 0 127 0" result="hardAlpha"/>
<feOffset dx="5" dy="-5"/>
<feGaussianBlur stdDeviation="10"/>
<feComposite in2="hardAlpha" operator="out"/>
<feColorMatrix type="matrix" values="0 0 0 0 0 0 0 0 0 0 0 0 0 0 0 0 0 0 0.5 0"/>
<feBlend mode="normal" in2="BackgroundImageFix" result="effect1_dropShadow_2658_38654"/>
<feBlend mode="normal" in="SourceGraphic" in2="effect1_dropShadow_2658_38654" result="shape"/>
</filter>
<filter id="filter11_d_2658_38654" x="276" y="41" width="68" height="137" filterUnits="userSpaceOnUse" color-interpolation-filters="sRGB">
<feFlood flood-opacity="0" result="BackgroundImageFix"/>
<feColorMatrix in="SourceAlpha" type="matrix" values="0 0 0 0 0 0 0 0 0 0 0 0 0 0 0 0 0 0 127 0" result="hardAlpha"/>
<feOffset dx="5" dy="-5"/>
<feGaussianBlur stdDeviation="10"/>
<feComposite in2="hardAlpha" operator="out"/>
<feColorMatrix type="matrix" values="0 0 0 0 0 0 0 0 0 0 0 0 0 0 0 0 0 0 0.5 0"/>
<feBlend mode="normal" in2="BackgroundImageFix" result="effect1_dropShadow_2658_38654"/>
<feBlend mode="normal" in="SourceGraphic" in2="effect1_dropShadow_2658_38654" result="shape"/>
</filter>
<linearGradient id="paint0_linear_2658_38654" x1="235.5" y1="60" x2="235.5" y2="248" gradientUnits="userSpaceOnUse">
<stop stop-color="#86888E"/>
<stop offset="1" stop-color="#86888E" stop-opacity="0.7"/>
</linearGradient>
<linearGradient id="paint1_linear_2658_38654" x1="60.9971" y1="81.4961" x2="410.003" y2="81.4961" gradientUnits="userSpaceOnUse">
<stop stop-color="#86888E"/>
<stop offset="1" stop-color="#86888E" stop-opacity="0.7"/>
</linearGradient>
<linearGradient id="paint2_linear_2658_38654" x1="73.9996" y1="68.7007" x2="73.9996" y2="74.9107" gradientUnits="userSpaceOnUse">
<stop stop-color="#F05A28"/>
<stop offset="1" stop-color="#FBCA0A"/>
</linearGradient>
<linearGradient id="paint3_linear_2658_38654" x1="331.801" y1="119.801" x2="248.199" y2="205.887" gradientUnits="userSpaceOnUse">
<stop stop-color="#A65DA0"/>
<stop offset="1" stop-color="#DA92D4"/>
</linearGradient>
<linearGradient id="paint4_linear_2658_38654" x1="215.5" y1="40" x2="215.5" y2="228" gradientUnits="userSpaceOnUse">
<stop stop-color="#86888E"/>
<stop offset="1" stop-color="#86888E" stop-opacity="0.7"/>
</linearGradient>
<linearGradient id="paint5_linear_2658_38654" x1="40.9971" y1="61.4961" x2="390.003" y2="61.4961" gradientUnits="userSpaceOnUse">
<stop stop-color="#86888E"/>
<stop offset="1" stop-color="#86888E" stop-opacity="0.7"/>
</linearGradient>
<linearGradient id="paint6_linear_2658_38654" x1="53.9996" y1="48.7007" x2="53.9996" y2="54.9107" gradientUnits="userSpaceOnUse">
<stop stop-color="#F05A28"/>
<stop offset="1" stop-color="#FBCA0A"/>
</linearGradient>
<linearGradient id="paint7_linear_2658_38654" x1="311.801" y1="99.8008" x2="228.199" y2="185.887" gradientUnits="userSpaceOnUse">
<stop stop-color="#A65DA0"/>
<stop offset="1" stop-color="#DA92D4"/>
</linearGradient>
<linearGradient id="paint8_linear_2658_38654" x1="195.5" y1="20" x2="195.5" y2="208" gradientUnits="userSpaceOnUse">
<stop stop-color="#86888E"/>
<stop offset="1" stop-color="#86888E" stop-opacity="0.7"/>
</linearGradient>
<linearGradient id="paint9_linear_2658_38654" x1="20.9971" y1="41.4961" x2="370.003" y2="41.4961" gradientUnits="userSpaceOnUse">
<stop stop-color="#86888E"/>
<stop offset="1" stop-color="#86888E" stop-opacity="0.7"/>
</linearGradient>
<linearGradient id="paint10_linear_2658_38654" x1="33.9996" y1="28.7007" x2="33.9996" y2="34.9107" gradientUnits="userSpaceOnUse">
<stop stop-color="#F05A28"/>
<stop offset="1" stop-color="#FBCA0A"/>
</linearGradient>
<linearGradient id="paint11_linear_2658_38654" x1="175.5" y1="0" x2="175.5" y2="188" gradientUnits="userSpaceOnUse">
<stop stop-color="#86888E"/>
<stop offset="1" stop-color="#86888E" stop-opacity="0.7"/>
</linearGradient>
<linearGradient id="paint12_linear_2658_38654" x1="0.99707" y1="21.4961" x2="350.003" y2="21.4961" gradientUnits="userSpaceOnUse">
<stop stop-color="#86888E"/>
<stop offset="1" stop-color="#86888E" stop-opacity="0.7"/>
</linearGradient>
<clipPath id="clip0_2658_38654">
<rect width="8" height="9" fill="white" transform="translate(70 66)"/>
</clipPath>
<clipPath id="clip1_2658_38654">
<rect width="8" height="9" fill="white" transform="translate(50 46)"/>
</clipPath>
<clipPath id="clip2_2658_38654">
<rect width="8" height="9" fill="white" transform="translate(30 26)"/>
</clipPath>
<clipPath id="clip3_2658_38654">
<rect width="8" height="9" fill="white" transform="translate(10 6)"/>
</clipPath>
</defs>
</svg>
