<svg width="273" height="182" viewBox="0 0 273 182" fill="none" xmlns="http://www.w3.org/2000/svg">
<g filter="url(#filter0_d_2654_28491)">
<rect x="20" y="10" width="99" height="36" rx="10" fill="#0C0D0E" shape-rendering="crispEdges"/>
<rect x="20.5" y="10.5" width="98" height="35" rx="9.5" stroke="#86888E" shape-rendering="crispEdges"/>
<g clip-path="url(#clip0_2654_28491)">
<path d="M35.8796 25.93C38.0696 25.93 40.1396 26.5 41.9396 27.46L48.3596 19.75H35.6396V35.05V25.93H35.8796Z" fill="#ACADAE"/>
<path d="M41.9396 27.4609L35.6396 35.0509V36.2509H48.3296C47.6096 32.4709 45.2096 29.2609 41.9396 27.4609Z" fill="#313337"/>
<path d="M41.9396 27.4609L35.6396 35.0509V36.2509H37.8896L44.0096 28.8709C44.0096 28.8709 43.5896 28.5409 43.0196 28.1209C42.5996 27.8209 41.9396 27.4609 41.9396 27.4609Z" fill="#575B62"/>
<path d="M35.8796 25.9297H35.6396V35.0497L41.9396 27.4597C40.1396 26.4997 38.0696 25.9297 35.8796 25.9297Z" fill="#86888E"/>
</g>
<path d="M65.05 33V23.2H66.226V27.638L70.314 23.2H71.798L68.158 27.106L71.854 33H70.426L67.318 28.016L66.226 29.178V33H65.05ZM73.5478 33V25.944H74.7238V33H73.5478ZM74.1358 24.446C73.9024 24.446 73.7064 24.3713 73.5478 24.222C73.3984 24.0633 73.3238 23.8673 73.3238 23.634C73.3238 23.4007 73.3984 23.214 73.5478 23.074C73.7064 22.9247 73.9024 22.85 74.1358 22.85C74.3598 22.85 74.5511 22.9247 74.7098 23.074C74.8684 23.214 74.9478 23.4007 74.9478 23.634C74.9478 23.8673 74.8684 24.0633 74.7098 24.222C74.5511 24.3713 74.3598 24.446 74.1358 24.446ZM80.7751 33.168C80.3737 33.168 80.0097 33.112 79.6831 33C79.3657 32.8787 79.0857 32.72 78.8431 32.524C78.6004 32.328 78.3997 32.0993 78.2411 31.838L78.1431 33H77.0791V22.92H78.2551V27.106C78.4791 26.742 78.8011 26.4293 79.2211 26.168C79.6411 25.9067 80.1591 25.776 80.7751 25.776C81.4564 25.776 82.0537 25.9393 82.5671 26.266C83.0804 26.5833 83.4771 27.022 83.7571 27.582C84.0464 28.1327 84.1911 28.7627 84.1911 29.472C84.1911 30.1813 84.0464 30.816 83.7571 31.376C83.4771 31.936 83.0804 32.3747 82.5671 32.692C82.0537 33.0093 81.4564 33.168 80.7751 33.168ZM80.6351 32.146C81.0924 32.146 81.4984 32.034 81.8531 31.81C82.2077 31.586 82.4831 31.278 82.6791 30.886C82.8844 30.4847 82.9871 30.0133 82.9871 29.472C82.9871 28.94 82.8844 28.4733 82.6791 28.072C82.4831 27.6707 82.2077 27.358 81.8531 27.134C81.4984 26.91 81.0924 26.798 80.6351 26.798C80.1684 26.798 79.7577 26.91 79.4031 27.134C79.0484 27.358 78.7731 27.6707 78.5771 28.072C78.3811 28.4733 78.2831 28.94 78.2831 29.472C78.2831 30.0133 78.3811 30.4847 78.5771 30.886C78.7731 31.278 79.0484 31.586 79.4031 31.81C79.7577 32.034 80.1684 32.146 80.6351 32.146ZM88.4187 33.168C87.8494 33.168 87.3734 33.07 86.9907 32.874C86.6081 32.6687 86.3234 32.4027 86.1367 32.076C85.9501 31.74 85.8567 31.376 85.8567 30.984C85.8567 30.508 85.9781 30.1067 86.2207 29.78C86.4727 29.444 86.8227 29.192 87.2707 29.024C87.7281 28.8467 88.2647 28.758 88.8807 28.758H90.7427C90.7427 28.3193 90.6727 27.9553 90.5327 27.666C90.4021 27.3673 90.2061 27.1433 89.9447 26.994C89.6927 26.8447 89.3754 26.77 88.9927 26.77C88.5447 26.77 88.1574 26.882 87.8307 27.106C87.5041 27.33 87.3034 27.6613 87.2287 28.1H86.0247C86.0807 27.596 86.2487 27.176 86.5287 26.84C86.8181 26.4947 87.1821 26.2333 87.6207 26.056C88.0594 25.8693 88.5167 25.776 88.9927 25.776C89.6461 25.776 90.1874 25.8973 90.6167 26.14C91.0554 26.3733 91.3821 26.7047 91.5967 27.134C91.8114 27.554 91.9187 28.0533 91.9187 28.632V33H90.8687L90.7987 31.754C90.7054 31.95 90.5841 32.1367 90.4347 32.314C90.2947 32.482 90.1267 32.6313 89.9307 32.762C89.7347 32.8833 89.5107 32.9813 89.2587 33.056C89.0161 33.1307 88.7361 33.168 88.4187 33.168ZM88.6007 32.174C88.9274 32.174 89.2214 32.1087 89.4827 31.978C89.7534 31.838 89.9821 31.6513 90.1687 31.418C90.3554 31.1753 90.4954 30.9093 90.5887 30.62C90.6914 30.3307 90.7427 30.0273 90.7427 29.71V29.668H88.9787C88.5214 29.668 88.1527 29.724 87.8727 29.836C87.5927 29.9387 87.3921 30.088 87.2707 30.284C87.1494 30.4707 87.0887 30.6853 87.0887 30.928C87.0887 31.18 87.1447 31.3993 87.2567 31.586C87.3781 31.7727 87.5507 31.9173 87.7747 32.02C88.0081 32.1227 88.2834 32.174 88.6007 32.174ZM94.018 33V25.944H95.082L95.138 27.176C95.362 26.7373 95.6793 26.3967 96.09 26.154C96.51 25.902 96.986 25.776 97.518 25.776C98.0686 25.776 98.5446 25.888 98.946 26.112C99.3473 26.3267 99.66 26.658 99.884 27.106C100.108 27.5447 100.22 28.1047 100.22 28.786V33H99.044V28.912C99.044 28.2027 98.8853 27.6707 98.568 27.316C98.26 26.9613 97.8213 26.784 97.252 26.784C96.86 26.784 96.51 26.882 96.202 27.078C95.894 27.2647 95.6466 27.54 95.46 27.904C95.2826 28.2587 95.194 28.702 95.194 29.234V33H94.018ZM104.633 33.168C104.064 33.168 103.588 33.07 103.205 32.874C102.822 32.6687 102.538 32.4027 102.351 32.076C102.164 31.74 102.071 31.376 102.071 30.984C102.071 30.508 102.192 30.1067 102.435 29.78C102.687 29.444 103.037 29.192 103.485 29.024C103.942 28.8467 104.479 28.758 105.095 28.758H106.957C106.957 28.3193 106.887 27.9553 106.747 27.666C106.616 27.3673 106.42 27.1433 106.159 26.994C105.907 26.8447 105.59 26.77 105.207 26.77C104.759 26.77 104.372 26.882 104.045 27.106C103.718 27.33 103.518 27.6613 103.443 28.1H102.239C102.295 27.596 102.463 27.176 102.743 26.84C103.032 26.4947 103.396 26.2333 103.835 26.056C104.274 25.8693 104.731 25.776 105.207 25.776C105.86 25.776 106.402 25.8973 106.831 26.14C107.27 26.3733 107.596 26.7047 107.811 27.134C108.026 27.554 108.133 28.0533 108.133 28.632V33H107.083L107.013 31.754C106.92 31.95 106.798 32.1367 106.649 32.314C106.509 32.482 106.341 32.6313 106.145 32.762C105.949 32.8833 105.725 32.9813 105.473 33.056C105.23 33.1307 104.95 33.168 104.633 33.168ZM104.815 32.174C105.142 32.174 105.436 32.1087 105.697 31.978C105.968 31.838 106.196 31.6513 106.383 31.418C106.57 31.1753 106.71 30.9093 106.803 30.62C106.906 30.3307 106.957 30.0273 106.957 29.71V29.668H105.193C104.736 29.668 104.367 29.724 104.087 29.836C103.807 29.9387 103.606 30.088 103.485 30.284C103.364 30.4707 103.303 30.6853 103.303 30.928C103.303 31.18 103.359 31.3993 103.471 31.586C103.592 31.7727 103.765 31.9173 103.989 32.02C104.222 32.1227 104.498 32.174 104.815 32.174Z" fill="white"/>
</g>
<g filter="url(#filter1_d_2654_28491)">
<rect x="20" y="63" width="102.079" height="36" rx="10" fill="#0C0D0E" shape-rendering="crispEdges"/>
<rect x="20.5" y="63.5" width="101.079" height="35" rx="9.5" stroke="#86888E" shape-rendering="crispEdges"/>
<path d="M44.2541 71H38.9524C38.4965 71 38.127 71.3695 38.127 71.8254V90.1746C38.127 90.6305 38.4965 91 38.9524 91H44.2541C44.7099 91 45.0795 90.6305 45.0795 90.1746V71.8254C45.0795 71.3695 44.7099 71 44.2541 71Z" fill="#575B62"/>
<g filter="url(#filter2_d_2654_28491)">
<path d="M40.9848 90.1749V91.0002H40.1594H34.8576C34.4018 91.0002 34.0322 90.6307 34.0322 90.1749V76.8098C34.0322 76.3539 34.4018 75.9844 34.8576 75.9844H40.1594C40.6152 75.9844 40.9848 76.3539 40.9848 76.8098V90.1749Z" fill="black"/>
</g>
<path d="M40.9848 90.1749V91.0002H40.1594H34.8576C34.4018 91.0002 34.0322 90.6307 34.0322 90.1749V76.8098C34.0322 76.3539 34.4018 75.9844 34.8576 75.9844H40.1594C40.6152 75.9844 40.9848 76.3539 40.9848 76.8098V90.1749Z" fill="#86888E"/>
<path fill-rule="evenodd" clip-rule="evenodd" d="M36.9525 90.1746V91H36.1271H30.8254C30.3696 91 30 90.6305 30 90.1746V81.8254C30 81.3695 30.3696 81 30.8254 81H36.1271C36.583 81 36.9525 81.3695 36.9525 81.8254V90.1746Z" fill="#9FA1A6"/>
<path d="M56.1291 86V76.2H59.3211C60.0958 76.2 60.7304 76.3307 61.2251 76.592C61.7291 76.844 62.0978 77.1847 62.3311 77.614C62.5738 78.0433 62.6951 78.5333 62.6951 79.084C62.6951 79.616 62.5738 80.1013 62.3311 80.54C62.0978 80.9693 61.7338 81.3147 61.2391 81.576C60.7444 81.8373 60.1051 81.968 59.3211 81.968H57.3051V86H56.1291ZM57.3051 80.974H59.3071C60.0911 80.974 60.6511 80.8013 60.9871 80.456C61.3231 80.1107 61.4911 79.6533 61.4911 79.084C61.4911 78.4773 61.3231 78.0107 60.9871 77.684C60.6511 77.348 60.0911 77.18 59.3071 77.18H57.3051V80.974ZM67.2 86.168C66.5467 86.168 65.9587 86.0187 65.436 85.72C64.9134 85.412 64.5027 84.9827 64.204 84.432C63.9054 83.872 63.756 83.2233 63.756 82.486C63.756 81.73 63.9054 81.0767 64.204 80.526C64.512 79.966 64.9274 79.5367 65.45 79.238C65.982 78.93 66.5747 78.776 67.228 78.776C67.9 78.776 68.4927 78.93 69.006 79.238C69.5287 79.5367 69.9394 79.966 70.238 80.526C70.546 81.0767 70.7 81.7253 70.7 82.472C70.7 83.2187 70.546 83.872 70.238 84.432C69.93 84.9827 69.5147 85.412 68.992 85.72C68.4694 86.0187 67.872 86.168 67.2 86.168ZM67.214 85.16C67.6154 85.16 67.9887 85.062 68.334 84.866C68.6794 84.6607 68.9594 84.3573 69.174 83.956C69.3887 83.5547 69.496 83.06 69.496 82.472C69.496 81.8747 69.3887 81.38 69.174 80.988C68.9687 80.5867 68.6934 80.288 68.348 80.092C68.012 79.8867 67.6387 79.784 67.228 79.784C66.836 79.784 66.4627 79.8867 66.108 80.092C65.7627 80.288 65.4827 80.5867 65.268 80.988C65.0627 81.38 64.96 81.8747 64.96 82.472C64.96 83.06 65.0627 83.5547 65.268 83.956C65.4827 84.3573 65.758 84.6607 66.094 84.866C66.4394 85.062 66.8127 85.16 67.214 85.16ZM73.7971 86L71.7251 78.944H72.9011L74.5111 84.894H74.3011L76.0511 78.944H77.3811L79.1591 84.88L78.9351 84.894L80.5311 78.944H81.7211L79.6631 86H78.4591L76.6111 79.784H76.8491L75.0011 86H73.7971ZM86.1611 86.168C85.4984 86.168 84.9104 86.014 84.3971 85.706C83.8931 85.398 83.4964 84.9687 83.2071 84.418C82.9177 83.858 82.7731 83.2093 82.7731 82.472C82.7731 81.7253 82.9131 81.0767 83.1931 80.526C83.4824 79.9753 83.8837 79.546 84.3971 79.238C84.9197 78.93 85.5171 78.776 86.1891 78.776C86.8797 78.776 87.4631 78.93 87.9391 79.238C88.4244 79.546 88.7931 79.952 89.0451 80.456C89.3064 80.9507 89.4371 81.4967 89.4371 82.094C89.4371 82.1873 89.4371 82.2853 89.4371 82.388C89.4371 82.4907 89.4324 82.6073 89.4231 82.738H83.6551V81.828H88.2891C88.2611 81.184 88.0464 80.68 87.6451 80.316C87.2531 79.952 86.7584 79.77 86.1611 79.77C85.7597 79.77 85.3864 79.8633 85.0411 80.05C84.7051 80.2273 84.4344 80.4933 84.2291 80.848C84.0237 81.1933 83.9211 81.6273 83.9211 82.15V82.542C83.9211 83.1207 84.0237 83.606 84.2291 83.998C84.4437 84.39 84.7191 84.684 85.0551 84.88C85.4004 85.076 85.7691 85.174 86.1611 85.174C86.6557 85.174 87.0617 85.0667 87.3791 84.852C87.7057 84.628 87.9391 84.3293 88.0791 83.956H89.2411C89.1291 84.376 88.9331 84.754 88.6531 85.09C88.3731 85.426 88.0231 85.692 87.6031 85.888C87.1924 86.0747 86.7117 86.168 86.1611 86.168ZM91.3041 86V78.944H92.3681L92.4521 80.288C92.6108 79.9707 92.8114 79.7 93.0541 79.476C93.3061 79.252 93.6048 79.0793 93.9501 78.958C94.3048 78.8367 94.7061 78.776 95.1541 78.776V80.008H94.7201C94.4214 80.008 94.1368 80.05 93.8661 80.134C93.5954 80.2087 93.3528 80.3347 93.1381 80.512C92.9328 80.6893 92.7694 80.932 92.6481 81.24C92.5361 81.5387 92.4801 81.912 92.4801 82.36V86H91.3041ZM100.834 86V76.2H104.278C104.969 76.2 105.538 76.312 105.986 76.536C106.444 76.7507 106.784 77.0493 107.008 77.432C107.232 77.8053 107.344 78.2253 107.344 78.692C107.344 79.196 107.232 79.616 107.008 79.952C106.794 80.288 106.509 80.5447 106.154 80.722C105.809 80.8993 105.44 81.0067 105.048 81.044L105.244 80.904C105.664 80.9133 106.052 81.0253 106.406 81.24C106.761 81.4547 107.041 81.744 107.246 82.108C107.461 82.472 107.568 82.878 107.568 83.326C107.568 83.8207 107.447 84.2733 107.204 84.684C106.962 85.0853 106.602 85.4073 106.126 85.65C105.66 85.8833 105.081 86 104.39 86H100.834ZM102.01 85.02H104.264C104.927 85.02 105.44 84.866 105.804 84.558C106.178 84.2407 106.364 83.802 106.364 83.242C106.364 82.6913 106.173 82.2527 105.79 81.926C105.417 81.59 104.899 81.422 104.236 81.422H102.01V85.02ZM102.01 80.484H104.194C104.829 80.484 105.31 80.3347 105.636 80.036C105.972 79.7373 106.14 79.3313 106.14 78.818C106.14 78.3233 105.972 77.9267 105.636 77.628C105.31 77.3293 104.815 77.18 104.152 77.18H102.01V80.484ZM109.55 86V76.2H110.726V86H109.55Z" fill="white"/>
</g>
<g filter="url(#filter3_d_2654_28491)">
<rect x="137" y="10" width="116" height="36" rx="10" fill="#0C0D0E" shape-rendering="crispEdges"/>
<rect x="137.5" y="10.5" width="115" height="35" rx="9.5" stroke="#86888E" shape-rendering="crispEdges"/>
<path d="M148.515 24.3315C149.352 24.3315 150.03 23.7864 150.03 23.114C150.03 22.4416 149.352 21.8965 148.515 21.8965C147.678 21.8965 147 22.4416 147 23.114C147 23.7864 147.678 24.3315 148.515 24.3315Z" fill="#86888E"/>
<path d="M148.515 27.7397C149.352 27.7397 150.03 27.1946 150.03 26.5222C150.03 25.8498 149.352 25.3047 148.515 25.3047C147.678 25.3047 147 25.8498 147 26.5222C147 27.1946 147.678 27.7397 148.515 27.7397Z" fill="#86888E"/>
<path opacity="0.2" d="M152.757 24.3315C153.594 24.3315 154.272 23.7864 154.272 23.114C154.272 22.4416 153.594 21.8965 152.757 21.8965C151.921 21.8965 151.242 22.4416 151.242 23.114C151.242 23.7864 151.921 24.3315 152.757 24.3315Z" fill="#86888E"/>
<path d="M152.757 27.7729C153.594 27.7729 154.272 27.2278 154.272 26.5554C154.272 25.883 153.594 25.3379 152.757 25.3379C151.921 25.3379 151.242 25.883 151.242 26.5554C151.242 27.2278 151.921 27.7729 152.757 27.7729Z" fill="#86888E"/>
<path opacity="0.2" d="M157 24.3315C157.836 24.3315 158.515 23.7864 158.515 23.114C158.515 22.4416 157.836 21.8965 157 21.8965C156.163 21.8965 155.484 22.4416 155.484 23.114C155.484 23.7864 156.163 24.3315 157 24.3315Z" fill="#86888E"/>
<path opacity="0.2" d="M157 20.435C157.836 20.435 158.515 19.8899 158.515 19.2175C158.515 18.5451 157.836 18 157 18C156.163 18 155.484 18.5451 155.484 19.2175C155.484 19.8899 156.163 20.435 157 20.435Z" fill="#86888E"/>
<path opacity="0.2" d="M157 27.7729C157.836 27.7729 158.515 27.2278 158.515 26.5554C158.515 25.883 157.836 25.3379 157 25.3379C156.163 25.3379 155.484 25.883 155.484 26.5554C155.484 27.2278 156.163 27.7729 157 27.7729Z" fill="#86888E"/>
<path opacity="0.2" d="M161.242 24.3315C162.079 24.3315 162.757 23.7864 162.757 23.114C162.757 22.4416 162.079 21.8965 161.242 21.8965C160.405 21.8965 159.727 22.4416 159.727 23.114C159.727 23.7864 160.405 24.3315 161.242 24.3315Z" fill="#86888E"/>
<path d="M165.485 24.3315C166.322 24.3315 167 23.7864 167 23.114C167 22.4416 166.322 21.8965 165.485 21.8965C164.648 21.8965 163.97 22.4416 163.97 23.114C163.97 23.7864 164.648 24.3315 165.485 24.3315Z" fill="#86888E"/>
<path d="M161.242 27.7729C162.079 27.7729 162.757 27.2278 162.757 26.5554C162.757 25.883 162.079 25.3379 161.242 25.3379C160.405 25.3379 159.727 25.883 159.727 26.5554C159.727 27.2278 160.405 27.7729 161.242 27.7729Z" fill="#86888E"/>
<path d="M165.485 27.7729C166.322 27.7729 167 27.2278 167 26.5554C167 25.883 166.322 25.3379 165.485 25.3379C164.648 25.3379 163.97 25.883 163.97 26.5554C163.97 27.2278 164.648 27.7729 165.485 27.7729Z" fill="#86888E"/>
<path d="M148.515 31.1498C149.352 31.1498 150.03 30.6047 150.03 29.9323C150.03 29.2599 149.352 28.7148 148.515 28.7148C147.678 28.7148 147 29.2599 147 29.9323C147 30.6047 147.678 31.1498 148.515 31.1498Z" fill="#86888E"/>
<path opacity="0.2" d="M152.757 31.183C153.594 31.183 154.272 30.638 154.272 29.9655C154.272 29.2931 153.594 28.748 152.757 28.748C151.921 28.748 151.242 29.2931 151.242 29.9655C151.242 30.638 151.921 31.183 152.757 31.183Z" fill="#86888E"/>
<path d="M157 31.183C157.836 31.183 158.515 30.638 158.515 29.9655C158.515 29.2931 157.836 28.748 157 28.748C156.163 28.748 155.484 29.2931 155.484 29.9655C155.484 30.638 156.163 31.183 157 31.183Z" fill="#86888E"/>
<path opacity="0.2" d="M161.242 31.183C162.079 31.183 162.757 30.638 162.757 29.9655C162.757 29.2931 162.079 28.748 161.242 28.748C160.405 28.748 159.727 29.2931 159.727 29.9655C159.727 30.638 160.405 31.183 161.242 31.183Z" fill="#86888E"/>
<path d="M165.485 31.183C166.322 31.183 167 30.638 167 29.9655C167 29.2931 166.322 28.748 165.485 28.748C164.648 28.748 163.97 29.2931 163.97 29.9655C163.97 30.638 164.648 31.183 165.485 31.183Z" fill="#86888E"/>
<path d="M148.515 34.558C149.352 34.558 150.03 34.013 150.03 33.3405C150.03 32.6681 149.352 32.123 148.515 32.123C147.678 32.123 147 32.6681 147 33.3405C147 34.013 147.678 34.558 148.515 34.558Z" fill="#86888E"/>
<path opacity="0.2" d="M152.757 34.5912C153.594 34.5912 154.272 34.0462 154.272 33.3737C154.272 32.7013 153.594 32.1562 152.757 32.1562C151.921 32.1562 151.242 32.7013 151.242 33.3737C151.242 34.0462 151.921 34.5912 152.757 34.5912Z" fill="#86888E"/>
<path opacity="0.2" d="M157 34.5912C157.836 34.5912 158.515 34.0462 158.515 33.3737C158.515 32.7013 157.836 32.1562 157 32.1562C156.163 32.1562 155.484 32.7013 155.484 33.3737C155.484 34.0462 156.163 34.5912 157 34.5912Z" fill="#86888E"/>
<path opacity="0.2" d="M157 37.9995C157.836 37.9995 158.515 37.4544 158.515 36.782C158.515 36.1095 157.836 35.5645 157 35.5645C156.163 35.5645 155.484 36.1095 155.484 36.782C155.484 37.4544 156.163 37.9995 157 37.9995Z" fill="#86888E"/>
<path opacity="0.2" d="M161.242 34.5912C162.079 34.5912 162.757 34.0462 162.757 33.3737C162.757 32.7013 162.079 32.1562 161.242 32.1562C160.405 32.1562 159.727 32.7013 159.727 33.3737C159.727 34.0462 160.405 34.5912 161.242 34.5912Z" fill="#86888E"/>
<path d="M165.485 34.5912C166.322 34.5912 167 34.0462 167 33.3737C167 32.7013 166.322 32.1562 165.485 32.1562C164.648 32.1562 163.97 32.7013 163.97 33.3737C163.97 34.0462 164.648 34.5912 165.485 34.5912Z" fill="#86888E"/>
<path d="M178.05 33V23.2H179.422L182.88 30.046L186.352 23.2H187.738V33H186.562V25.3L183.328 31.628H182.446L179.226 25.328V33H178.05ZM193.125 33.168C192.463 33.168 191.875 33.014 191.361 32.706C190.857 32.398 190.461 31.9687 190.171 31.418C189.882 30.858 189.737 30.2093 189.737 29.472C189.737 28.7253 189.877 28.0767 190.157 27.526C190.447 26.9753 190.848 26.546 191.361 26.238C191.884 25.93 192.481 25.776 193.153 25.776C193.844 25.776 194.427 25.93 194.903 26.238C195.389 26.546 195.757 26.952 196.009 27.456C196.271 27.9507 196.401 28.4967 196.401 29.094C196.401 29.1873 196.401 29.2853 196.401 29.388C196.401 29.4907 196.397 29.6073 196.387 29.738H190.619V28.828H195.253C195.225 28.184 195.011 27.68 194.609 27.316C194.217 26.952 193.723 26.77 193.125 26.77C192.724 26.77 192.351 26.8633 192.005 27.05C191.669 27.2273 191.399 27.4933 191.193 27.848C190.988 28.1933 190.885 28.6273 190.885 29.15V29.542C190.885 30.1207 190.988 30.606 191.193 30.998C191.408 31.39 191.683 31.684 192.019 31.88C192.365 32.076 192.733 32.174 193.125 32.174C193.62 32.174 194.026 32.0667 194.343 31.852C194.67 31.628 194.903 31.3293 195.043 30.956H196.205C196.093 31.376 195.897 31.754 195.617 32.09C195.337 32.426 194.987 32.692 194.567 32.888C194.157 33.0747 193.676 33.168 193.125 33.168ZM200.808 33C200.388 33 200.024 32.9347 199.716 32.804C199.408 32.6733 199.17 32.454 199.002 32.146C198.843 31.8287 198.764 31.404 198.764 30.872V26.938H197.532V25.944H198.764L198.918 24.236H199.94V25.944H201.984V26.938H199.94V30.872C199.94 31.3107 200.029 31.6093 200.206 31.768C200.383 31.9173 200.696 31.992 201.144 31.992H201.9V33H200.808ZM206.095 33.168C205.525 33.168 205.049 33.07 204.667 32.874C204.284 32.6687 203.999 32.4027 203.813 32.076C203.626 31.74 203.533 31.376 203.533 30.984C203.533 30.508 203.654 30.1067 203.897 29.78C204.149 29.444 204.499 29.192 204.947 29.024C205.404 28.8467 205.941 28.758 206.557 28.758H208.419C208.419 28.3193 208.349 27.9553 208.209 27.666C208.078 27.3673 207.882 27.1433 207.621 26.994C207.369 26.8447 207.051 26.77 206.669 26.77C206.221 26.77 205.833 26.882 205.507 27.106C205.18 27.33 204.979 27.6613 204.905 28.1H203.701C203.757 27.596 203.925 27.176 204.205 26.84C204.494 26.4947 204.858 26.2333 205.297 26.056C205.735 25.8693 206.193 25.776 206.669 25.776C207.322 25.776 207.863 25.8973 208.293 26.14C208.731 26.3733 209.058 26.7047 209.273 27.134C209.487 27.554 209.595 28.0533 209.595 28.632V33H208.545L208.475 31.754C208.381 31.95 208.26 32.1367 208.111 32.314C207.971 32.482 207.803 32.6313 207.607 32.762C207.411 32.8833 207.187 32.9813 206.935 33.056C206.692 33.1307 206.412 33.168 206.095 33.168ZM206.277 32.174C206.603 32.174 206.897 32.1087 207.159 31.978C207.429 31.838 207.658 31.6513 207.845 31.418C208.031 31.1753 208.171 30.9093 208.265 30.62C208.367 30.3307 208.419 30.0273 208.419 29.71V29.668H206.655C206.197 29.668 205.829 29.724 205.549 29.836C205.269 29.9387 205.068 30.088 204.947 30.284C204.825 30.4707 204.765 30.6853 204.765 30.928C204.765 31.18 204.821 31.3993 204.933 31.586C205.054 31.7727 205.227 31.9173 205.451 32.02C205.684 32.1227 205.959 32.174 206.277 32.174ZM215.39 33.168C214.988 33.168 214.624 33.112 214.298 33C213.98 32.8787 213.7 32.72 213.458 32.524C213.215 32.328 213.014 32.0993 212.856 31.838L212.758 33H211.694V22.92H212.87V27.106C213.094 26.742 213.416 26.4293 213.836 26.168C214.256 25.9067 214.774 25.776 215.39 25.776C216.071 25.776 216.668 25.9393 217.182 26.266C217.695 26.5833 218.092 27.022 218.372 27.582C218.661 28.1327 218.806 28.7627 218.806 29.472C218.806 30.1813 218.661 30.816 218.372 31.376C218.092 31.936 217.695 32.3747 217.182 32.692C216.668 33.0093 216.071 33.168 215.39 33.168ZM215.25 32.146C215.707 32.146 216.113 32.034 216.468 31.81C216.822 31.586 217.098 31.278 217.294 30.886C217.499 30.4847 217.602 30.0133 217.602 29.472C217.602 28.94 217.499 28.4733 217.294 28.072C217.098 27.6707 216.822 27.358 216.468 27.134C216.113 26.91 215.707 26.798 215.25 26.798C214.783 26.798 214.372 26.91 214.018 27.134C213.663 27.358 213.388 27.6707 213.192 28.072C212.996 28.4733 212.898 28.94 212.898 29.472C212.898 30.0133 212.996 30.4847 213.192 30.886C213.388 31.278 213.663 31.586 214.018 31.81C214.372 32.034 214.783 32.146 215.25 32.146ZM223.033 33.168C222.464 33.168 221.988 33.07 221.605 32.874C221.223 32.6687 220.938 32.4027 220.751 32.076C220.565 31.74 220.471 31.376 220.471 30.984C220.471 30.508 220.593 30.1067 220.835 29.78C221.087 29.444 221.437 29.192 221.885 29.024C222.343 28.8467 222.879 28.758 223.495 28.758H225.357C225.357 28.3193 225.287 27.9553 225.147 27.666C225.017 27.3673 224.821 27.1433 224.559 26.994C224.307 26.8447 223.99 26.77 223.607 26.77C223.159 26.77 222.772 26.882 222.445 27.106C222.119 27.33 221.918 27.6613 221.843 28.1H220.639C220.695 27.596 220.863 27.176 221.143 26.84C221.433 26.4947 221.797 26.2333 222.235 26.056C222.674 25.8693 223.131 25.776 223.607 25.776C224.261 25.776 224.802 25.8973 225.231 26.14C225.67 26.3733 225.997 26.7047 226.211 27.134C226.426 27.554 226.533 28.0533 226.533 28.632V33H225.483L225.413 31.754C225.32 31.95 225.199 32.1367 225.049 32.314C224.909 32.482 224.741 32.6313 224.545 32.762C224.349 32.8833 224.125 32.9813 223.873 33.056C223.631 33.1307 223.351 33.168 223.033 33.168ZM223.215 32.174C223.542 32.174 223.836 32.1087 224.097 31.978C224.368 31.838 224.597 31.6513 224.783 31.418C224.97 31.1753 225.11 30.9093 225.203 30.62C225.306 30.3307 225.357 30.0273 225.357 29.71V29.668H223.593C223.136 29.668 222.767 29.724 222.487 29.836C222.207 29.9387 222.007 30.088 221.885 30.284C221.764 30.4707 221.703 30.6853 221.703 30.928C221.703 31.18 221.759 31.3993 221.871 31.586C221.993 31.7727 222.165 31.9173 222.389 32.02C222.623 32.1227 222.898 32.174 223.215 32.174ZM231.293 33.168C230.705 33.168 230.191 33.07 229.753 32.874C229.323 32.678 228.978 32.4073 228.717 32.062C228.465 31.7073 228.311 31.292 228.255 30.816H229.459C229.505 31.0587 229.603 31.2827 229.753 31.488C229.902 31.6933 230.103 31.8613 230.355 31.992C230.616 32.1133 230.933 32.174 231.307 32.174C231.633 32.174 231.904 32.1273 232.119 32.034C232.333 31.9313 232.492 31.796 232.595 31.628C232.707 31.46 232.763 31.278 232.763 31.082C232.763 30.7927 232.693 30.5733 232.553 30.424C232.422 30.2747 232.226 30.158 231.965 30.074C231.703 29.9807 231.386 29.9013 231.013 29.836C230.705 29.78 230.401 29.7053 230.103 29.612C229.804 29.5187 229.538 29.3973 229.305 29.248C229.071 29.0893 228.885 28.898 228.745 28.674C228.614 28.45 228.549 28.1747 228.549 27.848C228.549 27.4467 228.651 27.092 228.857 26.784C229.062 26.4667 229.356 26.2193 229.739 26.042C230.131 25.8647 230.583 25.776 231.097 25.776C231.853 25.776 232.464 25.958 232.931 26.322C233.397 26.686 233.673 27.2133 233.757 27.904H232.595C232.548 27.5493 232.394 27.274 232.133 27.078C231.881 26.8727 231.531 26.77 231.083 26.77C230.644 26.77 230.308 26.8587 230.075 27.036C229.851 27.2133 229.739 27.4467 229.739 27.736C229.739 27.9227 229.799 28.0907 229.921 28.24C230.051 28.38 230.238 28.5013 230.481 28.604C230.733 28.7067 231.041 28.7907 231.405 28.856C231.871 28.94 232.296 29.052 232.679 29.192C233.061 29.332 233.369 29.542 233.603 29.822C233.845 30.0927 233.967 30.48 233.967 30.984C233.967 31.4227 233.855 31.8053 233.631 32.132C233.416 32.4587 233.108 32.7153 232.707 32.902C232.305 33.0793 231.834 33.168 231.293 33.168ZM239.034 33.168C238.371 33.168 237.783 33.014 237.27 32.706C236.766 32.398 236.369 31.9687 236.08 31.418C235.791 30.858 235.646 30.2093 235.646 29.472C235.646 28.7253 235.786 28.0767 236.066 27.526C236.355 26.9753 236.757 26.546 237.27 26.238C237.793 25.93 238.39 25.776 239.062 25.776C239.753 25.776 240.336 25.93 240.812 26.238C241.297 26.546 241.666 26.952 241.918 27.456C242.179 27.9507 242.31 28.4967 242.31 29.094C242.31 29.1873 242.31 29.2853 242.31 29.388C242.31 29.4907 242.305 29.6073 242.296 29.738H236.528V28.828H241.162C241.134 28.184 240.919 27.68 240.518 27.316C240.126 26.952 239.631 26.77 239.034 26.77C238.633 26.77 238.259 26.8633 237.914 27.05C237.578 27.2273 237.307 27.4933 237.102 27.848C236.897 28.1933 236.794 28.6273 236.794 29.15V29.542C236.794 30.1207 236.897 30.606 237.102 30.998C237.317 31.39 237.592 31.684 237.928 31.88C238.273 32.076 238.642 32.174 239.034 32.174C239.529 32.174 239.935 32.0667 240.252 31.852C240.579 31.628 240.812 31.3293 240.952 30.956H242.114C242.002 31.376 241.806 31.754 241.526 32.09C241.246 32.426 240.896 32.692 240.476 32.888C240.065 33.0747 239.585 33.168 239.034 33.168Z" fill="white"/>
</g>
<g filter="url(#filter4_d_2654_28491)">
<rect x="65" y="116" width="130" height="36" rx="10" fill="#0C0D0E" shape-rendering="crispEdges"/>
<rect x="65.5" y="116.5" width="129" height="35" rx="9.5" stroke="#86888E" shape-rendering="crispEdges"/>
<circle cx="86" cy="134" r="10.5" stroke="#86888E"/>
<path d="M81.784 133.084H82.7491C83.0559 133.084 83.2904 133.358 83.2431 133.661L82.5548 138.078C82.5169 138.321 82.3072 138.501 82.0608 138.501H81.153C80.8487 138.501 80.615 138.231 80.658 137.93L81.289 133.513C81.3242 133.267 81.5351 133.084 81.784 133.084Z" stroke="#86888E"/>
<path d="M85.8031 131.25H86.7885C87.0885 131.25 87.3209 131.512 87.2848 131.81L86.5273 138.06C86.4968 138.311 86.2838 138.5 86.0309 138.5H85.0455C84.7455 138.5 84.5131 138.238 84.5492 137.94L85.3067 131.69C85.3372 131.439 85.5502 131.25 85.8031 131.25Z" stroke="#86888E"/>
<path d="M89.8165 128.5H90.822C91.116 128.5 91.3465 128.752 91.3199 129.045L90.5017 138.045C90.4783 138.303 90.2624 138.5 90.0038 138.5H88.8617C88.5647 138.5 88.3332 138.243 88.3645 137.947L89.3193 128.947C89.3463 128.693 89.5608 128.5 89.8165 128.5Z" stroke="#86888E"/>
<path d="M110.234 139.168C109.646 139.168 109.137 139.056 108.708 138.832C108.288 138.608 107.961 138.286 107.728 137.866C107.504 137.446 107.392 136.947 107.392 136.368H108.582C108.582 136.695 108.633 136.993 108.736 137.264C108.848 137.525 109.021 137.735 109.254 137.894C109.497 138.043 109.819 138.118 110.22 138.118C110.612 138.118 110.92 138.043 111.144 137.894C111.377 137.745 111.541 137.544 111.634 137.292C111.737 137.031 111.788 136.737 111.788 136.41V129.2H112.964V136.41C112.964 137.287 112.721 137.969 112.236 138.454C111.76 138.93 111.093 139.168 110.234 139.168ZM118.368 139.168C117.705 139.168 117.117 139.014 116.604 138.706C116.1 138.398 115.703 137.969 115.414 137.418C115.124 136.858 114.98 136.209 114.98 135.472C114.98 134.725 115.12 134.077 115.4 133.526C115.689 132.975 116.09 132.546 116.604 132.238C117.126 131.93 117.724 131.776 118.396 131.776C119.086 131.776 119.67 131.93 120.146 132.238C120.631 132.546 121 132.952 121.252 133.456C121.513 133.951 121.644 134.497 121.644 135.094C121.644 135.187 121.644 135.285 121.644 135.388C121.644 135.491 121.639 135.607 121.63 135.738H115.862V134.828H120.496C120.468 134.184 120.253 133.68 119.852 133.316C119.46 132.952 118.965 132.77 118.368 132.77C117.966 132.77 117.593 132.863 117.248 133.05C116.912 133.227 116.641 133.493 116.436 133.848C116.23 134.193 116.128 134.627 116.128 135.15V135.542C116.128 136.121 116.23 136.606 116.436 136.998C116.65 137.39 116.926 137.684 117.262 137.88C117.607 138.076 117.976 138.174 118.368 138.174C118.862 138.174 119.268 138.067 119.586 137.852C119.912 137.628 120.146 137.329 120.286 136.956H121.448C121.336 137.376 121.14 137.754 120.86 138.09C120.58 138.426 120.23 138.692 119.81 138.888C119.399 139.075 118.918 139.168 118.368 139.168ZM126.05 139C125.63 139 125.266 138.935 124.958 138.804C124.65 138.673 124.412 138.454 124.244 138.146C124.086 137.829 124.006 137.404 124.006 136.872V132.938H122.774V131.944H124.006L124.16 130.236H125.182V131.944H127.226V132.938H125.182V136.872C125.182 137.311 125.271 137.609 125.448 137.768C125.626 137.917 125.938 137.992 126.386 137.992H127.142V139H126.05ZM133.109 139V129.2H136.273C137.039 129.2 137.664 129.331 138.149 129.592C138.635 129.844 138.994 130.185 139.227 130.614C139.461 131.043 139.577 131.529 139.577 132.07C139.577 132.593 139.456 133.073 139.213 133.512C138.98 133.951 138.616 134.301 138.121 134.562C137.627 134.823 136.992 134.954 136.217 134.954H134.285V139H133.109ZM138.289 139L136.133 134.618H137.449L139.675 139H138.289ZM134.285 134.03H136.189C136.936 134.03 137.482 133.848 137.827 133.484C138.182 133.12 138.359 132.653 138.359 132.084C138.359 131.505 138.187 131.048 137.841 130.712C137.505 130.367 136.95 130.194 136.175 130.194H134.285V134.03ZM144.302 139.168C143.639 139.168 143.051 139.014 142.538 138.706C142.034 138.398 141.637 137.969 141.348 137.418C141.059 136.858 140.914 136.209 140.914 135.472C140.914 134.725 141.054 134.077 141.334 133.526C141.623 132.975 142.025 132.546 142.538 132.238C143.061 131.93 143.658 131.776 144.33 131.776C145.021 131.776 145.604 131.93 146.08 132.238C146.565 132.546 146.934 132.952 147.186 133.456C147.447 133.951 147.578 134.497 147.578 135.094C147.578 135.187 147.578 135.285 147.578 135.388C147.578 135.491 147.573 135.607 147.564 135.738H141.796V134.828H146.43C146.402 134.184 146.187 133.68 145.786 133.316C145.394 132.952 144.899 132.77 144.302 132.77C143.901 132.77 143.527 132.863 143.182 133.05C142.846 133.227 142.575 133.493 142.37 133.848C142.165 134.193 142.062 134.627 142.062 135.15V135.542C142.062 136.121 142.165 136.606 142.37 136.998C142.585 137.39 142.86 137.684 143.196 137.88C143.541 138.076 143.91 138.174 144.302 138.174C144.797 138.174 145.203 138.067 145.52 137.852C145.847 137.628 146.08 137.329 146.22 136.956H147.382C147.27 137.376 147.074 137.754 146.794 138.09C146.514 138.426 146.164 138.692 145.744 138.888C145.333 139.075 144.853 139.168 144.302 139.168ZM149.445 142.08V131.944H150.509L150.607 133.092C150.756 132.868 150.948 132.658 151.181 132.462C151.414 132.257 151.694 132.093 152.021 131.972C152.348 131.841 152.721 131.776 153.141 131.776C153.832 131.776 154.429 131.939 154.933 132.266C155.446 132.593 155.843 133.036 156.123 133.596C156.412 134.147 156.557 134.777 156.557 135.486C156.557 136.195 156.412 136.83 156.123 137.39C155.843 137.941 155.446 138.375 154.933 138.692C154.42 139.009 153.818 139.168 153.127 139.168C152.558 139.168 152.054 139.051 151.615 138.818C151.186 138.585 150.854 138.258 150.621 137.838V142.08H149.445ZM153.001 138.146C153.458 138.146 153.864 138.034 154.219 137.81C154.574 137.586 154.849 137.278 155.045 136.886C155.25 136.485 155.353 136.013 155.353 135.472C155.353 134.94 155.25 134.473 155.045 134.072C154.849 133.671 154.574 133.358 154.219 133.134C153.864 132.91 153.458 132.798 153.001 132.798C152.534 132.798 152.124 132.91 151.769 133.134C151.414 133.358 151.139 133.671 150.943 134.072C150.747 134.473 150.649 134.94 150.649 135.472C150.649 136.013 150.747 136.485 150.943 136.886C151.139 137.278 151.414 137.586 151.769 137.81C152.124 138.034 152.534 138.146 153.001 138.146ZM161.639 139.168C160.985 139.168 160.397 139.019 159.875 138.72C159.352 138.412 158.941 137.983 158.643 137.432C158.344 136.872 158.195 136.223 158.195 135.486C158.195 134.73 158.344 134.077 158.643 133.526C158.951 132.966 159.366 132.537 159.889 132.238C160.421 131.93 161.013 131.776 161.667 131.776C162.339 131.776 162.931 131.93 163.445 132.238C163.967 132.537 164.378 132.966 164.677 133.526C164.985 134.077 165.139 134.725 165.139 135.472C165.139 136.219 164.985 136.872 164.677 137.432C164.369 137.983 163.953 138.412 163.431 138.72C162.908 139.019 162.311 139.168 161.639 139.168ZM161.653 138.16C162.054 138.16 162.427 138.062 162.773 137.866C163.118 137.661 163.398 137.357 163.613 136.956C163.827 136.555 163.935 136.06 163.935 135.472C163.935 134.875 163.827 134.38 163.613 133.988C163.407 133.587 163.132 133.288 162.787 133.092C162.451 132.887 162.077 132.784 161.667 132.784C161.275 132.784 160.901 132.887 160.547 133.092C160.201 133.288 159.921 133.587 159.707 133.988C159.501 134.38 159.399 134.875 159.399 135.472C159.399 136.06 159.501 136.555 159.707 136.956C159.921 137.357 160.197 137.661 160.533 137.866C160.878 138.062 161.251 138.16 161.653 138.16ZM167.068 139V131.944H168.132L168.216 133.288C168.374 132.971 168.575 132.7 168.818 132.476C169.07 132.252 169.368 132.079 169.714 131.958C170.068 131.837 170.47 131.776 170.918 131.776V133.008H170.484C170.185 133.008 169.9 133.05 169.63 133.134C169.359 133.209 169.116 133.335 168.902 133.512C168.696 133.689 168.533 133.932 168.412 134.24C168.3 134.539 168.244 134.912 168.244 135.36V139H167.068ZM175.301 139C174.881 139 174.517 138.935 174.209 138.804C173.901 138.673 173.663 138.454 173.495 138.146C173.337 137.829 173.257 137.404 173.257 136.872V132.938H172.025V131.944H173.257L173.411 130.236H174.433V131.944H176.477V132.938H174.433V136.872C174.433 137.311 174.522 137.609 174.699 137.768C174.877 137.917 175.189 137.992 175.637 137.992H176.393V139H175.301ZM180.952 139.168C180.364 139.168 179.85 139.07 179.412 138.874C178.982 138.678 178.637 138.407 178.376 138.062C178.124 137.707 177.97 137.292 177.914 136.816H179.118C179.164 137.059 179.262 137.283 179.412 137.488C179.561 137.693 179.762 137.861 180.014 137.992C180.275 138.113 180.592 138.174 180.966 138.174C181.292 138.174 181.563 138.127 181.778 138.034C181.992 137.931 182.151 137.796 182.254 137.628C182.366 137.46 182.422 137.278 182.422 137.082C182.422 136.793 182.352 136.573 182.212 136.424C182.081 136.275 181.885 136.158 181.624 136.074C181.362 135.981 181.045 135.901 180.672 135.836C180.364 135.78 180.06 135.705 179.762 135.612C179.463 135.519 179.197 135.397 178.964 135.248C178.73 135.089 178.544 134.898 178.404 134.674C178.273 134.45 178.208 134.175 178.208 133.848C178.208 133.447 178.31 133.092 178.516 132.784C178.721 132.467 179.015 132.219 179.398 132.042C179.79 131.865 180.242 131.776 180.756 131.776C181.512 131.776 182.123 131.958 182.59 132.322C183.056 132.686 183.332 133.213 183.416 133.904H182.254C182.207 133.549 182.053 133.274 181.792 133.078C181.54 132.873 181.19 132.77 180.742 132.77C180.303 132.77 179.967 132.859 179.734 133.036C179.51 133.213 179.398 133.447 179.398 133.736C179.398 133.923 179.458 134.091 179.58 134.24C179.71 134.38 179.897 134.501 180.14 134.604C180.392 134.707 180.7 134.791 181.064 134.856C181.53 134.94 181.955 135.052 182.338 135.192C182.72 135.332 183.028 135.542 183.262 135.822C183.504 136.093 183.626 136.48 183.626 136.984C183.626 137.423 183.514 137.805 183.29 138.132C183.075 138.459 182.767 138.715 182.366 138.902C181.964 139.079 181.493 139.168 180.952 139.168Z" fill="white"/>
</g>
<g filter="url(#filter5_d_2654_28491)">
<rect x="138" y="63" width="102" height="36" rx="10" fill="#0C0D0E" shape-rendering="crispEdges"/>
<rect x="138.5" y="63.5" width="101" height="35" rx="9.5" stroke="#86888E" shape-rendering="crispEdges"/>
<g clip-path="url(#clip1_2654_28491)">
<path d="M157.682 72.101V73.0105H156.056V73.6019H157.682V75.4134H158.318V73.6019H159.985V73.0105H158.318V71.1953H157.682V72.101Z" fill="#ACADAE"/>
<path d="M152.366 74.4077V75.7274H149.904V76.5555H152.366V79.2357H153.279V76.5555H155.779V75.7274H153.279V73.0879H152.366V74.4077Z" fill="#EEEFF1"/>
<path d="M162.684 74.4077V75.7274H160.222V76.5962H162.684V79.2357H163.634V76.5962H166.096V75.7274H163.634V73.0879H162.684V74.4077Z" fill="#86888E"/>
<path d="M157.445 78.9026V80.3813H154.706V81.4829H157.445V84.4404H158.554V81.4829H161.294V80.3813H158.554V77.4238H157.445V78.9026Z" fill="#313337"/>
<path d="M165.501 79.6508V80.5787H163.834V81.3291H165.501V83.1812H166.333V81.3291H168V80.5787H166.333V78.7266H165.501V79.6508Z" fill="#D9D9D9"/>
<path d="M149.627 79.731V80.6182H148V81.2467H149.627V83.0212H150.262V81.2467L151.93 81.1875V80.6182H150.262V78.8438H149.627V79.731Z" fill="#ACADAE"/>
<path d="M152.366 83.9096V85.2294H149.904V86.0981H152.366V88.7377H153.316V86.0981H155.779V85.2294H153.316V82.5898H152.366V83.9096Z" fill="#575B62"/>
<path d="M162.684 83.9096V85.2294H160.222V86.0575H162.684V88.7377H163.634V86.0575H166.096V85.2294H163.634V82.5898H162.684V83.9096Z" fill="#9FA1A6"/>
<path d="M157.605 87.2619V88.1861H155.938V88.9365H157.605V90.7887H158.437V88.9365H160.104V88.1861H158.437V86.334H157.605V87.2619Z" fill="#D9D9D9"/>
</g>
<path d="M181.346 86V77.166H178.42V76.2H185.448V77.166H182.522V86H181.346ZM188.365 86.168C187.795 86.168 187.319 86.07 186.937 85.874C186.554 85.6687 186.269 85.4027 186.083 85.076C185.896 84.74 185.803 84.376 185.803 83.984C185.803 83.508 185.924 83.1067 186.167 82.78C186.419 82.444 186.769 82.192 187.217 82.024C187.674 81.8467 188.211 81.758 188.827 81.758H190.689C190.689 81.3193 190.619 80.9553 190.479 80.666C190.348 80.3673 190.152 80.1433 189.891 79.994C189.639 79.8447 189.321 79.77 188.939 79.77C188.491 79.77 188.103 79.882 187.777 80.106C187.45 80.33 187.249 80.6613 187.175 81.1H185.971C186.027 80.596 186.195 80.176 186.475 79.84C186.764 79.4947 187.128 79.2333 187.567 79.056C188.005 78.8693 188.463 78.776 188.939 78.776C189.592 78.776 190.133 78.8973 190.563 79.14C191.001 79.3733 191.328 79.7047 191.543 80.134C191.757 80.554 191.865 81.0533 191.865 81.632V86H190.815L190.745 84.754C190.651 84.95 190.53 85.1367 190.381 85.314C190.241 85.482 190.073 85.6313 189.877 85.762C189.681 85.8833 189.457 85.9813 189.205 86.056C188.962 86.1307 188.682 86.168 188.365 86.168ZM188.547 85.174C188.873 85.174 189.167 85.1087 189.429 84.978C189.699 84.838 189.928 84.6513 190.115 84.418C190.301 84.1753 190.441 83.9093 190.535 83.62C190.637 83.3307 190.689 83.0273 190.689 82.71V82.668H188.925C188.467 82.668 188.099 82.724 187.819 82.836C187.539 82.9387 187.338 83.088 187.217 83.284C187.095 83.4707 187.035 83.6853 187.035 83.928C187.035 84.18 187.091 84.3993 187.203 84.586C187.324 84.7727 187.497 84.9173 187.721 85.02C187.954 85.1227 188.229 85.174 188.547 85.174ZM197.66 86.168C197.258 86.168 196.894 86.112 196.568 86C196.25 85.8787 195.97 85.72 195.728 85.524C195.485 85.328 195.284 85.0993 195.126 84.838L195.028 86H193.964V75.92H195.14V80.106C195.364 79.742 195.686 79.4293 196.106 79.168C196.526 78.9067 197.044 78.776 197.66 78.776C198.341 78.776 198.938 78.9393 199.452 79.266C199.965 79.5833 200.362 80.022 200.642 80.582C200.931 81.1327 201.076 81.7627 201.076 82.472C201.076 83.1813 200.931 83.816 200.642 84.376C200.362 84.936 199.965 85.3747 199.452 85.692C198.938 86.0093 198.341 86.168 197.66 86.168ZM197.52 85.146C197.977 85.146 198.383 85.034 198.738 84.81C199.092 84.586 199.368 84.278 199.564 83.886C199.769 83.4847 199.872 83.0133 199.872 82.472C199.872 81.94 199.769 81.4733 199.564 81.072C199.368 80.6707 199.092 80.358 198.738 80.134C198.383 79.91 197.977 79.798 197.52 79.798C197.053 79.798 196.642 79.91 196.288 80.134C195.933 80.358 195.658 80.6707 195.462 81.072C195.266 81.4733 195.168 81.94 195.168 82.472C195.168 83.0133 195.266 83.4847 195.462 83.886C195.658 84.278 195.933 84.586 196.288 84.81C196.642 85.034 197.053 85.146 197.52 85.146ZM203.008 86V75.92H204.184V86H203.008ZM209.499 86.168C208.836 86.168 208.248 86.014 207.735 85.706C207.231 85.398 206.834 84.9687 206.545 84.418C206.255 83.858 206.111 83.2093 206.111 82.472C206.111 81.7253 206.251 81.0767 206.531 80.526C206.82 79.9753 207.221 79.546 207.735 79.238C208.257 78.93 208.855 78.776 209.527 78.776C210.217 78.776 210.801 78.93 211.277 79.238C211.762 79.546 212.131 79.952 212.383 80.456C212.644 80.9507 212.775 81.4967 212.775 82.094C212.775 82.1873 212.775 82.2853 212.775 82.388C212.775 82.4907 212.77 82.6073 212.761 82.738H206.993V81.828H211.627C211.599 81.184 211.384 80.68 210.983 80.316C210.591 79.952 210.096 79.77 209.499 79.77C209.097 79.77 208.724 79.8633 208.379 80.05C208.043 80.2273 207.772 80.4933 207.567 80.848C207.361 81.1933 207.259 81.6273 207.259 82.15V82.542C207.259 83.1207 207.361 83.606 207.567 83.998C207.781 84.39 208.057 84.684 208.393 84.88C208.738 85.076 209.107 85.174 209.499 85.174C209.993 85.174 210.399 85.0667 210.717 84.852C211.043 84.628 211.277 84.3293 211.417 83.956H212.579C212.467 84.376 212.271 84.754 211.991 85.09C211.711 85.426 211.361 85.692 210.941 85.888C210.53 86.0747 210.049 86.168 209.499 86.168ZM216.938 86.168C216.368 86.168 215.892 86.07 215.51 85.874C215.127 85.6687 214.842 85.4027 214.656 85.076C214.469 84.74 214.376 84.376 214.376 83.984C214.376 83.508 214.497 83.1067 214.74 82.78C214.992 82.444 215.342 82.192 215.79 82.024C216.247 81.8467 216.784 81.758 217.4 81.758H219.262C219.262 81.3193 219.192 80.9553 219.052 80.666C218.921 80.3673 218.725 80.1433 218.464 79.994C218.212 79.8447 217.894 79.77 217.512 79.77C217.064 79.77 216.676 79.882 216.35 80.106C216.023 80.33 215.822 80.6613 215.748 81.1H214.544C214.6 80.596 214.768 80.176 215.048 79.84C215.337 79.4947 215.701 79.2333 216.14 79.056C216.578 78.8693 217.036 78.776 217.512 78.776C218.165 78.776 218.706 78.8973 219.136 79.14C219.574 79.3733 219.901 79.7047 220.116 80.134C220.33 80.554 220.438 81.0533 220.438 81.632V86H219.388L219.318 84.754C219.224 84.95 219.103 85.1367 218.954 85.314C218.814 85.482 218.646 85.6313 218.45 85.762C218.254 85.8833 218.03 85.9813 217.778 86.056C217.535 86.1307 217.255 86.168 216.938 86.168ZM217.12 85.174C217.446 85.174 217.74 85.1087 218.002 84.978C218.272 84.838 218.501 84.6513 218.688 84.418C218.874 84.1753 219.014 83.9093 219.108 83.62C219.21 83.3307 219.262 83.0273 219.262 82.71V82.668H217.498C217.04 82.668 216.672 82.724 216.392 82.836C216.112 82.9387 215.911 83.088 215.79 83.284C215.668 83.4707 215.608 83.6853 215.608 83.928C215.608 84.18 215.664 84.3993 215.776 84.586C215.897 84.7727 216.07 84.9173 216.294 85.02C216.527 85.1227 216.802 85.174 217.12 85.174ZM225.099 86.168C224.558 86.168 224.082 86.0607 223.671 85.846C223.27 85.6313 222.957 85.3 222.733 84.852C222.518 84.404 222.411 83.844 222.411 83.172V78.944H223.587V83.046C223.587 83.746 223.741 84.2733 224.049 84.628C224.357 84.9827 224.791 85.16 225.351 85.16C225.743 85.16 226.098 85.0667 226.415 84.88C226.732 84.684 226.98 84.4087 227.157 84.054C227.344 83.69 227.437 83.2467 227.437 82.724V78.944H228.613V86H227.549L227.479 84.768C227.264 85.2067 226.947 85.552 226.527 85.804C226.107 86.0467 225.631 86.168 225.099 86.168Z" fill="white"/>
</g>
<defs>
<filter id="filter0_d_2654_28491" x="0" y="0" width="139" height="76" filterUnits="userSpaceOnUse" color-interpolation-filters="sRGB">
<feFlood flood-opacity="0" result="BackgroundImageFix"/>
<feColorMatrix in="SourceAlpha" type="matrix" values="0 0 0 0 0 0 0 0 0 0 0 0 0 0 0 0 0 0 127 0" result="hardAlpha"/>
<feOffset dy="10"/>
<feGaussianBlur stdDeviation="10"/>
<feComposite in2="hardAlpha" operator="out"/>
<feColorMatrix type="matrix" values="0 0 0 0 0 0 0 0 0 0 0 0 0 0 0 0 0 0 0.5 0"/>
<feBlend mode="normal" in2="BackgroundImageFix" result="effect1_dropShadow_2654_28491"/>
<feBlend mode="normal" in="SourceGraphic" in2="effect1_dropShadow_2654_28491" result="shape"/>
</filter>
<filter id="filter1_d_2654_28491" x="0" y="53" width="142.079" height="76" filterUnits="userSpaceOnUse" color-interpolation-filters="sRGB">
<feFlood flood-opacity="0" result="BackgroundImageFix"/>
<feColorMatrix in="SourceAlpha" type="matrix" values="0 0 0 0 0 0 0 0 0 0 0 0 0 0 0 0 0 0 127 0" result="hardAlpha"/>
<feOffset dy="10"/>
<feGaussianBlur stdDeviation="10"/>
<feComposite in2="hardAlpha" operator="out"/>
<feColorMatrix type="matrix" values="0 0 0 0 0 0 0 0 0 0 0 0 0 0 0 0 0 0 0.5 0"/>
<feBlend mode="normal" in2="BackgroundImageFix" result="effect1_dropShadow_2654_28491"/>
<feBlend mode="normal" in="SourceGraphic" in2="effect1_dropShadow_2654_28491" result="shape"/>
</filter>
<filter id="filter2_d_2654_28491" x="34.0322" y="65.9844" width="46.9521" height="55.0156" filterUnits="userSpaceOnUse" color-interpolation-filters="sRGB">
<feFlood flood-opacity="0" result="BackgroundImageFix"/>
<feColorMatrix in="SourceAlpha" type="matrix" values="0 0 0 0 0 0 0 0 0 0 0 0 0 0 0 0 0 0 127 0" result="hardAlpha"/>
<feOffset dx="20" dy="10"/>
<feGaussianBlur stdDeviation="10"/>
<feColorMatrix type="matrix" values="0 0 0 0 0 0 0 0 0 0 0 0 0 0 0 0 0 0 0.0530212 0"/>
<feBlend mode="normal" in2="BackgroundImageFix" result="effect1_dropShadow_2654_28491"/>
<feBlend mode="normal" in="SourceGraphic" in2="effect1_dropShadow_2654_28491" result="shape"/>
</filter>
<filter id="filter3_d_2654_28491" x="117" y="0" width="156" height="76" filterUnits="userSpaceOnUse" color-interpolation-filters="sRGB">
<feFlood flood-opacity="0" result="BackgroundImageFix"/>
<feColorMatrix in="SourceAlpha" type="matrix" values="0 0 0 0 0 0 0 0 0 0 0 0 0 0 0 0 0 0 127 0" result="hardAlpha"/>
<feOffset dy="10"/>
<feGaussianBlur stdDeviation="10"/>
<feComposite in2="hardAlpha" operator="out"/>
<feColorMatrix type="matrix" values="0 0 0 0 0 0 0 0 0 0 0 0 0 0 0 0 0 0 0.5 0"/>
<feBlend mode="normal" in2="BackgroundImageFix" result="effect1_dropShadow_2654_28491"/>
<feBlend mode="normal" in="SourceGraphic" in2="effect1_dropShadow_2654_28491" result="shape"/>
</filter>
<filter id="filter4_d_2654_28491" x="45" y="106" width="170" height="76" filterUnits="userSpaceOnUse" color-interpolation-filters="sRGB">
<feFlood flood-opacity="0" result="BackgroundImageFix"/>
<feColorMatrix in="SourceAlpha" type="matrix" values="0 0 0 0 0 0 0 0 0 0 0 0 0 0 0 0 0 0 127 0" result="hardAlpha"/>
<feOffset dy="10"/>
<feGaussianBlur stdDeviation="10"/>
<feComposite in2="hardAlpha" operator="out"/>
<feColorMatrix type="matrix" values="0 0 0 0 0 0 0 0 0 0 0 0 0 0 0 0 0 0 0.5 0"/>
<feBlend mode="normal" in2="BackgroundImageFix" result="effect1_dropShadow_2654_28491"/>
<feBlend mode="normal" in="SourceGraphic" in2="effect1_dropShadow_2654_28491" result="shape"/>
</filter>
<filter id="filter5_d_2654_28491" x="118" y="53" width="142" height="76" filterUnits="userSpaceOnUse" color-interpolation-filters="sRGB">
<feFlood flood-opacity="0" result="BackgroundImageFix"/>
<feColorMatrix in="SourceAlpha" type="matrix" values="0 0 0 0 0 0 0 0 0 0 0 0 0 0 0 0 0 0 127 0" result="hardAlpha"/>
<feOffset dy="10"/>
<feGaussianBlur stdDeviation="10"/>
<feComposite in2="hardAlpha" operator="out"/>
<feColorMatrix type="matrix" values="0 0 0 0 0 0 0 0 0 0 0 0 0 0 0 0 0 0 0.5 0"/>
<feBlend mode="normal" in2="BackgroundImageFix" result="effect1_dropShadow_2654_28491"/>
<feBlend mode="normal" in="SourceGraphic" in2="effect1_dropShadow_2654_28491" result="shape"/>
</filter>
<clipPath id="clip0_2654_28491">
<rect width="24" height="24" fill="white" transform="translate(30 16)"/>
</clipPath>
<clipPath id="clip1_2654_28491">
<rect width="20" height="20" fill="white" transform="translate(148 71)"/>
</clipPath>
</defs>
</svg>
