<svg width="458" height="514" viewBox="0 0 458 514" fill="none" xmlns="http://www.w3.org/2000/svg">
<g filter="url(#filter0_f_2483_58916)">
<ellipse cx="223.5" cy="282" rx="137.5" ry="75" fill="url(#paint0_linear_2483_58916)"/>
</g>
<g filter="url(#filter1_d_2483_58916)">
<rect x="111" y="200" width="99" height="36" rx="10" fill="#0C0D0E" shape-rendering="crispEdges"/>
<rect x="111.5" y="200.5" width="98" height="35" rx="9.5" stroke="#86888E" shape-rendering="crispEdges"/>
<g clip-path="url(#clip0_2483_58916)">
<path d="M126.88 215.93C129.07 215.93 131.14 216.5 132.94 217.46L139.36 209.75H126.64V225.05V215.93H126.88Z" fill="#ACADAE"/>
<path d="M132.94 217.461L126.64 225.051V226.251H139.33C138.61 222.471 136.21 219.261 132.94 217.461Z" fill="#313337"/>
<path d="M132.94 217.461L126.64 225.051V226.251H128.89L135.01 218.871C135.01 218.871 134.59 218.541 134.02 218.121C133.6 217.821 132.94 217.461 132.94 217.461Z" fill="#575B62"/>
<path d="M126.88 215.93H126.64V225.05L132.94 217.46C131.14 216.5 129.07 215.93 126.88 215.93Z" fill="#86888E"/>
</g>
<path d="M156.05 223V213.2H157.226V217.638L161.314 213.2H162.798L159.158 217.106L162.854 223H161.426L158.318 218.016L157.226 219.178V223H156.05ZM164.548 223V215.944H165.724V223H164.548ZM165.136 214.446C164.902 214.446 164.706 214.371 164.548 214.222C164.398 214.063 164.324 213.867 164.324 213.634C164.324 213.401 164.398 213.214 164.548 213.074C164.706 212.925 164.902 212.85 165.136 212.85C165.36 212.85 165.551 212.925 165.71 213.074C165.868 213.214 165.948 213.401 165.948 213.634C165.948 213.867 165.868 214.063 165.71 214.222C165.551 214.371 165.36 214.446 165.136 214.446ZM171.775 223.168C171.374 223.168 171.01 223.112 170.683 223C170.366 222.879 170.086 222.72 169.843 222.524C169.6 222.328 169.4 222.099 169.241 221.838L169.143 223H168.079V212.92H169.255V217.106C169.479 216.742 169.801 216.429 170.221 216.168C170.641 215.907 171.159 215.776 171.775 215.776C172.456 215.776 173.054 215.939 173.567 216.266C174.08 216.583 174.477 217.022 174.757 217.582C175.046 218.133 175.191 218.763 175.191 219.472C175.191 220.181 175.046 220.816 174.757 221.376C174.477 221.936 174.08 222.375 173.567 222.692C173.054 223.009 172.456 223.168 171.775 223.168ZM171.635 222.146C172.092 222.146 172.498 222.034 172.853 221.81C173.208 221.586 173.483 221.278 173.679 220.886C173.884 220.485 173.987 220.013 173.987 219.472C173.987 218.94 173.884 218.473 173.679 218.072C173.483 217.671 173.208 217.358 172.853 217.134C172.498 216.91 172.092 216.798 171.635 216.798C171.168 216.798 170.758 216.91 170.403 217.134C170.048 217.358 169.773 217.671 169.577 218.072C169.381 218.473 169.283 218.94 169.283 219.472C169.283 220.013 169.381 220.485 169.577 220.886C169.773 221.278 170.048 221.586 170.403 221.81C170.758 222.034 171.168 222.146 171.635 222.146ZM179.419 223.168C178.849 223.168 178.373 223.07 177.991 222.874C177.608 222.669 177.323 222.403 177.137 222.076C176.95 221.74 176.857 221.376 176.857 220.984C176.857 220.508 176.978 220.107 177.221 219.78C177.473 219.444 177.823 219.192 178.271 219.024C178.728 218.847 179.265 218.758 179.881 218.758H181.743C181.743 218.319 181.673 217.955 181.533 217.666C181.402 217.367 181.206 217.143 180.945 216.994C180.693 216.845 180.375 216.77 179.993 216.77C179.545 216.77 179.157 216.882 178.831 217.106C178.504 217.33 178.303 217.661 178.229 218.1H177.025C177.081 217.596 177.249 217.176 177.529 216.84C177.818 216.495 178.182 216.233 178.621 216.056C179.059 215.869 179.517 215.776 179.993 215.776C180.646 215.776 181.187 215.897 181.617 216.14C182.055 216.373 182.382 216.705 182.597 217.134C182.811 217.554 182.919 218.053 182.919 218.632V223H181.869L181.799 221.754C181.705 221.95 181.584 222.137 181.435 222.314C181.295 222.482 181.127 222.631 180.931 222.762C180.735 222.883 180.511 222.981 180.259 223.056C180.016 223.131 179.736 223.168 179.419 223.168ZM179.601 222.174C179.927 222.174 180.221 222.109 180.483 221.978C180.753 221.838 180.982 221.651 181.169 221.418C181.355 221.175 181.495 220.909 181.589 220.62C181.691 220.331 181.743 220.027 181.743 219.71V219.668H179.979C179.521 219.668 179.153 219.724 178.873 219.836C178.593 219.939 178.392 220.088 178.271 220.284C178.149 220.471 178.089 220.685 178.089 220.928C178.089 221.18 178.145 221.399 178.257 221.586C178.378 221.773 178.551 221.917 178.775 222.02C179.008 222.123 179.283 222.174 179.601 222.174ZM185.018 223V215.944H186.082L186.138 217.176C186.362 216.737 186.679 216.397 187.09 216.154C187.51 215.902 187.986 215.776 188.518 215.776C189.069 215.776 189.545 215.888 189.946 216.112C190.347 216.327 190.66 216.658 190.884 217.106C191.108 217.545 191.22 218.105 191.22 218.786V223H190.044V218.912C190.044 218.203 189.885 217.671 189.568 217.316C189.26 216.961 188.821 216.784 188.252 216.784C187.86 216.784 187.51 216.882 187.202 217.078C186.894 217.265 186.647 217.54 186.46 217.904C186.283 218.259 186.194 218.702 186.194 219.234V223H185.018ZM195.633 223.168C195.064 223.168 194.588 223.07 194.205 222.874C193.822 222.669 193.538 222.403 193.351 222.076C193.164 221.74 193.071 221.376 193.071 220.984C193.071 220.508 193.192 220.107 193.435 219.78C193.687 219.444 194.037 219.192 194.485 219.024C194.942 218.847 195.479 218.758 196.095 218.758H197.957C197.957 218.319 197.887 217.955 197.747 217.666C197.616 217.367 197.42 217.143 197.159 216.994C196.907 216.845 196.59 216.77 196.207 216.77C195.759 216.77 195.372 216.882 195.045 217.106C194.718 217.33 194.518 217.661 194.443 218.1H193.239C193.295 217.596 193.463 217.176 193.743 216.84C194.032 216.495 194.396 216.233 194.835 216.056C195.274 215.869 195.731 215.776 196.207 215.776C196.86 215.776 197.402 215.897 197.831 216.14C198.27 216.373 198.596 216.705 198.811 217.134C199.026 217.554 199.133 218.053 199.133 218.632V223H198.083L198.013 221.754C197.92 221.95 197.798 222.137 197.649 222.314C197.509 222.482 197.341 222.631 197.145 222.762C196.949 222.883 196.725 222.981 196.473 223.056C196.23 223.131 195.95 223.168 195.633 223.168ZM195.815 222.174C196.142 222.174 196.436 222.109 196.697 221.978C196.968 221.838 197.196 221.651 197.383 221.418C197.57 221.175 197.71 220.909 197.803 220.62C197.906 220.331 197.957 220.027 197.957 219.71V219.668H196.193C195.736 219.668 195.367 219.724 195.087 219.836C194.807 219.939 194.606 220.088 194.485 220.284C194.364 220.471 194.303 220.685 194.303 220.928C194.303 221.18 194.359 221.399 194.471 221.586C194.592 221.773 194.765 221.917 194.989 222.02C195.222 222.123 195.498 222.174 195.815 222.174Z" fill="white"/>
</g>
<g filter="url(#filter2_d_2483_58916)">
<rect x="111" y="253" width="102.079" height="36" rx="10" fill="#0C0D0E" shape-rendering="crispEdges"/>
<rect x="111.5" y="253.5" width="101.079" height="35" rx="9.5" stroke="#86888E" shape-rendering="crispEdges"/>
<path d="M135.254 261H129.952C129.497 261 129.127 261.37 129.127 261.825V280.175C129.127 280.63 129.497 281 129.952 281H135.254C135.71 281 136.079 280.63 136.079 280.175V261.825C136.079 261.37 135.71 261 135.254 261Z" fill="#575B62"/>
<g filter="url(#filter3_d_2483_58916)">
<path d="M131.985 280.175V281H131.159H125.858C125.402 281 125.032 280.631 125.032 280.175V266.81C125.032 266.354 125.402 265.984 125.858 265.984H131.159C131.615 265.984 131.985 266.354 131.985 266.81V280.175Z" fill="black"/>
</g>
<path d="M131.985 280.175V281H131.159H125.858C125.402 281 125.032 280.631 125.032 280.175V266.81C125.032 266.354 125.402 265.984 125.858 265.984H131.159C131.615 265.984 131.985 266.354 131.985 266.81V280.175Z" fill="#86888E"/>
<path fill-rule="evenodd" clip-rule="evenodd" d="M127.953 280.175V281H127.127H121.825C121.37 281 121 280.63 121 280.175V271.825C121 271.37 121.37 271 121.825 271H127.127C127.583 271 127.953 271.37 127.953 271.825V280.175Z" fill="#9FA1A6"/>
<path d="M147.13 276V266.2H150.322C151.096 266.2 151.731 266.331 152.226 266.592C152.73 266.844 153.098 267.185 153.332 267.614C153.574 268.043 153.696 268.533 153.696 269.084C153.696 269.616 153.574 270.101 153.332 270.54C153.098 270.969 152.734 271.315 152.24 271.576C151.745 271.837 151.106 271.968 150.322 271.968H148.306V276H147.13ZM148.306 270.974H150.308C151.092 270.974 151.652 270.801 151.988 270.456C152.324 270.111 152.492 269.653 152.492 269.084C152.492 268.477 152.324 268.011 151.988 267.684C151.652 267.348 151.092 267.18 150.308 267.18H148.306V270.974ZM158.201 276.168C157.547 276.168 156.959 276.019 156.437 275.72C155.914 275.412 155.503 274.983 155.205 274.432C154.906 273.872 154.757 273.223 154.757 272.486C154.757 271.73 154.906 271.077 155.205 270.526C155.513 269.966 155.928 269.537 156.451 269.238C156.983 268.93 157.575 268.776 158.229 268.776C158.901 268.776 159.493 268.93 160.007 269.238C160.529 269.537 160.94 269.966 161.239 270.526C161.547 271.077 161.701 271.725 161.701 272.472C161.701 273.219 161.547 273.872 161.239 274.432C160.931 274.983 160.515 275.412 159.993 275.72C159.47 276.019 158.873 276.168 158.201 276.168ZM158.215 275.16C158.616 275.16 158.989 275.062 159.335 274.866C159.68 274.661 159.96 274.357 160.175 273.956C160.389 273.555 160.497 273.06 160.497 272.472C160.497 271.875 160.389 271.38 160.175 270.988C159.969 270.587 159.694 270.288 159.349 270.092C159.013 269.887 158.639 269.784 158.229 269.784C157.837 269.784 157.463 269.887 157.109 270.092C156.763 270.288 156.483 270.587 156.269 270.988C156.063 271.38 155.961 271.875 155.961 272.472C155.961 273.06 156.063 273.555 156.269 273.956C156.483 274.357 156.759 274.661 157.095 274.866C157.44 275.062 157.813 275.16 158.215 275.16ZM164.798 276L162.726 268.944H163.902L165.512 274.894H165.302L167.052 268.944H168.382L170.16 274.88L169.936 274.894L171.532 268.944H172.722L170.664 276H169.46L167.612 269.784H167.85L166.002 276H164.798ZM177.162 276.168C176.499 276.168 175.911 276.014 175.398 275.706C174.894 275.398 174.497 274.969 174.208 274.418C173.918 273.858 173.774 273.209 173.774 272.472C173.774 271.725 173.914 271.077 174.194 270.526C174.483 269.975 174.884 269.546 175.398 269.238C175.92 268.93 176.518 268.776 177.19 268.776C177.88 268.776 178.464 268.93 178.94 269.238C179.425 269.546 179.794 269.952 180.046 270.456C180.307 270.951 180.438 271.497 180.438 272.094C180.438 272.187 180.438 272.285 180.438 272.388C180.438 272.491 180.433 272.607 180.424 272.738H174.656V271.828H179.29C179.262 271.184 179.047 270.68 178.646 270.316C178.254 269.952 177.759 269.77 177.162 269.77C176.76 269.77 176.387 269.863 176.042 270.05C175.706 270.227 175.435 270.493 175.23 270.848C175.024 271.193 174.922 271.627 174.922 272.15V272.542C174.922 273.121 175.024 273.606 175.23 273.998C175.444 274.39 175.72 274.684 176.056 274.88C176.401 275.076 176.77 275.174 177.162 275.174C177.656 275.174 178.062 275.067 178.38 274.852C178.706 274.628 178.94 274.329 179.08 273.956H180.242C180.13 274.376 179.934 274.754 179.654 275.09C179.374 275.426 179.024 275.692 178.604 275.888C178.193 276.075 177.712 276.168 177.162 276.168ZM182.305 276V268.944H183.369L183.453 270.288C183.611 269.971 183.812 269.7 184.055 269.476C184.307 269.252 184.605 269.079 184.951 268.958C185.305 268.837 185.707 268.776 186.155 268.776V270.008H185.721C185.422 270.008 185.137 270.05 184.867 270.134C184.596 270.209 184.353 270.335 184.139 270.512C183.933 270.689 183.77 270.932 183.649 271.24C183.537 271.539 183.481 271.912 183.481 272.36V276H182.305ZM191.835 276V266.2H195.279C195.97 266.2 196.539 266.312 196.987 266.536C197.444 266.751 197.785 267.049 198.009 267.432C198.233 267.805 198.345 268.225 198.345 268.692C198.345 269.196 198.233 269.616 198.009 269.952C197.794 270.288 197.51 270.545 197.155 270.722C196.81 270.899 196.441 271.007 196.049 271.044L196.245 270.904C196.665 270.913 197.052 271.025 197.407 271.24C197.762 271.455 198.042 271.744 198.247 272.108C198.462 272.472 198.569 272.878 198.569 273.326C198.569 273.821 198.448 274.273 198.205 274.684C197.962 275.085 197.603 275.407 197.127 275.65C196.66 275.883 196.082 276 195.391 276H191.835ZM193.011 275.02H195.265C195.928 275.02 196.441 274.866 196.805 274.558C197.178 274.241 197.365 273.802 197.365 273.242C197.365 272.691 197.174 272.253 196.791 271.926C196.418 271.59 195.9 271.422 195.237 271.422H193.011V275.02ZM193.011 270.484H195.195C195.83 270.484 196.31 270.335 196.637 270.036C196.973 269.737 197.141 269.331 197.141 268.818C197.141 268.323 196.973 267.927 196.637 267.628C196.31 267.329 195.816 267.18 195.153 267.18H193.011V270.484ZM200.551 276V266.2H201.727V276H200.551Z" fill="white"/>
</g>
<g filter="url(#filter4_d_2483_58916)">
<rect x="228" y="200" width="116" height="36" rx="10" fill="#0C0D0E" shape-rendering="crispEdges"/>
<rect x="228.5" y="200.5" width="115" height="35" rx="9.5" stroke="#86888E" shape-rendering="crispEdges"/>
<path d="M239.515 214.331C240.352 214.331 241.03 213.786 241.03 213.114C241.03 212.442 240.352 211.896 239.515 211.896C238.678 211.896 238 212.442 238 213.114C238 213.786 238.678 214.331 239.515 214.331Z" fill="#86888E"/>
<path d="M239.515 217.74C240.352 217.74 241.03 217.195 241.03 216.522C241.03 215.85 240.352 215.305 239.515 215.305C238.678 215.305 238 215.85 238 216.522C238 217.195 238.678 217.74 239.515 217.74Z" fill="#86888E"/>
<path opacity="0.2" d="M243.757 214.331C244.594 214.331 245.272 213.786 245.272 213.114C245.272 212.442 244.594 211.896 243.757 211.896C242.921 211.896 242.242 212.442 242.242 213.114C242.242 213.786 242.921 214.331 243.757 214.331Z" fill="#86888E"/>
<path d="M243.757 217.773C244.594 217.773 245.272 217.228 245.272 216.555C245.272 215.883 244.594 215.338 243.757 215.338C242.921 215.338 242.242 215.883 242.242 216.555C242.242 217.228 242.921 217.773 243.757 217.773Z" fill="#86888E"/>
<path opacity="0.2" d="M248 214.331C248.836 214.331 249.515 213.786 249.515 213.114C249.515 212.442 248.836 211.896 248 211.896C247.163 211.896 246.484 212.442 246.484 213.114C246.484 213.786 247.163 214.331 248 214.331Z" fill="#86888E"/>
<path opacity="0.2" d="M248 210.435C248.836 210.435 249.515 209.89 249.515 209.217C249.515 208.545 248.836 208 248 208C247.163 208 246.484 208.545 246.484 209.217C246.484 209.89 247.163 210.435 248 210.435Z" fill="#86888E"/>
<path opacity="0.2" d="M248 217.773C248.836 217.773 249.515 217.228 249.515 216.555C249.515 215.883 248.836 215.338 248 215.338C247.163 215.338 246.484 215.883 246.484 216.555C246.484 217.228 247.163 217.773 248 217.773Z" fill="#86888E"/>
<path opacity="0.2" d="M252.242 214.331C253.079 214.331 253.757 213.786 253.757 213.114C253.757 212.442 253.079 211.896 252.242 211.896C251.405 211.896 250.727 212.442 250.727 213.114C250.727 213.786 251.405 214.331 252.242 214.331Z" fill="#86888E"/>
<path d="M256.485 214.331C257.322 214.331 258 213.786 258 213.114C258 212.442 257.322 211.896 256.485 211.896C255.648 211.896 254.97 212.442 254.97 213.114C254.97 213.786 255.648 214.331 256.485 214.331Z" fill="#86888E"/>
<path d="M252.242 217.773C253.079 217.773 253.757 217.228 253.757 216.555C253.757 215.883 253.079 215.338 252.242 215.338C251.405 215.338 250.727 215.883 250.727 216.555C250.727 217.228 251.405 217.773 252.242 217.773Z" fill="#86888E"/>
<path d="M256.485 217.773C257.322 217.773 258 217.228 258 216.555C258 215.883 257.322 215.338 256.485 215.338C255.648 215.338 254.97 215.883 254.97 216.555C254.97 217.228 255.648 217.773 256.485 217.773Z" fill="#86888E"/>
<path d="M239.515 221.15C240.352 221.15 241.03 220.605 241.03 219.932C241.03 219.26 240.352 218.715 239.515 218.715C238.678 218.715 238 219.26 238 219.932C238 220.605 238.678 221.15 239.515 221.15Z" fill="#86888E"/>
<path opacity="0.2" d="M243.757 221.183C244.594 221.183 245.272 220.638 245.272 219.966C245.272 219.293 244.594 218.748 243.757 218.748C242.921 218.748 242.242 219.293 242.242 219.966C242.242 220.638 242.921 221.183 243.757 221.183Z" fill="#86888E"/>
<path d="M248 221.183C248.836 221.183 249.515 220.638 249.515 219.966C249.515 219.293 248.836 218.748 248 218.748C247.163 218.748 246.484 219.293 246.484 219.966C246.484 220.638 247.163 221.183 248 221.183Z" fill="#86888E"/>
<path opacity="0.2" d="M252.242 221.183C253.079 221.183 253.757 220.638 253.757 219.966C253.757 219.293 253.079 218.748 252.242 218.748C251.405 218.748 250.727 219.293 250.727 219.966C250.727 220.638 251.405 221.183 252.242 221.183Z" fill="#86888E"/>
<path d="M256.485 221.183C257.322 221.183 258 220.638 258 219.966C258 219.293 257.322 218.748 256.485 218.748C255.648 218.748 254.97 219.293 254.97 219.966C254.97 220.638 255.648 221.183 256.485 221.183Z" fill="#86888E"/>
<path d="M239.515 224.558C240.352 224.558 241.03 224.013 241.03 223.341C241.03 222.668 240.352 222.123 239.515 222.123C238.678 222.123 238 222.668 238 223.341C238 224.013 238.678 224.558 239.515 224.558Z" fill="#86888E"/>
<path opacity="0.2" d="M243.757 224.591C244.594 224.591 245.272 224.046 245.272 223.374C245.272 222.701 244.594 222.156 243.757 222.156C242.921 222.156 242.242 222.701 242.242 223.374C242.242 224.046 242.921 224.591 243.757 224.591Z" fill="#86888E"/>
<path opacity="0.2" d="M248 224.591C248.836 224.591 249.515 224.046 249.515 223.374C249.515 222.701 248.836 222.156 248 222.156C247.163 222.156 246.484 222.701 246.484 223.374C246.484 224.046 247.163 224.591 248 224.591Z" fill="#86888E"/>
<path opacity="0.2" d="M248 227.999C248.836 227.999 249.515 227.454 249.515 226.782C249.515 226.11 248.836 225.564 248 225.564C247.163 225.564 246.484 226.11 246.484 226.782C246.484 227.454 247.163 227.999 248 227.999Z" fill="#86888E"/>
<path opacity="0.2" d="M252.242 224.591C253.079 224.591 253.757 224.046 253.757 223.374C253.757 222.701 253.079 222.156 252.242 222.156C251.405 222.156 250.727 222.701 250.727 223.374C250.727 224.046 251.405 224.591 252.242 224.591Z" fill="#86888E"/>
<path d="M256.485 224.591C257.322 224.591 258 224.046 258 223.374C258 222.701 257.322 222.156 256.485 222.156C255.648 222.156 254.97 222.701 254.97 223.374C254.97 224.046 255.648 224.591 256.485 224.591Z" fill="#86888E"/>
<path d="M269.05 223V213.2H270.422L273.88 220.046L277.352 213.2H278.738V223H277.562V215.3L274.328 221.628H273.446L270.226 215.328V223H269.05ZM284.125 223.168C283.463 223.168 282.875 223.014 282.361 222.706C281.857 222.398 281.461 221.969 281.171 221.418C280.882 220.858 280.737 220.209 280.737 219.472C280.737 218.725 280.877 218.077 281.157 217.526C281.447 216.975 281.848 216.546 282.361 216.238C282.884 215.93 283.481 215.776 284.153 215.776C284.844 215.776 285.427 215.93 285.903 216.238C286.389 216.546 286.757 216.952 287.009 217.456C287.271 217.951 287.401 218.497 287.401 219.094C287.401 219.187 287.401 219.285 287.401 219.388C287.401 219.491 287.397 219.607 287.387 219.738H281.619V218.828H286.253C286.225 218.184 286.011 217.68 285.609 217.316C285.217 216.952 284.723 216.77 284.125 216.77C283.724 216.77 283.351 216.863 283.005 217.05C282.669 217.227 282.399 217.493 282.193 217.848C281.988 218.193 281.885 218.627 281.885 219.15V219.542C281.885 220.121 281.988 220.606 282.193 220.998C282.408 221.39 282.683 221.684 283.019 221.88C283.365 222.076 283.733 222.174 284.125 222.174C284.62 222.174 285.026 222.067 285.343 221.852C285.67 221.628 285.903 221.329 286.043 220.956H287.205C287.093 221.376 286.897 221.754 286.617 222.09C286.337 222.426 285.987 222.692 285.567 222.888C285.157 223.075 284.676 223.168 284.125 223.168ZM291.808 223C291.388 223 291.024 222.935 290.716 222.804C290.408 222.673 290.17 222.454 290.002 222.146C289.843 221.829 289.764 221.404 289.764 220.872V216.938H288.532V215.944H289.764L289.918 214.236H290.94V215.944H292.984V216.938H290.94V220.872C290.94 221.311 291.029 221.609 291.206 221.768C291.383 221.917 291.696 221.992 292.144 221.992H292.9V223H291.808ZM297.095 223.168C296.525 223.168 296.049 223.07 295.667 222.874C295.284 222.669 294.999 222.403 294.813 222.076C294.626 221.74 294.533 221.376 294.533 220.984C294.533 220.508 294.654 220.107 294.897 219.78C295.149 219.444 295.499 219.192 295.947 219.024C296.404 218.847 296.941 218.758 297.557 218.758H299.419C299.419 218.319 299.349 217.955 299.209 217.666C299.078 217.367 298.882 217.143 298.621 216.994C298.369 216.845 298.051 216.77 297.669 216.77C297.221 216.77 296.833 216.882 296.507 217.106C296.18 217.33 295.979 217.661 295.905 218.1H294.701C294.757 217.596 294.925 217.176 295.205 216.84C295.494 216.495 295.858 216.233 296.297 216.056C296.735 215.869 297.193 215.776 297.669 215.776C298.322 215.776 298.863 215.897 299.293 216.14C299.731 216.373 300.058 216.705 300.273 217.134C300.487 217.554 300.595 218.053 300.595 218.632V223H299.545L299.475 221.754C299.381 221.95 299.26 222.137 299.111 222.314C298.971 222.482 298.803 222.631 298.607 222.762C298.411 222.883 298.187 222.981 297.935 223.056C297.692 223.131 297.412 223.168 297.095 223.168ZM297.277 222.174C297.603 222.174 297.897 222.109 298.159 221.978C298.429 221.838 298.658 221.651 298.845 221.418C299.031 221.175 299.171 220.909 299.265 220.62C299.367 220.331 299.419 220.027 299.419 219.71V219.668H297.655C297.197 219.668 296.829 219.724 296.549 219.836C296.269 219.939 296.068 220.088 295.947 220.284C295.825 220.471 295.765 220.685 295.765 220.928C295.765 221.18 295.821 221.399 295.933 221.586C296.054 221.773 296.227 221.917 296.451 222.02C296.684 222.123 296.959 222.174 297.277 222.174ZM306.39 223.168C305.988 223.168 305.624 223.112 305.298 223C304.98 222.879 304.7 222.72 304.458 222.524C304.215 222.328 304.014 222.099 303.856 221.838L303.758 223H302.694V212.92H303.87V217.106C304.094 216.742 304.416 216.429 304.836 216.168C305.256 215.907 305.774 215.776 306.39 215.776C307.071 215.776 307.668 215.939 308.182 216.266C308.695 216.583 309.092 217.022 309.372 217.582C309.661 218.133 309.806 218.763 309.806 219.472C309.806 220.181 309.661 220.816 309.372 221.376C309.092 221.936 308.695 222.375 308.182 222.692C307.668 223.009 307.071 223.168 306.39 223.168ZM306.25 222.146C306.707 222.146 307.113 222.034 307.468 221.81C307.822 221.586 308.098 221.278 308.294 220.886C308.499 220.485 308.602 220.013 308.602 219.472C308.602 218.94 308.499 218.473 308.294 218.072C308.098 217.671 307.822 217.358 307.468 217.134C307.113 216.91 306.707 216.798 306.25 216.798C305.783 216.798 305.372 216.91 305.018 217.134C304.663 217.358 304.388 217.671 304.192 218.072C303.996 218.473 303.898 218.94 303.898 219.472C303.898 220.013 303.996 220.485 304.192 220.886C304.388 221.278 304.663 221.586 305.018 221.81C305.372 222.034 305.783 222.146 306.25 222.146ZM314.033 223.168C313.464 223.168 312.988 223.07 312.605 222.874C312.223 222.669 311.938 222.403 311.751 222.076C311.565 221.74 311.471 221.376 311.471 220.984C311.471 220.508 311.593 220.107 311.835 219.78C312.087 219.444 312.437 219.192 312.885 219.024C313.343 218.847 313.879 218.758 314.495 218.758H316.357C316.357 218.319 316.287 217.955 316.147 217.666C316.017 217.367 315.821 217.143 315.559 216.994C315.307 216.845 314.99 216.77 314.607 216.77C314.159 216.77 313.772 216.882 313.445 217.106C313.119 217.33 312.918 217.661 312.843 218.1H311.639C311.695 217.596 311.863 217.176 312.143 216.84C312.433 216.495 312.797 216.233 313.235 216.056C313.674 215.869 314.131 215.776 314.607 215.776C315.261 215.776 315.802 215.897 316.231 216.14C316.67 216.373 316.997 216.705 317.211 217.134C317.426 217.554 317.533 218.053 317.533 218.632V223H316.483L316.413 221.754C316.32 221.95 316.199 222.137 316.049 222.314C315.909 222.482 315.741 222.631 315.545 222.762C315.349 222.883 315.125 222.981 314.873 223.056C314.631 223.131 314.351 223.168 314.033 223.168ZM314.215 222.174C314.542 222.174 314.836 222.109 315.097 221.978C315.368 221.838 315.597 221.651 315.783 221.418C315.97 221.175 316.11 220.909 316.203 220.62C316.306 220.331 316.357 220.027 316.357 219.71V219.668H314.593C314.136 219.668 313.767 219.724 313.487 219.836C313.207 219.939 313.007 220.088 312.885 220.284C312.764 220.471 312.703 220.685 312.703 220.928C312.703 221.18 312.759 221.399 312.871 221.586C312.993 221.773 313.165 221.917 313.389 222.02C313.623 222.123 313.898 222.174 314.215 222.174ZM322.293 223.168C321.705 223.168 321.191 223.07 320.753 222.874C320.323 222.678 319.978 222.407 319.717 222.062C319.465 221.707 319.311 221.292 319.255 220.816H320.459C320.505 221.059 320.603 221.283 320.753 221.488C320.902 221.693 321.103 221.861 321.355 221.992C321.616 222.113 321.933 222.174 322.307 222.174C322.633 222.174 322.904 222.127 323.119 222.034C323.333 221.931 323.492 221.796 323.595 221.628C323.707 221.46 323.763 221.278 323.763 221.082C323.763 220.793 323.693 220.573 323.553 220.424C323.422 220.275 323.226 220.158 322.965 220.074C322.703 219.981 322.386 219.901 322.013 219.836C321.705 219.78 321.401 219.705 321.103 219.612C320.804 219.519 320.538 219.397 320.305 219.248C320.071 219.089 319.885 218.898 319.745 218.674C319.614 218.45 319.549 218.175 319.549 217.848C319.549 217.447 319.651 217.092 319.857 216.784C320.062 216.467 320.356 216.219 320.739 216.042C321.131 215.865 321.583 215.776 322.097 215.776C322.853 215.776 323.464 215.958 323.931 216.322C324.397 216.686 324.673 217.213 324.757 217.904H323.595C323.548 217.549 323.394 217.274 323.133 217.078C322.881 216.873 322.531 216.77 322.083 216.77C321.644 216.77 321.308 216.859 321.075 217.036C320.851 217.213 320.739 217.447 320.739 217.736C320.739 217.923 320.799 218.091 320.921 218.24C321.051 218.38 321.238 218.501 321.481 218.604C321.733 218.707 322.041 218.791 322.405 218.856C322.871 218.94 323.296 219.052 323.679 219.192C324.061 219.332 324.369 219.542 324.603 219.822C324.845 220.093 324.967 220.48 324.967 220.984C324.967 221.423 324.855 221.805 324.631 222.132C324.416 222.459 324.108 222.715 323.707 222.902C323.305 223.079 322.834 223.168 322.293 223.168ZM330.034 223.168C329.371 223.168 328.783 223.014 328.27 222.706C327.766 222.398 327.369 221.969 327.08 221.418C326.791 220.858 326.646 220.209 326.646 219.472C326.646 218.725 326.786 218.077 327.066 217.526C327.355 216.975 327.757 216.546 328.27 216.238C328.793 215.93 329.39 215.776 330.062 215.776C330.753 215.776 331.336 215.93 331.812 216.238C332.297 216.546 332.666 216.952 332.918 217.456C333.179 217.951 333.31 218.497 333.31 219.094C333.31 219.187 333.31 219.285 333.31 219.388C333.31 219.491 333.305 219.607 333.296 219.738H327.528V218.828H332.162C332.134 218.184 331.919 217.68 331.518 217.316C331.126 216.952 330.631 216.77 330.034 216.77C329.633 216.77 329.259 216.863 328.914 217.05C328.578 217.227 328.307 217.493 328.102 217.848C327.897 218.193 327.794 218.627 327.794 219.15V219.542C327.794 220.121 327.897 220.606 328.102 220.998C328.317 221.39 328.592 221.684 328.928 221.88C329.273 222.076 329.642 222.174 330.034 222.174C330.529 222.174 330.935 222.067 331.252 221.852C331.579 221.628 331.812 221.329 331.952 220.956H333.114C333.002 221.376 332.806 221.754 332.526 222.09C332.246 222.426 331.896 222.692 331.476 222.888C331.065 223.075 330.585 223.168 330.034 223.168Z" fill="white"/>
</g>
<g filter="url(#filter5_d_2483_58916)">
<rect x="156" y="306" width="130" height="36" rx="10" fill="#0C0D0E" shape-rendering="crispEdges"/>
<rect x="156.5" y="306.5" width="129" height="35" rx="9.5" stroke="#86888E" shape-rendering="crispEdges"/>
<circle cx="177" cy="324" r="10.5" stroke="#86888E"/>
<path d="M172.289 323.513C172.324 323.267 172.535 323.084 172.784 323.084H173.749C174.056 323.084 174.29 323.358 174.243 323.661L173.555 328.078C173.517 328.321 173.307 328.501 173.061 328.501H172.153C171.849 328.501 171.615 328.231 171.658 327.93L172.289 323.513Z" stroke="#86888E"/>
<path d="M176.307 321.69C176.337 321.439 176.55 321.25 176.803 321.25H177.788C178.088 321.25 178.321 321.512 178.285 321.81L177.527 328.06C177.497 328.311 177.284 328.5 177.031 328.5H176.046C175.746 328.5 175.513 328.238 175.549 327.94L176.307 321.69Z" stroke="#86888E"/>
<path d="M180.319 318.947C180.346 318.693 180.561 318.5 180.817 318.5H181.822C182.116 318.5 182.347 318.752 182.32 319.045L181.502 328.045C181.478 328.303 181.262 328.5 181.004 328.5H179.862C179.565 328.5 179.333 328.243 179.364 327.947L180.319 318.947Z" stroke="#86888E"/>
<path d="M201.234 329.168C200.646 329.168 200.137 329.056 199.708 328.832C199.288 328.608 198.961 328.286 198.728 327.866C198.504 327.446 198.392 326.947 198.392 326.368H199.582C199.582 326.695 199.633 326.993 199.736 327.264C199.848 327.525 200.021 327.735 200.254 327.894C200.497 328.043 200.819 328.118 201.22 328.118C201.612 328.118 201.92 328.043 202.144 327.894C202.377 327.745 202.541 327.544 202.634 327.292C202.737 327.031 202.788 326.737 202.788 326.41V319.2H203.964V326.41C203.964 327.287 203.721 327.969 203.236 328.454C202.76 328.93 202.093 329.168 201.234 329.168ZM209.368 329.168C208.705 329.168 208.117 329.014 207.604 328.706C207.1 328.398 206.703 327.969 206.414 327.418C206.124 326.858 205.98 326.209 205.98 325.472C205.98 324.725 206.12 324.077 206.4 323.526C206.689 322.975 207.09 322.546 207.604 322.238C208.126 321.93 208.724 321.776 209.396 321.776C210.086 321.776 210.67 321.93 211.146 322.238C211.631 322.546 212 322.952 212.252 323.456C212.513 323.951 212.644 324.497 212.644 325.094C212.644 325.187 212.644 325.285 212.644 325.388C212.644 325.491 212.639 325.607 212.63 325.738H206.862V324.828H211.496C211.468 324.184 211.253 323.68 210.852 323.316C210.46 322.952 209.965 322.77 209.368 322.77C208.966 322.77 208.593 322.863 208.248 323.05C207.912 323.227 207.641 323.493 207.436 323.848C207.23 324.193 207.128 324.627 207.128 325.15V325.542C207.128 326.121 207.23 326.606 207.436 326.998C207.65 327.39 207.926 327.684 208.262 327.88C208.607 328.076 208.976 328.174 209.368 328.174C209.862 328.174 210.268 328.067 210.586 327.852C210.912 327.628 211.146 327.329 211.286 326.956H212.448C212.336 327.376 212.14 327.754 211.86 328.09C211.58 328.426 211.23 328.692 210.81 328.888C210.399 329.075 209.918 329.168 209.368 329.168ZM217.05 329C216.63 329 216.266 328.935 215.958 328.804C215.65 328.673 215.412 328.454 215.244 328.146C215.086 327.829 215.006 327.404 215.006 326.872V322.938H213.774V321.944H215.006L215.16 320.236H216.182V321.944H218.226V322.938H216.182V326.872C216.182 327.311 216.271 327.609 216.448 327.768C216.626 327.917 216.938 327.992 217.386 327.992H218.142V329H217.05ZM224.109 329V319.2H227.273C228.039 319.2 228.664 319.331 229.149 319.592C229.635 319.844 229.994 320.185 230.227 320.614C230.461 321.043 230.577 321.529 230.577 322.07C230.577 322.593 230.456 323.073 230.213 323.512C229.98 323.951 229.616 324.301 229.121 324.562C228.627 324.823 227.992 324.954 227.217 324.954H225.285V329H224.109ZM229.289 329L227.133 324.618H228.449L230.675 329H229.289ZM225.285 324.03H227.189C227.936 324.03 228.482 323.848 228.827 323.484C229.182 323.12 229.359 322.653 229.359 322.084C229.359 321.505 229.187 321.048 228.841 320.712C228.505 320.367 227.95 320.194 227.175 320.194H225.285V324.03ZM235.302 329.168C234.639 329.168 234.051 329.014 233.538 328.706C233.034 328.398 232.637 327.969 232.348 327.418C232.059 326.858 231.914 326.209 231.914 325.472C231.914 324.725 232.054 324.077 232.334 323.526C232.623 322.975 233.025 322.546 233.538 322.238C234.061 321.93 234.658 321.776 235.33 321.776C236.021 321.776 236.604 321.93 237.08 322.238C237.565 322.546 237.934 322.952 238.186 323.456C238.447 323.951 238.578 324.497 238.578 325.094C238.578 325.187 238.578 325.285 238.578 325.388C238.578 325.491 238.573 325.607 238.564 325.738H232.796V324.828H237.43C237.402 324.184 237.187 323.68 236.786 323.316C236.394 322.952 235.899 322.77 235.302 322.77C234.901 322.77 234.527 322.863 234.182 323.05C233.846 323.227 233.575 323.493 233.37 323.848C233.165 324.193 233.062 324.627 233.062 325.15V325.542C233.062 326.121 233.165 326.606 233.37 326.998C233.585 327.39 233.86 327.684 234.196 327.88C234.541 328.076 234.91 328.174 235.302 328.174C235.797 328.174 236.203 328.067 236.52 327.852C236.847 327.628 237.08 327.329 237.22 326.956H238.382C238.27 327.376 238.074 327.754 237.794 328.09C237.514 328.426 237.164 328.692 236.744 328.888C236.333 329.075 235.853 329.168 235.302 329.168ZM240.445 332.08V321.944H241.509L241.607 323.092C241.756 322.868 241.948 322.658 242.181 322.462C242.414 322.257 242.694 322.093 243.021 321.972C243.348 321.841 243.721 321.776 244.141 321.776C244.832 321.776 245.429 321.939 245.933 322.266C246.446 322.593 246.843 323.036 247.123 323.596C247.412 324.147 247.557 324.777 247.557 325.486C247.557 326.195 247.412 326.83 247.123 327.39C246.843 327.941 246.446 328.375 245.933 328.692C245.42 329.009 244.818 329.168 244.127 329.168C243.558 329.168 243.054 329.051 242.615 328.818C242.186 328.585 241.854 328.258 241.621 327.838V332.08H240.445ZM244.001 328.146C244.458 328.146 244.864 328.034 245.219 327.81C245.574 327.586 245.849 327.278 246.045 326.886C246.25 326.485 246.353 326.013 246.353 325.472C246.353 324.94 246.25 324.473 246.045 324.072C245.849 323.671 245.574 323.358 245.219 323.134C244.864 322.91 244.458 322.798 244.001 322.798C243.534 322.798 243.124 322.91 242.769 323.134C242.414 323.358 242.139 323.671 241.943 324.072C241.747 324.473 241.649 324.94 241.649 325.472C241.649 326.013 241.747 326.485 241.943 326.886C242.139 327.278 242.414 327.586 242.769 327.81C243.124 328.034 243.534 328.146 244.001 328.146ZM252.639 329.168C251.985 329.168 251.397 329.019 250.875 328.72C250.352 328.412 249.941 327.983 249.643 327.432C249.344 326.872 249.195 326.223 249.195 325.486C249.195 324.73 249.344 324.077 249.643 323.526C249.951 322.966 250.366 322.537 250.889 322.238C251.421 321.93 252.013 321.776 252.667 321.776C253.339 321.776 253.931 321.93 254.445 322.238C254.967 322.537 255.378 322.966 255.677 323.526C255.985 324.077 256.139 324.725 256.139 325.472C256.139 326.219 255.985 326.872 255.677 327.432C255.369 327.983 254.953 328.412 254.431 328.72C253.908 329.019 253.311 329.168 252.639 329.168ZM252.653 328.16C253.054 328.16 253.427 328.062 253.773 327.866C254.118 327.661 254.398 327.357 254.613 326.956C254.827 326.555 254.935 326.06 254.935 325.472C254.935 324.875 254.827 324.38 254.613 323.988C254.407 323.587 254.132 323.288 253.787 323.092C253.451 322.887 253.077 322.784 252.667 322.784C252.275 322.784 251.901 322.887 251.547 323.092C251.201 323.288 250.921 323.587 250.707 323.988C250.501 324.38 250.399 324.875 250.399 325.472C250.399 326.06 250.501 326.555 250.707 326.956C250.921 327.357 251.197 327.661 251.533 327.866C251.878 328.062 252.251 328.16 252.653 328.16ZM258.068 329V321.944H259.132L259.216 323.288C259.374 322.971 259.575 322.7 259.818 322.476C260.07 322.252 260.368 322.079 260.714 321.958C261.068 321.837 261.47 321.776 261.918 321.776V323.008H261.484C261.185 323.008 260.9 323.05 260.63 323.134C260.359 323.209 260.116 323.335 259.902 323.512C259.696 323.689 259.533 323.932 259.412 324.24C259.3 324.539 259.244 324.912 259.244 325.36V329H258.068ZM266.301 329C265.881 329 265.517 328.935 265.209 328.804C264.901 328.673 264.663 328.454 264.495 328.146C264.337 327.829 264.257 327.404 264.257 326.872V322.938H263.025V321.944H264.257L264.411 320.236H265.433V321.944H267.477V322.938H265.433V326.872C265.433 327.311 265.522 327.609 265.699 327.768C265.877 327.917 266.189 327.992 266.637 327.992H267.393V329H266.301ZM271.952 329.168C271.364 329.168 270.85 329.07 270.412 328.874C269.982 328.678 269.637 328.407 269.376 328.062C269.124 327.707 268.97 327.292 268.914 326.816H270.118C270.164 327.059 270.262 327.283 270.412 327.488C270.561 327.693 270.762 327.861 271.014 327.992C271.275 328.113 271.592 328.174 271.966 328.174C272.292 328.174 272.563 328.127 272.778 328.034C272.992 327.931 273.151 327.796 273.254 327.628C273.366 327.46 273.422 327.278 273.422 327.082C273.422 326.793 273.352 326.573 273.212 326.424C273.081 326.275 272.885 326.158 272.624 326.074C272.362 325.981 272.045 325.901 271.672 325.836C271.364 325.78 271.06 325.705 270.762 325.612C270.463 325.519 270.197 325.397 269.964 325.248C269.73 325.089 269.544 324.898 269.404 324.674C269.273 324.45 269.208 324.175 269.208 323.848C269.208 323.447 269.31 323.092 269.516 322.784C269.721 322.467 270.015 322.219 270.398 322.042C270.79 321.865 271.242 321.776 271.756 321.776C272.512 321.776 273.123 321.958 273.59 322.322C274.056 322.686 274.332 323.213 274.416 323.904H273.254C273.207 323.549 273.053 323.274 272.792 323.078C272.54 322.873 272.19 322.77 271.742 322.77C271.303 322.77 270.967 322.859 270.734 323.036C270.51 323.213 270.398 323.447 270.398 323.736C270.398 323.923 270.458 324.091 270.58 324.24C270.71 324.38 270.897 324.501 271.14 324.604C271.392 324.707 271.7 324.791 272.064 324.856C272.53 324.94 272.955 325.052 273.338 325.192C273.72 325.332 274.028 325.542 274.262 325.822C274.504 326.093 274.626 326.48 274.626 326.984C274.626 327.423 274.514 327.805 274.29 328.132C274.075 328.459 273.767 328.715 273.366 328.902C272.964 329.079 272.493 329.168 271.952 329.168Z" fill="white"/>
</g>
<g filter="url(#filter6_d_2483_58916)">
<rect x="229" y="253" width="102" height="36" rx="10" fill="#0C0D0E" shape-rendering="crispEdges"/>
<rect x="229.5" y="253.5" width="101" height="35" rx="9.5" stroke="#86888E" shape-rendering="crispEdges"/>
<g clip-path="url(#clip1_2483_58916)">
<path d="M248.682 262.101V263.01H247.055V263.602H248.682V265.413H249.318V263.602H250.985V263.01H249.318V261.195H248.682V262.101Z" fill="#ACADAE"/>
<path d="M243.366 264.408V265.727H240.904V266.556H243.366V269.236H244.279V266.556H246.778V265.727H244.279V263.088H243.366V264.408Z" fill="#EEEFF1"/>
<path d="M253.684 264.408V265.727H251.222V266.596H253.684V269.236H254.634V266.596H257.096V265.727H254.634V263.088H253.684V264.408Z" fill="#86888E"/>
<path d="M248.445 268.903V270.381H245.706V271.483H248.445V274.44H249.554V271.483H252.294V270.381H249.554V267.424H248.445V268.903Z" fill="#313337"/>
<path d="M256.501 269.651V270.579H254.833V271.329H256.501V273.181H257.333V271.329H259V270.579H257.333V268.727H256.501V269.651Z" fill="#D9D9D9"/>
<path d="M240.627 269.731V270.618H239V271.247H240.627V273.021H241.262V271.247L242.93 271.188V270.618H241.262V268.844H240.627V269.731Z" fill="#ACADAE"/>
<path d="M243.366 273.91V275.229H240.904V276.098H243.366V278.738H244.316V276.098H246.778V275.229H244.316V272.59H243.366V273.91Z" fill="#575B62"/>
<path d="M253.684 273.91V275.229H251.222V276.057H253.684V278.738H254.634V276.057H257.096V275.229H254.634V272.59H253.684V273.91Z" fill="#9FA1A6"/>
<path d="M248.604 277.262V278.186H246.937V278.937H248.604V280.789H249.436V278.937H251.103V278.186H249.436V276.334H248.604V277.262Z" fill="#D9D9D9"/>
</g>
<path d="M272.346 276V267.166H269.42V266.2H276.448V267.166H273.522V276H272.346ZM279.365 276.168C278.795 276.168 278.319 276.07 277.937 275.874C277.554 275.669 277.269 275.403 277.083 275.076C276.896 274.74 276.803 274.376 276.803 273.984C276.803 273.508 276.924 273.107 277.167 272.78C277.419 272.444 277.769 272.192 278.217 272.024C278.674 271.847 279.211 271.758 279.827 271.758H281.689C281.689 271.319 281.619 270.955 281.479 270.666C281.348 270.367 281.152 270.143 280.891 269.994C280.639 269.845 280.321 269.77 279.939 269.77C279.491 269.77 279.103 269.882 278.777 270.106C278.45 270.33 278.249 270.661 278.175 271.1H276.971C277.027 270.596 277.195 270.176 277.475 269.84C277.764 269.495 278.128 269.233 278.567 269.056C279.005 268.869 279.463 268.776 279.939 268.776C280.592 268.776 281.133 268.897 281.563 269.14C282.001 269.373 282.328 269.705 282.543 270.134C282.757 270.554 282.865 271.053 282.865 271.632V276H281.815L281.745 274.754C281.651 274.95 281.53 275.137 281.381 275.314C281.241 275.482 281.073 275.631 280.877 275.762C280.681 275.883 280.457 275.981 280.205 276.056C279.962 276.131 279.682 276.168 279.365 276.168ZM279.547 275.174C279.873 275.174 280.167 275.109 280.429 274.978C280.699 274.838 280.928 274.651 281.115 274.418C281.301 274.175 281.441 273.909 281.535 273.62C281.637 273.331 281.689 273.027 281.689 272.71V272.668H279.925C279.467 272.668 279.099 272.724 278.819 272.836C278.539 272.939 278.338 273.088 278.217 273.284C278.095 273.471 278.035 273.685 278.035 273.928C278.035 274.18 278.091 274.399 278.203 274.586C278.324 274.773 278.497 274.917 278.721 275.02C278.954 275.123 279.229 275.174 279.547 275.174ZM288.66 276.168C288.258 276.168 287.894 276.112 287.568 276C287.25 275.879 286.97 275.72 286.728 275.524C286.485 275.328 286.284 275.099 286.126 274.838L286.028 276H284.964V265.92H286.14V270.106C286.364 269.742 286.686 269.429 287.106 269.168C287.526 268.907 288.044 268.776 288.66 268.776C289.341 268.776 289.938 268.939 290.452 269.266C290.965 269.583 291.362 270.022 291.642 270.582C291.931 271.133 292.076 271.763 292.076 272.472C292.076 273.181 291.931 273.816 291.642 274.376C291.362 274.936 290.965 275.375 290.452 275.692C289.938 276.009 289.341 276.168 288.66 276.168ZM288.52 275.146C288.977 275.146 289.383 275.034 289.738 274.81C290.092 274.586 290.368 274.278 290.564 273.886C290.769 273.485 290.872 273.013 290.872 272.472C290.872 271.94 290.769 271.473 290.564 271.072C290.368 270.671 290.092 270.358 289.738 270.134C289.383 269.91 288.977 269.798 288.52 269.798C288.053 269.798 287.642 269.91 287.288 270.134C286.933 270.358 286.658 270.671 286.462 271.072C286.266 271.473 286.168 271.94 286.168 272.472C286.168 273.013 286.266 273.485 286.462 273.886C286.658 274.278 286.933 274.586 287.288 274.81C287.642 275.034 288.053 275.146 288.52 275.146ZM294.008 276V265.92H295.184V276H294.008ZM300.499 276.168C299.836 276.168 299.248 276.014 298.735 275.706C298.231 275.398 297.834 274.969 297.545 274.418C297.255 273.858 297.111 273.209 297.111 272.472C297.111 271.725 297.251 271.077 297.531 270.526C297.82 269.975 298.221 269.546 298.735 269.238C299.257 268.93 299.855 268.776 300.527 268.776C301.217 268.776 301.801 268.93 302.277 269.238C302.762 269.546 303.131 269.952 303.383 270.456C303.644 270.951 303.775 271.497 303.775 272.094C303.775 272.187 303.775 272.285 303.775 272.388C303.775 272.491 303.77 272.607 303.761 272.738H297.993V271.828H302.627C302.599 271.184 302.384 270.68 301.983 270.316C301.591 269.952 301.096 269.77 300.499 269.77C300.097 269.77 299.724 269.863 299.379 270.05C299.043 270.227 298.772 270.493 298.567 270.848C298.361 271.193 298.259 271.627 298.259 272.15V272.542C298.259 273.121 298.361 273.606 298.567 273.998C298.781 274.39 299.057 274.684 299.393 274.88C299.738 275.076 300.107 275.174 300.499 275.174C300.993 275.174 301.399 275.067 301.717 274.852C302.043 274.628 302.277 274.329 302.417 273.956H303.579C303.467 274.376 303.271 274.754 302.991 275.09C302.711 275.426 302.361 275.692 301.941 275.888C301.53 276.075 301.049 276.168 300.499 276.168ZM307.938 276.168C307.368 276.168 306.892 276.07 306.51 275.874C306.127 275.669 305.842 275.403 305.656 275.076C305.469 274.74 305.376 274.376 305.376 273.984C305.376 273.508 305.497 273.107 305.74 272.78C305.992 272.444 306.342 272.192 306.79 272.024C307.247 271.847 307.784 271.758 308.4 271.758H310.262C310.262 271.319 310.192 270.955 310.052 270.666C309.921 270.367 309.725 270.143 309.464 269.994C309.212 269.845 308.894 269.77 308.512 269.77C308.064 269.77 307.676 269.882 307.35 270.106C307.023 270.33 306.822 270.661 306.748 271.1H305.544C305.6 270.596 305.768 270.176 306.048 269.84C306.337 269.495 306.701 269.233 307.14 269.056C307.578 268.869 308.036 268.776 308.512 268.776C309.165 268.776 309.706 268.897 310.136 269.14C310.574 269.373 310.901 269.705 311.116 270.134C311.33 270.554 311.438 271.053 311.438 271.632V276H310.388L310.318 274.754C310.224 274.95 310.103 275.137 309.954 275.314C309.814 275.482 309.646 275.631 309.45 275.762C309.254 275.883 309.03 275.981 308.778 276.056C308.535 276.131 308.255 276.168 307.938 276.168ZM308.12 275.174C308.446 275.174 308.74 275.109 309.002 274.978C309.272 274.838 309.501 274.651 309.688 274.418C309.874 274.175 310.014 273.909 310.108 273.62C310.21 273.331 310.262 273.027 310.262 272.71V272.668H308.498C308.04 272.668 307.672 272.724 307.392 272.836C307.112 272.939 306.911 273.088 306.79 273.284C306.668 273.471 306.608 273.685 306.608 273.928C306.608 274.18 306.664 274.399 306.776 274.586C306.897 274.773 307.07 274.917 307.294 275.02C307.527 275.123 307.802 275.174 308.12 275.174ZM316.099 276.168C315.558 276.168 315.082 276.061 314.671 275.846C314.27 275.631 313.957 275.3 313.733 274.852C313.518 274.404 313.411 273.844 313.411 273.172V268.944H314.587V273.046C314.587 273.746 314.741 274.273 315.049 274.628C315.357 274.983 315.791 275.16 316.351 275.16C316.743 275.16 317.098 275.067 317.415 274.88C317.732 274.684 317.98 274.409 318.157 274.054C318.344 273.69 318.437 273.247 318.437 272.724V268.944H319.613V276H318.549L318.479 274.768C318.264 275.207 317.947 275.552 317.527 275.804C317.107 276.047 316.631 276.168 316.099 276.168Z" fill="white"/>
</g>
<defs>
<filter id="filter0_f_2483_58916" x="-214" y="-93" width="875" height="750" filterUnits="userSpaceOnUse" color-interpolation-filters="sRGB">
<feFlood flood-opacity="0" result="BackgroundImageFix"/>
<feBlend mode="normal" in="SourceGraphic" in2="BackgroundImageFix" result="shape"/>
<feGaussianBlur stdDeviation="150" result="effect1_foregroundBlur_2483_58916"/>
</filter>
<filter id="filter1_d_2483_58916" x="91" y="190" width="139" height="76" filterUnits="userSpaceOnUse" color-interpolation-filters="sRGB">
<feFlood flood-opacity="0" result="BackgroundImageFix"/>
<feColorMatrix in="SourceAlpha" type="matrix" values="0 0 0 0 0 0 0 0 0 0 0 0 0 0 0 0 0 0 127 0" result="hardAlpha"/>
<feOffset dy="10"/>
<feGaussianBlur stdDeviation="10"/>
<feComposite in2="hardAlpha" operator="out"/>
<feColorMatrix type="matrix" values="0 0 0 0 0 0 0 0 0 0 0 0 0 0 0 0 0 0 0.5 0"/>
<feBlend mode="normal" in2="BackgroundImageFix" result="effect1_dropShadow_2483_58916"/>
<feBlend mode="normal" in="SourceGraphic" in2="effect1_dropShadow_2483_58916" result="shape"/>
</filter>
<filter id="filter2_d_2483_58916" x="91" y="243" width="142.08" height="76" filterUnits="userSpaceOnUse" color-interpolation-filters="sRGB">
<feFlood flood-opacity="0" result="BackgroundImageFix"/>
<feColorMatrix in="SourceAlpha" type="matrix" values="0 0 0 0 0 0 0 0 0 0 0 0 0 0 0 0 0 0 127 0" result="hardAlpha"/>
<feOffset dy="10"/>
<feGaussianBlur stdDeviation="10"/>
<feComposite in2="hardAlpha" operator="out"/>
<feColorMatrix type="matrix" values="0 0 0 0 0 0 0 0 0 0 0 0 0 0 0 0 0 0 0.5 0"/>
<feBlend mode="normal" in2="BackgroundImageFix" result="effect1_dropShadow_2483_58916"/>
<feBlend mode="normal" in="SourceGraphic" in2="effect1_dropShadow_2483_58916" result="shape"/>
</filter>
<filter id="filter3_d_2483_58916" x="125.032" y="255.984" width="46.9526" height="55.0156" filterUnits="userSpaceOnUse" color-interpolation-filters="sRGB">
<feFlood flood-opacity="0" result="BackgroundImageFix"/>
<feColorMatrix in="SourceAlpha" type="matrix" values="0 0 0 0 0 0 0 0 0 0 0 0 0 0 0 0 0 0 127 0" result="hardAlpha"/>
<feOffset dx="20" dy="10"/>
<feGaussianBlur stdDeviation="10"/>
<feColorMatrix type="matrix" values="0 0 0 0 0 0 0 0 0 0 0 0 0 0 0 0 0 0 0.0530212 0"/>
<feBlend mode="normal" in2="BackgroundImageFix" result="effect1_dropShadow_2483_58916"/>
<feBlend mode="normal" in="SourceGraphic" in2="effect1_dropShadow_2483_58916" result="shape"/>
</filter>
<filter id="filter4_d_2483_58916" x="208" y="190" width="156" height="76" filterUnits="userSpaceOnUse" color-interpolation-filters="sRGB">
<feFlood flood-opacity="0" result="BackgroundImageFix"/>
<feColorMatrix in="SourceAlpha" type="matrix" values="0 0 0 0 0 0 0 0 0 0 0 0 0 0 0 0 0 0 127 0" result="hardAlpha"/>
<feOffset dy="10"/>
<feGaussianBlur stdDeviation="10"/>
<feComposite in2="hardAlpha" operator="out"/>
<feColorMatrix type="matrix" values="0 0 0 0 0 0 0 0 0 0 0 0 0 0 0 0 0 0 0.5 0"/>
<feBlend mode="normal" in2="BackgroundImageFix" result="effect1_dropShadow_2483_58916"/>
<feBlend mode="normal" in="SourceGraphic" in2="effect1_dropShadow_2483_58916" result="shape"/>
</filter>
<filter id="filter5_d_2483_58916" x="136" y="296" width="170" height="76" filterUnits="userSpaceOnUse" color-interpolation-filters="sRGB">
<feFlood flood-opacity="0" result="BackgroundImageFix"/>
<feColorMatrix in="SourceAlpha" type="matrix" values="0 0 0 0 0 0 0 0 0 0 0 0 0 0 0 0 0 0 127 0" result="hardAlpha"/>
<feOffset dy="10"/>
<feGaussianBlur stdDeviation="10"/>
<feComposite in2="hardAlpha" operator="out"/>
<feColorMatrix type="matrix" values="0 0 0 0 0 0 0 0 0 0 0 0 0 0 0 0 0 0 0.5 0"/>
<feBlend mode="normal" in2="BackgroundImageFix" result="effect1_dropShadow_2483_58916"/>
<feBlend mode="normal" in="SourceGraphic" in2="effect1_dropShadow_2483_58916" result="shape"/>
</filter>
<filter id="filter6_d_2483_58916" x="209" y="243" width="142" height="76" filterUnits="userSpaceOnUse" color-interpolation-filters="sRGB">
<feFlood flood-opacity="0" result="BackgroundImageFix"/>
<feColorMatrix in="SourceAlpha" type="matrix" values="0 0 0 0 0 0 0 0 0 0 0 0 0 0 0 0 0 0 127 0" result="hardAlpha"/>
<feOffset dy="10"/>
<feGaussianBlur stdDeviation="10"/>
<feComposite in2="hardAlpha" operator="out"/>
<feColorMatrix type="matrix" values="0 0 0 0 0 0 0 0 0 0 0 0 0 0 0 0 0 0 0.5 0"/>
<feBlend mode="normal" in2="BackgroundImageFix" result="effect1_dropShadow_2483_58916"/>
<feBlend mode="normal" in="SourceGraphic" in2="effect1_dropShadow_2483_58916" result="shape"/>
</filter>
<linearGradient id="paint0_linear_2483_58916" x1="223.5" y1="207" x2="223.5" y2="357" gradientUnits="userSpaceOnUse">
<stop stop-color="#0D0D11"/>
<stop offset="1" stop-color="#0D0D11" stop-opacity="0.5"/>
</linearGradient>
<clipPath id="clip0_2483_58916">
<rect width="24" height="24" fill="white" transform="translate(121 206)"/>
</clipPath>
<clipPath id="clip1_2483_58916">
<rect width="20" height="20" fill="white" transform="translate(239 261)"/>
</clipPath>
</defs>
</svg>
