<svg width="458" height="242" viewBox="0 0 458 242" fill="none" xmlns="http://www.w3.org/2000/svg">
<g filter="url(#filter0_d_2654_27027)">
<rect x="269" y="54" width="6" height="6" rx="1" fill="#86888E"/>
</g>
<g filter="url(#filter1_d_2654_27027)">
<rect x="268" y="130" width="6" height="6" rx="1" fill="#86888E"/>
</g>
<g filter="url(#filter2_d_2654_27027)">
<rect x="268" y="206" width="6" height="6" rx="1" fill="#86888E"/>
</g>
<path d="M283.104 60L285.288 54.976H282.216V54.4H285.976V54.904L283.816 60H283.104ZM287.537 60L289.721 54.976H286.649V54.4H290.409V54.904L288.249 60H287.537ZM293.08 60.096C292.728 60.096 292.427 60.0293 292.176 59.896C291.925 59.7573 291.725 59.5733 291.576 59.344C291.432 59.1093 291.344 58.8533 291.312 58.576H291.936C291.989 58.8747 292.117 59.1067 292.32 59.272C292.523 59.432 292.779 59.512 293.088 59.512C293.371 59.512 293.621 59.4267 293.84 59.256C294.059 59.0853 294.235 58.8267 294.368 58.48C294.507 58.128 294.584 57.6827 294.6 57.144C294.6 57.128 294.6 57.112 294.6 57.096C294.6 57.08 294.6 57.064 294.6 57.048C294.52 57.2133 294.403 57.368 294.248 57.512C294.093 57.656 293.909 57.7707 293.696 57.856C293.488 57.9413 293.253 57.984 292.992 57.984C292.677 57.984 292.379 57.9093 292.096 57.76C291.819 57.6107 291.592 57.4027 291.416 57.136C291.245 56.864 291.16 56.5467 291.16 56.184C291.16 55.8693 291.237 55.568 291.392 55.28C291.547 54.992 291.768 54.7573 292.056 54.576C292.344 54.3947 292.685 54.304 293.08 54.304C293.48 54.304 293.819 54.3813 294.096 54.536C294.373 54.6853 294.595 54.888 294.76 55.144C294.931 55.3947 295.053 55.68 295.128 56C295.203 56.32 295.24 56.6453 295.24 56.976C295.24 57.5893 295.155 58.1307 294.984 58.6C294.819 59.0693 294.573 59.4373 294.248 59.704C293.928 59.9653 293.539 60.096 293.08 60.096ZM293.128 57.4C293.373 57.4 293.595 57.344 293.792 57.232C293.989 57.12 294.144 56.968 294.256 56.776C294.373 56.584 294.432 56.3733 294.432 56.144C294.432 55.8987 294.373 55.6827 294.256 55.496C294.144 55.3093 293.989 55.1627 293.792 55.056C293.595 54.9493 293.373 54.896 293.128 54.896C292.883 54.896 292.661 54.952 292.464 55.064C292.272 55.1707 292.12 55.3173 292.008 55.504C291.896 55.6907 291.84 55.9067 291.84 56.152C291.84 56.4027 291.896 56.6213 292.008 56.808C292.12 56.9947 292.272 57.1413 292.464 57.248C292.661 57.3493 292.883 57.4 293.128 57.4ZM296.923 60V55.152L295.963 55.392V54.912L297.147 54.4H297.603V60H296.923ZM300.967 60.096C300.561 60.096 300.22 60.0213 299.943 59.872C299.665 59.7173 299.444 59.5147 299.279 59.264C299.113 59.008 298.991 58.72 298.911 58.4C298.836 58.08 298.799 57.7547 298.799 57.424C298.799 56.8053 298.884 56.264 299.055 55.8C299.225 55.3307 299.471 54.9653 299.791 54.704C300.116 54.4373 300.505 54.304 300.959 54.304C301.311 54.304 301.612 54.3733 301.863 54.512C302.119 54.6453 302.321 54.8267 302.471 55.056C302.62 55.2853 302.711 55.5413 302.743 55.824H302.119C302.065 55.5253 301.935 55.296 301.727 55.136C301.524 54.9707 301.265 54.888 300.951 54.888C300.673 54.888 300.423 54.976 300.199 55.152C299.975 55.3227 299.796 55.5867 299.663 55.944C299.535 56.296 299.46 56.7467 299.439 57.296C299.439 57.3013 299.439 57.3093 299.439 57.32C299.439 57.3307 299.439 57.3413 299.439 57.352C299.524 57.1867 299.641 57.032 299.791 56.888C299.945 56.744 300.129 56.6293 300.343 56.544C300.556 56.4587 300.793 56.416 301.055 56.416C301.369 56.416 301.665 56.4907 301.943 56.64C302.22 56.7893 302.444 57 302.615 57.272C302.791 57.5387 302.879 57.8533 302.879 58.216C302.879 58.5307 302.801 58.832 302.647 59.12C302.497 59.408 302.279 59.6427 301.991 59.824C301.703 60.0053 301.361 60.096 300.967 60.096ZM300.919 59.504C301.164 59.504 301.383 59.4507 301.575 59.344C301.772 59.232 301.924 59.0827 302.031 58.896C302.143 58.704 302.199 58.488 302.199 58.248C302.199 57.9973 302.143 57.7787 302.031 57.592C301.924 57.4053 301.772 57.2613 301.575 57.16C301.383 57.0533 301.164 57 300.919 57C300.673 57 300.452 57.056 300.255 57.168C300.057 57.28 299.9 57.432 299.783 57.624C299.671 57.8107 299.615 58.0213 299.615 58.256C299.615 58.496 299.671 58.712 299.783 58.904C299.9 59.0907 300.057 59.2373 300.255 59.344C300.452 59.4507 300.673 59.504 300.919 59.504Z" fill="#EEEFF1"/>
<path d="M281.512 136V135.528C281.891 135.229 282.251 134.928 282.592 134.624C282.939 134.32 283.245 134.019 283.512 133.72C283.779 133.416 283.987 133.12 284.136 132.832C284.291 132.544 284.368 132.267 284.368 132C284.368 131.803 284.333 131.621 284.264 131.456C284.195 131.285 284.083 131.147 283.928 131.04C283.779 130.933 283.576 130.88 283.32 130.88C283.069 130.88 282.861 130.936 282.696 131.048C282.531 131.155 282.405 131.299 282.32 131.48C282.24 131.656 282.2 131.851 282.2 132.064H281.552C281.557 131.696 281.635 131.381 281.784 131.12C281.939 130.853 282.149 130.651 282.416 130.512C282.683 130.373 282.987 130.304 283.328 130.304C283.664 130.304 283.96 130.368 284.216 130.496C284.472 130.619 284.672 130.803 284.816 131.048C284.965 131.293 285.04 131.603 285.04 131.976C285.04 132.237 284.984 132.499 284.872 132.76C284.765 133.021 284.621 133.277 284.44 133.528C284.259 133.773 284.056 134.011 283.832 134.24C283.613 134.469 283.387 134.685 283.152 134.888C282.923 135.091 282.707 135.275 282.504 135.44H285.232V136H281.512ZM288.435 136.096C287.945 136.096 287.521 135.976 287.163 135.736C286.811 135.491 286.542 135.152 286.355 134.72C286.169 134.283 286.075 133.776 286.075 133.2C286.075 132.624 286.169 132.12 286.355 131.688C286.542 131.251 286.811 130.912 287.163 130.672C287.521 130.427 287.945 130.304 288.435 130.304C288.926 130.304 289.345 130.427 289.691 130.672C290.043 130.912 290.313 131.251 290.499 131.688C290.686 132.12 290.779 132.624 290.779 133.2C290.779 133.776 290.686 134.283 290.499 134.72C290.313 135.152 290.043 135.491 289.691 135.736C289.345 135.976 288.926 136.096 288.435 136.096ZM288.427 135.504C288.747 135.504 289.033 135.413 289.283 135.232C289.534 135.045 289.731 134.781 289.875 134.44C290.019 134.093 290.091 133.68 290.091 133.2C290.091 132.72 290.019 132.309 289.875 131.968C289.731 131.621 289.534 131.357 289.283 131.176C289.033 130.995 288.747 130.904 288.427 130.904C288.107 130.904 287.819 130.995 287.563 131.176C287.313 131.357 287.115 131.621 286.971 131.968C286.833 132.309 286.763 132.72 286.763 133.2C286.763 133.68 286.833 134.093 286.971 134.44C287.115 134.781 287.313 135.045 287.563 135.232C287.819 135.413 288.107 135.504 288.427 135.504ZM292.315 136L294.499 130.976H291.427V130.4H295.187V130.904L293.027 136H292.315ZM297.943 136.096C297.581 136.096 297.255 136.029 296.967 135.896C296.679 135.757 296.45 135.568 296.279 135.328C296.109 135.083 296.023 134.8 296.023 134.48C296.023 134.251 296.069 134.037 296.159 133.84C296.25 133.643 296.375 133.472 296.535 133.328C296.701 133.179 296.89 133.075 297.103 133.016C296.805 132.909 296.573 132.744 296.407 132.52C296.247 132.296 296.167 132.053 296.167 131.792C296.167 131.515 296.239 131.264 296.383 131.04C296.527 130.816 296.73 130.637 296.991 130.504C297.258 130.371 297.575 130.304 297.943 130.304C298.317 130.304 298.634 130.371 298.895 130.504C299.162 130.637 299.365 130.816 299.503 131.04C299.647 131.264 299.719 131.515 299.719 131.792C299.719 132.053 299.637 132.296 299.471 132.52C299.311 132.744 299.082 132.909 298.783 133.016C299.002 133.075 299.191 133.179 299.351 133.328C299.517 133.472 299.642 133.643 299.727 133.84C299.818 134.037 299.863 134.251 299.863 134.48C299.863 134.8 299.778 135.083 299.607 135.328C299.442 135.568 299.213 135.757 298.919 135.896C298.631 136.029 298.306 136.096 297.943 136.096ZM297.943 135.504C298.365 135.504 298.677 135.408 298.879 135.216C299.087 135.019 299.191 134.76 299.191 134.44C299.191 134.077 299.077 133.803 298.847 133.616C298.623 133.429 298.322 133.336 297.943 133.336C297.565 133.336 297.261 133.429 297.031 133.616C296.807 133.803 296.695 134.077 296.695 134.44C296.695 134.76 296.799 135.019 297.007 135.216C297.215 135.408 297.527 135.504 297.943 135.504ZM297.943 132.776C298.279 132.776 298.546 132.688 298.743 132.512C298.941 132.336 299.039 132.109 299.039 131.832C299.039 131.517 298.941 131.28 298.743 131.12C298.551 130.96 298.285 130.88 297.943 130.88C297.607 130.88 297.341 130.96 297.143 131.12C296.951 131.28 296.855 131.517 296.855 131.832C296.855 132.109 296.951 132.336 297.143 132.512C297.341 132.688 297.607 132.776 297.943 132.776ZM303.674 136V134.8H300.834V134.28L303.554 130.4H304.338V134.208H305.17V134.8H304.338V136H303.674ZM301.578 134.208H303.706V131.144L301.578 134.208ZM308.166 136.096C307.76 136.096 307.419 136.021 307.142 135.872C306.864 135.717 306.643 135.515 306.478 135.264C306.312 135.008 306.19 134.72 306.11 134.4C306.035 134.08 305.998 133.755 305.998 133.424C305.998 132.805 306.083 132.264 306.254 131.8C306.424 131.331 306.67 130.965 306.99 130.704C307.315 130.437 307.704 130.304 308.158 130.304C308.51 130.304 308.811 130.373 309.062 130.512C309.318 130.645 309.52 130.827 309.67 131.056C309.819 131.285 309.91 131.541 309.942 131.824H309.318C309.264 131.525 309.134 131.296 308.926 131.136C308.723 130.971 308.464 130.888 308.15 130.888C307.872 130.888 307.622 130.976 307.398 131.152C307.174 131.323 306.995 131.587 306.862 131.944C306.734 132.296 306.659 132.747 306.638 133.296C306.638 133.301 306.638 133.309 306.638 133.32C306.638 133.331 306.638 133.341 306.638 133.352C306.723 133.187 306.84 133.032 306.99 132.888C307.144 132.744 307.328 132.629 307.542 132.544C307.755 132.459 307.992 132.416 308.254 132.416C308.568 132.416 308.864 132.491 309.142 132.64C309.419 132.789 309.643 133 309.814 133.272C309.99 133.539 310.078 133.853 310.078 134.216C310.078 134.531 310 134.832 309.846 135.12C309.696 135.408 309.478 135.643 309.19 135.824C308.902 136.005 308.56 136.096 308.166 136.096ZM308.118 135.504C308.363 135.504 308.582 135.451 308.774 135.344C308.971 135.232 309.123 135.083 309.23 134.896C309.342 134.704 309.398 134.488 309.398 134.248C309.398 133.997 309.342 133.779 309.23 133.592C309.123 133.405 308.971 133.261 308.774 133.16C308.582 133.053 308.363 133 308.118 133C307.872 133 307.651 133.056 307.454 133.168C307.256 133.28 307.099 133.432 306.982 133.624C306.87 133.811 306.814 134.021 306.814 134.256C306.814 134.496 306.87 134.712 306.982 134.904C307.099 135.091 307.256 135.237 307.454 135.344C307.651 135.451 307.872 135.504 308.118 135.504Z" fill="#EEEFF1"/>
<path d="M282.216 212V207.152L281.256 207.392V206.912L282.44 206.4H282.896V212H282.216ZM284.756 212L286.94 206.976H283.868V206.4H287.628V206.904L285.468 212H284.756ZM290.753 212V210.8H287.913V210.28L290.633 206.4H291.417V210.208H292.249V210.8H291.417V212H290.753ZM288.657 210.208H290.785V207.144L288.657 210.208ZM293.74 212L295.924 206.976H292.852V206.4H296.612V206.904L294.452 212H293.74Z" fill="#EEEFF1"/>
<g filter="url(#filter3_d_2654_27027)">
<rect x="57" y="10" width="178" height="36" rx="10" fill="#0C0D0E" shape-rendering="crispEdges"/>
<rect x="57.5" y="10.5" width="177" height="35" rx="9.5" stroke="#86888E" shape-rendering="crispEdges"/>
<path d="M68.75 28C68.75 29.6576 69.4085 31.2473 70.5806 32.4194C71.7527 33.5915 73.3424 34.25 75 34.25C76.6576 34.25 78.2473 33.5915 79.4194 32.4194C80.5915 31.2473 81.25 29.6576 81.25 28C81.25 26.3424 80.5915 24.7527 79.4194 23.5806C78.2473 22.4085 76.6576 21.75 75 21.75C73.3424 21.75 71.7527 22.4085 70.5806 23.5806C69.4085 24.7527 68.75 26.3424 68.75 28Z" stroke="#86888E"/>
<path d="M71.25 23.4441C71.7377 23.8882 72.7422 25.102 72.8593 26.4046C72.9687 27.6222 73.7723 28.6116 75 28.625C75.4718 28.6301 75.9489 28.2893 75.9478 27.8175C75.9474 27.6716 75.9233 27.5224 75.8856 27.3852C75.8332 27.1943 75.8286 26.9747 75.9375 26.75C76.3187 25.9641 77.0684 25.753 77.6624 25.3262C77.9259 25.1369 78.1662 24.9372 78.2722 24.7763C78.5648 24.3322 78.8574 23.4441 78.7111 23" stroke="#86888E"/>
<path d="M81.25 28.625C81.0441 29.2069 80.8984 30.7344 78.5739 30.7586C78.5739 30.7586 76.5154 30.7586 75.8978 31.9224C75.4037 32.8534 75.6919 33.8621 75.8978 34.25" stroke="#86888E"/>
<path d="M93.434 33L95.156 23.2H96.332L100.168 31.124L101.554 23.2H102.73L101.008 33H99.832L96.01 25.076L94.61 33H93.434ZM106.417 33.168C105.829 33.168 105.316 33.0373 104.877 32.776C104.448 32.5147 104.121 32.146 103.897 31.67C103.683 31.194 103.589 30.6387 103.617 30.004C103.645 29.3973 103.767 28.842 103.981 28.338C104.196 27.8247 104.485 27.3767 104.849 26.994C105.223 26.6113 105.652 26.3127 106.137 26.098C106.623 25.8833 107.15 25.776 107.719 25.776C108.354 25.776 108.877 25.9067 109.287 26.168C109.707 26.4293 110.015 26.7793 110.211 27.218C110.407 27.6473 110.491 28.1233 110.463 28.646C110.454 28.8047 110.431 28.9867 110.393 29.192C110.365 29.388 110.333 29.57 110.295 29.738H104.527L104.681 28.828H109.301C109.367 28.3893 109.329 28.0207 109.189 27.722C109.049 27.414 108.839 27.1807 108.559 27.022C108.279 26.854 107.943 26.77 107.551 26.77C107.15 26.77 106.763 26.8633 106.389 27.05C106.025 27.2273 105.708 27.4933 105.437 27.848C105.167 28.1933 104.985 28.6273 104.891 29.15L104.821 29.542C104.719 30.0647 104.728 30.5267 104.849 30.928C104.971 31.3293 105.181 31.6373 105.479 31.852C105.787 32.0667 106.161 32.174 106.599 32.174C107.094 32.174 107.519 32.0667 107.873 31.852C108.237 31.628 108.522 31.3293 108.727 30.956H109.889C109.693 31.376 109.427 31.754 109.091 32.09C108.765 32.426 108.373 32.692 107.915 32.888C107.467 33.0747 106.968 33.168 106.417 33.168ZM112.839 33L111.999 25.944H113.189L113.735 31.894H113.511L116.339 25.944H117.669L118.383 31.88L118.159 31.894L120.819 25.944H121.995L118.691 33H117.487L116.745 26.784H116.969L114.029 33H112.839ZM130.912 33.168C130.053 33.168 129.33 32.9953 128.742 32.65C128.154 32.2953 127.715 31.8007 127.426 31.166C127.136 30.5313 127.015 29.794 127.062 28.954C127.099 28.114 127.262 27.3347 127.552 26.616C127.85 25.888 128.252 25.258 128.756 24.726C129.26 24.1847 129.843 23.7693 130.506 23.48C131.168 23.1813 131.887 23.032 132.662 23.032C133.782 23.032 134.645 23.298 135.252 23.83C135.868 24.362 136.185 25.1133 136.204 26.084H134.888C134.869 25.468 134.659 24.978 134.258 24.614C133.856 24.25 133.268 24.068 132.494 24.068C131.906 24.068 131.364 24.1893 130.87 24.432C130.375 24.6653 129.936 25.0013 129.554 25.44C129.18 25.8693 128.882 26.378 128.658 26.966C128.443 27.554 128.322 28.1933 128.294 28.884C128.256 29.5653 128.34 30.1487 128.546 30.634C128.76 31.11 129.082 31.4787 129.512 31.74C129.941 32.0013 130.464 32.132 131.08 32.132C131.864 32.132 132.512 31.9547 133.026 31.6C133.548 31.2453 133.931 30.7647 134.174 30.158H135.49C135.247 30.7833 134.911 31.3247 134.482 31.782C134.052 32.23 133.534 32.5753 132.928 32.818C132.33 33.0513 131.658 33.168 130.912 33.168ZM136.998 33L138.72 23.2H141.884C142.575 23.2 143.13 23.3167 143.55 23.55C143.979 23.7833 144.287 24.096 144.474 24.488C144.661 24.8707 144.74 25.2953 144.712 25.762C144.693 26.3967 144.521 26.9567 144.194 27.442C143.867 27.918 143.415 28.2913 142.836 28.562C142.257 28.8233 141.585 28.954 140.82 28.954H138.888L138.174 33H136.998ZM142.276 33L140.89 28.618H142.122L143.564 33H142.276ZM139.056 28.03H140.96C141.725 28.03 142.332 27.8387 142.78 27.456C143.237 27.0733 143.48 26.5413 143.508 25.86C143.536 25.384 143.401 24.9873 143.102 24.67C142.813 24.3527 142.318 24.194 141.618 24.194H139.728L139.056 28.03ZM145.604 33L147.34 23.2H148.698L150.966 30.046L155.628 23.2H157.014L155.292 33H154.116L155.474 25.3L151.134 31.628H150.252L148.138 25.328L146.78 33H145.604ZM161.271 33L166.619 23.2H167.865L169.727 33H168.495L166.983 24.614L162.517 33H161.271ZM163.133 30.48L163.623 29.542H168.495L168.649 30.48H163.133ZM174.311 33.168C173.723 33.168 173.205 33.0373 172.757 32.776C172.309 32.5053 171.969 32.132 171.735 31.656C171.511 31.18 171.413 30.6247 171.441 29.99C171.469 29.374 171.595 28.8093 171.819 28.296C172.043 27.7827 172.347 27.3393 172.729 26.966C173.112 26.5927 173.546 26.3033 174.031 26.098C174.526 25.8833 175.053 25.776 175.613 25.776C176.453 25.776 177.116 26 177.601 26.448C178.096 26.8867 178.353 27.4793 178.371 28.226H177.167C177.158 27.75 176.985 27.3907 176.649 27.148C176.323 26.9053 175.921 26.784 175.445 26.784C174.951 26.784 174.498 26.9147 174.087 27.176C173.677 27.4373 173.341 27.8013 173.079 28.268C172.827 28.7253 172.687 29.2667 172.659 29.892C172.641 30.256 172.673 30.5827 172.757 30.872C172.841 31.152 172.967 31.39 173.135 31.586C173.303 31.7727 173.499 31.9173 173.723 32.02C173.957 32.1227 174.213 32.174 174.493 32.174C174.811 32.174 175.114 32.118 175.403 32.006C175.702 31.894 175.968 31.7307 176.201 31.516C176.435 31.3013 176.612 31.0353 176.733 30.718H177.937C177.76 31.194 177.494 31.6187 177.139 31.992C176.785 32.356 176.365 32.6453 175.879 32.86C175.394 33.0653 174.871 33.168 174.311 33.168ZM182.224 33C181.748 33 181.366 32.9253 181.076 32.776C180.787 32.6267 180.591 32.3933 180.488 32.076C180.395 31.7587 180.39 31.3527 180.474 30.858L181.174 26.938H180.04L180.222 25.944H181.356L181.804 24.236H182.84L182.532 25.944H184.59L184.408 26.938H182.35L181.65 30.858C181.576 31.2967 181.618 31.5953 181.776 31.754C181.935 31.9127 182.215 31.992 182.616 31.992H183.512L183.33 33H182.224ZM185.273 33L186.519 25.944H187.695L186.449 33H185.273ZM187.513 24.446C187.279 24.446 187.088 24.3713 186.939 24.222C186.789 24.0727 186.71 23.8813 186.701 23.648C186.701 23.4147 186.775 23.2233 186.925 23.074C187.083 22.9247 187.279 22.85 187.513 22.85C187.737 22.85 187.928 22.9247 188.087 23.074C188.245 23.214 188.325 23.4053 188.325 23.648C188.334 23.8813 188.255 24.0727 188.087 24.222C187.928 24.3713 187.737 24.446 187.513 24.446ZM190.932 33L189.42 25.944H190.638L191.814 31.88L195.076 25.944H196.308L192.304 33H190.932ZM196.77 33L198.016 25.944H199.192L197.946 33H196.77ZM199.01 24.446C198.777 24.446 198.586 24.3713 198.436 24.222C198.287 24.0727 198.208 23.8813 198.198 23.648C198.198 23.4147 198.273 23.2233 198.422 23.074C198.581 22.9247 198.777 22.85 199.01 22.85C199.234 22.85 199.426 22.9247 199.584 23.074C199.743 23.214 199.822 23.4053 199.822 23.648C199.832 23.8813 199.752 24.0727 199.584 24.222C199.426 24.3713 199.234 24.446 199.01 24.446ZM203.059 33C202.583 33 202.201 32.9253 201.911 32.776C201.622 32.6267 201.426 32.3933 201.323 32.076C201.23 31.7587 201.225 31.3527 201.309 30.858L202.009 26.938H200.875L201.057 25.944H202.191L202.639 24.236H203.675L203.367 25.944H205.425L205.243 26.938H203.185L202.485 30.858C202.411 31.2967 202.453 31.5953 202.611 31.754C202.77 31.9127 203.05 31.992 203.451 31.992H204.347L204.165 33H203.059ZM206.108 33L207.354 25.944H208.53L207.284 33H206.108ZM208.348 24.446C208.114 24.446 207.923 24.3713 207.774 24.222C207.624 24.0727 207.545 23.8813 207.536 23.648C207.536 23.4147 207.61 23.2233 207.76 23.074C207.918 22.9247 208.114 22.85 208.348 22.85C208.572 22.85 208.763 22.9247 208.922 23.074C209.08 23.214 209.16 23.4053 209.16 23.648C209.169 23.8813 209.09 24.0727 208.922 24.222C208.763 24.3713 208.572 24.446 208.348 24.446ZM212.733 33.168C212.145 33.168 211.631 33.0373 211.193 32.776C210.763 32.5147 210.437 32.146 210.213 31.67C209.998 31.194 209.905 30.6387 209.933 30.004C209.961 29.3973 210.082 28.842 210.297 28.338C210.511 27.8247 210.801 27.3767 211.165 26.994C211.538 26.6113 211.967 26.3127 212.453 26.098C212.938 25.8833 213.465 25.776 214.035 25.776C214.669 25.776 215.192 25.9067 215.603 26.168C216.023 26.4293 216.331 26.7793 216.527 27.218C216.723 27.6473 216.807 28.1233 216.779 28.646C216.769 28.8047 216.746 28.9867 216.709 29.192C216.681 29.388 216.648 29.57 216.611 29.738H210.843L210.997 28.828H215.617C215.682 28.3893 215.645 28.0207 215.505 27.722C215.365 27.414 215.155 27.1807 214.875 27.022C214.595 26.854 214.259 26.77 213.867 26.77C213.465 26.77 213.078 26.8633 212.705 27.05C212.341 27.2273 212.023 27.4933 211.753 27.848C211.482 28.1933 211.3 28.6273 211.207 29.15L211.137 29.542C211.034 30.0647 211.043 30.5267 211.165 30.928C211.286 31.3293 211.496 31.6373 211.795 31.852C212.103 32.0667 212.476 32.174 212.915 32.174C213.409 32.174 213.834 32.0667 214.189 31.852C214.553 31.628 214.837 31.3293 215.043 30.956H216.205C216.009 31.376 215.743 31.754 215.407 32.09C215.08 32.426 214.688 32.692 214.231 32.888C213.783 33.0747 213.283 33.168 212.733 33.168ZM220.577 33.168C219.98 33.168 219.476 33.07 219.065 32.874C218.654 32.6687 218.351 32.384 218.155 32.02C217.968 31.656 217.894 31.222 217.931 30.718H219.121C219.112 30.9793 219.158 31.222 219.261 31.446C219.364 31.6607 219.536 31.838 219.779 31.978C220.022 32.1087 220.344 32.174 220.745 32.174C221.081 32.174 221.37 32.1227 221.613 32.02C221.856 31.9173 222.042 31.7773 222.173 31.6C222.313 31.4227 222.392 31.2033 222.411 30.942C222.42 30.7087 222.364 30.5267 222.243 30.396C222.131 30.256 221.958 30.144 221.725 30.06C221.492 29.976 221.212 29.906 220.885 29.85C220.596 29.794 220.316 29.7193 220.045 29.626C219.784 29.5327 219.55 29.416 219.345 29.276C219.14 29.1267 218.981 28.9447 218.869 28.73C218.757 28.506 218.71 28.2447 218.729 27.946C218.748 27.5353 218.878 27.1667 219.121 26.84C219.373 26.5133 219.709 26.2567 220.129 26.07C220.558 25.874 221.044 25.776 221.585 25.776C222.341 25.776 222.934 25.9627 223.363 26.336C223.802 26.7 224.002 27.2227 223.965 27.904H222.789C222.808 27.5493 222.7 27.274 222.467 27.078C222.234 26.8727 221.893 26.77 221.445 26.77C221.006 26.77 220.647 26.868 220.367 27.064C220.096 27.26 219.956 27.5027 219.947 27.792C219.938 27.988 219.984 28.156 220.087 28.296C220.199 28.4267 220.367 28.5387 220.591 28.632C220.815 28.716 221.095 28.7907 221.431 28.856C221.748 28.9213 222.042 29.0007 222.313 29.094C222.584 29.1873 222.822 29.3087 223.027 29.458C223.232 29.598 223.386 29.78 223.489 30.004C223.601 30.2187 223.648 30.4847 223.629 30.802C223.61 31.2873 223.466 31.7073 223.195 32.062C222.934 32.4167 222.574 32.692 222.117 32.888C221.669 33.0747 221.156 33.168 220.577 33.168Z" fill="#EEEFF1"/>
</g>
<g filter="url(#filter4_d_2654_27027)">
<rect x="57" y="86" width="136" height="36" rx="10" fill="#0C0D0E" shape-rendering="crispEdges"/>
<rect x="57.5" y="86.5" width="135" height="35" rx="9.5" stroke="#86888E" shape-rendering="crispEdges"/>
<path d="M68.75 104C68.75 105.658 69.4085 107.247 70.5806 108.419C71.7527 109.592 73.3424 110.25 75 110.25C76.6576 110.25 78.2473 109.592 79.4194 108.419C80.5915 107.247 81.25 105.658 81.25 104C81.25 102.342 80.5915 100.753 79.4194 99.5806C78.2473 98.4085 76.6576 97.75 75 97.75C73.3424 97.75 71.7527 98.4085 70.5806 99.5806C69.4085 100.753 68.75 102.342 68.75 104Z" stroke="#86888E"/>
<path d="M71.25 99.4441C71.7377 99.8882 72.7422 101.102 72.8593 102.405C72.9687 103.622 73.7723 104.612 75 104.625C75.4718 104.63 75.9489 104.289 75.9478 103.818C75.9474 103.672 75.9233 103.522 75.8856 103.385C75.8332 103.194 75.8286 102.975 75.9375 102.75C76.3187 101.964 77.0684 101.753 77.6624 101.326C77.9259 101.137 78.1662 100.937 78.2722 100.776C78.5648 100.332 78.8574 99.4441 78.7111 99" stroke="#86888E"/>
<path d="M81.25 104.625C81.0441 105.207 80.8984 106.734 78.5739 106.759C78.5739 106.759 76.5154 106.759 75.8978 107.922C75.4037 108.853 75.6919 109.862 75.8978 110.25" stroke="#86888E"/>
<path d="M98.446 109L102.268 99.116H103.388L99.566 109H98.446ZM94.386 109L98.208 99.116H99.314L95.52 109H94.386ZM93.504 106.242L93.7 105.192H103.066L102.87 106.242H93.504ZM94.666 102.91L94.862 101.874H104.228L104.06 102.91H94.666ZM104.98 109L106.702 99.2H107.878L106.324 108.062H110.888L110.72 109H104.98ZM112.656 109L114.378 99.2H115.554L114 108.062H118.564L118.396 109H112.656ZM120.333 109L122.069 99.2H123.427L125.695 106.046L130.357 99.2H131.743L130.021 109H128.845L130.203 101.3L125.863 107.628H124.981L122.867 101.328L121.509 109H120.333ZM138.911 109L140.465 100.152H137.553L137.721 99.2H144.735L144.567 100.152H141.641L140.073 109H138.911ZM146.867 109.168C146.261 109.168 145.729 109.033 145.271 108.762C144.823 108.482 144.483 108.099 144.249 107.614C144.016 107.119 143.913 106.559 143.941 105.934C143.969 105.337 144.091 104.786 144.305 104.282C144.529 103.769 144.828 103.33 145.201 102.966C145.584 102.593 146.018 102.303 146.503 102.098C146.998 101.883 147.521 101.776 148.071 101.776C148.678 101.776 149.205 101.911 149.653 102.182C150.111 102.453 150.456 102.826 150.689 103.302C150.932 103.778 151.035 104.338 150.997 104.982C150.969 105.589 150.843 106.149 150.619 106.662C150.405 107.166 150.106 107.605 149.723 107.978C149.35 108.351 148.921 108.645 148.435 108.86C147.95 109.065 147.427 109.168 146.867 109.168ZM147.021 108.16C147.525 108.16 147.978 108.029 148.379 107.768C148.79 107.507 149.121 107.143 149.373 106.676C149.625 106.2 149.765 105.659 149.793 105.052C149.821 104.557 149.751 104.147 149.583 103.82C149.425 103.484 149.196 103.227 148.897 103.05C148.608 102.873 148.281 102.784 147.917 102.784C147.423 102.784 146.975 102.919 146.573 103.19C146.172 103.451 145.845 103.815 145.593 104.282C145.341 104.749 145.201 105.29 145.173 105.906C145.145 106.382 145.211 106.788 145.369 107.124C145.528 107.46 145.752 107.717 146.041 107.894C146.34 108.071 146.667 108.16 147.021 108.16ZM156.775 109L153.961 105.122L157.559 101.944H159.085L154.857 105.542L154.983 104.66L158.217 109H156.775ZM152.267 109L154.059 98.92H155.235L153.443 109H152.267ZM162.477 109.168C161.889 109.168 161.376 109.037 160.937 108.776C160.508 108.515 160.181 108.146 159.957 107.67C159.742 107.194 159.649 106.639 159.677 106.004C159.705 105.397 159.826 104.842 160.041 104.338C160.256 103.825 160.545 103.377 160.909 102.994C161.282 102.611 161.712 102.313 162.197 102.098C162.682 101.883 163.21 101.776 163.779 101.776C164.414 101.776 164.936 101.907 165.347 102.168C165.767 102.429 166.075 102.779 166.271 103.218C166.467 103.647 166.551 104.123 166.523 104.646C166.514 104.805 166.49 104.987 166.453 105.192C166.425 105.388 166.392 105.57 166.355 105.738H160.587L160.741 104.828H165.361C165.426 104.389 165.389 104.021 165.249 103.722C165.109 103.414 164.899 103.181 164.619 103.022C164.339 102.854 164.003 102.77 163.611 102.77C163.21 102.77 162.822 102.863 162.449 103.05C162.085 103.227 161.768 103.493 161.497 103.848C161.226 104.193 161.044 104.627 160.951 105.15L160.881 105.542C160.778 106.065 160.788 106.527 160.909 106.928C161.03 107.329 161.24 107.637 161.539 107.852C161.847 108.067 162.22 108.174 162.659 108.174C163.154 108.174 163.578 108.067 163.933 107.852C164.297 107.628 164.582 107.329 164.787 106.956H165.949C165.753 107.376 165.487 107.754 165.151 108.09C164.824 108.426 164.432 108.692 163.975 108.888C163.527 109.075 163.028 109.168 162.477 109.168ZM167.661 109L168.893 101.944H169.957L169.817 103.176C170.116 102.737 170.494 102.397 170.951 102.154C171.409 101.902 171.903 101.776 172.435 101.776C173.014 101.776 173.481 101.902 173.835 102.154C174.199 102.397 174.447 102.742 174.577 103.19C174.708 103.638 174.717 104.17 174.605 104.786L173.863 109H172.687L173.401 104.912C173.523 104.231 173.467 103.708 173.233 103.344C173 102.971 172.589 102.784 172.001 102.784C171.619 102.784 171.255 102.877 170.909 103.064C170.573 103.251 170.284 103.517 170.041 103.862C169.799 104.207 169.621 104.632 169.509 105.136L168.837 109H167.661ZM178.64 109.168C178.043 109.168 177.539 109.07 177.128 108.874C176.718 108.669 176.414 108.384 176.218 108.02C176.032 107.656 175.957 107.222 175.994 106.718H177.184C177.175 106.979 177.222 107.222 177.324 107.446C177.427 107.661 177.6 107.838 177.842 107.978C178.085 108.109 178.407 108.174 178.808 108.174C179.144 108.174 179.434 108.123 179.676 108.02C179.919 107.917 180.106 107.777 180.236 107.6C180.376 107.423 180.456 107.203 180.474 106.942C180.484 106.709 180.428 106.527 180.306 106.396C180.194 106.256 180.022 106.144 179.788 106.06C179.555 105.976 179.275 105.906 178.948 105.85C178.659 105.794 178.379 105.719 178.108 105.626C177.847 105.533 177.614 105.416 177.408 105.276C177.203 105.127 177.044 104.945 176.932 104.73C176.82 104.506 176.774 104.245 176.792 103.946C176.811 103.535 176.942 103.167 177.184 102.84C177.436 102.513 177.772 102.257 178.192 102.07C178.622 101.874 179.107 101.776 179.648 101.776C180.404 101.776 180.997 101.963 181.426 102.336C181.865 102.7 182.066 103.223 182.028 103.904H180.852C180.871 103.549 180.764 103.274 180.53 103.078C180.297 102.873 179.956 102.77 179.508 102.77C179.07 102.77 178.71 102.868 178.43 103.064C178.16 103.26 178.02 103.503 178.01 103.792C178.001 103.988 178.048 104.156 178.15 104.296C178.262 104.427 178.43 104.539 178.654 104.632C178.878 104.716 179.158 104.791 179.494 104.856C179.812 104.921 180.106 105.001 180.376 105.094C180.647 105.187 180.885 105.309 181.09 105.458C181.296 105.598 181.45 105.78 181.552 106.004C181.664 106.219 181.711 106.485 181.692 106.802C181.674 107.287 181.529 107.707 181.258 108.062C180.997 108.417 180.638 108.692 180.18 108.888C179.732 109.075 179.219 109.168 178.64 109.168Z" fill="#EEEFF1"/>
</g>
<g filter="url(#filter5_d_2654_27027)">
<rect x="57" y="162" width="172" height="36" rx="10" fill="#0C0D0E" shape-rendering="crispEdges"/>
<rect x="57.5" y="162.5" width="171" height="35" rx="9.5" stroke="#86888E" shape-rendering="crispEdges"/>
<path d="M68.75 180C68.75 181.658 69.4085 183.247 70.5806 184.419C71.7527 185.592 73.3424 186.25 75 186.25C76.6576 186.25 78.2473 185.592 79.4194 184.419C80.5915 183.247 81.25 181.658 81.25 180C81.25 178.342 80.5915 176.753 79.4194 175.581C78.2473 174.408 76.6576 173.75 75 173.75C73.3424 173.75 71.7527 174.408 70.5806 175.581C69.4085 176.753 68.75 178.342 68.75 180Z" stroke="#86888E"/>
<path d="M71.25 175.444C71.7377 175.888 72.7422 177.102 72.8593 178.405C72.9687 179.622 73.7723 180.612 75 180.625C75.4718 180.63 75.9489 180.289 75.9478 179.818C75.9474 179.672 75.9233 179.522 75.8856 179.385C75.8332 179.194 75.8286 178.975 75.9375 178.75C76.3187 177.964 77.0684 177.753 77.6624 177.326C77.9259 177.137 78.1662 176.937 78.2722 176.776C78.5648 176.332 78.8574 175.444 78.7111 175" stroke="#86888E"/>
<path d="M81.25 180.625C81.0441 181.207 80.8984 182.734 78.5739 182.759C78.5739 182.759 76.5154 182.759 75.8978 183.922C75.4037 184.853 75.6919 185.862 75.8978 186.25" stroke="#86888E"/>
<path d="M95.436 185.014L94.484 175.2H95.744L96.374 183.558L100.252 175.2H101.568L102.422 183.572L106.034 175.2H107.308L102.828 185H101.484L100.574 176.922L96.752 185L95.436 185.014ZM109.617 185.168C109.029 185.168 108.515 185.037 108.077 184.776C107.647 184.515 107.321 184.146 107.097 183.67C106.882 183.194 106.789 182.639 106.817 182.004C106.845 181.397 106.966 180.842 107.181 180.338C107.395 179.825 107.685 179.377 108.049 178.994C108.422 178.611 108.851 178.313 109.337 178.098C109.822 177.883 110.349 177.776 110.919 177.776C111.553 177.776 112.076 177.907 112.487 178.168C112.907 178.429 113.215 178.779 113.411 179.218C113.607 179.647 113.691 180.123 113.663 180.646C113.653 180.805 113.63 180.987 113.593 181.192C113.565 181.388 113.532 181.57 113.495 181.738H107.727L107.881 180.828H112.501C112.566 180.389 112.529 180.021 112.389 179.722C112.249 179.414 112.039 179.181 111.759 179.022C111.479 178.854 111.143 178.77 110.751 178.77C110.349 178.77 109.962 178.863 109.589 179.05C109.225 179.227 108.907 179.493 108.637 179.848C108.366 180.193 108.184 180.627 108.091 181.15L108.021 181.542C107.918 182.065 107.927 182.527 108.049 182.928C108.17 183.329 108.38 183.637 108.679 183.852C108.987 184.067 109.36 184.174 109.799 184.174C110.293 184.174 110.718 184.067 111.073 183.852C111.437 183.628 111.721 183.329 111.927 182.956H113.089C112.893 183.376 112.627 183.754 112.291 184.09C111.964 184.426 111.572 184.692 111.115 184.888C110.667 185.075 110.167 185.168 109.617 185.168ZM118.469 185.168C118.077 185.168 117.722 185.103 117.405 184.972C117.097 184.841 116.836 184.673 116.621 184.468C116.416 184.263 116.262 184.053 116.159 183.838L115.851 185H114.787L116.565 174.92H117.741L117.013 179.05C117.302 178.695 117.666 178.397 118.105 178.154C118.544 177.902 119.066 177.776 119.673 177.776C120.289 177.776 120.812 177.916 121.241 178.196C121.67 178.476 121.992 178.859 122.207 179.344C122.422 179.82 122.515 180.366 122.487 180.982C122.459 181.57 122.338 182.121 122.123 182.634C121.918 183.147 121.633 183.595 121.269 183.978C120.905 184.351 120.485 184.645 120.009 184.86C119.533 185.065 119.02 185.168 118.469 185.168ZM118.525 184.146C119.029 184.146 119.482 184.015 119.883 183.754C120.294 183.493 120.62 183.133 120.863 182.676C121.106 182.219 121.241 181.696 121.269 181.108C121.297 180.66 121.236 180.263 121.087 179.918C120.938 179.563 120.714 179.288 120.415 179.092C120.126 178.896 119.776 178.798 119.365 178.798C118.852 178.798 118.39 178.933 117.979 179.204C117.578 179.475 117.251 179.843 116.999 180.31C116.747 180.767 116.612 181.29 116.593 181.878C116.565 182.335 116.626 182.737 116.775 183.082C116.924 183.418 117.148 183.679 117.447 183.866C117.746 184.053 118.105 184.146 118.525 184.146ZM127.052 185.168C126.362 185.168 125.764 185.047 125.26 184.804C124.756 184.561 124.383 184.207 124.14 183.74C123.907 183.273 123.842 182.713 123.944 182.06H125.176C125.083 182.461 125.111 182.821 125.26 183.138C125.41 183.455 125.652 183.707 125.988 183.894C126.324 184.081 126.726 184.174 127.192 184.174C127.687 184.174 128.102 184.095 128.438 183.936C128.774 183.777 129.031 183.558 129.208 183.278C129.395 182.989 129.502 182.653 129.53 182.27C129.549 182.009 129.512 181.785 129.418 181.598C129.325 181.411 129.194 181.253 129.026 181.122C128.858 180.982 128.658 180.865 128.424 180.772C128.2 180.669 127.953 180.576 127.682 180.492C127.421 180.399 127.155 180.301 126.884 180.198C126.231 179.965 125.746 179.657 125.428 179.274C125.111 178.891 124.971 178.434 125.008 177.902C125.027 177.333 125.186 176.833 125.484 176.404C125.783 175.975 126.189 175.639 126.702 175.396C127.225 175.153 127.822 175.032 128.494 175.032C129.11 175.032 129.638 175.149 130.076 175.382C130.515 175.606 130.842 175.923 131.056 176.334C131.271 176.745 131.327 177.216 131.224 177.748H130.006C130.053 177.44 130.016 177.155 129.894 176.894C129.773 176.633 129.577 176.427 129.306 176.278C129.036 176.119 128.704 176.04 128.312 176.04C127.92 176.04 127.57 176.11 127.262 176.25C126.954 176.39 126.712 176.591 126.534 176.852C126.357 177.104 126.259 177.403 126.24 177.748C126.231 177.972 126.264 178.163 126.338 178.322C126.422 178.481 126.539 178.621 126.688 178.742C126.838 178.854 127.015 178.961 127.22 179.064C127.435 179.157 127.673 179.251 127.934 179.344C128.196 179.428 128.471 179.521 128.76 179.624C129.059 179.736 129.334 179.867 129.586 180.016C129.838 180.165 130.053 180.343 130.23 180.548C130.417 180.744 130.557 180.977 130.65 181.248C130.753 181.509 130.79 181.808 130.762 182.144C130.744 182.732 130.576 183.255 130.258 183.712C129.95 184.16 129.521 184.515 128.97 184.776C128.429 185.037 127.79 185.168 127.052 185.168ZM135.368 185.168C134.78 185.168 134.262 185.037 133.814 184.776C133.366 184.505 133.026 184.132 132.792 183.656C132.568 183.18 132.47 182.625 132.498 181.99C132.526 181.374 132.652 180.809 132.876 180.296C133.1 179.783 133.404 179.339 133.786 178.966C134.169 178.593 134.603 178.303 135.088 178.098C135.583 177.883 136.11 177.776 136.67 177.776C137.51 177.776 138.173 178 138.658 178.448C139.153 178.887 139.41 179.479 139.428 180.226H138.224C138.215 179.75 138.042 179.391 137.706 179.148C137.38 178.905 136.978 178.784 136.502 178.784C136.008 178.784 135.555 178.915 135.144 179.176C134.734 179.437 134.398 179.801 134.136 180.268C133.884 180.725 133.744 181.267 133.716 181.892C133.698 182.256 133.73 182.583 133.814 182.872C133.898 183.152 134.024 183.39 134.192 183.586C134.36 183.773 134.556 183.917 134.78 184.02C135.014 184.123 135.27 184.174 135.55 184.174C135.868 184.174 136.171 184.118 136.46 184.006C136.759 183.894 137.025 183.731 137.258 183.516C137.492 183.301 137.669 183.035 137.79 182.718H138.994C138.817 183.194 138.551 183.619 138.196 183.992C137.842 184.356 137.422 184.645 136.936 184.86C136.451 185.065 135.928 185.168 135.368 185.168ZM140.537 185L141.769 177.944H142.847L142.707 179.204C142.922 178.905 143.174 178.653 143.463 178.448C143.753 178.233 144.084 178.07 144.457 177.958C144.831 177.837 145.232 177.776 145.661 177.776L145.451 179.008H145.017C144.719 179.008 144.425 179.045 144.135 179.12C143.855 179.195 143.594 179.316 143.351 179.484C143.118 179.652 142.917 179.876 142.749 180.156C142.581 180.427 142.46 180.767 142.385 181.178L141.713 185H140.537ZM148.253 185.168C147.73 185.168 147.301 185.079 146.965 184.902C146.638 184.715 146.4 184.473 146.251 184.174C146.101 183.866 146.036 183.539 146.055 183.194C146.073 182.69 146.227 182.256 146.517 181.892C146.806 181.528 147.207 181.248 147.721 181.052C148.234 180.856 148.822 180.758 149.485 180.758H151.347C151.421 180.31 151.417 179.941 151.333 179.652C151.258 179.353 151.104 179.134 150.871 178.994C150.637 178.845 150.334 178.77 149.961 178.77C149.513 178.77 149.107 178.882 148.743 179.106C148.379 179.33 148.117 179.661 147.959 180.1H146.741C146.89 179.596 147.133 179.176 147.469 178.84C147.814 178.495 148.215 178.233 148.673 178.056C149.13 177.869 149.611 177.776 150.115 177.776C150.749 177.776 151.263 177.897 151.655 178.14C152.056 178.373 152.327 178.705 152.467 179.134C152.616 179.554 152.639 180.053 152.537 180.632L151.781 185H150.717L150.871 183.754C150.74 183.95 150.586 184.137 150.409 184.314C150.241 184.482 150.049 184.631 149.835 184.762C149.62 184.893 149.382 184.991 149.121 185.056C148.859 185.131 148.57 185.168 148.253 185.168ZM148.603 184.174C148.929 184.174 149.242 184.109 149.541 183.978C149.849 183.838 150.119 183.651 150.353 183.418C150.595 183.185 150.787 182.923 150.927 182.634C151.076 182.345 151.155 182.041 151.165 181.724L151.179 181.668H149.415C148.976 181.668 148.598 181.729 148.281 181.85C147.973 181.962 147.735 182.125 147.567 182.34C147.408 182.545 147.319 182.793 147.301 183.082C147.282 183.418 147.385 183.684 147.609 183.88C147.833 184.076 148.164 184.174 148.603 184.174ZM153.457 188.08L155.249 177.944H156.341L156.229 179.092C156.425 178.849 156.649 178.63 156.901 178.434C157.153 178.238 157.443 178.079 157.769 177.958C158.105 177.837 158.483 177.776 158.903 177.776C159.519 177.776 160.042 177.916 160.471 178.196C160.901 178.476 161.223 178.859 161.437 179.344C161.652 179.829 161.741 180.375 161.703 180.982C161.685 181.579 161.568 182.135 161.353 182.648C161.139 183.152 160.849 183.595 160.485 183.978C160.131 184.351 159.715 184.645 159.239 184.86C158.763 185.065 158.245 185.168 157.685 185.168C157.312 185.168 156.971 185.107 156.663 184.986C156.355 184.855 156.094 184.692 155.879 184.496C155.665 184.291 155.506 184.067 155.403 183.824L154.633 188.08H153.457ZM157.755 184.146C158.259 184.146 158.712 184.015 159.113 183.754C159.524 183.493 159.851 183.133 160.093 182.676C160.336 182.219 160.471 181.696 160.499 181.108C160.527 180.66 160.462 180.263 160.303 179.918C160.154 179.563 159.935 179.288 159.645 179.092C159.356 178.896 159.006 178.798 158.595 178.798C158.082 178.798 157.62 178.933 157.209 179.204C156.799 179.475 156.467 179.843 156.215 180.31C155.963 180.767 155.828 181.29 155.809 181.878C155.781 182.335 155.842 182.737 155.991 183.082C156.15 183.418 156.379 183.679 156.677 183.866C156.976 184.053 157.335 184.146 157.755 184.146ZM163.118 185L164.364 177.944H165.54L164.294 185H163.118ZM165.358 176.446C165.125 176.446 164.934 176.371 164.784 176.222C164.635 176.073 164.556 175.881 164.546 175.648C164.546 175.415 164.621 175.223 164.77 175.074C164.929 174.925 165.125 174.85 165.358 174.85C165.582 174.85 165.774 174.925 165.932 175.074C166.091 175.214 166.17 175.405 166.17 175.648C166.18 175.881 166.1 176.073 165.932 176.222C165.774 176.371 165.582 176.446 165.358 176.446ZM166.663 185L167.895 177.944H168.959L168.819 179.176C169.118 178.737 169.496 178.397 169.953 178.154C170.411 177.902 170.905 177.776 171.437 177.776C172.016 177.776 172.483 177.902 172.837 178.154C173.201 178.397 173.449 178.742 173.579 179.19C173.71 179.638 173.719 180.17 173.607 180.786L172.865 185H171.689L172.403 180.912C172.525 180.231 172.469 179.708 172.235 179.344C172.002 178.971 171.591 178.784 171.003 178.784C170.621 178.784 170.257 178.877 169.911 179.064C169.575 179.251 169.286 179.517 169.043 179.862C168.801 180.207 168.623 180.632 168.511 181.136L167.839 185H166.663ZM177.096 188.248C176.499 188.248 175.981 188.169 175.542 188.01C175.104 187.851 174.768 187.618 174.534 187.31C174.292 187.011 174.18 186.643 174.198 186.204C174.217 185.896 174.296 185.602 174.436 185.322C174.567 185.051 174.763 184.795 175.024 184.552C175.295 184.309 175.631 184.095 176.032 183.908L176.76 184.37C176.294 184.575 175.953 184.818 175.738 185.098C175.524 185.387 175.407 185.691 175.388 186.008C175.379 186.279 175.444 186.507 175.584 186.694C175.734 186.89 175.948 187.035 176.228 187.128C176.518 187.231 176.863 187.282 177.264 187.282C177.899 187.282 178.417 187.142 178.818 186.862C179.229 186.582 179.444 186.209 179.462 185.742C179.481 185.453 179.383 185.205 179.168 185C178.963 184.785 178.543 184.659 177.908 184.622C177.451 184.594 177.054 184.547 176.718 184.482C176.382 184.417 176.093 184.342 175.85 184.258C175.608 184.165 175.398 184.062 175.22 183.95C175.052 183.838 174.903 183.712 174.772 183.572L174.842 183.236L176.368 182.004L177.292 182.368L175.696 183.586L175.962 183.026C176.074 183.11 176.186 183.189 176.298 183.264C176.42 183.329 176.555 183.39 176.704 183.446C176.863 183.493 177.054 183.535 177.278 183.572C177.512 183.609 177.801 183.642 178.146 183.67C178.809 183.717 179.322 183.833 179.686 184.02C180.06 184.197 180.316 184.431 180.456 184.72C180.596 185 180.657 185.308 180.638 185.644C180.62 186.129 180.461 186.568 180.162 186.96C179.873 187.352 179.462 187.665 178.93 187.898C178.408 188.131 177.796 188.248 177.096 188.248ZM178.02 182.788C177.488 182.788 177.04 182.695 176.676 182.508C176.322 182.321 176.056 182.065 175.878 181.738C175.71 181.411 175.636 181.043 175.654 180.632C175.682 180.091 175.841 179.605 176.13 179.176C176.42 178.747 176.802 178.406 177.278 178.154C177.764 177.902 178.305 177.776 178.902 177.776C179.444 177.776 179.892 177.874 180.246 178.07C180.601 178.257 180.862 178.513 181.03 178.84C181.198 179.167 181.273 179.535 181.254 179.946C181.226 180.478 181.068 180.959 180.778 181.388C180.498 181.817 180.12 182.158 179.644 182.41C179.168 182.662 178.627 182.788 178.02 182.788ZM178.188 181.822C178.748 181.822 179.206 181.663 179.56 181.346C179.915 181.019 180.106 180.581 180.134 180.03C180.153 179.61 180.041 179.293 179.798 179.078C179.556 178.863 179.201 178.756 178.734 178.756C178.184 178.756 177.726 178.919 177.362 179.246C177.008 179.563 176.821 179.993 176.802 180.534C176.774 180.954 176.882 181.276 177.124 181.5C177.376 181.715 177.731 181.822 178.188 181.822ZM179.854 178.938L179.672 177.944H182.556L182.402 178.826L179.854 178.938ZM189.36 185.168C188.809 185.168 188.347 185.056 187.974 184.832C187.6 184.608 187.334 184.291 187.176 183.88C187.026 183.46 187.003 182.961 187.106 182.382H188.296C188.24 182.709 188.24 183.003 188.296 183.264C188.352 183.525 188.478 183.735 188.674 183.894C188.879 184.043 189.168 184.118 189.542 184.118C189.906 184.118 190.209 184.048 190.452 183.908C190.694 183.759 190.886 183.563 191.026 183.32C191.166 183.077 191.259 182.821 191.306 182.55L192.594 175.2H193.77L192.482 182.55C192.342 183.353 191.992 183.992 191.432 184.468C190.872 184.935 190.181 185.168 189.36 185.168ZM197.567 185.168C196.961 185.168 196.429 185.033 195.971 184.762C195.523 184.482 195.183 184.099 194.949 183.614C194.716 183.119 194.613 182.559 194.641 181.934C194.669 181.337 194.791 180.786 195.005 180.282C195.229 179.769 195.528 179.33 195.901 178.966C196.284 178.593 196.718 178.303 197.203 178.098C197.698 177.883 198.221 177.776 198.771 177.776C199.378 177.776 199.905 177.911 200.353 178.182C200.811 178.453 201.156 178.826 201.389 179.302C201.632 179.778 201.735 180.338 201.697 180.982C201.669 181.589 201.543 182.149 201.319 182.662C201.105 183.166 200.806 183.605 200.423 183.978C200.05 184.351 199.621 184.645 199.135 184.86C198.65 185.065 198.127 185.168 197.567 185.168ZM197.721 184.16C198.225 184.16 198.678 184.029 199.079 183.768C199.49 183.507 199.821 183.143 200.073 182.676C200.325 182.2 200.465 181.659 200.493 181.052C200.521 180.557 200.451 180.147 200.283 179.82C200.125 179.484 199.896 179.227 199.597 179.05C199.308 178.873 198.981 178.784 198.617 178.784C198.123 178.784 197.675 178.919 197.273 179.19C196.872 179.451 196.545 179.815 196.293 180.282C196.041 180.749 195.901 181.29 195.873 181.906C195.845 182.382 195.911 182.788 196.069 183.124C196.228 183.46 196.452 183.717 196.741 183.894C197.04 184.071 197.367 184.16 197.721 184.16ZM206.649 185.168C206.257 185.168 205.903 185.103 205.585 184.972C205.277 184.841 205.016 184.673 204.801 184.468C204.596 184.263 204.442 184.053 204.339 183.838L204.031 185H202.967L204.745 174.92H205.921L205.193 179.05C205.483 178.695 205.847 178.397 206.285 178.154C206.724 177.902 207.247 177.776 207.853 177.776C208.469 177.776 208.992 177.916 209.421 178.196C209.851 178.476 210.173 178.859 210.387 179.344C210.602 179.82 210.695 180.366 210.667 180.982C210.639 181.57 210.518 182.121 210.303 182.634C210.098 183.147 209.813 183.595 209.449 183.978C209.085 184.351 208.665 184.645 208.189 184.86C207.713 185.065 207.2 185.168 206.649 185.168ZM206.705 184.146C207.209 184.146 207.662 184.015 208.063 183.754C208.474 183.493 208.801 183.133 209.043 182.676C209.286 182.219 209.421 181.696 209.449 181.108C209.477 180.66 209.417 180.263 209.267 179.918C209.118 179.563 208.894 179.288 208.595 179.092C208.306 178.896 207.956 178.798 207.545 178.798C207.032 178.798 206.57 178.933 206.159 179.204C205.758 179.475 205.431 179.843 205.179 180.31C204.927 180.767 204.792 181.29 204.773 181.878C204.745 182.335 204.806 182.737 204.955 183.082C205.105 183.418 205.329 183.679 205.627 183.866C205.926 184.053 206.285 184.146 206.705 184.146ZM214.617 185.168C214.019 185.168 213.515 185.07 213.105 184.874C212.694 184.669 212.391 184.384 212.195 184.02C212.008 183.656 211.933 183.222 211.971 182.718H213.161C213.151 182.979 213.198 183.222 213.301 183.446C213.403 183.661 213.576 183.838 213.819 183.978C214.061 184.109 214.383 184.174 214.785 184.174C215.121 184.174 215.41 184.123 215.653 184.02C215.895 183.917 216.082 183.777 216.213 183.6C216.353 183.423 216.432 183.203 216.451 182.942C216.46 182.709 216.404 182.527 216.283 182.396C216.171 182.256 215.998 182.144 215.765 182.06C215.531 181.976 215.251 181.906 214.925 181.85C214.635 181.794 214.355 181.719 214.085 181.626C213.823 181.533 213.59 181.416 213.385 181.276C213.179 181.127 213.021 180.945 212.909 180.73C212.797 180.506 212.75 180.245 212.769 179.946C212.787 179.535 212.918 179.167 213.161 178.84C213.413 178.513 213.749 178.257 214.169 178.07C214.598 177.874 215.083 177.776 215.625 177.776C216.381 177.776 216.973 177.963 217.403 178.336C217.841 178.7 218.042 179.223 218.005 179.904H216.829C216.847 179.549 216.74 179.274 216.507 179.078C216.273 178.873 215.933 178.77 215.485 178.77C215.046 178.77 214.687 178.868 214.407 179.064C214.136 179.26 213.996 179.503 213.987 179.792C213.977 179.988 214.024 180.156 214.127 180.296C214.239 180.427 214.407 180.539 214.631 180.632C214.855 180.716 215.135 180.791 215.471 180.856C215.788 180.921 216.082 181.001 216.353 181.094C216.623 181.187 216.861 181.309 217.067 181.458C217.272 181.598 217.426 181.78 217.529 182.004C217.641 182.219 217.687 182.485 217.669 182.802C217.65 183.287 217.505 183.707 217.235 184.062C216.973 184.417 216.614 184.692 216.157 184.888C215.709 185.075 215.195 185.168 214.617 185.168Z" fill="#EEEFF1"/>
</g>
<g filter="url(#filter6_d_2654_27027)">
<rect x="258" y="10" width="143" height="36" rx="10" fill="#0C0D0E" shape-rendering="crispEdges"/>
<rect x="258.5" y="10.5" width="142" height="35" rx="9.5" stroke="#86888E" shape-rendering="crispEdges"/>
<path d="M269.75 28C269.75 29.6576 270.408 31.2473 271.581 32.4194C272.753 33.5915 274.342 34.25 276 34.25C277.658 34.25 279.247 33.5915 280.419 32.4194C281.592 31.2473 282.25 29.6576 282.25 28C282.25 26.3424 281.592 24.7527 280.419 23.5806C279.247 22.4085 277.658 21.75 276 21.75C274.342 21.75 272.753 22.4085 271.581 23.5806C270.408 24.7527 269.75 26.3424 269.75 28Z" stroke="#86888E"/>
<path d="M272.25 23.4441C272.738 23.8882 273.742 25.102 273.859 26.4046C273.969 27.6222 274.772 28.6116 276 28.625C276.472 28.6301 276.949 28.2893 276.948 27.8175C276.947 27.6716 276.923 27.5224 276.886 27.3852C276.833 27.1943 276.829 26.9747 276.938 26.75C277.319 25.9641 278.068 25.753 278.662 25.3262C278.926 25.1369 279.166 24.9372 279.272 24.7763C279.565 24.3322 279.857 23.4441 279.711 23" stroke="#86888E"/>
<path d="M282.25 28.625C282.044 29.2069 281.898 30.7344 279.574 30.7586C279.574 30.7586 277.515 30.7586 276.898 31.9224C276.404 32.8534 276.692 33.8621 276.898 34.25" stroke="#86888E"/>
<path d="M298.578 33.168C297.906 33.168 297.295 33.0327 296.744 32.762C296.203 32.4913 295.769 32.0807 295.442 31.53C295.115 30.97 294.952 30.256 294.952 29.388V23.2H296.128V29.402C296.128 30.0367 296.231 30.5547 296.436 30.956C296.651 31.3573 296.945 31.6513 297.318 31.838C297.691 32.0247 298.121 32.118 298.606 32.118C299.101 32.118 299.53 32.0247 299.894 31.838C300.258 31.6513 300.543 31.3573 300.748 30.956C300.953 30.5547 301.056 30.0367 301.056 29.402V23.2H302.232V29.388C302.232 30.256 302.069 30.97 301.742 31.53C301.415 32.0807 300.977 32.4913 300.426 32.762C299.875 33.0327 299.259 33.168 298.578 33.168ZM304.434 36.08V25.944H305.498L305.596 27.092C305.745 26.868 305.936 26.658 306.17 26.462C306.403 26.2567 306.683 26.0933 307.01 25.972C307.336 25.8413 307.71 25.776 308.13 25.776C308.82 25.776 309.418 25.9393 309.922 26.266C310.435 26.5927 310.832 27.036 311.112 27.596C311.401 28.1467 311.546 28.7767 311.546 29.486C311.546 30.1953 311.401 30.83 311.112 31.39C310.832 31.9407 310.435 32.3747 309.922 32.692C309.408 33.0093 308.806 33.168 308.116 33.168C307.546 33.168 307.042 33.0513 306.604 32.818C306.174 32.5847 305.843 32.258 305.61 31.838V36.08H304.434ZM307.99 32.146C308.447 32.146 308.853 32.034 309.208 31.81C309.562 31.586 309.838 31.278 310.034 30.886C310.239 30.4847 310.342 30.0133 310.342 29.472C310.342 28.94 310.239 28.4733 310.034 28.072C309.838 27.6707 309.562 27.358 309.208 27.134C308.853 26.91 308.447 26.798 307.99 26.798C307.523 26.798 307.112 26.91 306.758 27.134C306.403 27.358 306.128 27.6707 305.932 28.072C305.736 28.4733 305.638 28.94 305.638 29.472C305.638 30.0133 305.736 30.4847 305.932 30.886C306.128 31.278 306.403 31.586 306.758 31.81C307.112 32.034 307.523 32.146 307.99 32.146ZM316.585 33.168C315.904 33.168 315.307 33.0093 314.793 32.692C314.28 32.3653 313.883 31.922 313.603 31.362C313.323 30.802 313.183 30.1673 313.183 29.458C313.183 28.7487 313.323 28.1187 313.603 27.568C313.883 27.008 314.28 26.5693 314.793 26.252C315.316 25.9347 315.918 25.776 316.599 25.776C317.178 25.776 317.682 25.8927 318.111 26.126C318.55 26.3593 318.886 26.686 319.119 27.106V22.92H320.296V33H319.231L319.133 31.838C318.984 32.0713 318.793 32.2907 318.559 32.496C318.326 32.692 318.046 32.8553 317.719 32.986C317.393 33.1073 317.015 33.168 316.585 33.168ZM316.725 32.146C317.192 32.146 317.603 32.034 317.957 31.81C318.312 31.586 318.587 31.278 318.783 30.886C318.979 30.4847 319.077 30.0133 319.077 29.472C319.077 28.94 318.979 28.4733 318.783 28.072C318.587 27.6707 318.312 27.358 317.957 27.134C317.603 26.91 317.192 26.798 316.725 26.798C316.268 26.798 315.862 26.91 315.507 27.134C315.153 27.358 314.877 27.6707 314.681 28.072C314.485 28.4733 314.387 28.94 314.387 29.472C314.387 30.0133 314.485 30.4847 314.681 30.886C314.877 31.278 315.153 31.586 315.507 31.81C315.862 32.034 316.268 32.146 316.725 32.146ZM324.831 33.168C324.262 33.168 323.786 33.07 323.403 32.874C323.02 32.6687 322.736 32.4027 322.549 32.076C322.362 31.74 322.269 31.376 322.269 30.984C322.269 30.508 322.39 30.1067 322.633 29.78C322.885 29.444 323.235 29.192 323.683 29.024C324.14 28.8467 324.677 28.758 325.293 28.758H327.155C327.155 28.3193 327.085 27.9553 326.945 27.666C326.814 27.3673 326.618 27.1433 326.357 26.994C326.105 26.8447 325.788 26.77 325.405 26.77C324.957 26.77 324.57 26.882 324.243 27.106C323.916 27.33 323.716 27.6613 323.641 28.1H322.437C322.493 27.596 322.661 27.176 322.941 26.84C323.23 26.4947 323.594 26.2333 324.033 26.056C324.472 25.8693 324.929 25.776 325.405 25.776C326.058 25.776 326.6 25.8973 327.029 26.14C327.468 26.3733 327.794 26.7047 328.009 27.134C328.224 27.554 328.331 28.0533 328.331 28.632V33H327.281L327.211 31.754C327.118 31.95 326.996 32.1367 326.847 32.314C326.707 32.482 326.539 32.6313 326.343 32.762C326.147 32.8833 325.923 32.9813 325.671 33.056C325.428 33.1307 325.148 33.168 324.831 33.168ZM325.013 32.174C325.34 32.174 325.634 32.1087 325.895 31.978C326.166 31.838 326.394 31.6513 326.581 31.418C326.768 31.1753 326.908 30.9093 327.001 30.62C327.104 30.3307 327.155 30.0273 327.155 29.71V29.668H325.391C324.934 29.668 324.565 29.724 324.285 29.836C324.005 29.9387 323.804 30.088 323.683 30.284C323.562 30.4707 323.501 30.6853 323.501 30.928C323.501 31.18 323.557 31.3993 323.669 31.586C323.79 31.7727 323.963 31.9173 324.187 32.02C324.42 32.1227 324.696 32.174 325.013 32.174ZM333.011 33C332.591 33 332.227 32.9347 331.919 32.804C331.611 32.6733 331.373 32.454 331.205 32.146C331.046 31.8287 330.967 31.404 330.967 30.872V26.938H329.735V25.944H330.967L331.121 24.236H332.143V25.944H334.187V26.938H332.143V30.872C332.143 31.3107 332.231 31.6093 332.409 31.768C332.586 31.9173 332.899 31.992 333.347 31.992H334.103V33H333.011ZM338.904 33.168C338.241 33.168 337.653 33.014 337.14 32.706C336.636 32.398 336.239 31.9687 335.95 31.418C335.66 30.858 335.516 30.2093 335.516 29.472C335.516 28.7253 335.656 28.0767 335.936 27.526C336.225 26.9753 336.626 26.546 337.14 26.238C337.662 25.93 338.26 25.776 338.932 25.776C339.622 25.776 340.206 25.93 340.682 26.238C341.167 26.546 341.536 26.952 341.788 27.456C342.049 27.9507 342.18 28.4967 342.18 29.094C342.18 29.1873 342.18 29.2853 342.18 29.388C342.18 29.4907 342.175 29.6073 342.166 29.738H336.398V28.828H341.032C341.004 28.184 340.789 27.68 340.388 27.316C339.996 26.952 339.501 26.77 338.904 26.77C338.502 26.77 338.129 26.8633 337.784 27.05C337.448 27.2273 337.177 27.4933 336.972 27.848C336.766 28.1933 336.664 28.6273 336.664 29.15V29.542C336.664 30.1207 336.766 30.606 336.972 30.998C337.186 31.39 337.462 31.684 337.798 31.88C338.143 32.076 338.512 32.174 338.904 32.174C339.398 32.174 339.804 32.0667 340.122 31.852C340.448 31.628 340.682 31.3293 340.822 30.956H341.984C341.872 31.376 341.676 31.754 341.396 32.09C341.116 32.426 340.766 32.692 340.346 32.888C339.935 33.0747 339.454 33.168 338.904 33.168ZM348.115 33V23.2H349.487L352.945 30.046L356.417 23.2H357.803V33H356.627V25.3L353.393 31.628H352.511L349.291 25.328V33H348.115ZM363.191 33.168C362.528 33.168 361.94 33.014 361.427 32.706C360.923 32.398 360.526 31.9687 360.237 31.418C359.948 30.858 359.803 30.2093 359.803 29.472C359.803 28.7253 359.943 28.0767 360.223 27.526C360.512 26.9753 360.914 26.546 361.427 26.238C361.95 25.93 362.547 25.776 363.219 25.776C363.91 25.776 364.493 25.93 364.969 26.238C365.454 26.546 365.823 26.952 366.075 27.456C366.336 27.9507 366.467 28.4967 366.467 29.094C366.467 29.1873 366.467 29.2853 366.467 29.388C366.467 29.4907 366.462 29.6073 366.453 29.738H360.685V28.828H365.319C365.291 28.184 365.076 27.68 364.675 27.316C364.283 26.952 363.788 26.77 363.191 26.77C362.79 26.77 362.416 26.8633 362.071 27.05C361.735 27.2273 361.464 27.4933 361.259 27.848C361.054 28.1933 360.951 28.6273 360.951 29.15V29.542C360.951 30.1207 361.054 30.606 361.259 30.998C361.474 31.39 361.749 31.684 362.085 31.88C362.43 32.076 362.799 32.174 363.191 32.174C363.686 32.174 364.092 32.0667 364.409 31.852C364.736 31.628 364.969 31.3293 365.109 30.956H366.271C366.159 31.376 365.963 31.754 365.683 32.09C365.403 32.426 365.053 32.692 364.633 32.888C364.222 33.0747 363.742 33.168 363.191 33.168ZM370.874 33C370.454 33 370.09 32.9347 369.782 32.804C369.474 32.6733 369.236 32.454 369.068 32.146C368.909 31.8287 368.83 31.404 368.83 30.872V26.938H367.598V25.944H368.83L368.984 24.236H370.006V25.944H372.05V26.938H370.006V30.872C370.006 31.3107 370.094 31.6093 370.272 31.768C370.449 31.9173 370.762 31.992 371.21 31.992H371.966V33H370.874ZM373.864 33V25.944H374.928L375.012 27.288C375.171 26.9707 375.371 26.7 375.614 26.476C375.866 26.252 376.165 26.0793 376.51 25.958C376.865 25.8367 377.266 25.776 377.714 25.776V27.008H377.28C376.981 27.008 376.697 27.05 376.426 27.134C376.155 27.2087 375.913 27.3347 375.698 27.512C375.493 27.6893 375.329 27.932 375.208 28.24C375.096 28.5387 375.04 28.912 375.04 29.36V33H373.864ZM379.438 33V25.944H380.614V33H379.438ZM380.026 24.446C379.792 24.446 379.596 24.3713 379.438 24.222C379.288 24.0633 379.214 23.8673 379.214 23.634C379.214 23.4007 379.288 23.214 379.438 23.074C379.596 22.9247 379.792 22.85 380.026 22.85C380.25 22.85 380.441 22.9247 380.6 23.074C380.758 23.214 380.838 23.4007 380.838 23.634C380.838 23.8673 380.758 24.0633 380.6 24.222C380.441 24.3713 380.25 24.446 380.026 24.446ZM386.147 33.168C385.484 33.168 384.887 33.014 384.355 32.706C383.832 32.398 383.422 31.9687 383.123 31.418C382.824 30.858 382.675 30.214 382.675 29.486C382.675 28.7393 382.824 28.0907 383.123 27.54C383.422 26.9893 383.832 26.56 384.355 26.252C384.887 25.9347 385.484 25.776 386.147 25.776C386.987 25.776 387.687 25.9953 388.247 26.434C388.807 26.8633 389.162 27.442 389.311 28.17H388.107C388.014 27.7313 387.785 27.3907 387.421 27.148C387.057 26.9053 386.628 26.784 386.133 26.784C385.732 26.784 385.358 26.8867 385.013 27.092C384.668 27.288 384.392 27.5867 384.187 27.988C383.982 28.3893 383.879 28.884 383.879 29.472C383.879 29.9107 383.94 30.3027 384.061 30.648C384.182 30.984 384.346 31.264 384.551 31.488C384.756 31.712 384.994 31.8847 385.265 32.006C385.545 32.118 385.834 32.174 386.133 32.174C386.469 32.174 386.772 32.1227 387.043 32.02C387.314 31.908 387.542 31.7447 387.729 31.53C387.916 31.3153 388.042 31.0633 388.107 30.774H389.311C389.162 31.4833 388.802 32.062 388.233 32.51C387.673 32.9487 386.978 33.168 386.147 33.168Z" fill="#EEEFF1"/>
</g>
<path d="M258 20C258 14.4772 262.477 10 268 10H286V46H268C262.477 46 258 41.5228 258 36V20Z" fill="#86888E"/>
<path d="M266.375 27.375C266.375 26.7857 266.375 26.4911 266.558 26.3081C266.741 26.125 267.036 26.125 267.625 26.125C268.214 26.125 268.509 26.125 268.692 26.3081C268.875 26.4911 268.875 26.7857 268.875 27.375V31.125C268.875 31.7143 268.875 32.0089 268.692 32.1919C268.509 32.375 268.214 32.375 267.625 32.375C267.036 32.375 266.741 32.375 266.558 32.1919C266.375 32.0089 266.375 31.7143 266.375 31.125V27.375Z" stroke="#27292E"/>
<path d="M270.75 24.875C270.75 24.2857 270.75 23.9911 270.933 23.8081C271.116 23.625 271.411 23.625 272 23.625C272.589 23.625 272.884 23.625 273.067 23.8081C273.25 23.9911 273.25 24.2857 273.25 24.875V31.125C273.25 31.7143 273.25 32.0089 273.067 32.1919C272.884 32.375 272.589 32.375 272 32.375C271.411 32.375 271.116 32.375 270.933 32.1919C270.75 32.0089 270.75 31.7143 270.75 31.125V24.875Z" stroke="#27292E"/>
<path d="M275.125 23C275.125 22.4107 275.125 22.1161 275.308 21.9331C275.491 21.75 275.786 21.75 276.375 21.75C276.964 21.75 277.259 21.75 277.442 21.9331C277.625 22.1161 277.625 22.4107 277.625 23V31.125C277.625 31.7143 277.625 32.0089 277.442 32.1919C277.259 32.375 276.964 32.375 276.375 32.375C275.786 32.375 275.491 32.375 275.308 32.1919C275.125 32.0089 275.125 31.7143 275.125 31.125V23Z" stroke="#27292E"/>
<g filter="url(#filter7_d_2654_27027)">
<rect x="258" y="86" width="143" height="36" rx="10" fill="#0C0D0E" shape-rendering="crispEdges"/>
<rect x="258.5" y="86.5" width="142" height="35" rx="9.5" stroke="#86888E" shape-rendering="crispEdges"/>
<path d="M269.75 104C269.75 105.658 270.408 107.247 271.581 108.419C272.753 109.592 274.342 110.25 276 110.25C277.658 110.25 279.247 109.592 280.419 108.419C281.592 107.247 282.25 105.658 282.25 104C282.25 102.342 281.592 100.753 280.419 99.5806C279.247 98.4085 277.658 97.75 276 97.75C274.342 97.75 272.753 98.4085 271.581 99.5806C270.408 100.753 269.75 102.342 269.75 104Z" stroke="#86888E"/>
<path d="M272.25 99.4441C272.738 99.8882 273.742 101.102 273.859 102.405C273.969 103.622 274.772 104.612 276 104.625C276.472 104.63 276.949 104.289 276.948 103.818C276.947 103.672 276.923 103.522 276.886 103.385C276.833 103.194 276.829 102.975 276.938 102.75C277.319 101.964 278.068 101.753 278.662 101.326C278.926 101.137 279.166 100.937 279.272 100.776C279.565 100.332 279.857 99.4441 279.711 99" stroke="#86888E"/>
<path d="M282.25 104.625C282.044 105.207 281.898 106.734 279.574 106.759C279.574 106.759 277.515 106.759 276.898 107.922C276.404 108.853 276.692 109.862 276.898 110.25" stroke="#86888E"/>
<path d="M298.578 109.168C297.906 109.168 297.295 109.033 296.744 108.762C296.203 108.491 295.769 108.081 295.442 107.53C295.115 106.97 294.952 106.256 294.952 105.388V99.2H296.128V105.402C296.128 106.037 296.231 106.555 296.436 106.956C296.651 107.357 296.945 107.651 297.318 107.838C297.691 108.025 298.121 108.118 298.606 108.118C299.101 108.118 299.53 108.025 299.894 107.838C300.258 107.651 300.543 107.357 300.748 106.956C300.953 106.555 301.056 106.037 301.056 105.402V99.2H302.232V105.388C302.232 106.256 302.069 106.97 301.742 107.53C301.415 108.081 300.977 108.491 300.426 108.762C299.875 109.033 299.259 109.168 298.578 109.168ZM304.434 112.08V101.944H305.498L305.596 103.092C305.745 102.868 305.936 102.658 306.17 102.462C306.403 102.257 306.683 102.093 307.01 101.972C307.336 101.841 307.71 101.776 308.13 101.776C308.82 101.776 309.418 101.939 309.922 102.266C310.435 102.593 310.832 103.036 311.112 103.596C311.401 104.147 311.546 104.777 311.546 105.486C311.546 106.195 311.401 106.83 311.112 107.39C310.832 107.941 310.435 108.375 309.922 108.692C309.408 109.009 308.806 109.168 308.116 109.168C307.546 109.168 307.042 109.051 306.604 108.818C306.174 108.585 305.843 108.258 305.61 107.838V112.08H304.434ZM307.99 108.146C308.447 108.146 308.853 108.034 309.208 107.81C309.562 107.586 309.838 107.278 310.034 106.886C310.239 106.485 310.342 106.013 310.342 105.472C310.342 104.94 310.239 104.473 310.034 104.072C309.838 103.671 309.562 103.358 309.208 103.134C308.853 102.91 308.447 102.798 307.99 102.798C307.523 102.798 307.112 102.91 306.758 103.134C306.403 103.358 306.128 103.671 305.932 104.072C305.736 104.473 305.638 104.94 305.638 105.472C305.638 106.013 305.736 106.485 305.932 106.886C306.128 107.278 306.403 107.586 306.758 107.81C307.112 108.034 307.523 108.146 307.99 108.146ZM316.585 109.168C315.904 109.168 315.307 109.009 314.793 108.692C314.28 108.365 313.883 107.922 313.603 107.362C313.323 106.802 313.183 106.167 313.183 105.458C313.183 104.749 313.323 104.119 313.603 103.568C313.883 103.008 314.28 102.569 314.793 102.252C315.316 101.935 315.918 101.776 316.599 101.776C317.178 101.776 317.682 101.893 318.111 102.126C318.55 102.359 318.886 102.686 319.119 103.106V98.92H320.296V109H319.231L319.133 107.838C318.984 108.071 318.793 108.291 318.559 108.496C318.326 108.692 318.046 108.855 317.719 108.986C317.393 109.107 317.015 109.168 316.585 109.168ZM316.725 108.146C317.192 108.146 317.603 108.034 317.957 107.81C318.312 107.586 318.587 107.278 318.783 106.886C318.979 106.485 319.077 106.013 319.077 105.472C319.077 104.94 318.979 104.473 318.783 104.072C318.587 103.671 318.312 103.358 317.957 103.134C317.603 102.91 317.192 102.798 316.725 102.798C316.268 102.798 315.862 102.91 315.507 103.134C315.153 103.358 314.877 103.671 314.681 104.072C314.485 104.473 314.387 104.94 314.387 105.472C314.387 106.013 314.485 106.485 314.681 106.886C314.877 107.278 315.153 107.586 315.507 107.81C315.862 108.034 316.268 108.146 316.725 108.146ZM324.831 109.168C324.262 109.168 323.786 109.07 323.403 108.874C323.02 108.669 322.736 108.403 322.549 108.076C322.362 107.74 322.269 107.376 322.269 106.984C322.269 106.508 322.39 106.107 322.633 105.78C322.885 105.444 323.235 105.192 323.683 105.024C324.14 104.847 324.677 104.758 325.293 104.758H327.155C327.155 104.319 327.085 103.955 326.945 103.666C326.814 103.367 326.618 103.143 326.357 102.994C326.105 102.845 325.788 102.77 325.405 102.77C324.957 102.77 324.57 102.882 324.243 103.106C323.916 103.33 323.716 103.661 323.641 104.1H322.437C322.493 103.596 322.661 103.176 322.941 102.84C323.23 102.495 323.594 102.233 324.033 102.056C324.472 101.869 324.929 101.776 325.405 101.776C326.058 101.776 326.6 101.897 327.029 102.14C327.468 102.373 327.794 102.705 328.009 103.134C328.224 103.554 328.331 104.053 328.331 104.632V109H327.281L327.211 107.754C327.118 107.95 326.996 108.137 326.847 108.314C326.707 108.482 326.539 108.631 326.343 108.762C326.147 108.883 325.923 108.981 325.671 109.056C325.428 109.131 325.148 109.168 324.831 109.168ZM325.013 108.174C325.34 108.174 325.634 108.109 325.895 107.978C326.166 107.838 326.394 107.651 326.581 107.418C326.768 107.175 326.908 106.909 327.001 106.62C327.104 106.331 327.155 106.027 327.155 105.71V105.668H325.391C324.934 105.668 324.565 105.724 324.285 105.836C324.005 105.939 323.804 106.088 323.683 106.284C323.562 106.471 323.501 106.685 323.501 106.928C323.501 107.18 323.557 107.399 323.669 107.586C323.79 107.773 323.963 107.917 324.187 108.02C324.42 108.123 324.696 108.174 325.013 108.174ZM333.011 109C332.591 109 332.227 108.935 331.919 108.804C331.611 108.673 331.373 108.454 331.205 108.146C331.046 107.829 330.967 107.404 330.967 106.872V102.938H329.735V101.944H330.967L331.121 100.236H332.143V101.944H334.187V102.938H332.143V106.872C332.143 107.311 332.231 107.609 332.409 107.768C332.586 107.917 332.899 107.992 333.347 107.992H334.103V109H333.011ZM338.904 109.168C338.241 109.168 337.653 109.014 337.14 108.706C336.636 108.398 336.239 107.969 335.95 107.418C335.66 106.858 335.516 106.209 335.516 105.472C335.516 104.725 335.656 104.077 335.936 103.526C336.225 102.975 336.626 102.546 337.14 102.238C337.662 101.93 338.26 101.776 338.932 101.776C339.622 101.776 340.206 101.93 340.682 102.238C341.167 102.546 341.536 102.952 341.788 103.456C342.049 103.951 342.18 104.497 342.18 105.094C342.18 105.187 342.18 105.285 342.18 105.388C342.18 105.491 342.175 105.607 342.166 105.738H336.398V104.828H341.032C341.004 104.184 340.789 103.68 340.388 103.316C339.996 102.952 339.501 102.77 338.904 102.77C338.502 102.77 338.129 102.863 337.784 103.05C337.448 103.227 337.177 103.493 336.972 103.848C336.766 104.193 336.664 104.627 336.664 105.15V105.542C336.664 106.121 336.766 106.606 336.972 106.998C337.186 107.39 337.462 107.684 337.798 107.88C338.143 108.076 338.512 108.174 338.904 108.174C339.398 108.174 339.804 108.067 340.122 107.852C340.448 107.628 340.682 107.329 340.822 106.956H341.984C341.872 107.376 341.676 107.754 341.396 108.09C341.116 108.426 340.766 108.692 340.346 108.888C339.935 109.075 339.454 109.168 338.904 109.168ZM348.115 109V99.2H349.487L352.945 106.046L356.417 99.2H357.803V109H356.627V101.3L353.393 107.628H352.511L349.291 101.328V109H348.115ZM363.191 109.168C362.528 109.168 361.94 109.014 361.427 108.706C360.923 108.398 360.526 107.969 360.237 107.418C359.948 106.858 359.803 106.209 359.803 105.472C359.803 104.725 359.943 104.077 360.223 103.526C360.512 102.975 360.914 102.546 361.427 102.238C361.95 101.93 362.547 101.776 363.219 101.776C363.91 101.776 364.493 101.93 364.969 102.238C365.454 102.546 365.823 102.952 366.075 103.456C366.336 103.951 366.467 104.497 366.467 105.094C366.467 105.187 366.467 105.285 366.467 105.388C366.467 105.491 366.462 105.607 366.453 105.738H360.685V104.828H365.319C365.291 104.184 365.076 103.68 364.675 103.316C364.283 102.952 363.788 102.77 363.191 102.77C362.79 102.77 362.416 102.863 362.071 103.05C361.735 103.227 361.464 103.493 361.259 103.848C361.054 104.193 360.951 104.627 360.951 105.15V105.542C360.951 106.121 361.054 106.606 361.259 106.998C361.474 107.39 361.749 107.684 362.085 107.88C362.43 108.076 362.799 108.174 363.191 108.174C363.686 108.174 364.092 108.067 364.409 107.852C364.736 107.628 364.969 107.329 365.109 106.956H366.271C366.159 107.376 365.963 107.754 365.683 108.09C365.403 108.426 365.053 108.692 364.633 108.888C364.222 109.075 363.742 109.168 363.191 109.168ZM370.874 109C370.454 109 370.09 108.935 369.782 108.804C369.474 108.673 369.236 108.454 369.068 108.146C368.909 107.829 368.83 107.404 368.83 106.872V102.938H367.598V101.944H368.83L368.984 100.236H370.006V101.944H372.05V102.938H370.006V106.872C370.006 107.311 370.094 107.609 370.272 107.768C370.449 107.917 370.762 107.992 371.21 107.992H371.966V109H370.874ZM373.864 109V101.944H374.928L375.012 103.288C375.171 102.971 375.371 102.7 375.614 102.476C375.866 102.252 376.165 102.079 376.51 101.958C376.865 101.837 377.266 101.776 377.714 101.776V103.008H377.28C376.981 103.008 376.697 103.05 376.426 103.134C376.155 103.209 375.913 103.335 375.698 103.512C375.493 103.689 375.329 103.932 375.208 104.24C375.096 104.539 375.04 104.912 375.04 105.36V109H373.864ZM379.438 109V101.944H380.614V109H379.438ZM380.026 100.446C379.792 100.446 379.596 100.371 379.438 100.222C379.288 100.063 379.214 99.8673 379.214 99.634C379.214 99.4007 379.288 99.214 379.438 99.074C379.596 98.9247 379.792 98.85 380.026 98.85C380.25 98.85 380.441 98.9247 380.6 99.074C380.758 99.214 380.838 99.4007 380.838 99.634C380.838 99.8673 380.758 100.063 380.6 100.222C380.441 100.371 380.25 100.446 380.026 100.446ZM386.147 109.168C385.484 109.168 384.887 109.014 384.355 108.706C383.832 108.398 383.422 107.969 383.123 107.418C382.824 106.858 382.675 106.214 382.675 105.486C382.675 104.739 382.824 104.091 383.123 103.54C383.422 102.989 383.832 102.56 384.355 102.252C384.887 101.935 385.484 101.776 386.147 101.776C386.987 101.776 387.687 101.995 388.247 102.434C388.807 102.863 389.162 103.442 389.311 104.17H388.107C388.014 103.731 387.785 103.391 387.421 103.148C387.057 102.905 386.628 102.784 386.133 102.784C385.732 102.784 385.358 102.887 385.013 103.092C384.668 103.288 384.392 103.587 384.187 103.988C383.982 104.389 383.879 104.884 383.879 105.472C383.879 105.911 383.94 106.303 384.061 106.648C384.182 106.984 384.346 107.264 384.551 107.488C384.756 107.712 384.994 107.885 385.265 108.006C385.545 108.118 385.834 108.174 386.133 108.174C386.469 108.174 386.772 108.123 387.043 108.02C387.314 107.908 387.542 107.745 387.729 107.53C387.916 107.315 388.042 107.063 388.107 106.774H389.311C389.162 107.483 388.802 108.062 388.233 108.51C387.673 108.949 386.978 109.168 386.147 109.168Z" fill="#EEEFF1"/>
</g>
<path d="M258 96C258 90.4772 262.477 86 268 86H286V122H268C262.477 122 258 117.523 258 112V96Z" fill="#86888E"/>
<path d="M266.375 103.375C266.375 102.786 266.375 102.491 266.558 102.308C266.741 102.125 267.036 102.125 267.625 102.125C268.214 102.125 268.509 102.125 268.692 102.308C268.875 102.491 268.875 102.786 268.875 103.375V107.125C268.875 107.714 268.875 108.009 268.692 108.192C268.509 108.375 268.214 108.375 267.625 108.375C267.036 108.375 266.741 108.375 266.558 108.192C266.375 108.009 266.375 107.714 266.375 107.125V103.375Z" stroke="#27292E"/>
<path d="M270.75 100.875C270.75 100.286 270.75 99.9911 270.933 99.8081C271.116 99.625 271.411 99.625 272 99.625C272.589 99.625 272.884 99.625 273.067 99.8081C273.25 99.9911 273.25 100.286 273.25 100.875V107.125C273.25 107.714 273.25 108.009 273.067 108.192C272.884 108.375 272.589 108.375 272 108.375C271.411 108.375 271.116 108.375 270.933 108.192C270.75 108.009 270.75 107.714 270.75 107.125V100.875Z" stroke="#27292E"/>
<path d="M275.125 99C275.125 98.4107 275.125 98.1161 275.308 97.9331C275.491 97.75 275.786 97.75 276.375 97.75C276.964 97.75 277.259 97.75 277.442 97.9331C277.625 98.1161 277.625 98.4107 277.625 99V107.125C277.625 107.714 277.625 108.009 277.442 108.192C277.259 108.375 276.964 108.375 276.375 108.375C275.786 108.375 275.491 108.375 275.308 108.192C275.125 108.009 275.125 107.714 275.125 107.125V99Z" stroke="#27292E"/>
<g filter="url(#filter8_d_2654_27027)">
<rect x="258" y="162" width="143" height="36" rx="10" fill="#0C0D0E" shape-rendering="crispEdges"/>
<rect x="258.5" y="162.5" width="142" height="35" rx="9.5" stroke="#86888E" shape-rendering="crispEdges"/>
<path d="M269.75 180C269.75 181.658 270.408 183.247 271.581 184.419C272.753 185.592 274.342 186.25 276 186.25C277.658 186.25 279.247 185.592 280.419 184.419C281.592 183.247 282.25 181.658 282.25 180C282.25 178.342 281.592 176.753 280.419 175.581C279.247 174.408 277.658 173.75 276 173.75C274.342 173.75 272.753 174.408 271.581 175.581C270.408 176.753 269.75 178.342 269.75 180Z" stroke="#86888E"/>
<path d="M272.25 175.444C272.738 175.888 273.742 177.102 273.859 178.405C273.969 179.622 274.772 180.612 276 180.625C276.472 180.63 276.949 180.289 276.948 179.818C276.947 179.672 276.923 179.522 276.886 179.385C276.833 179.194 276.829 178.975 276.938 178.75C277.319 177.964 278.068 177.753 278.662 177.326C278.926 177.137 279.166 176.937 279.272 176.776C279.565 176.332 279.857 175.444 279.711 175" stroke="#86888E"/>
<path d="M282.25 180.625C282.044 181.207 281.898 182.734 279.574 182.759C279.574 182.759 277.515 182.759 276.898 183.922C276.404 184.853 276.692 185.862 276.898 186.25" stroke="#86888E"/>
<path d="M298.578 185.168C297.906 185.168 297.295 185.033 296.744 184.762C296.203 184.491 295.769 184.081 295.442 183.53C295.115 182.97 294.952 182.256 294.952 181.388V175.2H296.128V181.402C296.128 182.037 296.231 182.555 296.436 182.956C296.651 183.357 296.945 183.651 297.318 183.838C297.691 184.025 298.121 184.118 298.606 184.118C299.101 184.118 299.53 184.025 299.894 183.838C300.258 183.651 300.543 183.357 300.748 182.956C300.953 182.555 301.056 182.037 301.056 181.402V175.2H302.232V181.388C302.232 182.256 302.069 182.97 301.742 183.53C301.415 184.081 300.977 184.491 300.426 184.762C299.875 185.033 299.259 185.168 298.578 185.168ZM304.434 188.08V177.944H305.498L305.596 179.092C305.745 178.868 305.936 178.658 306.17 178.462C306.403 178.257 306.683 178.093 307.01 177.972C307.336 177.841 307.71 177.776 308.13 177.776C308.82 177.776 309.418 177.939 309.922 178.266C310.435 178.593 310.832 179.036 311.112 179.596C311.401 180.147 311.546 180.777 311.546 181.486C311.546 182.195 311.401 182.83 311.112 183.39C310.832 183.941 310.435 184.375 309.922 184.692C309.408 185.009 308.806 185.168 308.116 185.168C307.546 185.168 307.042 185.051 306.604 184.818C306.174 184.585 305.843 184.258 305.61 183.838V188.08H304.434ZM307.99 184.146C308.447 184.146 308.853 184.034 309.208 183.81C309.562 183.586 309.838 183.278 310.034 182.886C310.239 182.485 310.342 182.013 310.342 181.472C310.342 180.94 310.239 180.473 310.034 180.072C309.838 179.671 309.562 179.358 309.208 179.134C308.853 178.91 308.447 178.798 307.99 178.798C307.523 178.798 307.112 178.91 306.758 179.134C306.403 179.358 306.128 179.671 305.932 180.072C305.736 180.473 305.638 180.94 305.638 181.472C305.638 182.013 305.736 182.485 305.932 182.886C306.128 183.278 306.403 183.586 306.758 183.81C307.112 184.034 307.523 184.146 307.99 184.146ZM316.585 185.168C315.904 185.168 315.307 185.009 314.793 184.692C314.28 184.365 313.883 183.922 313.603 183.362C313.323 182.802 313.183 182.167 313.183 181.458C313.183 180.749 313.323 180.119 313.603 179.568C313.883 179.008 314.28 178.569 314.793 178.252C315.316 177.935 315.918 177.776 316.599 177.776C317.178 177.776 317.682 177.893 318.111 178.126C318.55 178.359 318.886 178.686 319.119 179.106V174.92H320.296V185H319.231L319.133 183.838C318.984 184.071 318.793 184.291 318.559 184.496C318.326 184.692 318.046 184.855 317.719 184.986C317.393 185.107 317.015 185.168 316.585 185.168ZM316.725 184.146C317.192 184.146 317.603 184.034 317.957 183.81C318.312 183.586 318.587 183.278 318.783 182.886C318.979 182.485 319.077 182.013 319.077 181.472C319.077 180.94 318.979 180.473 318.783 180.072C318.587 179.671 318.312 179.358 317.957 179.134C317.603 178.91 317.192 178.798 316.725 178.798C316.268 178.798 315.862 178.91 315.507 179.134C315.153 179.358 314.877 179.671 314.681 180.072C314.485 180.473 314.387 180.94 314.387 181.472C314.387 182.013 314.485 182.485 314.681 182.886C314.877 183.278 315.153 183.586 315.507 183.81C315.862 184.034 316.268 184.146 316.725 184.146ZM324.831 185.168C324.262 185.168 323.786 185.07 323.403 184.874C323.02 184.669 322.736 184.403 322.549 184.076C322.362 183.74 322.269 183.376 322.269 182.984C322.269 182.508 322.39 182.107 322.633 181.78C322.885 181.444 323.235 181.192 323.683 181.024C324.14 180.847 324.677 180.758 325.293 180.758H327.155C327.155 180.319 327.085 179.955 326.945 179.666C326.814 179.367 326.618 179.143 326.357 178.994C326.105 178.845 325.788 178.77 325.405 178.77C324.957 178.77 324.57 178.882 324.243 179.106C323.916 179.33 323.716 179.661 323.641 180.1H322.437C322.493 179.596 322.661 179.176 322.941 178.84C323.23 178.495 323.594 178.233 324.033 178.056C324.472 177.869 324.929 177.776 325.405 177.776C326.058 177.776 326.6 177.897 327.029 178.14C327.468 178.373 327.794 178.705 328.009 179.134C328.224 179.554 328.331 180.053 328.331 180.632V185H327.281L327.211 183.754C327.118 183.95 326.996 184.137 326.847 184.314C326.707 184.482 326.539 184.631 326.343 184.762C326.147 184.883 325.923 184.981 325.671 185.056C325.428 185.131 325.148 185.168 324.831 185.168ZM325.013 184.174C325.34 184.174 325.634 184.109 325.895 183.978C326.166 183.838 326.394 183.651 326.581 183.418C326.768 183.175 326.908 182.909 327.001 182.62C327.104 182.331 327.155 182.027 327.155 181.71V181.668H325.391C324.934 181.668 324.565 181.724 324.285 181.836C324.005 181.939 323.804 182.088 323.683 182.284C323.562 182.471 323.501 182.685 323.501 182.928C323.501 183.18 323.557 183.399 323.669 183.586C323.79 183.773 323.963 183.917 324.187 184.02C324.42 184.123 324.696 184.174 325.013 184.174ZM333.011 185C332.591 185 332.227 184.935 331.919 184.804C331.611 184.673 331.373 184.454 331.205 184.146C331.046 183.829 330.967 183.404 330.967 182.872V178.938H329.735V177.944H330.967L331.121 176.236H332.143V177.944H334.187V178.938H332.143V182.872C332.143 183.311 332.231 183.609 332.409 183.768C332.586 183.917 332.899 183.992 333.347 183.992H334.103V185H333.011ZM338.904 185.168C338.241 185.168 337.653 185.014 337.14 184.706C336.636 184.398 336.239 183.969 335.95 183.418C335.66 182.858 335.516 182.209 335.516 181.472C335.516 180.725 335.656 180.077 335.936 179.526C336.225 178.975 336.626 178.546 337.14 178.238C337.662 177.93 338.26 177.776 338.932 177.776C339.622 177.776 340.206 177.93 340.682 178.238C341.167 178.546 341.536 178.952 341.788 179.456C342.049 179.951 342.18 180.497 342.18 181.094C342.18 181.187 342.18 181.285 342.18 181.388C342.18 181.491 342.175 181.607 342.166 181.738H336.398V180.828H341.032C341.004 180.184 340.789 179.68 340.388 179.316C339.996 178.952 339.501 178.77 338.904 178.77C338.502 178.77 338.129 178.863 337.784 179.05C337.448 179.227 337.177 179.493 336.972 179.848C336.766 180.193 336.664 180.627 336.664 181.15V181.542C336.664 182.121 336.766 182.606 336.972 182.998C337.186 183.39 337.462 183.684 337.798 183.88C338.143 184.076 338.512 184.174 338.904 184.174C339.398 184.174 339.804 184.067 340.122 183.852C340.448 183.628 340.682 183.329 340.822 182.956H341.984C341.872 183.376 341.676 183.754 341.396 184.09C341.116 184.426 340.766 184.692 340.346 184.888C339.935 185.075 339.454 185.168 338.904 185.168ZM348.115 185V175.2H349.487L352.945 182.046L356.417 175.2H357.803V185H356.627V177.3L353.393 183.628H352.511L349.291 177.328V185H348.115ZM363.191 185.168C362.528 185.168 361.94 185.014 361.427 184.706C360.923 184.398 360.526 183.969 360.237 183.418C359.948 182.858 359.803 182.209 359.803 181.472C359.803 180.725 359.943 180.077 360.223 179.526C360.512 178.975 360.914 178.546 361.427 178.238C361.95 177.93 362.547 177.776 363.219 177.776C363.91 177.776 364.493 177.93 364.969 178.238C365.454 178.546 365.823 178.952 366.075 179.456C366.336 179.951 366.467 180.497 366.467 181.094C366.467 181.187 366.467 181.285 366.467 181.388C366.467 181.491 366.462 181.607 366.453 181.738H360.685V180.828H365.319C365.291 180.184 365.076 179.68 364.675 179.316C364.283 178.952 363.788 178.77 363.191 178.77C362.79 178.77 362.416 178.863 362.071 179.05C361.735 179.227 361.464 179.493 361.259 179.848C361.054 180.193 360.951 180.627 360.951 181.15V181.542C360.951 182.121 361.054 182.606 361.259 182.998C361.474 183.39 361.749 183.684 362.085 183.88C362.43 184.076 362.799 184.174 363.191 184.174C363.686 184.174 364.092 184.067 364.409 183.852C364.736 183.628 364.969 183.329 365.109 182.956H366.271C366.159 183.376 365.963 183.754 365.683 184.09C365.403 184.426 365.053 184.692 364.633 184.888C364.222 185.075 363.742 185.168 363.191 185.168ZM370.874 185C370.454 185 370.09 184.935 369.782 184.804C369.474 184.673 369.236 184.454 369.068 184.146C368.909 183.829 368.83 183.404 368.83 182.872V178.938H367.598V177.944H368.83L368.984 176.236H370.006V177.944H372.05V178.938H370.006V182.872C370.006 183.311 370.094 183.609 370.272 183.768C370.449 183.917 370.762 183.992 371.21 183.992H371.966V185H370.874ZM373.864 185V177.944H374.928L375.012 179.288C375.171 178.971 375.371 178.7 375.614 178.476C375.866 178.252 376.165 178.079 376.51 177.958C376.865 177.837 377.266 177.776 377.714 177.776V179.008H377.28C376.981 179.008 376.697 179.05 376.426 179.134C376.155 179.209 375.913 179.335 375.698 179.512C375.493 179.689 375.329 179.932 375.208 180.24C375.096 180.539 375.04 180.912 375.04 181.36V185H373.864ZM379.438 185V177.944H380.614V185H379.438ZM380.026 176.446C379.792 176.446 379.596 176.371 379.438 176.222C379.288 176.063 379.214 175.867 379.214 175.634C379.214 175.401 379.288 175.214 379.438 175.074C379.596 174.925 379.792 174.85 380.026 174.85C380.25 174.85 380.441 174.925 380.6 175.074C380.758 175.214 380.838 175.401 380.838 175.634C380.838 175.867 380.758 176.063 380.6 176.222C380.441 176.371 380.25 176.446 380.026 176.446ZM386.147 185.168C385.484 185.168 384.887 185.014 384.355 184.706C383.832 184.398 383.422 183.969 383.123 183.418C382.824 182.858 382.675 182.214 382.675 181.486C382.675 180.739 382.824 180.091 383.123 179.54C383.422 178.989 383.832 178.56 384.355 178.252C384.887 177.935 385.484 177.776 386.147 177.776C386.987 177.776 387.687 177.995 388.247 178.434C388.807 178.863 389.162 179.442 389.311 180.17H388.107C388.014 179.731 387.785 179.391 387.421 179.148C387.057 178.905 386.628 178.784 386.133 178.784C385.732 178.784 385.358 178.887 385.013 179.092C384.668 179.288 384.392 179.587 384.187 179.988C383.982 180.389 383.879 180.884 383.879 181.472C383.879 181.911 383.94 182.303 384.061 182.648C384.182 182.984 384.346 183.264 384.551 183.488C384.756 183.712 384.994 183.885 385.265 184.006C385.545 184.118 385.834 184.174 386.133 184.174C386.469 184.174 386.772 184.123 387.043 184.02C387.314 183.908 387.542 183.745 387.729 183.53C387.916 183.315 388.042 183.063 388.107 182.774H389.311C389.162 183.483 388.802 184.062 388.233 184.51C387.673 184.949 386.978 185.168 386.147 185.168Z" fill="#EEEFF1"/>
</g>
<path d="M258 172C258 166.477 262.477 162 268 162H286V198H268C262.477 198 258 193.523 258 188V172Z" fill="#86888E"/>
<path d="M266.375 179.375C266.375 178.786 266.375 178.491 266.558 178.308C266.741 178.125 267.036 178.125 267.625 178.125C268.214 178.125 268.509 178.125 268.692 178.308C268.875 178.491 268.875 178.786 268.875 179.375V183.125C268.875 183.714 268.875 184.009 268.692 184.192C268.509 184.375 268.214 184.375 267.625 184.375C267.036 184.375 266.741 184.375 266.558 184.192C266.375 184.009 266.375 183.714 266.375 183.125V179.375Z" stroke="#27292E"/>
<path d="M270.75 176.875C270.75 176.286 270.75 175.991 270.933 175.808C271.116 175.625 271.411 175.625 272 175.625C272.589 175.625 272.884 175.625 273.067 175.808C273.25 175.991 273.25 176.286 273.25 176.875V183.125C273.25 183.714 273.25 184.009 273.067 184.192C272.884 184.375 272.589 184.375 272 184.375C271.411 184.375 271.116 184.375 270.933 184.192C270.75 184.009 270.75 183.714 270.75 183.125V176.875Z" stroke="#27292E"/>
<path d="M275.125 175C275.125 174.411 275.125 174.116 275.308 173.933C275.491 173.75 275.786 173.75 276.375 173.75C276.964 173.75 277.259 173.75 277.442 173.933C277.625 174.116 277.625 174.411 277.625 175V183.125C277.625 183.714 277.625 184.009 277.442 184.192C277.259 184.375 276.964 184.375 276.375 184.375C275.786 184.375 275.491 184.375 275.308 184.192C275.125 184.009 275.125 183.714 275.125 183.125V175Z" stroke="#27292E"/>
<rect x="230.5" y="24.5" width="8" height="8" rx="1.5" fill="#86888E" stroke="#27292E"/>
<rect x="188.5" y="99.5" width="8" height="8" rx="1.5" fill="#86888E" stroke="#27292E"/>
<rect x="224.5" y="178.5" width="8" height="8" rx="1.5" fill="#86888E" stroke="#27292E"/>
<rect x="254.5" y="24.5" width="8" height="8" rx="1.5" fill="#86888E" stroke="#27292E"/>
<rect x="254.5" y="99.5" width="8" height="8" rx="1.5" fill="#86888E" stroke="#313337"/>
<rect x="254.5" y="178.5" width="8" height="8" rx="1.5" fill="#86888E" stroke="#313337"/>
<rect x="396.5" y="24.5" width="8" height="8" rx="1.5" fill="#86888E" stroke="#27292E"/>
<path d="M57 96C57 90.4772 61.4772 86 67 86H85V122H67C61.4772 122 57 117.523 57 112V96Z" fill="#86888E"/>
<path d="M64.75 104C64.75 105.658 65.4085 107.247 66.5806 108.419C67.7527 109.592 69.3424 110.25 71 110.25C72.6576 110.25 74.2473 109.592 75.4194 108.419C76.5915 107.247 77.25 105.658 77.25 104C77.25 102.342 76.5915 100.753 75.4194 99.5806C74.2473 98.4085 72.6576 97.75 71 97.75C69.3424 97.75 67.7527 98.4085 66.5806 99.5806C65.4085 100.753 64.75 102.342 64.75 104Z" stroke="#27292E"/>
<path d="M67.25 99.4441C67.7377 99.8882 68.7422 101.102 68.8593 102.405C68.9687 103.622 69.7723 104.612 71 104.625C71.4718 104.63 71.9489 104.289 71.9478 103.818C71.9474 103.672 71.9233 103.522 71.8856 103.385C71.8332 103.194 71.8286 102.975 71.9375 102.75C72.3187 101.964 73.0684 101.753 73.6624 101.326C73.9259 101.137 74.1662 100.937 74.2722 100.776C74.5648 100.332 74.8574 99.4441 74.7111 99" stroke="#27292E"/>
<path d="M77.25 104.625C77.0441 105.207 76.8984 106.734 74.5739 106.759C74.5739 106.759 72.5154 106.759 71.8978 107.922C71.4037 108.853 71.6919 109.862 71.8978 110.25" stroke="#27292E"/>
<path d="M58 172C58 166.477 62.4772 162 68 162H86V198H68C62.4772 198 58 193.523 58 188V172Z" fill="#86888E"/>
<path d="M65.75 180C65.75 181.658 66.4085 183.247 67.5806 184.419C68.7527 185.592 70.3424 186.25 72 186.25C73.6576 186.25 75.2473 185.592 76.4194 184.419C77.5915 183.247 78.25 181.658 78.25 180C78.25 178.342 77.5915 176.753 76.4194 175.581C75.2473 174.408 73.6576 173.75 72 173.75C70.3424 173.75 68.7527 174.408 67.5806 175.581C66.4085 176.753 65.75 178.342 65.75 180Z" stroke="#27292E"/>
<path d="M68.25 175.444C68.7377 175.888 69.7422 177.102 69.8593 178.405C69.9687 179.622 70.7723 180.612 72 180.625C72.4718 180.63 72.9489 180.289 72.9478 179.818C72.9474 179.672 72.9233 179.522 72.8856 179.385C72.8332 179.194 72.8286 178.975 72.9375 178.75C73.3187 177.964 74.0684 177.753 74.6624 177.326C74.9259 177.137 75.1662 176.937 75.2722 176.776C75.5648 176.332 75.8574 175.444 75.7111 175" stroke="#27292E"/>
<path d="M78.25 180.625C78.0441 181.207 77.8984 182.734 75.5739 182.759C75.5739 182.759 73.5154 182.759 72.8978 183.922C72.4037 184.853 72.6919 185.862 72.8978 186.25" stroke="#27292E"/>
<rect x="52.5" y="101.5" width="8" height="8" rx="1.5" fill="#86888E" stroke="#27292E"/>
<rect x="52.5" y="177.5" width="8" height="8" rx="1.5" fill="#86888E" stroke="#27292E"/>
<rect x="396.5" y="100.5" width="8" height="8" rx="1.5" fill="#86888E" stroke="#313337"/>
<rect x="396.5" y="177.5" width="8" height="8" rx="1.5" fill="#86888E" stroke="#313337"/>
<line x1="52" y1="28.5" y2="28.5" stroke="#86888E"/>
<line x1="458" y1="28.5" x2="405" y2="28.5" stroke="#86888E"/>
<line x1="254" y1="29.5" x2="239" y2="29.5" stroke="#86888E"/>
<line x1="254" y1="183.5" x2="233" y2="183.5" stroke="#86888E"/>
<line x1="254" y1="104.5" x2="197" y2="104.5" stroke="#86888E"/>
<path d="M57 21C57 15.4772 61.4772 11 67 11H85V47H67C61.4772 47 57 42.5228 57 37V21Z" fill="#86888E"/>
<path d="M64.75 29C64.75 30.6576 65.4085 32.2473 66.5806 33.4194C67.7527 34.5915 69.3424 35.25 71 35.25C72.6576 35.25 74.2473 34.5915 75.4194 33.4194C76.5915 32.2473 77.25 30.6576 77.25 29C77.25 27.3424 76.5915 25.7527 75.4194 24.5806C74.2473 23.4085 72.6576 22.75 71 22.75C69.3424 22.75 67.7527 23.4085 66.5806 24.5806C65.4085 25.7527 64.75 27.3424 64.75 29Z" stroke="#27292E"/>
<path d="M67.25 24.4441C67.7377 24.8882 68.7422 26.102 68.8593 27.4046C68.9687 28.6222 69.7723 29.6116 71 29.625C71.4718 29.6301 71.9489 29.2893 71.9478 28.8175C71.9474 28.6716 71.9233 28.5224 71.8856 28.3852C71.8332 28.1943 71.8286 27.9747 71.9375 27.75C72.3187 26.9641 73.0684 26.753 73.6624 26.3262C73.9259 26.1369 74.1662 25.9372 74.2722 25.7763C74.5648 25.3322 74.8574 24.4441 74.7111 24" stroke="#27292E"/>
<path d="M77.25 29.625C77.0441 30.2069 76.8984 31.7344 74.5739 31.7586C74.5739 31.7586 72.5154 31.7586 71.8978 32.9224C71.4037 33.8534 71.6919 34.8621 71.8978 35.25" stroke="#27292E"/>
<rect x="52.5" y="25.5" width="8" height="8" rx="1.5" fill="#86888E" stroke="#27292E"/>
<path d="M52.03 105.5V105.5C48.6997 105.5 46 102.8 46 99.47V77C46 71.4772 50.4772 67 56 67H237C242.523 67 247 62.5228 247 57V36.535C247 32.6497 243.85 29.5 239.965 29.5V29.5" stroke="#86888E"/>
<path d="M52.4586 182V182C48.8916 182 46 179.108 46 175.541V153.5C46 147.977 50.4772 143.5 56 143.5H205C210.523 143.5 215 139.023 215 133.5V111.542C215 107.653 211.847 104.5 207.958 104.5V104.5" stroke="#86888E"/>
<defs>
<filter id="filter0_d_2654_27027" x="249" y="44" width="46" height="46" filterUnits="userSpaceOnUse" color-interpolation-filters="sRGB">
<feFlood flood-opacity="0" result="BackgroundImageFix"/>
<feColorMatrix in="SourceAlpha" type="matrix" values="0 0 0 0 0 0 0 0 0 0 0 0 0 0 0 0 0 0 127 0" result="hardAlpha"/>
<feOffset dy="10"/>
<feGaussianBlur stdDeviation="10"/>
<feComposite in2="hardAlpha" operator="out"/>
<feColorMatrix type="matrix" values="0 0 0 0 0 0 0 0 0 0 0 0 0 0 0 0 0 0 0.5 0"/>
<feBlend mode="normal" in2="BackgroundImageFix" result="effect1_dropShadow_2654_27027"/>
<feBlend mode="normal" in="SourceGraphic" in2="effect1_dropShadow_2654_27027" result="shape"/>
</filter>
<filter id="filter1_d_2654_27027" x="248" y="120" width="46" height="46" filterUnits="userSpaceOnUse" color-interpolation-filters="sRGB">
<feFlood flood-opacity="0" result="BackgroundImageFix"/>
<feColorMatrix in="SourceAlpha" type="matrix" values="0 0 0 0 0 0 0 0 0 0 0 0 0 0 0 0 0 0 127 0" result="hardAlpha"/>
<feOffset dy="10"/>
<feGaussianBlur stdDeviation="10"/>
<feComposite in2="hardAlpha" operator="out"/>
<feColorMatrix type="matrix" values="0 0 0 0 0 0 0 0 0 0 0 0 0 0 0 0 0 0 0.5 0"/>
<feBlend mode="normal" in2="BackgroundImageFix" result="effect1_dropShadow_2654_27027"/>
<feBlend mode="normal" in="SourceGraphic" in2="effect1_dropShadow_2654_27027" result="shape"/>
</filter>
<filter id="filter2_d_2654_27027" x="248" y="196" width="46" height="46" filterUnits="userSpaceOnUse" color-interpolation-filters="sRGB">
<feFlood flood-opacity="0" result="BackgroundImageFix"/>
<feColorMatrix in="SourceAlpha" type="matrix" values="0 0 0 0 0 0 0 0 0 0 0 0 0 0 0 0 0 0 127 0" result="hardAlpha"/>
<feOffset dy="10"/>
<feGaussianBlur stdDeviation="10"/>
<feComposite in2="hardAlpha" operator="out"/>
<feColorMatrix type="matrix" values="0 0 0 0 0 0 0 0 0 0 0 0 0 0 0 0 0 0 0.5 0"/>
<feBlend mode="normal" in2="BackgroundImageFix" result="effect1_dropShadow_2654_27027"/>
<feBlend mode="normal" in="SourceGraphic" in2="effect1_dropShadow_2654_27027" result="shape"/>
</filter>
<filter id="filter3_d_2654_27027" x="37" y="0" width="218" height="76" filterUnits="userSpaceOnUse" color-interpolation-filters="sRGB">
<feFlood flood-opacity="0" result="BackgroundImageFix"/>
<feColorMatrix in="SourceAlpha" type="matrix" values="0 0 0 0 0 0 0 0 0 0 0 0 0 0 0 0 0 0 127 0" result="hardAlpha"/>
<feOffset dy="10"/>
<feGaussianBlur stdDeviation="10"/>
<feComposite in2="hardAlpha" operator="out"/>
<feColorMatrix type="matrix" values="0 0 0 0 0 0 0 0 0 0 0 0 0 0 0 0 0 0 0.5 0"/>
<feBlend mode="normal" in2="BackgroundImageFix" result="effect1_dropShadow_2654_27027"/>
<feBlend mode="normal" in="SourceGraphic" in2="effect1_dropShadow_2654_27027" result="shape"/>
</filter>
<filter id="filter4_d_2654_27027" x="37" y="76" width="176" height="76" filterUnits="userSpaceOnUse" color-interpolation-filters="sRGB">
<feFlood flood-opacity="0" result="BackgroundImageFix"/>
<feColorMatrix in="SourceAlpha" type="matrix" values="0 0 0 0 0 0 0 0 0 0 0 0 0 0 0 0 0 0 127 0" result="hardAlpha"/>
<feOffset dy="10"/>
<feGaussianBlur stdDeviation="10"/>
<feComposite in2="hardAlpha" operator="out"/>
<feColorMatrix type="matrix" values="0 0 0 0 0 0 0 0 0 0 0 0 0 0 0 0 0 0 0.5 0"/>
<feBlend mode="normal" in2="BackgroundImageFix" result="effect1_dropShadow_2654_27027"/>
<feBlend mode="normal" in="SourceGraphic" in2="effect1_dropShadow_2654_27027" result="shape"/>
</filter>
<filter id="filter5_d_2654_27027" x="37" y="152" width="212" height="76" filterUnits="userSpaceOnUse" color-interpolation-filters="sRGB">
<feFlood flood-opacity="0" result="BackgroundImageFix"/>
<feColorMatrix in="SourceAlpha" type="matrix" values="0 0 0 0 0 0 0 0 0 0 0 0 0 0 0 0 0 0 127 0" result="hardAlpha"/>
<feOffset dy="10"/>
<feGaussianBlur stdDeviation="10"/>
<feComposite in2="hardAlpha" operator="out"/>
<feColorMatrix type="matrix" values="0 0 0 0 0 0 0 0 0 0 0 0 0 0 0 0 0 0 0.5 0"/>
<feBlend mode="normal" in2="BackgroundImageFix" result="effect1_dropShadow_2654_27027"/>
<feBlend mode="normal" in="SourceGraphic" in2="effect1_dropShadow_2654_27027" result="shape"/>
</filter>
<filter id="filter6_d_2654_27027" x="238" y="0" width="183" height="76" filterUnits="userSpaceOnUse" color-interpolation-filters="sRGB">
<feFlood flood-opacity="0" result="BackgroundImageFix"/>
<feColorMatrix in="SourceAlpha" type="matrix" values="0 0 0 0 0 0 0 0 0 0 0 0 0 0 0 0 0 0 127 0" result="hardAlpha"/>
<feOffset dy="10"/>
<feGaussianBlur stdDeviation="10"/>
<feComposite in2="hardAlpha" operator="out"/>
<feColorMatrix type="matrix" values="0 0 0 0 0 0 0 0 0 0 0 0 0 0 0 0 0 0 0.5 0"/>
<feBlend mode="normal" in2="BackgroundImageFix" result="effect1_dropShadow_2654_27027"/>
<feBlend mode="normal" in="SourceGraphic" in2="effect1_dropShadow_2654_27027" result="shape"/>
</filter>
<filter id="filter7_d_2654_27027" x="238" y="76" width="183" height="76" filterUnits="userSpaceOnUse" color-interpolation-filters="sRGB">
<feFlood flood-opacity="0" result="BackgroundImageFix"/>
<feColorMatrix in="SourceAlpha" type="matrix" values="0 0 0 0 0 0 0 0 0 0 0 0 0 0 0 0 0 0 127 0" result="hardAlpha"/>
<feOffset dy="10"/>
<feGaussianBlur stdDeviation="10"/>
<feComposite in2="hardAlpha" operator="out"/>
<feColorMatrix type="matrix" values="0 0 0 0 0 0 0 0 0 0 0 0 0 0 0 0 0 0 0.5 0"/>
<feBlend mode="normal" in2="BackgroundImageFix" result="effect1_dropShadow_2654_27027"/>
<feBlend mode="normal" in="SourceGraphic" in2="effect1_dropShadow_2654_27027" result="shape"/>
</filter>
<filter id="filter8_d_2654_27027" x="238" y="152" width="183" height="76" filterUnits="userSpaceOnUse" color-interpolation-filters="sRGB">
<feFlood flood-opacity="0" result="BackgroundImageFix"/>
<feColorMatrix in="SourceAlpha" type="matrix" values="0 0 0 0 0 0 0 0 0 0 0 0 0 0 0 0 0 0 127 0" result="hardAlpha"/>
<feOffset dy="10"/>
<feGaussianBlur stdDeviation="10"/>
<feComposite in2="hardAlpha" operator="out"/>
<feColorMatrix type="matrix" values="0 0 0 0 0 0 0 0 0 0 0 0 0 0 0 0 0 0 0.5 0"/>
<feBlend mode="normal" in2="BackgroundImageFix" result="effect1_dropShadow_2654_27027"/>
<feBlend mode="normal" in="SourceGraphic" in2="effect1_dropShadow_2654_27027" result="shape"/>
</filter>
</defs>
</svg>
