<svg width="458" height="514" viewBox="0 0 458 514" fill="none" xmlns="http://www.w3.org/2000/svg">
<g filter="url(#filter0_f_2483_54952)">
<ellipse cx="218" cy="312" rx="177" ry="63" fill="url(#paint0_linear_2483_54952)"/>
</g>
<g filter="url(#filter1_d_2483_54952)">
<rect x="269" y="242" width="6" height="6" rx="1" fill="#86888E"/>
</g>
<g filter="url(#filter2_d_2483_54952)">
<rect x="268" y="318" width="6" height="6" rx="1" fill="#86888E"/>
</g>
<g filter="url(#filter3_d_2483_54952)">
<rect x="268" y="394" width="6" height="6" rx="1" fill="#86888E"/>
</g>
<path d="M283.104 248L285.288 242.976H282.216V242.4H285.976V242.904L283.816 248H283.104ZM287.537 248L289.721 242.976H286.649V242.4H290.409V242.904L288.249 248H287.537ZM293.08 248.096C292.728 248.096 292.427 248.029 292.176 247.896C291.925 247.757 291.725 247.573 291.576 247.344C291.432 247.109 291.344 246.853 291.312 246.576H291.936C291.989 246.875 292.117 247.107 292.32 247.272C292.523 247.432 292.779 247.512 293.088 247.512C293.371 247.512 293.621 247.427 293.84 247.256C294.059 247.085 294.235 246.827 294.368 246.48C294.507 246.128 294.584 245.683 294.6 245.144C294.6 245.128 294.6 245.112 294.6 245.096C294.6 245.08 294.6 245.064 294.6 245.048C294.52 245.213 294.403 245.368 294.248 245.512C294.093 245.656 293.909 245.771 293.696 245.856C293.488 245.941 293.253 245.984 292.992 245.984C292.677 245.984 292.379 245.909 292.096 245.76C291.819 245.611 291.592 245.403 291.416 245.136C291.245 244.864 291.16 244.547 291.16 244.184C291.16 243.869 291.237 243.568 291.392 243.28C291.547 242.992 291.768 242.757 292.056 242.576C292.344 242.395 292.685 242.304 293.08 242.304C293.48 242.304 293.819 242.381 294.096 242.536C294.373 242.685 294.595 242.888 294.76 243.144C294.931 243.395 295.053 243.68 295.128 244C295.203 244.32 295.24 244.645 295.24 244.976C295.24 245.589 295.155 246.131 294.984 246.6C294.819 247.069 294.573 247.437 294.248 247.704C293.928 247.965 293.539 248.096 293.08 248.096ZM293.128 245.4C293.373 245.4 293.595 245.344 293.792 245.232C293.989 245.12 294.144 244.968 294.256 244.776C294.373 244.584 294.432 244.373 294.432 244.144C294.432 243.899 294.373 243.683 294.256 243.496C294.144 243.309 293.989 243.163 293.792 243.056C293.595 242.949 293.373 242.896 293.128 242.896C292.883 242.896 292.661 242.952 292.464 243.064C292.272 243.171 292.12 243.317 292.008 243.504C291.896 243.691 291.84 243.907 291.84 244.152C291.84 244.403 291.896 244.621 292.008 244.808C292.12 244.995 292.272 245.141 292.464 245.248C292.661 245.349 292.883 245.4 293.128 245.4ZM296.923 248V243.152L295.963 243.392V242.912L297.147 242.4H297.603V248H296.923ZM300.967 248.096C300.561 248.096 300.22 248.021 299.943 247.872C299.665 247.717 299.444 247.515 299.279 247.264C299.113 247.008 298.991 246.72 298.911 246.4C298.836 246.08 298.799 245.755 298.799 245.424C298.799 244.805 298.884 244.264 299.055 243.8C299.225 243.331 299.471 242.965 299.791 242.704C300.116 242.437 300.505 242.304 300.959 242.304C301.311 242.304 301.612 242.373 301.863 242.512C302.119 242.645 302.321 242.827 302.471 243.056C302.62 243.285 302.711 243.541 302.743 243.824H302.119C302.065 243.525 301.935 243.296 301.727 243.136C301.524 242.971 301.265 242.888 300.951 242.888C300.673 242.888 300.423 242.976 300.199 243.152C299.975 243.323 299.796 243.587 299.663 243.944C299.535 244.296 299.46 244.747 299.439 245.296C299.439 245.301 299.439 245.309 299.439 245.32C299.439 245.331 299.439 245.341 299.439 245.352C299.524 245.187 299.641 245.032 299.791 244.888C299.945 244.744 300.129 244.629 300.343 244.544C300.556 244.459 300.793 244.416 301.055 244.416C301.369 244.416 301.665 244.491 301.943 244.64C302.22 244.789 302.444 245 302.615 245.272C302.791 245.539 302.879 245.853 302.879 246.216C302.879 246.531 302.801 246.832 302.647 247.12C302.497 247.408 302.279 247.643 301.991 247.824C301.703 248.005 301.361 248.096 300.967 248.096ZM300.919 247.504C301.164 247.504 301.383 247.451 301.575 247.344C301.772 247.232 301.924 247.083 302.031 246.896C302.143 246.704 302.199 246.488 302.199 246.248C302.199 245.997 302.143 245.779 302.031 245.592C301.924 245.405 301.772 245.261 301.575 245.16C301.383 245.053 301.164 245 300.919 245C300.673 245 300.452 245.056 300.255 245.168C300.057 245.28 299.9 245.432 299.783 245.624C299.671 245.811 299.615 246.021 299.615 246.256C299.615 246.496 299.671 246.712 299.783 246.904C299.9 247.091 300.057 247.237 300.255 247.344C300.452 247.451 300.673 247.504 300.919 247.504Z" fill="#EEEFF1"/>
<path d="M281.512 324V323.528C281.891 323.229 282.251 322.928 282.592 322.624C282.939 322.32 283.245 322.019 283.512 321.72C283.779 321.416 283.987 321.12 284.136 320.832C284.291 320.544 284.368 320.267 284.368 320C284.368 319.803 284.333 319.621 284.264 319.456C284.195 319.285 284.083 319.147 283.928 319.04C283.779 318.933 283.576 318.88 283.32 318.88C283.069 318.88 282.861 318.936 282.696 319.048C282.531 319.155 282.405 319.299 282.32 319.48C282.24 319.656 282.2 319.851 282.2 320.064H281.552C281.557 319.696 281.635 319.381 281.784 319.12C281.939 318.853 282.149 318.651 282.416 318.512C282.683 318.373 282.987 318.304 283.328 318.304C283.664 318.304 283.96 318.368 284.216 318.496C284.472 318.619 284.672 318.803 284.816 319.048C284.965 319.293 285.04 319.603 285.04 319.976C285.04 320.237 284.984 320.499 284.872 320.76C284.765 321.021 284.621 321.277 284.44 321.528C284.259 321.773 284.056 322.011 283.832 322.24C283.613 322.469 283.387 322.685 283.152 322.888C282.923 323.091 282.707 323.275 282.504 323.44H285.232V324H281.512ZM288.435 324.096C287.945 324.096 287.521 323.976 287.163 323.736C286.811 323.491 286.542 323.152 286.355 322.72C286.169 322.283 286.075 321.776 286.075 321.2C286.075 320.624 286.169 320.12 286.355 319.688C286.542 319.251 286.811 318.912 287.163 318.672C287.521 318.427 287.945 318.304 288.435 318.304C288.926 318.304 289.345 318.427 289.691 318.672C290.043 318.912 290.313 319.251 290.499 319.688C290.686 320.12 290.779 320.624 290.779 321.2C290.779 321.776 290.686 322.283 290.499 322.72C290.313 323.152 290.043 323.491 289.691 323.736C289.345 323.976 288.926 324.096 288.435 324.096ZM288.427 323.504C288.747 323.504 289.033 323.413 289.283 323.232C289.534 323.045 289.731 322.781 289.875 322.44C290.019 322.093 290.091 321.68 290.091 321.2C290.091 320.72 290.019 320.309 289.875 319.968C289.731 319.621 289.534 319.357 289.283 319.176C289.033 318.995 288.747 318.904 288.427 318.904C288.107 318.904 287.819 318.995 287.563 319.176C287.313 319.357 287.115 319.621 286.971 319.968C286.833 320.309 286.763 320.72 286.763 321.2C286.763 321.68 286.833 322.093 286.971 322.44C287.115 322.781 287.313 323.045 287.563 323.232C287.819 323.413 288.107 323.504 288.427 323.504ZM292.315 324L294.499 318.976H291.427V318.4H295.187V318.904L293.027 324H292.315ZM297.943 324.096C297.581 324.096 297.255 324.029 296.967 323.896C296.679 323.757 296.45 323.568 296.279 323.328C296.109 323.083 296.023 322.8 296.023 322.48C296.023 322.251 296.069 322.037 296.159 321.84C296.25 321.643 296.375 321.472 296.535 321.328C296.701 321.179 296.89 321.075 297.103 321.016C296.805 320.909 296.573 320.744 296.407 320.52C296.247 320.296 296.167 320.053 296.167 319.792C296.167 319.515 296.239 319.264 296.383 319.04C296.527 318.816 296.73 318.637 296.991 318.504C297.258 318.371 297.575 318.304 297.943 318.304C298.317 318.304 298.634 318.371 298.895 318.504C299.162 318.637 299.365 318.816 299.503 319.04C299.647 319.264 299.719 319.515 299.719 319.792C299.719 320.053 299.637 320.296 299.471 320.52C299.311 320.744 299.082 320.909 298.783 321.016C299.002 321.075 299.191 321.179 299.351 321.328C299.517 321.472 299.642 321.643 299.727 321.84C299.818 322.037 299.863 322.251 299.863 322.48C299.863 322.8 299.778 323.083 299.607 323.328C299.442 323.568 299.213 323.757 298.919 323.896C298.631 324.029 298.306 324.096 297.943 324.096ZM297.943 323.504C298.365 323.504 298.677 323.408 298.879 323.216C299.087 323.019 299.191 322.76 299.191 322.44C299.191 322.077 299.077 321.803 298.847 321.616C298.623 321.429 298.322 321.336 297.943 321.336C297.565 321.336 297.261 321.429 297.031 321.616C296.807 321.803 296.695 322.077 296.695 322.44C296.695 322.76 296.799 323.019 297.007 323.216C297.215 323.408 297.527 323.504 297.943 323.504ZM297.943 320.776C298.279 320.776 298.546 320.688 298.743 320.512C298.941 320.336 299.039 320.109 299.039 319.832C299.039 319.517 298.941 319.28 298.743 319.12C298.551 318.96 298.285 318.88 297.943 318.88C297.607 318.88 297.341 318.96 297.143 319.12C296.951 319.28 296.855 319.517 296.855 319.832C296.855 320.109 296.951 320.336 297.143 320.512C297.341 320.688 297.607 320.776 297.943 320.776ZM303.674 324V322.8H300.834V322.28L303.554 318.4H304.338V322.208H305.17V322.8H304.338V324H303.674ZM301.578 322.208H303.706V319.144L301.578 322.208ZM308.166 324.096C307.76 324.096 307.419 324.021 307.142 323.872C306.864 323.717 306.643 323.515 306.478 323.264C306.312 323.008 306.19 322.72 306.11 322.4C306.035 322.08 305.998 321.755 305.998 321.424C305.998 320.805 306.083 320.264 306.254 319.8C306.424 319.331 306.67 318.965 306.99 318.704C307.315 318.437 307.704 318.304 308.158 318.304C308.51 318.304 308.811 318.373 309.062 318.512C309.318 318.645 309.52 318.827 309.67 319.056C309.819 319.285 309.91 319.541 309.942 319.824H309.318C309.264 319.525 309.134 319.296 308.926 319.136C308.723 318.971 308.464 318.888 308.15 318.888C307.872 318.888 307.622 318.976 307.398 319.152C307.174 319.323 306.995 319.587 306.862 319.944C306.734 320.296 306.659 320.747 306.638 321.296C306.638 321.301 306.638 321.309 306.638 321.32C306.638 321.331 306.638 321.341 306.638 321.352C306.723 321.187 306.84 321.032 306.99 320.888C307.144 320.744 307.328 320.629 307.542 320.544C307.755 320.459 307.992 320.416 308.254 320.416C308.568 320.416 308.864 320.491 309.142 320.64C309.419 320.789 309.643 321 309.814 321.272C309.99 321.539 310.078 321.853 310.078 322.216C310.078 322.531 310 322.832 309.846 323.12C309.696 323.408 309.478 323.643 309.19 323.824C308.902 324.005 308.56 324.096 308.166 324.096ZM308.118 323.504C308.363 323.504 308.582 323.451 308.774 323.344C308.971 323.232 309.123 323.083 309.23 322.896C309.342 322.704 309.398 322.488 309.398 322.248C309.398 321.997 309.342 321.779 309.23 321.592C309.123 321.405 308.971 321.261 308.774 321.16C308.582 321.053 308.363 321 308.118 321C307.872 321 307.651 321.056 307.454 321.168C307.256 321.28 307.099 321.432 306.982 321.624C306.87 321.811 306.814 322.021 306.814 322.256C306.814 322.496 306.87 322.712 306.982 322.904C307.099 323.091 307.256 323.237 307.454 323.344C307.651 323.451 307.872 323.504 308.118 323.504Z" fill="#EEEFF1"/>
<path d="M282.216 400V395.152L281.256 395.392V394.912L282.44 394.4H282.896V400H282.216ZM284.756 400L286.94 394.976H283.868V394.4H287.628V394.904L285.468 400H284.756ZM290.753 400V398.8H287.913V398.28L290.633 394.4H291.417V398.208H292.249V398.8H291.417V400H290.753ZM288.657 398.208H290.785V395.144L288.657 398.208ZM293.74 400L295.924 394.976H292.852V394.4H296.612V394.904L294.452 400H293.74Z" fill="#EEEFF1"/>
<g filter="url(#filter4_d_2483_54952)">
<rect x="57" y="198" width="178" height="36" rx="10" fill="#0C0D0E" shape-rendering="crispEdges"/>
<rect x="57.5" y="198.5" width="177" height="35" rx="9.5" stroke="#86888E" shape-rendering="crispEdges"/>
<path d="M68.75 216C68.75 217.658 69.4085 219.247 70.5806 220.419C71.7527 221.592 73.3424 222.25 75 222.25C76.6576 222.25 78.2473 221.592 79.4194 220.419C80.5915 219.247 81.25 217.658 81.25 216C81.25 214.342 80.5915 212.753 79.4194 211.581C78.2473 210.408 76.6576 209.75 75 209.75C73.3424 209.75 71.7527 210.408 70.5806 211.581C69.4085 212.753 68.75 214.342 68.75 216Z" stroke="#86888E"/>
<path d="M71.25 211.444C71.7377 211.888 72.7422 213.102 72.8593 214.405C72.9687 215.622 73.7723 216.612 75 216.625C75.4718 216.63 75.9489 216.289 75.9478 215.818C75.9474 215.672 75.9233 215.522 75.8856 215.385C75.8332 215.194 75.8286 214.975 75.9375 214.75C76.3187 213.964 77.0684 213.753 77.6624 213.326C77.9259 213.137 78.1662 212.937 78.2722 212.776C78.5648 212.332 78.8574 211.444 78.7111 211" stroke="#86888E"/>
<path d="M81.25 216.625C81.0441 217.207 80.8984 218.734 78.5739 218.759C78.5739 218.759 76.5154 218.759 75.8978 219.922C75.4037 220.853 75.6919 221.862 75.8978 222.25" stroke="#86888E"/>
<path d="M93.434 221L95.156 211.2H96.332L100.168 219.124L101.554 211.2H102.73L101.008 221H99.832L96.01 213.076L94.61 221H93.434ZM106.417 221.168C105.829 221.168 105.316 221.037 104.877 220.776C104.448 220.515 104.121 220.146 103.897 219.67C103.683 219.194 103.589 218.639 103.617 218.004C103.645 217.397 103.767 216.842 103.981 216.338C104.196 215.825 104.485 215.377 104.849 214.994C105.223 214.611 105.652 214.313 106.137 214.098C106.623 213.883 107.15 213.776 107.719 213.776C108.354 213.776 108.877 213.907 109.287 214.168C109.707 214.429 110.015 214.779 110.211 215.218C110.407 215.647 110.491 216.123 110.463 216.646C110.454 216.805 110.431 216.987 110.393 217.192C110.365 217.388 110.333 217.57 110.295 217.738H104.527L104.681 216.828H109.301C109.367 216.389 109.329 216.021 109.189 215.722C109.049 215.414 108.839 215.181 108.559 215.022C108.279 214.854 107.943 214.77 107.551 214.77C107.15 214.77 106.763 214.863 106.389 215.05C106.025 215.227 105.708 215.493 105.437 215.848C105.167 216.193 104.985 216.627 104.891 217.15L104.821 217.542C104.719 218.065 104.728 218.527 104.849 218.928C104.971 219.329 105.181 219.637 105.479 219.852C105.787 220.067 106.161 220.174 106.599 220.174C107.094 220.174 107.519 220.067 107.873 219.852C108.237 219.628 108.522 219.329 108.727 218.956H109.889C109.693 219.376 109.427 219.754 109.091 220.09C108.765 220.426 108.373 220.692 107.915 220.888C107.467 221.075 106.968 221.168 106.417 221.168ZM112.839 221L111.999 213.944H113.189L113.735 219.894H113.511L116.339 213.944H117.669L118.383 219.88L118.159 219.894L120.819 213.944H121.995L118.691 221H117.487L116.745 214.784H116.969L114.029 221H112.839ZM130.912 221.168C130.053 221.168 129.33 220.995 128.742 220.65C128.154 220.295 127.715 219.801 127.426 219.166C127.136 218.531 127.015 217.794 127.062 216.954C127.099 216.114 127.262 215.335 127.552 214.616C127.85 213.888 128.252 213.258 128.756 212.726C129.26 212.185 129.843 211.769 130.506 211.48C131.168 211.181 131.887 211.032 132.662 211.032C133.782 211.032 134.645 211.298 135.252 211.83C135.868 212.362 136.185 213.113 136.204 214.084H134.888C134.869 213.468 134.659 212.978 134.258 212.614C133.856 212.25 133.268 212.068 132.494 212.068C131.906 212.068 131.364 212.189 130.87 212.432C130.375 212.665 129.936 213.001 129.554 213.44C129.18 213.869 128.882 214.378 128.658 214.966C128.443 215.554 128.322 216.193 128.294 216.884C128.256 217.565 128.34 218.149 128.546 218.634C128.76 219.11 129.082 219.479 129.512 219.74C129.941 220.001 130.464 220.132 131.08 220.132C131.864 220.132 132.512 219.955 133.026 219.6C133.548 219.245 133.931 218.765 134.174 218.158H135.49C135.247 218.783 134.911 219.325 134.482 219.782C134.052 220.23 133.534 220.575 132.928 220.818C132.33 221.051 131.658 221.168 130.912 221.168ZM136.998 221L138.72 211.2H141.884C142.575 211.2 143.13 211.317 143.55 211.55C143.979 211.783 144.287 212.096 144.474 212.488C144.661 212.871 144.74 213.295 144.712 213.762C144.693 214.397 144.521 214.957 144.194 215.442C143.867 215.918 143.415 216.291 142.836 216.562C142.257 216.823 141.585 216.954 140.82 216.954H138.888L138.174 221H136.998ZM142.276 221L140.89 216.618H142.122L143.564 221H142.276ZM139.056 216.03H140.96C141.725 216.03 142.332 215.839 142.78 215.456C143.237 215.073 143.48 214.541 143.508 213.86C143.536 213.384 143.401 212.987 143.102 212.67C142.813 212.353 142.318 212.194 141.618 212.194H139.728L139.056 216.03ZM145.604 221L147.34 211.2H148.698L150.966 218.046L155.628 211.2H157.014L155.292 221H154.116L155.474 213.3L151.134 219.628H150.252L148.138 213.328L146.78 221H145.604ZM161.271 221L166.619 211.2H167.865L169.727 221H168.495L166.983 212.614L162.517 221H161.271ZM163.133 218.48L163.623 217.542H168.495L168.649 218.48H163.133ZM174.311 221.168C173.723 221.168 173.205 221.037 172.757 220.776C172.309 220.505 171.969 220.132 171.735 219.656C171.511 219.18 171.413 218.625 171.441 217.99C171.469 217.374 171.595 216.809 171.819 216.296C172.043 215.783 172.347 215.339 172.729 214.966C173.112 214.593 173.546 214.303 174.031 214.098C174.526 213.883 175.053 213.776 175.613 213.776C176.453 213.776 177.116 214 177.601 214.448C178.096 214.887 178.353 215.479 178.371 216.226H177.167C177.158 215.75 176.985 215.391 176.649 215.148C176.323 214.905 175.921 214.784 175.445 214.784C174.951 214.784 174.498 214.915 174.087 215.176C173.677 215.437 173.341 215.801 173.079 216.268C172.827 216.725 172.687 217.267 172.659 217.892C172.641 218.256 172.673 218.583 172.757 218.872C172.841 219.152 172.967 219.39 173.135 219.586C173.303 219.773 173.499 219.917 173.723 220.02C173.957 220.123 174.213 220.174 174.493 220.174C174.811 220.174 175.114 220.118 175.403 220.006C175.702 219.894 175.968 219.731 176.201 219.516C176.435 219.301 176.612 219.035 176.733 218.718H177.937C177.76 219.194 177.494 219.619 177.139 219.992C176.785 220.356 176.365 220.645 175.879 220.86C175.394 221.065 174.871 221.168 174.311 221.168ZM182.224 221C181.748 221 181.366 220.925 181.076 220.776C180.787 220.627 180.591 220.393 180.488 220.076C180.395 219.759 180.39 219.353 180.474 218.858L181.174 214.938H180.04L180.222 213.944H181.356L181.804 212.236H182.84L182.532 213.944H184.59L184.408 214.938H182.35L181.65 218.858C181.576 219.297 181.618 219.595 181.776 219.754C181.935 219.913 182.215 219.992 182.616 219.992H183.512L183.33 221H182.224ZM185.273 221L186.519 213.944H187.695L186.449 221H185.273ZM187.513 212.446C187.279 212.446 187.088 212.371 186.939 212.222C186.789 212.073 186.71 211.881 186.701 211.648C186.701 211.415 186.775 211.223 186.925 211.074C187.083 210.925 187.279 210.85 187.513 210.85C187.737 210.85 187.928 210.925 188.087 211.074C188.245 211.214 188.325 211.405 188.325 211.648C188.334 211.881 188.255 212.073 188.087 212.222C187.928 212.371 187.737 212.446 187.513 212.446ZM190.932 221L189.42 213.944H190.638L191.814 219.88L195.076 213.944H196.308L192.304 221H190.932ZM196.77 221L198.016 213.944H199.192L197.946 221H196.77ZM199.01 212.446C198.777 212.446 198.586 212.371 198.436 212.222C198.287 212.073 198.208 211.881 198.198 211.648C198.198 211.415 198.273 211.223 198.422 211.074C198.581 210.925 198.777 210.85 199.01 210.85C199.234 210.85 199.426 210.925 199.584 211.074C199.743 211.214 199.822 211.405 199.822 211.648C199.832 211.881 199.752 212.073 199.584 212.222C199.426 212.371 199.234 212.446 199.01 212.446ZM203.059 221C202.583 221 202.201 220.925 201.911 220.776C201.622 220.627 201.426 220.393 201.323 220.076C201.23 219.759 201.225 219.353 201.309 218.858L202.009 214.938H200.875L201.057 213.944H202.191L202.639 212.236H203.675L203.367 213.944H205.425L205.243 214.938H203.185L202.485 218.858C202.411 219.297 202.453 219.595 202.611 219.754C202.77 219.913 203.05 219.992 203.451 219.992H204.347L204.165 221H203.059ZM206.108 221L207.354 213.944H208.53L207.284 221H206.108ZM208.348 212.446C208.114 212.446 207.923 212.371 207.774 212.222C207.624 212.073 207.545 211.881 207.536 211.648C207.536 211.415 207.61 211.223 207.76 211.074C207.918 210.925 208.114 210.85 208.348 210.85C208.572 210.85 208.763 210.925 208.922 211.074C209.08 211.214 209.16 211.405 209.16 211.648C209.169 211.881 209.09 212.073 208.922 212.222C208.763 212.371 208.572 212.446 208.348 212.446ZM212.733 221.168C212.145 221.168 211.631 221.037 211.193 220.776C210.763 220.515 210.437 220.146 210.213 219.67C209.998 219.194 209.905 218.639 209.933 218.004C209.961 217.397 210.082 216.842 210.297 216.338C210.511 215.825 210.801 215.377 211.165 214.994C211.538 214.611 211.967 214.313 212.453 214.098C212.938 213.883 213.465 213.776 214.035 213.776C214.669 213.776 215.192 213.907 215.603 214.168C216.023 214.429 216.331 214.779 216.527 215.218C216.723 215.647 216.807 216.123 216.779 216.646C216.769 216.805 216.746 216.987 216.709 217.192C216.681 217.388 216.648 217.57 216.611 217.738H210.843L210.997 216.828H215.617C215.682 216.389 215.645 216.021 215.505 215.722C215.365 215.414 215.155 215.181 214.875 215.022C214.595 214.854 214.259 214.77 213.867 214.77C213.465 214.77 213.078 214.863 212.705 215.05C212.341 215.227 212.023 215.493 211.753 215.848C211.482 216.193 211.3 216.627 211.207 217.15L211.137 217.542C211.034 218.065 211.043 218.527 211.165 218.928C211.286 219.329 211.496 219.637 211.795 219.852C212.103 220.067 212.476 220.174 212.915 220.174C213.409 220.174 213.834 220.067 214.189 219.852C214.553 219.628 214.837 219.329 215.043 218.956H216.205C216.009 219.376 215.743 219.754 215.407 220.09C215.08 220.426 214.688 220.692 214.231 220.888C213.783 221.075 213.283 221.168 212.733 221.168ZM220.577 221.168C219.98 221.168 219.476 221.07 219.065 220.874C218.654 220.669 218.351 220.384 218.155 220.02C217.968 219.656 217.894 219.222 217.931 218.718H219.121C219.112 218.979 219.158 219.222 219.261 219.446C219.364 219.661 219.536 219.838 219.779 219.978C220.022 220.109 220.344 220.174 220.745 220.174C221.081 220.174 221.37 220.123 221.613 220.02C221.856 219.917 222.042 219.777 222.173 219.6C222.313 219.423 222.392 219.203 222.411 218.942C222.42 218.709 222.364 218.527 222.243 218.396C222.131 218.256 221.958 218.144 221.725 218.06C221.492 217.976 221.212 217.906 220.885 217.85C220.596 217.794 220.316 217.719 220.045 217.626C219.784 217.533 219.55 217.416 219.345 217.276C219.14 217.127 218.981 216.945 218.869 216.73C218.757 216.506 218.71 216.245 218.729 215.946C218.748 215.535 218.878 215.167 219.121 214.84C219.373 214.513 219.709 214.257 220.129 214.07C220.558 213.874 221.044 213.776 221.585 213.776C222.341 213.776 222.934 213.963 223.363 214.336C223.802 214.7 224.002 215.223 223.965 215.904H222.789C222.808 215.549 222.7 215.274 222.467 215.078C222.234 214.873 221.893 214.77 221.445 214.77C221.006 214.77 220.647 214.868 220.367 215.064C220.096 215.26 219.956 215.503 219.947 215.792C219.938 215.988 219.984 216.156 220.087 216.296C220.199 216.427 220.367 216.539 220.591 216.632C220.815 216.716 221.095 216.791 221.431 216.856C221.748 216.921 222.042 217.001 222.313 217.094C222.584 217.187 222.822 217.309 223.027 217.458C223.232 217.598 223.386 217.78 223.489 218.004C223.601 218.219 223.648 218.485 223.629 218.802C223.61 219.287 223.466 219.707 223.195 220.062C222.934 220.417 222.574 220.692 222.117 220.888C221.669 221.075 221.156 221.168 220.577 221.168Z" fill="#EEEFF1"/>
</g>
<g filter="url(#filter5_d_2483_54952)">
<rect x="57" y="274" width="136" height="36" rx="10" fill="#0C0D0E" shape-rendering="crispEdges"/>
<rect x="57.5" y="274.5" width="135" height="35" rx="9.5" stroke="#86888E" shape-rendering="crispEdges"/>
<path d="M68.75 292C68.75 293.658 69.4085 295.247 70.5806 296.419C71.7527 297.592 73.3424 298.25 75 298.25C76.6576 298.25 78.2473 297.592 79.4194 296.419C80.5915 295.247 81.25 293.658 81.25 292C81.25 290.342 80.5915 288.753 79.4194 287.581C78.2473 286.408 76.6576 285.75 75 285.75C73.3424 285.75 71.7527 286.408 70.5806 287.581C69.4085 288.753 68.75 290.342 68.75 292Z" stroke="#86888E"/>
<path d="M71.25 287.444C71.7377 287.888 72.7422 289.102 72.8593 290.405C72.9687 291.622 73.7723 292.612 75 292.625C75.4718 292.63 75.9489 292.289 75.9478 291.818C75.9474 291.672 75.9233 291.522 75.8856 291.385C75.8332 291.194 75.8286 290.975 75.9375 290.75C76.3187 289.964 77.0684 289.753 77.6624 289.326C77.9259 289.137 78.1662 288.937 78.2722 288.776C78.5648 288.332 78.8574 287.444 78.7111 287" stroke="#86888E"/>
<path d="M81.25 292.625C81.0441 293.207 80.8984 294.734 78.5739 294.759C78.5739 294.759 76.5154 294.759 75.8978 295.922C75.4037 296.853 75.6919 297.862 75.8978 298.25" stroke="#86888E"/>
<path d="M98.446 297L102.268 287.116H103.388L99.566 297H98.446ZM94.386 297L98.208 287.116H99.314L95.52 297H94.386ZM93.504 294.242L93.7 293.192H103.066L102.87 294.242H93.504ZM94.666 290.91L94.862 289.874H104.228L104.06 290.91H94.666ZM104.98 297L106.702 287.2H107.878L106.324 296.062H110.888L110.72 297H104.98ZM112.656 297L114.378 287.2H115.554L114 296.062H118.564L118.396 297H112.656ZM120.333 297L122.069 287.2H123.427L125.695 294.046L130.357 287.2H131.743L130.021 297H128.845L130.203 289.3L125.863 295.628H124.981L122.867 289.328L121.509 297H120.333ZM138.911 297L140.465 288.152H137.553L137.721 287.2H144.735L144.567 288.152H141.641L140.073 297H138.911ZM146.867 297.168C146.261 297.168 145.729 297.033 145.271 296.762C144.823 296.482 144.483 296.099 144.249 295.614C144.016 295.119 143.913 294.559 143.941 293.934C143.969 293.337 144.091 292.786 144.305 292.282C144.529 291.769 144.828 291.33 145.201 290.966C145.584 290.593 146.018 290.303 146.503 290.098C146.998 289.883 147.521 289.776 148.071 289.776C148.678 289.776 149.205 289.911 149.653 290.182C150.111 290.453 150.456 290.826 150.689 291.302C150.932 291.778 151.035 292.338 150.997 292.982C150.969 293.589 150.843 294.149 150.619 294.662C150.405 295.166 150.106 295.605 149.723 295.978C149.35 296.351 148.921 296.645 148.435 296.86C147.95 297.065 147.427 297.168 146.867 297.168ZM147.021 296.16C147.525 296.16 147.978 296.029 148.379 295.768C148.79 295.507 149.121 295.143 149.373 294.676C149.625 294.2 149.765 293.659 149.793 293.052C149.821 292.557 149.751 292.147 149.583 291.82C149.425 291.484 149.196 291.227 148.897 291.05C148.608 290.873 148.281 290.784 147.917 290.784C147.423 290.784 146.975 290.919 146.573 291.19C146.172 291.451 145.845 291.815 145.593 292.282C145.341 292.749 145.201 293.29 145.173 293.906C145.145 294.382 145.211 294.788 145.369 295.124C145.528 295.46 145.752 295.717 146.041 295.894C146.34 296.071 146.667 296.16 147.021 296.16ZM156.775 297L153.961 293.122L157.559 289.944H159.085L154.857 293.542L154.983 292.66L158.217 297H156.775ZM152.267 297L154.059 286.92H155.235L153.443 297H152.267ZM162.477 297.168C161.889 297.168 161.376 297.037 160.937 296.776C160.508 296.515 160.181 296.146 159.957 295.67C159.742 295.194 159.649 294.639 159.677 294.004C159.705 293.397 159.826 292.842 160.041 292.338C160.256 291.825 160.545 291.377 160.909 290.994C161.282 290.611 161.712 290.313 162.197 290.098C162.682 289.883 163.21 289.776 163.779 289.776C164.414 289.776 164.936 289.907 165.347 290.168C165.767 290.429 166.075 290.779 166.271 291.218C166.467 291.647 166.551 292.123 166.523 292.646C166.514 292.805 166.49 292.987 166.453 293.192C166.425 293.388 166.392 293.57 166.355 293.738H160.587L160.741 292.828H165.361C165.426 292.389 165.389 292.021 165.249 291.722C165.109 291.414 164.899 291.181 164.619 291.022C164.339 290.854 164.003 290.77 163.611 290.77C163.21 290.77 162.822 290.863 162.449 291.05C162.085 291.227 161.768 291.493 161.497 291.848C161.226 292.193 161.044 292.627 160.951 293.15L160.881 293.542C160.778 294.065 160.788 294.527 160.909 294.928C161.03 295.329 161.24 295.637 161.539 295.852C161.847 296.067 162.22 296.174 162.659 296.174C163.154 296.174 163.578 296.067 163.933 295.852C164.297 295.628 164.582 295.329 164.787 294.956H165.949C165.753 295.376 165.487 295.754 165.151 296.09C164.824 296.426 164.432 296.692 163.975 296.888C163.527 297.075 163.028 297.168 162.477 297.168ZM167.661 297L168.893 289.944H169.957L169.817 291.176C170.116 290.737 170.494 290.397 170.951 290.154C171.409 289.902 171.903 289.776 172.435 289.776C173.014 289.776 173.481 289.902 173.835 290.154C174.199 290.397 174.447 290.742 174.577 291.19C174.708 291.638 174.717 292.17 174.605 292.786L173.863 297H172.687L173.401 292.912C173.523 292.231 173.467 291.708 173.233 291.344C173 290.971 172.589 290.784 172.001 290.784C171.619 290.784 171.255 290.877 170.909 291.064C170.573 291.251 170.284 291.517 170.041 291.862C169.799 292.207 169.621 292.632 169.509 293.136L168.837 297H167.661ZM178.64 297.168C178.043 297.168 177.539 297.07 177.128 296.874C176.718 296.669 176.414 296.384 176.218 296.02C176.032 295.656 175.957 295.222 175.994 294.718H177.184C177.175 294.979 177.222 295.222 177.324 295.446C177.427 295.661 177.6 295.838 177.842 295.978C178.085 296.109 178.407 296.174 178.808 296.174C179.144 296.174 179.434 296.123 179.676 296.02C179.919 295.917 180.106 295.777 180.236 295.6C180.376 295.423 180.456 295.203 180.474 294.942C180.484 294.709 180.428 294.527 180.306 294.396C180.194 294.256 180.022 294.144 179.788 294.06C179.555 293.976 179.275 293.906 178.948 293.85C178.659 293.794 178.379 293.719 178.108 293.626C177.847 293.533 177.614 293.416 177.408 293.276C177.203 293.127 177.044 292.945 176.932 292.73C176.82 292.506 176.774 292.245 176.792 291.946C176.811 291.535 176.942 291.167 177.184 290.84C177.436 290.513 177.772 290.257 178.192 290.07C178.622 289.874 179.107 289.776 179.648 289.776C180.404 289.776 180.997 289.963 181.426 290.336C181.865 290.7 182.066 291.223 182.028 291.904H180.852C180.871 291.549 180.764 291.274 180.53 291.078C180.297 290.873 179.956 290.77 179.508 290.77C179.07 290.77 178.71 290.868 178.43 291.064C178.16 291.26 178.02 291.503 178.01 291.792C178.001 291.988 178.048 292.156 178.15 292.296C178.262 292.427 178.43 292.539 178.654 292.632C178.878 292.716 179.158 292.791 179.494 292.856C179.812 292.921 180.106 293.001 180.376 293.094C180.647 293.187 180.885 293.309 181.09 293.458C181.296 293.598 181.45 293.78 181.552 294.004C181.664 294.219 181.711 294.485 181.692 294.802C181.674 295.287 181.529 295.707 181.258 296.062C180.997 296.417 180.638 296.692 180.18 296.888C179.732 297.075 179.219 297.168 178.64 297.168Z" fill="#EEEFF1"/>
</g>
<g filter="url(#filter6_d_2483_54952)">
<rect x="57" y="350" width="172" height="36" rx="10" fill="#0C0D0E" shape-rendering="crispEdges"/>
<rect x="57.5" y="350.5" width="171" height="35" rx="9.5" stroke="#86888E" shape-rendering="crispEdges"/>
<path d="M68.75 368C68.75 369.658 69.4085 371.247 70.5806 372.419C71.7527 373.592 73.3424 374.25 75 374.25C76.6576 374.25 78.2473 373.592 79.4194 372.419C80.5915 371.247 81.25 369.658 81.25 368C81.25 366.342 80.5915 364.753 79.4194 363.581C78.2473 362.408 76.6576 361.75 75 361.75C73.3424 361.75 71.7527 362.408 70.5806 363.581C69.4085 364.753 68.75 366.342 68.75 368Z" stroke="#86888E"/>
<path d="M71.25 363.444C71.7377 363.888 72.7422 365.102 72.8593 366.405C72.9687 367.622 73.7723 368.612 75 368.625C75.4718 368.63 75.9489 368.289 75.9478 367.818C75.9474 367.672 75.9233 367.522 75.8856 367.385C75.8332 367.194 75.8286 366.975 75.9375 366.75C76.3187 365.964 77.0684 365.753 77.6624 365.326C77.9259 365.137 78.1662 364.937 78.2722 364.776C78.5648 364.332 78.8574 363.444 78.7111 363" stroke="#86888E"/>
<path d="M81.25 368.625C81.0441 369.207 80.8984 370.734 78.5739 370.759C78.5739 370.759 76.5154 370.759 75.8978 371.922C75.4037 372.853 75.6919 373.862 75.8978 374.25" stroke="#86888E"/>
<path d="M95.436 373.014L94.484 363.2H95.744L96.374 371.558L100.252 363.2H101.568L102.422 371.572L106.034 363.2H107.308L102.828 373H101.484L100.574 364.922L96.752 373L95.436 373.014ZM109.617 373.168C109.029 373.168 108.515 373.037 108.077 372.776C107.647 372.515 107.321 372.146 107.097 371.67C106.882 371.194 106.789 370.639 106.817 370.004C106.845 369.397 106.966 368.842 107.181 368.338C107.395 367.825 107.685 367.377 108.049 366.994C108.422 366.611 108.851 366.313 109.337 366.098C109.822 365.883 110.349 365.776 110.919 365.776C111.553 365.776 112.076 365.907 112.487 366.168C112.907 366.429 113.215 366.779 113.411 367.218C113.607 367.647 113.691 368.123 113.663 368.646C113.653 368.805 113.63 368.987 113.593 369.192C113.565 369.388 113.532 369.57 113.495 369.738H107.727L107.881 368.828H112.501C112.566 368.389 112.529 368.021 112.389 367.722C112.249 367.414 112.039 367.181 111.759 367.022C111.479 366.854 111.143 366.77 110.751 366.77C110.349 366.77 109.962 366.863 109.589 367.05C109.225 367.227 108.907 367.493 108.637 367.848C108.366 368.193 108.184 368.627 108.091 369.15L108.021 369.542C107.918 370.065 107.927 370.527 108.049 370.928C108.17 371.329 108.38 371.637 108.679 371.852C108.987 372.067 109.36 372.174 109.799 372.174C110.293 372.174 110.718 372.067 111.073 371.852C111.437 371.628 111.721 371.329 111.927 370.956H113.089C112.893 371.376 112.627 371.754 112.291 372.09C111.964 372.426 111.572 372.692 111.115 372.888C110.667 373.075 110.167 373.168 109.617 373.168ZM118.469 373.168C118.077 373.168 117.722 373.103 117.405 372.972C117.097 372.841 116.836 372.673 116.621 372.468C116.416 372.263 116.262 372.053 116.159 371.838L115.851 373H114.787L116.565 362.92H117.741L117.013 367.05C117.302 366.695 117.666 366.397 118.105 366.154C118.544 365.902 119.066 365.776 119.673 365.776C120.289 365.776 120.812 365.916 121.241 366.196C121.67 366.476 121.992 366.859 122.207 367.344C122.422 367.82 122.515 368.366 122.487 368.982C122.459 369.57 122.338 370.121 122.123 370.634C121.918 371.147 121.633 371.595 121.269 371.978C120.905 372.351 120.485 372.645 120.009 372.86C119.533 373.065 119.02 373.168 118.469 373.168ZM118.525 372.146C119.029 372.146 119.482 372.015 119.883 371.754C120.294 371.493 120.62 371.133 120.863 370.676C121.106 370.219 121.241 369.696 121.269 369.108C121.297 368.66 121.236 368.263 121.087 367.918C120.938 367.563 120.714 367.288 120.415 367.092C120.126 366.896 119.776 366.798 119.365 366.798C118.852 366.798 118.39 366.933 117.979 367.204C117.578 367.475 117.251 367.843 116.999 368.31C116.747 368.767 116.612 369.29 116.593 369.878C116.565 370.335 116.626 370.737 116.775 371.082C116.924 371.418 117.148 371.679 117.447 371.866C117.746 372.053 118.105 372.146 118.525 372.146ZM127.052 373.168C126.362 373.168 125.764 373.047 125.26 372.804C124.756 372.561 124.383 372.207 124.14 371.74C123.907 371.273 123.842 370.713 123.944 370.06H125.176C125.083 370.461 125.111 370.821 125.26 371.138C125.41 371.455 125.652 371.707 125.988 371.894C126.324 372.081 126.726 372.174 127.192 372.174C127.687 372.174 128.102 372.095 128.438 371.936C128.774 371.777 129.031 371.558 129.208 371.278C129.395 370.989 129.502 370.653 129.53 370.27C129.549 370.009 129.512 369.785 129.418 369.598C129.325 369.411 129.194 369.253 129.026 369.122C128.858 368.982 128.658 368.865 128.424 368.772C128.2 368.669 127.953 368.576 127.682 368.492C127.421 368.399 127.155 368.301 126.884 368.198C126.231 367.965 125.746 367.657 125.428 367.274C125.111 366.891 124.971 366.434 125.008 365.902C125.027 365.333 125.186 364.833 125.484 364.404C125.783 363.975 126.189 363.639 126.702 363.396C127.225 363.153 127.822 363.032 128.494 363.032C129.11 363.032 129.638 363.149 130.076 363.382C130.515 363.606 130.842 363.923 131.056 364.334C131.271 364.745 131.327 365.216 131.224 365.748H130.006C130.053 365.44 130.016 365.155 129.894 364.894C129.773 364.633 129.577 364.427 129.306 364.278C129.036 364.119 128.704 364.04 128.312 364.04C127.92 364.04 127.57 364.11 127.262 364.25C126.954 364.39 126.712 364.591 126.534 364.852C126.357 365.104 126.259 365.403 126.24 365.748C126.231 365.972 126.264 366.163 126.338 366.322C126.422 366.481 126.539 366.621 126.688 366.742C126.838 366.854 127.015 366.961 127.22 367.064C127.435 367.157 127.673 367.251 127.934 367.344C128.196 367.428 128.471 367.521 128.76 367.624C129.059 367.736 129.334 367.867 129.586 368.016C129.838 368.165 130.053 368.343 130.23 368.548C130.417 368.744 130.557 368.977 130.65 369.248C130.753 369.509 130.79 369.808 130.762 370.144C130.744 370.732 130.576 371.255 130.258 371.712C129.95 372.16 129.521 372.515 128.97 372.776C128.429 373.037 127.79 373.168 127.052 373.168ZM135.368 373.168C134.78 373.168 134.262 373.037 133.814 372.776C133.366 372.505 133.026 372.132 132.792 371.656C132.568 371.18 132.47 370.625 132.498 369.99C132.526 369.374 132.652 368.809 132.876 368.296C133.1 367.783 133.404 367.339 133.786 366.966C134.169 366.593 134.603 366.303 135.088 366.098C135.583 365.883 136.11 365.776 136.67 365.776C137.51 365.776 138.173 366 138.658 366.448C139.153 366.887 139.41 367.479 139.428 368.226H138.224C138.215 367.75 138.042 367.391 137.706 367.148C137.38 366.905 136.978 366.784 136.502 366.784C136.008 366.784 135.555 366.915 135.144 367.176C134.734 367.437 134.398 367.801 134.136 368.268C133.884 368.725 133.744 369.267 133.716 369.892C133.698 370.256 133.73 370.583 133.814 370.872C133.898 371.152 134.024 371.39 134.192 371.586C134.36 371.773 134.556 371.917 134.78 372.02C135.014 372.123 135.27 372.174 135.55 372.174C135.868 372.174 136.171 372.118 136.46 372.006C136.759 371.894 137.025 371.731 137.258 371.516C137.492 371.301 137.669 371.035 137.79 370.718H138.994C138.817 371.194 138.551 371.619 138.196 371.992C137.842 372.356 137.422 372.645 136.936 372.86C136.451 373.065 135.928 373.168 135.368 373.168ZM140.537 373L141.769 365.944H142.847L142.707 367.204C142.922 366.905 143.174 366.653 143.463 366.448C143.753 366.233 144.084 366.07 144.457 365.958C144.831 365.837 145.232 365.776 145.661 365.776L145.451 367.008H145.017C144.719 367.008 144.425 367.045 144.135 367.12C143.855 367.195 143.594 367.316 143.351 367.484C143.118 367.652 142.917 367.876 142.749 368.156C142.581 368.427 142.46 368.767 142.385 369.178L141.713 373H140.537ZM148.253 373.168C147.73 373.168 147.301 373.079 146.965 372.902C146.638 372.715 146.4 372.473 146.251 372.174C146.101 371.866 146.036 371.539 146.055 371.194C146.073 370.69 146.227 370.256 146.517 369.892C146.806 369.528 147.207 369.248 147.721 369.052C148.234 368.856 148.822 368.758 149.485 368.758H151.347C151.421 368.31 151.417 367.941 151.333 367.652C151.258 367.353 151.104 367.134 150.871 366.994C150.637 366.845 150.334 366.77 149.961 366.77C149.513 366.77 149.107 366.882 148.743 367.106C148.379 367.33 148.117 367.661 147.959 368.1H146.741C146.89 367.596 147.133 367.176 147.469 366.84C147.814 366.495 148.215 366.233 148.673 366.056C149.13 365.869 149.611 365.776 150.115 365.776C150.749 365.776 151.263 365.897 151.655 366.14C152.056 366.373 152.327 366.705 152.467 367.134C152.616 367.554 152.639 368.053 152.537 368.632L151.781 373H150.717L150.871 371.754C150.74 371.95 150.586 372.137 150.409 372.314C150.241 372.482 150.049 372.631 149.835 372.762C149.62 372.893 149.382 372.991 149.121 373.056C148.859 373.131 148.57 373.168 148.253 373.168ZM148.603 372.174C148.929 372.174 149.242 372.109 149.541 371.978C149.849 371.838 150.119 371.651 150.353 371.418C150.595 371.185 150.787 370.923 150.927 370.634C151.076 370.345 151.155 370.041 151.165 369.724L151.179 369.668H149.415C148.976 369.668 148.598 369.729 148.281 369.85C147.973 369.962 147.735 370.125 147.567 370.34C147.408 370.545 147.319 370.793 147.301 371.082C147.282 371.418 147.385 371.684 147.609 371.88C147.833 372.076 148.164 372.174 148.603 372.174ZM153.457 376.08L155.249 365.944H156.341L156.229 367.092C156.425 366.849 156.649 366.63 156.901 366.434C157.153 366.238 157.443 366.079 157.769 365.958C158.105 365.837 158.483 365.776 158.903 365.776C159.519 365.776 160.042 365.916 160.471 366.196C160.901 366.476 161.223 366.859 161.437 367.344C161.652 367.829 161.741 368.375 161.703 368.982C161.685 369.579 161.568 370.135 161.353 370.648C161.139 371.152 160.849 371.595 160.485 371.978C160.131 372.351 159.715 372.645 159.239 372.86C158.763 373.065 158.245 373.168 157.685 373.168C157.312 373.168 156.971 373.107 156.663 372.986C156.355 372.855 156.094 372.692 155.879 372.496C155.665 372.291 155.506 372.067 155.403 371.824L154.633 376.08H153.457ZM157.755 372.146C158.259 372.146 158.712 372.015 159.113 371.754C159.524 371.493 159.851 371.133 160.093 370.676C160.336 370.219 160.471 369.696 160.499 369.108C160.527 368.66 160.462 368.263 160.303 367.918C160.154 367.563 159.935 367.288 159.645 367.092C159.356 366.896 159.006 366.798 158.595 366.798C158.082 366.798 157.62 366.933 157.209 367.204C156.799 367.475 156.467 367.843 156.215 368.31C155.963 368.767 155.828 369.29 155.809 369.878C155.781 370.335 155.842 370.737 155.991 371.082C156.15 371.418 156.379 371.679 156.677 371.866C156.976 372.053 157.335 372.146 157.755 372.146ZM163.118 373L164.364 365.944H165.54L164.294 373H163.118ZM165.358 364.446C165.125 364.446 164.934 364.371 164.784 364.222C164.635 364.073 164.556 363.881 164.546 363.648C164.546 363.415 164.621 363.223 164.77 363.074C164.929 362.925 165.125 362.85 165.358 362.85C165.582 362.85 165.774 362.925 165.932 363.074C166.091 363.214 166.17 363.405 166.17 363.648C166.18 363.881 166.1 364.073 165.932 364.222C165.774 364.371 165.582 364.446 165.358 364.446ZM166.663 373L167.895 365.944H168.959L168.819 367.176C169.118 366.737 169.496 366.397 169.953 366.154C170.411 365.902 170.905 365.776 171.437 365.776C172.016 365.776 172.483 365.902 172.837 366.154C173.201 366.397 173.449 366.742 173.579 367.19C173.71 367.638 173.719 368.17 173.607 368.786L172.865 373H171.689L172.403 368.912C172.525 368.231 172.469 367.708 172.235 367.344C172.002 366.971 171.591 366.784 171.003 366.784C170.621 366.784 170.257 366.877 169.911 367.064C169.575 367.251 169.286 367.517 169.043 367.862C168.801 368.207 168.623 368.632 168.511 369.136L167.839 373H166.663ZM177.096 376.248C176.499 376.248 175.981 376.169 175.542 376.01C175.104 375.851 174.768 375.618 174.534 375.31C174.292 375.011 174.18 374.643 174.198 374.204C174.217 373.896 174.296 373.602 174.436 373.322C174.567 373.051 174.763 372.795 175.024 372.552C175.295 372.309 175.631 372.095 176.032 371.908L176.76 372.37C176.294 372.575 175.953 372.818 175.738 373.098C175.524 373.387 175.407 373.691 175.388 374.008C175.379 374.279 175.444 374.507 175.584 374.694C175.734 374.89 175.948 375.035 176.228 375.128C176.518 375.231 176.863 375.282 177.264 375.282C177.899 375.282 178.417 375.142 178.818 374.862C179.229 374.582 179.444 374.209 179.462 373.742C179.481 373.453 179.383 373.205 179.168 373C178.963 372.785 178.543 372.659 177.908 372.622C177.451 372.594 177.054 372.547 176.718 372.482C176.382 372.417 176.093 372.342 175.85 372.258C175.608 372.165 175.398 372.062 175.22 371.95C175.052 371.838 174.903 371.712 174.772 371.572L174.842 371.236L176.368 370.004L177.292 370.368L175.696 371.586L175.962 371.026C176.074 371.11 176.186 371.189 176.298 371.264C176.42 371.329 176.555 371.39 176.704 371.446C176.863 371.493 177.054 371.535 177.278 371.572C177.512 371.609 177.801 371.642 178.146 371.67C178.809 371.717 179.322 371.833 179.686 372.02C180.06 372.197 180.316 372.431 180.456 372.72C180.596 373 180.657 373.308 180.638 373.644C180.62 374.129 180.461 374.568 180.162 374.96C179.873 375.352 179.462 375.665 178.93 375.898C178.408 376.131 177.796 376.248 177.096 376.248ZM178.02 370.788C177.488 370.788 177.04 370.695 176.676 370.508C176.322 370.321 176.056 370.065 175.878 369.738C175.71 369.411 175.636 369.043 175.654 368.632C175.682 368.091 175.841 367.605 176.13 367.176C176.42 366.747 176.802 366.406 177.278 366.154C177.764 365.902 178.305 365.776 178.902 365.776C179.444 365.776 179.892 365.874 180.246 366.07C180.601 366.257 180.862 366.513 181.03 366.84C181.198 367.167 181.273 367.535 181.254 367.946C181.226 368.478 181.068 368.959 180.778 369.388C180.498 369.817 180.12 370.158 179.644 370.41C179.168 370.662 178.627 370.788 178.02 370.788ZM178.188 369.822C178.748 369.822 179.206 369.663 179.56 369.346C179.915 369.019 180.106 368.581 180.134 368.03C180.153 367.61 180.041 367.293 179.798 367.078C179.556 366.863 179.201 366.756 178.734 366.756C178.184 366.756 177.726 366.919 177.362 367.246C177.008 367.563 176.821 367.993 176.802 368.534C176.774 368.954 176.882 369.276 177.124 369.5C177.376 369.715 177.731 369.822 178.188 369.822ZM179.854 366.938L179.672 365.944H182.556L182.402 366.826L179.854 366.938ZM189.36 373.168C188.809 373.168 188.347 373.056 187.974 372.832C187.6 372.608 187.334 372.291 187.176 371.88C187.026 371.46 187.003 370.961 187.106 370.382H188.296C188.24 370.709 188.24 371.003 188.296 371.264C188.352 371.525 188.478 371.735 188.674 371.894C188.879 372.043 189.168 372.118 189.542 372.118C189.906 372.118 190.209 372.048 190.452 371.908C190.694 371.759 190.886 371.563 191.026 371.32C191.166 371.077 191.259 370.821 191.306 370.55L192.594 363.2H193.77L192.482 370.55C192.342 371.353 191.992 371.992 191.432 372.468C190.872 372.935 190.181 373.168 189.36 373.168ZM197.567 373.168C196.961 373.168 196.429 373.033 195.971 372.762C195.523 372.482 195.183 372.099 194.949 371.614C194.716 371.119 194.613 370.559 194.641 369.934C194.669 369.337 194.791 368.786 195.005 368.282C195.229 367.769 195.528 367.33 195.901 366.966C196.284 366.593 196.718 366.303 197.203 366.098C197.698 365.883 198.221 365.776 198.771 365.776C199.378 365.776 199.905 365.911 200.353 366.182C200.811 366.453 201.156 366.826 201.389 367.302C201.632 367.778 201.735 368.338 201.697 368.982C201.669 369.589 201.543 370.149 201.319 370.662C201.105 371.166 200.806 371.605 200.423 371.978C200.05 372.351 199.621 372.645 199.135 372.86C198.65 373.065 198.127 373.168 197.567 373.168ZM197.721 372.16C198.225 372.16 198.678 372.029 199.079 371.768C199.49 371.507 199.821 371.143 200.073 370.676C200.325 370.2 200.465 369.659 200.493 369.052C200.521 368.557 200.451 368.147 200.283 367.82C200.125 367.484 199.896 367.227 199.597 367.05C199.308 366.873 198.981 366.784 198.617 366.784C198.123 366.784 197.675 366.919 197.273 367.19C196.872 367.451 196.545 367.815 196.293 368.282C196.041 368.749 195.901 369.29 195.873 369.906C195.845 370.382 195.911 370.788 196.069 371.124C196.228 371.46 196.452 371.717 196.741 371.894C197.04 372.071 197.367 372.16 197.721 372.16ZM206.649 373.168C206.257 373.168 205.903 373.103 205.585 372.972C205.277 372.841 205.016 372.673 204.801 372.468C204.596 372.263 204.442 372.053 204.339 371.838L204.031 373H202.967L204.745 362.92H205.921L205.193 367.05C205.483 366.695 205.847 366.397 206.285 366.154C206.724 365.902 207.247 365.776 207.853 365.776C208.469 365.776 208.992 365.916 209.421 366.196C209.851 366.476 210.173 366.859 210.387 367.344C210.602 367.82 210.695 368.366 210.667 368.982C210.639 369.57 210.518 370.121 210.303 370.634C210.098 371.147 209.813 371.595 209.449 371.978C209.085 372.351 208.665 372.645 208.189 372.86C207.713 373.065 207.2 373.168 206.649 373.168ZM206.705 372.146C207.209 372.146 207.662 372.015 208.063 371.754C208.474 371.493 208.801 371.133 209.043 370.676C209.286 370.219 209.421 369.696 209.449 369.108C209.477 368.66 209.417 368.263 209.267 367.918C209.118 367.563 208.894 367.288 208.595 367.092C208.306 366.896 207.956 366.798 207.545 366.798C207.032 366.798 206.57 366.933 206.159 367.204C205.758 367.475 205.431 367.843 205.179 368.31C204.927 368.767 204.792 369.29 204.773 369.878C204.745 370.335 204.806 370.737 204.955 371.082C205.105 371.418 205.329 371.679 205.627 371.866C205.926 372.053 206.285 372.146 206.705 372.146ZM214.617 373.168C214.019 373.168 213.515 373.07 213.105 372.874C212.694 372.669 212.391 372.384 212.195 372.02C212.008 371.656 211.933 371.222 211.971 370.718H213.161C213.151 370.979 213.198 371.222 213.301 371.446C213.403 371.661 213.576 371.838 213.819 371.978C214.061 372.109 214.383 372.174 214.785 372.174C215.121 372.174 215.41 372.123 215.653 372.02C215.895 371.917 216.082 371.777 216.213 371.6C216.353 371.423 216.432 371.203 216.451 370.942C216.46 370.709 216.404 370.527 216.283 370.396C216.171 370.256 215.998 370.144 215.765 370.06C215.531 369.976 215.251 369.906 214.925 369.85C214.635 369.794 214.355 369.719 214.085 369.626C213.823 369.533 213.59 369.416 213.385 369.276C213.179 369.127 213.021 368.945 212.909 368.73C212.797 368.506 212.75 368.245 212.769 367.946C212.787 367.535 212.918 367.167 213.161 366.84C213.413 366.513 213.749 366.257 214.169 366.07C214.598 365.874 215.083 365.776 215.625 365.776C216.381 365.776 216.973 365.963 217.403 366.336C217.841 366.7 218.042 367.223 218.005 367.904H216.829C216.847 367.549 216.74 367.274 216.507 367.078C216.273 366.873 215.933 366.77 215.485 366.77C215.046 366.77 214.687 366.868 214.407 367.064C214.136 367.26 213.996 367.503 213.987 367.792C213.977 367.988 214.024 368.156 214.127 368.296C214.239 368.427 214.407 368.539 214.631 368.632C214.855 368.716 215.135 368.791 215.471 368.856C215.788 368.921 216.082 369.001 216.353 369.094C216.623 369.187 216.861 369.309 217.067 369.458C217.272 369.598 217.426 369.78 217.529 370.004C217.641 370.219 217.687 370.485 217.669 370.802C217.65 371.287 217.505 371.707 217.235 372.062C216.973 372.417 216.614 372.692 216.157 372.888C215.709 373.075 215.195 373.168 214.617 373.168Z" fill="#EEEFF1"/>
</g>
<g filter="url(#filter7_d_2483_54952)">
<rect x="258" y="198" width="143" height="36" rx="10" fill="#0C0D0E" shape-rendering="crispEdges"/>
<rect x="258.5" y="198.5" width="142" height="35" rx="9.5" stroke="#86888E" shape-rendering="crispEdges"/>
<path d="M269.75 216C269.75 217.658 270.408 219.247 271.581 220.419C272.753 221.592 274.342 222.25 276 222.25C277.658 222.25 279.247 221.592 280.419 220.419C281.592 219.247 282.25 217.658 282.25 216C282.25 214.342 281.592 212.753 280.419 211.581C279.247 210.408 277.658 209.75 276 209.75C274.342 209.75 272.753 210.408 271.581 211.581C270.408 212.753 269.75 214.342 269.75 216Z" stroke="#86888E"/>
<path d="M272.25 211.444C272.738 211.888 273.742 213.102 273.859 214.405C273.969 215.622 274.772 216.612 276 216.625C276.472 216.63 276.949 216.289 276.948 215.818C276.947 215.672 276.923 215.522 276.886 215.385C276.833 215.194 276.829 214.975 276.938 214.75C277.319 213.964 278.068 213.753 278.662 213.326C278.926 213.137 279.166 212.937 279.272 212.776C279.565 212.332 279.857 211.444 279.711 211" stroke="#86888E"/>
<path d="M282.25 216.625C282.044 217.207 281.898 218.734 279.574 218.759C279.574 218.759 277.515 218.759 276.898 219.922C276.404 220.853 276.692 221.862 276.898 222.25" stroke="#86888E"/>
<path d="M298.578 221.168C297.906 221.168 297.295 221.033 296.744 220.762C296.203 220.491 295.769 220.081 295.442 219.53C295.115 218.97 294.952 218.256 294.952 217.388V211.2H296.128V217.402C296.128 218.037 296.231 218.555 296.436 218.956C296.651 219.357 296.945 219.651 297.318 219.838C297.691 220.025 298.121 220.118 298.606 220.118C299.101 220.118 299.53 220.025 299.894 219.838C300.258 219.651 300.543 219.357 300.748 218.956C300.953 218.555 301.056 218.037 301.056 217.402V211.2H302.232V217.388C302.232 218.256 302.069 218.97 301.742 219.53C301.415 220.081 300.977 220.491 300.426 220.762C299.875 221.033 299.259 221.168 298.578 221.168ZM304.434 224.08V213.944H305.498L305.596 215.092C305.745 214.868 305.936 214.658 306.17 214.462C306.403 214.257 306.683 214.093 307.01 213.972C307.336 213.841 307.71 213.776 308.13 213.776C308.82 213.776 309.418 213.939 309.922 214.266C310.435 214.593 310.832 215.036 311.112 215.596C311.401 216.147 311.546 216.777 311.546 217.486C311.546 218.195 311.401 218.83 311.112 219.39C310.832 219.941 310.435 220.375 309.922 220.692C309.408 221.009 308.806 221.168 308.116 221.168C307.546 221.168 307.042 221.051 306.604 220.818C306.174 220.585 305.843 220.258 305.61 219.838V224.08H304.434ZM307.99 220.146C308.447 220.146 308.853 220.034 309.208 219.81C309.562 219.586 309.838 219.278 310.034 218.886C310.239 218.485 310.342 218.013 310.342 217.472C310.342 216.94 310.239 216.473 310.034 216.072C309.838 215.671 309.562 215.358 309.208 215.134C308.853 214.91 308.447 214.798 307.99 214.798C307.523 214.798 307.112 214.91 306.758 215.134C306.403 215.358 306.128 215.671 305.932 216.072C305.736 216.473 305.638 216.94 305.638 217.472C305.638 218.013 305.736 218.485 305.932 218.886C306.128 219.278 306.403 219.586 306.758 219.81C307.112 220.034 307.523 220.146 307.99 220.146ZM316.585 221.168C315.904 221.168 315.307 221.009 314.793 220.692C314.28 220.365 313.883 219.922 313.603 219.362C313.323 218.802 313.183 218.167 313.183 217.458C313.183 216.749 313.323 216.119 313.603 215.568C313.883 215.008 314.28 214.569 314.793 214.252C315.316 213.935 315.918 213.776 316.599 213.776C317.178 213.776 317.682 213.893 318.111 214.126C318.55 214.359 318.886 214.686 319.119 215.106V210.92H320.296V221H319.231L319.133 219.838C318.984 220.071 318.793 220.291 318.559 220.496C318.326 220.692 318.046 220.855 317.719 220.986C317.393 221.107 317.015 221.168 316.585 221.168ZM316.725 220.146C317.192 220.146 317.603 220.034 317.957 219.81C318.312 219.586 318.587 219.278 318.783 218.886C318.979 218.485 319.077 218.013 319.077 217.472C319.077 216.94 318.979 216.473 318.783 216.072C318.587 215.671 318.312 215.358 317.957 215.134C317.603 214.91 317.192 214.798 316.725 214.798C316.268 214.798 315.862 214.91 315.507 215.134C315.153 215.358 314.877 215.671 314.681 216.072C314.485 216.473 314.387 216.94 314.387 217.472C314.387 218.013 314.485 218.485 314.681 218.886C314.877 219.278 315.153 219.586 315.507 219.81C315.862 220.034 316.268 220.146 316.725 220.146ZM324.831 221.168C324.262 221.168 323.786 221.07 323.403 220.874C323.02 220.669 322.736 220.403 322.549 220.076C322.362 219.74 322.269 219.376 322.269 218.984C322.269 218.508 322.39 218.107 322.633 217.78C322.885 217.444 323.235 217.192 323.683 217.024C324.14 216.847 324.677 216.758 325.293 216.758H327.155C327.155 216.319 327.085 215.955 326.945 215.666C326.814 215.367 326.618 215.143 326.357 214.994C326.105 214.845 325.788 214.77 325.405 214.77C324.957 214.77 324.57 214.882 324.243 215.106C323.916 215.33 323.716 215.661 323.641 216.1H322.437C322.493 215.596 322.661 215.176 322.941 214.84C323.23 214.495 323.594 214.233 324.033 214.056C324.472 213.869 324.929 213.776 325.405 213.776C326.058 213.776 326.6 213.897 327.029 214.14C327.468 214.373 327.794 214.705 328.009 215.134C328.224 215.554 328.331 216.053 328.331 216.632V221H327.281L327.211 219.754C327.118 219.95 326.996 220.137 326.847 220.314C326.707 220.482 326.539 220.631 326.343 220.762C326.147 220.883 325.923 220.981 325.671 221.056C325.428 221.131 325.148 221.168 324.831 221.168ZM325.013 220.174C325.34 220.174 325.634 220.109 325.895 219.978C326.166 219.838 326.394 219.651 326.581 219.418C326.768 219.175 326.908 218.909 327.001 218.62C327.104 218.331 327.155 218.027 327.155 217.71V217.668H325.391C324.934 217.668 324.565 217.724 324.285 217.836C324.005 217.939 323.804 218.088 323.683 218.284C323.562 218.471 323.501 218.685 323.501 218.928C323.501 219.18 323.557 219.399 323.669 219.586C323.79 219.773 323.963 219.917 324.187 220.02C324.42 220.123 324.696 220.174 325.013 220.174ZM333.011 221C332.591 221 332.227 220.935 331.919 220.804C331.611 220.673 331.373 220.454 331.205 220.146C331.046 219.829 330.967 219.404 330.967 218.872V214.938H329.735V213.944H330.967L331.121 212.236H332.143V213.944H334.187V214.938H332.143V218.872C332.143 219.311 332.231 219.609 332.409 219.768C332.586 219.917 332.899 219.992 333.347 219.992H334.103V221H333.011ZM338.904 221.168C338.241 221.168 337.653 221.014 337.14 220.706C336.636 220.398 336.239 219.969 335.95 219.418C335.66 218.858 335.516 218.209 335.516 217.472C335.516 216.725 335.656 216.077 335.936 215.526C336.225 214.975 336.626 214.546 337.14 214.238C337.662 213.93 338.26 213.776 338.932 213.776C339.622 213.776 340.206 213.93 340.682 214.238C341.167 214.546 341.536 214.952 341.788 215.456C342.049 215.951 342.18 216.497 342.18 217.094C342.18 217.187 342.18 217.285 342.18 217.388C342.18 217.491 342.175 217.607 342.166 217.738H336.398V216.828H341.032C341.004 216.184 340.789 215.68 340.388 215.316C339.996 214.952 339.501 214.77 338.904 214.77C338.502 214.77 338.129 214.863 337.784 215.05C337.448 215.227 337.177 215.493 336.972 215.848C336.766 216.193 336.664 216.627 336.664 217.15V217.542C336.664 218.121 336.766 218.606 336.972 218.998C337.186 219.39 337.462 219.684 337.798 219.88C338.143 220.076 338.512 220.174 338.904 220.174C339.398 220.174 339.804 220.067 340.122 219.852C340.448 219.628 340.682 219.329 340.822 218.956H341.984C341.872 219.376 341.676 219.754 341.396 220.09C341.116 220.426 340.766 220.692 340.346 220.888C339.935 221.075 339.454 221.168 338.904 221.168ZM348.115 221V211.2H349.487L352.945 218.046L356.417 211.2H357.803V221H356.627V213.3L353.393 219.628H352.511L349.291 213.328V221H348.115ZM363.191 221.168C362.528 221.168 361.94 221.014 361.427 220.706C360.923 220.398 360.526 219.969 360.237 219.418C359.948 218.858 359.803 218.209 359.803 217.472C359.803 216.725 359.943 216.077 360.223 215.526C360.512 214.975 360.914 214.546 361.427 214.238C361.95 213.93 362.547 213.776 363.219 213.776C363.91 213.776 364.493 213.93 364.969 214.238C365.454 214.546 365.823 214.952 366.075 215.456C366.336 215.951 366.467 216.497 366.467 217.094C366.467 217.187 366.467 217.285 366.467 217.388C366.467 217.491 366.462 217.607 366.453 217.738H360.685V216.828H365.319C365.291 216.184 365.076 215.68 364.675 215.316C364.283 214.952 363.788 214.77 363.191 214.77C362.79 214.77 362.416 214.863 362.071 215.05C361.735 215.227 361.464 215.493 361.259 215.848C361.054 216.193 360.951 216.627 360.951 217.15V217.542C360.951 218.121 361.054 218.606 361.259 218.998C361.474 219.39 361.749 219.684 362.085 219.88C362.43 220.076 362.799 220.174 363.191 220.174C363.686 220.174 364.092 220.067 364.409 219.852C364.736 219.628 364.969 219.329 365.109 218.956H366.271C366.159 219.376 365.963 219.754 365.683 220.09C365.403 220.426 365.053 220.692 364.633 220.888C364.222 221.075 363.742 221.168 363.191 221.168ZM370.874 221C370.454 221 370.09 220.935 369.782 220.804C369.474 220.673 369.236 220.454 369.068 220.146C368.909 219.829 368.83 219.404 368.83 218.872V214.938H367.598V213.944H368.83L368.984 212.236H370.006V213.944H372.05V214.938H370.006V218.872C370.006 219.311 370.094 219.609 370.272 219.768C370.449 219.917 370.762 219.992 371.21 219.992H371.966V221H370.874ZM373.864 221V213.944H374.928L375.012 215.288C375.171 214.971 375.371 214.7 375.614 214.476C375.866 214.252 376.165 214.079 376.51 213.958C376.865 213.837 377.266 213.776 377.714 213.776V215.008H377.28C376.981 215.008 376.697 215.05 376.426 215.134C376.155 215.209 375.913 215.335 375.698 215.512C375.493 215.689 375.329 215.932 375.208 216.24C375.096 216.539 375.04 216.912 375.04 217.36V221H373.864ZM379.438 221V213.944H380.614V221H379.438ZM380.026 212.446C379.792 212.446 379.596 212.371 379.438 212.222C379.288 212.063 379.214 211.867 379.214 211.634C379.214 211.401 379.288 211.214 379.438 211.074C379.596 210.925 379.792 210.85 380.026 210.85C380.25 210.85 380.441 210.925 380.6 211.074C380.758 211.214 380.838 211.401 380.838 211.634C380.838 211.867 380.758 212.063 380.6 212.222C380.441 212.371 380.25 212.446 380.026 212.446ZM386.147 221.168C385.484 221.168 384.887 221.014 384.355 220.706C383.832 220.398 383.422 219.969 383.123 219.418C382.824 218.858 382.675 218.214 382.675 217.486C382.675 216.739 382.824 216.091 383.123 215.54C383.422 214.989 383.832 214.56 384.355 214.252C384.887 213.935 385.484 213.776 386.147 213.776C386.987 213.776 387.687 213.995 388.247 214.434C388.807 214.863 389.162 215.442 389.311 216.17H388.107C388.014 215.731 387.785 215.391 387.421 215.148C387.057 214.905 386.628 214.784 386.133 214.784C385.732 214.784 385.358 214.887 385.013 215.092C384.668 215.288 384.392 215.587 384.187 215.988C383.982 216.389 383.879 216.884 383.879 217.472C383.879 217.911 383.94 218.303 384.061 218.648C384.182 218.984 384.346 219.264 384.551 219.488C384.756 219.712 384.994 219.885 385.265 220.006C385.545 220.118 385.834 220.174 386.133 220.174C386.469 220.174 386.772 220.123 387.043 220.02C387.314 219.908 387.542 219.745 387.729 219.53C387.916 219.315 388.042 219.063 388.107 218.774H389.311C389.162 219.483 388.802 220.062 388.233 220.51C387.673 220.949 386.978 221.168 386.147 221.168Z" fill="#EEEFF1"/>
</g>
<path d="M258 208C258 202.477 262.477 198 268 198H286V234H268C262.477 234 258 229.523 258 224V208Z" fill="#86888E"/>
<path d="M266.375 215.375C266.375 214.786 266.375 214.491 266.558 214.308C266.741 214.125 267.036 214.125 267.625 214.125C268.214 214.125 268.509 214.125 268.692 214.308C268.875 214.491 268.875 214.786 268.875 215.375V219.125C268.875 219.714 268.875 220.009 268.692 220.192C268.509 220.375 268.214 220.375 267.625 220.375C267.036 220.375 266.741 220.375 266.558 220.192C266.375 220.009 266.375 219.714 266.375 219.125V215.375Z" stroke="#27292E"/>
<path d="M270.75 212.875C270.75 212.286 270.75 211.991 270.933 211.808C271.116 211.625 271.411 211.625 272 211.625C272.589 211.625 272.884 211.625 273.067 211.808C273.25 211.991 273.25 212.286 273.25 212.875V219.125C273.25 219.714 273.25 220.009 273.067 220.192C272.884 220.375 272.589 220.375 272 220.375C271.411 220.375 271.116 220.375 270.933 220.192C270.75 220.009 270.75 219.714 270.75 219.125V212.875Z" stroke="#27292E"/>
<path d="M275.125 211C275.125 210.411 275.125 210.116 275.308 209.933C275.491 209.75 275.786 209.75 276.375 209.75C276.964 209.75 277.259 209.75 277.442 209.933C277.625 210.116 277.625 210.411 277.625 211V219.125C277.625 219.714 277.625 220.009 277.442 220.192C277.259 220.375 276.964 220.375 276.375 220.375C275.786 220.375 275.491 220.375 275.308 220.192C275.125 220.009 275.125 219.714 275.125 219.125V211Z" stroke="#27292E"/>
<g filter="url(#filter8_d_2483_54952)">
<rect x="258" y="274" width="143" height="36" rx="10" fill="#0C0D0E" shape-rendering="crispEdges"/>
<rect x="258.5" y="274.5" width="142" height="35" rx="9.5" stroke="#86888E" shape-rendering="crispEdges"/>
<path d="M269.75 292C269.75 293.658 270.408 295.247 271.581 296.419C272.753 297.592 274.342 298.25 276 298.25C277.658 298.25 279.247 297.592 280.419 296.419C281.592 295.247 282.25 293.658 282.25 292C282.25 290.342 281.592 288.753 280.419 287.581C279.247 286.408 277.658 285.75 276 285.75C274.342 285.75 272.753 286.408 271.581 287.581C270.408 288.753 269.75 290.342 269.75 292Z" stroke="#86888E"/>
<path d="M272.25 287.444C272.738 287.888 273.742 289.102 273.859 290.405C273.969 291.622 274.772 292.612 276 292.625C276.472 292.63 276.949 292.289 276.948 291.818C276.947 291.672 276.923 291.522 276.886 291.385C276.833 291.194 276.829 290.975 276.938 290.75C277.319 289.964 278.068 289.753 278.662 289.326C278.926 289.137 279.166 288.937 279.272 288.776C279.565 288.332 279.857 287.444 279.711 287" stroke="#86888E"/>
<path d="M282.25 292.625C282.044 293.207 281.898 294.734 279.574 294.759C279.574 294.759 277.515 294.759 276.898 295.922C276.404 296.853 276.692 297.862 276.898 298.25" stroke="#86888E"/>
<path d="M298.578 297.168C297.906 297.168 297.295 297.033 296.744 296.762C296.203 296.491 295.769 296.081 295.442 295.53C295.115 294.97 294.952 294.256 294.952 293.388V287.2H296.128V293.402C296.128 294.037 296.231 294.555 296.436 294.956C296.651 295.357 296.945 295.651 297.318 295.838C297.691 296.025 298.121 296.118 298.606 296.118C299.101 296.118 299.53 296.025 299.894 295.838C300.258 295.651 300.543 295.357 300.748 294.956C300.953 294.555 301.056 294.037 301.056 293.402V287.2H302.232V293.388C302.232 294.256 302.069 294.97 301.742 295.53C301.415 296.081 300.977 296.491 300.426 296.762C299.875 297.033 299.259 297.168 298.578 297.168ZM304.434 300.08V289.944H305.498L305.596 291.092C305.745 290.868 305.936 290.658 306.17 290.462C306.403 290.257 306.683 290.093 307.01 289.972C307.336 289.841 307.71 289.776 308.13 289.776C308.82 289.776 309.418 289.939 309.922 290.266C310.435 290.593 310.832 291.036 311.112 291.596C311.401 292.147 311.546 292.777 311.546 293.486C311.546 294.195 311.401 294.83 311.112 295.39C310.832 295.941 310.435 296.375 309.922 296.692C309.408 297.009 308.806 297.168 308.116 297.168C307.546 297.168 307.042 297.051 306.604 296.818C306.174 296.585 305.843 296.258 305.61 295.838V300.08H304.434ZM307.99 296.146C308.447 296.146 308.853 296.034 309.208 295.81C309.562 295.586 309.838 295.278 310.034 294.886C310.239 294.485 310.342 294.013 310.342 293.472C310.342 292.94 310.239 292.473 310.034 292.072C309.838 291.671 309.562 291.358 309.208 291.134C308.853 290.91 308.447 290.798 307.99 290.798C307.523 290.798 307.112 290.91 306.758 291.134C306.403 291.358 306.128 291.671 305.932 292.072C305.736 292.473 305.638 292.94 305.638 293.472C305.638 294.013 305.736 294.485 305.932 294.886C306.128 295.278 306.403 295.586 306.758 295.81C307.112 296.034 307.523 296.146 307.99 296.146ZM316.585 297.168C315.904 297.168 315.307 297.009 314.793 296.692C314.28 296.365 313.883 295.922 313.603 295.362C313.323 294.802 313.183 294.167 313.183 293.458C313.183 292.749 313.323 292.119 313.603 291.568C313.883 291.008 314.28 290.569 314.793 290.252C315.316 289.935 315.918 289.776 316.599 289.776C317.178 289.776 317.682 289.893 318.111 290.126C318.55 290.359 318.886 290.686 319.119 291.106V286.92H320.296V297H319.231L319.133 295.838C318.984 296.071 318.793 296.291 318.559 296.496C318.326 296.692 318.046 296.855 317.719 296.986C317.393 297.107 317.015 297.168 316.585 297.168ZM316.725 296.146C317.192 296.146 317.603 296.034 317.957 295.81C318.312 295.586 318.587 295.278 318.783 294.886C318.979 294.485 319.077 294.013 319.077 293.472C319.077 292.94 318.979 292.473 318.783 292.072C318.587 291.671 318.312 291.358 317.957 291.134C317.603 290.91 317.192 290.798 316.725 290.798C316.268 290.798 315.862 290.91 315.507 291.134C315.153 291.358 314.877 291.671 314.681 292.072C314.485 292.473 314.387 292.94 314.387 293.472C314.387 294.013 314.485 294.485 314.681 294.886C314.877 295.278 315.153 295.586 315.507 295.81C315.862 296.034 316.268 296.146 316.725 296.146ZM324.831 297.168C324.262 297.168 323.786 297.07 323.403 296.874C323.02 296.669 322.736 296.403 322.549 296.076C322.362 295.74 322.269 295.376 322.269 294.984C322.269 294.508 322.39 294.107 322.633 293.78C322.885 293.444 323.235 293.192 323.683 293.024C324.14 292.847 324.677 292.758 325.293 292.758H327.155C327.155 292.319 327.085 291.955 326.945 291.666C326.814 291.367 326.618 291.143 326.357 290.994C326.105 290.845 325.788 290.77 325.405 290.77C324.957 290.77 324.57 290.882 324.243 291.106C323.916 291.33 323.716 291.661 323.641 292.1H322.437C322.493 291.596 322.661 291.176 322.941 290.84C323.23 290.495 323.594 290.233 324.033 290.056C324.472 289.869 324.929 289.776 325.405 289.776C326.058 289.776 326.6 289.897 327.029 290.14C327.468 290.373 327.794 290.705 328.009 291.134C328.224 291.554 328.331 292.053 328.331 292.632V297H327.281L327.211 295.754C327.118 295.95 326.996 296.137 326.847 296.314C326.707 296.482 326.539 296.631 326.343 296.762C326.147 296.883 325.923 296.981 325.671 297.056C325.428 297.131 325.148 297.168 324.831 297.168ZM325.013 296.174C325.34 296.174 325.634 296.109 325.895 295.978C326.166 295.838 326.394 295.651 326.581 295.418C326.768 295.175 326.908 294.909 327.001 294.62C327.104 294.331 327.155 294.027 327.155 293.71V293.668H325.391C324.934 293.668 324.565 293.724 324.285 293.836C324.005 293.939 323.804 294.088 323.683 294.284C323.562 294.471 323.501 294.685 323.501 294.928C323.501 295.18 323.557 295.399 323.669 295.586C323.79 295.773 323.963 295.917 324.187 296.02C324.42 296.123 324.696 296.174 325.013 296.174ZM333.011 297C332.591 297 332.227 296.935 331.919 296.804C331.611 296.673 331.373 296.454 331.205 296.146C331.046 295.829 330.967 295.404 330.967 294.872V290.938H329.735V289.944H330.967L331.121 288.236H332.143V289.944H334.187V290.938H332.143V294.872C332.143 295.311 332.231 295.609 332.409 295.768C332.586 295.917 332.899 295.992 333.347 295.992H334.103V297H333.011ZM338.904 297.168C338.241 297.168 337.653 297.014 337.14 296.706C336.636 296.398 336.239 295.969 335.95 295.418C335.66 294.858 335.516 294.209 335.516 293.472C335.516 292.725 335.656 292.077 335.936 291.526C336.225 290.975 336.626 290.546 337.14 290.238C337.662 289.93 338.26 289.776 338.932 289.776C339.622 289.776 340.206 289.93 340.682 290.238C341.167 290.546 341.536 290.952 341.788 291.456C342.049 291.951 342.18 292.497 342.18 293.094C342.18 293.187 342.18 293.285 342.18 293.388C342.18 293.491 342.175 293.607 342.166 293.738H336.398V292.828H341.032C341.004 292.184 340.789 291.68 340.388 291.316C339.996 290.952 339.501 290.77 338.904 290.77C338.502 290.77 338.129 290.863 337.784 291.05C337.448 291.227 337.177 291.493 336.972 291.848C336.766 292.193 336.664 292.627 336.664 293.15V293.542C336.664 294.121 336.766 294.606 336.972 294.998C337.186 295.39 337.462 295.684 337.798 295.88C338.143 296.076 338.512 296.174 338.904 296.174C339.398 296.174 339.804 296.067 340.122 295.852C340.448 295.628 340.682 295.329 340.822 294.956H341.984C341.872 295.376 341.676 295.754 341.396 296.09C341.116 296.426 340.766 296.692 340.346 296.888C339.935 297.075 339.454 297.168 338.904 297.168ZM348.115 297V287.2H349.487L352.945 294.046L356.417 287.2H357.803V297H356.627V289.3L353.393 295.628H352.511L349.291 289.328V297H348.115ZM363.191 297.168C362.528 297.168 361.94 297.014 361.427 296.706C360.923 296.398 360.526 295.969 360.237 295.418C359.948 294.858 359.803 294.209 359.803 293.472C359.803 292.725 359.943 292.077 360.223 291.526C360.512 290.975 360.914 290.546 361.427 290.238C361.95 289.93 362.547 289.776 363.219 289.776C363.91 289.776 364.493 289.93 364.969 290.238C365.454 290.546 365.823 290.952 366.075 291.456C366.336 291.951 366.467 292.497 366.467 293.094C366.467 293.187 366.467 293.285 366.467 293.388C366.467 293.491 366.462 293.607 366.453 293.738H360.685V292.828H365.319C365.291 292.184 365.076 291.68 364.675 291.316C364.283 290.952 363.788 290.77 363.191 290.77C362.79 290.77 362.416 290.863 362.071 291.05C361.735 291.227 361.464 291.493 361.259 291.848C361.054 292.193 360.951 292.627 360.951 293.15V293.542C360.951 294.121 361.054 294.606 361.259 294.998C361.474 295.39 361.749 295.684 362.085 295.88C362.43 296.076 362.799 296.174 363.191 296.174C363.686 296.174 364.092 296.067 364.409 295.852C364.736 295.628 364.969 295.329 365.109 294.956H366.271C366.159 295.376 365.963 295.754 365.683 296.09C365.403 296.426 365.053 296.692 364.633 296.888C364.222 297.075 363.742 297.168 363.191 297.168ZM370.874 297C370.454 297 370.09 296.935 369.782 296.804C369.474 296.673 369.236 296.454 369.068 296.146C368.909 295.829 368.83 295.404 368.83 294.872V290.938H367.598V289.944H368.83L368.984 288.236H370.006V289.944H372.05V290.938H370.006V294.872C370.006 295.311 370.094 295.609 370.272 295.768C370.449 295.917 370.762 295.992 371.21 295.992H371.966V297H370.874ZM373.864 297V289.944H374.928L375.012 291.288C375.171 290.971 375.371 290.7 375.614 290.476C375.866 290.252 376.165 290.079 376.51 289.958C376.865 289.837 377.266 289.776 377.714 289.776V291.008H377.28C376.981 291.008 376.697 291.05 376.426 291.134C376.155 291.209 375.913 291.335 375.698 291.512C375.493 291.689 375.329 291.932 375.208 292.24C375.096 292.539 375.04 292.912 375.04 293.36V297H373.864ZM379.438 297V289.944H380.614V297H379.438ZM380.026 288.446C379.792 288.446 379.596 288.371 379.438 288.222C379.288 288.063 379.214 287.867 379.214 287.634C379.214 287.401 379.288 287.214 379.438 287.074C379.596 286.925 379.792 286.85 380.026 286.85C380.25 286.85 380.441 286.925 380.6 287.074C380.758 287.214 380.838 287.401 380.838 287.634C380.838 287.867 380.758 288.063 380.6 288.222C380.441 288.371 380.25 288.446 380.026 288.446ZM386.147 297.168C385.484 297.168 384.887 297.014 384.355 296.706C383.832 296.398 383.422 295.969 383.123 295.418C382.824 294.858 382.675 294.214 382.675 293.486C382.675 292.739 382.824 292.091 383.123 291.54C383.422 290.989 383.832 290.56 384.355 290.252C384.887 289.935 385.484 289.776 386.147 289.776C386.987 289.776 387.687 289.995 388.247 290.434C388.807 290.863 389.162 291.442 389.311 292.17H388.107C388.014 291.731 387.785 291.391 387.421 291.148C387.057 290.905 386.628 290.784 386.133 290.784C385.732 290.784 385.358 290.887 385.013 291.092C384.668 291.288 384.392 291.587 384.187 291.988C383.982 292.389 383.879 292.884 383.879 293.472C383.879 293.911 383.94 294.303 384.061 294.648C384.182 294.984 384.346 295.264 384.551 295.488C384.756 295.712 384.994 295.885 385.265 296.006C385.545 296.118 385.834 296.174 386.133 296.174C386.469 296.174 386.772 296.123 387.043 296.02C387.314 295.908 387.542 295.745 387.729 295.53C387.916 295.315 388.042 295.063 388.107 294.774H389.311C389.162 295.483 388.802 296.062 388.233 296.51C387.673 296.949 386.978 297.168 386.147 297.168Z" fill="#EEEFF1"/>
</g>
<path d="M258 284C258 278.477 262.477 274 268 274H286V310H268C262.477 310 258 305.523 258 300V284Z" fill="#86888E"/>
<path d="M266.375 291.375C266.375 290.786 266.375 290.491 266.558 290.308C266.741 290.125 267.036 290.125 267.625 290.125C268.214 290.125 268.509 290.125 268.692 290.308C268.875 290.491 268.875 290.786 268.875 291.375V295.125C268.875 295.714 268.875 296.009 268.692 296.192C268.509 296.375 268.214 296.375 267.625 296.375C267.036 296.375 266.741 296.375 266.558 296.192C266.375 296.009 266.375 295.714 266.375 295.125V291.375Z" stroke="#27292E"/>
<path d="M270.75 288.875C270.75 288.286 270.75 287.991 270.933 287.808C271.116 287.625 271.411 287.625 272 287.625C272.589 287.625 272.884 287.625 273.067 287.808C273.25 287.991 273.25 288.286 273.25 288.875V295.125C273.25 295.714 273.25 296.009 273.067 296.192C272.884 296.375 272.589 296.375 272 296.375C271.411 296.375 271.116 296.375 270.933 296.192C270.75 296.009 270.75 295.714 270.75 295.125V288.875Z" stroke="#27292E"/>
<path d="M275.125 287C275.125 286.411 275.125 286.116 275.308 285.933C275.491 285.75 275.786 285.75 276.375 285.75C276.964 285.75 277.259 285.75 277.442 285.933C277.625 286.116 277.625 286.411 277.625 287V295.125C277.625 295.714 277.625 296.009 277.442 296.192C277.259 296.375 276.964 296.375 276.375 296.375C275.786 296.375 275.491 296.375 275.308 296.192C275.125 296.009 275.125 295.714 275.125 295.125V287Z" stroke="#27292E"/>
<g filter="url(#filter9_d_2483_54952)">
<rect x="258" y="350" width="143" height="36" rx="10" fill="#0C0D0E" shape-rendering="crispEdges"/>
<rect x="258.5" y="350.5" width="142" height="35" rx="9.5" stroke="#86888E" shape-rendering="crispEdges"/>
<path d="M269.75 368C269.75 369.658 270.408 371.247 271.581 372.419C272.753 373.592 274.342 374.25 276 374.25C277.658 374.25 279.247 373.592 280.419 372.419C281.592 371.247 282.25 369.658 282.25 368C282.25 366.342 281.592 364.753 280.419 363.581C279.247 362.408 277.658 361.75 276 361.75C274.342 361.75 272.753 362.408 271.581 363.581C270.408 364.753 269.75 366.342 269.75 368Z" stroke="#86888E"/>
<path d="M272.25 363.444C272.738 363.888 273.742 365.102 273.859 366.405C273.969 367.622 274.772 368.612 276 368.625C276.472 368.63 276.949 368.289 276.948 367.818C276.947 367.672 276.923 367.522 276.886 367.385C276.833 367.194 276.829 366.975 276.938 366.75C277.319 365.964 278.068 365.753 278.662 365.326C278.926 365.137 279.166 364.937 279.272 364.776C279.565 364.332 279.857 363.444 279.711 363" stroke="#86888E"/>
<path d="M282.25 368.625C282.044 369.207 281.898 370.734 279.574 370.759C279.574 370.759 277.515 370.759 276.898 371.922C276.404 372.853 276.692 373.862 276.898 374.25" stroke="#86888E"/>
<path d="M298.578 373.168C297.906 373.168 297.295 373.033 296.744 372.762C296.203 372.491 295.769 372.081 295.442 371.53C295.115 370.97 294.952 370.256 294.952 369.388V363.2H296.128V369.402C296.128 370.037 296.231 370.555 296.436 370.956C296.651 371.357 296.945 371.651 297.318 371.838C297.691 372.025 298.121 372.118 298.606 372.118C299.101 372.118 299.53 372.025 299.894 371.838C300.258 371.651 300.543 371.357 300.748 370.956C300.953 370.555 301.056 370.037 301.056 369.402V363.2H302.232V369.388C302.232 370.256 302.069 370.97 301.742 371.53C301.415 372.081 300.977 372.491 300.426 372.762C299.875 373.033 299.259 373.168 298.578 373.168ZM304.434 376.08V365.944H305.498L305.596 367.092C305.745 366.868 305.936 366.658 306.17 366.462C306.403 366.257 306.683 366.093 307.01 365.972C307.336 365.841 307.71 365.776 308.13 365.776C308.82 365.776 309.418 365.939 309.922 366.266C310.435 366.593 310.832 367.036 311.112 367.596C311.401 368.147 311.546 368.777 311.546 369.486C311.546 370.195 311.401 370.83 311.112 371.39C310.832 371.941 310.435 372.375 309.922 372.692C309.408 373.009 308.806 373.168 308.116 373.168C307.546 373.168 307.042 373.051 306.604 372.818C306.174 372.585 305.843 372.258 305.61 371.838V376.08H304.434ZM307.99 372.146C308.447 372.146 308.853 372.034 309.208 371.81C309.562 371.586 309.838 371.278 310.034 370.886C310.239 370.485 310.342 370.013 310.342 369.472C310.342 368.94 310.239 368.473 310.034 368.072C309.838 367.671 309.562 367.358 309.208 367.134C308.853 366.91 308.447 366.798 307.99 366.798C307.523 366.798 307.112 366.91 306.758 367.134C306.403 367.358 306.128 367.671 305.932 368.072C305.736 368.473 305.638 368.94 305.638 369.472C305.638 370.013 305.736 370.485 305.932 370.886C306.128 371.278 306.403 371.586 306.758 371.81C307.112 372.034 307.523 372.146 307.99 372.146ZM316.585 373.168C315.904 373.168 315.307 373.009 314.793 372.692C314.28 372.365 313.883 371.922 313.603 371.362C313.323 370.802 313.183 370.167 313.183 369.458C313.183 368.749 313.323 368.119 313.603 367.568C313.883 367.008 314.28 366.569 314.793 366.252C315.316 365.935 315.918 365.776 316.599 365.776C317.178 365.776 317.682 365.893 318.111 366.126C318.55 366.359 318.886 366.686 319.119 367.106V362.92H320.296V373H319.231L319.133 371.838C318.984 372.071 318.793 372.291 318.559 372.496C318.326 372.692 318.046 372.855 317.719 372.986C317.393 373.107 317.015 373.168 316.585 373.168ZM316.725 372.146C317.192 372.146 317.603 372.034 317.957 371.81C318.312 371.586 318.587 371.278 318.783 370.886C318.979 370.485 319.077 370.013 319.077 369.472C319.077 368.94 318.979 368.473 318.783 368.072C318.587 367.671 318.312 367.358 317.957 367.134C317.603 366.91 317.192 366.798 316.725 366.798C316.268 366.798 315.862 366.91 315.507 367.134C315.153 367.358 314.877 367.671 314.681 368.072C314.485 368.473 314.387 368.94 314.387 369.472C314.387 370.013 314.485 370.485 314.681 370.886C314.877 371.278 315.153 371.586 315.507 371.81C315.862 372.034 316.268 372.146 316.725 372.146ZM324.831 373.168C324.262 373.168 323.786 373.07 323.403 372.874C323.02 372.669 322.736 372.403 322.549 372.076C322.362 371.74 322.269 371.376 322.269 370.984C322.269 370.508 322.39 370.107 322.633 369.78C322.885 369.444 323.235 369.192 323.683 369.024C324.14 368.847 324.677 368.758 325.293 368.758H327.155C327.155 368.319 327.085 367.955 326.945 367.666C326.814 367.367 326.618 367.143 326.357 366.994C326.105 366.845 325.788 366.77 325.405 366.77C324.957 366.77 324.57 366.882 324.243 367.106C323.916 367.33 323.716 367.661 323.641 368.1H322.437C322.493 367.596 322.661 367.176 322.941 366.84C323.23 366.495 323.594 366.233 324.033 366.056C324.472 365.869 324.929 365.776 325.405 365.776C326.058 365.776 326.6 365.897 327.029 366.14C327.468 366.373 327.794 366.705 328.009 367.134C328.224 367.554 328.331 368.053 328.331 368.632V373H327.281L327.211 371.754C327.118 371.95 326.996 372.137 326.847 372.314C326.707 372.482 326.539 372.631 326.343 372.762C326.147 372.883 325.923 372.981 325.671 373.056C325.428 373.131 325.148 373.168 324.831 373.168ZM325.013 372.174C325.34 372.174 325.634 372.109 325.895 371.978C326.166 371.838 326.394 371.651 326.581 371.418C326.768 371.175 326.908 370.909 327.001 370.62C327.104 370.331 327.155 370.027 327.155 369.71V369.668H325.391C324.934 369.668 324.565 369.724 324.285 369.836C324.005 369.939 323.804 370.088 323.683 370.284C323.562 370.471 323.501 370.685 323.501 370.928C323.501 371.18 323.557 371.399 323.669 371.586C323.79 371.773 323.963 371.917 324.187 372.02C324.42 372.123 324.696 372.174 325.013 372.174ZM333.011 373C332.591 373 332.227 372.935 331.919 372.804C331.611 372.673 331.373 372.454 331.205 372.146C331.046 371.829 330.967 371.404 330.967 370.872V366.938H329.735V365.944H330.967L331.121 364.236H332.143V365.944H334.187V366.938H332.143V370.872C332.143 371.311 332.231 371.609 332.409 371.768C332.586 371.917 332.899 371.992 333.347 371.992H334.103V373H333.011ZM338.904 373.168C338.241 373.168 337.653 373.014 337.14 372.706C336.636 372.398 336.239 371.969 335.95 371.418C335.66 370.858 335.516 370.209 335.516 369.472C335.516 368.725 335.656 368.077 335.936 367.526C336.225 366.975 336.626 366.546 337.14 366.238C337.662 365.93 338.26 365.776 338.932 365.776C339.622 365.776 340.206 365.93 340.682 366.238C341.167 366.546 341.536 366.952 341.788 367.456C342.049 367.951 342.18 368.497 342.18 369.094C342.18 369.187 342.18 369.285 342.18 369.388C342.18 369.491 342.175 369.607 342.166 369.738H336.398V368.828H341.032C341.004 368.184 340.789 367.68 340.388 367.316C339.996 366.952 339.501 366.77 338.904 366.77C338.502 366.77 338.129 366.863 337.784 367.05C337.448 367.227 337.177 367.493 336.972 367.848C336.766 368.193 336.664 368.627 336.664 369.15V369.542C336.664 370.121 336.766 370.606 336.972 370.998C337.186 371.39 337.462 371.684 337.798 371.88C338.143 372.076 338.512 372.174 338.904 372.174C339.398 372.174 339.804 372.067 340.122 371.852C340.448 371.628 340.682 371.329 340.822 370.956H341.984C341.872 371.376 341.676 371.754 341.396 372.09C341.116 372.426 340.766 372.692 340.346 372.888C339.935 373.075 339.454 373.168 338.904 373.168ZM348.115 373V363.2H349.487L352.945 370.046L356.417 363.2H357.803V373H356.627V365.3L353.393 371.628H352.511L349.291 365.328V373H348.115ZM363.191 373.168C362.528 373.168 361.94 373.014 361.427 372.706C360.923 372.398 360.526 371.969 360.237 371.418C359.948 370.858 359.803 370.209 359.803 369.472C359.803 368.725 359.943 368.077 360.223 367.526C360.512 366.975 360.914 366.546 361.427 366.238C361.95 365.93 362.547 365.776 363.219 365.776C363.91 365.776 364.493 365.93 364.969 366.238C365.454 366.546 365.823 366.952 366.075 367.456C366.336 367.951 366.467 368.497 366.467 369.094C366.467 369.187 366.467 369.285 366.467 369.388C366.467 369.491 366.462 369.607 366.453 369.738H360.685V368.828H365.319C365.291 368.184 365.076 367.68 364.675 367.316C364.283 366.952 363.788 366.77 363.191 366.77C362.79 366.77 362.416 366.863 362.071 367.05C361.735 367.227 361.464 367.493 361.259 367.848C361.054 368.193 360.951 368.627 360.951 369.15V369.542C360.951 370.121 361.054 370.606 361.259 370.998C361.474 371.39 361.749 371.684 362.085 371.88C362.43 372.076 362.799 372.174 363.191 372.174C363.686 372.174 364.092 372.067 364.409 371.852C364.736 371.628 364.969 371.329 365.109 370.956H366.271C366.159 371.376 365.963 371.754 365.683 372.09C365.403 372.426 365.053 372.692 364.633 372.888C364.222 373.075 363.742 373.168 363.191 373.168ZM370.874 373C370.454 373 370.09 372.935 369.782 372.804C369.474 372.673 369.236 372.454 369.068 372.146C368.909 371.829 368.83 371.404 368.83 370.872V366.938H367.598V365.944H368.83L368.984 364.236H370.006V365.944H372.05V366.938H370.006V370.872C370.006 371.311 370.094 371.609 370.272 371.768C370.449 371.917 370.762 371.992 371.21 371.992H371.966V373H370.874ZM373.864 373V365.944H374.928L375.012 367.288C375.171 366.971 375.371 366.7 375.614 366.476C375.866 366.252 376.165 366.079 376.51 365.958C376.865 365.837 377.266 365.776 377.714 365.776V367.008H377.28C376.981 367.008 376.697 367.05 376.426 367.134C376.155 367.209 375.913 367.335 375.698 367.512C375.493 367.689 375.329 367.932 375.208 368.24C375.096 368.539 375.04 368.912 375.04 369.36V373H373.864ZM379.438 373V365.944H380.614V373H379.438ZM380.026 364.446C379.792 364.446 379.596 364.371 379.438 364.222C379.288 364.063 379.214 363.867 379.214 363.634C379.214 363.401 379.288 363.214 379.438 363.074C379.596 362.925 379.792 362.85 380.026 362.85C380.25 362.85 380.441 362.925 380.6 363.074C380.758 363.214 380.838 363.401 380.838 363.634C380.838 363.867 380.758 364.063 380.6 364.222C380.441 364.371 380.25 364.446 380.026 364.446ZM386.147 373.168C385.484 373.168 384.887 373.014 384.355 372.706C383.832 372.398 383.422 371.969 383.123 371.418C382.824 370.858 382.675 370.214 382.675 369.486C382.675 368.739 382.824 368.091 383.123 367.54C383.422 366.989 383.832 366.56 384.355 366.252C384.887 365.935 385.484 365.776 386.147 365.776C386.987 365.776 387.687 365.995 388.247 366.434C388.807 366.863 389.162 367.442 389.311 368.17H388.107C388.014 367.731 387.785 367.391 387.421 367.148C387.057 366.905 386.628 366.784 386.133 366.784C385.732 366.784 385.358 366.887 385.013 367.092C384.668 367.288 384.392 367.587 384.187 367.988C383.982 368.389 383.879 368.884 383.879 369.472C383.879 369.911 383.94 370.303 384.061 370.648C384.182 370.984 384.346 371.264 384.551 371.488C384.756 371.712 384.994 371.885 385.265 372.006C385.545 372.118 385.834 372.174 386.133 372.174C386.469 372.174 386.772 372.123 387.043 372.02C387.314 371.908 387.542 371.745 387.729 371.53C387.916 371.315 388.042 371.063 388.107 370.774H389.311C389.162 371.483 388.802 372.062 388.233 372.51C387.673 372.949 386.978 373.168 386.147 373.168Z" fill="#EEEFF1"/>
</g>
<path d="M258 360C258 354.477 262.477 350 268 350H286V386H268C262.477 386 258 381.523 258 376V360Z" fill="#86888E"/>
<path d="M266.375 367.375C266.375 366.786 266.375 366.491 266.558 366.308C266.741 366.125 267.036 366.125 267.625 366.125C268.214 366.125 268.509 366.125 268.692 366.308C268.875 366.491 268.875 366.786 268.875 367.375V371.125C268.875 371.714 268.875 372.009 268.692 372.192C268.509 372.375 268.214 372.375 267.625 372.375C267.036 372.375 266.741 372.375 266.558 372.192C266.375 372.009 266.375 371.714 266.375 371.125V367.375Z" stroke="#27292E"/>
<path d="M270.75 364.875C270.75 364.286 270.75 363.991 270.933 363.808C271.116 363.625 271.411 363.625 272 363.625C272.589 363.625 272.884 363.625 273.067 363.808C273.25 363.991 273.25 364.286 273.25 364.875V371.125C273.25 371.714 273.25 372.009 273.067 372.192C272.884 372.375 272.589 372.375 272 372.375C271.411 372.375 271.116 372.375 270.933 372.192C270.75 372.009 270.75 371.714 270.75 371.125V364.875Z" stroke="#27292E"/>
<path d="M275.125 363C275.125 362.411 275.125 362.116 275.308 361.933C275.491 361.75 275.786 361.75 276.375 361.75C276.964 361.75 277.259 361.75 277.442 361.933C277.625 362.116 277.625 362.411 277.625 363V371.125C277.625 371.714 277.625 372.009 277.442 372.192C277.259 372.375 276.964 372.375 276.375 372.375C275.786 372.375 275.491 372.375 275.308 372.192C275.125 372.009 275.125 371.714 275.125 371.125V363Z" stroke="#27292E"/>
<rect x="230.5" y="212.5" width="8" height="8" rx="1.5" fill="#86888E" stroke="#27292E"/>
<rect x="188.5" y="287.5" width="8" height="8" rx="1.5" fill="#86888E" stroke="#27292E"/>
<rect x="224.5" y="366.5" width="8" height="8" rx="1.5" fill="#86888E" stroke="#27292E"/>
<rect x="254.5" y="212.5" width="8" height="8" rx="1.5" fill="#86888E" stroke="#27292E"/>
<rect x="254.5" y="287.5" width="8" height="8" rx="1.5" fill="#86888E" stroke="#313337"/>
<rect x="254.5" y="366.5" width="8" height="8" rx="1.5" fill="#86888E" stroke="#313337"/>
<rect x="396.5" y="212.5" width="8" height="8" rx="1.5" fill="#86888E" stroke="#27292E"/>
<path d="M57 284C57 278.477 61.4772 274 67 274H85V310H67C61.4772 310 57 305.523 57 300V284Z" fill="#86888E"/>
<path d="M64.75 292C64.75 293.658 65.4085 295.247 66.5806 296.419C67.7527 297.592 69.3424 298.25 71 298.25C72.6576 298.25 74.2473 297.592 75.4194 296.419C76.5915 295.247 77.25 293.658 77.25 292C77.25 290.342 76.5915 288.753 75.4194 287.581C74.2473 286.408 72.6576 285.75 71 285.75C69.3424 285.75 67.7527 286.408 66.5806 287.581C65.4085 288.753 64.75 290.342 64.75 292Z" stroke="#27292E"/>
<path d="M67.25 287.444C67.7377 287.888 68.7422 289.102 68.8593 290.405C68.9687 291.622 69.7723 292.612 71 292.625C71.4718 292.63 71.9489 292.289 71.9478 291.818C71.9474 291.672 71.9233 291.522 71.8856 291.385C71.8332 291.194 71.8286 290.975 71.9375 290.75C72.3187 289.964 73.0684 289.753 73.6624 289.326C73.9259 289.137 74.1662 288.937 74.2722 288.776C74.5648 288.332 74.8574 287.444 74.7111 287" stroke="#27292E"/>
<path d="M77.25 292.625C77.0441 293.207 76.8984 294.734 74.5739 294.759C74.5739 294.759 72.5154 294.759 71.8978 295.922C71.4037 296.853 71.6919 297.862 71.8978 298.25" stroke="#27292E"/>
<path d="M58 360C58 354.477 62.4772 350 68 350H86V386H68C62.4772 386 58 381.523 58 376V360Z" fill="#86888E"/>
<path d="M65.75 368C65.75 369.658 66.4085 371.247 67.5806 372.419C68.7527 373.592 70.3424 374.25 72 374.25C73.6576 374.25 75.2473 373.592 76.4194 372.419C77.5915 371.247 78.25 369.658 78.25 368C78.25 366.342 77.5915 364.753 76.4194 363.581C75.2473 362.408 73.6576 361.75 72 361.75C70.3424 361.75 68.7527 362.408 67.5806 363.581C66.4085 364.753 65.75 366.342 65.75 368Z" stroke="#27292E"/>
<path d="M68.25 363.444C68.7377 363.888 69.7422 365.102 69.8593 366.405C69.9687 367.622 70.7723 368.612 72 368.625C72.4718 368.63 72.9489 368.289 72.9478 367.818C72.9474 367.672 72.9233 367.522 72.8856 367.385C72.8332 367.194 72.8286 366.975 72.9375 366.75C73.3187 365.964 74.0684 365.753 74.6624 365.326C74.9259 365.137 75.1662 364.937 75.2722 364.776C75.5648 364.332 75.8574 363.444 75.7111 363" stroke="#27292E"/>
<path d="M78.25 368.625C78.0441 369.207 77.8984 370.734 75.5739 370.759C75.5739 370.759 73.5154 370.759 72.8978 371.922C72.4037 372.853 72.6919 373.862 72.8978 374.25" stroke="#27292E"/>
<rect x="52.5" y="289.5" width="8" height="8" rx="1.5" fill="#86888E" stroke="#27292E"/>
<rect x="52.5" y="365.5" width="8" height="8" rx="1.5" fill="#86888E" stroke="#27292E"/>
<rect x="396.5" y="288.5" width="8" height="8" rx="1.5" fill="#86888E" stroke="#313337"/>
<rect x="396.5" y="365.5" width="8" height="8" rx="1.5" fill="#86888E" stroke="#313337"/>
<line x1="52" y1="216.5" y2="216.5" stroke="#86888E"/>
<line x1="458" y1="216.5" x2="405" y2="216.5" stroke="#86888E"/>
<line x1="254" y1="217.5" x2="239" y2="217.5" stroke="#86888E"/>
<line x1="254" y1="371.5" x2="233" y2="371.5" stroke="#86888E"/>
<line x1="254" y1="292.5" x2="197" y2="292.5" stroke="#86888E"/>
<path d="M57 209C57 203.477 61.4772 199 67 199H85V235H67C61.4772 235 57 230.523 57 225V209Z" fill="#86888E"/>
<path d="M64.75 217C64.75 218.658 65.4085 220.247 66.5806 221.419C67.7527 222.592 69.3424 223.25 71 223.25C72.6576 223.25 74.2473 222.592 75.4194 221.419C76.5915 220.247 77.25 218.658 77.25 217C77.25 215.342 76.5915 213.753 75.4194 212.581C74.2473 211.408 72.6576 210.75 71 210.75C69.3424 210.75 67.7527 211.408 66.5806 212.581C65.4085 213.753 64.75 215.342 64.75 217Z" stroke="#27292E"/>
<path d="M67.25 212.444C67.7377 212.888 68.7422 214.102 68.8593 215.405C68.9687 216.622 69.7723 217.612 71 217.625C71.4718 217.63 71.9489 217.289 71.9478 216.818C71.9474 216.672 71.9233 216.522 71.8856 216.385C71.8332 216.194 71.8286 215.975 71.9375 215.75C72.3187 214.964 73.0684 214.753 73.6624 214.326C73.9259 214.137 74.1662 213.937 74.2722 213.776C74.5648 213.332 74.8574 212.444 74.7111 212" stroke="#27292E"/>
<path d="M77.25 217.625C77.0441 218.207 76.8984 219.734 74.5739 219.759C74.5739 219.759 72.5154 219.759 71.8978 220.922C71.4037 221.853 71.6919 222.862 71.8978 223.25" stroke="#27292E"/>
<rect x="52.5" y="213.5" width="8" height="8" rx="1.5" fill="#86888E" stroke="#27292E"/>
<path d="M52.03 293.5V293.5C48.6997 293.5 46 290.8 46 287.47V265C46 259.477 50.4772 255 56 255H237C242.523 255 247 250.523 247 245V224.535C247 220.65 243.85 217.5 239.965 217.5V217.5" stroke="#86888E"/>
<path d="M52.4586 370V370C48.8916 370 46 367.108 46 363.541V341.5C46 335.977 50.4772 331.5 56 331.5H205C210.523 331.5 215 327.023 215 321.5V299.542C215 295.653 211.847 292.5 207.958 292.5V292.5" stroke="#86888E"/>
<defs>
<filter id="filter0_f_2483_54952" x="-259" y="-51" width="954" height="726" filterUnits="userSpaceOnUse" color-interpolation-filters="sRGB">
<feFlood flood-opacity="0" result="BackgroundImageFix"/>
<feBlend mode="normal" in="SourceGraphic" in2="BackgroundImageFix" result="shape"/>
<feGaussianBlur stdDeviation="150" result="effect1_foregroundBlur_2483_54952"/>
</filter>
<filter id="filter1_d_2483_54952" x="249" y="232" width="46" height="46" filterUnits="userSpaceOnUse" color-interpolation-filters="sRGB">
<feFlood flood-opacity="0" result="BackgroundImageFix"/>
<feColorMatrix in="SourceAlpha" type="matrix" values="0 0 0 0 0 0 0 0 0 0 0 0 0 0 0 0 0 0 127 0" result="hardAlpha"/>
<feOffset dy="10"/>
<feGaussianBlur stdDeviation="10"/>
<feComposite in2="hardAlpha" operator="out"/>
<feColorMatrix type="matrix" values="0 0 0 0 0 0 0 0 0 0 0 0 0 0 0 0 0 0 0.5 0"/>
<feBlend mode="normal" in2="BackgroundImageFix" result="effect1_dropShadow_2483_54952"/>
<feBlend mode="normal" in="SourceGraphic" in2="effect1_dropShadow_2483_54952" result="shape"/>
</filter>
<filter id="filter2_d_2483_54952" x="248" y="308" width="46" height="46" filterUnits="userSpaceOnUse" color-interpolation-filters="sRGB">
<feFlood flood-opacity="0" result="BackgroundImageFix"/>
<feColorMatrix in="SourceAlpha" type="matrix" values="0 0 0 0 0 0 0 0 0 0 0 0 0 0 0 0 0 0 127 0" result="hardAlpha"/>
<feOffset dy="10"/>
<feGaussianBlur stdDeviation="10"/>
<feComposite in2="hardAlpha" operator="out"/>
<feColorMatrix type="matrix" values="0 0 0 0 0 0 0 0 0 0 0 0 0 0 0 0 0 0 0.5 0"/>
<feBlend mode="normal" in2="BackgroundImageFix" result="effect1_dropShadow_2483_54952"/>
<feBlend mode="normal" in="SourceGraphic" in2="effect1_dropShadow_2483_54952" result="shape"/>
</filter>
<filter id="filter3_d_2483_54952" x="248" y="384" width="46" height="46" filterUnits="userSpaceOnUse" color-interpolation-filters="sRGB">
<feFlood flood-opacity="0" result="BackgroundImageFix"/>
<feColorMatrix in="SourceAlpha" type="matrix" values="0 0 0 0 0 0 0 0 0 0 0 0 0 0 0 0 0 0 127 0" result="hardAlpha"/>
<feOffset dy="10"/>
<feGaussianBlur stdDeviation="10"/>
<feComposite in2="hardAlpha" operator="out"/>
<feColorMatrix type="matrix" values="0 0 0 0 0 0 0 0 0 0 0 0 0 0 0 0 0 0 0.5 0"/>
<feBlend mode="normal" in2="BackgroundImageFix" result="effect1_dropShadow_2483_54952"/>
<feBlend mode="normal" in="SourceGraphic" in2="effect1_dropShadow_2483_54952" result="shape"/>
</filter>
<filter id="filter4_d_2483_54952" x="37" y="188" width="218" height="76" filterUnits="userSpaceOnUse" color-interpolation-filters="sRGB">
<feFlood flood-opacity="0" result="BackgroundImageFix"/>
<feColorMatrix in="SourceAlpha" type="matrix" values="0 0 0 0 0 0 0 0 0 0 0 0 0 0 0 0 0 0 127 0" result="hardAlpha"/>
<feOffset dy="10"/>
<feGaussianBlur stdDeviation="10"/>
<feComposite in2="hardAlpha" operator="out"/>
<feColorMatrix type="matrix" values="0 0 0 0 0 0 0 0 0 0 0 0 0 0 0 0 0 0 0.5 0"/>
<feBlend mode="normal" in2="BackgroundImageFix" result="effect1_dropShadow_2483_54952"/>
<feBlend mode="normal" in="SourceGraphic" in2="effect1_dropShadow_2483_54952" result="shape"/>
</filter>
<filter id="filter5_d_2483_54952" x="37" y="264" width="176" height="76" filterUnits="userSpaceOnUse" color-interpolation-filters="sRGB">
<feFlood flood-opacity="0" result="BackgroundImageFix"/>
<feColorMatrix in="SourceAlpha" type="matrix" values="0 0 0 0 0 0 0 0 0 0 0 0 0 0 0 0 0 0 127 0" result="hardAlpha"/>
<feOffset dy="10"/>
<feGaussianBlur stdDeviation="10"/>
<feComposite in2="hardAlpha" operator="out"/>
<feColorMatrix type="matrix" values="0 0 0 0 0 0 0 0 0 0 0 0 0 0 0 0 0 0 0.5 0"/>
<feBlend mode="normal" in2="BackgroundImageFix" result="effect1_dropShadow_2483_54952"/>
<feBlend mode="normal" in="SourceGraphic" in2="effect1_dropShadow_2483_54952" result="shape"/>
</filter>
<filter id="filter6_d_2483_54952" x="37" y="340" width="212" height="76" filterUnits="userSpaceOnUse" color-interpolation-filters="sRGB">
<feFlood flood-opacity="0" result="BackgroundImageFix"/>
<feColorMatrix in="SourceAlpha" type="matrix" values="0 0 0 0 0 0 0 0 0 0 0 0 0 0 0 0 0 0 127 0" result="hardAlpha"/>
<feOffset dy="10"/>
<feGaussianBlur stdDeviation="10"/>
<feComposite in2="hardAlpha" operator="out"/>
<feColorMatrix type="matrix" values="0 0 0 0 0 0 0 0 0 0 0 0 0 0 0 0 0 0 0.5 0"/>
<feBlend mode="normal" in2="BackgroundImageFix" result="effect1_dropShadow_2483_54952"/>
<feBlend mode="normal" in="SourceGraphic" in2="effect1_dropShadow_2483_54952" result="shape"/>
</filter>
<filter id="filter7_d_2483_54952" x="238" y="188" width="183" height="76" filterUnits="userSpaceOnUse" color-interpolation-filters="sRGB">
<feFlood flood-opacity="0" result="BackgroundImageFix"/>
<feColorMatrix in="SourceAlpha" type="matrix" values="0 0 0 0 0 0 0 0 0 0 0 0 0 0 0 0 0 0 127 0" result="hardAlpha"/>
<feOffset dy="10"/>
<feGaussianBlur stdDeviation="10"/>
<feComposite in2="hardAlpha" operator="out"/>
<feColorMatrix type="matrix" values="0 0 0 0 0 0 0 0 0 0 0 0 0 0 0 0 0 0 0.5 0"/>
<feBlend mode="normal" in2="BackgroundImageFix" result="effect1_dropShadow_2483_54952"/>
<feBlend mode="normal" in="SourceGraphic" in2="effect1_dropShadow_2483_54952" result="shape"/>
</filter>
<filter id="filter8_d_2483_54952" x="238" y="264" width="183" height="76" filterUnits="userSpaceOnUse" color-interpolation-filters="sRGB">
<feFlood flood-opacity="0" result="BackgroundImageFix"/>
<feColorMatrix in="SourceAlpha" type="matrix" values="0 0 0 0 0 0 0 0 0 0 0 0 0 0 0 0 0 0 127 0" result="hardAlpha"/>
<feOffset dy="10"/>
<feGaussianBlur stdDeviation="10"/>
<feComposite in2="hardAlpha" operator="out"/>
<feColorMatrix type="matrix" values="0 0 0 0 0 0 0 0 0 0 0 0 0 0 0 0 0 0 0.5 0"/>
<feBlend mode="normal" in2="BackgroundImageFix" result="effect1_dropShadow_2483_54952"/>
<feBlend mode="normal" in="SourceGraphic" in2="effect1_dropShadow_2483_54952" result="shape"/>
</filter>
<filter id="filter9_d_2483_54952" x="238" y="340" width="183" height="76" filterUnits="userSpaceOnUse" color-interpolation-filters="sRGB">
<feFlood flood-opacity="0" result="BackgroundImageFix"/>
<feColorMatrix in="SourceAlpha" type="matrix" values="0 0 0 0 0 0 0 0 0 0 0 0 0 0 0 0 0 0 127 0" result="hardAlpha"/>
<feOffset dy="10"/>
<feGaussianBlur stdDeviation="10"/>
<feComposite in2="hardAlpha" operator="out"/>
<feColorMatrix type="matrix" values="0 0 0 0 0 0 0 0 0 0 0 0 0 0 0 0 0 0 0.5 0"/>
<feBlend mode="normal" in2="BackgroundImageFix" result="effect1_dropShadow_2483_54952"/>
<feBlend mode="normal" in="SourceGraphic" in2="effect1_dropShadow_2483_54952" result="shape"/>
</filter>
<linearGradient id="paint0_linear_2483_54952" x1="218" y1="249" x2="218" y2="375" gradientUnits="userSpaceOnUse">
<stop stop-color="#0D0D11"/>
<stop offset="1" stop-color="#0D0D11" stop-opacity="0.5"/>
</linearGradient>
</defs>
</svg>
