<svg width="17" height="18" viewBox="0 0 17 18" fill="none" xmlns="http://www.w3.org/2000/svg">
<g clip-path="url(#clip0_2369_54846)">
<path d="M16.564 7.9491C16.535 7.64828 16.4865 7.30307 16.3897 6.91842C16.2928 6.53869 16.1475 6.11951 15.9344 5.68554C15.7213 5.25157 15.4452 4.8028 15.0868 4.3639C14.9464 4.19129 14.7914 4.02362 14.6267 3.86088C14.8737 2.85979 14.3264 1.99184 14.3264 1.99184C13.382 1.93266 12.7814 2.29266 12.5586 2.4554C12.5199 2.44061 12.486 2.42088 12.4472 2.40609C12.2874 2.34198 12.1227 2.27787 11.9484 2.22362C11.7789 2.16938 11.6045 2.12006 11.4253 2.07568C11.2461 2.03129 11.0669 1.99677 10.8828 1.96718C10.8489 1.96225 10.8199 1.95732 10.786 1.95239C10.3743 0.61102 9.19253 0.0488281 9.19253 0.0488281C7.87031 0.901979 7.6233 2.0954 7.6233 2.0954C7.6233 2.0954 7.61846 2.12006 7.60877 2.16444C7.53612 2.18417 7.46347 2.20883 7.39082 2.22855C7.28911 2.25814 7.1874 2.2976 7.09054 2.33705C6.98883 2.3765 6.89196 2.41595 6.79025 2.46033C6.59168 2.5491 6.3931 2.64773 6.19937 2.75623C6.01048 2.86472 5.82644 2.98307 5.64723 3.10636C5.62302 3.0965 5.5988 3.08664 5.5988 3.08664C3.76803 2.3765 2.14552 3.22965 2.14552 3.22965C1.99538 5.21212 2.87686 6.45979 3.05122 6.68664C3.00763 6.80992 2.96889 6.93321 2.93014 7.0565C2.79453 7.50527 2.69282 7.9639 2.62985 8.44225C2.62017 8.51129 2.61048 8.58033 2.60564 8.64937C0.910481 9.50253 0.411621 11.2433 0.411621 11.2433C1.82102 12.8954 3.46775 12.999 3.46775 12.999L3.47259 12.994C3.68085 13.3738 3.92302 13.7338 4.19424 14.074C4.31048 14.217 4.42672 14.3502 4.55265 14.4833C4.03926 15.9825 4.6253 17.2253 4.6253 17.2253C6.19453 17.2844 7.22615 16.525 7.4441 16.3524C7.59908 16.4066 7.75891 16.4559 7.91874 16.4954C8.40307 16.6236 8.89709 16.6976 9.39111 16.7173C9.51219 16.7223 9.63812 16.7272 9.7592 16.7223H9.81732H9.85606H9.93356L10.0111 16.7173V16.7223C10.7521 17.7973 12.0501 17.9502 12.0501 17.9502C12.9752 16.959 13.0284 15.9727 13.0284 15.7606C13.0284 15.7606 13.0284 15.7557 13.0284 15.7458C13.0284 15.7261 13.0284 15.7162 13.0284 15.7162C13.0284 15.7014 13.0284 15.6866 13.0284 15.6718C13.2222 15.5338 13.4062 15.3858 13.5806 15.2231C13.9487 14.8828 14.2732 14.4932 14.5444 14.074C14.5686 14.0346 14.5928 13.9951 14.617 13.9557C15.6632 14.0149 16.4042 13.2949 16.4042 13.2949C16.2299 12.1853 15.6099 11.6428 15.4791 11.5392C15.4791 11.5392 15.4743 11.5343 15.4646 11.5294C15.4549 11.5244 15.4549 11.5195 15.4549 11.5195C15.4501 11.5146 15.4404 11.5096 15.4307 11.5047C15.4356 11.4357 15.4404 11.3716 15.4452 11.3025C15.4549 11.1842 15.4549 11.0609 15.4549 10.9425V10.8538V10.8094V10.7847C15.4549 10.7551 15.4549 10.765 15.4549 10.7551L15.4501 10.6812L15.4452 10.5825C15.4452 10.548 15.4404 10.5184 15.4356 10.4888C15.4307 10.4592 15.4307 10.4247 15.4259 10.3951L15.4162 10.3014L15.4016 10.2077C15.3823 10.0844 15.3629 9.96609 15.3338 9.8428C15.2224 9.36444 15.0384 8.91074 14.8011 8.50143C14.5589 8.09212 14.2586 7.73212 13.9148 7.42636C13.5757 7.12061 13.1931 6.87403 12.796 6.69157C12.394 6.5091 11.9774 6.39075 11.5609 6.3365C11.3526 6.30691 11.1444 6.29705 10.9361 6.30198H10.8586H10.8393C10.8344 6.30198 10.8102 6.30198 10.815 6.30198H10.7811L10.7036 6.30691C10.6746 6.30691 10.6455 6.31184 10.6213 6.31184C10.5148 6.3217 10.4082 6.3365 10.3065 6.35622C9.88997 6.43513 9.49766 6.58801 9.15379 6.80006C8.80991 7.01212 8.50963 7.27349 8.26746 7.56938C8.0253 7.86527 7.83641 8.19568 7.70564 8.53595C7.57487 8.87623 7.50222 9.23129 7.48285 9.57157C7.478 9.6554 7.478 9.74417 7.478 9.82801C7.478 9.84773 7.478 9.87239 7.478 9.89212L7.48285 9.96116C7.48769 10.0006 7.48769 10.045 7.49253 10.0844C7.50706 10.257 7.54097 10.4247 7.58456 10.5825C7.67658 10.9031 7.82188 11.194 8.00108 11.4406C8.18028 11.6872 8.39823 11.8894 8.62587 12.0521C8.8535 12.2099 9.10051 12.3233 9.34267 12.3973C9.58484 12.4713 9.82701 12.5009 10.0546 12.5009C10.0837 12.5009 10.1128 12.5009 10.137 12.5009C10.1515 12.5009 10.166 12.5009 10.1806 12.5009C10.1951 12.5009 10.2096 12.5009 10.2242 12.496C10.2484 12.496 10.2726 12.491 10.2968 12.491C10.3016 12.491 10.3113 12.491 10.3162 12.4861L10.3404 12.4812C10.3549 12.4812 10.3695 12.4762 10.384 12.4762C10.413 12.4713 10.4373 12.4664 10.4663 12.4614C10.4954 12.4565 10.5196 12.4516 10.5438 12.4417C10.5971 12.4318 10.6455 12.4121 10.694 12.3973C10.7908 12.3628 10.8877 12.3233 10.97 12.279C11.0572 12.2346 11.1347 12.1803 11.2122 12.131C11.2316 12.1162 11.2558 12.1014 11.2752 12.0817C11.3526 12.0176 11.3672 11.8992 11.3042 11.8203C11.2509 11.7513 11.1541 11.7316 11.0766 11.776C11.0572 11.7858 11.0378 11.7957 11.0185 11.8055C10.9507 11.8401 10.8828 11.8696 10.8102 11.8943C10.7375 11.919 10.6601 11.9387 10.5826 11.9535C10.5438 11.9584 10.5051 11.9633 10.4615 11.9683C10.4421 11.9683 10.4227 11.9732 10.3985 11.9732C10.3791 11.9732 10.3549 11.9732 10.3404 11.9732C10.321 11.9732 10.3016 11.9732 10.2823 11.9732C10.2581 11.9732 10.2338 11.9732 10.2096 11.9683C10.2096 11.9683 10.1951 11.9683 10.2048 11.9683H10.1951H10.1806C10.1709 11.9683 10.1564 11.9683 10.1467 11.9633C10.1224 11.9584 10.1031 11.9584 10.0789 11.9535C9.89966 11.9288 9.72045 11.8746 9.55094 11.7957C9.37658 11.7168 9.21191 11.6083 9.06176 11.4702C8.91162 11.3321 8.78085 11.1694 8.67914 10.982C8.57743 10.7946 8.50478 10.5875 8.47088 10.3705C8.45635 10.262 8.44666 10.1486 8.45151 10.0401C8.45151 10.0105 8.45635 9.98088 8.45635 9.95129C8.45635 9.96116 8.45635 9.94636 8.45635 9.94636V9.9365V9.91184C8.45635 9.89705 8.46119 9.88225 8.46119 9.86746C8.46604 9.80828 8.47572 9.7491 8.48541 9.68992C8.56775 9.2165 8.80023 8.75294 9.15863 8.4028C9.25065 8.31403 9.34752 8.23513 9.44923 8.16116C9.55094 8.08718 9.66233 8.02307 9.77857 7.96883C9.89481 7.91458 10.0111 7.8702 10.137 7.83568C10.2581 7.80116 10.384 7.78143 10.5148 7.76664C10.5777 7.7617 10.6407 7.75677 10.7085 7.75677C10.7279 7.75677 10.7375 7.75677 10.7521 7.75677H10.8054H10.8393C10.8538 7.75677 10.8393 7.75677 10.8441 7.75677H10.8586L10.9119 7.7617C11.0524 7.77157 11.188 7.79129 11.3236 7.82581C11.5948 7.88499 11.8612 7.98855 12.1082 8.12664C12.6022 8.40773 13.0236 8.8417 13.2803 9.36444C13.4111 9.62581 13.5031 9.90691 13.5467 10.1979C13.5564 10.2718 13.566 10.3458 13.5709 10.4198L13.5757 10.474L13.5806 10.5283C13.5806 10.548 13.5806 10.5677 13.5806 10.5825C13.5806 10.6023 13.5806 10.622 13.5806 10.6368V10.6861V10.7403C13.5806 10.7749 13.5757 10.834 13.5757 10.8686C13.5709 10.9475 13.5612 11.0313 13.5515 11.1102C13.5418 11.1891 13.5273 11.268 13.5128 11.3469C13.4982 11.4258 13.4789 11.5047 13.4595 11.5787C13.4207 11.7316 13.3723 11.8844 13.3142 12.0373C13.1979 12.3332 13.043 12.6192 12.8589 12.8806C12.486 13.4033 11.9774 13.8275 11.3962 14.0987C11.1056 14.2318 10.8005 14.3305 10.4857 14.3798C10.3307 14.4094 10.1709 14.4242 10.0111 14.4291H9.98199H9.95778H9.9045H9.82701H9.78826C9.80763 14.4291 9.78342 14.4291 9.78342 14.4291H9.76889C9.68171 14.4291 9.59937 14.4242 9.51219 14.4143C9.17316 14.3896 8.83897 14.3255 8.50963 14.2318C8.18512 14.1381 7.87031 14.005 7.57003 13.8472C6.9743 13.5217 6.43669 13.0779 6.02017 12.5403C5.81191 12.274 5.62786 11.9831 5.47772 11.6823C5.32758 11.3814 5.20649 11.0609 5.11931 10.7403C5.03213 10.4149 4.97886 10.0844 4.95464 9.7491L4.9498 9.68499V9.6702V9.6554V9.62581V9.57157V9.55677V9.53705V9.49759V9.41869V9.4039C4.9498 9.4039 4.9498 9.40883 4.9498 9.39896V9.36938C4.9498 9.32992 4.9498 9.28554 4.9498 9.24609C4.95464 9.08335 4.96917 8.91075 4.98854 8.74307C5.00792 8.5754 5.03698 8.4028 5.07088 8.23513C5.10478 8.06746 5.14353 7.89979 5.19196 7.73212C5.28399 7.4017 5.40023 7.08116 5.53584 6.78033C5.81191 6.17869 6.17031 5.64116 6.60136 5.21212C6.70792 5.10362 6.81931 5.00499 6.93555 4.90636C7.05179 4.81266 7.17287 4.7239 7.2988 4.64006C7.41988 4.55622 7.55065 4.48225 7.68142 4.41321C7.74438 4.37869 7.81219 4.34417 7.88 4.31458C7.9139 4.29979 7.9478 4.28499 7.98171 4.2702C8.01561 4.2554 8.04951 4.24061 8.08342 4.22581C8.21903 4.16664 8.35948 4.11732 8.50478 4.07294C8.53869 4.06307 8.57743 4.05321 8.61134 4.03842C8.64524 4.02855 8.68399 4.01869 8.71789 4.00883C8.79054 3.9891 8.86319 3.96938 8.93584 3.95458C8.96974 3.94472 9.00849 3.93979 9.04723 3.92992C9.08598 3.92006 9.11988 3.91513 9.15863 3.90527C9.19738 3.90033 9.23128 3.89047 9.27003 3.88554L9.3233 3.87568L9.38142 3.86581C9.42017 3.86088 9.45407 3.85595 9.49282 3.85102C9.53641 3.84609 9.57515 3.84116 9.61874 3.83623C9.65265 3.83129 9.71077 3.82636 9.74467 3.82143C9.76889 3.8165 9.79795 3.8165 9.82216 3.81157L9.87544 3.80664L9.89965 3.8017H9.92871C9.9723 3.79677 10.0111 3.79677 10.0546 3.79184L10.1176 3.78691C10.1176 3.78691 10.1418 3.78691 10.1224 3.78691H10.137H10.166C10.1999 3.78691 10.2387 3.78198 10.2726 3.78198C10.413 3.77705 10.5583 3.77705 10.6988 3.78198C10.9797 3.79184 11.2558 3.82636 11.5222 3.87568C12.0598 3.97924 12.5635 4.15184 13.0236 4.38362C13.4837 4.61047 13.8905 4.89157 14.2489 5.19732C14.2732 5.21705 14.2925 5.23677 14.3167 5.2565C14.3361 5.27623 14.3603 5.29595 14.3797 5.31568C14.4233 5.35513 14.462 5.39458 14.5056 5.43403C14.5492 5.47348 14.588 5.51294 14.6267 5.55239C14.6655 5.59184 14.7042 5.63129 14.743 5.67568C14.8931 5.83842 15.0336 6.00116 15.1595 6.16883C15.4113 6.49924 15.6148 6.83458 15.7746 7.1502C15.7843 7.16992 15.794 7.18965 15.8036 7.20938C15.8133 7.2291 15.823 7.24883 15.8327 7.26855C15.8521 7.30801 15.8714 7.34746 15.886 7.38691C15.9054 7.42636 15.9199 7.46088 15.9393 7.50033C15.9538 7.53979 15.9732 7.57431 15.9877 7.61376C16.0458 7.7617 16.1039 7.90472 16.1475 8.03787C16.2202 8.25486 16.2734 8.44718 16.317 8.61485C16.3316 8.6839 16.3945 8.72828 16.4623 8.71842C16.535 8.71348 16.5883 8.65431 16.5883 8.58033C16.5931 8.4028 16.5883 8.19075 16.564 7.9491Z" fill="url(#paint0_linear_2369_54846)"/>
</g>
<defs>
<linearGradient id="paint0_linear_2369_54846" x1="8.49994" y1="5.39951" x2="8.49994" y2="17.8195" gradientUnits="userSpaceOnUse">
<stop stop-color="#F05A28"/>
<stop offset="1" stop-color="#FBCA0A"/>
</linearGradient>
<clipPath id="clip0_2369_54846">
<rect width="17" height="18" fill="white"/>
</clipPath>
</defs>
</svg>
