<svg width="402" height="136" viewBox="0 0 402 136" fill="none" xmlns="http://www.w3.org/2000/svg">
<rect width="407" height="136" rx="5" fill="#1D1F22"/>
<path d="M13.032 17.096C12.488 17.096 12.016 16.976 11.616 16.736C11.2213 16.4907 10.9173 16.152 10.704 15.72C10.4907 15.2827 10.384 14.776 10.384 14.2C10.384 13.624 10.4907 13.12 10.704 12.688C10.9173 12.2507 11.2213 11.912 11.616 11.672C12.016 11.4267 12.488 11.304 13.032 11.304C13.672 11.304 14.192 11.456 14.592 11.76C14.992 12.064 15.248 12.4933 15.36 13.048H14.616C14.5307 12.7013 14.3573 12.424 14.096 12.216C13.8347 12.0027 13.48 11.896 13.032 11.896C12.632 11.896 12.2853 11.9893 11.992 12.176C11.6987 12.3573 11.472 12.6213 11.312 12.968C11.152 13.3093 11.072 13.72 11.072 14.2C11.072 14.68 11.152 15.0933 11.312 15.44C11.472 15.7813 11.6987 16.0453 11.992 16.232C12.2853 16.4133 12.632 16.504 13.032 16.504C13.48 16.504 13.8347 16.4027 14.096 16.2C14.3573 15.992 14.5307 15.7173 14.616 15.376H15.36C15.248 15.9147 14.992 16.336 14.592 16.64C14.192 16.944 13.672 17.096 13.032 17.096ZM18.2544 17.096C17.881 17.096 17.545 17.0107 17.2464 16.84C16.9477 16.664 16.713 16.4187 16.5424 16.104C16.3717 15.784 16.2864 15.4133 16.2864 14.992C16.2864 14.56 16.3717 14.1867 16.5424 13.872C16.7184 13.552 16.9557 13.3067 17.2544 13.136C17.5584 12.96 17.897 12.872 18.2704 12.872C18.6544 12.872 18.993 12.96 19.2864 13.136C19.585 13.3067 19.8197 13.552 19.9904 13.872C20.1664 14.1867 20.2544 14.5573 20.2544 14.984C20.2544 15.4107 20.1664 15.784 19.9904 16.104C19.8144 16.4187 19.577 16.664 19.2784 16.84C18.9797 17.0107 18.6384 17.096 18.2544 17.096ZM18.2624 16.52C18.4917 16.52 18.705 16.464 18.9024 16.352C19.0997 16.2347 19.2597 16.0613 19.3824 15.832C19.505 15.6027 19.5664 15.32 19.5664 14.984C19.5664 14.6427 19.505 14.36 19.3824 14.136C19.265 13.9067 19.1077 13.736 18.9104 13.624C18.7184 13.5067 18.505 13.448 18.2704 13.448C18.0464 13.448 17.833 13.5067 17.6304 13.624C17.433 13.736 17.273 13.9067 17.1504 14.136C17.033 14.36 16.9744 14.6427 16.9744 14.984C16.9744 15.32 17.033 15.6027 17.1504 15.832C17.273 16.0613 17.4304 16.2347 17.6224 16.352C17.8197 16.464 18.033 16.52 18.2624 16.52ZM21.3566 17V12.968H21.9646L22.0046 13.544C22.1326 13.336 22.3032 13.1733 22.5166 13.056C22.7352 12.9333 22.9726 12.872 23.2286 12.872C23.4366 12.872 23.6232 12.9013 23.7886 12.96C23.9592 13.0133 24.1086 13.0987 24.2366 13.216C24.3646 13.328 24.4686 13.472 24.5486 13.648C24.6872 13.4027 24.8766 13.2133 25.1166 13.08C25.3619 12.9413 25.6232 12.872 25.9006 12.872C26.2099 12.872 26.4792 12.936 26.7086 13.064C26.9432 13.1867 27.1219 13.376 27.2446 13.632C27.3726 13.8827 27.4366 14.2027 27.4366 14.592V17H26.7726V14.664C26.7726 14.2587 26.6899 13.9547 26.5246 13.752C26.3592 13.5493 26.1272 13.448 25.8286 13.448C25.6206 13.448 25.4339 13.504 25.2686 13.616C25.1032 13.7227 24.9726 13.88 24.8766 14.088C24.7806 14.296 24.7326 14.552 24.7326 14.856V17H24.0606V14.664C24.0606 14.2587 23.9779 13.9547 23.8126 13.752C23.6472 13.5493 23.4126 13.448 23.1086 13.448C22.9059 13.448 22.7219 13.504 22.5566 13.616C22.3966 13.7227 22.2686 13.88 22.1726 14.088C22.0766 14.296 22.0286 14.552 22.0286 14.856V17H21.3566ZM28.6416 17V12.968H29.2496L29.2896 13.544C29.4176 13.336 29.5882 13.1733 29.8016 13.056C30.0202 12.9333 30.2576 12.872 30.5136 12.872C30.7216 12.872 30.9082 12.9013 31.0736 12.96C31.2442 13.0133 31.3936 13.0987 31.5216 13.216C31.6496 13.328 31.7536 13.472 31.8336 13.648C31.9722 13.4027 32.1616 13.2133 32.4016 13.08C32.6469 12.9413 32.9082 12.872 33.1856 12.872C33.4949 12.872 33.7642 12.936 33.9936 13.064C34.2282 13.1867 34.4069 13.376 34.5296 13.632C34.6576 13.8827 34.7216 14.2027 34.7216 14.592V17H34.0576V14.664C34.0576 14.2587 33.9749 13.9547 33.8096 13.752C33.6442 13.5493 33.4122 13.448 33.1136 13.448C32.9056 13.448 32.7189 13.504 32.5536 13.616C32.3882 13.7227 32.2576 13.88 32.1616 14.088C32.0656 14.296 32.0176 14.552 32.0176 14.856V17H31.3456V14.664C31.3456 14.2587 31.2629 13.9547 31.0976 13.752C30.9322 13.5493 30.6976 13.448 30.3936 13.448C30.1909 13.448 30.0069 13.504 29.8416 13.616C29.6816 13.7227 29.5536 13.88 29.4576 14.088C29.3616 14.296 29.3136 14.552 29.3136 14.856V17H28.6416ZM37.2386 17.096C36.9132 17.096 36.6412 17.04 36.4226 16.928C36.2039 16.8107 36.0412 16.6587 35.9346 16.472C35.8279 16.28 35.7746 16.072 35.7746 15.848C35.7746 15.576 35.8439 15.3467 35.9826 15.16C36.1266 14.968 36.3266 14.824 36.5826 14.728C36.8439 14.6267 37.1506 14.576 37.5026 14.576H38.5666C38.5666 14.3253 38.5266 14.1173 38.4466 13.952C38.3719 13.7813 38.2599 13.6533 38.1106 13.568C37.9666 13.4827 37.7852 13.44 37.5666 13.44C37.3106 13.44 37.0892 13.504 36.9026 13.632C36.7159 13.76 36.6012 13.9493 36.5586 14.2H35.8706C35.9026 13.912 35.9986 13.672 36.1586 13.48C36.3239 13.2827 36.5319 13.1333 36.7826 13.032C37.0332 12.9253 37.2946 12.872 37.5666 12.872C37.9399 12.872 38.2492 12.9413 38.4946 13.08C38.7452 13.2133 38.9319 13.4027 39.0546 13.648C39.1772 13.888 39.2386 14.1733 39.2386 14.504V17H38.6386L38.5986 16.288C38.5452 16.4 38.4759 16.5067 38.3906 16.608C38.3106 16.704 38.2146 16.7893 38.1026 16.864C37.9906 16.9333 37.8626 16.9893 37.7186 17.032C37.5799 17.0747 37.4199 17.096 37.2386 17.096ZM37.3426 16.528C37.5292 16.528 37.6972 16.4907 37.8466 16.416C38.0012 16.336 38.1319 16.2293 38.2386 16.096C38.3452 15.9573 38.4252 15.8053 38.4786 15.64C38.5372 15.4747 38.5666 15.3013 38.5666 15.12V15.096H37.5586C37.2972 15.096 37.0866 15.128 36.9266 15.192C36.7666 15.2507 36.6519 15.336 36.5826 15.448C36.5132 15.5547 36.4786 15.6773 36.4786 15.816C36.4786 15.96 36.5106 16.0853 36.5746 16.192C36.6439 16.2987 36.7426 16.3813 36.8706 16.44C37.0039 16.4987 37.1612 16.528 37.3426 16.528ZM40.4381 17V12.968H41.0461L41.0781 13.672C41.2061 13.4213 41.3875 13.2267 41.6221 13.088C41.8621 12.944 42.1341 12.872 42.4381 12.872C42.7528 12.872 43.0248 12.936 43.2541 13.064C43.4835 13.1867 43.6621 13.376 43.7901 13.632C43.9181 13.8827 43.9821 14.2027 43.9821 14.592V17H43.3101V14.664C43.3101 14.2587 43.2195 13.9547 43.0381 13.752C42.8621 13.5493 42.6115 13.448 42.2861 13.448C42.0621 13.448 41.8621 13.504 41.6861 13.616C41.5101 13.7227 41.3688 13.88 41.2621 14.088C41.1608 14.2907 41.1101 14.544 41.1101 14.848V17H40.4381ZM46.9679 17.096C46.5785 17.096 46.2372 17.0053 45.9439 16.824C45.6505 16.6373 45.4239 16.384 45.2639 16.064C45.1039 15.744 45.0239 15.3813 45.0239 14.976C45.0239 14.5707 45.1039 14.2107 45.2639 13.896C45.4239 13.576 45.6505 13.3253 45.9439 13.144C46.2425 12.9627 46.5865 12.872 46.9759 12.872C47.3065 12.872 47.5945 12.9387 47.8399 13.072C48.0905 13.2053 48.2825 13.392 48.4159 13.632V11.24H49.0879V17H48.4799L48.4239 16.336C48.3385 16.4693 48.2292 16.5947 48.0959 16.712C47.9625 16.824 47.8025 16.9173 47.6159 16.992C47.4292 17.0613 47.2132 17.096 46.9679 17.096ZM47.0479 16.512C47.3145 16.512 47.5492 16.448 47.7519 16.32C47.9545 16.192 48.1119 16.016 48.2239 15.792C48.3359 15.5627 48.3919 15.2933 48.3919 14.984C48.3919 14.68 48.3359 14.4133 48.2239 14.184C48.1119 13.9547 47.9545 13.776 47.7519 13.648C47.5492 13.52 47.3145 13.456 47.0479 13.456C46.7865 13.456 46.5545 13.52 46.3519 13.648C46.1492 13.776 45.9919 13.9547 45.8799 14.184C45.7679 14.4133 45.7119 14.68 45.7119 14.984C45.7119 15.2933 45.7679 15.5627 45.8799 15.792C45.9919 16.016 46.1492 16.192 46.3519 16.32C46.5545 16.448 46.7865 16.512 47.0479 16.512ZM51.8875 17.096C51.5515 17.096 51.2582 17.04 51.0075 16.928C50.7622 16.816 50.5648 16.6613 50.4155 16.464C50.2715 16.2613 50.1835 16.024 50.1515 15.752H50.8395C50.8662 15.8907 50.9222 16.0187 51.0075 16.136C51.0928 16.2533 51.2075 16.3493 51.3515 16.424C51.5008 16.4933 51.6822 16.528 51.8955 16.528C52.0822 16.528 52.2368 16.5013 52.3595 16.448C52.4822 16.3893 52.5728 16.312 52.6315 16.216C52.6955 16.12 52.7275 16.016 52.7275 15.904C52.7275 15.7387 52.6875 15.6133 52.6075 15.528C52.5328 15.4427 52.4208 15.376 52.2715 15.328C52.1222 15.2747 51.9408 15.2293 51.7275 15.192C51.5515 15.16 51.3782 15.1173 51.2075 15.064C51.0368 15.0107 50.8848 14.9413 50.7515 14.856C50.6182 14.7653 50.5115 14.656 50.4315 14.528C50.3568 14.4 50.3195 14.2427 50.3195 14.056C50.3195 13.8267 50.3782 13.624 50.4955 13.448C50.6128 13.2667 50.7808 13.1253 50.9995 13.024C51.2235 12.9227 51.4822 12.872 51.7755 12.872C52.2075 12.872 52.5568 12.976 52.8235 13.184C53.0902 13.392 53.2475 13.6933 53.2955 14.088H52.6315C52.6048 13.8853 52.5168 13.728 52.3675 13.616C52.2235 13.4987 52.0235 13.44 51.7675 13.44C51.5168 13.44 51.3248 13.4907 51.1915 13.592C51.0635 13.6933 50.9995 13.8267 50.9995 13.992C50.9995 14.0987 51.0342 14.1947 51.1035 14.28C51.1782 14.36 51.2848 14.4293 51.4235 14.488C51.5675 14.5467 51.7435 14.5947 51.9515 14.632C52.2182 14.68 52.4608 14.744 52.6795 14.824C52.8982 14.904 53.0742 15.024 53.2075 15.184C53.3462 15.3387 53.4155 15.56 53.4155 15.848C53.4155 16.0987 53.3515 16.3173 53.2235 16.504C53.1008 16.6907 52.9248 16.8373 52.6955 16.944C52.4662 17.0453 52.1968 17.096 51.8875 17.096Z" fill="#86888E"/>
<path d="M39 46L50 41.5H74.5L92.5 43.5L107 41.5L141 44.5L189 41.5L252 45L322.5 41.5L373.5 45L428 38" stroke="#C7973F"/>
<path d="M39.5 49.5L51.5 45H74.5L88.5 47.5L108 44L140.5 49.5L189 44L253 48L322 45L376 48L429.5 41.5" stroke="#5D97A6"/>
<path d="M39 70H51H74H95L107.5 69L148.5 70L188.5 69L254 70L323 66.5L383.5 69L429 66.5" stroke="#A65DA0"/>
<path d="M11.216 49V44.152L10.256 44.392V43.912L11.44 43.4H11.896V49H11.216ZM15.3962 49.096C14.9055 49.096 14.4815 48.976 14.1242 48.736C13.7722 48.4907 13.5029 48.152 13.3162 47.72C13.1295 47.2827 13.0362 46.776 13.0362 46.2C13.0362 45.624 13.1295 45.12 13.3162 44.688C13.5029 44.2507 13.7722 43.912 14.1242 43.672C14.4815 43.4267 14.9055 43.304 15.3962 43.304C15.8869 43.304 16.3055 43.4267 16.6522 43.672C17.0042 43.912 17.2735 44.2507 17.4602 44.688C17.6469 45.12 17.7402 45.624 17.7402 46.2C17.7402 46.776 17.6469 47.2827 17.4602 47.72C17.2735 48.152 17.0042 48.4907 16.6522 48.736C16.3055 48.976 15.8869 49.096 15.3962 49.096ZM15.3882 48.504C15.7082 48.504 15.9935 48.4133 16.2442 48.232C16.4949 48.0453 16.6922 47.7813 16.8362 47.44C16.9802 47.0933 17.0522 46.68 17.0522 46.2C17.0522 45.72 16.9802 45.3093 16.8362 44.968C16.6922 44.6213 16.4949 44.3573 16.2442 44.176C15.9935 43.9947 15.7082 43.904 15.3882 43.904C15.0682 43.904 14.7802 43.9947 14.5242 44.176C14.2735 44.3573 14.0762 44.6213 13.9322 44.968C13.7935 45.3093 13.7242 45.72 13.7242 46.2C13.7242 46.68 13.7935 47.0933 13.9322 47.44C14.0762 47.7813 14.2735 48.0453 14.5242 48.232C14.7802 48.4133 15.0682 48.504 15.3882 48.504ZM21.0249 49.096C20.5343 49.096 20.1103 48.976 19.7529 48.736C19.4009 48.4907 19.1316 48.152 18.9449 47.72C18.7583 47.2827 18.6649 46.776 18.6649 46.2C18.6649 45.624 18.7583 45.12 18.9449 44.688C19.1316 44.2507 19.4009 43.912 19.7529 43.672C20.1103 43.4267 20.5343 43.304 21.0249 43.304C21.5156 43.304 21.9343 43.4267 22.2809 43.672C22.6329 43.912 22.9023 44.2507 23.0889 44.688C23.2756 45.12 23.3689 45.624 23.3689 46.2C23.3689 46.776 23.2756 47.2827 23.0889 47.72C22.9023 48.152 22.6329 48.4907 22.2809 48.736C21.9343 48.976 21.5156 49.096 21.0249 49.096ZM21.0169 48.504C21.3369 48.504 21.6223 48.4133 21.8729 48.232C22.1236 48.0453 22.3209 47.7813 22.4649 47.44C22.6089 47.0933 22.6809 46.68 22.6809 46.2C22.6809 45.72 22.6089 45.3093 22.4649 44.968C22.3209 44.6213 22.1236 44.3573 21.8729 44.176C21.6223 43.9947 21.3369 43.904 21.0169 43.904C20.6969 43.904 20.4089 43.9947 20.1529 44.176C19.9023 44.3573 19.7049 44.6213 19.5609 44.968C19.4223 45.3093 19.3529 45.72 19.3529 46.2C19.3529 46.68 19.4223 47.0933 19.5609 47.44C19.7049 47.7813 19.9023 48.0453 20.1529 48.232C20.4089 48.4133 20.6969 48.504 21.0169 48.504ZM26.6537 49.096C26.163 49.096 25.739 48.976 25.3817 48.736C25.0297 48.4907 24.7604 48.152 24.5737 47.72C24.387 47.2827 24.2937 46.776 24.2937 46.2C24.2937 45.624 24.387 45.12 24.5737 44.688C24.7604 44.2507 25.0297 43.912 25.3817 43.672C25.739 43.4267 26.163 43.304 26.6537 43.304C27.1444 43.304 27.563 43.4267 27.9097 43.672C28.2617 43.912 28.531 44.2507 28.7177 44.688C28.9044 45.12 28.9977 45.624 28.9977 46.2C28.9977 46.776 28.9044 47.2827 28.7177 47.72C28.531 48.152 28.2617 48.4907 27.9097 48.736C27.563 48.976 27.1444 49.096 26.6537 49.096ZM26.6457 48.504C26.9657 48.504 27.251 48.4133 27.5017 48.232C27.7524 48.0453 27.9497 47.7813 28.0937 47.44C28.2377 47.0933 28.3097 46.68 28.3097 46.2C28.3097 45.72 28.2377 45.3093 28.0937 44.968C27.9497 44.6213 27.7524 44.3573 27.5017 44.176C27.251 43.9947 26.9657 43.904 26.6457 43.904C26.3257 43.904 26.0377 43.9947 25.7817 44.176C25.531 44.3573 25.3337 44.6213 25.1897 44.968C25.051 45.3093 24.9817 45.72 24.9817 46.2C24.9817 46.68 25.051 47.0933 25.1897 47.44C25.3337 47.7813 25.531 48.0453 25.7817 48.232C26.0377 48.4133 26.3257 48.504 26.6457 48.504Z" fill="#86888E"/>
<path d="M13.136 71V69.8H10.296V69.28L13.016 65.4H13.8V69.208H14.632V69.8H13.8V71H13.136ZM11.04 69.208H13.168V66.144L11.04 69.208ZM17.7634 71.096C17.2727 71.096 16.8487 70.976 16.4914 70.736C16.1394 70.4907 15.87 70.152 15.6834 69.72C15.4967 69.2827 15.4034 68.776 15.4034 68.2C15.4034 67.624 15.4967 67.12 15.6834 66.688C15.87 66.2507 16.1394 65.912 16.4914 65.672C16.8487 65.4267 17.2727 65.304 17.7634 65.304C18.254 65.304 18.6727 65.4267 19.0194 65.672C19.3714 65.912 19.6407 66.2507 19.8274 66.688C20.014 67.12 20.1074 67.624 20.1074 68.2C20.1074 68.776 20.014 69.2827 19.8274 69.72C19.6407 70.152 19.3714 70.4907 19.0194 70.736C18.6727 70.976 18.254 71.096 17.7634 71.096ZM17.7554 70.504C18.0754 70.504 18.3607 70.4133 18.6114 70.232C18.862 70.0453 19.0594 69.7813 19.2034 69.44C19.3474 69.0933 19.4194 68.68 19.4194 68.2C19.4194 67.72 19.3474 67.3093 19.2034 66.968C19.0594 66.6213 18.862 66.3573 18.6114 66.176C18.3607 65.9947 18.0754 65.904 17.7554 65.904C17.4354 65.904 17.1474 65.9947 16.8914 66.176C16.6407 66.3573 16.4434 66.6213 16.2994 66.968C16.1607 67.3093 16.0914 67.72 16.0914 68.2C16.0914 68.68 16.1607 69.0933 16.2994 69.44C16.4434 69.7813 16.6407 70.0453 16.8914 70.232C17.1474 70.4133 17.4354 70.504 17.7554 70.504ZM23.3921 71.096C22.9015 71.096 22.4775 70.976 22.1201 70.736C21.7681 70.4907 21.4988 70.152 21.3121 69.72C21.1255 69.2827 21.0321 68.776 21.0321 68.2C21.0321 67.624 21.1255 67.12 21.3121 66.688C21.4988 66.2507 21.7681 65.912 22.1201 65.672C22.4775 65.4267 22.9015 65.304 23.3921 65.304C23.8828 65.304 24.3015 65.4267 24.6481 65.672C25.0001 65.912 25.2695 66.2507 25.4561 66.688C25.6428 67.12 25.7361 67.624 25.7361 68.2C25.7361 68.776 25.6428 69.2827 25.4561 69.72C25.2695 70.152 25.0001 70.4907 24.6481 70.736C24.3015 70.976 23.8828 71.096 23.3921 71.096ZM23.3841 70.504C23.7041 70.504 23.9895 70.4133 24.2401 70.232C24.4908 70.0453 24.6881 69.7813 24.8321 69.44C24.9761 69.0933 25.0481 68.68 25.0481 68.2C25.0481 67.72 24.9761 67.3093 24.8321 66.968C24.6881 66.6213 24.4908 66.3573 24.2401 66.176C23.9895 65.9947 23.7041 65.904 23.3841 65.904C23.0641 65.904 22.7761 65.9947 22.5201 66.176C22.2695 66.3573 22.0721 66.6213 21.9281 66.968C21.7895 67.3093 21.7201 67.72 21.7201 68.2C21.7201 68.68 21.7895 69.0933 21.9281 69.44C22.0721 69.7813 22.2695 70.0453 22.5201 70.232C22.7761 70.4133 23.0641 70.504 23.3841 70.504Z" fill="#86888E"/>
<path d="M65.45 109V104.8H66.818C67.15 104.8 67.422 104.856 67.634 104.968C67.85 105.076 68.008 105.222 68.108 105.406C68.212 105.59 68.264 105.8 68.264 106.036C68.264 106.264 68.212 106.472 68.108 106.66C68.008 106.844 67.852 106.992 67.64 107.104C67.428 107.216 67.154 107.272 66.818 107.272H65.954V109H65.45ZM65.954 106.846H66.812C67.148 106.846 67.388 106.772 67.532 106.624C67.676 106.476 67.748 106.28 67.748 106.036C67.748 105.776 67.676 105.576 67.532 105.436C67.388 105.292 67.148 105.22 66.812 105.22H65.954V106.846ZM69.8638 109.072C69.6198 109.072 69.4158 109.03 69.2518 108.946C69.0878 108.858 68.9658 108.744 68.8858 108.604C68.8058 108.46 68.7658 108.304 68.7658 108.136C68.7658 107.932 68.8178 107.76 68.9218 107.62C69.0298 107.476 69.1798 107.368 69.3718 107.296C69.5678 107.22 69.7978 107.182 70.0618 107.182H70.8598C70.8598 106.994 70.8298 106.838 70.7698 106.714C70.7138 106.586 70.6298 106.49 70.5178 106.426C70.4098 106.362 70.2738 106.33 70.1098 106.33C69.9178 106.33 69.7518 106.378 69.6118 106.474C69.4718 106.57 69.3858 106.712 69.3538 106.9H68.8378C68.8618 106.684 68.9338 106.504 69.0538 106.36C69.1778 106.212 69.3338 106.1 69.5218 106.024C69.7098 105.944 69.9058 105.904 70.1098 105.904C70.3898 105.904 70.6218 105.956 70.8058 106.06C70.9938 106.16 71.1338 106.302 71.2258 106.486C71.3178 106.666 71.3638 106.88 71.3638 107.128V109H70.9138L70.8838 108.466C70.8438 108.55 70.7918 108.63 70.7278 108.706C70.6678 108.778 70.5958 108.842 70.5118 108.898C70.4278 108.95 70.3318 108.992 70.2238 109.024C70.1198 109.056 69.9998 109.072 69.8638 109.072ZM69.9418 108.646C70.0818 108.646 70.2078 108.618 70.3198 108.562C70.4358 108.502 70.5338 108.422 70.6138 108.322C70.6938 108.218 70.7538 108.104 70.7938 107.98C70.8378 107.856 70.8598 107.726 70.8598 107.59V107.572H70.1038C69.9078 107.572 69.7498 107.596 69.6298 107.644C69.5098 107.688 69.4238 107.752 69.3718 107.836C69.3198 107.916 69.2938 108.008 69.2938 108.112C69.2938 108.22 69.3178 108.314 69.3658 108.394C69.4178 108.474 69.4918 108.536 69.5878 108.58C69.6878 108.624 69.8058 108.646 69.9418 108.646ZM73.6255 109.072C73.3415 109.072 73.0855 109.006 72.8575 108.874C72.6335 108.742 72.4575 108.558 72.3295 108.322C72.2015 108.082 72.1375 107.806 72.1375 107.494C72.1375 107.174 72.2015 106.896 72.3295 106.66C72.4575 106.424 72.6335 106.24 72.8575 106.108C73.0855 105.972 73.3415 105.904 73.6255 105.904C73.9855 105.904 74.2855 105.998 74.5255 106.186C74.7655 106.37 74.9175 106.618 74.9815 106.93H74.4655C74.4255 106.742 74.3275 106.596 74.1715 106.492C74.0155 106.388 73.8315 106.336 73.6195 106.336C73.4475 106.336 73.2875 106.38 73.1395 106.468C72.9915 106.552 72.8735 106.68 72.7855 106.852C72.6975 107.024 72.6535 107.236 72.6535 107.488C72.6535 107.676 72.6795 107.844 72.7315 107.992C72.7835 108.136 72.8535 108.256 72.9415 108.352C73.0295 108.448 73.1315 108.522 73.2475 108.574C73.3675 108.622 73.4915 108.646 73.6195 108.646C73.7635 108.646 73.8935 108.624 74.0095 108.58C74.1255 108.532 74.2235 108.462 74.3035 108.37C74.3835 108.278 74.4375 108.17 74.4655 108.046H74.9815C74.9175 108.35 74.7635 108.598 74.5195 108.79C74.2795 108.978 73.9815 109.072 73.6255 109.072ZM77.6771 109L76.2371 107.344L77.5511 105.976H78.1691L76.6631 107.524L76.6691 107.164L78.3191 109H77.6771ZM75.8171 109V104.68H76.3211V109H75.8171ZM79.9211 109.072C79.6771 109.072 79.4731 109.03 79.3091 108.946C79.1451 108.858 79.0231 108.744 78.9431 108.604C78.8631 108.46 78.8231 108.304 78.8231 108.136C78.8231 107.932 78.8751 107.76 78.9791 107.62C79.0871 107.476 79.2371 107.368 79.4291 107.296C79.6251 107.22 79.8551 107.182 80.1191 107.182H80.9171C80.9171 106.994 80.8871 106.838 80.8271 106.714C80.7711 106.586 80.6871 106.49 80.5751 106.426C80.4671 106.362 80.3311 106.33 80.1671 106.33C79.9751 106.33 79.8091 106.378 79.6691 106.474C79.5291 106.57 79.4431 106.712 79.4111 106.9H78.8951C78.9191 106.684 78.9911 106.504 79.1111 106.36C79.2351 106.212 79.3911 106.1 79.5791 106.024C79.7671 105.944 79.9631 105.904 80.1671 105.904C80.4471 105.904 80.6791 105.956 80.8631 106.06C81.0511 106.16 81.1911 106.302 81.2831 106.486C81.3751 106.666 81.4211 106.88 81.4211 107.128V109H80.9711L80.9411 108.466C80.9011 108.55 80.8491 108.63 80.7851 108.706C80.7251 108.778 80.6531 108.842 80.5691 108.898C80.4851 108.95 80.3891 108.992 80.2811 109.024C80.1771 109.056 80.0571 109.072 79.9211 109.072ZM79.9991 108.646C80.1391 108.646 80.2651 108.618 80.3771 108.562C80.4931 108.502 80.5911 108.422 80.6711 108.322C80.7511 108.218 80.8111 108.104 80.8511 107.98C80.8951 107.856 80.9171 107.726 80.9171 107.59V107.572H80.1611C79.9651 107.572 79.8071 107.596 79.6871 107.644C79.5671 107.688 79.4811 107.752 79.4291 107.836C79.3771 107.916 79.3511 108.008 79.3511 108.112C79.3511 108.22 79.3751 108.314 79.4231 108.394C79.4751 108.474 79.5491 108.536 79.6451 108.58C79.7451 108.624 79.8631 108.646 79.9991 108.646ZM83.5148 110.392C83.2428 110.392 83.0008 110.356 82.7888 110.284C82.5808 110.216 82.4188 110.11 82.3028 109.966C82.1868 109.822 82.1288 109.644 82.1288 109.432C82.1288 109.34 82.1468 109.242 82.1828 109.138C82.2228 109.034 82.2888 108.932 82.3808 108.832C82.4768 108.732 82.6108 108.642 82.7828 108.562L83.1308 108.766C82.9188 108.854 82.7808 108.954 82.7168 109.066C82.6528 109.182 82.6208 109.288 82.6208 109.384C82.6208 109.516 82.6588 109.626 82.7348 109.714C82.8108 109.802 82.9168 109.868 83.0528 109.912C83.1888 109.956 83.3428 109.978 83.5148 109.978C83.6868 109.978 83.8348 109.954 83.9588 109.906C84.0828 109.858 84.1788 109.79 84.2468 109.702C84.3148 109.614 84.3488 109.51 84.3488 109.39C84.3488 109.25 84.2968 109.132 84.1928 109.036C84.0888 108.944 83.8908 108.89 83.5988 108.874C83.3628 108.858 83.1648 108.836 83.0048 108.808C82.8448 108.78 82.7128 108.748 82.6088 108.712C82.5048 108.672 82.4168 108.628 82.3448 108.58C82.2768 108.532 82.2148 108.482 82.1588 108.43V108.292L82.7408 107.716L83.1788 107.872L82.5788 108.412L82.6568 108.202C82.7008 108.234 82.7428 108.264 82.7828 108.292C82.8228 108.32 82.8768 108.344 82.9448 108.364C83.0128 108.384 83.1068 108.402 83.2268 108.418C83.3508 108.434 83.5128 108.45 83.7128 108.466C83.9888 108.486 84.2088 108.534 84.3728 108.61C84.5408 108.686 84.6608 108.788 84.7328 108.916C84.8088 109.044 84.8468 109.196 84.8468 109.372C84.8468 109.544 84.7988 109.706 84.7028 109.858C84.6108 110.014 84.4668 110.142 84.2708 110.242C84.0748 110.342 83.8228 110.392 83.5148 110.392ZM83.5088 108.052C83.2568 108.052 83.0408 108.004 82.8608 107.908C82.6848 107.812 82.5508 107.684 82.4588 107.524C82.3668 107.36 82.3208 107.178 82.3208 106.978C82.3208 106.778 82.3668 106.598 82.4588 106.438C82.5548 106.278 82.6908 106.15 82.8668 106.054C83.0428 105.954 83.2568 105.904 83.5088 105.904C83.7608 105.904 83.9748 105.954 84.1508 106.054C84.3268 106.15 84.4608 106.278 84.5528 106.438C84.6448 106.598 84.6908 106.778 84.6908 106.978C84.6908 107.178 84.6448 107.36 84.5528 107.524C84.4608 107.684 84.3268 107.812 84.1508 107.908C83.9748 108.004 83.7608 108.052 83.5088 108.052ZM83.5088 107.638C83.7248 107.638 83.8948 107.582 84.0188 107.47C84.1428 107.358 84.2048 107.194 84.2048 106.978C84.2048 106.766 84.1428 106.604 84.0188 106.492C83.8948 106.38 83.7248 106.324 83.5088 106.324C83.2968 106.324 83.1248 106.38 82.9928 106.492C82.8648 106.604 82.8008 106.766 82.8008 106.978C82.8008 107.194 82.8648 107.358 82.9928 107.47C83.1208 107.582 83.2928 107.638 83.5088 107.638ZM84.0008 106.402L83.8508 105.976H85.0868V106.354L84.0008 106.402ZM86.9953 109.072C86.7113 109.072 86.4593 109.006 86.2393 108.874C86.0233 108.742 85.8533 108.558 85.7293 108.322C85.6053 108.082 85.5433 107.804 85.5433 107.488C85.5433 107.168 85.6033 106.89 85.7233 106.654C85.8473 106.418 86.0193 106.234 86.2393 106.102C86.4633 105.97 86.7193 105.904 87.0073 105.904C87.3033 105.904 87.5533 105.97 87.7573 106.102C87.9653 106.234 88.1233 106.408 88.2313 106.624C88.3433 106.836 88.3993 107.07 88.3993 107.326C88.3993 107.366 88.3993 107.408 88.3993 107.452C88.3993 107.496 88.3973 107.546 88.3933 107.602H85.9213V107.212H87.9073C87.8953 106.936 87.8033 106.72 87.6313 106.564C87.4633 106.408 87.2513 106.33 86.9953 106.33C86.8233 106.33 86.6633 106.37 86.5153 106.45C86.3713 106.526 86.2553 106.64 86.1673 106.792C86.0793 106.94 86.0353 107.126 86.0353 107.35V107.518C86.0353 107.766 86.0793 107.974 86.1673 108.142C86.2593 108.31 86.3773 108.436 86.5213 108.52C86.6693 108.604 86.8273 108.646 86.9953 108.646C87.2073 108.646 87.3813 108.6 87.5173 108.508C87.6573 108.412 87.7573 108.284 87.8173 108.124H88.3153C88.2673 108.304 88.1833 108.466 88.0633 108.61C87.9433 108.754 87.7933 108.868 87.6133 108.952C87.4373 109.032 87.2313 109.072 86.9953 109.072ZM90.2878 109C90.1078 109 89.9518 108.972 89.8198 108.916C89.6878 108.86 89.5858 108.766 89.5138 108.634C89.4458 108.498 89.4118 108.316 89.4118 108.088V106.402H88.8838V105.976H89.4118L89.4778 105.244H89.9158V105.976H90.7918V106.402H89.9158V108.088C89.9158 108.276 89.9538 108.404 90.0298 108.472C90.1058 108.536 90.2398 108.568 90.4318 108.568H90.7558V109H90.2878ZM92.8134 109.072C92.5294 109.072 92.2774 109.006 92.0574 108.874C91.8414 108.742 91.6714 108.558 91.5474 108.322C91.4234 108.082 91.3614 107.804 91.3614 107.488C91.3614 107.168 91.4214 106.89 91.5414 106.654C91.6654 106.418 91.8374 106.234 92.0574 106.102C92.2814 105.97 92.5374 105.904 92.8254 105.904C93.1214 105.904 93.3714 105.97 93.5754 106.102C93.7834 106.234 93.9414 106.408 94.0494 106.624C94.1614 106.836 94.2174 107.07 94.2174 107.326C94.2174 107.366 94.2174 107.408 94.2174 107.452C94.2174 107.496 94.2154 107.546 94.2114 107.602H91.7394V107.212H93.7254C93.7134 106.936 93.6214 106.72 93.4494 106.564C93.2814 106.408 93.0694 106.33 92.8134 106.33C92.6414 106.33 92.4814 106.37 92.3334 106.45C92.1894 106.526 92.0734 106.64 91.9854 106.792C91.8974 106.94 91.8534 107.126 91.8534 107.35V107.518C91.8534 107.766 91.8974 107.974 91.9854 108.142C92.0774 108.31 92.1954 108.436 92.3394 108.52C92.4874 108.604 92.6454 108.646 92.8134 108.646C93.0254 108.646 93.1994 108.6 93.3354 108.508C93.4754 108.412 93.5754 108.284 93.6354 108.124H94.1334C94.0854 108.304 94.0014 108.466 93.8814 108.61C93.7614 108.754 93.6114 108.868 93.4314 108.952C93.2554 109.032 93.0494 109.072 92.8134 109.072ZM96.1576 109.072C95.9056 109.072 95.6856 109.03 95.4976 108.946C95.3136 108.862 95.1656 108.746 95.0536 108.598C94.9456 108.446 94.8796 108.268 94.8556 108.064H95.3716C95.3916 108.168 95.4336 108.264 95.4976 108.352C95.5616 108.44 95.6476 108.512 95.7556 108.568C95.8676 108.62 96.0036 108.646 96.1636 108.646C96.3036 108.646 96.4196 108.626 96.5116 108.586C96.6036 108.542 96.6716 108.484 96.7156 108.412C96.7636 108.34 96.7876 108.262 96.7876 108.178C96.7876 108.054 96.7576 107.96 96.6976 107.896C96.6416 107.832 96.5576 107.782 96.4456 107.746C96.3336 107.706 96.1976 107.672 96.0376 107.644C95.9056 107.62 95.7756 107.588 95.6476 107.548C95.5196 107.508 95.4056 107.456 95.3056 107.392C95.2056 107.324 95.1256 107.242 95.0656 107.146C95.0096 107.05 94.9816 106.932 94.9816 106.792C94.9816 106.62 95.0256 106.468 95.1136 106.336C95.2016 106.2 95.3276 106.094 95.4916 106.018C95.6596 105.942 95.8536 105.904 96.0736 105.904C96.3976 105.904 96.6596 105.982 96.8596 106.138C97.0596 106.294 97.1776 106.52 97.2136 106.816H96.7156C96.6956 106.664 96.6296 106.546 96.5176 106.462C96.4096 106.374 96.2596 106.33 96.0676 106.33C95.8796 106.33 95.7356 106.368 95.6356 106.444C95.5396 106.52 95.4916 106.62 95.4916 106.744C95.4916 106.824 95.5176 106.896 95.5696 106.96C95.6256 107.02 95.7056 107.072 95.8096 107.116C95.9176 107.16 96.0496 107.196 96.2056 107.224C96.4056 107.26 96.5876 107.308 96.7516 107.368C96.9156 107.428 97.0476 107.518 97.1476 107.638C97.2516 107.754 97.3036 107.92 97.3036 108.136C97.3036 108.324 97.2556 108.488 97.1596 108.628C97.0676 108.768 96.9356 108.878 96.7636 108.958C96.5916 109.034 96.3896 109.072 96.1576 109.072ZM99.2025 109C99.0225 109 98.8665 108.972 98.7345 108.916C98.6025 108.86 98.5005 108.766 98.4285 108.634C98.3605 108.498 98.3265 108.316 98.3265 108.088V106.402H97.7985V105.976H98.3265L98.3925 105.244H98.8305V105.976H99.7065V106.402H98.8305V108.088C98.8305 108.276 98.8685 108.404 98.9445 108.472C99.0205 108.536 99.1545 108.568 99.3465 108.568H99.6705V109H99.2025ZM102.198 109V105.976H102.654L102.69 106.552C102.758 106.416 102.844 106.3 102.948 106.204C103.056 106.108 103.184 106.034 103.332 105.982C103.484 105.93 103.656 105.904 103.848 105.904V106.432H103.662C103.534 106.432 103.412 106.45 103.296 106.486C103.18 106.518 103.076 106.572 102.984 106.648C102.896 106.724 102.826 106.828 102.774 106.96C102.726 107.088 102.702 107.248 102.702 107.44V109H102.198ZM105.637 109.072C105.405 109.072 105.201 109.026 105.025 108.934C104.853 108.842 104.719 108.7 104.623 108.508C104.531 108.316 104.485 108.076 104.485 107.788V105.976H104.989V107.734C104.989 108.034 105.055 108.26 105.187 108.412C105.319 108.564 105.505 108.64 105.745 108.64C105.913 108.64 106.065 108.6 106.201 108.52C106.337 108.436 106.443 108.318 106.519 108.166C106.599 108.01 106.639 107.82 106.639 107.596V105.976H107.143V109H106.687L106.657 108.472C106.565 108.66 106.429 108.808 106.249 108.916C106.069 109.02 105.865 109.072 105.637 109.072ZM109.238 109.072C108.986 109.072 108.766 109.03 108.578 108.946C108.394 108.862 108.246 108.746 108.134 108.598C108.026 108.446 107.96 108.268 107.936 108.064H108.452C108.472 108.168 108.514 108.264 108.578 108.352C108.642 108.44 108.728 108.512 108.836 108.568C108.948 108.62 109.084 108.646 109.244 108.646C109.384 108.646 109.5 108.626 109.592 108.586C109.684 108.542 109.752 108.484 109.796 108.412C109.844 108.34 109.868 108.262 109.868 108.178C109.868 108.054 109.838 107.96 109.778 107.896C109.722 107.832 109.638 107.782 109.526 107.746C109.414 107.706 109.278 107.672 109.118 107.644C108.986 107.62 108.856 107.588 108.728 107.548C108.6 107.508 108.486 107.456 108.386 107.392C108.286 107.324 108.206 107.242 108.146 107.146C108.09 107.05 108.062 106.932 108.062 106.792C108.062 106.62 108.106 106.468 108.194 106.336C108.282 106.2 108.408 106.094 108.572 106.018C108.74 105.942 108.934 105.904 109.154 105.904C109.478 105.904 109.74 105.982 109.94 106.138C110.14 106.294 110.258 106.52 110.294 106.816H109.796C109.776 106.664 109.71 106.546 109.598 106.462C109.49 106.374 109.34 106.33 109.148 106.33C108.96 106.33 108.816 106.368 108.716 106.444C108.62 106.52 108.572 106.62 108.572 106.744C108.572 106.824 108.598 106.896 108.65 106.96C108.706 107.02 108.786 107.072 108.89 107.116C108.998 107.16 109.13 107.196 109.286 107.224C109.486 107.26 109.668 107.308 109.832 107.368C109.996 107.428 110.128 107.518 110.228 107.638C110.332 107.754 110.384 107.92 110.384 108.136C110.384 108.324 110.336 108.488 110.24 108.628C110.148 108.768 110.016 108.878 109.844 108.958C109.672 109.034 109.47 109.072 109.238 109.072ZM112.283 109C112.103 109 111.947 108.972 111.815 108.916C111.683 108.86 111.581 108.766 111.509 108.634C111.441 108.498 111.407 108.316 111.407 108.088V106.402H110.879V105.976H111.407L111.473 105.244H111.911V105.976H112.787V106.402H111.911V108.088C111.911 108.276 111.949 108.404 112.025 108.472C112.101 108.536 112.235 108.568 112.427 108.568H112.751V109H112.283ZM115.278 110.32V105.976H115.734L115.776 106.468C115.84 106.372 115.922 106.282 116.022 106.198C116.122 106.11 116.242 106.04 116.382 105.988C116.522 105.932 116.682 105.904 116.862 105.904C117.158 105.904 117.414 105.974 117.63 106.114C117.85 106.254 118.02 106.444 118.14 106.684C118.264 106.92 118.326 107.19 118.326 107.494C118.326 107.798 118.264 108.07 118.14 108.31C118.02 108.546 117.85 108.732 117.63 108.868C117.41 109.004 117.152 109.072 116.856 109.072C116.612 109.072 116.396 109.022 116.208 108.922C116.024 108.822 115.882 108.682 115.782 108.502V110.32H115.278ZM116.802 108.634C116.998 108.634 117.172 108.586 117.324 108.49C117.476 108.394 117.594 108.262 117.678 108.094C117.766 107.922 117.81 107.72 117.81 107.488C117.81 107.26 117.766 107.06 117.678 106.888C117.594 106.716 117.476 106.582 117.324 106.486C117.172 106.39 116.998 106.342 116.802 106.342C116.602 106.342 116.426 106.39 116.274 106.486C116.122 106.582 116.004 106.716 115.92 106.888C115.836 107.06 115.794 107.26 115.794 107.488C115.794 107.72 115.836 107.922 115.92 108.094C116.004 108.262 116.122 108.394 116.274 108.49C116.426 108.586 116.602 108.634 116.802 108.634ZM120.504 109.072C120.224 109.072 119.972 109.008 119.748 108.88C119.524 108.748 119.348 108.564 119.22 108.328C119.092 108.088 119.028 107.81 119.028 107.494C119.028 107.17 119.092 106.89 119.22 106.654C119.352 106.414 119.53 106.23 119.754 106.102C119.982 105.97 120.236 105.904 120.516 105.904C120.804 105.904 121.058 105.97 121.278 106.102C121.502 106.23 121.678 106.414 121.806 106.654C121.938 106.89 122.004 107.168 122.004 107.488C122.004 107.808 121.938 108.088 121.806 108.328C121.674 108.564 121.496 108.748 121.272 108.88C121.048 109.008 120.792 109.072 120.504 109.072ZM120.51 108.64C120.682 108.64 120.842 108.598 120.99 108.514C121.138 108.426 121.258 108.296 121.35 108.124C121.442 107.952 121.488 107.74 121.488 107.488C121.488 107.232 121.442 107.02 121.35 106.852C121.262 106.68 121.144 106.552 120.996 106.468C120.852 106.38 120.692 106.336 120.516 106.336C120.348 106.336 120.188 106.38 120.036 106.468C119.888 106.552 119.768 106.68 119.676 106.852C119.588 107.02 119.544 107.232 119.544 107.488C119.544 107.74 119.588 107.952 119.676 108.124C119.768 108.296 119.886 108.426 120.03 108.514C120.178 108.598 120.338 108.64 120.51 108.64ZM122.831 110.32V105.976H123.287L123.329 106.468C123.393 106.372 123.475 106.282 123.575 106.198C123.675 106.11 123.795 106.04 123.935 105.988C124.075 105.932 124.235 105.904 124.415 105.904C124.711 105.904 124.967 105.974 125.183 106.114C125.403 106.254 125.573 106.444 125.693 106.684C125.817 106.92 125.879 107.19 125.879 107.494C125.879 107.798 125.817 108.07 125.693 108.31C125.573 108.546 125.403 108.732 125.183 108.868C124.963 109.004 124.705 109.072 124.409 109.072C124.165 109.072 123.949 109.022 123.761 108.922C123.577 108.822 123.435 108.682 123.335 108.502V110.32H122.831ZM124.355 108.634C124.551 108.634 124.725 108.586 124.877 108.49C125.029 108.394 125.147 108.262 125.231 108.094C125.319 107.922 125.363 107.72 125.363 107.488C125.363 107.26 125.319 107.06 125.231 106.888C125.147 106.716 125.029 106.582 124.877 106.486C124.725 106.39 124.551 106.342 124.355 106.342C124.155 106.342 123.979 106.39 123.827 106.486C123.675 106.582 123.557 106.716 123.473 106.888C123.389 107.06 123.347 107.26 123.347 107.488C123.347 107.72 123.389 107.922 123.473 108.094C123.557 108.262 123.675 108.394 123.827 108.49C123.979 108.586 124.155 108.634 124.355 108.634ZM129.032 109L128.144 105.976H128.648L129.338 108.526H129.248L129.998 105.976H130.568L131.33 108.52L131.234 108.526L131.918 105.976H132.428L131.546 109H131.03L130.238 106.336H130.34L129.548 109H129.032ZM134.355 109.072C134.075 109.072 133.823 109.008 133.599 108.88C133.375 108.748 133.199 108.564 133.071 108.328C132.943 108.088 132.879 107.81 132.879 107.494C132.879 107.17 132.943 106.89 133.071 106.654C133.203 106.414 133.381 106.23 133.605 106.102C133.833 105.97 134.087 105.904 134.367 105.904C134.655 105.904 134.909 105.97 135.129 106.102C135.353 106.23 135.529 106.414 135.657 106.654C135.789 106.89 135.855 107.168 135.855 107.488C135.855 107.808 135.789 108.088 135.657 108.328C135.525 108.564 135.347 108.748 135.123 108.88C134.899 109.008 134.643 109.072 134.355 109.072ZM134.361 108.64C134.533 108.64 134.693 108.598 134.841 108.514C134.989 108.426 135.109 108.296 135.201 108.124C135.293 107.952 135.339 107.74 135.339 107.488C135.339 107.232 135.293 107.02 135.201 106.852C135.113 106.68 134.995 106.552 134.847 106.468C134.703 106.38 134.543 106.336 134.367 106.336C134.199 106.336 134.039 106.38 133.887 106.468C133.739 106.552 133.619 106.68 133.527 106.852C133.439 107.02 133.395 107.232 133.395 107.488C133.395 107.74 133.439 107.952 133.527 108.124C133.619 108.296 133.737 108.426 133.881 108.514C134.029 108.598 134.189 108.64 134.361 108.64ZM136.682 109V105.976H137.138L137.174 106.552C137.242 106.416 137.328 106.3 137.432 106.204C137.54 106.108 137.668 106.034 137.816 105.982C137.968 105.93 138.14 105.904 138.332 105.904V106.432H138.146C138.018 106.432 137.896 106.45 137.78 106.486C137.664 106.518 137.56 106.572 137.468 106.648C137.38 106.724 137.31 106.828 137.258 106.96C137.21 107.088 137.186 107.248 137.186 107.44V109H136.682ZM140.883 109L139.443 107.344L140.757 105.976H141.375L139.869 107.524L139.875 107.164L141.525 109H140.883ZM139.023 109V104.68H139.527V109H139.023ZM142.214 109V105.976H142.718V109H142.214ZM142.466 105.334C142.366 105.334 142.282 105.302 142.214 105.238C142.15 105.17 142.118 105.086 142.118 104.986C142.118 104.886 142.15 104.806 142.214 104.746C142.282 104.682 142.366 104.65 142.466 104.65C142.562 104.65 142.644 104.682 142.712 104.746C142.78 104.806 142.814 104.886 142.814 104.986C142.814 105.086 142.78 105.17 142.712 105.238C142.644 105.302 142.562 105.334 142.466 105.334ZM144.916 109C144.736 109 144.58 108.972 144.448 108.916C144.316 108.86 144.214 108.766 144.142 108.634C144.074 108.498 144.04 108.316 144.04 108.088V106.402H143.512V105.976H144.04L144.106 105.244H144.544V105.976H145.42V106.402H144.544V108.088C144.544 108.276 144.582 108.404 144.658 108.472C144.734 108.536 144.868 108.568 145.06 108.568H145.384V109H144.916ZM147.441 109.072C147.157 109.072 146.905 109.006 146.685 108.874C146.469 108.742 146.299 108.558 146.175 108.322C146.051 108.082 145.989 107.804 145.989 107.488C145.989 107.168 146.049 106.89 146.169 106.654C146.293 106.418 146.465 106.234 146.685 106.102C146.909 105.97 147.165 105.904 147.453 105.904C147.749 105.904 147.999 105.97 148.203 106.102C148.411 106.234 148.569 106.408 148.677 106.624C148.789 106.836 148.845 107.07 148.845 107.326C148.845 107.366 148.845 107.408 148.845 107.452C148.845 107.496 148.843 107.546 148.839 107.602H146.367V107.212H148.353C148.341 106.936 148.249 106.72 148.077 106.564C147.909 106.408 147.697 106.33 147.441 106.33C147.269 106.33 147.109 106.37 146.961 106.45C146.817 106.526 146.701 106.64 146.613 106.792C146.525 106.94 146.481 107.126 146.481 107.35V107.518C146.481 107.766 146.525 107.974 146.613 108.142C146.705 108.31 146.823 108.436 146.967 108.52C147.115 108.604 147.273 108.646 147.441 108.646C147.653 108.646 147.827 108.6 147.963 108.508C148.103 108.412 148.203 108.284 148.263 108.124H148.761C148.713 108.304 148.629 108.466 148.509 108.61C148.389 108.754 148.239 108.868 148.059 108.952C147.883 109.032 147.677 109.072 147.441 109.072ZM149.645 109V105.976H150.101L150.131 106.408C150.227 106.252 150.355 106.13 150.515 106.042C150.679 105.95 150.857 105.904 151.049 105.904C151.205 105.904 151.345 105.926 151.469 105.97C151.597 106.01 151.709 106.074 151.805 106.162C151.901 106.246 151.979 106.354 152.039 106.486C152.143 106.302 152.285 106.16 152.465 106.06C152.649 105.956 152.845 105.904 153.053 105.904C153.285 105.904 153.487 105.952 153.659 106.048C153.835 106.14 153.969 106.282 154.061 106.474C154.157 106.662 154.205 106.902 154.205 107.194V109H153.707V107.248C153.707 106.944 153.645 106.716 153.521 106.564C153.397 106.412 153.223 106.336 152.999 106.336C152.843 106.336 152.703 106.378 152.579 106.462C152.455 106.542 152.357 106.66 152.285 106.816C152.213 106.972 152.177 107.164 152.177 107.392V109H151.673V107.248C151.673 106.944 151.611 106.716 151.487 106.564C151.363 106.412 151.187 106.336 150.959 106.336C150.807 106.336 150.669 106.378 150.545 106.462C150.425 106.542 150.329 106.66 150.257 106.816C150.185 106.972 150.149 107.164 150.149 107.392V109H149.645Z" fill="#86888E"/>
<rect x="39" y="97" width="4" height="20" rx="2" transform="rotate(-90 39 97)" fill="#C7973F"/>
<rect x="39" y="109" width="4" height="20" rx="2" transform="rotate(-90 39 109)" fill="#5D97A6"/>
<rect x="39" y="121" width="4" height="20" rx="2" transform="rotate(-90 39 121)" fill="#A65DA0"/>
<path d="M65.45 97V92.8H66.818C67.15 92.8 67.422 92.856 67.634 92.968C67.85 93.076 68.008 93.222 68.108 93.406C68.212 93.59 68.264 93.8 68.264 94.036C68.264 94.264 68.212 94.472 68.108 94.66C68.008 94.844 67.852 94.992 67.64 95.104C67.428 95.216 67.154 95.272 66.818 95.272H65.954V97H65.45ZM65.954 94.846H66.812C67.148 94.846 67.388 94.772 67.532 94.624C67.676 94.476 67.748 94.28 67.748 94.036C67.748 93.776 67.676 93.576 67.532 93.436C67.388 93.292 67.148 93.22 66.812 93.22H65.954V94.846ZM69.8638 97.072C69.6198 97.072 69.4158 97.03 69.2518 96.946C69.0878 96.858 68.9658 96.744 68.8858 96.604C68.8058 96.46 68.7658 96.304 68.7658 96.136C68.7658 95.932 68.8178 95.76 68.9218 95.62C69.0298 95.476 69.1798 95.368 69.3718 95.296C69.5678 95.22 69.7978 95.182 70.0618 95.182H70.8598C70.8598 94.994 70.8298 94.838 70.7698 94.714C70.7138 94.586 70.6298 94.49 70.5178 94.426C70.4098 94.362 70.2738 94.33 70.1098 94.33C69.9178 94.33 69.7518 94.378 69.6118 94.474C69.4718 94.57 69.3858 94.712 69.3538 94.9H68.8378C68.8618 94.684 68.9338 94.504 69.0538 94.36C69.1778 94.212 69.3338 94.1 69.5218 94.024C69.7098 93.944 69.9058 93.904 70.1098 93.904C70.3898 93.904 70.6218 93.956 70.8058 94.06C70.9938 94.16 71.1338 94.302 71.2258 94.486C71.3178 94.666 71.3638 94.88 71.3638 95.128V97H70.9138L70.8838 96.466C70.8438 96.55 70.7918 96.63 70.7278 96.706C70.6678 96.778 70.5958 96.842 70.5118 96.898C70.4278 96.95 70.3318 96.992 70.2238 97.024C70.1198 97.056 69.9998 97.072 69.8638 97.072ZM69.9418 96.646C70.0818 96.646 70.2078 96.618 70.3198 96.562C70.4358 96.502 70.5338 96.422 70.6138 96.322C70.6938 96.218 70.7538 96.104 70.7938 95.98C70.8378 95.856 70.8598 95.726 70.8598 95.59V95.572H70.1038C69.9078 95.572 69.7498 95.596 69.6298 95.644C69.5098 95.688 69.4238 95.752 69.3718 95.836C69.3198 95.916 69.2938 96.008 69.2938 96.112C69.2938 96.22 69.3178 96.314 69.3658 96.394C69.4178 96.474 69.4918 96.536 69.5878 96.58C69.6878 96.624 69.8058 96.646 69.9418 96.646ZM73.6255 97.072C73.3415 97.072 73.0855 97.006 72.8575 96.874C72.6335 96.742 72.4575 96.558 72.3295 96.322C72.2015 96.082 72.1375 95.806 72.1375 95.494C72.1375 95.174 72.2015 94.896 72.3295 94.66C72.4575 94.424 72.6335 94.24 72.8575 94.108C73.0855 93.972 73.3415 93.904 73.6255 93.904C73.9855 93.904 74.2855 93.998 74.5255 94.186C74.7655 94.37 74.9175 94.618 74.9815 94.93H74.4655C74.4255 94.742 74.3275 94.596 74.1715 94.492C74.0155 94.388 73.8315 94.336 73.6195 94.336C73.4475 94.336 73.2875 94.38 73.1395 94.468C72.9915 94.552 72.8735 94.68 72.7855 94.852C72.6975 95.024 72.6535 95.236 72.6535 95.488C72.6535 95.676 72.6795 95.844 72.7315 95.992C72.7835 96.136 72.8535 96.256 72.9415 96.352C73.0295 96.448 73.1315 96.522 73.2475 96.574C73.3675 96.622 73.4915 96.646 73.6195 96.646C73.7635 96.646 73.8935 96.624 74.0095 96.58C74.1255 96.532 74.2235 96.462 74.3035 96.37C74.3835 96.278 74.4375 96.17 74.4655 96.046H74.9815C74.9175 96.35 74.7635 96.598 74.5195 96.79C74.2795 96.978 73.9815 97.072 73.6255 97.072ZM77.6771 97L76.2371 95.344L77.5511 93.976H78.1691L76.6631 95.524L76.6691 95.164L78.3191 97H77.6771ZM75.8171 97V92.68H76.3211V97H75.8171ZM79.9211 97.072C79.6771 97.072 79.4731 97.03 79.3091 96.946C79.1451 96.858 79.0231 96.744 78.9431 96.604C78.8631 96.46 78.8231 96.304 78.8231 96.136C78.8231 95.932 78.8751 95.76 78.9791 95.62C79.0871 95.476 79.2371 95.368 79.4291 95.296C79.6251 95.22 79.8551 95.182 80.1191 95.182H80.9171C80.9171 94.994 80.8871 94.838 80.8271 94.714C80.7711 94.586 80.6871 94.49 80.5751 94.426C80.4671 94.362 80.3311 94.33 80.1671 94.33C79.9751 94.33 79.8091 94.378 79.6691 94.474C79.5291 94.57 79.4431 94.712 79.4111 94.9H78.8951C78.9191 94.684 78.9911 94.504 79.1111 94.36C79.2351 94.212 79.3911 94.1 79.5791 94.024C79.7671 93.944 79.9631 93.904 80.1671 93.904C80.4471 93.904 80.6791 93.956 80.8631 94.06C81.0511 94.16 81.1911 94.302 81.2831 94.486C81.3751 94.666 81.4211 94.88 81.4211 95.128V97H80.9711L80.9411 96.466C80.9011 96.55 80.8491 96.63 80.7851 96.706C80.7251 96.778 80.6531 96.842 80.5691 96.898C80.4851 96.95 80.3891 96.992 80.2811 97.024C80.1771 97.056 80.0571 97.072 79.9211 97.072ZM79.9991 96.646C80.1391 96.646 80.2651 96.618 80.3771 96.562C80.4931 96.502 80.5911 96.422 80.6711 96.322C80.7511 96.218 80.8111 96.104 80.8511 95.98C80.8951 95.856 80.9171 95.726 80.9171 95.59V95.572H80.1611C79.9651 95.572 79.8071 95.596 79.6871 95.644C79.5671 95.688 79.4811 95.752 79.4291 95.836C79.3771 95.916 79.3511 96.008 79.3511 96.112C79.3511 96.22 79.3751 96.314 79.4231 96.394C79.4751 96.474 79.5491 96.536 79.6451 96.58C79.7451 96.624 79.8631 96.646 79.9991 96.646ZM83.5148 98.392C83.2428 98.392 83.0008 98.356 82.7888 98.284C82.5808 98.216 82.4188 98.11 82.3028 97.966C82.1868 97.822 82.1288 97.644 82.1288 97.432C82.1288 97.34 82.1468 97.242 82.1828 97.138C82.2228 97.034 82.2888 96.932 82.3808 96.832C82.4768 96.732 82.6108 96.642 82.7828 96.562L83.1308 96.766C82.9188 96.854 82.7808 96.954 82.7168 97.066C82.6528 97.182 82.6208 97.288 82.6208 97.384C82.6208 97.516 82.6588 97.626 82.7348 97.714C82.8108 97.802 82.9168 97.868 83.0528 97.912C83.1888 97.956 83.3428 97.978 83.5148 97.978C83.6868 97.978 83.8348 97.954 83.9588 97.906C84.0828 97.858 84.1788 97.79 84.2468 97.702C84.3148 97.614 84.3488 97.51 84.3488 97.39C84.3488 97.25 84.2968 97.132 84.1928 97.036C84.0888 96.944 83.8908 96.89 83.5988 96.874C83.3628 96.858 83.1648 96.836 83.0048 96.808C82.8448 96.78 82.7128 96.748 82.6088 96.712C82.5048 96.672 82.4168 96.628 82.3448 96.58C82.2768 96.532 82.2148 96.482 82.1588 96.43V96.292L82.7408 95.716L83.1788 95.872L82.5788 96.412L82.6568 96.202C82.7008 96.234 82.7428 96.264 82.7828 96.292C82.8228 96.32 82.8768 96.344 82.9448 96.364C83.0128 96.384 83.1068 96.402 83.2268 96.418C83.3508 96.434 83.5128 96.45 83.7128 96.466C83.9888 96.486 84.2088 96.534 84.3728 96.61C84.5408 96.686 84.6608 96.788 84.7328 96.916C84.8088 97.044 84.8468 97.196 84.8468 97.372C84.8468 97.544 84.7988 97.706 84.7028 97.858C84.6108 98.014 84.4668 98.142 84.2708 98.242C84.0748 98.342 83.8228 98.392 83.5148 98.392ZM83.5088 96.052C83.2568 96.052 83.0408 96.004 82.8608 95.908C82.6848 95.812 82.5508 95.684 82.4588 95.524C82.3668 95.36 82.3208 95.178 82.3208 94.978C82.3208 94.778 82.3668 94.598 82.4588 94.438C82.5548 94.278 82.6908 94.15 82.8668 94.054C83.0428 93.954 83.2568 93.904 83.5088 93.904C83.7608 93.904 83.9748 93.954 84.1508 94.054C84.3268 94.15 84.4608 94.278 84.5528 94.438C84.6448 94.598 84.6908 94.778 84.6908 94.978C84.6908 95.178 84.6448 95.36 84.5528 95.524C84.4608 95.684 84.3268 95.812 84.1508 95.908C83.9748 96.004 83.7608 96.052 83.5088 96.052ZM83.5088 95.638C83.7248 95.638 83.8948 95.582 84.0188 95.47C84.1428 95.358 84.2048 95.194 84.2048 94.978C84.2048 94.766 84.1428 94.604 84.0188 94.492C83.8948 94.38 83.7248 94.324 83.5088 94.324C83.2968 94.324 83.1248 94.38 82.9928 94.492C82.8648 94.604 82.8008 94.766 82.8008 94.978C82.8008 95.194 82.8648 95.358 82.9928 95.47C83.1208 95.582 83.2928 95.638 83.5088 95.638ZM84.0008 94.402L83.8508 93.976H85.0868V94.354L84.0008 94.402ZM86.9953 97.072C86.7113 97.072 86.4593 97.006 86.2393 96.874C86.0233 96.742 85.8533 96.558 85.7293 96.322C85.6053 96.082 85.5433 95.804 85.5433 95.488C85.5433 95.168 85.6033 94.89 85.7233 94.654C85.8473 94.418 86.0193 94.234 86.2393 94.102C86.4633 93.97 86.7193 93.904 87.0073 93.904C87.3033 93.904 87.5533 93.97 87.7573 94.102C87.9653 94.234 88.1233 94.408 88.2313 94.624C88.3433 94.836 88.3993 95.07 88.3993 95.326C88.3993 95.366 88.3993 95.408 88.3993 95.452C88.3993 95.496 88.3973 95.546 88.3933 95.602H85.9213V95.212H87.9073C87.8953 94.936 87.8033 94.72 87.6313 94.564C87.4633 94.408 87.2513 94.33 86.9953 94.33C86.8233 94.33 86.6633 94.37 86.5153 94.45C86.3713 94.526 86.2553 94.64 86.1673 94.792C86.0793 94.94 86.0353 95.126 86.0353 95.35V95.518C86.0353 95.766 86.0793 95.974 86.1673 96.142C86.2593 96.31 86.3773 96.436 86.5213 96.52C86.6693 96.604 86.8273 96.646 86.9953 96.646C87.2073 96.646 87.3813 96.6 87.5173 96.508C87.6573 96.412 87.7573 96.284 87.8173 96.124H88.3153C88.2673 96.304 88.1833 96.466 88.0633 96.61C87.9433 96.754 87.7933 96.868 87.6133 96.952C87.4373 97.032 87.2313 97.072 86.9953 97.072ZM90.2878 97C90.1078 97 89.9518 96.972 89.8198 96.916C89.6878 96.86 89.5858 96.766 89.5138 96.634C89.4458 96.498 89.4118 96.316 89.4118 96.088V94.402H88.8838V93.976H89.4118L89.4778 93.244H89.9158V93.976H90.7918V94.402H89.9158V96.088C89.9158 96.276 89.9538 96.404 90.0298 96.472C90.1058 96.536 90.2398 96.568 90.4318 96.568H90.7558V97H90.2878ZM92.8134 97.072C92.5294 97.072 92.2774 97.006 92.0574 96.874C91.8414 96.742 91.6714 96.558 91.5474 96.322C91.4234 96.082 91.3614 95.804 91.3614 95.488C91.3614 95.168 91.4214 94.89 91.5414 94.654C91.6654 94.418 91.8374 94.234 92.0574 94.102C92.2814 93.97 92.5374 93.904 92.8254 93.904C93.1214 93.904 93.3714 93.97 93.5754 94.102C93.7834 94.234 93.9414 94.408 94.0494 94.624C94.1614 94.836 94.2174 95.07 94.2174 95.326C94.2174 95.366 94.2174 95.408 94.2174 95.452C94.2174 95.496 94.2154 95.546 94.2114 95.602H91.7394V95.212H93.7254C93.7134 94.936 93.6214 94.72 93.4494 94.564C93.2814 94.408 93.0694 94.33 92.8134 94.33C92.6414 94.33 92.4814 94.37 92.3334 94.45C92.1894 94.526 92.0734 94.64 91.9854 94.792C91.8974 94.94 91.8534 95.126 91.8534 95.35V95.518C91.8534 95.766 91.8974 95.974 91.9854 96.142C92.0774 96.31 92.1954 96.436 92.3394 96.52C92.4874 96.604 92.6454 96.646 92.8134 96.646C93.0254 96.646 93.1994 96.6 93.3354 96.508C93.4754 96.412 93.5754 96.284 93.6354 96.124H94.1334C94.0854 96.304 94.0014 96.466 93.8814 96.61C93.7614 96.754 93.6114 96.868 93.4314 96.952C93.2554 97.032 93.0494 97.072 92.8134 97.072ZM96.1576 97.072C95.9056 97.072 95.6856 97.03 95.4976 96.946C95.3136 96.862 95.1656 96.746 95.0536 96.598C94.9456 96.446 94.8796 96.268 94.8556 96.064H95.3716C95.3916 96.168 95.4336 96.264 95.4976 96.352C95.5616 96.44 95.6476 96.512 95.7556 96.568C95.8676 96.62 96.0036 96.646 96.1636 96.646C96.3036 96.646 96.4196 96.626 96.5116 96.586C96.6036 96.542 96.6716 96.484 96.7156 96.412C96.7636 96.34 96.7876 96.262 96.7876 96.178C96.7876 96.054 96.7576 95.96 96.6976 95.896C96.6416 95.832 96.5576 95.782 96.4456 95.746C96.3336 95.706 96.1976 95.672 96.0376 95.644C95.9056 95.62 95.7756 95.588 95.6476 95.548C95.5196 95.508 95.4056 95.456 95.3056 95.392C95.2056 95.324 95.1256 95.242 95.0656 95.146C95.0096 95.05 94.9816 94.932 94.9816 94.792C94.9816 94.62 95.0256 94.468 95.1136 94.336C95.2016 94.2 95.3276 94.094 95.4916 94.018C95.6596 93.942 95.8536 93.904 96.0736 93.904C96.3976 93.904 96.6596 93.982 96.8596 94.138C97.0596 94.294 97.1776 94.52 97.2136 94.816H96.7156C96.6956 94.664 96.6296 94.546 96.5176 94.462C96.4096 94.374 96.2596 94.33 96.0676 94.33C95.8796 94.33 95.7356 94.368 95.6356 94.444C95.5396 94.52 95.4916 94.62 95.4916 94.744C95.4916 94.824 95.5176 94.896 95.5696 94.96C95.6256 95.02 95.7056 95.072 95.8096 95.116C95.9176 95.16 96.0496 95.196 96.2056 95.224C96.4056 95.26 96.5876 95.308 96.7516 95.368C96.9156 95.428 97.0476 95.518 97.1476 95.638C97.2516 95.754 97.3036 95.92 97.3036 96.136C97.3036 96.324 97.2556 96.488 97.1596 96.628C97.0676 96.768 96.9356 96.878 96.7636 96.958C96.5916 97.034 96.3896 97.072 96.1576 97.072ZM99.2025 97C99.0225 97 98.8665 96.972 98.7345 96.916C98.6025 96.86 98.5005 96.766 98.4285 96.634C98.3605 96.498 98.3265 96.316 98.3265 96.088V94.402H97.7985V93.976H98.3265L98.3925 93.244H98.8305V93.976H99.7065V94.402H98.8305V96.088C98.8305 96.276 98.8685 96.404 98.9445 96.472C99.0205 96.536 99.1545 96.568 99.3465 96.568H99.6705V97H99.2025ZM102.198 98.32V93.976H102.654L102.696 94.468C102.76 94.372 102.842 94.282 102.942 94.198C103.042 94.11 103.162 94.04 103.302 93.988C103.442 93.932 103.602 93.904 103.782 93.904C104.078 93.904 104.334 93.974 104.55 94.114C104.77 94.254 104.94 94.444 105.06 94.684C105.184 94.92 105.246 95.19 105.246 95.494C105.246 95.798 105.184 96.07 105.06 96.31C104.94 96.546 104.77 96.732 104.55 96.868C104.33 97.004 104.072 97.072 103.776 97.072C103.532 97.072 103.316 97.022 103.128 96.922C102.944 96.822 102.802 96.682 102.702 96.502V98.32H102.198ZM103.722 96.634C103.918 96.634 104.092 96.586 104.244 96.49C104.396 96.394 104.514 96.262 104.598 96.094C104.686 95.922 104.73 95.72 104.73 95.488C104.73 95.26 104.686 95.06 104.598 94.888C104.514 94.716 104.396 94.582 104.244 94.486C104.092 94.39 103.918 94.342 103.722 94.342C103.522 94.342 103.346 94.39 103.194 94.486C103.042 94.582 102.924 94.716 102.84 94.888C102.756 95.06 102.714 95.26 102.714 95.488C102.714 95.72 102.756 95.922 102.84 96.094C102.924 96.262 103.042 96.394 103.194 96.49C103.346 96.586 103.522 96.634 103.722 96.634ZM106.164 98.32L106.902 96.664H106.728L105.54 93.976H106.086L107.07 96.286L108.102 93.976H108.624L106.692 98.32H106.164ZM110.476 97C110.296 97 110.14 96.972 110.008 96.916C109.876 96.86 109.774 96.766 109.702 96.634C109.634 96.498 109.6 96.316 109.6 96.088V94.402H109.072V93.976H109.6L109.666 93.244H110.104V93.976H110.98V94.402H110.104V96.088C110.104 96.276 110.142 96.404 110.218 96.472C110.294 96.536 110.428 96.568 110.62 96.568H110.944V97H110.476ZM111.757 97V92.68H112.261V94.486C112.361 94.306 112.501 94.164 112.681 94.06C112.865 93.956 113.065 93.904 113.281 93.904C113.513 93.904 113.715 93.952 113.887 94.048C114.059 94.14 114.191 94.282 114.283 94.474C114.375 94.666 114.421 94.908 114.421 95.2V97H113.923V95.254C113.923 94.95 113.859 94.722 113.731 94.57C113.603 94.414 113.417 94.336 113.173 94.336C113.001 94.336 112.845 94.378 112.705 94.462C112.569 94.546 112.461 94.666 112.381 94.822C112.301 94.978 112.261 95.17 112.261 95.398V97H111.757ZM116.678 97.072C116.398 97.072 116.146 97.008 115.922 96.88C115.698 96.748 115.522 96.564 115.394 96.328C115.266 96.088 115.202 95.81 115.202 95.494C115.202 95.17 115.266 94.89 115.394 94.654C115.526 94.414 115.704 94.23 115.928 94.102C116.156 93.97 116.41 93.904 116.69 93.904C116.978 93.904 117.232 93.97 117.452 94.102C117.676 94.23 117.852 94.414 117.98 94.654C118.112 94.89 118.178 95.168 118.178 95.488C118.178 95.808 118.112 96.088 117.98 96.328C117.848 96.564 117.67 96.748 117.446 96.88C117.222 97.008 116.966 97.072 116.678 97.072ZM116.684 96.64C116.856 96.64 117.016 96.598 117.164 96.514C117.312 96.426 117.432 96.296 117.524 96.124C117.616 95.952 117.662 95.74 117.662 95.488C117.662 95.232 117.616 95.02 117.524 94.852C117.436 94.68 117.318 94.552 117.17 94.468C117.026 94.38 116.866 94.336 116.69 94.336C116.522 94.336 116.362 94.38 116.21 94.468C116.062 94.552 115.942 94.68 115.85 94.852C115.762 95.02 115.718 95.232 115.718 95.488C115.718 95.74 115.762 95.952 115.85 96.124C115.942 96.296 116.06 96.426 116.204 96.514C116.352 96.598 116.512 96.64 116.684 96.64ZM119.005 97V93.976H119.461L119.485 94.504C119.581 94.316 119.717 94.17 119.893 94.066C120.073 93.958 120.277 93.904 120.505 93.904C120.741 93.904 120.945 93.952 121.117 94.048C121.289 94.14 121.423 94.282 121.519 94.474C121.615 94.662 121.663 94.902 121.663 95.194V97H121.159V95.248C121.159 94.944 121.091 94.716 120.955 94.564C120.823 94.412 120.635 94.336 120.391 94.336C120.223 94.336 120.073 94.378 119.941 94.462C119.809 94.542 119.703 94.66 119.623 94.816C119.547 94.968 119.509 95.158 119.509 95.386V97H119.005ZM124.284 98.32V93.976H124.74L124.782 94.468C124.846 94.372 124.928 94.282 125.028 94.198C125.128 94.11 125.248 94.04 125.388 93.988C125.528 93.932 125.688 93.904 125.868 93.904C126.164 93.904 126.42 93.974 126.636 94.114C126.856 94.254 127.026 94.444 127.146 94.684C127.27 94.92 127.332 95.19 127.332 95.494C127.332 95.798 127.27 96.07 127.146 96.31C127.026 96.546 126.856 96.732 126.636 96.868C126.416 97.004 126.158 97.072 125.862 97.072C125.618 97.072 125.402 97.022 125.214 96.922C125.03 96.822 124.888 96.682 124.788 96.502V98.32H124.284ZM125.808 96.634C126.004 96.634 126.178 96.586 126.33 96.49C126.482 96.394 126.6 96.262 126.684 96.094C126.772 95.922 126.816 95.72 126.816 95.488C126.816 95.26 126.772 95.06 126.684 94.888C126.6 94.716 126.482 94.582 126.33 94.486C126.178 94.39 126.004 94.342 125.808 94.342C125.608 94.342 125.432 94.39 125.28 94.486C125.128 94.582 125.01 94.716 124.926 94.888C124.842 95.06 124.8 95.26 124.8 95.488C124.8 95.72 124.842 95.922 124.926 96.094C125.01 96.262 125.128 96.394 125.28 96.49C125.432 96.586 125.608 96.634 125.808 96.634ZM129.51 97.072C129.23 97.072 128.978 97.008 128.754 96.88C128.53 96.748 128.354 96.564 128.226 96.328C128.098 96.088 128.034 95.81 128.034 95.494C128.034 95.17 128.098 94.89 128.226 94.654C128.358 94.414 128.536 94.23 128.76 94.102C128.988 93.97 129.242 93.904 129.522 93.904C129.81 93.904 130.064 93.97 130.284 94.102C130.508 94.23 130.684 94.414 130.812 94.654C130.944 94.89 131.01 95.168 131.01 95.488C131.01 95.808 130.944 96.088 130.812 96.328C130.68 96.564 130.502 96.748 130.278 96.88C130.054 97.008 129.798 97.072 129.51 97.072ZM129.516 96.64C129.688 96.64 129.848 96.598 129.996 96.514C130.144 96.426 130.264 96.296 130.356 96.124C130.448 95.952 130.494 95.74 130.494 95.488C130.494 95.232 130.448 95.02 130.356 94.852C130.268 94.68 130.15 94.552 130.002 94.468C129.858 94.38 129.698 94.336 129.522 94.336C129.354 94.336 129.194 94.38 129.042 94.468C128.894 94.552 128.774 94.68 128.682 94.852C128.594 95.02 128.55 95.232 128.55 95.488C128.55 95.74 128.594 95.952 128.682 96.124C128.774 96.296 128.892 96.426 129.036 96.514C129.184 96.598 129.344 96.64 129.516 96.64ZM131.836 98.32V93.976H132.292L132.334 94.468C132.398 94.372 132.48 94.282 132.58 94.198C132.68 94.11 132.8 94.04 132.94 93.988C133.08 93.932 133.24 93.904 133.42 93.904C133.716 93.904 133.972 93.974 134.188 94.114C134.408 94.254 134.578 94.444 134.698 94.684C134.822 94.92 134.884 95.19 134.884 95.494C134.884 95.798 134.822 96.07 134.698 96.31C134.578 96.546 134.408 96.732 134.188 96.868C133.968 97.004 133.71 97.072 133.414 97.072C133.17 97.072 132.954 97.022 132.766 96.922C132.582 96.822 132.44 96.682 132.34 96.502V98.32H131.836ZM133.36 96.634C133.556 96.634 133.73 96.586 133.882 96.49C134.034 96.394 134.152 96.262 134.236 96.094C134.324 95.922 134.368 95.72 134.368 95.488C134.368 95.26 134.324 95.06 134.236 94.888C134.152 94.716 134.034 94.582 133.882 94.486C133.73 94.39 133.556 94.342 133.36 94.342C133.16 94.342 132.984 94.39 132.832 94.486C132.68 94.582 132.562 94.716 132.478 94.888C132.394 95.06 132.352 95.26 132.352 95.488C132.352 95.72 132.394 95.922 132.478 96.094C132.562 96.262 132.68 96.394 132.832 96.49C132.984 96.586 133.16 96.634 133.36 96.634ZM138.038 97L137.15 93.976H137.654L138.344 96.526H138.254L139.004 93.976H139.574L140.336 96.52L140.24 96.526L140.924 93.976H141.434L140.552 97H140.036L139.244 94.336H139.346L138.554 97H138.038ZM143.361 97.072C143.081 97.072 142.829 97.008 142.605 96.88C142.381 96.748 142.205 96.564 142.077 96.328C141.949 96.088 141.885 95.81 141.885 95.494C141.885 95.17 141.949 94.89 142.077 94.654C142.209 94.414 142.387 94.23 142.611 94.102C142.839 93.97 143.093 93.904 143.373 93.904C143.661 93.904 143.915 93.97 144.135 94.102C144.359 94.23 144.535 94.414 144.663 94.654C144.795 94.89 144.861 95.168 144.861 95.488C144.861 95.808 144.795 96.088 144.663 96.328C144.531 96.564 144.353 96.748 144.129 96.88C143.905 97.008 143.649 97.072 143.361 97.072ZM143.367 96.64C143.539 96.64 143.699 96.598 143.847 96.514C143.995 96.426 144.115 96.296 144.207 96.124C144.299 95.952 144.345 95.74 144.345 95.488C144.345 95.232 144.299 95.02 144.207 94.852C144.119 94.68 144.001 94.552 143.853 94.468C143.709 94.38 143.549 94.336 143.373 94.336C143.205 94.336 143.045 94.38 142.893 94.468C142.745 94.552 142.625 94.68 142.533 94.852C142.445 95.02 142.401 95.232 142.401 95.488C142.401 95.74 142.445 95.952 142.533 96.124C142.625 96.296 142.743 96.426 142.887 96.514C143.035 96.598 143.195 96.64 143.367 96.64ZM145.688 97V93.976H146.144L146.18 94.552C146.248 94.416 146.334 94.3 146.438 94.204C146.546 94.108 146.674 94.034 146.822 93.982C146.974 93.93 147.146 93.904 147.338 93.904V94.432H147.152C147.024 94.432 146.902 94.45 146.786 94.486C146.67 94.518 146.566 94.572 146.474 94.648C146.386 94.724 146.316 94.828 146.264 94.96C146.216 95.088 146.192 95.248 146.192 95.44V97H145.688ZM149.888 97L148.448 95.344L149.762 93.976H150.38L148.874 95.524L148.88 95.164L150.53 97H149.888ZM148.028 97V92.68H148.532V97H148.028ZM151.22 97V93.976H151.724V97H151.22ZM151.472 93.334C151.372 93.334 151.288 93.302 151.22 93.238C151.156 93.17 151.124 93.086 151.124 92.986C151.124 92.886 151.156 92.806 151.22 92.746C151.288 92.682 151.372 92.65 151.472 92.65C151.568 92.65 151.65 92.682 151.718 92.746C151.786 92.806 151.82 92.886 151.82 92.986C151.82 93.086 151.786 93.17 151.718 93.238C151.65 93.302 151.568 93.334 151.472 93.334ZM153.921 97C153.741 97 153.585 96.972 153.453 96.916C153.321 96.86 153.219 96.766 153.147 96.634C153.079 96.498 153.045 96.316 153.045 96.088V94.402H152.517V93.976H153.045L153.111 93.244H153.549V93.976H154.425V94.402H153.549V96.088C153.549 96.276 153.587 96.404 153.663 96.472C153.739 96.536 153.873 96.568 154.065 96.568H154.389V97H153.921ZM156.447 97.072C156.163 97.072 155.911 97.006 155.691 96.874C155.475 96.742 155.305 96.558 155.181 96.322C155.057 96.082 154.995 95.804 154.995 95.488C154.995 95.168 155.055 94.89 155.175 94.654C155.299 94.418 155.471 94.234 155.691 94.102C155.915 93.97 156.171 93.904 156.459 93.904C156.755 93.904 157.005 93.97 157.209 94.102C157.417 94.234 157.575 94.408 157.683 94.624C157.795 94.836 157.851 95.07 157.851 95.326C157.851 95.366 157.851 95.408 157.851 95.452C157.851 95.496 157.849 95.546 157.845 95.602H155.373V95.212H157.359C157.347 94.936 157.255 94.72 157.083 94.564C156.915 94.408 156.703 94.33 156.447 94.33C156.275 94.33 156.115 94.37 155.967 94.45C155.823 94.526 155.707 94.64 155.619 94.792C155.531 94.94 155.487 95.126 155.487 95.35V95.518C155.487 95.766 155.531 95.974 155.619 96.142C155.711 96.31 155.829 96.436 155.973 96.52C156.121 96.604 156.279 96.646 156.447 96.646C156.659 96.646 156.833 96.6 156.969 96.508C157.109 96.412 157.209 96.284 157.269 96.124H157.767C157.719 96.304 157.635 96.466 157.515 96.61C157.395 96.754 157.245 96.868 157.065 96.952C156.889 97.032 156.683 97.072 156.447 97.072ZM158.651 97V93.976H159.107L159.137 94.408C159.233 94.252 159.361 94.13 159.521 94.042C159.685 93.95 159.863 93.904 160.055 93.904C160.211 93.904 160.351 93.926 160.475 93.97C160.603 94.01 160.715 94.074 160.811 94.162C160.907 94.246 160.985 94.354 161.045 94.486C161.149 94.302 161.291 94.16 161.471 94.06C161.655 93.956 161.851 93.904 162.059 93.904C162.291 93.904 162.493 93.952 162.665 94.048C162.841 94.14 162.975 94.282 163.067 94.474C163.163 94.662 163.211 94.902 163.211 95.194V97H162.713V95.248C162.713 94.944 162.651 94.716 162.527 94.564C162.403 94.412 162.229 94.336 162.005 94.336C161.849 94.336 161.709 94.378 161.585 94.462C161.461 94.542 161.363 94.66 161.291 94.816C161.219 94.972 161.183 95.164 161.183 95.392V97H160.679V95.248C160.679 94.944 160.617 94.716 160.493 94.564C160.369 94.412 160.193 94.336 159.965 94.336C159.813 94.336 159.675 94.378 159.551 94.462C159.431 94.542 159.335 94.66 159.263 94.816C159.191 94.972 159.155 95.164 159.155 95.392V97H158.651Z" fill="#86888E"/>
<path d="M65.45 121V116.8H66.818C67.15 116.8 67.422 116.856 67.634 116.968C67.85 117.076 68.008 117.222 68.108 117.406C68.212 117.59 68.264 117.8 68.264 118.036C68.264 118.264 68.212 118.472 68.108 118.66C68.008 118.844 67.852 118.992 67.64 119.104C67.428 119.216 67.154 119.272 66.818 119.272H65.954V121H65.45ZM65.954 118.846H66.812C67.148 118.846 67.388 118.772 67.532 118.624C67.676 118.476 67.748 118.28 67.748 118.036C67.748 117.776 67.676 117.576 67.532 117.436C67.388 117.292 67.148 117.22 66.812 117.22H65.954V118.846ZM69.8638 121.072C69.6198 121.072 69.4158 121.03 69.2518 120.946C69.0878 120.858 68.9658 120.744 68.8858 120.604C68.8058 120.46 68.7658 120.304 68.7658 120.136C68.7658 119.932 68.8178 119.76 68.9218 119.62C69.0298 119.476 69.1798 119.368 69.3718 119.296C69.5678 119.22 69.7978 119.182 70.0618 119.182H70.8598C70.8598 118.994 70.8298 118.838 70.7698 118.714C70.7138 118.586 70.6298 118.49 70.5178 118.426C70.4098 118.362 70.2738 118.33 70.1098 118.33C69.9178 118.33 69.7518 118.378 69.6118 118.474C69.4718 118.57 69.3858 118.712 69.3538 118.9H68.8378C68.8618 118.684 68.9338 118.504 69.0538 118.36C69.1778 118.212 69.3338 118.1 69.5218 118.024C69.7098 117.944 69.9058 117.904 70.1098 117.904C70.3898 117.904 70.6218 117.956 70.8058 118.06C70.9938 118.16 71.1338 118.302 71.2258 118.486C71.3178 118.666 71.3638 118.88 71.3638 119.128V121H70.9138L70.8838 120.466C70.8438 120.55 70.7918 120.63 70.7278 120.706C70.6678 120.778 70.5958 120.842 70.5118 120.898C70.4278 120.95 70.3318 120.992 70.2238 121.024C70.1198 121.056 69.9998 121.072 69.8638 121.072ZM69.9418 120.646C70.0818 120.646 70.2078 120.618 70.3198 120.562C70.4358 120.502 70.5338 120.422 70.6138 120.322C70.6938 120.218 70.7538 120.104 70.7938 119.98C70.8378 119.856 70.8598 119.726 70.8598 119.59V119.572H70.1038C69.9078 119.572 69.7498 119.596 69.6298 119.644C69.5098 119.688 69.4238 119.752 69.3718 119.836C69.3198 119.916 69.2938 120.008 69.2938 120.112C69.2938 120.22 69.3178 120.314 69.3658 120.394C69.4178 120.474 69.4918 120.536 69.5878 120.58C69.6878 120.624 69.8058 120.646 69.9418 120.646ZM73.6255 121.072C73.3415 121.072 73.0855 121.006 72.8575 120.874C72.6335 120.742 72.4575 120.558 72.3295 120.322C72.2015 120.082 72.1375 119.806 72.1375 119.494C72.1375 119.174 72.2015 118.896 72.3295 118.66C72.4575 118.424 72.6335 118.24 72.8575 118.108C73.0855 117.972 73.3415 117.904 73.6255 117.904C73.9855 117.904 74.2855 117.998 74.5255 118.186C74.7655 118.37 74.9175 118.618 74.9815 118.93H74.4655C74.4255 118.742 74.3275 118.596 74.1715 118.492C74.0155 118.388 73.8315 118.336 73.6195 118.336C73.4475 118.336 73.2875 118.38 73.1395 118.468C72.9915 118.552 72.8735 118.68 72.7855 118.852C72.6975 119.024 72.6535 119.236 72.6535 119.488C72.6535 119.676 72.6795 119.844 72.7315 119.992C72.7835 120.136 72.8535 120.256 72.9415 120.352C73.0295 120.448 73.1315 120.522 73.2475 120.574C73.3675 120.622 73.4915 120.646 73.6195 120.646C73.7635 120.646 73.8935 120.624 74.0095 120.58C74.1255 120.532 74.2235 120.462 74.3035 120.37C74.3835 120.278 74.4375 120.17 74.4655 120.046H74.9815C74.9175 120.35 74.7635 120.598 74.5195 120.79C74.2795 120.978 73.9815 121.072 73.6255 121.072ZM77.6771 121L76.2371 119.344L77.5511 117.976H78.1691L76.6631 119.524L76.6691 119.164L78.3191 121H77.6771ZM75.8171 121V116.68H76.3211V121H75.8171ZM79.9211 121.072C79.6771 121.072 79.4731 121.03 79.3091 120.946C79.1451 120.858 79.0231 120.744 78.9431 120.604C78.8631 120.46 78.8231 120.304 78.8231 120.136C78.8231 119.932 78.8751 119.76 78.9791 119.62C79.0871 119.476 79.2371 119.368 79.4291 119.296C79.6251 119.22 79.8551 119.182 80.1191 119.182H80.9171C80.9171 118.994 80.8871 118.838 80.8271 118.714C80.7711 118.586 80.6871 118.49 80.5751 118.426C80.4671 118.362 80.3311 118.33 80.1671 118.33C79.9751 118.33 79.8091 118.378 79.6691 118.474C79.5291 118.57 79.4431 118.712 79.4111 118.9H78.8951C78.9191 118.684 78.9911 118.504 79.1111 118.36C79.2351 118.212 79.3911 118.1 79.5791 118.024C79.7671 117.944 79.9631 117.904 80.1671 117.904C80.4471 117.904 80.6791 117.956 80.8631 118.06C81.0511 118.16 81.1911 118.302 81.2831 118.486C81.3751 118.666 81.4211 118.88 81.4211 119.128V121H80.9711L80.9411 120.466C80.9011 120.55 80.8491 120.63 80.7851 120.706C80.7251 120.778 80.6531 120.842 80.5691 120.898C80.4851 120.95 80.3891 120.992 80.2811 121.024C80.1771 121.056 80.0571 121.072 79.9211 121.072ZM79.9991 120.646C80.1391 120.646 80.2651 120.618 80.3771 120.562C80.4931 120.502 80.5911 120.422 80.6711 120.322C80.7511 120.218 80.8111 120.104 80.8511 119.98C80.8951 119.856 80.9171 119.726 80.9171 119.59V119.572H80.1611C79.9651 119.572 79.8071 119.596 79.6871 119.644C79.5671 119.688 79.4811 119.752 79.4291 119.836C79.3771 119.916 79.3511 120.008 79.3511 120.112C79.3511 120.22 79.3751 120.314 79.4231 120.394C79.4751 120.474 79.5491 120.536 79.6451 120.58C79.7451 120.624 79.8631 120.646 79.9991 120.646ZM83.5148 122.392C83.2428 122.392 83.0008 122.356 82.7888 122.284C82.5808 122.216 82.4188 122.11 82.3028 121.966C82.1868 121.822 82.1288 121.644 82.1288 121.432C82.1288 121.34 82.1468 121.242 82.1828 121.138C82.2228 121.034 82.2888 120.932 82.3808 120.832C82.4768 120.732 82.6108 120.642 82.7828 120.562L83.1308 120.766C82.9188 120.854 82.7808 120.954 82.7168 121.066C82.6528 121.182 82.6208 121.288 82.6208 121.384C82.6208 121.516 82.6588 121.626 82.7348 121.714C82.8108 121.802 82.9168 121.868 83.0528 121.912C83.1888 121.956 83.3428 121.978 83.5148 121.978C83.6868 121.978 83.8348 121.954 83.9588 121.906C84.0828 121.858 84.1788 121.79 84.2468 121.702C84.3148 121.614 84.3488 121.51 84.3488 121.39C84.3488 121.25 84.2968 121.132 84.1928 121.036C84.0888 120.944 83.8908 120.89 83.5988 120.874C83.3628 120.858 83.1648 120.836 83.0048 120.808C82.8448 120.78 82.7128 120.748 82.6088 120.712C82.5048 120.672 82.4168 120.628 82.3448 120.58C82.2768 120.532 82.2148 120.482 82.1588 120.43V120.292L82.7408 119.716L83.1788 119.872L82.5788 120.412L82.6568 120.202C82.7008 120.234 82.7428 120.264 82.7828 120.292C82.8228 120.32 82.8768 120.344 82.9448 120.364C83.0128 120.384 83.1068 120.402 83.2268 120.418C83.3508 120.434 83.5128 120.45 83.7128 120.466C83.9888 120.486 84.2088 120.534 84.3728 120.61C84.5408 120.686 84.6608 120.788 84.7328 120.916C84.8088 121.044 84.8468 121.196 84.8468 121.372C84.8468 121.544 84.7988 121.706 84.7028 121.858C84.6108 122.014 84.4668 122.142 84.2708 122.242C84.0748 122.342 83.8228 122.392 83.5148 122.392ZM83.5088 120.052C83.2568 120.052 83.0408 120.004 82.8608 119.908C82.6848 119.812 82.5508 119.684 82.4588 119.524C82.3668 119.36 82.3208 119.178 82.3208 118.978C82.3208 118.778 82.3668 118.598 82.4588 118.438C82.5548 118.278 82.6908 118.15 82.8668 118.054C83.0428 117.954 83.2568 117.904 83.5088 117.904C83.7608 117.904 83.9748 117.954 84.1508 118.054C84.3268 118.15 84.4608 118.278 84.5528 118.438C84.6448 118.598 84.6908 118.778 84.6908 118.978C84.6908 119.178 84.6448 119.36 84.5528 119.524C84.4608 119.684 84.3268 119.812 84.1508 119.908C83.9748 120.004 83.7608 120.052 83.5088 120.052ZM83.5088 119.638C83.7248 119.638 83.8948 119.582 84.0188 119.47C84.1428 119.358 84.2048 119.194 84.2048 118.978C84.2048 118.766 84.1428 118.604 84.0188 118.492C83.8948 118.38 83.7248 118.324 83.5088 118.324C83.2968 118.324 83.1248 118.38 82.9928 118.492C82.8648 118.604 82.8008 118.766 82.8008 118.978C82.8008 119.194 82.8648 119.358 82.9928 119.47C83.1208 119.582 83.2928 119.638 83.5088 119.638ZM84.0008 118.402L83.8508 117.976H85.0868V118.354L84.0008 118.402ZM86.9953 121.072C86.7113 121.072 86.4593 121.006 86.2393 120.874C86.0233 120.742 85.8533 120.558 85.7293 120.322C85.6053 120.082 85.5433 119.804 85.5433 119.488C85.5433 119.168 85.6033 118.89 85.7233 118.654C85.8473 118.418 86.0193 118.234 86.2393 118.102C86.4633 117.97 86.7193 117.904 87.0073 117.904C87.3033 117.904 87.5533 117.97 87.7573 118.102C87.9653 118.234 88.1233 118.408 88.2313 118.624C88.3433 118.836 88.3993 119.07 88.3993 119.326C88.3993 119.366 88.3993 119.408 88.3993 119.452C88.3993 119.496 88.3973 119.546 88.3933 119.602H85.9213V119.212H87.9073C87.8953 118.936 87.8033 118.72 87.6313 118.564C87.4633 118.408 87.2513 118.33 86.9953 118.33C86.8233 118.33 86.6633 118.37 86.5153 118.45C86.3713 118.526 86.2553 118.64 86.1673 118.792C86.0793 118.94 86.0353 119.126 86.0353 119.35V119.518C86.0353 119.766 86.0793 119.974 86.1673 120.142C86.2593 120.31 86.3773 120.436 86.5213 120.52C86.6693 120.604 86.8273 120.646 86.9953 120.646C87.2073 120.646 87.3813 120.6 87.5173 120.508C87.6573 120.412 87.7573 120.284 87.8173 120.124H88.3153C88.2673 120.304 88.1833 120.466 88.0633 120.61C87.9433 120.754 87.7933 120.868 87.6133 120.952C87.4373 121.032 87.2313 121.072 86.9953 121.072ZM90.2878 121C90.1078 121 89.9518 120.972 89.8198 120.916C89.6878 120.86 89.5858 120.766 89.5138 120.634C89.4458 120.498 89.4118 120.316 89.4118 120.088V118.402H88.8838V117.976H89.4118L89.4778 117.244H89.9158V117.976H90.7918V118.402H89.9158V120.088C89.9158 120.276 89.9538 120.404 90.0298 120.472C90.1058 120.536 90.2398 120.568 90.4318 120.568H90.7558V121H90.2878ZM92.8134 121.072C92.5294 121.072 92.2774 121.006 92.0574 120.874C91.8414 120.742 91.6714 120.558 91.5474 120.322C91.4234 120.082 91.3614 119.804 91.3614 119.488C91.3614 119.168 91.4214 118.89 91.5414 118.654C91.6654 118.418 91.8374 118.234 92.0574 118.102C92.2814 117.97 92.5374 117.904 92.8254 117.904C93.1214 117.904 93.3714 117.97 93.5754 118.102C93.7834 118.234 93.9414 118.408 94.0494 118.624C94.1614 118.836 94.2174 119.07 94.2174 119.326C94.2174 119.366 94.2174 119.408 94.2174 119.452C94.2174 119.496 94.2154 119.546 94.2114 119.602H91.7394V119.212H93.7254C93.7134 118.936 93.6214 118.72 93.4494 118.564C93.2814 118.408 93.0694 118.33 92.8134 118.33C92.6414 118.33 92.4814 118.37 92.3334 118.45C92.1894 118.526 92.0734 118.64 91.9854 118.792C91.8974 118.94 91.8534 119.126 91.8534 119.35V119.518C91.8534 119.766 91.8974 119.974 91.9854 120.142C92.0774 120.31 92.1954 120.436 92.3394 120.52C92.4874 120.604 92.6454 120.646 92.8134 120.646C93.0254 120.646 93.1994 120.6 93.3354 120.508C93.4754 120.412 93.5754 120.284 93.6354 120.124H94.1334C94.0854 120.304 94.0014 120.466 93.8814 120.61C93.7614 120.754 93.6114 120.868 93.4314 120.952C93.2554 121.032 93.0494 121.072 92.8134 121.072ZM96.1576 121.072C95.9056 121.072 95.6856 121.03 95.4976 120.946C95.3136 120.862 95.1656 120.746 95.0536 120.598C94.9456 120.446 94.8796 120.268 94.8556 120.064H95.3716C95.3916 120.168 95.4336 120.264 95.4976 120.352C95.5616 120.44 95.6476 120.512 95.7556 120.568C95.8676 120.62 96.0036 120.646 96.1636 120.646C96.3036 120.646 96.4196 120.626 96.5116 120.586C96.6036 120.542 96.6716 120.484 96.7156 120.412C96.7636 120.34 96.7876 120.262 96.7876 120.178C96.7876 120.054 96.7576 119.96 96.6976 119.896C96.6416 119.832 96.5576 119.782 96.4456 119.746C96.3336 119.706 96.1976 119.672 96.0376 119.644C95.9056 119.62 95.7756 119.588 95.6476 119.548C95.5196 119.508 95.4056 119.456 95.3056 119.392C95.2056 119.324 95.1256 119.242 95.0656 119.146C95.0096 119.05 94.9816 118.932 94.9816 118.792C94.9816 118.62 95.0256 118.468 95.1136 118.336C95.2016 118.2 95.3276 118.094 95.4916 118.018C95.6596 117.942 95.8536 117.904 96.0736 117.904C96.3976 117.904 96.6596 117.982 96.8596 118.138C97.0596 118.294 97.1776 118.52 97.2136 118.816H96.7156C96.6956 118.664 96.6296 118.546 96.5176 118.462C96.4096 118.374 96.2596 118.33 96.0676 118.33C95.8796 118.33 95.7356 118.368 95.6356 118.444C95.5396 118.52 95.4916 118.62 95.4916 118.744C95.4916 118.824 95.5176 118.896 95.5696 118.96C95.6256 119.02 95.7056 119.072 95.8096 119.116C95.9176 119.16 96.0496 119.196 96.2056 119.224C96.4056 119.26 96.5876 119.308 96.7516 119.368C96.9156 119.428 97.0476 119.518 97.1476 119.638C97.2516 119.754 97.3036 119.92 97.3036 120.136C97.3036 120.324 97.2556 120.488 97.1596 120.628C97.0676 120.768 96.9356 120.878 96.7636 120.958C96.5916 121.034 96.3896 121.072 96.1576 121.072ZM99.2025 121C99.0225 121 98.8665 120.972 98.7345 120.916C98.6025 120.86 98.5005 120.766 98.4285 120.634C98.3605 120.498 98.3265 120.316 98.3265 120.088V118.402H97.7985V117.976H98.3265L98.3925 117.244H98.8305V117.976H99.7065V118.402H98.8305V120.088C98.8305 120.276 98.8685 120.404 98.9445 120.472C99.0205 120.536 99.1545 120.568 99.3465 120.568H99.6705V121H99.2025ZM102.198 121V117.976H102.654L102.678 118.504C102.774 118.316 102.91 118.17 103.086 118.066C103.266 117.958 103.47 117.904 103.698 117.904C103.934 117.904 104.138 117.952 104.31 118.048C104.482 118.14 104.616 118.282 104.712 118.474C104.808 118.662 104.856 118.902 104.856 119.194V121H104.352V119.248C104.352 118.944 104.284 118.716 104.148 118.564C104.016 118.412 103.828 118.336 103.584 118.336C103.416 118.336 103.266 118.378 103.134 118.462C103.002 118.542 102.896 118.66 102.816 118.816C102.74 118.968 102.702 119.158 102.702 119.386V121H102.198ZM107.113 121.072C106.833 121.072 106.581 121.008 106.357 120.88C106.133 120.748 105.957 120.564 105.829 120.328C105.701 120.088 105.637 119.81 105.637 119.494C105.637 119.17 105.701 118.89 105.829 118.654C105.961 118.414 106.139 118.23 106.363 118.102C106.591 117.97 106.845 117.904 107.125 117.904C107.413 117.904 107.667 117.97 107.887 118.102C108.111 118.23 108.287 118.414 108.415 118.654C108.547 118.89 108.613 119.168 108.613 119.488C108.613 119.808 108.547 120.088 108.415 120.328C108.283 120.564 108.105 120.748 107.881 120.88C107.657 121.008 107.401 121.072 107.113 121.072ZM107.119 120.64C107.291 120.64 107.451 120.598 107.599 120.514C107.747 120.426 107.867 120.296 107.959 120.124C108.051 119.952 108.097 119.74 108.097 119.488C108.097 119.232 108.051 119.02 107.959 118.852C107.871 118.68 107.753 118.552 107.605 118.468C107.461 118.38 107.301 118.336 107.125 118.336C106.957 118.336 106.797 118.38 106.645 118.468C106.497 118.552 106.377 118.68 106.285 118.852C106.197 119.02 106.153 119.232 106.153 119.488C106.153 119.74 106.197 119.952 106.285 120.124C106.377 120.296 106.495 120.426 106.639 120.514C106.787 120.598 106.947 120.64 107.119 120.64ZM110.772 121.072C110.48 121.072 110.224 121.004 110.004 120.868C109.784 120.728 109.614 120.538 109.494 120.298C109.374 120.058 109.314 119.786 109.314 119.482C109.314 119.178 109.374 118.908 109.494 118.672C109.614 118.432 109.784 118.244 110.004 118.108C110.228 117.972 110.486 117.904 110.778 117.904C111.026 117.904 111.242 117.954 111.426 118.054C111.614 118.154 111.758 118.294 111.858 118.474V116.68H112.362V121H111.906L111.864 120.502C111.8 120.602 111.718 120.696 111.618 120.784C111.518 120.868 111.398 120.938 111.258 120.994C111.118 121.046 110.956 121.072 110.772 121.072ZM110.832 120.634C111.032 120.634 111.208 120.586 111.36 120.49C111.512 120.394 111.63 120.262 111.714 120.094C111.798 119.922 111.84 119.72 111.84 119.488C111.84 119.26 111.798 119.06 111.714 118.888C111.63 118.716 111.512 118.582 111.36 118.486C111.208 118.39 111.032 118.342 110.832 118.342C110.636 118.342 110.462 118.39 110.31 118.486C110.158 118.582 110.04 118.716 109.956 118.888C109.872 119.06 109.83 119.26 109.83 119.488C109.83 119.72 109.872 119.922 109.956 120.094C110.04 120.262 110.158 120.394 110.31 120.49C110.462 120.586 110.636 120.634 110.832 120.634ZM114.648 121.072C114.364 121.072 114.112 121.006 113.892 120.874C113.676 120.742 113.506 120.558 113.382 120.322C113.258 120.082 113.196 119.804 113.196 119.488C113.196 119.168 113.256 118.89 113.376 118.654C113.5 118.418 113.672 118.234 113.892 118.102C114.116 117.97 114.372 117.904 114.66 117.904C114.956 117.904 115.206 117.97 115.41 118.102C115.618 118.234 115.776 118.408 115.884 118.624C115.996 118.836 116.052 119.07 116.052 119.326C116.052 119.366 116.052 119.408 116.052 119.452C116.052 119.496 116.05 119.546 116.046 119.602H113.574V119.212H115.56C115.548 118.936 115.456 118.72 115.284 118.564C115.116 118.408 114.904 118.33 114.648 118.33C114.476 118.33 114.316 118.37 114.168 118.45C114.024 118.526 113.908 118.64 113.82 118.792C113.732 118.94 113.688 119.126 113.688 119.35V119.518C113.688 119.766 113.732 119.974 113.82 120.142C113.912 120.31 114.03 120.436 114.174 120.52C114.322 120.604 114.48 120.646 114.648 120.646C114.86 120.646 115.034 120.6 115.17 120.508C115.31 120.412 115.41 120.284 115.47 120.124H115.968C115.92 120.304 115.836 120.466 115.716 120.61C115.596 120.754 115.446 120.868 115.266 120.952C115.09 121.032 114.884 121.072 114.648 121.072ZM118.565 122.32V117.976H119.021L119.063 118.468C119.127 118.372 119.209 118.282 119.309 118.198C119.409 118.11 119.529 118.04 119.669 117.988C119.809 117.932 119.969 117.904 120.149 117.904C120.445 117.904 120.701 117.974 120.917 118.114C121.137 118.254 121.307 118.444 121.427 118.684C121.551 118.92 121.613 119.19 121.613 119.494C121.613 119.798 121.551 120.07 121.427 120.31C121.307 120.546 121.137 120.732 120.917 120.868C120.697 121.004 120.439 121.072 120.143 121.072C119.899 121.072 119.683 121.022 119.495 120.922C119.311 120.822 119.169 120.682 119.069 120.502V122.32H118.565ZM120.089 120.634C120.285 120.634 120.459 120.586 120.611 120.49C120.763 120.394 120.881 120.262 120.965 120.094C121.053 119.922 121.097 119.72 121.097 119.488C121.097 119.26 121.053 119.06 120.965 118.888C120.881 118.716 120.763 118.582 120.611 118.486C120.459 118.39 120.285 118.342 120.089 118.342C119.889 118.342 119.713 118.39 119.561 118.486C119.409 118.582 119.291 118.716 119.207 118.888C119.123 119.06 119.081 119.26 119.081 119.488C119.081 119.72 119.123 119.922 119.207 120.094C119.291 120.262 119.409 120.394 119.561 120.49C119.713 120.586 119.889 120.634 120.089 120.634ZM123.791 121.072C123.511 121.072 123.259 121.008 123.035 120.88C122.811 120.748 122.635 120.564 122.507 120.328C122.379 120.088 122.315 119.81 122.315 119.494C122.315 119.17 122.379 118.89 122.507 118.654C122.639 118.414 122.817 118.23 123.041 118.102C123.269 117.97 123.523 117.904 123.803 117.904C124.091 117.904 124.345 117.97 124.565 118.102C124.789 118.23 124.965 118.414 125.093 118.654C125.225 118.89 125.291 119.168 125.291 119.488C125.291 119.808 125.225 120.088 125.093 120.328C124.961 120.564 124.783 120.748 124.559 120.88C124.335 121.008 124.079 121.072 123.791 121.072ZM123.797 120.64C123.969 120.64 124.129 120.598 124.277 120.514C124.425 120.426 124.545 120.296 124.637 120.124C124.729 119.952 124.775 119.74 124.775 119.488C124.775 119.232 124.729 119.02 124.637 118.852C124.549 118.68 124.431 118.552 124.283 118.468C124.139 118.38 123.979 118.336 123.803 118.336C123.635 118.336 123.475 118.38 123.323 118.468C123.175 118.552 123.055 118.68 122.963 118.852C122.875 119.02 122.831 119.232 122.831 119.488C122.831 119.74 122.875 119.952 122.963 120.124C123.055 120.296 123.173 120.426 123.317 120.514C123.465 120.598 123.625 120.64 123.797 120.64ZM126.118 122.32V117.976H126.574L126.616 118.468C126.68 118.372 126.762 118.282 126.862 118.198C126.962 118.11 127.082 118.04 127.222 117.988C127.362 117.932 127.522 117.904 127.702 117.904C127.998 117.904 128.254 117.974 128.47 118.114C128.69 118.254 128.86 118.444 128.98 118.684C129.104 118.92 129.166 119.19 129.166 119.494C129.166 119.798 129.104 120.07 128.98 120.31C128.86 120.546 128.69 120.732 128.47 120.868C128.25 121.004 127.992 121.072 127.696 121.072C127.452 121.072 127.236 121.022 127.048 120.922C126.864 120.822 126.722 120.682 126.622 120.502V122.32H126.118ZM127.642 120.634C127.838 120.634 128.012 120.586 128.164 120.49C128.316 120.394 128.434 120.262 128.518 120.094C128.606 119.922 128.65 119.72 128.65 119.488C128.65 119.26 128.606 119.06 128.518 118.888C128.434 118.716 128.316 118.582 128.164 118.486C128.012 118.39 127.838 118.342 127.642 118.342C127.442 118.342 127.266 118.39 127.114 118.486C126.962 118.582 126.844 118.716 126.76 118.888C126.676 119.06 126.634 119.26 126.634 119.488C126.634 119.72 126.676 119.922 126.76 120.094C126.844 120.262 126.962 120.394 127.114 120.49C127.266 120.586 127.442 120.634 127.642 120.634ZM132.32 121L131.432 117.976H131.936L132.626 120.526H132.536L133.286 117.976H133.856L134.618 120.52L134.522 120.526L135.206 117.976H135.716L134.834 121H134.318L133.526 118.336H133.628L132.836 121H132.32ZM137.642 121.072C137.362 121.072 137.11 121.008 136.886 120.88C136.662 120.748 136.486 120.564 136.358 120.328C136.23 120.088 136.166 119.81 136.166 119.494C136.166 119.17 136.23 118.89 136.358 118.654C136.49 118.414 136.668 118.23 136.892 118.102C137.12 117.97 137.374 117.904 137.654 117.904C137.942 117.904 138.196 117.97 138.416 118.102C138.64 118.23 138.816 118.414 138.944 118.654C139.076 118.89 139.142 119.168 139.142 119.488C139.142 119.808 139.076 120.088 138.944 120.328C138.812 120.564 138.634 120.748 138.41 120.88C138.186 121.008 137.93 121.072 137.642 121.072ZM137.648 120.64C137.82 120.64 137.98 120.598 138.128 120.514C138.276 120.426 138.396 120.296 138.488 120.124C138.58 119.952 138.626 119.74 138.626 119.488C138.626 119.232 138.58 119.02 138.488 118.852C138.4 118.68 138.282 118.552 138.134 118.468C137.99 118.38 137.83 118.336 137.654 118.336C137.486 118.336 137.326 118.38 137.174 118.468C137.026 118.552 136.906 118.68 136.814 118.852C136.726 119.02 136.682 119.232 136.682 119.488C136.682 119.74 136.726 119.952 136.814 120.124C136.906 120.296 137.024 120.426 137.168 120.514C137.316 120.598 137.476 120.64 137.648 120.64ZM139.969 121V117.976H140.425L140.461 118.552C140.529 118.416 140.615 118.3 140.719 118.204C140.827 118.108 140.955 118.034 141.103 117.982C141.255 117.93 141.427 117.904 141.619 117.904V118.432H141.433C141.305 118.432 141.183 118.45 141.067 118.486C140.951 118.518 140.847 118.572 140.755 118.648C140.667 118.724 140.597 118.828 140.545 118.96C140.497 119.088 140.473 119.248 140.473 119.44V121H139.969ZM144.17 121L142.73 119.344L144.044 117.976H144.662L143.156 119.524L143.162 119.164L144.812 121H144.17ZM142.31 121V116.68H142.814V121H142.31ZM145.501 121V117.976H146.005V121H145.501ZM145.753 117.334C145.653 117.334 145.569 117.302 145.501 117.238C145.437 117.17 145.405 117.086 145.405 116.986C145.405 116.886 145.437 116.806 145.501 116.746C145.569 116.682 145.653 116.65 145.753 116.65C145.849 116.65 145.931 116.682 145.999 116.746C146.067 116.806 146.101 116.886 146.101 116.986C146.101 117.086 146.067 117.17 145.999 117.238C145.931 117.302 145.849 117.334 145.753 117.334ZM148.203 121C148.023 121 147.867 120.972 147.735 120.916C147.603 120.86 147.501 120.766 147.429 120.634C147.361 120.498 147.327 120.316 147.327 120.088V118.402H146.799V117.976H147.327L147.393 117.244H147.831V117.976H148.707V118.402H147.831V120.088C147.831 120.276 147.869 120.404 147.945 120.472C148.021 120.536 148.155 120.568 148.347 120.568H148.671V121H148.203ZM150.728 121.072C150.444 121.072 150.192 121.006 149.972 120.874C149.756 120.742 149.586 120.558 149.462 120.322C149.338 120.082 149.276 119.804 149.276 119.488C149.276 119.168 149.336 118.89 149.456 118.654C149.58 118.418 149.752 118.234 149.972 118.102C150.196 117.97 150.452 117.904 150.74 117.904C151.036 117.904 151.286 117.97 151.49 118.102C151.698 118.234 151.856 118.408 151.964 118.624C152.076 118.836 152.132 119.07 152.132 119.326C152.132 119.366 152.132 119.408 152.132 119.452C152.132 119.496 152.13 119.546 152.126 119.602H149.654V119.212H151.64C151.628 118.936 151.536 118.72 151.364 118.564C151.196 118.408 150.984 118.33 150.728 118.33C150.556 118.33 150.396 118.37 150.248 118.45C150.104 118.526 149.988 118.64 149.9 118.792C149.812 118.94 149.768 119.126 149.768 119.35V119.518C149.768 119.766 149.812 119.974 149.9 120.142C149.992 120.31 150.11 120.436 150.254 120.52C150.402 120.604 150.56 120.646 150.728 120.646C150.94 120.646 151.114 120.6 151.25 120.508C151.39 120.412 151.49 120.284 151.55 120.124H152.048C152 120.304 151.916 120.466 151.796 120.61C151.676 120.754 151.526 120.868 151.346 120.952C151.17 121.032 150.964 121.072 150.728 121.072ZM152.932 121V117.976H153.388L153.418 118.408C153.514 118.252 153.642 118.13 153.802 118.042C153.966 117.95 154.144 117.904 154.336 117.904C154.492 117.904 154.632 117.926 154.756 117.97C154.884 118.01 154.996 118.074 155.092 118.162C155.188 118.246 155.266 118.354 155.326 118.486C155.43 118.302 155.572 118.16 155.752 118.06C155.936 117.956 156.132 117.904 156.34 117.904C156.572 117.904 156.774 117.952 156.946 118.048C157.122 118.14 157.256 118.282 157.348 118.474C157.444 118.662 157.492 118.902 157.492 119.194V121H156.994V119.248C156.994 118.944 156.932 118.716 156.808 118.564C156.684 118.412 156.51 118.336 156.286 118.336C156.13 118.336 155.99 118.378 155.866 118.462C155.742 118.542 155.644 118.66 155.572 118.816C155.5 118.972 155.464 119.164 155.464 119.392V121H154.96V119.248C154.96 118.944 154.898 118.716 154.774 118.564C154.65 118.412 154.474 118.336 154.246 118.336C154.094 118.336 153.956 118.378 153.832 118.462C153.712 118.542 153.616 118.66 153.544 118.816C153.472 118.972 153.436 119.164 153.436 119.392V121H152.932Z" fill="#86888E"/>
</svg>
