<svg width="402" height="117" viewBox="0 0 402 117" fill="none" xmlns="http://www.w3.org/2000/svg">
<g clip-path="url(#clip0_2369_54867)">
<rect width="407" height="136" rx="5" fill="#1D1F22"/>
<path d="M31 41L92.5 48.5L118.5 62L135.5 41L183.5 34.5L205.5 29.5L231 41L257 70.5L288.5 76L312.5 86L331.5 99.5L367 58.5L402.5 34.5H413V143H31V41Z" fill="#A1D2DF" fill-opacity="0.2" stroke="#5D97A6"/>
</g>
<path d="M13.032 17.096C12.488 17.096 12.016 16.976 11.616 16.736C11.2213 16.4907 10.9173 16.152 10.704 15.72C10.4907 15.2827 10.384 14.776 10.384 14.2C10.384 13.624 10.4907 13.12 10.704 12.688C10.9173 12.2507 11.2213 11.912 11.616 11.672C12.016 11.4267 12.488 11.304 13.032 11.304C13.672 11.304 14.192 11.456 14.592 11.76C14.992 12.064 15.248 12.4933 15.36 13.048H14.616C14.5307 12.7013 14.3573 12.424 14.096 12.216C13.8347 12.0027 13.48 11.896 13.032 11.896C12.632 11.896 12.2853 11.9893 11.992 12.176C11.6987 12.3573 11.472 12.6213 11.312 12.968C11.152 13.3093 11.072 13.72 11.072 14.2C11.072 14.68 11.152 15.0933 11.312 15.44C11.472 15.7813 11.6987 16.0453 11.992 16.232C12.2853 16.4133 12.632 16.504 13.032 16.504C13.48 16.504 13.8347 16.4027 14.096 16.2C14.3573 15.992 14.5307 15.7173 14.616 15.376H15.36C15.248 15.9147 14.992 16.336 14.592 16.64C14.192 16.944 13.672 17.096 13.032 17.096ZM16.4944 17V11.4H18.3184C18.761 11.4 19.1237 11.4747 19.4064 11.624C19.6944 11.768 19.905 11.9627 20.0384 12.208C20.177 12.4533 20.2464 12.7333 20.2464 13.048C20.2464 13.352 20.177 13.6293 20.0384 13.88C19.905 14.1253 19.697 14.3227 19.4144 14.472C19.1317 14.6213 18.7664 14.696 18.3184 14.696H17.1664V17H16.4944ZM17.1664 14.128H18.3104C18.7584 14.128 19.0784 14.0293 19.2704 13.832C19.4624 13.6347 19.5584 13.3733 19.5584 13.048C19.5584 12.7013 19.4624 12.4347 19.2704 12.248C19.0784 12.056 18.7584 11.96 18.3104 11.96H17.1664V14.128ZM23.311 17.096C22.927 17.096 22.5777 17.0187 22.263 16.864C21.9537 16.7093 21.7057 16.4747 21.519 16.16C21.3323 15.84 21.239 15.432 21.239 14.936V11.4H21.911V14.944C21.911 15.3067 21.9697 15.6027 22.087 15.832C22.2097 16.0613 22.3777 16.2293 22.591 16.336C22.8043 16.4427 23.0497 16.496 23.327 16.496C23.6097 16.496 23.855 16.4427 24.063 16.336C24.271 16.2293 24.4337 16.0613 24.551 15.832C24.6683 15.6027 24.727 15.3067 24.727 14.944V11.4H25.399V14.936C25.399 15.432 25.3057 15.84 25.119 16.16C24.9323 16.4747 24.6817 16.7093 24.367 16.864C24.0523 17.0187 23.7003 17.096 23.311 17.096ZM30.9982 17.096C30.6142 17.096 30.2649 17.0187 29.9502 16.864C29.6409 16.7093 29.3929 16.4747 29.2062 16.16C29.0195 15.84 28.9262 15.432 28.9262 14.936V11.4H29.5982V14.944C29.5982 15.3067 29.6569 15.6027 29.7742 15.832C29.8969 16.0613 30.0649 16.2293 30.2782 16.336C30.4915 16.4427 30.7369 16.496 31.0142 16.496C31.2969 16.496 31.5422 16.4427 31.7502 16.336C31.9582 16.2293 32.1209 16.0613 32.2382 15.832C32.3555 15.6027 32.4142 15.3067 32.4142 14.944V11.4H33.0862V14.936C33.0862 15.432 32.9929 15.84 32.8062 16.16C32.6195 16.4747 32.3689 16.7093 32.0542 16.864C31.7395 17.0187 31.3875 17.096 30.9982 17.096ZM35.8644 17.096C35.5284 17.096 35.235 17.04 34.9844 16.928C34.739 16.816 34.5417 16.6613 34.3924 16.464C34.2484 16.2613 34.1604 16.024 34.1284 15.752H34.8164C34.843 15.8907 34.899 16.0187 34.9844 16.136C35.0697 16.2533 35.1844 16.3493 35.3284 16.424C35.4777 16.4933 35.659 16.528 35.8724 16.528C36.059 16.528 36.2137 16.5013 36.3364 16.448C36.459 16.3893 36.5497 16.312 36.6084 16.216C36.6724 16.12 36.7044 16.016 36.7044 15.904C36.7044 15.7387 36.6644 15.6133 36.5844 15.528C36.5097 15.4427 36.3977 15.376 36.2484 15.328C36.099 15.2747 35.9177 15.2293 35.7044 15.192C35.5284 15.16 35.355 15.1173 35.1844 15.064C35.0137 15.0107 34.8617 14.9413 34.7284 14.856C34.595 14.7653 34.4884 14.656 34.4084 14.528C34.3337 14.4 34.2964 14.2427 34.2964 14.056C34.2964 13.8267 34.355 13.624 34.4724 13.448C34.5897 13.2667 34.7577 13.1253 34.9764 13.024C35.2004 12.9227 35.459 12.872 35.7524 12.872C36.1844 12.872 36.5337 12.976 36.8004 13.184C37.067 13.392 37.2244 13.6933 37.2724 14.088H36.6084C36.5817 13.8853 36.4937 13.728 36.3444 13.616C36.2004 13.4987 36.0004 13.44 35.7444 13.44C35.4937 13.44 35.3017 13.4907 35.1684 13.592C35.0404 13.6933 34.9764 13.8267 34.9764 13.992C34.9764 14.0987 35.011 14.1947 35.0804 14.28C35.155 14.36 35.2617 14.4293 35.4004 14.488C35.5444 14.5467 35.7204 14.5947 35.9284 14.632C36.195 14.68 36.4377 14.744 36.6564 14.824C36.875 14.904 37.051 15.024 37.1844 15.184C37.323 15.3387 37.3924 15.56 37.3924 15.848C37.3924 16.0987 37.3284 16.3173 37.2004 16.504C37.0777 16.6907 36.9017 16.8373 36.6724 16.944C36.443 17.0453 36.1737 17.096 35.8644 17.096ZM39.832 17.096C39.5067 17.096 39.2347 17.04 39.016 16.928C38.7973 16.8107 38.6347 16.6587 38.528 16.472C38.4213 16.28 38.368 16.072 38.368 15.848C38.368 15.576 38.4373 15.3467 38.576 15.16C38.72 14.968 38.92 14.824 39.176 14.728C39.4373 14.6267 39.744 14.576 40.096 14.576H41.16C41.16 14.3253 41.12 14.1173 41.04 13.952C40.9653 13.7813 40.8533 13.6533 40.704 13.568C40.56 13.4827 40.3787 13.44 40.16 13.44C39.904 13.44 39.6827 13.504 39.496 13.632C39.3093 13.76 39.1947 13.9493 39.152 14.2H38.464C38.496 13.912 38.592 13.672 38.752 13.48C38.9173 13.2827 39.1253 13.1333 39.376 13.032C39.6267 12.9253 39.888 12.872 40.16 12.872C40.5333 12.872 40.8427 12.9413 41.088 13.08C41.3387 13.2133 41.5253 13.4027 41.648 13.648C41.7707 13.888 41.832 14.1733 41.832 14.504V17H41.232L41.192 16.288C41.1387 16.4 41.0693 16.5067 40.984 16.608C40.904 16.704 40.808 16.7893 40.696 16.864C40.584 16.9333 40.456 16.9893 40.312 17.032C40.1733 17.0747 40.0133 17.096 39.832 17.096ZM39.936 16.528C40.1227 16.528 40.2907 16.4907 40.44 16.416C40.5947 16.336 40.7253 16.2293 40.832 16.096C40.9387 15.9573 41.0187 15.8053 41.072 15.64C41.1307 15.4747 41.16 15.3013 41.16 15.12V15.096H40.152C39.8907 15.096 39.68 15.128 39.52 15.192C39.36 15.2507 39.2453 15.336 39.176 15.448C39.1067 15.5547 39.072 15.6773 39.072 15.816C39.072 15.96 39.104 16.0853 39.168 16.192C39.2373 16.2987 39.336 16.3813 39.464 16.44C39.5973 16.4987 39.7547 16.528 39.936 16.528ZM44.6236 18.856C44.2609 18.856 43.9382 18.808 43.6556 18.712C43.3782 18.6213 43.1622 18.48 43.0076 18.288C42.8529 18.096 42.7756 17.8587 42.7756 17.576C42.7756 17.4533 42.7996 17.3227 42.8476 17.184C42.9009 17.0453 42.9889 16.9093 43.1116 16.776C43.2396 16.6427 43.4182 16.5227 43.6476 16.416L44.1116 16.688C43.8289 16.8053 43.6449 16.9387 43.5596 17.088C43.4742 17.2427 43.4316 17.384 43.4316 17.512C43.4316 17.688 43.4822 17.8347 43.5836 17.952C43.6849 18.0693 43.8262 18.1573 44.0076 18.216C44.1889 18.2747 44.3942 18.304 44.6236 18.304C44.8529 18.304 45.0502 18.272 45.2156 18.208C45.3809 18.144 45.5089 18.0533 45.5996 17.936C45.6902 17.8187 45.7356 17.68 45.7356 17.52C45.7356 17.3333 45.6662 17.176 45.5276 17.048C45.3889 16.9253 45.1249 16.8533 44.7356 16.832C44.4209 16.8107 44.1569 16.7813 43.9436 16.744C43.7302 16.7067 43.5542 16.664 43.4156 16.616C43.2769 16.5627 43.1596 16.504 43.0636 16.44C42.9729 16.376 42.8902 16.3093 42.8156 16.24V16.056L43.5916 15.288L44.1756 15.496L43.3756 16.216L43.4796 15.936C43.5382 15.9787 43.5942 16.0187 43.6476 16.056C43.7009 16.0933 43.7729 16.1253 43.8636 16.152C43.9542 16.1787 44.0796 16.2027 44.2396 16.224C44.4049 16.2453 44.6209 16.2667 44.8876 16.288C45.2556 16.3147 45.5489 16.3787 45.7676 16.48C45.9916 16.5813 46.1516 16.7173 46.2476 16.888C46.3489 17.0587 46.3996 17.2613 46.3996 17.496C46.3996 17.7253 46.3356 17.9413 46.2076 18.144C46.0849 18.352 45.8929 18.5227 45.6316 18.656C45.3702 18.7893 45.0342 18.856 44.6236 18.856ZM44.6156 15.736C44.2796 15.736 43.9916 15.672 43.7516 15.544C43.5169 15.416 43.3382 15.2453 43.2156 15.032C43.0929 14.8133 43.0316 14.5707 43.0316 14.304C43.0316 14.0373 43.0929 13.7973 43.2156 13.584C43.3436 13.3707 43.5249 13.2 43.7596 13.072C43.9942 12.9387 44.2796 12.872 44.6156 12.872C44.9516 12.872 45.2369 12.9387 45.4716 13.072C45.7062 13.2 45.8849 13.3707 46.0076 13.584C46.1302 13.7973 46.1916 14.0373 46.1916 14.304C46.1916 14.5707 46.1302 14.8133 46.0076 15.032C45.8849 15.2453 45.7062 15.416 45.4716 15.544C45.2369 15.672 44.9516 15.736 44.6156 15.736ZM44.6156 15.184C44.9036 15.184 45.1302 15.1093 45.2956 14.96C45.4609 14.8107 45.5436 14.592 45.5436 14.304C45.5436 14.0213 45.4609 13.8053 45.2956 13.656C45.1302 13.5067 44.9036 13.432 44.6156 13.432C44.3329 13.432 44.1036 13.5067 43.9276 13.656C43.7569 13.8053 43.6716 14.0213 43.6716 14.304C43.6716 14.592 43.7569 14.8107 43.9276 14.96C44.0982 15.1093 44.3276 15.184 44.6156 15.184ZM45.2716 13.536L45.0716 12.968H46.7196V13.472L45.2716 13.536ZM49.2642 17.096C48.8856 17.096 48.5496 17.008 48.2562 16.832C47.9682 16.656 47.7416 16.4107 47.5762 16.096C47.4109 15.776 47.3282 15.4053 47.3282 14.984C47.3282 14.5573 47.4082 14.1867 47.5682 13.872C47.7336 13.5573 47.9629 13.312 48.2562 13.136C48.5549 12.96 48.8962 12.872 49.2802 12.872C49.6749 12.872 50.0082 12.96 50.2802 13.136C50.5576 13.312 50.7682 13.544 50.9122 13.832C51.0616 14.1147 51.1362 14.4267 51.1362 14.768C51.1362 14.8213 51.1362 14.8773 51.1362 14.936C51.1362 14.9947 51.1336 15.0613 51.1282 15.136H47.8322V14.616H50.4802C50.4642 14.248 50.3416 13.96 50.1122 13.752C49.8882 13.544 49.6056 13.44 49.2642 13.44C49.0349 13.44 48.8216 13.4933 48.6242 13.6C48.4322 13.7013 48.2776 13.8533 48.1602 14.056C48.0429 14.2533 47.9842 14.5013 47.9842 14.8V15.024C47.9842 15.3547 48.0429 15.632 48.1602 15.856C48.2829 16.08 48.4402 16.248 48.6322 16.36C48.8296 16.472 49.0402 16.528 49.2642 16.528C49.5469 16.528 49.7789 16.4667 49.9602 16.344C50.1469 16.216 50.2802 16.0453 50.3602 15.832H51.0242C50.9602 16.072 50.8482 16.288 50.6882 16.48C50.5282 16.672 50.3282 16.824 50.0882 16.936C49.8536 17.0427 49.5789 17.096 49.2642 17.096ZM54.7121 17V12.344C54.7121 12.088 54.7548 11.88 54.8401 11.72C54.9255 11.5547 55.0508 11.4347 55.2161 11.36C55.3868 11.28 55.5948 11.24 55.8401 11.24H56.2961V11.816H55.9441C55.7468 11.816 55.6028 11.856 55.5121 11.936C55.4268 12.016 55.3841 12.1573 55.3841 12.36V17H54.7121ZM54.0961 13.536V12.968H56.4001V13.536H54.0961ZM59.0106 17.096C58.6373 17.096 58.3013 17.0107 58.0026 16.84C57.704 16.664 57.4693 16.4187 57.2986 16.104C57.128 15.784 57.0426 15.4133 57.0426 14.992C57.0426 14.56 57.128 14.1867 57.2986 13.872C57.4746 13.552 57.712 13.3067 58.0106 13.136C58.3146 12.96 58.6533 12.872 59.0266 12.872C59.4106 12.872 59.7493 12.96 60.0426 13.136C60.3413 13.3067 60.576 13.552 60.7466 13.872C60.9226 14.1867 61.0106 14.5573 61.0106 14.984C61.0106 15.4107 60.9226 15.784 60.7466 16.104C60.5706 16.4187 60.3333 16.664 60.0346 16.84C59.736 17.0107 59.3946 17.096 59.0106 17.096ZM59.0186 16.52C59.248 16.52 59.4613 16.464 59.6586 16.352C59.856 16.2347 60.016 16.0613 60.1386 15.832C60.2613 15.6027 60.3226 15.32 60.3226 14.984C60.3226 14.6427 60.2613 14.36 60.1386 14.136C60.0213 13.9067 59.864 13.736 59.6666 13.624C59.4746 13.5067 59.2613 13.448 59.0266 13.448C58.8026 13.448 58.5893 13.5067 58.3866 13.624C58.1893 13.736 58.0293 13.9067 57.9066 14.136C57.7893 14.36 57.7306 14.6427 57.7306 14.984C57.7306 15.32 57.7893 15.6027 57.9066 15.832C58.0293 16.0613 58.1866 16.2347 58.3786 16.352C58.576 16.464 58.7893 16.52 59.0186 16.52ZM62.1128 17V12.968H62.7208L62.7688 13.736C62.8595 13.5547 62.9741 13.4 63.1128 13.272C63.2568 13.144 63.4275 13.0453 63.6248 12.976C63.8275 12.9067 64.0568 12.872 64.3128 12.872V13.576H64.0648C63.8941 13.576 63.7315 13.6 63.5768 13.648C63.4221 13.6907 63.2835 13.7627 63.1608 13.864C63.0435 13.9653 62.9501 14.104 62.8808 14.28C62.8168 14.4507 62.7848 14.664 62.7848 14.92V17H62.1128ZM70.0548 17.096C69.5161 17.096 69.0414 16.976 68.6308 16.736C68.2254 16.4907 67.9081 16.152 67.6788 15.72C67.4548 15.2827 67.3428 14.776 67.3428 14.2C67.3428 13.6293 67.4548 13.128 67.6788 12.696C67.9081 12.2587 68.2254 11.9173 68.6308 11.672C69.0414 11.4267 69.5161 11.304 70.0548 11.304C70.6041 11.304 71.0814 11.4267 71.4868 11.672C71.8921 11.9173 72.2068 12.2587 72.4308 12.696C72.6601 13.128 72.7748 13.6293 72.7748 14.2C72.7748 14.776 72.6601 15.2827 72.4308 15.72C72.2068 16.152 71.8921 16.4907 71.4868 16.736C71.0814 16.976 70.6041 17.096 70.0548 17.096ZM70.0548 16.504C70.4601 16.504 70.8148 16.4133 71.1188 16.232C71.4281 16.0453 71.6654 15.7813 71.8308 15.44C72.0014 15.0933 72.0868 14.68 72.0868 14.2C72.0868 13.72 72.0014 13.3093 71.8308 12.968C71.6654 12.6213 71.4281 12.3573 71.1188 12.176C70.8148 11.9947 70.4601 11.904 70.0548 11.904C69.6548 11.904 69.3001 11.9947 68.9908 12.176C68.6868 12.3573 68.4494 12.6213 68.2788 12.968C68.1134 13.3093 68.0308 13.72 68.0308 14.2C68.0308 14.68 68.1134 15.0933 68.2788 15.44C68.4494 15.7813 68.6868 16.0453 68.9908 16.232C69.3001 16.4133 69.6548 16.504 70.0548 16.504ZM73.8741 18.76V12.968H74.4821L74.5381 13.624C74.6234 13.496 74.7327 13.376 74.8661 13.264C74.9994 13.1467 75.1594 13.0533 75.3461 12.984C75.5327 12.9093 75.7461 12.872 75.9861 12.872C76.3807 12.872 76.7221 12.9653 77.0101 13.152C77.3034 13.3387 77.5301 13.592 77.6901 13.912C77.8554 14.2267 77.9381 14.5867 77.9381 14.992C77.9381 15.3973 77.8554 15.76 77.6901 16.08C77.5301 16.3947 77.3034 16.6427 77.0101 16.824C76.7167 17.0053 76.3727 17.096 75.9781 17.096C75.6527 17.096 75.3647 17.0293 75.1141 16.896C74.8687 16.7627 74.6794 16.576 74.5461 16.336V18.76H73.8741ZM75.9061 16.512C76.1674 16.512 76.3994 16.448 76.6021 16.32C76.8047 16.192 76.9621 16.016 77.0741 15.792C77.1914 15.5627 77.2501 15.2933 77.2501 14.984C77.2501 14.68 77.1914 14.4133 77.0741 14.184C76.9621 13.9547 76.8047 13.776 76.6021 13.648C76.3994 13.52 76.1674 13.456 75.9061 13.456C75.6394 13.456 75.4047 13.52 75.2021 13.648C74.9994 13.776 74.8421 13.9547 74.7301 14.184C74.6181 14.4133 74.5621 14.68 74.5621 14.984C74.5621 15.2933 74.6181 15.5627 74.7301 15.792C74.8421 16.016 74.9994 16.192 75.2021 16.32C75.4047 16.448 75.6394 16.512 75.9061 16.512ZM80.8099 17.096C80.4312 17.096 80.0952 17.008 79.8019 16.832C79.5139 16.656 79.2872 16.4107 79.1219 16.096C78.9565 15.776 78.8739 15.4053 78.8739 14.984C78.8739 14.5573 78.9539 14.1867 79.1139 13.872C79.2792 13.5573 79.5085 13.312 79.8019 13.136C80.1005 12.96 80.4419 12.872 80.8259 12.872C81.2205 12.872 81.5539 12.96 81.8259 13.136C82.1032 13.312 82.3139 13.544 82.4579 13.832C82.6072 14.1147 82.6819 14.4267 82.6819 14.768C82.6819 14.8213 82.6819 14.8773 82.6819 14.936C82.6819 14.9947 82.6792 15.0613 82.6739 15.136H79.3779V14.616H82.0259C82.0099 14.248 81.8872 13.96 81.6579 13.752C81.4339 13.544 81.1512 13.44 80.8099 13.44C80.5805 13.44 80.3672 13.4933 80.1699 13.6C79.9779 13.7013 79.8232 13.8533 79.7059 14.056C79.5885 14.2533 79.5299 14.5013 79.5299 14.8V15.024C79.5299 15.3547 79.5885 15.632 79.7059 15.856C79.8285 16.08 79.9859 16.248 80.1779 16.36C80.3752 16.472 80.5859 16.528 80.8099 16.528C81.0925 16.528 81.3245 16.4667 81.5059 16.344C81.6925 16.216 81.8259 16.0453 81.9059 15.832H82.5699C82.5059 16.072 82.3939 16.288 82.2339 16.48C82.0739 16.672 81.8739 16.824 81.6339 16.936C81.3992 17.0427 81.1245 17.096 80.8099 17.096ZM83.7488 17V12.968H84.3568L84.3888 13.672C84.5168 13.4213 84.6981 13.2267 84.9328 13.088C85.1728 12.944 85.4448 12.872 85.7488 12.872C86.0634 12.872 86.3354 12.936 86.5648 13.064C86.7941 13.1867 86.9728 13.376 87.1008 13.632C87.2288 13.8827 87.2928 14.2027 87.2928 14.592V17H86.6208V14.664C86.6208 14.2587 86.5301 13.9547 86.3488 13.752C86.1728 13.5493 85.9221 13.448 85.5968 13.448C85.3728 13.448 85.1728 13.504 84.9968 13.616C84.8208 13.7227 84.6794 13.88 84.5728 14.088C84.4714 14.2907 84.4208 14.544 84.4208 14.848V17H83.7488ZM90.9745 17.096C90.4305 17.096 89.9585 16.976 89.5585 16.736C89.1638 16.4907 88.8598 16.152 88.6465 15.72C88.4332 15.2827 88.3265 14.776 88.3265 14.2C88.3265 13.624 88.4332 13.12 88.6465 12.688C88.8598 12.2507 89.1638 11.912 89.5585 11.672C89.9585 11.4267 90.4305 11.304 90.9745 11.304C91.6145 11.304 92.1345 11.456 92.5345 11.76C92.9345 12.064 93.1905 12.4933 93.3025 13.048H92.5585C92.4732 12.7013 92.2998 12.424 92.0385 12.216C91.7772 12.0027 91.4225 11.896 90.9745 11.896C90.5745 11.896 90.2278 11.9893 89.9345 12.176C89.6412 12.3573 89.4145 12.6213 89.2545 12.968C89.0945 13.3093 89.0145 13.72 89.0145 14.2C89.0145 14.68 89.0945 15.0933 89.2545 15.44C89.4145 15.7813 89.6412 16.0453 89.9345 16.232C90.2278 16.4133 90.5745 16.504 90.9745 16.504C91.4225 16.504 91.7772 16.4027 92.0385 16.2C92.2998 15.992 92.4732 15.7173 92.5585 15.376H93.3025C93.1905 15.9147 92.9345 16.336 92.5345 16.64C92.1345 16.944 91.6145 17.096 90.9745 17.096ZM96.1969 17.096C95.8235 17.096 95.4875 17.0107 95.1889 16.84C94.8902 16.664 94.6555 16.4187 94.4849 16.104C94.3142 15.784 94.2289 15.4133 94.2289 14.992C94.2289 14.56 94.3142 14.1867 94.4849 13.872C94.6609 13.552 94.8982 13.3067 95.1969 13.136C95.5009 12.96 95.8395 12.872 96.2129 12.872C96.5969 12.872 96.9355 12.96 97.2289 13.136C97.5275 13.3067 97.7622 13.552 97.9329 13.872C98.1089 14.1867 98.1969 14.5573 98.1969 14.984C98.1969 15.4107 98.1089 15.784 97.9329 16.104C97.7569 16.4187 97.5195 16.664 97.2209 16.84C96.9222 17.0107 96.5809 17.096 96.1969 17.096ZM96.2049 16.52C96.4342 16.52 96.6475 16.464 96.8449 16.352C97.0422 16.2347 97.2022 16.0613 97.3249 15.832C97.4475 15.6027 97.5089 15.32 97.5089 14.984C97.5089 14.6427 97.4475 14.36 97.3249 14.136C97.2075 13.9067 97.0502 13.736 96.8529 13.624C96.6609 13.5067 96.4475 13.448 96.2129 13.448C95.9889 13.448 95.7755 13.5067 95.5729 13.624C95.3755 13.736 95.2155 13.9067 95.0929 14.136C94.9755 14.36 94.9169 14.6427 94.9169 14.984C94.9169 15.32 94.9755 15.6027 95.0929 15.832C95.2155 16.0613 95.3729 16.2347 95.5649 16.352C95.7622 16.464 95.9755 16.52 96.2049 16.52ZM99.2991 17V12.968H99.9071L99.9551 13.736C100.046 13.5547 100.16 13.4 100.299 13.272C100.443 13.144 100.614 13.0453 100.811 12.976C101.014 12.9067 101.243 12.872 101.499 12.872V13.576H101.251C101.08 13.576 100.918 13.6 100.763 13.648C100.608 13.6907 100.47 13.7627 100.347 13.864C100.23 13.9653 100.136 14.104 100.067 14.28C100.003 14.4507 99.9711 14.664 99.9711 14.92V17H99.2991ZM104.04 17.096C103.661 17.096 103.325 17.008 103.032 16.832C102.744 16.656 102.517 16.4107 102.352 16.096C102.186 15.776 102.104 15.4053 102.104 14.984C102.104 14.5573 102.184 14.1867 102.344 13.872C102.509 13.5573 102.738 13.312 103.032 13.136C103.33 12.96 103.672 12.872 104.056 12.872C104.45 12.872 104.784 12.96 105.056 13.136C105.333 13.312 105.544 13.544 105.688 13.832C105.837 14.1147 105.912 14.4267 105.912 14.768C105.912 14.8213 105.912 14.8773 105.912 14.936C105.912 14.9947 105.909 15.0613 105.904 15.136H102.608V14.616H105.256C105.24 14.248 105.117 13.96 104.888 13.752C104.664 13.544 104.381 13.44 104.04 13.44C103.81 13.44 103.597 13.4933 103.4 13.6C103.208 13.7013 103.053 13.8533 102.936 14.056C102.818 14.2533 102.76 14.5013 102.76 14.8V15.024C102.76 15.3547 102.818 15.632 102.936 15.856C103.058 16.08 103.216 16.248 103.408 16.36C103.605 16.472 103.816 16.528 104.04 16.528C104.322 16.528 104.554 16.4667 104.736 16.344C104.922 16.216 105.056 16.0453 105.136 15.832H105.8C105.736 16.072 105.624 16.288 105.464 16.48C105.304 16.672 105.104 16.824 104.864 16.936C104.629 17.0427 104.354 17.096 104.04 17.096Z" fill="#86888E"/>
<path d="M12.744 45.096C12.2533 45.096 11.8293 44.976 11.472 44.736C11.12 44.4907 10.8507 44.152 10.664 43.72C10.4773 43.2827 10.384 42.776 10.384 42.2C10.384 41.624 10.4773 41.12 10.664 40.688C10.8507 40.2507 11.12 39.912 11.472 39.672C11.8293 39.4267 12.2533 39.304 12.744 39.304C13.2347 39.304 13.6533 39.4267 14 39.672C14.352 39.912 14.6213 40.2507 14.808 40.688C14.9947 41.12 15.088 41.624 15.088 42.2C15.088 42.776 14.9947 43.2827 14.808 43.72C14.6213 44.152 14.352 44.4907 14 44.736C13.6533 44.976 13.2347 45.096 12.744 45.096ZM12.736 44.504C13.056 44.504 13.3413 44.4133 13.592 44.232C13.8427 44.0453 14.04 43.7813 14.184 43.44C14.328 43.0933 14.4 42.68 14.4 42.2C14.4 41.72 14.328 41.3093 14.184 40.968C14.04 40.6213 13.8427 40.3573 13.592 40.176C13.3413 39.9947 13.056 39.904 12.736 39.904C12.416 39.904 12.128 39.9947 11.872 40.176C11.6213 40.3573 11.424 40.6213 11.28 40.968C11.1413 41.3093 11.072 41.72 11.072 42.2C11.072 42.68 11.1413 43.0933 11.28 43.44C11.424 43.7813 11.6213 44.0453 11.872 44.232C12.128 44.4133 12.416 44.504 12.736 44.504ZM16.1084 45.04C15.9751 45.04 15.8631 44.9973 15.7724 44.912C15.6871 44.8213 15.6444 44.712 15.6444 44.584C15.6444 44.456 15.6871 44.3493 15.7724 44.264C15.8631 44.1733 15.9751 44.128 16.1084 44.128C16.2418 44.128 16.3511 44.1733 16.4364 44.264C16.5218 44.3493 16.5644 44.456 16.5644 44.584C16.5644 44.712 16.5218 44.8213 16.4364 44.912C16.3511 44.9973 16.2418 45.04 16.1084 45.04ZM19.4202 45.096C19.0149 45.096 18.6735 45.0213 18.3962 44.872C18.1189 44.7173 17.8975 44.5147 17.7322 44.264C17.5669 44.008 17.4442 43.72 17.3642 43.4C17.2895 43.08 17.2522 42.7547 17.2522 42.424C17.2522 41.8053 17.3375 41.264 17.5082 40.8C17.6789 40.3307 17.9242 39.9653 18.2442 39.704C18.5695 39.4373 18.9589 39.304 19.4122 39.304C19.7642 39.304 20.0655 39.3733 20.3162 39.512C20.5722 39.6453 20.7749 39.8267 20.9242 40.056C21.0735 40.2853 21.1642 40.5413 21.1962 40.824H20.5722C20.5189 40.5253 20.3882 40.296 20.1802 40.136C19.9775 39.9707 19.7189 39.888 19.4042 39.888C19.1269 39.888 18.8762 39.976 18.6522 40.152C18.4282 40.3227 18.2495 40.5867 18.1162 40.944C17.9882 41.296 17.9135 41.7467 17.8922 42.296C17.8922 42.3013 17.8922 42.3093 17.8922 42.32C17.8922 42.3307 17.8922 42.3413 17.8922 42.352C17.9775 42.1867 18.0949 42.032 18.2442 41.888C18.3989 41.744 18.5829 41.6293 18.7962 41.544C19.0095 41.4587 19.2469 41.416 19.5082 41.416C19.8229 41.416 20.1189 41.4907 20.3962 41.64C20.6735 41.7893 20.8975 42 21.0682 42.272C21.2442 42.5387 21.3322 42.8533 21.3322 43.216C21.3322 43.5307 21.2549 43.832 21.1002 44.12C20.9509 44.408 20.7322 44.6427 20.4442 44.824C20.1562 45.0053 19.8149 45.096 19.4202 45.096ZM19.3722 44.504C19.6175 44.504 19.8362 44.4507 20.0282 44.344C20.2255 44.232 20.3775 44.0827 20.4842 43.896C20.5962 43.704 20.6522 43.488 20.6522 43.248C20.6522 42.9973 20.5962 42.7787 20.4842 42.592C20.3775 42.4053 20.2255 42.2613 20.0282 42.16C19.8362 42.0533 19.6175 42 19.3722 42C19.1269 42 18.9055 42.056 18.7082 42.168C18.5109 42.28 18.3535 42.432 18.2362 42.624C18.1242 42.8107 18.0682 43.0213 18.0682 43.256C18.0682 43.496 18.1242 43.712 18.2362 43.904C18.3535 44.0907 18.5109 44.2373 18.7082 44.344C18.9055 44.4507 19.1269 44.504 19.3722 44.504Z" fill="#86888E"/>
<path d="M12.744 67.096C12.2533 67.096 11.8293 66.976 11.472 66.736C11.12 66.4907 10.8507 66.152 10.664 65.72C10.4773 65.2827 10.384 64.776 10.384 64.2C10.384 63.624 10.4773 63.12 10.664 62.688C10.8507 62.2507 11.12 61.912 11.472 61.672C11.8293 61.4267 12.2533 61.304 12.744 61.304C13.2347 61.304 13.6533 61.4267 14 61.672C14.352 61.912 14.6213 62.2507 14.808 62.688C14.9947 63.12 15.088 63.624 15.088 64.2C15.088 64.776 14.9947 65.2827 14.808 65.72C14.6213 66.152 14.352 66.4907 14 66.736C13.6533 66.976 13.2347 67.096 12.744 67.096ZM12.736 66.504C13.056 66.504 13.3413 66.4133 13.592 66.232C13.8427 66.0453 14.04 65.7813 14.184 65.44C14.328 65.0933 14.4 64.68 14.4 64.2C14.4 63.72 14.328 63.3093 14.184 62.968C14.04 62.6213 13.8427 62.3573 13.592 62.176C13.3413 61.9947 13.056 61.904 12.736 61.904C12.416 61.904 12.128 61.9947 11.872 62.176C11.6213 62.3573 11.424 62.6213 11.28 62.968C11.1413 63.3093 11.072 63.72 11.072 64.2C11.072 64.68 11.1413 65.0933 11.28 65.44C11.424 65.7813 11.6213 66.0453 11.872 66.232C12.128 66.4133 12.416 66.504 12.736 66.504ZM16.1084 67.04C15.9751 67.04 15.8631 66.9973 15.7724 66.912C15.6871 66.8213 15.6444 66.712 15.6444 66.584C15.6444 66.456 15.6871 66.3493 15.7724 66.264C15.8631 66.1733 15.9751 66.128 16.1084 66.128C16.2418 66.128 16.3511 66.1733 16.4364 66.264C16.5218 66.3493 16.5644 66.456 16.5644 66.584C16.5644 66.712 16.5218 66.8213 16.4364 66.912C16.3511 66.9973 16.2418 67.04 16.1084 67.04ZM19.5424 67.096C19.1584 67.096 18.825 67.0267 18.5424 66.888C18.265 66.7493 18.0437 66.56 17.8784 66.32C17.7184 66.08 17.617 65.8107 17.5744 65.512H18.2304C18.2944 65.8107 18.441 66.0533 18.6704 66.24C18.8997 66.4267 19.193 66.52 19.5504 66.52C19.817 66.52 20.0437 66.4587 20.2304 66.336C20.4224 66.2133 20.569 66.0453 20.6704 65.832C20.777 65.6187 20.8304 65.3813 20.8304 65.12C20.8304 64.848 20.777 64.608 20.6704 64.4C20.5637 64.192 20.417 64.032 20.2304 63.92C20.0437 63.8027 19.825 63.744 19.5744 63.744C19.2704 63.744 19.0117 63.8107 18.7984 63.944C18.585 64.0773 18.425 64.248 18.3184 64.456H17.6704L18.1344 61.4H21.0944V61.984H18.6544L18.3424 63.704C18.4757 63.5493 18.6517 63.424 18.8704 63.328C19.0944 63.2267 19.353 63.176 19.6464 63.176C19.9237 63.176 20.1744 63.224 20.3984 63.32C20.6224 63.416 20.8144 63.552 20.9744 63.728C21.1344 63.904 21.257 64.1093 21.3424 64.344C21.433 64.5787 21.4784 64.8347 21.4784 65.112C21.4784 65.384 21.433 65.64 21.3424 65.88C21.257 66.1147 21.1317 66.3253 20.9664 66.512C20.801 66.6933 20.5984 66.8373 20.3584 66.944C20.1184 67.0453 19.8464 67.096 19.5424 67.096Z" fill="#86888E"/>
<path d="M12.744 89.096C12.2533 89.096 11.8293 88.976 11.472 88.736C11.12 88.4907 10.8507 88.152 10.664 87.72C10.4773 87.2827 10.384 86.776 10.384 86.2C10.384 85.624 10.4773 85.12 10.664 84.688C10.8507 84.2507 11.12 83.912 11.472 83.672C11.8293 83.4267 12.2533 83.304 12.744 83.304C13.2347 83.304 13.6533 83.4267 14 83.672C14.352 83.912 14.6213 84.2507 14.808 84.688C14.9947 85.12 15.088 85.624 15.088 86.2C15.088 86.776 14.9947 87.2827 14.808 87.72C14.6213 88.152 14.352 88.4907 14 88.736C13.6533 88.976 13.2347 89.096 12.744 89.096ZM12.736 88.504C13.056 88.504 13.3413 88.4133 13.592 88.232C13.8427 88.0453 14.04 87.7813 14.184 87.44C14.328 87.0933 14.4 86.68 14.4 86.2C14.4 85.72 14.328 85.3093 14.184 84.968C14.04 84.6213 13.8427 84.3573 13.592 84.176C13.3413 83.9947 13.056 83.904 12.736 83.904C12.416 83.904 12.128 83.9947 11.872 84.176C11.6213 84.3573 11.424 84.6213 11.28 84.968C11.1413 85.3093 11.072 85.72 11.072 86.2C11.072 86.68 11.1413 87.0933 11.28 87.44C11.424 87.7813 11.6213 88.0453 11.872 88.232C12.128 88.4133 12.416 88.504 12.736 88.504ZM16.1084 89.04C15.9751 89.04 15.8631 88.9973 15.7724 88.912C15.6871 88.8213 15.6444 88.712 15.6444 88.584C15.6444 88.456 15.6871 88.3493 15.7724 88.264C15.8631 88.1733 15.9751 88.128 16.1084 88.128C16.2418 88.128 16.3511 88.1733 16.4364 88.264C16.5218 88.3493 16.5644 88.456 16.5644 88.584C16.5644 88.712 16.5218 88.8213 16.4364 88.912C16.3511 88.9973 16.2418 89.04 16.1084 89.04ZM20.1904 89V87.8H17.3504V87.28L20.0704 83.4H20.8544V87.208H21.6864V87.8H20.8544V89H20.1904ZM18.0944 87.208H20.2224V84.144L18.0944 87.208Z" fill="#86888E"/>
<path d="M12.744 111.096C12.2533 111.096 11.8293 110.976 11.472 110.736C11.12 110.491 10.8507 110.152 10.664 109.72C10.4773 109.283 10.384 108.776 10.384 108.2C10.384 107.624 10.4773 107.12 10.664 106.688C10.8507 106.251 11.12 105.912 11.472 105.672C11.8293 105.427 12.2533 105.304 12.744 105.304C13.2347 105.304 13.6533 105.427 14 105.672C14.352 105.912 14.6213 106.251 14.808 106.688C14.9947 107.12 15.088 107.624 15.088 108.2C15.088 108.776 14.9947 109.283 14.808 109.72C14.6213 110.152 14.352 110.491 14 110.736C13.6533 110.976 13.2347 111.096 12.744 111.096ZM12.736 110.504C13.056 110.504 13.3413 110.413 13.592 110.232C13.8427 110.045 14.04 109.781 14.184 109.44C14.328 109.093 14.4 108.68 14.4 108.2C14.4 107.72 14.328 107.309 14.184 106.968C14.04 106.621 13.8427 106.357 13.592 106.176C13.3413 105.995 13.056 105.904 12.736 105.904C12.416 105.904 12.128 105.995 11.872 106.176C11.6213 106.357 11.424 106.621 11.28 106.968C11.1413 107.309 11.072 107.72 11.072 108.2C11.072 108.68 11.1413 109.093 11.28 109.44C11.424 109.781 11.6213 110.045 11.872 110.232C12.128 110.413 12.416 110.504 12.736 110.504ZM16.1084 111.04C15.9751 111.04 15.8631 110.997 15.7724 110.912C15.6871 110.821 15.6444 110.712 15.6444 110.584C15.6444 110.456 15.6871 110.349 15.7724 110.264C15.8631 110.173 15.9751 110.128 16.1084 110.128C16.2418 110.128 16.3511 110.173 16.4364 110.264C16.5218 110.349 16.5644 110.456 16.5644 110.584C16.5644 110.712 16.5218 110.821 16.4364 110.912C16.3511 110.997 16.2418 111.04 16.1084 111.04ZM19.3984 111.096C19.041 111.096 18.7157 111.032 18.4224 110.904C18.1344 110.771 17.905 110.573 17.7344 110.312C17.5637 110.051 17.473 109.725 17.4624 109.336H18.1424C18.1477 109.549 18.1984 109.747 18.2944 109.928C18.3957 110.104 18.5397 110.245 18.7264 110.352C18.913 110.459 19.137 110.512 19.3984 110.512C19.6597 110.512 19.8784 110.461 20.0544 110.36C20.2304 110.259 20.3637 110.125 20.4544 109.96C20.545 109.789 20.5904 109.6 20.5904 109.392C20.5904 109.131 20.5264 108.92 20.3984 108.76C20.2757 108.595 20.1077 108.475 19.8944 108.4C19.6864 108.32 19.457 108.28 19.2064 108.28H18.7904V107.712H19.2064C19.5744 107.712 19.8624 107.627 20.0704 107.456C20.2784 107.285 20.3824 107.051 20.3824 106.752C20.3824 106.507 20.2997 106.301 20.1344 106.136C19.9744 105.971 19.729 105.888 19.3984 105.888C19.0837 105.888 18.833 105.979 18.6464 106.16C18.4597 106.341 18.353 106.573 18.3264 106.856H17.6464C17.6624 106.552 17.745 106.283 17.8944 106.048C18.0437 105.813 18.2464 105.632 18.5024 105.504C18.7584 105.371 19.0597 105.304 19.4064 105.304C19.769 105.304 20.073 105.368 20.3184 105.496C20.5637 105.624 20.7477 105.795 20.8704 106.008C20.9984 106.221 21.0624 106.456 21.0624 106.712C21.0624 106.904 21.0277 107.085 20.9584 107.256C20.889 107.421 20.785 107.568 20.6464 107.696C20.5077 107.824 20.3317 107.915 20.1184 107.968C20.337 108.011 20.5317 108.093 20.7024 108.216C20.8784 108.339 21.017 108.499 21.1184 108.696C21.2197 108.893 21.2704 109.125 21.2704 109.392C21.2704 109.696 21.1984 109.979 21.0544 110.24C20.9157 110.496 20.7077 110.704 20.4304 110.864C20.153 111.019 19.809 111.096 19.3984 111.096Z" fill="#86888E"/>
<defs>
<clipPath id="clip0_2369_54867">
<rect width="407" height="136" fill="white"/>
</clipPath>
</defs>
</svg>
