<svg width="749" height="76" viewBox="0 0 749 76" fill="none" xmlns="http://www.w3.org/2000/svg">
<rect width="751" height="76" rx="3" fill="#1D1F22"/>
<path d="M11.912 17V11.952H10.24V11.4H14.256V11.952H12.584V17H11.912ZM15.2684 17V12.968H15.9404V17H15.2684ZM15.6044 12.112C15.471 12.112 15.359 12.0693 15.2684 11.984C15.183 11.8933 15.1404 11.7813 15.1404 11.648C15.1404 11.5147 15.183 11.408 15.2684 11.328C15.359 11.2427 15.471 11.2 15.6044 11.2C15.7324 11.2 15.8417 11.2427 15.9324 11.328C16.023 11.408 16.0684 11.5147 16.0684 11.648C16.0684 11.7813 16.023 11.8933 15.9324 11.984C15.8417 12.0693 15.7324 12.112 15.6044 12.112ZM17.2863 17V12.968H17.8943L17.9343 13.544C18.0623 13.336 18.2329 13.1733 18.4463 13.056C18.6649 12.9333 18.9023 12.872 19.1583 12.872C19.3663 12.872 19.5529 12.9013 19.7183 12.96C19.8889 13.0133 20.0383 13.0987 20.1663 13.216C20.2943 13.328 20.3983 13.472 20.4783 13.648C20.6169 13.4027 20.8063 13.2133 21.0463 13.08C21.2916 12.9413 21.5529 12.872 21.8303 12.872C22.1396 12.872 22.4089 12.936 22.6383 13.064C22.8729 13.1867 23.0516 13.376 23.1743 13.632C23.3023 13.8827 23.3663 14.2027 23.3663 14.592V17H22.7023V14.664C22.7023 14.2587 22.6196 13.9547 22.4543 13.752C22.2889 13.5493 22.0569 13.448 21.7583 13.448C21.5503 13.448 21.3636 13.504 21.1983 13.616C21.0329 13.7227 20.9023 13.88 20.8063 14.088C20.7103 14.296 20.6623 14.552 20.6623 14.856V17H19.9903V14.664C19.9903 14.2587 19.9076 13.9547 19.7423 13.752C19.5769 13.5493 19.3423 13.448 19.0383 13.448C18.8356 13.448 18.6516 13.504 18.4863 13.616C18.3263 13.7227 18.1983 13.88 18.1023 14.088C18.0063 14.296 17.9583 14.552 17.9583 14.856V17H17.2863ZM26.3392 17.096C25.9606 17.096 25.6246 17.008 25.3312 16.832C25.0432 16.656 24.8166 16.4107 24.6512 16.096C24.4859 15.776 24.4032 15.4053 24.4032 14.984C24.4032 14.5573 24.4832 14.1867 24.6432 13.872C24.8086 13.5573 25.0379 13.312 25.3312 13.136C25.6299 12.96 25.9712 12.872 26.3552 12.872C26.7499 12.872 27.0832 12.96 27.3552 13.136C27.6326 13.312 27.8432 13.544 27.9872 13.832C28.1366 14.1147 28.2112 14.4267 28.2112 14.768C28.2112 14.8213 28.2112 14.8773 28.2112 14.936C28.2112 14.9947 28.2086 15.0613 28.2032 15.136H24.9072V14.616H27.5552C27.5392 14.248 27.4166 13.96 27.1872 13.752C26.9632 13.544 26.6806 13.44 26.3392 13.44C26.1099 13.44 25.8966 13.4933 25.6992 13.6C25.5072 13.7013 25.3526 13.8533 25.2352 14.056C25.1179 14.2533 25.0592 14.5013 25.0592 14.8V15.024C25.0592 15.3547 25.1179 15.632 25.2352 15.856C25.3579 16.08 25.5152 16.248 25.7072 16.36C25.9046 16.472 26.1152 16.528 26.3392 16.528C26.6219 16.528 26.8539 16.4667 27.0352 16.344C27.2219 16.216 27.3552 16.0453 27.4352 15.832H28.0992C28.0352 16.072 27.9232 16.288 27.7632 16.48C27.6032 16.672 27.4032 16.824 27.1632 16.936C26.9286 17.0427 26.6539 17.096 26.3392 17.096ZM29.2781 17V11.24H29.9501V17H29.2781ZM31.2834 17V12.968H31.9554V17H31.2834ZM31.6194 12.112C31.486 12.112 31.374 12.0693 31.2834 11.984C31.198 11.8933 31.1554 11.7813 31.1554 11.648C31.1554 11.5147 31.198 11.408 31.2834 11.328C31.374 11.2427 31.486 11.2 31.6194 11.2C31.7474 11.2 31.8567 11.2427 31.9474 11.328C32.038 11.408 32.0834 11.5147 32.0834 11.648C32.0834 11.7813 32.038 11.8933 31.9474 11.984C31.8567 12.0693 31.7474 12.112 31.6194 12.112ZM33.3012 17V12.968H33.9092L33.9412 13.672C34.0692 13.4213 34.2506 13.2267 34.4852 13.088C34.7252 12.944 34.9972 12.872 35.3012 12.872C35.6159 12.872 35.8879 12.936 36.1172 13.064C36.3466 13.1867 36.5252 13.376 36.6532 13.632C36.7812 13.8827 36.8452 14.2027 36.8452 14.592V17H36.1732V14.664C36.1732 14.2587 36.0826 13.9547 35.9012 13.752C35.7252 13.5493 35.4746 13.448 35.1492 13.448C34.9252 13.448 34.7252 13.504 34.5492 13.616C34.3732 13.7227 34.2319 13.88 34.1252 14.088C34.0239 14.2907 33.9732 14.544 33.9732 14.848V17H33.3012ZM39.823 17.096C39.4443 17.096 39.1083 17.008 38.815 16.832C38.527 16.656 38.3003 16.4107 38.135 16.096C37.9697 15.776 37.887 15.4053 37.887 14.984C37.887 14.5573 37.967 14.1867 38.127 13.872C38.2923 13.5573 38.5217 13.312 38.815 13.136C39.1137 12.96 39.455 12.872 39.839 12.872C40.2337 12.872 40.567 12.96 40.839 13.136C41.1163 13.312 41.327 13.544 41.471 13.832C41.6203 14.1147 41.695 14.4267 41.695 14.768C41.695 14.8213 41.695 14.8773 41.695 14.936C41.695 14.9947 41.6923 15.0613 41.687 15.136H38.391V14.616H41.039C41.023 14.248 40.9003 13.96 40.671 13.752C40.447 13.544 40.1643 13.44 39.823 13.44C39.5937 13.44 39.3803 13.4933 39.183 13.6C38.991 13.7013 38.8363 13.8533 38.719 14.056C38.6017 14.2533 38.543 14.5013 38.543 14.8V15.024C38.543 15.3547 38.6017 15.632 38.719 15.856C38.8417 16.08 38.999 16.248 39.191 16.36C39.3883 16.472 39.599 16.528 39.823 16.528C40.1057 16.528 40.3377 16.4667 40.519 16.344C40.7057 16.216 40.839 16.0453 40.919 15.832H41.583C41.519 16.072 41.407 16.288 41.247 16.48C41.087 16.672 40.887 16.824 40.647 16.936C40.4123 17.0427 40.1377 17.096 39.823 17.096Z" fill="#86888E"/>
<rect x="9" y="32" width="5" height="20" fill="#58899F"/>
<rect x="10" y="65" width="4" height="20" rx="2" transform="rotate(-90 10 65)" fill="#58659F"/>
<rect x="64" y="65" width="4" height="20" rx="2" transform="rotate(-90 64 65)" fill="#9F5D58"/>
<rect x="113" y="65" width="4" height="20" rx="2" transform="rotate(-90 113 65)" fill="#589F69"/>
<rect x="159" y="65" width="4" height="20" rx="2" transform="rotate(-90 159 65)" fill="#58899F"/>
<rect x="210" y="65" width="4" height="20" rx="2" transform="rotate(-90 210 65)" fill="#9F9358"/>
<path d="M36.752 65.072C36.46 65.072 36.204 65.004 35.984 64.868C35.764 64.728 35.594 64.538 35.474 64.298C35.354 64.058 35.294 63.786 35.294 63.482C35.294 63.178 35.354 62.908 35.474 62.672C35.594 62.432 35.764 62.244 35.984 62.108C36.208 61.972 36.466 61.904 36.758 61.904C37.006 61.904 37.222 61.954 37.406 62.054C37.594 62.154 37.738 62.294 37.838 62.474V60.68H38.342V65H37.886L37.844 64.502C37.78 64.602 37.698 64.696 37.598 64.784C37.498 64.868 37.378 64.938 37.238 64.994C37.098 65.046 36.936 65.072 36.752 65.072ZM36.812 64.634C37.012 64.634 37.188 64.586 37.34 64.49C37.492 64.394 37.61 64.262 37.694 64.094C37.778 63.922 37.82 63.72 37.82 63.488C37.82 63.26 37.778 63.06 37.694 62.888C37.61 62.716 37.492 62.582 37.34 62.486C37.188 62.39 37.012 62.342 36.812 62.342C36.616 62.342 36.442 62.39 36.29 62.486C36.138 62.582 36.02 62.716 35.936 62.888C35.852 63.06 35.81 63.26 35.81 63.488C35.81 63.72 35.852 63.922 35.936 64.094C36.02 64.262 36.138 64.394 36.29 64.49C36.442 64.586 36.616 64.634 36.812 64.634ZM40.6277 65.072C40.3437 65.072 40.0917 65.006 39.8717 64.874C39.6557 64.742 39.4857 64.558 39.3617 64.322C39.2377 64.082 39.1757 63.804 39.1757 63.488C39.1757 63.168 39.2357 62.89 39.3557 62.654C39.4797 62.418 39.6517 62.234 39.8717 62.102C40.0957 61.97 40.3517 61.904 40.6397 61.904C40.9357 61.904 41.1857 61.97 41.3897 62.102C41.5977 62.234 41.7557 62.408 41.8637 62.624C41.9757 62.836 42.0317 63.07 42.0317 63.326C42.0317 63.366 42.0317 63.408 42.0317 63.452C42.0317 63.496 42.0297 63.546 42.0257 63.602H39.5537V63.212H41.5397C41.5277 62.936 41.4357 62.72 41.2637 62.564C41.0957 62.408 40.8837 62.33 40.6277 62.33C40.4557 62.33 40.2957 62.37 40.1477 62.45C40.0037 62.526 39.8877 62.64 39.7997 62.792C39.7117 62.94 39.6677 63.126 39.6677 63.35V63.518C39.6677 63.766 39.7117 63.974 39.7997 64.142C39.8917 64.31 40.0097 64.436 40.1537 64.52C40.3017 64.604 40.4597 64.646 40.6277 64.646C40.8397 64.646 41.0137 64.6 41.1497 64.508C41.2897 64.412 41.3897 64.284 41.4497 64.124H41.9477C41.8997 64.304 41.8157 64.466 41.6957 64.61C41.5757 64.754 41.4257 64.868 41.2457 64.952C41.0697 65.032 40.8637 65.072 40.6277 65.072ZM44.4159 65.072C44.2439 65.072 44.0879 65.048 43.9479 65C43.8119 64.948 43.6919 64.88 43.5879 64.796C43.4839 64.712 43.3979 64.614 43.3299 64.502L43.2879 65H42.8319V60.68H43.3359V62.474C43.4319 62.318 43.5699 62.184 43.7499 62.072C43.9299 61.96 44.1519 61.904 44.4159 61.904C44.7079 61.904 44.9639 61.974 45.1839 62.114C45.4039 62.25 45.5739 62.438 45.6939 62.678C45.8179 62.914 45.8799 63.184 45.8799 63.488C45.8799 63.792 45.8179 64.064 45.6939 64.304C45.5739 64.544 45.4039 64.732 45.1839 64.868C44.9639 65.004 44.7079 65.072 44.4159 65.072ZM44.3559 64.634C44.5519 64.634 44.7259 64.586 44.8779 64.49C45.0299 64.394 45.1479 64.262 45.2319 64.094C45.3199 63.922 45.3639 63.72 45.3639 63.488C45.3639 63.26 45.3199 63.06 45.2319 62.888C45.1479 62.716 45.0299 62.582 44.8779 62.486C44.7259 62.39 44.5519 62.342 44.3559 62.342C44.1559 62.342 43.9799 62.39 43.8279 62.486C43.6759 62.582 43.5579 62.716 43.4739 62.888C43.3899 63.06 43.3479 63.26 43.3479 63.488C43.3479 63.72 43.3899 63.922 43.4739 64.094C43.5579 64.262 43.6759 64.394 43.8279 64.49C43.9799 64.586 44.1559 64.634 44.3559 64.634ZM47.8057 65.072C47.5737 65.072 47.3697 65.026 47.1937 64.934C47.0217 64.842 46.8877 64.7 46.7917 64.508C46.6997 64.316 46.6537 64.076 46.6537 63.788V61.976H47.1577V63.734C47.1577 64.034 47.2237 64.26 47.3557 64.412C47.4877 64.564 47.6737 64.64 47.9137 64.64C48.0817 64.64 48.2337 64.6 48.3697 64.52C48.5057 64.436 48.6117 64.318 48.6877 64.166C48.7677 64.01 48.8077 63.82 48.8077 63.596V61.976H49.3117V65H48.8557L48.8257 64.472C48.7337 64.66 48.5977 64.808 48.4177 64.916C48.2377 65.02 48.0337 65.072 47.8057 65.072ZM51.4612 66.392C51.1892 66.392 50.9472 66.356 50.7352 66.284C50.5272 66.216 50.3652 66.11 50.2492 65.966C50.1332 65.822 50.0752 65.644 50.0752 65.432C50.0752 65.34 50.0932 65.242 50.1292 65.138C50.1692 65.034 50.2352 64.932 50.3272 64.832C50.4232 64.732 50.5572 64.642 50.7292 64.562L51.0772 64.766C50.8652 64.854 50.7272 64.954 50.6632 65.066C50.5992 65.182 50.5672 65.288 50.5672 65.384C50.5672 65.516 50.6052 65.626 50.6812 65.714C50.7572 65.802 50.8632 65.868 50.9992 65.912C51.1352 65.956 51.2892 65.978 51.4612 65.978C51.6332 65.978 51.7812 65.954 51.9052 65.906C52.0292 65.858 52.1252 65.79 52.1932 65.702C52.2612 65.614 52.2952 65.51 52.2952 65.39C52.2952 65.25 52.2432 65.132 52.1392 65.036C52.0352 64.944 51.8372 64.89 51.5452 64.874C51.3092 64.858 51.1112 64.836 50.9512 64.808C50.7912 64.78 50.6592 64.748 50.5552 64.712C50.4512 64.672 50.3632 64.628 50.2912 64.58C50.2232 64.532 50.1612 64.482 50.1052 64.43V64.292L50.6872 63.716L51.1252 63.872L50.5252 64.412L50.6032 64.202C50.6472 64.234 50.6892 64.264 50.7292 64.292C50.7692 64.32 50.8232 64.344 50.8912 64.364C50.9592 64.384 51.0532 64.402 51.1732 64.418C51.2972 64.434 51.4592 64.45 51.6592 64.466C51.9352 64.486 52.1552 64.534 52.3192 64.61C52.4872 64.686 52.6072 64.788 52.6792 64.916C52.7552 65.044 52.7932 65.196 52.7932 65.372C52.7932 65.544 52.7452 65.706 52.6492 65.858C52.5572 66.014 52.4132 66.142 52.2172 66.242C52.0212 66.342 51.7692 66.392 51.4612 66.392ZM51.4552 64.052C51.2032 64.052 50.9872 64.004 50.8072 63.908C50.6312 63.812 50.4972 63.684 50.4052 63.524C50.3132 63.36 50.2672 63.178 50.2672 62.978C50.2672 62.778 50.3132 62.598 50.4052 62.438C50.5012 62.278 50.6372 62.15 50.8132 62.054C50.9892 61.954 51.2032 61.904 51.4552 61.904C51.7072 61.904 51.9212 61.954 52.0972 62.054C52.2732 62.15 52.4072 62.278 52.4992 62.438C52.5912 62.598 52.6372 62.778 52.6372 62.978C52.6372 63.178 52.5912 63.36 52.4992 63.524C52.4072 63.684 52.2732 63.812 52.0972 63.908C51.9212 64.004 51.7072 64.052 51.4552 64.052ZM51.4552 63.638C51.6712 63.638 51.8412 63.582 51.9652 63.47C52.0892 63.358 52.1512 63.194 52.1512 62.978C52.1512 62.766 52.0892 62.604 51.9652 62.492C51.8412 62.38 51.6712 62.324 51.4552 62.324C51.2432 62.324 51.0712 62.38 50.9392 62.492C50.8112 62.604 50.7472 62.766 50.7472 62.978C50.7472 63.194 50.8112 63.358 50.9392 63.47C51.0672 63.582 51.2392 63.638 51.4552 63.638ZM51.9472 62.402L51.7972 61.976H53.0332V62.354L51.9472 62.402Z" fill="#86888E"/>
<path d="M90.746 65.072C90.462 65.072 90.21 65.006 89.99 64.874C89.774 64.742 89.604 64.558 89.48 64.322C89.356 64.082 89.294 63.804 89.294 63.488C89.294 63.168 89.354 62.89 89.474 62.654C89.598 62.418 89.77 62.234 89.99 62.102C90.214 61.97 90.47 61.904 90.758 61.904C91.054 61.904 91.304 61.97 91.508 62.102C91.716 62.234 91.874 62.408 91.982 62.624C92.094 62.836 92.15 63.07 92.15 63.326C92.15 63.366 92.15 63.408 92.15 63.452C92.15 63.496 92.148 63.546 92.144 63.602H89.672V63.212H91.658C91.646 62.936 91.554 62.72 91.382 62.564C91.214 62.408 91.002 62.33 90.746 62.33C90.574 62.33 90.414 62.37 90.266 62.45C90.122 62.526 90.006 62.64 89.918 62.792C89.83 62.94 89.786 63.126 89.786 63.35V63.518C89.786 63.766 89.83 63.974 89.918 64.142C90.01 64.31 90.128 64.436 90.272 64.52C90.42 64.604 90.578 64.646 90.746 64.646C90.958 64.646 91.132 64.6 91.268 64.508C91.408 64.412 91.508 64.284 91.568 64.124H92.066C92.018 64.304 91.934 64.466 91.814 64.61C91.694 64.754 91.544 64.868 91.364 64.952C91.188 65.032 90.982 65.072 90.746 65.072ZM92.9502 65V61.976H93.4062L93.4422 62.552C93.5102 62.416 93.5962 62.3 93.7002 62.204C93.8082 62.108 93.9362 62.034 94.0842 61.982C94.2362 61.93 94.4082 61.904 94.6002 61.904V62.432H94.4142C94.2862 62.432 94.1642 62.45 94.0482 62.486C93.9322 62.518 93.8282 62.572 93.7362 62.648C93.6482 62.724 93.5782 62.828 93.5262 62.96C93.4782 63.088 93.4542 63.248 93.4542 63.44V65H92.9502ZM95.2909 65V61.976H95.7469L95.7829 62.552C95.8509 62.416 95.9369 62.3 96.0409 62.204C96.1489 62.108 96.2769 62.034 96.4249 61.982C96.5769 61.93 96.7489 61.904 96.9409 61.904V62.432H96.7549C96.6269 62.432 96.5049 62.45 96.3889 62.486C96.2729 62.518 96.1689 62.572 96.0769 62.648C95.9889 62.724 95.9189 62.828 95.8669 62.96C95.8189 63.088 95.7949 63.248 95.7949 63.44V65H95.2909ZM98.8702 65.072C98.5902 65.072 98.3382 65.008 98.1142 64.88C97.8902 64.748 97.7142 64.564 97.5862 64.328C97.4582 64.088 97.3942 63.81 97.3942 63.494C97.3942 63.17 97.4582 62.89 97.5862 62.654C97.7182 62.414 97.8962 62.23 98.1202 62.102C98.3482 61.97 98.6022 61.904 98.8822 61.904C99.1702 61.904 99.4242 61.97 99.6442 62.102C99.8682 62.23 100.044 62.414 100.172 62.654C100.304 62.89 100.37 63.168 100.37 63.488C100.37 63.808 100.304 64.088 100.172 64.328C100.04 64.564 99.8622 64.748 99.6382 64.88C99.4142 65.008 99.1582 65.072 98.8702 65.072ZM98.8762 64.64C99.0482 64.64 99.2082 64.598 99.3562 64.514C99.5042 64.426 99.6242 64.296 99.7162 64.124C99.8082 63.952 99.8542 63.74 99.8542 63.488C99.8542 63.232 99.8082 63.02 99.7162 62.852C99.6282 62.68 99.5102 62.552 99.3622 62.468C99.2182 62.38 99.0582 62.336 98.8822 62.336C98.7142 62.336 98.5542 62.38 98.4022 62.468C98.2542 62.552 98.1342 62.68 98.0422 62.852C97.9542 63.02 97.9102 63.232 97.9102 63.488C97.9102 63.74 97.9542 63.952 98.0422 64.124C98.1342 64.296 98.2522 64.426 98.3962 64.514C98.5442 64.598 98.7042 64.64 98.8762 64.64ZM101.197 65V61.976H101.653L101.689 62.552C101.757 62.416 101.843 62.3 101.947 62.204C102.055 62.108 102.183 62.034 102.331 61.982C102.483 61.93 102.655 61.904 102.847 61.904V62.432H102.661C102.533 62.432 102.411 62.45 102.295 62.486C102.179 62.518 102.075 62.572 101.983 62.648C101.895 62.724 101.825 62.828 101.773 62.96C101.725 63.088 101.701 63.248 101.701 63.44V65H101.197Z" fill="#86888E"/>
<path d="M138.468 65V61.976H138.972V65H138.468ZM138.72 61.334C138.62 61.334 138.536 61.302 138.468 61.238C138.404 61.17 138.372 61.086 138.372 60.986C138.372 60.886 138.404 60.806 138.468 60.746C138.536 60.682 138.62 60.65 138.72 60.65C138.816 60.65 138.898 60.682 138.966 60.746C139.034 60.806 139.068 60.886 139.068 60.986C139.068 61.086 139.034 61.17 138.966 61.238C138.898 61.302 138.816 61.334 138.72 61.334ZM139.981 65V61.976H140.437L140.461 62.504C140.557 62.316 140.693 62.17 140.869 62.066C141.049 61.958 141.253 61.904 141.481 61.904C141.717 61.904 141.921 61.952 142.093 62.048C142.265 62.14 142.399 62.282 142.495 62.474C142.591 62.662 142.639 62.902 142.639 63.194V65H142.135V63.248C142.135 62.944 142.067 62.716 141.931 62.564C141.799 62.412 141.611 62.336 141.367 62.336C141.199 62.336 141.049 62.378 140.917 62.462C140.785 62.542 140.679 62.66 140.599 62.816C140.523 62.968 140.485 63.158 140.485 63.386V65H139.981ZM143.715 65V61.508C143.715 61.316 143.747 61.16 143.811 61.04C143.875 60.916 143.969 60.826 144.093 60.77C144.221 60.71 144.377 60.68 144.561 60.68H144.903V61.112H144.639C144.491 61.112 144.383 61.142 144.315 61.202C144.251 61.262 144.219 61.368 144.219 61.52V65H143.715ZM143.253 62.402V61.976H144.981V62.402H143.253ZM146.939 65.072C146.659 65.072 146.407 65.008 146.183 64.88C145.959 64.748 145.783 64.564 145.655 64.328C145.527 64.088 145.463 63.81 145.463 63.494C145.463 63.17 145.527 62.89 145.655 62.654C145.787 62.414 145.965 62.23 146.189 62.102C146.417 61.97 146.671 61.904 146.951 61.904C147.239 61.904 147.493 61.97 147.713 62.102C147.937 62.23 148.113 62.414 148.241 62.654C148.373 62.89 148.439 63.168 148.439 63.488C148.439 63.808 148.373 64.088 148.241 64.328C148.109 64.564 147.931 64.748 147.707 64.88C147.483 65.008 147.227 65.072 146.939 65.072ZM146.945 64.64C147.117 64.64 147.277 64.598 147.425 64.514C147.573 64.426 147.693 64.296 147.785 64.124C147.877 63.952 147.923 63.74 147.923 63.488C147.923 63.232 147.877 63.02 147.785 62.852C147.697 62.68 147.579 62.552 147.431 62.468C147.287 62.38 147.127 62.336 146.951 62.336C146.783 62.336 146.623 62.38 146.471 62.468C146.323 62.552 146.203 62.68 146.111 62.852C146.023 63.02 145.979 63.232 145.979 63.488C145.979 63.74 146.023 63.952 146.111 64.124C146.203 64.296 146.321 64.426 146.465 64.514C146.613 64.598 146.773 64.64 146.945 64.64Z" fill="#86888E"/>
<path d="M185.608 65C185.428 65 185.272 64.972 185.14 64.916C185.008 64.86 184.906 64.766 184.834 64.634C184.766 64.498 184.732 64.316 184.732 64.088V62.402H184.204V61.976H184.732L184.798 61.244H185.236V61.976H186.112V62.402H185.236V64.088C185.236 64.276 185.274 64.404 185.35 64.472C185.426 64.536 185.56 64.568 185.752 64.568H186.076V65H185.608ZM186.89 65V61.976H187.346L187.382 62.552C187.45 62.416 187.536 62.3 187.64 62.204C187.748 62.108 187.876 62.034 188.024 61.982C188.176 61.93 188.348 61.904 188.54 61.904V62.432H188.354C188.226 62.432 188.104 62.45 187.988 62.486C187.872 62.518 187.768 62.572 187.676 62.648C187.588 62.724 187.518 62.828 187.466 62.96C187.418 63.088 187.394 63.248 187.394 63.44V65H186.89ZM190.214 65.072C189.97 65.072 189.766 65.03 189.602 64.946C189.438 64.858 189.316 64.744 189.236 64.604C189.156 64.46 189.116 64.304 189.116 64.136C189.116 63.932 189.168 63.76 189.272 63.62C189.38 63.476 189.53 63.368 189.722 63.296C189.918 63.22 190.148 63.182 190.412 63.182H191.21C191.21 62.994 191.18 62.838 191.12 62.714C191.064 62.586 190.98 62.49 190.868 62.426C190.76 62.362 190.624 62.33 190.46 62.33C190.268 62.33 190.102 62.378 189.962 62.474C189.822 62.57 189.736 62.712 189.704 62.9H189.188C189.212 62.684 189.284 62.504 189.404 62.36C189.528 62.212 189.684 62.1 189.872 62.024C190.06 61.944 190.256 61.904 190.46 61.904C190.74 61.904 190.972 61.956 191.156 62.06C191.344 62.16 191.484 62.302 191.576 62.486C191.668 62.666 191.714 62.88 191.714 63.128V65H191.264L191.234 64.466C191.194 64.55 191.142 64.63 191.078 64.706C191.018 64.778 190.946 64.842 190.862 64.898C190.778 64.95 190.682 64.992 190.574 65.024C190.47 65.056 190.35 65.072 190.214 65.072ZM190.292 64.646C190.432 64.646 190.558 64.618 190.67 64.562C190.786 64.502 190.884 64.422 190.964 64.322C191.044 64.218 191.104 64.104 191.144 63.98C191.188 63.856 191.21 63.726 191.21 63.59V63.572H190.454C190.258 63.572 190.1 63.596 189.98 63.644C189.86 63.688 189.774 63.752 189.722 63.836C189.67 63.916 189.644 64.008 189.644 64.112C189.644 64.22 189.668 64.314 189.716 64.394C189.768 64.474 189.842 64.536 189.938 64.58C190.038 64.624 190.156 64.646 190.292 64.646ZM193.976 65.072C193.692 65.072 193.436 65.006 193.208 64.874C192.984 64.742 192.808 64.558 192.68 64.322C192.552 64.082 192.488 63.806 192.488 63.494C192.488 63.174 192.552 62.896 192.68 62.66C192.808 62.424 192.984 62.24 193.208 62.108C193.436 61.972 193.692 61.904 193.976 61.904C194.336 61.904 194.636 61.998 194.876 62.186C195.116 62.37 195.268 62.618 195.332 62.93H194.816C194.776 62.742 194.678 62.596 194.522 62.492C194.366 62.388 194.182 62.336 193.97 62.336C193.798 62.336 193.638 62.38 193.49 62.468C193.342 62.552 193.224 62.68 193.136 62.852C193.048 63.024 193.004 63.236 193.004 63.488C193.004 63.676 193.03 63.844 193.082 63.992C193.134 64.136 193.204 64.256 193.292 64.352C193.38 64.448 193.482 64.522 193.598 64.574C193.718 64.622 193.842 64.646 193.97 64.646C194.114 64.646 194.244 64.624 194.36 64.58C194.476 64.532 194.574 64.462 194.654 64.37C194.734 64.278 194.788 64.17 194.816 64.046H195.332C195.268 64.35 195.114 64.598 194.87 64.79C194.63 64.978 194.332 65.072 193.976 65.072ZM197.494 65.072C197.21 65.072 196.958 65.006 196.738 64.874C196.522 64.742 196.352 64.558 196.228 64.322C196.104 64.082 196.042 63.804 196.042 63.488C196.042 63.168 196.102 62.89 196.222 62.654C196.346 62.418 196.518 62.234 196.738 62.102C196.962 61.97 197.218 61.904 197.506 61.904C197.802 61.904 198.052 61.97 198.256 62.102C198.464 62.234 198.622 62.408 198.73 62.624C198.842 62.836 198.898 63.07 198.898 63.326C198.898 63.366 198.898 63.408 198.898 63.452C198.898 63.496 198.896 63.546 198.892 63.602H196.42V63.212H198.406C198.394 62.936 198.302 62.72 198.13 62.564C197.962 62.408 197.75 62.33 197.494 62.33C197.322 62.33 197.162 62.37 197.014 62.45C196.87 62.526 196.754 62.64 196.666 62.792C196.578 62.94 196.534 63.126 196.534 63.35V63.518C196.534 63.766 196.578 63.974 196.666 64.142C196.758 64.31 196.876 64.436 197.02 64.52C197.168 64.604 197.326 64.646 197.494 64.646C197.706 64.646 197.88 64.6 198.016 64.508C198.156 64.412 198.256 64.284 198.316 64.124H198.814C198.766 64.304 198.682 64.466 198.562 64.61C198.442 64.754 198.292 64.868 198.112 64.952C197.936 65.032 197.73 65.072 197.494 65.072Z" fill="#86888E"/>
<path d="M236.608 65C236.428 65 236.272 64.972 236.14 64.916C236.008 64.86 235.906 64.766 235.834 64.634C235.766 64.498 235.732 64.316 235.732 64.088V62.402H235.204V61.976H235.732L235.798 61.244H236.236V61.976H237.112V62.402H236.236V64.088C236.236 64.276 236.274 64.404 236.35 64.472C236.426 64.536 236.56 64.568 236.752 64.568H237.076V65H236.608ZM237.89 65V61.976H238.346L238.382 62.552C238.45 62.416 238.536 62.3 238.64 62.204C238.748 62.108 238.876 62.034 239.024 61.982C239.176 61.93 239.348 61.904 239.54 61.904V62.432H239.354C239.226 62.432 239.104 62.45 238.988 62.486C238.872 62.518 238.768 62.572 238.676 62.648C238.588 62.724 238.518 62.828 238.466 62.96C238.418 63.088 238.394 63.248 238.394 63.44V65H237.89ZM241.214 65.072C240.97 65.072 240.766 65.03 240.602 64.946C240.438 64.858 240.316 64.744 240.236 64.604C240.156 64.46 240.116 64.304 240.116 64.136C240.116 63.932 240.168 63.76 240.272 63.62C240.38 63.476 240.53 63.368 240.722 63.296C240.918 63.22 241.148 63.182 241.412 63.182H242.21C242.21 62.994 242.18 62.838 242.12 62.714C242.064 62.586 241.98 62.49 241.868 62.426C241.76 62.362 241.624 62.33 241.46 62.33C241.268 62.33 241.102 62.378 240.962 62.474C240.822 62.57 240.736 62.712 240.704 62.9H240.188C240.212 62.684 240.284 62.504 240.404 62.36C240.528 62.212 240.684 62.1 240.872 62.024C241.06 61.944 241.256 61.904 241.46 61.904C241.74 61.904 241.972 61.956 242.156 62.06C242.344 62.16 242.484 62.302 242.576 62.486C242.668 62.666 242.714 62.88 242.714 63.128V65H242.264L242.234 64.466C242.194 64.55 242.142 64.63 242.078 64.706C242.018 64.778 241.946 64.842 241.862 64.898C241.778 64.95 241.682 64.992 241.574 65.024C241.47 65.056 241.35 65.072 241.214 65.072ZM241.292 64.646C241.432 64.646 241.558 64.618 241.67 64.562C241.786 64.502 241.884 64.422 241.964 64.322C242.044 64.218 242.104 64.104 242.144 63.98C242.188 63.856 242.21 63.726 242.21 63.59V63.572H241.454C241.258 63.572 241.1 63.596 240.98 63.644C240.86 63.688 240.774 63.752 240.722 63.836C240.67 63.916 240.644 64.008 240.644 64.112C240.644 64.22 240.668 64.314 240.716 64.394C240.768 64.474 240.842 64.536 240.938 64.58C241.038 64.624 241.156 64.646 241.292 64.646ZM244.976 65.072C244.692 65.072 244.436 65.006 244.208 64.874C243.984 64.742 243.808 64.558 243.68 64.322C243.552 64.082 243.488 63.806 243.488 63.494C243.488 63.174 243.552 62.896 243.68 62.66C243.808 62.424 243.984 62.24 244.208 62.108C244.436 61.972 244.692 61.904 244.976 61.904C245.336 61.904 245.636 61.998 245.876 62.186C246.116 62.37 246.268 62.618 246.332 62.93H245.816C245.776 62.742 245.678 62.596 245.522 62.492C245.366 62.388 245.182 62.336 244.97 62.336C244.798 62.336 244.638 62.38 244.49 62.468C244.342 62.552 244.224 62.68 244.136 62.852C244.048 63.024 244.004 63.236 244.004 63.488C244.004 63.676 244.03 63.844 244.082 63.992C244.134 64.136 244.204 64.256 244.292 64.352C244.38 64.448 244.482 64.522 244.598 64.574C244.718 64.622 244.842 64.646 244.97 64.646C245.114 64.646 245.244 64.624 245.36 64.58C245.476 64.532 245.574 64.462 245.654 64.37C245.734 64.278 245.788 64.17 245.816 64.046H246.332C246.268 64.35 246.114 64.598 245.87 64.79C245.63 64.978 245.332 65.072 244.976 65.072ZM248.494 65.072C248.21 65.072 247.958 65.006 247.738 64.874C247.522 64.742 247.352 64.558 247.228 64.322C247.104 64.082 247.042 63.804 247.042 63.488C247.042 63.168 247.102 62.89 247.222 62.654C247.346 62.418 247.518 62.234 247.738 62.102C247.962 61.97 248.218 61.904 248.506 61.904C248.802 61.904 249.052 61.97 249.256 62.102C249.464 62.234 249.622 62.408 249.73 62.624C249.842 62.836 249.898 63.07 249.898 63.326C249.898 63.366 249.898 63.408 249.898 63.452C249.898 63.496 249.896 63.546 249.892 63.602H247.42V63.212H249.406C249.394 62.936 249.302 62.72 249.13 62.564C248.962 62.408 248.75 62.33 248.494 62.33C248.322 62.33 248.162 62.37 248.014 62.45C247.87 62.526 247.754 62.64 247.666 62.792C247.578 62.94 247.534 63.126 247.534 63.35V63.518C247.534 63.766 247.578 63.974 247.666 64.142C247.758 64.31 247.876 64.436 248.02 64.52C248.168 64.604 248.326 64.646 248.494 64.646C248.706 64.646 248.88 64.6 249.016 64.508C249.156 64.412 249.256 64.284 249.316 64.124H249.814C249.766 64.304 249.682 64.466 249.562 64.61C249.442 64.754 249.292 64.868 249.112 64.952C248.936 65.032 248.73 65.072 248.494 65.072Z" fill="#86888E"/>
<rect x="198" y="32" width="5" height="20" fill="#58899F"/>
<rect x="583" y="32" width="5" height="20" fill="#58899F"/>
<rect x="317" y="32" width="5" height="20" fill="#58899F"/>
<rect x="16" y="34" width="5" height="18" fill="#58899F"/>
<rect x="205" y="34" width="5" height="18" fill="#58899F"/>
<rect x="590" y="34" width="5" height="18" fill="#58899F"/>
<rect x="324" y="34" width="5" height="18" fill="#58899F"/>
<rect x="23" y="36" width="5" height="16" fill="#58899F"/>
<rect x="212" y="36" width="5" height="16" fill="#58899F"/>
<rect x="597" y="36" width="5" height="16" fill="#58899F"/>
<rect x="331" y="36" width="5" height="16" fill="#58899F"/>
<rect x="30" y="36" width="5" height="16" fill="#58899F"/>
<rect x="219" y="36" width="5" height="16" fill="#58899F"/>
<rect x="604" y="36" width="5" height="16" fill="#58899F"/>
<rect x="338" y="36" width="5" height="16" fill="#58899F"/>
<rect x="37" y="38" width="5" height="14" fill="#58899F"/>
<rect x="226" y="38" width="5" height="14" fill="#58899F"/>
<rect x="611" y="38" width="5" height="14" fill="#58899F"/>
<rect x="345" y="38" width="5" height="14" fill="#58899F"/>
<rect x="44" y="38" width="5" height="14" fill="#58899F"/>
<rect x="233" y="38" width="5" height="14" fill="#58899F"/>
<rect x="618" y="38" width="5" height="14" fill="#58899F"/>
<rect x="352" y="38" width="5" height="14" fill="#58899F"/>
<rect x="51" y="34" width="5" height="18" fill="#58899F"/>
<rect x="240" y="34" width="5" height="18" fill="#58899F"/>
<rect x="625" y="34" width="5" height="18" fill="#58899F"/>
<rect x="359" y="34" width="5" height="18" fill="#58899F"/>
<rect x="58" y="36" width="5" height="16" fill="#58899F"/>
<rect x="247" y="36" width="5" height="16" fill="#58899F"/>
<rect x="632" y="36" width="5" height="16" fill="#58899F"/>
<rect x="366" y="36" width="5" height="16" fill="#58899F"/>
<rect x="65" y="36" width="5" height="16" fill="#58899F"/>
<rect x="254" y="36" width="5" height="16" fill="#58899F"/>
<rect x="639" y="36" width="5" height="16" fill="#58899F"/>
<rect x="373" y="36" width="5" height="16" fill="#58899F"/>
<rect x="72" y="42" width="5" height="10" fill="#58899F"/>
<rect x="79" y="32" width="5" height="20" fill="#58899F"/>
<rect x="86" y="32" width="5" height="20" fill="#58899F"/>
<rect x="93" y="36" width="5" height="16" fill="#58899F"/>
<rect x="100" y="35" width="5" height="17" fill="#58899F"/>
<rect x="107" y="38" width="5" height="14" fill="#58899F"/>
<rect x="436" y="38" width="5" height="14" fill="#58899F"/>
<rect x="261" y="38" width="5" height="14" fill="#58899F"/>
<rect x="646" y="38" width="5" height="14" fill="#58899F"/>
<rect x="380" y="38" width="5" height="14" fill="#58899F"/>
<rect x="114" y="40" width="5" height="12" fill="#58899F"/>
<rect x="443" y="40" width="5" height="12" fill="#58899F"/>
<rect x="268" y="40" width="5" height="12" fill="#58899F"/>
<rect x="653" y="40" width="5" height="12" fill="#58899F"/>
<rect x="387" y="40" width="5" height="12" fill="#58899F"/>
<rect x="121" y="33" width="5" height="19" fill="#58899F"/>
<rect x="506" y="33" width="5" height="19" fill="#58899F"/>
<rect x="674" y="33" width="5" height="19" fill="#58899F"/>
<rect x="450" y="33" width="5" height="19" fill="#58899F"/>
<rect x="275" y="33" width="5" height="19" fill="#58899F"/>
<rect x="660" y="33" width="5" height="19" fill="#58899F"/>
<rect x="394" y="33" width="5" height="19" fill="#58899F"/>
<rect x="128" y="35" width="5" height="17" fill="#58899F"/>
<rect x="513" y="35" width="5" height="17" fill="#58899F"/>
<rect x="681" y="35" width="5" height="17" fill="#58899F"/>
<rect x="457" y="35" width="5" height="17" fill="#58899F"/>
<rect x="282" y="35" width="5" height="17" fill="#58899F"/>
<rect x="401" y="35" width="5" height="17" fill="#58899F"/>
<rect x="135" y="35" width="5" height="17" fill="#58899F"/>
<rect x="520" y="35" width="5" height="17" fill="#58899F"/>
<rect x="688" y="35" width="5" height="17" fill="#58899F"/>
<rect x="464" y="35" width="5" height="17" fill="#58899F"/>
<rect x="289" y="35" width="5" height="17" fill="#58899F"/>
<rect x="408" y="35" width="5" height="17" fill="#58899F"/>
<rect x="142" y="36" width="5" height="16" fill="#58899F"/>
<rect x="527" y="36" width="5" height="16" fill="#58899F"/>
<rect x="695" y="36" width="5" height="16" fill="#58899F"/>
<rect x="471" y="36" width="5" height="16" fill="#58899F"/>
<rect x="296" y="36" width="5" height="16" fill="#58899F"/>
<rect x="415" y="36" width="5" height="16" fill="#58899F"/>
<rect x="149" y="40" width="5" height="12" fill="#58899F"/>
<rect x="716" y="40" width="5" height="12" fill="#58899F"/>
<rect x="534" y="40" width="5" height="12" fill="#58899F"/>
<rect x="702" y="40" width="5" height="12" fill="#58899F"/>
<rect x="478" y="40" width="5" height="12" fill="#58899F"/>
<rect x="303" y="40" width="5" height="12" fill="#58899F"/>
<rect x="422" y="40" width="5" height="12" fill="#58899F"/>
<rect x="156" y="38" width="5" height="14" fill="#58899F"/>
<rect x="723" y="38" width="5" height="14" fill="#58899F"/>
<rect x="541" y="38" width="5" height="14" fill="#58899F"/>
<rect x="709" y="38" width="5" height="14" fill="#58899F"/>
<rect x="485" y="38" width="5" height="14" fill="#58899F"/>
<rect x="310" y="38" width="5" height="14" fill="#58899F"/>
<rect x="429" y="38" width="5" height="14" fill="#58899F"/>
<rect x="163" y="38" width="5" height="14" fill="#58899F"/>
<rect x="730" y="38" width="5" height="14" fill="#58899F"/>
<rect x="548" y="38" width="5" height="14" fill="#58899F"/>
<rect x="492" y="38" width="5" height="14" fill="#58899F"/>
<rect x="170" y="35" width="5" height="17" fill="#58899F"/>
<rect x="737" y="35" width="5" height="17" fill="#58899F"/>
<rect x="555" y="35" width="5" height="17" fill="#58899F"/>
<rect x="499" y="35" width="5" height="17" fill="#58899F"/>
<rect x="667" y="35" width="5" height="17" fill="#58899F"/>
<rect x="177" y="35" width="5" height="17" fill="#58899F"/>
<rect x="744" y="35" width="5" height="17" fill="#58899F"/>
<rect x="562" y="35" width="5" height="17" fill="#58899F"/>
<rect x="191" y="35" width="5" height="17" fill="#58899F"/>
<rect x="576" y="35" width="5" height="17" fill="#58899F"/>
<rect x="184" y="33" width="5" height="19" fill="#58899F"/>
<rect x="569" y="33" width="5" height="19" fill="#58899F"/>
</svg>
