<svg width="17" height="17" viewBox="0 0 17 17" fill="none" xmlns="http://www.w3.org/2000/svg">
<path d="M11.8839 4.81976C11.8839 4.81976 12.9453 5.24912 13.6279 10.7841C13.6279 10.7841 12.6429 11.163 13.249 11.8203C13.8545 12.4776 13.9323 13.7158 13.9323 13.7158C13.9323 13.7158 10.3433 14.2462 4.10107 13.7916C4.10107 13.7916 1.5994 8.68657 2.58375 6.91733L4.22671 6.96785C4.22671 6.96785 6.60209 8.15554 6.50107 6.89208C6.50107 6.89208 6.9382 6.84869 7.0049 6.80854C7.07096 6.76839 7.58256 7.75079 8.95611 6.11172C8.95611 6.11172 11.0932 5.2951 11.8502 4.83077L11.8839 4.81976ZM3.73712 5.7549C3.73712 5.7549 3.09082 3.89629 2.27355 4.28355C1.45628 4.67082 2.33313 6.05927 2.56367 6.35651C2.56303 6.35651 3.26891 5.89607 3.73712 5.7549Z" fill="#60D0E4"/>
<path fill-rule="evenodd" clip-rule="evenodd" d="M9.14763 15.2217C9.06668 15.0909 8.87953 15.0935 8.69496 15.0669C8.57451 15.0494 8.30058 15.0196 8.2928 14.8688C8.28244 14.7043 8.52529 14.6427 8.68978 14.6084C9.08287 14.5255 9.47467 14.5398 9.94871 14.5398C10.1514 14.5398 10.4221 14.5527 10.4448 14.6887C10.4636 14.8027 10.3671 14.8843 10.29 14.9367C10.2214 14.9834 10.0828 15.0274 10.0795 15.1291C10.0724 15.3098 10.4053 15.2767 10.3276 15.5261C10.2991 15.618 10.1391 15.6705 10.0174 15.7067C9.63139 15.8175 9.17807 15.855 8.73382 15.8926C8.33166 15.9269 7.81747 16.0033 7.34472 15.936C7.20937 15.9159 7.03064 15.8648 7.02222 15.7689C7.00862 15.6148 7.26312 15.5656 7.40041 15.5455C7.77926 15.4904 8.13479 15.5144 8.54731 15.4963C8.83484 15.4833 9.12432 15.4859 9.14893 15.2236L9.14763 15.2217ZM5.08655 15.2774C5.36566 15.2638 5.75811 15.2819 6.03528 15.3519C6.10781 15.37 6.24575 15.3998 6.2464 15.4755C6.24704 15.5565 6.06442 15.5908 5.96145 15.618C5.37149 15.7709 4.76793 15.8188 4.11385 15.8971C3.9947 15.9114 3.87165 15.9198 3.74149 15.9528C3.66572 15.9723 3.4805 16.0273 3.48698 16.1206C3.4954 16.2352 3.79135 16.2041 3.91504 16.2138C4.0737 16.2261 4.27511 16.2455 4.28676 16.3628C4.30749 16.5622 3.9131 16.5713 3.71623 16.5855C3.17354 16.6263 2.70727 16.6063 2.20344 16.5421C2.10501 16.5298 1.98261 16.5065 1.88094 16.4677C1.79027 16.4327 1.66658 16.3802 1.66399 16.2941C1.66011 16.1652 1.86216 16.116 1.97419 16.0895C2.38995 15.991 2.84392 15.9528 3.27651 15.8602C3.55109 15.8013 3.82179 15.6964 4.04521 15.6057C4.28935 15.5073 4.5199 15.3797 4.77052 15.3078C4.87025 15.28 4.95055 15.2839 5.08655 15.2774ZM10.2324 15.7119C10.2971 15.7054 10.4733 15.7126 10.4739 15.7987C10.4752 15.9243 10.0782 15.9243 10.0718 15.8052C10.0672 15.7307 10.1592 15.7197 10.233 15.7119H10.2324ZM9.724 15.8175C9.80818 15.8097 9.94936 15.8142 9.95325 15.9043C9.95907 16.0403 9.55109 16.0344 9.55627 15.9043C9.55951 15.8453 9.63592 15.8253 9.724 15.8175ZM9.11655 15.9224C9.15346 15.9198 9.24348 15.9153 9.30888 15.9289C9.33285 15.9334 9.42999 15.9697 9.43258 16.0033C9.43776 16.0675 9.30306 16.0914 9.24024 16.0966C9.1172 16.107 8.89572 16.0914 8.88665 16.0163C8.87823 15.9412 9.04467 15.9276 9.11655 15.9224ZM8.31094 15.9846C8.40872 15.9716 8.6302 15.9761 8.63344 16.0836C8.63797 16.2371 8.14127 16.2378 8.13738 16.0901C8.13479 16.0098 8.23517 15.9943 8.31094 15.9846ZM7.36803 15.9956C7.45093 15.9897 7.53317 15.9904 7.62254 16.0079C7.66593 16.0163 7.79869 16.0474 7.80322 16.107C7.8097 16.2209 7.48784 16.2417 7.33112 16.2313C7.23592 16.2248 7.05913 16.1886 7.05848 16.1134C7.05783 16.05 7.15433 16.0286 7.18217 16.0202C7.24952 16.0008 7.28709 16.0001 7.36803 15.9956ZM1.57074 16.2436C1.54095 16.3343 1.24694 16.3841 1.13685 16.3181C1.19448 16.2177 1.44122 16.1924 1.57074 16.2436ZM1.63874 16.4061C1.56297 16.5182 1.27284 16.559 1.13037 16.4871C1.20679 16.3757 1.49626 16.3336 1.63874 16.4061ZM1.7566 16.5551C1.67565 16.6568 1.39006 16.7073 1.24823 16.6296C1.30458 16.5253 1.64456 16.4735 1.7566 16.5551ZM2.27727 16.6296C2.22481 16.7546 1.87058 16.8102 1.75012 16.7099C1.81359 16.5784 2.14257 16.5363 2.27727 16.6296ZM2.69885 16.6542C2.77786 16.6477 2.93652 16.6412 3.02136 16.6665C3.17808 16.7131 3.05503 16.7973 2.93458 16.8277C2.81089 16.8601 2.67684 16.8757 2.51882 16.8646C2.44435 16.8595 2.32001 16.84 2.31418 16.7902C2.30706 16.7312 2.42751 16.7027 2.46896 16.6911C2.56027 16.6658 2.61726 16.6607 2.69885 16.6542ZM3.939 16.7222C3.93188 16.8005 3.82632 16.8459 3.73436 16.877C3.63399 16.91 3.52972 16.9307 3.42416 16.9391C3.35552 16.9437 3.21887 16.9385 3.20722 16.8899C3.18909 16.8167 3.35422 16.7591 3.40538 16.741C3.51094 16.7027 3.61456 16.6807 3.70911 16.673C3.80171 16.6658 3.90533 16.6684 3.939 16.7222ZM9.12302 4.75586C9.13015 4.75715 9.12626 4.76234 9.12302 4.76234C8.70791 5.22796 8.32065 5.72726 7.83366 6.14496C7.77732 6.19353 7.67435 6.29261 7.59793 6.28743C7.55454 6.28484 7.50014 6.22396 7.45546 6.20648C7.19448 6.10675 6.91666 6.30945 6.92832 6.59698C6.83182 6.62612 6.72821 6.63713 6.61812 6.6462C6.51385 6.65656 6.39275 6.68182 6.28978 6.67081C6.21337 6.66304 6.1635 6.62288 6.06053 6.63389C6.01326 6.63907 5.9757 6.67016 5.91806 6.67728C5.8274 6.68894 5.70695 6.65785 5.60204 6.63389C4.94278 6.483 4.38131 6.13978 3.73566 6.00184C3.81531 5.95327 3.91569 5.92607 4.0083 5.8911C4.02449 5.86131 3.97592 5.81274 3.98952 5.78554C5.51655 5.94485 6.84737 5.58025 7.98908 5.2027C8.38476 5.07189 8.77008 4.90675 9.12432 4.75651L9.12302 4.75586Z" fill="black"/>
<path fill-rule="evenodd" clip-rule="evenodd" d="M7.9878 5.20205C6.84673 5.5796 5.51527 5.9442 3.98823 5.78489C3.97463 5.81209 4.02256 5.86001 4.00701 5.89045C3.91441 5.92607 3.81403 5.95327 3.73438 6.00184C4.37938 6.13978 4.9415 6.48236 5.60075 6.63389C5.70502 6.65785 5.82741 6.68894 5.91678 6.67728C5.97442 6.67016 6.01198 6.63907 6.05925 6.63389C6.16287 6.62353 6.21209 6.66304 6.2885 6.67081C6.39212 6.68117 6.51257 6.65462 6.61683 6.6462C6.72628 6.63713 6.83054 6.62612 6.92703 6.59698C6.91538 6.30945 7.1919 6.10675 7.45418 6.20648C7.49886 6.22332 7.55326 6.28419 7.59665 6.28743C7.67307 6.29261 7.77603 6.19353 7.83237 6.14496C8.31937 5.72726 8.70728 5.22796 9.12174 4.76234C9.12498 4.76234 9.12887 4.75715 9.12174 4.75586C8.76945 4.90545 8.38348 5.07059 7.9878 5.20205Z" fill="#638B18"/>
<path fill-rule="evenodd" clip-rule="evenodd" d="M8.54602 15.4946C8.1335 15.5134 7.77797 15.4888 7.39912 15.5439C7.26118 15.5639 7.00732 15.6125 7.02092 15.7673C7.02934 15.8638 7.20808 15.9156 7.34343 15.9344C7.81617 16.0024 8.33037 15.9253 8.73252 15.891C9.17678 15.8534 9.6301 15.8165 10.0161 15.7051C10.1365 15.6701 10.2971 15.6177 10.3263 15.5244C10.404 15.2751 10.0711 15.3081 10.0782 15.1275C10.0821 15.0264 10.2207 14.9817 10.2887 14.9351C10.3658 14.8827 10.4623 14.8011 10.4435 14.6871C10.4215 14.5511 10.1501 14.5381 9.94742 14.5381C9.47532 14.5381 9.08223 14.5232 8.68849 14.6068C8.524 14.6418 8.28244 14.7026 8.29151 14.8671C8.29993 15.018 8.57257 15.0478 8.69367 15.0653C8.87823 15.0918 9.06539 15.0892 9.14634 15.2201C9.12173 15.4823 8.8329 15.4797 8.54472 15.4927L8.54602 15.4946ZM4.76987 15.3088C4.51925 15.3807 4.28806 15.5082 4.04456 15.6067C3.82114 15.6967 3.55044 15.8016 3.27586 15.8612C2.84327 15.9544 2.38995 15.992 1.97354 16.0904C1.86151 16.117 1.65946 16.1656 1.66334 16.2951C1.66593 16.3812 1.79027 16.4337 1.88029 16.4686C1.98067 16.5075 2.10436 16.5308 2.20279 16.5431C2.70662 16.6072 3.1729 16.6273 3.71558 16.5865C3.91245 16.5716 4.30684 16.5632 4.28612 16.3637C4.27381 16.2465 4.07306 16.2271 3.9144 16.2148C3.7907 16.2051 3.49475 16.2361 3.48633 16.1215C3.47986 16.0289 3.66507 15.9739 3.74084 15.9538C3.87036 15.9201 3.99405 15.9123 4.11321 15.8981C4.76728 15.8191 5.37149 15.7718 5.9608 15.619C6.06442 15.5918 6.2464 15.5575 6.24575 15.4765C6.24575 15.4007 6.10716 15.3709 6.03463 15.3528C5.75746 15.2829 5.36501 15.2654 5.0859 15.2783C4.9512 15.2848 4.8696 15.2809 4.76987 15.3088ZM10.0718 15.8048C10.0789 15.924 10.4765 15.9253 10.4739 15.7984C10.4726 15.7122 10.2965 15.7051 10.2324 15.7116C10.1585 15.7194 10.0666 15.7297 10.0711 15.8048H10.0718ZM9.55692 15.9052C9.55044 16.0354 9.95907 16.0412 9.95389 15.9052C9.95001 15.8152 9.80883 15.8107 9.72465 15.8184C9.63592 15.8269 9.55951 15.8463 9.55692 15.9052ZM8.8873 16.016C8.89637 16.0911 9.11784 16.1066 9.24089 16.0963C9.30306 16.0911 9.43841 16.0658 9.43323 16.003C9.43064 15.9693 9.33285 15.9337 9.30953 15.9285C9.24413 15.9149 9.15476 15.9182 9.1172 15.9221C9.04467 15.9279 8.87823 15.9415 8.8873 16.016ZM8.13673 16.0898C8.13997 16.2381 8.63733 16.2368 8.63279 16.0833C8.62956 15.9758 8.40743 15.9713 8.31029 15.9842C8.23517 15.9946 8.13479 16.0101 8.13673 16.0898ZM7.18218 16.0218C7.15368 16.0302 7.05784 16.0516 7.05848 16.115C7.05913 16.1895 7.23657 16.2258 7.33112 16.2329C7.48719 16.2433 7.8084 16.2225 7.80322 16.1086C7.79998 16.049 7.66658 16.0179 7.62254 16.0095C7.53382 15.9913 7.45093 15.9913 7.36804 15.9972C7.28773 16.003 7.25017 16.0024 7.18218 16.0218ZM1.13685 16.3197C1.24759 16.3857 1.54095 16.3365 1.57074 16.2452C1.44187 16.1934 1.19448 16.2193 1.13685 16.3197ZM1.13037 16.4868C1.27284 16.5586 1.56297 16.5178 1.63874 16.4058C1.49626 16.3339 1.20679 16.376 1.13037 16.4868ZM1.24823 16.6299C1.38876 16.7069 1.67565 16.6571 1.7566 16.5554C1.64456 16.4745 1.30458 16.5256 1.24823 16.6299ZM1.75077 16.7102C1.87122 16.8106 2.22481 16.7549 2.27791 16.6299C2.14321 16.5366 1.81359 16.5794 1.75077 16.7102ZM2.4696 16.6914C2.42816 16.7031 2.309 16.7322 2.31483 16.7905C2.32066 16.8397 2.445 16.8611 2.51947 16.865C2.67748 16.8753 2.81154 16.8604 2.93523 16.828C3.05503 16.7963 3.17872 16.7134 3.02201 16.6668C2.93717 16.6415 2.77851 16.648 2.6995 16.6545C2.61726 16.661 2.56092 16.6661 2.4696 16.6914ZM3.70975 16.6733C3.6152 16.6804 3.51159 16.7037 3.40603 16.7413C3.35552 16.7594 3.18909 16.8164 3.20787 16.8902C3.22017 16.9407 3.35617 16.944 3.42481 16.9394C3.53037 16.9317 3.63463 16.9103 3.73501 16.8773C3.82697 16.8468 3.93253 16.8008 3.93965 16.7225C3.90533 16.6687 3.80171 16.6661 3.70975 16.6733Z" fill="black"/>
<path d="M9.04022 3.77079C5.31265 5.38849 3.44238 4.68066 3.44238 4.68066L3.88469 5.56528C6.55085 5.86836 9.29084 4.43457 9.29084 4.43457L9.42813 4.05897C9.42813 4.05897 9.20082 4.10818 9.07066 3.76172L9.04022 3.77079Z" fill="#E1CAA2"/>
<path d="M9.31194 2.68772L9.26466 2.52647C9.26466 2.52647 6.26045 1.35108 5.57789 1.71114C4.89532 2.0712 4.01458 2.69678 3.36958 3.663L3.35986 4.4304C3.35986 4.4304 5.21135 5.19781 9.02699 3.54255C9.02764 3.54384 8.97713 3.0821 9.31194 2.68772Z" fill="#638B18"/>
<path d="M9.54316 3.7805C9.49783 3.82 9.45509 3.84914 9.41041 3.84008C9.27506 3.81352 9.21224 3.54995 9.27117 3.25206C9.32946 2.95416 9.48682 2.73398 9.62282 2.75988C9.75298 2.78579 9.8158 3.02993 9.76853 3.31423C9.76853 3.31423 9.62411 3.57909 9.55612 3.76495L9.54316 3.7805Z" fill="black"/>
<path d="M11.3909 2.40036C11.3909 2.40036 10.7084 1.95157 9.98242 2.95017C9.98242 2.95017 9.88787 2.35632 9.40088 2.60889C9.40088 2.60889 9.49543 1.756 9.43261 1.63619C9.43261 1.63619 9.62236 1.69318 9.6787 1.81946C9.6787 1.81946 10.178 1.33312 10.1463 0.657025C10.1463 0.657025 10.279 0.675805 10.279 0.846771C10.279 0.846771 10.4649 0.435547 10.6469 0.214068L10.6643 0.189459C11.3974 -0.448425 10.7213 1.45292 10.7213 1.45292C10.7213 1.45292 10.6818 1.54747 10.6417 1.59799C10.6015 1.64915 10.9888 1.46911 10.9843 1.32211C10.9797 1.1751 11.0328 1.52934 10.9843 1.59345C10.9843 1.59345 11.6254 1.08638 11.6442 0.820867C11.6442 0.820867 11.7452 1.02292 11.7199 1.18741C11.7199 1.18741 12.2885 0.75805 12.3015 0.555352C12.3015 0.555352 12.3708 1.6485 11.2906 2.06555C11.2906 2.06555 11.4674 2.06555 11.6882 2.02151L11.3909 2.40036Z" fill="#E1CAA2"/>
<path d="M11.7511 3.70753C11.7511 3.70753 14.0319 3.20241 12.819 4.01708C11.606 4.83176 11.4292 4.7942 11.4292 4.7942C11.4292 4.7942 11.6753 4.42831 11.7511 3.70753ZM11.391 4.82529L9.29346 5.74164C9.29346 5.74164 9.94429 5.18535 9.72281 4.88228C9.72281 4.88228 10.8224 4.71843 11.391 4.82529Z" fill="#638B18"/>
<path d="M9.44482 4.66899C10.0257 3.05776 10.3184 2.87644 10.3184 2.87644C10.5937 2.57984 10.9408 2.44967 11.2147 2.57466C11.4517 2.68345 11.5793 2.95868 11.58 3.29155V3.31292C11.58 3.31292 11.5366 4.12565 11.3086 4.58674C11.3086 4.58674 10.4622 4.46694 9.55233 4.70655L9.44482 4.66899Z" fill="#60D0E4"/>
<path d="M10.2745 3.94882C10.2745 3.94882 10.7291 3.04348 11.007 3.25265C11.007 3.25265 11.0756 3.33425 10.8975 3.93068C10.8975 3.93068 11.6313 3.03441 10.8703 3.01174C10.871 3.01174 10.3613 2.99361 10.2745 3.94882ZM3.20471 5.72583C3.20471 5.72583 2.60568 4.81984 2.55128 5.00052C2.49688 5.1812 2.58754 5.49981 2.60179 5.58724C2.61604 5.67467 2.14394 5.03031 2.46062 4.79523C2.77664 4.56015 3.16779 5.2887 3.20406 5.72518L3.20471 5.72583Z" fill="black"/>
<path d="M2.50666 6.64177H2.52998C2.52998 6.64177 2.87709 6.3892 2.97941 6.3497C3.08173 6.3102 2.85313 6.72854 3.46057 6.72854C4.06802 6.72854 1.88303 6.80755 1.38632 6.37366C1.38632 6.37366 1.34293 6.18586 2.00931 5.87695C2.00931 5.87695 2.41147 6.59514 2.50666 6.64047V6.64177Z" fill="#638B18"/>
<path d="M4.64435 6.88592C3.95724 6.58219 3.44305 6.49412 3.44305 6.49412C3.43787 6.49477 3.43269 6.49477 3.42751 6.49477C3.31936 6.49477 3.23193 6.42483 3.23193 6.3387C3.23193 6.25256 3.31936 6.18262 3.42751 6.18262C3.43657 6.18262 3.44564 6.18327 3.45471 6.18392C3.45471 6.18392 3.95919 6.26811 4.74407 6.59644L4.82956 6.63141C5.5594 6.90146 5.85341 6.90858 5.85341 6.90858C5.95185 6.917 5.97775 6.917 5.9907 6.90729C6.00365 6.89757 6.08525 6.86584 6.08525 6.86584C6.18887 6.86843 6.27241 6.94031 6.27241 7.02904C6.27241 7.11387 6.1267 7.20648 6.02826 7.21425C6.02826 7.21425 5.48816 7.25699 4.67284 6.89693L4.64435 6.88592ZM9.52853 5.06552C9.53047 5.0571 9.53112 5.04803 9.53112 5.03897C9.53112 4.96061 9.46636 4.89844 9.3867 4.89844C9.36728 4.89844 9.34785 4.90232 9.32972 4.91009L8.73263 5.56223C8.48784 5.8394 7.88946 6.49412 7.63884 6.52326L7.49766 6.53816C7.486 6.51484 7.42189 6.45785 7.42189 6.45785C7.38174 6.42224 7.32734 6.40734 7.27554 6.42288C7.19329 6.44814 7.14861 6.54334 7.17645 6.634C7.18681 6.66768 7.20624 6.69811 7.23344 6.72143C7.23344 6.72143 7.6479 7.14107 8.36156 6.39504L9.13997 5.57259C9.13997 5.57259 9.50198 5.17755 9.52594 5.083L9.52853 5.06552Z" fill="black"/>
<path d="M10.7755 8.00343C10.7755 8.79544 10.1324 9.4385 9.33843 9.4385C8.54448 9.4385 7.90206 8.79544 7.90206 8.00343C7.90206 7.21012 8.54513 6.56641 9.33843 6.56641C10.1317 6.56641 10.7748 7.20882 10.7755 8.00213V8.00343ZM6.31415 9.05253C6.31415 9.84519 5.67109 10.4876 4.87713 10.4876C4.08318 10.4876 3.44141 9.84584 3.44141 9.05253C3.44141 8.25923 4.08447 7.61551 4.87778 7.61551C5.67109 7.61551 6.3148 8.25858 6.3148 9.05253H6.31415ZM7.51156 11.3528C7.54912 11.5678 7.63784 12.0224 7.94092 11.9842C8.24399 11.946 8.13066 11.3399 8.13066 11.3399C8.13066 11.3399 7.61259 11.3146 7.56207 11.3399L7.51156 11.3528ZM7.33477 11.413C7.33477 11.413 7.0563 11.5315 6.83482 11.6766C6.83482 11.6766 6.94556 12.242 7.31404 12.0729C7.31404 12.0729 7.55689 12.0192 7.34966 11.4512L7.33477 11.413ZM6.62824 10.1573C6.62824 10.1573 4.85965 10.6897 5.72743 11.584C6.29602 12.1701 7.0835 11.1721 7.50314 11.1818C7.50314 11.1818 7.59963 11.1384 7.80039 11.1644C8.00179 11.1903 9.31383 11.2958 9.43622 10.7706C9.55862 10.2454 9.40125 10.158 9.30476 10.0971C9.20827 10.0362 8.51728 9.62501 7.48501 9.91319L6.62824 10.1573Z" fill="white"/>
<path d="M4.75184 9.99586C5.00041 9.99586 5.20192 9.79436 5.20192 9.54578C5.20192 9.29721 5.00041 9.0957 4.75184 9.0957C4.50327 9.0957 4.30176 9.29721 4.30176 9.54578C4.30176 9.79436 4.50327 9.99586 4.75184 9.99586Z" fill="black"/>
<path d="M9.14979 8.92165C9.39836 8.92165 9.59987 8.72014 9.59987 8.47156C9.59987 8.22299 9.39836 8.02148 9.14979 8.02148C8.90121 8.02148 8.69971 8.22299 8.69971 8.47156C8.69971 8.72014 8.90121 8.92165 9.14979 8.92165Z" fill="black"/>
<path d="M7.36288 10.4564C7.79439 10.369 8.10551 10.1072 8.05778 9.8716C8.01004 9.63604 7.62154 9.51596 7.19002 9.6034C6.7585 9.69084 6.44739 9.95268 6.49512 10.1882C6.54285 10.4238 6.93136 10.5439 7.36288 10.4564Z" fill="black"/>
<path d="M6.44998 10.4438C6.44998 10.4438 5.33806 10.9619 5.85743 11.3912C6.3768 11.8206 6.62807 11.1257 7.38641 10.9995C8.14475 10.8732 9.01641 11.0752 9.19321 10.7469C9.37 10.4186 9.43411 10.1543 8.19461 10.0391C8.19461 10.0391 8.08128 10.5824 7.42397 10.6459C6.76666 10.7087 6.65333 10.5953 6.45128 10.4438H6.44998Z" fill="#E1CAA2"/>
<path d="M15.2507 12.8867C15.2507 12.8867 17.0866 13.2759 14.4321 13.6651C14.4321 13.6651 15.0609 13.4061 15.2507 12.8867Z" fill="#231F20"/>
<path d="M13.993 13.0669C13.993 13.0669 13.9328 12.1291 13.3739 11.6201C12.815 11.1111 13.8428 10.9518 14.162 11.091C14.4813 11.2309 15.8089 12.1486 14.6413 13.3265C14.6413 13.3265 14.1426 13.686 14.0027 13.1167L13.993 13.0669Z" fill="#E1CAA2"/>
<path d="M2.26088 12.8574C2.26088 12.8574 2.16633 13.3315 2.2421 13.5303C2.2421 13.5303 0.640589 13.255 2.16633 12.8762L2.26088 12.8574Z" fill="black"/>
<path d="M3.02826 11.7852C3.02826 11.7852 2.04456 12.9489 2.55422 13.8983C2.97127 14.6754 3.81445 13.794 3.83388 13.7655L3.02826 11.7852Z" fill="#E1CAA2"/>
</svg>
