<svg version="1.2" xmlns="http://www.w3.org/2000/svg" viewBox="0 0 368 444" width="368" height="444"><style>.a{fill:#009b8d}.b{fill:#009b8c}</style><path class="a" d="m17.4 293.5c118.8 66.9 227.6 133.8 306.5 69.7-84.5 72.4-190.3 21.8-306.8-53.1q-0.4-7.9 0.3-16.6z"/><path class="a" d="m28.1 325.7c114.5 86.1 213.1 152.8 275.8 69.1-68.8 92.4-163.5 41.6-273.2-53.7q-1.8-7.3-2.6-15.4z"/><path class="a" d="m10.7 261.4c120.3 47.6 236.7 114.7 329.1 70.3-97.4 52.3-211.7 1.9-332.3-52.5q1.1-8.5 3.2-17.8z"/><path class="a" d="m7.9 229.2c119.3 28.4 240.5 95.7 343.8 70.9-107.5 32.3-227.7-17.9-349.7-51.9q2.5-9.1 5.9-19z"/><path class="a" d="m9 197.1c115.6 9.1 239.1 76.6 350.6 71.4-115 12.3-238.3-37.7-359-51.2q3.8-9.8 8.4-20.2z"/><path class="a" d="m339.9 118.6c-114.5-86.1-213.1-152.8-275.8-69.1 68.9-92.4 163.5-41.6 273.2 53.7q1.9 7.3 2.6 15.4z"/><path class="b" d="m350.6 150.8c-118.7-66.9-227.6-133.8-306.4-69.7 84.4-72.4 190.3-21.8 306.8 53.1q0.3 7.9-0.4 16.6z"/><path class="a" d="m357.4 182.9c-120.4-47.6-236.8-114.7-329.1-70.2 97.3-52.4 211.6-2 332.3 52.4q-1.2 8.5-3.2 17.8z"/><path class="a" d="m360.2 215.1c-119.3-28.4-240.6-95.7-343.8-70.9 107.5-32.3 227.6 17.9 349.7 51.9q-2.6 9.1-5.9 19z"/><path class="a" d="m359.1 247.2c-115.6-9.1-239.2-76.6-350.6-71.4 115-12.3 238.2 37.7 359 51.2q-3.9 9.8-8.4 20.2z"/></svg>