<svg width="108" height="23" viewBox="0 0 108 23" fill="none" xmlns="http://www.w3.org/2000/svg">
<g clip-path="url(#clip0_2262_37745)">
<path d="M95.4507 8.10472L95.4837 7.87249L95.5495 7.6723L95.647 7.50681L95.7458 7.33998L95.9091 7.20652L96.1066 7.10643L96.3028 7.04103H96.4991H96.7282L96.9245 7.10643L97.122 7.20652L97.2524 7.33998L97.3828 7.50681L97.4816 7.6723L97.5474 7.87249L97.5803 8.10472L97.5474 8.33828L97.4816 8.53847L97.3828 8.73733L97.2524 8.87079L97.122 9.00398L96.9245 9.10381L96.7282 9.17028L96.4991 9.20365L96.3028 9.17028L96.1066 9.10381L95.9091 9.00398L95.7458 8.87079L95.647 8.73733L95.5495 8.53847L95.4837 8.33828L95.4507 8.10472ZM89.6533 19.8198L90.0142 20.1193L90.3737 20.3856L90.7346 20.6517L91.127 20.918L91.5537 21.151L91.9462 21.3506L92.3716 21.5503L92.8299 21.7167L93.2566 21.8498L93.7149 21.983L94.1732 22.1161L94.6316 22.2159L95.0912 22.2825L95.5495 22.3157L96.0407 22.349H96.4991H96.9903L97.4815 22.3157L97.9399 22.2825L98.3982 22.2159L98.8578 22.1161L99.3161 21.983L99.7744 21.8498L100.2 21.7167L100.659 21.5503L101.085 21.3506L101.477 21.151L101.904 20.918L102.297 20.6517L102.657 20.3856L103.017 20.1193L103.378 19.8198L102.067 18.3887L101.576 18.8214L101.052 19.1875L100.495 19.5202L99.9378 19.8198L99.3491 20.0527L98.759 20.2524L98.1045 20.3856L97.4486 20.4854V12.8644H99.3161V11.4334H97.4486V10.3019L97.7766 10.1687L98.0716 9.96904L98.3336 9.73602L98.5628 9.4699L98.7261 9.20365L98.8578 8.87079L98.9553 8.50511V8.13808V7.87249L98.9223 7.63894L98.8578 7.37335L98.7919 7.17316L98.6602 6.94094L98.5628 6.74075L98.3982 6.54188L98.2678 6.37506L98.0715 6.20823L97.8753 6.07477L97.6778 5.97601L97.4815 5.87591L97.2524 5.77582L97.0232 5.70908L96.7611 5.67571H96.499H96.2699L96.0078 5.70908L95.7787 5.77582L95.5495 5.87591L95.3533 5.97601L95.1557 6.07477L94.9595 6.20823L94.7632 6.37506L94.6315 6.54188L94.4682 6.74075L94.3695 6.94094L94.2391 7.17316L94.1732 7.37335L94.1074 7.63894L94.0758 7.87249V8.13808V8.50511L94.1732 8.87079L94.3049 9.20365L94.4682 9.4699L94.6974 9.73602L94.9595 9.96904L95.2545 10.1687L95.5824 10.3019V11.4334H93.7149V12.8644H95.5824V20.4854L94.9265 20.3856L94.272 20.2524L93.682 20.0527L93.092 19.8198L92.5033 19.5202L91.9791 19.1875L91.4549 18.8214L90.9637 18.3887L89.6533 19.8198ZM85.755 11.4334L85.7879 10.9009L85.8208 10.3351L85.8867 9.80262L85.9855 9.27011L86.1159 8.77069L86.2476 8.23818L86.4109 7.73903L86.6071 7.23989L86.8363 6.77411L87.0654 6.30833L87.3275 5.87591L87.6225 5.41013L87.9175 5.00975L88.2454 4.57733L88.5721 4.21165L88.9329 3.8126L89.2925 3.47894L89.6862 3.14662L90.0787 2.8143L90.5054 2.51402L90.9637 2.21506L91.3891 1.9815L91.8474 1.71592L92.3387 1.51572L92.8299 1.31687L93.3225 1.15004L93.8453 1.01658L94.3695 0.883117L94.8937 0.784354L95.4178 0.717624L95.9749 0.684251L96.4991 0.650879L97.0562 0.684251L97.6133 0.717624L98.1361 0.784354L98.6603 0.883117L99.1844 1.01658L99.7086 1.15004L100.2 1.31687L100.691 1.51572L101.151 1.71592L101.642 1.9815L102.067 2.21506L102.526 2.51402L102.951 2.8143L103.345 3.14662L103.737 3.47894L104.098 3.8126L104.458 4.21165L104.786 4.57733L105.114 5.00975L105.409 5.41013L105.704 5.87591L105.964 6.30833L106.195 6.77411L106.424 7.23989L106.62 7.73903L106.784 8.23818L106.915 8.77069L107.046 9.27011L107.144 9.80262L107.21 10.3351L107.242 10.9009L107.275 11.4334L107.242 11.9658L107.21 12.4317L107.144 12.931L107.079 13.4301L106.98 13.896L106.849 14.3619L106.719 14.8278L106.554 15.2938L106.391 15.7264L106.195 16.159L105.964 16.5917L105.735 16.991L105.506 17.3904L105.244 17.7898L104.95 18.1891L104.655 18.5552L103.279 17.1242L103.704 16.5251L104.131 15.8595L104.458 15.1939L104.753 14.4618L104.95 13.7296L105.114 12.9974L105.211 12.232L105.244 11.4334V11.0007L105.211 10.5348L105.147 10.1021L105.081 9.66956L104.982 9.23688L104.852 8.80406L104.72 8.40501L104.556 8.00596L104.393 7.60557L104.196 7.20652L103.966 6.84084L103.737 6.47515L103.508 6.1415L103.246 5.77582L102.984 5.47687L102.689 5.14321L102.362 4.84425L102.067 4.57733L101.739 4.31174L101.38 4.04482L101.019 3.8126L100.659 3.6124L100.299 3.41355L99.9048 3.21335L99.5124 3.07989L99.087 2.9144L98.6932 2.8143L98.2678 2.71421L97.8424 2.61411L97.4157 2.58074L96.9574 2.54737L96.4991 2.51399L96.0737 2.54737L95.6141 2.58074L95.1887 2.61411L94.7633 2.71421L94.3379 2.8143L93.9441 2.9144L93.5187 3.07989L93.1249 3.21335L92.7325 3.41355L92.3716 3.6124L92.0121 3.8126L91.6512 4.04482L91.2917 4.31174L90.9637 4.57733L90.6687 4.84425L90.3408 5.14321L90.0471 5.47687L89.785 5.77582L89.5229 6.1415L89.2925 6.47515L89.0633 6.84084L88.8341 7.20652L88.6379 7.60557L88.4746 8.00596L88.31 8.40501L88.1796 8.80406L88.0479 9.23688L87.9504 9.66956L87.8846 10.1021L87.8187 10.5348L87.7858 11.0007V11.4334L87.8187 12.232L87.9175 12.9974L88.0808 13.7296L88.2784 14.4618L88.5721 15.1939L88.9 15.8595L89.3254 16.5251L89.7521 17.1242L88.3758 18.5552L88.0808 18.1891L87.7858 17.7898L87.5237 17.3904L87.2946 16.991L87.0654 16.5917L86.8363 16.159L86.64 15.7264L86.4767 15.2938L86.3121 14.8278L86.1817 14.3619L86.05 13.896L85.9525 13.4301L85.8867 12.931L85.8208 12.4317L85.7879 11.9658L85.755 11.4334ZM76.5847 14.8611V8.13808H78.3534V13.3303H81.3667V14.8611H76.5847ZM70.3289 14.8611H75.2743V13.3303H71.9989V12.1656H74.6843V10.7678H71.9989V9.60296H75.111V8.13808H70.3289V14.8611ZM62.7628 11.4998L62.7944 11.1005L62.8273 10.7344L62.8932 10.4017L62.992 10.0689L63.1223 9.73602L63.2857 9.43653L63.4503 9.17028L63.6465 8.93752L63.8757 8.70396L64.1048 8.50511L64.3998 8.33828L64.6619 8.20481L64.9899 8.07269L65.3165 8.00596L65.6444 7.93923H66.0382L66.561 7.9726L66.8231 8.00598L67.0852 8.07271L67.3144 8.17146L67.5448 8.27156L67.7411 8.37166L67.9373 8.50512L68.1335 8.67061L68.2982 8.83744L68.4615 9.03723L68.5918 9.23689L68.6906 9.46991L68.7894 9.7028L68.8539 9.96906L68.9198 10.2353H67.1511L67.0852 10.0023L66.9877 9.836L66.889 9.7028L66.7586 9.56974L66.594 9.50314L66.4306 9.43655L66.2344 9.40332H66.0698L65.8736 9.43655H65.7103L65.5456 9.50314L65.3823 9.56974L65.2519 9.66957L65.1202 9.7694L64.924 10.0023L64.7607 10.3351L64.629 10.6679L64.5631 11.0673V11.4999V11.9325L64.6619 12.3319L64.7607 12.6979L64.9569 12.9974L65.1861 13.2637L65.3165 13.3635L65.4482 13.4633L65.6115 13.5299L65.7761 13.5632L65.9723 13.5965L66.1686 13.6298L66.4965 13.5965L66.7915 13.5299L67.0536 13.4301L67.2828 13.2971V12.4317H66.1027V11.1005H68.9527V14.1291L68.6248 14.3619L68.2652 14.5616L67.9373 14.728L67.5764 14.8611L67.2169 14.9609L66.889 15.0609L66.561 15.0941H66.2673H65.8406L65.4811 15.0275L65.1202 14.9609L64.7607 14.8611L64.4657 14.728L64.1707 14.5616L63.9086 14.3619L63.6794 14.1623L63.4832 13.896L63.2857 13.6298L63.1223 13.3303L62.992 13.0308L62.8932 12.6647L62.8273 12.2986L62.7944 11.8993L62.7628 11.4998ZM58.1441 12.465L58.9948 9.90244L59.8469 12.465H58.1441ZM55.5232 14.8611H57.3249L57.6528 13.8628H60.3053L60.6661 14.8611H62.4678L59.9457 8.13808H58.0453L55.5232 14.8611ZM48.8737 14.8611H50.512V10.8343L52.8379 14.8611H54.7041V8.13808H53.067V12.099L50.6753 8.13808H48.8737V14.8611ZM41.4063 12.1656V11.3002H44.0271V8.57184H45.0425V11.3002H47.695V12.1656H45.0425V14.8611H44.0271V12.1656H41.4063ZM35.6747 14.8611H40.62V13.3303H37.3447V12.1656H40.03V10.7678H37.3447V9.60296H40.4567V8.13808H35.6747V14.8611ZM28.2718 14.8611H29.9418V10.8343L32.2347 14.8611H34.1022V8.13808H32.4639V12.099L30.0735 8.13808H28.2718V14.8611ZM20.8045 14.8611H22.5732V12.2654H24.9635V14.8611H26.6994V8.13808H24.9635V10.6678H22.5732V8.13808H20.8045V14.8611ZM14.5474 14.8611H19.494V13.3303H16.2187V12.1656H18.904V10.7678H16.2187V9.60296H19.3294V8.13808H14.5474V14.8611ZM7.27649 12.099V12.4983L7.30914 12.8644L7.40739 13.1972L7.50564 13.4967L7.63668 13.763L7.76772 13.9958L7.93155 14.2289L8.12805 14.4285L8.32455 14.595L8.55384 14.728L8.78313 14.8278L9.04521 14.9277L9.30716 15.0275L9.60204 15.0609L9.86399 15.0941H10.1587H10.4536L10.7156 15.0609L11.0104 15.0275L11.2724 14.9277L11.5017 14.8278L11.7638 14.728L11.993 14.595L12.1896 14.4285L12.386 14.2289L12.5499 13.9958L12.6809 13.763L12.8118 13.4967L12.9102 13.1972L12.9757 12.8644L13.0411 12.4983V12.099V8.13808H11.2724V12.3652L11.2397 12.6313L11.1742 12.8976L11.1087 13.0972L10.9777 13.2637L10.814 13.3969L10.6501 13.4967L10.4208 13.5632H10.1588H9.8968L9.66751 13.4967L9.47101 13.3969L9.33997 13.2637L9.20893 13.0972L9.11069 12.8976L9.07789 12.6313L9.04525 12.3652V8.13808H7.27652L7.27649 12.099ZM0.725586 14.8611H2.46154V12.9642L3.05116 12.1988L4.5906 14.8611H6.65408L4.23027 10.9009L6.35933 8.13808H4.32852L2.46154 10.5348V8.13808H0.725586V14.8611Z" fill="#EEEFF1"/>
</g>
<defs>
<clipPath id="clip0_2262_37745">
<rect width="108" height="23" fill="white"/>
</clipPath>
</defs>
</svg>
