<svg width="433" height="268" viewBox="0 0 433 268" fill="none" xmlns="http://www.w3.org/2000/svg">
<g filter="url(#filter0_d_2654_26581)">
<path d="M54 20.5H379C384.247 20.5 388.5 24.7533 388.5 30V59.5H44.5V30C44.5 24.7533 48.7533 20.5 54 20.5Z" fill="#0C0D0E" stroke="#86888E"/>
<rect x="44.5" y="59.5" width="344" height="35" fill="#1D1F22" stroke="#86888E"/>
<rect x="44.5" y="129.5" width="344" height="35" fill="#1D1F22" stroke="#86888E"/>
<path d="M44.5 164.5H388.5V190C388.5 195.247 384.247 199.5 379 199.5H54C48.7533 199.5 44.5 195.247 44.5 190V164.5Z" fill="#1D1F22" stroke="#86888E"/>
<path d="M55.98 85.08V74.944H57.044L57.142 76.092C57.2913 75.868 57.4827 75.658 57.716 75.462C57.9493 75.2567 58.2293 75.0933 58.556 74.972C58.8827 74.8413 59.256 74.776 59.676 74.776C60.3667 74.776 60.964 74.9393 61.468 75.266C61.9813 75.5927 62.378 76.036 62.658 76.596C62.9473 77.1467 63.092 77.7767 63.092 78.486C63.092 79.1953 62.9473 79.83 62.658 80.39C62.378 80.9407 61.9813 81.3747 61.468 81.692C60.9547 82.0093 60.3527 82.168 59.662 82.168C59.0927 82.168 58.5887 82.0513 58.15 81.818C57.7207 81.5847 57.3893 81.258 57.156 80.838V85.08H55.98ZM59.536 81.146C59.9933 81.146 60.3993 81.034 60.754 80.81C61.1087 80.586 61.384 80.278 61.58 79.886C61.7853 79.4847 61.888 79.0133 61.888 78.472C61.888 77.94 61.7853 77.4733 61.58 77.072C61.384 76.6707 61.1087 76.358 60.754 76.134C60.3993 75.91 59.9933 75.798 59.536 75.798C59.0693 75.798 58.6587 75.91 58.304 76.134C57.9493 76.358 57.674 76.6707 57.478 77.072C57.282 77.4733 57.184 77.94 57.184 78.472C57.184 79.0133 57.282 79.4847 57.478 79.886C57.674 80.278 57.9493 80.586 58.304 80.81C58.6587 81.034 59.0693 81.146 59.536 81.146ZM64.7437 82V74.944H65.8077L65.8917 76.288C66.0503 75.9707 66.251 75.7 66.4937 75.476C66.7457 75.252 67.0443 75.0793 67.3897 74.958C67.7443 74.8367 68.1457 74.776 68.5937 74.776V76.008H68.1597C67.861 76.008 67.5763 76.05 67.3057 76.134C67.035 76.2087 66.7923 76.3347 66.5777 76.512C66.3723 76.6893 66.209 76.932 66.0877 77.24C65.9757 77.5387 65.9197 77.912 65.9197 78.36V82H64.7437ZM72.8155 82.168C72.1622 82.168 71.5742 82.0187 71.0515 81.72C70.5289 81.412 70.1182 80.9827 69.8195 80.432C69.5209 79.872 69.3715 79.2233 69.3715 78.486C69.3715 77.73 69.5209 77.0767 69.8195 76.526C70.1275 75.966 70.5429 75.5367 71.0655 75.238C71.5975 74.93 72.1902 74.776 72.8435 74.776C73.5155 74.776 74.1082 74.93 74.6215 75.238C75.1442 75.5367 75.5549 75.966 75.8535 76.526C76.1615 77.0767 76.3155 77.7253 76.3155 78.472C76.3155 79.2187 76.1615 79.872 75.8535 80.432C75.5455 80.9827 75.1302 81.412 74.6075 81.72C74.0849 82.0187 73.4875 82.168 72.8155 82.168ZM72.8295 81.16C73.2309 81.16 73.6042 81.062 73.9495 80.866C74.2949 80.6607 74.5749 80.3573 74.7895 79.956C75.0042 79.5547 75.1115 79.06 75.1115 78.472C75.1115 77.8747 75.0042 77.38 74.7895 76.988C74.5842 76.5867 74.3089 76.288 73.9635 76.092C73.6275 75.8867 73.2542 75.784 72.8435 75.784C72.4515 75.784 72.0782 75.8867 71.7235 76.092C71.3782 76.288 71.0982 76.5867 70.8835 76.988C70.6782 77.38 70.5755 77.8747 70.5755 78.472C70.5755 79.06 70.6782 79.5547 70.8835 79.956C71.0982 80.3573 71.3735 80.6607 71.7095 80.866C72.0549 81.062 72.4282 81.16 72.8295 81.16ZM81.1424 82.168C80.4797 82.168 79.8824 82.014 79.3504 81.706C78.8277 81.398 78.417 80.9687 78.1184 80.418C77.8197 79.858 77.6704 79.214 77.6704 78.486C77.6704 77.7393 77.8197 77.0907 78.1184 76.54C78.417 75.9893 78.8277 75.56 79.3504 75.252C79.8824 74.9347 80.4797 74.776 81.1424 74.776C81.9824 74.776 82.6824 74.9953 83.2424 75.434C83.8024 75.8633 84.157 76.442 84.3064 77.17H83.1024C83.009 76.7313 82.7804 76.3907 82.4164 76.148C82.0524 75.9053 81.623 75.784 81.1284 75.784C80.727 75.784 80.3537 75.8867 80.0084 76.092C79.663 76.288 79.3877 76.5867 79.1824 76.988C78.977 77.3893 78.8744 77.884 78.8744 78.472C78.8744 78.9107 78.935 79.3027 79.0564 79.648C79.1777 79.984 79.341 80.264 79.5464 80.488C79.7517 80.712 79.9897 80.8847 80.2604 81.006C80.5404 81.118 80.8297 81.174 81.1284 81.174C81.4644 81.174 81.7677 81.1227 82.0384 81.02C82.309 80.908 82.5377 80.7447 82.7244 80.53C82.911 80.3153 83.037 80.0633 83.1024 79.774H84.3064C84.157 80.4833 83.7977 81.062 83.2284 81.51C82.6684 81.9487 81.973 82.168 81.1424 82.168ZM89.0701 82.168C88.4074 82.168 87.8194 82.014 87.3061 81.706C86.8021 81.398 86.4054 80.9687 86.1161 80.418C85.8268 79.858 85.6821 79.2093 85.6821 78.472C85.6821 77.7253 85.8221 77.0767 86.1021 76.526C86.3914 75.9753 86.7928 75.546 87.3061 75.238C87.8288 74.93 88.4261 74.776 89.0981 74.776C89.7888 74.776 90.3721 74.93 90.8481 75.238C91.3334 75.546 91.7021 75.952 91.9541 76.456C92.2154 76.9507 92.3461 77.4967 92.3461 78.094C92.3461 78.1873 92.3461 78.2853 92.3461 78.388C92.3461 78.4907 92.3414 78.6073 92.3321 78.738H86.5641V77.828H91.1981C91.1701 77.184 90.9554 76.68 90.5541 76.316C90.1621 75.952 89.6674 75.77 89.0701 75.77C88.6688 75.77 88.2954 75.8633 87.9501 76.05C87.6141 76.2273 87.3434 76.4933 87.1381 76.848C86.9328 77.1933 86.8301 77.6273 86.8301 78.15V78.542C86.8301 79.1207 86.9328 79.606 87.1381 79.998C87.3528 80.39 87.6281 80.684 87.9641 80.88C88.3094 81.076 88.6781 81.174 89.0701 81.174C89.5648 81.174 89.9708 81.0667 90.2881 80.852C90.6148 80.628 90.8481 80.3293 90.9881 79.956H92.1501C92.0381 80.376 91.8421 80.754 91.5621 81.09C91.2821 81.426 90.9321 81.692 90.5121 81.888C90.1014 82.0747 89.6208 82.168 89.0701 82.168ZM96.5931 82.168C96.0051 82.168 95.4918 82.07 95.0531 81.874C94.6238 81.678 94.2785 81.4073 94.0171 81.062C93.7651 80.7073 93.6111 80.292 93.5551 79.816H94.7591C94.8058 80.0587 94.9038 80.2827 95.0531 80.488C95.2025 80.6933 95.4031 80.8613 95.6551 80.992C95.9165 81.1133 96.2338 81.174 96.6071 81.174C96.9338 81.174 97.2045 81.1273 97.4191 81.034C97.6338 80.9313 97.7925 80.796 97.8951 80.628C98.0071 80.46 98.0631 80.278 98.0631 80.082C98.0631 79.7927 97.9931 79.5733 97.8531 79.424C97.7225 79.2747 97.5265 79.158 97.2651 79.074C97.0038 78.9807 96.6865 78.9013 96.3131 78.836C96.0051 78.78 95.7018 78.7053 95.4031 78.612C95.1045 78.5187 94.8385 78.3973 94.6051 78.248C94.3718 78.0893 94.1851 77.898 94.0451 77.674C93.9145 77.45 93.8491 77.1747 93.8491 76.848C93.8491 76.4467 93.9518 76.092 94.1571 75.784C94.3625 75.4667 94.6565 75.2193 95.0391 75.042C95.4311 74.8647 95.8838 74.776 96.3971 74.776C97.1531 74.776 97.7645 74.958 98.2311 75.322C98.6978 75.686 98.9731 76.2133 99.0571 76.904H97.8951C97.8485 76.5493 97.6945 76.274 97.4331 76.078C97.1811 75.8727 96.8311 75.77 96.3831 75.77C95.9445 75.77 95.6085 75.8587 95.3751 76.036C95.1511 76.2133 95.0391 76.4467 95.0391 76.736C95.0391 76.9227 95.0998 77.0907 95.2211 77.24C95.3518 77.38 95.5385 77.5013 95.7811 77.604C96.0331 77.7067 96.3411 77.7907 96.7051 77.856C97.1718 77.94 97.5965 78.052 97.9791 78.192C98.3618 78.332 98.6698 78.542 98.9031 78.822C99.1458 79.0927 99.2671 79.48 99.2671 79.984C99.2671 80.4227 99.1551 80.8053 98.9311 81.132C98.7165 81.4587 98.4085 81.7153 98.0071 81.902C97.6058 82.0793 97.1345 82.168 96.5931 82.168ZM103.62 82.168C103.032 82.168 102.519 82.07 102.08 81.874C101.651 81.678 101.306 81.4073 101.044 81.062C100.792 80.7073 100.638 80.292 100.582 79.816H101.786C101.833 80.0587 101.931 80.2827 102.08 80.488C102.23 80.6933 102.43 80.8613 102.682 80.992C102.944 81.1133 103.261 81.174 103.634 81.174C103.961 81.174 104.232 81.1273 104.446 81.034C104.661 80.9313 104.82 80.796 104.922 80.628C105.034 80.46 105.09 80.278 105.09 80.082C105.09 79.7927 105.02 79.5733 104.88 79.424C104.75 79.2747 104.554 79.158 104.292 79.074C104.031 78.9807 103.714 78.9013 103.34 78.836C103.032 78.78 102.729 78.7053 102.43 78.612C102.132 78.5187 101.866 78.3973 101.632 78.248C101.399 78.0893 101.212 77.898 101.072 77.674C100.942 77.45 100.876 77.1747 100.876 76.848C100.876 76.4467 100.979 76.092 101.184 75.784C101.39 75.4667 101.684 75.2193 102.066 75.042C102.458 74.8647 102.911 74.776 103.424 74.776C104.18 74.776 104.792 74.958 105.258 75.322C105.725 75.686 106 76.2133 106.084 76.904H104.922C104.876 76.5493 104.722 76.274 104.46 76.078C104.208 75.8727 103.858 75.77 103.41 75.77C102.972 75.77 102.636 75.8587 102.402 76.036C102.178 76.2133 102.066 76.4467 102.066 76.736C102.066 76.9227 102.127 77.0907 102.248 77.24C102.379 77.38 102.566 77.5013 102.808 77.604C103.06 77.7067 103.368 77.7907 103.732 77.856C104.199 77.94 104.624 78.052 105.006 78.192C105.389 78.332 105.697 78.542 105.93 78.822C106.173 79.0927 106.294 79.48 106.294 79.984C106.294 80.4227 106.182 80.8053 105.958 81.132C105.744 81.4587 105.436 81.7153 105.034 81.902C104.633 82.0793 104.162 82.168 103.62 82.168ZM108.016 83.61V82.504H115.24V83.61H108.016ZM120.324 82.168C119.661 82.168 119.073 82.014 118.56 81.706C118.056 81.398 117.659 80.9687 117.37 80.418C117.081 79.858 116.936 79.2093 116.936 78.472C116.936 77.7253 117.076 77.0767 117.356 76.526C117.645 75.9753 118.047 75.546 118.56 75.238C119.083 74.93 119.68 74.776 120.352 74.776C121.043 74.776 121.626 74.93 122.102 75.238C122.587 75.546 122.956 75.952 123.208 76.456C123.469 76.9507 123.6 77.4967 123.6 78.094C123.6 78.1873 123.6 78.2853 123.6 78.388C123.6 78.4907 123.595 78.6073 123.586 78.738H117.818V77.828H122.452C122.424 77.184 122.209 76.68 121.808 76.316C121.416 75.952 120.921 75.77 120.324 75.77C119.923 75.77 119.549 75.8633 119.204 76.05C118.868 76.2273 118.597 76.4933 118.392 76.848C118.187 77.1933 118.084 77.6273 118.084 78.15V78.542C118.084 79.1207 118.187 79.606 118.392 79.998C118.607 80.39 118.882 80.684 119.218 80.88C119.563 81.076 119.932 81.174 120.324 81.174C120.819 81.174 121.225 81.0667 121.542 80.852C121.869 80.628 122.102 80.3293 122.242 79.956H123.404C123.292 80.376 123.096 80.754 122.816 81.09C122.536 81.426 122.186 81.692 121.766 81.888C121.355 82.0747 120.875 82.168 120.324 82.168ZM128.295 82.168C127.614 82.168 127.016 82.0093 126.503 81.692C125.99 81.3653 125.593 80.922 125.313 80.362C125.033 79.802 124.893 79.1673 124.893 78.458C124.893 77.7487 125.033 77.1187 125.313 76.568C125.593 76.008 125.99 75.5693 126.503 75.252C127.026 74.9347 127.628 74.776 128.309 74.776C128.888 74.776 129.392 74.8927 129.821 75.126C130.26 75.3593 130.596 75.686 130.829 76.106V71.92H132.005V82H130.941L130.843 80.838C130.694 81.0713 130.502 81.2907 130.269 81.496C130.036 81.692 129.756 81.8553 129.429 81.986C129.102 82.1073 128.724 82.168 128.295 82.168ZM128.435 81.146C128.902 81.146 129.312 81.034 129.667 80.81C130.022 80.586 130.297 80.278 130.493 79.886C130.689 79.4847 130.787 79.0133 130.787 78.472C130.787 77.94 130.689 77.4733 130.493 77.072C130.297 76.6707 130.022 76.358 129.667 76.134C129.312 75.91 128.902 75.798 128.435 75.798C127.978 75.798 127.572 75.91 127.217 76.134C126.862 76.358 126.587 76.6707 126.391 77.072C126.195 77.4733 126.097 77.94 126.097 78.472C126.097 79.0133 126.195 79.4847 126.391 79.886C126.587 80.278 126.862 80.586 127.217 80.81C127.572 81.034 127.978 81.146 128.435 81.146ZM134.076 82V74.944H135.252V82H134.076ZM134.664 73.446C134.431 73.446 134.235 73.3713 134.076 73.222C133.927 73.0633 133.852 72.8673 133.852 72.634C133.852 72.4007 133.927 72.214 134.076 72.074C134.235 71.9247 134.431 71.85 134.664 71.85C134.888 71.85 135.08 71.9247 135.238 72.074C135.397 72.214 135.476 72.4007 135.476 72.634C135.476 72.8673 135.397 73.0633 135.238 73.222C135.08 73.3713 134.888 73.446 134.664 73.446Z" fill="#EEEFF1"/>
<path d="M54.98 152V144.944H56.044L56.114 145.952C56.338 145.588 56.6367 145.303 57.01 145.098C57.3927 144.883 57.808 144.776 58.256 144.776C58.62 144.776 58.9467 144.827 59.236 144.93C59.5347 145.023 59.796 145.173 60.02 145.378C60.244 145.574 60.426 145.826 60.566 146.134C60.8087 145.705 61.14 145.373 61.56 145.14C61.9893 144.897 62.4467 144.776 62.932 144.776C63.4733 144.776 63.9447 144.888 64.346 145.112C64.7567 145.327 65.0693 145.658 65.284 146.106C65.508 146.545 65.62 147.105 65.62 147.786V152H64.458V147.912C64.458 147.203 64.3133 146.671 64.024 146.316C63.7347 145.961 63.3287 145.784 62.806 145.784C62.442 145.784 62.1153 145.882 61.826 146.078C61.5367 146.265 61.308 146.54 61.14 146.904C60.972 147.268 60.888 147.716 60.888 148.248V152H59.712V147.912C59.712 147.203 59.5673 146.671 59.278 146.316C58.9887 145.961 58.578 145.784 58.046 145.784C57.6913 145.784 57.3693 145.882 57.08 146.078C56.8 146.265 56.576 146.54 56.408 146.904C56.24 147.268 56.156 147.716 56.156 148.248V152H54.98ZM70.5988 152.168C69.9454 152.168 69.3574 152.019 68.8348 151.72C68.3121 151.412 67.9014 150.983 67.6028 150.432C67.3041 149.872 67.1548 149.223 67.1548 148.486C67.1548 147.73 67.3041 147.077 67.6028 146.526C67.9108 145.966 68.3261 145.537 68.8488 145.238C69.3808 144.93 69.9734 144.776 70.6268 144.776C71.2988 144.776 71.8914 144.93 72.4048 145.238C72.9274 145.537 73.3381 145.966 73.6368 146.526C73.9448 147.077 74.0988 147.725 74.0988 148.472C74.0988 149.219 73.9448 149.872 73.6368 150.432C73.3288 150.983 72.9134 151.412 72.3908 151.72C71.8681 152.019 71.2708 152.168 70.5988 152.168ZM70.6128 151.16C71.0141 151.16 71.3874 151.062 71.7328 150.866C72.0781 150.661 72.3581 150.357 72.5728 149.956C72.7874 149.555 72.8948 149.06 72.8948 148.472C72.8948 147.875 72.7874 147.38 72.5728 146.988C72.3674 146.587 72.0921 146.288 71.7468 146.092C71.4108 145.887 71.0374 145.784 70.6268 145.784C70.2348 145.784 69.8614 145.887 69.5068 146.092C69.1614 146.288 68.8814 146.587 68.6668 146.988C68.4614 147.38 68.3588 147.875 68.3588 148.472C68.3588 149.06 68.4614 149.555 68.6668 149.956C68.8814 150.357 69.1568 150.661 69.4928 150.866C69.8381 151.062 70.2114 151.16 70.6128 151.16ZM77.4221 152L74.7481 144.944H75.9801L78.1081 150.866L80.2501 144.944H81.4541L78.7801 152H77.4221ZM85.5135 152.168C84.8508 152.168 84.2628 152.014 83.7495 151.706C83.2455 151.398 82.8488 150.969 82.5595 150.418C82.2701 149.858 82.1255 149.209 82.1255 148.472C82.1255 147.725 82.2655 147.077 82.5455 146.526C82.8348 145.975 83.2361 145.546 83.7495 145.238C84.2721 144.93 84.8695 144.776 85.5415 144.776C86.2321 144.776 86.8155 144.93 87.2915 145.238C87.7768 145.546 88.1455 145.952 88.3975 146.456C88.6588 146.951 88.7895 147.497 88.7895 148.094C88.7895 148.187 88.7895 148.285 88.7895 148.388C88.7895 148.491 88.7848 148.607 88.7755 148.738H83.0075V147.828H87.6415C87.6135 147.184 87.3988 146.68 86.9975 146.316C86.6055 145.952 86.1108 145.77 85.5135 145.77C85.1121 145.77 84.7388 145.863 84.3935 146.05C84.0575 146.227 83.7868 146.493 83.5815 146.848C83.3761 147.193 83.2735 147.627 83.2735 148.15V148.542C83.2735 149.121 83.3761 149.606 83.5815 149.998C83.7961 150.39 84.0715 150.684 84.4075 150.88C84.7528 151.076 85.1215 151.174 85.5135 151.174C86.0081 151.174 86.4141 151.067 86.7315 150.852C87.0581 150.628 87.2915 150.329 87.4315 149.956H88.5935C88.4815 150.376 88.2855 150.754 88.0055 151.09C87.7255 151.426 87.3755 151.692 86.9555 151.888C86.5448 152.075 86.0641 152.168 85.5135 152.168ZM90.4045 153.61V152.504H97.6285V153.61H90.4045ZM102.769 152.168C102.115 152.168 101.527 152.019 101.005 151.72C100.482 151.412 100.071 150.983 99.7727 150.432C99.474 149.872 99.3247 149.223 99.3247 148.486C99.3247 147.73 99.474 147.077 99.7727 146.526C100.081 145.966 100.496 145.537 101.019 145.238C101.551 144.93 102.143 144.776 102.797 144.776C103.469 144.776 104.061 144.93 104.575 145.238C105.097 145.537 105.508 145.966 105.807 146.526C106.115 147.077 106.269 147.725 106.269 148.472C106.269 149.219 106.115 149.872 105.807 150.432C105.499 150.983 105.083 151.412 104.561 151.72C104.038 152.019 103.441 152.168 102.769 152.168ZM102.783 151.16C103.184 151.16 103.557 151.062 103.903 150.866C104.248 150.661 104.528 150.357 104.743 149.956C104.957 149.555 105.065 149.06 105.065 148.472C105.065 147.875 104.957 147.38 104.743 146.988C104.537 146.587 104.262 146.288 103.917 146.092C103.581 145.887 103.207 145.784 102.797 145.784C102.405 145.784 102.031 145.887 101.677 146.092C101.331 146.288 101.051 146.587 100.837 146.988C100.631 147.38 100.529 147.875 100.529 148.472C100.529 149.06 100.631 149.555 100.837 149.956C101.051 150.357 101.327 150.661 101.663 150.866C102.008 151.062 102.381 151.16 102.783 151.16ZM107.918 152V144.944H108.982L109.066 146.288C109.224 145.971 109.425 145.7 109.668 145.476C109.92 145.252 110.218 145.079 110.564 144.958C110.918 144.837 111.32 144.776 111.768 144.776V146.008H111.334C111.035 146.008 110.75 146.05 110.48 146.134C110.209 146.209 109.966 146.335 109.752 146.512C109.546 146.689 109.383 146.932 109.262 147.24C109.15 147.539 109.094 147.912 109.094 148.36V152H107.918ZM115.947 152.168C115.266 152.168 114.669 152.009 114.155 151.692C113.642 151.365 113.245 150.922 112.965 150.362C112.685 149.802 112.545 149.167 112.545 148.458C112.545 147.749 112.685 147.119 112.965 146.568C113.245 146.008 113.642 145.569 114.155 145.252C114.678 144.935 115.28 144.776 115.961 144.776C116.54 144.776 117.044 144.893 117.473 145.126C117.912 145.359 118.248 145.686 118.481 146.106V141.92H119.657V152H118.593L118.495 150.838C118.346 151.071 118.155 151.291 117.921 151.496C117.688 151.692 117.408 151.855 117.081 151.986C116.755 152.107 116.377 152.168 115.947 152.168ZM116.087 151.146C116.554 151.146 116.965 151.034 117.319 150.81C117.674 150.586 117.949 150.278 118.145 149.886C118.341 149.485 118.439 149.013 118.439 148.472C118.439 147.94 118.341 147.473 118.145 147.072C117.949 146.671 117.674 146.358 117.319 146.134C116.965 145.91 116.554 145.798 116.087 145.798C115.63 145.798 115.224 145.91 114.869 146.134C114.515 146.358 114.239 146.671 114.043 147.072C113.847 147.473 113.749 147.94 113.749 148.472C113.749 149.013 113.847 149.485 114.043 149.886C114.239 150.278 114.515 150.586 114.869 150.81C115.224 151.034 115.63 151.146 116.087 151.146ZM124.711 152.168C124.048 152.168 123.46 152.014 122.947 151.706C122.443 151.398 122.046 150.969 121.757 150.418C121.467 149.858 121.323 149.209 121.323 148.472C121.323 147.725 121.463 147.077 121.743 146.526C122.032 145.975 122.433 145.546 122.947 145.238C123.469 144.93 124.067 144.776 124.739 144.776C125.429 144.776 126.013 144.93 126.489 145.238C126.974 145.546 127.343 145.952 127.595 146.456C127.856 146.951 127.987 147.497 127.987 148.094C127.987 148.187 127.987 148.285 127.987 148.388C127.987 148.491 127.982 148.607 127.973 148.738H122.205V147.828H126.839C126.811 147.184 126.596 146.68 126.195 146.316C125.803 145.952 125.308 145.77 124.711 145.77C124.309 145.77 123.936 145.863 123.591 146.05C123.255 146.227 122.984 146.493 122.779 146.848C122.573 147.193 122.471 147.627 122.471 148.15V148.542C122.471 149.121 122.573 149.606 122.779 149.998C122.993 150.39 123.269 150.684 123.605 150.88C123.95 151.076 124.319 151.174 124.711 151.174C125.205 151.174 125.611 151.067 125.929 150.852C126.255 150.628 126.489 150.329 126.629 149.956H127.791C127.679 150.376 127.483 150.754 127.203 151.09C126.923 151.426 126.573 151.692 126.153 151.888C125.742 152.075 125.261 152.168 124.711 152.168ZM129.574 152V144.944H130.638L130.722 146.288C130.88 145.971 131.081 145.7 131.324 145.476C131.576 145.252 131.874 145.079 132.22 144.958C132.574 144.837 132.976 144.776 133.424 144.776V146.008H132.99C132.691 146.008 132.406 146.05 132.136 146.134C131.865 146.209 131.622 146.335 131.408 146.512C131.202 146.689 131.039 146.932 130.918 147.24C130.806 147.539 130.75 147.912 130.75 148.36V152H129.574ZM137.415 152.168C136.827 152.168 136.314 152.07 135.875 151.874C135.446 151.678 135.101 151.407 134.839 151.062C134.587 150.707 134.433 150.292 134.377 149.816H135.581C135.628 150.059 135.726 150.283 135.875 150.488C136.025 150.693 136.225 150.861 136.477 150.992C136.739 151.113 137.056 151.174 137.429 151.174C137.756 151.174 138.027 151.127 138.241 151.034C138.456 150.931 138.615 150.796 138.717 150.628C138.829 150.46 138.885 150.278 138.885 150.082C138.885 149.793 138.815 149.573 138.675 149.424C138.545 149.275 138.349 149.158 138.087 149.074C137.826 148.981 137.509 148.901 137.135 148.836C136.827 148.78 136.524 148.705 136.225 148.612C135.927 148.519 135.661 148.397 135.427 148.248C135.194 148.089 135.007 147.898 134.867 147.674C134.737 147.45 134.671 147.175 134.671 146.848C134.671 146.447 134.774 146.092 134.979 145.784C135.185 145.467 135.479 145.219 135.861 145.042C136.253 144.865 136.706 144.776 137.219 144.776C137.975 144.776 138.587 144.958 139.053 145.322C139.52 145.686 139.795 146.213 139.879 146.904H138.717C138.671 146.549 138.517 146.274 138.255 146.078C138.003 145.873 137.653 145.77 137.205 145.77C136.767 145.77 136.431 145.859 136.197 146.036C135.973 146.213 135.861 146.447 135.861 146.736C135.861 146.923 135.922 147.091 136.043 147.24C136.174 147.38 136.361 147.501 136.603 147.604C136.855 147.707 137.163 147.791 137.527 147.856C137.994 147.94 138.419 148.052 138.801 148.192C139.184 148.332 139.492 148.542 139.725 148.822C139.968 149.093 140.089 149.48 140.089 149.984C140.089 150.423 139.977 150.805 139.753 151.132C139.539 151.459 139.231 151.715 138.829 151.902C138.428 152.079 137.957 152.168 137.415 152.168Z" fill="#EEEFF1"/>
<path d="M58.766 190.248C58.1313 190.248 57.5667 190.164 57.072 189.996C56.5867 189.837 56.2087 189.59 55.938 189.254C55.6673 188.918 55.532 188.503 55.532 188.008C55.532 187.793 55.574 187.565 55.658 187.322C55.7513 187.079 55.9053 186.841 56.12 186.608C56.344 186.375 56.6567 186.165 57.058 185.978L57.87 186.454C57.3753 186.659 57.0533 186.893 56.904 187.154C56.7547 187.425 56.68 187.672 56.68 187.896C56.68 188.204 56.7687 188.461 56.946 188.666C57.1233 188.871 57.3707 189.025 57.688 189.128C58.0053 189.231 58.3647 189.282 58.766 189.282C59.1673 189.282 59.5127 189.226 59.802 189.114C60.0913 189.002 60.3153 188.843 60.474 188.638C60.6327 188.433 60.712 188.19 60.712 187.91C60.712 187.583 60.5907 187.308 60.348 187.084C60.1053 186.869 59.6433 186.743 58.962 186.706C58.4113 186.669 57.9493 186.617 57.576 186.552C57.2027 186.487 56.8947 186.412 56.652 186.328C56.4093 186.235 56.204 186.132 56.036 186.02C55.8773 185.908 55.7327 185.791 55.602 185.67V185.348L56.96 184.004L57.982 184.368L56.582 185.628L56.764 185.138C56.8667 185.213 56.9647 185.283 57.058 185.348C57.1513 185.413 57.2773 185.469 57.436 185.516C57.5947 185.563 57.814 185.605 58.094 185.642C58.3833 185.679 58.7613 185.717 59.228 185.754C59.872 185.801 60.3853 185.913 60.768 186.09C61.16 186.267 61.44 186.505 61.608 186.804C61.7853 187.103 61.874 187.457 61.874 187.868C61.874 188.269 61.762 188.647 61.538 189.002C61.3233 189.366 60.9873 189.665 60.53 189.898C60.0727 190.131 59.4847 190.248 58.766 190.248ZM58.752 184.788C58.164 184.788 57.66 184.676 57.24 184.452C56.8293 184.228 56.5167 183.929 56.302 183.556C56.0873 183.173 55.98 182.749 55.98 182.282C55.98 181.815 56.0873 181.395 56.302 181.022C56.526 180.649 56.8433 180.35 57.254 180.126C57.6647 179.893 58.164 179.776 58.752 179.776C59.34 179.776 59.8393 179.893 60.25 180.126C60.6607 180.35 60.9733 180.649 61.188 181.022C61.4027 181.395 61.51 181.815 61.51 182.282C61.51 182.749 61.4027 183.173 61.188 183.556C60.9733 183.929 60.6607 184.228 60.25 184.452C59.8393 184.676 59.34 184.788 58.752 184.788ZM58.752 183.822C59.256 183.822 59.6527 183.691 59.942 183.43C60.2313 183.169 60.376 182.786 60.376 182.282C60.376 181.787 60.2313 181.409 59.942 181.148C59.6527 180.887 59.256 180.756 58.752 180.756C58.2573 180.756 57.856 180.887 57.548 181.148C57.2493 181.409 57.1 181.787 57.1 182.282C57.1 182.786 57.2493 183.169 57.548 183.43C57.8467 183.691 58.248 183.822 58.752 183.822ZM59.9 180.938L59.55 179.944H62.434V180.826L59.9 180.938ZM66.6072 187.168C65.9445 187.168 65.3565 187.014 64.8432 186.706C64.3392 186.398 63.9425 185.969 63.6532 185.418C63.3639 184.858 63.2192 184.209 63.2192 183.472C63.2192 182.725 63.3592 182.077 63.6392 181.526C63.9285 180.975 64.3299 180.546 64.8432 180.238C65.3659 179.93 65.9632 179.776 66.6352 179.776C67.3259 179.776 67.9092 179.93 68.3852 180.238C68.8705 180.546 69.2392 180.952 69.4912 181.456C69.7525 181.951 69.8832 182.497 69.8832 183.094C69.8832 183.187 69.8832 183.285 69.8832 183.388C69.8832 183.491 69.8785 183.607 69.8692 183.738H64.1012V182.828H68.7352C68.7072 182.184 68.4925 181.68 68.0912 181.316C67.6992 180.952 67.2045 180.77 66.6072 180.77C66.2059 180.77 65.8325 180.863 65.4872 181.05C65.1512 181.227 64.8805 181.493 64.6752 181.848C64.4699 182.193 64.3672 182.627 64.3672 183.15V183.542C64.3672 184.121 64.4699 184.606 64.6752 184.998C64.8899 185.39 65.1652 185.684 65.5012 185.88C65.8465 186.076 66.2152 186.174 66.6072 186.174C67.1019 186.174 67.5079 186.067 67.8252 185.852C68.1519 185.628 68.3852 185.329 68.5252 184.956H69.6872C69.5752 185.376 69.3792 185.754 69.0992 186.09C68.8192 186.426 68.4692 186.692 68.0492 186.888C67.6385 187.075 67.1579 187.168 66.6072 187.168ZM71.4702 187V179.944H72.5342L72.5902 181.176C72.8142 180.737 73.1316 180.397 73.5422 180.154C73.9622 179.902 74.4382 179.776 74.9702 179.776C75.5209 179.776 75.9969 179.888 76.3982 180.112C76.7996 180.327 77.1122 180.658 77.3362 181.106C77.5602 181.545 77.6722 182.105 77.6722 182.786V187H76.4962V182.912C76.4962 182.203 76.3376 181.671 76.0202 181.316C75.7122 180.961 75.2736 180.784 74.7042 180.784C74.3122 180.784 73.9622 180.882 73.6542 181.078C73.3462 181.265 73.0989 181.54 72.9122 181.904C72.7349 182.259 72.6462 182.702 72.6462 183.234V187H71.4702ZM82.6033 187.168C81.9406 187.168 81.3526 187.014 80.8393 186.706C80.3353 186.398 79.9386 185.969 79.6493 185.418C79.36 184.858 79.2153 184.209 79.2153 183.472C79.2153 182.725 79.3553 182.077 79.6353 181.526C79.9246 180.975 80.326 180.546 80.8393 180.238C81.362 179.93 81.9593 179.776 82.6313 179.776C83.322 179.776 83.9053 179.93 84.3813 180.238C84.8666 180.546 85.2353 180.952 85.4873 181.456C85.7486 181.951 85.8793 182.497 85.8793 183.094C85.8793 183.187 85.8793 183.285 85.8793 183.388C85.8793 183.491 85.8746 183.607 85.8653 183.738H80.0973V182.828H84.7313C84.7033 182.184 84.4886 181.68 84.0873 181.316C83.6953 180.952 83.2006 180.77 82.6033 180.77C82.202 180.77 81.8286 180.863 81.4833 181.05C81.1473 181.227 80.8766 181.493 80.6713 181.848C80.466 182.193 80.3633 182.627 80.3633 183.15V183.542C80.3633 184.121 80.466 184.606 80.6713 184.998C80.886 185.39 81.1613 185.684 81.4973 185.88C81.8426 186.076 82.2113 186.174 82.6033 186.174C83.098 186.174 83.504 186.067 83.8213 185.852C84.148 185.628 84.3813 185.329 84.5213 184.956H85.6833C85.5713 185.376 85.3753 185.754 85.0953 186.09C84.8153 186.426 84.4653 186.692 84.0453 186.888C83.6346 187.075 83.154 187.168 82.6033 187.168ZM87.4663 187V179.944H88.5303L88.6143 181.288C88.773 180.971 88.9737 180.7 89.2163 180.476C89.4683 180.252 89.767 180.079 90.1123 179.958C90.467 179.837 90.8683 179.776 91.3163 179.776V181.008H90.8823C90.5837 181.008 90.299 181.05 90.0283 181.134C89.7577 181.209 89.515 181.335 89.3003 181.512C89.095 181.689 88.9317 181.932 88.8103 182.24C88.6983 182.539 88.6423 182.912 88.6423 183.36V187H87.4663ZM94.944 187.168C94.3746 187.168 93.8986 187.07 93.516 186.874C93.1333 186.669 92.8486 186.403 92.662 186.076C92.4753 185.74 92.382 185.376 92.382 184.984C92.382 184.508 92.5033 184.107 92.746 183.78C92.998 183.444 93.348 183.192 93.796 183.024C94.2533 182.847 94.79 182.758 95.406 182.758H97.268C97.268 182.319 97.198 181.955 97.058 181.666C96.9273 181.367 96.7313 181.143 96.47 180.994C96.218 180.845 95.9006 180.77 95.518 180.77C95.07 180.77 94.6826 180.882 94.356 181.106C94.0293 181.33 93.8286 181.661 93.754 182.1H92.55C92.606 181.596 92.774 181.176 93.054 180.84C93.3433 180.495 93.7073 180.233 94.146 180.056C94.5846 179.869 95.042 179.776 95.518 179.776C96.1713 179.776 96.7126 179.897 97.142 180.14C97.5806 180.373 97.9073 180.705 98.122 181.134C98.3366 181.554 98.444 182.053 98.444 182.632V187H97.394L97.324 185.754C97.2306 185.95 97.1093 186.137 96.96 186.314C96.82 186.482 96.652 186.631 96.456 186.762C96.26 186.883 96.036 186.981 95.784 187.056C95.5413 187.131 95.2613 187.168 94.944 187.168ZM95.126 186.174C95.4526 186.174 95.7466 186.109 96.008 185.978C96.2786 185.838 96.5073 185.651 96.694 185.418C96.8806 185.175 97.0206 184.909 97.114 184.62C97.2166 184.331 97.268 184.027 97.268 183.71V183.668H95.504C95.0466 183.668 94.678 183.724 94.398 183.836C94.118 183.939 93.9173 184.088 93.796 184.284C93.6746 184.471 93.614 184.685 93.614 184.928C93.614 185.18 93.67 185.399 93.782 185.586C93.9033 185.773 94.076 185.917 94.3 186.02C94.5333 186.123 94.8086 186.174 95.126 186.174ZM102.844 187C102.424 187 102.06 186.935 101.752 186.804C101.444 186.673 101.206 186.454 101.038 186.146C100.879 185.829 100.8 185.404 100.8 184.872V180.938H99.5678V179.944H100.8L100.954 178.236H101.976V179.944H104.02V180.938H101.976V184.872C101.976 185.311 102.064 185.609 102.242 185.768C102.419 185.917 102.732 185.992 103.18 185.992H103.936V187H102.844ZM108.457 187.168C107.794 187.168 107.206 187.014 106.693 186.706C106.189 186.398 105.792 185.969 105.503 185.418C105.213 184.858 105.069 184.209 105.069 183.472C105.069 182.725 105.209 182.077 105.489 181.526C105.778 180.975 106.179 180.546 106.693 180.238C107.215 179.93 107.813 179.776 108.485 179.776C109.175 179.776 109.759 179.93 110.235 180.238C110.72 180.546 111.089 180.952 111.341 181.456C111.602 181.951 111.733 182.497 111.733 183.094C111.733 183.187 111.733 183.285 111.733 183.388C111.733 183.491 111.728 183.607 111.719 183.738H105.951V182.828H110.585C110.557 182.184 110.342 181.68 109.941 181.316C109.549 180.952 109.054 180.77 108.457 180.77C108.055 180.77 107.682 180.863 107.337 181.05C107.001 181.227 106.73 181.493 106.525 181.848C106.319 182.193 106.217 182.627 106.217 183.15V183.542C106.217 184.121 106.319 184.606 106.525 184.998C106.739 185.39 107.015 185.684 107.351 185.88C107.696 186.076 108.065 186.174 108.457 186.174C108.951 186.174 109.357 186.067 109.675 185.852C110.001 185.628 110.235 185.329 110.375 184.956H111.537C111.425 185.376 111.229 185.754 110.949 186.09C110.669 186.426 110.319 186.692 109.899 186.888C109.488 187.075 109.007 187.168 108.457 187.168ZM113.348 188.61V187.504H120.572V188.61H113.348ZM122.674 187V179.944H123.85V187H122.674ZM123.262 178.446C123.029 178.446 122.833 178.371 122.674 178.222C122.525 178.063 122.45 177.867 122.45 177.634C122.45 177.401 122.525 177.214 122.674 177.074C122.833 176.925 123.029 176.85 123.262 176.85C123.486 176.85 123.677 176.925 123.836 177.074C123.995 177.214 124.074 177.401 124.074 177.634C124.074 177.867 123.995 178.063 123.836 178.222C123.677 178.371 123.486 178.446 123.262 178.446ZM125.925 187V179.944H126.989L127.045 181.176C127.269 180.737 127.587 180.397 127.997 180.154C128.417 179.902 128.893 179.776 129.425 179.776C129.976 179.776 130.452 179.888 130.853 180.112C131.255 180.327 131.567 180.658 131.791 181.106C132.015 181.545 132.127 182.105 132.127 182.786V187H130.951V182.912C130.951 182.203 130.793 181.671 130.475 181.316C130.167 180.961 129.729 180.784 129.159 180.784C128.767 180.784 128.417 180.882 128.109 181.078C127.801 181.265 127.554 181.54 127.367 181.904C127.19 182.259 127.101 182.702 127.101 183.234V187H125.925ZM135.858 187L133.184 179.944H134.416L136.544 185.866L138.686 179.944H139.89L137.216 187H135.858ZM144.005 187.168C143.352 187.168 142.764 187.019 142.241 186.72C141.718 186.412 141.308 185.983 141.009 185.432C140.71 184.872 140.561 184.223 140.561 183.486C140.561 182.73 140.71 182.077 141.009 181.526C141.317 180.966 141.732 180.537 142.255 180.238C142.787 179.93 143.38 179.776 144.033 179.776C144.705 179.776 145.298 179.93 145.811 180.238C146.334 180.537 146.744 180.966 147.043 181.526C147.351 182.077 147.505 182.725 147.505 183.472C147.505 184.219 147.351 184.872 147.043 185.432C146.735 185.983 146.32 186.412 145.797 186.72C145.274 187.019 144.677 187.168 144.005 187.168ZM144.019 186.16C144.42 186.16 144.794 186.062 145.139 185.866C145.484 185.661 145.764 185.357 145.979 184.956C146.194 184.555 146.301 184.06 146.301 183.472C146.301 182.875 146.194 182.38 145.979 181.988C145.774 181.587 145.498 181.288 145.153 181.092C144.817 180.887 144.444 180.784 144.033 180.784C143.641 180.784 143.268 180.887 142.913 181.092C142.568 181.288 142.288 181.587 142.073 181.988C141.868 182.38 141.765 182.875 141.765 183.472C141.765 184.06 141.868 184.555 142.073 184.956C142.288 185.357 142.563 185.661 142.899 185.866C143.244 186.062 143.618 186.16 144.019 186.16ZM149.266 187V179.944H150.442V187H149.266ZM149.854 178.446C149.62 178.446 149.424 178.371 149.266 178.222C149.116 178.063 149.042 177.867 149.042 177.634C149.042 177.401 149.116 177.214 149.266 177.074C149.424 176.925 149.62 176.85 149.854 176.85C150.078 176.85 150.269 176.925 150.428 177.074C150.586 177.214 150.666 177.401 150.666 177.634C150.666 177.867 150.586 178.063 150.428 178.222C150.269 178.371 150.078 178.446 149.854 178.446ZM155.695 187.168C155.032 187.168 154.435 187.014 153.903 186.706C153.38 186.398 152.97 185.969 152.671 185.418C152.372 184.858 152.223 184.214 152.223 183.486C152.223 182.739 152.372 182.091 152.671 181.54C152.97 180.989 153.38 180.56 153.903 180.252C154.435 179.935 155.032 179.776 155.695 179.776C156.535 179.776 157.235 179.995 157.795 180.434C158.355 180.863 158.71 181.442 158.859 182.17H157.655C157.562 181.731 157.333 181.391 156.969 181.148C156.605 180.905 156.176 180.784 155.681 180.784C155.28 180.784 154.906 180.887 154.561 181.092C154.216 181.288 153.94 181.587 153.735 181.988C153.53 182.389 153.427 182.884 153.427 183.472C153.427 183.911 153.488 184.303 153.609 184.648C153.73 184.984 153.894 185.264 154.099 185.488C154.304 185.712 154.542 185.885 154.813 186.006C155.093 186.118 155.382 186.174 155.681 186.174C156.017 186.174 156.32 186.123 156.591 186.02C156.862 185.908 157.09 185.745 157.277 185.53C157.464 185.315 157.59 185.063 157.655 184.774H158.859C158.71 185.483 158.35 186.062 157.781 186.51C157.221 186.949 156.526 187.168 155.695 187.168ZM163.623 187.168C162.96 187.168 162.372 187.014 161.859 186.706C161.355 186.398 160.958 185.969 160.669 185.418C160.379 184.858 160.235 184.209 160.235 183.472C160.235 182.725 160.375 182.077 160.655 181.526C160.944 180.975 161.345 180.546 161.859 180.238C162.381 179.93 162.979 179.776 163.651 179.776C164.341 179.776 164.925 179.93 165.401 180.238C165.886 180.546 166.255 180.952 166.507 181.456C166.768 181.951 166.899 182.497 166.899 183.094C166.899 183.187 166.899 183.285 166.899 183.388C166.899 183.491 166.894 183.607 166.885 183.738H161.117V182.828H165.751C165.723 182.184 165.508 181.68 165.107 181.316C164.715 180.952 164.22 180.77 163.623 180.77C163.221 180.77 162.848 180.863 162.503 181.05C162.167 181.227 161.896 181.493 161.691 181.848C161.485 182.193 161.383 182.627 161.383 183.15V183.542C161.383 184.121 161.485 184.606 161.691 184.998C161.905 185.39 162.181 185.684 162.517 185.88C162.862 186.076 163.231 186.174 163.623 186.174C164.117 186.174 164.523 186.067 164.841 185.852C165.167 185.628 165.401 185.329 165.541 184.956H166.703C166.591 185.376 166.395 185.754 166.115 186.09C165.835 186.426 165.485 186.692 165.065 186.888C164.654 187.075 164.173 187.168 163.623 187.168ZM171.146 187.168C170.558 187.168 170.045 187.07 169.606 186.874C169.177 186.678 168.831 186.407 168.57 186.062C168.318 185.707 168.164 185.292 168.108 184.816H169.312C169.359 185.059 169.457 185.283 169.606 185.488C169.755 185.693 169.956 185.861 170.208 185.992C170.469 186.113 170.787 186.174 171.16 186.174C171.487 186.174 171.757 186.127 171.972 186.034C172.187 185.931 172.345 185.796 172.448 185.628C172.56 185.46 172.616 185.278 172.616 185.082C172.616 184.793 172.546 184.573 172.406 184.424C172.275 184.275 172.079 184.158 171.818 184.074C171.557 183.981 171.239 183.901 170.866 183.836C170.558 183.78 170.255 183.705 169.956 183.612C169.657 183.519 169.391 183.397 169.158 183.248C168.925 183.089 168.738 182.898 168.598 182.674C168.467 182.45 168.402 182.175 168.402 181.848C168.402 181.447 168.505 181.092 168.71 180.784C168.915 180.467 169.209 180.219 169.592 180.042C169.984 179.865 170.437 179.776 170.95 179.776C171.706 179.776 172.317 179.958 172.784 180.322C173.251 180.686 173.526 181.213 173.61 181.904H172.448C172.401 181.549 172.247 181.274 171.986 181.078C171.734 180.873 171.384 180.77 170.936 180.77C170.497 180.77 170.161 180.859 169.928 181.036C169.704 181.213 169.592 181.447 169.592 181.736C169.592 181.923 169.653 182.091 169.774 182.24C169.905 182.38 170.091 182.501 170.334 182.604C170.586 182.707 170.894 182.791 171.258 182.856C171.725 182.94 172.149 183.052 172.532 183.192C172.915 183.332 173.223 183.542 173.456 183.822C173.699 184.093 173.82 184.48 173.82 184.984C173.82 185.423 173.708 185.805 173.484 186.132C173.269 186.459 172.961 186.715 172.56 186.902C172.159 187.079 171.687 187.168 171.146 187.168Z" fill="#EEEFF1"/>
<path d="M303.05 82V72.2H306.242C307.017 72.2 307.651 72.3307 308.146 72.592C308.65 72.844 309.019 73.1847 309.252 73.614C309.495 74.0433 309.616 74.5333 309.616 75.084C309.616 75.616 309.495 76.1013 309.252 76.54C309.019 76.9693 308.655 77.3147 308.16 77.576C307.665 77.8373 307.026 77.968 306.242 77.968H304.226V82H303.05ZM304.226 76.974H306.228C307.012 76.974 307.572 76.8013 307.908 76.456C308.244 76.1107 308.412 75.6533 308.412 75.084C308.412 74.4773 308.244 74.0107 307.908 73.684C307.572 73.348 307.012 73.18 306.228 73.18H304.226V76.974ZM311.871 85.08L313.593 81.216H313.187L310.415 74.944H311.689L313.985 80.334L316.393 74.944H317.611L313.103 85.08H311.871ZM321.652 82C321.232 82 320.868 81.9347 320.56 81.804C320.252 81.6733 320.014 81.454 319.846 81.146C319.688 80.8287 319.608 80.404 319.608 79.872V75.938H318.376V74.944H319.608L319.762 73.236H320.784V74.944H322.828V75.938H320.784V79.872C320.784 80.3107 320.873 80.6093 321.05 80.768C321.228 80.9173 321.54 80.992 321.988 80.992H322.744V82H321.652ZM324.363 82V71.92H325.539V76.134C325.772 75.714 326.099 75.3827 326.519 75.14C326.948 74.8973 327.415 74.776 327.919 74.776C328.46 74.776 328.931 74.888 329.333 75.112C329.734 75.3267 330.042 75.658 330.257 76.106C330.471 76.554 330.579 77.1187 330.579 77.8V82H329.417V77.926C329.417 77.2167 329.267 76.6847 328.969 76.33C328.67 75.966 328.236 75.784 327.667 75.784C327.265 75.784 326.901 75.882 326.575 76.078C326.257 76.274 326.005 76.554 325.819 76.918C325.632 77.282 325.539 77.73 325.539 78.262V82H324.363ZM335.566 82.168C334.912 82.168 334.324 82.0187 333.802 81.72C333.279 81.412 332.868 80.9827 332.57 80.432C332.271 79.872 332.122 79.2233 332.122 78.486C332.122 77.73 332.271 77.0767 332.57 76.526C332.878 75.966 333.293 75.5367 333.816 75.238C334.348 74.93 334.94 74.776 335.594 74.776C336.266 74.776 336.858 74.93 337.372 75.238C337.894 75.5367 338.305 75.966 338.604 76.526C338.912 77.0767 339.066 77.7253 339.066 78.472C339.066 79.2187 338.912 79.872 338.604 80.432C338.296 80.9827 337.88 81.412 337.358 81.72C336.835 82.0187 336.238 82.168 335.566 82.168ZM335.58 81.16C335.981 81.16 336.354 81.062 336.7 80.866C337.045 80.6607 337.325 80.3573 337.54 79.956C337.754 79.5547 337.862 79.06 337.862 78.472C337.862 77.8747 337.754 77.38 337.54 76.988C337.334 76.5867 337.059 76.288 336.714 76.092C336.378 75.8867 336.004 75.784 335.594 75.784C335.202 75.784 334.828 75.8867 334.474 76.092C334.128 76.288 333.848 76.5867 333.634 76.988C333.428 77.38 333.326 77.8747 333.326 78.472C333.326 79.06 333.428 79.5547 333.634 79.956C333.848 80.3573 334.124 80.6607 334.46 80.866C334.805 81.062 335.178 81.16 335.58 81.16ZM340.714 82V74.944H341.778L341.834 76.176C342.058 75.7373 342.376 75.3967 342.786 75.154C343.206 74.902 343.682 74.776 344.214 74.776C344.765 74.776 345.241 74.888 345.642 75.112C346.044 75.3267 346.356 75.658 346.58 76.106C346.804 76.5447 346.916 77.1047 346.916 77.786V82H345.74V77.912C345.74 77.2027 345.582 76.6707 345.264 76.316C344.956 75.9613 344.518 75.784 343.948 75.784C343.556 75.784 343.206 75.882 342.898 76.078C342.59 76.2647 342.343 76.54 342.156 76.904C341.979 77.2587 341.89 77.702 341.89 78.234V82H340.714Z" fill="#ACADAE"/>
<path d="M314.234 152.168C313.646 152.168 313.137 152.056 312.708 151.832C312.288 151.608 311.961 151.286 311.728 150.866C311.504 150.446 311.392 149.947 311.392 149.368H312.582C312.582 149.695 312.633 149.993 312.736 150.264C312.848 150.525 313.021 150.735 313.254 150.894C313.497 151.043 313.819 151.118 314.22 151.118C314.612 151.118 314.92 151.043 315.144 150.894C315.377 150.745 315.541 150.544 315.634 150.292C315.737 150.031 315.788 149.737 315.788 149.41V142.2H316.964V149.41C316.964 150.287 316.721 150.969 316.236 151.454C315.76 151.93 315.093 152.168 314.234 152.168ZM321.29 152.168C320.72 152.168 320.244 152.07 319.862 151.874C319.479 151.669 319.194 151.403 319.008 151.076C318.821 150.74 318.728 150.376 318.728 149.984C318.728 149.508 318.849 149.107 319.092 148.78C319.344 148.444 319.694 148.192 320.142 148.024C320.599 147.847 321.136 147.758 321.752 147.758H323.614C323.614 147.319 323.544 146.955 323.404 146.666C323.273 146.367 323.077 146.143 322.816 145.994C322.564 145.845 322.246 145.77 321.864 145.77C321.416 145.77 321.028 145.882 320.702 146.106C320.375 146.33 320.174 146.661 320.1 147.1H318.896C318.952 146.596 319.12 146.176 319.4 145.84C319.689 145.495 320.053 145.233 320.492 145.056C320.93 144.869 321.388 144.776 321.864 144.776C322.517 144.776 323.058 144.897 323.488 145.14C323.926 145.373 324.253 145.705 324.468 146.134C324.682 146.554 324.79 147.053 324.79 147.632V152H323.74L323.67 150.754C323.576 150.95 323.455 151.137 323.306 151.314C323.166 151.482 322.998 151.631 322.802 151.762C322.606 151.883 322.382 151.981 322.13 152.056C321.887 152.131 321.607 152.168 321.29 152.168ZM321.472 151.174C321.798 151.174 322.092 151.109 322.354 150.978C322.624 150.838 322.853 150.651 323.04 150.418C323.226 150.175 323.366 149.909 323.46 149.62C323.562 149.331 323.614 149.027 323.614 148.71V148.668H321.85C321.392 148.668 321.024 148.724 320.744 148.836C320.464 148.939 320.263 149.088 320.142 149.284C320.02 149.471 319.96 149.685 319.96 149.928C319.96 150.18 320.016 150.399 320.128 150.586C320.249 150.773 320.422 150.917 320.646 151.02C320.879 151.123 321.154 151.174 321.472 151.174ZM328.379 152L325.705 144.944H326.937L329.065 150.866L331.207 144.944H332.411L329.737 152H328.379ZM335.672 152.168C335.103 152.168 334.627 152.07 334.244 151.874C333.862 151.669 333.577 151.403 333.39 151.076C333.204 150.74 333.11 150.376 333.11 149.984C333.11 149.508 333.232 149.107 333.474 148.78C333.726 148.444 334.076 148.192 334.524 148.024C334.982 147.847 335.518 147.758 336.134 147.758H337.996C337.996 147.319 337.926 146.955 337.786 146.666C337.656 146.367 337.46 146.143 337.198 145.994C336.946 145.845 336.629 145.77 336.246 145.77C335.798 145.77 335.411 145.882 335.084 146.106C334.758 146.33 334.557 146.661 334.482 147.1H333.278C333.334 146.596 333.502 146.176 333.782 145.84C334.072 145.495 334.436 145.233 334.874 145.056C335.313 144.869 335.77 144.776 336.246 144.776C336.9 144.776 337.441 144.897 337.87 145.14C338.309 145.373 338.636 145.705 338.85 146.134C339.065 146.554 339.172 147.053 339.172 147.632V152H338.122L338.052 150.754C337.959 150.95 337.838 151.137 337.688 151.314C337.548 151.482 337.38 151.631 337.184 151.762C336.988 151.883 336.764 151.981 336.512 152.056C336.27 152.131 335.99 152.168 335.672 152.168ZM335.854 151.174C336.181 151.174 336.475 151.109 336.736 150.978C337.007 150.838 337.236 150.651 337.422 150.418C337.609 150.175 337.749 149.909 337.842 149.62C337.945 149.331 337.996 149.027 337.996 148.71V148.668H336.232C335.775 148.668 335.406 148.724 335.126 148.836C334.846 148.939 334.646 149.088 334.524 149.284C334.403 149.471 334.342 149.685 334.342 149.928C334.342 150.18 334.398 150.399 334.51 150.586C334.632 150.773 334.804 150.917 335.028 151.02C335.262 151.123 335.537 151.174 335.854 151.174Z" fill="#ACADAE"/>
<path d="M313.05 187V177.2H316.214C316.979 177.2 317.605 177.331 318.09 177.592C318.575 177.844 318.935 178.185 319.168 178.614C319.401 179.043 319.518 179.529 319.518 180.07C319.518 180.593 319.397 181.073 319.154 181.512C318.921 181.951 318.557 182.301 318.062 182.562C317.567 182.823 316.933 182.954 316.158 182.954H314.226V187H313.05ZM318.23 187L316.074 182.618H317.39L319.616 187H318.23ZM314.226 182.03H316.13C316.877 182.03 317.423 181.848 317.768 181.484C318.123 181.12 318.3 180.653 318.3 180.084C318.3 179.505 318.127 179.048 317.782 178.712C317.446 178.367 316.891 178.194 316.116 178.194H314.226V182.03ZM323.855 187.168C323.313 187.168 322.837 187.061 322.427 186.846C322.025 186.631 321.713 186.3 321.489 185.852C321.274 185.404 321.167 184.844 321.167 184.172V179.944H322.343V184.046C322.343 184.746 322.497 185.273 322.805 185.628C323.113 185.983 323.547 186.16 324.107 186.16C324.499 186.16 324.853 186.067 325.171 185.88C325.488 185.684 325.735 185.409 325.913 185.054C326.099 184.69 326.193 184.247 326.193 183.724V179.944H327.369V187H326.305L326.235 185.768C326.02 186.207 325.703 186.552 325.283 186.804C324.863 187.047 324.387 187.168 323.855 187.168ZM331.978 187.168C331.39 187.168 330.877 187.07 330.438 186.874C330.009 186.678 329.663 186.407 329.402 186.062C329.15 185.707 328.996 185.292 328.94 184.816H330.144C330.191 185.059 330.289 185.283 330.438 185.488C330.587 185.693 330.788 185.861 331.04 185.992C331.301 186.113 331.619 186.174 331.992 186.174C332.319 186.174 332.589 186.127 332.804 186.034C333.019 185.931 333.177 185.796 333.28 185.628C333.392 185.46 333.448 185.278 333.448 185.082C333.448 184.793 333.378 184.573 333.238 184.424C333.107 184.275 332.911 184.158 332.65 184.074C332.389 183.981 332.071 183.901 331.698 183.836C331.39 183.78 331.087 183.705 330.788 183.612C330.489 183.519 330.223 183.397 329.99 183.248C329.757 183.089 329.57 182.898 329.43 182.674C329.299 182.45 329.234 182.175 329.234 181.848C329.234 181.447 329.337 181.092 329.542 180.784C329.747 180.467 330.041 180.219 330.424 180.042C330.816 179.865 331.269 179.776 331.782 179.776C332.538 179.776 333.149 179.958 333.616 180.322C334.083 180.686 334.358 181.213 334.442 181.904H333.28C333.233 181.549 333.079 181.274 332.818 181.078C332.566 180.873 332.216 180.77 331.768 180.77C331.329 180.77 330.993 180.859 330.76 181.036C330.536 181.213 330.424 181.447 330.424 181.736C330.424 181.923 330.485 182.091 330.606 182.24C330.737 182.38 330.923 182.501 331.166 182.604C331.418 182.707 331.726 182.791 332.09 182.856C332.557 182.94 332.981 183.052 333.364 183.192C333.747 183.332 334.055 183.542 334.288 183.822C334.531 184.093 334.652 184.48 334.652 184.984C334.652 185.423 334.54 185.805 334.316 186.132C334.101 186.459 333.793 186.715 333.392 186.902C332.991 187.079 332.519 187.168 331.978 187.168ZM338.803 187C338.383 187 338.019 186.935 337.711 186.804C337.403 186.673 337.165 186.454 336.997 186.146C336.838 185.829 336.759 185.404 336.759 184.872V180.938H335.527V179.944H336.759L336.913 178.236H337.935V179.944H339.979V180.938H337.935V184.872C337.935 185.311 338.023 185.609 338.201 185.768C338.378 185.917 338.691 185.992 339.139 185.992H339.895V187H338.803Z" fill="#ACADAE"/>
<path d="M44.5 94.5H388.5V129.5H44.5V94.5Z" fill="#1D1F22" stroke="#86888E"/>
<path d="M301.05 117V107.2H302.226L307.448 115.054V107.2H308.624V117H307.448L302.226 109.146V117H301.05ZM313.81 117.168C313.156 117.168 312.568 117.019 312.046 116.72C311.523 116.412 311.112 115.983 310.814 115.432C310.515 114.872 310.366 114.223 310.366 113.486C310.366 112.73 310.515 112.077 310.814 111.526C311.122 110.966 311.537 110.537 312.06 110.238C312.592 109.93 313.184 109.776 313.838 109.776C314.51 109.776 315.102 109.93 315.616 110.238C316.138 110.537 316.549 110.966 316.848 111.526C317.156 112.077 317.31 112.725 317.31 113.472C317.31 114.219 317.156 114.872 316.848 115.432C316.54 115.983 316.124 116.412 315.602 116.72C315.079 117.019 314.482 117.168 313.81 117.168ZM313.824 116.16C314.225 116.16 314.598 116.062 314.944 115.866C315.289 115.661 315.569 115.357 315.784 114.956C315.998 114.555 316.106 114.06 316.106 113.472C316.106 112.875 315.998 112.38 315.784 111.988C315.578 111.587 315.303 111.288 314.958 111.092C314.622 110.887 314.248 110.784 313.838 110.784C313.446 110.784 313.072 110.887 312.718 111.092C312.372 111.288 312.092 111.587 311.878 111.988C311.672 112.38 311.57 112.875 311.57 113.472C311.57 114.06 311.672 114.555 311.878 114.956C312.092 115.357 312.368 115.661 312.704 115.866C313.049 116.062 313.422 116.16 313.824 116.16ZM322.067 117.168C321.385 117.168 320.788 117.009 320.275 116.692C319.761 116.365 319.365 115.922 319.085 115.362C318.805 114.802 318.665 114.167 318.665 113.458C318.665 112.749 318.805 112.119 319.085 111.568C319.365 111.008 319.761 110.569 320.275 110.252C320.797 109.935 321.399 109.776 322.081 109.776C322.659 109.776 323.163 109.893 323.593 110.126C324.031 110.359 324.367 110.686 324.601 111.106V106.92H325.777V117H324.713L324.615 115.838C324.465 116.071 324.274 116.291 324.041 116.496C323.807 116.692 323.527 116.855 323.201 116.986C322.874 117.107 322.496 117.168 322.067 117.168ZM322.207 116.146C322.673 116.146 323.084 116.034 323.439 115.81C323.793 115.586 324.069 115.278 324.265 114.886C324.461 114.485 324.559 114.013 324.559 113.472C324.559 112.94 324.461 112.473 324.265 112.072C324.069 111.671 323.793 111.358 323.439 111.134C323.084 110.91 322.673 110.798 322.207 110.798C321.749 110.798 321.343 110.91 320.989 111.134C320.634 111.358 320.359 111.671 320.163 112.072C319.967 112.473 319.869 112.94 319.869 113.472C319.869 114.013 319.967 114.485 320.163 114.886C320.359 115.278 320.634 115.586 320.989 115.81C321.343 116.034 321.749 116.146 322.207 116.146ZM330.83 117.168C330.167 117.168 329.579 117.014 329.066 116.706C328.562 116.398 328.165 115.969 327.876 115.418C327.587 114.858 327.442 114.209 327.442 113.472C327.442 112.725 327.582 112.077 327.862 111.526C328.151 110.975 328.553 110.546 329.066 110.238C329.589 109.93 330.186 109.776 330.858 109.776C331.549 109.776 332.132 109.93 332.608 110.238C333.093 110.546 333.462 110.952 333.714 111.456C333.975 111.951 334.106 112.497 334.106 113.094C334.106 113.187 334.106 113.285 334.106 113.388C334.106 113.491 334.101 113.607 334.092 113.738H328.324V112.828H332.958C332.93 112.184 332.715 111.68 332.314 111.316C331.922 110.952 331.427 110.77 330.83 110.77C330.429 110.77 330.055 110.863 329.71 111.05C329.374 111.227 329.103 111.493 328.898 111.848C328.693 112.193 328.59 112.627 328.59 113.15V113.542C328.59 114.121 328.693 114.606 328.898 114.998C329.113 115.39 329.388 115.684 329.724 115.88C330.069 116.076 330.438 116.174 330.83 116.174C331.325 116.174 331.731 116.067 332.048 115.852C332.375 115.628 332.608 115.329 332.748 114.956H333.91C333.798 115.376 333.602 115.754 333.322 116.09C333.042 116.426 332.692 116.692 332.272 116.888C331.861 117.075 331.381 117.168 330.83 117.168ZM337.947 117.168C337.359 117.168 336.85 117.056 336.421 116.832C336.001 116.608 335.674 116.286 335.441 115.866C335.217 115.446 335.105 114.947 335.105 114.368H336.295C336.295 114.695 336.346 114.993 336.449 115.264C336.561 115.525 336.734 115.735 336.967 115.894C337.21 116.043 337.532 116.118 337.933 116.118C338.325 116.118 338.633 116.043 338.857 115.894C339.09 115.745 339.254 115.544 339.347 115.292C339.45 115.031 339.501 114.737 339.501 114.41V107.2H340.677V114.41C340.677 115.287 340.434 115.969 339.949 116.454C339.473 116.93 338.806 117.168 337.947 117.168ZM345.899 117.168C345.18 117.168 344.555 117.037 344.023 116.776C343.491 116.515 343.08 116.151 342.791 115.684C342.501 115.217 342.357 114.676 342.357 114.06H343.589C343.589 114.443 343.677 114.797 343.855 115.124C344.032 115.441 344.289 115.698 344.625 115.894C344.97 116.081 345.395 116.174 345.899 116.174C346.337 116.174 346.711 116.104 347.019 115.964C347.336 115.815 347.574 115.614 347.733 115.362C347.901 115.11 347.985 114.825 347.985 114.508C347.985 114.125 347.901 113.817 347.733 113.584C347.574 113.341 347.355 113.145 347.075 112.996C346.795 112.847 346.468 112.716 346.095 112.604C345.731 112.483 345.348 112.357 344.947 112.226C344.172 111.965 343.603 111.638 343.239 111.246C342.875 110.854 342.693 110.345 342.693 109.72C342.693 109.188 342.814 108.721 343.057 108.32C343.309 107.919 343.663 107.606 344.121 107.382C344.587 107.149 345.138 107.032 345.773 107.032C346.398 107.032 346.939 107.149 347.397 107.382C347.863 107.615 348.227 107.937 348.489 108.348C348.75 108.749 348.881 109.216 348.881 109.748H347.649C347.649 109.477 347.579 109.211 347.439 108.95C347.299 108.689 347.084 108.474 346.795 108.306C346.515 108.129 346.16 108.04 345.731 108.04C345.376 108.031 345.059 108.091 344.779 108.222C344.508 108.343 344.293 108.521 344.135 108.754C343.985 108.987 343.911 109.272 343.911 109.608C343.911 109.925 343.976 110.182 344.107 110.378C344.247 110.574 344.443 110.742 344.695 110.882C344.956 111.013 345.259 111.134 345.605 111.246C345.95 111.358 346.333 111.484 346.753 111.624C347.229 111.783 347.649 111.979 348.013 112.212C348.386 112.436 348.675 112.725 348.881 113.08C349.095 113.435 349.203 113.887 349.203 114.438C349.203 114.905 349.077 115.348 348.825 115.768C348.582 116.179 348.218 116.515 347.733 116.776C347.247 117.037 346.636 117.168 345.899 117.168Z" fill="#ACADAE"/>
<path d="M55.98 117V109.944H57.044L57.128 111.288C57.2867 110.971 57.4873 110.7 57.73 110.476C57.982 110.252 58.2807 110.079 58.626 109.958C58.9807 109.837 59.382 109.776 59.83 109.776V111.008H59.396C59.0973 111.008 58.8127 111.05 58.542 111.134C58.2713 111.209 58.0287 111.335 57.814 111.512C57.6087 111.689 57.4453 111.932 57.324 112.24C57.212 112.539 57.156 112.912 57.156 113.36V117H55.98ZM63.7236 117.168C63.1823 117.168 62.7063 117.061 62.2956 116.846C61.8943 116.631 61.5816 116.3 61.3576 115.852C61.143 115.404 61.0356 114.844 61.0356 114.172V109.944H62.2116V114.046C62.2116 114.746 62.3656 115.273 62.6736 115.628C62.9816 115.983 63.4156 116.16 63.9756 116.16C64.3676 116.16 64.7223 116.067 65.0396 115.88C65.357 115.684 65.6043 115.409 65.7816 115.054C65.9683 114.69 66.0616 114.247 66.0616 113.724V109.944H67.2376V117H66.1736L66.1036 115.768C65.889 116.207 65.5716 116.552 65.1516 116.804C64.7316 117.047 64.2556 117.168 63.7236 117.168ZM69.187 117V109.944H70.251L70.307 111.176C70.531 110.737 70.8484 110.397 71.259 110.154C71.679 109.902 72.155 109.776 72.687 109.776C73.2377 109.776 73.7137 109.888 74.115 110.112C74.5164 110.327 74.829 110.658 75.053 111.106C75.277 111.545 75.389 112.105 75.389 112.786V117H74.213V112.912C74.213 112.203 74.0544 111.671 73.737 111.316C73.429 110.961 72.9904 110.784 72.421 110.784C72.029 110.784 71.679 110.882 71.371 111.078C71.063 111.265 70.8157 111.54 70.629 111.904C70.4517 112.259 70.363 112.702 70.363 113.234V117H69.187ZM77.2541 118.61V117.504H84.4781V118.61H77.2541ZM86.5803 117V109.944H87.7563V117H86.5803ZM87.1683 108.446C86.9349 108.446 86.7389 108.371 86.5803 108.222C86.4309 108.063 86.3563 107.867 86.3563 107.634C86.3563 107.401 86.4309 107.214 86.5803 107.074C86.7389 106.925 86.9349 106.85 87.1683 106.85C87.3923 106.85 87.5836 106.925 87.7423 107.074C87.9009 107.214 87.9803 107.401 87.9803 107.634C87.9803 107.867 87.9009 108.063 87.7423 108.222C87.5836 108.371 87.3923 108.446 87.1683 108.446ZM89.8316 117V109.944H90.8956L90.9516 111.176C91.1756 110.737 91.4929 110.397 91.9036 110.154C92.3236 109.902 92.7996 109.776 93.3316 109.776C93.8822 109.776 94.3582 109.888 94.7596 110.112C95.1609 110.327 95.4736 110.658 95.6976 111.106C95.9216 111.545 96.0336 112.105 96.0336 112.786V117H94.8576V112.912C94.8576 112.203 94.6989 111.671 94.3816 111.316C94.0736 110.961 93.6349 110.784 93.0656 110.784C92.6736 110.784 92.3236 110.882 92.0156 111.078C91.7076 111.265 91.4602 111.54 91.2736 111.904C91.0962 112.259 91.0076 112.702 91.0076 113.234V117H89.8316ZM99.7639 117L97.0899 109.944H98.3219L100.45 115.866L102.592 109.944H103.796L101.122 117H99.7639ZM107.855 117.168C107.193 117.168 106.605 117.014 106.091 116.706C105.587 116.398 105.191 115.969 104.901 115.418C104.612 114.858 104.467 114.209 104.467 113.472C104.467 112.725 104.607 112.077 104.887 111.526C105.177 110.975 105.578 110.546 106.091 110.238C106.614 109.93 107.211 109.776 107.883 109.776C108.574 109.776 109.157 109.93 109.633 110.238C110.119 110.546 110.487 110.952 110.739 111.456C111.001 111.951 111.131 112.497 111.131 113.094C111.131 113.187 111.131 113.285 111.131 113.388C111.131 113.491 111.127 113.607 111.117 113.738H105.349V112.828H109.983C109.955 112.184 109.741 111.68 109.339 111.316C108.947 110.952 108.453 110.77 107.855 110.77C107.454 110.77 107.081 110.863 106.735 111.05C106.399 111.227 106.129 111.493 105.923 111.848C105.718 112.193 105.615 112.627 105.615 113.15V113.542C105.615 114.121 105.718 114.606 105.923 114.998C106.138 115.39 106.413 115.684 106.749 115.88C107.095 116.076 107.463 116.174 107.855 116.174C108.35 116.174 108.756 116.067 109.073 115.852C109.4 115.628 109.633 115.329 109.773 114.956H110.935C110.823 115.376 110.627 115.754 110.347 116.09C110.067 116.426 109.717 116.692 109.297 116.888C108.887 117.075 108.406 117.168 107.855 117.168ZM112.718 117V109.944H113.782L113.838 111.176C114.062 110.737 114.38 110.397 114.79 110.154C115.21 109.902 115.686 109.776 116.218 109.776C116.769 109.776 117.245 109.888 117.646 110.112C118.048 110.327 118.36 110.658 118.584 111.106C118.808 111.545 118.92 112.105 118.92 112.786V117H117.744V112.912C117.744 112.203 117.586 111.671 117.268 111.316C116.96 110.961 116.522 110.784 115.952 110.784C115.56 110.784 115.21 110.882 114.902 111.078C114.594 111.265 114.347 111.54 114.16 111.904C113.983 112.259 113.894 112.702 113.894 113.234V117H112.718ZM123.529 117C123.109 117 122.745 116.935 122.437 116.804C122.129 116.673 121.891 116.454 121.723 116.146C121.565 115.829 121.485 115.404 121.485 114.872V110.938H120.253V109.944H121.485L121.639 108.236H122.661V109.944H124.705V110.938H122.661V114.872C122.661 115.311 122.75 115.609 122.927 115.768C123.105 115.917 123.417 115.992 123.865 115.992H124.621V117H123.529ZM129.198 117.168C128.545 117.168 127.957 117.019 127.434 116.72C126.912 116.412 126.501 115.983 126.202 115.432C125.904 114.872 125.754 114.223 125.754 113.486C125.754 112.73 125.904 112.077 126.202 111.526C126.51 110.966 126.926 110.537 127.448 110.238C127.98 109.93 128.573 109.776 129.226 109.776C129.898 109.776 130.491 109.93 131.004 110.238C131.527 110.537 131.938 110.966 132.236 111.526C132.544 112.077 132.698 112.725 132.698 113.472C132.698 114.219 132.544 114.872 132.236 115.432C131.928 115.983 131.513 116.412 130.99 116.72C130.468 117.019 129.87 117.168 129.198 117.168ZM129.212 116.16C129.614 116.16 129.987 116.062 130.332 115.866C130.678 115.661 130.958 115.357 131.172 114.956C131.387 114.555 131.494 114.06 131.494 113.472C131.494 112.875 131.387 112.38 131.172 111.988C130.967 111.587 130.692 111.288 130.346 111.092C130.01 110.887 129.637 110.784 129.226 110.784C128.834 110.784 128.461 110.887 128.106 111.092C127.761 111.288 127.481 111.587 127.266 111.988C127.061 112.38 126.958 112.875 126.958 113.472C126.958 114.06 127.061 114.555 127.266 114.956C127.481 115.357 127.756 115.661 128.092 115.866C128.438 116.062 128.811 116.16 129.212 116.16ZM134.347 117V109.944H135.411L135.495 111.288C135.654 110.971 135.855 110.7 136.097 110.476C136.349 110.252 136.648 110.079 136.993 109.958C137.348 109.837 137.749 109.776 138.197 109.776V111.008H137.763C137.465 111.008 137.18 111.05 136.909 111.134C136.639 111.209 136.396 111.335 136.181 111.512C135.976 111.689 135.813 111.932 135.691 112.24C135.579 112.539 135.523 112.912 135.523 113.36V117H134.347ZM140.299 120.08L142.021 116.216H141.615L138.843 109.944H140.117L142.413 115.334L144.821 109.944H146.039L141.531 120.08H140.299Z" fill="#EEEFF1"/>
<path d="M77.05 45V35.2H78.226L83.448 43.054V35.2H84.624V45H83.448L78.226 37.146V45H77.05ZM88.9557 45.168C88.3864 45.168 87.9104 45.07 87.5277 44.874C87.145 44.6687 86.8604 44.4027 86.6737 44.076C86.487 43.74 86.3937 43.376 86.3937 42.984C86.3937 42.508 86.515 42.1067 86.7577 41.78C87.0097 41.444 87.3597 41.192 87.8077 41.024C88.265 40.8467 88.8017 40.758 89.4177 40.758H91.2797C91.2797 40.3193 91.2097 39.9553 91.0697 39.666C90.939 39.3673 90.743 39.1433 90.4817 38.994C90.2297 38.8447 89.9124 38.77 89.5297 38.77C89.0817 38.77 88.6944 38.882 88.3677 39.106C88.041 39.33 87.8404 39.6613 87.7657 40.1H86.5617C86.6177 39.596 86.7857 39.176 87.0657 38.84C87.355 38.4947 87.719 38.2333 88.1577 38.056C88.5964 37.8693 89.0537 37.776 89.5297 37.776C90.183 37.776 90.7244 37.8973 91.1537 38.14C91.5924 38.3733 91.919 38.7047 92.1337 39.134C92.3484 39.554 92.4557 40.0533 92.4557 40.632V45H91.4057L91.3357 43.754C91.2424 43.95 91.121 44.1367 90.9717 44.314C90.8317 44.482 90.6637 44.6313 90.4677 44.762C90.2717 44.8833 90.0477 44.9813 89.7957 45.056C89.553 45.1307 89.273 45.168 88.9557 45.168ZM89.1377 44.174C89.4644 44.174 89.7584 44.1087 90.0197 43.978C90.2904 43.838 90.519 43.6513 90.7057 43.418C90.8924 43.1753 91.0324 42.9093 91.1257 42.62C91.2284 42.3307 91.2797 42.0273 91.2797 41.71V41.668H89.5157C89.0584 41.668 88.6897 41.724 88.4097 41.836C88.1297 41.9387 87.929 42.088 87.8077 42.284C87.6864 42.4707 87.6257 42.6853 87.6257 42.928C87.6257 43.18 87.6817 43.3993 87.7937 43.586C87.915 43.7727 88.0877 43.9173 88.3117 44.02C88.545 44.1227 88.8204 44.174 89.1377 44.174ZM94.2749 45V37.944H95.3389L95.4089 38.952C95.6329 38.588 95.9316 38.3033 96.3049 38.098C96.6876 37.8833 97.1029 37.776 97.5509 37.776C97.9149 37.776 98.2416 37.8273 98.5309 37.93C98.8296 38.0233 99.0909 38.1727 99.3149 38.378C99.5389 38.574 99.7209 38.826 99.8609 39.134C100.104 38.7047 100.435 38.3733 100.855 38.14C101.284 37.8973 101.742 37.776 102.227 37.776C102.768 37.776 103.24 37.888 103.641 38.112C104.052 38.3267 104.364 38.658 104.579 39.106C104.803 39.5447 104.915 40.1047 104.915 40.786V45H103.753V40.912C103.753 40.2027 103.608 39.6707 103.319 39.316C103.03 38.9613 102.624 38.784 102.101 38.784C101.737 38.784 101.41 38.882 101.121 39.078C100.832 39.2647 100.603 39.54 100.435 39.904C100.267 40.268 100.183 40.716 100.183 41.248V45H99.0069V40.912C99.0069 40.2027 98.8623 39.6707 98.5729 39.316C98.2836 38.9613 97.8729 38.784 97.3409 38.784C96.9863 38.784 96.6643 38.882 96.3749 39.078C96.0949 39.2647 95.8709 39.54 95.7029 39.904C95.5349 40.268 95.4509 40.716 95.4509 41.248V45H94.2749ZM109.838 45.168C109.175 45.168 108.587 45.014 108.074 44.706C107.57 44.398 107.173 43.9687 106.884 43.418C106.594 42.858 106.45 42.2093 106.45 41.472C106.45 40.7253 106.59 40.0767 106.87 39.526C107.159 38.9753 107.56 38.546 108.074 38.238C108.596 37.93 109.194 37.776 109.866 37.776C110.556 37.776 111.14 37.93 111.616 38.238C112.101 38.546 112.47 38.952 112.722 39.456C112.983 39.9507 113.114 40.4967 113.114 41.094C113.114 41.1873 113.114 41.2853 113.114 41.388C113.114 41.4907 113.109 41.6073 113.1 41.738H107.332V40.828H111.966C111.938 40.184 111.723 39.68 111.322 39.316C110.93 38.952 110.435 38.77 109.838 38.77C109.436 38.77 109.063 38.8633 108.718 39.05C108.382 39.2273 108.111 39.4933 107.906 39.848C107.7 40.1933 107.598 40.6273 107.598 41.15V41.542C107.598 42.1207 107.7 42.606 107.906 42.998C108.12 43.39 108.396 43.684 108.732 43.88C109.077 44.076 109.446 44.174 109.838 44.174C110.332 44.174 110.738 44.0667 111.056 43.852C111.382 43.628 111.616 43.3293 111.756 42.956H112.918C112.806 43.376 112.61 43.754 112.33 44.09C112.05 44.426 111.7 44.692 111.28 44.888C110.869 45.0747 110.388 45.168 109.838 45.168Z" fill="#EEEFF1"/>
<path d="M61.1381 45.625H62.7863C64.1784 45.625 64.8745 45.625 65.4556 45.292C66.0366 44.9591 66.4055 44.3488 67.1434 43.1281L67.5689 42.4242C68.1896 41.3973 68.5 40.8839 68.5 40.3125C68.5 39.7411 68.1896 39.2277 67.5689 38.2008L67.1434 37.4969C66.4055 36.2763 66.0366 35.666 65.4556 35.333C64.8745 35 64.1784 35 62.7863 35H61.1381C58.716 35 57.5049 35 56.7525 35.778C56 36.556 56 37.8082 56 40.3125C56 42.8168 56 44.069 56.7525 44.847C57.5049 45.625 58.716 45.625 61.1381 45.625Z" stroke="#86888E" stroke-linecap="round"/>
<path d="M61.7139 41.8008L61.3794 40.9658H59.6899L59.3555 41.8008H58.8647L60.2686 38.3511H60.8154L62.2192 41.8008H61.7139ZM59.8608 40.541H61.2109L60.5347 38.8467L59.8608 40.541ZM64.7217 39.252H65.1514V41.8008H64.7217V41.3418C64.6126 41.5046 64.4718 41.6323 64.2993 41.7251C64.1284 41.8162 63.9388 41.8618 63.7305 41.8618C63.4912 41.8618 63.2739 41.804 63.0786 41.6885C62.8833 41.5713 62.7303 41.411 62.6196 41.2075C62.5106 41.0024 62.4561 40.7754 62.4561 40.5264C62.4561 40.2773 62.5106 40.0511 62.6196 39.8477C62.7303 39.6426 62.8833 39.4823 63.0786 39.3667C63.2739 39.2495 63.4912 39.1909 63.7305 39.1909C63.9388 39.1909 64.1284 39.2373 64.2993 39.3301C64.4718 39.4212 64.6126 39.5482 64.7217 39.7109V39.252ZM63.811 41.4468C64.0715 41.4468 64.2879 41.3589 64.4604 41.1831C64.6346 41.0073 64.7217 40.7884 64.7217 40.5264C64.7217 40.2643 64.6346 40.0454 64.4604 39.8696C64.2879 39.6938 64.0715 39.606 63.811 39.606C63.549 39.606 63.3309 39.6938 63.1567 39.8696C62.9826 40.0454 62.8955 40.2643 62.8955 40.5264C62.8955 40.7884 62.9826 41.0073 63.1567 41.1831C63.3309 41.3589 63.549 41.4468 63.811 41.4468Z" fill="#86888E"/>
<path d="M306.05 45V35.2H307.226V44.062H311.79V45H306.05ZM315.659 45.168C315.089 45.168 314.613 45.07 314.231 44.874C313.848 44.6687 313.563 44.4027 313.377 44.076C313.19 43.74 313.097 43.376 313.097 42.984C313.097 42.508 313.218 42.1067 313.461 41.78C313.713 41.444 314.063 41.192 314.511 41.024C314.968 40.8467 315.505 40.758 316.121 40.758H317.983C317.983 40.3193 317.913 39.9553 317.773 39.666C317.642 39.3673 317.446 39.1433 317.185 38.994C316.933 38.8447 316.615 38.77 316.233 38.77C315.785 38.77 315.397 38.882 315.071 39.106C314.744 39.33 314.543 39.6613 314.469 40.1H313.265C313.321 39.596 313.489 39.176 313.769 38.84C314.058 38.4947 314.422 38.2333 314.861 38.056C315.299 37.8693 315.757 37.776 316.233 37.776C316.886 37.776 317.427 37.8973 317.857 38.14C318.295 38.3733 318.622 38.7047 318.837 39.134C319.051 39.554 319.159 40.0533 319.159 40.632V45H318.109L318.039 43.754C317.945 43.95 317.824 44.1367 317.675 44.314C317.535 44.482 317.367 44.6313 317.171 44.762C316.975 44.8833 316.751 44.9813 316.499 45.056C316.256 45.1307 315.976 45.168 315.659 45.168ZM315.841 44.174C316.167 44.174 316.461 44.1087 316.723 43.978C316.993 43.838 317.222 43.6513 317.409 43.418C317.595 43.1753 317.735 42.9093 317.829 42.62C317.931 42.3307 317.983 42.0273 317.983 41.71V41.668H316.219C315.761 41.668 315.393 41.724 315.113 41.836C314.833 41.9387 314.632 42.088 314.511 42.284C314.389 42.4707 314.329 42.6853 314.329 42.928C314.329 43.18 314.385 43.3993 314.497 43.586C314.618 43.7727 314.791 43.9173 315.015 44.02C315.248 44.1227 315.523 44.174 315.841 44.174ZM320.978 45V37.944H322.042L322.098 39.176C322.322 38.7373 322.639 38.3967 323.05 38.154C323.47 37.902 323.946 37.776 324.478 37.776C325.029 37.776 325.505 37.888 325.906 38.112C326.307 38.3267 326.62 38.658 326.844 39.106C327.068 39.5447 327.18 40.1047 327.18 40.786V45H326.004V40.912C326.004 40.2027 325.845 39.6707 325.528 39.316C325.22 38.9613 324.781 38.784 324.212 38.784C323.82 38.784 323.47 38.882 323.162 39.078C322.854 39.2647 322.607 39.54 322.42 39.904C322.243 40.2587 322.154 40.702 322.154 41.234V45H320.978ZM331.803 48.248C331.168 48.248 330.604 48.164 330.109 47.996C329.624 47.8373 329.246 47.59 328.975 47.254C328.704 46.918 328.569 46.5027 328.569 46.008C328.569 45.7933 328.611 45.5647 328.695 45.322C328.788 45.0793 328.942 44.8413 329.157 44.608C329.381 44.3747 329.694 44.1647 330.095 43.978L330.907 44.454C330.412 44.6593 330.09 44.8927 329.941 45.154C329.792 45.4247 329.717 45.672 329.717 45.896C329.717 46.204 329.806 46.4607 329.983 46.666C330.16 46.8713 330.408 47.0253 330.725 47.128C331.042 47.2307 331.402 47.282 331.803 47.282C332.204 47.282 332.55 47.226 332.839 47.114C333.128 47.002 333.352 46.8433 333.511 46.638C333.67 46.4327 333.749 46.19 333.749 45.91C333.749 45.5833 333.628 45.308 333.385 45.084C333.142 44.8693 332.68 44.7433 331.999 44.706C331.448 44.6687 330.986 44.6173 330.613 44.552C330.24 44.4867 329.932 44.412 329.689 44.328C329.446 44.2347 329.241 44.132 329.073 44.02C328.914 43.908 328.77 43.7913 328.639 43.67V43.348L329.997 42.004L331.019 42.368L329.619 43.628L329.801 43.138C329.904 43.2127 330.002 43.2827 330.095 43.348C330.188 43.4133 330.314 43.4693 330.473 43.516C330.632 43.5627 330.851 43.6047 331.131 43.642C331.42 43.6793 331.798 43.7167 332.265 43.754C332.909 43.8007 333.422 43.9127 333.805 44.09C334.197 44.2673 334.477 44.5053 334.645 44.804C334.822 45.1027 334.911 45.4573 334.911 45.868C334.911 46.2693 334.799 46.6473 334.575 47.002C334.36 47.366 334.024 47.6647 333.567 47.898C333.11 48.1313 332.522 48.248 331.803 48.248ZM331.789 42.788C331.201 42.788 330.697 42.676 330.277 42.452C329.866 42.228 329.554 41.9293 329.339 41.556C329.124 41.1733 329.017 40.7487 329.017 40.282C329.017 39.8153 329.124 39.3953 329.339 39.022C329.563 38.6487 329.88 38.35 330.291 38.126C330.702 37.8927 331.201 37.776 331.789 37.776C332.377 37.776 332.876 37.8927 333.287 38.126C333.698 38.35 334.01 38.6487 334.225 39.022C334.44 39.3953 334.547 39.8153 334.547 40.282C334.547 40.7487 334.44 41.1733 334.225 41.556C334.01 41.9293 333.698 42.228 333.287 42.452C332.876 42.676 332.377 42.788 331.789 42.788ZM331.789 41.822C332.293 41.822 332.69 41.6913 332.979 41.43C333.268 41.1687 333.413 40.786 333.413 40.282C333.413 39.7873 333.268 39.4093 332.979 39.148C332.69 38.8867 332.293 38.756 331.789 38.756C331.294 38.756 330.893 38.8867 330.585 39.148C330.286 39.4093 330.137 39.7873 330.137 40.282C330.137 40.786 330.286 41.1687 330.585 41.43C330.884 41.6913 331.285 41.822 331.789 41.822ZM332.937 38.938L332.587 37.944H335.471V38.826L332.937 38.938ZM339.386 45.168C338.844 45.168 338.368 45.0607 337.958 44.846C337.556 44.6313 337.244 44.3 337.02 43.852C336.805 43.404 336.698 42.844 336.698 42.172V37.944H337.874V42.046C337.874 42.746 338.028 43.2733 338.336 43.628C338.644 43.9827 339.078 44.16 339.638 44.16C340.03 44.16 340.384 44.0667 340.702 43.88C341.019 43.684 341.266 43.4087 341.444 43.054C341.63 42.69 341.724 42.2467 341.724 41.724V37.944H342.9V45H341.836L341.766 43.768C341.551 44.2067 341.234 44.552 340.814 44.804C340.394 45.0467 339.918 45.168 339.386 45.168ZM347.145 45.168C346.576 45.168 346.1 45.07 345.717 44.874C345.334 44.6687 345.05 44.4027 344.863 44.076C344.676 43.74 344.583 43.376 344.583 42.984C344.583 42.508 344.704 42.1067 344.947 41.78C345.199 41.444 345.549 41.192 345.997 41.024C346.454 40.8467 346.991 40.758 347.607 40.758H349.469C349.469 40.3193 349.399 39.9553 349.259 39.666C349.128 39.3673 348.932 39.1433 348.671 38.994C348.419 38.8447 348.102 38.77 347.719 38.77C347.271 38.77 346.884 38.882 346.557 39.106C346.23 39.33 346.03 39.6613 345.955 40.1H344.751C344.807 39.596 344.975 39.176 345.255 38.84C345.544 38.4947 345.908 38.2333 346.347 38.056C346.786 37.8693 347.243 37.776 347.719 37.776C348.372 37.776 348.914 37.8973 349.343 38.14C349.782 38.3733 350.108 38.7047 350.323 39.134C350.538 39.554 350.645 40.0533 350.645 40.632V45H349.595L349.525 43.754C349.432 43.95 349.31 44.1367 349.161 44.314C349.021 44.482 348.853 44.6313 348.657 44.762C348.461 44.8833 348.237 44.9813 347.985 45.056C347.742 45.1307 347.462 45.168 347.145 45.168ZM347.327 44.174C347.654 44.174 347.948 44.1087 348.209 43.978C348.48 43.838 348.708 43.6513 348.895 43.418C349.082 43.1753 349.222 42.9093 349.315 42.62C349.418 42.3307 349.469 42.0273 349.469 41.71V41.668H347.705C347.248 41.668 346.879 41.724 346.599 41.836C346.319 41.9387 346.118 42.088 345.997 42.284C345.876 42.4707 345.815 42.6853 345.815 42.928C345.815 43.18 345.871 43.3993 345.983 43.586C346.104 43.7727 346.277 43.9173 346.501 44.02C346.734 44.1227 347.01 44.174 347.327 44.174ZM355.25 48.248C354.616 48.248 354.051 48.164 353.556 47.996C353.071 47.8373 352.693 47.59 352.422 47.254C352.152 46.918 352.016 46.5027 352.016 46.008C352.016 45.7933 352.058 45.5647 352.142 45.322C352.236 45.0793 352.39 44.8413 352.604 44.608C352.828 44.3747 353.141 44.1647 353.542 43.978L354.354 44.454C353.86 44.6593 353.538 44.8927 353.388 45.154C353.239 45.4247 353.164 45.672 353.164 45.896C353.164 46.204 353.253 46.4607 353.43 46.666C353.608 46.8713 353.855 47.0253 354.172 47.128C354.49 47.2307 354.849 47.282 355.25 47.282C355.652 47.282 355.997 47.226 356.286 47.114C356.576 47.002 356.8 46.8433 356.958 46.638C357.117 46.4327 357.196 46.19 357.196 45.91C357.196 45.5833 357.075 45.308 356.832 45.084C356.59 44.8693 356.128 44.7433 355.446 44.706C354.896 44.6687 354.434 44.6173 354.06 44.552C353.687 44.4867 353.379 44.412 353.136 44.328C352.894 44.2347 352.688 44.132 352.52 44.02C352.362 43.908 352.217 43.7913 352.086 43.67V43.348L353.444 42.004L354.466 42.368L353.066 43.628L353.248 43.138C353.351 43.2127 353.449 43.2827 353.542 43.348C353.636 43.4133 353.762 43.4693 353.92 43.516C354.079 43.5627 354.298 43.6047 354.578 43.642C354.868 43.6793 355.246 43.7167 355.712 43.754C356.356 43.8007 356.87 43.9127 357.252 44.09C357.644 44.2673 357.924 44.5053 358.092 44.804C358.27 45.1027 358.358 45.4573 358.358 45.868C358.358 46.2693 358.246 46.6473 358.022 47.002C357.808 47.366 357.472 47.6647 357.014 47.898C356.557 48.1313 355.969 48.248 355.25 48.248ZM355.236 42.788C354.648 42.788 354.144 42.676 353.724 42.452C353.314 42.228 353.001 41.9293 352.786 41.556C352.572 41.1733 352.464 40.7487 352.464 40.282C352.464 39.8153 352.572 39.3953 352.786 39.022C353.01 38.6487 353.328 38.35 353.738 38.126C354.149 37.8927 354.648 37.776 355.236 37.776C355.824 37.776 356.324 37.8927 356.734 38.126C357.145 38.35 357.458 38.6487 357.672 39.022C357.887 39.3953 357.994 39.8153 357.994 40.282C357.994 40.7487 357.887 41.1733 357.672 41.556C357.458 41.9293 357.145 42.228 356.734 42.452C356.324 42.676 355.824 42.788 355.236 42.788ZM355.236 41.822C355.74 41.822 356.137 41.6913 356.426 41.43C356.716 41.1687 356.86 40.786 356.86 40.282C356.86 39.7873 356.716 39.4093 356.426 39.148C356.137 38.8867 355.74 38.756 355.236 38.756C354.742 38.756 354.34 38.8867 354.032 39.148C353.734 39.4093 353.584 39.7873 353.584 40.282C353.584 40.786 353.734 41.1687 354.032 41.43C354.331 41.6913 354.732 41.822 355.236 41.822ZM356.384 38.938L356.034 37.944H358.918V38.826L356.384 38.938ZM363.092 45.168C362.429 45.168 361.841 45.014 361.328 44.706C360.824 44.398 360.427 43.9687 360.138 43.418C359.848 42.858 359.704 42.2093 359.704 41.472C359.704 40.7253 359.844 40.0767 360.124 39.526C360.413 38.9753 360.814 38.546 361.328 38.238C361.85 37.93 362.448 37.776 363.12 37.776C363.81 37.776 364.394 37.93 364.87 38.238C365.355 38.546 365.724 38.952 365.976 39.456C366.237 39.9507 366.368 40.4967 366.368 41.094C366.368 41.1873 366.368 41.2853 366.368 41.388C366.368 41.4907 366.363 41.6073 366.354 41.738H360.586V40.828H365.22C365.192 40.184 364.977 39.68 364.576 39.316C364.184 38.952 363.689 38.77 363.092 38.77C362.69 38.77 362.317 38.8633 361.972 39.05C361.636 39.2273 361.365 39.4933 361.16 39.848C360.954 40.1933 360.852 40.6273 360.852 41.15V41.542C360.852 42.1207 360.954 42.606 361.16 42.998C361.374 43.39 361.65 43.684 361.986 43.88C362.331 44.076 362.7 44.174 363.092 44.174C363.586 44.174 363.992 44.0667 364.31 43.852C364.636 43.628 364.87 43.3293 365.01 42.956H366.172C366.06 43.376 365.864 43.754 365.584 44.09C365.304 44.426 364.954 44.692 364.534 44.888C364.123 45.0747 363.642 45.168 363.092 45.168Z" fill="#EEEFF1"/>
<path d="M294.125 37.3926L295.185 38.3468C296.149 39.2145 296.631 39.6484 296.631 40.2051C296.631 40.7618 296.149 41.1956 295.185 42.0633L294.125 43.0176" stroke="#86888E" stroke-linecap="round"/>
<path d="M292.241 35.625L291 40.2593L289.758 44.8936" stroke="#86888E" stroke-linecap="round"/>
<path d="M287.875 37.3926L286.814 38.3468C285.85 39.2145 285.368 39.6484 285.368 40.2051C285.368 40.7618 285.85 41.1956 286.814 42.0633L287.875 43.0176" stroke="#86888E" stroke-linecap="round"/>
</g>
<defs>
<filter id="filter0_d_2654_26581" x="0" y="0" width="433" height="268" filterUnits="userSpaceOnUse" color-interpolation-filters="sRGB">
<feFlood flood-opacity="0" result="BackgroundImageFix"/>
<feColorMatrix in="SourceAlpha" type="matrix" values="0 0 0 0 0 0 0 0 0 0 0 0 0 0 0 0 0 0 127 0" result="hardAlpha"/>
<feOffset dy="24"/>
<feGaussianBlur stdDeviation="22"/>
<feComposite in2="hardAlpha" operator="out"/>
<feColorMatrix type="matrix" values="0 0 0 0 0 0 0 0 0 0 0 0 0 0 0 0 0 0 0.5 0"/>
<feBlend mode="normal" in2="BackgroundImageFix" result="effect1_dropShadow_2654_26581"/>
<feBlend mode="normal" in="SourceGraphic" in2="effect1_dropShadow_2654_26581" result="shape"/>
</filter>
</defs>
</svg>
