<svg width="458" height="514" viewBox="0 0 458 514" fill="none" xmlns="http://www.w3.org/2000/svg">
<g filter="url(#filter0_f_2474_18588)">
<ellipse cx="231" cy="325" rx="110" ry="42" fill="url(#paint0_linear_2474_18588)"/>
</g>
<g filter="url(#filter1_d_2474_18588)">
<path d="M57.5 214C57.5 208.753 61.7533 204.5 67 204.5H392C397.247 204.5 401.5 208.753 401.5 214V243.5H57.5V214Z" fill="#0C0D0E" stroke="#86888E"/>
<rect x="57.5" y="243.5" width="344" height="35" fill="#1D1F22" stroke="#86888E"/>
<rect x="57.5" y="313.5" width="344" height="35" fill="#1D1F22" stroke="#86888E"/>
<path d="M57.5 348.5H401.5V374C401.5 379.247 397.247 383.5 392 383.5H67C61.7533 383.5 57.5 379.247 57.5 374V348.5Z" fill="#1D1F22" stroke="#86888E"/>
<path d="M68.98 269.08V258.944H70.044L70.142 260.092C70.2913 259.868 70.4827 259.658 70.716 259.462C70.9493 259.257 71.2293 259.093 71.556 258.972C71.8827 258.841 72.256 258.776 72.676 258.776C73.3667 258.776 73.964 258.939 74.468 259.266C74.9813 259.593 75.378 260.036 75.658 260.596C75.9473 261.147 76.092 261.777 76.092 262.486C76.092 263.195 75.9473 263.83 75.658 264.39C75.378 264.941 74.9813 265.375 74.468 265.692C73.9547 266.009 73.3527 266.168 72.662 266.168C72.0927 266.168 71.5887 266.051 71.15 265.818C70.7207 265.585 70.3893 265.258 70.156 264.838V269.08H68.98ZM72.536 265.146C72.9933 265.146 73.3993 265.034 73.754 264.81C74.1087 264.586 74.384 264.278 74.58 263.886C74.7853 263.485 74.888 263.013 74.888 262.472C74.888 261.94 74.7853 261.473 74.58 261.072C74.384 260.671 74.1087 260.358 73.754 260.134C73.3993 259.91 72.9933 259.798 72.536 259.798C72.0693 259.798 71.6587 259.91 71.304 260.134C70.9493 260.358 70.674 260.671 70.478 261.072C70.282 261.473 70.184 261.94 70.184 262.472C70.184 263.013 70.282 263.485 70.478 263.886C70.674 264.278 70.9493 264.586 71.304 264.81C71.6587 265.034 72.0693 265.146 72.536 265.146ZM77.7437 266V258.944H78.8077L78.8917 260.288C79.0503 259.971 79.251 259.7 79.4937 259.476C79.7457 259.252 80.0443 259.079 80.3897 258.958C80.7443 258.837 81.1457 258.776 81.5937 258.776V260.008H81.1597C80.861 260.008 80.5763 260.05 80.3057 260.134C80.035 260.209 79.7923 260.335 79.5777 260.512C79.3723 260.689 79.209 260.932 79.0877 261.24C78.9757 261.539 78.9197 261.912 78.9197 262.36V266H77.7437ZM85.8155 266.168C85.1622 266.168 84.5742 266.019 84.0515 265.72C83.5289 265.412 83.1182 264.983 82.8195 264.432C82.5209 263.872 82.3715 263.223 82.3715 262.486C82.3715 261.73 82.5209 261.077 82.8195 260.526C83.1275 259.966 83.5429 259.537 84.0655 259.238C84.5975 258.93 85.1902 258.776 85.8435 258.776C86.5155 258.776 87.1082 258.93 87.6215 259.238C88.1442 259.537 88.5549 259.966 88.8535 260.526C89.1615 261.077 89.3155 261.725 89.3155 262.472C89.3155 263.219 89.1615 263.872 88.8535 264.432C88.5455 264.983 88.1302 265.412 87.6075 265.72C87.0849 266.019 86.4875 266.168 85.8155 266.168ZM85.8295 265.16C86.2309 265.16 86.6042 265.062 86.9495 264.866C87.2949 264.661 87.5749 264.357 87.7895 263.956C88.0042 263.555 88.1115 263.06 88.1115 262.472C88.1115 261.875 88.0042 261.38 87.7895 260.988C87.5842 260.587 87.3089 260.288 86.9635 260.092C86.6275 259.887 86.2542 259.784 85.8435 259.784C85.4515 259.784 85.0782 259.887 84.7235 260.092C84.3782 260.288 84.0982 260.587 83.8835 260.988C83.6782 261.38 83.5755 261.875 83.5755 262.472C83.5755 263.06 83.6782 263.555 83.8835 263.956C84.0982 264.357 84.3735 264.661 84.7095 264.866C85.0549 265.062 85.4282 265.16 85.8295 265.16ZM94.1424 266.168C93.4797 266.168 92.8824 266.014 92.3504 265.706C91.8277 265.398 91.417 264.969 91.1184 264.418C90.8197 263.858 90.6704 263.214 90.6704 262.486C90.6704 261.739 90.8197 261.091 91.1184 260.54C91.417 259.989 91.8277 259.56 92.3504 259.252C92.8824 258.935 93.4797 258.776 94.1424 258.776C94.9824 258.776 95.6824 258.995 96.2424 259.434C96.8024 259.863 97.157 260.442 97.3064 261.17H96.1024C96.009 260.731 95.7804 260.391 95.4164 260.148C95.0524 259.905 94.623 259.784 94.1284 259.784C93.727 259.784 93.3537 259.887 93.0084 260.092C92.663 260.288 92.3877 260.587 92.1824 260.988C91.977 261.389 91.8744 261.884 91.8744 262.472C91.8744 262.911 91.935 263.303 92.0564 263.648C92.1777 263.984 92.341 264.264 92.5464 264.488C92.7517 264.712 92.9897 264.885 93.2604 265.006C93.5404 265.118 93.8297 265.174 94.1284 265.174C94.4644 265.174 94.7677 265.123 95.0384 265.02C95.309 264.908 95.5377 264.745 95.7244 264.53C95.911 264.315 96.037 264.063 96.1024 263.774H97.3064C97.157 264.483 96.7977 265.062 96.2284 265.51C95.6684 265.949 94.973 266.168 94.1424 266.168ZM102.07 266.168C101.407 266.168 100.819 266.014 100.306 265.706C99.8021 265.398 99.4054 264.969 99.1161 264.418C98.8268 263.858 98.6821 263.209 98.6821 262.472C98.6821 261.725 98.8221 261.077 99.1021 260.526C99.3914 259.975 99.7928 259.546 100.306 259.238C100.829 258.93 101.426 258.776 102.098 258.776C102.789 258.776 103.372 258.93 103.848 259.238C104.333 259.546 104.702 259.952 104.954 260.456C105.215 260.951 105.346 261.497 105.346 262.094C105.346 262.187 105.346 262.285 105.346 262.388C105.346 262.491 105.341 262.607 105.332 262.738H99.5641V261.828H104.198C104.17 261.184 103.955 260.68 103.554 260.316C103.162 259.952 102.667 259.77 102.07 259.77C101.669 259.77 101.295 259.863 100.95 260.05C100.614 260.227 100.343 260.493 100.138 260.848C99.9328 261.193 99.8301 261.627 99.8301 262.15V262.542C99.8301 263.121 99.9328 263.606 100.138 263.998C100.353 264.39 100.628 264.684 100.964 264.88C101.309 265.076 101.678 265.174 102.07 265.174C102.565 265.174 102.971 265.067 103.288 264.852C103.615 264.628 103.848 264.329 103.988 263.956H105.15C105.038 264.376 104.842 264.754 104.562 265.09C104.282 265.426 103.932 265.692 103.512 265.888C103.101 266.075 102.621 266.168 102.07 266.168ZM109.593 266.168C109.005 266.168 108.492 266.07 108.053 265.874C107.624 265.678 107.278 265.407 107.017 265.062C106.765 264.707 106.611 264.292 106.555 263.816H107.759C107.806 264.059 107.904 264.283 108.053 264.488C108.202 264.693 108.403 264.861 108.655 264.992C108.916 265.113 109.234 265.174 109.607 265.174C109.934 265.174 110.204 265.127 110.419 265.034C110.634 264.931 110.792 264.796 110.895 264.628C111.007 264.46 111.063 264.278 111.063 264.082C111.063 263.793 110.993 263.573 110.853 263.424C110.722 263.275 110.526 263.158 110.265 263.074C110.004 262.981 109.686 262.901 109.313 262.836C109.005 262.78 108.702 262.705 108.403 262.612C108.104 262.519 107.838 262.397 107.605 262.248C107.372 262.089 107.185 261.898 107.045 261.674C106.914 261.45 106.849 261.175 106.849 260.848C106.849 260.447 106.952 260.092 107.157 259.784C107.362 259.467 107.656 259.219 108.039 259.042C108.431 258.865 108.884 258.776 109.397 258.776C110.153 258.776 110.764 258.958 111.231 259.322C111.698 259.686 111.973 260.213 112.057 260.904H110.895C110.848 260.549 110.694 260.274 110.433 260.078C110.181 259.873 109.831 259.77 109.383 259.77C108.944 259.77 108.608 259.859 108.375 260.036C108.151 260.213 108.039 260.447 108.039 260.736C108.039 260.923 108.1 261.091 108.221 261.24C108.352 261.38 108.538 261.501 108.781 261.604C109.033 261.707 109.341 261.791 109.705 261.856C110.172 261.94 110.596 262.052 110.979 262.192C111.362 262.332 111.67 262.542 111.903 262.822C112.146 263.093 112.267 263.48 112.267 263.984C112.267 264.423 112.155 264.805 111.931 265.132C111.716 265.459 111.408 265.715 111.007 265.902C110.606 266.079 110.134 266.168 109.593 266.168ZM116.62 266.168C116.032 266.168 115.519 266.07 115.08 265.874C114.651 265.678 114.306 265.407 114.044 265.062C113.792 264.707 113.638 264.292 113.582 263.816H114.786C114.833 264.059 114.931 264.283 115.08 264.488C115.23 264.693 115.43 264.861 115.682 264.992C115.944 265.113 116.261 265.174 116.634 265.174C116.961 265.174 117.232 265.127 117.446 265.034C117.661 264.931 117.82 264.796 117.922 264.628C118.034 264.46 118.09 264.278 118.09 264.082C118.09 263.793 118.02 263.573 117.88 263.424C117.75 263.275 117.554 263.158 117.292 263.074C117.031 262.981 116.714 262.901 116.34 262.836C116.032 262.78 115.729 262.705 115.43 262.612C115.132 262.519 114.866 262.397 114.632 262.248C114.399 262.089 114.212 261.898 114.072 261.674C113.942 261.45 113.876 261.175 113.876 260.848C113.876 260.447 113.979 260.092 114.184 259.784C114.39 259.467 114.684 259.219 115.066 259.042C115.458 258.865 115.911 258.776 116.424 258.776C117.18 258.776 117.792 258.958 118.258 259.322C118.725 259.686 119 260.213 119.084 260.904H117.922C117.876 260.549 117.722 260.274 117.46 260.078C117.208 259.873 116.858 259.77 116.41 259.77C115.972 259.77 115.636 259.859 115.402 260.036C115.178 260.213 115.066 260.447 115.066 260.736C115.066 260.923 115.127 261.091 115.248 261.24C115.379 261.38 115.566 261.501 115.808 261.604C116.06 261.707 116.368 261.791 116.732 261.856C117.199 261.94 117.624 262.052 118.006 262.192C118.389 262.332 118.697 262.542 118.93 262.822C119.173 263.093 119.294 263.48 119.294 263.984C119.294 264.423 119.182 264.805 118.958 265.132C118.744 265.459 118.436 265.715 118.034 265.902C117.633 266.079 117.162 266.168 116.62 266.168ZM121.016 267.61V266.504H128.24V267.61H121.016ZM133.324 266.168C132.661 266.168 132.073 266.014 131.56 265.706C131.056 265.398 130.659 264.969 130.37 264.418C130.081 263.858 129.936 263.209 129.936 262.472C129.936 261.725 130.076 261.077 130.356 260.526C130.645 259.975 131.047 259.546 131.56 259.238C132.083 258.93 132.68 258.776 133.352 258.776C134.043 258.776 134.626 258.93 135.102 259.238C135.587 259.546 135.956 259.952 136.208 260.456C136.469 260.951 136.6 261.497 136.6 262.094C136.6 262.187 136.6 262.285 136.6 262.388C136.6 262.491 136.595 262.607 136.586 262.738H130.818V261.828H135.452C135.424 261.184 135.209 260.68 134.808 260.316C134.416 259.952 133.921 259.77 133.324 259.77C132.923 259.77 132.549 259.863 132.204 260.05C131.868 260.227 131.597 260.493 131.392 260.848C131.187 261.193 131.084 261.627 131.084 262.15V262.542C131.084 263.121 131.187 263.606 131.392 263.998C131.607 264.39 131.882 264.684 132.218 264.88C132.563 265.076 132.932 265.174 133.324 265.174C133.819 265.174 134.225 265.067 134.542 264.852C134.869 264.628 135.102 264.329 135.242 263.956H136.404C136.292 264.376 136.096 264.754 135.816 265.09C135.536 265.426 135.186 265.692 134.766 265.888C134.355 266.075 133.875 266.168 133.324 266.168ZM141.295 266.168C140.614 266.168 140.016 266.009 139.503 265.692C138.99 265.365 138.593 264.922 138.313 264.362C138.033 263.802 137.893 263.167 137.893 262.458C137.893 261.749 138.033 261.119 138.313 260.568C138.593 260.008 138.99 259.569 139.503 259.252C140.026 258.935 140.628 258.776 141.309 258.776C141.888 258.776 142.392 258.893 142.821 259.126C143.26 259.359 143.596 259.686 143.829 260.106V255.92H145.005V266H143.941L143.843 264.838C143.694 265.071 143.502 265.291 143.269 265.496C143.036 265.692 142.756 265.855 142.429 265.986C142.102 266.107 141.724 266.168 141.295 266.168ZM141.435 265.146C141.902 265.146 142.312 265.034 142.667 264.81C143.022 264.586 143.297 264.278 143.493 263.886C143.689 263.485 143.787 263.013 143.787 262.472C143.787 261.94 143.689 261.473 143.493 261.072C143.297 260.671 143.022 260.358 142.667 260.134C142.312 259.91 141.902 259.798 141.435 259.798C140.978 259.798 140.572 259.91 140.217 260.134C139.862 260.358 139.587 260.671 139.391 261.072C139.195 261.473 139.097 261.94 139.097 262.472C139.097 263.013 139.195 263.485 139.391 263.886C139.587 264.278 139.862 264.586 140.217 264.81C140.572 265.034 140.978 265.146 141.435 265.146ZM147.076 266V258.944H148.252V266H147.076ZM147.664 257.446C147.431 257.446 147.235 257.371 147.076 257.222C146.927 257.063 146.852 256.867 146.852 256.634C146.852 256.401 146.927 256.214 147.076 256.074C147.235 255.925 147.431 255.85 147.664 255.85C147.888 255.85 148.08 255.925 148.238 256.074C148.397 256.214 148.476 256.401 148.476 256.634C148.476 256.867 148.397 257.063 148.238 257.222C148.08 257.371 147.888 257.446 147.664 257.446Z" fill="#EEEFF1"/>
<path d="M67.98 336V328.944H69.044L69.114 329.952C69.338 329.588 69.6367 329.303 70.01 329.098C70.3927 328.883 70.808 328.776 71.256 328.776C71.62 328.776 71.9467 328.827 72.236 328.93C72.5347 329.023 72.796 329.173 73.02 329.378C73.244 329.574 73.426 329.826 73.566 330.134C73.8087 329.705 74.14 329.373 74.56 329.14C74.9893 328.897 75.4467 328.776 75.932 328.776C76.4733 328.776 76.9447 328.888 77.346 329.112C77.7567 329.327 78.0693 329.658 78.284 330.106C78.508 330.545 78.62 331.105 78.62 331.786V336H77.458V331.912C77.458 331.203 77.3133 330.671 77.024 330.316C76.7347 329.961 76.3287 329.784 75.806 329.784C75.442 329.784 75.1153 329.882 74.826 330.078C74.5367 330.265 74.308 330.54 74.14 330.904C73.972 331.268 73.888 331.716 73.888 332.248V336H72.712V331.912C72.712 331.203 72.5673 330.671 72.278 330.316C71.9887 329.961 71.578 329.784 71.046 329.784C70.6913 329.784 70.3693 329.882 70.08 330.078C69.8 330.265 69.576 330.54 69.408 330.904C69.24 331.268 69.156 331.716 69.156 332.248V336H67.98ZM83.5988 336.168C82.9454 336.168 82.3574 336.019 81.8348 335.72C81.3121 335.412 80.9014 334.983 80.6028 334.432C80.3041 333.872 80.1548 333.223 80.1548 332.486C80.1548 331.73 80.3041 331.077 80.6028 330.526C80.9108 329.966 81.3261 329.537 81.8488 329.238C82.3808 328.93 82.9734 328.776 83.6268 328.776C84.2988 328.776 84.8914 328.93 85.4048 329.238C85.9274 329.537 86.3381 329.966 86.6368 330.526C86.9448 331.077 87.0988 331.725 87.0988 332.472C87.0988 333.219 86.9448 333.872 86.6368 334.432C86.3288 334.983 85.9134 335.412 85.3908 335.72C84.8681 336.019 84.2708 336.168 83.5988 336.168ZM83.6128 335.16C84.0141 335.16 84.3874 335.062 84.7328 334.866C85.0781 334.661 85.3581 334.357 85.5728 333.956C85.7874 333.555 85.8948 333.06 85.8948 332.472C85.8948 331.875 85.7874 331.38 85.5728 330.988C85.3674 330.587 85.0921 330.288 84.7468 330.092C84.4108 329.887 84.0374 329.784 83.6268 329.784C83.2348 329.784 82.8614 329.887 82.5068 330.092C82.1614 330.288 81.8814 330.587 81.6668 330.988C81.4614 331.38 81.3588 331.875 81.3588 332.472C81.3588 333.06 81.4614 333.555 81.6668 333.956C81.8814 334.357 82.1568 334.661 82.4928 334.866C82.8381 335.062 83.2114 335.16 83.6128 335.16ZM90.4221 336L87.7481 328.944H88.9801L91.1081 334.866L93.2501 328.944H94.4541L91.7801 336H90.4221ZM98.5135 336.168C97.8508 336.168 97.2628 336.014 96.7495 335.706C96.2455 335.398 95.8488 334.969 95.5595 334.418C95.2701 333.858 95.1255 333.209 95.1255 332.472C95.1255 331.725 95.2655 331.077 95.5455 330.526C95.8348 329.975 96.2361 329.546 96.7495 329.238C97.2721 328.93 97.8695 328.776 98.5415 328.776C99.2321 328.776 99.8155 328.93 100.291 329.238C100.777 329.546 101.145 329.952 101.397 330.456C101.659 330.951 101.789 331.497 101.789 332.094C101.789 332.187 101.789 332.285 101.789 332.388C101.789 332.491 101.785 332.607 101.775 332.738H96.0075V331.828H100.641C100.613 331.184 100.399 330.68 99.9975 330.316C99.6055 329.952 99.1108 329.77 98.5135 329.77C98.1121 329.77 97.7388 329.863 97.3935 330.05C97.0575 330.227 96.7868 330.493 96.5815 330.848C96.3761 331.193 96.2735 331.627 96.2735 332.15V332.542C96.2735 333.121 96.3761 333.606 96.5815 333.998C96.7961 334.39 97.0715 334.684 97.4075 334.88C97.7528 335.076 98.1215 335.174 98.5135 335.174C99.0081 335.174 99.4141 335.067 99.7315 334.852C100.058 334.628 100.291 334.329 100.431 333.956H101.593C101.481 334.376 101.285 334.754 101.005 335.09C100.725 335.426 100.375 335.692 99.9555 335.888C99.5448 336.075 99.0641 336.168 98.5135 336.168ZM103.404 337.61V336.504H110.628V337.61H103.404ZM115.769 336.168C115.115 336.168 114.527 336.019 114.005 335.72C113.482 335.412 113.071 334.983 112.773 334.432C112.474 333.872 112.325 333.223 112.325 332.486C112.325 331.73 112.474 331.077 112.773 330.526C113.081 329.966 113.496 329.537 114.019 329.238C114.551 328.93 115.143 328.776 115.797 328.776C116.469 328.776 117.061 328.93 117.575 329.238C118.097 329.537 118.508 329.966 118.807 330.526C119.115 331.077 119.269 331.725 119.269 332.472C119.269 333.219 119.115 333.872 118.807 334.432C118.499 334.983 118.083 335.412 117.561 335.72C117.038 336.019 116.441 336.168 115.769 336.168ZM115.783 335.16C116.184 335.16 116.557 335.062 116.903 334.866C117.248 334.661 117.528 334.357 117.743 333.956C117.957 333.555 118.065 333.06 118.065 332.472C118.065 331.875 117.957 331.38 117.743 330.988C117.537 330.587 117.262 330.288 116.917 330.092C116.581 329.887 116.207 329.784 115.797 329.784C115.405 329.784 115.031 329.887 114.677 330.092C114.331 330.288 114.051 330.587 113.837 330.988C113.631 331.38 113.529 331.875 113.529 332.472C113.529 333.06 113.631 333.555 113.837 333.956C114.051 334.357 114.327 334.661 114.663 334.866C115.008 335.062 115.381 335.16 115.783 335.16ZM120.918 336V328.944H121.982L122.066 330.288C122.224 329.971 122.425 329.7 122.668 329.476C122.92 329.252 123.218 329.079 123.564 328.958C123.918 328.837 124.32 328.776 124.768 328.776V330.008H124.334C124.035 330.008 123.75 330.05 123.48 330.134C123.209 330.209 122.966 330.335 122.752 330.512C122.546 330.689 122.383 330.932 122.262 331.24C122.15 331.539 122.094 331.912 122.094 332.36V336H120.918ZM128.947 336.168C128.266 336.168 127.669 336.009 127.155 335.692C126.642 335.365 126.245 334.922 125.965 334.362C125.685 333.802 125.545 333.167 125.545 332.458C125.545 331.749 125.685 331.119 125.965 330.568C126.245 330.008 126.642 329.569 127.155 329.252C127.678 328.935 128.28 328.776 128.961 328.776C129.54 328.776 130.044 328.893 130.473 329.126C130.912 329.359 131.248 329.686 131.481 330.106V325.92H132.657V336H131.593L131.495 334.838C131.346 335.071 131.155 335.291 130.921 335.496C130.688 335.692 130.408 335.855 130.081 335.986C129.755 336.107 129.377 336.168 128.947 336.168ZM129.087 335.146C129.554 335.146 129.965 335.034 130.319 334.81C130.674 334.586 130.949 334.278 131.145 333.886C131.341 333.485 131.439 333.013 131.439 332.472C131.439 331.94 131.341 331.473 131.145 331.072C130.949 330.671 130.674 330.358 130.319 330.134C129.965 329.91 129.554 329.798 129.087 329.798C128.63 329.798 128.224 329.91 127.869 330.134C127.515 330.358 127.239 330.671 127.043 331.072C126.847 331.473 126.749 331.94 126.749 332.472C126.749 333.013 126.847 333.485 127.043 333.886C127.239 334.278 127.515 334.586 127.869 334.81C128.224 335.034 128.63 335.146 129.087 335.146ZM137.711 336.168C137.048 336.168 136.46 336.014 135.947 335.706C135.443 335.398 135.046 334.969 134.757 334.418C134.467 333.858 134.323 333.209 134.323 332.472C134.323 331.725 134.463 331.077 134.743 330.526C135.032 329.975 135.433 329.546 135.947 329.238C136.469 328.93 137.067 328.776 137.739 328.776C138.429 328.776 139.013 328.93 139.489 329.238C139.974 329.546 140.343 329.952 140.595 330.456C140.856 330.951 140.987 331.497 140.987 332.094C140.987 332.187 140.987 332.285 140.987 332.388C140.987 332.491 140.982 332.607 140.973 332.738H135.205V331.828H139.839C139.811 331.184 139.596 330.68 139.195 330.316C138.803 329.952 138.308 329.77 137.711 329.77C137.309 329.77 136.936 329.863 136.591 330.05C136.255 330.227 135.984 330.493 135.779 330.848C135.573 331.193 135.471 331.627 135.471 332.15V332.542C135.471 333.121 135.573 333.606 135.779 333.998C135.993 334.39 136.269 334.684 136.605 334.88C136.95 335.076 137.319 335.174 137.711 335.174C138.205 335.174 138.611 335.067 138.929 334.852C139.255 334.628 139.489 334.329 139.629 333.956H140.791C140.679 334.376 140.483 334.754 140.203 335.09C139.923 335.426 139.573 335.692 139.153 335.888C138.742 336.075 138.261 336.168 137.711 336.168ZM142.574 336V328.944H143.638L143.722 330.288C143.88 329.971 144.081 329.7 144.324 329.476C144.576 329.252 144.874 329.079 145.22 328.958C145.574 328.837 145.976 328.776 146.424 328.776V330.008H145.99C145.691 330.008 145.406 330.05 145.136 330.134C144.865 330.209 144.622 330.335 144.408 330.512C144.202 330.689 144.039 330.932 143.918 331.24C143.806 331.539 143.75 331.912 143.75 332.36V336H142.574ZM150.415 336.168C149.827 336.168 149.314 336.07 148.875 335.874C148.446 335.678 148.101 335.407 147.839 335.062C147.587 334.707 147.433 334.292 147.377 333.816H148.581C148.628 334.059 148.726 334.283 148.875 334.488C149.025 334.693 149.225 334.861 149.477 334.992C149.739 335.113 150.056 335.174 150.429 335.174C150.756 335.174 151.027 335.127 151.241 335.034C151.456 334.931 151.615 334.796 151.717 334.628C151.829 334.46 151.885 334.278 151.885 334.082C151.885 333.793 151.815 333.573 151.675 333.424C151.545 333.275 151.349 333.158 151.087 333.074C150.826 332.981 150.509 332.901 150.135 332.836C149.827 332.78 149.524 332.705 149.225 332.612C148.927 332.519 148.661 332.397 148.427 332.248C148.194 332.089 148.007 331.898 147.867 331.674C147.737 331.45 147.671 331.175 147.671 330.848C147.671 330.447 147.774 330.092 147.979 329.784C148.185 329.467 148.479 329.219 148.861 329.042C149.253 328.865 149.706 328.776 150.219 328.776C150.975 328.776 151.587 328.958 152.053 329.322C152.52 329.686 152.795 330.213 152.879 330.904H151.717C151.671 330.549 151.517 330.274 151.255 330.078C151.003 329.873 150.653 329.77 150.205 329.77C149.767 329.77 149.431 329.859 149.197 330.036C148.973 330.213 148.861 330.447 148.861 330.736C148.861 330.923 148.922 331.091 149.043 331.24C149.174 331.38 149.361 331.501 149.603 331.604C149.855 331.707 150.163 331.791 150.527 331.856C150.994 331.94 151.419 332.052 151.801 332.192C152.184 332.332 152.492 332.542 152.725 332.822C152.968 333.093 153.089 333.48 153.089 333.984C153.089 334.423 152.977 334.805 152.753 335.132C152.539 335.459 152.231 335.715 151.829 335.902C151.428 336.079 150.957 336.168 150.415 336.168Z" fill="#EEEFF1"/>
<path d="M71.766 374.248C71.1313 374.248 70.5667 374.164 70.072 373.996C69.5867 373.837 69.2087 373.59 68.938 373.254C68.6673 372.918 68.532 372.503 68.532 372.008C68.532 371.793 68.574 371.565 68.658 371.322C68.7513 371.079 68.9053 370.841 69.12 370.608C69.344 370.375 69.6567 370.165 70.058 369.978L70.87 370.454C70.3753 370.659 70.0533 370.893 69.904 371.154C69.7547 371.425 69.68 371.672 69.68 371.896C69.68 372.204 69.7687 372.461 69.946 372.666C70.1233 372.871 70.3707 373.025 70.688 373.128C71.0053 373.231 71.3647 373.282 71.766 373.282C72.1673 373.282 72.5127 373.226 72.802 373.114C73.0913 373.002 73.3153 372.843 73.474 372.638C73.6327 372.433 73.712 372.19 73.712 371.91C73.712 371.583 73.5907 371.308 73.348 371.084C73.1053 370.869 72.6433 370.743 71.962 370.706C71.4113 370.669 70.9493 370.617 70.576 370.552C70.2027 370.487 69.8947 370.412 69.652 370.328C69.4093 370.235 69.204 370.132 69.036 370.02C68.8773 369.908 68.7327 369.791 68.602 369.67V369.348L69.96 368.004L70.982 368.368L69.582 369.628L69.764 369.138C69.8667 369.213 69.9647 369.283 70.058 369.348C70.1513 369.413 70.2773 369.469 70.436 369.516C70.5947 369.563 70.814 369.605 71.094 369.642C71.3833 369.679 71.7613 369.717 72.228 369.754C72.872 369.801 73.3853 369.913 73.768 370.09C74.16 370.267 74.44 370.505 74.608 370.804C74.7853 371.103 74.874 371.457 74.874 371.868C74.874 372.269 74.762 372.647 74.538 373.002C74.3233 373.366 73.9873 373.665 73.53 373.898C73.0727 374.131 72.4847 374.248 71.766 374.248ZM71.752 368.788C71.164 368.788 70.66 368.676 70.24 368.452C69.8293 368.228 69.5167 367.929 69.302 367.556C69.0873 367.173 68.98 366.749 68.98 366.282C68.98 365.815 69.0873 365.395 69.302 365.022C69.526 364.649 69.8433 364.35 70.254 364.126C70.6647 363.893 71.164 363.776 71.752 363.776C72.34 363.776 72.8393 363.893 73.25 364.126C73.6607 364.35 73.9733 364.649 74.188 365.022C74.4027 365.395 74.51 365.815 74.51 366.282C74.51 366.749 74.4027 367.173 74.188 367.556C73.9733 367.929 73.6607 368.228 73.25 368.452C72.8393 368.676 72.34 368.788 71.752 368.788ZM71.752 367.822C72.256 367.822 72.6527 367.691 72.942 367.43C73.2313 367.169 73.376 366.786 73.376 366.282C73.376 365.787 73.2313 365.409 72.942 365.148C72.6527 364.887 72.256 364.756 71.752 364.756C71.2573 364.756 70.856 364.887 70.548 365.148C70.2493 365.409 70.1 365.787 70.1 366.282C70.1 366.786 70.2493 367.169 70.548 367.43C70.8467 367.691 71.248 367.822 71.752 367.822ZM72.9 364.938L72.55 363.944H75.434V364.826L72.9 364.938ZM79.6072 371.168C78.9445 371.168 78.3565 371.014 77.8432 370.706C77.3392 370.398 76.9425 369.969 76.6532 369.418C76.3639 368.858 76.2192 368.209 76.2192 367.472C76.2192 366.725 76.3592 366.077 76.6392 365.526C76.9285 364.975 77.3299 364.546 77.8432 364.238C78.3659 363.93 78.9632 363.776 79.6352 363.776C80.3259 363.776 80.9092 363.93 81.3852 364.238C81.8705 364.546 82.2392 364.952 82.4912 365.456C82.7525 365.951 82.8832 366.497 82.8832 367.094C82.8832 367.187 82.8832 367.285 82.8832 367.388C82.8832 367.491 82.8785 367.607 82.8692 367.738H77.1012V366.828H81.7352C81.7072 366.184 81.4925 365.68 81.0912 365.316C80.6992 364.952 80.2045 364.77 79.6072 364.77C79.2059 364.77 78.8325 364.863 78.4872 365.05C78.1512 365.227 77.8805 365.493 77.6752 365.848C77.4699 366.193 77.3672 366.627 77.3672 367.15V367.542C77.3672 368.121 77.4699 368.606 77.6752 368.998C77.8899 369.39 78.1652 369.684 78.5012 369.88C78.8465 370.076 79.2152 370.174 79.6072 370.174C80.1019 370.174 80.5079 370.067 80.8252 369.852C81.1519 369.628 81.3852 369.329 81.5252 368.956H82.6872C82.5752 369.376 82.3792 369.754 82.0992 370.09C81.8192 370.426 81.4692 370.692 81.0492 370.888C80.6385 371.075 80.1579 371.168 79.6072 371.168ZM84.4702 371V363.944H85.5342L85.5902 365.176C85.8142 364.737 86.1316 364.397 86.5422 364.154C86.9622 363.902 87.4382 363.776 87.9702 363.776C88.5209 363.776 88.9969 363.888 89.3982 364.112C89.7996 364.327 90.1122 364.658 90.3362 365.106C90.5602 365.545 90.6722 366.105 90.6722 366.786V371H89.4962V366.912C89.4962 366.203 89.3376 365.671 89.0202 365.316C88.7122 364.961 88.2736 364.784 87.7042 364.784C87.3122 364.784 86.9622 364.882 86.6542 365.078C86.3462 365.265 86.0989 365.54 85.9122 365.904C85.7349 366.259 85.6462 366.702 85.6462 367.234V371H84.4702ZM95.6033 371.168C94.9406 371.168 94.3526 371.014 93.8393 370.706C93.3353 370.398 92.9386 369.969 92.6493 369.418C92.36 368.858 92.2153 368.209 92.2153 367.472C92.2153 366.725 92.3553 366.077 92.6353 365.526C92.9246 364.975 93.326 364.546 93.8393 364.238C94.362 363.93 94.9593 363.776 95.6313 363.776C96.322 363.776 96.9053 363.93 97.3813 364.238C97.8666 364.546 98.2353 364.952 98.4873 365.456C98.7486 365.951 98.8793 366.497 98.8793 367.094C98.8793 367.187 98.8793 367.285 98.8793 367.388C98.8793 367.491 98.8746 367.607 98.8653 367.738H93.0973V366.828H97.7313C97.7033 366.184 97.4886 365.68 97.0873 365.316C96.6953 364.952 96.2006 364.77 95.6033 364.77C95.202 364.77 94.8286 364.863 94.4833 365.05C94.1473 365.227 93.8766 365.493 93.6713 365.848C93.466 366.193 93.3633 366.627 93.3633 367.15V367.542C93.3633 368.121 93.466 368.606 93.6713 368.998C93.886 369.39 94.1613 369.684 94.4973 369.88C94.8426 370.076 95.2113 370.174 95.6033 370.174C96.098 370.174 96.504 370.067 96.8213 369.852C97.148 369.628 97.3813 369.329 97.5213 368.956H98.6833C98.5713 369.376 98.3753 369.754 98.0953 370.09C97.8153 370.426 97.4653 370.692 97.0453 370.888C96.6346 371.075 96.154 371.168 95.6033 371.168ZM100.466 371V363.944H101.53L101.614 365.288C101.773 364.971 101.974 364.7 102.216 364.476C102.468 364.252 102.767 364.079 103.112 363.958C103.467 363.837 103.868 363.776 104.316 363.776V365.008H103.882C103.584 365.008 103.299 365.05 103.028 365.134C102.758 365.209 102.515 365.335 102.3 365.512C102.095 365.689 101.932 365.932 101.81 366.24C101.698 366.539 101.642 366.912 101.642 367.36V371H100.466ZM107.944 371.168C107.375 371.168 106.899 371.07 106.516 370.874C106.133 370.669 105.849 370.403 105.662 370.076C105.475 369.74 105.382 369.376 105.382 368.984C105.382 368.508 105.503 368.107 105.746 367.78C105.998 367.444 106.348 367.192 106.796 367.024C107.253 366.847 107.79 366.758 108.406 366.758H110.268C110.268 366.319 110.198 365.955 110.058 365.666C109.927 365.367 109.731 365.143 109.47 364.994C109.218 364.845 108.901 364.77 108.518 364.77C108.07 364.77 107.683 364.882 107.356 365.106C107.029 365.33 106.829 365.661 106.754 366.1H105.55C105.606 365.596 105.774 365.176 106.054 364.84C106.343 364.495 106.707 364.233 107.146 364.056C107.585 363.869 108.042 363.776 108.518 363.776C109.171 363.776 109.713 363.897 110.142 364.14C110.581 364.373 110.907 364.705 111.122 365.134C111.337 365.554 111.444 366.053 111.444 366.632V371H110.394L110.324 369.754C110.231 369.95 110.109 370.137 109.96 370.314C109.82 370.482 109.652 370.631 109.456 370.762C109.26 370.883 109.036 370.981 108.784 371.056C108.541 371.131 108.261 371.168 107.944 371.168ZM108.126 370.174C108.453 370.174 108.747 370.109 109.008 369.978C109.279 369.838 109.507 369.651 109.694 369.418C109.881 369.175 110.021 368.909 110.114 368.62C110.217 368.331 110.268 368.027 110.268 367.71V367.668H108.504C108.047 367.668 107.678 367.724 107.398 367.836C107.118 367.939 106.917 368.088 106.796 368.284C106.675 368.471 106.614 368.685 106.614 368.928C106.614 369.18 106.67 369.399 106.782 369.586C106.903 369.773 107.076 369.917 107.3 370.02C107.533 370.123 107.809 370.174 108.126 370.174ZM115.844 371C115.424 371 115.06 370.935 114.752 370.804C114.444 370.673 114.206 370.454 114.038 370.146C113.879 369.829 113.8 369.404 113.8 368.872V364.938H112.568V363.944H113.8L113.954 362.236H114.976V363.944H117.02V364.938H114.976V368.872C114.976 369.311 115.064 369.609 115.242 369.768C115.419 369.917 115.732 369.992 116.18 369.992H116.936V371H115.844ZM121.457 371.168C120.794 371.168 120.206 371.014 119.693 370.706C119.189 370.398 118.792 369.969 118.503 369.418C118.213 368.858 118.069 368.209 118.069 367.472C118.069 366.725 118.209 366.077 118.489 365.526C118.778 364.975 119.179 364.546 119.693 364.238C120.215 363.93 120.813 363.776 121.485 363.776C122.175 363.776 122.759 363.93 123.235 364.238C123.72 364.546 124.089 364.952 124.341 365.456C124.602 365.951 124.733 366.497 124.733 367.094C124.733 367.187 124.733 367.285 124.733 367.388C124.733 367.491 124.728 367.607 124.719 367.738H118.951V366.828H123.585C123.557 366.184 123.342 365.68 122.941 365.316C122.549 364.952 122.054 364.77 121.457 364.77C121.055 364.77 120.682 364.863 120.337 365.05C120.001 365.227 119.73 365.493 119.525 365.848C119.319 366.193 119.217 366.627 119.217 367.15V367.542C119.217 368.121 119.319 368.606 119.525 368.998C119.739 369.39 120.015 369.684 120.351 369.88C120.696 370.076 121.065 370.174 121.457 370.174C121.951 370.174 122.357 370.067 122.675 369.852C123.001 369.628 123.235 369.329 123.375 368.956H124.537C124.425 369.376 124.229 369.754 123.949 370.09C123.669 370.426 123.319 370.692 122.899 370.888C122.488 371.075 122.007 371.168 121.457 371.168ZM126.348 372.61V371.504H133.572V372.61H126.348ZM135.674 371V363.944H136.85V371H135.674ZM136.262 362.446C136.029 362.446 135.833 362.371 135.674 362.222C135.525 362.063 135.45 361.867 135.45 361.634C135.45 361.401 135.525 361.214 135.674 361.074C135.833 360.925 136.029 360.85 136.262 360.85C136.486 360.85 136.677 360.925 136.836 361.074C136.995 361.214 137.074 361.401 137.074 361.634C137.074 361.867 136.995 362.063 136.836 362.222C136.677 362.371 136.486 362.446 136.262 362.446ZM138.925 371V363.944H139.989L140.045 365.176C140.269 364.737 140.587 364.397 140.997 364.154C141.417 363.902 141.893 363.776 142.425 363.776C142.976 363.776 143.452 363.888 143.853 364.112C144.255 364.327 144.567 364.658 144.791 365.106C145.015 365.545 145.127 366.105 145.127 366.786V371H143.951V366.912C143.951 366.203 143.793 365.671 143.475 365.316C143.167 364.961 142.729 364.784 142.159 364.784C141.767 364.784 141.417 364.882 141.109 365.078C140.801 365.265 140.554 365.54 140.367 365.904C140.19 366.259 140.101 366.702 140.101 367.234V371H138.925ZM148.858 371L146.184 363.944H147.416L149.544 369.866L151.686 363.944H152.89L150.216 371H148.858ZM157.005 371.168C156.352 371.168 155.764 371.019 155.241 370.72C154.718 370.412 154.308 369.983 154.009 369.432C153.71 368.872 153.561 368.223 153.561 367.486C153.561 366.73 153.71 366.077 154.009 365.526C154.317 364.966 154.732 364.537 155.255 364.238C155.787 363.93 156.38 363.776 157.033 363.776C157.705 363.776 158.298 363.93 158.811 364.238C159.334 364.537 159.744 364.966 160.043 365.526C160.351 366.077 160.505 366.725 160.505 367.472C160.505 368.219 160.351 368.872 160.043 369.432C159.735 369.983 159.32 370.412 158.797 370.72C158.274 371.019 157.677 371.168 157.005 371.168ZM157.019 370.16C157.42 370.16 157.794 370.062 158.139 369.866C158.484 369.661 158.764 369.357 158.979 368.956C159.194 368.555 159.301 368.06 159.301 367.472C159.301 366.875 159.194 366.38 158.979 365.988C158.774 365.587 158.498 365.288 158.153 365.092C157.817 364.887 157.444 364.784 157.033 364.784C156.641 364.784 156.268 364.887 155.913 365.092C155.568 365.288 155.288 365.587 155.073 365.988C154.868 366.38 154.765 366.875 154.765 367.472C154.765 368.06 154.868 368.555 155.073 368.956C155.288 369.357 155.563 369.661 155.899 369.866C156.244 370.062 156.618 370.16 157.019 370.16ZM162.266 371V363.944H163.442V371H162.266ZM162.854 362.446C162.62 362.446 162.424 362.371 162.266 362.222C162.116 362.063 162.042 361.867 162.042 361.634C162.042 361.401 162.116 361.214 162.266 361.074C162.424 360.925 162.62 360.85 162.854 360.85C163.078 360.85 163.269 360.925 163.428 361.074C163.586 361.214 163.666 361.401 163.666 361.634C163.666 361.867 163.586 362.063 163.428 362.222C163.269 362.371 163.078 362.446 162.854 362.446ZM168.695 371.168C168.032 371.168 167.435 371.014 166.903 370.706C166.38 370.398 165.97 369.969 165.671 369.418C165.372 368.858 165.223 368.214 165.223 367.486C165.223 366.739 165.372 366.091 165.671 365.54C165.97 364.989 166.38 364.56 166.903 364.252C167.435 363.935 168.032 363.776 168.695 363.776C169.535 363.776 170.235 363.995 170.795 364.434C171.355 364.863 171.71 365.442 171.859 366.17H170.655C170.562 365.731 170.333 365.391 169.969 365.148C169.605 364.905 169.176 364.784 168.681 364.784C168.28 364.784 167.906 364.887 167.561 365.092C167.216 365.288 166.94 365.587 166.735 365.988C166.53 366.389 166.427 366.884 166.427 367.472C166.427 367.911 166.488 368.303 166.609 368.648C166.73 368.984 166.894 369.264 167.099 369.488C167.304 369.712 167.542 369.885 167.813 370.006C168.093 370.118 168.382 370.174 168.681 370.174C169.017 370.174 169.32 370.123 169.591 370.02C169.862 369.908 170.09 369.745 170.277 369.53C170.464 369.315 170.59 369.063 170.655 368.774H171.859C171.71 369.483 171.35 370.062 170.781 370.51C170.221 370.949 169.526 371.168 168.695 371.168ZM176.623 371.168C175.96 371.168 175.372 371.014 174.859 370.706C174.355 370.398 173.958 369.969 173.669 369.418C173.379 368.858 173.235 368.209 173.235 367.472C173.235 366.725 173.375 366.077 173.655 365.526C173.944 364.975 174.345 364.546 174.859 364.238C175.381 363.93 175.979 363.776 176.651 363.776C177.341 363.776 177.925 363.93 178.401 364.238C178.886 364.546 179.255 364.952 179.507 365.456C179.768 365.951 179.899 366.497 179.899 367.094C179.899 367.187 179.899 367.285 179.899 367.388C179.899 367.491 179.894 367.607 179.885 367.738H174.117V366.828H178.751C178.723 366.184 178.508 365.68 178.107 365.316C177.715 364.952 177.22 364.77 176.623 364.77C176.221 364.77 175.848 364.863 175.503 365.05C175.167 365.227 174.896 365.493 174.691 365.848C174.485 366.193 174.383 366.627 174.383 367.15V367.542C174.383 368.121 174.485 368.606 174.691 368.998C174.905 369.39 175.181 369.684 175.517 369.88C175.862 370.076 176.231 370.174 176.623 370.174C177.117 370.174 177.523 370.067 177.841 369.852C178.167 369.628 178.401 369.329 178.541 368.956H179.703C179.591 369.376 179.395 369.754 179.115 370.09C178.835 370.426 178.485 370.692 178.065 370.888C177.654 371.075 177.173 371.168 176.623 371.168ZM184.146 371.168C183.558 371.168 183.045 371.07 182.606 370.874C182.177 370.678 181.831 370.407 181.57 370.062C181.318 369.707 181.164 369.292 181.108 368.816H182.312C182.359 369.059 182.457 369.283 182.606 369.488C182.755 369.693 182.956 369.861 183.208 369.992C183.469 370.113 183.787 370.174 184.16 370.174C184.487 370.174 184.757 370.127 184.972 370.034C185.187 369.931 185.345 369.796 185.448 369.628C185.56 369.46 185.616 369.278 185.616 369.082C185.616 368.793 185.546 368.573 185.406 368.424C185.275 368.275 185.079 368.158 184.818 368.074C184.557 367.981 184.239 367.901 183.866 367.836C183.558 367.78 183.255 367.705 182.956 367.612C182.657 367.519 182.391 367.397 182.158 367.248C181.925 367.089 181.738 366.898 181.598 366.674C181.467 366.45 181.402 366.175 181.402 365.848C181.402 365.447 181.505 365.092 181.71 364.784C181.915 364.467 182.209 364.219 182.592 364.042C182.984 363.865 183.437 363.776 183.95 363.776C184.706 363.776 185.317 363.958 185.784 364.322C186.251 364.686 186.526 365.213 186.61 365.904H185.448C185.401 365.549 185.247 365.274 184.986 365.078C184.734 364.873 184.384 364.77 183.936 364.77C183.497 364.77 183.161 364.859 182.928 365.036C182.704 365.213 182.592 365.447 182.592 365.736C182.592 365.923 182.653 366.091 182.774 366.24C182.905 366.38 183.091 366.501 183.334 366.604C183.586 366.707 183.894 366.791 184.258 366.856C184.725 366.94 185.149 367.052 185.532 367.192C185.915 367.332 186.223 367.542 186.456 367.822C186.699 368.093 186.82 368.48 186.82 368.984C186.82 369.423 186.708 369.805 186.484 370.132C186.269 370.459 185.961 370.715 185.56 370.902C185.159 371.079 184.687 371.168 184.146 371.168Z" fill="#EEEFF1"/>
<path d="M316.05 266V256.2H319.242C320.017 256.2 320.651 256.331 321.146 256.592C321.65 256.844 322.019 257.185 322.252 257.614C322.495 258.043 322.616 258.533 322.616 259.084C322.616 259.616 322.495 260.101 322.252 260.54C322.019 260.969 321.655 261.315 321.16 261.576C320.665 261.837 320.026 261.968 319.242 261.968H317.226V266H316.05ZM317.226 260.974H319.228C320.012 260.974 320.572 260.801 320.908 260.456C321.244 260.111 321.412 259.653 321.412 259.084C321.412 258.477 321.244 258.011 320.908 257.684C320.572 257.348 320.012 257.18 319.228 257.18H317.226V260.974ZM324.871 269.08L326.593 265.216H326.187L323.415 258.944H324.689L326.985 264.334L329.393 258.944H330.611L326.103 269.08H324.871ZM334.652 266C334.232 266 333.868 265.935 333.56 265.804C333.252 265.673 333.014 265.454 332.846 265.146C332.688 264.829 332.608 264.404 332.608 263.872V259.938H331.376V258.944H332.608L332.762 257.236H333.784V258.944H335.828V259.938H333.784V263.872C333.784 264.311 333.873 264.609 334.05 264.768C334.228 264.917 334.54 264.992 334.988 264.992H335.744V266H334.652ZM337.363 266V255.92H338.539V260.134C338.772 259.714 339.099 259.383 339.519 259.14C339.948 258.897 340.415 258.776 340.919 258.776C341.46 258.776 341.931 258.888 342.333 259.112C342.734 259.327 343.042 259.658 343.257 260.106C343.471 260.554 343.579 261.119 343.579 261.8V266H342.417V261.926C342.417 261.217 342.267 260.685 341.969 260.33C341.67 259.966 341.236 259.784 340.667 259.784C340.265 259.784 339.901 259.882 339.575 260.078C339.257 260.274 339.005 260.554 338.819 260.918C338.632 261.282 338.539 261.73 338.539 262.262V266H337.363ZM348.566 266.168C347.912 266.168 347.324 266.019 346.802 265.72C346.279 265.412 345.868 264.983 345.57 264.432C345.271 263.872 345.122 263.223 345.122 262.486C345.122 261.73 345.271 261.077 345.57 260.526C345.878 259.966 346.293 259.537 346.816 259.238C347.348 258.93 347.94 258.776 348.594 258.776C349.266 258.776 349.858 258.93 350.372 259.238C350.894 259.537 351.305 259.966 351.604 260.526C351.912 261.077 352.066 261.725 352.066 262.472C352.066 263.219 351.912 263.872 351.604 264.432C351.296 264.983 350.88 265.412 350.358 265.72C349.835 266.019 349.238 266.168 348.566 266.168ZM348.58 265.16C348.981 265.16 349.354 265.062 349.7 264.866C350.045 264.661 350.325 264.357 350.54 263.956C350.754 263.555 350.862 263.06 350.862 262.472C350.862 261.875 350.754 261.38 350.54 260.988C350.334 260.587 350.059 260.288 349.714 260.092C349.378 259.887 349.004 259.784 348.594 259.784C348.202 259.784 347.828 259.887 347.474 260.092C347.128 260.288 346.848 260.587 346.634 260.988C346.428 261.38 346.326 261.875 346.326 262.472C346.326 263.06 346.428 263.555 346.634 263.956C346.848 264.357 347.124 264.661 347.46 264.866C347.805 265.062 348.178 265.16 348.58 265.16ZM353.714 266V258.944H354.778L354.834 260.176C355.058 259.737 355.376 259.397 355.786 259.154C356.206 258.902 356.682 258.776 357.214 258.776C357.765 258.776 358.241 258.888 358.642 259.112C359.044 259.327 359.356 259.658 359.58 260.106C359.804 260.545 359.916 261.105 359.916 261.786V266H358.74V261.912C358.74 261.203 358.582 260.671 358.264 260.316C357.956 259.961 357.518 259.784 356.948 259.784C356.556 259.784 356.206 259.882 355.898 260.078C355.59 260.265 355.343 260.54 355.156 260.904C354.979 261.259 354.89 261.702 354.89 262.234V266H353.714Z" fill="#ACADAE"/>
<path d="M327.234 336.168C326.646 336.168 326.137 336.056 325.708 335.832C325.288 335.608 324.961 335.286 324.728 334.866C324.504 334.446 324.392 333.947 324.392 333.368H325.582C325.582 333.695 325.633 333.993 325.736 334.264C325.848 334.525 326.021 334.735 326.254 334.894C326.497 335.043 326.819 335.118 327.22 335.118C327.612 335.118 327.92 335.043 328.144 334.894C328.377 334.745 328.541 334.544 328.634 334.292C328.737 334.031 328.788 333.737 328.788 333.41V326.2H329.964V333.41C329.964 334.287 329.721 334.969 329.236 335.454C328.76 335.93 328.093 336.168 327.234 336.168ZM334.29 336.168C333.72 336.168 333.244 336.07 332.862 335.874C332.479 335.669 332.194 335.403 332.008 335.076C331.821 334.74 331.728 334.376 331.728 333.984C331.728 333.508 331.849 333.107 332.092 332.78C332.344 332.444 332.694 332.192 333.142 332.024C333.599 331.847 334.136 331.758 334.752 331.758H336.614C336.614 331.319 336.544 330.955 336.404 330.666C336.273 330.367 336.077 330.143 335.816 329.994C335.564 329.845 335.246 329.77 334.864 329.77C334.416 329.77 334.028 329.882 333.702 330.106C333.375 330.33 333.174 330.661 333.1 331.1H331.896C331.952 330.596 332.12 330.176 332.4 329.84C332.689 329.495 333.053 329.233 333.492 329.056C333.93 328.869 334.388 328.776 334.864 328.776C335.517 328.776 336.058 328.897 336.488 329.14C336.926 329.373 337.253 329.705 337.468 330.134C337.682 330.554 337.79 331.053 337.79 331.632V336H336.74L336.67 334.754C336.576 334.95 336.455 335.137 336.306 335.314C336.166 335.482 335.998 335.631 335.802 335.762C335.606 335.883 335.382 335.981 335.13 336.056C334.887 336.131 334.607 336.168 334.29 336.168ZM334.472 335.174C334.798 335.174 335.092 335.109 335.354 334.978C335.624 334.838 335.853 334.651 336.04 334.418C336.226 334.175 336.366 333.909 336.46 333.62C336.562 333.331 336.614 333.027 336.614 332.71V332.668H334.85C334.392 332.668 334.024 332.724 333.744 332.836C333.464 332.939 333.263 333.088 333.142 333.284C333.02 333.471 332.96 333.685 332.96 333.928C332.96 334.18 333.016 334.399 333.128 334.586C333.249 334.773 333.422 334.917 333.646 335.02C333.879 335.123 334.154 335.174 334.472 335.174ZM341.379 336L338.705 328.944H339.937L342.065 334.866L344.207 328.944H345.411L342.737 336H341.379ZM348.672 336.168C348.103 336.168 347.627 336.07 347.244 335.874C346.862 335.669 346.577 335.403 346.39 335.076C346.204 334.74 346.11 334.376 346.11 333.984C346.11 333.508 346.232 333.107 346.474 332.78C346.726 332.444 347.076 332.192 347.524 332.024C347.982 331.847 348.518 331.758 349.134 331.758H350.996C350.996 331.319 350.926 330.955 350.786 330.666C350.656 330.367 350.46 330.143 350.198 329.994C349.946 329.845 349.629 329.77 349.246 329.77C348.798 329.77 348.411 329.882 348.084 330.106C347.758 330.33 347.557 330.661 347.482 331.1H346.278C346.334 330.596 346.502 330.176 346.782 329.84C347.072 329.495 347.436 329.233 347.874 329.056C348.313 328.869 348.77 328.776 349.246 328.776C349.9 328.776 350.441 328.897 350.87 329.14C351.309 329.373 351.636 329.705 351.85 330.134C352.065 330.554 352.172 331.053 352.172 331.632V336H351.122L351.052 334.754C350.959 334.95 350.838 335.137 350.688 335.314C350.548 335.482 350.38 335.631 350.184 335.762C349.988 335.883 349.764 335.981 349.512 336.056C349.27 336.131 348.99 336.168 348.672 336.168ZM348.854 335.174C349.181 335.174 349.475 335.109 349.736 334.978C350.007 334.838 350.236 334.651 350.422 334.418C350.609 334.175 350.749 333.909 350.842 333.62C350.945 333.331 350.996 333.027 350.996 332.71V332.668H349.232C348.775 332.668 348.406 332.724 348.126 332.836C347.846 332.939 347.646 333.088 347.524 333.284C347.403 333.471 347.342 333.685 347.342 333.928C347.342 334.18 347.398 334.399 347.51 334.586C347.632 334.773 347.804 334.917 348.028 335.02C348.262 335.123 348.537 335.174 348.854 335.174Z" fill="#ACADAE"/>
<path d="M326.05 371V361.2H329.214C329.979 361.2 330.605 361.331 331.09 361.592C331.575 361.844 331.935 362.185 332.168 362.614C332.401 363.043 332.518 363.529 332.518 364.07C332.518 364.593 332.397 365.073 332.154 365.512C331.921 365.951 331.557 366.301 331.062 366.562C330.567 366.823 329.933 366.954 329.158 366.954H327.226V371H326.05ZM331.23 371L329.074 366.618H330.39L332.616 371H331.23ZM327.226 366.03H329.13C329.877 366.03 330.423 365.848 330.768 365.484C331.123 365.12 331.3 364.653 331.3 364.084C331.3 363.505 331.127 363.048 330.782 362.712C330.446 362.367 329.891 362.194 329.116 362.194H327.226V366.03ZM336.855 371.168C336.313 371.168 335.837 371.061 335.427 370.846C335.025 370.631 334.713 370.3 334.489 369.852C334.274 369.404 334.167 368.844 334.167 368.172V363.944H335.343V368.046C335.343 368.746 335.497 369.273 335.805 369.628C336.113 369.983 336.547 370.16 337.107 370.16C337.499 370.16 337.853 370.067 338.171 369.88C338.488 369.684 338.735 369.409 338.913 369.054C339.099 368.69 339.193 368.247 339.193 367.724V363.944H340.369V371H339.305L339.235 369.768C339.02 370.207 338.703 370.552 338.283 370.804C337.863 371.047 337.387 371.168 336.855 371.168ZM344.978 371.168C344.39 371.168 343.877 371.07 343.438 370.874C343.009 370.678 342.663 370.407 342.402 370.062C342.15 369.707 341.996 369.292 341.94 368.816H343.144C343.191 369.059 343.289 369.283 343.438 369.488C343.587 369.693 343.788 369.861 344.04 369.992C344.301 370.113 344.619 370.174 344.992 370.174C345.319 370.174 345.589 370.127 345.804 370.034C346.019 369.931 346.177 369.796 346.28 369.628C346.392 369.46 346.448 369.278 346.448 369.082C346.448 368.793 346.378 368.573 346.238 368.424C346.107 368.275 345.911 368.158 345.65 368.074C345.389 367.981 345.071 367.901 344.698 367.836C344.39 367.78 344.087 367.705 343.788 367.612C343.489 367.519 343.223 367.397 342.99 367.248C342.757 367.089 342.57 366.898 342.43 366.674C342.299 366.45 342.234 366.175 342.234 365.848C342.234 365.447 342.337 365.092 342.542 364.784C342.747 364.467 343.041 364.219 343.424 364.042C343.816 363.865 344.269 363.776 344.782 363.776C345.538 363.776 346.149 363.958 346.616 364.322C347.083 364.686 347.358 365.213 347.442 365.904H346.28C346.233 365.549 346.079 365.274 345.818 365.078C345.566 364.873 345.216 364.77 344.768 364.77C344.329 364.77 343.993 364.859 343.76 365.036C343.536 365.213 343.424 365.447 343.424 365.736C343.424 365.923 343.485 366.091 343.606 366.24C343.737 366.38 343.923 366.501 344.166 366.604C344.418 366.707 344.726 366.791 345.09 366.856C345.557 366.94 345.981 367.052 346.364 367.192C346.747 367.332 347.055 367.542 347.288 367.822C347.531 368.093 347.652 368.48 347.652 368.984C347.652 369.423 347.54 369.805 347.316 370.132C347.101 370.459 346.793 370.715 346.392 370.902C345.991 371.079 345.519 371.168 344.978 371.168ZM351.803 371C351.383 371 351.019 370.935 350.711 370.804C350.403 370.673 350.165 370.454 349.997 370.146C349.838 369.829 349.759 369.404 349.759 368.872V364.938H348.527V363.944H349.759L349.913 362.236H350.935V363.944H352.979V364.938H350.935V368.872C350.935 369.311 351.023 369.609 351.201 369.768C351.378 369.917 351.691 369.992 352.139 369.992H352.895V371H351.803Z" fill="#ACADAE"/>
<path d="M57.5 278.5H401.5V313.5H57.5V278.5Z" fill="#1D1F22" stroke="#86888E"/>
<path d="M314.05 301V291.2H315.226L320.448 299.054V291.2H321.624V301H320.448L315.226 293.146V301H314.05ZM326.81 301.168C326.156 301.168 325.568 301.019 325.046 300.72C324.523 300.412 324.112 299.983 323.814 299.432C323.515 298.872 323.366 298.223 323.366 297.486C323.366 296.73 323.515 296.077 323.814 295.526C324.122 294.966 324.537 294.537 325.06 294.238C325.592 293.93 326.184 293.776 326.838 293.776C327.51 293.776 328.102 293.93 328.616 294.238C329.138 294.537 329.549 294.966 329.848 295.526C330.156 296.077 330.31 296.725 330.31 297.472C330.31 298.219 330.156 298.872 329.848 299.432C329.54 299.983 329.124 300.412 328.602 300.72C328.079 301.019 327.482 301.168 326.81 301.168ZM326.824 300.16C327.225 300.16 327.598 300.062 327.944 299.866C328.289 299.661 328.569 299.357 328.784 298.956C328.998 298.555 329.106 298.06 329.106 297.472C329.106 296.875 328.998 296.38 328.784 295.988C328.578 295.587 328.303 295.288 327.958 295.092C327.622 294.887 327.248 294.784 326.838 294.784C326.446 294.784 326.072 294.887 325.718 295.092C325.372 295.288 325.092 295.587 324.878 295.988C324.672 296.38 324.57 296.875 324.57 297.472C324.57 298.06 324.672 298.555 324.878 298.956C325.092 299.357 325.368 299.661 325.704 299.866C326.049 300.062 326.422 300.16 326.824 300.16ZM335.067 301.168C334.385 301.168 333.788 301.009 333.275 300.692C332.761 300.365 332.365 299.922 332.085 299.362C331.805 298.802 331.665 298.167 331.665 297.458C331.665 296.749 331.805 296.119 332.085 295.568C332.365 295.008 332.761 294.569 333.275 294.252C333.797 293.935 334.399 293.776 335.081 293.776C335.659 293.776 336.163 293.893 336.593 294.126C337.031 294.359 337.367 294.686 337.601 295.106V290.92H338.777V301H337.713L337.615 299.838C337.465 300.071 337.274 300.291 337.041 300.496C336.807 300.692 336.527 300.855 336.201 300.986C335.874 301.107 335.496 301.168 335.067 301.168ZM335.207 300.146C335.673 300.146 336.084 300.034 336.439 299.81C336.793 299.586 337.069 299.278 337.265 298.886C337.461 298.485 337.559 298.013 337.559 297.472C337.559 296.94 337.461 296.473 337.265 296.072C337.069 295.671 336.793 295.358 336.439 295.134C336.084 294.91 335.673 294.798 335.207 294.798C334.749 294.798 334.343 294.91 333.989 295.134C333.634 295.358 333.359 295.671 333.163 296.072C332.967 296.473 332.869 296.94 332.869 297.472C332.869 298.013 332.967 298.485 333.163 298.886C333.359 299.278 333.634 299.586 333.989 299.81C334.343 300.034 334.749 300.146 335.207 300.146ZM343.83 301.168C343.167 301.168 342.579 301.014 342.066 300.706C341.562 300.398 341.165 299.969 340.876 299.418C340.587 298.858 340.442 298.209 340.442 297.472C340.442 296.725 340.582 296.077 340.862 295.526C341.151 294.975 341.553 294.546 342.066 294.238C342.589 293.93 343.186 293.776 343.858 293.776C344.549 293.776 345.132 293.93 345.608 294.238C346.093 294.546 346.462 294.952 346.714 295.456C346.975 295.951 347.106 296.497 347.106 297.094C347.106 297.187 347.106 297.285 347.106 297.388C347.106 297.491 347.101 297.607 347.092 297.738H341.324V296.828H345.958C345.93 296.184 345.715 295.68 345.314 295.316C344.922 294.952 344.427 294.77 343.83 294.77C343.429 294.77 343.055 294.863 342.71 295.05C342.374 295.227 342.103 295.493 341.898 295.848C341.693 296.193 341.59 296.627 341.59 297.15V297.542C341.59 298.121 341.693 298.606 341.898 298.998C342.113 299.39 342.388 299.684 342.724 299.88C343.069 300.076 343.438 300.174 343.83 300.174C344.325 300.174 344.731 300.067 345.048 299.852C345.375 299.628 345.608 299.329 345.748 298.956H346.91C346.798 299.376 346.602 299.754 346.322 300.09C346.042 300.426 345.692 300.692 345.272 300.888C344.861 301.075 344.381 301.168 343.83 301.168ZM350.947 301.168C350.359 301.168 349.85 301.056 349.421 300.832C349.001 300.608 348.674 300.286 348.441 299.866C348.217 299.446 348.105 298.947 348.105 298.368H349.295C349.295 298.695 349.346 298.993 349.449 299.264C349.561 299.525 349.734 299.735 349.967 299.894C350.21 300.043 350.532 300.118 350.933 300.118C351.325 300.118 351.633 300.043 351.857 299.894C352.09 299.745 352.254 299.544 352.347 299.292C352.45 299.031 352.501 298.737 352.501 298.41V291.2H353.677V298.41C353.677 299.287 353.434 299.969 352.949 300.454C352.473 300.93 351.806 301.168 350.947 301.168ZM358.899 301.168C358.18 301.168 357.555 301.037 357.023 300.776C356.491 300.515 356.08 300.151 355.791 299.684C355.501 299.217 355.357 298.676 355.357 298.06H356.589C356.589 298.443 356.677 298.797 356.855 299.124C357.032 299.441 357.289 299.698 357.625 299.894C357.97 300.081 358.395 300.174 358.899 300.174C359.337 300.174 359.711 300.104 360.019 299.964C360.336 299.815 360.574 299.614 360.733 299.362C360.901 299.11 360.985 298.825 360.985 298.508C360.985 298.125 360.901 297.817 360.733 297.584C360.574 297.341 360.355 297.145 360.075 296.996C359.795 296.847 359.468 296.716 359.095 296.604C358.731 296.483 358.348 296.357 357.947 296.226C357.172 295.965 356.603 295.638 356.239 295.246C355.875 294.854 355.693 294.345 355.693 293.72C355.693 293.188 355.814 292.721 356.057 292.32C356.309 291.919 356.663 291.606 357.121 291.382C357.587 291.149 358.138 291.032 358.773 291.032C359.398 291.032 359.939 291.149 360.397 291.382C360.863 291.615 361.227 291.937 361.489 292.348C361.75 292.749 361.881 293.216 361.881 293.748H360.649C360.649 293.477 360.579 293.211 360.439 292.95C360.299 292.689 360.084 292.474 359.795 292.306C359.515 292.129 359.16 292.04 358.731 292.04C358.376 292.031 358.059 292.091 357.779 292.222C357.508 292.343 357.293 292.521 357.135 292.754C356.985 292.987 356.911 293.272 356.911 293.608C356.911 293.925 356.976 294.182 357.107 294.378C357.247 294.574 357.443 294.742 357.695 294.882C357.956 295.013 358.259 295.134 358.605 295.246C358.95 295.358 359.333 295.484 359.753 295.624C360.229 295.783 360.649 295.979 361.013 296.212C361.386 296.436 361.675 296.725 361.881 297.08C362.095 297.435 362.203 297.887 362.203 298.438C362.203 298.905 362.077 299.348 361.825 299.768C361.582 300.179 361.218 300.515 360.733 300.776C360.247 301.037 359.636 301.168 358.899 301.168Z" fill="#ACADAE"/>
<path d="M68.98 301V293.944H70.044L70.128 295.288C70.2867 294.971 70.4873 294.7 70.73 294.476C70.982 294.252 71.2807 294.079 71.626 293.958C71.9807 293.837 72.382 293.776 72.83 293.776V295.008H72.396C72.0973 295.008 71.8127 295.05 71.542 295.134C71.2713 295.209 71.0287 295.335 70.814 295.512C70.6087 295.689 70.4453 295.932 70.324 296.24C70.212 296.539 70.156 296.912 70.156 297.36V301H68.98ZM76.7236 301.168C76.1823 301.168 75.7063 301.061 75.2956 300.846C74.8943 300.631 74.5816 300.3 74.3576 299.852C74.143 299.404 74.0356 298.844 74.0356 298.172V293.944H75.2116V298.046C75.2116 298.746 75.3656 299.273 75.6736 299.628C75.9816 299.983 76.4156 300.16 76.9756 300.16C77.3676 300.16 77.7223 300.067 78.0396 299.88C78.357 299.684 78.6043 299.409 78.7816 299.054C78.9683 298.69 79.0616 298.247 79.0616 297.724V293.944H80.2376V301H79.1736L79.1036 299.768C78.889 300.207 78.5716 300.552 78.1516 300.804C77.7316 301.047 77.2556 301.168 76.7236 301.168ZM82.187 301V293.944H83.251L83.307 295.176C83.531 294.737 83.8484 294.397 84.259 294.154C84.679 293.902 85.155 293.776 85.687 293.776C86.2377 293.776 86.7137 293.888 87.115 294.112C87.5164 294.327 87.829 294.658 88.053 295.106C88.277 295.545 88.389 296.105 88.389 296.786V301H87.213V296.912C87.213 296.203 87.0544 295.671 86.737 295.316C86.429 294.961 85.9904 294.784 85.421 294.784C85.029 294.784 84.679 294.882 84.371 295.078C84.063 295.265 83.8157 295.54 83.629 295.904C83.4517 296.259 83.363 296.702 83.363 297.234V301H82.187ZM90.2541 302.61V301.504H97.4781V302.61H90.2541ZM99.5803 301V293.944H100.756V301H99.5803ZM100.168 292.446C99.9349 292.446 99.7389 292.371 99.5803 292.222C99.4309 292.063 99.3563 291.867 99.3563 291.634C99.3563 291.401 99.4309 291.214 99.5803 291.074C99.7389 290.925 99.9349 290.85 100.168 290.85C100.392 290.85 100.584 290.925 100.742 291.074C100.901 291.214 100.98 291.401 100.98 291.634C100.98 291.867 100.901 292.063 100.742 292.222C100.584 292.371 100.392 292.446 100.168 292.446ZM102.832 301V293.944H103.896L103.952 295.176C104.176 294.737 104.493 294.397 104.904 294.154C105.324 293.902 105.8 293.776 106.332 293.776C106.882 293.776 107.358 293.888 107.76 294.112C108.161 294.327 108.474 294.658 108.698 295.106C108.922 295.545 109.034 296.105 109.034 296.786V301H107.858V296.912C107.858 296.203 107.699 295.671 107.382 295.316C107.074 294.961 106.635 294.784 106.066 294.784C105.674 294.784 105.324 294.882 105.016 295.078C104.708 295.265 104.46 295.54 104.274 295.904C104.096 296.259 104.008 296.702 104.008 297.234V301H102.832ZM112.764 301L110.09 293.944H111.322L113.45 299.866L115.592 293.944H116.796L114.122 301H112.764ZM120.855 301.168C120.193 301.168 119.605 301.014 119.091 300.706C118.587 300.398 118.191 299.969 117.901 299.418C117.612 298.858 117.467 298.209 117.467 297.472C117.467 296.725 117.607 296.077 117.887 295.526C118.177 294.975 118.578 294.546 119.091 294.238C119.614 293.93 120.211 293.776 120.883 293.776C121.574 293.776 122.157 293.93 122.633 294.238C123.119 294.546 123.487 294.952 123.739 295.456C124.001 295.951 124.131 296.497 124.131 297.094C124.131 297.187 124.131 297.285 124.131 297.388C124.131 297.491 124.127 297.607 124.117 297.738H118.349V296.828H122.983C122.955 296.184 122.741 295.68 122.339 295.316C121.947 294.952 121.453 294.77 120.855 294.77C120.454 294.77 120.081 294.863 119.735 295.05C119.399 295.227 119.129 295.493 118.923 295.848C118.718 296.193 118.615 296.627 118.615 297.15V297.542C118.615 298.121 118.718 298.606 118.923 298.998C119.138 299.39 119.413 299.684 119.749 299.88C120.095 300.076 120.463 300.174 120.855 300.174C121.35 300.174 121.756 300.067 122.073 299.852C122.4 299.628 122.633 299.329 122.773 298.956H123.935C123.823 299.376 123.627 299.754 123.347 300.09C123.067 300.426 122.717 300.692 122.297 300.888C121.887 301.075 121.406 301.168 120.855 301.168ZM125.718 301V293.944H126.782L126.838 295.176C127.062 294.737 127.38 294.397 127.79 294.154C128.21 293.902 128.686 293.776 129.218 293.776C129.769 293.776 130.245 293.888 130.646 294.112C131.048 294.327 131.36 294.658 131.584 295.106C131.808 295.545 131.92 296.105 131.92 296.786V301H130.744V296.912C130.744 296.203 130.586 295.671 130.268 295.316C129.96 294.961 129.522 294.784 128.952 294.784C128.56 294.784 128.21 294.882 127.902 295.078C127.594 295.265 127.347 295.54 127.16 295.904C126.983 296.259 126.894 296.702 126.894 297.234V301H125.718ZM136.529 301C136.109 301 135.745 300.935 135.437 300.804C135.129 300.673 134.891 300.454 134.723 300.146C134.565 299.829 134.485 299.404 134.485 298.872V294.938H133.253V293.944H134.485L134.639 292.236H135.661V293.944H137.705V294.938H135.661V298.872C135.661 299.311 135.75 299.609 135.927 299.768C136.105 299.917 136.417 299.992 136.865 299.992H137.621V301H136.529ZM142.198 301.168C141.545 301.168 140.957 301.019 140.434 300.72C139.912 300.412 139.501 299.983 139.202 299.432C138.904 298.872 138.754 298.223 138.754 297.486C138.754 296.73 138.904 296.077 139.202 295.526C139.51 294.966 139.926 294.537 140.448 294.238C140.98 293.93 141.573 293.776 142.226 293.776C142.898 293.776 143.491 293.93 144.004 294.238C144.527 294.537 144.938 294.966 145.236 295.526C145.544 296.077 145.698 296.725 145.698 297.472C145.698 298.219 145.544 298.872 145.236 299.432C144.928 299.983 144.513 300.412 143.99 300.72C143.468 301.019 142.87 301.168 142.198 301.168ZM142.212 300.16C142.614 300.16 142.987 300.062 143.332 299.866C143.678 299.661 143.958 299.357 144.172 298.956C144.387 298.555 144.494 298.06 144.494 297.472C144.494 296.875 144.387 296.38 144.172 295.988C143.967 295.587 143.692 295.288 143.346 295.092C143.01 294.887 142.637 294.784 142.226 294.784C141.834 294.784 141.461 294.887 141.106 295.092C140.761 295.288 140.481 295.587 140.266 295.988C140.061 296.38 139.958 296.875 139.958 297.472C139.958 298.06 140.061 298.555 140.266 298.956C140.481 299.357 140.756 299.661 141.092 299.866C141.438 300.062 141.811 300.16 142.212 300.16ZM147.347 301V293.944H148.411L148.495 295.288C148.654 294.971 148.855 294.7 149.097 294.476C149.349 294.252 149.648 294.079 149.993 293.958C150.348 293.837 150.749 293.776 151.197 293.776V295.008H150.763C150.465 295.008 150.18 295.05 149.909 295.134C149.639 295.209 149.396 295.335 149.181 295.512C148.976 295.689 148.813 295.932 148.691 296.24C148.579 296.539 148.523 296.912 148.523 297.36V301H147.347ZM153.299 304.08L155.021 300.216H154.615L151.843 293.944H153.117L155.413 299.334L157.821 293.944H159.039L154.531 304.08H153.299Z" fill="#EEEFF1"/>
<path d="M90.05 229V219.2H91.226L96.448 227.054V219.2H97.624V229H96.448L91.226 221.146V229H90.05ZM101.956 229.168C101.386 229.168 100.91 229.07 100.528 228.874C100.145 228.669 99.8604 228.403 99.6737 228.076C99.487 227.74 99.3937 227.376 99.3937 226.984C99.3937 226.508 99.515 226.107 99.7577 225.78C100.01 225.444 100.36 225.192 100.808 225.024C101.265 224.847 101.802 224.758 102.418 224.758H104.28C104.28 224.319 104.21 223.955 104.07 223.666C103.939 223.367 103.743 223.143 103.482 222.994C103.23 222.845 102.912 222.77 102.53 222.77C102.082 222.77 101.694 222.882 101.368 223.106C101.041 223.33 100.84 223.661 100.766 224.1H99.5617C99.6177 223.596 99.7857 223.176 100.066 222.84C100.355 222.495 100.719 222.233 101.158 222.056C101.596 221.869 102.054 221.776 102.53 221.776C103.183 221.776 103.724 221.897 104.154 222.14C104.592 222.373 104.919 222.705 105.134 223.134C105.348 223.554 105.456 224.053 105.456 224.632V229H104.406L104.336 227.754C104.242 227.95 104.121 228.137 103.972 228.314C103.832 228.482 103.664 228.631 103.468 228.762C103.272 228.883 103.048 228.981 102.796 229.056C102.553 229.131 102.273 229.168 101.956 229.168ZM102.138 228.174C102.464 228.174 102.758 228.109 103.02 227.978C103.29 227.838 103.519 227.651 103.706 227.418C103.892 227.175 104.032 226.909 104.126 226.62C104.228 226.331 104.28 226.027 104.28 225.71V225.668H102.516C102.058 225.668 101.69 225.724 101.41 225.836C101.13 225.939 100.929 226.088 100.808 226.284C100.686 226.471 100.626 226.685 100.626 226.928C100.626 227.18 100.682 227.399 100.794 227.586C100.915 227.773 101.088 227.917 101.312 228.02C101.545 228.123 101.82 228.174 102.138 228.174ZM107.275 229V221.944H108.339L108.409 222.952C108.633 222.588 108.932 222.303 109.305 222.098C109.688 221.883 110.103 221.776 110.551 221.776C110.915 221.776 111.242 221.827 111.531 221.93C111.83 222.023 112.091 222.173 112.315 222.378C112.539 222.574 112.721 222.826 112.861 223.134C113.104 222.705 113.435 222.373 113.855 222.14C114.284 221.897 114.742 221.776 115.227 221.776C115.768 221.776 116.24 221.888 116.641 222.112C117.052 222.327 117.364 222.658 117.579 223.106C117.803 223.545 117.915 224.105 117.915 224.786V229H116.753V224.912C116.753 224.203 116.608 223.671 116.319 223.316C116.03 222.961 115.624 222.784 115.101 222.784C114.737 222.784 114.41 222.882 114.121 223.078C113.832 223.265 113.603 223.54 113.435 223.904C113.267 224.268 113.183 224.716 113.183 225.248V229H112.007V224.912C112.007 224.203 111.862 223.671 111.573 223.316C111.284 222.961 110.873 222.784 110.341 222.784C109.986 222.784 109.664 222.882 109.375 223.078C109.095 223.265 108.871 223.54 108.703 223.904C108.535 224.268 108.451 224.716 108.451 225.248V229H107.275ZM122.838 229.168C122.175 229.168 121.587 229.014 121.074 228.706C120.57 228.398 120.173 227.969 119.884 227.418C119.594 226.858 119.45 226.209 119.45 225.472C119.45 224.725 119.59 224.077 119.87 223.526C120.159 222.975 120.56 222.546 121.074 222.238C121.596 221.93 122.194 221.776 122.866 221.776C123.556 221.776 124.14 221.93 124.616 222.238C125.101 222.546 125.47 222.952 125.722 223.456C125.983 223.951 126.114 224.497 126.114 225.094C126.114 225.187 126.114 225.285 126.114 225.388C126.114 225.491 126.109 225.607 126.1 225.738H120.332V224.828H124.966C124.938 224.184 124.723 223.68 124.322 223.316C123.93 222.952 123.435 222.77 122.838 222.77C122.436 222.77 122.063 222.863 121.718 223.05C121.382 223.227 121.111 223.493 120.906 223.848C120.7 224.193 120.598 224.627 120.598 225.15V225.542C120.598 226.121 120.7 226.606 120.906 226.998C121.12 227.39 121.396 227.684 121.732 227.88C122.077 228.076 122.446 228.174 122.838 228.174C123.332 228.174 123.738 228.067 124.056 227.852C124.382 227.628 124.616 227.329 124.756 226.956H125.918C125.806 227.376 125.61 227.754 125.33 228.09C125.05 228.426 124.7 228.692 124.28 228.888C123.869 229.075 123.388 229.168 122.838 229.168Z" fill="#EEEFF1"/>
<path d="M74.1381 229.625H75.7863C77.1784 229.625 77.8745 229.625 78.4556 229.292C79.0366 228.959 79.4055 228.349 80.1434 227.128L80.5689 226.424C81.1896 225.397 81.5 224.884 81.5 224.312C81.5 223.741 81.1896 223.228 80.5689 222.201L80.1434 221.497C79.4055 220.276 79.0366 219.666 78.4556 219.333C77.8745 219 77.1784 219 75.7863 219H74.1381C71.716 219 70.5049 219 69.7525 219.778C69 220.556 69 221.808 69 224.312C69 226.817 69 228.069 69.7525 228.847C70.5049 229.625 71.716 229.625 74.1381 229.625Z" stroke="#86888E" stroke-linecap="round"/>
<path d="M74.7139 225.8L74.3794 224.965H72.6899L72.3555 225.8H71.8647L73.2686 222.35H73.8154L75.2192 225.8H74.7139ZM72.8608 224.54H74.2109L73.5347 222.846L72.8608 224.54ZM77.7217 223.251H78.1514V225.8H77.7217V225.341C77.6126 225.504 77.4718 225.631 77.2993 225.724C77.1284 225.815 76.9388 225.861 76.7305 225.861C76.4912 225.861 76.2739 225.803 76.0786 225.688C75.8833 225.57 75.7303 225.41 75.6196 225.207C75.5106 225.001 75.4561 224.774 75.4561 224.525C75.4561 224.276 75.5106 224.05 75.6196 223.847C75.7303 223.642 75.8833 223.481 76.0786 223.366C76.2739 223.249 76.4912 223.19 76.7305 223.19C76.9388 223.19 77.1284 223.236 77.2993 223.329C77.4718 223.42 77.6126 223.547 77.7217 223.71V223.251ZM76.811 225.446C77.0715 225.446 77.2879 225.358 77.4604 225.182C77.6346 225.006 77.7217 224.787 77.7217 224.525C77.7217 224.263 77.6346 224.044 77.4604 223.869C77.2879 223.693 77.0715 223.605 76.811 223.605C76.549 223.605 76.3309 223.693 76.1567 223.869C75.9826 224.044 75.8955 224.263 75.8955 224.525C75.8955 224.787 75.9826 225.006 76.1567 225.182C76.3309 225.358 76.549 225.446 76.811 225.446Z" fill="#86888E"/>
<path d="M319.05 229V219.2H320.226V228.062H324.79V229H319.05ZM328.659 229.168C328.089 229.168 327.613 229.07 327.231 228.874C326.848 228.669 326.563 228.403 326.377 228.076C326.19 227.74 326.097 227.376 326.097 226.984C326.097 226.508 326.218 226.107 326.461 225.78C326.713 225.444 327.063 225.192 327.511 225.024C327.968 224.847 328.505 224.758 329.121 224.758H330.983C330.983 224.319 330.913 223.955 330.773 223.666C330.642 223.367 330.446 223.143 330.185 222.994C329.933 222.845 329.615 222.77 329.233 222.77C328.785 222.77 328.397 222.882 328.071 223.106C327.744 223.33 327.543 223.661 327.469 224.1H326.265C326.321 223.596 326.489 223.176 326.769 222.84C327.058 222.495 327.422 222.233 327.861 222.056C328.299 221.869 328.757 221.776 329.233 221.776C329.886 221.776 330.427 221.897 330.857 222.14C331.295 222.373 331.622 222.705 331.837 223.134C332.051 223.554 332.159 224.053 332.159 224.632V229H331.109L331.039 227.754C330.945 227.95 330.824 228.137 330.675 228.314C330.535 228.482 330.367 228.631 330.171 228.762C329.975 228.883 329.751 228.981 329.499 229.056C329.256 229.131 328.976 229.168 328.659 229.168ZM328.841 228.174C329.167 228.174 329.461 228.109 329.723 227.978C329.993 227.838 330.222 227.651 330.409 227.418C330.595 227.175 330.735 226.909 330.829 226.62C330.931 226.331 330.983 226.027 330.983 225.71V225.668H329.219C328.761 225.668 328.393 225.724 328.113 225.836C327.833 225.939 327.632 226.088 327.511 226.284C327.389 226.471 327.329 226.685 327.329 226.928C327.329 227.18 327.385 227.399 327.497 227.586C327.618 227.773 327.791 227.917 328.015 228.02C328.248 228.123 328.523 228.174 328.841 228.174ZM333.978 229V221.944H335.042L335.098 223.176C335.322 222.737 335.639 222.397 336.05 222.154C336.47 221.902 336.946 221.776 337.478 221.776C338.029 221.776 338.505 221.888 338.906 222.112C339.307 222.327 339.62 222.658 339.844 223.106C340.068 223.545 340.18 224.105 340.18 224.786V229H339.004V224.912C339.004 224.203 338.845 223.671 338.528 223.316C338.22 222.961 337.781 222.784 337.212 222.784C336.82 222.784 336.47 222.882 336.162 223.078C335.854 223.265 335.607 223.54 335.42 223.904C335.243 224.259 335.154 224.702 335.154 225.234V229H333.978ZM344.803 232.248C344.168 232.248 343.604 232.164 343.109 231.996C342.624 231.837 342.246 231.59 341.975 231.254C341.704 230.918 341.569 230.503 341.569 230.008C341.569 229.793 341.611 229.565 341.695 229.322C341.788 229.079 341.942 228.841 342.157 228.608C342.381 228.375 342.694 228.165 343.095 227.978L343.907 228.454C343.412 228.659 343.09 228.893 342.941 229.154C342.792 229.425 342.717 229.672 342.717 229.896C342.717 230.204 342.806 230.461 342.983 230.666C343.16 230.871 343.408 231.025 343.725 231.128C344.042 231.231 344.402 231.282 344.803 231.282C345.204 231.282 345.55 231.226 345.839 231.114C346.128 231.002 346.352 230.843 346.511 230.638C346.67 230.433 346.749 230.19 346.749 229.91C346.749 229.583 346.628 229.308 346.385 229.084C346.142 228.869 345.68 228.743 344.999 228.706C344.448 228.669 343.986 228.617 343.613 228.552C343.24 228.487 342.932 228.412 342.689 228.328C342.446 228.235 342.241 228.132 342.073 228.02C341.914 227.908 341.77 227.791 341.639 227.67V227.348L342.997 226.004L344.019 226.368L342.619 227.628L342.801 227.138C342.904 227.213 343.002 227.283 343.095 227.348C343.188 227.413 343.314 227.469 343.473 227.516C343.632 227.563 343.851 227.605 344.131 227.642C344.42 227.679 344.798 227.717 345.265 227.754C345.909 227.801 346.422 227.913 346.805 228.09C347.197 228.267 347.477 228.505 347.645 228.804C347.822 229.103 347.911 229.457 347.911 229.868C347.911 230.269 347.799 230.647 347.575 231.002C347.36 231.366 347.024 231.665 346.567 231.898C346.11 232.131 345.522 232.248 344.803 232.248ZM344.789 226.788C344.201 226.788 343.697 226.676 343.277 226.452C342.866 226.228 342.554 225.929 342.339 225.556C342.124 225.173 342.017 224.749 342.017 224.282C342.017 223.815 342.124 223.395 342.339 223.022C342.563 222.649 342.88 222.35 343.291 222.126C343.702 221.893 344.201 221.776 344.789 221.776C345.377 221.776 345.876 221.893 346.287 222.126C346.698 222.35 347.01 222.649 347.225 223.022C347.44 223.395 347.547 223.815 347.547 224.282C347.547 224.749 347.44 225.173 347.225 225.556C347.01 225.929 346.698 226.228 346.287 226.452C345.876 226.676 345.377 226.788 344.789 226.788ZM344.789 225.822C345.293 225.822 345.69 225.691 345.979 225.43C346.268 225.169 346.413 224.786 346.413 224.282C346.413 223.787 346.268 223.409 345.979 223.148C345.69 222.887 345.293 222.756 344.789 222.756C344.294 222.756 343.893 222.887 343.585 223.148C343.286 223.409 343.137 223.787 343.137 224.282C343.137 224.786 343.286 225.169 343.585 225.43C343.884 225.691 344.285 225.822 344.789 225.822ZM345.937 222.938L345.587 221.944H348.471V222.826L345.937 222.938ZM352.386 229.168C351.844 229.168 351.368 229.061 350.958 228.846C350.556 228.631 350.244 228.3 350.02 227.852C349.805 227.404 349.698 226.844 349.698 226.172V221.944H350.874V226.046C350.874 226.746 351.028 227.273 351.336 227.628C351.644 227.983 352.078 228.16 352.638 228.16C353.03 228.16 353.384 228.067 353.702 227.88C354.019 227.684 354.266 227.409 354.444 227.054C354.63 226.69 354.724 226.247 354.724 225.724V221.944H355.9V229H354.836L354.766 227.768C354.551 228.207 354.234 228.552 353.814 228.804C353.394 229.047 352.918 229.168 352.386 229.168ZM360.145 229.168C359.576 229.168 359.1 229.07 358.717 228.874C358.334 228.669 358.05 228.403 357.863 228.076C357.676 227.74 357.583 227.376 357.583 226.984C357.583 226.508 357.704 226.107 357.947 225.78C358.199 225.444 358.549 225.192 358.997 225.024C359.454 224.847 359.991 224.758 360.607 224.758H362.469C362.469 224.319 362.399 223.955 362.259 223.666C362.128 223.367 361.932 223.143 361.671 222.994C361.419 222.845 361.102 222.77 360.719 222.77C360.271 222.77 359.884 222.882 359.557 223.106C359.23 223.33 359.03 223.661 358.955 224.1H357.751C357.807 223.596 357.975 223.176 358.255 222.84C358.544 222.495 358.908 222.233 359.347 222.056C359.786 221.869 360.243 221.776 360.719 221.776C361.372 221.776 361.914 221.897 362.343 222.14C362.782 222.373 363.108 222.705 363.323 223.134C363.538 223.554 363.645 224.053 363.645 224.632V229H362.595L362.525 227.754C362.432 227.95 362.31 228.137 362.161 228.314C362.021 228.482 361.853 228.631 361.657 228.762C361.461 228.883 361.237 228.981 360.985 229.056C360.742 229.131 360.462 229.168 360.145 229.168ZM360.327 228.174C360.654 228.174 360.948 228.109 361.209 227.978C361.48 227.838 361.708 227.651 361.895 227.418C362.082 227.175 362.222 226.909 362.315 226.62C362.418 226.331 362.469 226.027 362.469 225.71V225.668H360.705C360.248 225.668 359.879 225.724 359.599 225.836C359.319 225.939 359.118 226.088 358.997 226.284C358.876 226.471 358.815 226.685 358.815 226.928C358.815 227.18 358.871 227.399 358.983 227.586C359.104 227.773 359.277 227.917 359.501 228.02C359.734 228.123 360.01 228.174 360.327 228.174ZM368.25 232.248C367.616 232.248 367.051 232.164 366.556 231.996C366.071 231.837 365.693 231.59 365.422 231.254C365.152 230.918 365.016 230.503 365.016 230.008C365.016 229.793 365.058 229.565 365.142 229.322C365.236 229.079 365.39 228.841 365.604 228.608C365.828 228.375 366.141 228.165 366.542 227.978L367.354 228.454C366.86 228.659 366.538 228.893 366.388 229.154C366.239 229.425 366.164 229.672 366.164 229.896C366.164 230.204 366.253 230.461 366.43 230.666C366.608 230.871 366.855 231.025 367.172 231.128C367.49 231.231 367.849 231.282 368.25 231.282C368.652 231.282 368.997 231.226 369.286 231.114C369.576 231.002 369.8 230.843 369.958 230.638C370.117 230.433 370.196 230.19 370.196 229.91C370.196 229.583 370.075 229.308 369.832 229.084C369.59 228.869 369.128 228.743 368.446 228.706C367.896 228.669 367.434 228.617 367.06 228.552C366.687 228.487 366.379 228.412 366.136 228.328C365.894 228.235 365.688 228.132 365.52 228.02C365.362 227.908 365.217 227.791 365.086 227.67V227.348L366.444 226.004L367.466 226.368L366.066 227.628L366.248 227.138C366.351 227.213 366.449 227.283 366.542 227.348C366.636 227.413 366.762 227.469 366.92 227.516C367.079 227.563 367.298 227.605 367.578 227.642C367.868 227.679 368.246 227.717 368.712 227.754C369.356 227.801 369.87 227.913 370.252 228.09C370.644 228.267 370.924 228.505 371.092 228.804C371.27 229.103 371.358 229.457 371.358 229.868C371.358 230.269 371.246 230.647 371.022 231.002C370.808 231.366 370.472 231.665 370.014 231.898C369.557 232.131 368.969 232.248 368.25 232.248ZM368.236 226.788C367.648 226.788 367.144 226.676 366.724 226.452C366.314 226.228 366.001 225.929 365.786 225.556C365.572 225.173 365.464 224.749 365.464 224.282C365.464 223.815 365.572 223.395 365.786 223.022C366.01 222.649 366.328 222.35 366.738 222.126C367.149 221.893 367.648 221.776 368.236 221.776C368.824 221.776 369.324 221.893 369.734 222.126C370.145 222.35 370.458 222.649 370.672 223.022C370.887 223.395 370.994 223.815 370.994 224.282C370.994 224.749 370.887 225.173 370.672 225.556C370.458 225.929 370.145 226.228 369.734 226.452C369.324 226.676 368.824 226.788 368.236 226.788ZM368.236 225.822C368.74 225.822 369.137 225.691 369.426 225.43C369.716 225.169 369.86 224.786 369.86 224.282C369.86 223.787 369.716 223.409 369.426 223.148C369.137 222.887 368.74 222.756 368.236 222.756C367.742 222.756 367.34 222.887 367.032 223.148C366.734 223.409 366.584 223.787 366.584 224.282C366.584 224.786 366.734 225.169 367.032 225.43C367.331 225.691 367.732 225.822 368.236 225.822ZM369.384 222.938L369.034 221.944H371.918V222.826L369.384 222.938ZM376.092 229.168C375.429 229.168 374.841 229.014 374.328 228.706C373.824 228.398 373.427 227.969 373.138 227.418C372.848 226.858 372.704 226.209 372.704 225.472C372.704 224.725 372.844 224.077 373.124 223.526C373.413 222.975 373.814 222.546 374.328 222.238C374.85 221.93 375.448 221.776 376.12 221.776C376.81 221.776 377.394 221.93 377.87 222.238C378.355 222.546 378.724 222.952 378.976 223.456C379.237 223.951 379.368 224.497 379.368 225.094C379.368 225.187 379.368 225.285 379.368 225.388C379.368 225.491 379.363 225.607 379.354 225.738H373.586V224.828H378.22C378.192 224.184 377.977 223.68 377.576 223.316C377.184 222.952 376.689 222.77 376.092 222.77C375.69 222.77 375.317 222.863 374.972 223.05C374.636 223.227 374.365 223.493 374.16 223.848C373.954 224.193 373.852 224.627 373.852 225.15V225.542C373.852 226.121 373.954 226.606 374.16 226.998C374.374 227.39 374.65 227.684 374.986 227.88C375.331 228.076 375.7 228.174 376.092 228.174C376.586 228.174 376.992 228.067 377.31 227.852C377.636 227.628 377.87 227.329 378.01 226.956H379.172C379.06 227.376 378.864 227.754 378.584 228.09C378.304 228.426 377.954 228.692 377.534 228.888C377.123 229.075 376.642 229.168 376.092 229.168Z" fill="#EEEFF1"/>
<path d="M307.125 221.394L308.185 222.348C309.149 223.215 309.631 223.649 309.631 224.206C309.631 224.763 309.149 225.197 308.185 226.064L307.125 227.019" stroke="#86888E" stroke-linecap="round"/>
<path d="M305.242 219.625L304 224.259L302.758 228.894" stroke="#86888E" stroke-linecap="round"/>
<path d="M300.875 221.394L299.815 222.348C298.851 223.215 298.369 223.649 298.369 224.206C298.369 224.763 298.851 225.197 299.815 226.064L300.875 227.019" stroke="#86888E" stroke-linecap="round"/>
</g>
<defs>
<filter id="filter0_f_2474_18588" x="-179" y="-17" width="820" height="684" filterUnits="userSpaceOnUse" color-interpolation-filters="sRGB">
<feFlood flood-opacity="0" result="BackgroundImageFix"/>
<feBlend mode="normal" in="SourceGraphic" in2="BackgroundImageFix" result="shape"/>
<feGaussianBlur stdDeviation="150" result="effect1_foregroundBlur_2474_18588"/>
</filter>
<filter id="filter1_d_2474_18588" x="13" y="184" width="433" height="268" filterUnits="userSpaceOnUse" color-interpolation-filters="sRGB">
<feFlood flood-opacity="0" result="BackgroundImageFix"/>
<feColorMatrix in="SourceAlpha" type="matrix" values="0 0 0 0 0 0 0 0 0 0 0 0 0 0 0 0 0 0 127 0" result="hardAlpha"/>
<feOffset dy="24"/>
<feGaussianBlur stdDeviation="22"/>
<feComposite in2="hardAlpha" operator="out"/>
<feColorMatrix type="matrix" values="0 0 0 0 0 0 0 0 0 0 0 0 0 0 0 0 0 0 0.5 0"/>
<feBlend mode="normal" in2="BackgroundImageFix" result="effect1_dropShadow_2474_18588"/>
<feBlend mode="normal" in="SourceGraphic" in2="effect1_dropShadow_2474_18588" result="shape"/>
</filter>
<linearGradient id="paint0_linear_2474_18588" x1="231" y1="283" x2="231" y2="367" gradientUnits="userSpaceOnUse">
<stop stop-color="#4A4A54"/>
<stop offset="1" stop-color="#4A4A54" stop-opacity="0.5"/>
</linearGradient>
</defs>
</svg>
