<svg width="21" height="24" viewBox="0 0 21 24" fill="none" xmlns="http://www.w3.org/2000/svg">
<g clip-path="url(#clip0_2369_53382)">
<path opacity="0.98" d="M10.5 0L21 6.01039V18.0037L10.5 24.0015L2.06595e-07 18.0033L0 6.00668L10.5 0Z" fill="#8F0000"/>
<path fill-rule="evenodd" clip-rule="evenodd" d="M10.4466 22.7812L9.39198 22.2338L1.16748 13.3612L1.3125 12.8984H5.35725L6.09657 10.4674L6.7467 11.3898L8.91975 8.97693L10.7144 8.50001L10.7948 9.74531L12.0537 9.87778L13.3126 9.90428L16.5804 9.98377L17.1414 7.375L19.943 10.6284L19.8645 13.0483L15.5479 13.0494L15.4735 15.2905L19.9821 15.7599L20.0355 17.3436L10.4466 22.7812Z" fill="black" fill-opacity="0.19898"/>
<path opacity="0.98" d="M0.81543 13.4095V17.4213C0.815424 17.4875 0.851161 17.5488 0.90918 17.5819L10.4061 22.9966C10.4641 23.0297 10.5355 23.0297 10.5936 22.9966L20.0758 17.5815C20.1338 17.5484 20.1749 17.4872 20.1749 17.4209V16.1092V15.2826V13.4092V12.5827V6.59343C20.1749 6.52717 20.1338 6.46595 20.0758 6.43281L10.5936 1.0189C10.5663 1.00339 10.5356 0.994899 10.5042 0.994195C10.4698 0.993375 10.4359 1.00192 10.4061 1.0189L0.90918 6.43281C0.85116 6.46595 0.815426 6.52717 0.81543 6.59343V9.88295V10.6543V12.5829V13.4095ZM10.4998 1.39359L19.7998 6.7003V12.5753H16.0739C15.4146 12.5753 14.8498 13.1199 14.8498 13.7722V13.9325C12.6106 13.9161 11.9428 13.3428 11.11 12.6224C10.4177 12.0236 9.55057 11.3684 7.80652 11.0946C8.13169 10.772 8.32728 10.4056 8.50151 10.093C8.68877 9.75711 8.85814 9.49106 9.12903 9.30719C9.34001 9.16394 9.70019 9.07762 10.1665 9.05021V9.20083C10.1665 9.85306 10.6786 10.3867 11.3379 10.3867H16.1117C16.771 10.3867 17.3624 9.8531 17.3624 9.20083V8.04056C17.3624 7.38833 16.7734 6.86282 16.114 6.86282L11.3403 6.86274C10.6809 6.86274 10.1665 7.38826 10.1665 8.04049V8.25204C9.54982 8.28211 9.02493 8.40159 8.66842 8.64364C8.22734 8.9431 7.9861 9.34984 7.78863 9.70402C7.59117 10.0582 7.42928 10.363 7.19407 10.5764C6.99348 10.7584 6.71253 10.8832 6.25589 10.9402C6.19683 10.3407 5.6698 9.90802 5.04944 9.90454H1.19969V6.70033L10.4998 1.39359ZM11.3403 7.67885H16.1141C16.3367 7.67885 16.4999 7.82027 16.4999 8.04049V9.20076C16.4999 9.42098 16.3344 9.57065 16.1117 9.57065H11.338C11.1153 9.57065 10.9342 9.42097 10.9342 9.20076V8.04049C10.9342 7.82027 11.1177 7.67885 11.3403 7.67885H11.3403ZM1.19995 10.6464H5.04933C5.27196 10.6464 5.43738 10.8289 5.43738 11.0491V12.2095C5.43738 12.4297 5.27197 12.5753 5.04933 12.5753H1.19995V10.6464ZM6.27895 11.7682C8.96815 11.8101 9.70998 12.4803 10.5746 13.2282C11.4043 13.946 12.4252 14.6994 14.85 14.7311V14.9325C14.85 15.5848 15.4147 16.0992 16.0741 16.0992H19.8V17.314L10.5 22.6218L1.19995 17.314V13.3912H5.04971C5.70907 13.3912 6.27884 12.8616 6.27884 12.2094L6.27895 11.7682ZM16.0743 13.3914H19.8001V15.2832H16.0743C15.8517 15.2832 15.6751 15.1323 15.6751 14.9121V13.7722C15.6751 13.552 15.8517 13.3914 16.0743 13.3914Z" fill="white"/>
</g>
<defs>
<clipPath id="clip0_2369_53382">
<rect width="21" height="24" fill="white"/>
</clipPath>
</defs>
</svg>
