<svg width="264" height="264" viewBox="0 0 264 264" fill="none" xmlns="http://www.w3.org/2000/svg">
<g filter="url(#filter0_d_2654_26662)">
<rect x="20" y="10" width="104" height="36" rx="10" fill="#0C0D0E" shape-rendering="crispEdges"/>
<rect x="20.5" y="10.5" width="103" height="35" rx="9.5" stroke="#86888E" shape-rendering="crispEdges"/>
<path d="M42.8794 17.724C42.347 17.4246 41.653 17.426 41.1202 17.724C38.4517 19.1967 35.7831 20.6698 33.1141 22.1418C32.5948 22.415 32.2445 22.9727 32.2501 23.5516V32.4496C32.2463 33.0398 32.6147 33.6029 33.1474 33.8723C33.914 34.2802 34.6588 34.7294 35.4393 35.1101C36.3409 35.5532 37.4688 35.6511 38.3814 35.1891C39.1222 34.8063 39.4512 33.9546 39.4502 33.172C39.4562 30.2355 39.4512 27.2988 39.4525 24.3622C39.4702 24.2317 39.3721 24.0922 39.2298 24.0954C38.8888 24.09 38.5473 24.0922 38.2063 24.0945C38.0774 24.0823 37.9516 24.1893 37.9614 24.3189C37.9568 27.2365 37.9623 30.1551 37.9586 33.0732C37.966 33.4768 37.6933 33.8647 37.3043 34.0011C36.4059 34.316 33.8415 32.6509 33.8415 32.6509C33.7474 32.6073 33.6876 32.5052 33.6968 32.4038C33.6968 29.4682 33.6973 26.5325 33.6968 23.5973C33.6839 23.4789 33.7568 23.3724 33.8655 23.324C36.5252 21.8601 39.1836 20.3924 41.8433 18.9275C41.9357 18.8659 42.0645 18.8661 42.1567 18.928C44.8164 20.3924 47.4752 21.8587 50.1354 23.3228C50.2445 23.371 50.3143 23.4794 50.3032 23.5973C50.3027 26.5325 50.3041 29.4682 50.3023 32.4035C50.3102 32.5074 50.2564 32.608 50.1595 32.6536C47.5246 34.1096 44.8597 35.5188 42.2486 37.0171C42.1347 37.0824 42.0056 37.1565 41.878 37.0845C41.1913 36.7047 40.513 36.3101 39.8287 35.9266C39.7543 35.8802 39.6595 35.8602 39.5819 35.9122C39.2751 36.0739 38.9865 36.2048 38.6341 36.3443C38.1393 36.5402 38.2183 36.6203 38.6647 36.8804C39.465 37.3333 40.2667 37.7844 41.067 38.2378C41.5939 38.5666 42.3018 38.59 42.8456 38.2862C45.5146 36.8153 48.1827 35.3428 50.8522 33.872C51.3835 33.601 51.7537 33.0401 51.7499 32.4495V23.5516C51.7551 22.9845 51.4182 22.4367 50.9145 22.1594C48.2367 20.6796 45.5576 19.203 42.8794 17.724Z" fill="#86888E"/>
<path d="M46.9065 24.4054C45.859 23.845 44.6128 23.8151 43.4487 23.8884C42.6077 23.9715 41.7233 24.2036 41.1106 24.8064C40.4822 25.4124 40.3454 26.391 40.6439 27.1821C40.8578 27.7412 41.3962 28.1047 41.953 28.297C42.6702 28.5502 43.4235 28.6285 44.177 28.7068C44.8643 28.7782 45.5519 28.8497 46.2125 29.0539C46.4823 29.1433 46.7966 29.2801 46.8792 29.5737C46.9556 29.9214 46.8719 30.3256 46.5896 30.5672C45.6929 31.2769 43.1985 31.1681 42.3125 30.6095C41.9543 30.3716 41.8 29.9503 41.7372 29.5488C41.7302 29.4237 41.6295 29.309 41.4937 29.3185C41.1536 29.3144 40.8134 29.3153 40.4733 29.318C40.3547 29.3081 40.2313 29.3925 40.2248 29.5136C40.1549 31.3524 41.8436 32.154 43.428 32.3305C44.3332 32.4167 45.2582 32.4118 46.1496 32.2175C46.8197 32.065 47.4915 31.784 47.9528 31.268C48.5216 30.6407 48.6334 29.7069 48.3783 28.9256C48.1833 28.3427 47.626 27.9687 47.0563 27.7763C46.2815 27.5107 45.3634 27.3679 44.6617 27.3011C43.6418 27.2039 42.4298 27.2436 42.1411 26.5734C42.026 26.2225 42.1239 25.7867 42.4464 25.5709C43.2997 24.9921 45.0363 25.069 45.92 25.5014C46.3257 25.7045 46.5608 26.1218 46.6579 26.5431C46.6759 26.6669 46.7591 26.796 46.9024 26.7906C47.2402 26.7974 47.578 26.7924 47.9157 26.7929C48.0317 26.801 48.1588 26.7355 48.1814 26.6167C48.1671 25.7362 47.7175 24.8348 46.9065 24.4054Z" fill="#86888E"/>
<path d="M65.05 33V23.2H66.226L71.448 31.054V23.2H72.624V33H71.448L66.226 25.146V33H65.05ZM78.0897 33.168C77.4364 33.168 76.8484 33.0187 76.3257 32.72C75.803 32.412 75.3924 31.9827 75.0937 31.432C74.795 30.872 74.6457 30.2233 74.6457 29.486C74.6457 28.73 74.795 28.0767 75.0937 27.526C75.4017 26.966 75.817 26.5367 76.3397 26.238C76.8717 25.93 77.4644 25.776 78.1177 25.776C78.7897 25.776 79.3824 25.93 79.8957 26.238C80.4184 26.5367 80.829 26.966 81.1277 27.526C81.4357 28.0767 81.5897 28.7253 81.5897 29.472C81.5897 30.2187 81.4357 30.872 81.1277 31.432C80.8197 31.9827 80.4044 32.412 79.8817 32.72C79.359 33.0187 78.7617 33.168 78.0897 33.168ZM78.1037 32.16C78.505 32.16 78.8784 32.062 79.2237 31.866C79.569 31.6607 79.849 31.3573 80.0637 30.956C80.2784 30.5547 80.3857 30.06 80.3857 29.472C80.3857 28.8747 80.2784 28.38 80.0637 27.988C79.8584 27.5867 79.583 27.288 79.2377 27.092C78.9017 26.8867 78.5284 26.784 78.1177 26.784C77.7257 26.784 77.3524 26.8867 76.9977 27.092C76.6524 27.288 76.3724 27.5867 76.1577 27.988C75.9524 28.38 75.8497 28.8747 75.8497 29.472C75.8497 30.06 75.9524 30.5547 76.1577 30.956C76.3724 31.3573 76.6477 31.6607 76.9837 31.866C77.329 32.062 77.7024 32.16 78.1037 32.16ZM86.6265 33.168C85.9452 33.168 85.3478 33.0093 84.8345 32.692C84.3212 32.3653 83.9245 31.922 83.6445 31.362C83.3645 30.802 83.2245 30.1673 83.2245 29.458C83.2245 28.7487 83.3645 28.1187 83.6445 27.568C83.9245 27.008 84.3212 26.5693 84.8345 26.252C85.3572 25.9347 85.9592 25.776 86.6405 25.776C87.2192 25.776 87.7232 25.8927 88.1525 26.126C88.5912 26.3593 88.9272 26.686 89.1605 27.106V22.92H90.3365V33H89.2725L89.1745 31.838C89.0252 32.0713 88.8338 32.2907 88.6005 32.496C88.3672 32.692 88.0872 32.8553 87.7605 32.986C87.4338 33.1073 87.0558 33.168 86.6265 33.168ZM86.7665 32.146C87.2332 32.146 87.6438 32.034 87.9985 31.81C88.3532 31.586 88.6285 31.278 88.8245 30.886C89.0205 30.4847 89.1185 30.0133 89.1185 29.472C89.1185 28.94 89.0205 28.4733 88.8245 28.072C88.6285 27.6707 88.3532 27.358 87.9985 27.134C87.6438 26.91 87.2332 26.798 86.7665 26.798C86.3092 26.798 85.9032 26.91 85.5485 27.134C85.1938 27.358 84.9185 27.6707 84.7225 28.072C84.5265 28.4733 84.4285 28.94 84.4285 29.472C84.4285 30.0133 84.5265 30.4847 84.7225 30.886C84.9185 31.278 85.1938 31.586 85.5485 31.81C85.9032 32.034 86.3092 32.146 86.7665 32.146ZM95.6699 33.168C95.0072 33.168 94.4192 33.014 93.9059 32.706C93.4019 32.398 93.0052 31.9687 92.7159 31.418C92.4265 30.858 92.2819 30.2093 92.2819 29.472C92.2819 28.7253 92.4219 28.0767 92.7019 27.526C92.9912 26.9753 93.3925 26.546 93.9059 26.238C94.4285 25.93 95.0259 25.776 95.6979 25.776C96.3885 25.776 96.9719 25.93 97.4479 26.238C97.9332 26.546 98.3019 26.952 98.5539 27.456C98.8152 27.9507 98.9459 28.4967 98.9459 29.094C98.9459 29.1873 98.9459 29.2853 98.9459 29.388C98.9459 29.4907 98.9412 29.6073 98.9319 29.738H93.1639V28.828H97.7979C97.7699 28.184 97.5552 27.68 97.1539 27.316C96.7619 26.952 96.2672 26.77 95.6699 26.77C95.2685 26.77 94.8952 26.8633 94.5499 27.05C94.2139 27.2273 93.9432 27.4933 93.7379 27.848C93.5325 28.1933 93.4299 28.6273 93.4299 29.15V29.542C93.4299 30.1207 93.5325 30.606 93.7379 30.998C93.9525 31.39 94.2279 31.684 94.5639 31.88C94.9092 32.076 95.2779 32.174 95.6699 32.174C96.1645 32.174 96.5705 32.0667 96.8879 31.852C97.2145 31.628 97.4479 31.3293 97.5879 30.956H98.7499C98.6379 31.376 98.4419 31.754 98.1619 32.09C97.8819 32.426 97.5319 32.692 97.1119 32.888C96.7012 33.0747 96.2205 33.168 95.6699 33.168ZM101.233 33.07C101 33.07 100.804 32.9953 100.645 32.846C100.496 32.6873 100.421 32.496 100.421 32.272C100.421 32.048 100.496 31.8613 100.645 31.712C100.804 31.5533 101 31.474 101.233 31.474C101.466 31.474 101.658 31.5533 101.807 31.712C101.956 31.8613 102.031 32.048 102.031 32.272C102.031 32.496 101.956 32.6873 101.807 32.846C101.658 32.9953 101.466 33.07 101.233 33.07ZM102.51 36.08V35.072H103.056C103.411 35.072 103.663 34.9973 103.812 34.848C103.962 34.708 104.036 34.4653 104.036 34.12V25.944H105.212V34.148C105.212 34.596 105.138 34.96 104.988 35.24C104.839 35.5293 104.615 35.7393 104.316 35.87C104.027 36.01 103.668 36.08 103.238 36.08H102.51ZM104.638 24.446C104.405 24.446 104.209 24.3713 104.05 24.222C103.901 24.0633 103.826 23.8673 103.826 23.634C103.826 23.4007 103.901 23.214 104.05 23.074C104.209 22.9247 104.405 22.85 104.638 22.85C104.862 22.85 105.049 22.9247 105.198 23.074C105.357 23.214 105.436 23.4007 105.436 23.634C105.436 23.8673 105.357 24.0633 105.198 24.222C105.049 24.3713 104.862 24.446 104.638 24.446ZM110.213 33.168C109.625 33.168 109.111 33.07 108.673 32.874C108.243 32.678 107.898 32.4073 107.637 32.062C107.385 31.7073 107.231 31.292 107.175 30.816H108.379C108.425 31.0587 108.523 31.2827 108.673 31.488C108.822 31.6933 109.023 31.8613 109.275 31.992C109.536 32.1133 109.853 32.174 110.227 32.174C110.553 32.174 110.824 32.1273 111.039 32.034C111.253 31.9313 111.412 31.796 111.515 31.628C111.627 31.46 111.683 31.278 111.683 31.082C111.683 30.7927 111.613 30.5733 111.473 30.424C111.342 30.2747 111.146 30.158 110.885 30.074C110.623 29.9807 110.306 29.9013 109.933 29.836C109.625 29.78 109.321 29.7053 109.023 29.612C108.724 29.5187 108.458 29.3973 108.225 29.248C107.991 29.0893 107.805 28.898 107.665 28.674C107.534 28.45 107.469 28.1747 107.469 27.848C107.469 27.4467 107.571 27.092 107.777 26.784C107.982 26.4667 108.276 26.2193 108.659 26.042C109.051 25.8647 109.503 25.776 110.017 25.776C110.773 25.776 111.384 25.958 111.851 26.322C112.317 26.686 112.593 27.2133 112.677 27.904H111.515C111.468 27.5493 111.314 27.274 111.053 27.078C110.801 26.8727 110.451 26.77 110.003 26.77C109.564 26.77 109.228 26.8587 108.995 27.036C108.771 27.2133 108.659 27.4467 108.659 27.736C108.659 27.9227 108.719 28.0907 108.841 28.24C108.971 28.38 109.158 28.5013 109.401 28.604C109.653 28.7067 109.961 28.7907 110.325 28.856C110.791 28.94 111.216 29.052 111.599 29.192C111.981 29.332 112.289 29.542 112.523 29.822C112.765 30.0927 112.887 30.48 112.887 30.984C112.887 31.4227 112.775 31.8053 112.551 32.132C112.336 32.4587 112.028 32.7153 111.627 32.902C111.225 33.0793 110.754 33.168 110.213 33.168Z" fill="white"/>
</g>
<g filter="url(#filter1_d_2654_26662)">
<rect x="20" y="57" width="102" height="36" rx="10" fill="#0C0D0E" shape-rendering="crispEdges"/>
<rect x="20.5" y="57.5" width="101" height="35" rx="9.5" stroke="#86888E" shape-rendering="crispEdges"/>
<g clip-path="url(#clip0_2654_26662)">
<path fill-rule="evenodd" clip-rule="evenodd" d="M45.2928 85.1496C44.7144 85.1496 44.2464 84.6793 44.2464 84.0979C44.2464 83.5164 44.7144 83.0473 45.2928 83.0473C45.8712 83.0473 46.3392 83.5164 46.3392 84.0979C46.3392 84.6793 45.8712 85.1496 45.2928 85.1496ZM42.0864 87C48.18 87 47.7996 84.3439 47.7996 84.3439L47.7924 81.5924H41.9784V80.7662H50.1012C50.1012 80.7662 54 81.2114 54 75.0316C54 68.8519 50.598 69.0697 50.598 69.0697H48.5664V71.9385C48.5664 71.9385 48.6756 75.358 45.2184 75.358H39.4512C39.4512 75.358 36.2112 75.3066 36.2112 78.5068V83.7973C36.2112 83.7973 35.7192 87 42.0864 87ZM38.7084 64.8504C39.2868 64.8504 39.7536 65.3207 39.7536 65.9021C39.7536 66.4836 39.2868 66.9527 38.7084 66.9527C38.13 66.9527 37.662 66.4836 37.662 65.9021C37.662 65.3207 38.13 64.8504 38.7084 64.8504ZM41.9136 63C35.8212 63 36.2016 65.6561 36.2016 65.6561L36.2088 68.4076H42.0228V69.2338H33.8988C33.8988 69.2338 30 68.7886 30 74.9684C30 81.1481 33.4032 80.9303 33.4032 80.9303H35.4336V78.0615C35.4336 78.0615 35.3244 74.642 38.7828 74.642H44.5488C44.5488 74.642 47.7888 74.6934 47.7888 71.4932V66.2027C47.7888 66.2027 48.2808 63 41.9136 63Z" fill="#86888E"/>
</g>
<path d="M65.05 80V70.2H68.242C69.0167 70.2 69.6513 70.3307 70.146 70.592C70.65 70.844 71.0187 71.1847 71.252 71.614C71.4947 72.0433 71.616 72.5333 71.616 73.084C71.616 73.616 71.4947 74.1013 71.252 74.54C71.0187 74.9693 70.6547 75.3147 70.16 75.576C69.6653 75.8373 69.026 75.968 68.242 75.968H66.226V80H65.05ZM66.226 74.974H68.228C69.012 74.974 69.572 74.8013 69.908 74.456C70.244 74.1107 70.412 73.6533 70.412 73.084C70.412 72.4773 70.244 72.0107 69.908 71.684C69.572 71.348 69.012 71.18 68.228 71.18H66.226V74.974ZM74.1511 83.08L75.8731 79.216H75.4671L72.6951 72.944H73.9691L76.2651 78.334L78.6731 72.944H79.8911L75.3831 83.08H74.1511ZM84.2124 80C83.7924 80 83.4284 79.9347 83.1204 79.804C82.8124 79.6733 82.5744 79.454 82.4064 79.146C82.2477 78.8287 82.1684 78.404 82.1684 77.872V73.938H80.9364V72.944H82.1684L82.3224 71.236H83.3444V72.944H85.3884V73.938H83.3444V77.872C83.3444 78.3107 83.4331 78.6093 83.6104 78.768C83.7877 78.9173 84.1004 78.992 84.5484 78.992H85.3044V80H84.2124ZM87.2028 80V69.92H88.3788V74.134C88.6121 73.714 88.9388 73.3827 89.3588 73.14C89.7881 72.8973 90.2548 72.776 90.7588 72.776C91.3001 72.776 91.7715 72.888 92.1728 73.112C92.5741 73.3267 92.8821 73.658 93.0968 74.106C93.3115 74.554 93.4188 75.1187 93.4188 75.8V80H92.2568V75.926C92.2568 75.2167 92.1075 74.6847 91.8088 74.33C91.5101 73.966 91.0761 73.784 90.5068 73.784C90.1055 73.784 89.7415 73.882 89.4148 74.078C89.0975 74.274 88.8455 74.554 88.6588 74.918C88.4721 75.282 88.3788 75.73 88.3788 76.262V80H87.2028ZM98.6855 80.168C98.0322 80.168 97.4442 80.0187 96.9215 79.72C96.3989 79.412 95.9882 78.9827 95.6895 78.432C95.3909 77.872 95.2415 77.2233 95.2415 76.486C95.2415 75.73 95.3909 75.0767 95.6895 74.526C95.9975 73.966 96.4129 73.5367 96.9355 73.238C97.4675 72.93 98.0602 72.776 98.7135 72.776C99.3855 72.776 99.9782 72.93 100.492 73.238C101.014 73.5367 101.425 73.966 101.724 74.526C102.032 75.0767 102.186 75.7253 102.186 76.472C102.186 77.2187 102.032 77.872 101.724 78.432C101.416 78.9827 101 79.412 100.478 79.72C99.9549 80.0187 99.3575 80.168 98.6855 80.168ZM98.6995 79.16C99.1009 79.16 99.4742 79.062 99.8195 78.866C100.165 78.6607 100.445 78.3573 100.66 77.956C100.874 77.5547 100.982 77.06 100.982 76.472C100.982 75.8747 100.874 75.38 100.66 74.988C100.454 74.5867 100.179 74.288 99.8335 74.092C99.4975 73.8867 99.1242 73.784 98.7135 73.784C98.3215 73.784 97.9482 73.8867 97.5935 74.092C97.2482 74.288 96.9682 74.5867 96.7535 74.988C96.5482 75.38 96.4455 75.8747 96.4455 76.472C96.4455 77.06 96.5482 77.5547 96.7535 77.956C96.9682 78.3573 97.2435 78.6607 97.5795 78.866C97.9249 79.062 98.2982 79.16 98.6995 79.16ZM104.114 80V72.944H105.178L105.234 74.176C105.458 73.7373 105.776 73.3967 106.186 73.154C106.606 72.902 107.082 72.776 107.614 72.776C108.165 72.776 108.641 72.888 109.042 73.112C109.444 73.3267 109.756 73.658 109.98 74.106C110.204 74.5447 110.316 75.1047 110.316 75.786V80H109.14V75.912C109.14 75.2027 108.982 74.6707 108.664 74.316C108.356 73.9613 107.918 73.784 107.348 73.784C106.956 73.784 106.606 73.882 106.298 74.078C105.99 74.2647 105.743 74.54 105.556 74.904C105.379 75.2587 105.29 75.702 105.29 76.234V80H104.114Z" fill="white"/>
</g>
<g filter="url(#filter2_d_2654_26662)">
<rect x="20" y="104" width="81" height="36" rx="10" fill="#0C0D0E" shape-rendering="crispEdges"/>
<rect x="20.5" y="104.5" width="80" height="35" rx="9.5" stroke="#86888E" shape-rendering="crispEdges"/>
<g clip-path="url(#clip1_2654_26662)">
<path d="M54 110H30V134H54V110Z" fill="#86888E"/>
<path d="M34.2779 125.333C34.1082 125.333 33.964 125.276 33.8452 125.163C33.7264 125.047 33.667 124.909 33.667 124.75C33.667 124.587 33.7264 124.448 33.8452 124.332C33.964 124.216 34.1082 124.158 34.2779 124.158C34.4504 124.158 34.5961 124.216 34.7149 124.332C34.8365 124.448 34.8973 124.587 34.8973 124.75C34.8973 124.909 34.8365 125.047 34.7149 125.163C34.5961 125.276 34.4504 125.333 34.2779 125.333Z" fill="#0C0D0E"/>
<path d="M41.0612 125.238H39.9581L37.0521 120.653C36.9786 120.537 36.9177 120.417 36.8697 120.292H36.8442C36.8668 120.425 36.8781 120.711 36.8781 121.149V125.238H35.9023V119H37.0775L39.886 123.476C40.0048 123.662 40.0812 123.789 40.1151 123.859H40.1321C40.1038 123.693 40.0897 123.414 40.0897 123.019V119H41.0612V125.238Z" fill="#0C0D0E"/>
<path d="M45.8126 125.238H42.3975V119H45.6769V119.879H43.4072V121.645H45.4987V122.519H43.4072V124.363H45.8126V125.238Z" fill="#0C0D0E"/>
<path d="M50.6663 119.879H48.9184V125.238H47.9087V119.879H46.165V119H50.6663V119.879Z" fill="#0C0D0E"/>
</g>
<path d="M65.4 127.07C65.1667 127.07 64.9707 126.995 64.812 126.846C64.6627 126.687 64.588 126.496 64.588 126.272C64.588 126.048 64.6627 125.861 64.812 125.712C64.9707 125.553 65.1667 125.474 65.4 125.474C65.6333 125.474 65.8247 125.553 65.974 125.712C66.1233 125.861 66.198 126.048 66.198 126.272C66.198 126.496 66.1233 126.687 65.974 126.846C65.8247 126.995 65.6333 127.07 65.4 127.07ZM68.1054 127V117.2H69.2814L74.5034 125.054V117.2H75.6794V127H74.5034L69.2814 119.146V127H68.1054ZM81.0891 127.168C80.4264 127.168 79.8384 127.014 79.3251 126.706C78.8211 126.398 78.4244 125.969 78.1351 125.418C77.8457 124.858 77.7011 124.209 77.7011 123.472C77.7011 122.725 77.8411 122.077 78.1211 121.526C78.4104 120.975 78.8117 120.546 79.3251 120.238C79.8477 119.93 80.4451 119.776 81.1171 119.776C81.8077 119.776 82.3911 119.93 82.8671 120.238C83.3524 120.546 83.7211 120.952 83.9731 121.456C84.2344 121.951 84.3651 122.497 84.3651 123.094C84.3651 123.187 84.3651 123.285 84.3651 123.388C84.3651 123.491 84.3604 123.607 84.3511 123.738H78.5831V122.828H83.2171C83.1891 122.184 82.9744 121.68 82.5731 121.316C82.1811 120.952 81.6864 120.77 81.0891 120.77C80.6877 120.77 80.3144 120.863 79.9691 121.05C79.6331 121.227 79.3624 121.493 79.1571 121.848C78.9517 122.193 78.8491 122.627 78.8491 123.15V123.542C78.8491 124.121 78.9517 124.606 79.1571 124.998C79.3717 125.39 79.6471 125.684 79.9831 125.88C80.3284 126.076 80.6971 126.174 81.0891 126.174C81.5837 126.174 81.9897 126.067 82.3071 125.852C82.6337 125.628 82.8671 125.329 83.0071 124.956H84.1691C84.0571 125.376 83.8611 125.754 83.5811 126.09C83.3011 126.426 82.9511 126.692 82.5311 126.888C82.1204 127.075 81.6397 127.168 81.0891 127.168ZM88.7717 127C88.3517 127 87.9877 126.935 87.6797 126.804C87.3717 126.673 87.1337 126.454 86.9657 126.146C86.807 125.829 86.7277 125.404 86.7277 124.872V120.938H85.4957V119.944H86.7277L86.8817 118.236H87.9037V119.944H89.9477V120.938H87.9037V124.872C87.9037 125.311 87.9924 125.609 88.1697 125.768C88.347 125.917 88.6597 125.992 89.1077 125.992H89.8637V127H88.7717Z" fill="white"/>
</g>
<g filter="url(#filter3_d_2654_26662)">
<rect x="20" y="151" width="84" height="36" rx="10" fill="#0C0D0E" shape-rendering="crispEdges"/>
<rect x="20.5" y="151.5" width="83" height="35" rx="9.5" stroke="#86888E" shape-rendering="crispEdges"/>
<path d="M49.8194 166.031C49.8986 165.952 50.0075 165.904 50.1275 165.904C50.3684 165.904 50.5637 166.099 50.5637 166.34C50.5637 166.581 50.3684 166.776 50.1275 166.776C49.8866 166.776 49.6914 166.581 49.6914 166.34C49.6914 166.22 49.7402 166.111 49.8186 166.032L49.8194 166.031ZM41.4798 159.32C41.6103 159.183 41.7935 159.097 41.9976 159.097C42.3921 159.097 42.7114 159.416 42.7114 159.811C42.7114 160.206 42.3921 160.525 41.9976 160.525C41.6671 160.525 41.3894 160.301 41.3078 159.996L41.307 159.991C41.2926 159.937 41.2838 159.875 41.2838 159.811C41.2838 159.621 41.3582 159.448 41.4798 159.32ZM50.7813 168.92C50.7813 169.139 50.7733 169.357 50.7573 169.572H49.857C49.7674 169.572 49.7306 169.63 49.7306 169.72V170.133C49.7306 171.106 49.1816 171.318 48.7006 171.371C48.2429 171.423 47.7355 171.18 47.6731 170.9C47.6019 169.887 47.0545 169.016 46.255 168.503L46.243 168.496C47.2081 168.022 47.8932 167.107 48.0404 166.021L48.042 166.004C48.0028 165.02 47.4658 164.171 46.6776 163.695L46.6648 163.688C46.131 163.338 45.4868 163.113 44.7929 163.069L44.7817 163.069H35.4746C36.7302 161.669 38.418 160.678 40.3266 160.307L40.3819 160.298L41.479 161.449C41.5975 161.573 41.7639 161.651 41.9488 161.651C42.1232 161.651 42.2809 161.582 42.3977 161.47L43.6245 160.296C46.2118 160.794 48.3565 162.371 49.6065 164.531L49.6289 164.573L48.7887 166.472C48.7535 166.55 48.7334 166.64 48.7334 166.735C48.7334 166.999 48.8895 167.226 49.1152 167.329L49.1192 167.331L50.7373 168.05C50.7653 168.337 50.7797 168.627 50.7797 168.921L50.7813 168.92ZM40.0233 167.434V165.783H42.9835C43.1364 165.783 44.0631 165.96 44.0631 166.653C44.0631 167.228 43.3525 167.435 42.7683 167.435L40.0233 167.434ZM33.2883 167.977L34.8232 167.295C35.0529 167.191 35.2097 166.964 35.2097 166.701C35.2097 166.605 35.1889 166.514 35.1521 166.433L35.1537 166.437L34.8376 165.722H36.0812V171.326H33.5732C33.3603 170.606 33.2387 169.78 33.2387 168.924C33.2387 168.591 33.2571 168.261 33.2939 167.937L33.2899 167.977L33.2883 167.977ZM34.1238 165.996C34.1238 165.76 33.9325 165.568 33.6964 165.568C33.4604 165.568 33.2691 165.76 33.2691 165.996C33.2691 166.232 33.4604 166.423 33.6964 166.423C33.9325 166.423 34.1238 166.232 34.1238 165.996ZM36.8431 177.025C36.7943 177.037 36.739 177.044 36.6814 177.044C36.2869 177.044 35.9676 176.724 35.9676 176.33C35.9676 175.935 36.2869 175.616 36.6814 175.616C37.076 175.616 37.3953 175.935 37.3953 176.33C37.3953 176.407 37.3833 176.481 37.3609 176.551L37.3625 176.546C37.2848 176.786 37.0904 176.967 36.8479 177.025H36.8431ZM46.7576 174.745C46.7168 174.735 46.6696 174.73 46.6207 174.73C46.3102 174.73 46.0502 174.949 45.9869 175.241L45.9861 175.245L45.6284 176.914C44.5649 177.406 43.3204 177.694 42.0088 177.694C40.6684 177.694 39.3975 177.393 38.2604 176.856L38.314 176.879L37.9563 175.21C37.8922 174.915 37.6329 174.696 37.3224 174.696C37.2736 174.696 37.2264 174.702 37.1808 174.711L37.1848 174.71L35.7115 175.027C35.4458 174.754 35.1961 174.461 34.9665 174.152L34.9497 174.129H42.1176C42.1985 174.129 42.2529 174.114 42.2529 174.041V171.504C42.2529 171.43 42.1993 171.416 42.1176 171.416H40.0209V169.808H42.2889C42.9939 169.815 43.5749 170.333 43.6822 171.009L43.683 171.017C43.7734 171.37 43.9703 172.521 44.1063 172.89C44.2407 173.303 44.7897 174.128 45.3747 174.128H48.9463C48.9927 174.127 49.0375 174.122 49.0808 174.114L49.076 174.115C48.8151 174.467 48.5494 174.778 48.2629 175.069L48.2637 175.068L46.7576 174.745ZM47.1001 177.06C48.0044 177.06 48.7374 176.326 48.7374 175.421C48.7374 174.517 48.0044 173.783 47.0993 173.783C46.1942 173.783 45.4612 174.516 45.4612 175.421C45.4612 176.326 46.1942 177.059 47.0985 177.06H47.1001ZM53.8415 168.703L52.834 168.079C52.8255 167.981 52.8161 167.883 52.806 167.785L53.6719 166.979C53.7391 166.915 53.7807 166.825 53.7807 166.726C53.7807 166.578 53.6887 166.452 53.5591 166.401L53.5567 166.4L52.4499 165.986C52.4227 165.891 52.3936 165.795 52.3627 165.7L53.0533 164.741C53.0941 164.685 53.1189 164.615 53.1189 164.539C53.1189 164.367 52.9941 164.224 52.83 164.197H52.8276L51.6608 164.008C51.6155 163.919 51.5685 163.832 51.52 163.745L52.0097 162.668C52.0297 162.626 52.0409 162.577 52.0409 162.524C52.0409 162.452 52.0193 162.386 51.9809 162.331L51.9817 162.331C51.9185 162.238 51.8121 162.177 51.692 162.177C51.688 162.177 51.684 162.177 51.68 162.177H51.6808L50.4964 162.219C50.4356 162.142 50.3732 162.066 50.3092 161.992L50.5813 160.839C50.5869 160.815 50.5901 160.787 50.5901 160.759C50.5901 160.567 50.4348 160.412 50.2427 160.412C50.2147 160.412 50.1875 160.415 50.1611 160.422L50.1635 160.421L49.0103 160.693C48.9351 160.63 48.8591 160.567 48.7823 160.506L48.8239 159.321C48.8239 159.316 48.8239 159.311 48.8239 159.304C48.8239 159.114 48.6694 158.96 48.4798 158.96C48.4269 158.96 48.3765 158.972 48.3317 158.994L48.3341 158.993L47.2578 159.484C47.1705 159.437 47.0833 159.389 46.9953 159.344L46.8048 158.176C46.776 158.01 46.6327 157.886 46.4615 157.886C46.3863 157.886 46.3158 157.91 46.259 157.951L46.2598 157.95L45.3003 158.641C45.2059 158.61 45.1106 158.582 45.0146 158.555L44.6009 157.448C44.5497 157.316 44.4232 157.224 44.2752 157.224C44.1759 157.224 44.0863 157.266 44.0223 157.333L43.2156 158.2C43.118 158.189 43.0201 158.179 42.9219 158.172L42.2985 157.164C42.2361 157.065 42.128 157 42.004 157C41.88 157 41.7711 157.065 41.7103 157.163L41.7095 157.165L41.0861 158.173C40.9879 158.181 40.89 158.19 40.7924 158.201L39.9841 157.334C39.9209 157.266 39.8305 157.223 39.7304 157.223C39.5824 157.223 39.456 157.316 39.4063 157.447L39.4055 157.449L38.9918 158.556C38.8958 158.583 38.8013 158.613 38.7061 158.642L37.7474 157.951C37.6914 157.911 37.6217 157.887 37.5457 157.887C37.3737 157.887 37.2312 158.011 37.2024 158.175V158.177L37.0119 159.345C36.9239 159.391 36.8364 159.437 36.7494 159.486L35.6731 158.995C35.6307 158.975 35.5811 158.963 35.529 158.963C35.3378 158.963 35.1825 159.119 35.1825 159.31C35.1825 159.315 35.1825 159.32 35.1825 159.324L35.2241 160.507C35.1473 160.568 35.0713 160.631 34.9961 160.695L33.8429 160.422C33.8189 160.416 33.7917 160.413 33.7637 160.413C33.5716 160.413 33.4163 160.568 33.4163 160.76C33.4163 160.788 33.4195 160.816 33.4259 160.842L33.4251 160.84L33.6964 161.993C33.634 162.068 33.5708 162.144 33.51 162.219L32.3256 162.178C32.3216 162.178 32.3168 162.178 32.312 162.178C32.1207 162.178 31.9655 162.333 31.9655 162.524C31.9655 162.576 31.9767 162.626 31.9975 162.671L31.9967 162.668L32.488 163.745C32.4395 163.831 32.3925 163.919 32.3472 164.008L31.1812 164.197C31.0155 164.226 30.8915 164.368 30.8915 164.541C30.8915 164.616 30.9155 164.686 30.9563 164.743L30.9555 164.742L31.6461 165.701C31.6163 165.796 31.5872 165.891 31.5589 165.987L30.4522 166.401C30.3201 166.452 30.2281 166.578 30.2281 166.726C30.2281 166.826 30.2697 166.915 30.3361 166.979L31.202 167.786C31.1908 167.884 31.1815 167.982 31.174 168.08L30.1665 168.703C30.0664 168.765 30 168.874 30 168.998C30 169.122 30.0656 169.232 30.1649 169.292L30.1665 169.293L31.174 169.916C31.182 170.015 31.1924 170.112 31.202 170.21L30.3361 171.018C30.2681 171.081 30.2257 171.172 30.2257 171.272C30.2257 171.42 30.3185 171.546 30.4489 171.596L30.4514 171.597L31.5581 172.011C31.5853 172.107 31.6149 172.202 31.6453 172.296L30.9547 173.255C30.9131 173.311 30.8883 173.383 30.8883 173.459C30.8883 173.631 31.0147 173.774 31.1796 173.8H31.1812L32.3472 173.989C32.3928 174.077 32.4392 174.165 32.488 174.252L31.9967 175.328C31.9767 175.371 31.9655 175.42 31.9655 175.472C31.9655 175.664 32.1207 175.819 32.312 175.819C32.3168 175.819 32.3216 175.819 32.3256 175.819H32.3248L33.5084 175.777C33.57 175.854 33.6316 175.93 33.6956 176.006L33.4243 177.16C33.4187 177.184 33.4155 177.211 33.4155 177.239C33.4155 177.43 33.5708 177.585 33.7621 177.585C33.7909 177.585 33.8181 177.582 33.8445 177.576L33.8421 177.577L34.9953 177.305C35.0705 177.369 35.1465 177.431 35.2233 177.492L35.1817 178.676C35.1817 178.681 35.1817 178.686 35.1817 178.692C35.1817 178.882 35.3362 179.036 35.5258 179.036C35.5787 179.036 35.6291 179.024 35.6739 179.002L35.6715 179.003L36.7478 178.513C36.8351 178.562 36.9223 178.608 37.0103 178.654L37.2008 179.82C37.2296 179.986 37.3721 180.111 37.5441 180.111C37.6193 180.111 37.689 180.087 37.7466 180.046L37.7458 180.047L38.7045 179.356C38.7995 179.386 38.8947 179.415 38.9902 179.443L39.4039 180.55C39.4536 180.684 39.58 180.777 39.728 180.777C39.8281 180.777 39.9185 180.734 39.9817 180.665L40.79 179.799C40.8868 179.811 40.9853 179.819 41.0837 179.829L41.7071 180.837C41.7695 180.935 41.8784 181 42.0016 181C42.1248 181 42.2337 180.935 42.2953 180.838L42.2961 180.836L42.9195 179.828C43.0179 179.819 43.1156 179.81 43.2132 179.799L44.0199 180.665C44.0831 180.732 44.1735 180.773 44.2728 180.773C44.42 180.773 44.5464 180.681 44.5977 180.552L44.5985 180.549L45.0122 179.442C45.1077 179.415 45.2029 179.386 45.2979 179.355L46.2566 180.046C46.3126 180.088 46.3839 180.112 46.4599 180.112C46.6319 180.112 46.7752 179.986 46.8008 179.821V179.819L46.9913 178.653C47.0793 178.608 47.1665 178.56 47.2538 178.512L48.3301 179.002C48.3717 179.021 48.4213 179.033 48.4734 179.033C48.6654 179.033 48.8207 178.877 48.8207 178.685C48.8207 178.681 48.8207 178.678 48.8207 178.674L48.7791 177.49C48.8559 177.43 48.9314 177.368 49.0055 177.304L50.1587 177.575C50.1827 177.581 50.2099 177.584 50.2371 177.584C50.4292 177.584 50.5845 177.429 50.5845 177.237C50.5845 177.209 50.5813 177.182 50.5749 177.156L50.5757 177.159L50.3044 176.005C50.3668 175.929 50.43 175.854 50.4908 175.777L51.6752 175.818C51.68 175.818 51.6856 175.818 51.6912 175.818C51.8817 175.818 52.0353 175.664 52.0353 175.474C52.0353 175.421 52.0233 175.371 52.0017 175.326L52.0025 175.328L51.5128 174.252C51.56 174.165 51.608 174.077 51.6536 173.989L52.8196 173.8C52.9853 173.771 53.1093 173.628 53.1093 173.456C53.1093 173.381 53.0853 173.311 53.0445 173.254L53.0453 173.255L52.3547 172.296L52.4419 172.01L53.5486 171.596C53.6815 171.546 53.7743 171.419 53.7743 171.271C53.7743 171.171 53.7319 171.081 53.6639 171.017L52.798 170.209C52.8084 170.112 52.818 170.014 52.826 169.915L53.8335 169.292C53.9336 169.23 54 169.121 54 168.997C54 168.873 53.9344 168.764 53.8351 168.703L53.8335 168.703H53.8415Z" fill="#86888E"/>
<path d="M65.05 174V164.2H68.214C68.9793 164.2 69.6047 164.331 70.09 164.592C70.5753 164.844 70.9347 165.185 71.168 165.614C71.4013 166.043 71.518 166.529 71.518 167.07C71.518 167.593 71.3967 168.073 71.154 168.512C70.9207 168.951 70.5567 169.301 70.062 169.562C69.5673 169.823 68.9327 169.954 68.158 169.954H66.226V174H65.05ZM70.23 174L68.074 169.618H69.39L71.616 174H70.23ZM66.226 169.03H68.13C68.8767 169.03 69.4227 168.848 69.768 168.484C70.1227 168.12 70.3 167.653 70.3 167.084C70.3 166.505 70.1273 166.048 69.782 165.712C69.446 165.367 68.8907 165.194 68.116 165.194H66.226V169.03ZM76.1345 174.168C75.5932 174.168 75.1172 174.061 74.7065 173.846C74.3052 173.631 73.9925 173.3 73.7685 172.852C73.5538 172.404 73.4465 171.844 73.4465 171.172V166.944H74.6225V171.046C74.6225 171.746 74.7765 172.273 75.0845 172.628C75.3925 172.983 75.8265 173.16 76.3865 173.16C76.7785 173.16 77.1332 173.067 77.4505 172.88C77.7678 172.684 78.0152 172.409 78.1925 172.054C78.3792 171.69 78.4725 171.247 78.4725 170.724V166.944H79.6485V174H78.5845L78.5145 172.768C78.2998 173.207 77.9825 173.552 77.5625 173.804C77.1425 174.047 76.6665 174.168 76.1345 174.168ZM84.5379 174.168C83.9499 174.168 83.4366 174.07 82.9979 173.874C82.5686 173.678 82.2232 173.407 81.9619 173.062C81.7099 172.707 81.5559 172.292 81.4999 171.816H82.7039C82.7506 172.059 82.8486 172.283 82.9979 172.488C83.1472 172.693 83.3479 172.861 83.5999 172.992C83.8612 173.113 84.1786 173.174 84.5519 173.174C84.8786 173.174 85.1492 173.127 85.3639 173.034C85.5786 172.931 85.7372 172.796 85.8399 172.628C85.9519 172.46 86.0079 172.278 86.0079 172.082C86.0079 171.793 85.9379 171.573 85.7979 171.424C85.6672 171.275 85.4712 171.158 85.2099 171.074C84.9486 170.981 84.6312 170.901 84.2579 170.836C83.9499 170.78 83.6466 170.705 83.3479 170.612C83.0492 170.519 82.7832 170.397 82.5499 170.248C82.3166 170.089 82.1299 169.898 81.9899 169.674C81.8592 169.45 81.7939 169.175 81.7939 168.848C81.7939 168.447 81.8966 168.092 82.1019 167.784C82.3072 167.467 82.6012 167.219 82.9839 167.042C83.3759 166.865 83.8286 166.776 84.3419 166.776C85.0979 166.776 85.7092 166.958 86.1759 167.322C86.6426 167.686 86.9179 168.213 87.0019 168.904H85.8399C85.7932 168.549 85.6392 168.274 85.3779 168.078C85.1259 167.873 84.7759 167.77 84.3279 167.77C83.8892 167.77 83.5532 167.859 83.3199 168.036C83.0959 168.213 82.9839 168.447 82.9839 168.736C82.9839 168.923 83.0446 169.091 83.1659 169.24C83.2966 169.38 83.4832 169.501 83.7259 169.604C83.9779 169.707 84.2859 169.791 84.6499 169.856C85.1166 169.94 85.5412 170.052 85.9239 170.192C86.3066 170.332 86.6146 170.542 86.8479 170.822C87.0906 171.093 87.2119 171.48 87.2119 171.984C87.2119 172.423 87.0999 172.805 86.8759 173.132C86.6612 173.459 86.3532 173.715 85.9519 173.902C85.5506 174.079 85.0792 174.168 84.5379 174.168ZM91.6428 174C91.2228 174 90.8588 173.935 90.5508 173.804C90.2428 173.673 90.0048 173.454 89.8368 173.146C89.6781 172.829 89.5988 172.404 89.5988 171.872V167.938H88.3668V166.944H89.5988L89.7528 165.236H90.7748V166.944H92.8188V167.938H90.7748V171.872C90.7748 172.311 90.8634 172.609 91.0408 172.768C91.2181 172.917 91.5308 172.992 91.9788 172.992H92.7348V174H91.6428Z" fill="white"/>
</g>
<g filter="url(#filter4_d_2654_26662)">
<rect x="158" y="10" width="81" height="36" rx="10" fill="#0C0D0E" shape-rendering="crispEdges"/>
<rect x="158.5" y="10.5" width="80" height="35" rx="9.5" stroke="#86888E" shape-rendering="crispEdges"/>
<path d="M169.819 24.6699H173.228C174.228 24.6783 174.954 24.9668 175.403 25.5349C175.853 26.103 176.001 26.8789 175.848 27.8626C175.789 28.3122 175.657 28.753 175.454 29.1855C175.259 29.618 174.988 30.008 174.64 30.3558C174.216 30.7966 173.762 31.0765 173.279 31.1953C172.795 31.3141 172.295 31.3734 171.778 31.3734H170.251L169.768 33.7902H168L169.819 24.6699ZM171.307 26.12L170.544 29.936C170.595 29.9444 170.646 29.9487 170.697 29.9487C170.756 29.9487 170.815 29.9487 170.875 29.9487C171.689 29.9571 172.367 29.8767 172.91 29.707C173.453 29.529 173.817 28.91 174.004 27.8499C174.156 26.9595 174.004 26.4464 173.546 26.3108C173.096 26.1752 172.533 26.1116 171.854 26.12C171.752 26.1284 171.655 26.1327 171.562 26.1327C171.477 26.1327 171.388 26.1327 171.294 26.1327L171.307 26.12Z" fill="#86888E"/>
<path d="M177.862 22.2402H179.617L179.121 24.6698H180.699C181.563 24.6868 182.208 24.8649 182.632 25.204C183.064 25.5431 183.192 26.1878 183.014 27.1374L182.161 31.3732H180.381L181.195 27.3282C181.279 26.9042 181.254 26.6032 181.118 26.4251C180.983 26.247 180.69 26.158 180.241 26.158L178.829 26.1453L177.786 31.3732H176.03L177.862 22.2402Z" fill="#86888E"/>
<path d="M184.899 24.6699H188.308C189.309 24.6783 190.034 24.9668 190.483 25.5349C190.933 26.103 191.081 26.8789 190.928 27.8626C190.869 28.3122 190.738 28.753 190.534 29.1855C190.339 29.618 190.068 30.008 189.72 30.3558C189.296 30.7966 188.842 31.0765 188.359 31.1953C187.876 31.3141 187.375 31.3734 186.858 31.3734H185.332L184.848 33.7902H183.08L184.899 24.6699ZM186.387 26.12L185.624 29.936C185.675 29.9444 185.726 29.9487 185.777 29.9487C185.836 29.9487 185.896 29.9487 185.955 29.9487C186.769 29.9571 187.447 29.8767 187.99 29.707C188.533 29.529 188.897 28.91 189.084 27.8499C189.237 26.9595 189.084 26.4464 188.626 26.3108C188.176 26.1752 187.613 26.1116 186.934 26.12C186.832 26.1284 186.735 26.1327 186.642 26.1327C186.557 26.1327 186.468 26.1327 186.375 26.1327L186.387 26.12Z" fill="#86888E"/>
<path d="M203.05 33V23.2H206.242C207.017 23.2 207.651 23.3307 208.146 23.592C208.65 23.844 209.019 24.1847 209.252 24.614C209.495 25.0433 209.616 25.5333 209.616 26.084C209.616 26.616 209.495 27.1013 209.252 27.54C209.019 27.9693 208.655 28.3147 208.16 28.576C207.665 28.8373 207.026 28.968 206.242 28.968H204.226V33H203.05ZM204.226 27.974H206.228C207.012 27.974 207.572 27.8013 207.908 27.456C208.244 27.1107 208.412 26.6533 208.412 26.084C208.412 25.4773 208.244 25.0107 207.908 24.684C207.572 24.348 207.012 24.18 206.228 24.18H204.226V27.974ZM217.709 33V23.2H218.885V33H217.709ZM211.451 33V23.2H212.627V33H211.451ZM212.403 28.492V27.526H218.003V28.492H212.403ZM221.26 33V23.2H224.452C225.227 23.2 225.862 23.3307 226.356 23.592C226.86 23.844 227.229 24.1847 227.462 24.614C227.705 25.0433 227.826 25.5333 227.826 26.084C227.826 26.616 227.705 27.1013 227.462 27.54C227.229 27.9693 226.865 28.3147 226.37 28.576C225.876 28.8373 225.236 28.968 224.452 28.968H222.436V33H221.26ZM222.436 27.974H224.438C225.222 27.974 225.782 27.8013 226.118 27.456C226.454 27.1107 226.622 26.6533 226.622 26.084C226.622 25.4773 226.454 25.0107 226.118 24.684C225.782 24.348 225.222 24.18 224.438 24.18H222.436V27.974Z" fill="white"/>
</g>
<g filter="url(#filter5_d_2654_26662)">
<rect x="158" y="57" width="84" height="36" rx="10" fill="#0C0D0E" shape-rendering="crispEdges"/>
<rect x="158.5" y="57.5" width="83" height="35" rx="9.5" stroke="#86888E" shape-rendering="crispEdges"/>
<path d="M177.09 72.7673C176.868 72.2772 176.769 71.7055 176.938 71.1862C177.107 70.6552 177.487 70.2293 177.866 69.8325C178.922 68.7764 180.223 68.0004 181.256 66.9269C181.827 66.3375 182.3 65.6316 182.463 64.8205C182.597 64.2254 182.533 63.6128 182.411 63.0234C182.959 63.6478 183.14 64.5405 182.983 65.3457C182.813 66.25 182.312 67.0493 181.722 67.7377C181.25 68.2921 180.707 68.7822 180.141 69.2374C179.482 69.7684 178.834 70.3401 178.42 71.087C178.07 71.6937 177.988 72.4405 178.227 73.0999C178.618 74.2317 179.529 75.072 180.025 76.1396C179.476 75.6553 178.939 75.1536 178.437 74.6227C177.912 74.0625 177.416 73.4675 177.09 72.7673ZM180.065 71.8804C179.966 72.8081 180.45 73.6833 181.028 74.3718C181.308 74.681 181.547 75.0603 181.559 75.4921C181.571 76.0695 181.244 76.6065 180.824 76.9856C180.923 76.974 180.993 76.8864 181.075 76.8398C181.705 76.4372 182.311 75.9296 182.621 75.2354C182.825 74.7628 182.778 74.2026 182.51 73.7649C182.195 73.2515 181.781 72.7964 181.536 72.2363C181.401 71.9213 181.355 71.5537 181.466 71.2211C181.611 70.7719 181.926 70.4043 182.259 70.0834C183.175 69.2141 184.284 68.5954 185.346 67.9187C184.004 68.3038 182.679 68.8348 181.547 69.6692C180.83 70.206 180.165 70.9527 180.065 71.8804ZM186.443 76.2681C187.079 76.3031 187.703 76.7698 187.82 77.4117C187.93 77.966 187.662 78.5144 187.318 78.9344C186.752 79.6112 185.987 80.0955 185.217 80.5098C185.141 80.5563 185.077 80.6147 185.019 80.679C186.034 80.4222 187.049 80.0373 187.872 79.3779C188.327 78.9986 188.73 78.4967 188.817 77.8958C188.899 77.3766 188.683 76.8397 188.298 76.4955C187.831 76.0695 187.172 75.912 186.553 75.9938C186.197 76.0404 185.807 76.1163 185.562 76.4138C185.853 76.3557 186.139 76.2389 186.443 76.2681ZM173.776 77.9366C174.54 78.1408 175.328 78.1992 176.109 78.2518C176.81 78.2984 177.51 78.3102 178.216 78.3043C180.036 78.2752 181.868 78.1526 183.654 77.7559C183.823 77.7151 184.009 77.6859 184.161 77.5809C184.459 77.3882 184.785 77.2365 185.106 77.0848C183.654 77.3182 182.195 77.5168 180.725 77.61C179.237 77.7034 177.737 77.7617 176.244 77.6626C175.818 77.6218 175.38 77.5983 174.983 77.4349C174.89 77.3941 174.762 77.3126 174.808 77.1899C174.896 77.0323 175.071 76.9566 175.223 76.8749C175.864 76.5714 176.565 76.4023 177.247 76.2039C176.074 76.1863 174.907 76.4838 173.834 76.9448C173.595 77.0616 173.326 77.1549 173.134 77.3533C173.058 77.4348 173.058 77.5751 173.146 77.645C173.321 77.8025 173.554 77.8725 173.776 77.9366ZM183.228 79.5413C182.207 79.7221 181.18 79.8915 180.147 79.9439C179.015 80.0197 177.883 79.9554 176.763 79.8388C176.547 79.8096 176.331 79.7747 176.139 79.6755C176.039 79.6171 175.94 79.5239 175.946 79.4011C175.958 79.2087 176.121 79.0746 176.238 78.9345C175.876 79.0628 175.514 79.1969 175.211 79.4364C175.082 79.5356 174.954 79.693 174.989 79.868C175.042 80.0722 175.24 80.1947 175.415 80.288C175.847 80.5099 176.331 80.6089 176.804 80.6965C178 80.8891 179.219 80.895 180.421 80.8131C181.693 80.714 182.959 80.504 184.19 80.1422C183.84 79.9848 183.508 79.8037 183.228 79.5413ZM176.815 81.5602C176.489 81.6535 176.156 81.7644 175.888 81.9801C175.753 82.0851 175.649 82.2662 175.713 82.4354C175.794 82.6512 175.999 82.7797 176.191 82.8903C176.693 83.1647 177.259 83.2929 177.813 83.3922C179.068 83.5905 180.357 83.5613 181.606 83.3397C182.347 83.1996 183.088 83.0012 183.776 82.6921C183.327 82.5054 182.889 82.2953 182.469 82.0503C181.74 82.1786 181.005 82.3129 180.258 82.3596C179.272 82.4354 178.274 82.3537 177.288 82.2312C177.055 82.1787 176.763 82.1554 176.605 81.9511C176.524 81.7817 176.71 81.6592 176.815 81.5602ZM184.797 85.3117C185.614 85.1427 186.437 84.9498 187.184 84.5707C187.417 84.4364 187.703 84.2905 187.779 84.0106C187.82 83.7422 187.539 83.6021 187.341 83.4912C187.464 83.6315 187.545 83.8356 187.423 83.9989C187.218 84.2732 186.869 84.3781 186.559 84.4832C185.591 84.7574 184.587 84.8683 183.589 84.9792C180.946 85.2184 178.286 85.2768 175.643 85.0551C174.756 84.9616 173.851 84.8625 173.005 84.5475C172.871 84.489 172.667 84.4306 172.667 84.2497C172.719 84.0925 172.871 84.0047 173.005 83.9288C173.612 83.6197 174.289 83.4504 174.966 83.4096C174.768 83.2928 174.534 83.2813 174.307 83.2871C173.741 83.3046 173.186 83.4504 172.65 83.6315C172.189 83.8005 171.716 83.9873 171.348 84.3258C171.203 84.454 171.069 84.699 171.22 84.8742C171.453 85.1251 171.815 85.1892 172.136 85.265C173.933 85.5743 175.753 85.7491 177.574 85.8134C179.99 85.8836 182.422 85.7785 184.797 85.3117ZM187.189 85.6268C186.092 85.9769 184.955 86.1694 183.823 86.327C181.868 86.572 179.896 86.6478 177.93 86.5896C176.734 86.543 175.538 86.4613 174.359 86.2627C174.633 86.4495 174.972 86.5077 175.287 86.5953C176.611 86.8755 177.971 86.928 179.319 86.9687C181.296 87.0038 183.274 86.928 185.223 86.6187C186.145 86.4555 187.073 86.257 187.901 85.8252C188.333 85.5977 188.771 85.2474 188.846 84.74C188.409 85.2066 187.779 85.4226 187.189 85.6268Z" fill="#86888E"/>
<path d="M205.234 80.168C204.646 80.168 204.137 80.056 203.708 79.832C203.288 79.608 202.961 79.286 202.728 78.866C202.504 78.446 202.392 77.9467 202.392 77.368H203.582C203.582 77.6947 203.633 77.9933 203.736 78.264C203.848 78.5253 204.021 78.7353 204.254 78.894C204.497 79.0433 204.819 79.118 205.22 79.118C205.612 79.118 205.92 79.0433 206.144 78.894C206.377 78.7447 206.541 78.544 206.634 78.292C206.737 78.0307 206.788 77.7367 206.788 77.41V70.2H207.964V77.41C207.964 78.2873 207.721 78.9687 207.236 79.454C206.76 79.93 206.093 80.168 205.234 80.168ZM212.57 80.168C212 80.168 211.524 80.07 211.142 79.874C210.759 79.6687 210.474 79.4027 210.288 79.076C210.101 78.74 210.008 78.376 210.008 77.984C210.008 77.508 210.129 77.1067 210.372 76.78C210.624 76.444 210.974 76.192 211.422 76.024C211.879 75.8467 212.416 75.758 213.032 75.758H214.894C214.894 75.3193 214.824 74.9553 214.684 74.666C214.553 74.3673 214.357 74.1433 214.096 73.994C213.844 73.8447 213.526 73.77 213.144 73.77C212.696 73.77 212.308 73.882 211.982 74.106C211.655 74.33 211.454 74.6613 211.38 75.1H210.176C210.232 74.596 210.4 74.176 210.68 73.84C210.969 73.4947 211.333 73.2333 211.772 73.056C212.21 72.8693 212.668 72.776 213.144 72.776C213.797 72.776 214.338 72.8973 214.768 73.14C215.206 73.3733 215.533 73.7047 215.748 74.134C215.962 74.554 216.07 75.0533 216.07 75.632V80H215.02L214.95 78.754C214.856 78.95 214.735 79.1367 214.586 79.314C214.446 79.482 214.278 79.6313 214.082 79.762C213.886 79.8833 213.662 79.9813 213.41 80.056C213.167 80.1307 212.887 80.168 212.57 80.168ZM212.752 79.174C213.078 79.174 213.372 79.1087 213.634 78.978C213.904 78.838 214.133 78.6513 214.32 78.418C214.506 78.1753 214.646 77.9093 214.74 77.62C214.842 77.3307 214.894 77.0273 214.894 76.71V76.668H213.13C212.672 76.668 212.304 76.724 212.024 76.836C211.744 76.9387 211.543 77.088 211.422 77.284C211.3 77.4707 211.24 77.6853 211.24 77.928C211.24 78.18 211.296 78.3993 211.408 78.586C211.529 78.7727 211.702 78.9173 211.926 79.02C212.159 79.1227 212.434 79.174 212.752 79.174ZM219.939 80L217.265 72.944H218.497L220.625 78.866L222.767 72.944H223.971L221.297 80H219.939ZM227.512 80.168C226.943 80.168 226.467 80.07 226.084 79.874C225.702 79.6687 225.417 79.4027 225.23 79.076C225.044 78.74 224.95 78.376 224.95 77.984C224.95 77.508 225.072 77.1067 225.314 76.78C225.566 76.444 225.916 76.192 226.364 76.024C226.822 75.8467 227.358 75.758 227.974 75.758H229.836C229.836 75.3193 229.766 74.9553 229.626 74.666C229.496 74.3673 229.3 74.1433 229.038 73.994C228.786 73.8447 228.469 73.77 228.086 73.77C227.638 73.77 227.251 73.882 226.924 74.106C226.598 74.33 226.397 74.6613 226.322 75.1H225.118C225.174 74.596 225.342 74.176 225.622 73.84C225.912 73.4947 226.276 73.2333 226.714 73.056C227.153 72.8693 227.61 72.776 228.086 72.776C228.74 72.776 229.281 72.8973 229.71 73.14C230.149 73.3733 230.476 73.7047 230.69 74.134C230.905 74.554 231.012 75.0533 231.012 75.632V80H229.962L229.892 78.754C229.799 78.95 229.678 79.1367 229.528 79.314C229.388 79.482 229.22 79.6313 229.024 79.762C228.828 79.8833 228.604 79.9813 228.352 80.056C228.11 80.1307 227.83 80.168 227.512 80.168ZM227.694 79.174C228.021 79.174 228.315 79.1087 228.576 78.978C228.847 78.838 229.076 78.6513 229.262 78.418C229.449 78.1753 229.589 77.9093 229.682 77.62C229.785 77.3307 229.836 77.0273 229.836 76.71V76.668H228.072C227.615 76.668 227.246 76.724 226.966 76.836C226.686 76.9387 226.486 77.088 226.364 77.284C226.243 77.4707 226.182 77.6853 226.182 77.928C226.182 78.18 226.238 78.3993 226.35 78.586C226.472 78.7727 226.644 78.9173 226.868 79.02C227.102 79.1227 227.377 79.174 227.694 79.174Z" fill="white"/>
</g>
<g filter="url(#filter6_d_2654_26662)">
<rect x="158" y="104" width="63" height="36" rx="10" fill="#0C0D0E" shape-rendering="crispEdges"/>
<rect x="158.5" y="104.5" width="62" height="35" rx="9.5" stroke="#86888E" shape-rendering="crispEdges"/>
<g clip-path="url(#clip2_2654_26662)">
<path fill-rule="evenodd" clip-rule="evenodd" d="M178.365 110.163C178.758 109.946 179.242 109.946 179.634 110.163C181.577 111.239 187.422 114.478 189.365 115.554C189.758 115.771 190 116.174 190 116.609C190 118.761 190 125.238 190 127.39C190 127.826 189.758 128.228 189.365 128.446C187.422 129.522 181.577 132.76 179.634 133.836C179.241 134.054 178.757 134.054 178.365 133.836C176.423 132.76 170.577 129.522 168.635 128.446C168.242 128.228 168 127.826 168 127.391C168 125.239 168 118.762 168 116.61C168 116.174 168.242 115.772 168.635 115.554C170.577 114.478 176.423 111.239 178.365 110.163Z" fill="#86888E"/>
<path fill-rule="evenodd" clip-rule="evenodd" d="M168.176 127.945C168.022 127.742 168 127.549 168 127.289C168 125.149 168 118.709 168 116.569C168 116.136 168.241 115.736 168.633 115.52C170.569 114.45 176.394 111.23 178.33 110.16C178.722 109.944 179.252 109.948 179.644 110.165C181.58 111.234 187.385 114.427 189.321 115.497C189.477 115.584 189.596 115.688 189.703 115.826L168.176 127.945Z" fill="#ACADAE"/>
<path fill-rule="evenodd" clip-rule="evenodd" d="M179 114C183.473 114 187.105 117.585 187.105 122C187.105 126.415 183.473 130 179 130C174.526 130 170.895 126.415 170.895 122C170.895 117.585 174.526 114 179 114ZM179 118C181.236 118 183.052 119.792 183.052 122C183.052 124.207 181.236 126 179 126C176.763 126 174.947 124.207 174.947 122C174.947 119.792 176.763 118 179 118Z" fill="#0C0D0E"/>
<path fill-rule="evenodd" clip-rule="evenodd" d="M189.702 115.832C190.001 116.108 189.995 116.524 189.995 116.851C189.995 119.02 189.977 125.188 190 127.357C190.003 127.583 189.927 127.821 189.813 128.001L178.765 122.001L189.702 115.832Z" fill="#9FA1A6"/>
</g>
<path d="M205.306 127.168C204.354 127.168 203.528 126.958 202.828 126.538C202.137 126.109 201.605 125.516 201.232 124.76C200.859 123.995 200.672 123.108 200.672 122.1C200.672 121.092 200.859 120.21 201.232 119.454C201.605 118.689 202.137 118.096 202.828 117.676C203.528 117.247 204.354 117.032 205.306 117.032C206.426 117.032 207.336 117.298 208.036 117.83C208.736 118.362 209.184 119.113 209.38 120.084H208.078C207.929 119.477 207.625 118.992 207.168 118.628C206.711 118.255 206.09 118.068 205.306 118.068C204.606 118.068 203.999 118.231 203.486 118.558C202.973 118.875 202.576 119.337 202.296 119.944C202.016 120.541 201.876 121.26 201.876 122.1C201.876 122.94 202.016 123.663 202.296 124.27C202.576 124.867 202.973 125.329 203.486 125.656C203.999 125.973 204.606 126.132 205.306 126.132C206.09 126.132 206.711 125.955 207.168 125.6C207.625 125.236 207.929 124.755 208.078 124.158H209.38C209.184 125.101 208.736 125.838 208.036 126.37C207.336 126.902 206.426 127.168 205.306 127.168Z" fill="white"/>
</g>
<g filter="url(#filter7_d_2654_26662)">
<rect x="158" y="151" width="78" height="36" rx="10" fill="#0C0D0E" shape-rendering="crispEdges"/>
<rect x="158.5" y="151.5" width="77" height="35" rx="9.5" stroke="#86888E" shape-rendering="crispEdges"/>
<g clip-path="url(#clip3_2654_26662)">
<path d="M189.72 175C189.893 174.71 190 174.383 190 174.09V163.91C190 163.616 189.893 163.29 189.72 163L179 169L189.72 175Z" fill="#9FA1A6"/>
<path d="M179.953 180.78L189.048 175.69C189.31 175.543 189.548 175.29 189.72 175L179 169L168.28 175C168.453 175.29 168.691 175.543 168.953 175.69L178.048 180.78C178.572 181.073 179.429 181.073 179.953 180.78Z" fill="#86888E"/>
<path d="M189.72 163C189.547 162.71 189.309 162.457 189.047 162.31L179.953 157.22C179.429 156.927 178.571 156.927 178.047 157.22L168.953 162.31C168.429 162.603 168 163.323 168 163.91V174.09C168 174.383 168.107 174.71 168.28 175L179 169L189.72 163Z" fill="#ACADAE"/>
<path d="M179 176.109C174.957 176.109 171.667 172.92 171.667 169C171.667 165.08 174.957 161.891 179 161.891C181.61 161.891 184.043 163.252 185.351 165.443L182.177 167.223C181.523 166.127 180.305 165.445 179 165.445C176.978 165.445 175.334 167.04 175.334 169C175.334 170.96 176.978 172.554 179 172.554C180.305 172.554 181.523 171.873 182.177 170.776L185.351 172.556C184.043 174.747 181.61 176.109 179 176.109Z" fill="#0C0D0E"/>
<path d="M186.333 168.604H185.518V167.814H184.704V168.604H183.889V169.394H184.704V170.184H185.518V169.394H186.333V168.604Z" fill="#0C0D0E"/>
<path d="M189.389 168.604H188.574V167.814H187.759V168.604H186.944V169.394H187.759V170.184H188.574V169.394H189.389V168.604Z" fill="#0C0D0E"/>
</g>
<path d="M205.306 174.168C204.354 174.168 203.528 173.958 202.828 173.538C202.137 173.109 201.605 172.516 201.232 171.76C200.859 170.995 200.672 170.108 200.672 169.1C200.672 168.092 200.859 167.21 201.232 166.454C201.605 165.689 202.137 165.096 202.828 164.676C203.528 164.247 204.354 164.032 205.306 164.032C206.426 164.032 207.336 164.298 208.036 164.83C208.736 165.362 209.184 166.113 209.38 167.084H208.078C207.929 166.477 207.625 165.992 207.168 165.628C206.711 165.255 206.09 165.068 205.306 165.068C204.606 165.068 203.999 165.231 203.486 165.558C202.973 165.875 202.576 166.337 202.296 166.944C202.016 167.541 201.876 168.26 201.876 169.1C201.876 169.94 202.016 170.663 202.296 171.27C202.576 171.867 202.973 172.329 203.486 172.656C203.999 172.973 204.606 173.132 205.306 173.132C206.09 173.132 206.711 172.955 207.168 172.6C207.625 172.236 207.929 171.755 208.078 171.158H209.38C209.184 172.101 208.736 172.838 208.036 173.37C207.336 173.902 206.426 174.168 205.306 174.168ZM213.633 172.992V166.888H214.683V172.992H213.633ZM210.959 170.43V169.436H217.357V170.43H210.959ZM221.61 172.992V166.888H222.66V172.992H221.61ZM218.936 170.43V169.436H225.334V170.43H218.936Z" fill="white"/>
</g>
<g filter="url(#filter8_d_2654_26662)">
<rect x="21" y="198" width="126" height="36" rx="10" fill="#0C0D0E" shape-rendering="crispEdges"/>
<rect x="21.5" y="198.5" width="125" height="35" rx="9.5" stroke="#86888E" shape-rendering="crispEdges"/>
<path d="M43.0091 220.422C43.0061 220.422 43.0024 220.422 42.9986 220.422C42.5209 220.422 42.1339 220.809 42.1339 221.287C42.1339 221.766 42.5209 222.153 42.9986 222.153C43.0024 222.153 43.0061 222.153 43.0099 222.153H47.1641C47.1664 222.153 47.1694 222.153 47.1724 222.153C47.6501 222.153 48.0371 221.766 48.0371 221.288C48.0371 220.81 47.6501 220.423 47.1724 220.423C47.1694 220.423 47.1664 220.423 47.1641 220.423L43.0091 220.422ZM45.6296 216.299C45.7301 216.151 45.7901 215.968 45.7901 215.771C45.7901 215.526 45.6971 215.302 45.5449 215.134L45.5456 215.134L40.3031 209.556C40.1239 209.386 39.8816 209.281 39.6146 209.281C39.0626 209.281 38.6149 209.728 38.6149 210.28C38.6149 210.525 38.7026 210.749 38.8481 210.922L38.8466 210.921L43.2161 215.569V215.672L36.2621 220.709C36.0379 220.894 35.8954 221.172 35.8954 221.483C35.8954 222.035 36.3431 222.483 36.8951 222.483C37.0961 222.483 37.2829 222.424 37.4396 222.322L37.4359 222.324L45.1481 216.785C45.3469 216.663 45.5096 216.499 45.6266 216.304L45.6304 216.298L45.6296 216.299ZM53.4791 207.54C53.4881 207.539 53.4986 207.539 53.5099 207.539C53.9224 207.539 54.2561 207.874 54.2561 208.285C54.2561 208.366 54.2434 208.443 54.2201 208.515L54.2216 208.51L50.7926 223.489C50.6524 224.032 50.1799 224.431 49.6099 224.458H49.6069H32.5211C32.5121 224.459 32.5016 224.459 32.4904 224.459C32.0779 224.459 31.7441 224.125 31.7441 223.713C31.7441 223.633 31.7569 223.555 31.7801 223.483L31.7786 223.489L35.2076 208.51C35.3479 207.967 35.8204 207.568 36.3904 207.54H36.3934H53.4791Z" fill="#86888E"/>
<path d="M66.05 221V211.2H69.242C70.0167 211.2 70.6513 211.331 71.146 211.592C71.65 211.844 72.0187 212.185 72.252 212.614C72.4947 213.043 72.616 213.533 72.616 214.084C72.616 214.616 72.4947 215.101 72.252 215.54C72.0187 215.969 71.6547 216.315 71.16 216.576C70.6653 216.837 70.026 216.968 69.242 216.968H67.226V221H66.05ZM67.226 215.974H69.228C70.012 215.974 70.572 215.801 70.908 215.456C71.244 215.111 71.412 214.653 71.412 214.084C71.412 213.477 71.244 213.011 70.908 212.684C70.572 212.348 70.012 212.18 69.228 212.18H67.226V215.974ZM77.1209 221.168C76.4676 221.168 75.8796 221.019 75.3569 220.72C74.8343 220.412 74.4236 219.983 74.1249 219.432C73.8263 218.872 73.6769 218.223 73.6769 217.486C73.6769 216.73 73.8263 216.077 74.1249 215.526C74.4329 214.966 74.8483 214.537 75.3709 214.238C75.9029 213.93 76.4956 213.776 77.1489 213.776C77.8209 213.776 78.4136 213.93 78.9269 214.238C79.4496 214.537 79.8603 214.966 80.1589 215.526C80.4669 216.077 80.6209 216.725 80.6209 217.472C80.6209 218.219 80.4669 218.872 80.1589 219.432C79.8509 219.983 79.4356 220.412 78.9129 220.72C78.3903 221.019 77.7929 221.168 77.1209 221.168ZM77.1349 220.16C77.5363 220.16 77.9096 220.062 78.2549 219.866C78.6003 219.661 78.8803 219.357 79.0949 218.956C79.3096 218.555 79.4169 218.06 79.4169 217.472C79.4169 216.875 79.3096 216.38 79.0949 215.988C78.8896 215.587 78.6143 215.288 78.2689 215.092C77.9329 214.887 77.5596 214.784 77.1489 214.784C76.7569 214.784 76.3836 214.887 76.0289 215.092C75.6836 215.288 75.4036 215.587 75.1889 215.988C74.9836 216.38 74.8809 216.875 74.8809 217.472C74.8809 218.06 74.9836 218.555 75.1889 218.956C75.4036 219.357 75.6789 219.661 76.0149 219.866C76.3603 220.062 76.7336 220.16 77.1349 220.16ZM83.718 221L81.646 213.944H82.822L84.432 219.894H84.222L85.972 213.944H87.302L89.08 219.88L88.856 219.894L90.452 213.944H91.642L89.584 221H88.38L86.532 214.784H86.77L84.922 221H83.718ZM96.082 221.168C95.4193 221.168 94.8313 221.014 94.318 220.706C93.814 220.398 93.4173 219.969 93.128 219.418C92.8386 218.858 92.694 218.209 92.694 217.472C92.694 216.725 92.834 216.077 93.114 215.526C93.4033 214.975 93.8046 214.546 94.318 214.238C94.8406 213.93 95.438 213.776 96.11 213.776C96.8006 213.776 97.384 213.93 97.86 214.238C98.3453 214.546 98.714 214.952 98.966 215.456C99.2273 215.951 99.358 216.497 99.358 217.094C99.358 217.187 99.358 217.285 99.358 217.388C99.358 217.491 99.3533 217.607 99.344 217.738H93.576V216.828H98.21C98.182 216.184 97.9673 215.68 97.566 215.316C97.174 214.952 96.6793 214.77 96.082 214.77C95.6806 214.77 95.3073 214.863 94.962 215.05C94.626 215.227 94.3553 215.493 94.15 215.848C93.9446 216.193 93.842 216.627 93.842 217.15V217.542C93.842 218.121 93.9446 218.606 94.15 218.998C94.3646 219.39 94.64 219.684 94.976 219.88C95.3213 220.076 95.69 220.174 96.082 220.174C96.5766 220.174 96.9826 220.067 97.3 219.852C97.6266 219.628 97.86 219.329 98 218.956H99.162C99.05 219.376 98.854 219.754 98.574 220.09C98.294 220.426 97.944 220.692 97.524 220.888C97.1133 221.075 96.6326 221.168 96.082 221.168ZM101.225 221V213.944H102.289L102.373 215.288C102.532 214.971 102.732 214.7 102.975 214.476C103.227 214.252 103.526 214.079 103.871 213.958C104.226 213.837 104.627 213.776 105.075 213.776V215.008H104.641C104.342 215.008 104.058 215.05 103.787 215.134C103.516 215.209 103.274 215.335 103.059 215.512C102.854 215.689 102.69 215.932 102.569 216.24C102.457 216.539 102.401 216.912 102.401 217.36V221H101.225ZM109.347 221.168C108.759 221.168 108.245 221.07 107.807 220.874C107.377 220.678 107.032 220.407 106.771 220.062C106.519 219.707 106.365 219.292 106.309 218.816H107.513C107.559 219.059 107.657 219.283 107.807 219.488C107.956 219.693 108.157 219.861 108.409 219.992C108.67 220.113 108.987 220.174 109.361 220.174C109.687 220.174 109.958 220.127 110.173 220.034C110.387 219.931 110.546 219.796 110.649 219.628C110.761 219.46 110.817 219.278 110.817 219.082C110.817 218.793 110.747 218.573 110.607 218.424C110.476 218.275 110.28 218.158 110.019 218.074C109.757 217.981 109.44 217.901 109.067 217.836C108.759 217.78 108.455 217.705 108.157 217.612C107.858 217.519 107.592 217.397 107.359 217.248C107.125 217.089 106.939 216.898 106.799 216.674C106.668 216.45 106.603 216.175 106.603 215.848C106.603 215.447 106.705 215.092 106.911 214.784C107.116 214.467 107.41 214.219 107.793 214.042C108.185 213.865 108.637 213.776 109.151 213.776C109.907 213.776 110.518 213.958 110.985 214.322C111.451 214.686 111.727 215.213 111.811 215.904H110.649C110.602 215.549 110.448 215.274 110.187 215.078C109.935 214.873 109.585 214.77 109.137 214.77C108.698 214.77 108.362 214.859 108.129 215.036C107.905 215.213 107.793 215.447 107.793 215.736C107.793 215.923 107.853 216.091 107.975 216.24C108.105 216.38 108.292 216.501 108.535 216.604C108.787 216.707 109.095 216.791 109.459 216.856C109.925 216.94 110.35 217.052 110.733 217.192C111.115 217.332 111.423 217.542 111.657 217.822C111.899 218.093 112.021 218.48 112.021 218.984C112.021 219.423 111.909 219.805 111.685 220.132C111.47 220.459 111.162 220.715 110.761 220.902C110.359 221.079 109.888 221.168 109.347 221.168ZM113.994 221V210.92H115.17V215.134C115.403 214.714 115.73 214.383 116.15 214.14C116.579 213.897 117.046 213.776 117.55 213.776C118.091 213.776 118.563 213.888 118.964 214.112C119.365 214.327 119.673 214.658 119.888 215.106C120.103 215.554 120.21 216.119 120.21 216.8V221H119.048V216.926C119.048 216.217 118.899 215.685 118.6 215.33C118.301 214.966 117.867 214.784 117.298 214.784C116.897 214.784 116.533 214.882 116.206 215.078C115.889 215.274 115.637 215.554 115.45 215.918C115.263 216.282 115.17 216.73 115.17 217.262V221H113.994ZM125.421 221.168C124.758 221.168 124.17 221.014 123.657 220.706C123.153 220.398 122.756 219.969 122.467 219.418C122.177 218.858 122.033 218.209 122.033 217.472C122.033 216.725 122.173 216.077 122.453 215.526C122.742 214.975 123.143 214.546 123.657 214.238C124.179 213.93 124.777 213.776 125.449 213.776C126.139 213.776 126.723 213.93 127.199 214.238C127.684 214.546 128.053 214.952 128.305 215.456C128.566 215.951 128.697 216.497 128.697 217.094C128.697 217.187 128.697 217.285 128.697 217.388C128.697 217.491 128.692 217.607 128.683 217.738H122.915V216.828H127.549C127.521 216.184 127.306 215.68 126.905 215.316C126.513 214.952 126.018 214.77 125.421 214.77C125.019 214.77 124.646 214.863 124.301 215.05C123.965 215.227 123.694 215.493 123.489 215.848C123.283 216.193 123.181 216.627 123.181 217.15V217.542C123.181 218.121 123.283 218.606 123.489 218.998C123.703 219.39 123.979 219.684 124.315 219.88C124.66 220.076 125.029 220.174 125.421 220.174C125.915 220.174 126.321 220.067 126.639 219.852C126.965 219.628 127.199 219.329 127.339 218.956H128.501C128.389 219.376 128.193 219.754 127.913 220.09C127.633 220.426 127.283 220.692 126.863 220.888C126.452 221.075 125.971 221.168 125.421 221.168ZM130.564 221V210.92H131.74V221H130.564ZM133.961 221V210.92H135.137V221H133.961Z" fill="white"/>
</g>
<g filter="url(#filter9_d_2654_26662)">
<rect x="158" y="198" width="86" height="36" rx="10" fill="#0C0D0E" shape-rendering="crispEdges"/>
<rect x="158.5" y="198.5" width="85" height="35" rx="9.5" stroke="#86888E" shape-rendering="crispEdges"/>
<path d="M187.024 210.448L181.072 206.912C180.368 206.496 179.488 206.496 178.768 206.912L172.816 210.448C172.112 210.864 171.664 211.648 171.664 212.496V219.568C171.664 220.416 172.096 221.184 172.816 221.616L178.768 225.152C179.12 225.36 179.52 225.472 179.92 225.472C180.32 225.472 180.72 225.36 181.072 225.152L187.024 221.616C187.728 221.2 188.176 220.416 188.176 219.568V212.48C188.176 211.648 187.744 210.864 187.024 210.448Z" fill="#86888E"/>
<path d="M187.024 210.448L181.072 206.912C180.72 206.704 180.32 206.592 179.92 206.592C179.52 206.592 179.12 206.704 178.768 206.912L172.816 210.448C172.112 210.864 171.664 211.648 171.664 212.496V219.568C171.664 220.416 172.096 221.184 172.816 221.616L178.768 225.152C179.12 225.36 179.52 225.472 179.92 225.472C180.32 225.472 180.72 225.36 181.072 225.152L187.024 221.616C187.728 221.2 188.176 220.416 188.176 219.568V212.48C188.176 211.648 187.744 210.864 187.024 210.448ZM178.976 224.768L173.024 221.232C172.448 220.88 172.08 220.24 172.08 219.552V212.48C172.08 211.792 172.448 211.136 173.024 210.8L178.976 207.264C179.264 207.088 179.584 207.008 179.92 207.008C180.256 207.008 180.576 207.104 180.864 207.264L186.816 210.8C187.312 211.088 187.632 211.6 187.728 212.16C187.536 211.744 187.088 211.616 186.56 211.92L180.944 215.408C180.24 215.824 179.728 216.272 179.728 217.12V224.064C179.728 224.576 179.936 224.896 180.24 224.992C180.144 225.008 180.032 225.024 179.92 225.024C179.6 225.04 179.264 224.944 178.976 224.768Z" fill="#313337"/>
<path d="M185.472 220.24L183.984 221.12C183.952 221.136 183.92 221.168 183.92 221.216V221.6C183.92 221.648 183.952 221.664 183.984 221.648L185.488 220.736C185.52 220.72 185.536 220.672 185.536 220.624V220.288C185.536 220.24 185.504 220.224 185.472 220.24Z" fill="#0C0D0E"/>
<path d="M182.304 216.975C182.352 216.943 182.384 216.975 182.4 217.039V217.551C182.608 217.471 182.8 217.439 182.976 217.487C183.008 217.503 183.024 217.551 183.008 217.599L182.896 218.047C182.88 218.079 182.864 218.111 182.848 218.143C182.832 218.159 182.832 218.159 182.816 218.159C182.8 218.159 182.784 218.175 182.768 218.159C182.688 218.143 182.512 218.095 182.224 218.255C181.92 218.415 181.808 218.671 181.824 218.863C181.824 219.103 181.952 219.167 182.352 219.167C182.896 219.183 183.136 219.423 183.152 219.967C183.152 220.511 182.864 221.103 182.416 221.455L182.432 221.967C182.432 222.031 182.4 222.095 182.352 222.127L182.048 222.303C182 222.335 181.968 222.303 181.952 222.239V221.743C181.696 221.855 181.44 221.871 181.264 221.807C181.232 221.791 181.216 221.743 181.232 221.695L181.344 221.231C181.36 221.199 181.376 221.151 181.392 221.135C181.408 221.119 181.408 221.119 181.424 221.119C181.44 221.103 181.456 221.103 181.472 221.119C181.648 221.183 181.888 221.151 182.096 221.039C182.384 220.895 182.56 220.607 182.56 220.319C182.56 220.063 182.416 219.951 182.08 219.951C181.648 219.951 181.248 219.871 181.232 219.231C181.232 218.703 181.504 218.159 181.936 217.823V217.311C181.936 217.247 181.968 217.183 182.016 217.151L182.304 216.975Z" fill="#86888E"/>
<path d="M203.05 221V211.2H206.494C207.185 211.2 207.754 211.312 208.202 211.536C208.659 211.751 209 212.049 209.224 212.432C209.448 212.805 209.56 213.225 209.56 213.692C209.56 214.196 209.448 214.616 209.224 214.952C209.009 215.288 208.725 215.545 208.37 215.722C208.025 215.899 207.656 216.007 207.264 216.044L207.46 215.904C207.88 215.913 208.267 216.025 208.622 216.24C208.977 216.455 209.257 216.744 209.462 217.108C209.677 217.472 209.784 217.878 209.784 218.326C209.784 218.821 209.663 219.273 209.42 219.684C209.177 220.085 208.818 220.407 208.342 220.65C207.875 220.883 207.297 221 206.606 221H203.05ZM204.226 220.02H206.48C207.143 220.02 207.656 219.866 208.02 219.558C208.393 219.241 208.58 218.802 208.58 218.242C208.58 217.691 208.389 217.253 208.006 216.926C207.633 216.59 207.115 216.422 206.452 216.422H204.226V220.02ZM204.226 215.484H206.41C207.045 215.484 207.525 215.335 207.852 215.036C208.188 214.737 208.356 214.331 208.356 213.818C208.356 213.323 208.188 212.927 207.852 212.628C207.525 212.329 207.031 212.18 206.368 212.18H204.226V215.484ZM213.992 221.168C213.422 221.168 212.946 221.07 212.564 220.874C212.181 220.669 211.896 220.403 211.71 220.076C211.523 219.74 211.43 219.376 211.43 218.984C211.43 218.508 211.551 218.107 211.794 217.78C212.046 217.444 212.396 217.192 212.844 217.024C213.301 216.847 213.838 216.758 214.454 216.758H216.316C216.316 216.319 216.246 215.955 216.106 215.666C215.975 215.367 215.779 215.143 215.518 214.994C215.266 214.845 214.948 214.77 214.566 214.77C214.118 214.77 213.73 214.882 213.404 215.106C213.077 215.33 212.876 215.661 212.802 216.1H211.598C211.654 215.596 211.822 215.176 212.102 214.84C212.391 214.495 212.755 214.233 213.194 214.056C213.632 213.869 214.09 213.776 214.566 213.776C215.219 213.776 215.76 213.897 216.19 214.14C216.628 214.373 216.955 214.705 217.17 215.134C217.384 215.554 217.492 216.053 217.492 216.632V221H216.442L216.372 219.754C216.278 219.95 216.157 220.137 216.008 220.314C215.868 220.482 215.7 220.631 215.504 220.762C215.308 220.883 215.084 220.981 214.832 221.056C214.589 221.131 214.309 221.168 213.992 221.168ZM214.174 220.174C214.5 220.174 214.794 220.109 215.056 219.978C215.326 219.838 215.555 219.651 215.742 219.418C215.928 219.175 216.068 218.909 216.162 218.62C216.264 218.331 216.316 218.027 216.316 217.71V217.668H214.552C214.094 217.668 213.726 217.724 213.446 217.836C213.166 217.939 212.965 218.088 212.844 218.284C212.722 218.471 212.662 218.685 212.662 218.928C212.662 219.18 212.718 219.399 212.83 219.586C212.951 219.773 213.124 219.917 213.348 220.02C213.581 220.123 213.856 220.174 214.174 220.174ZM222.251 221.168C221.663 221.168 221.149 221.07 220.711 220.874C220.281 220.678 219.936 220.407 219.675 220.062C219.423 219.707 219.269 219.292 219.213 218.816H220.417C220.463 219.059 220.561 219.283 220.711 219.488C220.86 219.693 221.061 219.861 221.313 219.992C221.574 220.113 221.891 220.174 222.265 220.174C222.591 220.174 222.862 220.127 223.077 220.034C223.291 219.931 223.45 219.796 223.553 219.628C223.665 219.46 223.721 219.278 223.721 219.082C223.721 218.793 223.651 218.573 223.511 218.424C223.38 218.275 223.184 218.158 222.923 218.074C222.661 217.981 222.344 217.901 221.971 217.836C221.663 217.78 221.359 217.705 221.061 217.612C220.762 217.519 220.496 217.397 220.263 217.248C220.029 217.089 219.843 216.898 219.703 216.674C219.572 216.45 219.507 216.175 219.507 215.848C219.507 215.447 219.609 215.092 219.815 214.784C220.02 214.467 220.314 214.219 220.697 214.042C221.089 213.865 221.541 213.776 222.055 213.776C222.811 213.776 223.422 213.958 223.889 214.322C224.355 214.686 224.631 215.213 224.715 215.904H223.553C223.506 215.549 223.352 215.274 223.091 215.078C222.839 214.873 222.489 214.77 222.041 214.77C221.602 214.77 221.266 214.859 221.033 215.036C220.809 215.213 220.697 215.447 220.697 215.736C220.697 215.923 220.757 216.091 220.879 216.24C221.009 216.38 221.196 216.501 221.439 216.604C221.691 216.707 221.999 216.791 222.363 216.856C222.829 216.94 223.254 217.052 223.637 217.192C224.019 217.332 224.327 217.542 224.561 217.822C224.803 218.093 224.925 218.48 224.925 218.984C224.925 219.423 224.813 219.805 224.589 220.132C224.374 220.459 224.066 220.715 223.665 220.902C223.263 221.079 222.792 221.168 222.251 221.168ZM226.898 221V210.92H228.074V215.134C228.307 214.714 228.634 214.383 229.054 214.14C229.483 213.897 229.95 213.776 230.454 213.776C230.995 213.776 231.467 213.888 231.868 214.112C232.269 214.327 232.577 214.658 232.792 215.106C233.007 215.554 233.114 216.119 233.114 216.8V221H231.952V216.926C231.952 216.217 231.803 215.685 231.504 215.33C231.205 214.966 230.771 214.784 230.202 214.784C229.801 214.784 229.437 214.882 229.11 215.078C228.793 215.274 228.541 215.554 228.354 215.918C228.167 216.282 228.074 216.73 228.074 217.262V221H226.898Z" fill="white"/>
</g>
<defs>
<filter id="filter0_d_2654_26662" x="0" y="0" width="144" height="76" filterUnits="userSpaceOnUse" color-interpolation-filters="sRGB">
<feFlood flood-opacity="0" result="BackgroundImageFix"/>
<feColorMatrix in="SourceAlpha" type="matrix" values="0 0 0 0 0 0 0 0 0 0 0 0 0 0 0 0 0 0 127 0" result="hardAlpha"/>
<feOffset dy="10"/>
<feGaussianBlur stdDeviation="10"/>
<feComposite in2="hardAlpha" operator="out"/>
<feColorMatrix type="matrix" values="0 0 0 0 0 0 0 0 0 0 0 0 0 0 0 0 0 0 0.5 0"/>
<feBlend mode="normal" in2="BackgroundImageFix" result="effect1_dropShadow_2654_26662"/>
<feBlend mode="normal" in="SourceGraphic" in2="effect1_dropShadow_2654_26662" result="shape"/>
</filter>
<filter id="filter1_d_2654_26662" x="0" y="47" width="142" height="76" filterUnits="userSpaceOnUse" color-interpolation-filters="sRGB">
<feFlood flood-opacity="0" result="BackgroundImageFix"/>
<feColorMatrix in="SourceAlpha" type="matrix" values="0 0 0 0 0 0 0 0 0 0 0 0 0 0 0 0 0 0 127 0" result="hardAlpha"/>
<feOffset dy="10"/>
<feGaussianBlur stdDeviation="10"/>
<feComposite in2="hardAlpha" operator="out"/>
<feColorMatrix type="matrix" values="0 0 0 0 0 0 0 0 0 0 0 0 0 0 0 0 0 0 0.5 0"/>
<feBlend mode="normal" in2="BackgroundImageFix" result="effect1_dropShadow_2654_26662"/>
<feBlend mode="normal" in="SourceGraphic" in2="effect1_dropShadow_2654_26662" result="shape"/>
</filter>
<filter id="filter2_d_2654_26662" x="0" y="94" width="121" height="76" filterUnits="userSpaceOnUse" color-interpolation-filters="sRGB">
<feFlood flood-opacity="0" result="BackgroundImageFix"/>
<feColorMatrix in="SourceAlpha" type="matrix" values="0 0 0 0 0 0 0 0 0 0 0 0 0 0 0 0 0 0 127 0" result="hardAlpha"/>
<feOffset dy="10"/>
<feGaussianBlur stdDeviation="10"/>
<feComposite in2="hardAlpha" operator="out"/>
<feColorMatrix type="matrix" values="0 0 0 0 0 0 0 0 0 0 0 0 0 0 0 0 0 0 0.5 0"/>
<feBlend mode="normal" in2="BackgroundImageFix" result="effect1_dropShadow_2654_26662"/>
<feBlend mode="normal" in="SourceGraphic" in2="effect1_dropShadow_2654_26662" result="shape"/>
</filter>
<filter id="filter3_d_2654_26662" x="0" y="141" width="124" height="76" filterUnits="userSpaceOnUse" color-interpolation-filters="sRGB">
<feFlood flood-opacity="0" result="BackgroundImageFix"/>
<feColorMatrix in="SourceAlpha" type="matrix" values="0 0 0 0 0 0 0 0 0 0 0 0 0 0 0 0 0 0 127 0" result="hardAlpha"/>
<feOffset dy="10"/>
<feGaussianBlur stdDeviation="10"/>
<feComposite in2="hardAlpha" operator="out"/>
<feColorMatrix type="matrix" values="0 0 0 0 0 0 0 0 0 0 0 0 0 0 0 0 0 0 0.5 0"/>
<feBlend mode="normal" in2="BackgroundImageFix" result="effect1_dropShadow_2654_26662"/>
<feBlend mode="normal" in="SourceGraphic" in2="effect1_dropShadow_2654_26662" result="shape"/>
</filter>
<filter id="filter4_d_2654_26662" x="138" y="0" width="121" height="76" filterUnits="userSpaceOnUse" color-interpolation-filters="sRGB">
<feFlood flood-opacity="0" result="BackgroundImageFix"/>
<feColorMatrix in="SourceAlpha" type="matrix" values="0 0 0 0 0 0 0 0 0 0 0 0 0 0 0 0 0 0 127 0" result="hardAlpha"/>
<feOffset dy="10"/>
<feGaussianBlur stdDeviation="10"/>
<feComposite in2="hardAlpha" operator="out"/>
<feColorMatrix type="matrix" values="0 0 0 0 0 0 0 0 0 0 0 0 0 0 0 0 0 0 0.5 0"/>
<feBlend mode="normal" in2="BackgroundImageFix" result="effect1_dropShadow_2654_26662"/>
<feBlend mode="normal" in="SourceGraphic" in2="effect1_dropShadow_2654_26662" result="shape"/>
</filter>
<filter id="filter5_d_2654_26662" x="138" y="47" width="124" height="76" filterUnits="userSpaceOnUse" color-interpolation-filters="sRGB">
<feFlood flood-opacity="0" result="BackgroundImageFix"/>
<feColorMatrix in="SourceAlpha" type="matrix" values="0 0 0 0 0 0 0 0 0 0 0 0 0 0 0 0 0 0 127 0" result="hardAlpha"/>
<feOffset dy="10"/>
<feGaussianBlur stdDeviation="10"/>
<feComposite in2="hardAlpha" operator="out"/>
<feColorMatrix type="matrix" values="0 0 0 0 0 0 0 0 0 0 0 0 0 0 0 0 0 0 0.5 0"/>
<feBlend mode="normal" in2="BackgroundImageFix" result="effect1_dropShadow_2654_26662"/>
<feBlend mode="normal" in="SourceGraphic" in2="effect1_dropShadow_2654_26662" result="shape"/>
</filter>
<filter id="filter6_d_2654_26662" x="138" y="94" width="103" height="76" filterUnits="userSpaceOnUse" color-interpolation-filters="sRGB">
<feFlood flood-opacity="0" result="BackgroundImageFix"/>
<feColorMatrix in="SourceAlpha" type="matrix" values="0 0 0 0 0 0 0 0 0 0 0 0 0 0 0 0 0 0 127 0" result="hardAlpha"/>
<feOffset dy="10"/>
<feGaussianBlur stdDeviation="10"/>
<feComposite in2="hardAlpha" operator="out"/>
<feColorMatrix type="matrix" values="0 0 0 0 0 0 0 0 0 0 0 0 0 0 0 0 0 0 0.5 0"/>
<feBlend mode="normal" in2="BackgroundImageFix" result="effect1_dropShadow_2654_26662"/>
<feBlend mode="normal" in="SourceGraphic" in2="effect1_dropShadow_2654_26662" result="shape"/>
</filter>
<filter id="filter7_d_2654_26662" x="138" y="141" width="118" height="76" filterUnits="userSpaceOnUse" color-interpolation-filters="sRGB">
<feFlood flood-opacity="0" result="BackgroundImageFix"/>
<feColorMatrix in="SourceAlpha" type="matrix" values="0 0 0 0 0 0 0 0 0 0 0 0 0 0 0 0 0 0 127 0" result="hardAlpha"/>
<feOffset dy="10"/>
<feGaussianBlur stdDeviation="10"/>
<feComposite in2="hardAlpha" operator="out"/>
<feColorMatrix type="matrix" values="0 0 0 0 0 0 0 0 0 0 0 0 0 0 0 0 0 0 0.5 0"/>
<feBlend mode="normal" in2="BackgroundImageFix" result="effect1_dropShadow_2654_26662"/>
<feBlend mode="normal" in="SourceGraphic" in2="effect1_dropShadow_2654_26662" result="shape"/>
</filter>
<filter id="filter8_d_2654_26662" x="1" y="188" width="166" height="76" filterUnits="userSpaceOnUse" color-interpolation-filters="sRGB">
<feFlood flood-opacity="0" result="BackgroundImageFix"/>
<feColorMatrix in="SourceAlpha" type="matrix" values="0 0 0 0 0 0 0 0 0 0 0 0 0 0 0 0 0 0 127 0" result="hardAlpha"/>
<feOffset dy="10"/>
<feGaussianBlur stdDeviation="10"/>
<feComposite in2="hardAlpha" operator="out"/>
<feColorMatrix type="matrix" values="0 0 0 0 0 0 0 0 0 0 0 0 0 0 0 0 0 0 0.5 0"/>
<feBlend mode="normal" in2="BackgroundImageFix" result="effect1_dropShadow_2654_26662"/>
<feBlend mode="normal" in="SourceGraphic" in2="effect1_dropShadow_2654_26662" result="shape"/>
</filter>
<filter id="filter9_d_2654_26662" x="138" y="188" width="126" height="76" filterUnits="userSpaceOnUse" color-interpolation-filters="sRGB">
<feFlood flood-opacity="0" result="BackgroundImageFix"/>
<feColorMatrix in="SourceAlpha" type="matrix" values="0 0 0 0 0 0 0 0 0 0 0 0 0 0 0 0 0 0 127 0" result="hardAlpha"/>
<feOffset dy="10"/>
<feGaussianBlur stdDeviation="10"/>
<feComposite in2="hardAlpha" operator="out"/>
<feColorMatrix type="matrix" values="0 0 0 0 0 0 0 0 0 0 0 0 0 0 0 0 0 0 0.5 0"/>
<feBlend mode="normal" in2="BackgroundImageFix" result="effect1_dropShadow_2654_26662"/>
<feBlend mode="normal" in="SourceGraphic" in2="effect1_dropShadow_2654_26662" result="shape"/>
</filter>
<clipPath id="clip0_2654_26662">
<rect width="24" height="24" fill="white" transform="translate(30 63)"/>
</clipPath>
<clipPath id="clip1_2654_26662">
<rect width="24" height="24" fill="white" transform="translate(30 110)"/>
</clipPath>
<clipPath id="clip2_2654_26662">
<rect width="22" height="24" fill="white" transform="translate(168 110)"/>
</clipPath>
<clipPath id="clip3_2654_26662">
<rect width="22" height="24" fill="white" transform="translate(168 157)"/>
</clipPath>
</defs>
</svg>
