<svg width="458" height="514" viewBox="0 0 458 514" fill="none" xmlns="http://www.w3.org/2000/svg">
<g filter="url(#filter0_f_2483_53872)">
<ellipse cx="228" cy="321.5" rx="86" ry="70.5" fill="url(#paint0_linear_2483_53872)"/>
</g>
<g filter="url(#filter1_d_2483_53872)">
<rect x="117" y="204" width="104" height="36" rx="10" fill="#0C0D0E" shape-rendering="crispEdges"/>
<rect x="117.5" y="204.5" width="103" height="35" rx="9.5" stroke="#86888E" shape-rendering="crispEdges"/>
<path d="M139.879 211.724C139.347 211.425 138.653 211.426 138.12 211.724C135.452 213.197 132.783 214.67 130.114 216.142C129.595 216.415 129.244 216.973 129.25 217.552V226.45C129.246 227.04 129.615 227.603 130.147 227.872C130.914 228.28 131.659 228.729 132.439 229.11C133.341 229.553 134.469 229.651 135.381 229.189C136.122 228.806 136.451 227.955 136.45 227.172C136.456 224.235 136.451 221.299 136.453 218.362C136.47 218.232 136.372 218.092 136.23 218.095C135.889 218.09 135.547 218.092 135.206 218.094C135.077 218.082 134.952 218.189 134.961 218.319C134.957 221.237 134.962 224.155 134.959 227.073C134.966 227.477 134.693 227.865 134.304 228.001C133.406 228.316 130.841 226.651 130.841 226.651C130.747 226.607 130.688 226.505 130.697 226.404C130.697 223.468 130.697 220.532 130.697 217.597C130.684 217.479 130.757 217.372 130.866 217.324C133.525 215.86 136.184 214.392 138.843 212.928C138.936 212.866 139.064 212.866 139.157 212.928C141.816 214.392 144.475 215.859 147.135 217.323C147.244 217.371 147.314 217.479 147.303 217.597C147.303 220.532 147.304 223.468 147.302 226.403C147.31 226.507 147.256 226.608 147.159 226.654C144.525 228.11 141.86 229.519 139.249 231.017C139.135 231.082 139.006 231.156 138.878 231.084C138.191 230.705 137.513 230.31 136.829 229.927C136.754 229.88 136.66 229.86 136.582 229.912C136.275 230.074 135.986 230.205 135.634 230.344C135.139 230.54 135.218 230.62 135.665 230.88C136.465 231.333 137.267 231.784 138.067 232.238C138.594 232.567 139.302 232.59 139.846 232.286C142.515 230.815 145.183 229.343 147.852 227.872C148.383 227.601 148.754 227.04 148.75 226.45V217.552C148.755 216.984 148.418 216.437 147.914 216.159C145.237 214.68 142.558 213.203 139.879 211.724Z" fill="#86888E"/>
<path d="M143.907 218.404C142.859 217.844 141.613 217.814 140.449 217.887C139.608 217.971 138.723 218.203 138.111 218.805C137.482 219.411 137.345 220.39 137.644 221.181C137.858 221.74 138.396 222.104 138.953 222.296C139.67 222.549 140.424 222.628 141.177 222.706C141.864 222.777 142.552 222.849 143.212 223.053C143.482 223.142 143.797 223.279 143.879 223.573C143.956 223.92 143.872 224.325 143.59 224.566C142.693 225.276 140.199 225.167 139.313 224.609C138.954 224.371 138.8 223.949 138.737 223.548C138.73 223.423 138.63 223.308 138.494 223.318C138.154 223.313 137.813 223.314 137.473 223.317C137.355 223.307 137.231 223.392 137.225 223.513C137.155 225.351 138.844 226.153 140.428 226.33C141.333 226.416 142.258 226.411 143.15 226.217C143.82 226.064 144.492 225.783 144.953 225.267C145.522 224.64 145.633 223.706 145.378 222.925C145.183 222.342 144.626 221.968 144.056 221.775C143.282 221.51 142.363 221.367 141.662 221.3C140.642 221.203 139.43 221.243 139.141 220.572C139.026 220.222 139.124 219.786 139.446 219.57C140.3 218.991 142.036 219.068 142.92 219.5C143.326 219.704 143.561 220.121 143.658 220.542C143.676 220.666 143.759 220.795 143.902 220.79C144.24 220.796 144.578 220.791 144.916 220.792C145.032 220.8 145.159 220.735 145.181 220.616C145.167 219.735 144.717 218.834 143.907 218.404Z" fill="#86888E"/>
<path d="M162.05 227V217.2H163.226L168.448 225.054V217.2H169.624V227H168.448L163.226 219.146V227H162.05ZM175.09 227.168C174.436 227.168 173.848 227.019 173.326 226.72C172.803 226.412 172.392 225.983 172.094 225.432C171.795 224.872 171.646 224.223 171.646 223.486C171.646 222.73 171.795 222.077 172.094 221.526C172.402 220.966 172.817 220.537 173.34 220.238C173.872 219.93 174.464 219.776 175.118 219.776C175.79 219.776 176.382 219.93 176.896 220.238C177.418 220.537 177.829 220.966 178.128 221.526C178.436 222.077 178.59 222.725 178.59 223.472C178.59 224.219 178.436 224.872 178.128 225.432C177.82 225.983 177.404 226.412 176.882 226.72C176.359 227.019 175.762 227.168 175.09 227.168ZM175.104 226.16C175.505 226.16 175.878 226.062 176.224 225.866C176.569 225.661 176.849 225.357 177.064 224.956C177.278 224.555 177.386 224.06 177.386 223.472C177.386 222.875 177.278 222.38 177.064 221.988C176.858 221.587 176.583 221.288 176.238 221.092C175.902 220.887 175.528 220.784 175.118 220.784C174.726 220.784 174.352 220.887 173.998 221.092C173.652 221.288 173.372 221.587 173.158 221.988C172.952 222.38 172.85 222.875 172.85 223.472C172.85 224.06 172.952 224.555 173.158 224.956C173.372 225.357 173.648 225.661 173.984 225.866C174.329 226.062 174.702 226.16 175.104 226.16ZM183.627 227.168C182.945 227.168 182.348 227.009 181.835 226.692C181.321 226.365 180.925 225.922 180.645 225.362C180.365 224.802 180.225 224.167 180.225 223.458C180.225 222.749 180.365 222.119 180.645 221.568C180.925 221.008 181.321 220.569 181.835 220.252C182.357 219.935 182.959 219.776 183.641 219.776C184.219 219.776 184.723 219.893 185.153 220.126C185.591 220.359 185.927 220.686 186.161 221.106V216.92H187.337V227H186.273L186.175 225.838C186.025 226.071 185.834 226.291 185.601 226.496C185.367 226.692 185.087 226.855 184.761 226.986C184.434 227.107 184.056 227.168 183.627 227.168ZM183.767 226.146C184.233 226.146 184.644 226.034 184.999 225.81C185.353 225.586 185.629 225.278 185.825 224.886C186.021 224.485 186.119 224.013 186.119 223.472C186.119 222.94 186.021 222.473 185.825 222.072C185.629 221.671 185.353 221.358 184.999 221.134C184.644 220.91 184.233 220.798 183.767 220.798C183.309 220.798 182.903 220.91 182.549 221.134C182.194 221.358 181.919 221.671 181.723 222.072C181.527 222.473 181.429 222.94 181.429 223.472C181.429 224.013 181.527 224.485 181.723 224.886C181.919 225.278 182.194 225.586 182.549 225.81C182.903 226.034 183.309 226.146 183.767 226.146ZM192.67 227.168C192.007 227.168 191.419 227.014 190.906 226.706C190.402 226.398 190.005 225.969 189.716 225.418C189.427 224.858 189.282 224.209 189.282 223.472C189.282 222.725 189.422 222.077 189.702 221.526C189.991 220.975 190.393 220.546 190.906 220.238C191.429 219.93 192.026 219.776 192.698 219.776C193.389 219.776 193.972 219.93 194.448 220.238C194.933 220.546 195.302 220.952 195.554 221.456C195.815 221.951 195.946 222.497 195.946 223.094C195.946 223.187 195.946 223.285 195.946 223.388C195.946 223.491 195.941 223.607 195.932 223.738H190.164V222.828H194.798C194.77 222.184 194.555 221.68 194.154 221.316C193.762 220.952 193.267 220.77 192.67 220.77C192.269 220.77 191.895 220.863 191.55 221.05C191.214 221.227 190.943 221.493 190.738 221.848C190.533 222.193 190.43 222.627 190.43 223.15V223.542C190.43 224.121 190.533 224.606 190.738 224.998C190.953 225.39 191.228 225.684 191.564 225.88C191.909 226.076 192.278 226.174 192.67 226.174C193.165 226.174 193.571 226.067 193.888 225.852C194.215 225.628 194.448 225.329 194.588 224.956H195.75C195.638 225.376 195.442 225.754 195.162 226.09C194.882 226.426 194.532 226.692 194.112 226.888C193.701 227.075 193.221 227.168 192.67 227.168ZM198.233 227.07C198 227.07 197.804 226.995 197.645 226.846C197.496 226.687 197.421 226.496 197.421 226.272C197.421 226.048 197.496 225.861 197.645 225.712C197.804 225.553 198 225.474 198.233 225.474C198.466 225.474 198.658 225.553 198.807 225.712C198.956 225.861 199.031 226.048 199.031 226.272C199.031 226.496 198.956 226.687 198.807 226.846C198.658 226.995 198.466 227.07 198.233 227.07ZM199.51 230.08V229.072H200.056C200.411 229.072 200.663 228.997 200.812 228.848C200.962 228.708 201.036 228.465 201.036 228.12V219.944H202.212V228.148C202.212 228.596 202.138 228.96 201.988 229.24C201.839 229.529 201.615 229.739 201.316 229.87C201.027 230.01 200.668 230.08 200.238 230.08H199.51ZM201.638 218.446C201.405 218.446 201.209 218.371 201.05 218.222C200.901 218.063 200.826 217.867 200.826 217.634C200.826 217.401 200.901 217.214 201.05 217.074C201.209 216.925 201.405 216.85 201.638 216.85C201.862 216.85 202.049 216.925 202.198 217.074C202.357 217.214 202.436 217.401 202.436 217.634C202.436 217.867 202.357 218.063 202.198 218.222C202.049 218.371 201.862 218.446 201.638 218.446ZM207.213 227.168C206.625 227.168 206.111 227.07 205.673 226.874C205.243 226.678 204.898 226.407 204.637 226.062C204.385 225.707 204.231 225.292 204.175 224.816H205.379C205.425 225.059 205.523 225.283 205.673 225.488C205.822 225.693 206.023 225.861 206.275 225.992C206.536 226.113 206.853 226.174 207.227 226.174C207.553 226.174 207.824 226.127 208.039 226.034C208.253 225.931 208.412 225.796 208.515 225.628C208.627 225.46 208.683 225.278 208.683 225.082C208.683 224.793 208.613 224.573 208.473 224.424C208.342 224.275 208.146 224.158 207.885 224.074C207.623 223.981 207.306 223.901 206.933 223.836C206.625 223.78 206.321 223.705 206.023 223.612C205.724 223.519 205.458 223.397 205.225 223.248C204.991 223.089 204.805 222.898 204.665 222.674C204.534 222.45 204.469 222.175 204.469 221.848C204.469 221.447 204.571 221.092 204.777 220.784C204.982 220.467 205.276 220.219 205.659 220.042C206.051 219.865 206.503 219.776 207.017 219.776C207.773 219.776 208.384 219.958 208.851 220.322C209.317 220.686 209.593 221.213 209.677 221.904H208.515C208.468 221.549 208.314 221.274 208.053 221.078C207.801 220.873 207.451 220.77 207.003 220.77C206.564 220.77 206.228 220.859 205.995 221.036C205.771 221.213 205.659 221.447 205.659 221.736C205.659 221.923 205.719 222.091 205.841 222.24C205.971 222.38 206.158 222.501 206.401 222.604C206.653 222.707 206.961 222.791 207.325 222.856C207.791 222.94 208.216 223.052 208.599 223.192C208.981 223.332 209.289 223.542 209.523 223.822C209.765 224.093 209.887 224.48 209.887 224.984C209.887 225.423 209.775 225.805 209.551 226.132C209.336 226.459 209.028 226.715 208.627 226.902C208.225 227.079 207.754 227.168 207.213 227.168Z" fill="white"/>
</g>
<g filter="url(#filter2_d_2483_53872)">
<rect x="117" y="251" width="102" height="36" rx="10" fill="#0C0D0E" shape-rendering="crispEdges"/>
<rect x="117.5" y="251.5" width="101" height="35" rx="9.5" stroke="#86888E" shape-rendering="crispEdges"/>
<g clip-path="url(#clip0_2483_53872)">
<path fill-rule="evenodd" clip-rule="evenodd" d="M142.293 279.15C141.714 279.15 141.246 278.679 141.246 278.098C141.246 277.516 141.714 277.047 142.293 277.047C142.871 277.047 143.339 277.516 143.339 278.098C143.339 278.679 142.871 279.15 142.293 279.15ZM139.086 281C145.18 281 144.8 278.344 144.8 278.344L144.792 275.592H138.978V274.766H147.101C147.101 274.766 151 275.211 151 269.032C151 262.852 147.598 263.07 147.598 263.07H145.566V265.938C145.566 265.938 145.676 269.358 142.218 269.358H136.451C136.451 269.358 133.211 269.307 133.211 272.507V277.797C133.211 277.797 132.719 281 139.086 281ZM135.708 258.85C136.287 258.85 136.754 259.321 136.754 259.902C136.754 260.484 136.287 260.953 135.708 260.953C135.13 260.953 134.662 260.484 134.662 259.902C134.662 259.321 135.13 258.85 135.708 258.85ZM138.914 257C132.821 257 133.202 259.656 133.202 259.656L133.209 262.408H139.023V263.234H130.899C130.899 263.234 127 262.789 127 268.968C127 275.148 130.403 274.93 130.403 274.93H132.434V272.062C132.434 272.062 132.324 268.642 135.783 268.642H141.549C141.549 268.642 144.789 268.693 144.789 265.493V260.203C144.789 260.203 145.281 257 138.914 257Z" fill="#86888E"/>
</g>
<path d="M162.05 274V264.2H165.242C166.017 264.2 166.651 264.331 167.146 264.592C167.65 264.844 168.019 265.185 168.252 265.614C168.495 266.043 168.616 266.533 168.616 267.084C168.616 267.616 168.495 268.101 168.252 268.54C168.019 268.969 167.655 269.315 167.16 269.576C166.665 269.837 166.026 269.968 165.242 269.968H163.226V274H162.05ZM163.226 268.974H165.228C166.012 268.974 166.572 268.801 166.908 268.456C167.244 268.111 167.412 267.653 167.412 267.084C167.412 266.477 167.244 266.011 166.908 265.684C166.572 265.348 166.012 265.18 165.228 265.18H163.226V268.974ZM171.151 277.08L172.873 273.216H172.467L169.695 266.944H170.969L173.265 272.334L175.673 266.944H176.891L172.383 277.08H171.151ZM181.212 274C180.792 274 180.428 273.935 180.12 273.804C179.812 273.673 179.574 273.454 179.406 273.146C179.248 272.829 179.168 272.404 179.168 271.872V267.938H177.936V266.944H179.168L179.322 265.236H180.344V266.944H182.388V267.938H180.344V271.872C180.344 272.311 180.433 272.609 180.61 272.768C180.788 272.917 181.1 272.992 181.548 272.992H182.304V274H181.212ZM184.203 274V263.92H185.379V268.134C185.612 267.714 185.939 267.383 186.359 267.14C186.788 266.897 187.255 266.776 187.759 266.776C188.3 266.776 188.771 266.888 189.173 267.112C189.574 267.327 189.882 267.658 190.097 268.106C190.311 268.554 190.419 269.119 190.419 269.8V274H189.257V269.926C189.257 269.217 189.107 268.685 188.809 268.33C188.51 267.966 188.076 267.784 187.507 267.784C187.105 267.784 186.741 267.882 186.415 268.078C186.097 268.274 185.845 268.554 185.659 268.918C185.472 269.282 185.379 269.73 185.379 270.262V274H184.203ZM195.686 274.168C195.032 274.168 194.444 274.019 193.922 273.72C193.399 273.412 192.988 272.983 192.69 272.432C192.391 271.872 192.242 271.223 192.242 270.486C192.242 269.73 192.391 269.077 192.69 268.526C192.998 267.966 193.413 267.537 193.936 267.238C194.468 266.93 195.06 266.776 195.714 266.776C196.386 266.776 196.978 266.93 197.492 267.238C198.014 267.537 198.425 267.966 198.724 268.526C199.032 269.077 199.186 269.725 199.186 270.472C199.186 271.219 199.032 271.872 198.724 272.432C198.416 272.983 198 273.412 197.478 273.72C196.955 274.019 196.358 274.168 195.686 274.168ZM195.7 273.16C196.101 273.16 196.474 273.062 196.82 272.866C197.165 272.661 197.445 272.357 197.66 271.956C197.874 271.555 197.982 271.06 197.982 270.472C197.982 269.875 197.874 269.38 197.66 268.988C197.454 268.587 197.179 268.288 196.834 268.092C196.498 267.887 196.124 267.784 195.714 267.784C195.322 267.784 194.948 267.887 194.594 268.092C194.248 268.288 193.968 268.587 193.754 268.988C193.548 269.38 193.446 269.875 193.446 270.472C193.446 271.06 193.548 271.555 193.754 271.956C193.968 272.357 194.244 272.661 194.58 272.866C194.925 273.062 195.298 273.16 195.7 273.16ZM201.114 274V266.944H202.178L202.234 268.176C202.458 267.737 202.776 267.397 203.186 267.154C203.606 266.902 204.082 266.776 204.614 266.776C205.165 266.776 205.641 266.888 206.042 267.112C206.444 267.327 206.756 267.658 206.98 268.106C207.204 268.545 207.316 269.105 207.316 269.786V274H206.14V269.912C206.14 269.203 205.982 268.671 205.664 268.316C205.356 267.961 204.918 267.784 204.348 267.784C203.956 267.784 203.606 267.882 203.298 268.078C202.99 268.265 202.743 268.54 202.556 268.904C202.379 269.259 202.29 269.702 202.29 270.234V274H201.114Z" fill="white"/>
</g>
<g filter="url(#filter3_d_2483_53872)">
<rect x="117" y="298" width="81" height="36" rx="10" fill="#0C0D0E" shape-rendering="crispEdges"/>
<rect x="117.5" y="298.5" width="80" height="35" rx="9.5" stroke="#86888E" shape-rendering="crispEdges"/>
<g clip-path="url(#clip1_2483_53872)">
<path d="M151 304H127V328H151V304Z" fill="#86888E"/>
<path d="M131.277 319.334C131.108 319.334 130.963 319.277 130.845 319.164C130.726 319.048 130.667 318.91 130.667 318.751C130.667 318.588 130.726 318.449 130.845 318.333C130.963 318.217 131.108 318.159 131.277 318.159C131.45 318.159 131.596 318.217 131.714 318.333C131.836 318.449 131.897 318.588 131.897 318.751C131.897 318.91 131.836 319.048 131.714 319.164C131.596 319.277 131.45 319.334 131.277 319.334Z" fill="#0C0D0E"/>
<path d="M138.061 319.238H136.958L134.052 314.653C133.979 314.537 133.918 314.417 133.87 314.292H133.844C133.867 314.425 133.878 314.711 133.878 315.149V319.238H132.902V313H134.078L136.886 317.476C137.005 317.662 137.081 317.789 137.115 317.859H137.132C137.104 317.693 137.09 317.414 137.09 317.019V313H138.061V319.238Z" fill="#0C0D0E"/>
<path d="M142.813 319.238H139.398V313H142.677V313.879H140.408V315.645H142.499V316.519H140.408V318.363H142.813V319.238Z" fill="#0C0D0E"/>
<path d="M147.667 313.879H145.919V319.238H144.909V313.879H143.166V313H147.667V313.879Z" fill="#0C0D0E"/>
</g>
<path d="M162.4 321.07C162.167 321.07 161.971 320.995 161.812 320.846C161.663 320.687 161.588 320.496 161.588 320.272C161.588 320.048 161.663 319.861 161.812 319.712C161.971 319.553 162.167 319.474 162.4 319.474C162.633 319.474 162.825 319.553 162.974 319.712C163.123 319.861 163.198 320.048 163.198 320.272C163.198 320.496 163.123 320.687 162.974 320.846C162.825 320.995 162.633 321.07 162.4 321.07ZM165.105 321V311.2H166.281L171.503 319.054V311.2H172.679V321H171.503L166.281 313.146V321H165.105ZM178.089 321.168C177.426 321.168 176.838 321.014 176.325 320.706C175.821 320.398 175.424 319.969 175.135 319.418C174.846 318.858 174.701 318.209 174.701 317.472C174.701 316.725 174.841 316.077 175.121 315.526C175.41 314.975 175.812 314.546 176.325 314.238C176.848 313.93 177.445 313.776 178.117 313.776C178.808 313.776 179.391 313.93 179.867 314.238C180.352 314.546 180.721 314.952 180.973 315.456C181.234 315.951 181.365 316.497 181.365 317.094C181.365 317.187 181.365 317.285 181.365 317.388C181.365 317.491 181.36 317.607 181.351 317.738H175.583V316.828H180.217C180.189 316.184 179.974 315.68 179.573 315.316C179.181 314.952 178.686 314.77 178.089 314.77C177.688 314.77 177.314 314.863 176.969 315.05C176.633 315.227 176.362 315.493 176.157 315.848C175.952 316.193 175.849 316.627 175.849 317.15V317.542C175.849 318.121 175.952 318.606 176.157 318.998C176.372 319.39 176.647 319.684 176.983 319.88C177.328 320.076 177.697 320.174 178.089 320.174C178.584 320.174 178.99 320.067 179.307 319.852C179.634 319.628 179.867 319.329 180.007 318.956H181.169C181.057 319.376 180.861 319.754 180.581 320.09C180.301 320.426 179.951 320.692 179.531 320.888C179.12 321.075 178.64 321.168 178.089 321.168ZM185.772 321C185.352 321 184.988 320.935 184.68 320.804C184.372 320.673 184.134 320.454 183.966 320.146C183.807 319.829 183.728 319.404 183.728 318.872V314.938H182.496V313.944H183.728L183.882 312.236H184.904V313.944H186.948V314.938H184.904V318.872C184.904 319.311 184.992 319.609 185.17 319.768C185.347 319.917 185.66 319.992 186.108 319.992H186.864V321H185.772Z" fill="white"/>
</g>
<g filter="url(#filter4_d_2483_53872)">
<rect x="117" y="345" width="84" height="36" rx="10" fill="#0C0D0E" shape-rendering="crispEdges"/>
<rect x="117.5" y="345.5" width="83" height="35" rx="9.5" stroke="#86888E" shape-rendering="crispEdges"/>
<path d="M146.819 360.031C146.899 359.952 147.007 359.904 147.128 359.904C147.368 359.904 147.564 360.099 147.564 360.34C147.564 360.581 147.368 360.776 147.128 360.776C146.887 360.776 146.691 360.581 146.691 360.34C146.691 360.22 146.74 360.111 146.819 360.032L146.819 360.031ZM138.48 353.32C138.61 353.183 138.794 353.097 138.998 353.097C139.392 353.097 139.711 353.416 139.711 353.811C139.711 354.206 139.392 354.525 138.998 354.525C138.667 354.525 138.389 354.301 138.308 353.996L138.307 353.991C138.293 353.937 138.284 353.875 138.284 353.811C138.284 353.621 138.358 353.448 138.48 353.32ZM147.781 362.92C147.781 363.139 147.773 363.357 147.757 363.572H146.857C146.767 363.572 146.731 363.63 146.731 363.72V364.133C146.731 365.106 146.182 365.318 145.701 365.371C145.243 365.423 144.736 365.18 144.673 364.9C144.602 363.887 144.054 363.016 143.255 362.503L143.243 362.496C144.208 362.022 144.893 361.107 145.04 360.021L145.042 360.004C145.003 359.02 144.466 358.171 143.678 357.695L143.665 357.688C143.131 357.338 142.487 357.113 141.793 357.069L141.782 357.069H132.475C133.73 355.669 135.418 354.678 137.327 354.307L137.382 354.298L138.479 355.449C138.597 355.573 138.764 355.651 138.949 355.651C139.123 355.651 139.281 355.582 139.398 355.47L140.625 354.296C143.212 354.794 145.357 356.371 146.607 358.531L146.629 358.573L145.789 360.472C145.753 360.55 145.733 360.64 145.733 360.735C145.733 360.999 145.889 361.226 146.115 361.329L146.119 361.331L147.737 362.05C147.765 362.337 147.78 362.627 147.78 362.921L147.781 362.92ZM137.023 361.434V359.783H139.984C140.136 359.783 141.063 359.96 141.063 360.653C141.063 361.228 140.352 361.435 139.768 361.435L137.023 361.434ZM130.288 361.977L131.823 361.295C132.053 361.191 132.21 360.964 132.21 360.701C132.21 360.605 132.189 360.514 132.152 360.433L132.154 360.437L131.838 359.722H133.081V365.326H130.573C130.36 364.606 130.239 363.78 130.239 362.924C130.239 362.591 130.257 362.261 130.294 361.937L130.29 361.977L130.288 361.977ZM131.124 359.996C131.124 359.76 130.933 359.568 130.696 359.568C130.46 359.568 130.269 359.76 130.269 359.996C130.269 360.232 130.46 360.423 130.696 360.423C130.933 360.423 131.124 360.232 131.124 359.996ZM133.843 371.025C133.794 371.037 133.739 371.044 133.681 371.044C133.287 371.044 132.968 370.724 132.968 370.33C132.968 369.935 133.287 369.616 133.681 369.616C134.076 369.616 134.395 369.935 134.395 370.33C134.395 370.407 134.383 370.481 134.361 370.551L134.362 370.546C134.285 370.786 134.09 370.967 133.848 371.025H133.843ZM143.758 368.745C143.717 368.735 143.67 368.73 143.621 368.73C143.31 368.73 143.05 368.949 142.987 369.241L142.986 369.245L142.628 370.914C141.565 371.406 140.32 371.694 139.009 371.694C137.668 371.694 136.398 371.393 135.26 370.856L135.314 370.879L134.956 369.21C134.892 368.915 134.633 368.696 134.322 368.696C134.274 368.696 134.226 368.702 134.181 368.711L134.185 368.71L132.712 369.027C132.446 368.754 132.196 368.461 131.966 368.152L131.95 368.129H139.118C139.198 368.129 139.253 368.114 139.253 368.041V365.504C139.253 365.43 139.199 365.416 139.118 365.416H137.021V363.808H139.289C139.994 363.815 140.575 364.333 140.682 365.009L140.683 365.017C140.773 365.37 140.97 366.521 141.106 366.89C141.241 367.303 141.79 368.128 142.375 368.128H145.946C145.993 368.127 146.038 368.122 146.081 368.114L146.076 368.115C145.815 368.467 145.549 368.778 145.263 369.069L145.264 369.068L143.758 368.745ZM144.1 371.06C145.004 371.06 145.737 370.326 145.737 369.421C145.737 368.517 145.004 367.783 144.099 367.783C143.194 367.783 142.461 368.516 142.461 369.421C142.461 370.326 143.194 371.059 144.098 371.06H144.1ZM150.842 362.703L149.834 362.079C149.825 361.981 149.816 361.883 149.806 361.785L150.672 360.979C150.739 360.915 150.781 360.825 150.781 360.726C150.781 360.578 150.689 360.452 150.559 360.401L150.557 360.4L149.45 359.986C149.423 359.891 149.394 359.795 149.363 359.7L150.053 358.741C150.094 358.685 150.119 358.615 150.119 358.539C150.119 358.367 149.994 358.224 149.83 358.197H149.828L148.661 358.008C148.615 357.919 148.569 357.832 148.52 357.745L149.01 356.668C149.03 356.626 149.041 356.577 149.041 356.524C149.041 356.452 149.019 356.386 148.981 356.331L148.982 356.331C148.919 356.238 148.812 356.177 148.692 356.177C148.688 356.177 148.684 356.177 148.68 356.177H148.681L147.496 356.219C147.436 356.142 147.373 356.066 147.309 355.992L147.581 354.839C147.587 354.815 147.59 354.787 147.59 354.759C147.59 354.567 147.435 354.412 147.243 354.412C147.215 354.412 147.188 354.415 147.161 354.422L147.164 354.421L146.01 354.693C145.935 354.63 145.859 354.567 145.782 354.506L145.824 353.321C145.824 353.316 145.824 353.311 145.824 353.304C145.824 353.114 145.669 352.96 145.48 352.96C145.427 352.96 145.377 352.972 145.332 352.994L145.334 352.993L144.258 353.484C144.171 353.437 144.083 353.389 143.995 353.344L143.805 352.176C143.776 352.01 143.633 351.886 143.461 351.886C143.386 351.886 143.316 351.91 143.259 351.951L143.26 351.95L142.3 352.641C142.206 352.61 142.111 352.582 142.015 352.555L141.601 351.448C141.55 351.316 141.423 351.224 141.275 351.224C141.176 351.224 141.086 351.266 141.022 351.333L140.216 352.2C140.118 352.189 140.02 352.179 139.922 352.172L139.298 351.164C139.236 351.065 139.128 351 139.004 351C138.88 351 138.771 351.065 138.71 351.163L138.71 351.165L138.086 352.173C137.988 352.181 137.89 352.19 137.792 352.201L136.984 351.334C136.921 351.266 136.83 351.223 136.73 351.223C136.582 351.223 136.456 351.316 136.406 351.447L136.406 351.449L135.992 352.556C135.896 352.583 135.801 352.613 135.706 352.642L134.747 351.951C134.691 351.911 134.622 351.887 134.546 351.887C134.374 351.887 134.231 352.011 134.202 352.175V352.177L134.012 353.345C133.924 353.391 133.836 353.437 133.749 353.486L132.673 352.995C132.631 352.975 132.581 352.963 132.529 352.963C132.338 352.963 132.183 353.119 132.183 353.31C132.183 353.315 132.183 353.32 132.183 353.324L132.224 354.507C132.147 354.568 132.071 354.631 131.996 354.695L130.843 354.422C130.819 354.416 130.792 354.413 130.764 354.413C130.572 354.413 130.416 354.568 130.416 354.76C130.416 354.788 130.42 354.816 130.426 354.842L130.425 354.84L130.696 355.993C130.634 356.068 130.571 356.144 130.51 356.219L129.326 356.178C129.322 356.178 129.317 356.178 129.312 356.178C129.121 356.178 128.965 356.333 128.965 356.524C128.965 356.576 128.977 356.626 128.997 356.671L128.997 356.668L129.488 357.745C129.439 357.831 129.393 357.919 129.347 358.008L128.181 358.197C128.016 358.226 127.891 358.368 127.891 358.541C127.891 358.616 127.916 358.686 127.956 358.743L127.956 358.742L128.646 359.701C128.616 359.796 128.587 359.891 128.559 359.987L127.452 360.401C127.32 360.452 127.228 360.578 127.228 360.726C127.228 360.826 127.27 360.915 127.336 360.979L128.202 361.786C128.191 361.884 128.181 361.982 128.174 362.08L127.166 362.703C127.066 362.765 127 362.874 127 362.998C127 363.122 127.066 363.232 127.165 363.292L127.166 363.293L128.174 363.916C128.182 364.015 128.192 364.112 128.202 364.21L127.336 365.018C127.268 365.081 127.226 365.172 127.226 365.272C127.226 365.42 127.319 365.546 127.449 365.596L127.451 365.597L128.558 366.011C128.585 366.107 128.615 366.202 128.645 366.296L127.955 367.255C127.913 367.311 127.888 367.383 127.888 367.459C127.888 367.631 128.015 367.774 128.18 367.8H128.181L129.347 367.989C129.393 368.077 129.439 368.165 129.488 368.252L128.997 369.328C128.977 369.371 128.965 369.42 128.965 369.472C128.965 369.664 129.121 369.819 129.312 369.819C129.317 369.819 129.322 369.819 129.326 369.819H129.325L130.508 369.777C130.57 369.854 130.632 369.93 130.696 370.006L130.424 371.16C130.419 371.184 130.416 371.211 130.416 371.239C130.416 371.43 130.571 371.585 130.762 371.585C130.791 371.585 130.818 371.582 130.844 371.576L130.842 371.577L131.995 371.305C132.07 371.369 132.147 371.431 132.223 371.492L132.182 372.676C132.182 372.681 132.182 372.686 132.182 372.692C132.182 372.882 132.336 373.036 132.526 373.036C132.579 373.036 132.629 373.024 132.674 373.002L132.671 373.003L133.748 372.513C133.835 372.562 133.922 372.608 134.01 372.654L134.201 373.82C134.23 373.986 134.372 374.111 134.544 374.111C134.619 374.111 134.689 374.087 134.747 374.046L134.746 374.047L135.705 373.356C135.799 373.386 135.895 373.415 135.99 373.443L136.404 374.55C136.454 374.684 136.58 374.777 136.728 374.777C136.828 374.777 136.919 374.734 136.982 374.665L137.79 373.799C137.887 373.811 137.985 373.819 138.084 373.829L138.707 374.837C138.77 374.935 138.878 375 139.002 375C139.125 375 139.234 374.935 139.295 374.838L139.296 374.836L139.92 373.828C140.018 373.819 140.116 373.81 140.213 373.799L141.02 374.665C141.083 374.732 141.174 374.773 141.273 374.773C141.42 374.773 141.546 374.681 141.598 374.552L141.598 374.549L142.012 373.442C142.108 373.415 142.203 373.386 142.298 373.355L143.257 374.046C143.313 374.088 143.384 374.112 143.46 374.112C143.632 374.112 143.775 373.986 143.801 373.821V373.819L143.991 372.653C144.079 372.608 144.167 372.56 144.254 372.512L145.33 373.002C145.372 373.021 145.421 373.033 145.473 373.033C145.665 373.033 145.821 372.877 145.821 372.685C145.821 372.681 145.821 372.678 145.821 372.674L145.779 371.49C145.856 371.43 145.931 371.368 146.006 371.304L147.159 371.575C147.183 371.581 147.21 371.584 147.237 371.584C147.429 371.584 147.584 371.429 147.584 371.237C147.584 371.209 147.581 371.182 147.575 371.156L147.576 371.159L147.304 370.005C147.367 369.929 147.43 369.854 147.491 369.777L148.675 369.818C148.68 369.818 148.686 369.818 148.691 369.818C148.882 369.818 149.035 369.664 149.035 369.474C149.035 369.421 149.023 369.371 149.002 369.326L149.003 369.328L148.513 368.252C148.56 368.165 148.608 368.077 148.654 367.989L149.82 367.8C149.985 367.771 150.109 367.628 150.109 367.456C150.109 367.381 150.085 367.311 150.044 367.254L150.045 367.255L149.355 366.296L149.442 366.01L150.549 365.596C150.681 365.546 150.774 365.419 150.774 365.271C150.774 365.171 150.732 365.081 150.664 365.017L149.798 364.209C149.808 364.112 149.818 364.014 149.826 363.915L150.834 363.292C150.934 363.23 151 363.121 151 362.997C151 362.873 150.934 362.764 150.835 362.703L150.834 362.703H150.842Z" fill="#86888E"/>
<path d="M162.05 368V358.2H165.214C165.979 358.2 166.605 358.331 167.09 358.592C167.575 358.844 167.935 359.185 168.168 359.614C168.401 360.043 168.518 360.529 168.518 361.07C168.518 361.593 168.397 362.073 168.154 362.512C167.921 362.951 167.557 363.301 167.062 363.562C166.567 363.823 165.933 363.954 165.158 363.954H163.226V368H162.05ZM167.23 368L165.074 363.618H166.39L168.616 368H167.23ZM163.226 363.03H165.13C165.877 363.03 166.423 362.848 166.768 362.484C167.123 362.12 167.3 361.653 167.3 361.084C167.3 360.505 167.127 360.048 166.782 359.712C166.446 359.367 165.891 359.194 165.116 359.194H163.226V363.03ZM173.135 368.168C172.593 368.168 172.117 368.061 171.706 367.846C171.305 367.631 170.992 367.3 170.768 366.852C170.554 366.404 170.446 365.844 170.446 365.172V360.944H171.622V365.046C171.622 365.746 171.776 366.273 172.084 366.628C172.392 366.983 172.826 367.16 173.387 367.16C173.779 367.16 174.133 367.067 174.45 366.88C174.768 366.684 175.015 366.409 175.192 366.054C175.379 365.69 175.472 365.247 175.472 364.724V360.944H176.648V368H175.585L175.514 366.768C175.3 367.207 174.982 367.552 174.562 367.804C174.142 368.047 173.666 368.168 173.135 368.168ZM181.538 368.168C180.95 368.168 180.437 368.07 179.998 367.874C179.569 367.678 179.223 367.407 178.962 367.062C178.71 366.707 178.556 366.292 178.5 365.816H179.704C179.751 366.059 179.849 366.283 179.998 366.488C180.147 366.693 180.348 366.861 180.6 366.992C180.861 367.113 181.179 367.174 181.552 367.174C181.879 367.174 182.149 367.127 182.364 367.034C182.579 366.931 182.737 366.796 182.84 366.628C182.952 366.46 183.008 366.278 183.008 366.082C183.008 365.793 182.938 365.573 182.798 365.424C182.667 365.275 182.471 365.158 182.21 365.074C181.949 364.981 181.631 364.901 181.258 364.836C180.95 364.78 180.647 364.705 180.348 364.612C180.049 364.519 179.783 364.397 179.55 364.248C179.317 364.089 179.13 363.898 178.99 363.674C178.859 363.45 178.794 363.175 178.794 362.848C178.794 362.447 178.897 362.092 179.102 361.784C179.307 361.467 179.601 361.219 179.984 361.042C180.376 360.865 180.829 360.776 181.342 360.776C182.098 360.776 182.709 360.958 183.176 361.322C183.643 361.686 183.918 362.213 184.002 362.904H182.84C182.793 362.549 182.639 362.274 182.378 362.078C182.126 361.873 181.776 361.77 181.328 361.77C180.889 361.77 180.553 361.859 180.32 362.036C180.096 362.213 179.984 362.447 179.984 362.736C179.984 362.923 180.045 363.091 180.166 363.24C180.297 363.38 180.483 363.501 180.726 363.604C180.978 363.707 181.286 363.791 181.65 363.856C182.117 363.94 182.541 364.052 182.924 364.192C183.307 364.332 183.615 364.542 183.848 364.822C184.091 365.093 184.212 365.48 184.212 365.984C184.212 366.423 184.1 366.805 183.876 367.132C183.661 367.459 183.353 367.715 182.952 367.902C182.551 368.079 182.079 368.168 181.538 368.168ZM188.643 368C188.223 368 187.859 367.935 187.551 367.804C187.243 367.673 187.005 367.454 186.837 367.146C186.678 366.829 186.599 366.404 186.599 365.872V361.938H185.367V360.944H186.599L186.753 359.236H187.775V360.944H189.819V361.938H187.775V365.872C187.775 366.311 187.863 366.609 188.041 366.768C188.218 366.917 188.531 366.992 188.979 366.992H189.735V368H188.643Z" fill="white"/>
</g>
<g filter="url(#filter5_d_2483_53872)">
<rect x="255" y="204" width="81" height="36" rx="10" fill="#0C0D0E" shape-rendering="crispEdges"/>
<rect x="255.5" y="204.5" width="80" height="35" rx="9.5" stroke="#86888E" shape-rendering="crispEdges"/>
<path d="M266.819 218.67H270.228C271.228 218.678 271.954 218.967 272.403 219.535C272.853 220.103 273.001 220.879 272.848 221.863C272.789 222.312 272.657 222.753 272.454 223.186C272.259 223.618 271.988 224.008 271.64 224.356C271.216 224.797 270.762 225.076 270.279 225.195C269.795 225.314 269.295 225.373 268.778 225.373H267.251L266.768 227.79H265L266.819 218.67ZM268.307 220.12L267.544 223.936C267.595 223.944 267.646 223.949 267.697 223.949C267.756 223.949 267.815 223.949 267.875 223.949C268.689 223.957 269.367 223.877 269.91 223.707C270.453 223.529 270.817 222.91 271.004 221.85C271.156 220.96 271.004 220.446 270.546 220.311C270.096 220.175 269.533 220.112 268.854 220.12C268.752 220.128 268.655 220.133 268.562 220.133C268.477 220.133 268.388 220.133 268.294 220.133L268.307 220.12Z" fill="#86888E"/>
<path d="M274.862 216.24H276.618L276.122 218.67H277.699C278.564 218.687 279.208 218.865 279.632 219.204C280.065 219.543 280.192 220.188 280.014 221.137L279.162 225.373H277.381L278.195 221.328C278.28 220.904 278.254 220.603 278.119 220.425C277.983 220.247 277.691 220.158 277.241 220.158L275.829 220.145L274.786 225.373H273.031L274.862 216.24Z" fill="#86888E"/>
<path d="M281.899 218.67H285.308C286.309 218.678 287.034 218.967 287.483 219.535C287.933 220.103 288.081 220.879 287.928 221.863C287.869 222.312 287.738 222.753 287.534 223.186C287.339 223.618 287.068 224.008 286.72 224.356C286.296 224.797 285.842 225.076 285.359 225.195C284.876 225.314 284.375 225.373 283.858 225.373H282.332L281.848 227.79H280.08L281.899 218.67ZM283.387 220.12L282.624 223.936C282.675 223.944 282.726 223.949 282.777 223.949C282.836 223.949 282.896 223.949 282.955 223.949C283.769 223.957 284.447 223.877 284.99 223.707C285.533 223.529 285.897 222.91 286.084 221.85C286.237 220.96 286.084 220.446 285.626 220.311C285.176 220.175 284.613 220.112 283.934 220.12C283.832 220.128 283.735 220.133 283.642 220.133C283.557 220.133 283.468 220.133 283.375 220.133L283.387 220.12Z" fill="#86888E"/>
<path d="M300.05 227V217.2H303.242C304.017 217.2 304.651 217.331 305.146 217.592C305.65 217.844 306.019 218.185 306.252 218.614C306.495 219.043 306.616 219.533 306.616 220.084C306.616 220.616 306.495 221.101 306.252 221.54C306.019 221.969 305.655 222.315 305.16 222.576C304.665 222.837 304.026 222.968 303.242 222.968H301.226V227H300.05ZM301.226 221.974H303.228C304.012 221.974 304.572 221.801 304.908 221.456C305.244 221.111 305.412 220.653 305.412 220.084C305.412 219.477 305.244 219.011 304.908 218.684C304.572 218.348 304.012 218.18 303.228 218.18H301.226V221.974ZM314.709 227V217.2H315.885V227H314.709ZM308.451 227V217.2H309.627V227H308.451ZM309.403 222.492V221.526H315.003V222.492H309.403ZM318.26 227V217.2H321.452C322.227 217.2 322.862 217.331 323.356 217.592C323.86 217.844 324.229 218.185 324.462 218.614C324.705 219.043 324.826 219.533 324.826 220.084C324.826 220.616 324.705 221.101 324.462 221.54C324.229 221.969 323.865 222.315 323.37 222.576C322.876 222.837 322.236 222.968 321.452 222.968H319.436V227H318.26ZM319.436 221.974H321.438C322.222 221.974 322.782 221.801 323.118 221.456C323.454 221.111 323.622 220.653 323.622 220.084C323.622 219.477 323.454 219.011 323.118 218.684C322.782 218.348 322.222 218.18 321.438 218.18H319.436V221.974Z" fill="white"/>
</g>
<g filter="url(#filter6_d_2483_53872)">
<rect x="255" y="251" width="84" height="36" rx="10" fill="#0C0D0E" shape-rendering="crispEdges"/>
<rect x="255.5" y="251.5" width="83" height="35" rx="9.5" stroke="#86888E" shape-rendering="crispEdges"/>
<path d="M274.09 266.767C273.868 266.277 273.769 265.705 273.938 265.186C274.107 264.655 274.487 264.229 274.866 263.832C275.922 262.776 277.223 262 278.256 260.927C278.827 260.338 279.3 259.632 279.463 258.82C279.597 258.225 279.533 257.613 279.411 257.023C279.959 257.648 280.14 258.54 279.983 259.346C279.813 260.25 279.312 261.049 278.722 261.738C278.25 262.292 277.707 262.782 277.141 263.237C276.482 263.768 275.834 264.34 275.42 265.087C275.07 265.694 274.988 266.441 275.227 267.1C275.618 268.232 276.529 269.072 277.025 270.14C276.476 269.655 275.939 269.154 275.437 268.623C274.912 268.063 274.416 267.468 274.09 266.767ZM277.065 265.88C276.966 266.808 277.45 267.683 278.028 268.372C278.308 268.681 278.547 269.06 278.559 269.492C278.571 270.069 278.244 270.607 277.824 270.986C277.923 270.974 277.993 270.886 278.075 270.84C278.705 270.437 279.311 269.93 279.621 269.235C279.825 268.763 279.778 268.203 279.51 267.765C279.195 267.251 278.781 266.796 278.536 266.236C278.401 265.921 278.355 265.554 278.466 265.221C278.611 264.772 278.926 264.404 279.259 264.083C280.175 263.214 281.284 262.595 282.346 261.919C281.004 262.304 279.679 262.835 278.547 263.669C277.83 264.206 277.165 264.953 277.065 265.88ZM283.443 270.268C284.079 270.303 284.703 270.77 284.82 271.412C284.93 271.966 284.662 272.514 284.318 272.934C283.752 273.611 282.987 274.096 282.217 274.51C282.141 274.556 282.077 274.615 282.019 274.679C283.034 274.422 284.049 274.037 284.872 273.378C285.327 272.999 285.73 272.497 285.817 271.896C285.899 271.377 285.683 270.84 285.298 270.496C284.831 270.069 284.172 269.912 283.553 269.994C283.197 270.04 282.807 270.116 282.562 270.414C282.853 270.356 283.139 270.239 283.443 270.268ZM270.776 271.937C271.54 272.141 272.328 272.199 273.109 272.252C273.81 272.298 274.51 272.31 275.216 272.304C277.036 272.275 278.868 272.153 280.654 271.756C280.823 271.715 281.009 271.686 281.161 271.581C281.459 271.388 281.785 271.237 282.106 271.085C280.654 271.318 279.195 271.517 277.725 271.61C276.237 271.703 274.737 271.762 273.244 271.663C272.818 271.622 272.38 271.598 271.983 271.435C271.89 271.394 271.762 271.313 271.808 271.19C271.896 271.032 272.071 270.957 272.223 270.875C272.864 270.571 273.565 270.402 274.247 270.204C273.074 270.186 271.907 270.484 270.834 270.945C270.595 271.062 270.326 271.155 270.134 271.353C270.058 271.435 270.058 271.575 270.146 271.645C270.321 271.803 270.554 271.873 270.776 271.937ZM280.228 273.541C279.207 273.722 278.18 273.892 277.147 273.944C276.015 274.02 274.883 273.955 273.763 273.839C273.547 273.81 273.331 273.775 273.139 273.676C273.039 273.617 272.94 273.524 272.946 273.401C272.958 273.209 273.121 273.075 273.238 272.934C272.876 273.063 272.514 273.197 272.211 273.436C272.082 273.536 271.954 273.693 271.989 273.868C272.042 274.072 272.24 274.195 272.415 274.288C272.847 274.51 273.331 274.609 273.804 274.696C275 274.889 276.219 274.895 277.421 274.813C278.693 274.714 279.959 274.504 281.19 274.142C280.84 273.985 280.508 273.804 280.228 273.541ZM273.815 275.56C273.489 275.653 273.156 275.764 272.888 275.98C272.753 276.085 272.649 276.266 272.713 276.435C272.794 276.651 272.999 276.78 273.191 276.89C273.693 277.165 274.259 277.293 274.813 277.392C276.068 277.59 277.357 277.561 278.606 277.34C279.347 277.2 280.088 277.001 280.776 276.692C280.327 276.505 279.889 276.295 279.469 276.05C278.74 276.179 278.005 276.313 277.258 276.36C276.272 276.435 275.274 276.354 274.288 276.231C274.055 276.179 273.763 276.155 273.605 275.951C273.524 275.782 273.71 275.659 273.815 275.56ZM281.797 279.312C282.614 279.143 283.437 278.95 284.184 278.571C284.417 278.436 284.703 278.29 284.779 278.011C284.82 277.742 284.539 277.602 284.341 277.491C284.464 277.632 284.545 277.836 284.423 277.999C284.218 278.273 283.869 278.378 283.559 278.483C282.591 278.757 281.587 278.868 280.589 278.979C277.946 279.218 275.286 279.277 272.643 279.055C271.756 278.962 270.851 278.862 270.005 278.547C269.871 278.489 269.667 278.431 269.667 278.25C269.719 278.092 269.871 278.005 270.005 277.929C270.612 277.62 271.289 277.45 271.966 277.41C271.768 277.293 271.534 277.281 271.307 277.287C270.741 277.305 270.186 277.45 269.65 277.632C269.189 277.8 268.716 277.987 268.348 278.326C268.203 278.454 268.069 278.699 268.22 278.874C268.453 279.125 268.815 279.189 269.136 279.265C270.933 279.574 272.753 279.749 274.574 279.813C276.99 279.884 279.422 279.779 281.797 279.312ZM284.189 279.627C283.092 279.977 281.955 280.169 280.823 280.327C278.868 280.572 276.896 280.648 274.93 280.59C273.734 280.543 272.538 280.461 271.359 280.263C271.633 280.449 271.972 280.508 272.287 280.595C273.611 280.875 274.971 280.928 276.319 280.969C278.296 281.004 280.274 280.928 282.223 280.619C283.145 280.456 284.073 280.257 284.901 279.825C285.333 279.598 285.771 279.247 285.846 278.74C285.409 279.207 284.779 279.423 284.189 279.627Z" fill="#86888E"/>
<path d="M302.234 274.168C301.646 274.168 301.137 274.056 300.708 273.832C300.288 273.608 299.961 273.286 299.728 272.866C299.504 272.446 299.392 271.947 299.392 271.368H300.582C300.582 271.695 300.633 271.993 300.736 272.264C300.848 272.525 301.021 272.735 301.254 272.894C301.497 273.043 301.819 273.118 302.22 273.118C302.612 273.118 302.92 273.043 303.144 272.894C303.377 272.745 303.541 272.544 303.634 272.292C303.737 272.031 303.788 271.737 303.788 271.41V264.2H304.964V271.41C304.964 272.287 304.721 272.969 304.236 273.454C303.76 273.93 303.093 274.168 302.234 274.168ZM309.57 274.168C309 274.168 308.524 274.07 308.142 273.874C307.759 273.669 307.474 273.403 307.288 273.076C307.101 272.74 307.008 272.376 307.008 271.984C307.008 271.508 307.129 271.107 307.372 270.78C307.624 270.444 307.974 270.192 308.422 270.024C308.879 269.847 309.416 269.758 310.032 269.758H311.894C311.894 269.319 311.824 268.955 311.684 268.666C311.553 268.367 311.357 268.143 311.096 267.994C310.844 267.845 310.526 267.77 310.144 267.77C309.696 267.77 309.308 267.882 308.982 268.106C308.655 268.33 308.454 268.661 308.38 269.1H307.176C307.232 268.596 307.4 268.176 307.68 267.84C307.969 267.495 308.333 267.233 308.772 267.056C309.21 266.869 309.668 266.776 310.144 266.776C310.797 266.776 311.338 266.897 311.768 267.14C312.206 267.373 312.533 267.705 312.748 268.134C312.962 268.554 313.07 269.053 313.07 269.632V274H312.02L311.95 272.754C311.856 272.95 311.735 273.137 311.586 273.314C311.446 273.482 311.278 273.631 311.082 273.762C310.886 273.883 310.662 273.981 310.41 274.056C310.167 274.131 309.887 274.168 309.57 274.168ZM309.752 273.174C310.078 273.174 310.372 273.109 310.634 272.978C310.904 272.838 311.133 272.651 311.32 272.418C311.506 272.175 311.646 271.909 311.74 271.62C311.842 271.331 311.894 271.027 311.894 270.71V270.668H310.13C309.672 270.668 309.304 270.724 309.024 270.836C308.744 270.939 308.543 271.088 308.422 271.284C308.3 271.471 308.24 271.685 308.24 271.928C308.24 272.18 308.296 272.399 308.408 272.586C308.529 272.773 308.702 272.917 308.926 273.02C309.159 273.123 309.434 273.174 309.752 273.174ZM316.939 274L314.265 266.944H315.497L317.625 272.866L319.767 266.944H320.971L318.297 274H316.939ZM324.512 274.168C323.943 274.168 323.467 274.07 323.084 273.874C322.702 273.669 322.417 273.403 322.23 273.076C322.044 272.74 321.95 272.376 321.95 271.984C321.95 271.508 322.072 271.107 322.314 270.78C322.566 270.444 322.916 270.192 323.364 270.024C323.822 269.847 324.358 269.758 324.974 269.758H326.836C326.836 269.319 326.766 268.955 326.626 268.666C326.496 268.367 326.3 268.143 326.038 267.994C325.786 267.845 325.469 267.77 325.086 267.77C324.638 267.77 324.251 267.882 323.924 268.106C323.598 268.33 323.397 268.661 323.322 269.1H322.118C322.174 268.596 322.342 268.176 322.622 267.84C322.912 267.495 323.276 267.233 323.714 267.056C324.153 266.869 324.61 266.776 325.086 266.776C325.74 266.776 326.281 266.897 326.71 267.14C327.149 267.373 327.476 267.705 327.69 268.134C327.905 268.554 328.012 269.053 328.012 269.632V274H326.962L326.892 272.754C326.799 272.95 326.678 273.137 326.528 273.314C326.388 273.482 326.22 273.631 326.024 273.762C325.828 273.883 325.604 273.981 325.352 274.056C325.11 274.131 324.83 274.168 324.512 274.168ZM324.694 273.174C325.021 273.174 325.315 273.109 325.576 272.978C325.847 272.838 326.076 272.651 326.262 272.418C326.449 272.175 326.589 271.909 326.682 271.62C326.785 271.331 326.836 271.027 326.836 270.71V270.668H325.072C324.615 270.668 324.246 270.724 323.966 270.836C323.686 270.939 323.486 271.088 323.364 271.284C323.243 271.471 323.182 271.685 323.182 271.928C323.182 272.18 323.238 272.399 323.35 272.586C323.472 272.773 323.644 272.917 323.868 273.02C324.102 273.123 324.377 273.174 324.694 273.174Z" fill="white"/>
</g>
<g filter="url(#filter7_d_2483_53872)">
<rect x="255" y="298" width="65" height="36" rx="10" fill="#0C0D0E" shape-rendering="crispEdges"/>
<rect x="255.5" y="298.5" width="64" height="35" rx="9.5" stroke="#86888E" shape-rendering="crispEdges"/>
<g clip-path="url(#clip2_2483_53872)">
<path fill-rule="evenodd" clip-rule="evenodd" d="M276.307 304.163C276.736 303.946 277.264 303.946 277.692 304.163C279.811 305.239 286.188 308.478 288.307 309.554C288.736 309.771 289 310.174 289 310.609C289 312.761 289 319.238 289 321.39C289 321.826 288.736 322.228 288.307 322.446C286.188 323.522 279.812 326.76 277.692 327.836C277.263 328.054 276.735 328.054 276.307 327.836C274.188 326.76 267.812 323.522 265.692 322.446C265.264 322.228 265 321.826 265 321.391C265 319.239 265 312.762 265 310.61C265 310.174 265.264 309.772 265.693 309.554C267.811 308.478 274.189 305.239 276.307 304.163Z" fill="#86888E"/>
<path fill-rule="evenodd" clip-rule="evenodd" d="M265.192 321.945C265.024 321.742 265 321.549 265 321.289C265 319.149 265 312.709 265 310.569C265 310.136 265.263 309.736 265.691 309.52C267.802 308.45 274.157 305.23 276.269 304.16C276.696 303.944 277.275 303.948 277.703 304.165C279.814 305.234 286.148 308.427 288.259 309.497C288.43 309.584 288.56 309.688 288.676 309.826L265.192 321.945Z" fill="#ACADAE"/>
<path fill-rule="evenodd" clip-rule="evenodd" d="M277 308C281.88 308 285.842 311.585 285.842 316C285.842 320.415 281.88 324 277 324C272.12 324 268.158 320.415 268.158 316C268.158 311.585 272.12 308 277 308ZM277 312C279.44 312 281.421 313.792 281.421 316C281.421 318.207 279.44 320 277 320C274.56 320 272.579 318.207 272.579 316C272.579 313.792 274.559 312 277 312Z" fill="#0C0D0E"/>
<path fill-rule="evenodd" clip-rule="evenodd" d="M288.675 309.832C289.001 310.108 288.995 310.524 288.995 310.851C288.995 313.02 288.974 319.188 289 321.357C289.003 321.583 288.92 321.821 288.796 322.001L276.743 316.001L288.675 309.832Z" fill="#9FA1A6"/>
</g>
<path d="M304.306 321.168C303.354 321.168 302.528 320.958 301.828 320.538C301.137 320.109 300.605 319.516 300.232 318.76C299.859 317.995 299.672 317.108 299.672 316.1C299.672 315.092 299.859 314.21 300.232 313.454C300.605 312.689 301.137 312.096 301.828 311.676C302.528 311.247 303.354 311.032 304.306 311.032C305.426 311.032 306.336 311.298 307.036 311.83C307.736 312.362 308.184 313.113 308.38 314.084H307.078C306.929 313.477 306.625 312.992 306.168 312.628C305.711 312.255 305.09 312.068 304.306 312.068C303.606 312.068 302.999 312.231 302.486 312.558C301.973 312.875 301.576 313.337 301.296 313.944C301.016 314.541 300.876 315.26 300.876 316.1C300.876 316.94 301.016 317.663 301.296 318.27C301.576 318.867 301.973 319.329 302.486 319.656C302.999 319.973 303.606 320.132 304.306 320.132C305.09 320.132 305.711 319.955 306.168 319.6C306.625 319.236 306.929 318.755 307.078 318.158H308.38C308.184 319.101 307.736 319.838 307.036 320.37C306.336 320.902 305.426 321.168 304.306 321.168Z" fill="white"/>
</g>
<g filter="url(#filter8_d_2483_53872)">
<rect x="255" y="345" width="80" height="36" rx="10" fill="#0C0D0E" shape-rendering="crispEdges"/>
<rect x="255.5" y="345.5" width="79" height="35" rx="9.5" stroke="#86888E" shape-rendering="crispEdges"/>
<g clip-path="url(#clip3_2483_53872)">
<path d="M288.695 369C288.883 368.71 289 368.383 289 368.09V357.91C289 357.616 288.883 357.29 288.695 357L277 363L288.695 369Z" fill="#9FA1A6"/>
<path d="M278.039 374.78L287.961 369.69C288.246 369.543 288.506 369.29 288.695 369L277 363L265.305 369C265.493 369.29 265.753 369.543 266.039 369.69L275.961 374.78C276.532 375.073 277.468 375.073 278.039 374.78Z" fill="#86888E"/>
<path d="M288.695 357C288.506 356.71 288.247 356.457 287.961 356.31L278.039 351.22C277.468 350.927 276.532 350.927 275.961 351.22L266.039 356.31C265.468 356.603 265 357.323 265 357.91V368.09C265 368.383 265.117 368.71 265.305 369L277 363L288.695 357Z" fill="#ACADAE"/>
<path d="M277 370.109C272.589 370.109 269 366.92 269 363C269 359.08 272.589 355.891 277 355.891C279.846 355.891 282.501 357.252 283.928 359.443L280.466 361.223C279.752 360.127 278.424 359.445 277 359.445C274.794 359.445 273 361.04 273 363C273 364.96 274.794 366.554 277 366.554C278.424 366.554 279.752 365.873 280.466 364.776L283.928 366.556C282.501 368.747 279.847 370.109 277 370.109Z" fill="#0C0D0E"/>
<path d="M285 362.605H284.111V361.815H283.222V362.605H282.333V363.395H283.222V364.185H284.111V363.395H285V362.605Z" fill="#0C0D0E"/>
<path d="M288.333 362.605H287.444V361.815H286.555V362.605H285.667V363.395H286.555V364.185H287.444V363.395H288.333V362.605Z" fill="#0C0D0E"/>
</g>
<path d="M304.306 368.168C303.354 368.168 302.528 367.958 301.828 367.538C301.137 367.109 300.605 366.516 300.232 365.76C299.859 364.995 299.672 364.108 299.672 363.1C299.672 362.092 299.859 361.21 300.232 360.454C300.605 359.689 301.137 359.096 301.828 358.676C302.528 358.247 303.354 358.032 304.306 358.032C305.426 358.032 306.336 358.298 307.036 358.83C307.736 359.362 308.184 360.113 308.38 361.084H307.078C306.929 360.477 306.625 359.992 306.168 359.628C305.711 359.255 305.09 359.068 304.306 359.068C303.606 359.068 302.999 359.231 302.486 359.558C301.973 359.875 301.576 360.337 301.296 360.944C301.016 361.541 300.876 362.26 300.876 363.1C300.876 363.94 301.016 364.663 301.296 365.27C301.576 365.867 301.973 366.329 302.486 366.656C302.999 366.973 303.606 367.132 304.306 367.132C305.09 367.132 305.711 366.955 306.168 366.6C306.625 366.236 306.929 365.755 307.078 365.158H308.38C308.184 366.101 307.736 366.838 307.036 367.37C306.336 367.902 305.426 368.168 304.306 368.168ZM312.633 366.992V360.888H313.683V366.992H312.633ZM309.959 364.43V363.436H316.357V364.43H309.959ZM320.61 366.992V360.888H321.66V366.992H320.61ZM317.936 364.43V363.436H324.334V364.43H317.936Z" fill="white"/>
</g>
<g filter="url(#filter9_d_2483_53872)">
<rect x="118" y="392" width="124.512" height="36" rx="10" fill="#0C0D0E" shape-rendering="crispEdges"/>
<rect x="118.5" y="392.5" width="123.512" height="35" rx="9.5" stroke="#86888E" shape-rendering="crispEdges"/>
<path d="M139.265 414.423C139.262 414.423 139.258 414.423 139.255 414.423C138.777 414.423 138.39 414.81 138.39 415.288C138.39 415.767 138.777 416.154 139.255 416.154C139.258 416.154 139.262 416.154 139.266 416.154H143.42C143.422 416.154 143.425 416.154 143.428 416.154C143.906 416.154 144.293 415.767 144.293 415.289C144.293 414.811 143.906 414.424 143.428 414.424C143.425 414.424 143.422 414.424 143.42 414.424L139.265 414.423ZM141.885 410.3C141.986 410.152 142.046 409.969 142.046 409.772C142.046 409.527 141.953 409.303 141.801 409.135L141.801 409.135L136.559 403.557C136.38 403.387 136.138 403.282 135.871 403.282C135.319 403.282 134.871 403.729 134.871 404.281C134.871 404.526 134.958 404.75 135.104 404.923L135.102 404.922L139.472 409.57V409.673L132.518 414.71C132.294 414.895 132.151 415.173 132.151 415.484C132.151 416.036 132.599 416.484 133.151 416.484C133.352 416.484 133.539 416.425 133.696 416.323L133.692 416.325L141.404 410.786C141.603 410.664 141.766 410.5 141.882 410.305L141.886 410.299L141.885 410.3ZM149.735 401.541C149.744 401.54 149.754 401.54 149.766 401.54C150.178 401.54 150.512 401.875 150.512 402.286C150.512 402.367 150.499 402.444 150.476 402.516L150.477 402.511L147.049 417.49C146.908 418.033 146.436 418.432 145.866 418.459H145.863H128.777C128.768 418.46 128.757 418.46 128.746 418.46C128.334 418.46 128 418.126 128 417.714C128 417.634 128.013 417.556 128.036 417.484L128.035 417.49L131.464 402.511C131.604 401.968 132.076 401.569 132.646 401.541H132.649H149.735Z" fill="#86888E"/>
<path d="M161.562 415V405.2H164.754C165.529 405.2 166.164 405.331 166.658 405.592C167.162 405.844 167.531 406.185 167.764 406.614C168.007 407.043 168.128 407.533 168.128 408.084C168.128 408.616 168.007 409.101 167.764 409.54C167.531 409.969 167.167 410.315 166.672 410.576C166.178 410.837 165.538 410.968 164.754 410.968H162.738V415H161.562ZM162.738 409.974H164.74C165.524 409.974 166.084 409.801 166.42 409.456C166.756 409.111 166.924 408.653 166.924 408.084C166.924 407.477 166.756 407.011 166.42 406.684C166.084 406.348 165.524 406.18 164.74 406.18H162.738V409.974ZM172.633 415.168C171.98 415.168 171.392 415.019 170.869 414.72C170.346 414.412 169.936 413.983 169.637 413.432C169.338 412.872 169.189 412.223 169.189 411.486C169.189 410.73 169.338 410.077 169.637 409.526C169.945 408.966 170.36 408.537 170.883 408.238C171.415 407.93 172.008 407.776 172.661 407.776C173.333 407.776 173.926 407.93 174.439 408.238C174.962 408.537 175.372 408.966 175.671 409.526C175.979 410.077 176.133 410.725 176.133 411.472C176.133 412.219 175.979 412.872 175.671 413.432C175.363 413.983 174.948 414.412 174.425 414.72C173.902 415.019 173.305 415.168 172.633 415.168ZM172.647 414.16C173.048 414.16 173.422 414.062 173.767 413.866C174.112 413.661 174.392 413.357 174.607 412.956C174.822 412.555 174.929 412.06 174.929 411.472C174.929 410.875 174.822 410.38 174.607 409.988C174.402 409.587 174.126 409.288 173.781 409.092C173.445 408.887 173.072 408.784 172.661 408.784C172.269 408.784 171.896 408.887 171.541 409.092C171.196 409.288 170.916 409.587 170.701 409.988C170.496 410.38 170.393 410.875 170.393 411.472C170.393 412.06 170.496 412.555 170.701 412.956C170.916 413.357 171.191 413.661 171.527 413.866C171.872 414.062 172.246 414.16 172.647 414.16ZM179.23 415L177.158 407.944H178.334L179.944 413.894H179.734L181.484 407.944H182.814L184.592 413.88L184.368 413.894L185.964 407.944H187.154L185.096 415H183.892L182.044 408.784H182.282L180.434 415H179.23ZM191.594 415.168C190.932 415.168 190.344 415.014 189.83 414.706C189.326 414.398 188.93 413.969 188.64 413.418C188.351 412.858 188.206 412.209 188.206 411.472C188.206 410.725 188.346 410.077 188.626 409.526C188.916 408.975 189.317 408.546 189.83 408.238C190.353 407.93 190.95 407.776 191.622 407.776C192.313 407.776 192.896 407.93 193.372 408.238C193.858 408.546 194.226 408.952 194.478 409.456C194.74 409.951 194.87 410.497 194.87 411.094C194.87 411.187 194.87 411.285 194.87 411.388C194.87 411.491 194.866 411.607 194.856 411.738H189.088V410.828H193.722C193.694 410.184 193.48 409.68 193.078 409.316C192.686 408.952 192.192 408.77 191.594 408.77C191.193 408.77 190.82 408.863 190.474 409.05C190.138 409.227 189.868 409.493 189.662 409.848C189.457 410.193 189.354 410.627 189.354 411.15V411.542C189.354 412.121 189.457 412.606 189.662 412.998C189.877 413.39 190.152 413.684 190.488 413.88C190.834 414.076 191.202 414.174 191.594 414.174C192.089 414.174 192.495 414.067 192.812 413.852C193.139 413.628 193.372 413.329 193.512 412.956H194.674C194.562 413.376 194.366 413.754 194.086 414.09C193.806 414.426 193.456 414.692 193.036 414.888C192.626 415.075 192.145 415.168 191.594 415.168ZM196.737 415V407.944H197.801L197.885 409.288C198.044 408.971 198.245 408.7 198.487 408.476C198.739 408.252 199.038 408.079 199.383 407.958C199.738 407.837 200.139 407.776 200.587 407.776V409.008H200.153C199.855 409.008 199.57 409.05 199.299 409.134C199.029 409.209 198.786 409.335 198.571 409.512C198.366 409.689 198.203 409.932 198.081 410.24C197.969 410.539 197.913 410.912 197.913 411.36V415H196.737ZM204.859 415.168C204.271 415.168 203.758 415.07 203.319 414.874C202.89 414.678 202.544 414.407 202.283 414.062C202.031 413.707 201.877 413.292 201.821 412.816H203.025C203.072 413.059 203.17 413.283 203.319 413.488C203.468 413.693 203.669 413.861 203.921 413.992C204.182 414.113 204.5 414.174 204.873 414.174C205.2 414.174 205.47 414.127 205.685 414.034C205.9 413.931 206.058 413.796 206.161 413.628C206.273 413.46 206.329 413.278 206.329 413.082C206.329 412.793 206.259 412.573 206.119 412.424C205.988 412.275 205.792 412.158 205.531 412.074C205.27 411.981 204.952 411.901 204.579 411.836C204.271 411.78 203.968 411.705 203.669 411.612C203.37 411.519 203.104 411.397 202.871 411.248C202.638 411.089 202.451 410.898 202.311 410.674C202.18 410.45 202.115 410.175 202.115 409.848C202.115 409.447 202.218 409.092 202.423 408.784C202.628 408.467 202.922 408.219 203.305 408.042C203.697 407.865 204.15 407.776 204.663 407.776C205.419 407.776 206.03 407.958 206.497 408.322C206.964 408.686 207.239 409.213 207.323 409.904H206.161C206.114 409.549 205.96 409.274 205.699 409.078C205.447 408.873 205.097 408.77 204.649 408.77C204.21 408.77 203.874 408.859 203.641 409.036C203.417 409.213 203.305 409.447 203.305 409.736C203.305 409.923 203.366 410.091 203.487 410.24C203.618 410.38 203.804 410.501 204.047 410.604C204.299 410.707 204.607 410.791 204.971 410.856C205.438 410.94 205.862 411.052 206.245 411.192C206.628 411.332 206.936 411.542 207.169 411.822C207.412 412.093 207.533 412.48 207.533 412.984C207.533 413.423 207.421 413.805 207.197 414.132C206.982 414.459 206.674 414.715 206.273 414.902C205.872 415.079 205.4 415.168 204.859 415.168ZM209.506 415V404.92H210.682V409.134C210.916 408.714 211.242 408.383 211.662 408.14C212.092 407.897 212.558 407.776 213.062 407.776C213.604 407.776 214.075 407.888 214.476 408.112C214.878 408.327 215.186 408.658 215.4 409.106C215.615 409.554 215.722 410.119 215.722 410.8V415H214.56V410.926C214.56 410.217 214.411 409.685 214.112 409.33C213.814 408.966 213.38 408.784 212.81 408.784C212.409 408.784 212.045 408.882 211.718 409.078C211.401 409.274 211.149 409.554 210.962 409.918C210.776 410.282 210.682 410.73 210.682 411.262V415H209.506ZM220.933 415.168C220.27 415.168 219.682 415.014 219.169 414.706C218.665 414.398 218.268 413.969 217.979 413.418C217.69 412.858 217.545 412.209 217.545 411.472C217.545 410.725 217.685 410.077 217.965 409.526C218.254 408.975 218.656 408.546 219.169 408.238C219.692 407.93 220.289 407.776 220.961 407.776C221.652 407.776 222.235 407.93 222.711 408.238C223.196 408.546 223.565 408.952 223.817 409.456C224.078 409.951 224.209 410.497 224.209 411.094C224.209 411.187 224.209 411.285 224.209 411.388C224.209 411.491 224.204 411.607 224.195 411.738H218.427V410.828H223.061C223.033 410.184 222.818 409.68 222.417 409.316C222.025 408.952 221.53 408.77 220.933 408.77C220.532 408.77 220.158 408.863 219.813 409.05C219.477 409.227 219.206 409.493 219.001 409.848C218.796 410.193 218.693 410.627 218.693 411.15V411.542C218.693 412.121 218.796 412.606 219.001 412.998C219.216 413.39 219.491 413.684 219.827 413.88C220.172 414.076 220.541 414.174 220.933 414.174C221.428 414.174 221.834 414.067 222.151 413.852C222.478 413.628 222.711 413.329 222.851 412.956H224.013C223.901 413.376 223.705 413.754 223.425 414.09C223.145 414.426 222.795 414.692 222.375 414.888C221.964 415.075 221.484 415.168 220.933 415.168ZM226.076 415V404.92H227.252V415H226.076ZM229.473 415V404.92H230.649V415H229.473Z" fill="white"/>
</g>
<g filter="url(#filter10_d_2483_53872)">
<rect x="255" y="392" width="86" height="36" rx="10" fill="#0C0D0E" shape-rendering="crispEdges"/>
<rect x="255.5" y="392.5" width="85" height="35" rx="9.5" stroke="#86888E" shape-rendering="crispEdges"/>
<path d="M284.024 404.448L278.072 400.912C277.368 400.496 276.488 400.496 275.768 400.912L269.816 404.448C269.112 404.864 268.664 405.648 268.664 406.496V413.568C268.664 414.416 269.096 415.184 269.816 415.616L275.768 419.152C276.12 419.36 276.52 419.472 276.92 419.472C277.32 419.472 277.72 419.36 278.072 419.152L284.024 415.616C284.728 415.2 285.176 414.416 285.176 413.568V406.48C285.176 405.648 284.744 404.864 284.024 404.448Z" fill="#86888E"/>
<path d="M284.024 404.448L278.072 400.912C277.72 400.704 277.32 400.592 276.92 400.592C276.52 400.592 276.12 400.704 275.768 400.912L269.816 404.448C269.112 404.864 268.664 405.648 268.664 406.496V413.568C268.664 414.416 269.096 415.184 269.816 415.616L275.768 419.152C276.12 419.36 276.52 419.472 276.92 419.472C277.32 419.472 277.72 419.36 278.072 419.152L284.024 415.616C284.728 415.2 285.176 414.416 285.176 413.568V406.48C285.176 405.648 284.744 404.864 284.024 404.448ZM275.976 418.768L270.024 415.232C269.448 414.88 269.08 414.24 269.08 413.552V406.48C269.08 405.792 269.448 405.136 270.024 404.8L275.976 401.264C276.264 401.088 276.584 401.008 276.92 401.008C277.256 401.008 277.576 401.104 277.864 401.264L283.816 404.8C284.312 405.088 284.632 405.6 284.728 406.16C284.536 405.744 284.088 405.616 283.56 405.92L277.944 409.408C277.24 409.824 276.728 410.272 276.728 411.12V418.064C276.728 418.576 276.936 418.896 277.24 418.992C277.144 419.008 277.032 419.024 276.92 419.024C276.6 419.04 276.264 418.944 275.976 418.768Z" fill="#313337"/>
<path d="M282.472 414.239L280.984 415.119C280.952 415.135 280.92 415.167 280.92 415.215V415.599C280.92 415.647 280.952 415.663 280.984 415.647L282.488 414.735C282.52 414.719 282.536 414.671 282.536 414.623V414.287C282.536 414.239 282.504 414.223 282.472 414.239Z" fill="#0C0D0E"/>
<path d="M279.304 410.975C279.352 410.943 279.384 410.975 279.4 411.039V411.551C279.608 411.471 279.8 411.439 279.976 411.487C280.008 411.503 280.024 411.551 280.008 411.599L279.896 412.047C279.88 412.079 279.864 412.111 279.848 412.143C279.832 412.159 279.832 412.159 279.816 412.159C279.8 412.159 279.784 412.175 279.768 412.159C279.688 412.143 279.512 412.095 279.224 412.255C278.92 412.415 278.808 412.671 278.824 412.863C278.824 413.103 278.952 413.167 279.352 413.167C279.896 413.183 280.136 413.423 280.152 413.967C280.152 414.511 279.864 415.103 279.416 415.455L279.432 415.967C279.432 416.031 279.4 416.095 279.352 416.127L279.048 416.303C279 416.335 278.968 416.303 278.952 416.239V415.743C278.696 415.855 278.44 415.871 278.264 415.807C278.232 415.791 278.216 415.743 278.232 415.695L278.344 415.231C278.36 415.199 278.376 415.151 278.392 415.135C278.408 415.119 278.408 415.119 278.424 415.119C278.44 415.103 278.456 415.103 278.472 415.119C278.648 415.183 278.888 415.151 279.096 415.039C279.384 414.895 279.56 414.607 279.56 414.319C279.56 414.063 279.416 413.951 279.08 413.951C278.648 413.951 278.248 413.871 278.232 413.231C278.232 412.703 278.504 412.159 278.936 411.823V411.311C278.936 411.247 278.968 411.183 279.016 411.151L279.304 410.975Z" fill="#86888E"/>
<path d="M300.05 415V405.2H303.494C304.185 405.2 304.754 405.312 305.202 405.536C305.659 405.751 306 406.049 306.224 406.432C306.448 406.805 306.56 407.225 306.56 407.692C306.56 408.196 306.448 408.616 306.224 408.952C306.009 409.288 305.725 409.545 305.37 409.722C305.025 409.899 304.656 410.007 304.264 410.044L304.46 409.904C304.88 409.913 305.267 410.025 305.622 410.24C305.977 410.455 306.257 410.744 306.462 411.108C306.677 411.472 306.784 411.878 306.784 412.326C306.784 412.821 306.663 413.273 306.42 413.684C306.177 414.085 305.818 414.407 305.342 414.65C304.875 414.883 304.297 415 303.606 415H300.05ZM301.226 414.02H303.48C304.143 414.02 304.656 413.866 305.02 413.558C305.393 413.241 305.58 412.802 305.58 412.242C305.58 411.691 305.389 411.253 305.006 410.926C304.633 410.59 304.115 410.422 303.452 410.422H301.226V414.02ZM301.226 409.484H303.41C304.045 409.484 304.525 409.335 304.852 409.036C305.188 408.737 305.356 408.331 305.356 407.818C305.356 407.323 305.188 406.927 304.852 406.628C304.525 406.329 304.031 406.18 303.368 406.18H301.226V409.484ZM310.992 415.168C310.422 415.168 309.946 415.07 309.564 414.874C309.181 414.669 308.896 414.403 308.71 414.076C308.523 413.74 308.43 413.376 308.43 412.984C308.43 412.508 308.551 412.107 308.794 411.78C309.046 411.444 309.396 411.192 309.844 411.024C310.301 410.847 310.838 410.758 311.454 410.758H313.316C313.316 410.319 313.246 409.955 313.106 409.666C312.975 409.367 312.779 409.143 312.518 408.994C312.266 408.845 311.948 408.77 311.566 408.77C311.118 408.77 310.73 408.882 310.404 409.106C310.077 409.33 309.876 409.661 309.802 410.1H308.598C308.654 409.596 308.822 409.176 309.102 408.84C309.391 408.495 309.755 408.233 310.194 408.056C310.632 407.869 311.09 407.776 311.566 407.776C312.219 407.776 312.76 407.897 313.19 408.14C313.628 408.373 313.955 408.705 314.17 409.134C314.384 409.554 314.492 410.053 314.492 410.632V415H313.442L313.372 413.754C313.278 413.95 313.157 414.137 313.008 414.314C312.868 414.482 312.7 414.631 312.504 414.762C312.308 414.883 312.084 414.981 311.832 415.056C311.589 415.131 311.309 415.168 310.992 415.168ZM311.174 414.174C311.5 414.174 311.794 414.109 312.056 413.978C312.326 413.838 312.555 413.651 312.742 413.418C312.928 413.175 313.068 412.909 313.162 412.62C313.264 412.331 313.316 412.027 313.316 411.71V411.668H311.552C311.094 411.668 310.726 411.724 310.446 411.836C310.166 411.939 309.965 412.088 309.844 412.284C309.722 412.471 309.662 412.685 309.662 412.928C309.662 413.18 309.718 413.399 309.83 413.586C309.951 413.773 310.124 413.917 310.348 414.02C310.581 414.123 310.856 414.174 311.174 414.174ZM319.251 415.168C318.663 415.168 318.149 415.07 317.711 414.874C317.281 414.678 316.936 414.407 316.675 414.062C316.423 413.707 316.269 413.292 316.213 412.816H317.417C317.463 413.059 317.561 413.283 317.711 413.488C317.86 413.693 318.061 413.861 318.313 413.992C318.574 414.113 318.891 414.174 319.265 414.174C319.591 414.174 319.862 414.127 320.077 414.034C320.291 413.931 320.45 413.796 320.553 413.628C320.665 413.46 320.721 413.278 320.721 413.082C320.721 412.793 320.651 412.573 320.511 412.424C320.38 412.275 320.184 412.158 319.923 412.074C319.661 411.981 319.344 411.901 318.971 411.836C318.663 411.78 318.359 411.705 318.061 411.612C317.762 411.519 317.496 411.397 317.263 411.248C317.029 411.089 316.843 410.898 316.703 410.674C316.572 410.45 316.507 410.175 316.507 409.848C316.507 409.447 316.609 409.092 316.815 408.784C317.02 408.467 317.314 408.219 317.697 408.042C318.089 407.865 318.541 407.776 319.055 407.776C319.811 407.776 320.422 407.958 320.889 408.322C321.355 408.686 321.631 409.213 321.715 409.904H320.553C320.506 409.549 320.352 409.274 320.091 409.078C319.839 408.873 319.489 408.77 319.041 408.77C318.602 408.77 318.266 408.859 318.033 409.036C317.809 409.213 317.697 409.447 317.697 409.736C317.697 409.923 317.757 410.091 317.879 410.24C318.009 410.38 318.196 410.501 318.439 410.604C318.691 410.707 318.999 410.791 319.363 410.856C319.829 410.94 320.254 411.052 320.637 411.192C321.019 411.332 321.327 411.542 321.561 411.822C321.803 412.093 321.925 412.48 321.925 412.984C321.925 413.423 321.813 413.805 321.589 414.132C321.374 414.459 321.066 414.715 320.665 414.902C320.263 415.079 319.792 415.168 319.251 415.168ZM323.898 415V404.92H325.074V409.134C325.307 408.714 325.634 408.383 326.054 408.14C326.483 407.897 326.95 407.776 327.454 407.776C327.995 407.776 328.467 407.888 328.868 408.112C329.269 408.327 329.577 408.658 329.792 409.106C330.007 409.554 330.114 410.119 330.114 410.8V415H328.952V410.926C328.952 410.217 328.803 409.685 328.504 409.33C328.205 408.966 327.771 408.784 327.202 408.784C326.801 408.784 326.437 408.882 326.11 409.078C325.793 409.274 325.541 409.554 325.354 409.918C325.167 410.282 325.074 410.73 325.074 411.262V415H323.898Z" fill="white"/>
</g>
<defs>
<filter id="filter0_f_2483_53872" x="-158" y="-49" width="772" height="741" filterUnits="userSpaceOnUse" color-interpolation-filters="sRGB">
<feFlood flood-opacity="0" result="BackgroundImageFix"/>
<feBlend mode="normal" in="SourceGraphic" in2="BackgroundImageFix" result="shape"/>
<feGaussianBlur stdDeviation="150" result="effect1_foregroundBlur_2483_53872"/>
</filter>
<filter id="filter1_d_2483_53872" x="97" y="194" width="144" height="76" filterUnits="userSpaceOnUse" color-interpolation-filters="sRGB">
<feFlood flood-opacity="0" result="BackgroundImageFix"/>
<feColorMatrix in="SourceAlpha" type="matrix" values="0 0 0 0 0 0 0 0 0 0 0 0 0 0 0 0 0 0 127 0" result="hardAlpha"/>
<feOffset dy="10"/>
<feGaussianBlur stdDeviation="10"/>
<feComposite in2="hardAlpha" operator="out"/>
<feColorMatrix type="matrix" values="0 0 0 0 0 0 0 0 0 0 0 0 0 0 0 0 0 0 0.5 0"/>
<feBlend mode="normal" in2="BackgroundImageFix" result="effect1_dropShadow_2483_53872"/>
<feBlend mode="normal" in="SourceGraphic" in2="effect1_dropShadow_2483_53872" result="shape"/>
</filter>
<filter id="filter2_d_2483_53872" x="97" y="241" width="142" height="76" filterUnits="userSpaceOnUse" color-interpolation-filters="sRGB">
<feFlood flood-opacity="0" result="BackgroundImageFix"/>
<feColorMatrix in="SourceAlpha" type="matrix" values="0 0 0 0 0 0 0 0 0 0 0 0 0 0 0 0 0 0 127 0" result="hardAlpha"/>
<feOffset dy="10"/>
<feGaussianBlur stdDeviation="10"/>
<feComposite in2="hardAlpha" operator="out"/>
<feColorMatrix type="matrix" values="0 0 0 0 0 0 0 0 0 0 0 0 0 0 0 0 0 0 0.5 0"/>
<feBlend mode="normal" in2="BackgroundImageFix" result="effect1_dropShadow_2483_53872"/>
<feBlend mode="normal" in="SourceGraphic" in2="effect1_dropShadow_2483_53872" result="shape"/>
</filter>
<filter id="filter3_d_2483_53872" x="97" y="288" width="121" height="76" filterUnits="userSpaceOnUse" color-interpolation-filters="sRGB">
<feFlood flood-opacity="0" result="BackgroundImageFix"/>
<feColorMatrix in="SourceAlpha" type="matrix" values="0 0 0 0 0 0 0 0 0 0 0 0 0 0 0 0 0 0 127 0" result="hardAlpha"/>
<feOffset dy="10"/>
<feGaussianBlur stdDeviation="10"/>
<feComposite in2="hardAlpha" operator="out"/>
<feColorMatrix type="matrix" values="0 0 0 0 0 0 0 0 0 0 0 0 0 0 0 0 0 0 0.5 0"/>
<feBlend mode="normal" in2="BackgroundImageFix" result="effect1_dropShadow_2483_53872"/>
<feBlend mode="normal" in="SourceGraphic" in2="effect1_dropShadow_2483_53872" result="shape"/>
</filter>
<filter id="filter4_d_2483_53872" x="97" y="335" width="124" height="76" filterUnits="userSpaceOnUse" color-interpolation-filters="sRGB">
<feFlood flood-opacity="0" result="BackgroundImageFix"/>
<feColorMatrix in="SourceAlpha" type="matrix" values="0 0 0 0 0 0 0 0 0 0 0 0 0 0 0 0 0 0 127 0" result="hardAlpha"/>
<feOffset dy="10"/>
<feGaussianBlur stdDeviation="10"/>
<feComposite in2="hardAlpha" operator="out"/>
<feColorMatrix type="matrix" values="0 0 0 0 0 0 0 0 0 0 0 0 0 0 0 0 0 0 0.5 0"/>
<feBlend mode="normal" in2="BackgroundImageFix" result="effect1_dropShadow_2483_53872"/>
<feBlend mode="normal" in="SourceGraphic" in2="effect1_dropShadow_2483_53872" result="shape"/>
</filter>
<filter id="filter5_d_2483_53872" x="235" y="194" width="121" height="76" filterUnits="userSpaceOnUse" color-interpolation-filters="sRGB">
<feFlood flood-opacity="0" result="BackgroundImageFix"/>
<feColorMatrix in="SourceAlpha" type="matrix" values="0 0 0 0 0 0 0 0 0 0 0 0 0 0 0 0 0 0 127 0" result="hardAlpha"/>
<feOffset dy="10"/>
<feGaussianBlur stdDeviation="10"/>
<feComposite in2="hardAlpha" operator="out"/>
<feColorMatrix type="matrix" values="0 0 0 0 0 0 0 0 0 0 0 0 0 0 0 0 0 0 0.5 0"/>
<feBlend mode="normal" in2="BackgroundImageFix" result="effect1_dropShadow_2483_53872"/>
<feBlend mode="normal" in="SourceGraphic" in2="effect1_dropShadow_2483_53872" result="shape"/>
</filter>
<filter id="filter6_d_2483_53872" x="235" y="241" width="124" height="76" filterUnits="userSpaceOnUse" color-interpolation-filters="sRGB">
<feFlood flood-opacity="0" result="BackgroundImageFix"/>
<feColorMatrix in="SourceAlpha" type="matrix" values="0 0 0 0 0 0 0 0 0 0 0 0 0 0 0 0 0 0 127 0" result="hardAlpha"/>
<feOffset dy="10"/>
<feGaussianBlur stdDeviation="10"/>
<feComposite in2="hardAlpha" operator="out"/>
<feColorMatrix type="matrix" values="0 0 0 0 0 0 0 0 0 0 0 0 0 0 0 0 0 0 0.5 0"/>
<feBlend mode="normal" in2="BackgroundImageFix" result="effect1_dropShadow_2483_53872"/>
<feBlend mode="normal" in="SourceGraphic" in2="effect1_dropShadow_2483_53872" result="shape"/>
</filter>
<filter id="filter7_d_2483_53872" x="235" y="288" width="105" height="76" filterUnits="userSpaceOnUse" color-interpolation-filters="sRGB">
<feFlood flood-opacity="0" result="BackgroundImageFix"/>
<feColorMatrix in="SourceAlpha" type="matrix" values="0 0 0 0 0 0 0 0 0 0 0 0 0 0 0 0 0 0 127 0" result="hardAlpha"/>
<feOffset dy="10"/>
<feGaussianBlur stdDeviation="10"/>
<feComposite in2="hardAlpha" operator="out"/>
<feColorMatrix type="matrix" values="0 0 0 0 0 0 0 0 0 0 0 0 0 0 0 0 0 0 0.5 0"/>
<feBlend mode="normal" in2="BackgroundImageFix" result="effect1_dropShadow_2483_53872"/>
<feBlend mode="normal" in="SourceGraphic" in2="effect1_dropShadow_2483_53872" result="shape"/>
</filter>
<filter id="filter8_d_2483_53872" x="235" y="335" width="120" height="76" filterUnits="userSpaceOnUse" color-interpolation-filters="sRGB">
<feFlood flood-opacity="0" result="BackgroundImageFix"/>
<feColorMatrix in="SourceAlpha" type="matrix" values="0 0 0 0 0 0 0 0 0 0 0 0 0 0 0 0 0 0 127 0" result="hardAlpha"/>
<feOffset dy="10"/>
<feGaussianBlur stdDeviation="10"/>
<feComposite in2="hardAlpha" operator="out"/>
<feColorMatrix type="matrix" values="0 0 0 0 0 0 0 0 0 0 0 0 0 0 0 0 0 0 0.5 0"/>
<feBlend mode="normal" in2="BackgroundImageFix" result="effect1_dropShadow_2483_53872"/>
<feBlend mode="normal" in="SourceGraphic" in2="effect1_dropShadow_2483_53872" result="shape"/>
</filter>
<filter id="filter9_d_2483_53872" x="98" y="382" width="164.512" height="76" filterUnits="userSpaceOnUse" color-interpolation-filters="sRGB">
<feFlood flood-opacity="0" result="BackgroundImageFix"/>
<feColorMatrix in="SourceAlpha" type="matrix" values="0 0 0 0 0 0 0 0 0 0 0 0 0 0 0 0 0 0 127 0" result="hardAlpha"/>
<feOffset dy="10"/>
<feGaussianBlur stdDeviation="10"/>
<feComposite in2="hardAlpha" operator="out"/>
<feColorMatrix type="matrix" values="0 0 0 0 0 0 0 0 0 0 0 0 0 0 0 0 0 0 0.5 0"/>
<feBlend mode="normal" in2="BackgroundImageFix" result="effect1_dropShadow_2483_53872"/>
<feBlend mode="normal" in="SourceGraphic" in2="effect1_dropShadow_2483_53872" result="shape"/>
</filter>
<filter id="filter10_d_2483_53872" x="235" y="382" width="126" height="76" filterUnits="userSpaceOnUse" color-interpolation-filters="sRGB">
<feFlood flood-opacity="0" result="BackgroundImageFix"/>
<feColorMatrix in="SourceAlpha" type="matrix" values="0 0 0 0 0 0 0 0 0 0 0 0 0 0 0 0 0 0 127 0" result="hardAlpha"/>
<feOffset dy="10"/>
<feGaussianBlur stdDeviation="10"/>
<feComposite in2="hardAlpha" operator="out"/>
<feColorMatrix type="matrix" values="0 0 0 0 0 0 0 0 0 0 0 0 0 0 0 0 0 0 0.5 0"/>
<feBlend mode="normal" in2="BackgroundImageFix" result="effect1_dropShadow_2483_53872"/>
<feBlend mode="normal" in="SourceGraphic" in2="effect1_dropShadow_2483_53872" result="shape"/>
</filter>
<linearGradient id="paint0_linear_2483_53872" x1="228" y1="251" x2="228" y2="392" gradientUnits="userSpaceOnUse">
<stop stop-color="#0D0D11"/>
<stop offset="1" stop-color="#0D0D11"/>
</linearGradient>
<clipPath id="clip0_2483_53872">
<rect width="24" height="24" fill="white" transform="translate(127 257)"/>
</clipPath>
<clipPath id="clip1_2483_53872">
<rect width="24" height="24" fill="white" transform="translate(127 304)"/>
</clipPath>
<clipPath id="clip2_2483_53872">
<rect width="24" height="24" fill="white" transform="translate(265 304)"/>
</clipPath>
<clipPath id="clip3_2483_53872">
<rect width="24" height="24" fill="white" transform="translate(265 351)"/>
</clipPath>
</defs>
</svg>
